<?xml version="1.0" encoding="utf-8" standalone="no"?>
<!DOCTYPE svg PUBLIC "-//W3C//DTD SVG 1.1//EN"
  "http://www.w3.org/Graphics/SVG/1.1/DTD/svg11.dtd">
<svg xmlns:xlink="http://www.w3.org/1999/xlink" width="691.2pt" height="388.8pt" viewBox="0 0 691.2 388.8" xmlns="http://www.w3.org/2000/svg" version="1.1">
 <metadata>
  <rdf:RDF xmlns:dc="http://purl.org/dc/elements/1.1/" xmlns:cc="http://creativecommons.org/ns#" xmlns:rdf="http://www.w3.org/1999/02/22-rdf-syntax-ns#">
   <cc:Work>
    <dc:type rdf:resource="http://purl.org/dc/dcmitype/StillImage"/>
    <dc:date>2026-04-09T02:37:45.217580</dc:date>
    <dc:format>image/svg+xml</dc:format>
    <dc:creator>
     <cc:Agent>
      <dc:title>Matplotlib v3.9.4, https://matplotlib.org/</dc:title>
     </cc:Agent>
    </dc:creator>
   </cc:Work>
  </rdf:RDF>
 </metadata>
 <defs>
  <style type="text/css">*{stroke-linejoin: round; stroke-linecap: butt}</style>
 </defs>
 <g id="figure_1">
  <g id="patch_1">
   <path d="M 0 388.8 
L 691.2 388.8 
L 691.2 0 
L 0 0 
z
" style="fill: #ffffff"/>
  </g>
  <g id="axes_1">
   <g id="patch_2">
    <path d="M 0 -0 
L 691.2 -0 
L 691.2 24.48 
L 0 24.48 
z
" clip-path="url(#p4617c585e0)" style="fill: #2c3e50"/>
   </g>
   <g id="patch_3">
    <path d="M 31.68 59.04 
L 659.52 59.04 
L 659.52 60.48 
L 31.68 60.48 
z
" clip-path="url(#p4617c585e0)" style="fill: #ecf0f1"/>
   </g>
   <g id="patch_4">
    <path d="M 31.68 74.88 
L 143.28 74.88 
Q 147.6 74.88 147.6 79.2 
L 147.6 136.8 
Q 147.6 141.12 143.28 141.12 
L 31.68 141.12 
Q 27.36 141.12 27.36 136.8 
L 27.36 79.2 
Q 27.36 74.88 31.68 74.88 
z
" clip-path="url(#p4617c585e0)" style="fill: #4a90d9"/>
   </g>
   <g id="patch_5">
    <path d="M 160.56 74.88 
L 272.16 74.88 
Q 276.48 74.88 276.48 79.2 
L 276.48 136.8 
Q 276.48 141.12 272.16 141.12 
L 160.56 141.12 
Q 156.24 141.12 156.24 136.8 
L 156.24 79.2 
Q 156.24 74.88 160.56 74.88 
z
" clip-path="url(#p4617c585e0)" style="fill: #5ba85a"/>
   </g>
   <g id="patch_6">
    <path d="M 289.44 74.88 
L 401.04 74.88 
Q 405.36 74.88 405.36 79.2 
L 405.36 136.8 
Q 405.36 141.12 401.04 141.12 
L 289.44 141.12 
Q 285.12 141.12 285.12 136.8 
L 285.12 79.2 
Q 285.12 74.88 289.44 74.88 
z
" clip-path="url(#p4617c585e0)" style="fill: #e8a838"/>
   </g>
   <g id="patch_7">
    <path d="M 418.32 74.88 
L 529.92 74.88 
Q 534.24 74.88 534.24 79.2 
L 534.24 136.8 
Q 534.24 141.12 529.92 141.12 
L 418.32 141.12 
Q 414 141.12 414 136.8 
L 414 79.2 
Q 414 74.88 418.32 74.88 
z
" clip-path="url(#p4617c585e0)" style="fill: #c0392b"/>
   </g>
   <g id="patch_8">
    <path d="M 547.2 74.88 
L 658.8 74.88 
Q 663.12 74.88 663.12 79.2 
L 663.12 136.8 
Q 663.12 141.12 658.8 141.12 
L 547.2 141.12 
Q 542.88 141.12 542.88 136.8 
L 542.88 79.2 
Q 542.88 74.88 547.2 74.88 
z
" clip-path="url(#p4617c585e0)" style="fill: #8e44ad"/>
   </g>
   <g id="patch_9">
    <path d="M 31.68 158.4 
L 406.08 158.4 
L 406.08 181.44 
L 31.68 181.44 
z
" clip-path="url(#p4617c585e0)" style="fill: #2c3e50; stroke: #ffffff; stroke-linejoin: miter"/>
   </g>
   <g id="patch_10">
    <path d="M 406.08 158.4 
L 659.52 158.4 
L 659.52 181.44 
L 406.08 181.44 
z
" clip-path="url(#p4617c585e0)" style="fill: #2c3e50; stroke: #ffffff; stroke-linejoin: miter"/>
   </g>
   <g id="patch_11">
    <path d="M 31.68 181.44 
L 406.08 181.44 
L 406.08 204.48 
L 31.68 204.48 
z
" clip-path="url(#p4617c585e0)" style="fill: #ffffff; stroke: #ecf0f1; stroke-width: 0.5; stroke-linejoin: miter"/>
   </g>
   <g id="patch_12">
    <path d="M 406.08 181.44 
L 659.52 181.44 
L 659.52 204.48 
L 406.08 204.48 
z
" clip-path="url(#p4617c585e0)" style="fill: #ffffff; stroke: #ecf0f1; stroke-width: 0.5; stroke-linejoin: miter"/>
   </g>
   <g id="patch_13">
    <path d="M 31.68 204.48 
L 406.08 204.48 
L 406.08 227.52 
L 31.68 227.52 
z
" clip-path="url(#p4617c585e0)" style="fill: #f8f9fa; stroke: #ecf0f1; stroke-width: 0.5; stroke-linejoin: miter"/>
   </g>
   <g id="patch_14">
    <path d="M 406.08 204.48 
L 659.52 204.48 
L 659.52 227.52 
L 406.08 227.52 
z
" clip-path="url(#p4617c585e0)" style="fill: #f8f9fa; stroke: #ecf0f1; stroke-width: 0.5; stroke-linejoin: miter"/>
   </g>
   <g id="patch_15">
    <path d="M 31.68 227.52 
L 406.08 227.52 
L 406.08 250.56 
L 31.68 250.56 
z
" clip-path="url(#p4617c585e0)" style="fill: #ffffff; stroke: #ecf0f1; stroke-width: 0.5; stroke-linejoin: miter"/>
   </g>
   <g id="patch_16">
    <path d="M 406.08 227.52 
L 659.52 227.52 
L 659.52 250.56 
L 406.08 250.56 
z
" clip-path="url(#p4617c585e0)" style="fill: #ffffff; stroke: #ecf0f1; stroke-width: 0.5; stroke-linejoin: miter"/>
   </g>
   <g id="patch_17">
    <path d="M 31.68 250.56 
L 406.08 250.56 
L 406.08 273.6 
L 31.68 273.6 
z
" clip-path="url(#p4617c585e0)" style="fill: #f8f9fa; stroke: #ecf0f1; stroke-width: 0.5; stroke-linejoin: miter"/>
   </g>
   <g id="patch_18">
    <path d="M 406.08 250.56 
L 659.52 250.56 
L 659.52 273.6 
L 406.08 273.6 
z
" clip-path="url(#p4617c585e0)" style="fill: #f8f9fa; stroke: #ecf0f1; stroke-width: 0.5; stroke-linejoin: miter"/>
   </g>
   <g id="patch_19">
    <path d="M 31.68 345.6 
L 659.52 345.6 
L 659.52 372.96 
L 31.68 372.96 
z
" clip-path="url(#p4617c585e0)" style="fill: #eafaf1"/>
   </g>
   <g id="patch_20">
    <path d="M 31.68 345.6 
L 33.84 345.6 
L 33.84 372.96 
L 31.68 372.96 
z
" clip-path="url(#p4617c585e0)" style="fill: #5ba85a"/>
   </g>
   <g id="text_1">
    <!-- オリエンテーション -->
    <g style="fill: #ffffff" transform="translate(31.68 15.035312) scale(0.1 -0.1)">
     <defs>
      <path id="IPAexGothic-30aa" d="M 3578 5000 
L 4078 5000 
L 4109 3719 
L 5678 3719 
L 5678 3272 
L 4122 3272 
L 4188 397 
Q 4197 -147 3553 -147 
Q 3125 -147 2663 -69 
L 2553 463 
Q 3088 359 3425 359 
Q 3688 359 3688 616 
L 3663 2288 
L 3681 3106 
Q 3203 2188 2456 1469 
Q 1791 828 994 425 
L 634 834 
Q 2294 1588 3303 3272 
L 878 3272 
L 878 3719 
L 3609 3719 
L 3578 5000 
z
" transform="scale(0.015625)"/>
      <path id="IPAexGothic-30ea" d="M 1678 4788 
L 2222 4788 
L 2222 1900 
L 1678 1900 
L 1678 4788 
z
M 4084 4909 
L 4628 4909 
L 4628 2753 
Q 4628 1563 4150 794 
Q 3725 119 2772 -353 
L 2394 78 
Q 3334 494 3706 1094 
Q 4084 1703 4084 2725 
L 4084 4909 
z
" transform="scale(0.015625)"/>
      <path id="IPAexGothic-30a8" d="M 1109 4063 
L 5294 4063 
L 5294 3594 
L 3444 3594 
L 3444 988 
L 5759 988 
L 5759 513 
L 641 513 
L 641 988 
L 2913 988 
L 2913 3594 
L 1109 3594 
L 1109 4063 
z
" transform="scale(0.015625)"/>
      <path id="IPAexGothic-30f3" d="M 2444 3084 
Q 1816 3656 1056 4084 
L 1381 4519 
Q 2063 4191 2816 3559 
L 2444 3084 
z
M 1100 609 
Q 3984 1106 5216 3828 
L 5619 3469 
Q 4413 794 1434 103 
L 1100 609 
z
" transform="scale(0.015625)"/>
      <path id="IPAexGothic-30c6" d="M 563 3072 
L 5741 3072 
L 5741 2613 
L 3578 2613 
Q 3538 1516 3134 872 
Q 2688 156 1663 -256 
L 1313 156 
Q 2338 538 2713 1166 
Q 3003 1644 3034 2613 
L 563 2613 
L 563 3072 
z
M 1406 4588 
L 4941 4588 
L 4941 4128 
L 1406 4128 
L 1406 4588 
z
" transform="scale(0.015625)"/>
      <path id="IPAexGothic-30fc" d="M 588 2688 
L 5809 2688 
L 5809 2175 
L 588 2175 
L 588 2688 
z
" transform="scale(0.015625)"/>
      <path id="IPAexGothic-30b7" d="M 2828 3531 
Q 2219 4056 1613 4359 
L 1913 4781 
Q 2503 4491 3169 3981 
L 2828 3531 
z
M 1163 500 
Q 3944 1094 5338 3525 
L 5688 3128 
Q 4297 700 1484 0 
L 1163 500 
z
M 2072 2278 
Q 1466 2800 831 3109 
L 1131 3541 
Q 1806 3213 2406 2725 
L 2072 2278 
z
" transform="scale(0.015625)"/>
      <path id="IPAexGothic-30e7" d="M 1625 3469 
L 4653 3469 
L 4653 0 
L 4172 0 
L 4172 294 
L 1553 294 
L 1553 753 
L 4172 753 
L 4172 1734 
L 1766 1734 
L 1766 2169 
L 4172 2169 
L 4172 3028 
L 1625 3028 
L 1625 3469 
z
" transform="scale(0.015625)"/>
     </defs>
     <use xlink:href="#IPAexGothic-30aa"/>
     <use xlink:href="#IPAexGothic-30ea" x="100"/>
     <use xlink:href="#IPAexGothic-30a8" x="200"/>
     <use xlink:href="#IPAexGothic-30f3" x="300"/>
     <use xlink:href="#IPAexGothic-30c6" x="400"/>
     <use xlink:href="#IPAexGothic-30fc" x="500"/>
     <use xlink:href="#IPAexGothic-30b7" x="600"/>
     <use xlink:href="#IPAexGothic-30e7" x="700"/>
     <use xlink:href="#IPAexGothic-30f3" x="800"/>
    </g>
   </g>
   <g id="text_2">
    <!-- データサイエンティストの仕事フロー -->
    <g style="fill: #1a1a2e" transform="translate(31.68 55.44) scale(0.24 -0.24)">
     <defs>
      <path id="IPAexGothic-30c7" d="M 563 3072 
L 5741 3072 
L 5741 2613 
L 3578 2613 
Q 3538 1516 3134 872 
Q 2688 156 1663 -256 
L 1313 156 
Q 2338 538 2713 1166 
Q 3003 1644 3034 2613 
L 563 2613 
L 563 3072 
z
M 1406 4588 
L 4588 4588 
L 4588 4128 
L 1406 4128 
L 1406 4588 
z
M 6009 4469 
Q 5647 5009 5253 5338 
L 5553 5569 
Q 5938 5259 6328 4744 
L 6009 4469 
z
M 5413 4000 
Q 5125 4491 4678 4891 
L 4991 5131 
Q 5363 4825 5747 4275 
L 5413 4000 
z
" transform="scale(0.015625)"/>
      <path id="IPAexGothic-30bf" d="M 4978 4263 
L 5313 3988 
Q 4797 2431 4056 1459 
Q 3191 325 1822 -300 
L 1466 109 
Q 2131 381 2613 738 
Q 3053 1066 3531 1600 
Q 2919 2225 2144 2791 
Q 1603 2203 1172 1875 
L 825 2234 
Q 2316 3328 2866 5031 
L 3359 4897 
Q 3325 4775 3109 4263 
L 4978 4263 
z
M 2894 3816 
Q 2709 3522 2438 3169 
Q 3194 2616 3841 2003 
Q 4366 2806 4747 3816 
L 2894 3816 
z
" transform="scale(0.015625)"/>
      <path id="IPAexGothic-30b5" d="M 3994 4919 
L 4506 4919 
L 4506 3531 
L 5888 3531 
L 5888 3072 
L 4506 3072 
Q 4488 1719 4153 1063 
Q 3728 222 2644 -325 
L 2266 38 
Q 3325 525 3713 1319 
Q 3975 1853 3994 3072 
L 2331 3072 
L 2331 1575 
L 1819 1575 
L 1819 3072 
L 513 3072 
L 513 3531 
L 1819 3531 
L 1819 4797 
L 2331 4797 
L 2331 3531 
L 3994 3531 
L 3994 4919 
z
" transform="scale(0.015625)"/>
      <path id="IPAexGothic-30a4" d="M 3131 -231 
L 3131 2875 
Q 2091 2088 1106 1656 
L 781 2059 
Q 3016 3000 4469 4916 
L 4916 4641 
Q 4384 3938 3675 3316 
L 3675 -231 
L 3131 -231 
z
" transform="scale(0.015625)"/>
      <path id="IPAexGothic-30a3" d="M 3034 -231 
L 3034 2188 
Q 2344 1656 1516 1294 
L 1191 1672 
Q 2981 2431 4128 3922 
L 4519 3634 
Q 4138 3122 3534 2597 
L 3534 -231 
L 3034 -231 
z
" transform="scale(0.015625)"/>
      <path id="IPAexGothic-30b9" d="M 4359 4481 
L 4716 4147 
Q 4328 3072 3647 2150 
Q 4659 1434 5659 453 
L 5234 19 
Q 4256 1088 3353 1778 
Q 2372 597 1044 -31 
L 653 403 
Q 3128 1453 4097 4000 
L 1241 3963 
L 1228 4453 
L 4359 4481 
z
" transform="scale(0.015625)"/>
      <path id="IPAexGothic-30c8" d="M 2284 4997 
L 2803 4997 
L 2803 3206 
Q 4088 2619 5216 1888 
L 4878 1369 
Q 3819 2175 2803 2688 
L 2803 -184 
L 2284 -184 
L 2284 4997 
z
" transform="scale(0.015625)"/>
      <path id="IPAexGothic-306e" d="M 3119 469 
Q 5275 766 5275 2425 
Q 5275 3453 4413 3925 
Q 4041 4116 3547 4159 
Q 3394 2525 2850 1400 
Q 2322 306 1722 306 
Q 1384 306 1084 666 
Q 609 1244 609 2003 
Q 609 3025 1397 3794 
Q 2184 4563 3431 4563 
Q 4306 4563 4928 4122 
Q 5813 3506 5813 2425 
Q 5813 438 3431 6 
L 3119 469 
z
M 3053 4147 
Q 2378 4044 1891 3641 
Q 1097 2981 1097 1991 
Q 1097 1366 1434 978 
Q 1581 813 1719 813 
Q 2022 813 2416 1625 
Q 2909 2638 3053 4147 
z
" transform="scale(0.015625)"/>
      <path id="IPAexGothic-4ed5" d="M 1634 3688 
L 1634 -447 
L 1166 -447 
L 1166 2809 
Q 869 2334 519 1894 
L 263 2291 
Q 1225 3463 1691 5178 
L 2153 5050 
Q 1922 4300 1634 3688 
z
M 4159 3366 
L 5991 3366 
L 5991 2938 
L 4159 2938 
L 4159 288 
L 5766 288 
L 5766 -141 
L 2109 -141 
L 2109 288 
L 3678 288 
L 3678 2938 
L 1938 2938 
L 1938 3366 
L 3678 3366 
L 3678 5150 
L 4159 5150 
L 4159 3366 
z
" transform="scale(0.015625)"/>
      <path id="IPAexGothic-4e8b" d="M 2950 3922 
L 2950 4294 
L 478 4294 
L 478 4659 
L 2950 4659 
L 2950 5313 
L 3403 5313 
L 3403 4659 
L 5919 4659 
L 5919 4294 
L 3403 4294 
L 3403 3922 
L 5234 3922 
L 5234 2822 
L 3403 2822 
L 3403 2450 
L 5325 2450 
L 5325 1759 
L 6081 1759 
L 6081 1381 
L 5325 1381 
L 5325 397 
L 4881 397 
L 4881 672 
L 3403 672 
L 3403 6 
Q 3403 -263 3269 -356 
Q 3150 -441 2841 -441 
Q 2497 -441 2116 -403 
L 2041 56 
Q 2450 -25 2731 -25 
Q 2950 -25 2950 159 
L 2950 672 
L 844 672 
L 844 1025 
L 2950 1025 
L 2950 1394 
L 319 1394 
L 319 1747 
L 2950 1747 
L 2950 2097 
L 838 2097 
L 838 2450 
L 2950 2450 
L 2950 2822 
L 1156 2822 
L 1156 3922 
L 2950 3922 
z
M 2950 3591 
L 1584 3591 
L 1584 3163 
L 2950 3163 
L 2950 3591 
z
M 3403 3591 
L 3403 3163 
L 4806 3163 
L 4806 3591 
L 3403 3591 
z
M 3403 1025 
L 4881 1025 
L 4881 1394 
L 3403 1394 
L 3403 1025 
z
M 3403 1747 
L 4881 1747 
L 4881 2097 
L 3403 2097 
L 3403 1747 
z
" transform="scale(0.015625)"/>
      <path id="IPAexGothic-30d5" d="M 4966 4294 
L 5263 4019 
Q 4819 894 1966 -97 
L 1600 353 
Q 4234 1156 4684 3822 
L 1044 3756 
L 1044 4244 
L 4966 4294 
z
" transform="scale(0.015625)"/>
      <path id="IPAexGothic-30ed" d="M 1147 4269 
L 5250 4269 
L 5250 172 
L 4725 172 
L 4725 569 
L 1672 569 
L 1672 172 
L 1147 172 
L 1147 4269 
z
M 1672 3781 
L 1672 1063 
L 4725 1063 
L 4725 3781 
L 1672 3781 
z
" transform="scale(0.015625)"/>
     </defs>
     <use xlink:href="#IPAexGothic-30c7"/>
     <use xlink:href="#IPAexGothic-30fc" x="100"/>
     <use xlink:href="#IPAexGothic-30bf" x="200"/>
     <use xlink:href="#IPAexGothic-30b5" x="300"/>
     <use xlink:href="#IPAexGothic-30a4" x="400"/>
     <use xlink:href="#IPAexGothic-30a8" x="500"/>
     <use xlink:href="#IPAexGothic-30f3" x="600"/>
     <use xlink:href="#IPAexGothic-30c6" x="700"/>
     <use xlink:href="#IPAexGothic-30a3" x="800"/>
     <use xlink:href="#IPAexGothic-30b9" x="900"/>
     <use xlink:href="#IPAexGothic-30c8" x="1000"/>
     <use xlink:href="#IPAexGothic-306e" x="1100"/>
     <use xlink:href="#IPAexGothic-4ed5" x="1200"/>
     <use xlink:href="#IPAexGothic-4e8b" x="1300"/>
     <use xlink:href="#IPAexGothic-30d5" x="1400"/>
     <use xlink:href="#IPAexGothic-30ed" x="1500"/>
     <use xlink:href="#IPAexGothic-30fc" x="1600"/>
    </g>
   </g>
   <g id="text_3">
    <!-- ① データ -->
    <g style="fill: #ffffff" transform="translate(63.995 102.042692) scale(0.11 -0.11)">
     <defs>
      <path id="IPAexGothic-2460" d="M 3013 391 
L 3013 3847 
Q 2625 3653 2291 3572 
L 2291 4050 
Q 2731 4156 3147 4475 
L 3563 4475 
L 3563 391 
L 3013 391 
z
M 3213 5459 
Q 3938 5459 4606 5100 
Q 5203 4778 5616 4231 
Q 6225 3409 6225 2425 
Q 6225 1694 5866 1025 
Q 5534 413 4997 16 
Q 4175 -594 3194 -594 
Q 2431 -594 1766 -222 
Q 1166 109 759 659 
Q 172 1463 172 2441 
Q 172 3878 1344 4800 
Q 2163 5459 3213 5459 
z
M 3184 5166 
Q 2550 5166 1963 4859 
Q 1416 4581 1041 4091 
Q 466 3350 466 2425 
Q 466 1784 772 1197 
Q 1050 650 1541 275 
Q 2281 -300 3206 -300 
Q 3847 -300 4434 6 
Q 4981 284 5356 775 
Q 5931 1516 5931 2434 
Q 5931 3719 4900 4556 
Q 4138 5166 3184 5166 
z
" transform="scale(0.015625)"/>
      <path id="IPAexGothic-20" transform="scale(0.015625)"/>
     </defs>
     <use xlink:href="#IPAexGothic-2460"/>
     <use xlink:href="#IPAexGothic-20" x="100"/>
     <use xlink:href="#IPAexGothic-30c7" x="127.001953"/>
     <use xlink:href="#IPAexGothic-30fc" x="227.001953"/>
     <use xlink:href="#IPAexGothic-30bf" x="327.001953"/>
    </g>
   </g>
   <g id="text_4">
    <!-- 収集・準備 -->
    <g style="fill: #ffffff" transform="translate(59.98 128.093026) scale(0.11 -0.11)">
     <defs>
      <path id="IPAexGothic-53ce" d="M 1978 1325 
Q 1216 1009 472 781 
L 300 1228 
Q 691 1331 844 1381 
L 844 4581 
L 1297 4581 
L 1297 1516 
Q 1563 1606 1978 1747 
L 1978 5141 
L 2438 5141 
L 2438 -397 
L 1978 -397 
L 1978 1325 
z
M 4709 1319 
Q 5225 641 6084 128 
L 5772 -341 
Q 4938 284 4447 909 
Q 3809 50 2847 -475 
L 2559 -72 
Q 3534 397 4172 1288 
Q 3431 2450 3116 4159 
L 2738 4159 
L 2738 4588 
L 5497 4588 
L 5722 4403 
Q 5344 2413 4709 1319 
z
M 4434 1716 
Q 4975 2750 5191 4159 
L 3556 4159 
Q 3797 2709 4434 1716 
z
" transform="scale(0.015625)"/>
      <path id="IPAexGothic-96c6" d="M 3000 4634 
Q 3197 5047 3275 5338 
L 3775 5216 
Q 3634 4922 3447 4634 
L 5625 4634 
L 5625 4269 
L 3416 4269 
L 3416 3884 
L 5291 3884 
L 5291 3553 
L 3416 3553 
L 3416 3175 
L 5291 3175 
L 5291 2844 
L 3416 2844 
L 3416 2431 
L 5759 2431 
L 5759 2066 
L 3403 2066 
L 3403 1659 
L 5981 1659 
L 5981 1281 
L 3741 1281 
Q 4628 538 6078 141 
L 5759 -275 
Q 4266 222 3403 1122 
L 3403 -447 
L 2950 -447 
L 2950 1091 
Q 2094 69 600 -409 
L 294 -25 
Q 1778 388 2644 1281 
L 416 1281 
L 416 1659 
L 2950 1659 
L 2950 2066 
L 1222 2066 
L 1222 3744 
Q 894 3322 600 3066 
L 306 3375 
Q 1209 4163 1625 5338 
L 2091 5244 
Q 1950 4909 1797 4634 
L 3000 4634 
z
M 1663 4269 
L 1663 3884 
L 3000 3884 
L 3000 4269 
L 1663 4269 
z
M 1663 3553 
L 1663 3175 
L 3000 3175 
L 3000 3553 
L 1663 3553 
z
M 1663 2844 
L 1663 2431 
L 3000 2431 
L 3000 2844 
L 1663 2844 
z
" transform="scale(0.015625)"/>
      <path id="IPAexGothic-30fb" d="M 2772 2859 
L 3628 2859 
L 3628 2003 
L 2772 2003 
L 2772 2859 
z
" transform="scale(0.015625)"/>
      <path id="IPAexGothic-6e96" d="M 4341 4141 
L 4341 3694 
L 5506 3694 
L 5506 3353 
L 4341 3353 
L 4341 2906 
L 5506 2906 
L 5506 2566 
L 4341 2566 
L 4341 2088 
L 5922 2088 
L 5922 1722 
L 3413 1722 
L 3413 1100 
L 6081 1100 
L 6081 703 
L 3413 703 
L 3413 -450 
L 2938 -450 
L 2938 703 
L 319 703 
L 319 1100 
L 2938 1100 
L 2938 1722 
L 2450 1722 
L 2450 3644 
Q 2288 3441 2047 3188 
L 1759 3528 
Q 2531 4259 2841 5288 
L 3297 5166 
Q 3156 4800 3003 4500 
L 3969 4500 
Q 4163 4869 4284 5269 
L 4756 5159 
Q 4572 4759 4409 4500 
L 5794 4500 
L 5794 4141 
L 4341 4141 
z
M 3931 4141 
L 2878 4141 
L 2878 3694 
L 3931 3694 
L 3931 4141 
z
M 2878 2088 
L 3931 2088 
L 3931 2566 
L 2878 2566 
L 2878 2088 
z
M 2878 2906 
L 3931 2906 
L 3931 3353 
L 2878 3353 
L 2878 2906 
z
M 497 1778 
Q 1053 2316 1625 3178 
L 1913 2897 
Q 1484 2128 875 1431 
L 497 1778 
z
M 1559 4134 
Q 1109 4519 678 4769 
L 941 5131 
Q 1494 4831 1834 4519 
L 1559 4134 
z
M 1297 3141 
Q 997 3388 397 3763 
L 631 4122 
Q 1153 3847 1547 3538 
L 1297 3141 
z
" transform="scale(0.015625)"/>
      <path id="IPAexGothic-5099" d="M 1394 3719 
L 1394 -447 
L 966 -447 
L 966 2700 
Q 750 2272 478 1869 
L 244 2272 
Q 1044 3534 1388 5319 
L 1816 5209 
Q 1638 4391 1394 3719 
z
M 2991 4538 
L 2991 5313 
L 3419 5313 
L 3419 4538 
L 4384 4538 
L 4384 5313 
L 4813 5313 
L 4813 4538 
L 5819 4538 
L 5819 4178 
L 4813 4178 
L 4813 3541 
L 6047 3541 
L 6047 3181 
L 2369 3181 
L 2369 2528 
Q 2369 1313 2228 666 
Q 2097 75 1794 -397 
L 1447 -81 
Q 1775 428 1869 1153 
Q 1941 1706 1941 2553 
L 1941 3541 
L 2991 3541 
L 2991 4178 
L 2038 4178 
L 2038 4538 
L 2991 4538 
z
M 4384 4178 
L 3419 4178 
L 3419 3541 
L 4384 3541 
L 4384 4178 
z
M 5653 2731 
L 5653 -19 
Q 5653 -409 5238 -409 
Q 4950 -409 4731 -384 
L 4666 31 
Q 4856 -13 5066 -13 
Q 5238 -13 5238 172 
L 5238 738 
L 4347 738 
L 4347 -288 
L 3944 -288 
L 3944 738 
L 3103 738 
L 3103 -447 
L 2681 -447 
L 2681 2731 
L 5653 2731 
z
M 3103 2378 
L 3103 1906 
L 3944 1906 
L 3944 2378 
L 3103 2378 
z
M 3103 1566 
L 3103 1078 
L 3944 1078 
L 3944 1566 
L 3103 1566 
z
M 5238 1078 
L 5238 1566 
L 4347 1566 
L 4347 1078 
L 5238 1078 
z
M 5238 1906 
L 5238 2378 
L 4347 2378 
L 4347 1906 
L 5238 1906 
z
" transform="scale(0.015625)"/>
     </defs>
     <use xlink:href="#IPAexGothic-53ce"/>
     <use xlink:href="#IPAexGothic-96c6" x="100"/>
     <use xlink:href="#IPAexGothic-30fb" x="200"/>
     <use xlink:href="#IPAexGothic-6e96" x="300"/>
     <use xlink:href="#IPAexGothic-5099" x="400"/>
    </g>
   </g>
   <g id="text_5">
    <!-- → -->
    <g style="fill: #95a5a6" transform="translate(144.72 112.192969) scale(0.15 -0.15)">
     <defs>
      <path id="IPAexGothic-2192" d="M 3947 3572 
L 4631 3572 
L 6072 2431 
L 4631 1294 
L 3947 1294 
L 5094 2194 
L 459 2194 
L 459 2669 
L 5094 2669 
L 3947 3572 
z
" transform="scale(0.015625)"/>
     </defs>
     <use xlink:href="#IPAexGothic-2192"/>
    </g>
   </g>
   <g id="text_6">
    <!-- ② EDA -->
    <g style="fill: #ffffff" transform="translate(198.434297 101.948161) scale(0.11 -0.11)">
     <defs>
      <path id="IPAexGothic-2461" d="M 4659 519 
L 1797 519 
Q 2019 1709 3275 2478 
Q 3694 2731 3859 2916 
Q 4038 3113 4038 3419 
Q 4038 3728 3831 3931 
Q 3609 4156 3275 4156 
Q 2869 4156 2609 3791 
Q 2434 3547 2425 3175 
L 1863 3175 
Q 1919 3772 2213 4122 
Q 2616 4603 3275 4603 
Q 3713 4603 4044 4384 
Q 4575 4038 4575 3419 
Q 4575 2663 3653 2166 
Q 2691 1634 2481 1006 
L 4659 1006 
L 4659 519 
z
M 3213 5459 
Q 3938 5459 4606 5100 
Q 5203 4778 5616 4231 
Q 6225 3409 6225 2425 
Q 6225 1694 5866 1025 
Q 5534 413 4997 16 
Q 4175 -594 3194 -594 
Q 2431 -594 1766 -222 
Q 1166 109 759 659 
Q 172 1463 172 2441 
Q 172 3878 1344 4800 
Q 2163 5459 3213 5459 
z
M 3184 5166 
Q 2550 5166 1963 4859 
Q 1416 4581 1041 4091 
Q 466 3350 466 2425 
Q 466 1784 772 1197 
Q 1050 650 1541 275 
Q 2281 -300 3206 -300 
Q 3847 -300 4434 6 
Q 4981 284 5356 775 
Q 5931 1516 5931 2434 
Q 5931 3719 4900 4556 
Q 4138 5166 3184 5166 
z
" transform="scale(0.015625)"/>
      <path id="IPAexGothic-45" d="M 3547 63 
L 609 63 
L 609 4634 
L 3469 4634 
L 3469 4147 
L 1166 4147 
L 1166 2650 
L 3206 2650 
L 3206 2191 
L 1166 2191 
L 1166 556 
L 3547 556 
L 3547 63 
z
" transform="scale(0.015625)"/>
      <path id="IPAexGothic-44" d="M 609 4634 
L 1984 4634 
Q 3159 4634 3791 4050 
Q 4456 3444 4456 2356 
Q 4456 1047 3516 441 
Q 2925 63 1941 63 
L 609 63 
L 609 4634 
z
M 1172 556 
L 1894 556 
Q 3853 556 3853 2356 
Q 3853 4147 1928 4147 
L 1172 4147 
L 1172 556 
z
" transform="scale(0.015625)"/>
      <path id="IPAexGothic-41" d="M 4056 63 
L 3444 63 
L 2938 1409 
L 1100 1409 
L 603 63 
L -6 63 
L 1806 4666 
L 2259 4666 
L 4056 63 
z
M 2778 1863 
L 2316 3078 
Q 2125 3588 2028 4000 
L 2009 4000 
Q 1897 3563 1716 3078 
L 1263 1863 
L 2778 1863 
z
" transform="scale(0.015625)"/>
     </defs>
     <use xlink:href="#IPAexGothic-2461"/>
     <use xlink:href="#IPAexGothic-20" x="100"/>
     <use xlink:href="#IPAexGothic-45" x="127.001953"/>
     <use xlink:href="#IPAexGothic-44" x="186.523438"/>
     <use xlink:href="#IPAexGothic-41" x="262.207031"/>
    </g>
   </g>
   <g id="text_7">
    <!-- 探索的分析 -->
    <g style="fill: #ffffff" transform="translate(188.86 128.093026) scale(0.11 -0.11)">
     <defs>
      <path id="IPAexGothic-63a2" d="M 4794 4525 
L 4794 3416 
Q 4794 3291 4850 3250 
Q 4913 3206 5131 3206 
Q 5488 3206 5547 3316 
Q 5588 3397 5600 3756 
L 6003 3616 
Q 5972 3097 5881 2975 
Q 5753 2809 5069 2809 
Q 4669 2809 4550 2872 
Q 4366 2963 4366 3200 
L 4366 4525 
L 2834 4525 
L 2834 3691 
L 2400 3691 
L 2400 4922 
L 5900 4922 
L 5900 3866 
L 5472 3866 
L 5472 4525 
L 4794 4525 
z
M 4469 1778 
Q 5084 834 6150 306 
L 5831 -103 
Q 4856 522 4359 1331 
L 4359 -450 
L 3931 -450 
L 3931 1291 
Q 3472 400 2497 -188 
L 2191 184 
Q 3241 700 3828 1778 
L 2350 1778 
L 2350 2175 
L 3931 2175 
L 3931 2859 
L 4359 2859 
L 4359 2175 
L 6028 2175 
L 6028 1778 
L 4469 1778 
z
M 1184 4019 
L 1184 5313 
L 1613 5313 
L 1613 4019 
L 2238 4019 
L 2238 3603 
L 1613 3603 
L 1613 2406 
Q 1856 2484 2272 2644 
L 2316 2272 
Q 1966 2116 1613 1984 
L 1613 6 
Q 1613 -272 1491 -363 
Q 1391 -447 1088 -447 
Q 803 -447 525 -409 
L 447 50 
Q 747 -6 978 -6 
Q 1184 -6 1184 172 
L 1184 1831 
Q 759 1684 428 1588 
L 275 2009 
Q 634 2100 1184 2266 
L 1184 3603 
L 372 3603 
L 372 4019 
L 1184 4019 
z
M 2431 2913 
Q 3375 3338 3481 4434 
L 3903 4341 
Q 3806 3494 3347 3016 
Q 3113 2772 2706 2553 
L 2431 2913 
z
" transform="scale(0.015625)"/>
      <path id="IPAexGothic-7d22" d="M 3419 1247 
L 3419 -450 
L 2931 -450 
L 2931 1222 
L 2547 1209 
Q 1831 1178 525 1144 
L 384 1575 
Q 1184 1575 2222 1588 
L 2450 1594 
Q 1797 2219 1297 2566 
L 1631 2834 
Q 1916 2634 2163 2419 
Q 2569 2784 2913 3238 
L 978 3238 
L 978 2559 
L 538 2559 
L 538 3616 
L 2950 3616 
L 2950 4206 
L 703 4206 
L 703 4603 
L 2950 4603 
L 2950 5313 
L 3403 5313 
L 3403 4603 
L 5691 4603 
L 5691 4206 
L 3403 4206 
L 3403 3616 
L 5869 3616 
L 5869 2559 
L 5428 2559 
L 5428 3238 
L 3059 3238 
L 3328 3059 
Q 2847 2500 2450 2175 
Q 2597 2056 2913 1741 
Q 3644 2325 4256 3025 
L 4653 2778 
Q 4041 2134 3444 1663 
L 3384 1619 
L 3719 1631 
L 3866 1631 
L 4678 1663 
L 4788 1669 
L 5038 1681 
Q 4778 1919 4531 2125 
L 4841 2359 
Q 5500 1869 6053 1284 
L 5691 984 
Q 5469 1244 5350 1369 
L 5116 1350 
Q 4909 1341 4531 1313 
L 3419 1247 
z
M 544 -6 
Q 1394 366 2003 984 
L 2431 769 
Q 1753 59 922 -366 
L 544 -6 
z
M 5538 -281 
Q 4797 372 4006 800 
L 4372 1069 
Q 5228 644 5922 91 
L 5538 -281 
z
" transform="scale(0.015625)"/>
      <path id="IPAexGothic-7684" d="M 5925 4141 
Q 5859 888 5656 91 
Q 5581 -219 5350 -325 
Q 5178 -397 4856 -397 
Q 4428 -397 4044 -353 
L 3953 134 
Q 4444 56 4838 56 
Q 5128 56 5203 234 
Q 5400 706 5459 3438 
L 5466 3719 
L 3838 3719 
Q 3550 3031 3116 2503 
L 2809 2856 
Q 3469 3659 3788 5172 
L 4250 5050 
Q 4144 4559 4000 4141 
L 5925 4141 
z
M 1316 4244 
L 1394 4475 
Q 1500 4806 1566 5209 
L 2053 5141 
Q 1872 4525 1753 4244 
L 2756 4244 
L 2756 366 
L 1022 366 
L 1022 -91 
L 581 -91 
L 581 4244 
L 1316 4244 
z
M 1022 3847 
L 1022 2553 
L 2316 2553 
L 2316 3847 
L 1022 3847 
z
M 1022 2169 
L 1022 763 
L 2316 763 
L 2316 2169 
L 1022 2169 
z
M 4384 1288 
Q 3975 2069 3531 2578 
L 3859 2834 
Q 4375 2259 4753 1569 
L 4384 1288 
z
" transform="scale(0.015625)"/>
      <path id="IPAexGothic-5206" d="M 3031 2431 
Q 2916 1378 2528 759 
Q 1991 -81 941 -469 
L 625 -53 
Q 2356 488 2541 2431 
L 1375 2431 
L 1375 2772 
Q 1044 2431 653 2156 
L 313 2534 
Q 1600 3425 2219 5056 
L 2688 4875 
Q 2200 3672 1453 2847 
L 4966 2847 
Q 4878 559 4741 94 
Q 4666 -163 4459 -250 
Q 4288 -322 3941 -322 
Q 3525 -322 2981 -263 
L 2884 256 
Q 3441 138 3844 138 
Q 4213 138 4281 438 
Q 4388 931 4472 2431 
L 3031 2431 
z
M 5747 2303 
Q 4416 3238 3506 4934 
L 3934 5113 
Q 4747 3572 6084 2747 
L 5747 2303 
z
" transform="scale(0.015625)"/>
      <path id="IPAexGothic-6790" d="M 1363 2669 
L 1350 2625 
Q 1066 1647 550 781 
L 263 1256 
Q 953 2256 1300 3541 
L 397 3541 
L 397 3956 
L 1363 3956 
L 1363 5300 
L 1803 5300 
L 1803 3956 
L 2700 3956 
L 2700 3541 
L 1803 3541 
L 1803 2931 
Q 2375 2453 2788 1991 
L 2519 1531 
Q 2156 2053 1803 2434 
L 1803 -447 
L 1363 -447 
L 1363 2669 
z
M 3016 4634 
L 3156 4647 
Q 4450 4763 5319 5075 
L 5709 4678 
Q 4731 4363 3469 4256 
L 3469 3213 
L 6088 3213 
L 6088 2797 
L 5134 2797 
L 5134 -441 
L 4681 -441 
L 4681 2797 
L 3469 2797 
Q 3469 1600 3347 972 
Q 3184 100 2663 -525 
L 2331 -225 
Q 2850 488 2953 1325 
Q 3016 1772 3016 2584 
L 3016 4634 
z
" transform="scale(0.015625)"/>
     </defs>
     <use xlink:href="#IPAexGothic-63a2"/>
     <use xlink:href="#IPAexGothic-7d22" x="100"/>
     <use xlink:href="#IPAexGothic-7684" x="200"/>
     <use xlink:href="#IPAexGothic-5206" x="300"/>
     <use xlink:href="#IPAexGothic-6790" x="400"/>
    </g>
   </g>
   <g id="text_8">
    <!-- → -->
    <g style="fill: #95a5a6" transform="translate(273.6 112.192969) scale(0.15 -0.15)">
     <use xlink:href="#IPAexGothic-2192"/>
    </g>
   </g>
   <g id="text_9">
    <!-- ③ 可視化 -->
    <g style="fill: #ffffff" transform="translate(321.755 101.948161) scale(0.11 -0.11)">
     <defs>
      <path id="IPAexGothic-2462" d="M 2628 2778 
L 3116 2778 
Q 3984 2778 3984 3450 
Q 3984 3775 3716 3956 
Q 3516 4091 3203 4091 
Q 2491 4091 2388 3438 
L 1816 3438 
Q 1931 3981 2334 4269 
Q 2709 4538 3203 4538 
Q 3681 4538 4031 4319 
Q 4497 4025 4497 3494 
Q 4497 2825 3769 2588 
Q 4697 2309 4697 1544 
Q 4697 975 4244 634 
Q 3828 328 3231 328 
Q 2706 328 2297 591 
Q 1791 916 1716 1538 
L 2284 1538 
Q 2322 1166 2622 959 
Q 2881 788 3231 788 
Q 3534 788 3775 922 
Q 4159 1144 4159 1556 
Q 4159 1991 3763 2203 
Q 3509 2344 3116 2344 
L 2628 2344 
L 2628 2778 
z
M 3213 5459 
Q 3938 5459 4606 5100 
Q 5203 4778 5616 4231 
Q 6225 3409 6225 2425 
Q 6225 1694 5866 1025 
Q 5534 413 4997 16 
Q 4175 -594 3194 -594 
Q 2431 -594 1766 -222 
Q 1166 109 759 659 
Q 172 1463 172 2441 
Q 172 3878 1344 4800 
Q 2163 5459 3213 5459 
z
M 3184 5166 
Q 2550 5166 1963 4859 
Q 1416 4581 1041 4091 
Q 466 3350 466 2425 
Q 466 1784 772 1197 
Q 1050 650 1541 275 
Q 2281 -300 3206 -300 
Q 3847 -300 4434 6 
Q 4981 284 5356 775 
Q 5931 1516 5931 2434 
Q 5931 3719 4900 4556 
Q 4138 5166 3184 5166 
z
" transform="scale(0.015625)"/>
      <path id="IPAexGothic-53ef" d="M 5100 4313 
L 5100 288 
Q 5100 -63 4913 -200 
Q 4756 -322 4313 -322 
Q 3859 -322 3313 -263 
L 3231 263 
Q 3869 178 4294 178 
Q 4525 178 4575 275 
Q 4613 341 4613 497 
L 4613 4313 
L 416 4313 
L 416 4728 
L 5972 4728 
L 5972 4313 
L 5100 4313 
z
M 3666 3406 
L 3666 1259 
L 1713 1259 
L 1713 741 
L 1259 741 
L 1259 3406 
L 3666 3406 
z
M 1713 3003 
L 1713 1669 
L 3213 1669 
L 3213 3003 
L 1713 3003 
z
" transform="scale(0.015625)"/>
      <path id="IPAexGothic-8996" d="M 2953 1631 
L 2953 5050 
L 5622 5050 
L 5622 1631 
L 4916 1631 
L 4916 300 
Q 4916 138 5000 100 
Q 5050 75 5219 75 
Q 5584 75 5641 275 
Q 5678 419 5697 1003 
L 6116 825 
Q 6075 75 5981 -97 
Q 5875 -297 5622 -334 
Q 5478 -353 5159 -353 
Q 4797 -353 4659 -288 
Q 4488 -203 4488 91 
L 4488 1631 
L 4028 1631 
Q 3978 841 3675 378 
Q 3353 -119 2625 -453 
L 2319 -91 
Q 3003 175 3303 634 
Q 3547 1013 3603 1631 
L 2953 1631 
z
M 3375 2016 
L 5206 2016 
L 5206 2669 
L 3375 2669 
L 3375 2016 
z
M 3375 3041 
L 5206 3041 
L 5206 3666 
L 3375 3666 
L 3375 3041 
z
M 3375 4038 
L 5206 4038 
L 5206 4666 
L 3375 4666 
L 3375 4038 
z
M 1766 2547 
Q 2294 2244 2834 1797 
L 2541 1381 
Q 2181 1728 1791 2041 
L 1766 2059 
L 1766 -456 
L 1313 -456 
L 1313 2047 
Q 894 1559 463 1216 
L 206 1619 
Q 1319 2453 1981 3775 
L 391 3775 
L 391 4197 
L 1250 4197 
L 1250 5309 
L 1703 5309 
L 1703 4197 
L 2303 4197 
L 2541 3978 
Q 2234 3259 1766 2622 
L 1766 2547 
z
" transform="scale(0.015625)"/>
      <path id="IPAexGothic-5316" d="M 1831 3700 
L 1831 -341 
L 1356 -341 
L 1356 2772 
Q 1069 2275 678 1772 
L 378 2138 
Q 1319 3278 1856 5166 
L 2319 5013 
Q 2100 4319 1831 3700 
z
M 3425 2906 
Q 4528 3350 5306 3969 
L 5703 3616 
Q 4728 2919 3425 2444 
L 3425 575 
Q 3425 353 3584 306 
Q 3738 263 4334 263 
Q 5072 263 5250 347 
Q 5384 403 5422 594 
Q 5475 872 5506 1497 
L 5978 1331 
Q 5931 319 5775 106 
Q 5641 -75 5331 -141 
Q 5041 -206 4244 -206 
Q 3438 -206 3181 -78 
Q 2931 47 2931 384 
L 2931 5113 
L 3425 5113 
L 3425 2906 
z
" transform="scale(0.015625)"/>
     </defs>
     <use xlink:href="#IPAexGothic-2462"/>
     <use xlink:href="#IPAexGothic-20" x="100"/>
     <use xlink:href="#IPAexGothic-53ef" x="127.001953"/>
     <use xlink:href="#IPAexGothic-8996" x="227.001953"/>
     <use xlink:href="#IPAexGothic-5316" x="327.001953"/>
    </g>
   </g>
   <g id="text_10">
    <!-- 仮説立て -->
    <g style="fill: #ffffff" transform="translate(323.24 128.093026) scale(0.11 -0.11)">
     <defs>
      <path id="IPAexGothic-4eee" d="M 1644 3675 
L 1644 -447 
L 1175 -447 
L 1175 2747 
Q 925 2322 578 1863 
L 313 2253 
Q 1244 3463 1656 5178 
L 2131 5069 
Q 1919 4306 1644 3675 
z
M 2969 4481 
L 2969 3353 
L 5331 3353 
L 5600 3116 
Q 5275 1909 4722 1075 
Q 5275 494 6034 38 
L 5697 -384 
Q 4994 88 4434 684 
Q 3916 34 3091 -481 
L 2766 -72 
Q 3616 353 4141 1044 
Q 3463 1928 3194 2944 
L 2969 2944 
Q 2959 1709 2841 1056 
Q 2694 234 2216 -475 
L 1844 -134 
Q 2316 481 2438 1428 
Q 2516 2013 2516 2919 
L 2516 4897 
L 5869 4897 
L 5869 4481 
L 2969 4481 
z
M 4422 1441 
Q 4828 2069 5050 2944 
L 3647 2944 
Q 3863 2184 4422 1441 
z
" transform="scale(0.015625)"/>
      <path id="IPAexGothic-8aac" d="M 3541 1947 
L 2900 1947 
L 2900 3859 
L 4406 3859 
Q 4741 4516 4969 5241 
L 5438 5063 
Q 5166 4434 4847 3859 
L 5756 3859 
L 5756 1947 
L 4956 1947 
L 4956 281 
Q 4956 94 5213 94 
Q 5553 94 5603 241 
Q 5656 431 5666 1000 
L 6109 838 
Q 6100 9 5947 -181 
Q 5794 -353 5244 -353 
Q 4884 -353 4734 -303 
Q 4516 -225 4516 91 
L 4516 1947 
L 3981 1947 
Q 3981 1219 3816 709 
Q 3594 25 2875 -453 
L 2534 -116 
Q 3200 275 3406 897 
Q 3541 1291 3541 1934 
L 3541 1947 
z
M 5322 2338 
L 5322 3463 
L 3334 3463 
L 3334 2338 
L 5322 2338 
z
M 2394 1684 
L 2394 -128 
L 959 -128 
L 959 -447 
L 538 -447 
L 538 1684 
L 2394 1684 
z
M 959 1313 
L 959 244 
L 1978 244 
L 1978 1313 
L 959 1313 
z
M 634 5044 
L 2306 5044 
L 2306 4659 
L 634 4659 
L 634 5044 
z
M 353 4206 
L 2631 4206 
L 2631 3816 
L 353 3816 
L 353 4206 
z
M 634 3359 
L 2306 3359 
L 2306 2975 
L 634 2975 
L 634 3359 
z
M 634 2522 
L 2306 2522 
L 2306 2138 
L 634 2138 
L 634 2522 
z
M 3578 3988 
Q 3347 4569 3084 4966 
L 3481 5166 
Q 3769 4747 4000 4191 
L 3578 3988 
z
" transform="scale(0.015625)"/>
      <path id="IPAexGothic-7acb" d="M 3425 4050 
L 5747 4050 
L 5747 3622 
L 641 3622 
L 641 4050 
L 2925 4050 
L 2925 5113 
L 3425 5113 
L 3425 4050 
z
M 3572 459 
Q 3578 478 3600 541 
Q 3613 581 3622 606 
Q 4066 1825 4391 3447 
L 4897 3322 
Q 4522 1716 4072 459 
L 6009 459 
L 6009 31 
L 384 31 
L 384 459 
L 3572 459 
z
M 2047 678 
Q 1797 2000 1369 3166 
L 1844 3322 
Q 2253 2178 2547 813 
L 2047 678 
z
" transform="scale(0.015625)"/>
      <path id="IPAexGothic-3066" d="M 581 4034 
Q 2978 4363 5466 4556 
L 5509 4097 
Q 4388 4031 3750 3572 
Q 2797 2878 2797 1913 
Q 2797 1169 3291 819 
Q 3778 484 4869 416 
L 4906 -116 
Q 2278 0 2278 1850 
Q 2278 3125 3691 4000 
Q 2066 3784 684 3553 
L 581 4034 
z
" transform="scale(0.015625)"/>
     </defs>
     <use xlink:href="#IPAexGothic-4eee"/>
     <use xlink:href="#IPAexGothic-8aac" x="100"/>
     <use xlink:href="#IPAexGothic-7acb" x="200"/>
     <use xlink:href="#IPAexGothic-3066" x="300"/>
    </g>
   </g>
   <g id="text_11">
    <!-- → -->
    <g style="fill: #95a5a6" transform="translate(402.48 112.192969) scale(0.15 -0.15)">
     <use xlink:href="#IPAexGothic-2192"/>
    </g>
   </g>
   <g id="text_12">
    <!-- ④ モデル -->
    <g style="fill: #ffffff" transform="translate(450.635 102.042692) scale(0.11 -0.11)">
     <defs>
      <path id="IPAexGothic-2463" d="M 3391 4472 
L 3928 4472 
L 3928 1803 
L 4716 1803 
L 4716 1356 
L 3928 1356 
L 3928 391 
L 3428 391 
L 3428 1356 
L 1488 1356 
L 1488 1809 
L 3391 4472 
z
M 3428 3703 
L 2047 1803 
L 3428 1803 
L 3428 3703 
z
M 3213 5459 
Q 3938 5459 4606 5100 
Q 5203 4778 5616 4231 
Q 6225 3409 6225 2425 
Q 6225 1694 5866 1025 
Q 5534 413 4997 16 
Q 4175 -594 3194 -594 
Q 2431 -594 1766 -222 
Q 1166 109 759 659 
Q 172 1463 172 2441 
Q 172 3878 1344 4800 
Q 2163 5459 3213 5459 
z
M 3184 5166 
Q 2550 5166 1963 4859 
Q 1416 4581 1041 4091 
Q 466 3350 466 2425 
Q 466 1784 772 1197 
Q 1050 650 1541 275 
Q 2281 -300 3206 -300 
Q 3847 -300 4434 6 
Q 4981 284 5356 775 
Q 5931 1516 5931 2434 
Q 5931 3719 4900 4556 
Q 4138 5166 3184 5166 
z
" transform="scale(0.015625)"/>
      <path id="IPAexGothic-30e2" d="M 1216 4409 
L 5147 4409 
L 5147 3950 
L 3053 3950 
L 3053 2797 
L 5644 2797 
L 5644 2328 
L 3053 2328 
L 3053 972 
Q 3053 669 3272 600 
Q 3453 544 4013 544 
Q 4556 544 5269 600 
L 5269 97 
Q 4684 50 4147 50 
Q 3025 50 2753 250 
Q 2541 403 2541 825 
L 2541 2328 
L 744 2328 
L 744 2797 
L 2541 2797 
L 2541 3950 
L 1216 3950 
L 1216 4409 
z
" transform="scale(0.015625)"/>
      <path id="IPAexGothic-30eb" d="M 353 331 
Q 1313 994 1544 2022 
Q 1684 2650 1684 4397 
L 2203 4397 
L 2203 4153 
L 2203 4116 
Q 2203 2259 1934 1491 
Q 1619 588 744 -38 
L 353 331 
z
M 3125 4666 
L 3650 4666 
L 3650 769 
Q 4875 1488 5672 2734 
L 6000 2278 
Q 5075 966 3516 63 
L 3125 359 
L 3125 4666 
z
" transform="scale(0.015625)"/>
     </defs>
     <use xlink:href="#IPAexGothic-2463"/>
     <use xlink:href="#IPAexGothic-20" x="100"/>
     <use xlink:href="#IPAexGothic-30e2" x="127.001953"/>
     <use xlink:href="#IPAexGothic-30c7" x="227.001953"/>
     <use xlink:href="#IPAexGothic-30eb" x="327.001953"/>
    </g>
   </g>
   <g id="text_13">
    <!-- 構築・評価 -->
    <g style="fill: #ffffff" transform="translate(446.62 128.093026) scale(0.11 -0.11)">
     <defs>
      <path id="IPAexGothic-69cb" d="M 1206 2594 
Q 925 1575 456 788 
L 194 1250 
Q 856 2238 1153 3547 
L 328 3547 
L 328 3956 
L 1206 3956 
L 1206 5306 
L 1628 5306 
L 1628 3956 
L 2306 3956 
L 2306 3547 
L 1628 3547 
L 1628 2906 
Q 2213 2391 2447 2106 
L 2191 1647 
Q 1931 2031 1628 2406 
L 1628 -447 
L 1206 -447 
L 1206 2594 
z
M 5006 3194 
L 6100 3194 
L 6100 2841 
L 4328 2841 
L 4328 2509 
L 5647 2509 
L 5647 1025 
L 6131 1025 
L 6131 672 
L 5647 672 
L 5647 78 
Q 5647 -191 5525 -294 
Q 5413 -397 5106 -397 
Q 4716 -397 4409 -353 
L 4347 84 
Q 4759 13 5069 13 
Q 5228 13 5228 197 
L 5228 672 
L 3047 672 
L 3047 -447 
L 2631 -447 
L 2631 672 
L 1978 672 
L 1978 1025 
L 2631 1025 
L 2631 2509 
L 3913 2509 
L 3913 2841 
L 2175 2841 
L 2175 3194 
L 3222 3194 
L 3222 3631 
L 2522 3631 
L 2522 3956 
L 3222 3956 
L 3222 4369 
L 2291 4369 
L 2291 4709 
L 3222 4709 
L 3222 5313 
L 3644 5313 
L 3644 4709 
L 4591 4709 
L 4591 5313 
L 5006 5313 
L 5006 4709 
L 5953 4709 
L 5953 4369 
L 5006 4369 
L 5006 3956 
L 5759 3956 
L 5759 3631 
L 5006 3631 
L 5006 3194 
z
M 4591 3194 
L 4591 3631 
L 3644 3631 
L 3644 3194 
L 4591 3194 
z
M 4591 4369 
L 3644 4369 
L 3644 3956 
L 4591 3956 
L 4591 4369 
z
M 3047 2169 
L 3047 1759 
L 3925 1759 
L 3925 2169 
L 3047 2169 
z
M 3047 1434 
L 3047 1025 
L 3925 1025 
L 3925 1434 
L 3047 1434 
z
M 4316 2169 
L 4316 1759 
L 5228 1759 
L 5228 2169 
L 4316 2169 
z
M 4316 1434 
L 4316 1025 
L 5228 1025 
L 5228 1434 
L 4316 1434 
z
" transform="scale(0.015625)"/>
      <path id="IPAexGothic-7bc9" d="M 3397 1075 
L 3397 -447 
L 2956 -447 
L 2956 1031 
Q 2113 150 575 -319 
L 306 53 
Q 1706 406 2584 1159 
L 319 1159 
L 319 1544 
L 2956 1544 
L 2956 1922 
L 3397 1922 
L 3397 1544 
L 6078 1544 
L 6078 1159 
L 3859 1159 
Q 4634 591 6078 153 
L 5803 -238 
Q 4281 259 3397 1075 
z
M 1491 4878 
L 3175 4878 
L 3175 4506 
L 2163 4506 
L 2194 4450 
Q 2309 4231 2438 3919 
L 2034 3750 
Q 1866 4238 1709 4506 
L 1306 4506 
Q 1303 4503 1259 4428 
Q 997 3950 575 3597 
L 269 3872 
Q 900 4447 1203 5325 
L 1638 5244 
Q 1519 4938 1491 4878 
z
M 3944 4878 
L 6003 4878 
L 6003 4506 
L 4634 4506 
Q 4788 4300 4966 3950 
L 4563 3784 
Q 4350 4234 4159 4506 
L 3763 4506 
Q 3503 4047 3169 3719 
L 2853 4000 
Q 3369 4488 3659 5331 
L 4078 5250 
Q 4003 5009 3944 4878 
z
M 1931 3159 
L 1931 2550 
Q 2200 2622 2884 2813 
L 2909 2488 
Q 1816 2075 619 1841 
L 434 2238 
Q 947 2322 1431 2438 
L 1516 2456 
L 1516 3159 
L 556 3159 
L 556 3525 
L 2909 3525 
L 2909 3159 
L 1931 3159 
z
M 5094 3628 
L 5094 2475 
Q 5094 2316 5344 2316 
Q 5603 2316 5631 2450 
Q 5650 2534 5656 2872 
L 5663 2956 
L 6059 2834 
Q 6059 2709 6041 2525 
Q 6041 2509 6034 2447 
Q 6031 2413 6028 2397 
Q 6019 2150 5881 2022 
Q 5769 1919 5319 1919 
Q 4997 1919 4863 1969 
Q 4697 2038 4697 2269 
L 4697 3269 
L 3622 3269 
L 3622 3103 
Q 3622 2488 3300 2169 
Q 3125 1994 2784 1834 
L 2488 2128 
Q 2859 2294 3000 2438 
Q 3225 2659 3225 3091 
L 3225 3628 
L 5094 3628 
z
M 4359 2169 
Q 3953 2584 3666 2797 
L 3909 3072 
Q 4256 2822 4622 2478 
L 4359 2169 
z
" transform="scale(0.015625)"/>
      <path id="IPAexGothic-8a55" d="M 2272 1684 
L 2272 -416 
L 1863 -416 
L 1863 -128 
L 919 -128 
L 919 -447 
L 509 -447 
L 509 1684 
L 2272 1684 
z
M 919 1313 
L 919 244 
L 1863 244 
L 1863 1313 
L 919 1313 
z
M 4466 4434 
L 4466 1931 
L 6097 1931 
L 6097 1516 
L 4466 1516 
L 4466 -450 
L 4013 -450 
L 4013 1516 
L 2419 1516 
L 2419 1931 
L 4013 1931 
L 4013 4434 
L 2553 4434 
L 2553 4856 
L 5931 4856 
L 5931 4434 
L 4466 4434 
z
M 594 5044 
L 2188 5044 
L 2188 4659 
L 594 4659 
L 594 5044 
z
M 325 4206 
L 2413 4206 
L 2413 3816 
L 325 3816 
L 325 4206 
z
M 594 3359 
L 2188 3359 
L 2188 2975 
L 594 2975 
L 594 3359 
z
M 594 2522 
L 2188 2522 
L 2188 2138 
L 594 2138 
L 594 2522 
z
M 3184 2253 
Q 3031 3206 2775 3988 
L 3200 4122 
Q 3463 3331 3634 2381 
L 3184 2253 
z
M 4825 2356 
Q 5097 3272 5253 4184 
L 5700 4050 
Q 5491 2994 5228 2247 
L 4825 2356 
z
" transform="scale(0.015625)"/>
      <path id="IPAexGothic-4fa1" d="M 3144 3397 
L 3144 4416 
L 1828 4416 
L 1828 4825 
L 6081 4825 
L 6081 4416 
L 4713 4416 
L 4713 3397 
L 5850 3397 
L 5850 -384 
L 5416 -384 
L 5416 0 
L 2463 0 
L 2463 -384 
L 2034 -384 
L 2034 3397 
L 3144 3397 
z
M 3572 3397 
L 4281 3397 
L 4281 4416 
L 3572 4416 
L 3572 3397 
z
M 3169 3013 
L 2463 3013 
L 2463 391 
L 3169 391 
L 3169 3013 
z
M 3572 3013 
L 3572 391 
L 4281 391 
L 4281 3013 
L 3572 3013 
z
M 4684 3013 
L 4684 391 
L 5416 391 
L 5416 3013 
L 4684 3013 
z
M 1394 3816 
L 1394 -447 
L 966 -447 
L 966 2797 
Q 756 2369 478 1972 
L 244 2369 
Q 950 3469 1375 5313 
L 1809 5203 
Q 1588 4344 1394 3816 
z
" transform="scale(0.015625)"/>
     </defs>
     <use xlink:href="#IPAexGothic-69cb"/>
     <use xlink:href="#IPAexGothic-7bc9" x="100"/>
     <use xlink:href="#IPAexGothic-30fb" x="200"/>
     <use xlink:href="#IPAexGothic-8a55" x="300"/>
     <use xlink:href="#IPAexGothic-4fa1" x="400"/>
    </g>
   </g>
   <g id="text_14">
    <!-- → -->
    <g style="fill: #95a5a6" transform="translate(531.36 112.192969) scale(0.15 -0.15)">
     <use xlink:href="#IPAexGothic-2192"/>
    </g>
   </g>
   <g id="text_15">
    <!-- ⑤ 結果の -->
    <g style="fill: #ffffff" transform="translate(579.515 101.948161) scale(0.11 -0.11)">
     <defs>
      <path id="IPAexGothic-2464" d="M 2119 4409 
L 4409 4409 
L 4409 3934 
L 2578 3934 
L 2516 2803 
Q 2903 3134 3353 3134 
Q 3813 3134 4172 2853 
Q 4647 2466 4647 1784 
Q 4647 1300 4416 947 
Q 4025 344 3256 344 
Q 2656 344 2231 728 
Q 1984 969 1869 1344 
L 2419 1344 
Q 2563 803 3250 803 
Q 3691 803 3928 1131 
Q 4122 1391 4122 1772 
Q 4122 2172 3897 2425 
Q 3659 2681 3263 2681 
Q 2722 2681 2400 2156 
L 1997 2244 
L 2119 4409 
z
M 3213 5459 
Q 3938 5459 4606 5100 
Q 5203 4778 5616 4231 
Q 6225 3409 6225 2425 
Q 6225 1694 5866 1025 
Q 5534 413 4997 16 
Q 4175 -594 3194 -594 
Q 2431 -594 1766 -222 
Q 1166 109 759 659 
Q 172 1463 172 2441 
Q 172 3878 1344 4800 
Q 2163 5459 3213 5459 
z
M 3184 5166 
Q 2550 5166 1963 4859 
Q 1416 4581 1041 4091 
Q 466 3350 466 2425 
Q 466 1784 772 1197 
Q 1050 650 1541 275 
Q 2281 -300 3206 -300 
Q 3847 -300 4434 6 
Q 4981 284 5356 775 
Q 5931 1516 5931 2434 
Q 5931 3719 4900 4556 
Q 4138 5166 3184 5166 
z
" transform="scale(0.015625)"/>
      <path id="IPAexGothic-7d50" d="M 1241 3084 
Q 794 3713 378 4128 
L 666 4422 
Q 828 4259 916 4153 
Q 1300 4750 1541 5331 
L 1956 5119 
Q 1547 4363 1150 3859 
Q 1228 3759 1466 3425 
Q 1844 4016 2138 4550 
L 2522 4313 
Q 1853 3213 1313 2572 
Q 1647 2581 2253 2631 
Q 2134 2909 2009 3156 
L 2353 3303 
Q 2656 2775 2878 2106 
L 2494 1925 
Q 2469 2022 2425 2156 
Q 2384 2284 2372 2322 
Q 2334 2319 2222 2300 
Q 1966 2259 1778 2234 
L 1778 -447 
L 1363 -447 
L 1363 2181 
L 1291 2175 
Q 1000 2144 428 2106 
L 281 2534 
Q 672 2547 863 2553 
Q 909 2613 972 2700 
Q 1059 2816 1241 3084 
z
M 4134 4325 
L 4134 5309 
L 4563 5309 
L 4563 4325 
L 6113 4325 
L 6113 3934 
L 4563 3934 
L 4563 3034 
L 5906 3034 
L 5906 2650 
L 2859 2650 
L 2859 3034 
L 4134 3034 
L 4134 3934 
L 2719 3934 
L 2719 4325 
L 4134 4325 
z
M 5631 1997 
L 5631 -450 
L 5203 -450 
L 5203 -103 
L 3550 -103 
L 3550 -450 
L 3122 -450 
L 3122 1997 
L 5631 1997 
z
M 3550 1613 
L 3550 281 
L 5203 281 
L 5203 1613 
L 3550 1613 
z
M 353 197 
Q 581 863 647 1759 
L 1056 1709 
Q 988 709 769 -13 
L 353 197 
z
M 2334 313 
Q 2206 1147 1997 1759 
L 2363 1869 
Q 2609 1253 2766 488 
L 2334 313 
z
" transform="scale(0.015625)"/>
      <path id="IPAexGothic-679c" d="M 3809 1666 
Q 4656 800 6088 297 
L 5784 -131 
Q 4256 494 3406 1563 
L 3406 -447 
L 2947 -447 
L 2947 1519 
Q 2203 425 647 -281 
L 334 109 
Q 1769 697 2575 1666 
L 378 1666 
L 378 2075 
L 2947 2075 
L 2947 2625 
L 1109 2625 
L 1109 5013 
L 5288 5013 
L 5288 2625 
L 3406 2625 
L 3406 2075 
L 6016 2075 
L 6016 1666 
L 3809 1666 
z
M 1556 4628 
L 1556 3994 
L 2959 3994 
L 2959 4628 
L 1556 4628 
z
M 1556 3628 
L 1556 3009 
L 2959 3009 
L 2959 3628 
L 1556 3628 
z
M 4834 3009 
L 4834 3628 
L 3394 3628 
L 3394 3009 
L 4834 3009 
z
M 4834 3994 
L 4834 4628 
L 3394 4628 
L 3394 3994 
L 4834 3994 
z
" transform="scale(0.015625)"/>
     </defs>
     <use xlink:href="#IPAexGothic-2464"/>
     <use xlink:href="#IPAexGothic-20" x="100"/>
     <use xlink:href="#IPAexGothic-7d50" x="127.001953"/>
     <use xlink:href="#IPAexGothic-679c" x="227.001953"/>
     <use xlink:href="#IPAexGothic-306e" x="327.001953"/>
    </g>
   </g>
   <g id="text_16">
    <!-- 解釈・報告 -->
    <g style="fill: #ffffff" transform="translate(575.5 128.093026) scale(0.11 -0.11)">
     <defs>
      <path id="IPAexGothic-89e3" d="M 4538 2222 
L 4538 2906 
L 4953 2906 
L 4953 2222 
L 5850 2222 
L 5850 1850 
L 4953 1850 
L 4953 1159 
L 6072 1159 
L 6072 775 
L 4953 775 
L 4953 -447 
L 4538 -447 
L 4538 775 
L 3303 775 
L 3303 1159 
L 4538 1159 
L 4538 1850 
L 3897 1850 
Q 3781 1528 3622 1269 
L 3303 1544 
Q 3600 2072 3706 2734 
L 4103 2663 
Q 4053 2416 4006 2222 
L 4538 2222 
z
M 2394 3803 
L 3141 3803 
L 3141 63 
Q 3141 -213 3006 -306 
Q 2900 -384 2622 -384 
Q 2250 -384 1919 -341 
L 1853 103 
Q 2278 31 2547 31 
Q 2744 31 2744 213 
L 2744 1319 
L 1241 1319 
Q 1191 303 722 -513 
L 394 -178 
Q 863 566 863 1869 
L 863 3181 
Q 738 3000 516 2741 
L 281 3094 
Q 1106 4053 1363 5319 
L 1797 5238 
Q 1747 5044 1719 4959 
L 1700 4891 
L 2653 4891 
L 2853 4684 
Q 2653 4238 2394 3803 
z
M 1809 3450 
L 1259 3450 
L 1259 2747 
L 1809 2747 
L 1809 3450 
z
M 2175 3450 
L 2175 2747 
L 2744 2747 
L 2744 3450 
L 2175 3450 
z
M 1809 2406 
L 1259 2406 
L 1259 1672 
L 1809 1672 
L 1809 2406 
z
M 2175 2406 
L 2175 1672 
L 2744 1672 
L 2744 2406 
L 2175 2406 
z
M 1969 3803 
Q 2172 4141 2322 4531 
L 1572 4531 
Q 1409 4100 1247 3803 
L 1969 3803 
z
M 4622 4594 
Q 4534 3469 3597 2897 
L 3297 3225 
Q 4088 3625 4191 4594 
L 3316 4594 
L 3316 4978 
L 5844 4978 
Q 5813 3791 5734 3422 
Q 5688 3194 5556 3103 
Q 5444 3031 5184 3031 
Q 4863 3031 4556 3078 
L 4500 3475 
Q 4819 3422 5044 3422 
Q 5266 3422 5313 3600 
Q 5372 3831 5400 4594 
L 4622 4594 
z
" transform="scale(0.015625)"/>
      <path id="IPAexGothic-91c8" d="M 1553 1913 
Q 1213 972 594 200 
L 294 641 
Q 1028 1450 1444 2509 
L 375 2509 
L 375 2906 
L 1563 2906 
L 1563 4513 
Q 1284 4466 581 4384 
L 369 4763 
Q 1675 4884 2709 5209 
L 3019 4813 
Q 2531 4688 1978 4584 
L 1978 2906 
L 3081 2906 
L 3081 2509 
L 1981 2509 
L 1981 2191 
Q 2525 1822 3006 1369 
L 2725 959 
Q 2372 1375 1981 1734 
L 1981 -453 
L 1553 -453 
L 1553 1913 
z
M 4894 2516 
Q 5116 894 6156 103 
L 5872 -344 
Q 4650 694 4459 2516 
L 3781 2516 
Q 3772 1566 3641 947 
Q 3475 200 2969 -459 
L 2650 -91 
Q 3141 488 3263 1416 
Q 3341 1963 3341 2863 
L 3341 4863 
L 5822 4863 
L 5822 2516 
L 4894 2516 
z
M 3781 2925 
L 5375 2925 
L 5375 4453 
L 3781 4453 
L 3781 2925 
z
M 875 3059 
Q 772 3672 588 4147 
L 984 4275 
Q 1184 3750 1284 3200 
L 875 3059 
z
M 2169 3231 
Q 2422 3791 2597 4481 
L 3041 4353 
Q 2813 3634 2528 3072 
L 2169 3231 
z
" transform="scale(0.015625)"/>
      <path id="IPAexGothic-5831" d="M 2741 3084 
Q 2600 2594 2428 2203 
L 3175 2203 
L 3175 1819 
L 2013 1819 
L 2013 1134 
L 3100 1134 
L 3100 750 
L 2013 750 
L 2013 -447 
L 1572 -447 
L 1572 750 
L 522 750 
L 522 1134 
L 1572 1134 
L 1572 1819 
L 438 1819 
L 438 2203 
L 1128 2203 
Q 994 2800 884 3084 
L 297 3084 
L 297 3469 
L 1572 3469 
L 1572 4134 
L 578 4134 
L 578 4519 
L 1572 4519 
L 1572 5313 
L 2013 5313 
L 2013 4519 
L 3028 4519 
L 3028 4134 
L 2013 4134 
L 2013 3469 
L 3169 3469 
L 3169 3084 
L 2741 3084 
z
M 2300 3084 
L 1309 3084 
Q 1469 2606 1544 2203 
L 2013 2203 
Q 2194 2606 2300 3084 
z
M 5684 4991 
L 5684 3591 
Q 5684 3316 5575 3219 
Q 5466 3128 5159 3128 
Q 4834 3128 4441 3166 
L 4391 3597 
Q 4763 3538 5019 3538 
Q 5256 3538 5256 3769 
L 5256 4594 
L 3800 4594 
L 3800 2741 
L 5594 2741 
L 5831 2550 
Q 5659 1603 5203 806 
Q 5544 331 6131 -6 
L 5856 -416 
Q 5319 -22 4959 425 
Q 4588 -94 4116 -497 
L 3828 -147 
Q 4319 231 4697 775 
Q 4169 1516 3969 2350 
L 3800 2350 
L 3800 -447 
L 3375 -447 
L 3375 4991 
L 5684 4991 
z
M 4353 2350 
Q 4503 1794 4922 1153 
Q 5228 1716 5350 2350 
L 4353 2350 
z
" transform="scale(0.015625)"/>
      <path id="IPAexGothic-544a" d="M 1844 4269 
L 3003 4269 
L 3003 5313 
L 3478 5313 
L 3478 4269 
L 5538 4269 
L 5538 3859 
L 3478 3859 
L 3478 2906 
L 5916 2906 
L 5916 2503 
L 481 2503 
L 481 2906 
L 3003 2906 
L 3003 3859 
L 1666 3859 
Q 1444 3400 1147 3034 
L 763 3372 
Q 1316 3981 1594 5038 
L 2056 4934 
Q 1959 4591 1844 4269 
z
M 5250 1900 
L 5250 -447 
L 4775 -447 
L 4775 -116 
L 1763 -116 
L 1763 -447 
L 1288 -447 
L 1288 1900 
L 5250 1900 
z
M 1763 1503 
L 1763 275 
L 4775 275 
L 4775 1503 
L 1763 1503 
z
" transform="scale(0.015625)"/>
     </defs>
     <use xlink:href="#IPAexGothic-89e3"/>
     <use xlink:href="#IPAexGothic-91c8" x="100"/>
     <use xlink:href="#IPAexGothic-30fb" x="200"/>
     <use xlink:href="#IPAexGothic-5831" x="300"/>
     <use xlink:href="#IPAexGothic-544a" x="400"/>
    </g>
   </g>
   <g id="text_17">
    <!-- ← 今日体験する範囲 → -->
    <g style="fill: #7f8c8d" transform="translate(290.265 155.465156) scale(0.105 -0.105)">
     <defs>
      <path id="IPAexGothic-2190" d="M 1766 3572 
L 2450 3572 
L 1303 2669 
L 5938 2669 
L 5938 2194 
L 1303 2194 
L 2450 1294 
L 1766 1294 
L 325 2431 
L 1766 3572 
z
" transform="scale(0.015625)"/>
      <path id="IPAexGothic-4eca" d="M 1938 3263 
L 4575 3263 
L 4575 2847 
L 1913 2847 
L 1913 3244 
Q 1328 2763 581 2384 
L 281 2769 
Q 2006 3609 2888 5156 
L 3438 5156 
Q 4353 3778 6131 2944 
L 5825 2534 
Q 4125 3406 3175 4741 
Q 2681 3881 1938 3263 
z
M 1144 2222 
L 5009 2222 
L 5306 1903 
Q 4416 441 3391 -478 
L 2969 -184 
Q 3978 672 4666 1806 
L 1144 1806 
L 1144 2222 
z
" transform="scale(0.015625)"/>
      <path id="IPAexGothic-65e5" d="M 5231 4800 
L 5231 -288 
L 4744 -288 
L 4744 128 
L 1647 128 
L 1647 -288 
L 1159 -288 
L 1159 4800 
L 5231 4800 
z
M 1647 4372 
L 1647 2731 
L 4744 2731 
L 4744 4372 
L 1647 4372 
z
M 1647 2297 
L 1647 556 
L 4744 556 
L 4744 2297 
L 1647 2297 
z
" transform="scale(0.015625)"/>
      <path id="IPAexGothic-4f53" d="M 4253 3481 
Q 4869 2069 6041 1138 
L 5688 703 
Q 4541 1841 4069 3122 
L 4069 1228 
L 4925 1228 
L 4925 831 
L 4081 831 
L 4081 -450 
L 3613 -450 
L 3613 831 
L 2781 831 
L 2781 1228 
L 3628 1228 
L 3628 3097 
Q 3216 1703 2063 556 
L 1706 928 
Q 2844 1875 3441 3481 
L 1969 3481 
L 1969 3897 
L 3613 3897 
L 3613 5209 
L 4081 5209 
L 4081 3897 
L 5872 3897 
L 5872 3481 
L 4253 3481 
z
M 1572 3700 
L 1572 -441 
L 1119 -441 
L 1119 2778 
Q 888 2363 550 1913 
L 300 2303 
Q 1219 3575 1591 5241 
L 2041 5125 
Q 1844 4356 1572 3700 
z
" transform="scale(0.015625)"/>
      <path id="IPAexGothic-9a13" d="M 4481 1156 
Q 4203 56 3050 -488 
L 2788 -113 
Q 3934 322 4156 1431 
L 3509 1431 
L 3509 1181 
L 3113 1181 
L 3113 2869 
L 4225 2869 
L 4225 3347 
L 3619 3347 
L 3619 3597 
Q 3316 3269 2972 3016 
L 2697 3359 
Q 3647 4022 4116 5241 
L 4616 5241 
Q 5138 4184 6163 3506 
L 5900 3109 
Q 5503 3419 5272 3656 
L 5272 3347 
L 4616 3347 
L 4616 2869 
L 5753 2869 
L 5753 1181 
L 5363 1181 
L 5363 1431 
L 4744 1431 
Q 5119 519 6144 50 
L 5844 -381 
Q 4866 156 4481 1156 
z
M 4225 2516 
L 3509 2516 
L 3509 1784 
L 4225 1784 
L 4225 2516 
z
M 4616 2516 
L 4616 1784 
L 5363 1784 
L 5363 2516 
L 4616 2516 
z
M 5209 3719 
Q 4709 4238 4384 4831 
Q 4147 4244 3719 3719 
L 5209 3719 
z
M 2797 2322 
Q 2778 372 2631 -128 
Q 2525 -453 2094 -453 
Q 1806 -453 1516 -422 
L 1447 13 
Q 1722 -38 2009 -38 
Q 2238 -38 2278 166 
Q 2359 659 2388 1866 
L 2388 1963 
L 550 1963 
L 550 5044 
L 2847 5044 
L 2847 4672 
L 1959 4672 
L 1959 4134 
L 2688 4134 
L 2688 3781 
L 1959 3781 
L 1959 3244 
L 2688 3244 
L 2688 2891 
L 1959 2891 
L 1959 2322 
L 2797 2322 
z
M 947 4672 
L 947 4134 
L 1575 4134 
L 1575 4672 
L 947 4672 
z
M 947 3781 
L 947 3244 
L 1575 3244 
L 1575 3781 
L 947 3781 
z
M 947 2891 
L 947 2322 
L 1575 2322 
L 1575 2891 
L 947 2891 
z
M 231 147 
Q 422 744 481 1588 
L 775 1522 
Q 747 538 550 -63 
L 231 147 
z
M 975 197 
Q 966 1031 916 1528 
L 1178 1563 
Q 1275 1031 1306 306 
L 975 197 
z
M 1538 397 
Q 1447 1206 1350 1569 
L 1606 1631 
Q 1741 1175 1838 506 
L 1538 397 
z
M 2038 594 
Q 1969 1041 1788 1656 
L 2022 1734 
Q 2191 1353 2325 709 
L 2038 594 
z
" transform="scale(0.015625)"/>
      <path id="IPAexGothic-3059" d="M 3322 5075 
L 3816 5075 
L 3816 4063 
Q 4131 4075 5756 4116 
L 5756 3669 
Q 5431 3672 3816 3653 
L 3816 2463 
Q 3956 2125 3956 1741 
Q 3956 922 3519 397 
Q 3128 -72 2309 -409 
L 1941 -31 
Q 3263 453 3488 1363 
Q 3250 1031 2809 1031 
Q 2441 1031 2150 1313 
Q 1875 1588 1875 2050 
Q 1875 2475 2166 2769 
Q 2431 3041 2822 3041 
Q 3088 3041 3322 2881 
L 3322 3641 
Q 3000 3634 609 3547 
L 609 3988 
Q 1197 4000 2106 4022 
Q 3066 4047 3322 4050 
L 3322 5075 
z
M 3372 2044 
Q 3372 2300 3194 2478 
Q 3050 2613 2869 2613 
Q 2622 2613 2463 2406 
Q 2344 2250 2344 2088 
Q 2344 1797 2484 1622 
Q 2625 1453 2859 1453 
Q 3372 1453 3372 2044 
z
" transform="scale(0.015625)"/>
      <path id="IPAexGothic-308b" d="M 4391 4397 
L 2613 2588 
Q 3225 2809 3759 2809 
Q 4263 2809 4659 2625 
Q 5391 2269 5391 1484 
Q 5391 756 4706 275 
Q 4072 -166 3053 -166 
Q 2559 -166 2247 19 
Q 1863 250 1863 666 
Q 1863 934 2069 1141 
Q 2331 1403 2741 1403 
Q 3509 1403 4019 428 
Q 4872 784 4872 1491 
Q 4872 1981 4469 2222 
Q 4166 2406 3681 2406 
Q 2425 2406 1238 1209 
L 891 1581 
Q 2438 2934 3578 4281 
Q 2594 4125 1588 4066 
L 1478 4550 
Q 2594 4581 4109 4763 
L 4391 4397 
z
M 3591 303 
Q 3244 1025 2731 1025 
Q 2553 1025 2434 934 
Q 2316 844 2316 700 
Q 2316 250 3034 250 
Q 3275 250 3591 303 
z
" transform="scale(0.015625)"/>
      <path id="IPAexGothic-7bc4" d="M 1613 2631 
L 1613 2938 
L 397 2938 
L 397 3291 
L 1613 3291 
L 1613 3731 
L 2003 3731 
L 2003 3291 
L 3238 3291 
L 3238 2938 
L 2003 2938 
L 2003 2631 
L 3013 2631 
L 3013 978 
L 2003 978 
L 2003 628 
L 3300 628 
L 3300 275 
L 2003 275 
L 2003 -447 
L 1613 -447 
L 1613 275 
L 328 275 
L 328 628 
L 1613 628 
L 1613 978 
L 634 978 
L 634 2631 
L 1613 2631 
z
M 1619 2319 
L 1019 2319 
L 1019 1966 
L 1619 1966 
L 1619 2319 
z
M 1997 2319 
L 1997 1966 
L 2622 1966 
L 2622 2319 
L 1997 2319 
z
M 1619 1666 
L 1019 1666 
L 1019 1291 
L 1619 1291 
L 1619 1666 
z
M 1997 1666 
L 1997 1291 
L 2622 1291 
L 2622 1666 
L 1997 1666 
z
M 3941 3072 
L 3941 288 
Q 3941 103 4038 63 
Q 4134 19 4672 19 
Q 5447 19 5553 116 
Q 5659 222 5669 872 
L 6103 750 
Q 6094 53 5944 -166 
Q 5778 -391 4800 -391 
Q 3944 -391 3744 -313 
Q 3513 -219 3513 178 
L 3513 3463 
L 5681 3463 
L 5681 1350 
Q 5681 922 5209 922 
Q 4778 922 4459 966 
L 4381 1381 
Q 4797 1313 5075 1313 
Q 5253 1313 5253 1509 
L 5253 3072 
L 3941 3072 
z
M 1413 4788 
L 3200 4788 
L 3200 4416 
L 2228 4416 
Q 2350 4184 2497 3800 
L 2066 3672 
Q 1959 4031 1791 4416 
L 1253 4416 
L 1241 4384 
Q 1006 3903 600 3469 
L 288 3744 
Q 884 4350 1150 5350 
L 1569 5275 
Q 1503 5038 1413 4788 
z
M 3963 4788 
L 6034 4788 
L 6034 4416 
L 4678 4416 
Q 4863 4141 5025 3806 
L 4594 3659 
Q 4406 4113 4225 4416 
L 3800 4416 
Q 3569 3934 3256 3584 
L 2925 3841 
Q 3434 4416 3694 5356 
L 4116 5263 
Q 4022 4956 3963 4788 
z
" transform="scale(0.015625)"/>
      <path id="IPAexGothic-56f2" d="M 2291 3494 
L 2291 4384 
L 2731 4384 
L 2731 3494 
L 3700 3494 
L 3700 4384 
L 4141 4384 
L 4141 3494 
L 4997 3494 
L 4997 3122 
L 4141 3122 
L 4141 2156 
L 5100 2156 
L 5100 1772 
L 4159 1772 
L 4159 447 
L 3719 447 
L 3719 1772 
L 2688 1772 
Q 2541 853 1766 344 
L 1441 666 
Q 2119 1069 2247 1772 
L 1291 1772 
L 1291 2156 
L 2284 2156 
Q 2291 2228 2291 2375 
L 2291 3122 
L 1388 3122 
L 1388 3494 
L 2291 3494 
z
M 3700 3122 
L 2731 3122 
L 2731 2475 
Q 2731 2272 2725 2156 
L 3700 2156 
L 3700 3122 
z
M 5759 4984 
L 5759 -447 
L 5300 -447 
L 5300 -172 
L 1097 -172 
L 1097 -447 
L 628 -447 
L 628 4984 
L 5759 4984 
z
M 1097 4575 
L 1097 244 
L 5300 244 
L 5300 4575 
L 1097 4575 
z
" transform="scale(0.015625)"/>
     </defs>
     <use xlink:href="#IPAexGothic-2190"/>
     <use xlink:href="#IPAexGothic-20" x="100"/>
     <use xlink:href="#IPAexGothic-4eca" x="127.001953"/>
     <use xlink:href="#IPAexGothic-65e5" x="227.001953"/>
     <use xlink:href="#IPAexGothic-4f53" x="327.001953"/>
     <use xlink:href="#IPAexGothic-9a13" x="427.001953"/>
     <use xlink:href="#IPAexGothic-3059" x="527.001953"/>
     <use xlink:href="#IPAexGothic-308b" x="627.001953"/>
     <use xlink:href="#IPAexGothic-7bc4" x="727.001953"/>
     <use xlink:href="#IPAexGothic-56f2" x="827.001953"/>
     <use xlink:href="#IPAexGothic-20" x="927.001953"/>
     <use xlink:href="#IPAexGothic-2192" x="954.003906"/>
    </g>
   </g>
   <g id="text_18">
    <!-- 作業 -->
    <g style="fill: #ffffff" transform="translate(38.88 173.414141) scale(0.125 -0.125)">
     <defs>
      <path id="IPAexGothic-4f5c" d="M 3609 3834 
L 3231 3834 
Q 2869 2822 2297 2038 
L 1963 2381 
Q 2797 3513 3153 5275 
L 3616 5184 
Q 3506 4656 3378 4256 
L 5984 4256 
L 5984 3834 
L 4078 3834 
L 4078 2906 
L 5678 2906 
L 5678 2484 
L 4078 2484 
L 4078 1563 
L 5775 1563 
L 5775 1147 
L 4078 1147 
L 4078 -447 
L 3609 -447 
L 3609 3834 
z
M 1734 3725 
L 1734 -447 
L 1275 -447 
L 1275 2797 
L 1250 2747 
Q 984 2284 647 1850 
L 372 2234 
Q 1309 3481 1747 5203 
L 2219 5081 
Q 2028 4406 1734 3725 
z
" transform="scale(0.015625)"/>
      <path id="IPAexGothic-696d" d="M 3397 2738 
L 3397 2350 
L 5328 2350 
L 5328 1984 
L 3397 1984 
L 3397 1594 
L 6016 1594 
L 6016 1209 
L 3831 1209 
Q 4706 509 6078 134 
L 5759 -288 
Q 4253 222 3397 1125 
L 3397 -447 
L 2956 -447 
L 2956 1106 
Q 2038 31 594 -416 
L 281 -38 
Q 1663 334 2566 1209 
L 384 1209 
L 384 1594 
L 2956 1594 
L 2956 1984 
L 1063 1984 
L 1063 2350 
L 2956 2350 
L 2956 2738 
L 769 2738 
L 769 3109 
L 2228 3109 
Q 2069 3519 1900 3769 
L 441 3769 
L 441 4141 
L 2413 4141 
L 2413 5313 
L 2853 5313 
L 2853 4141 
L 3500 4141 
L 3500 5313 
L 3941 5313 
L 3941 4141 
L 5950 4141 
L 5950 3769 
L 4447 3769 
Q 4294 3413 4106 3109 
L 5625 3109 
L 5625 2738 
L 3397 2738 
z
M 2406 3769 
Q 2581 3447 2694 3109 
L 3653 3109 
Q 3856 3463 3953 3769 
L 2406 3769 
z
M 1528 4166 
Q 1334 4656 1056 4984 
L 1484 5166 
Q 1728 4856 1966 4353 
L 1528 4166 
z
M 4366 4306 
Q 4678 4828 4819 5228 
L 5288 5069 
Q 5066 4606 4775 4166 
L 4366 4306 
z
" transform="scale(0.015625)"/>
     </defs>
     <use xlink:href="#IPAexGothic-4f5c"/>
     <use xlink:href="#IPAexGothic-696d" x="100"/>
    </g>
   </g>
   <g id="text_19">
    <!-- 実務での時間比率（目安） -->
    <g style="fill: #ffffff" transform="translate(413.28 173.414141) scale(0.125 -0.125)">
     <defs>
      <path id="IPAexGothic-5b9f" d="M 3525 1275 
Q 4288 350 6022 91 
L 5738 -375 
Q 3953 -41 3219 1050 
Q 2731 -144 728 -472 
L 466 -44 
Q 2422 150 2872 1275 
L 384 1275 
L 384 1659 
L 2950 1659 
L 2950 2144 
L 966 2144 
L 966 2509 
L 2950 2509 
L 2950 2969 
L 1266 2969 
L 1266 3341 
L 2950 3341 
L 2950 3988 
L 3403 3988 
L 3403 3341 
L 5125 3341 
L 5125 2969 
L 3403 2969 
L 3403 2509 
L 5444 2509 
L 5444 2144 
L 3403 2144 
L 3403 1659 
L 6016 1659 
L 6016 1275 
L 3525 1275 
z
M 3413 4544 
L 5778 4544 
L 5778 3269 
L 5309 3269 
L 5309 4147 
L 1084 4147 
L 1084 3269 
L 616 3269 
L 616 4544 
L 2938 4544 
L 2938 5313 
L 3413 5313 
L 3413 4544 
z
" transform="scale(0.015625)"/>
      <path id="IPAexGothic-52d9" d="M 4500 1497 
Q 4394 150 2881 -475 
L 2569 -103 
Q 3894 350 4066 1466 
L 2888 1466 
L 2888 1856 
L 4084 1856 
L 4084 2522 
L 4513 2522 
L 4513 1881 
L 5806 1881 
Q 5788 431 5666 13 
Q 5559 -359 5069 -359 
Q 4772 -359 4353 -313 
L 4281 141 
Q 4597 56 4947 56 
Q 5225 56 5275 325 
Q 5347 653 5378 1497 
L 4500 1497 
z
M 4200 3206 
Q 3825 3531 3584 3891 
Q 3381 3553 3125 3269 
L 2841 3578 
Q 3497 4338 3725 5319 
L 4134 5209 
Q 4050 4903 3963 4666 
L 5928 4666 
L 5928 4281 
L 5434 4281 
Q 5256 3725 4819 3231 
Q 5353 2906 6100 2725 
L 5856 2347 
Q 5078 2616 4531 2963 
Q 3975 2506 3144 2241 
L 2913 2597 
Q 3722 2828 4200 3206 
z
M 4481 3469 
Q 4838 3866 5000 4281 
L 3797 4281 
L 3788 4263 
L 3775 4244 
Q 4056 3806 4481 3469 
z
M 1503 1856 
Q 1119 972 491 366 
L 256 750 
Q 1081 1516 1453 2559 
L 378 2559 
L 378 2950 
L 2719 2950 
L 2922 2759 
Q 2741 2003 2456 1428 
L 2091 1619 
Q 2294 2041 2456 2559 
L 1919 2559 
L 1919 -13 
Q 1919 -459 1425 -459 
Q 1178 -459 831 -403 
L 772 38 
Q 1069 -38 1303 -38 
Q 1503 -38 1503 191 
L 1503 1856 
z
M 1856 3638 
Q 1928 3559 2150 3284 
L 1806 3003 
Q 1397 3597 884 4034 
L 1197 4263 
Q 1400 4100 1600 3900 
Q 2013 4281 2278 4628 
L 563 4628 
L 563 5019 
L 2663 5019 
L 2906 4763 
Q 2463 4184 1856 3638 
z
" transform="scale(0.015625)"/>
      <path id="IPAexGothic-3067" d="M 581 4034 
Q 2978 4363 5466 4556 
L 5509 4097 
Q 4388 4031 3750 3572 
Q 2797 2878 2797 1913 
Q 2797 1169 3291 819 
Q 3778 484 4869 416 
L 4906 -116 
Q 2278 0 2278 1850 
Q 2278 3125 3691 4000 
Q 2066 3784 684 3553 
L 581 4034 
z
M 5631 2522 
Q 5269 3063 4875 3391 
L 5175 3622 
Q 5559 3313 5950 2797 
L 5631 2522 
z
M 5034 2053 
Q 4747 2544 4300 2944 
L 4613 3184 
Q 4984 2878 5369 2328 
L 5034 2053 
z
" transform="scale(0.015625)"/>
      <path id="IPAexGothic-6642" d="M 2328 4728 
L 2328 563 
L 934 563 
L 934 56 
L 519 56 
L 519 4728 
L 2328 4728 
z
M 934 4331 
L 934 2881 
L 1906 2881 
L 1906 4331 
L 934 4331 
z
M 934 2497 
L 934 953 
L 1906 953 
L 1906 2497 
L 934 2497 
z
M 3938 4372 
L 3938 5313 
L 4378 5313 
L 4378 4372 
L 5772 4372 
L 5772 3981 
L 4378 3981 
L 4378 3194 
L 6072 3194 
L 6072 2803 
L 5203 2803 
L 5203 2047 
L 5959 2047 
L 5959 1650 
L 5216 1650 
L 5216 31 
Q 5216 -447 4691 -447 
Q 4394 -447 3888 -391 
L 3784 78 
Q 4272 0 4591 0 
Q 4775 0 4775 172 
L 4775 1650 
L 2581 1650 
L 2581 2047 
L 4763 2047 
L 4763 2803 
L 2538 2803 
L 2538 3194 
L 3938 3194 
L 3938 3981 
L 2716 3981 
L 2716 4372 
L 3938 4372 
z
M 3669 384 
Q 3331 950 2956 1325 
L 3291 1575 
Q 3719 1147 4025 659 
L 3669 384 
z
" transform="scale(0.015625)"/>
      <path id="IPAexGothic-9593" d="M 4450 2566 
L 4450 353 
L 2375 353 
L 2375 -25 
L 1953 -25 
L 1953 2566 
L 4450 2566 
z
M 4028 2200 
L 2375 2200 
L 2375 1653 
L 4028 1653 
L 4028 2200 
z
M 4028 1300 
L 2375 1300 
L 2375 719 
L 4028 719 
L 4028 1300 
z
M 2913 5019 
L 2913 3059 
L 1056 3059 
L 1056 -447 
L 609 -447 
L 609 5019 
L 2913 5019 
z
M 1056 4659 
L 1056 4206 
L 2497 4206 
L 2497 4659 
L 1056 4659 
z
M 1056 3881 
L 1056 3413 
L 2497 3413 
L 2497 3881 
L 1056 3881 
z
M 5788 5019 
L 5788 91 
Q 5788 -225 5641 -331 
Q 5525 -409 5231 -409 
Q 4803 -409 4481 -366 
L 4419 97 
Q 4853 38 5128 38 
Q 5341 38 5341 244 
L 5341 3059 
L 3438 3059 
L 3438 5019 
L 5788 5019 
z
M 3853 4659 
L 3853 4206 
L 5341 4206 
L 5341 4659 
L 3853 4659 
z
M 3853 3881 
L 3853 3413 
L 5341 3413 
L 5341 3881 
L 3853 3881 
z
" transform="scale(0.015625)"/>
      <path id="IPAexGothic-6bd4" d="M 1525 3250 
L 3003 3250 
L 3003 2822 
L 1525 2822 
L 1525 472 
Q 2469 747 3016 934 
L 3041 531 
Q 1813 59 459 -300 
L 294 159 
Q 694 250 1056 344 
L 1056 5081 
L 1525 5081 
L 1525 3250 
z
M 3794 3028 
Q 4691 3472 5341 4038 
L 5744 3706 
Q 4778 2969 3794 2572 
L 3794 556 
Q 3794 353 3978 313 
Q 4106 288 4472 288 
Q 5169 288 5328 378 
Q 5491 463 5522 1516 
L 5994 1356 
Q 5966 238 5772 34 
Q 5566 -172 4491 -172 
Q 3809 -172 3588 -75 
Q 3334 28 3334 397 
L 3334 5113 
L 3794 5113 
L 3794 3028 
z
" transform="scale(0.015625)"/>
      <path id="IPAexGothic-7387" d="M 3022 2847 
Q 3338 3231 3684 3744 
L 4053 3525 
Q 3506 2766 2919 2181 
L 3266 2200 
Q 3575 2209 3825 2234 
Q 3728 2406 3575 2616 
L 3913 2772 
Q 4244 2350 4541 1766 
L 4156 1547 
Q 4084 1753 3997 1913 
L 3856 1894 
Q 3709 1875 3416 1850 
L 3416 1228 
L 6084 1228 
L 6084 819 
L 3416 819 
L 3416 -447 
L 2941 -447 
L 2941 819 
L 322 819 
L 322 1228 
L 2941 1228 
L 2941 1803 
L 2881 1797 
Q 2306 1759 2031 1747 
L 1903 2163 
Q 2319 2163 2416 2169 
Q 2522 2269 2772 2553 
Q 2347 3028 1916 3347 
L 2184 3653 
L 2447 3425 
Q 2681 3744 2869 4128 
L 547 4128 
L 547 4525 
L 2941 4525 
L 2941 5313 
L 3416 5313 
L 3416 4525 
L 5853 4525 
L 5853 4128 
L 2972 4128 
L 3278 3981 
Q 2991 3509 2697 3188 
Q 2850 3041 3022 2847 
z
M 1497 2822 
Q 1128 3263 691 3566 
L 1000 3847 
Q 1409 3588 1831 3156 
L 1497 2822 
z
M 4219 3078 
Q 4794 3478 5147 3897 
L 5538 3616 
Q 5078 3178 4494 2803 
L 4219 3078 
z
M 5556 1631 
Q 4997 2109 4372 2444 
L 4659 2741 
Q 5356 2381 5894 1984 
L 5556 1631 
z
M 538 1925 
Q 1306 2297 1881 2803 
L 2075 2456 
Q 1622 2034 813 1528 
L 538 1925 
z
" transform="scale(0.015625)"/>
      <path id="IPAexGothic-ff08" d="M 5419 -434 
Q 4197 769 4197 2438 
Q 4197 4097 5419 5300 
L 5919 5300 
Q 4678 4078 4678 2425 
Q 4678 788 5919 -434 
L 5419 -434 
z
" transform="scale(0.015625)"/>
      <path id="IPAexGothic-76ee" d="M 5266 4819 
L 5266 -384 
L 4791 -384 
L 4791 38 
L 1600 38 
L 1600 -384 
L 1125 -384 
L 1125 4819 
L 5266 4819 
z
M 1600 4416 
L 1600 3384 
L 4791 3384 
L 4791 4416 
L 1600 4416 
z
M 1600 2988 
L 1600 1966 
L 4791 1966 
L 4791 2988 
L 1600 2988 
z
M 1600 1563 
L 1600 447 
L 4791 447 
L 4791 1563 
L 1600 1563 
z
" transform="scale(0.015625)"/>
      <path id="IPAexGothic-5b89" d="M 4728 2381 
Q 4484 1484 3969 872 
Q 5034 406 5778 31 
L 5394 -353 
Q 4466 163 3616 538 
Q 2703 -194 838 -403 
L 550 31 
Q 2269 166 3147 738 
Q 2625 963 1925 1216 
Q 1863 1119 1663 831 
L 1259 1050 
Q 1688 1653 2088 2381 
L 416 2381 
L 416 2784 
L 2284 2784 
Q 2559 3388 2713 3828 
L 3169 3706 
Q 2969 3178 2791 2784 
L 5984 2784 
L 5984 2381 
L 4728 2381 
z
M 4244 2381 
L 2597 2381 
Q 2459 2097 2206 1659 
L 2150 1563 
Q 2750 1359 3366 1113 
L 3525 1050 
Q 4019 1572 4244 2381 
z
M 3419 4428 
L 5753 4428 
L 5753 3159 
L 5278 3159 
L 5278 4025 
L 1116 4025 
L 1116 3159 
L 641 3159 
L 641 4428 
L 2931 4428 
L 2931 5313 
L 3419 5313 
L 3419 4428 
z
" transform="scale(0.015625)"/>
      <path id="IPAexGothic-ff09" d="M 481 -434 
Q 1722 788 1722 2431 
Q 1722 4066 481 5300 
L 981 5300 
Q 2203 4097 2203 2431 
Q 2203 769 981 -434 
L 481 -434 
z
" transform="scale(0.015625)"/>
     </defs>
     <use xlink:href="#IPAexGothic-5b9f"/>
     <use xlink:href="#IPAexGothic-52d9" x="100"/>
     <use xlink:href="#IPAexGothic-3067" x="200"/>
     <use xlink:href="#IPAexGothic-306e" x="300"/>
     <use xlink:href="#IPAexGothic-6642" x="400"/>
     <use xlink:href="#IPAexGothic-9593" x="500"/>
     <use xlink:href="#IPAexGothic-6bd4" x="600"/>
     <use xlink:href="#IPAexGothic-7387" x="700"/>
     <use xlink:href="#IPAexGothic-ff08" x="800"/>
     <use xlink:href="#IPAexGothic-76ee" x="900"/>
     <use xlink:href="#IPAexGothic-5b89" x="1000"/>
     <use xlink:href="#IPAexGothic-ff09" x="1100"/>
    </g>
   </g>
   <g id="text_20">
    <!-- データ収集・クリーニング -->
    <g style="fill: #2c3e50" transform="translate(38.88 196.487344) scale(0.125 -0.125)">
     <defs>
      <path id="IPAexGothic-30af" d="M 4934 4191 
L 5272 3941 
Q 4894 2334 4031 1300 
Q 3275 391 2028 -225 
L 1656 184 
Q 2875 691 3641 1625 
Q 4403 2553 4691 3731 
L 2903 3731 
Q 2188 2653 1356 1959 
L 978 2309 
Q 2328 3400 2931 5022 
L 3422 4881 
Q 3363 4672 3141 4191 
L 4934 4191 
z
" transform="scale(0.015625)"/>
      <path id="IPAexGothic-30cb" d="M 1344 3916 
L 5056 3916 
L 5056 3416 
L 1344 3416 
L 1344 3916 
z
M 659 1172 
L 5741 1172 
L 5741 666 
L 659 666 
L 659 1172 
z
" transform="scale(0.015625)"/>
      <path id="IPAexGothic-30b0" d="M 4769 4128 
L 5106 3878 
Q 4728 2272 3866 1238 
Q 3106 328 1863 -288 
L 1491 122 
Q 2709 628 3475 1563 
Q 4238 2491 4525 3669 
L 2738 3669 
Q 2022 2591 1191 1897 
L 813 2247 
Q 2163 3338 2766 4959 
L 3256 4819 
Q 3197 4609 2975 4128 
L 4769 4128 
z
M 6009 4422 
Q 5647 4966 5253 5294 
L 5556 5522 
Q 5941 5213 6328 4697 
L 6009 4422 
z
M 5416 3956 
Q 5125 4447 4678 4844 
L 4991 5088 
Q 5363 4781 5747 4231 
L 5416 3956 
z
" transform="scale(0.015625)"/>
     </defs>
     <use xlink:href="#IPAexGothic-30c7"/>
     <use xlink:href="#IPAexGothic-30fc" x="100"/>
     <use xlink:href="#IPAexGothic-30bf" x="200"/>
     <use xlink:href="#IPAexGothic-53ce" x="300"/>
     <use xlink:href="#IPAexGothic-96c6" x="400"/>
     <use xlink:href="#IPAexGothic-30fb" x="500"/>
     <use xlink:href="#IPAexGothic-30af" x="600"/>
     <use xlink:href="#IPAexGothic-30ea" x="700"/>
     <use xlink:href="#IPAexGothic-30fc" x="800"/>
     <use xlink:href="#IPAexGothic-30cb" x="900"/>
     <use xlink:href="#IPAexGothic-30f3" x="1000"/>
     <use xlink:href="#IPAexGothic-30b0" x="1100"/>
    </g>
   </g>
   <g id="text_21">
    <!-- 約 40〜50% -->
    <g style="fill: #2c3e50" transform="translate(413.28 196.454141) scale(0.125 -0.125)">
     <defs>
      <path id="IPAexGothic-7d04" d="M 1416 3028 
Q 956 3631 481 4072 
L 781 4397 
Q 916 4263 1044 4122 
Q 1409 4619 1722 5313 
L 2144 5119 
Q 1797 4484 1294 3841 
Q 1463 3638 1666 3359 
Q 2116 4009 2431 4563 
L 2834 4341 
Q 2159 3288 1519 2572 
Q 2209 2616 2491 2638 
Q 2306 2991 2203 3163 
L 2566 3341 
Q 2906 2816 3213 2059 
L 2803 1831 
Q 2716 2109 2631 2309 
Q 2266 2250 1997 2222 
L 1997 -447 
L 1569 -447 
L 1569 2169 
L 1472 2163 
Q 1131 2128 488 2081 
L 347 2516 
L 731 2528 
L 1025 2547 
L 1063 2591 
Q 1284 2853 1416 3028 
z
M 5916 4147 
Q 5869 1009 5653 103 
Q 5578 -206 5344 -313 
Q 5175 -384 4847 -384 
Q 4438 -384 4028 -341 
L 3938 147 
Q 4425 69 4834 69 
Q 5116 69 5191 247 
Q 5381 709 5447 3444 
L 5453 3731 
L 3866 3731 
Q 3644 3116 3303 2638 
L 2984 2981 
Q 3503 3719 3784 5172 
L 4231 5063 
Q 4150 4659 4006 4147 
L 5916 4147 
z
M 419 213 
Q 697 825 822 1766 
L 1244 1691 
Q 1097 609 847 -13 
L 419 213 
z
M 2631 319 
Q 2478 1069 2216 1734 
L 2594 1863 
Q 2853 1313 3078 538 
L 2631 319 
z
M 4316 1288 
Q 4022 2056 3572 2631 
L 3931 2847 
Q 4400 2269 4713 1538 
L 4316 1288 
z
" transform="scale(0.015625)"/>
      <path id="IPAexGothic-34" d="M 3813 1159 
L 3059 1159 
L 3059 63 
L 2547 63 
L 2547 1159 
L 197 1159 
L 197 1672 
L 2456 4678 
L 3059 4678 
L 3059 1634 
L 3813 1634 
L 3813 1159 
z
M 2578 4109 
L 2559 4109 
Q 2278 3656 2003 3284 
L 759 1634 
L 2547 1634 
L 2547 3144 
Q 2547 3481 2578 4109 
z
" transform="scale(0.015625)"/>
      <path id="IPAexGothic-30" d="M 2038 4725 
Q 2881 4725 3334 3944 
Q 3694 3325 3694 2344 
Q 3694 1372 3334 741 
Q 2888 -31 2016 -31 
Q 1147 -31 700 741 
Q 341 1372 341 2350 
Q 341 3713 1000 4334 
Q 1419 4725 2038 4725 
z
M 2016 4266 
Q 1516 4266 1228 3759 
Q 934 3247 934 2344 
Q 934 1456 1222 947 
Q 1513 447 2016 447 
Q 2619 447 2909 1153 
Q 3100 1622 3100 2375 
Q 3100 3256 2806 3759 
Q 2509 4266 2016 4266 
z
" transform="scale(0.015625)"/>
      <path id="IPAexGothic-301c" d="M 678 2591 
Q 1259 3116 2022 3116 
Q 2559 3116 3359 2603 
Q 4019 2188 4353 2188 
Q 5056 2188 5722 2853 
L 5722 2259 
Q 5141 1734 4378 1734 
Q 3806 1734 3041 2234 
Q 2381 2663 2041 2663 
Q 1344 2663 678 1997 
L 678 2591 
z
" transform="scale(0.015625)"/>
      <path id="IPAexGothic-35" d="M 1178 2603 
Q 1634 2963 2172 2963 
Q 2816 2963 3241 2528 
Q 3638 2113 3638 1497 
Q 3638 938 3297 513 
Q 2869 -31 2031 -31 
Q 959 -31 469 784 
L 938 1028 
Q 1309 434 2013 434 
Q 2466 434 2769 716 
Q 3081 1013 3081 1503 
Q 3081 1966 2806 2241 
Q 2519 2528 2056 2528 
Q 1406 2528 1072 2028 
L 591 2091 
L 884 4634 
L 3406 4634 
L 3406 4153 
L 1341 4153 
L 1134 2603 
L 1178 2603 
z
" transform="scale(0.015625)"/>
      <path id="IPAexGothic-25" d="M 4088 2481 
Q 4528 2481 4800 2181 
Q 5094 1847 5094 1203 
Q 5094 534 4728 197 
Q 4472 -38 4088 -38 
Q 3647 -38 3378 269 
Q 3084 600 3084 1222 
Q 3084 1906 3444 2244 
Q 3697 2481 4088 2481 
z
M 4081 2097 
Q 3566 2097 3566 1234 
Q 3566 356 4097 356 
Q 4613 356 4613 1241 
Q 4613 2097 4081 2097 
z
M 1331 4731 
Q 1769 4731 2041 4431 
Q 2334 4097 2334 3450 
Q 2334 2781 1969 2447 
Q 1713 2209 1331 2209 
Q 888 2209 619 2516 
Q 325 2850 325 3472 
Q 325 4156 684 4494 
Q 941 4731 1331 4731 
z
M 1322 4347 
Q 806 4347 806 3484 
Q 806 2606 1338 2606 
Q 1859 2606 1859 3484 
Q 1859 3859 1725 4091 
Q 1584 4347 1322 4347 
z
M 4569 4603 
L 1106 -134 
L 856 78 
L 4313 4813 
L 4569 4603 
z
" transform="scale(0.015625)"/>
     </defs>
     <use xlink:href="#IPAexGothic-7d04"/>
     <use xlink:href="#IPAexGothic-20" x="100"/>
     <use xlink:href="#IPAexGothic-34" x="127.001953"/>
     <use xlink:href="#IPAexGothic-30" x="189.990234"/>
     <use xlink:href="#IPAexGothic-301c" x="252.978516"/>
     <use xlink:href="#IPAexGothic-35" x="352.978516"/>
     <use xlink:href="#IPAexGothic-30" x="415.966797"/>
     <use xlink:href="#IPAexGothic-25" x="478.955078"/>
    </g>
   </g>
   <g id="text_22">
    <!-- EDA・可視化 -->
    <g style="fill: #2c3e50" transform="translate(38.88 219.494141) scale(0.125 -0.125)">
     <use xlink:href="#IPAexGothic-45"/>
     <use xlink:href="#IPAexGothic-44" x="59.521484"/>
     <use xlink:href="#IPAexGothic-41" x="135.205078"/>
     <use xlink:href="#IPAexGothic-30fb" x="198.925781"/>
     <use xlink:href="#IPAexGothic-53ef" x="298.925781"/>
     <use xlink:href="#IPAexGothic-8996" x="398.925781"/>
     <use xlink:href="#IPAexGothic-5316" x="498.925781"/>
    </g>
   </g>
   <g id="text_23">
    <!-- 約 20〜30% -->
    <g style="fill: #2c3e50" transform="translate(413.28 219.494141) scale(0.125 -0.125)">
     <defs>
      <path id="IPAexGothic-32" d="M 3659 63 
L 447 63 
L 447 594 
Q 825 1475 1894 2203 
L 2072 2322 
Q 2619 2697 2791 2906 
Q 2988 3153 2988 3444 
Q 2988 3772 2756 4003 
Q 2500 4259 2084 4259 
Q 1250 4259 991 3328 
L 497 3506 
Q 853 4725 2116 4725 
Q 2806 4725 3216 4316 
Q 3575 3947 3575 3425 
Q 3575 3038 3344 2722 
Q 3131 2416 2366 1938 
L 2231 1856 
Q 1256 1253 978 569 
L 3659 569 
L 3659 63 
z
" transform="scale(0.015625)"/>
      <path id="IPAexGothic-33" d="M 2381 2419 
Q 3506 2216 3506 1278 
Q 3506 716 3128 356 
Q 2709 -31 1944 -31 
Q 797 -31 288 881 
L 756 1131 
Q 1109 441 1938 441 
Q 2425 441 2694 691 
Q 2950 928 2950 1291 
Q 2950 1719 2566 1978 
Q 2216 2213 1644 2213 
L 1363 2213 
L 1363 2669 
L 1656 2669 
Q 2231 2669 2534 2888 
Q 2859 3119 2859 3509 
Q 2859 3934 2494 4138 
Q 2259 4278 1931 4278 
Q 1238 4278 903 3578 
L 434 3803 
Q 897 4725 1938 4725 
Q 2597 4725 3006 4394 
Q 3416 4069 3416 3534 
Q 3416 3028 3019 2706 
Q 2763 2500 2381 2444 
L 2381 2419 
z
" transform="scale(0.015625)"/>
     </defs>
     <use xlink:href="#IPAexGothic-7d04"/>
     <use xlink:href="#IPAexGothic-20" x="100"/>
     <use xlink:href="#IPAexGothic-32" x="127.001953"/>
     <use xlink:href="#IPAexGothic-30" x="189.990234"/>
     <use xlink:href="#IPAexGothic-301c" x="252.978516"/>
     <use xlink:href="#IPAexGothic-33" x="352.978516"/>
     <use xlink:href="#IPAexGothic-30" x="415.966797"/>
     <use xlink:href="#IPAexGothic-25" x="478.955078"/>
    </g>
   </g>
   <g id="text_24">
    <!-- モデル構築・評価 -->
    <g style="fill: #2c3e50" transform="translate(38.88 242.54293) scale(0.125 -0.125)">
     <use xlink:href="#IPAexGothic-30e2"/>
     <use xlink:href="#IPAexGothic-30c7" x="100"/>
     <use xlink:href="#IPAexGothic-30eb" x="200"/>
     <use xlink:href="#IPAexGothic-69cb" x="300"/>
     <use xlink:href="#IPAexGothic-7bc9" x="400"/>
     <use xlink:href="#IPAexGothic-30fb" x="500"/>
     <use xlink:href="#IPAexGothic-8a55" x="600"/>
     <use xlink:href="#IPAexGothic-4fa1" x="700"/>
    </g>
   </g>
   <g id="text_25">
    <!-- 約 10〜20% -->
    <g style="fill: #2c3e50" transform="translate(413.28 242.534141) scale(0.125 -0.125)">
     <defs>
      <path id="IPAexGothic-31" d="M 2463 63 
L 1900 63 
L 1900 4103 
Q 1372 3922 788 3797 
L 684 4231 
Q 1519 4441 2106 4731 
L 2463 4731 
L 2463 63 
z
" transform="scale(0.015625)"/>
     </defs>
     <use xlink:href="#IPAexGothic-7d04"/>
     <use xlink:href="#IPAexGothic-20" x="100"/>
     <use xlink:href="#IPAexGothic-31" x="127.001953"/>
     <use xlink:href="#IPAexGothic-30" x="189.990234"/>
     <use xlink:href="#IPAexGothic-301c" x="252.978516"/>
     <use xlink:href="#IPAexGothic-32" x="352.978516"/>
     <use xlink:href="#IPAexGothic-30" x="415.966797"/>
     <use xlink:href="#IPAexGothic-25" x="478.955078"/>
    </g>
   </g>
   <g id="text_26">
    <!-- 結果の解釈・報告 -->
    <g style="fill: #2c3e50" transform="translate(38.88 265.574141) scale(0.125 -0.125)">
     <use xlink:href="#IPAexGothic-7d50"/>
     <use xlink:href="#IPAexGothic-679c" x="100"/>
     <use xlink:href="#IPAexGothic-306e" x="200"/>
     <use xlink:href="#IPAexGothic-89e3" x="300"/>
     <use xlink:href="#IPAexGothic-91c8" x="400"/>
     <use xlink:href="#IPAexGothic-30fb" x="500"/>
     <use xlink:href="#IPAexGothic-5831" x="600"/>
     <use xlink:href="#IPAexGothic-544a" x="700"/>
    </g>
   </g>
   <g id="text_27">
    <!-- 約 10〜20% -->
    <g style="fill: #2c3e50" transform="translate(413.28 265.574141) scale(0.125 -0.125)">
     <use xlink:href="#IPAexGothic-7d04"/>
     <use xlink:href="#IPAexGothic-20" x="100"/>
     <use xlink:href="#IPAexGothic-31" x="127.001953"/>
     <use xlink:href="#IPAexGothic-30" x="189.990234"/>
     <use xlink:href="#IPAexGothic-301c" x="252.978516"/>
     <use xlink:href="#IPAexGothic-32" x="352.978516"/>
     <use xlink:href="#IPAexGothic-30" x="415.966797"/>
     <use xlink:href="#IPAexGothic-25" x="478.955078"/>
    </g>
   </g>
   <g id="text_28">
    <!-- ポイント：モデルを「作ること」より、データ理解と結果解釈の方が圧倒的に時間がかかります -->
    <g style="fill: #1e8449" transform="translate(41.04 370.508365) scale(0.12 -0.12)">
     <defs>
      <path id="IPAexGothic-30dd" d="M 5188 5453 
Q 5497 5453 5706 5219 
Q 5891 5016 5891 4747 
Q 5891 4434 5656 4222 
Q 5453 4038 5188 4038 
Q 4872 4038 4659 4272 
Q 4475 4475 4475 4747 
Q 4475 5059 4709 5269 
Q 4916 5453 5188 5453 
z
M 5188 5172 
Q 4997 5172 4866 5031 
Q 4756 4909 4756 4747 
Q 4756 4556 4897 4428 
Q 5022 4319 5188 4319 
Q 5372 4319 5500 4459 
Q 5609 4584 5609 4747 
Q 5609 4934 5469 5063 
Q 5347 5172 5188 5172 
z
M 2972 4978 
L 3478 4978 
L 3478 3794 
L 5584 3794 
L 5584 3341 
L 3478 3341 
L 3478 397 
Q 3478 -147 2844 -147 
Q 2428 -147 2019 -72 
L 1909 459 
Q 2300 359 2716 359 
Q 2972 359 2972 616 
L 2972 3341 
L 822 3341 
L 822 3794 
L 2972 3794 
L 2972 4978 
z
M 603 922 
Q 988 1294 1222 1694 
Q 1438 2063 1600 2572 
L 2050 2369 
Q 1859 1766 1588 1325 
Q 1372 975 1000 556 
L 603 922 
z
M 5313 709 
Q 4847 1700 4309 2388 
L 4719 2656 
Q 5269 2016 5775 1031 
L 5313 709 
z
" transform="scale(0.015625)"/>
      <path id="IPAexGothic-ff1a" d="M 2822 3366 
L 3578 3366 
L 3578 2609 
L 2822 2609 
L 2822 3366 
z
M 2822 1081 
L 3578 1081 
L 3578 325 
L 2822 325 
L 2822 1081 
z
" transform="scale(0.015625)"/>
      <path id="IPAexGothic-3092" d="M 1094 4263 
Q 1544 4222 2359 4222 
Q 2581 4734 2700 5163 
L 3175 5028 
Q 2997 4538 2859 4256 
Q 3516 4284 4294 4459 
L 4356 4019 
Q 3603 3869 2656 3819 
Q 2391 3284 2059 2797 
Q 2531 3200 2963 3200 
Q 3638 3200 3859 2378 
Q 4556 2681 5338 2950 
L 5575 2528 
Q 4641 2253 3941 1956 
Q 3981 1678 3994 1028 
L 3513 991 
Q 3513 1456 3494 1753 
Q 2388 1194 2388 716 
Q 2388 428 2753 328 
Q 3066 241 3806 241 
Q 4394 241 5178 344 
L 5216 -128 
Q 4434 -213 3653 -213 
Q 2656 -213 2244 41 
Q 1913 244 1913 631 
Q 1913 1094 2344 1497 
Q 2709 1841 3428 2181 
Q 3266 2797 2878 2797 
Q 2238 2797 1209 1419 
L 838 1694 
Q 1625 2716 2163 3800 
Q 1522 3800 1088 3825 
L 1094 4263 
z
" transform="scale(0.015625)"/>
      <path id="IPAexGothic-300c" d="M 4134 5300 
L 5875 5300 
L 5875 4853 
L 4581 4853 
L 4581 656 
L 4134 656 
L 4134 5300 
z
" transform="scale(0.015625)"/>
      <path id="IPAexGothic-3053" d="M 1647 4422 
Q 2400 4363 3003 4363 
Q 3803 4363 4653 4459 
L 4763 4031 
Q 4319 3906 3788 3588 
Q 3347 3322 2978 2994 
L 2619 3272 
Q 3150 3666 3609 3950 
Q 3097 3909 2619 3909 
Q 2091 3909 1666 3956 
L 1647 4422 
z
M 5244 191 
Q 4363 13 3303 13 
Q 2316 13 1716 344 
Q 1159 653 1159 1197 
Q 1159 1738 1659 2247 
L 2044 2003 
Q 1647 1644 1647 1263 
Q 1647 500 3291 500 
Q 4288 500 5191 722 
L 5244 191 
z
" transform="scale(0.015625)"/>
      <path id="IPAexGothic-3068" d="M 5222 56 
Q 4200 -72 3450 -72 
Q 2478 -72 1941 113 
Q 1184 372 1184 1038 
Q 1184 1584 1594 2009 
Q 1941 2369 2656 2725 
Q 2231 3734 1972 4878 
L 2491 4978 
Q 2706 3884 3078 2950 
Q 4250 3447 4756 3616 
L 4978 3150 
Q 3181 2575 2409 2078 
Q 1691 1613 1691 1113 
Q 1691 403 3322 403 
Q 4125 403 5134 563 
L 5222 56 
z
" transform="scale(0.015625)"/>
      <path id="IPAexGothic-300d" d="M 1819 4209 
L 2266 4209 
L 2266 -434 
L 525 -434 
L 525 13 
L 1819 13 
L 1819 4209 
z
" transform="scale(0.015625)"/>
      <path id="IPAexGothic-3088" d="M 2784 5019 
L 3272 5019 
Q 3247 4378 3272 3647 
Q 4184 3719 4850 3903 
L 4997 3431 
Q 4369 3291 3272 3200 
Q 3288 2366 3378 1550 
Q 4134 1353 5344 647 
L 5031 213 
Q 4244 759 3406 1044 
L 3413 891 
Q 3434 359 3122 84 
Q 2863 -141 2272 -141 
Q 1641 -141 1272 116 
Q 934 350 934 738 
Q 934 1294 1500 1534 
Q 1841 1678 2278 1678 
Q 2581 1678 2906 1631 
Q 2813 2559 2784 5019 
z
M 2931 1178 
Q 2613 1244 2369 1244 
Q 1422 1244 1422 794 
Q 1422 300 2278 300 
Q 2956 300 2938 934 
L 2931 1178 
z
" transform="scale(0.015625)"/>
      <path id="IPAexGothic-308a" d="M 2878 2925 
Q 2503 2294 2372 2041 
Q 2222 1750 2163 1459 
L 1716 1503 
Q 1509 2131 1509 3091 
Q 1509 3744 1663 4872 
L 2181 4806 
Q 2003 3541 2003 3016 
Q 2003 2613 2028 2259 
Q 2109 2413 2313 2766 
Q 2484 3063 2578 3238 
L 2878 2925 
z
M 2488 128 
Q 3534 503 3928 1184 
Q 4234 1713 4234 2975 
Q 4234 3872 4122 4928 
L 4666 4928 
Q 4759 3794 4759 2975 
Q 4759 1516 4356 844 
Q 3913 103 2853 -288 
L 2488 128 
z
" transform="scale(0.015625)"/>
      <path id="IPAexGothic-3001" d="M 1325 -409 
Q 859 319 281 856 
L 691 1209 
Q 1225 734 1772 -25 
L 1325 -409 
z
" transform="scale(0.015625)"/>
      <path id="IPAexGothic-7406" d="M 1541 4397 
L 1541 3084 
L 2219 3084 
L 2219 2688 
L 1541 2688 
L 1541 1247 
Q 1919 1356 2397 1522 
L 2431 1144 
Q 1353 713 434 472 
L 263 909 
Q 763 1025 1113 1119 
L 1113 2688 
L 441 2688 
L 441 3084 
L 1113 3084 
L 1113 4397 
L 369 4397 
L 369 4800 
L 2347 4800 
L 2347 4397 
L 1541 4397 
z
M 5691 4991 
L 5691 2106 
L 4378 2106 
L 4378 1375 
L 5825 1375 
L 5825 984 
L 4378 984 
L 4378 206 
L 6081 206 
L 6081 -191 
L 2150 -191 
L 2150 206 
L 3944 206 
L 3944 984 
L 2559 984 
L 2559 1375 
L 3944 1375 
L 3944 2106 
L 2675 2106 
L 2675 4991 
L 5691 4991 
z
M 3091 4606 
L 3091 3750 
L 3956 3750 
L 3956 4606 
L 3091 4606 
z
M 3091 3378 
L 3091 2491 
L 3956 2491 
L 3956 3378 
L 3091 3378 
z
M 5275 2491 
L 5275 3378 
L 4366 3378 
L 4366 2491 
L 5275 2491 
z
M 5275 3750 
L 5275 4606 
L 4366 4606 
L 4366 3750 
L 5275 3750 
z
" transform="scale(0.015625)"/>
      <path id="IPAexGothic-65b9" d="M 2931 3750 
L 2925 3616 
Q 2916 3203 2872 2778 
L 5244 2778 
Q 5175 781 5000 156 
Q 4913 -144 4691 -247 
Q 4528 -325 4194 -325 
Q 3759 -325 3256 -263 
L 3144 269 
Q 3700 156 4141 156 
Q 4491 156 4556 463 
Q 4725 1197 4744 2350 
L 2822 2350 
Q 2822 2313 2816 2288 
Q 2538 428 916 -484 
L 563 -94 
Q 1859 491 2247 1869 
Q 2422 2488 2450 3750 
L 409 3750 
L 409 4178 
L 2931 4178 
L 2931 5175 
L 3431 5175 
L 3431 4178 
L 5984 4178 
L 5984 3750 
L 2931 3750 
z
" transform="scale(0.015625)"/>
      <path id="IPAexGothic-304c" d="M 659 3384 
Q 1434 3503 2113 3581 
Q 2313 4341 2394 4972 
L 2900 4875 
Q 2759 4147 2619 3628 
L 2719 3634 
Q 2894 3641 3041 3641 
Q 4072 3641 4072 2369 
Q 4072 1128 3700 384 
Q 3478 -56 3003 -56 
Q 2591 -56 2113 231 
L 2138 775 
Q 2631 444 2925 444 
Q 3169 444 3297 706 
Q 3566 1294 3566 2388 
Q 3566 3219 3016 3219 
Q 2825 3219 2497 3194 
Q 2388 2763 2113 2047 
Q 1634 797 1119 -38 
L 678 244 
Q 1356 1238 1863 2750 
Q 1888 2819 1991 3128 
Q 1594 3081 769 2916 
L 659 3384 
z
M 5441 1838 
Q 4913 3038 4091 3916 
L 4475 4184 
Q 5350 3269 5888 2156 
L 5441 1838 
z
M 5913 4275 
Q 5553 4819 5159 5147 
L 5459 5375 
Q 5844 5066 6234 4550 
L 5913 4275 
z
M 5344 3788 
Q 5053 4278 4609 4678 
L 4922 4922 
Q 5294 4613 5678 4063 
L 5344 3788 
z
" transform="scale(0.015625)"/>
      <path id="IPAexGothic-5727" d="M 1409 4409 
L 1409 3200 
Q 1409 1691 1275 916 
Q 1150 216 800 -456 
L 403 -103 
Q 934 931 934 2853 
L 934 4838 
L 5756 4838 
L 5756 4409 
L 1409 4409 
z
M 3378 2597 
L 3378 4131 
L 3859 4131 
L 3859 2597 
L 5588 2597 
L 5588 2169 
L 3859 2169 
L 3859 325 
L 6009 325 
L 6009 -116 
L 1356 -116 
L 1356 325 
L 3378 325 
L 3378 2169 
L 1747 2169 
L 1747 2597 
L 3378 2597 
z
" transform="scale(0.015625)"/>
      <path id="IPAexGothic-5012" d="M 1400 3828 
L 1400 -447 
L 972 -447 
L 972 2791 
Q 750 2359 491 1966 
L 256 2363 
Q 972 3488 1375 5319 
L 1809 5209 
Q 1609 4413 1400 3828 
z
M 2163 3194 
Q 2438 3772 2638 4475 
L 1800 4475 
L 1800 4891 
L 4256 4891 
L 4256 4475 
L 3109 4475 
Q 2841 3681 2619 3222 
Q 3003 3250 3578 3316 
L 3628 3322 
Q 3444 3703 3250 3981 
L 3597 4169 
Q 3972 3650 4328 2863 
L 3916 2644 
Q 3819 2897 3763 3022 
Q 3144 2891 1869 2759 
L 1728 3175 
Q 1772 3178 1878 3181 
Q 2000 3184 2063 3188 
Q 2113 3194 2163 3194 
z
M 2778 1894 
L 2778 2578 
L 3206 2578 
L 3206 1894 
L 4191 1894 
L 4191 1491 
L 3206 1491 
L 3206 634 
Q 3838 750 4263 850 
L 4275 488 
Q 3122 156 1788 -38 
L 1625 391 
Q 2050 441 2778 556 
L 2778 1491 
L 1806 1491 
L 1806 1894 
L 2778 1894 
z
M 4513 4563 
L 4934 4563 
L 4934 969 
L 4513 969 
L 4513 4563 
z
M 5459 5088 
L 5881 5088 
L 5881 116 
Q 5881 -194 5759 -288 
Q 5653 -366 5369 -366 
Q 4988 -366 4703 -341 
L 4622 109 
Q 4984 50 5269 50 
Q 5459 50 5459 250 
L 5459 5088 
z
" transform="scale(0.015625)"/>
      <path id="IPAexGothic-306b" d="M 1088 -38 
Q 922 1003 922 2081 
Q 922 3222 1331 4794 
L 1813 4684 
Q 1391 3113 1391 2003 
Q 1391 1441 1422 1147 
Q 1434 1181 1813 2016 
L 2125 1797 
Q 1800 1081 1691 763 
Q 1581 453 1581 269 
Q 1581 78 1588 6 
L 1088 -38 
z
M 2834 4038 
Q 3969 4213 5313 4172 
L 5338 3681 
Q 3959 3728 2869 3547 
L 2834 4038 
z
M 5650 256 
Q 5044 172 4372 172 
Q 3463 172 3047 434 
Q 2784 594 2675 841 
Q 2572 1075 2572 1447 
Q 2572 1563 2578 1656 
L 3053 1684 
Q 3050 1613 3044 1528 
Q 3041 1481 3041 1466 
Q 3041 1200 3119 1053 
Q 3178 944 3309 850 
Q 3569 678 4275 678 
Q 4891 678 5588 763 
L 5650 256 
z
" transform="scale(0.015625)"/>
      <path id="IPAexGothic-304b" d="M 659 3384 
Q 1434 3503 2113 3581 
Q 2313 4341 2394 4972 
L 2900 4875 
Q 2759 4147 2619 3628 
L 2719 3634 
Q 2894 3641 3041 3641 
Q 4072 3641 4072 2369 
Q 4072 1128 3700 384 
Q 3478 -56 3003 -56 
Q 2591 -56 2113 231 
L 2138 775 
Q 2631 444 2925 444 
Q 3169 444 3297 706 
Q 3566 1294 3566 2388 
Q 3566 3219 3016 3219 
Q 2825 3219 2497 3194 
Q 2388 2763 2113 2047 
Q 1634 797 1119 -38 
L 678 244 
Q 1356 1238 1863 2750 
Q 1888 2819 1991 3128 
Q 1594 3081 769 2916 
L 659 3384 
z
M 5644 1753 
Q 5072 3025 4238 3916 
L 4641 4184 
Q 5494 3275 6081 2094 
L 5644 1753 
z
" transform="scale(0.015625)"/>
      <path id="IPAexGothic-307e" d="M 3538 5075 
L 3547 4141 
Q 4509 4203 5288 4341 
L 5325 3897 
Q 4744 3809 3553 3719 
L 3566 2925 
Q 4578 3022 5031 3103 
L 5063 2663 
Q 4519 2572 3578 2503 
L 3628 1403 
Q 4531 1128 5459 513 
L 5153 84 
Q 4656 456 3641 909 
Q 3669 331 3391 84 
Q 3116 -153 2559 -153 
Q 1900 -153 1522 72 
Q 1138 297 1138 719 
Q 1138 1163 1634 1413 
Q 1994 1594 2413 1594 
Q 2797 1594 3156 1538 
L 3109 2472 
Q 2641 2450 2413 2450 
Q 1931 2450 1422 2484 
L 1422 2919 
Q 1941 2872 2516 2872 
Q 2706 2872 3097 2894 
L 3072 3688 
Q 2381 3675 2344 3675 
Q 1794 3675 1075 3706 
L 1075 4141 
Q 1744 4097 2431 4097 
Q 2456 4097 3059 4109 
L 3041 5075 
L 3538 5075 
z
M 3163 1088 
Q 2713 1184 2394 1184 
Q 2094 1184 1875 1091 
Q 1606 975 1606 750 
Q 1606 484 1925 363 
Q 2156 275 2503 275 
Q 3163 275 3163 794 
L 3163 1088 
z
" transform="scale(0.015625)"/>
     </defs>
     <use xlink:href="#IPAexGothic-30dd"/>
     <use xlink:href="#IPAexGothic-30a4" x="100"/>
     <use xlink:href="#IPAexGothic-30f3" x="200"/>
     <use xlink:href="#IPAexGothic-30c8" x="300"/>
     <use xlink:href="#IPAexGothic-ff1a" x="400"/>
     <use xlink:href="#IPAexGothic-30e2" x="500"/>
     <use xlink:href="#IPAexGothic-30c7" x="600"/>
     <use xlink:href="#IPAexGothic-30eb" x="700"/>
     <use xlink:href="#IPAexGothic-3092" x="800"/>
     <use xlink:href="#IPAexGothic-300c" x="900"/>
     <use xlink:href="#IPAexGothic-4f5c" x="1000"/>
     <use xlink:href="#IPAexGothic-308b" x="1100"/>
     <use xlink:href="#IPAexGothic-3053" x="1200"/>
     <use xlink:href="#IPAexGothic-3068" x="1300"/>
     <use xlink:href="#IPAexGothic-300d" x="1400"/>
     <use xlink:href="#IPAexGothic-3088" x="1500"/>
     <use xlink:href="#IPAexGothic-308a" x="1600"/>
     <use xlink:href="#IPAexGothic-3001" x="1700"/>
     <use xlink:href="#IPAexGothic-30c7" x="1800"/>
     <use xlink:href="#IPAexGothic-30fc" x="1900"/>
     <use xlink:href="#IPAexGothic-30bf" x="2000"/>
     <use xlink:href="#IPAexGothic-7406" x="2100"/>
     <use xlink:href="#IPAexGothic-89e3" x="2200"/>
     <use xlink:href="#IPAexGothic-3068" x="2300"/>
     <use xlink:href="#IPAexGothic-7d50" x="2400"/>
     <use xlink:href="#IPAexGothic-679c" x="2500"/>
     <use xlink:href="#IPAexGothic-89e3" x="2600"/>
     <use xlink:href="#IPAexGothic-91c8" x="2700"/>
     <use xlink:href="#IPAexGothic-306e" x="2800"/>
     <use xlink:href="#IPAexGothic-65b9" x="2900"/>
     <use xlink:href="#IPAexGothic-304c" x="3000"/>
     <use xlink:href="#IPAexGothic-5727" x="3100"/>
     <use xlink:href="#IPAexGothic-5012" x="3200"/>
     <use xlink:href="#IPAexGothic-7684" x="3300"/>
     <use xlink:href="#IPAexGothic-306b" x="3400"/>
     <use xlink:href="#IPAexGothic-6642" x="3500"/>
     <use xlink:href="#IPAexGothic-9593" x="3600"/>
     <use xlink:href="#IPAexGothic-304c" x="3700"/>
     <use xlink:href="#IPAexGothic-304b" x="3800"/>
     <use xlink:href="#IPAexGothic-304b" x="3900"/>
     <use xlink:href="#IPAexGothic-308a" x="4000"/>
     <use xlink:href="#IPAexGothic-307e" x="4100"/>
     <use xlink:href="#IPAexGothic-3059" x="4200"/>
    </g>
   </g>
  </g>
 </g>
 <defs>
  <clipPath id="p4617c585e0">
   <rect x="0" y="-0" width="691.2" height="388.8"/>
  </clipPath>
 </defs>
</svg>
