<?xml version="1.0" encoding="utf-8" standalone="no"?>
<!DOCTYPE svg PUBLIC "-//W3C//DTD SVG 1.1//EN"
  "http://www.w3.org/Graphics/SVG/1.1/DTD/svg11.dtd">
<svg xmlns:xlink="http://www.w3.org/1999/xlink" width="691.2pt" height="388.8pt" viewBox="0 0 691.2 388.8" xmlns="http://www.w3.org/2000/svg" version="1.1">
 <metadata>
  <rdf:RDF xmlns:dc="http://purl.org/dc/elements/1.1/" xmlns:cc="http://creativecommons.org/ns#" xmlns:rdf="http://www.w3.org/1999/02/22-rdf-syntax-ns#">
   <cc:Work>
    <dc:type rdf:resource="http://purl.org/dc/dcmitype/StillImage"/>
    <dc:date>2026-04-09T02:37:45.197822</dc:date>
    <dc:format>image/svg+xml</dc:format>
    <dc:creator>
     <cc:Agent>
      <dc:title>Matplotlib v3.9.4, https://matplotlib.org/</dc:title>
     </cc:Agent>
    </dc:creator>
   </cc:Work>
  </rdf:RDF>
 </metadata>
 <defs>
  <style type="text/css">*{stroke-linejoin: round; stroke-linecap: butt}</style>
 </defs>
 <g id="figure_1">
  <g id="patch_1">
   <path d="M 0 388.8 
L 691.2 388.8 
L 691.2 0 
L 0 0 
z
" style="fill: #ffffff"/>
  </g>
  <g id="axes_1">
   <g id="patch_2">
    <path d="M 0 -0 
L 691.2 -0 
L 691.2 24.48 
L 0 24.48 
z
" clip-path="url(#pdc49f7244b)" style="fill: #2c3e50"/>
   </g>
   <g id="patch_3">
    <path d="M 31.68 59.04 
L 659.52 59.04 
L 659.52 60.48 
L 31.68 60.48 
z
" clip-path="url(#pdc49f7244b)" style="fill: #ecf0f1"/>
   </g>
   <g id="patch_4">
    <path d="M 31.68 64.8 
L 659.52 64.8 
L 659.52 106.56 
L 31.68 106.56 
z
" clip-path="url(#pdc49f7244b)" style="fill: #ebf5fb"/>
   </g>
   <g id="patch_5">
    <path d="M 31.68 64.8 
L 33.84 64.8 
L 33.84 106.56 
L 31.68 106.56 
z
" clip-path="url(#pdc49f7244b)" style="fill: #4a90d9"/>
   </g>
   <g id="patch_6">
    <path d="M 31.68 309.6 
L 659.52 309.6 
L 659.52 338.4 
L 31.68 338.4 
z
" clip-path="url(#pdc49f7244b)" style="fill: #fef9e7"/>
   </g>
   <g id="patch_7">
    <path d="M 31.68 309.6 
L 33.84 309.6 
L 33.84 338.4 
L 31.68 338.4 
z
" clip-path="url(#pdc49f7244b)" style="fill: #e8a838"/>
   </g>
   <g id="text_1">
    <!-- オリエンテーション -->
    <g style="fill: #ffffff" transform="translate(31.68 15.035312) scale(0.1 -0.1)">
     <defs>
      <path id="IPAexGothic-30aa" d="M 3578 5000 
L 4078 5000 
L 4109 3719 
L 5678 3719 
L 5678 3272 
L 4122 3272 
L 4188 397 
Q 4197 -147 3553 -147 
Q 3125 -147 2663 -69 
L 2553 463 
Q 3088 359 3425 359 
Q 3688 359 3688 616 
L 3663 2288 
L 3681 3106 
Q 3203 2188 2456 1469 
Q 1791 828 994 425 
L 634 834 
Q 2294 1588 3303 3272 
L 878 3272 
L 878 3719 
L 3609 3719 
L 3578 5000 
z
" transform="scale(0.015625)"/>
      <path id="IPAexGothic-30ea" d="M 1678 4788 
L 2222 4788 
L 2222 1900 
L 1678 1900 
L 1678 4788 
z
M 4084 4909 
L 4628 4909 
L 4628 2753 
Q 4628 1563 4150 794 
Q 3725 119 2772 -353 
L 2394 78 
Q 3334 494 3706 1094 
Q 4084 1703 4084 2725 
L 4084 4909 
z
" transform="scale(0.015625)"/>
      <path id="IPAexGothic-30a8" d="M 1109 4063 
L 5294 4063 
L 5294 3594 
L 3444 3594 
L 3444 988 
L 5759 988 
L 5759 513 
L 641 513 
L 641 988 
L 2913 988 
L 2913 3594 
L 1109 3594 
L 1109 4063 
z
" transform="scale(0.015625)"/>
      <path id="IPAexGothic-30f3" d="M 2444 3084 
Q 1816 3656 1056 4084 
L 1381 4519 
Q 2063 4191 2816 3559 
L 2444 3084 
z
M 1100 609 
Q 3984 1106 5216 3828 
L 5619 3469 
Q 4413 794 1434 103 
L 1100 609 
z
" transform="scale(0.015625)"/>
      <path id="IPAexGothic-30c6" d="M 563 3072 
L 5741 3072 
L 5741 2613 
L 3578 2613 
Q 3538 1516 3134 872 
Q 2688 156 1663 -256 
L 1313 156 
Q 2338 538 2713 1166 
Q 3003 1644 3034 2613 
L 563 2613 
L 563 3072 
z
M 1406 4588 
L 4941 4588 
L 4941 4128 
L 1406 4128 
L 1406 4588 
z
" transform="scale(0.015625)"/>
      <path id="IPAexGothic-30fc" d="M 588 2688 
L 5809 2688 
L 5809 2175 
L 588 2175 
L 588 2688 
z
" transform="scale(0.015625)"/>
      <path id="IPAexGothic-30b7" d="M 2828 3531 
Q 2219 4056 1613 4359 
L 1913 4781 
Q 2503 4491 3169 3981 
L 2828 3531 
z
M 1163 500 
Q 3944 1094 5338 3525 
L 5688 3128 
Q 4297 700 1484 0 
L 1163 500 
z
M 2072 2278 
Q 1466 2800 831 3109 
L 1131 3541 
Q 1806 3213 2406 2725 
L 2072 2278 
z
" transform="scale(0.015625)"/>
      <path id="IPAexGothic-30e7" d="M 1625 3469 
L 4653 3469 
L 4653 0 
L 4172 0 
L 4172 294 
L 1553 294 
L 1553 753 
L 4172 753 
L 4172 1734 
L 1766 1734 
L 1766 2169 
L 4172 2169 
L 4172 3028 
L 1625 3028 
L 1625 3469 
z
" transform="scale(0.015625)"/>
     </defs>
     <use xlink:href="#IPAexGothic-30aa"/>
     <use xlink:href="#IPAexGothic-30ea" x="100"/>
     <use xlink:href="#IPAexGothic-30a8" x="200"/>
     <use xlink:href="#IPAexGothic-30f3" x="300"/>
     <use xlink:href="#IPAexGothic-30c6" x="400"/>
     <use xlink:href="#IPAexGothic-30fc" x="500"/>
     <use xlink:href="#IPAexGothic-30b7" x="600"/>
     <use xlink:href="#IPAexGothic-30e7" x="700"/>
     <use xlink:href="#IPAexGothic-30f3" x="800"/>
    </g>
   </g>
   <g id="text_2">
    <!-- 今日のゴール -->
    <g style="fill: #1a1a2e" transform="translate(31.68 55.485) scale(0.24 -0.24)">
     <defs>
      <path id="IPAexGothic-4eca" d="M 1938 3263 
L 4575 3263 
L 4575 2847 
L 1913 2847 
L 1913 3244 
Q 1328 2763 581 2384 
L 281 2769 
Q 2006 3609 2888 5156 
L 3438 5156 
Q 4353 3778 6131 2944 
L 5825 2534 
Q 4125 3406 3175 4741 
Q 2681 3881 1938 3263 
z
M 1144 2222 
L 5009 2222 
L 5306 1903 
Q 4416 441 3391 -478 
L 2969 -184 
Q 3978 672 4666 1806 
L 1144 1806 
L 1144 2222 
z
" transform="scale(0.015625)"/>
      <path id="IPAexGothic-65e5" d="M 5231 4800 
L 5231 -288 
L 4744 -288 
L 4744 128 
L 1647 128 
L 1647 -288 
L 1159 -288 
L 1159 4800 
L 5231 4800 
z
M 1647 4372 
L 1647 2731 
L 4744 2731 
L 4744 4372 
L 1647 4372 
z
M 1647 2297 
L 1647 556 
L 4744 556 
L 4744 2297 
L 1647 2297 
z
" transform="scale(0.015625)"/>
      <path id="IPAexGothic-306e" d="M 3119 469 
Q 5275 766 5275 2425 
Q 5275 3453 4413 3925 
Q 4041 4116 3547 4159 
Q 3394 2525 2850 1400 
Q 2322 306 1722 306 
Q 1384 306 1084 666 
Q 609 1244 609 2003 
Q 609 3025 1397 3794 
Q 2184 4563 3431 4563 
Q 4306 4563 4928 4122 
Q 5813 3506 5813 2425 
Q 5813 438 3431 6 
L 3119 469 
z
M 3053 4147 
Q 2378 4044 1891 3641 
Q 1097 2981 1097 1991 
Q 1097 1366 1434 978 
Q 1581 813 1719 813 
Q 2022 813 2416 1625 
Q 2909 2638 3053 4147 
z
" transform="scale(0.015625)"/>
      <path id="IPAexGothic-30b4" d="M 1000 4109 
L 5031 4109 
L 5031 50 
L 4519 50 
L 4519 494 
L 928 494 
L 928 988 
L 4519 988 
L 4519 3622 
L 1000 3622 
L 1000 4109 
z
M 6009 4447 
Q 5647 4991 5253 5319 
L 5556 5550 
Q 5941 5241 6328 4722 
L 6009 4447 
z
M 5416 3981 
Q 5125 4472 4678 4872 
L 4991 5113 
Q 5363 4806 5747 4256 
L 5416 3981 
z
" transform="scale(0.015625)"/>
      <path id="IPAexGothic-30eb" d="M 353 331 
Q 1313 994 1544 2022 
Q 1684 2650 1684 4397 
L 2203 4397 
L 2203 4153 
L 2203 4116 
Q 2203 2259 1934 1491 
Q 1619 588 744 -38 
L 353 331 
z
M 3125 4666 
L 3650 4666 
L 3650 769 
Q 4875 1488 5672 2734 
L 6000 2278 
Q 5075 966 3516 63 
L 3125 359 
L 3125 4666 
z
" transform="scale(0.015625)"/>
     </defs>
     <use xlink:href="#IPAexGothic-4eca"/>
     <use xlink:href="#IPAexGothic-65e5" x="100"/>
     <use xlink:href="#IPAexGothic-306e" x="200"/>
     <use xlink:href="#IPAexGothic-30b4" x="300"/>
     <use xlink:href="#IPAexGothic-30fc" x="400"/>
     <use xlink:href="#IPAexGothic-30eb" x="500"/>
    </g>
   </g>
   <g id="text_3">
    <!-- 「Pythonでデータ分析がどうやってできるのか、 -->
    <g style="fill: #1a5276" transform="translate(41.04 89.268954) scale(0.125 -0.125)">
     <defs>
      <path id="IPAexGothic-300c" d="M 4134 5300 
L 5875 5300 
L 5875 4853 
L 4581 4853 
L 4581 656 
L 4134 656 
L 4134 5300 
z
" transform="scale(0.015625)"/>
      <path id="IPAexGothic-50" d="M 609 4634 
L 1941 4634 
Q 3688 4634 3688 3322 
Q 3688 1934 1906 1934 
L 1172 1934 
L 1172 63 
L 609 63 
L 609 4634 
z
M 1172 2381 
L 1800 2381 
Q 3100 2381 3100 3316 
Q 3100 4181 1894 4181 
L 1172 4181 
L 1172 2381 
z
" transform="scale(0.015625)"/>
      <path id="IPAexGothic-79" d="M 3122 3250 
L 1575 -488 
Q 1278 -1203 550 -1203 
L 478 -1203 
L 344 -703 
L 447 -703 
Q 969 -703 1150 -238 
L 1356 275 
L 38 3250 
L 659 3250 
L 1363 1459 
Q 1528 1025 1606 781 
L 1625 781 
Q 1750 1169 1863 1459 
L 2528 3250 
L 3122 3250 
z
" transform="scale(0.015625)"/>
      <path id="IPAexGothic-74" d="M 2125 241 
Q 1769 -6 1397 -6 
Q 653 -6 653 831 
L 653 2859 
L 219 2859 
L 219 3250 
L 653 3250 
L 653 3966 
L 1178 4228 
L 1178 3250 
L 2063 3250 
L 2063 2859 
L 1178 2859 
L 1178 906 
Q 1178 416 1513 416 
Q 1738 416 1941 588 
L 2125 241 
z
" transform="scale(0.015625)"/>
      <path id="IPAexGothic-68" d="M 3347 63 
L 2797 63 
L 2797 2041 
Q 2797 2853 2131 2853 
Q 1447 2853 1131 2041 
L 1131 63 
L 581 63 
L 581 4794 
L 1131 4794 
L 1131 2706 
Q 1566 3316 2247 3316 
Q 3347 3316 3347 2072 
L 3347 63 
z
" transform="scale(0.015625)"/>
      <path id="IPAexGothic-6f" d="M 1919 3341 
Q 2594 3341 3056 2888 
Q 3531 2413 3531 1638 
Q 3531 888 3066 422 
Q 2609 -31 1919 -31 
Q 1228 -31 781 416 
Q 313 881 313 1656 
Q 313 2413 788 2888 
Q 1241 3341 1919 3341 
z
M 1919 2919 
Q 1519 2919 1241 2631 
Q 888 2278 888 1650 
Q 888 1031 1234 684 
Q 1516 403 1919 403 
Q 2331 403 2609 691 
Q 2956 1038 2956 1672 
Q 2956 2269 2603 2631 
Q 2316 2919 1919 2919 
z
" transform="scale(0.015625)"/>
      <path id="IPAexGothic-6e" d="M 3328 63 
L 2778 63 
L 2778 2041 
Q 2778 2853 2106 2853 
Q 1428 2853 1113 2041 
L 1113 63 
L 563 63 
L 563 3250 
L 1075 3250 
L 1075 2675 
Q 1525 3316 2222 3316 
Q 3328 3316 3328 2072 
L 3328 63 
z
" transform="scale(0.015625)"/>
      <path id="IPAexGothic-3067" d="M 581 4034 
Q 2978 4363 5466 4556 
L 5509 4097 
Q 4388 4031 3750 3572 
Q 2797 2878 2797 1913 
Q 2797 1169 3291 819 
Q 3778 484 4869 416 
L 4906 -116 
Q 2278 0 2278 1850 
Q 2278 3125 3691 4000 
Q 2066 3784 684 3553 
L 581 4034 
z
M 5631 2522 
Q 5269 3063 4875 3391 
L 5175 3622 
Q 5559 3313 5950 2797 
L 5631 2522 
z
M 5034 2053 
Q 4747 2544 4300 2944 
L 4613 3184 
Q 4984 2878 5369 2328 
L 5034 2053 
z
" transform="scale(0.015625)"/>
      <path id="IPAexGothic-30c7" d="M 563 3072 
L 5741 3072 
L 5741 2613 
L 3578 2613 
Q 3538 1516 3134 872 
Q 2688 156 1663 -256 
L 1313 156 
Q 2338 538 2713 1166 
Q 3003 1644 3034 2613 
L 563 2613 
L 563 3072 
z
M 1406 4588 
L 4588 4588 
L 4588 4128 
L 1406 4128 
L 1406 4588 
z
M 6009 4469 
Q 5647 5009 5253 5338 
L 5553 5569 
Q 5938 5259 6328 4744 
L 6009 4469 
z
M 5413 4000 
Q 5125 4491 4678 4891 
L 4991 5131 
Q 5363 4825 5747 4275 
L 5413 4000 
z
" transform="scale(0.015625)"/>
      <path id="IPAexGothic-30bf" d="M 4978 4263 
L 5313 3988 
Q 4797 2431 4056 1459 
Q 3191 325 1822 -300 
L 1466 109 
Q 2131 381 2613 738 
Q 3053 1066 3531 1600 
Q 2919 2225 2144 2791 
Q 1603 2203 1172 1875 
L 825 2234 
Q 2316 3328 2866 5031 
L 3359 4897 
Q 3325 4775 3109 4263 
L 4978 4263 
z
M 2894 3816 
Q 2709 3522 2438 3169 
Q 3194 2616 3841 2003 
Q 4366 2806 4747 3816 
L 2894 3816 
z
" transform="scale(0.015625)"/>
      <path id="IPAexGothic-5206" d="M 3031 2431 
Q 2916 1378 2528 759 
Q 1991 -81 941 -469 
L 625 -53 
Q 2356 488 2541 2431 
L 1375 2431 
L 1375 2772 
Q 1044 2431 653 2156 
L 313 2534 
Q 1600 3425 2219 5056 
L 2688 4875 
Q 2200 3672 1453 2847 
L 4966 2847 
Q 4878 559 4741 94 
Q 4666 -163 4459 -250 
Q 4288 -322 3941 -322 
Q 3525 -322 2981 -263 
L 2884 256 
Q 3441 138 3844 138 
Q 4213 138 4281 438 
Q 4388 931 4472 2431 
L 3031 2431 
z
M 5747 2303 
Q 4416 3238 3506 4934 
L 3934 5113 
Q 4747 3572 6084 2747 
L 5747 2303 
z
" transform="scale(0.015625)"/>
      <path id="IPAexGothic-6790" d="M 1363 2669 
L 1350 2625 
Q 1066 1647 550 781 
L 263 1256 
Q 953 2256 1300 3541 
L 397 3541 
L 397 3956 
L 1363 3956 
L 1363 5300 
L 1803 5300 
L 1803 3956 
L 2700 3956 
L 2700 3541 
L 1803 3541 
L 1803 2931 
Q 2375 2453 2788 1991 
L 2519 1531 
Q 2156 2053 1803 2434 
L 1803 -447 
L 1363 -447 
L 1363 2669 
z
M 3016 4634 
L 3156 4647 
Q 4450 4763 5319 5075 
L 5709 4678 
Q 4731 4363 3469 4256 
L 3469 3213 
L 6088 3213 
L 6088 2797 
L 5134 2797 
L 5134 -441 
L 4681 -441 
L 4681 2797 
L 3469 2797 
Q 3469 1600 3347 972 
Q 3184 100 2663 -525 
L 2331 -225 
Q 2850 488 2953 1325 
Q 3016 1772 3016 2584 
L 3016 4634 
z
" transform="scale(0.015625)"/>
      <path id="IPAexGothic-304c" d="M 659 3384 
Q 1434 3503 2113 3581 
Q 2313 4341 2394 4972 
L 2900 4875 
Q 2759 4147 2619 3628 
L 2719 3634 
Q 2894 3641 3041 3641 
Q 4072 3641 4072 2369 
Q 4072 1128 3700 384 
Q 3478 -56 3003 -56 
Q 2591 -56 2113 231 
L 2138 775 
Q 2631 444 2925 444 
Q 3169 444 3297 706 
Q 3566 1294 3566 2388 
Q 3566 3219 3016 3219 
Q 2825 3219 2497 3194 
Q 2388 2763 2113 2047 
Q 1634 797 1119 -38 
L 678 244 
Q 1356 1238 1863 2750 
Q 1888 2819 1991 3128 
Q 1594 3081 769 2916 
L 659 3384 
z
M 5441 1838 
Q 4913 3038 4091 3916 
L 4475 4184 
Q 5350 3269 5888 2156 
L 5441 1838 
z
M 5913 4275 
Q 5553 4819 5159 5147 
L 5459 5375 
Q 5844 5066 6234 4550 
L 5913 4275 
z
M 5344 3788 
Q 5053 4278 4609 4678 
L 4922 4922 
Q 5294 4613 5678 4063 
L 5344 3788 
z
" transform="scale(0.015625)"/>
      <path id="IPAexGothic-3069" d="M 5222 56 
Q 4200 -72 3450 -72 
Q 2478 -72 1941 113 
Q 1184 372 1184 1038 
Q 1184 1584 1594 2009 
Q 1941 2369 2656 2725 
Q 2231 3734 1972 4878 
L 2491 4978 
Q 2706 3884 3078 2950 
Q 4250 3447 4756 3616 
L 4978 3150 
Q 3181 2575 2409 2078 
Q 1691 1613 1691 1113 
Q 1691 403 3322 403 
Q 4125 403 5134 563 
L 5222 56 
z
M 5778 4153 
Q 5419 4697 5025 5025 
L 5325 5253 
Q 5709 4944 6100 4428 
L 5778 4153 
z
M 5184 3688 
Q 4894 4175 4447 4575 
L 4763 4819 
Q 5134 4513 5516 3963 
L 5184 3688 
z
" transform="scale(0.015625)"/>
      <path id="IPAexGothic-3046" d="M 3897 4025 
Q 3203 4456 2144 4728 
L 2381 5166 
Q 3353 4928 4166 4481 
L 3897 4025 
z
M 1172 3050 
Q 2872 3628 3566 3628 
Q 4269 3628 4603 3181 
Q 4847 2850 4847 2253 
Q 4847 372 2619 -275 
L 2278 159 
Q 3356 397 3881 994 
Q 4328 1503 4328 2228 
Q 4328 3181 3534 3181 
Q 2909 3181 1397 2553 
L 1172 3050 
z
" transform="scale(0.015625)"/>
      <path id="IPAexGothic-3084" d="M 525 2728 
Q 1247 2991 1813 3181 
Q 1419 4091 1247 4456 
L 1709 4641 
Q 1916 4206 2278 3341 
Q 3872 3866 4488 3866 
Q 5031 3866 5372 3628 
Q 5794 3350 5794 2822 
Q 5794 1616 3653 1491 
L 3463 1941 
Q 5294 2006 5294 2822 
Q 5294 3463 4444 3463 
Q 3906 3463 2438 2950 
Q 3056 1413 3528 -141 
L 3047 -306 
Q 2578 1281 1978 2784 
Q 1428 2578 722 2284 
L 525 2728 
z
M 3675 4013 
Q 3197 4472 2619 4794 
L 2925 5125 
Q 3541 4809 4013 4384 
L 3675 4013 
z
" transform="scale(0.015625)"/>
      <path id="IPAexGothic-3063" d="M 1113 2656 
Q 2778 3103 3709 3103 
Q 4359 3103 4734 2778 
Q 5150 2409 5150 1803 
Q 5150 247 2456 25 
L 2231 494 
Q 3425 541 4028 878 
Q 4663 1231 4663 1806 
Q 4663 2681 3647 2681 
Q 2834 2681 1319 2203 
L 1113 2656 
z
" transform="scale(0.015625)"/>
      <path id="IPAexGothic-3066" d="M 581 4034 
Q 2978 4363 5466 4556 
L 5509 4097 
Q 4388 4031 3750 3572 
Q 2797 2878 2797 1913 
Q 2797 1169 3291 819 
Q 3778 484 4869 416 
L 4906 -116 
Q 2278 0 2278 1850 
Q 2278 3125 3691 4000 
Q 2066 3784 684 3553 
L 581 4034 
z
" transform="scale(0.015625)"/>
      <path id="IPAexGothic-304d" d="M 2944 1600 
Q 2369 1600 2053 1428 
Q 1772 1275 1772 1019 
Q 1772 666 2200 481 
Q 2600 309 3903 309 
Q 4138 309 4397 331 
L 4422 -147 
Q 4203 -166 3969 -166 
Q 2325 -166 1819 141 
Q 1313 444 1313 994 
Q 1313 1447 1791 1738 
Q 2219 1997 2859 1997 
Q 3319 1997 3606 1947 
Q 3894 1894 4216 1759 
Q 3953 2050 3506 2791 
Q 2263 2547 1191 2491 
L 1094 2956 
Q 2263 2966 3281 3175 
Q 3019 3647 2950 3794 
Q 2125 3641 1253 3622 
L 1166 4063 
Q 2013 4063 2750 4184 
Q 2478 4744 2381 4984 
L 2841 5131 
Q 2925 4916 3213 4281 
Q 3888 4438 4459 4709 
L 4672 4313 
Q 4119 4056 3409 3891 
Q 3638 3447 3738 3284 
Q 4528 3503 5113 3794 
L 5331 3366 
Q 4738 3094 3953 2900 
Q 4272 2366 4903 1484 
L 4575 1147 
Q 3888 1600 2944 1600 
z
" transform="scale(0.015625)"/>
      <path id="IPAexGothic-308b" d="M 4391 4397 
L 2613 2588 
Q 3225 2809 3759 2809 
Q 4263 2809 4659 2625 
Q 5391 2269 5391 1484 
Q 5391 756 4706 275 
Q 4072 -166 3053 -166 
Q 2559 -166 2247 19 
Q 1863 250 1863 666 
Q 1863 934 2069 1141 
Q 2331 1403 2741 1403 
Q 3509 1403 4019 428 
Q 4872 784 4872 1491 
Q 4872 1981 4469 2222 
Q 4166 2406 3681 2406 
Q 2425 2406 1238 1209 
L 891 1581 
Q 2438 2934 3578 4281 
Q 2594 4125 1588 4066 
L 1478 4550 
Q 2594 4581 4109 4763 
L 4391 4397 
z
M 3591 303 
Q 3244 1025 2731 1025 
Q 2553 1025 2434 934 
Q 2316 844 2316 700 
Q 2316 250 3034 250 
Q 3275 250 3591 303 
z
" transform="scale(0.015625)"/>
      <path id="IPAexGothic-304b" d="M 659 3384 
Q 1434 3503 2113 3581 
Q 2313 4341 2394 4972 
L 2900 4875 
Q 2759 4147 2619 3628 
L 2719 3634 
Q 2894 3641 3041 3641 
Q 4072 3641 4072 2369 
Q 4072 1128 3700 384 
Q 3478 -56 3003 -56 
Q 2591 -56 2113 231 
L 2138 775 
Q 2631 444 2925 444 
Q 3169 444 3297 706 
Q 3566 1294 3566 2388 
Q 3566 3219 3016 3219 
Q 2825 3219 2497 3194 
Q 2388 2763 2113 2047 
Q 1634 797 1119 -38 
L 678 244 
Q 1356 1238 1863 2750 
Q 1888 2819 1991 3128 
Q 1594 3081 769 2916 
L 659 3384 
z
M 5644 1753 
Q 5072 3025 4238 3916 
L 4641 4184 
Q 5494 3275 6081 2094 
L 5644 1753 
z
" transform="scale(0.015625)"/>
      <path id="IPAexGothic-3001" d="M 1325 -409 
Q 859 319 281 856 
L 691 1209 
Q 1225 734 1772 -25 
L 1325 -409 
z
" transform="scale(0.015625)"/>
     </defs>
     <use xlink:href="#IPAexGothic-300c"/>
     <use xlink:href="#IPAexGothic-50" x="100"/>
     <use xlink:href="#IPAexGothic-79" x="162.109375"/>
     <use xlink:href="#IPAexGothic-74" x="211.328125"/>
     <use xlink:href="#IPAexGothic-68" x="245.947266"/>
     <use xlink:href="#IPAexGothic-6f" x="306.640625"/>
     <use xlink:href="#IPAexGothic-6e" x="367.041016"/>
     <use xlink:href="#IPAexGothic-3067" x="427.441406"/>
     <use xlink:href="#IPAexGothic-30c7" x="527.441406"/>
     <use xlink:href="#IPAexGothic-30fc" x="627.441406"/>
     <use xlink:href="#IPAexGothic-30bf" x="727.441406"/>
     <use xlink:href="#IPAexGothic-5206" x="827.441406"/>
     <use xlink:href="#IPAexGothic-6790" x="927.441406"/>
     <use xlink:href="#IPAexGothic-304c" x="1027.441406"/>
     <use xlink:href="#IPAexGothic-3069" x="1127.441406"/>
     <use xlink:href="#IPAexGothic-3046" x="1227.441406"/>
     <use xlink:href="#IPAexGothic-3084" x="1327.441406"/>
     <use xlink:href="#IPAexGothic-3063" x="1427.441406"/>
     <use xlink:href="#IPAexGothic-3066" x="1527.441406"/>
     <use xlink:href="#IPAexGothic-3067" x="1627.441406"/>
     <use xlink:href="#IPAexGothic-304d" x="1727.441406"/>
     <use xlink:href="#IPAexGothic-308b" x="1827.441406"/>
     <use xlink:href="#IPAexGothic-306e" x="1927.441406"/>
     <use xlink:href="#IPAexGothic-304b" x="2027.441406"/>
     <use xlink:href="#IPAexGothic-3001" x="2127.441406"/>
    </g>
   </g>
   <g id="text_4">
    <!-- データサイエンティストとして こういうことができる という実務イメージを持つ」 -->
    <g style="fill: #1a5276" transform="translate(41.04 106.003601) scale(0.125 -0.125)">
     <defs>
      <path id="IPAexGothic-30b5" d="M 3994 4919 
L 4506 4919 
L 4506 3531 
L 5888 3531 
L 5888 3072 
L 4506 3072 
Q 4488 1719 4153 1063 
Q 3728 222 2644 -325 
L 2266 38 
Q 3325 525 3713 1319 
Q 3975 1853 3994 3072 
L 2331 3072 
L 2331 1575 
L 1819 1575 
L 1819 3072 
L 513 3072 
L 513 3531 
L 1819 3531 
L 1819 4797 
L 2331 4797 
L 2331 3531 
L 3994 3531 
L 3994 4919 
z
" transform="scale(0.015625)"/>
      <path id="IPAexGothic-30a4" d="M 3131 -231 
L 3131 2875 
Q 2091 2088 1106 1656 
L 781 2059 
Q 3016 3000 4469 4916 
L 4916 4641 
Q 4384 3938 3675 3316 
L 3675 -231 
L 3131 -231 
z
" transform="scale(0.015625)"/>
      <path id="IPAexGothic-30a3" d="M 3034 -231 
L 3034 2188 
Q 2344 1656 1516 1294 
L 1191 1672 
Q 2981 2431 4128 3922 
L 4519 3634 
Q 4138 3122 3534 2597 
L 3534 -231 
L 3034 -231 
z
" transform="scale(0.015625)"/>
      <path id="IPAexGothic-30b9" d="M 4359 4481 
L 4716 4147 
Q 4328 3072 3647 2150 
Q 4659 1434 5659 453 
L 5234 19 
Q 4256 1088 3353 1778 
Q 2372 597 1044 -31 
L 653 403 
Q 3128 1453 4097 4000 
L 1241 3963 
L 1228 4453 
L 4359 4481 
z
" transform="scale(0.015625)"/>
      <path id="IPAexGothic-30c8" d="M 2284 4997 
L 2803 4997 
L 2803 3206 
Q 4088 2619 5216 1888 
L 4878 1369 
Q 3819 2175 2803 2688 
L 2803 -184 
L 2284 -184 
L 2284 4997 
z
" transform="scale(0.015625)"/>
      <path id="IPAexGothic-3068" d="M 5222 56 
Q 4200 -72 3450 -72 
Q 2478 -72 1941 113 
Q 1184 372 1184 1038 
Q 1184 1584 1594 2009 
Q 1941 2369 2656 2725 
Q 2231 3734 1972 4878 
L 2491 4978 
Q 2706 3884 3078 2950 
Q 4250 3447 4756 3616 
L 4978 3150 
Q 3181 2575 2409 2078 
Q 1691 1613 1691 1113 
Q 1691 403 3322 403 
Q 4125 403 5134 563 
L 5222 56 
z
" transform="scale(0.015625)"/>
      <path id="IPAexGothic-3057" d="M 1750 4884 
L 2281 4884 
L 2238 1319 
Q 2228 809 2391 569 
Q 2594 281 3128 281 
Q 3772 281 4344 744 
Q 4822 1131 5156 1759 
L 5534 1369 
Q 5094 653 4534 263 
Q 3878 -206 3134 -206 
Q 2341 -206 1994 213 
Q 1697 575 1706 1269 
L 1750 4884 
z
" transform="scale(0.015625)"/>
      <path id="IPAexGothic-20" transform="scale(0.015625)"/>
      <path id="IPAexGothic-3053" d="M 1647 4422 
Q 2400 4363 3003 4363 
Q 3803 4363 4653 4459 
L 4763 4031 
Q 4319 3906 3788 3588 
Q 3347 3322 2978 2994 
L 2619 3272 
Q 3150 3666 3609 3950 
Q 3097 3909 2619 3909 
Q 2091 3909 1666 3956 
L 1647 4422 
z
M 5244 191 
Q 4363 13 3303 13 
Q 2316 13 1716 344 
Q 1159 653 1159 1197 
Q 1159 1738 1659 2247 
L 2044 2003 
Q 1647 1644 1647 1263 
Q 1647 500 3291 500 
Q 4288 500 5191 722 
L 5244 191 
z
" transform="scale(0.015625)"/>
      <path id="IPAexGothic-3044" d="M 3369 1447 
Q 2906 122 2278 122 
Q 1966 122 1647 481 
Q 1209 966 1044 1966 
Q 891 2888 891 4313 
L 1422 4313 
Q 1413 2444 1666 1550 
Q 1913 678 2278 678 
Q 2619 678 2925 1791 
L 3369 1447 
z
M 5378 1294 
Q 4928 2797 4034 3809 
L 4488 4031 
Q 5375 3000 5881 1563 
L 5378 1294 
z
" transform="scale(0.015625)"/>
      <path id="IPAexGothic-5b9f" d="M 3525 1275 
Q 4288 350 6022 91 
L 5738 -375 
Q 3953 -41 3219 1050 
Q 2731 -144 728 -472 
L 466 -44 
Q 2422 150 2872 1275 
L 384 1275 
L 384 1659 
L 2950 1659 
L 2950 2144 
L 966 2144 
L 966 2509 
L 2950 2509 
L 2950 2969 
L 1266 2969 
L 1266 3341 
L 2950 3341 
L 2950 3988 
L 3403 3988 
L 3403 3341 
L 5125 3341 
L 5125 2969 
L 3403 2969 
L 3403 2509 
L 5444 2509 
L 5444 2144 
L 3403 2144 
L 3403 1659 
L 6016 1659 
L 6016 1275 
L 3525 1275 
z
M 3413 4544 
L 5778 4544 
L 5778 3269 
L 5309 3269 
L 5309 4147 
L 1084 4147 
L 1084 3269 
L 616 3269 
L 616 4544 
L 2938 4544 
L 2938 5313 
L 3413 5313 
L 3413 4544 
z
" transform="scale(0.015625)"/>
      <path id="IPAexGothic-52d9" d="M 4500 1497 
Q 4394 150 2881 -475 
L 2569 -103 
Q 3894 350 4066 1466 
L 2888 1466 
L 2888 1856 
L 4084 1856 
L 4084 2522 
L 4513 2522 
L 4513 1881 
L 5806 1881 
Q 5788 431 5666 13 
Q 5559 -359 5069 -359 
Q 4772 -359 4353 -313 
L 4281 141 
Q 4597 56 4947 56 
Q 5225 56 5275 325 
Q 5347 653 5378 1497 
L 4500 1497 
z
M 4200 3206 
Q 3825 3531 3584 3891 
Q 3381 3553 3125 3269 
L 2841 3578 
Q 3497 4338 3725 5319 
L 4134 5209 
Q 4050 4903 3963 4666 
L 5928 4666 
L 5928 4281 
L 5434 4281 
Q 5256 3725 4819 3231 
Q 5353 2906 6100 2725 
L 5856 2347 
Q 5078 2616 4531 2963 
Q 3975 2506 3144 2241 
L 2913 2597 
Q 3722 2828 4200 3206 
z
M 4481 3469 
Q 4838 3866 5000 4281 
L 3797 4281 
L 3788 4263 
L 3775 4244 
Q 4056 3806 4481 3469 
z
M 1503 1856 
Q 1119 972 491 366 
L 256 750 
Q 1081 1516 1453 2559 
L 378 2559 
L 378 2950 
L 2719 2950 
L 2922 2759 
Q 2741 2003 2456 1428 
L 2091 1619 
Q 2294 2041 2456 2559 
L 1919 2559 
L 1919 -13 
Q 1919 -459 1425 -459 
Q 1178 -459 831 -403 
L 772 38 
Q 1069 -38 1303 -38 
Q 1503 -38 1503 191 
L 1503 1856 
z
M 1856 3638 
Q 1928 3559 2150 3284 
L 1806 3003 
Q 1397 3597 884 4034 
L 1197 4263 
Q 1400 4100 1600 3900 
Q 2013 4281 2278 4628 
L 563 4628 
L 563 5019 
L 2663 5019 
L 2906 4763 
Q 2463 4184 1856 3638 
z
" transform="scale(0.015625)"/>
      <path id="IPAexGothic-30e1" d="M 2041 3641 
Q 2678 3259 3359 2747 
Q 3906 3678 4281 4819 
L 4784 4609 
Q 4347 3384 3756 2425 
Q 4225 2031 4925 1369 
L 4544 972 
Q 4031 1519 3475 1997 
Q 2522 650 1259 -172 
L 863 206 
Q 2197 1006 3091 2328 
Q 2456 2844 1700 3263 
L 2041 3641 
z
" transform="scale(0.015625)"/>
      <path id="IPAexGothic-30b8" d="M 2759 3481 
Q 2150 4006 1544 4309 
L 1844 4731 
Q 2434 4441 3100 3931 
L 2759 3481 
z
M 1094 447 
Q 3875 1041 5269 3475 
L 5619 3078 
Q 4228 650 1416 -50 
L 1094 447 
z
M 2003 2228 
Q 1397 2747 763 3059 
L 1063 3488 
Q 1738 3159 2338 2675 
L 2003 2228 
z
M 5594 4219 
Q 5234 4759 4841 5088 
L 5141 5319 
Q 5525 5009 5916 4494 
L 5594 4219 
z
M 5000 3750 
Q 4709 4241 4263 4641 
L 4578 4884 
Q 4947 4575 5331 4025 
L 5000 3750 
z
" transform="scale(0.015625)"/>
      <path id="IPAexGothic-3092" d="M 1094 4263 
Q 1544 4222 2359 4222 
Q 2581 4734 2700 5163 
L 3175 5028 
Q 2997 4538 2859 4256 
Q 3516 4284 4294 4459 
L 4356 4019 
Q 3603 3869 2656 3819 
Q 2391 3284 2059 2797 
Q 2531 3200 2963 3200 
Q 3638 3200 3859 2378 
Q 4556 2681 5338 2950 
L 5575 2528 
Q 4641 2253 3941 1956 
Q 3981 1678 3994 1028 
L 3513 991 
Q 3513 1456 3494 1753 
Q 2388 1194 2388 716 
Q 2388 428 2753 328 
Q 3066 241 3806 241 
Q 4394 241 5178 344 
L 5216 -128 
Q 4434 -213 3653 -213 
Q 2656 -213 2244 41 
Q 1913 244 1913 631 
Q 1913 1094 2344 1497 
Q 2709 1841 3428 2181 
Q 3266 2797 2878 2797 
Q 2238 2797 1209 1419 
L 838 1694 
Q 1625 2716 2163 3800 
Q 1522 3800 1088 3825 
L 1094 4263 
z
" transform="scale(0.015625)"/>
      <path id="IPAexGothic-6301" d="M 5106 2803 
L 5106 2047 
L 5931 2047 
L 5931 1650 
L 5119 1650 
L 5119 78 
Q 5119 -219 4972 -325 
Q 4863 -409 4550 -409 
Q 4138 -409 3769 -378 
L 3700 91 
Q 4072 25 4466 25 
Q 4666 25 4666 231 
L 4666 1650 
L 2431 1650 
L 2431 2047 
L 4653 2047 
L 4653 2803 
L 2316 2803 
L 2316 3200 
L 3847 3200 
L 3847 3981 
L 2625 3981 
L 2625 4372 
L 3847 4372 
L 3847 5313 
L 4294 5313 
L 4294 4372 
L 5706 4372 
L 5706 3981 
L 4294 3981 
L 4294 3200 
L 6066 3200 
L 6066 2803 
L 5106 2803 
z
M 1303 4006 
L 1303 5313 
L 1744 5313 
L 1744 4006 
L 2494 4006 
L 2494 3591 
L 1744 3591 
L 1744 2388 
Q 1788 2400 2500 2613 
L 2538 2234 
Q 2025 2053 1744 1972 
L 1744 -13 
Q 1744 -291 1609 -378 
Q 1500 -447 1219 -447 
Q 959 -447 606 -416 
L 522 56 
Q 859 0 1109 0 
Q 1303 0 1303 191 
L 1303 1831 
Q 941 1722 472 1606 
L 325 2047 
Q 734 2125 1238 2253 
L 1303 2272 
L 1303 3591 
L 406 3591 
L 406 4006 
L 1303 4006 
z
M 3563 366 
Q 3209 934 2816 1319 
L 3172 1569 
Q 3594 1175 3934 653 
L 3563 366 
z
" transform="scale(0.015625)"/>
      <path id="IPAexGothic-3064" d="M 575 3541 
Q 2694 4116 3769 4116 
Q 4506 4116 4978 3750 
Q 5559 3303 5559 2497 
Q 5559 1481 4606 903 
Q 3750 388 2213 281 
L 1963 781 
Q 5022 916 5022 2497 
Q 5022 3053 4663 3375 
Q 4331 3669 3734 3669 
Q 2663 3669 800 3041 
L 575 3541 
z
" transform="scale(0.015625)"/>
      <path id="IPAexGothic-300d" d="M 1819 4209 
L 2266 4209 
L 2266 -434 
L 525 -434 
L 525 13 
L 1819 13 
L 1819 4209 
z
" transform="scale(0.015625)"/>
     </defs>
     <use xlink:href="#IPAexGothic-30c7"/>
     <use xlink:href="#IPAexGothic-30fc" x="100"/>
     <use xlink:href="#IPAexGothic-30bf" x="200"/>
     <use xlink:href="#IPAexGothic-30b5" x="300"/>
     <use xlink:href="#IPAexGothic-30a4" x="400"/>
     <use xlink:href="#IPAexGothic-30a8" x="500"/>
     <use xlink:href="#IPAexGothic-30f3" x="600"/>
     <use xlink:href="#IPAexGothic-30c6" x="700"/>
     <use xlink:href="#IPAexGothic-30a3" x="800"/>
     <use xlink:href="#IPAexGothic-30b9" x="900"/>
     <use xlink:href="#IPAexGothic-30c8" x="1000"/>
     <use xlink:href="#IPAexGothic-3068" x="1100"/>
     <use xlink:href="#IPAexGothic-3057" x="1200"/>
     <use xlink:href="#IPAexGothic-3066" x="1300"/>
     <use xlink:href="#IPAexGothic-20" x="1400"/>
     <use xlink:href="#IPAexGothic-3053" x="1427.001953"/>
     <use xlink:href="#IPAexGothic-3046" x="1527.001953"/>
     <use xlink:href="#IPAexGothic-3044" x="1627.001953"/>
     <use xlink:href="#IPAexGothic-3046" x="1727.001953"/>
     <use xlink:href="#IPAexGothic-3053" x="1827.001953"/>
     <use xlink:href="#IPAexGothic-3068" x="1927.001953"/>
     <use xlink:href="#IPAexGothic-304c" x="2027.001953"/>
     <use xlink:href="#IPAexGothic-3067" x="2127.001953"/>
     <use xlink:href="#IPAexGothic-304d" x="2227.001953"/>
     <use xlink:href="#IPAexGothic-308b" x="2327.001953"/>
     <use xlink:href="#IPAexGothic-20" x="2427.001953"/>
     <use xlink:href="#IPAexGothic-3068" x="2454.003906"/>
     <use xlink:href="#IPAexGothic-3044" x="2554.003906"/>
     <use xlink:href="#IPAexGothic-3046" x="2654.003906"/>
     <use xlink:href="#IPAexGothic-5b9f" x="2754.003906"/>
     <use xlink:href="#IPAexGothic-52d9" x="2854.003906"/>
     <use xlink:href="#IPAexGothic-30a4" x="2954.003906"/>
     <use xlink:href="#IPAexGothic-30e1" x="3054.003906"/>
     <use xlink:href="#IPAexGothic-30fc" x="3154.003906"/>
     <use xlink:href="#IPAexGothic-30b8" x="3254.003906"/>
     <use xlink:href="#IPAexGothic-3092" x="3354.003906"/>
     <use xlink:href="#IPAexGothic-6301" x="3454.003906"/>
     <use xlink:href="#IPAexGothic-3064" x="3554.003906"/>
     <use xlink:href="#IPAexGothic-300d" x="3654.003906"/>
    </g>
   </g>
   <g id="text_5">
    <!-- ✅ -->
    <g style="fill: #2c3e50" transform="translate(33.12 126.835) scale(0.095 -0.095)">
     <defs>
      <path id="IPAexGothic-2705" d="M 5759 -641 
L 641 -641 
L 641 5503 
L 5759 5503 
L 5759 -641 
z
M 5216 5172 
L 1191 5172 
L 3206 2694 
L 5216 5172 
z
M 5428 -53 
L 5428 4903 
L 3419 2425 
L 5428 -53 
z
M 2988 2425 
L 972 4916 
L 972 -59 
L 2988 2425 
z
M 5209 -309 
L 3206 2163 
L 1197 -309 
L 5209 -309 
z
" transform="scale(0.015625)"/>
     </defs>
     <use xlink:href="#IPAexGothic-2705"/>
    </g>
   </g>
   <g id="text_6">
    <!-- データを読み込んで集計できる -->
    <g style="fill: #2c3e50" transform="translate(46.08 128.64125) scale(0.14 -0.14)">
     <defs>
      <path id="IPAexGothic-8aad" d="M 2284 1684 
L 2284 -128 
L 919 -128 
L 919 -447 
L 509 -447 
L 509 1684 
L 2284 1684 
z
M 919 1313 
L 919 244 
L 1875 244 
L 1875 1313 
L 919 1313 
z
M 3953 4538 
L 3953 5313 
L 4394 5313 
L 4394 4538 
L 5994 4538 
L 5994 4153 
L 4394 4153 
L 4394 3572 
L 5822 3572 
L 5822 3194 
L 2653 3194 
L 2653 3572 
L 3953 3572 
L 3953 4153 
L 2506 4153 
L 2506 4538 
L 3953 4538 
z
M 5950 2725 
L 5950 1559 
L 5522 1559 
L 5522 2341 
L 2928 2341 
L 2928 1516 
L 2500 1516 
L 2500 2725 
L 5950 2725 
z
M 600 5044 
L 2194 5044 
L 2194 4659 
L 600 4659 
L 600 5044 
z
M 331 4206 
L 2384 4206 
L 2384 3816 
L 331 3816 
L 331 4206 
z
M 600 3359 
L 2194 3359 
L 2194 2975 
L 600 2975 
L 600 3359 
z
M 600 2522 
L 2194 2522 
L 2194 2138 
L 600 2138 
L 600 2522 
z
M 2353 -91 
Q 3025 194 3244 647 
Q 3431 1044 3441 2069 
L 3872 2069 
Q 3859 869 3634 441 
Q 3334 -109 2616 -475 
L 2353 -91 
z
M 4428 2069 
L 4856 2069 
L 4856 275 
Q 4856 128 4934 88 
Q 4994 63 5175 63 
Q 5500 63 5547 263 
Q 5584 425 5606 984 
L 6034 856 
Q 5994 153 5931 -38 
Q 5825 -372 5144 -372 
Q 4688 -372 4544 -275 
Q 4428 -191 4428 44 
L 4428 2069 
z
" transform="scale(0.015625)"/>
      <path id="IPAexGothic-307f" d="M 1291 4416 
Q 2209 4456 3341 4647 
L 3666 4409 
Q 3478 3597 3134 2703 
Q 3959 2575 4581 2300 
Q 4669 2759 4678 3488 
L 5163 3381 
Q 5134 2672 5016 2106 
Q 5519 1856 6016 1519 
L 5722 1081 
Q 5184 1459 4888 1613 
Q 4572 441 3456 -238 
L 3072 109 
Q 4150 678 4472 1831 
Q 3706 2200 2969 2284 
Q 2038 200 1319 200 
Q 1013 200 775 525 
Q 569 819 569 1197 
Q 569 1756 1081 2172 
Q 1681 2647 2663 2716 
Q 2900 3313 3084 4159 
Q 2278 4022 1447 3956 
L 1291 4416 
z
M 2481 2291 
Q 1644 2206 1241 1734 
Q 1038 1494 1038 1178 
Q 1038 1019 1100 897 
Q 1188 706 1338 706 
Q 1513 706 1797 1097 
Q 2131 1534 2481 2291 
z
" transform="scale(0.015625)"/>
      <path id="IPAexGothic-8fbc" d="M 4294 4897 
L 4294 4456 
Q 4294 3291 4763 2394 
Q 5206 1531 5938 1019 
L 5613 572 
Q 4391 1628 4044 3156 
Q 3706 1475 2503 544 
L 2169 934 
Q 3650 1928 3834 4403 
L 3841 4481 
L 2566 4481 
L 2566 4897 
L 4294 4897 
z
M 1831 775 
Q 2106 428 2516 284 
Q 2906 150 4197 150 
Q 5228 150 6119 216 
Q 6003 13 5944 -269 
Q 5022 -303 4453 -303 
Q 2925 -303 2425 -131 
Q 1900 44 1600 478 
Q 1144 -56 666 -450 
L 372 38 
Q 825 309 1378 759 
L 1378 2303 
L 397 2303 
L 397 2731 
L 1831 2731 
L 1831 775 
z
M 1625 3616 
Q 1191 4200 634 4703 
L 972 4997 
Q 1456 4616 1984 3969 
L 1625 3616 
z
" transform="scale(0.015625)"/>
      <path id="IPAexGothic-3093" d="M 659 31 
Q 1684 2316 3066 4934 
L 3559 4703 
Q 2781 3375 2156 2100 
Q 2659 2572 3109 2572 
Q 3619 2572 3781 2059 
Q 3863 1803 3872 1147 
Q 3881 328 4313 328 
Q 4928 328 5466 1663 
L 5875 1288 
Q 5175 -178 4300 -178 
Q 3400 -178 3400 1069 
L 3400 1119 
Q 3400 2125 3003 2125 
Q 2153 2125 1128 -178 
L 659 31 
z
" transform="scale(0.015625)"/>
      <path id="IPAexGothic-96c6" d="M 3000 4634 
Q 3197 5047 3275 5338 
L 3775 5216 
Q 3634 4922 3447 4634 
L 5625 4634 
L 5625 4269 
L 3416 4269 
L 3416 3884 
L 5291 3884 
L 5291 3553 
L 3416 3553 
L 3416 3175 
L 5291 3175 
L 5291 2844 
L 3416 2844 
L 3416 2431 
L 5759 2431 
L 5759 2066 
L 3403 2066 
L 3403 1659 
L 5981 1659 
L 5981 1281 
L 3741 1281 
Q 4628 538 6078 141 
L 5759 -275 
Q 4266 222 3403 1122 
L 3403 -447 
L 2950 -447 
L 2950 1091 
Q 2094 69 600 -409 
L 294 -25 
Q 1778 388 2644 1281 
L 416 1281 
L 416 1659 
L 2950 1659 
L 2950 2066 
L 1222 2066 
L 1222 3744 
Q 894 3322 600 3066 
L 306 3375 
Q 1209 4163 1625 5338 
L 2091 5244 
Q 1950 4909 1797 4634 
L 3000 4634 
z
M 1663 4269 
L 1663 3884 
L 3000 3884 
L 3000 4269 
L 1663 4269 
z
M 1663 3553 
L 1663 3175 
L 3000 3175 
L 3000 3553 
L 1663 3553 
z
M 1663 2844 
L 1663 2431 
L 3000 2431 
L 3000 2844 
L 1663 2844 
z
" transform="scale(0.015625)"/>
      <path id="IPAexGothic-8a08" d="M 2853 1684 
L 2853 -416 
L 2413 -416 
L 2413 -128 
L 1088 -128 
L 1088 -447 
L 647 -447 
L 647 1684 
L 2853 1684 
z
M 1088 1300 
L 1088 256 
L 2413 256 
L 2413 1300 
L 1088 1300 
z
M 4322 3225 
L 4322 5178 
L 4781 5178 
L 4781 3225 
L 6063 3225 
L 6063 2797 
L 4781 2797 
L 4781 -447 
L 4322 -447 
L 4322 2797 
L 3063 2797 
L 3063 3225 
L 4322 3225 
z
M 781 5044 
L 2722 5044 
L 2722 4647 
L 781 4647 
L 781 5044 
z
M 384 4206 
L 3150 4206 
L 3150 3803 
L 384 3803 
L 384 4206 
z
M 781 3359 
L 2722 3359 
L 2722 2963 
L 781 2963 
L 781 3359 
z
M 781 2522 
L 2722 2522 
L 2722 2125 
L 781 2125 
L 781 2522 
z
" transform="scale(0.015625)"/>
     </defs>
     <use xlink:href="#IPAexGothic-30c7"/>
     <use xlink:href="#IPAexGothic-30fc" x="100"/>
     <use xlink:href="#IPAexGothic-30bf" x="200"/>
     <use xlink:href="#IPAexGothic-3092" x="300"/>
     <use xlink:href="#IPAexGothic-8aad" x="400"/>
     <use xlink:href="#IPAexGothic-307f" x="500"/>
     <use xlink:href="#IPAexGothic-8fbc" x="600"/>
     <use xlink:href="#IPAexGothic-3093" x="700"/>
     <use xlink:href="#IPAexGothic-3067" x="800"/>
     <use xlink:href="#IPAexGothic-96c6" x="900"/>
     <use xlink:href="#IPAexGothic-8a08" x="1000"/>
     <use xlink:href="#IPAexGothic-3067" x="1100"/>
     <use xlink:href="#IPAexGothic-304d" x="1200"/>
     <use xlink:href="#IPAexGothic-308b" x="1300"/>
    </g>
   </g>
   <g id="text_7">
    <!-- ✅ -->
    <g style="fill: #2c3e50" transform="translate(33.12 148.435) scale(0.095 -0.095)">
     <use xlink:href="#IPAexGothic-2705"/>
    </g>
   </g>
   <g id="text_8">
    <!-- グラフでデータの傾向を確認できる -->
    <g style="fill: #2c3e50" transform="translate(46.08 150.309062) scale(0.14 -0.14)">
     <defs>
      <path id="IPAexGothic-30b0" d="M 4769 4128 
L 5106 3878 
Q 4728 2272 3866 1238 
Q 3106 328 1863 -288 
L 1491 122 
Q 2709 628 3475 1563 
Q 4238 2491 4525 3669 
L 2738 3669 
Q 2022 2591 1191 1897 
L 813 2247 
Q 2163 3338 2766 4959 
L 3256 4819 
Q 3197 4609 2975 4128 
L 4769 4128 
z
M 6009 4422 
Q 5647 4966 5253 5294 
L 5556 5522 
Q 5941 5213 6328 4697 
L 6009 4422 
z
M 5416 3956 
Q 5125 4447 4678 4844 
L 4991 5088 
Q 5363 4781 5747 4231 
L 5416 3956 
z
" transform="scale(0.015625)"/>
      <path id="IPAexGothic-30e9" d="M 1447 4709 
L 4922 4709 
L 4922 4234 
L 1447 4234 
L 1447 4709 
z
M 897 3303 
L 5172 3303 
L 5478 3013 
Q 5069 1669 4219 875 
Q 3475 181 2306 -181 
L 1972 294 
Q 4150 784 4834 2828 
L 897 2828 
L 897 3303 
z
" transform="scale(0.015625)"/>
      <path id="IPAexGothic-30d5" d="M 4966 4294 
L 5263 4019 
Q 4819 894 1966 -97 
L 1600 353 
Q 4234 1156 4684 3822 
L 1044 3756 
L 1044 4244 
L 4966 4294 
z
" transform="scale(0.015625)"/>
      <path id="IPAexGothic-50be" d="M 4653 4025 
L 5741 4025 
L 5741 794 
L 3509 794 
L 3509 4025 
L 4263 4025 
L 4291 4122 
Q 4344 4366 4391 4659 
L 3100 4659 
L 3100 5056 
L 6047 5056 
L 6047 4659 
L 4838 4659 
Q 4831 4603 4800 4506 
Q 4691 4128 4653 4025 
z
M 5331 3653 
L 3913 3653 
L 3913 3078 
L 5331 3078 
L 5331 3653 
z
M 3913 2713 
L 3913 2138 
L 5331 2138 
L 5331 2713 
L 3913 2713 
z
M 3913 1778 
L 3913 1166 
L 5331 1166 
L 5331 1778 
L 3913 1778 
z
M 1400 3725 
L 1400 -447 
L 966 -447 
L 966 2694 
Q 759 2284 478 1863 
L 244 2259 
Q 1028 3500 1388 5306 
L 1816 5203 
Q 1622 4353 1400 3725 
z
M 2291 3059 
Q 2684 3319 3000 3656 
L 3269 3297 
Q 2838 2906 2291 2613 
L 2291 1044 
Q 2291 825 2534 825 
Q 2769 825 2797 1038 
Q 2831 1353 2841 1775 
L 3244 1647 
Q 3234 694 3066 544 
Q 2925 403 2450 403 
Q 2138 403 2009 494 
Q 1881 581 1881 841 
L 1881 4544 
L 2291 4544 
L 2291 3059 
z
M 2975 -191 
Q 3656 200 4097 756 
L 4450 538 
Q 3916 -128 3309 -506 
L 2975 -191 
z
M 5794 -428 
Q 5278 163 4806 525 
L 5134 769 
Q 5613 434 6150 -122 
L 5794 -428 
z
" transform="scale(0.015625)"/>
      <path id="IPAexGothic-5411" d="M 4409 3034 
L 4409 1044 
L 2378 1044 
L 2378 591 
L 1938 591 
L 1938 3034 
L 4409 3034 
z
M 3969 2638 
L 2378 2638 
L 2378 1441 
L 3969 1441 
L 3969 2638 
z
M 2559 4275 
Q 2731 4803 2803 5306 
L 3347 5197 
Q 3200 4681 3028 4275 
L 5709 4275 
L 5709 206 
Q 5709 -128 5538 -241 
Q 5388 -331 5028 -331 
Q 4484 -331 4038 -294 
L 3922 206 
Q 4491 128 4934 128 
Q 5234 128 5234 409 
L 5234 3872 
L 1159 3872 
L 1159 -453 
L 684 -453 
L 684 4275 
L 2559 4275 
z
" transform="scale(0.015625)"/>
      <path id="IPAexGothic-78ba" d="M 4347 3219 
Q 4516 3538 4647 3956 
L 5075 3853 
Q 4875 3431 4750 3219 
L 5888 3219 
L 5888 2847 
L 4700 2847 
L 4700 2222 
L 5741 2222 
L 5741 1869 
L 4700 1869 
L 4700 1250 
L 5741 1250 
L 5741 897 
L 4700 897 
L 4700 231 
L 6034 231 
L 6034 -141 
L 3463 -141 
L 3463 -447 
L 3047 -447 
L 3047 2444 
Q 2756 2019 2484 1703 
L 2284 2100 
Q 3159 3197 3506 4147 
L 2913 4147 
L 2913 3425 
L 2509 3425 
L 2509 4519 
L 3634 4519 
Q 3750 4903 3847 5319 
L 4269 5241 
Q 4175 4834 4072 4519 
L 5934 4519 
L 5934 3425 
L 5525 3425 
L 5525 4147 
L 3938 4147 
Q 3747 3647 3513 3219 
L 4347 3219 
z
M 4297 2847 
L 3463 2847 
L 3463 2222 
L 4297 2222 
L 4297 2847 
z
M 4297 1869 
L 3463 1869 
L 3463 1250 
L 4297 1250 
L 4297 1869 
z
M 4297 897 
L 3463 897 
L 3463 231 
L 4297 231 
L 4297 897 
z
M 1159 2944 
L 2275 2944 
L 2275 197 
L 1213 197 
L 1213 -328 
L 816 -328 
L 816 2206 
Q 650 1903 394 1522 
L 188 1919 
Q 931 3013 1200 4416 
L 406 4416 
L 406 4819 
L 2409 4819 
L 2409 4416 
L 1616 4416 
L 1597 4353 
Q 1456 3663 1159 2944 
z
M 1213 2553 
L 1213 588 
L 1878 588 
L 1878 2553 
L 1213 2553 
z
" transform="scale(0.015625)"/>
      <path id="IPAexGothic-8a8d" d="M 4341 4556 
Q 4309 4069 4219 3694 
Q 4622 3497 4956 3309 
L 4731 2963 
Q 4463 3125 4141 3291 
L 4091 3322 
Q 3756 2566 2959 2088 
L 2663 2419 
Q 3456 2844 3713 3500 
Q 3213 3722 2906 3828 
L 3113 4141 
Q 3381 4050 3828 3866 
Q 3916 4231 3925 4556 
L 2816 4556 
L 2816 4947 
L 5775 4947 
Q 5766 3272 5653 2713 
Q 5606 2459 5453 2369 
Q 5334 2284 5025 2284 
Q 4684 2284 4366 2334 
L 4303 2784 
Q 4644 2713 4928 2713 
Q 5181 2713 5228 2906 
Q 5309 3234 5338 4513 
Q 5338 4544 5338 4556 
L 4341 4556 
z
M 2406 1684 
L 2406 -128 
L 959 -128 
L 959 -447 
L 544 -447 
L 544 1684 
L 2406 1684 
z
M 959 1313 
L 959 244 
L 1984 244 
L 1984 1313 
L 959 1313 
z
M 634 5044 
L 2313 5044 
L 2313 4659 
L 634 4659 
L 634 5044 
z
M 353 4206 
L 2638 4206 
L 2638 3816 
L 353 3816 
L 353 4206 
z
M 634 3359 
L 2313 3359 
L 2313 2975 
L 634 2975 
L 634 3359 
z
M 634 2522 
L 2313 2522 
L 2313 2138 
L 634 2138 
L 634 2522 
z
M 2528 31 
Q 2816 625 2919 1447 
L 3322 1375 
Q 3200 381 2900 -225 
L 2528 31 
z
M 3572 1556 
L 4000 1556 
L 4000 294 
Q 4000 128 4084 100 
Q 4144 75 4300 75 
Q 4728 75 4775 275 
Q 4806 394 4825 738 
L 5253 616 
Q 5206 -44 5081 -188 
Q 4941 -347 4359 -347 
Q 3900 -347 3738 -269 
Q 3572 -191 3572 91 
L 3572 1556 
z
M 5775 -25 
Q 5428 800 5006 1375 
L 5366 1588 
Q 5819 994 6166 244 
L 5775 -25 
z
M 4566 1294 
Q 4106 1772 3656 2075 
L 3938 2350 
Q 4331 2113 4872 1613 
L 4566 1294 
z
" transform="scale(0.015625)"/>
     </defs>
     <use xlink:href="#IPAexGothic-30b0"/>
     <use xlink:href="#IPAexGothic-30e9" x="100"/>
     <use xlink:href="#IPAexGothic-30d5" x="200"/>
     <use xlink:href="#IPAexGothic-3067" x="300"/>
     <use xlink:href="#IPAexGothic-30c7" x="400"/>
     <use xlink:href="#IPAexGothic-30fc" x="500"/>
     <use xlink:href="#IPAexGothic-30bf" x="600"/>
     <use xlink:href="#IPAexGothic-306e" x="700"/>
     <use xlink:href="#IPAexGothic-50be" x="800"/>
     <use xlink:href="#IPAexGothic-5411" x="900"/>
     <use xlink:href="#IPAexGothic-3092" x="1000"/>
     <use xlink:href="#IPAexGothic-78ba" x="1100"/>
     <use xlink:href="#IPAexGothic-8a8d" x="1200"/>
     <use xlink:href="#IPAexGothic-3067" x="1300"/>
     <use xlink:href="#IPAexGothic-304d" x="1400"/>
     <use xlink:href="#IPAexGothic-308b" x="1500"/>
    </g>
   </g>
   <g id="text_9">
    <!-- ✅ -->
    <g style="fill: #2c3e50" transform="translate(33.12 170.035) scale(0.095 -0.095)">
     <use xlink:href="#IPAexGothic-2705"/>
    </g>
   </g>
   <g id="text_10">
    <!-- 画像データが数値の配列だとわかる -->
    <g style="fill: #2c3e50" transform="translate(46.08 171.895937) scale(0.14 -0.14)">
     <defs>
      <path id="IPAexGothic-753b" d="M 2966 3713 
L 2966 4447 
L 353 4447 
L 353 4856 
L 6041 4856 
L 6041 4447 
L 3406 4447 
L 3406 3713 
L 4769 3713 
L 4769 825 
L 1634 825 
L 1634 3713 
L 2966 3713 
z
M 2978 3334 
L 2050 3334 
L 2050 2484 
L 2978 2484 
L 2978 3334 
z
M 3394 3334 
L 3394 2484 
L 4347 2484 
L 4347 3334 
L 3394 3334 
z
M 2978 2119 
L 2050 2119 
L 2050 1197 
L 2978 1197 
L 2978 2119 
z
M 3394 2119 
L 3394 1197 
L 4347 1197 
L 4347 2119 
L 3394 2119 
z
M 1081 300 
L 5316 300 
L 5316 3603 
L 5756 3603 
L 5756 -450 
L 5316 -450 
L 5316 -97 
L 1081 -97 
L 1081 -450 
L 641 -450 
L 641 3603 
L 1081 3603 
L 1081 300 
z
" transform="scale(0.015625)"/>
      <path id="IPAexGothic-50cf" d="M 4000 2688 
L 3828 2688 
Q 3672 2513 3509 2369 
Q 4422 1550 4422 403 
Q 4422 -56 4263 -244 
Q 4119 -416 3744 -416 
Q 3369 -416 3053 -372 
L 2972 97 
Q 3334 -6 3681 -6 
Q 3913 -6 3963 147 
Q 3994 266 3994 453 
Q 3994 738 3919 1063 
Q 3194 234 2159 -238 
L 1859 116 
Q 2959 519 3778 1422 
Q 3716 1534 3638 1663 
Q 2925 953 2025 622 
L 1756 966 
Q 2638 1216 3438 1938 
Q 3350 2044 3247 2150 
Q 2759 1766 2031 1466 
L 1763 1791 
Q 2638 2094 3347 2688 
L 2197 2688 
L 2197 3488 
Q 2041 3344 1866 3200 
L 1641 3563 
Q 2566 4278 3053 5331 
L 3481 5222 
Q 3425 5113 3328 4922 
L 4550 4922 
L 4813 4722 
Q 4534 4325 4231 4013 
L 5619 4013 
L 5619 2688 
L 4384 2688 
Q 4525 2200 4744 1803 
Q 5209 2163 5581 2572 
L 5953 2291 
Q 5516 1872 4928 1491 
Q 5359 828 6059 300 
L 5728 -56 
Q 4450 1019 4000 2688 
z
M 2625 3034 
L 3694 3034 
L 3694 3659 
L 2625 3659 
L 2625 3034 
z
M 2703 4013 
L 3744 4013 
Q 4006 4275 4181 4550 
L 3106 4550 
Q 2903 4253 2703 4013 
z
M 4097 3034 
L 5184 3034 
L 5184 3659 
L 4097 3659 
L 4097 3034 
z
M 1394 3706 
L 1394 -447 
L 966 -447 
L 966 2694 
Q 750 2266 478 1863 
L 244 2259 
Q 1028 3500 1388 5306 
L 1816 5203 
Q 1634 4369 1394 3706 
z
" transform="scale(0.015625)"/>
      <path id="IPAexGothic-6570" d="M 2847 1553 
Q 2741 1006 2425 534 
Q 2625 441 3091 203 
L 2809 -188 
Q 2541 0 2144 209 
Q 1569 -291 703 -500 
L 422 -125 
Q 1263 19 1747 406 
Q 1222 650 734 816 
Q 975 1172 1147 1503 
L 1172 1553 
L 359 1553 
L 359 1925 
L 1344 1925 
Q 1406 2066 1569 2475 
L 1691 2450 
L 1691 3372 
Q 1250 2738 550 2303 
L 275 2663 
Q 1019 3013 1528 3641 
L 378 3641 
L 378 4006 
L 1691 4006 
L 1691 5313 
L 2113 5313 
L 2113 4006 
L 3297 4006 
L 3297 3641 
L 2113 3641 
L 2113 3513 
Q 2659 3291 3175 2963 
L 2956 2584 
Q 2553 2922 2113 3159 
L 2113 2372 
L 1966 2372 
Q 1928 2288 1872 2141 
Q 1806 1975 1784 1925 
L 3378 1925 
L 3378 1553 
L 2847 1553 
z
M 2419 1553 
L 1613 1553 
Q 1478 1269 1313 997 
Q 1559 909 2047 703 
Q 2313 1047 2419 1553 
z
M 4363 1163 
Q 3953 1781 3738 2638 
Q 3575 2281 3428 2016 
L 3103 2406 
Q 3675 3444 3916 5291 
L 4363 5200 
Q 4284 4666 4197 4197 
L 6009 4197 
L 6009 3775 
L 5503 3775 
Q 5397 2275 4869 1191 
Q 5419 503 6144 75 
L 5822 -378 
Q 5188 106 4631 788 
Q 4113 34 3341 -463 
L 3031 -78 
Q 3888 406 4363 1163 
z
M 4588 1594 
Q 4938 2388 5059 3775 
L 4100 3775 
Q 4041 3519 3972 3288 
Q 3981 3250 3991 3194 
Q 4175 2256 4588 1594 
z
M 1003 4116 
Q 878 4544 638 4934 
L 1053 5094 
Q 1247 4788 1438 4269 
L 1003 4116 
z
M 2316 4269 
Q 2550 4688 2688 5131 
L 3128 4997 
Q 2966 4588 2675 4128 
L 2316 4269 
z
" transform="scale(0.015625)"/>
      <path id="IPAexGothic-5024" d="M 4172 3675 
L 5453 3675 
L 5453 684 
L 3019 684 
L 3019 3675 
L 3750 3675 
Q 3788 3884 3825 4153 
L 2141 4153 
L 2141 4544 
L 3884 4544 
Q 3922 4844 3966 5325 
L 4434 5272 
L 4388 4953 
Q 4331 4578 4331 4544 
L 5863 4544 
L 5863 4153 
L 4269 4153 
Q 4200 3781 4172 3675 
z
M 5038 3316 
L 3434 3316 
L 3434 2803 
L 5038 2803 
L 5038 3316 
z
M 3434 2450 
L 3434 1941 
L 5038 1941 
L 5038 2450 
L 3434 2450 
z
M 3434 1588 
L 3434 1044 
L 5038 1044 
L 5038 1588 
L 3434 1588 
z
M 1509 3669 
L 1509 -447 
L 1069 -447 
L 1069 2725 
Q 856 2338 531 1875 
L 288 2266 
Q 1163 3531 1541 5325 
L 1975 5222 
Q 1791 4378 1509 3669 
z
M 2488 244 
L 6031 244 
L 6031 -153 
L 2488 -153 
L 2488 -447 
L 2059 -447 
L 2059 3213 
L 2488 3213 
L 2488 244 
z
" transform="scale(0.015625)"/>
      <path id="IPAexGothic-914d" d="M 1294 3731 
L 1294 4513 
L 372 4513 
L 372 4903 
L 3341 4903 
L 3341 4513 
L 2400 4513 
L 2400 3731 
L 3200 3731 
L 3200 -416 
L 2791 -416 
L 2791 -159 
L 953 -159 
L 953 -447 
L 544 -447 
L 544 3731 
L 1294 3731 
z
M 1672 3731 
L 2028 3731 
L 2028 4513 
L 1672 4513 
L 1672 3731 
z
M 2028 3372 
L 1659 3372 
Q 1659 3316 1659 3291 
Q 1650 2203 1250 1509 
L 966 1794 
Q 1272 2316 1319 3372 
L 953 3372 
L 953 1313 
L 2791 1313 
L 2791 1894 
L 2394 1894 
Q 2028 1894 2028 2247 
L 2028 3372 
z
M 2381 3372 
L 2381 2375 
Q 2381 2234 2522 2234 
L 2791 2234 
L 2791 3372 
L 2381 3372 
z
M 953 941 
L 953 219 
L 2791 219 
L 2791 941 
L 953 941 
z
M 4072 2497 
L 4072 409 
Q 4072 250 4163 197 
Q 4281 134 4756 134 
Q 5334 134 5475 206 
Q 5653 291 5672 1300 
L 6122 1184 
Q 6063 106 5891 -94 
Q 5769 -253 5463 -275 
Q 5172 -300 4725 -300 
Q 4056 -300 3856 -203 
Q 3644 -109 3644 263 
L 3644 2900 
L 5372 2900 
L 5372 4500 
L 3534 4500 
L 3534 4903 
L 5788 4903 
L 5788 2144 
L 5372 2144 
L 5372 2497 
L 4072 2497 
z
" transform="scale(0.015625)"/>
      <path id="IPAexGothic-5217" d="M 2334 1600 
Q 1944 1966 1306 2378 
Q 1038 1938 709 1541 
L 434 1906 
Q 1325 2934 1663 4550 
L 606 4550 
L 606 4953 
L 3781 4953 
L 3781 4550 
L 2097 4550 
Q 2091 4531 2078 4466 
Q 2000 4100 1900 3781 
L 3141 3781 
L 3409 3575 
Q 3156 2138 2656 1247 
Q 2097 269 1003 -500 
L 684 -128 
Q 1769 563 2334 1600 
z
M 2534 2009 
Q 2794 2656 2919 3384 
L 1766 3384 
Q 1638 3034 1478 2706 
Q 2181 2294 2534 2009 
z
M 3956 4416 
L 4409 4416 
L 4409 966 
L 3956 966 
L 3956 4416 
z
M 5306 5056 
L 5759 5056 
L 5759 197 
Q 5759 -138 5569 -263 
Q 5419 -353 5094 -353 
Q 4547 -353 3963 -294 
L 3878 191 
Q 4600 116 5038 116 
Q 5306 116 5306 359 
L 5306 5056 
z
" transform="scale(0.015625)"/>
      <path id="IPAexGothic-3060" d="M 684 3963 
Q 1138 3922 1556 3922 
Q 1800 3922 2106 3944 
Q 2266 4563 2369 5081 
L 2875 4991 
Q 2806 4700 2619 3981 
Q 3209 4050 3656 4159 
L 3688 3688 
Q 3109 3581 2497 3531 
Q 1822 1263 1153 -78 
L 653 141 
Q 1406 1469 1991 3500 
Q 1641 3481 1256 3481 
Q 1109 3481 697 3494 
L 684 3963 
z
M 5753 44 
Q 5053 -44 4597 -44 
Q 3619 -44 3206 303 
Q 2866 594 2766 1191 
L 3213 1356 
Q 3247 1038 3347 869 
Q 3425 741 3578 641 
Q 3866 450 4556 450 
Q 5009 450 5728 544 
L 5753 44 
z
M 3144 2828 
Q 4216 3113 5409 3041 
L 5381 2566 
L 5356 2566 
Q 4263 2631 3194 2388 
L 3144 2828 
z
M 5569 4103 
Q 5206 4644 4813 4972 
L 5113 5203 
Q 5497 4894 5888 4378 
L 5569 4103 
z
M 4972 3634 
Q 4684 4125 4238 4525 
L 4550 4769 
Q 4922 4459 5306 3909 
L 4972 3634 
z
" transform="scale(0.015625)"/>
      <path id="IPAexGothic-308f" d="M 609 3672 
Q 1272 3750 1894 3884 
L 1934 4978 
L 2406 4972 
L 2369 3934 
L 2753 3634 
Q 2416 3238 2356 3153 
Q 2350 3078 2350 2853 
Q 3322 3616 4219 3616 
Q 4878 3616 5331 3200 
Q 5819 2750 5819 2028 
Q 5819 419 3584 -53 
L 3266 391 
Q 5294 766 5294 2034 
Q 5294 2534 5000 2847 
Q 4691 3175 4175 3175 
Q 3341 3175 2344 2303 
Q 2344 678 2369 -150 
L 1881 -150 
Q 1863 1200 1869 1888 
Q 1766 1781 866 716 
L 513 1081 
Q 1450 2088 1869 2469 
Q 1869 2500 1878 2947 
Q 1881 3225 1888 3456 
Q 1406 3319 744 3178 
L 609 3672 
z
" transform="scale(0.015625)"/>
     </defs>
     <use xlink:href="#IPAexGothic-753b"/>
     <use xlink:href="#IPAexGothic-50cf" x="100"/>
     <use xlink:href="#IPAexGothic-30c7" x="200"/>
     <use xlink:href="#IPAexGothic-30fc" x="300"/>
     <use xlink:href="#IPAexGothic-30bf" x="400"/>
     <use xlink:href="#IPAexGothic-304c" x="500"/>
     <use xlink:href="#IPAexGothic-6570" x="600"/>
     <use xlink:href="#IPAexGothic-5024" x="700"/>
     <use xlink:href="#IPAexGothic-306e" x="800"/>
     <use xlink:href="#IPAexGothic-914d" x="900"/>
     <use xlink:href="#IPAexGothic-5217" x="1000"/>
     <use xlink:href="#IPAexGothic-3060" x="1100"/>
     <use xlink:href="#IPAexGothic-3068" x="1200"/>
     <use xlink:href="#IPAexGothic-308f" x="1300"/>
     <use xlink:href="#IPAexGothic-304b" x="1400"/>
     <use xlink:href="#IPAexGothic-308b" x="1500"/>
    </g>
   </g>
   <g id="text_11">
    <!-- ✅ -->
    <g style="fill: #2c3e50" transform="translate(33.12 191.635) scale(0.095 -0.095)">
     <use xlink:href="#IPAexGothic-2705"/>
    </g>
   </g>
   <g id="text_12">
    <!-- 機械学習モデルを作って評価できる -->
    <g style="fill: #2c3e50" transform="translate(46.08 193.5375) scale(0.14 -0.14)">
     <defs>
      <path id="IPAexGothic-6a5f" d="M 3916 2125 
Q 3806 2984 3806 4238 
L 3806 5313 
L 4216 5313 
L 4216 4300 
Q 4216 3081 4300 2278 
L 4313 2150 
L 5175 2150 
Q 4984 2350 4822 2469 
L 5144 2669 
Q 5325 2541 5547 2309 
L 5309 2150 
L 6006 2150 
L 6006 1797 
L 4363 1797 
Q 4450 1278 4688 869 
Q 4931 1150 5194 1631 
L 5553 1431 
Q 5284 953 4913 531 
Q 4941 491 4959 475 
Q 5278 78 5438 78 
Q 5581 78 5669 844 
L 6066 628 
Q 5881 -422 5559 -422 
Q 5163 -422 4631 244 
Q 4069 -275 3384 -519 
L 3116 -191 
Q 3881 88 4406 569 
Q 4072 1116 3966 1772 
L 3084 1772 
Q 3078 1747 3078 1675 
Q 3078 1650 3063 1431 
Q 3534 1153 3934 781 
L 3684 441 
Q 3328 816 3031 1056 
Q 2906 91 2238 -494 
L 1950 -172 
Q 2478 241 2603 891 
Q 2659 1197 2681 1772 
L 2116 1772 
L 2116 2125 
L 3916 2125 
z
M 1113 2534 
Q 813 1522 384 794 
L 153 1250 
Q 763 2228 1063 3547 
L 294 3547 
L 294 3956 
L 1113 3956 
L 1113 5306 
L 1522 5306 
L 1522 3956 
L 2138 3956 
L 2138 3547 
L 1522 3547 
L 1522 2881 
Q 1875 2588 2150 2228 
L 1888 1884 
Q 1753 2144 1522 2434 
L 1522 -447 
L 1113 -447 
L 1113 2534 
z
M 2750 3334 
Q 2441 3850 2131 4159 
L 2347 4469 
Q 2384 4425 2509 4275 
Q 2734 4703 2913 5228 
L 3263 5025 
Q 3028 4447 2719 3988 
Q 2766 3919 2838 3803 
Q 2913 3684 2938 3647 
Q 3175 4066 3347 4434 
L 3666 4244 
Q 3263 3431 2809 2841 
Q 3097 2872 3347 2900 
Q 3347 2913 3334 2950 
Q 3313 3063 3231 3303 
L 3519 3372 
Q 3716 2891 3781 2413 
L 3456 2297 
Q 3453 2316 3428 2484 
Q 3416 2575 3403 2631 
Q 2906 2506 2175 2438 
L 2072 2797 
Q 2109 2800 2194 2803 
Q 2263 2806 2297 2809 
Q 2369 2809 2413 2816 
L 2438 2853 
Q 2538 2994 2750 3334 
z
M 4875 3413 
Q 4559 3916 4263 4206 
L 4478 4506 
Q 4494 4488 4559 4406 
Q 4609 4350 4641 4306 
Q 4891 4769 5038 5216 
L 5394 5013 
Q 5147 4466 4838 4025 
Q 4963 3844 5050 3700 
Q 5241 4019 5466 4469 
L 5784 4256 
Q 5497 3725 4991 3009 
Q 5356 3031 5547 3053 
Q 5466 3281 5381 3450 
L 5681 3553 
Q 5872 3181 6022 2669 
L 5709 2503 
Q 5697 2550 5663 2678 
Q 5641 2759 5631 2797 
Q 5019 2669 4434 2619 
L 4338 2975 
Q 4513 2975 4594 2981 
Q 4778 3256 4875 3413 
z
" transform="scale(0.015625)"/>
      <path id="IPAexGothic-68b0" d="M 4678 1275 
Q 4447 2122 4334 3547 
L 2344 3547 
L 2344 3956 
L 4300 3956 
Q 4247 4656 4231 5306 
L 4659 5306 
Q 4669 4741 4719 3981 
L 6044 3981 
L 6044 3572 
L 4750 3572 
L 4781 3284 
Q 4875 2322 4988 1806 
Q 5303 2409 5497 3100 
L 5894 2938 
Q 5572 1963 5134 1231 
Q 5247 834 5397 547 
Q 5513 322 5556 322 
Q 5656 322 5759 1225 
L 6131 941 
Q 5959 -350 5638 -350 
Q 5475 -350 5222 9 
Q 5006 319 4831 781 
Q 4278 41 3438 -478 
L 3150 -134 
Q 4069 381 4678 1275 
z
M 2778 2344 
L 2778 3216 
L 3169 3216 
L 3169 2344 
L 3572 2344 
L 3572 3216 
L 3963 3216 
L 3963 2344 
L 4384 2344 
L 4384 1966 
L 3963 1966 
L 3963 647 
L 3572 647 
L 3572 1966 
L 3169 1966 
Q 3156 1372 3097 1044 
Q 2991 463 2603 0 
L 2297 309 
Q 2778 856 2778 1966 
L 2344 1966 
L 2125 1634 
Q 1813 2106 1622 2338 
L 1622 -447 
L 1200 -447 
L 1200 2594 
Q 928 1569 450 794 
L 188 1256 
Q 850 2238 1147 3547 
L 322 3547 
L 322 3956 
L 1200 3956 
L 1200 5306 
L 1622 5306 
L 1622 3956 
L 2222 3956 
L 2222 3547 
L 1622 3547 
L 1622 2831 
Q 2053 2453 2344 2063 
L 2344 2344 
L 2778 2344 
z
M 5491 4141 
Q 5256 4613 4953 4991 
L 5319 5172 
Q 5603 4850 5869 4359 
L 5491 4141 
z
" transform="scale(0.015625)"/>
      <path id="IPAexGothic-5b66" d="M 1706 4050 
L 1688 4088 
Q 1525 4513 1244 4959 
L 1681 5150 
Q 1947 4791 2200 4216 
L 1763 4050 
L 3941 4050 
Q 4359 4628 4653 5234 
L 5138 5016 
Q 4822 4488 4472 4050 
L 5797 4050 
L 5797 2675 
L 5338 2675 
L 5338 3653 
L 1072 3653 
L 1072 2675 
L 613 2675 
L 613 4050 
L 1706 4050 
z
M 3444 1888 
L 3444 1650 
L 6078 1650 
L 6078 1241 
L 3475 1241 
L 3475 91 
Q 3475 -428 2834 -428 
Q 2319 -428 1875 -366 
L 1784 128 
Q 2278 25 2744 25 
Q 2994 25 2994 263 
L 2994 1241 
L 319 1241 
L 319 1650 
L 2969 1650 
L 2969 2113 
L 3000 2125 
Q 3559 2338 4116 2675 
L 1466 2675 
L 1466 3078 
L 4756 3078 
L 5019 2822 
Q 4338 2309 3444 1888 
z
M 3019 4072 
Q 2831 4609 2572 5044 
L 3006 5228 
Q 3275 4822 3500 4250 
L 3019 4072 
z
" transform="scale(0.015625)"/>
      <path id="IPAexGothic-7fd2" d="M 3006 5063 
L 3006 3047 
Q 3006 2781 2878 2675 
Q 2769 2584 2481 2584 
Q 2078 2584 1772 2631 
L 1716 3072 
Q 2159 2988 2347 2988 
Q 2566 2988 2566 3219 
L 2566 4678 
L 466 4678 
L 466 5063 
L 3006 5063 
z
M 5778 5063 
L 5778 3041 
Q 5778 2584 5288 2584 
Q 4916 2584 4519 2631 
L 4441 3066 
Q 4856 2988 5131 2988 
Q 5338 2988 5338 3206 
L 5338 4678 
L 3238 4678 
L 3238 5063 
L 5778 5063 
z
M 2866 2119 
Q 2950 2356 3013 2669 
L 3500 2572 
Q 3409 2322 3306 2119 
L 5325 2119 
L 5325 -447 
L 4856 -447 
L 4856 -172 
L 1619 -172 
L 1619 -447 
L 1150 -447 
L 1150 2119 
L 2866 2119 
z
M 1619 1747 
L 1619 1197 
L 4856 1197 
L 4856 1747 
L 1619 1747 
z
M 1619 831 
L 1619 206 
L 4856 206 
L 4856 831 
L 1619 831 
z
M 1594 3681 
Q 1219 4044 778 4341 
L 1056 4609 
Q 1525 4325 1869 3981 
L 1594 3681 
z
M 4269 3694 
Q 3816 4066 3403 4341 
L 3684 4622 
Q 4203 4294 4556 3994 
L 4269 3694 
z
M 447 2950 
Q 1328 3347 2225 3969 
L 2353 3622 
Q 1581 3056 691 2606 
L 447 2950 
z
M 3231 3059 
Q 4138 3444 4978 4031 
L 5113 3675 
Q 4281 3066 3463 2700 
L 3231 3059 
z
" transform="scale(0.015625)"/>
      <path id="IPAexGothic-30e2" d="M 1216 4409 
L 5147 4409 
L 5147 3950 
L 3053 3950 
L 3053 2797 
L 5644 2797 
L 5644 2328 
L 3053 2328 
L 3053 972 
Q 3053 669 3272 600 
Q 3453 544 4013 544 
Q 4556 544 5269 600 
L 5269 97 
Q 4684 50 4147 50 
Q 3025 50 2753 250 
Q 2541 403 2541 825 
L 2541 2328 
L 744 2328 
L 744 2797 
L 2541 2797 
L 2541 3950 
L 1216 3950 
L 1216 4409 
z
" transform="scale(0.015625)"/>
      <path id="IPAexGothic-4f5c" d="M 3609 3834 
L 3231 3834 
Q 2869 2822 2297 2038 
L 1963 2381 
Q 2797 3513 3153 5275 
L 3616 5184 
Q 3506 4656 3378 4256 
L 5984 4256 
L 5984 3834 
L 4078 3834 
L 4078 2906 
L 5678 2906 
L 5678 2484 
L 4078 2484 
L 4078 1563 
L 5775 1563 
L 5775 1147 
L 4078 1147 
L 4078 -447 
L 3609 -447 
L 3609 3834 
z
M 1734 3725 
L 1734 -447 
L 1275 -447 
L 1275 2797 
L 1250 2747 
Q 984 2284 647 1850 
L 372 2234 
Q 1309 3481 1747 5203 
L 2219 5081 
Q 2028 4406 1734 3725 
z
" transform="scale(0.015625)"/>
      <path id="IPAexGothic-8a55" d="M 2272 1684 
L 2272 -416 
L 1863 -416 
L 1863 -128 
L 919 -128 
L 919 -447 
L 509 -447 
L 509 1684 
L 2272 1684 
z
M 919 1313 
L 919 244 
L 1863 244 
L 1863 1313 
L 919 1313 
z
M 4466 4434 
L 4466 1931 
L 6097 1931 
L 6097 1516 
L 4466 1516 
L 4466 -450 
L 4013 -450 
L 4013 1516 
L 2419 1516 
L 2419 1931 
L 4013 1931 
L 4013 4434 
L 2553 4434 
L 2553 4856 
L 5931 4856 
L 5931 4434 
L 4466 4434 
z
M 594 5044 
L 2188 5044 
L 2188 4659 
L 594 4659 
L 594 5044 
z
M 325 4206 
L 2413 4206 
L 2413 3816 
L 325 3816 
L 325 4206 
z
M 594 3359 
L 2188 3359 
L 2188 2975 
L 594 2975 
L 594 3359 
z
M 594 2522 
L 2188 2522 
L 2188 2138 
L 594 2138 
L 594 2522 
z
M 3184 2253 
Q 3031 3206 2775 3988 
L 3200 4122 
Q 3463 3331 3634 2381 
L 3184 2253 
z
M 4825 2356 
Q 5097 3272 5253 4184 
L 5700 4050 
Q 5491 2994 5228 2247 
L 4825 2356 
z
" transform="scale(0.015625)"/>
      <path id="IPAexGothic-4fa1" d="M 3144 3397 
L 3144 4416 
L 1828 4416 
L 1828 4825 
L 6081 4825 
L 6081 4416 
L 4713 4416 
L 4713 3397 
L 5850 3397 
L 5850 -384 
L 5416 -384 
L 5416 0 
L 2463 0 
L 2463 -384 
L 2034 -384 
L 2034 3397 
L 3144 3397 
z
M 3572 3397 
L 4281 3397 
L 4281 4416 
L 3572 4416 
L 3572 3397 
z
M 3169 3013 
L 2463 3013 
L 2463 391 
L 3169 391 
L 3169 3013 
z
M 3572 3013 
L 3572 391 
L 4281 391 
L 4281 3013 
L 3572 3013 
z
M 4684 3013 
L 4684 391 
L 5416 391 
L 5416 3013 
L 4684 3013 
z
M 1394 3816 
L 1394 -447 
L 966 -447 
L 966 2797 
Q 756 2369 478 1972 
L 244 2369 
Q 950 3469 1375 5313 
L 1809 5203 
Q 1588 4344 1394 3816 
z
" transform="scale(0.015625)"/>
     </defs>
     <use xlink:href="#IPAexGothic-6a5f"/>
     <use xlink:href="#IPAexGothic-68b0" x="100"/>
     <use xlink:href="#IPAexGothic-5b66" x="200"/>
     <use xlink:href="#IPAexGothic-7fd2" x="300"/>
     <use xlink:href="#IPAexGothic-30e2" x="400"/>
     <use xlink:href="#IPAexGothic-30c7" x="500"/>
     <use xlink:href="#IPAexGothic-30eb" x="600"/>
     <use xlink:href="#IPAexGothic-3092" x="700"/>
     <use xlink:href="#IPAexGothic-4f5c" x="800"/>
     <use xlink:href="#IPAexGothic-3063" x="900"/>
     <use xlink:href="#IPAexGothic-3066" x="1000"/>
     <use xlink:href="#IPAexGothic-8a55" x="1100"/>
     <use xlink:href="#IPAexGothic-4fa1" x="1200"/>
     <use xlink:href="#IPAexGothic-3067" x="1300"/>
     <use xlink:href="#IPAexGothic-304d" x="1400"/>
     <use xlink:href="#IPAexGothic-308b" x="1500"/>
    </g>
   </g>
   <g id="text_13">
    <!-- ✅ -->
    <g style="fill: #2c3e50" transform="translate(33.12 213.235) scale(0.095 -0.095)">
     <use xlink:href="#IPAexGothic-2705"/>
    </g>
   </g>
   <g id="text_14">
    <!-- 生成AIをコーディングに活用できる -->
    <g style="fill: #2c3e50" transform="translate(46.08 215.069687) scale(0.14 -0.14)">
     <defs>
      <path id="IPAexGothic-751f" d="M 1741 3822 
L 3022 3822 
L 3022 5250 
L 3509 5250 
L 3509 3822 
L 5628 3822 
L 5628 3406 
L 3509 3406 
L 3509 2125 
L 5366 2125 
L 5366 1709 
L 3509 1709 
L 3509 250 
L 5978 250 
L 5978 -166 
L 513 -166 
L 513 250 
L 3022 250 
L 3022 1709 
L 1263 1709 
L 1263 2125 
L 3022 2125 
L 3022 3406 
L 1563 3406 
Q 1266 2813 872 2350 
L 513 2688 
Q 1238 3519 1556 4834 
L 2022 4719 
Q 1894 4216 1741 3822 
z
" transform="scale(0.015625)"/>
      <path id="IPAexGothic-6210" d="M 4322 1650 
Q 4809 2375 5153 3309 
L 5563 3116 
Q 5159 2053 4566 1200 
Q 4881 675 5250 384 
Q 5388 275 5441 275 
Q 5544 275 5641 1119 
L 6063 875 
Q 5919 -328 5550 -328 
Q 5397 -328 5141 -150 
Q 4644 203 4250 806 
Q 3659 97 2825 -431 
L 2497 -59 
Q 3341 434 4009 1228 
Q 3491 2244 3272 3738 
L 1347 3738 
L 1347 2847 
L 2947 2847 
Q 2897 1366 2813 953 
Q 2706 453 2191 453 
Q 1900 453 1563 509 
L 1513 978 
Q 1981 888 2153 888 
Q 2350 888 2391 1100 
Q 2453 1416 2491 2463 
L 1347 2463 
L 1347 2303 
Q 1347 606 609 -438 
L 256 -78 
Q 878 772 878 2316 
L 878 4153 
L 3216 4153 
Q 3159 4672 3119 5291 
L 3594 5291 
Q 3619 4716 3681 4184 
L 5959 4184 
L 5959 3769 
L 3741 3769 
L 3759 3641 
Q 3956 2413 4322 1650 
z
M 4934 4225 
Q 4597 4656 4300 4897 
L 4659 5172 
Q 5003 4916 5319 4506 
L 4934 4225 
z
" transform="scale(0.015625)"/>
      <path id="IPAexGothic-41" d="M 4056 63 
L 3444 63 
L 2938 1409 
L 1100 1409 
L 603 63 
L -6 63 
L 1806 4666 
L 2259 4666 
L 4056 63 
z
M 2778 1863 
L 2316 3078 
Q 2125 3588 2028 4000 
L 2009 4000 
Q 1897 3563 1716 3078 
L 1263 1863 
L 2778 1863 
z
" transform="scale(0.015625)"/>
      <path id="IPAexGothic-49" d="M 1203 63 
L 634 63 
L 634 4634 
L 1203 4634 
L 1203 63 
z
" transform="scale(0.015625)"/>
      <path id="IPAexGothic-30b3" d="M 1134 4213 
L 5166 4213 
L 5166 153 
L 4653 153 
L 4653 594 
L 1063 594 
L 1063 1088 
L 4653 1088 
L 4653 3725 
L 1134 3725 
L 1134 4213 
z
" transform="scale(0.015625)"/>
      <path id="IPAexGothic-306b" d="M 1088 -38 
Q 922 1003 922 2081 
Q 922 3222 1331 4794 
L 1813 4684 
Q 1391 3113 1391 2003 
Q 1391 1441 1422 1147 
Q 1434 1181 1813 2016 
L 2125 1797 
Q 1800 1081 1691 763 
Q 1581 453 1581 269 
Q 1581 78 1588 6 
L 1088 -38 
z
M 2834 4038 
Q 3969 4213 5313 4172 
L 5338 3681 
Q 3959 3728 2869 3547 
L 2834 4038 
z
M 5650 256 
Q 5044 172 4372 172 
Q 3463 172 3047 434 
Q 2784 594 2675 841 
Q 2572 1075 2572 1447 
Q 2572 1563 2578 1656 
L 3053 1684 
Q 3050 1613 3044 1528 
Q 3041 1481 3041 1466 
Q 3041 1200 3119 1053 
Q 3178 944 3309 850 
Q 3569 678 4275 678 
Q 4891 678 5588 763 
L 5650 256 
z
" transform="scale(0.015625)"/>
      <path id="IPAexGothic-6d3b" d="M 4213 2028 
L 5550 2028 
L 5550 -450 
L 5097 -450 
L 5097 -97 
L 2913 -97 
L 2913 -450 
L 2459 -450 
L 2459 2028 
L 3759 2028 
L 3759 3034 
L 1959 3034 
L 1959 3438 
L 3759 3438 
L 3759 4359 
Q 3219 4272 2294 4175 
L 2088 4578 
Q 4038 4781 5231 5166 
L 5628 4769 
Q 4984 4581 4213 4438 
L 4213 3438 
L 6016 3438 
L 6016 3034 
L 4213 3034 
L 4213 2028 
z
M 5097 1631 
L 2913 1631 
L 2913 294 
L 5097 294 
L 5097 1631 
z
M 372 6 
Q 966 784 1472 1919 
L 1819 1556 
Q 1306 413 756 -409 
L 372 6 
z
M 1409 2381 
Q 950 2913 469 3238 
L 775 3609 
Q 1350 3200 1753 2759 
L 1409 2381 
z
M 1613 3859 
Q 1094 4425 691 4722 
L 1006 5069 
Q 1488 4731 1941 4250 
L 1613 3859 
z
" transform="scale(0.015625)"/>
      <path id="IPAexGothic-7528" d="M 5553 4891 
L 5553 203 
Q 5553 -53 5456 -169 
Q 5328 -316 4941 -316 
Q 4544 -316 4191 -275 
L 4113 203 
Q 4516 131 4875 131 
Q 5106 131 5106 372 
L 5106 1625 
L 3441 1625 
L 3441 -103 
L 3000 -103 
L 3000 1625 
L 1469 1625 
Q 1441 234 816 -488 
L 459 -134 
Q 1022 466 1022 1831 
L 1022 4891 
L 5553 4891 
z
M 1475 4500 
L 1475 3469 
L 3000 3469 
L 3000 4500 
L 1475 4500 
z
M 1475 3084 
L 1475 2009 
L 3000 2009 
L 3000 3084 
L 1475 3084 
z
M 5106 2009 
L 5106 3084 
L 3441 3084 
L 3441 2009 
L 5106 2009 
z
M 5106 3469 
L 5106 4500 
L 3441 4500 
L 3441 3469 
L 5106 3469 
z
" transform="scale(0.015625)"/>
     </defs>
     <use xlink:href="#IPAexGothic-751f"/>
     <use xlink:href="#IPAexGothic-6210" x="100"/>
     <use xlink:href="#IPAexGothic-41" x="200"/>
     <use xlink:href="#IPAexGothic-49" x="263.720703"/>
     <use xlink:href="#IPAexGothic-3092" x="292.626953"/>
     <use xlink:href="#IPAexGothic-30b3" x="392.626953"/>
     <use xlink:href="#IPAexGothic-30fc" x="492.626953"/>
     <use xlink:href="#IPAexGothic-30c7" x="592.626953"/>
     <use xlink:href="#IPAexGothic-30a3" x="692.626953"/>
     <use xlink:href="#IPAexGothic-30f3" x="792.626953"/>
     <use xlink:href="#IPAexGothic-30b0" x="892.626953"/>
     <use xlink:href="#IPAexGothic-306b" x="992.626953"/>
     <use xlink:href="#IPAexGothic-6d3b" x="1092.626953"/>
     <use xlink:href="#IPAexGothic-7528" x="1192.626953"/>
     <use xlink:href="#IPAexGothic-3067" x="1292.626953"/>
     <use xlink:href="#IPAexGothic-304d" x="1392.626953"/>
     <use xlink:href="#IPAexGothic-308b" x="1492.626953"/>
    </g>
   </g>
   <g id="text_15">
    <!-- ❌ Pythonの文法を完全に覚える必要なし　❌ コードをゼロから書けなくても大丈夫 -->
    <g style="fill: #7d6608" transform="translate(41.04 336.53351) scale(0.12 -0.12)">
     <defs>
      <path id="IPAexGothic-274c" d="M 5759 -641 
L 641 -641 
L 641 5503 
L 5759 5503 
L 5759 -641 
z
M 5216 5172 
L 1191 5172 
L 3206 2694 
L 5216 5172 
z
M 5428 -53 
L 5428 4903 
L 3419 2425 
L 5428 -53 
z
M 2988 2425 
L 972 4916 
L 972 -59 
L 2988 2425 
z
M 5209 -309 
L 3206 2163 
L 1197 -309 
L 5209 -309 
z
" transform="scale(0.015625)"/>
      <path id="IPAexGothic-6587" d="M 1563 3609 
L 456 3609 
L 456 4025 
L 2934 4025 
L 2934 5172 
L 3422 5172 
L 3422 4025 
L 5950 4025 
L 5950 3609 
L 4747 3609 
Q 4378 2169 3588 1272 
Q 4491 584 5922 203 
L 5566 -275 
Q 4147 181 3247 947 
Q 2222 56 797 -384 
L 456 91 
Q 2013 466 2913 1253 
Q 2031 2166 1563 3609 
z
M 2044 3609 
Q 2469 2347 3234 1581 
Q 3928 2388 4228 3609 
L 2044 3609 
z
" transform="scale(0.015625)"/>
      <path id="IPAexGothic-6cd5" d="M 3853 2175 
L 3847 2144 
Q 3500 1134 3109 384 
L 3078 331 
Q 3663 372 4444 466 
L 5025 538 
Q 4722 1006 4341 1478 
L 4719 1688 
Q 5372 928 5978 -78 
L 5575 -384 
Q 5353 16 5244 184 
Q 3900 -56 2003 -219 
L 1869 256 
Q 2147 266 2578 294 
Q 3125 1406 3366 2175 
L 1838 2175 
L 1838 2578 
L 3628 2578 
L 3628 3738 
L 2200 3738 
L 2200 4147 
L 3628 4147 
L 3628 5216 
L 4097 5216 
L 4097 4147 
L 5653 4147 
L 5653 3738 
L 4097 3738 
L 4097 2578 
L 6016 2578 
L 6016 2175 
L 3853 2175 
z
M 372 6 
Q 981 797 1472 1913 
L 1806 1550 
Q 1294 378 750 -403 
L 372 6 
z
M 1409 2394 
Q 931 2928 469 3231 
L 775 3597 
Q 1275 3259 1747 2778 
L 1409 2394 
z
M 1613 3847 
Q 1188 4338 691 4703 
L 1000 5056 
Q 1503 4709 1934 4238 
L 1613 3847 
z
" transform="scale(0.015625)"/>
      <path id="IPAexGothic-5b8c" d="M 3419 4428 
L 5753 4428 
L 5753 3166 
L 5278 3166 
L 5278 4025 
L 1116 4025 
L 1116 3166 
L 641 3166 
L 641 4428 
L 2938 4428 
L 2938 5313 
L 3419 5313 
L 3419 4428 
z
M 4084 1850 
L 4084 353 
Q 4084 178 4219 138 
Q 4356 106 4713 106 
Q 5334 106 5422 300 
Q 5519 500 5519 1013 
L 5978 872 
Q 5931 9 5734 -169 
Q 5556 -347 4672 -347 
Q 3981 -347 3809 -250 
Q 3625 -144 3625 184 
L 3625 1850 
L 2697 1850 
Q 2688 819 2281 325 
Q 1834 -206 822 -506 
L 528 -84 
Q 1556 156 1916 622 
Q 2222 1003 2231 1850 
L 516 1850 
L 516 2266 
L 5881 2266 
L 5881 1850 
L 4084 1850 
z
M 1422 3341 
L 4975 3341 
L 4975 2938 
L 1422 2938 
L 1422 3341 
z
" transform="scale(0.015625)"/>
      <path id="IPAexGothic-5168" d="M 3416 2778 
L 3416 1747 
L 5284 1747 
L 5284 1338 
L 3416 1338 
L 3416 184 
L 5859 184 
L 5859 -231 
L 547 -231 
L 547 184 
L 2941 184 
L 2941 1338 
L 1116 1338 
L 1116 1747 
L 2941 1747 
L 2941 2778 
L 1666 2778 
L 1666 3091 
Q 1188 2744 597 2472 
L 316 2847 
Q 2006 3569 2888 5197 
L 3441 5197 
Q 4491 3763 6116 3041 
L 5816 2619 
Q 4231 3413 3172 4775 
Q 2603 3834 1788 3181 
L 4803 3181 
L 4803 2778 
L 3416 2778 
z
" transform="scale(0.015625)"/>
      <path id="IPAexGothic-899a" d="M 4038 991 
L 4038 250 
Q 4038 91 4134 50 
Q 4250 19 4709 19 
Q 5472 19 5541 203 
Q 5581 291 5619 819 
L 6059 666 
Q 5994 -81 5816 -219 
Q 5619 -378 4606 -378 
Q 3869 -378 3719 -256 
Q 3591 -169 3591 109 
L 3591 991 
L 2778 991 
Q 2538 -341 541 -488 
L 313 -72 
Q 1184 -22 1656 172 
Q 2172 388 2316 991 
L 1431 991 
L 1431 3431 
L 4966 3431 
L 4966 991 
L 4038 991 
z
M 1859 3084 
L 1859 2731 
L 4538 2731 
L 4538 3084 
L 1859 3084 
z
M 1859 2400 
L 1859 2047 
L 4538 2047 
L 4538 2400 
L 1859 2400 
z
M 1859 1716 
L 1859 1338 
L 4538 1338 
L 4538 1716 
L 1859 1716 
z
M 1825 4238 
Q 1566 4725 1325 5013 
L 1747 5228 
Q 2038 4884 2297 4409 
L 1894 4238 
L 3078 4238 
Q 2934 4659 2638 5122 
L 3072 5306 
Q 3344 4925 3559 4422 
L 3084 4238 
L 4031 4238 
Q 4394 4734 4647 5306 
L 5125 5103 
Q 4809 4559 4556 4238 
L 5828 4238 
L 5828 3009 
L 5369 3009 
L 5369 3859 
L 1025 3859 
L 1025 3009 
L 556 3009 
L 556 4238 
L 1825 4238 
z
" transform="scale(0.015625)"/>
      <path id="IPAexGothic-3048" d="M 3797 4038 
Q 3144 4428 2013 4709 
L 2266 5106 
Q 3388 4838 4078 4469 
L 3797 4038 
z
M 1263 3347 
Q 2566 3428 3956 3641 
L 4291 3263 
Q 3759 2741 2875 1778 
Q 3156 1881 3356 1881 
Q 3909 1881 3919 1253 
L 3931 709 
Q 3941 456 4116 409 
Q 4244 372 4519 372 
Q 4944 372 5538 481 
L 5581 -31 
Q 5097 -103 4675 -103 
Q 4047 -103 3791 25 
Q 3484 178 3463 594 
L 3444 1094 
Q 3434 1491 3150 1491 
Q 2800 1491 2322 1072 
Q 1950 747 1109 -184 
L 738 166 
Q 2053 1434 3597 3181 
Q 2600 2988 1391 2841 
L 1263 3347 
z
" transform="scale(0.015625)"/>
      <path id="IPAexGothic-5fc5" d="M 1984 922 
L 1984 3769 
L 2459 3769 
L 2459 1344 
Q 4031 2828 4719 4825 
L 5172 4634 
Q 4263 2306 2459 722 
L 2459 569 
Q 2459 316 2631 266 
Q 2775 222 3363 222 
Q 4100 222 4272 313 
Q 4463 419 4481 1459 
L 4969 1325 
Q 4919 244 4738 13 
Q 4547 -238 3406 -238 
Q 2456 -238 2234 -134 
Q 1994 -28 1984 341 
Q 1409 -97 709 -469 
L 403 -78 
Q 1197 284 1906 863 
L 1984 922 
z
M 3397 3700 
Q 2672 4338 1931 4722 
L 2241 5100 
Q 2972 4713 3731 4116 
L 3397 3700 
z
M 403 1106 
Q 788 1972 934 3263 
L 1416 3166 
Q 1244 1781 844 838 
L 403 1106 
z
M 5678 941 
Q 5266 2097 4781 2894 
L 5184 3097 
Q 5725 2294 6131 1216 
L 5678 941 
z
" transform="scale(0.015625)"/>
      <path id="IPAexGothic-8981" d="M 2278 4025 
L 2278 4581 
L 528 4581 
L 528 4978 
L 5856 4978 
L 5856 4581 
L 4081 4581 
L 4081 4025 
L 5522 4025 
L 5522 2547 
L 863 2547 
L 863 4025 
L 2278 4025 
z
M 2694 4025 
L 3659 4025 
L 3659 4581 
L 2694 4581 
L 2694 4025 
z
M 2278 3666 
L 1316 3666 
L 1316 2906 
L 2278 2906 
L 2278 3666 
z
M 2694 3666 
L 2694 2906 
L 3659 2906 
L 3659 3666 
L 2694 3666 
z
M 4081 3666 
L 4081 2906 
L 5075 2906 
L 5075 3666 
L 4081 3666 
z
M 3066 338 
Q 2547 503 1694 722 
L 1503 775 
Q 1816 1141 2066 1503 
L 447 1503 
L 447 1900 
L 2316 1900 
Q 2497 2225 2641 2516 
L 3084 2366 
Q 2984 2172 2834 1900 
L 5950 1900 
L 5950 1503 
L 4619 1503 
Q 4369 878 3988 484 
Q 4750 263 5797 -91 
L 5413 -488 
Q 4441 -100 3597 172 
Q 2706 -406 869 -531 
L 625 -97 
Q 2122 -28 3066 338 
z
M 3513 619 
Q 3934 1025 4134 1503 
L 2597 1503 
Q 2413 1213 2238 984 
L 2213 953 
Q 2656 853 3513 619 
z
" transform="scale(0.015625)"/>
      <path id="IPAexGothic-306a" d="M 3906 3147 
L 4372 3147 
Q 4381 2278 4444 1272 
Q 5244 1003 5838 631 
L 5556 222 
Q 4953 600 4463 813 
Q 4478 263 4234 22 
Q 3984 -225 3419 -225 
Q 2897 -225 2563 0 
Q 2216 231 2216 647 
Q 2216 1081 2656 1319 
Q 2959 1484 3297 1484 
Q 3638 1484 3969 1413 
Q 3916 2219 3906 3147 
z
M 3975 984 
Q 3631 1081 3297 1081 
Q 3031 1081 2856 978 
Q 2663 863 2663 653 
Q 2663 197 3400 197 
Q 3750 197 3875 378 
Q 3997 556 3975 984 
z
M 738 3928 
Q 1453 3884 1997 3938 
Q 2144 4381 2294 5125 
L 2784 5050 
Q 2684 4559 2516 3988 
Q 2969 4031 3559 4172 
L 3578 3713 
Q 2919 3575 2375 3531 
Q 1853 2028 1044 831 
L 603 1113 
Q 1325 2063 1856 3488 
Q 1063 3459 763 3475 
L 738 3928 
z
M 5538 2759 
Q 5000 3353 4263 3853 
L 4591 4191 
Q 5338 3728 5897 3128 
L 5538 2759 
z
" transform="scale(0.015625)"/>
      <path id="IPAexGothic-3000" transform="scale(0.015625)"/>
      <path id="IPAexGothic-30c9" d="M 2247 4959 
L 2766 4959 
L 2766 3169 
Q 4050 2581 5178 1850 
L 4841 1331 
Q 3781 2138 2766 2650 
L 2766 -225 
L 2247 -225 
L 2247 4959 
z
M 5263 3847 
Q 4900 4388 4506 4716 
L 4806 4947 
Q 5191 4638 5581 4122 
L 5263 3847 
z
M 4666 3378 
Q 4375 3869 3931 4269 
L 4244 4513 
Q 4616 4206 5000 3653 
L 4666 3378 
z
" transform="scale(0.015625)"/>
      <path id="IPAexGothic-30bc" d="M 2028 4838 
L 2553 4838 
L 2553 3359 
L 5259 3694 
L 5575 3406 
Q 4806 2272 3975 1516 
L 3538 1838 
Q 4266 2422 4813 3194 
L 2553 2894 
L 2553 941 
Q 2553 694 2706 628 
Q 2891 544 3584 544 
Q 4384 544 5394 659 
L 5413 134 
Q 4525 63 3813 63 
Q 2647 63 2328 216 
Q 2028 363 2028 825 
L 2028 2822 
L 606 2638 
L 556 3109 
L 2028 3297 
L 2028 4838 
z
M 5772 4416 
Q 5409 4959 5016 5288 
L 5319 5516 
Q 5703 5206 6094 4691 
L 5772 4416 
z
M 5178 3950 
Q 4888 4438 4441 4838 
L 4753 5081 
Q 5125 4775 5509 4225 
L 5178 3950 
z
" transform="scale(0.015625)"/>
      <path id="IPAexGothic-30ed" d="M 1147 4269 
L 5250 4269 
L 5250 172 
L 4725 172 
L 4725 569 
L 1672 569 
L 1672 172 
L 1147 172 
L 1147 4269 
z
M 1672 3781 
L 1672 1063 
L 4725 1063 
L 4725 3781 
L 1672 3781 
z
" transform="scale(0.015625)"/>
      <path id="IPAexGothic-3089" d="M 3700 3928 
Q 2897 4478 2156 4750 
L 2381 5166 
Q 3147 4891 3956 4384 
L 3700 3928 
z
M 1344 1281 
Q 1450 2544 1747 4038 
L 2234 3928 
Q 1994 2856 1888 1844 
Q 2897 2688 3963 2688 
Q 4531 2688 4909 2450 
Q 5441 2122 5441 1516 
Q 5441 669 4569 213 
Q 3856 -169 2584 -238 
L 2363 250 
Q 3484 250 4213 588 
Q 4909 922 4909 1509 
Q 4909 1856 4647 2059 
Q 4366 2266 3897 2266 
Q 2853 2266 1766 1141 
L 1344 1281 
z
" transform="scale(0.015625)"/>
      <path id="IPAexGothic-66f8" d="M 2953 4891 
L 2953 5313 
L 3397 5313 
L 3397 4891 
L 5169 4891 
L 5169 4213 
L 6006 4213 
L 6006 3866 
L 5169 3866 
L 5169 3166 
L 3397 3166 
L 3397 2828 
L 5597 2828 
L 5597 2475 
L 3397 2475 
L 3397 2144 
L 6078 2144 
L 6078 1791 
L 319 1791 
L 319 2144 
L 2953 2144 
L 2953 2475 
L 797 2475 
L 797 2828 
L 2953 2828 
L 2953 3166 
L 1125 3166 
L 1125 3506 
L 2953 3506 
L 2953 3866 
L 381 3866 
L 381 4213 
L 2953 4213 
L 2953 4550 
L 1125 4550 
L 1125 4891 
L 2953 4891 
z
M 4728 4550 
L 3397 4550 
L 3397 4213 
L 4728 4213 
L 4728 4550 
z
M 4728 3866 
L 3397 3866 
L 3397 3506 
L 4728 3506 
L 4728 3866 
z
M 5253 1506 
L 5253 -450 
L 4800 -450 
L 4800 -225 
L 1572 -225 
L 1572 -450 
L 1119 -450 
L 1119 1506 
L 5253 1506 
z
M 1572 1166 
L 1572 825 
L 4800 825 
L 4800 1166 
L 1572 1166 
z
M 1572 500 
L 1572 134 
L 4800 134 
L 4800 500 
L 1572 500 
z
" transform="scale(0.015625)"/>
      <path id="IPAexGothic-3051" d="M 2553 3481 
Q 2891 3463 3219 3463 
Q 3691 3463 4338 3506 
Q 4303 4434 4250 4897 
L 4763 4897 
Q 4769 4772 4825 3566 
Q 5319 3634 5709 3744 
L 5747 3291 
Q 5356 3159 4838 3109 
Q 4844 2875 4844 2606 
Q 4844 1434 4575 856 
Q 4250 138 3347 -313 
L 2938 56 
Q 3809 441 4094 1006 
Q 4363 1525 4363 2625 
Q 4363 2853 4359 3059 
Q 3722 3009 3175 3009 
Q 2791 3009 2591 3022 
L 2553 3481 
z
M 1925 2088 
L 2253 1881 
Q 1697 872 1678 166 
L 1259 72 
Q 941 1184 941 2272 
Q 941 3181 1344 4872 
L 1819 4750 
Q 1416 3166 1416 2163 
Q 1416 1722 1491 1222 
L 1925 2088 
z
" transform="scale(0.015625)"/>
      <path id="IPAexGothic-304f" d="M 4022 -300 
Q 3050 984 1863 2047 
Q 1538 2338 1538 2522 
Q 1538 2700 1953 3041 
Q 3144 4019 3816 5094 
L 4256 4769 
Q 3456 3659 2234 2694 
Q 2106 2588 2106 2528 
Q 2106 2466 2344 2247 
Q 3591 1113 4444 103 
L 4022 -300 
z
" transform="scale(0.015625)"/>
      <path id="IPAexGothic-3082" d="M 997 3950 
Q 1622 3844 2303 3816 
L 2491 5056 
L 2988 4984 
Q 2872 4363 2797 3816 
Q 3475 3822 4244 3938 
L 4244 3494 
Q 3659 3394 2731 3372 
Q 2700 3131 2603 2381 
Q 3263 2381 4031 2509 
L 4031 2059 
Q 3359 1947 2534 1947 
Q 2472 1447 2472 1216 
Q 2472 191 3609 191 
Q 4831 191 4831 1163 
Q 4831 1597 4500 2131 
L 5003 2181 
Q 5338 1638 5338 1153 
Q 5338 472 4819 75 
Q 4372 -256 3609 -256 
Q 2003 -256 2003 1153 
Q 2003 1556 2059 1959 
Q 1372 2022 1013 2094 
L 1056 2541 
Q 1581 2431 2125 2400 
L 2247 3378 
Q 1550 3406 941 3519 
L 997 3950 
z
" transform="scale(0.015625)"/>
      <path id="IPAexGothic-5927" d="M 3528 3181 
Q 4150 1197 6003 275 
L 5647 -184 
Q 3891 831 3259 2681 
Q 2894 644 872 -344 
L 513 97 
Q 1678 528 2344 1538 
Q 2784 2219 2900 3181 
L 481 3181 
L 481 3628 
L 2925 3628 
L 2925 5150 
L 3431 5150 
L 3431 3628 
L 5922 3628 
L 5922 3181 
L 3528 3181 
z
" transform="scale(0.015625)"/>
      <path id="IPAexGothic-4e08" d="M 3169 3944 
L 3169 5153 
L 3681 5153 
L 3681 3944 
L 5922 3944 
L 5922 3503 
L 3681 3503 
L 3681 3338 
Q 3681 1913 3297 1213 
Q 4209 513 6019 175 
L 5691 -325 
Q 3881 119 3028 828 
Q 2269 -38 794 -413 
L 475 28 
Q 2081 394 2675 1141 
Q 2016 1800 1484 2844 
L 1916 3069 
Q 2281 2213 2919 1544 
Q 3169 2109 3169 3266 
L 3169 3503 
L 481 3503 
L 481 3944 
L 3169 3944 
z
" transform="scale(0.015625)"/>
      <path id="IPAexGothic-592b" d="M 3609 2241 
Q 4247 853 5959 194 
L 5606 -275 
Q 4728 150 4231 609 
Q 3619 1153 3259 1984 
Q 2797 288 813 -366 
L 519 72 
Q 2397 616 2866 2241 
L 481 2241 
L 481 2669 
L 2931 2669 
L 2931 3744 
L 863 3744 
L 863 4172 
L 2931 4172 
L 2931 5216 
L 3419 5216 
L 3419 4172 
L 5538 4172 
L 5538 3744 
L 3419 3744 
L 3419 2669 
L 5922 2669 
L 5922 2241 
L 3609 2241 
z
" transform="scale(0.015625)"/>
     </defs>
     <use xlink:href="#IPAexGothic-274c"/>
     <use xlink:href="#IPAexGothic-20" x="100"/>
     <use xlink:href="#IPAexGothic-50" x="127.001953"/>
     <use xlink:href="#IPAexGothic-79" x="189.111328"/>
     <use xlink:href="#IPAexGothic-74" x="238.330078"/>
     <use xlink:href="#IPAexGothic-68" x="272.949219"/>
     <use xlink:href="#IPAexGothic-6f" x="333.642578"/>
     <use xlink:href="#IPAexGothic-6e" x="394.042969"/>
     <use xlink:href="#IPAexGothic-306e" x="454.443359"/>
     <use xlink:href="#IPAexGothic-6587" x="554.443359"/>
     <use xlink:href="#IPAexGothic-6cd5" x="654.443359"/>
     <use xlink:href="#IPAexGothic-3092" x="754.443359"/>
     <use xlink:href="#IPAexGothic-5b8c" x="854.443359"/>
     <use xlink:href="#IPAexGothic-5168" x="954.443359"/>
     <use xlink:href="#IPAexGothic-306b" x="1054.443359"/>
     <use xlink:href="#IPAexGothic-899a" x="1154.443359"/>
     <use xlink:href="#IPAexGothic-3048" x="1254.443359"/>
     <use xlink:href="#IPAexGothic-308b" x="1354.443359"/>
     <use xlink:href="#IPAexGothic-5fc5" x="1454.443359"/>
     <use xlink:href="#IPAexGothic-8981" x="1554.443359"/>
     <use xlink:href="#IPAexGothic-306a" x="1654.443359"/>
     <use xlink:href="#IPAexGothic-3057" x="1754.443359"/>
     <use xlink:href="#IPAexGothic-3000" x="1854.443359"/>
     <use xlink:href="#IPAexGothic-274c" x="1954.443359"/>
     <use xlink:href="#IPAexGothic-20" x="2054.443359"/>
     <use xlink:href="#IPAexGothic-30b3" x="2081.445312"/>
     <use xlink:href="#IPAexGothic-30fc" x="2181.445312"/>
     <use xlink:href="#IPAexGothic-30c9" x="2281.445312"/>
     <use xlink:href="#IPAexGothic-3092" x="2381.445312"/>
     <use xlink:href="#IPAexGothic-30bc" x="2481.445312"/>
     <use xlink:href="#IPAexGothic-30ed" x="2581.445312"/>
     <use xlink:href="#IPAexGothic-304b" x="2681.445312"/>
     <use xlink:href="#IPAexGothic-3089" x="2781.445312"/>
     <use xlink:href="#IPAexGothic-66f8" x="2881.445312"/>
     <use xlink:href="#IPAexGothic-3051" x="2981.445312"/>
     <use xlink:href="#IPAexGothic-306a" x="3081.445312"/>
     <use xlink:href="#IPAexGothic-304f" x="3181.445312"/>
     <use xlink:href="#IPAexGothic-3066" x="3281.445312"/>
     <use xlink:href="#IPAexGothic-3082" x="3381.445312"/>
     <use xlink:href="#IPAexGothic-5927" x="3481.445312"/>
     <use xlink:href="#IPAexGothic-4e08" x="3581.445312"/>
     <use xlink:href="#IPAexGothic-592b" x="3681.445312"/>
    </g>
   </g>
  </g>
 </g>
 <defs>
  <clipPath id="pdc49f7244b">
   <rect x="0" y="-0" width="691.2" height="388.8"/>
  </clipPath>
 </defs>
</svg>
