<?xml version="1.0" encoding="utf-8" standalone="no"?>
<!DOCTYPE svg PUBLIC "-//W3C//DTD SVG 1.1//EN"
  "http://www.w3.org/Graphics/SVG/1.1/DTD/svg11.dtd">
<svg xmlns:xlink="http://www.w3.org/1999/xlink" width="691.2pt" height="388.8pt" viewBox="0 0 691.2 388.8" xmlns="http://www.w3.org/2000/svg" version="1.1">
 <metadata>
  <rdf:RDF xmlns:dc="http://purl.org/dc/elements/1.1/" xmlns:cc="http://creativecommons.org/ns#" xmlns:rdf="http://www.w3.org/1999/02/22-rdf-syntax-ns#">
   <cc:Work>
    <dc:type rdf:resource="http://purl.org/dc/dcmitype/StillImage"/>
    <dc:date>2026-04-09T02:37:45.301532</dc:date>
    <dc:format>image/svg+xml</dc:format>
    <dc:creator>
     <cc:Agent>
      <dc:title>Matplotlib v3.9.4, https://matplotlib.org/</dc:title>
     </cc:Agent>
    </dc:creator>
   </cc:Work>
  </rdf:RDF>
 </metadata>
 <defs>
  <style type="text/css">*{stroke-linejoin: round; stroke-linecap: butt}</style>
 </defs>
 <g id="figure_1">
  <g id="patch_1">
   <path d="M 0 388.8 
L 691.2 388.8 
L 691.2 0 
L 0 0 
z
" style="fill: #ffffff"/>
  </g>
  <g id="axes_1">
   <g id="patch_2">
    <path d="M 0 -0 
L 691.2 -0 
L 691.2 24.48 
L 0 24.48 
z
" clip-path="url(#p27022f810e)" style="fill: #2c3e50"/>
   </g>
   <g id="patch_3">
    <path d="M 31.68 59.04 
L 659.52 59.04 
L 659.52 60.48 
L 31.68 60.48 
z
" clip-path="url(#p27022f810e)" style="fill: #ecf0f1"/>
   </g>
   <g id="patch_4">
    <path d="M 31.68 57.6 
L 659.52 57.6 
L 659.52 93.6 
L 31.68 93.6 
z
" clip-path="url(#p27022f810e)" style="fill: #ebf5fb"/>
   </g>
   <g id="patch_5">
    <path d="M 31.68 57.6 
L 33.84 57.6 
L 33.84 93.6 
L 31.68 93.6 
z
" clip-path="url(#p27022f810e)" style="fill: #4a90d9"/>
   </g>
   <g id="patch_6">
    <path d="M 31.68 106.56 
L 103.68 106.56 
L 103.68 135.36 
L 31.68 135.36 
z
" clip-path="url(#p27022f810e)" style="fill: #2c3e50; stroke: #ffffff; stroke-linejoin: miter"/>
   </g>
   <g id="patch_7">
    <path d="M 103.68 106.56 
L 269.28 106.56 
L 269.28 135.36 
L 103.68 135.36 
z
" clip-path="url(#p27022f810e)" style="fill: #2c3e50; stroke: #ffffff; stroke-linejoin: miter"/>
   </g>
   <g id="patch_8">
    <path d="M 269.28 106.56 
L 550.08 106.56 
L 550.08 135.36 
L 269.28 135.36 
z
" clip-path="url(#p27022f810e)" style="fill: #2c3e50; stroke: #ffffff; stroke-linejoin: miter"/>
   </g>
   <g id="patch_9">
    <path d="M 550.08 106.56 
L 659.52 106.56 
L 659.52 135.36 
L 550.08 135.36 
z
" clip-path="url(#p27022f810e)" style="fill: #2c3e50; stroke: #ffffff; stroke-linejoin: miter"/>
   </g>
   <g id="patch_10">
    <path d="M 31.68 135.36 
L 103.68 135.36 
L 103.68 164.16 
L 31.68 164.16 
z
" clip-path="url(#p27022f810e)" style="fill: #ffffff; stroke: #ecf0f1; stroke-width: 0.5; stroke-linejoin: miter"/>
   </g>
   <g id="patch_11">
    <path d="M 103.68 135.36 
L 269.28 135.36 
L 269.28 164.16 
L 103.68 164.16 
z
" clip-path="url(#p27022f810e)" style="fill: #ffffff; stroke: #ecf0f1; stroke-width: 0.5; stroke-linejoin: miter"/>
   </g>
   <g id="patch_12">
    <path d="M 269.28 135.36 
L 550.08 135.36 
L 550.08 164.16 
L 269.28 164.16 
z
" clip-path="url(#p27022f810e)" style="fill: #ffffff; stroke: #ecf0f1; stroke-width: 0.5; stroke-linejoin: miter"/>
   </g>
   <g id="patch_13">
    <path d="M 550.08 135.36 
L 659.52 135.36 
L 659.52 164.16 
L 550.08 164.16 
z
" clip-path="url(#p27022f810e)" style="fill: #ffffff; stroke: #ecf0f1; stroke-width: 0.5; stroke-linejoin: miter"/>
   </g>
   <g id="patch_14">
    <path d="M 31.68 164.16 
L 103.68 164.16 
L 103.68 192.96 
L 31.68 192.96 
z
" clip-path="url(#p27022f810e)" style="fill: #f8f9fa; stroke: #ecf0f1; stroke-width: 0.5; stroke-linejoin: miter"/>
   </g>
   <g id="patch_15">
    <path d="M 103.68 164.16 
L 269.28 164.16 
L 269.28 192.96 
L 103.68 192.96 
z
" clip-path="url(#p27022f810e)" style="fill: #f8f9fa; stroke: #ecf0f1; stroke-width: 0.5; stroke-linejoin: miter"/>
   </g>
   <g id="patch_16">
    <path d="M 269.28 164.16 
L 550.08 164.16 
L 550.08 192.96 
L 269.28 192.96 
z
" clip-path="url(#p27022f810e)" style="fill: #f8f9fa; stroke: #ecf0f1; stroke-width: 0.5; stroke-linejoin: miter"/>
   </g>
   <g id="patch_17">
    <path d="M 550.08 164.16 
L 659.52 164.16 
L 659.52 192.96 
L 550.08 192.96 
z
" clip-path="url(#p27022f810e)" style="fill: #f8f9fa; stroke: #ecf0f1; stroke-width: 0.5; stroke-linejoin: miter"/>
   </g>
   <g id="patch_18">
    <path d="M 31.68 192.96 
L 103.68 192.96 
L 103.68 221.76 
L 31.68 221.76 
z
" clip-path="url(#p27022f810e)" style="fill: #ffffff; stroke: #ecf0f1; stroke-width: 0.5; stroke-linejoin: miter"/>
   </g>
   <g id="patch_19">
    <path d="M 103.68 192.96 
L 269.28 192.96 
L 269.28 221.76 
L 103.68 221.76 
z
" clip-path="url(#p27022f810e)" style="fill: #ffffff; stroke: #ecf0f1; stroke-width: 0.5; stroke-linejoin: miter"/>
   </g>
   <g id="patch_20">
    <path d="M 269.28 192.96 
L 550.08 192.96 
L 550.08 221.76 
L 269.28 221.76 
z
" clip-path="url(#p27022f810e)" style="fill: #ffffff; stroke: #ecf0f1; stroke-width: 0.5; stroke-linejoin: miter"/>
   </g>
   <g id="patch_21">
    <path d="M 550.08 192.96 
L 659.52 192.96 
L 659.52 221.76 
L 550.08 221.76 
z
" clip-path="url(#p27022f810e)" style="fill: #ffffff; stroke: #ecf0f1; stroke-width: 0.5; stroke-linejoin: miter"/>
   </g>
   <g id="patch_22">
    <path d="M 31.68 311.04 
L 659.52 311.04 
L 659.52 339.84 
L 31.68 339.84 
z
" clip-path="url(#p27022f810e)" style="fill: #eafaf1"/>
   </g>
   <g id="patch_23">
    <path d="M 31.68 311.04 
L 33.84 311.04 
L 33.84 339.84 
L 31.68 339.84 
z
" clip-path="url(#p27022f810e)" style="fill: #5ba85a"/>
   </g>
   <g id="text_1">
    <!-- オリエンテーション -->
    <g style="fill: #ffffff" transform="translate(31.68 15.035312) scale(0.1 -0.1)">
     <defs>
      <path id="IPAexGothic-30aa" d="M 3578 5000 
L 4078 5000 
L 4109 3719 
L 5678 3719 
L 5678 3272 
L 4122 3272 
L 4188 397 
Q 4197 -147 3553 -147 
Q 3125 -147 2663 -69 
L 2553 463 
Q 3088 359 3425 359 
Q 3688 359 3688 616 
L 3663 2288 
L 3681 3106 
Q 3203 2188 2456 1469 
Q 1791 828 994 425 
L 634 834 
Q 2294 1588 3303 3272 
L 878 3272 
L 878 3719 
L 3609 3719 
L 3578 5000 
z
" transform="scale(0.015625)"/>
      <path id="IPAexGothic-30ea" d="M 1678 4788 
L 2222 4788 
L 2222 1900 
L 1678 1900 
L 1678 4788 
z
M 4084 4909 
L 4628 4909 
L 4628 2753 
Q 4628 1563 4150 794 
Q 3725 119 2772 -353 
L 2394 78 
Q 3334 494 3706 1094 
Q 4084 1703 4084 2725 
L 4084 4909 
z
" transform="scale(0.015625)"/>
      <path id="IPAexGothic-30a8" d="M 1109 4063 
L 5294 4063 
L 5294 3594 
L 3444 3594 
L 3444 988 
L 5759 988 
L 5759 513 
L 641 513 
L 641 988 
L 2913 988 
L 2913 3594 
L 1109 3594 
L 1109 4063 
z
" transform="scale(0.015625)"/>
      <path id="IPAexGothic-30f3" d="M 2444 3084 
Q 1816 3656 1056 4084 
L 1381 4519 
Q 2063 4191 2816 3559 
L 2444 3084 
z
M 1100 609 
Q 3984 1106 5216 3828 
L 5619 3469 
Q 4413 794 1434 103 
L 1100 609 
z
" transform="scale(0.015625)"/>
      <path id="IPAexGothic-30c6" d="M 563 3072 
L 5741 3072 
L 5741 2613 
L 3578 2613 
Q 3538 1516 3134 872 
Q 2688 156 1663 -256 
L 1313 156 
Q 2338 538 2713 1166 
Q 3003 1644 3034 2613 
L 563 2613 
L 563 3072 
z
M 1406 4588 
L 4941 4588 
L 4941 4128 
L 1406 4128 
L 1406 4588 
z
" transform="scale(0.015625)"/>
      <path id="IPAexGothic-30fc" d="M 588 2688 
L 5809 2688 
L 5809 2175 
L 588 2175 
L 588 2688 
z
" transform="scale(0.015625)"/>
      <path id="IPAexGothic-30b7" d="M 2828 3531 
Q 2219 4056 1613 4359 
L 1913 4781 
Q 2503 4491 3169 3981 
L 2828 3531 
z
M 1163 500 
Q 3944 1094 5338 3525 
L 5688 3128 
Q 4297 700 1484 0 
L 1163 500 
z
M 2072 2278 
Q 1466 2800 831 3109 
L 1131 3541 
Q 1806 3213 2406 2725 
L 2072 2278 
z
" transform="scale(0.015625)"/>
      <path id="IPAexGothic-30e7" d="M 1625 3469 
L 4653 3469 
L 4653 0 
L 4172 0 
L 4172 294 
L 1553 294 
L 1553 753 
L 4172 753 
L 4172 1734 
L 1766 1734 
L 1766 2169 
L 4172 2169 
L 4172 3028 
L 1625 3028 
L 1625 3469 
z
" transform="scale(0.015625)"/>
     </defs>
     <use xlink:href="#IPAexGothic-30aa"/>
     <use xlink:href="#IPAexGothic-30ea" x="100"/>
     <use xlink:href="#IPAexGothic-30a8" x="200"/>
     <use xlink:href="#IPAexGothic-30f3" x="300"/>
     <use xlink:href="#IPAexGothic-30c6" x="400"/>
     <use xlink:href="#IPAexGothic-30fc" x="500"/>
     <use xlink:href="#IPAexGothic-30b7" x="600"/>
     <use xlink:href="#IPAexGothic-30e7" x="700"/>
     <use xlink:href="#IPAexGothic-30f3" x="800"/>
    </g>
   </g>
   <g id="text_2">
    <!-- 本日の環境と使用データ -->
    <g style="fill: #1a1a2e" transform="translate(31.68 55.7925) scale(0.24 -0.24)">
     <defs>
      <path id="IPAexGothic-672c" d="M 3578 3463 
Q 4494 1903 6056 1050 
L 5697 600 
Q 4147 1619 3409 3084 
L 3409 1241 
L 4469 1241 
L 4469 825 
L 3425 825 
L 3425 -409 
L 2938 -409 
L 2938 825 
L 1900 825 
L 1900 1241 
L 2950 1241 
L 2950 3034 
Q 2288 1513 756 403 
L 378 794 
Q 1919 1703 2784 3463 
L 481 3463 
L 481 3903 
L 2938 3903 
L 2938 5209 
L 3425 5209 
L 3425 3903 
L 5922 3903 
L 5922 3463 
L 3578 3463 
z
" transform="scale(0.015625)"/>
      <path id="IPAexGothic-65e5" d="M 5231 4800 
L 5231 -288 
L 4744 -288 
L 4744 128 
L 1647 128 
L 1647 -288 
L 1159 -288 
L 1159 4800 
L 5231 4800 
z
M 1647 4372 
L 1647 2731 
L 4744 2731 
L 4744 4372 
L 1647 4372 
z
M 1647 2297 
L 1647 556 
L 4744 556 
L 4744 2297 
L 1647 2297 
z
" transform="scale(0.015625)"/>
      <path id="IPAexGothic-306e" d="M 3119 469 
Q 5275 766 5275 2425 
Q 5275 3453 4413 3925 
Q 4041 4116 3547 4159 
Q 3394 2525 2850 1400 
Q 2322 306 1722 306 
Q 1384 306 1084 666 
Q 609 1244 609 2003 
Q 609 3025 1397 3794 
Q 2184 4563 3431 4563 
Q 4306 4563 4928 4122 
Q 5813 3506 5813 2425 
Q 5813 438 3431 6 
L 3119 469 
z
M 3053 4147 
Q 2378 4044 1891 3641 
Q 1097 2981 1097 1991 
Q 1097 1366 1434 978 
Q 1581 813 1719 813 
Q 2022 813 2416 1625 
Q 2909 2638 3053 4147 
z
" transform="scale(0.015625)"/>
      <path id="IPAexGothic-74b0" d="M 5113 650 
Q 5600 344 6072 153 
L 5778 -250 
Q 4803 269 4178 931 
L 4178 -450 
L 3750 -450 
L 3750 850 
Q 2950 188 2106 -175 
L 1816 172 
Q 2963 634 3819 1413 
L 2541 1413 
L 2541 2669 
L 5522 2669 
L 5522 1444 
L 5859 1241 
Q 5472 888 5113 650 
z
M 4825 863 
Q 5153 1122 5413 1413 
L 4319 1413 
L 4269 1356 
Q 4469 1138 4825 863 
z
M 2956 2316 
L 2956 1753 
L 5094 1753 
L 5094 2316 
L 2956 2316 
z
M 1453 4384 
L 1453 3009 
L 2059 3009 
L 2059 2613 
L 1453 2613 
L 1453 1128 
Q 1472 1131 1506 1144 
Q 1547 1156 1563 1159 
Q 1866 1250 2216 1378 
L 2241 1000 
Q 1550 725 403 378 
L 263 806 
Q 763 931 1038 1006 
L 1038 2613 
L 397 2613 
L 397 3009 
L 1038 3009 
L 1038 4384 
L 325 4384 
L 325 4788 
L 2125 4788 
L 2125 4384 
L 1453 4384 
z
M 5631 5075 
L 5631 3694 
L 2406 3694 
L 2406 5075 
L 5631 5075 
z
M 2816 4728 
L 2816 4034 
L 3359 4034 
L 3359 4728 
L 2816 4728 
z
M 5228 4034 
L 5228 4728 
L 4672 4728 
L 4672 4034 
L 5228 4034 
z
M 3744 4728 
L 3744 4034 
L 4288 4034 
L 4288 4728 
L 3744 4728 
z
M 2094 3347 
L 6016 3347 
L 6016 2981 
L 2094 2981 
L 2094 3347 
z
" transform="scale(0.015625)"/>
      <path id="IPAexGothic-5883" d="M 4606 1153 
L 4606 256 
Q 4606 106 4684 75 
Q 4744 50 5009 50 
Q 5503 50 5563 216 
Q 5597 331 5606 794 
L 6041 666 
Q 6031 -41 5881 -200 
Q 5713 -378 4978 -378 
Q 4531 -378 4375 -322 
Q 4172 -231 4172 78 
L 4172 1153 
L 3647 1153 
Q 3619 394 3281 38 
Q 2884 -369 1919 -494 
L 1691 -91 
Q 2659 -3 2963 341 
Q 3184 591 3213 1153 
L 2541 1153 
L 2541 2938 
L 5459 2938 
L 5459 1153 
L 4606 1153 
z
M 2981 2597 
L 2981 2216 
L 5022 2216 
L 5022 2597 
L 2981 2597 
z
M 2981 1891 
L 2981 1494 
L 5022 1494 
L 5022 1891 
L 2981 1891 
z
M 1069 3731 
L 1069 5147 
L 1497 5147 
L 1497 3731 
L 2028 3731 
L 2028 3303 
L 1497 3303 
L 1497 1238 
L 1522 1244 
Q 1853 1359 2181 1491 
L 2213 1088 
Q 1397 706 447 403 
L 275 866 
Q 572 931 1025 1075 
Q 1031 1078 1050 1081 
Q 1063 1084 1069 1088 
L 1069 3303 
L 372 3303 
L 372 3731 
L 1069 3731 
z
M 4191 4659 
L 5747 4659 
L 5747 4313 
L 5059 4313 
Q 4963 4016 4791 3688 
L 6034 3688 
L 6034 3322 
L 2169 3322 
L 2169 3688 
L 3163 3688 
Q 3053 4031 2913 4313 
L 2334 4313 
L 2334 4659 
L 3744 4659 
L 3744 5313 
L 4191 5313 
L 4191 4659 
z
M 3372 4313 
Q 3506 4041 3603 3688 
L 4356 3688 
Q 4500 4000 4600 4313 
L 3372 4313 
z
" transform="scale(0.015625)"/>
      <path id="IPAexGothic-3068" d="M 5222 56 
Q 4200 -72 3450 -72 
Q 2478 -72 1941 113 
Q 1184 372 1184 1038 
Q 1184 1584 1594 2009 
Q 1941 2369 2656 2725 
Q 2231 3734 1972 4878 
L 2491 4978 
Q 2706 3884 3078 2950 
Q 4250 3447 4756 3616 
L 4978 3150 
Q 3181 2575 2409 2078 
Q 1691 1613 1691 1113 
Q 1691 403 3322 403 
Q 4125 403 5134 563 
L 5222 56 
z
" transform="scale(0.015625)"/>
      <path id="IPAexGothic-4f7f" d="M 3700 3547 
L 3700 4103 
L 1894 4103 
L 1894 4500 
L 3700 4500 
L 3700 5306 
L 4141 5306 
L 4141 4500 
L 5981 4500 
L 5981 4103 
L 4141 4103 
L 4141 3547 
L 5638 3547 
L 5638 1484 
L 5209 1484 
L 5209 1809 
L 4134 1809 
Q 4106 1163 3922 741 
Q 4784 241 6103 19 
L 5816 -419 
Q 4619 -150 3713 394 
Q 3238 -234 2059 -541 
L 1772 -138 
Q 2941 75 3366 625 
Q 2925 963 2563 1322 
L 2884 1566 
Q 3213 1228 3553 978 
Q 3684 1363 3694 1809 
L 2634 1809 
L 2634 1484 
L 2206 1484 
L 2206 3547 
L 3700 3547 
z
M 3700 3163 
L 2634 3163 
L 2634 2194 
L 3700 2194 
L 3700 3163 
z
M 4141 3163 
L 4141 2194 
L 5209 2194 
L 5209 3163 
L 4141 3163 
z
M 1509 3769 
L 1509 -447 
L 1069 -447 
L 1069 2822 
Q 813 2363 531 1972 
L 288 2363 
Q 1147 3628 1528 5331 
L 1975 5222 
Q 1747 4356 1509 3769 
z
" transform="scale(0.015625)"/>
      <path id="IPAexGothic-7528" d="M 5553 4891 
L 5553 203 
Q 5553 -53 5456 -169 
Q 5328 -316 4941 -316 
Q 4544 -316 4191 -275 
L 4113 203 
Q 4516 131 4875 131 
Q 5106 131 5106 372 
L 5106 1625 
L 3441 1625 
L 3441 -103 
L 3000 -103 
L 3000 1625 
L 1469 1625 
Q 1441 234 816 -488 
L 459 -134 
Q 1022 466 1022 1831 
L 1022 4891 
L 5553 4891 
z
M 1475 4500 
L 1475 3469 
L 3000 3469 
L 3000 4500 
L 1475 4500 
z
M 1475 3084 
L 1475 2009 
L 3000 2009 
L 3000 3084 
L 1475 3084 
z
M 5106 2009 
L 5106 3084 
L 3441 3084 
L 3441 2009 
L 5106 2009 
z
M 5106 3469 
L 5106 4500 
L 3441 4500 
L 3441 3469 
L 5106 3469 
z
" transform="scale(0.015625)"/>
      <path id="IPAexGothic-30c7" d="M 563 3072 
L 5741 3072 
L 5741 2613 
L 3578 2613 
Q 3538 1516 3134 872 
Q 2688 156 1663 -256 
L 1313 156 
Q 2338 538 2713 1166 
Q 3003 1644 3034 2613 
L 563 2613 
L 563 3072 
z
M 1406 4588 
L 4588 4588 
L 4588 4128 
L 1406 4128 
L 1406 4588 
z
M 6009 4469 
Q 5647 5009 5253 5338 
L 5553 5569 
Q 5938 5259 6328 4744 
L 6009 4469 
z
M 5413 4000 
Q 5125 4491 4678 4891 
L 4991 5131 
Q 5363 4825 5747 4275 
L 5413 4000 
z
" transform="scale(0.015625)"/>
      <path id="IPAexGothic-30bf" d="M 4978 4263 
L 5313 3988 
Q 4797 2431 4056 1459 
Q 3191 325 1822 -300 
L 1466 109 
Q 2131 381 2613 738 
Q 3053 1066 3531 1600 
Q 2919 2225 2144 2791 
Q 1603 2203 1172 1875 
L 825 2234 
Q 2316 3328 2866 5031 
L 3359 4897 
Q 3325 4775 3109 4263 
L 4978 4263 
z
M 2894 3816 
Q 2709 3522 2438 3169 
Q 3194 2616 3841 2003 
Q 4366 2806 4747 3816 
L 2894 3816 
z
" transform="scale(0.015625)"/>
     </defs>
     <use xlink:href="#IPAexGothic-672c"/>
     <use xlink:href="#IPAexGothic-65e5" x="100"/>
     <use xlink:href="#IPAexGothic-306e" x="200"/>
     <use xlink:href="#IPAexGothic-74b0" x="300"/>
     <use xlink:href="#IPAexGothic-5883" x="400"/>
     <use xlink:href="#IPAexGothic-3068" x="500"/>
     <use xlink:href="#IPAexGothic-4f7f" x="600"/>
     <use xlink:href="#IPAexGothic-7528" x="700"/>
     <use xlink:href="#IPAexGothic-30c7" x="800"/>
     <use xlink:href="#IPAexGothic-30fc" x="900"/>
     <use xlink:href="#IPAexGothic-30bf" x="1000"/>
    </g>
   </g>
   <g id="text_3">
    <!-- 🖥️ 環境：ローカル Jupyter Lab（インターネット接続不要） -->
    <g style="fill: #1a5276" transform="translate(41.04 80.087177) scale(0.125 -0.125)">
     <defs>
      <path id="IPAexGothic-1f5a5" d="M 5759 -641 
L 641 -641 
L 641 5503 
L 5759 5503 
L 5759 -641 
z
M 5216 5172 
L 1191 5172 
L 3206 2694 
L 5216 5172 
z
M 5428 -53 
L 5428 4903 
L 3419 2425 
L 5428 -53 
z
M 2988 2425 
L 972 4916 
L 972 -59 
L 2988 2425 
z
M 5209 -309 
L 3206 2163 
L 1197 -309 
L 5209 -309 
z
" transform="scale(0.015625)"/>
      <path id="IPAexGothic-fe0f" d="M 5759 -641 
L 641 -641 
L 641 5503 
L 5759 5503 
L 5759 -641 
z
M 5216 5172 
L 1191 5172 
L 3206 2694 
L 5216 5172 
z
M 5428 -53 
L 5428 4903 
L 3419 2425 
L 5428 -53 
z
M 2988 2425 
L 972 4916 
L 972 -59 
L 2988 2425 
z
M 5209 -309 
L 3206 2163 
L 1197 -309 
L 5209 -309 
z
" transform="scale(0.015625)"/>
      <path id="IPAexGothic-20" transform="scale(0.015625)"/>
      <path id="IPAexGothic-ff1a" d="M 2822 3366 
L 3578 3366 
L 3578 2609 
L 2822 2609 
L 2822 3366 
z
M 2822 1081 
L 3578 1081 
L 3578 325 
L 2822 325 
L 2822 1081 
z
" transform="scale(0.015625)"/>
      <path id="IPAexGothic-30ed" d="M 1147 4269 
L 5250 4269 
L 5250 172 
L 4725 172 
L 4725 569 
L 1672 569 
L 1672 172 
L 1147 172 
L 1147 4269 
z
M 1672 3781 
L 1672 1063 
L 4725 1063 
L 4725 3781 
L 1672 3781 
z
" transform="scale(0.015625)"/>
      <path id="IPAexGothic-30ab" d="M 2734 4981 
L 3247 4981 
L 3247 3694 
L 5250 3694 
L 5250 3491 
L 5250 3425 
Q 5250 1334 5019 500 
Q 4856 -84 4297 -84 
Q 3788 -84 3247 172 
L 3228 731 
Q 3859 441 4200 441 
Q 4484 441 4553 763 
Q 4706 1478 4738 3234 
L 3206 3234 
Q 3025 906 1159 -134 
L 769 263 
Q 2519 1134 2700 3209 
L 916 3209 
L 916 3669 
L 2734 3669 
L 2734 4981 
z
" transform="scale(0.015625)"/>
      <path id="IPAexGothic-30eb" d="M 353 331 
Q 1313 994 1544 2022 
Q 1684 2650 1684 4397 
L 2203 4397 
L 2203 4153 
L 2203 4116 
Q 2203 2259 1934 1491 
Q 1619 588 744 -38 
L 353 331 
z
M 3125 4666 
L 3650 4666 
L 3650 769 
Q 4875 1488 5672 2734 
L 6000 2278 
Q 5075 966 3516 63 
L 3125 359 
L 3125 4666 
z
" transform="scale(0.015625)"/>
      <path id="IPAexGothic-4a" d="M 1819 4634 
L 1819 1234 
Q 1819 -31 763 -31 
Q 303 -31 -125 209 
L 84 644 
Q 378 447 694 447 
Q 1250 447 1250 1203 
L 1250 4634 
L 1819 4634 
z
" transform="scale(0.015625)"/>
      <path id="IPAexGothic-75" d="M 3284 63 
L 2772 63 
L 2772 644 
Q 2300 0 1625 0 
Q 1072 0 763 375 
Q 519 678 519 1241 
L 519 3250 
L 1069 3250 
L 1069 1259 
Q 1069 466 1734 466 
Q 2406 466 2734 1291 
L 2734 3250 
L 3284 3250 
L 3284 63 
z
" transform="scale(0.015625)"/>
      <path id="IPAexGothic-70" d="M 1075 2688 
Q 1525 3341 2206 3341 
Q 2769 3341 3172 2938 
Q 3641 2469 3641 1644 
Q 3641 841 3178 372 
Q 2775 -31 2200 -31 
Q 1569 -31 1106 497 
L 1106 -1216 
L 563 -1216 
L 563 3250 
L 1075 3250 
L 1075 2688 
z
M 1106 1950 
L 1106 1291 
Q 1106 897 1516 600 
Q 1791 403 2106 403 
Q 2469 403 2725 659 
Q 3066 997 3066 1631 
Q 3066 2200 2784 2559 
Q 2503 2900 2100 2900 
Q 1656 2900 1338 2484 
Q 1106 2184 1106 1950 
z
" transform="scale(0.015625)"/>
      <path id="IPAexGothic-79" d="M 3122 3250 
L 1575 -488 
Q 1278 -1203 550 -1203 
L 478 -1203 
L 344 -703 
L 447 -703 
Q 969 -703 1150 -238 
L 1356 275 
L 38 3250 
L 659 3250 
L 1363 1459 
Q 1528 1025 1606 781 
L 1625 781 
Q 1750 1169 1863 1459 
L 2528 3250 
L 3122 3250 
z
" transform="scale(0.015625)"/>
      <path id="IPAexGothic-74" d="M 2125 241 
Q 1769 -6 1397 -6 
Q 653 -6 653 831 
L 653 2859 
L 219 2859 
L 219 3250 
L 653 3250 
L 653 3966 
L 1178 4228 
L 1178 3250 
L 2063 3250 
L 2063 2859 
L 1178 2859 
L 1178 906 
Q 1178 416 1513 416 
Q 1738 416 1941 588 
L 2125 241 
z
" transform="scale(0.015625)"/>
      <path id="IPAexGothic-65" d="M 863 1594 
Q 891 1041 1209 722 
Q 1534 397 1997 397 
Q 2606 397 2963 966 
L 3322 728 
Q 2869 -31 1931 -31 
Q 1222 -31 766 422 
Q 306 884 306 1641 
Q 306 2444 788 2925 
Q 1216 3353 1856 3353 
Q 2459 3353 2866 2956 
Q 3322 2494 3322 1722 
L 3322 1594 
L 863 1594 
z
M 2756 1997 
Q 2709 2431 2450 2681 
Q 2194 2938 1844 2938 
Q 1438 2938 1150 2591 
Q 953 2356 894 1997 
L 2756 1997 
z
" transform="scale(0.015625)"/>
      <path id="IPAexGothic-72" d="M 2309 3316 
L 2213 2769 
Q 2106 2791 2022 2791 
Q 1653 2791 1413 2444 
Q 1113 2006 1113 1675 
L 1113 63 
L 563 63 
L 563 3250 
L 1081 3250 
L 1056 2303 
L 1069 2303 
Q 1422 3341 2097 3341 
Q 2206 3341 2309 3316 
z
" transform="scale(0.015625)"/>
      <path id="IPAexGothic-4c" d="M 3347 63 
L 609 63 
L 609 4634 
L 1178 4634 
L 1178 563 
L 3347 563 
L 3347 63 
z
" transform="scale(0.015625)"/>
      <path id="IPAexGothic-61" d="M 3156 63 
L 2672 63 
Q 2559 303 2531 556 
L 2509 556 
Q 2147 -25 1428 -25 
Q 934 -25 622 288 
Q 347 563 347 959 
Q 347 1947 2050 1997 
L 2478 2009 
L 2478 2175 
Q 2478 2509 2288 2700 
Q 2088 2900 1775 2900 
Q 1238 2900 969 2378 
L 494 2597 
Q 938 3328 1788 3328 
Q 2375 3328 2691 3000 
Q 2984 2706 2984 2169 
L 2984 997 
Q 2984 400 3156 63 
z
M 2491 1625 
L 2141 1619 
Q 903 1591 903 953 
Q 903 728 1050 581 
Q 1231 403 1525 403 
Q 1934 403 2234 703 
Q 2491 969 2491 1344 
L 2491 1625 
z
" transform="scale(0.015625)"/>
      <path id="IPAexGothic-62" d="M 1125 2731 
Q 1550 3341 2219 3341 
Q 2788 3341 3191 2938 
Q 3659 2469 3659 1644 
Q 3659 838 3191 372 
Q 2788 -31 2206 -31 
Q 1559 -31 1088 516 
L 1009 44 
L 581 44 
L 581 4794 
L 1125 4794 
L 1125 2731 
z
M 1125 1997 
L 1125 1253 
Q 1125 888 1528 600 
Q 1803 403 2119 403 
Q 2488 403 2744 659 
Q 3084 1009 3084 1631 
Q 3084 2194 2803 2553 
Q 2525 2900 2125 2900 
Q 1759 2900 1438 2578 
Q 1125 2266 1125 1997 
z
" transform="scale(0.015625)"/>
      <path id="IPAexGothic-ff08" d="M 5419 -434 
Q 4197 769 4197 2438 
Q 4197 4097 5419 5300 
L 5919 5300 
Q 4678 4078 4678 2425 
Q 4678 788 5919 -434 
L 5419 -434 
z
" transform="scale(0.015625)"/>
      <path id="IPAexGothic-30a4" d="M 3131 -231 
L 3131 2875 
Q 2091 2088 1106 1656 
L 781 2059 
Q 3016 3000 4469 4916 
L 4916 4641 
Q 4384 3938 3675 3316 
L 3675 -231 
L 3131 -231 
z
" transform="scale(0.015625)"/>
      <path id="IPAexGothic-30cd" d="M 1288 3834 
L 4803 3834 
L 5066 3559 
Q 4419 2813 3466 2134 
L 3466 -294 
L 2953 -294 
L 2953 1800 
Q 1963 1203 1056 891 
L 731 1328 
Q 1797 1631 2844 2281 
Q 3675 2794 4253 3381 
L 1288 3381 
L 1288 3834 
z
M 3669 4031 
Q 3094 4459 2291 4850 
L 2572 5222 
Q 3334 4884 4000 4428 
L 3669 4031 
z
M 5441 838 
Q 4781 1413 3859 1966 
L 4159 2316 
Q 5078 1819 5825 1247 
L 5441 838 
z
" transform="scale(0.015625)"/>
      <path id="IPAexGothic-30c3" d="M 1775 1984 
Q 1553 2666 1275 3175 
L 1716 3391 
Q 2034 2866 2247 2209 
L 1775 1984 
z
M 3003 2297 
Q 2813 2978 2522 3469 
L 2978 3681 
Q 3291 3166 3484 2522 
L 3003 2297 
z
M 1928 372 
Q 3094 744 3731 1569 
Q 4275 2263 4469 3525 
L 4975 3406 
Q 4734 1975 4016 1119 
Q 3406 391 2266 -44 
L 1928 372 
z
" transform="scale(0.015625)"/>
      <path id="IPAexGothic-30c8" d="M 2284 4997 
L 2803 4997 
L 2803 3206 
Q 4088 2619 5216 1888 
L 4878 1369 
Q 3819 2175 2803 2688 
L 2803 -184 
L 2284 -184 
L 2284 4997 
z
" transform="scale(0.015625)"/>
      <path id="IPAexGothic-63a5" d="M 3756 2003 
L 5997 2003 
L 5997 1619 
L 5178 1619 
Q 4994 997 4628 550 
Q 5244 294 5931 -31 
L 5581 -428 
Q 4841 -22 4306 231 
Q 3616 -309 2344 -441 
L 2113 -44 
Q 3238 50 3866 422 
L 3828 434 
Q 3225 681 2644 856 
L 2709 953 
Q 2934 1291 3103 1619 
L 2169 1619 
L 2169 2003 
L 3291 2003 
Q 3453 2347 3572 2688 
L 2094 2688 
L 2094 3066 
L 3206 3066 
L 3194 3128 
Q 3050 3716 2869 4128 
L 2284 4128 
L 2284 4500 
L 3809 4500 
L 3809 5313 
L 4250 5313 
L 4250 4500 
L 5813 4500 
L 5813 4128 
L 5203 4128 
Q 5022 3506 4825 3066 
L 6041 3066 
L 6041 2688 
L 4019 2688 
Q 3913 2378 3756 2003 
z
M 3578 1619 
Q 3431 1316 3266 1044 
Q 3594 944 4084 763 
L 4219 709 
Q 4538 1088 4716 1619 
L 3578 1619 
z
M 3334 4128 
L 3353 4078 
Q 3544 3550 3656 3066 
L 4391 3066 
Q 4575 3513 4734 4128 
L 3334 4128 
z
M 1184 4013 
L 1184 5300 
L 1613 5300 
L 1613 4013 
L 2284 4013 
L 2284 3597 
L 1613 3597 
L 1613 2375 
Q 1984 2481 2309 2591 
L 2334 2222 
Q 1963 2081 1613 1972 
L 1613 6 
Q 1613 -272 1491 -363 
Q 1391 -447 1088 -447 
Q 759 -447 519 -403 
L 441 56 
Q 716 -6 972 -6 
Q 1184 -6 1184 172 
L 1184 1838 
L 1138 1825 
Q 753 1706 409 1619 
L 275 2047 
Q 863 2169 1184 2259 
L 1184 3597 
L 378 3597 
L 378 4013 
L 1184 4013 
z
" transform="scale(0.015625)"/>
      <path id="IPAexGothic-7d9a" d="M 1234 3084 
Q 788 3713 372 4128 
L 659 4422 
Q 766 4316 909 4153 
Q 1269 4681 1534 5331 
L 1950 5119 
Q 1541 4366 1144 3859 
Q 1363 3566 1466 3419 
Q 1897 4100 2138 4550 
L 2522 4313 
Q 1816 3163 1300 2572 
Q 1613 2581 2163 2625 
Q 2059 2891 1919 3150 
L 2272 3297 
Q 2556 2781 2784 2100 
L 2400 1913 
Q 2328 2166 2278 2309 
Q 1938 2256 1772 2234 
L 1772 -447 
L 1350 -447 
L 1350 2181 
L 1288 2175 
Q 997 2144 422 2106 
L 281 2534 
Q 478 2541 850 2553 
Q 1022 2778 1234 3084 
z
M 4134 4538 
L 4134 5313 
L 4563 5313 
L 4563 4538 
L 5997 4538 
L 5997 4153 
L 4563 4153 
L 4563 3572 
L 5869 3572 
L 5869 3194 
L 2913 3194 
L 2913 3572 
L 4134 3572 
L 4134 4153 
L 2747 4153 
L 2747 4538 
L 4134 4538 
z
M 5966 2725 
L 5966 1559 
L 5550 1559 
L 5550 2341 
L 3231 2341 
L 3231 1516 
L 2816 1516 
L 2816 2725 
L 5966 2725 
z
M 344 197 
Q 559 781 647 1759 
L 1056 1709 
Q 978 678 763 -13 
L 344 197 
z
M 2297 319 
Q 2169 1134 1966 1759 
L 2322 1869 
Q 2572 1266 2725 494 
L 2297 319 
z
M 4575 2069 
L 4997 2069 
L 4997 225 
Q 4997 84 5144 75 
Q 5263 63 5266 63 
Q 5544 63 5591 228 
Q 5631 363 5669 991 
L 6078 872 
Q 6031 -66 5859 -225 
Q 5709 -366 5228 -366 
Q 4834 -366 4691 -269 
Q 4575 -194 4575 25 
L 4575 2069 
z
M 2644 -134 
Q 3341 172 3553 653 
Q 3719 1034 3719 2069 
L 4141 2069 
Q 4131 913 3928 459 
Q 3650 -147 2925 -500 
L 2644 -134 
z
" transform="scale(0.015625)"/>
      <path id="IPAexGothic-4e0d" d="M 3706 4309 
Q 3584 4078 3450 3863 
L 3425 3822 
L 3425 -447 
L 2925 -447 
L 2925 3113 
Q 1959 1919 697 1166 
L 372 1584 
Q 2197 2581 3138 4309 
L 513 4309 
L 513 4756 
L 5891 4756 
L 5891 4309 
L 3706 4309 
z
M 5588 1350 
Q 4669 2347 3681 3078 
L 4000 3413 
Q 5075 2675 5997 1753 
L 5588 1350 
z
" transform="scale(0.015625)"/>
      <path id="IPAexGothic-8981" d="M 2278 4025 
L 2278 4581 
L 528 4581 
L 528 4978 
L 5856 4978 
L 5856 4581 
L 4081 4581 
L 4081 4025 
L 5522 4025 
L 5522 2547 
L 863 2547 
L 863 4025 
L 2278 4025 
z
M 2694 4025 
L 3659 4025 
L 3659 4581 
L 2694 4581 
L 2694 4025 
z
M 2278 3666 
L 1316 3666 
L 1316 2906 
L 2278 2906 
L 2278 3666 
z
M 2694 3666 
L 2694 2906 
L 3659 2906 
L 3659 3666 
L 2694 3666 
z
M 4081 3666 
L 4081 2906 
L 5075 2906 
L 5075 3666 
L 4081 3666 
z
M 3066 338 
Q 2547 503 1694 722 
L 1503 775 
Q 1816 1141 2066 1503 
L 447 1503 
L 447 1900 
L 2316 1900 
Q 2497 2225 2641 2516 
L 3084 2366 
Q 2984 2172 2834 1900 
L 5950 1900 
L 5950 1503 
L 4619 1503 
Q 4369 878 3988 484 
Q 4750 263 5797 -91 
L 5413 -488 
Q 4441 -100 3597 172 
Q 2706 -406 869 -531 
L 625 -97 
Q 2122 -28 3066 338 
z
M 3513 619 
Q 3934 1025 4134 1503 
L 2597 1503 
Q 2413 1213 2238 984 
L 2213 953 
Q 2656 853 3513 619 
z
" transform="scale(0.015625)"/>
      <path id="IPAexGothic-ff09" d="M 481 -434 
Q 1722 788 1722 2431 
Q 1722 4066 481 5300 
L 981 5300 
Q 2203 4097 2203 2431 
Q 2203 769 981 -434 
L 481 -434 
z
" transform="scale(0.015625)"/>
     </defs>
     <use xlink:href="#IPAexGothic-1f5a5"/>
     <use xlink:href="#IPAexGothic-fe0f" x="100"/>
     <use xlink:href="#IPAexGothic-20" x="200"/>
     <use xlink:href="#IPAexGothic-74b0" x="227.001953"/>
     <use xlink:href="#IPAexGothic-5883" x="327.001953"/>
     <use xlink:href="#IPAexGothic-ff1a" x="427.001953"/>
     <use xlink:href="#IPAexGothic-30ed" x="527.001953"/>
     <use xlink:href="#IPAexGothic-30fc" x="627.001953"/>
     <use xlink:href="#IPAexGothic-30ab" x="727.001953"/>
     <use xlink:href="#IPAexGothic-30eb" x="827.001953"/>
     <use xlink:href="#IPAexGothic-20" x="927.001953"/>
     <use xlink:href="#IPAexGothic-4a" x="954.003906"/>
     <use xlink:href="#IPAexGothic-75" x="991.992188"/>
     <use xlink:href="#IPAexGothic-70" x="1052.392578"/>
     <use xlink:href="#IPAexGothic-79" x="1114.501953"/>
     <use xlink:href="#IPAexGothic-74" x="1163.720703"/>
     <use xlink:href="#IPAexGothic-65" x="1198.339844"/>
     <use xlink:href="#IPAexGothic-72" x="1255.224609"/>
     <use xlink:href="#IPAexGothic-20" x="1292.236328"/>
     <use xlink:href="#IPAexGothic-4c" x="1319.238281"/>
     <use xlink:href="#IPAexGothic-61" x="1371.826172"/>
     <use xlink:href="#IPAexGothic-62" x="1426.806641"/>
     <use xlink:href="#IPAexGothic-ff08" x="1489.208984"/>
     <use xlink:href="#IPAexGothic-30a4" x="1589.208984"/>
     <use xlink:href="#IPAexGothic-30f3" x="1689.208984"/>
     <use xlink:href="#IPAexGothic-30bf" x="1789.208984"/>
     <use xlink:href="#IPAexGothic-30fc" x="1889.208984"/>
     <use xlink:href="#IPAexGothic-30cd" x="1989.208984"/>
     <use xlink:href="#IPAexGothic-30c3" x="2089.208984"/>
     <use xlink:href="#IPAexGothic-30c8" x="2189.208984"/>
     <use xlink:href="#IPAexGothic-63a5" x="2289.208984"/>
     <use xlink:href="#IPAexGothic-7d9a" x="2389.208984"/>
     <use xlink:href="#IPAexGothic-4e0d" x="2489.208984"/>
     <use xlink:href="#IPAexGothic-8981" x="2589.208984"/>
     <use xlink:href="#IPAexGothic-ff09" x="2689.208984"/>
    </g>
   </g>
   <g id="text_4">
    <!-- 📦 ライブラリ：インストール済み環境のみ使用（追加インストール不要） -->
    <g style="fill: #1a5276" transform="translate(41.04 94.756929) scale(0.125 -0.125)">
     <defs>
      <path id="IPAexGothic-1f4e6" d="M 5759 -641 
L 641 -641 
L 641 5503 
L 5759 5503 
L 5759 -641 
z
M 5216 5172 
L 1191 5172 
L 3206 2694 
L 5216 5172 
z
M 5428 -53 
L 5428 4903 
L 3419 2425 
L 5428 -53 
z
M 2988 2425 
L 972 4916 
L 972 -59 
L 2988 2425 
z
M 5209 -309 
L 3206 2163 
L 1197 -309 
L 5209 -309 
z
" transform="scale(0.015625)"/>
      <path id="IPAexGothic-30e9" d="M 1447 4709 
L 4922 4709 
L 4922 4234 
L 1447 4234 
L 1447 4709 
z
M 897 3303 
L 5172 3303 
L 5478 3013 
Q 5069 1669 4219 875 
Q 3475 181 2306 -181 
L 1972 294 
Q 4150 784 4834 2828 
L 897 2828 
L 897 3303 
z
" transform="scale(0.015625)"/>
      <path id="IPAexGothic-30d6" d="M 4806 4250 
L 5106 3975 
Q 4866 2353 4063 1356 
Q 3275 384 1869 -141 
L 1503 306 
Q 4050 1084 4531 3775 
L 947 3713 
L 947 4197 
L 4806 4250 
z
M 6047 4475 
Q 5688 5016 5294 5344 
L 5594 5575 
Q 5978 5266 6369 4750 
L 6047 4475 
z
M 5453 4006 
Q 5163 4497 4716 4897 
L 5031 5141 
Q 5400 4831 5784 4281 
L 5453 4006 
z
" transform="scale(0.015625)"/>
      <path id="IPAexGothic-30b9" d="M 4359 4481 
L 4716 4147 
Q 4328 3072 3647 2150 
Q 4659 1434 5659 453 
L 5234 19 
Q 4256 1088 3353 1778 
Q 2372 597 1044 -31 
L 653 403 
Q 3128 1453 4097 4000 
L 1241 3963 
L 1228 4453 
L 4359 4481 
z
" transform="scale(0.015625)"/>
      <path id="IPAexGothic-6e08" d="M 5266 4116 
Q 4938 3547 4359 3119 
Q 5059 2828 6169 2694 
L 5950 2291 
Q 5622 2341 5400 2388 
L 5356 2400 
L 5356 -447 
L 4916 -447 
L 4916 775 
L 2978 775 
Q 2834 -22 2056 -550 
L 1756 -209 
Q 2316 122 2491 647 
Q 2600 975 2600 1453 
L 2600 2313 
Q 2347 2228 1972 2138 
L 1728 2541 
Q 2747 2697 3578 3100 
Q 2903 3547 2556 4116 
L 1959 4116 
L 1959 4494 
L 3694 4494 
L 3694 5313 
L 4141 5313 
L 4141 4494 
L 5978 4494 
L 5978 4116 
L 5266 4116 
z
M 4769 4116 
L 3028 4116 
Q 3366 3666 3956 3316 
Q 4425 3634 4769 4116 
z
M 3041 2453 
L 3041 2088 
L 4916 2088 
L 4916 2503 
Q 4419 2650 3981 2869 
Q 3575 2631 3041 2453 
z
M 4916 1716 
L 3041 1716 
L 3041 1600 
Q 3041 1391 3028 1147 
L 4916 1147 
L 4916 1716 
z
M 366 -78 
Q 925 816 1300 1894 
L 1666 1606 
Q 1309 541 744 -428 
L 366 -78 
z
M 1447 3884 
Q 1088 4353 556 4775 
L 859 5106 
Q 1375 4719 1759 4256 
L 1447 3884 
z
M 1281 2381 
Q 872 2894 378 3256 
L 678 3591 
Q 1138 3263 1600 2753 
L 1281 2381 
z
" transform="scale(0.015625)"/>
      <path id="IPAexGothic-307f" d="M 1291 4416 
Q 2209 4456 3341 4647 
L 3666 4409 
Q 3478 3597 3134 2703 
Q 3959 2575 4581 2300 
Q 4669 2759 4678 3488 
L 5163 3381 
Q 5134 2672 5016 2106 
Q 5519 1856 6016 1519 
L 5722 1081 
Q 5184 1459 4888 1613 
Q 4572 441 3456 -238 
L 3072 109 
Q 4150 678 4472 1831 
Q 3706 2200 2969 2284 
Q 2038 200 1319 200 
Q 1013 200 775 525 
Q 569 819 569 1197 
Q 569 1756 1081 2172 
Q 1681 2647 2663 2716 
Q 2900 3313 3084 4159 
Q 2278 4022 1447 3956 
L 1291 4416 
z
M 2481 2291 
Q 1644 2206 1241 1734 
Q 1038 1494 1038 1178 
Q 1038 1019 1100 897 
Q 1188 706 1338 706 
Q 1513 706 1797 1097 
Q 2131 1534 2481 2291 
z
" transform="scale(0.015625)"/>
      <path id="IPAexGothic-8ffd" d="M 1825 781 
Q 2088 459 2469 313 
Q 2891 159 4184 159 
Q 5219 159 6119 222 
Q 6003 9 5944 -263 
Q 5016 -294 4422 -294 
Q 2788 -294 2259 -56 
Q 1834 131 1594 491 
Q 1106 -72 659 -444 
L 366 44 
Q 875 344 1372 775 
L 1372 2303 
L 397 2303 
L 397 2731 
L 1825 2731 
L 1825 781 
z
M 3563 4513 
Q 3669 4841 3750 5294 
L 4263 5203 
Q 4106 4753 4013 4513 
L 5497 4513 
L 5497 2981 
L 2934 2981 
L 2934 2394 
L 5663 2394 
L 5663 531 
L 5225 531 
L 5225 844 
L 2934 844 
L 2934 459 
L 2497 459 
L 2497 4513 
L 3563 4513 
z
M 2934 4141 
L 2934 3359 
L 5063 3359 
L 5063 4141 
L 2934 4141 
z
M 2934 2009 
L 2934 1228 
L 5225 1228 
L 5225 2009 
L 2934 2009 
z
M 1606 3622 
Q 1253 4113 622 4703 
L 959 4997 
Q 1484 4578 1966 3975 
L 1606 3622 
z
" transform="scale(0.015625)"/>
      <path id="IPAexGothic-52a0" d="M 1909 3603 
Q 1888 825 656 -428 
L 316 -56 
Q 1413 916 1463 3553 
L 450 3553 
L 450 3969 
L 1463 3969 
L 1463 5144 
L 1909 5144 
L 1909 4019 
L 3200 4019 
Q 3163 944 3016 219 
Q 2947 -88 2791 -197 
Q 2641 -288 2363 -288 
Q 2000 -288 1672 -228 
L 1603 256 
Q 1919 153 2241 153 
Q 2550 153 2600 500 
Q 2725 1353 2753 3309 
L 2753 3603 
L 1909 3603 
z
M 5819 4313 
L 5819 -306 
L 5378 -306 
L 5378 109 
L 4219 109 
L 4219 -366 
L 3778 -366 
L 3778 4313 
L 5819 4313 
z
M 4219 3897 
L 4219 525 
L 5378 525 
L 5378 3897 
L 4219 3897 
z
" transform="scale(0.015625)"/>
     </defs>
     <use xlink:href="#IPAexGothic-1f4e6"/>
     <use xlink:href="#IPAexGothic-20" x="100"/>
     <use xlink:href="#IPAexGothic-30e9" x="127.001953"/>
     <use xlink:href="#IPAexGothic-30a4" x="227.001953"/>
     <use xlink:href="#IPAexGothic-30d6" x="327.001953"/>
     <use xlink:href="#IPAexGothic-30e9" x="427.001953"/>
     <use xlink:href="#IPAexGothic-30ea" x="527.001953"/>
     <use xlink:href="#IPAexGothic-ff1a" x="627.001953"/>
     <use xlink:href="#IPAexGothic-30a4" x="727.001953"/>
     <use xlink:href="#IPAexGothic-30f3" x="827.001953"/>
     <use xlink:href="#IPAexGothic-30b9" x="927.001953"/>
     <use xlink:href="#IPAexGothic-30c8" x="1027.001953"/>
     <use xlink:href="#IPAexGothic-30fc" x="1127.001953"/>
     <use xlink:href="#IPAexGothic-30eb" x="1227.001953"/>
     <use xlink:href="#IPAexGothic-6e08" x="1327.001953"/>
     <use xlink:href="#IPAexGothic-307f" x="1427.001953"/>
     <use xlink:href="#IPAexGothic-74b0" x="1527.001953"/>
     <use xlink:href="#IPAexGothic-5883" x="1627.001953"/>
     <use xlink:href="#IPAexGothic-306e" x="1727.001953"/>
     <use xlink:href="#IPAexGothic-307f" x="1827.001953"/>
     <use xlink:href="#IPAexGothic-4f7f" x="1927.001953"/>
     <use xlink:href="#IPAexGothic-7528" x="2027.001953"/>
     <use xlink:href="#IPAexGothic-ff08" x="2127.001953"/>
     <use xlink:href="#IPAexGothic-8ffd" x="2227.001953"/>
     <use xlink:href="#IPAexGothic-52a0" x="2327.001953"/>
     <use xlink:href="#IPAexGothic-30a4" x="2427.001953"/>
     <use xlink:href="#IPAexGothic-30f3" x="2527.001953"/>
     <use xlink:href="#IPAexGothic-30b9" x="2627.001953"/>
     <use xlink:href="#IPAexGothic-30c8" x="2727.001953"/>
     <use xlink:href="#IPAexGothic-30fc" x="2827.001953"/>
     <use xlink:href="#IPAexGothic-30eb" x="2927.001953"/>
     <use xlink:href="#IPAexGothic-4e0d" x="3027.001953"/>
     <use xlink:href="#IPAexGothic-8981" x="3127.001953"/>
     <use xlink:href="#IPAexGothic-ff09" x="3227.001953"/>
    </g>
   </g>
   <g id="text_5">
    <!-- チャプター -->
    <g style="fill: #ffffff" transform="translate(38.88 124.174609) scale(0.115 -0.115)">
     <defs>
      <path id="IPAexGothic-30c1" d="M 3088 2853 
L 3088 3981 
Q 2359 3847 1531 3797 
L 1288 4238 
Q 3200 4344 4553 4872 
L 4909 4456 
Q 4244 4216 3606 4078 
L 3606 2913 
L 5806 2913 
L 5806 2459 
L 3600 2459 
Q 3559 1422 3188 850 
Q 2722 138 1738 -256 
L 1347 153 
Q 2319 500 2709 1081 
Q 3031 1563 3081 2400 
L 597 2400 
L 597 2853 
L 3088 2853 
z
" transform="scale(0.015625)"/>
      <path id="IPAexGothic-30e3" d="M 2559 3903 
L 2803 2816 
L 4863 3169 
L 5191 2894 
Q 4672 1875 4103 1203 
L 3666 1447 
Q 4175 2013 4525 2688 
L 2900 2388 
L 3450 -116 
L 2969 -231 
L 2419 2297 
L 1172 2069 
L 1075 2516 
L 2328 2731 
L 2094 3809 
L 2559 3903 
z
" transform="scale(0.015625)"/>
      <path id="IPAexGothic-30d7" d="M 4825 4275 
L 5125 4000 
Q 4884 2378 4081 1381 
Q 3294 413 1888 -116 
L 1522 331 
Q 4069 1113 4550 3803 
L 966 3738 
L 966 4225 
L 4825 4275 
z
M 5597 5509 
Q 5906 5509 6119 5275 
Q 6303 5075 6303 4806 
Q 6303 4494 6069 4281 
Q 5866 4097 5597 4097 
Q 5284 4097 5072 4331 
Q 4888 4534 4888 4806 
Q 4888 5116 5122 5328 
Q 5328 5509 5597 5509 
z
M 5597 5228 
Q 5409 5228 5278 5088 
Q 5169 4966 5169 4806 
Q 5169 4616 5309 4488 
Q 5434 4378 5597 4378 
Q 5784 4378 5913 4519 
Q 6022 4641 6022 4806 
Q 6022 4991 5881 5119 
Q 5759 5228 5597 5228 
z
" transform="scale(0.015625)"/>
     </defs>
     <use xlink:href="#IPAexGothic-30c1"/>
     <use xlink:href="#IPAexGothic-30e3" x="100"/>
     <use xlink:href="#IPAexGothic-30d7" x="200"/>
     <use xlink:href="#IPAexGothic-30bf" x="300"/>
     <use xlink:href="#IPAexGothic-30fc" x="400"/>
    </g>
   </g>
   <g id="text_6">
    <!-- データセット -->
    <g style="fill: #ffffff" transform="translate(110.88 124.174609) scale(0.115 -0.115)">
     <defs>
      <path id="IPAexGothic-30bb" d="M 2059 4878 
L 2584 4878 
L 2584 3397 
L 5291 3731 
L 5606 3444 
Q 4838 2313 4006 1556 
L 3569 1875 
Q 4297 2459 4844 3231 
L 2584 2931 
L 2584 978 
Q 2584 734 2738 669 
Q 2922 584 3616 584 
Q 4419 584 5425 697 
L 5444 172 
Q 4563 103 3844 103 
Q 2678 103 2359 256 
Q 2059 403 2059 863 
L 2059 2859 
L 638 2675 
L 588 3150 
L 2059 3334 
L 2059 4878 
z
" transform="scale(0.015625)"/>
     </defs>
     <use xlink:href="#IPAexGothic-30c7"/>
     <use xlink:href="#IPAexGothic-30fc" x="100"/>
     <use xlink:href="#IPAexGothic-30bf" x="200"/>
     <use xlink:href="#IPAexGothic-30bb" x="300"/>
     <use xlink:href="#IPAexGothic-30c3" x="400"/>
     <use xlink:href="#IPAexGothic-30c8" x="500"/>
    </g>
   </g>
   <g id="text_7">
    <!-- 概要 -->
    <g style="fill: #ffffff" transform="translate(276.48 124.174609) scale(0.115 -0.115)">
     <defs>
      <path id="IPAexGothic-6982" d="M 1119 2613 
Q 806 1556 381 850 
L 153 1300 
Q 753 2272 1063 3603 
L 294 3603 
L 294 4013 
L 1119 4013 
L 1119 5306 
L 1522 5306 
L 1522 4013 
L 2078 4013 
L 2078 3603 
L 1522 3603 
L 1522 2956 
Q 1900 2569 2231 2181 
L 1997 1772 
Q 1769 2153 1522 2478 
L 1522 -447 
L 1119 -447 
L 1119 2613 
z
M 5391 4563 
Q 5372 3697 5275 2881 
L 6081 2881 
L 6081 2491 
L 5209 2491 
Q 5209 2484 5103 2066 
L 5294 2066 
L 5294 191 
Q 5294 50 5441 50 
Q 5584 50 5613 197 
Q 5663 397 5672 972 
L 6063 825 
Q 6053 22 5922 -194 
Q 5794 -378 5447 -378 
Q 5069 -378 4975 -281 
Q 4897 -206 4897 19 
L 4897 1497 
Q 4434 369 3253 -506 
L 2963 -172 
Q 4488 872 4813 2491 
L 3706 2491 
L 3706 2206 
L 2631 2206 
L 2631 800 
Q 3088 1053 3425 1259 
Q 3259 1597 3097 1834 
L 3419 2009 
Q 3778 1469 4019 922 
L 3681 653 
Q 3644 747 3566 947 
Q 2859 444 2028 -6 
L 1806 409 
Q 2169 566 2247 606 
L 2247 5050 
L 3706 5050 
L 3706 2881 
L 4159 2881 
L 4159 4563 
L 3878 4563 
L 3878 4953 
L 5881 4953 
L 5881 4563 
L 5391 4563 
z
M 5006 4563 
L 4531 4563 
L 4531 2881 
L 4884 2881 
Q 4984 3706 5006 4563 
z
M 3328 4666 
L 2631 4666 
L 2631 3834 
L 3328 3834 
L 3328 4666 
z
M 3328 3463 
L 2631 3463 
L 2631 2591 
L 3328 2591 
L 3328 3463 
z
" transform="scale(0.015625)"/>
     </defs>
     <use xlink:href="#IPAexGothic-6982"/>
     <use xlink:href="#IPAexGothic-8981" x="100"/>
    </g>
   </g>
   <g id="text_8">
    <!-- 読み込み方 -->
    <g style="fill: #ffffff" transform="translate(557.28 124.174609) scale(0.115 -0.115)">
     <defs>
      <path id="IPAexGothic-8aad" d="M 2284 1684 
L 2284 -128 
L 919 -128 
L 919 -447 
L 509 -447 
L 509 1684 
L 2284 1684 
z
M 919 1313 
L 919 244 
L 1875 244 
L 1875 1313 
L 919 1313 
z
M 3953 4538 
L 3953 5313 
L 4394 5313 
L 4394 4538 
L 5994 4538 
L 5994 4153 
L 4394 4153 
L 4394 3572 
L 5822 3572 
L 5822 3194 
L 2653 3194 
L 2653 3572 
L 3953 3572 
L 3953 4153 
L 2506 4153 
L 2506 4538 
L 3953 4538 
z
M 5950 2725 
L 5950 1559 
L 5522 1559 
L 5522 2341 
L 2928 2341 
L 2928 1516 
L 2500 1516 
L 2500 2725 
L 5950 2725 
z
M 600 5044 
L 2194 5044 
L 2194 4659 
L 600 4659 
L 600 5044 
z
M 331 4206 
L 2384 4206 
L 2384 3816 
L 331 3816 
L 331 4206 
z
M 600 3359 
L 2194 3359 
L 2194 2975 
L 600 2975 
L 600 3359 
z
M 600 2522 
L 2194 2522 
L 2194 2138 
L 600 2138 
L 600 2522 
z
M 2353 -91 
Q 3025 194 3244 647 
Q 3431 1044 3441 2069 
L 3872 2069 
Q 3859 869 3634 441 
Q 3334 -109 2616 -475 
L 2353 -91 
z
M 4428 2069 
L 4856 2069 
L 4856 275 
Q 4856 128 4934 88 
Q 4994 63 5175 63 
Q 5500 63 5547 263 
Q 5584 425 5606 984 
L 6034 856 
Q 5994 153 5931 -38 
Q 5825 -372 5144 -372 
Q 4688 -372 4544 -275 
Q 4428 -191 4428 44 
L 4428 2069 
z
" transform="scale(0.015625)"/>
      <path id="IPAexGothic-8fbc" d="M 4294 4897 
L 4294 4456 
Q 4294 3291 4763 2394 
Q 5206 1531 5938 1019 
L 5613 572 
Q 4391 1628 4044 3156 
Q 3706 1475 2503 544 
L 2169 934 
Q 3650 1928 3834 4403 
L 3841 4481 
L 2566 4481 
L 2566 4897 
L 4294 4897 
z
M 1831 775 
Q 2106 428 2516 284 
Q 2906 150 4197 150 
Q 5228 150 6119 216 
Q 6003 13 5944 -269 
Q 5022 -303 4453 -303 
Q 2925 -303 2425 -131 
Q 1900 44 1600 478 
Q 1144 -56 666 -450 
L 372 38 
Q 825 309 1378 759 
L 1378 2303 
L 397 2303 
L 397 2731 
L 1831 2731 
L 1831 775 
z
M 1625 3616 
Q 1191 4200 634 4703 
L 972 4997 
Q 1456 4616 1984 3969 
L 1625 3616 
z
" transform="scale(0.015625)"/>
      <path id="IPAexGothic-65b9" d="M 2931 3750 
L 2925 3616 
Q 2916 3203 2872 2778 
L 5244 2778 
Q 5175 781 5000 156 
Q 4913 -144 4691 -247 
Q 4528 -325 4194 -325 
Q 3759 -325 3256 -263 
L 3144 269 
Q 3700 156 4141 156 
Q 4491 156 4556 463 
Q 4725 1197 4744 2350 
L 2822 2350 
Q 2822 2313 2816 2288 
Q 2538 428 916 -484 
L 563 -94 
Q 1859 491 2247 1869 
Q 2422 2488 2450 3750 
L 409 3750 
L 409 4178 
L 2931 4178 
L 2931 5175 
L 3431 5175 
L 3431 4178 
L 5984 4178 
L 5984 3750 
L 2931 3750 
z
" transform="scale(0.015625)"/>
     </defs>
     <use xlink:href="#IPAexGothic-8aad"/>
     <use xlink:href="#IPAexGothic-307f" x="100"/>
     <use xlink:href="#IPAexGothic-8fbc" x="200"/>
     <use xlink:href="#IPAexGothic-307f" x="300"/>
     <use xlink:href="#IPAexGothic-65b9" x="400"/>
    </g>
   </g>
   <g id="text_9">
    <!-- Ch.1〜4 -->
    <g style="fill: #2c3e50" transform="translate(38.88 152.974609) scale(0.115 -0.115)">
     <defs>
      <path id="IPAexGothic-43" d="M 4353 1088 
Q 4181 694 3859 428 
Q 3313 -31 2559 -31 
Q 1588 -31 959 653 
Q 378 1294 378 2331 
Q 378 3406 1013 4078 
Q 1619 4725 2534 4725 
Q 3813 4725 4322 3628 
L 3809 3391 
Q 3425 4238 2541 4238 
Q 1891 4238 1453 3744 
Q 994 3216 994 2322 
Q 994 1550 1384 1056 
Q 1841 472 2563 472 
Q 3456 472 3878 1319 
L 4353 1088 
z
" transform="scale(0.015625)"/>
      <path id="IPAexGothic-68" d="M 3347 63 
L 2797 63 
L 2797 2041 
Q 2797 2853 2131 2853 
Q 1447 2853 1131 2041 
L 1131 63 
L 581 63 
L 581 4794 
L 1131 4794 
L 1131 2706 
Q 1566 3316 2247 3316 
Q 3347 3316 3347 2072 
L 3347 63 
z
" transform="scale(0.015625)"/>
      <path id="IPAexGothic-2e" d="M 1184 63 
L 494 63 
L 494 753 
L 1184 753 
L 1184 63 
z
" transform="scale(0.015625)"/>
      <path id="IPAexGothic-31" d="M 2463 63 
L 1900 63 
L 1900 4103 
Q 1372 3922 788 3797 
L 684 4231 
Q 1519 4441 2106 4731 
L 2463 4731 
L 2463 63 
z
" transform="scale(0.015625)"/>
      <path id="IPAexGothic-301c" d="M 678 2591 
Q 1259 3116 2022 3116 
Q 2559 3116 3359 2603 
Q 4019 2188 4353 2188 
Q 5056 2188 5722 2853 
L 5722 2259 
Q 5141 1734 4378 1734 
Q 3806 1734 3041 2234 
Q 2381 2663 2041 2663 
Q 1344 2663 678 1997 
L 678 2591 
z
" transform="scale(0.015625)"/>
      <path id="IPAexGothic-34" d="M 3813 1159 
L 3059 1159 
L 3059 63 
L 2547 63 
L 2547 1159 
L 197 1159 
L 197 1672 
L 2456 4678 
L 3059 4678 
L 3059 1634 
L 3813 1634 
L 3813 1159 
z
M 2578 4109 
L 2559 4109 
Q 2278 3656 2003 3284 
L 759 1634 
L 2547 1634 
L 2547 3144 
Q 2547 3481 2578 4109 
z
" transform="scale(0.015625)"/>
     </defs>
     <use xlink:href="#IPAexGothic-43"/>
     <use xlink:href="#IPAexGothic-68" x="72.509766"/>
     <use xlink:href="#IPAexGothic-2e" x="133.203125"/>
     <use xlink:href="#IPAexGothic-31" x="159.619141"/>
     <use xlink:href="#IPAexGothic-301c" x="222.607422"/>
     <use xlink:href="#IPAexGothic-34" x="322.607422"/>
    </g>
   </g>
   <g id="text_10">
    <!-- ワインデータ load_wine() -->
    <g style="fill: #2c3e50" transform="translate(110.88 153.625977) scale(0.115 -0.115)">
     <defs>
      <path id="IPAexGothic-30ef" d="M 1031 4391 
L 5025 4391 
L 5350 4097 
Q 5131 2372 4456 1375 
Q 3800 400 2509 -116 
L 2131 325 
Q 3478 775 4078 1753 
Q 4625 2647 4769 3903 
L 1575 3903 
L 1575 2363 
L 1031 2363 
L 1031 4391 
z
" transform="scale(0.015625)"/>
      <path id="IPAexGothic-6c" d="M 1131 63 
L 581 63 
L 581 4794 
L 1131 4794 
L 1131 63 
z
" transform="scale(0.015625)"/>
      <path id="IPAexGothic-6f" d="M 1919 3341 
Q 2594 3341 3056 2888 
Q 3531 2413 3531 1638 
Q 3531 888 3066 422 
Q 2609 -31 1919 -31 
Q 1228 -31 781 416 
Q 313 881 313 1656 
Q 313 2413 788 2888 
Q 1241 3341 1919 3341 
z
M 1919 2919 
Q 1519 2919 1241 2631 
Q 888 2278 888 1650 
Q 888 1031 1234 684 
Q 1516 403 1919 403 
Q 2331 403 2609 691 
Q 2956 1038 2956 1672 
Q 2956 2269 2603 2631 
Q 2316 2919 1919 2919 
z
" transform="scale(0.015625)"/>
      <path id="IPAexGothic-64" d="M 3391 63 
L 2891 63 
L 2891 619 
Q 2441 -31 1753 -31 
Q 1181 -31 788 372 
Q 313 844 313 1663 
Q 313 2466 772 2938 
Q 1169 3341 1753 3341 
Q 2384 3341 2847 2809 
L 2847 4794 
L 3391 4794 
L 3391 63 
z
M 2847 1303 
L 2847 2097 
Q 2847 2413 2456 2706 
Q 2181 2906 1853 2906 
Q 1484 2906 1228 2650 
Q 888 2309 888 1678 
Q 888 1109 1169 750 
Q 1441 409 1847 409 
Q 2322 409 2656 875 
Q 2847 1134 2847 1303 
z
" transform="scale(0.015625)"/>
      <path id="IPAexGothic-5f" d="M 3200 -750 
L 0 -750 
L 0 -431 
L 3200 -431 
L 3200 -750 
z
" transform="scale(0.015625)"/>
      <path id="IPAexGothic-77" d="M 4772 3250 
L 3666 6 
L 3281 6 
L 2609 1919 
Q 2509 2203 2413 2622 
L 2394 2622 
Q 2322 2319 2188 1919 
L 1534 6 
L 1150 6 
L 44 3250 
L 619 3250 
L 1156 1491 
Q 1206 1331 1363 753 
L 1381 753 
Q 1475 1125 1594 1491 
L 2169 3250 
L 2656 3250 
L 3256 1491 
Q 3347 1244 3469 753 
L 3488 753 
Q 3591 1184 3684 1491 
L 4216 3250 
L 4772 3250 
z
" transform="scale(0.015625)"/>
      <path id="IPAexGothic-69" d="M 1178 3928 
L 550 3928 
L 550 4569 
L 1178 4569 
L 1178 3928 
z
M 1138 63 
L 588 63 
L 588 3250 
L 1138 3250 
L 1138 63 
z
" transform="scale(0.015625)"/>
      <path id="IPAexGothic-6e" d="M 3328 63 
L 2778 63 
L 2778 2041 
Q 2778 2853 2106 2853 
Q 1428 2853 1113 2041 
L 1113 63 
L 563 63 
L 563 3250 
L 1075 3250 
L 1075 2675 
Q 1525 3316 2222 3316 
Q 3328 3316 3328 2072 
L 3328 63 
z
" transform="scale(0.015625)"/>
      <path id="IPAexGothic-28" d="M 1928 -1016 
L 1653 -1166 
Q 488 69 488 1875 
Q 488 3678 1653 4909 
L 1928 4763 
Q 1006 3522 1006 1881 
Q 1006 203 1928 -1016 
z
" transform="scale(0.015625)"/>
      <path id="IPAexGothic-29" d="M 466 4909 
Q 1638 3672 1638 1875 
Q 1638 75 466 -1166 
L 191 -1016 
Q 1119 216 1119 1881 
Q 1119 3509 191 4763 
L 466 4909 
z
" transform="scale(0.015625)"/>
     </defs>
     <use xlink:href="#IPAexGothic-30ef"/>
     <use xlink:href="#IPAexGothic-30a4" x="100"/>
     <use xlink:href="#IPAexGothic-30f3" x="200"/>
     <use xlink:href="#IPAexGothic-30c7" x="300"/>
     <use xlink:href="#IPAexGothic-30fc" x="400"/>
     <use xlink:href="#IPAexGothic-30bf" x="500"/>
     <use xlink:href="#IPAexGothic-20" x="600"/>
     <use xlink:href="#IPAexGothic-6c" x="627.001953"/>
     <use xlink:href="#IPAexGothic-6f" x="654.003906"/>
     <use xlink:href="#IPAexGothic-61" x="714.404297"/>
     <use xlink:href="#IPAexGothic-64" x="769.384766"/>
     <use xlink:href="#IPAexGothic-5f" x="831.787109"/>
     <use xlink:href="#IPAexGothic-77" x="881.787109"/>
     <use xlink:href="#IPAexGothic-69" x="956.982422"/>
     <use xlink:href="#IPAexGothic-6e" x="983.984375"/>
     <use xlink:href="#IPAexGothic-65" x="1044.384766"/>
     <use xlink:href="#IPAexGothic-28" x="1101.269531"/>
     <use xlink:href="#IPAexGothic-29" x="1134.570312"/>
    </g>
   </g>
   <g id="text_11">
    <!-- イタリア産ワイン 178件・13特徴量・3品種 -->
    <g style="fill: #2c3e50" transform="translate(276.48 152.974609) scale(0.115 -0.115)">
     <defs>
      <path id="IPAexGothic-30a2" d="M 5388 4556 
L 5747 4200 
Q 5081 3022 4019 2191 
L 3647 2547 
Q 4519 3178 5081 4091 
L 850 4013 
L 850 4500 
L 5388 4556 
z
M 1216 256 
Q 2319 813 2616 1691 
Q 2797 2200 2797 3628 
L 3313 3628 
Q 3303 1981 3059 1356 
Q 2697 431 1594 -153 
L 1216 256 
z
" transform="scale(0.015625)"/>
      <path id="IPAexGothic-7523" d="M 3559 4581 
L 5856 4581 
L 5856 4209 
L 4725 4209 
Q 4591 3819 4391 3413 
L 5966 3413 
L 5966 3028 
L 1322 3028 
L 1322 2344 
Q 1322 1297 1194 706 
Q 1047 44 625 -519 
L 275 -191 
Q 653 313 778 1000 
Q 869 1516 869 2266 
L 869 3413 
L 2316 3413 
Q 2203 3784 2022 4209 
L 678 4209 
L 678 4581 
L 3072 4581 
L 3072 5309 
L 3559 5309 
L 3559 4581 
z
M 2494 4209 
Q 2656 3850 2784 3413 
L 3938 3413 
Q 4097 3763 4238 4209 
L 2494 4209 
z
M 2466 2125 
L 3444 2125 
L 3444 2816 
L 3897 2816 
L 3897 2125 
L 5663 2125 
L 5663 1766 
L 3897 1766 
L 3897 1128 
L 5459 1128 
L 5459 769 
L 3897 769 
L 3897 78 
L 6003 78 
L 6003 -294 
L 1331 -294 
L 1331 78 
L 3444 78 
L 3444 769 
L 2016 769 
L 2016 1128 
L 3444 1128 
L 3444 1766 
L 2303 1766 
Q 2103 1353 1781 994 
L 1472 1331 
Q 1972 1891 2209 2741 
L 2625 2625 
Q 2541 2319 2466 2125 
z
" transform="scale(0.015625)"/>
      <path id="IPAexGothic-37" d="M 3597 4263 
Q 2238 2106 1778 63 
L 1131 63 
Q 1581 1834 2950 4128 
L 428 4128 
L 428 4634 
L 3597 4634 
L 3597 4263 
z
" transform="scale(0.015625)"/>
      <path id="IPAexGothic-38" d="M 2541 2425 
Q 3700 2031 3700 1197 
Q 3700 541 3100 197 
Q 2663 -56 2016 -56 
Q 1366 -56 928 197 
Q 347 531 347 1178 
Q 347 1988 1409 2381 
L 1409 2400 
Q 481 2734 481 3509 
Q 481 4100 981 4456 
Q 1406 4756 2019 4756 
Q 2703 4756 3131 4403 
Q 3553 4069 3553 3566 
Q 3553 2706 2541 2444 
L 2541 2425 
z
M 2022 2625 
Q 2997 2856 2997 3528 
Q 2997 3916 2675 4150 
Q 2413 4347 2016 4347 
Q 1606 4347 1331 4128 
Q 1050 3897 1050 3522 
Q 1050 3150 1350 2925 
Q 1494 2809 1722 2722 
Q 1984 2616 2022 2625 
z
M 1978 2209 
Q 922 1931 922 1216 
Q 922 775 1313 556 
Q 1606 391 2009 391 
Q 2575 391 2881 697 
Q 3106 922 3106 1250 
Q 3106 1594 2794 1850 
Q 2609 1994 2350 2100 
Q 2047 2222 1978 2209 
z
" transform="scale(0.015625)"/>
      <path id="IPAexGothic-4ef6" d="M 3903 3425 
L 2906 3425 
Q 2697 2825 2309 2247 
L 1991 2572 
Q 2588 3497 2803 4788 
L 3256 4713 
Q 3175 4313 3041 3834 
L 3903 3834 
L 3903 5250 
L 4356 5250 
L 4356 3834 
L 5731 3834 
L 5731 3425 
L 4356 3425 
L 4356 2009 
L 6041 2009 
L 6041 1594 
L 4356 1594 
L 4356 -447 
L 3903 -447 
L 3903 1594 
L 2078 1594 
L 2078 2009 
L 3903 2009 
L 3903 3425 
z
M 1638 3681 
L 1638 -447 
L 1169 -447 
L 1169 2753 
Q 881 2272 575 1863 
L 313 2253 
Q 1238 3463 1650 5184 
L 2125 5069 
Q 1909 4316 1638 3681 
z
" transform="scale(0.015625)"/>
      <path id="IPAexGothic-30fb" d="M 2772 2859 
L 3628 2859 
L 3628 2003 
L 2772 2003 
L 2772 2859 
z
" transform="scale(0.015625)"/>
      <path id="IPAexGothic-33" d="M 2381 2419 
Q 3506 2216 3506 1278 
Q 3506 716 3128 356 
Q 2709 -31 1944 -31 
Q 797 -31 288 881 
L 756 1131 
Q 1109 441 1938 441 
Q 2425 441 2694 691 
Q 2950 928 2950 1291 
Q 2950 1719 2566 1978 
Q 2216 2213 1644 2213 
L 1363 2213 
L 1363 2669 
L 1656 2669 
Q 2231 2669 2534 2888 
Q 2859 3119 2859 3509 
Q 2859 3934 2494 4138 
Q 2259 4278 1931 4278 
Q 1238 4278 903 3578 
L 434 3803 
Q 897 4725 1938 4725 
Q 2597 4725 3006 4394 
Q 3416 4069 3416 3534 
Q 3416 3028 3019 2706 
Q 2763 2500 2381 2444 
L 2381 2419 
z
" transform="scale(0.015625)"/>
      <path id="IPAexGothic-7279" d="M 1025 3950 
L 1434 3950 
L 1434 5313 
L 1875 5313 
L 1875 3950 
L 2534 3950 
L 2534 3547 
L 1875 3547 
L 1875 2216 
Q 2084 2313 2494 2516 
L 2547 2106 
Q 2281 1963 1856 1750 
L 1856 -447 
L 1416 -447 
L 1416 1538 
Q 1028 1359 538 1153 
L 313 1581 
Q 778 1744 1434 2019 
L 1434 3547 
L 947 3547 
Q 828 3013 647 2556 
L 275 2803 
Q 584 3600 691 4744 
L 1131 4688 
Q 1091 4291 1025 3950 
z
M 3872 4372 
L 3872 5313 
L 4313 5313 
L 4313 4372 
L 5738 4372 
L 5738 3981 
L 4313 3981 
L 4313 3200 
L 6072 3200 
L 6072 2803 
L 5106 2803 
L 5106 2047 
L 5956 2047 
L 5956 1650 
L 5125 1650 
L 5125 38 
Q 5125 -447 4594 -447 
Q 4288 -447 3788 -391 
L 3691 78 
Q 4181 0 4491 0 
Q 4684 0 4684 172 
L 4684 1650 
L 2609 1650 
L 2609 2047 
L 4666 2047 
L 4666 2803 
L 2400 2803 
L 2400 3200 
L 3872 3200 
L 3872 3981 
L 2653 3981 
L 2653 4372 
L 3872 4372 
z
M 3550 384 
Q 3216 959 2834 1331 
L 3172 1575 
Q 3641 1116 3916 672 
L 3550 384 
z
" transform="scale(0.015625)"/>
      <path id="IPAexGothic-5fb4" d="M 5656 3775 
L 5656 3697 
Q 5597 2178 5228 1188 
Q 5678 478 6181 31 
L 5900 -419 
Q 5375 125 5016 741 
Q 4591 -3 3941 -500 
L 3616 -138 
Q 4372 331 4788 1163 
Q 4441 1838 4269 2759 
Q 4131 2388 3953 2078 
L 3697 2413 
L 3072 2413 
L 3072 1784 
L 3788 1784 
L 3788 1425 
L 3072 1425 
L 3072 747 
Q 3600 866 4063 1003 
L 4081 625 
Q 3147 297 1784 25 
L 1631 459 
Q 2194 553 2656 650 
L 2656 1425 
L 1856 1425 
L 1856 1784 
L 2656 1784 
L 2656 2413 
L 1663 2413 
L 1663 2784 
L 3838 2784 
Q 4222 3697 4422 5259 
L 4844 5197 
Q 4775 4688 4672 4178 
L 6059 4178 
L 6059 3775 
L 5656 3775 
z
M 5253 3775 
L 4575 3775 
Q 4516 3525 4497 3463 
L 4509 3391 
Q 4638 2475 4966 1700 
Q 5188 2516 5253 3775 
z
M 1372 2950 
L 1372 -447 
L 950 -447 
L 950 2328 
Q 728 2038 419 1716 
L 194 2088 
Q 944 2819 1453 3981 
L 1825 3803 
Q 1631 3384 1372 2950 
z
M 3088 3700 
L 3484 3700 
L 3484 4819 
L 3875 4819 
L 3875 3334 
L 1916 3334 
L 1916 4819 
L 2306 4819 
L 2306 3700 
L 2684 3700 
L 2684 5313 
L 3088 5313 
L 3088 3700 
z
M 256 3884 
Q 916 4419 1350 5203 
L 1716 5013 
Q 1300 4234 513 3547 
L 256 3884 
z
" transform="scale(0.015625)"/>
      <path id="IPAexGothic-91cf" d="M 5081 5159 
L 5081 3497 
L 1275 3497 
L 1275 5159 
L 5081 5159 
z
M 1716 4819 
L 1716 4475 
L 4647 4475 
L 4647 4819 
L 1716 4819 
z
M 1716 4175 
L 1716 3816 
L 4647 3816 
L 4647 4175 
L 1716 4175 
z
M 5238 2625 
L 5238 997 
L 3388 997 
L 3388 694 
L 5428 694 
L 5428 353 
L 3388 353 
L 3388 34 
L 6044 34 
L 6044 -331 
L 353 -331 
L 353 34 
L 2972 34 
L 2972 353 
L 969 353 
L 969 694 
L 2972 694 
L 2972 997 
L 1159 997 
L 1159 2625 
L 5238 2625 
z
M 1588 2325 
L 1588 1972 
L 2972 1972 
L 2972 2325 
L 1588 2325 
z
M 1588 1672 
L 1588 1303 
L 2972 1303 
L 2972 1672 
L 1588 1672 
z
M 4809 1303 
L 4809 1672 
L 3388 1672 
L 3388 1303 
L 4809 1303 
z
M 4809 1972 
L 4809 2325 
L 3388 2325 
L 3388 1972 
L 4809 1972 
z
M 384 3231 
L 6009 3231 
L 6009 2884 
L 384 2884 
L 384 3231 
z
" transform="scale(0.015625)"/>
      <path id="IPAexGothic-54c1" d="M 4781 4947 
L 4781 2872 
L 1613 2872 
L 1613 4947 
L 4781 4947 
z
M 2066 4556 
L 2066 3263 
L 4334 3263 
L 4334 4556 
L 2066 4556 
z
M 2841 2291 
L 2841 -325 
L 2400 -325 
L 2400 0 
L 1088 0 
L 1088 -384 
L 647 -384 
L 647 2291 
L 2841 2291 
z
M 1088 1900 
L 1088 397 
L 2400 397 
L 2400 1900 
L 1088 1900 
z
M 5747 2291 
L 5747 -384 
L 5306 -384 
L 5306 0 
L 3950 0 
L 3950 -384 
L 3509 -384 
L 3509 2291 
L 5747 2291 
z
M 3950 1900 
L 3950 397 
L 5306 397 
L 5306 1900 
L 3950 1900 
z
" transform="scale(0.015625)"/>
      <path id="IPAexGothic-7a2e" d="M 1269 2366 
Q 959 1388 456 659 
L 238 1100 
Q 878 2028 1203 3128 
L 328 3128 
L 328 3531 
L 1269 3531 
L 1269 4453 
Q 919 4388 525 4338 
L 347 4703 
Q 1372 4850 2144 5131 
L 2484 4766 
Q 2019 4622 1691 4544 
L 1691 3531 
L 2419 3531 
L 2419 3128 
L 1691 3128 
L 1691 2669 
Q 2081 2350 2478 1913 
L 2203 1509 
Q 1934 1897 1691 2169 
L 1691 -450 
L 1269 -450 
L 1269 2366 
z
M 3963 3297 
L 3963 3703 
L 2350 3703 
L 2350 4063 
L 3963 4063 
L 3963 4497 
L 3872 4491 
Q 3219 4431 2722 4409 
L 2541 4784 
Q 4100 4831 5350 5119 
L 5678 4741 
Q 5128 4634 4378 4544 
L 4378 4063 
L 6013 4063 
L 6013 3703 
L 4378 3703 
L 4378 3297 
L 5641 3297 
L 5641 1313 
L 4378 1313 
L 4378 872 
L 5750 872 
L 5750 525 
L 4378 525 
L 4378 78 
L 6069 78 
L 6069 -288 
L 2297 -288 
L 2297 78 
L 3963 78 
L 3963 525 
L 2613 525 
L 2613 872 
L 3963 872 
L 3963 1313 
L 2728 1313 
L 2728 3297 
L 3963 3297 
z
M 3975 2956 
L 3138 2956 
L 3138 2472 
L 3975 2472 
L 3975 2956 
z
M 4366 2956 
L 4366 2472 
L 5238 2472 
L 5238 2956 
L 4366 2956 
z
M 3975 2159 
L 3138 2159 
L 3138 1653 
L 3975 1653 
L 3975 2159 
z
M 4366 2159 
L 4366 1653 
L 5238 1653 
L 5238 2159 
L 4366 2159 
z
" transform="scale(0.015625)"/>
     </defs>
     <use xlink:href="#IPAexGothic-30a4"/>
     <use xlink:href="#IPAexGothic-30bf" x="100"/>
     <use xlink:href="#IPAexGothic-30ea" x="200"/>
     <use xlink:href="#IPAexGothic-30a2" x="300"/>
     <use xlink:href="#IPAexGothic-7523" x="400"/>
     <use xlink:href="#IPAexGothic-30ef" x="500"/>
     <use xlink:href="#IPAexGothic-30a4" x="600"/>
     <use xlink:href="#IPAexGothic-30f3" x="700"/>
     <use xlink:href="#IPAexGothic-20" x="800"/>
     <use xlink:href="#IPAexGothic-31" x="827.001953"/>
     <use xlink:href="#IPAexGothic-37" x="889.990234"/>
     <use xlink:href="#IPAexGothic-38" x="952.978516"/>
     <use xlink:href="#IPAexGothic-4ef6" x="1015.966797"/>
     <use xlink:href="#IPAexGothic-30fb" x="1115.966797"/>
     <use xlink:href="#IPAexGothic-31" x="1215.966797"/>
     <use xlink:href="#IPAexGothic-33" x="1278.955078"/>
     <use xlink:href="#IPAexGothic-7279" x="1341.943359"/>
     <use xlink:href="#IPAexGothic-5fb4" x="1441.943359"/>
     <use xlink:href="#IPAexGothic-91cf" x="1541.943359"/>
     <use xlink:href="#IPAexGothic-30fb" x="1641.943359"/>
     <use xlink:href="#IPAexGothic-33" x="1741.943359"/>
     <use xlink:href="#IPAexGothic-54c1" x="1804.931641"/>
     <use xlink:href="#IPAexGothic-7a2e" x="1904.931641"/>
    </g>
   </g>
   <g id="text_12">
    <!-- sklearn.datasets -->
    <g style="fill: #2c3e50" transform="translate(557.28 152.974609) scale(0.115 -0.115)">
     <defs>
      <path id="IPAexGothic-73" d="M 2234 2547 
Q 1938 2931 1484 2931 
Q 891 2931 891 2475 
Q 891 2153 1531 1944 
L 1741 1875 
Q 2650 1578 2650 894 
Q 2650 434 2272 172 
Q 1972 -31 1497 -31 
Q 766 -31 256 503 
L 603 819 
Q 997 397 1516 397 
Q 2131 397 2131 875 
Q 2131 1238 1453 1478 
L 1234 1553 
Q 378 1853 378 2431 
Q 378 2797 628 3047 
Q 928 3347 1453 3347 
Q 2156 3347 2606 2859 
L 2234 2547 
z
" transform="scale(0.015625)"/>
      <path id="IPAexGothic-6b" d="M 3244 63 
L 2578 63 
L 1484 1613 
L 1119 1259 
L 1119 63 
L 581 63 
L 581 4794 
L 1119 4794 
L 1119 1766 
L 2463 3250 
L 3153 3250 
L 1828 1925 
L 3244 63 
z
" transform="scale(0.015625)"/>
     </defs>
     <use xlink:href="#IPAexGothic-73"/>
     <use xlink:href="#IPAexGothic-6b" x="46.191406"/>
     <use xlink:href="#IPAexGothic-6c" x="97.998047"/>
     <use xlink:href="#IPAexGothic-65" x="125"/>
     <use xlink:href="#IPAexGothic-61" x="181.884766"/>
     <use xlink:href="#IPAexGothic-72" x="236.865234"/>
     <use xlink:href="#IPAexGothic-6e" x="273.876953"/>
     <use xlink:href="#IPAexGothic-2e" x="334.277344"/>
     <use xlink:href="#IPAexGothic-64" x="360.693359"/>
     <use xlink:href="#IPAexGothic-61" x="423.095703"/>
     <use xlink:href="#IPAexGothic-74" x="478.076172"/>
     <use xlink:href="#IPAexGothic-61" x="512.695312"/>
     <use xlink:href="#IPAexGothic-73" x="567.675781"/>
     <use xlink:href="#IPAexGothic-65" x="613.867188"/>
     <use xlink:href="#IPAexGothic-74" x="670.751953"/>
     <use xlink:href="#IPAexGothic-73" x="705.371094"/>
    </g>
   </g>
   <g id="text_13">
    <!-- Ch.3 -->
    <g style="fill: #2c3e50" transform="translate(38.88 181.774609) scale(0.115 -0.115)">
     <use xlink:href="#IPAexGothic-43"/>
     <use xlink:href="#IPAexGothic-68" x="72.509766"/>
     <use xlink:href="#IPAexGothic-2e" x="133.203125"/>
     <use xlink:href="#IPAexGothic-33" x="159.619141"/>
    </g>
   </g>
   <g id="text_14">
    <!-- 手書き数字 load_digits() -->
    <g style="fill: #2c3e50" transform="translate(110.88 182.207656) scale(0.115 -0.115)">
     <defs>
      <path id="IPAexGothic-624b" d="M 3519 4303 
L 3519 3284 
L 5594 3284 
L 5594 2875 
L 3519 2875 
L 3519 1906 
L 6078 1906 
L 6078 1491 
L 3519 1491 
L 3519 191 
Q 3519 -322 2841 -322 
Q 2322 -322 1803 -263 
L 1719 238 
Q 2306 131 2775 131 
Q 3038 131 3038 372 
L 3038 1491 
L 313 1491 
L 313 1906 
L 3038 1906 
L 3038 2875 
L 797 2875 
L 797 3284 
L 3038 3284 
L 3038 4238 
Q 2056 4119 1047 4059 
L 850 4463 
Q 3213 4588 4869 5013 
L 5266 4616 
Q 4481 4441 3569 4309 
L 3519 4303 
z
" transform="scale(0.015625)"/>
      <path id="IPAexGothic-66f8" d="M 2953 4891 
L 2953 5313 
L 3397 5313 
L 3397 4891 
L 5169 4891 
L 5169 4213 
L 6006 4213 
L 6006 3866 
L 5169 3866 
L 5169 3166 
L 3397 3166 
L 3397 2828 
L 5597 2828 
L 5597 2475 
L 3397 2475 
L 3397 2144 
L 6078 2144 
L 6078 1791 
L 319 1791 
L 319 2144 
L 2953 2144 
L 2953 2475 
L 797 2475 
L 797 2828 
L 2953 2828 
L 2953 3166 
L 1125 3166 
L 1125 3506 
L 2953 3506 
L 2953 3866 
L 381 3866 
L 381 4213 
L 2953 4213 
L 2953 4550 
L 1125 4550 
L 1125 4891 
L 2953 4891 
z
M 4728 4550 
L 3397 4550 
L 3397 4213 
L 4728 4213 
L 4728 4550 
z
M 4728 3866 
L 3397 3866 
L 3397 3506 
L 4728 3506 
L 4728 3866 
z
M 5253 1506 
L 5253 -450 
L 4800 -450 
L 4800 -225 
L 1572 -225 
L 1572 -450 
L 1119 -450 
L 1119 1506 
L 5253 1506 
z
M 1572 1166 
L 1572 825 
L 4800 825 
L 4800 1166 
L 1572 1166 
z
M 1572 500 
L 1572 134 
L 4800 134 
L 4800 500 
L 1572 500 
z
" transform="scale(0.015625)"/>
      <path id="IPAexGothic-304d" d="M 2944 1600 
Q 2369 1600 2053 1428 
Q 1772 1275 1772 1019 
Q 1772 666 2200 481 
Q 2600 309 3903 309 
Q 4138 309 4397 331 
L 4422 -147 
Q 4203 -166 3969 -166 
Q 2325 -166 1819 141 
Q 1313 444 1313 994 
Q 1313 1447 1791 1738 
Q 2219 1997 2859 1997 
Q 3319 1997 3606 1947 
Q 3894 1894 4216 1759 
Q 3953 2050 3506 2791 
Q 2263 2547 1191 2491 
L 1094 2956 
Q 2263 2966 3281 3175 
Q 3019 3647 2950 3794 
Q 2125 3641 1253 3622 
L 1166 4063 
Q 2013 4063 2750 4184 
Q 2478 4744 2381 4984 
L 2841 5131 
Q 2925 4916 3213 4281 
Q 3888 4438 4459 4709 
L 4672 4313 
Q 4119 4056 3409 3891 
Q 3638 3447 3738 3284 
Q 4528 3503 5113 3794 
L 5331 3366 
Q 4738 3094 3953 2900 
Q 4272 2366 4903 1484 
L 4575 1147 
Q 3888 1600 2944 1600 
z
" transform="scale(0.015625)"/>
      <path id="IPAexGothic-6570" d="M 2847 1553 
Q 2741 1006 2425 534 
Q 2625 441 3091 203 
L 2809 -188 
Q 2541 0 2144 209 
Q 1569 -291 703 -500 
L 422 -125 
Q 1263 19 1747 406 
Q 1222 650 734 816 
Q 975 1172 1147 1503 
L 1172 1553 
L 359 1553 
L 359 1925 
L 1344 1925 
Q 1406 2066 1569 2475 
L 1691 2450 
L 1691 3372 
Q 1250 2738 550 2303 
L 275 2663 
Q 1019 3013 1528 3641 
L 378 3641 
L 378 4006 
L 1691 4006 
L 1691 5313 
L 2113 5313 
L 2113 4006 
L 3297 4006 
L 3297 3641 
L 2113 3641 
L 2113 3513 
Q 2659 3291 3175 2963 
L 2956 2584 
Q 2553 2922 2113 3159 
L 2113 2372 
L 1966 2372 
Q 1928 2288 1872 2141 
Q 1806 1975 1784 1925 
L 3378 1925 
L 3378 1553 
L 2847 1553 
z
M 2419 1553 
L 1613 1553 
Q 1478 1269 1313 997 
Q 1559 909 2047 703 
Q 2313 1047 2419 1553 
z
M 4363 1163 
Q 3953 1781 3738 2638 
Q 3575 2281 3428 2016 
L 3103 2406 
Q 3675 3444 3916 5291 
L 4363 5200 
Q 4284 4666 4197 4197 
L 6009 4197 
L 6009 3775 
L 5503 3775 
Q 5397 2275 4869 1191 
Q 5419 503 6144 75 
L 5822 -378 
Q 5188 106 4631 788 
Q 4113 34 3341 -463 
L 3031 -78 
Q 3888 406 4363 1163 
z
M 4588 1594 
Q 4938 2388 5059 3775 
L 4100 3775 
Q 4041 3519 3972 3288 
Q 3981 3250 3991 3194 
Q 4175 2256 4588 1594 
z
M 1003 4116 
Q 878 4544 638 4934 
L 1053 5094 
Q 1247 4788 1438 4269 
L 1003 4116 
z
M 2316 4269 
Q 2550 4688 2688 5131 
L 3128 4997 
Q 2966 4588 2675 4128 
L 2316 4269 
z
" transform="scale(0.015625)"/>
      <path id="IPAexGothic-5b57" d="M 3419 4434 
L 5778 4434 
L 5778 3141 
L 5297 3141 
L 5297 4031 
L 1091 4031 
L 1091 3141 
L 616 3141 
L 616 4434 
L 2931 4434 
L 2931 5313 
L 3419 5313 
L 3419 4434 
z
M 3463 2197 
L 3463 1875 
L 6019 1875 
L 6019 1459 
L 3497 1459 
L 3497 0 
Q 3497 -272 3363 -375 
Q 3241 -459 2944 -459 
Q 2553 -459 2063 -409 
L 1984 63 
Q 2538 -13 2834 -13 
Q 3016 -13 3016 147 
L 3016 1459 
L 391 1459 
L 391 1875 
L 2988 1875 
L 2988 2406 
Q 3606 2650 4103 2991 
L 1416 2991 
L 1416 3413 
L 4816 3413 
L 5031 3181 
Q 4219 2547 3463 2197 
z
" transform="scale(0.015625)"/>
      <path id="IPAexGothic-67" d="M 1331 1150 
Q 1006 1122 1006 900 
Q 1006 613 1763 575 
L 2131 556 
Q 3303 497 3303 -294 
Q 3303 -700 2925 -959 
Q 2519 -1253 1794 -1253 
Q 1138 -1253 738 -1028 
Q 353 -809 353 -428 
Q 353 84 1075 247 
L 1075 269 
Q 506 413 506 778 
Q 506 1116 994 1297 
Q 456 1575 456 2181 
Q 456 2650 769 2963 
Q 1128 3322 1738 3322 
Q 2125 3322 2422 3153 
Q 2650 3453 3259 3463 
L 3259 3013 
Q 2838 3003 2703 2938 
Q 3034 2613 3034 2169 
Q 3034 1728 2734 1425 
Q 2400 1094 1813 1094 
Q 1563 1094 1331 1150 
z
M 1734 2919 
Q 1409 2919 1197 2706 
Q 988 2497 988 2181 
Q 988 1872 1184 1684 
Q 1397 1472 1756 1472 
Q 2094 1472 2297 1678 
Q 2503 1881 2503 2203 
Q 2503 2497 2297 2700 
Q 2081 2919 1734 2919 
z
M 1753 159 
Q 903 159 903 -366 
Q 903 -875 1800 -875 
Q 2378 -875 2638 -606 
Q 2772 -481 2772 -313 
Q 2772 159 1753 159 
z
" transform="scale(0.015625)"/>
     </defs>
     <use xlink:href="#IPAexGothic-624b"/>
     <use xlink:href="#IPAexGothic-66f8" x="100"/>
     <use xlink:href="#IPAexGothic-304d" x="200"/>
     <use xlink:href="#IPAexGothic-6570" x="300"/>
     <use xlink:href="#IPAexGothic-5b57" x="400"/>
     <use xlink:href="#IPAexGothic-20" x="500"/>
     <use xlink:href="#IPAexGothic-6c" x="527.001953"/>
     <use xlink:href="#IPAexGothic-6f" x="554.003906"/>
     <use xlink:href="#IPAexGothic-61" x="614.404297"/>
     <use xlink:href="#IPAexGothic-64" x="669.384766"/>
     <use xlink:href="#IPAexGothic-5f" x="731.787109"/>
     <use xlink:href="#IPAexGothic-64" x="781.787109"/>
     <use xlink:href="#IPAexGothic-69" x="844.189453"/>
     <use xlink:href="#IPAexGothic-67" x="871.191406"/>
     <use xlink:href="#IPAexGothic-69" x="926.708984"/>
     <use xlink:href="#IPAexGothic-74" x="953.710938"/>
     <use xlink:href="#IPAexGothic-73" x="988.330078"/>
     <use xlink:href="#IPAexGothic-28" x="1034.521484"/>
     <use xlink:href="#IPAexGothic-29" x="1067.822266"/>
    </g>
   </g>
   <g id="text_15">
    <!-- 手書き数字 1,797枚・8×8ピクセル -->
    <g style="fill: #2c3e50" transform="translate(276.48 182.052227) scale(0.115 -0.115)">
     <defs>
      <path id="IPAexGothic-2c" d="M 1150 728 
Q 1028 -159 563 -1006 
L 153 -897 
Q 494 -100 569 728 
L 1150 728 
z
" transform="scale(0.015625)"/>
      <path id="IPAexGothic-39" d="M 2984 2356 
Q 2544 1716 1813 1716 
Q 1253 1716 847 2056 
Q 366 2459 366 3163 
Q 366 3813 769 4266 
Q 1181 4725 1869 4725 
Q 2800 4725 3241 3950 
Q 3559 3378 3559 2472 
Q 3559 1250 3041 588 
Q 2553 -31 1769 -31 
Q 859 -31 391 703 
L 853 953 
Q 1156 428 1753 428 
Q 2922 428 3009 2356 
L 2984 2356 
z
M 1888 4278 
Q 1450 4278 1172 3950 
Q 922 3653 922 3200 
Q 922 2741 1159 2478 
Q 1434 2163 1906 2163 
Q 2431 2163 2728 2572 
Q 2925 2847 2925 3169 
Q 2925 3553 2694 3863 
Q 2375 4278 1888 4278 
z
" transform="scale(0.015625)"/>
      <path id="IPAexGothic-679a" d="M 1369 2669 
Q 1059 1622 550 781 
L 269 1250 
Q 956 2253 1306 3541 
L 403 3541 
L 403 3956 
L 1369 3956 
L 1369 5300 
L 1816 5300 
L 1816 3956 
L 2706 3956 
L 2706 3541 
L 1816 3541 
L 1816 2825 
Q 2331 2369 2738 1909 
L 2456 1459 
Q 2106 1959 1816 2313 
L 1816 -447 
L 1369 -447 
L 1369 2669 
z
M 3272 2906 
Q 3066 2497 2803 2144 
L 2484 2500 
Q 3222 3509 3481 5284 
L 3963 5191 
Q 3866 4641 3750 4191 
L 5931 4191 
L 5931 3775 
L 5350 3775 
Q 5253 2334 4616 1247 
Q 5209 566 6075 94 
L 5747 -372 
Q 4944 128 4353 838 
Q 3700 -13 2841 -488 
L 2497 -72 
Q 3438 344 4056 1228 
Q 3519 2028 3272 2906 
z
M 3525 3494 
Q 3803 2375 4313 1644 
Q 4784 2528 4891 3775 
L 3622 3775 
Q 3572 3628 3525 3494 
z
" transform="scale(0.015625)"/>
      <path id="IPAexGothic-d7" d="M 2169 1772 
L 1063 666 
L 800 928 
L 1906 2041 
L 794 3153 
L 1056 3416 
L 2169 2303 
L 3284 3409 
L 3547 3147 
L 2438 2041 
L 3541 941 
L 3272 672 
L 2169 1772 
z
" transform="scale(0.015625)"/>
      <path id="IPAexGothic-30d4" d="M 1331 4756 
L 1856 4756 
L 1856 2759 
Q 3528 3134 4722 3872 
L 5106 3456 
Q 3619 2663 1856 2278 
L 1856 1044 
Q 1856 725 2047 650 
Q 2241 566 3138 566 
Q 4141 566 5369 697 
L 5369 184 
Q 4231 78 3238 78 
Q 1913 78 1619 275 
Q 1331 459 1331 947 
L 1331 4756 
z
M 5478 5222 
Q 5788 5222 5997 4988 
Q 6181 4788 6181 4519 
Q 6181 4206 5947 3994 
Q 5747 3809 5478 3809 
Q 5166 3809 4953 4044 
Q 4769 4247 4769 4519 
Q 4769 4828 5003 5041 
Q 5206 5222 5478 5222 
z
M 5478 4941 
Q 5288 4941 5159 4800 
Q 5050 4678 5050 4519 
Q 5050 4328 5191 4200 
Q 5313 4091 5478 4091 
Q 5663 4091 5791 4231 
Q 5900 4353 5900 4519 
Q 5900 4703 5759 4831 
Q 5638 4941 5478 4941 
z
" transform="scale(0.015625)"/>
      <path id="IPAexGothic-30af" d="M 4934 4191 
L 5272 3941 
Q 4894 2334 4031 1300 
Q 3275 391 2028 -225 
L 1656 184 
Q 2875 691 3641 1625 
Q 4403 2553 4691 3731 
L 2903 3731 
Q 2188 2653 1356 1959 
L 978 2309 
Q 2328 3400 2931 5022 
L 3422 4881 
Q 3363 4672 3141 4191 
L 4934 4191 
z
" transform="scale(0.015625)"/>
     </defs>
     <use xlink:href="#IPAexGothic-624b"/>
     <use xlink:href="#IPAexGothic-66f8" x="100"/>
     <use xlink:href="#IPAexGothic-304d" x="200"/>
     <use xlink:href="#IPAexGothic-6570" x="300"/>
     <use xlink:href="#IPAexGothic-5b57" x="400"/>
     <use xlink:href="#IPAexGothic-20" x="500"/>
     <use xlink:href="#IPAexGothic-31" x="527.001953"/>
     <use xlink:href="#IPAexGothic-2c" x="589.990234"/>
     <use xlink:href="#IPAexGothic-37" x="616.40625"/>
     <use xlink:href="#IPAexGothic-39" x="679.394531"/>
     <use xlink:href="#IPAexGothic-37" x="742.382812"/>
     <use xlink:href="#IPAexGothic-679a" x="805.371094"/>
     <use xlink:href="#IPAexGothic-30fb" x="905.371094"/>
     <use xlink:href="#IPAexGothic-38" x="1005.371094"/>
     <use xlink:href="#IPAexGothic-d7" x="1068.359375"/>
     <use xlink:href="#IPAexGothic-38" x="1136.181641"/>
     <use xlink:href="#IPAexGothic-30d4" x="1199.169922"/>
     <use xlink:href="#IPAexGothic-30af" x="1299.169922"/>
     <use xlink:href="#IPAexGothic-30bb" x="1399.169922"/>
     <use xlink:href="#IPAexGothic-30eb" x="1499.169922"/>
    </g>
   </g>
   <g id="text_16">
    <!-- sklearn.datasets -->
    <g style="fill: #2c3e50" transform="translate(557.28 181.774609) scale(0.115 -0.115)">
     <use xlink:href="#IPAexGothic-73"/>
     <use xlink:href="#IPAexGothic-6b" x="46.191406"/>
     <use xlink:href="#IPAexGothic-6c" x="97.998047"/>
     <use xlink:href="#IPAexGothic-65" x="125"/>
     <use xlink:href="#IPAexGothic-61" x="181.884766"/>
     <use xlink:href="#IPAexGothic-72" x="236.865234"/>
     <use xlink:href="#IPAexGothic-6e" x="273.876953"/>
     <use xlink:href="#IPAexGothic-2e" x="334.277344"/>
     <use xlink:href="#IPAexGothic-64" x="360.693359"/>
     <use xlink:href="#IPAexGothic-61" x="423.095703"/>
     <use xlink:href="#IPAexGothic-74" x="478.076172"/>
     <use xlink:href="#IPAexGothic-61" x="512.695312"/>
     <use xlink:href="#IPAexGothic-73" x="567.675781"/>
     <use xlink:href="#IPAexGothic-65" x="613.867188"/>
     <use xlink:href="#IPAexGothic-74" x="670.751953"/>
     <use xlink:href="#IPAexGothic-73" x="705.371094"/>
    </g>
   </g>
   <g id="text_17">
    <!-- Ch.5 -->
    <g style="fill: #2c3e50" transform="translate(38.88 210.574609) scale(0.115 -0.115)">
     <defs>
      <path id="IPAexGothic-35" d="M 1178 2603 
Q 1634 2963 2172 2963 
Q 2816 2963 3241 2528 
Q 3638 2113 3638 1497 
Q 3638 938 3297 513 
Q 2869 -31 2031 -31 
Q 959 -31 469 784 
L 938 1028 
Q 1309 434 2013 434 
Q 2466 434 2769 716 
Q 3081 1013 3081 1503 
Q 3081 1966 2806 2241 
Q 2519 2528 2056 2528 
Q 1406 2528 1072 2028 
L 591 2091 
L 884 4634 
L 3406 4634 
L 3406 4153 
L 1341 4153 
L 1134 2603 
L 1178 2603 
z
" transform="scale(0.015625)"/>
     </defs>
     <use xlink:href="#IPAexGothic-43"/>
     <use xlink:href="#IPAexGothic-68" x="72.509766"/>
     <use xlink:href="#IPAexGothic-2e" x="133.203125"/>
     <use xlink:href="#IPAexGothic-35" x="159.619141"/>
    </g>
   </g>
   <g id="text_18">
    <!-- 乳がん診断 load_breast_cancer() -->
    <g style="fill: #2c3e50" transform="translate(110.88 211.05168) scale(0.115 -0.115)">
     <defs>
      <path id="IPAexGothic-4e73" d="M 2397 1528 
Q 2981 1588 3716 1700 
L 3728 1344 
Q 3231 1256 2397 1138 
L 2397 44 
Q 2397 -259 2263 -344 
Q 2153 -416 1859 -416 
Q 1475 -416 1144 -372 
L 1088 84 
Q 1522 0 1753 0 
Q 1956 0 1956 191 
L 1956 1081 
Q 1106 984 428 934 
L 313 1363 
Q 1156 1406 1853 1472 
Q 1869 1472 1916 1478 
Q 1944 1481 1956 1484 
L 1956 1931 
Q 1997 1956 2047 1981 
Q 2428 2178 2775 2456 
L 550 2456 
L 550 2841 
L 3409 2841 
L 3606 2622 
Q 3028 2144 2397 1766 
L 2397 1528 
z
M 384 4697 
Q 2094 4794 3213 5113 
L 3556 4716 
Q 2391 4409 550 4281 
L 384 4697 
z
M 4025 4984 
L 4472 4984 
L 4472 359 
Q 4472 197 4563 147 
Q 4659 103 4947 103 
Q 5431 103 5509 275 
Q 5569 419 5600 1166 
L 5606 1319 
L 6072 1184 
Q 6053 69 5859 -159 
Q 5678 -372 4947 -372 
Q 4363 -372 4184 -263 
Q 4025 -159 4025 184 
L 4025 4984 
z
M 1075 2981 
Q 872 3659 684 4006 
L 1094 4153 
Q 1306 3756 1509 3128 
L 1075 2981 
z
M 2572 3091 
Q 2931 3719 3181 4422 
L 3641 4238 
Q 3344 3569 2944 2944 
L 2572 3091 
z
M 1925 3072 
Q 1850 3634 1663 4172 
L 2066 4281 
Q 2247 3834 2353 3181 
L 1925 3072 
z
" transform="scale(0.015625)"/>
      <path id="IPAexGothic-304c" d="M 659 3384 
Q 1434 3503 2113 3581 
Q 2313 4341 2394 4972 
L 2900 4875 
Q 2759 4147 2619 3628 
L 2719 3634 
Q 2894 3641 3041 3641 
Q 4072 3641 4072 2369 
Q 4072 1128 3700 384 
Q 3478 -56 3003 -56 
Q 2591 -56 2113 231 
L 2138 775 
Q 2631 444 2925 444 
Q 3169 444 3297 706 
Q 3566 1294 3566 2388 
Q 3566 3219 3016 3219 
Q 2825 3219 2497 3194 
Q 2388 2763 2113 2047 
Q 1634 797 1119 -38 
L 678 244 
Q 1356 1238 1863 2750 
Q 1888 2819 1991 3128 
Q 1594 3081 769 2916 
L 659 3384 
z
M 5441 1838 
Q 4913 3038 4091 3916 
L 4475 4184 
Q 5350 3269 5888 2156 
L 5441 1838 
z
M 5913 4275 
Q 5553 4819 5159 5147 
L 5459 5375 
Q 5844 5066 6234 4550 
L 5913 4275 
z
M 5344 3788 
Q 5053 4278 4609 4678 
L 4922 4922 
Q 5294 4613 5678 4063 
L 5344 3788 
z
" transform="scale(0.015625)"/>
      <path id="IPAexGothic-3093" d="M 659 31 
Q 1684 2316 3066 4934 
L 3559 4703 
Q 2781 3375 2156 2100 
Q 2659 2572 3109 2572 
Q 3619 2572 3781 2059 
Q 3863 1803 3872 1147 
Q 3881 328 4313 328 
Q 4928 328 5466 1663 
L 5875 1288 
Q 5175 -178 4300 -178 
Q 3400 -178 3400 1069 
L 3400 1119 
Q 3400 2125 3003 2125 
Q 2153 2125 1128 -178 
L 659 31 
z
" transform="scale(0.015625)"/>
      <path id="IPAexGothic-8a3a" d="M 2388 1684 
L 2388 -128 
L 959 -128 
L 959 -447 
L 538 -447 
L 538 1684 
L 2388 1684 
z
M 959 1313 
L 959 244 
L 1966 244 
L 1966 1313 
L 959 1313 
z
M 634 5044 
L 2294 5044 
L 2294 4659 
L 634 4659 
L 634 5044 
z
M 347 4206 
L 2619 4206 
L 2619 3816 
L 347 3816 
L 347 4206 
z
M 634 3359 
L 2294 3359 
L 2294 2975 
L 634 2975 
L 634 3359 
z
M 634 2522 
L 2294 2522 
L 2294 2138 
L 634 2138 
L 634 2522 
z
M 2753 2119 
Q 3806 2591 4341 3506 
L 4713 3263 
Q 4113 2319 3041 1772 
L 2753 2119 
z
M 2394 3028 
Q 3472 3734 3938 5153 
L 4438 5153 
Q 5059 3897 6153 3200 
L 5856 2809 
Q 4775 3584 4219 4678 
Q 3747 3422 2697 2688 
L 2394 3028 
z
M 2766 -31 
Q 4591 419 5641 1919 
L 6019 1656 
Q 4944 172 3066 -453 
L 2766 -31 
z
M 2778 1063 
Q 4116 1513 4956 2688 
L 5313 2444 
Q 4444 1231 3072 684 
L 2778 1063 
z
" transform="scale(0.015625)"/>
      <path id="IPAexGothic-65ad" d="M 1819 2719 
L 928 2719 
L 928 519 
L 3188 519 
L 3188 128 
L 928 128 
L 928 -319 
L 513 -319 
L 513 4813 
L 928 4813 
L 928 3097 
L 1881 3097 
L 1881 5075 
L 2291 5075 
L 2291 3097 
L 3281 3097 
L 3281 2719 
L 2291 2719 
L 2291 2506 
Q 2819 2059 3194 1606 
L 2919 1247 
Q 2581 1759 2291 2066 
L 2291 666 
L 1881 666 
L 1881 2125 
Q 1613 1400 1197 825 
L 947 1184 
Q 1506 1869 1819 2719 
z
M 3584 4647 
Q 3653 4656 3756 4666 
Q 4731 4772 5503 5063 
L 5875 4666 
Q 5050 4422 4013 4294 
L 4013 3219 
L 6125 3219 
L 6125 2803 
L 5344 2803 
L 5344 -447 
L 4903 -447 
L 4903 2803 
L 4013 2803 
L 4013 2663 
Q 4003 1384 3897 769 
Q 3772 63 3388 -531 
L 3041 -225 
Q 3431 413 3528 1350 
Q 3584 1916 3584 2950 
L 3584 4647 
z
M 1363 3256 
Q 1244 3906 1050 4428 
L 1428 4563 
Q 1622 4069 1759 3391 
L 1363 3256 
z
M 2419 3384 
Q 2678 4050 2816 4634 
L 3231 4494 
Q 3084 3925 2778 3263 
L 2419 3384 
z
" transform="scale(0.015625)"/>
      <path id="IPAexGothic-63" d="M 3269 784 
Q 2834 -31 1900 -31 
Q 1228 -31 788 409 
Q 313 891 313 1663 
Q 313 2428 788 2913 
Q 1222 3347 1881 3347 
Q 2813 3347 3206 2541 
L 2763 2309 
Q 2484 2900 1900 2900 
Q 1516 2900 1234 2619 
Q 881 2266 881 1650 
Q 881 1069 1222 728 
Q 1522 428 1956 428 
Q 2547 428 2847 1016 
L 3269 784 
z
" transform="scale(0.015625)"/>
     </defs>
     <use xlink:href="#IPAexGothic-4e73"/>
     <use xlink:href="#IPAexGothic-304c" x="100"/>
     <use xlink:href="#IPAexGothic-3093" x="200"/>
     <use xlink:href="#IPAexGothic-8a3a" x="300"/>
     <use xlink:href="#IPAexGothic-65ad" x="400"/>
     <use xlink:href="#IPAexGothic-20" x="500"/>
     <use xlink:href="#IPAexGothic-6c" x="527.001953"/>
     <use xlink:href="#IPAexGothic-6f" x="554.003906"/>
     <use xlink:href="#IPAexGothic-61" x="614.404297"/>
     <use xlink:href="#IPAexGothic-64" x="669.384766"/>
     <use xlink:href="#IPAexGothic-5f" x="731.787109"/>
     <use xlink:href="#IPAexGothic-62" x="781.787109"/>
     <use xlink:href="#IPAexGothic-72" x="844.189453"/>
     <use xlink:href="#IPAexGothic-65" x="881.201172"/>
     <use xlink:href="#IPAexGothic-61" x="938.085938"/>
     <use xlink:href="#IPAexGothic-73" x="993.066406"/>
     <use xlink:href="#IPAexGothic-74" x="1039.257812"/>
     <use xlink:href="#IPAexGothic-5f" x="1073.876953"/>
     <use xlink:href="#IPAexGothic-63" x="1123.876953"/>
     <use xlink:href="#IPAexGothic-61" x="1178.271484"/>
     <use xlink:href="#IPAexGothic-6e" x="1233.251953"/>
     <use xlink:href="#IPAexGothic-63" x="1293.652344"/>
     <use xlink:href="#IPAexGothic-65" x="1348.046875"/>
     <use xlink:href="#IPAexGothic-72" x="1404.931641"/>
     <use xlink:href="#IPAexGothic-28" x="1441.943359"/>
     <use xlink:href="#IPAexGothic-29" x="1475.244141"/>
    </g>
   </g>
   <g id="text_19">
    <!-- 腫瘍データ 569件・30特徴量・2クラス -->
    <g style="fill: #2c3e50" transform="translate(276.48 210.661758) scale(0.115 -0.115)">
     <defs>
      <path id="IPAexGothic-816b" d="M 3956 3297 
L 3956 3703 
L 2338 3703 
L 2338 4063 
L 3956 4063 
L 3956 4491 
Q 3256 4431 2716 4409 
L 2534 4784 
Q 4081 4831 5353 5119 
L 5678 4734 
Q 5178 4638 4372 4534 
L 4372 4063 
L 6019 4063 
L 6019 3703 
L 4372 3703 
L 4372 3297 
L 5641 3297 
L 5641 1313 
L 4372 1313 
L 4372 872 
L 5744 872 
L 5744 525 
L 4372 525 
L 4372 78 
L 6069 78 
L 6069 -288 
L 2319 -288 
L 2319 78 
L 3956 78 
L 3956 525 
L 2600 525 
L 2600 872 
L 3956 872 
L 3956 1313 
L 2722 1313 
L 2722 3297 
L 3956 3297 
z
M 3969 2956 
L 3125 2956 
L 3125 2472 
L 3969 2472 
L 3969 2956 
z
M 4359 2956 
L 4359 2472 
L 5231 2472 
L 5231 2956 
L 4359 2956 
z
M 3969 2159 
L 3125 2159 
L 3125 1653 
L 3969 1653 
L 3969 2159 
z
M 4359 2159 
L 4359 1653 
L 5231 1653 
L 5231 2159 
L 4359 2159 
z
M 2172 4978 
L 2172 25 
Q 2172 -225 2088 -306 
Q 1997 -397 1750 -397 
Q 1516 -397 1269 -366 
L 1209 72 
Q 1406 25 1616 25 
Q 1775 25 1775 191 
L 1775 1684 
L 981 1684 
Q 963 303 572 -506 
L 219 -191 
Q 591 578 591 2094 
L 591 4978 
L 2172 4978 
z
M 988 4588 
L 988 3541 
L 1775 3541 
L 1775 4588 
L 988 4588 
z
M 988 3156 
L 988 2069 
L 1775 2069 
L 1775 3156 
L 988 3156 
z
" transform="scale(0.015625)"/>
      <path id="IPAexGothic-760d" d="M 4828 1025 
Q 4391 9 3328 -538 
L 3028 -238 
Q 3981 188 4403 1025 
L 3834 1025 
Q 3391 241 2253 -313 
L 1997 19 
Q 2919 369 3394 1025 
L 2791 1025 
Q 2453 722 1941 463 
L 1678 763 
Q 2494 1119 2941 1706 
L 1909 1706 
L 1909 2059 
L 6088 2059 
L 6088 1706 
L 3388 1706 
Q 3281 1547 3119 1356 
L 5869 1356 
Q 5813 372 5684 -75 
Q 5572 -447 5078 -447 
Q 4734 -447 4494 -409 
L 4413 6 
Q 4750 -63 5006 -63 
Q 5228 -63 5294 150 
Q 5388 444 5434 1025 
L 4828 1025 
z
M 3772 4628 
L 6075 4628 
L 6075 4231 
L 1672 4231 
L 1672 2694 
Q 1672 1625 1500 903 
Q 1316 128 853 -484 
L 500 -122 
Q 1119 709 1206 1844 
Q 900 1622 406 1344 
L 188 1769 
Q 709 1959 1231 2291 
L 1231 2503 
L 1231 4628 
L 3303 4628 
L 3303 5306 
L 3772 5306 
L 3772 4628 
z
M 5294 3903 
L 5294 2388 
L 2497 2388 
L 2497 3903 
L 5294 3903 
z
M 2906 3591 
L 2906 3297 
L 4891 3297 
L 4891 3591 
L 2906 3591 
z
M 2906 2997 
L 2906 2694 
L 4891 2694 
L 4891 2997 
L 2906 2997 
z
M 744 2644 
Q 597 3338 372 3853 
L 756 4019 
Q 1009 3428 1141 2834 
L 744 2644 
z
" transform="scale(0.015625)"/>
      <path id="IPAexGothic-36" d="M 1056 2328 
Q 1509 2981 2234 2981 
Q 2906 2981 3316 2513 
Q 3675 2106 3675 1522 
Q 3675 884 3272 434 
Q 2853 -31 2178 -31 
Q 1375 -31 922 581 
Q 481 1178 481 2228 
Q 481 3425 1013 4109 
Q 1494 4725 2272 4725 
Q 3191 4725 3609 4025 
L 3150 3775 
Q 2894 4266 2300 4266 
Q 1119 4266 1031 2328 
L 1056 2328 
z
M 2141 2547 
Q 1684 2547 1384 2206 
Q 1116 1900 1116 1541 
Q 1116 1156 1353 844 
Q 1672 428 2159 428 
Q 2669 428 2941 844 
Q 3125 1128 3125 1503 
Q 3125 1944 2881 2228 
Q 2600 2547 2141 2547 
z
" transform="scale(0.015625)"/>
      <path id="IPAexGothic-30" d="M 2038 4725 
Q 2881 4725 3334 3944 
Q 3694 3325 3694 2344 
Q 3694 1372 3334 741 
Q 2888 -31 2016 -31 
Q 1147 -31 700 741 
Q 341 1372 341 2350 
Q 341 3713 1000 4334 
Q 1419 4725 2038 4725 
z
M 2016 4266 
Q 1516 4266 1228 3759 
Q 934 3247 934 2344 
Q 934 1456 1222 947 
Q 1513 447 2016 447 
Q 2619 447 2909 1153 
Q 3100 1622 3100 2375 
Q 3100 3256 2806 3759 
Q 2509 4266 2016 4266 
z
" transform="scale(0.015625)"/>
      <path id="IPAexGothic-32" d="M 3659 63 
L 447 63 
L 447 594 
Q 825 1475 1894 2203 
L 2072 2322 
Q 2619 2697 2791 2906 
Q 2988 3153 2988 3444 
Q 2988 3772 2756 4003 
Q 2500 4259 2084 4259 
Q 1250 4259 991 3328 
L 497 3506 
Q 853 4725 2116 4725 
Q 2806 4725 3216 4316 
Q 3575 3947 3575 3425 
Q 3575 3038 3344 2722 
Q 3131 2416 2366 1938 
L 2231 1856 
Q 1256 1253 978 569 
L 3659 569 
L 3659 63 
z
" transform="scale(0.015625)"/>
     </defs>
     <use xlink:href="#IPAexGothic-816b"/>
     <use xlink:href="#IPAexGothic-760d" x="100"/>
     <use xlink:href="#IPAexGothic-30c7" x="200"/>
     <use xlink:href="#IPAexGothic-30fc" x="300"/>
     <use xlink:href="#IPAexGothic-30bf" x="400"/>
     <use xlink:href="#IPAexGothic-20" x="500"/>
     <use xlink:href="#IPAexGothic-35" x="527.001953"/>
     <use xlink:href="#IPAexGothic-36" x="589.990234"/>
     <use xlink:href="#IPAexGothic-39" x="652.978516"/>
     <use xlink:href="#IPAexGothic-4ef6" x="715.966797"/>
     <use xlink:href="#IPAexGothic-30fb" x="815.966797"/>
     <use xlink:href="#IPAexGothic-33" x="915.966797"/>
     <use xlink:href="#IPAexGothic-30" x="978.955078"/>
     <use xlink:href="#IPAexGothic-7279" x="1041.943359"/>
     <use xlink:href="#IPAexGothic-5fb4" x="1141.943359"/>
     <use xlink:href="#IPAexGothic-91cf" x="1241.943359"/>
     <use xlink:href="#IPAexGothic-30fb" x="1341.943359"/>
     <use xlink:href="#IPAexGothic-32" x="1441.943359"/>
     <use xlink:href="#IPAexGothic-30af" x="1504.931641"/>
     <use xlink:href="#IPAexGothic-30e9" x="1604.931641"/>
     <use xlink:href="#IPAexGothic-30b9" x="1704.931641"/>
    </g>
   </g>
   <g id="text_20">
    <!-- sklearn.datasets -->
    <g style="fill: #2c3e50" transform="translate(557.28 210.574609) scale(0.115 -0.115)">
     <use xlink:href="#IPAexGothic-73"/>
     <use xlink:href="#IPAexGothic-6b" x="46.191406"/>
     <use xlink:href="#IPAexGothic-6c" x="97.998047"/>
     <use xlink:href="#IPAexGothic-65" x="125"/>
     <use xlink:href="#IPAexGothic-61" x="181.884766"/>
     <use xlink:href="#IPAexGothic-72" x="236.865234"/>
     <use xlink:href="#IPAexGothic-6e" x="273.876953"/>
     <use xlink:href="#IPAexGothic-2e" x="334.277344"/>
     <use xlink:href="#IPAexGothic-64" x="360.693359"/>
     <use xlink:href="#IPAexGothic-61" x="423.095703"/>
     <use xlink:href="#IPAexGothic-74" x="478.076172"/>
     <use xlink:href="#IPAexGothic-61" x="512.695312"/>
     <use xlink:href="#IPAexGothic-73" x="567.675781"/>
     <use xlink:href="#IPAexGothic-65" x="613.867188"/>
     <use xlink:href="#IPAexGothic-74" x="670.751953"/>
     <use xlink:href="#IPAexGothic-73" x="705.371094"/>
    </g>
   </g>
   <g id="text_21">
    <!-- ✅ すべて scikit-learn 内蔵データ → 追加ダウンロード不要 -->
    <g style="fill: #1e8449" transform="translate(41.04 337.799447) scale(0.13 -0.13)">
     <defs>
      <path id="IPAexGothic-2705" d="M 5759 -641 
L 641 -641 
L 641 5503 
L 5759 5503 
L 5759 -641 
z
M 5216 5172 
L 1191 5172 
L 3206 2694 
L 5216 5172 
z
M 5428 -53 
L 5428 4903 
L 3419 2425 
L 5428 -53 
z
M 2988 2425 
L 972 4916 
L 972 -59 
L 2988 2425 
z
M 5209 -309 
L 3206 2163 
L 1197 -309 
L 5209 -309 
z
" transform="scale(0.015625)"/>
      <path id="IPAexGothic-3059" d="M 3322 5075 
L 3816 5075 
L 3816 4063 
Q 4131 4075 5756 4116 
L 5756 3669 
Q 5431 3672 3816 3653 
L 3816 2463 
Q 3956 2125 3956 1741 
Q 3956 922 3519 397 
Q 3128 -72 2309 -409 
L 1941 -31 
Q 3263 453 3488 1363 
Q 3250 1031 2809 1031 
Q 2441 1031 2150 1313 
Q 1875 1588 1875 2050 
Q 1875 2475 2166 2769 
Q 2431 3041 2822 3041 
Q 3088 3041 3322 2881 
L 3322 3641 
Q 3000 3634 609 3547 
L 609 3988 
Q 1197 4000 2106 4022 
Q 3066 4047 3322 4050 
L 3322 5075 
z
M 3372 2044 
Q 3372 2300 3194 2478 
Q 3050 2613 2869 2613 
Q 2622 2613 2463 2406 
Q 2344 2250 2344 2088 
Q 2344 1797 2484 1622 
Q 2625 1453 2859 1453 
Q 3372 1453 3372 2044 
z
" transform="scale(0.015625)"/>
      <path id="IPAexGothic-3079" d="M 416 1894 
Q 1328 2553 2194 3525 
Q 2394 3744 2578 3744 
Q 2766 3744 3022 3488 
Q 4488 2019 5991 1291 
L 5631 819 
Q 4103 1722 2872 2944 
Q 2675 3141 2572 3141 
Q 2478 3141 2297 2928 
Q 1503 2041 734 1431 
L 416 1894 
z
M 5288 3713 
Q 4925 4253 4531 4581 
L 4831 4813 
Q 5216 4503 5606 3988 
L 5288 3713 
z
M 4691 3244 
Q 4400 3734 3956 4134 
L 4269 4375 
Q 4641 4069 5025 3519 
L 4691 3244 
z
" transform="scale(0.015625)"/>
      <path id="IPAexGothic-3066" d="M 581 4034 
Q 2978 4363 5466 4556 
L 5509 4097 
Q 4388 4031 3750 3572 
Q 2797 2878 2797 1913 
Q 2797 1169 3291 819 
Q 3778 484 4869 416 
L 4906 -116 
Q 2278 0 2278 1850 
Q 2278 3125 3691 4000 
Q 2066 3784 684 3553 
L 581 4034 
z
" transform="scale(0.015625)"/>
      <path id="IPAexGothic-2d" d="M 1969 1703 
L 319 1703 
L 319 2203 
L 1969 2203 
L 1969 1703 
z
" transform="scale(0.015625)"/>
      <path id="IPAexGothic-5185" d="M 2941 4172 
L 2941 5150 
L 3416 5150 
L 3416 4172 
L 5653 4172 
L 5653 238 
Q 5653 -75 5488 -191 
Q 5353 -288 5006 -288 
Q 4509 -288 3941 -244 
L 3863 256 
Q 4525 166 4928 166 
Q 5178 166 5178 416 
L 5178 3756 
L 3403 3756 
Q 3375 3356 3306 3006 
Q 4225 2341 5013 1522 
L 4634 1166 
Q 3953 1934 3191 2584 
Q 2816 1472 1628 881 
L 1328 1272 
Q 2388 1744 2709 2591 
Q 2881 3034 2928 3756 
L 1219 3756 
L 1219 -366 
L 738 -366 
L 738 4172 
L 2941 4172 
z
" transform="scale(0.015625)"/>
      <path id="IPAexGothic-8535" d="M 5159 3444 
Q 4919 3722 4653 3944 
L 4947 4188 
Q 5313 3913 5544 3656 
L 5269 3444 
L 5978 3444 
L 5978 3059 
L 4328 3059 
Q 4431 2059 4678 1291 
Q 5013 1847 5275 2650 
L 5684 2472 
Q 5288 1453 4878 844 
Q 5069 513 5300 319 
Q 5406 222 5447 222 
Q 5566 222 5672 1069 
L 6069 788 
Q 5906 -366 5569 -366 
Q 5450 -366 5172 -175 
Q 4869 31 4603 459 
Q 4178 -69 3622 -525 
L 3316 -213 
Q 3625 28 3766 153 
L 1947 153 
L 1947 -166 
L 1556 -166 
L 1556 2681 
L 3778 2681 
L 3778 2363 
L 2925 2363 
L 2925 1931 
L 3694 1931 
L 3694 922 
L 2925 922 
L 2925 478 
L 3847 478 
L 3847 228 
Q 4181 553 4391 850 
Q 4047 1650 3906 2963 
L 3900 3047 
L 1247 3047 
L 1247 2325 
Q 1247 1119 1113 503 
Q 1000 -19 691 -481 
L 341 -147 
Q 659 347 738 1094 
Q 788 1597 788 2459 
L 788 3425 
L 3859 3425 
L 3828 3822 
L 4281 3822 
L 4303 3444 
L 5159 3444 
z
M 1947 2363 
L 1947 1931 
L 2553 1931 
L 2553 2363 
L 1947 2363 
z
M 1947 1625 
L 1947 1228 
L 3316 1228 
L 3316 1625 
L 1947 1625 
z
M 1947 922 
L 1947 478 
L 2553 478 
L 2553 922 
L 1947 922 
z
M 1991 4703 
L 1991 5313 
L 2444 5313 
L 2444 4703 
L 3913 4703 
L 3913 5313 
L 4366 5313 
L 4366 4703 
L 5916 4703 
L 5916 4306 
L 4366 4306 
L 4366 3975 
L 3913 3975 
L 3913 4306 
L 2444 4306 
L 2444 3684 
L 1991 3684 
L 1991 4306 
L 488 4306 
L 488 4703 
L 1991 4703 
z
" transform="scale(0.015625)"/>
      <path id="IPAexGothic-2192" d="M 3947 3572 
L 4631 3572 
L 6072 2431 
L 4631 1294 
L 3947 1294 
L 5094 2194 
L 459 2194 
L 459 2669 
L 5094 2669 
L 3947 3572 
z
" transform="scale(0.015625)"/>
      <path id="IPAexGothic-30c0" d="M 4806 4219 
L 5141 3944 
Q 4625 2388 3884 1416 
Q 3019 281 1650 -344 
L 1294 66 
Q 1959 338 2441 694 
Q 2881 1022 3359 1556 
Q 2747 2181 1972 2747 
Q 1431 2159 1000 1831 
L 653 2191 
Q 2144 3284 2694 4988 
L 3188 4853 
Q 3153 4731 2938 4219 
L 4806 4219 
z
M 2722 3772 
Q 2538 3478 2266 3125 
Q 3022 2572 3669 1959 
Q 4194 2763 4575 3772 
L 2722 3772 
z
M 6009 4469 
Q 5647 5009 5256 5338 
L 5556 5569 
Q 5941 5259 6331 4744 
L 6009 4469 
z
M 5397 4031 
Q 5106 4522 4659 4922 
L 4972 5166 
Q 5344 4856 5728 4306 
L 5397 4031 
z
" transform="scale(0.015625)"/>
      <path id="IPAexGothic-30a6" d="M 2866 4981 
L 3391 4981 
L 3391 3963 
L 4991 3963 
L 5297 3713 
Q 5134 1969 4381 1044 
Q 3719 216 2500 -219 
L 2131 225 
Q 3409 597 4056 1466 
Q 4591 2197 4734 3488 
L 1588 3488 
L 1588 2053 
L 1075 2053 
L 1075 3963 
L 2866 3963 
L 2866 4981 
z
" transform="scale(0.015625)"/>
      <path id="IPAexGothic-30c9" d="M 2247 4959 
L 2766 4959 
L 2766 3169 
Q 4050 2581 5178 1850 
L 4841 1331 
Q 3781 2138 2766 2650 
L 2766 -225 
L 2247 -225 
L 2247 4959 
z
M 5263 3847 
Q 4900 4388 4506 4716 
L 4806 4947 
Q 5191 4638 5581 4122 
L 5263 3847 
z
M 4666 3378 
Q 4375 3869 3931 4269 
L 4244 4513 
Q 4616 4206 5000 3653 
L 4666 3378 
z
" transform="scale(0.015625)"/>
     </defs>
     <use xlink:href="#IPAexGothic-2705"/>
     <use xlink:href="#IPAexGothic-20" x="100"/>
     <use xlink:href="#IPAexGothic-3059" x="127.001953"/>
     <use xlink:href="#IPAexGothic-3079" x="227.001953"/>
     <use xlink:href="#IPAexGothic-3066" x="327.001953"/>
     <use xlink:href="#IPAexGothic-20" x="427.001953"/>
     <use xlink:href="#IPAexGothic-73" x="454.003906"/>
     <use xlink:href="#IPAexGothic-63" x="500.195312"/>
     <use xlink:href="#IPAexGothic-69" x="554.589844"/>
     <use xlink:href="#IPAexGothic-6b" x="581.591797"/>
     <use xlink:href="#IPAexGothic-69" x="633.398438"/>
     <use xlink:href="#IPAexGothic-74" x="660.400391"/>
     <use xlink:href="#IPAexGothic-2d" x="695.019531"/>
     <use xlink:href="#IPAexGothic-6c" x="730.810547"/>
     <use xlink:href="#IPAexGothic-65" x="757.8125"/>
     <use xlink:href="#IPAexGothic-61" x="814.697266"/>
     <use xlink:href="#IPAexGothic-72" x="869.677734"/>
     <use xlink:href="#IPAexGothic-6e" x="906.689453"/>
     <use xlink:href="#IPAexGothic-20" x="967.089844"/>
     <use xlink:href="#IPAexGothic-5185" x="994.091797"/>
     <use xlink:href="#IPAexGothic-8535" x="1094.091797"/>
     <use xlink:href="#IPAexGothic-30c7" x="1194.091797"/>
     <use xlink:href="#IPAexGothic-30fc" x="1294.091797"/>
     <use xlink:href="#IPAexGothic-30bf" x="1394.091797"/>
     <use xlink:href="#IPAexGothic-20" x="1494.091797"/>
     <use xlink:href="#IPAexGothic-2192" x="1521.09375"/>
     <use xlink:href="#IPAexGothic-20" x="1621.09375"/>
     <use xlink:href="#IPAexGothic-8ffd" x="1648.095703"/>
     <use xlink:href="#IPAexGothic-52a0" x="1748.095703"/>
     <use xlink:href="#IPAexGothic-30c0" x="1848.095703"/>
     <use xlink:href="#IPAexGothic-30a6" x="1948.095703"/>
     <use xlink:href="#IPAexGothic-30f3" x="2048.095703"/>
     <use xlink:href="#IPAexGothic-30ed" x="2148.095703"/>
     <use xlink:href="#IPAexGothic-30fc" x="2248.095703"/>
     <use xlink:href="#IPAexGothic-30c9" x="2348.095703"/>
     <use xlink:href="#IPAexGothic-4e0d" x="2448.095703"/>
     <use xlink:href="#IPAexGothic-8981" x="2548.095703"/>
    </g>
   </g>
  </g>
 </g>
 <defs>
  <clipPath id="p27022f810e">
   <rect x="0" y="-0" width="691.2" height="388.8"/>
  </clipPath>
 </defs>
</svg>
