<?xml version="1.0" encoding="utf-8" standalone="no"?>
<!DOCTYPE svg PUBLIC "-//W3C//DTD SVG 1.1//EN"
  "http://www.w3.org/Graphics/SVG/1.1/DTD/svg11.dtd">
<svg xmlns:xlink="http://www.w3.org/1999/xlink" width="691.2pt" height="388.8pt" viewBox="0 0 691.2 388.8" xmlns="http://www.w3.org/2000/svg" version="1.1">
 <metadata>
  <rdf:RDF xmlns:dc="http://purl.org/dc/elements/1.1/" xmlns:cc="http://creativecommons.org/ns#" xmlns:rdf="http://www.w3.org/1999/02/22-rdf-syntax-ns#">
   <cc:Work>
    <dc:type rdf:resource="http://purl.org/dc/dcmitype/StillImage"/>
    <dc:date>2026-04-09T02:37:45.475756</dc:date>
    <dc:format>image/svg+xml</dc:format>
    <dc:creator>
     <cc:Agent>
      <dc:title>Matplotlib v3.9.4, https://matplotlib.org/</dc:title>
     </cc:Agent>
    </dc:creator>
   </cc:Work>
  </rdf:RDF>
 </metadata>
 <defs>
  <style type="text/css">*{stroke-linejoin: round; stroke-linecap: butt}</style>
 </defs>
 <g id="figure_1">
  <g id="patch_1">
   <path d="M 0 388.8 
L 691.2 388.8 
L 691.2 0 
L 0 0 
z
" style="fill: #ffffff"/>
  </g>
  <g id="axes_1">
   <g id="patch_2">
    <path d="M 0 -0 
L 691.2 -0 
L 691.2 24.48 
L 0 24.48 
z
" clip-path="url(#pab7b16e3f0)" style="fill: #4a90d9"/>
   </g>
   <g id="patch_3">
    <path d="M 31.68 59.04 
L 659.52 59.04 
L 659.52 60.48 
L 31.68 60.48 
z
" clip-path="url(#pab7b16e3f0)" style="fill: #ecf0f1"/>
   </g>
   <g id="patch_4">
    <path d="M 31.68 76.32 
L 659.52 76.32 
Q 662.4 76.32 662.4 79.2 
L 662.4 159.84 
Q 662.4 162.72 659.52 162.72 
L 31.68 162.72 
Q 28.8 162.72 28.8 159.84 
L 28.8 79.2 
Q 28.8 76.32 31.68 76.32 
z
" clip-path="url(#pab7b16e3f0)" style="fill: #1e1e2e; stroke: #555555; stroke-linejoin: miter"/>
   </g>
   <g id="patch_5">
    <path d="M 31.68 181.44 
L 659.52 181.44 
Q 662.4 181.44 662.4 184.32 
L 662.4 264.96 
Q 662.4 267.84 659.52 267.84 
L 31.68 267.84 
Q 28.8 267.84 28.8 264.96 
L 28.8 184.32 
Q 28.8 181.44 31.68 181.44 
z
" clip-path="url(#pab7b16e3f0)" style="fill: #1e1e2e; stroke: #555555; stroke-linejoin: miter"/>
   </g>
   <g id="patch_6">
    <path d="M 31.68 273.6 
L 659.52 273.6 
L 659.52 302.4 
L 31.68 302.4 
z
" clip-path="url(#pab7b16e3f0)" style="fill: #ebf5fb"/>
   </g>
   <g id="patch_7">
    <path d="M 31.68 273.6 
L 33.84 273.6 
L 33.84 302.4 
L 31.68 302.4 
z
" clip-path="url(#pab7b16e3f0)" style="fill: #4a90d9"/>
   </g>
   <g id="text_1">
    <!-- Ch.1 データ読み込み・集計 -->
    <g style="fill: #ffffff" transform="translate(31.68 15.061875) scale(0.1 -0.1)">
     <defs>
      <path id="IPAexGothic-43" d="M 4353 1088 
Q 4181 694 3859 428 
Q 3313 -31 2559 -31 
Q 1588 -31 959 653 
Q 378 1294 378 2331 
Q 378 3406 1013 4078 
Q 1619 4725 2534 4725 
Q 3813 4725 4322 3628 
L 3809 3391 
Q 3425 4238 2541 4238 
Q 1891 4238 1453 3744 
Q 994 3216 994 2322 
Q 994 1550 1384 1056 
Q 1841 472 2563 472 
Q 3456 472 3878 1319 
L 4353 1088 
z
" transform="scale(0.015625)"/>
      <path id="IPAexGothic-68" d="M 3347 63 
L 2797 63 
L 2797 2041 
Q 2797 2853 2131 2853 
Q 1447 2853 1131 2041 
L 1131 63 
L 581 63 
L 581 4794 
L 1131 4794 
L 1131 2706 
Q 1566 3316 2247 3316 
Q 3347 3316 3347 2072 
L 3347 63 
z
" transform="scale(0.015625)"/>
      <path id="IPAexGothic-2e" d="M 1184 63 
L 494 63 
L 494 753 
L 1184 753 
L 1184 63 
z
" transform="scale(0.015625)"/>
      <path id="IPAexGothic-31" d="M 2463 63 
L 1900 63 
L 1900 4103 
Q 1372 3922 788 3797 
L 684 4231 
Q 1519 4441 2106 4731 
L 2463 4731 
L 2463 63 
z
" transform="scale(0.015625)"/>
      <path id="IPAexGothic-20" transform="scale(0.015625)"/>
      <path id="IPAexGothic-30c7" d="M 563 3072 
L 5741 3072 
L 5741 2613 
L 3578 2613 
Q 3538 1516 3134 872 
Q 2688 156 1663 -256 
L 1313 156 
Q 2338 538 2713 1166 
Q 3003 1644 3034 2613 
L 563 2613 
L 563 3072 
z
M 1406 4588 
L 4588 4588 
L 4588 4128 
L 1406 4128 
L 1406 4588 
z
M 6009 4469 
Q 5647 5009 5253 5338 
L 5553 5569 
Q 5938 5259 6328 4744 
L 6009 4469 
z
M 5413 4000 
Q 5125 4491 4678 4891 
L 4991 5131 
Q 5363 4825 5747 4275 
L 5413 4000 
z
" transform="scale(0.015625)"/>
      <path id="IPAexGothic-30fc" d="M 588 2688 
L 5809 2688 
L 5809 2175 
L 588 2175 
L 588 2688 
z
" transform="scale(0.015625)"/>
      <path id="IPAexGothic-30bf" d="M 4978 4263 
L 5313 3988 
Q 4797 2431 4056 1459 
Q 3191 325 1822 -300 
L 1466 109 
Q 2131 381 2613 738 
Q 3053 1066 3531 1600 
Q 2919 2225 2144 2791 
Q 1603 2203 1172 1875 
L 825 2234 
Q 2316 3328 2866 5031 
L 3359 4897 
Q 3325 4775 3109 4263 
L 4978 4263 
z
M 2894 3816 
Q 2709 3522 2438 3169 
Q 3194 2616 3841 2003 
Q 4366 2806 4747 3816 
L 2894 3816 
z
" transform="scale(0.015625)"/>
      <path id="IPAexGothic-8aad" d="M 2284 1684 
L 2284 -128 
L 919 -128 
L 919 -447 
L 509 -447 
L 509 1684 
L 2284 1684 
z
M 919 1313 
L 919 244 
L 1875 244 
L 1875 1313 
L 919 1313 
z
M 3953 4538 
L 3953 5313 
L 4394 5313 
L 4394 4538 
L 5994 4538 
L 5994 4153 
L 4394 4153 
L 4394 3572 
L 5822 3572 
L 5822 3194 
L 2653 3194 
L 2653 3572 
L 3953 3572 
L 3953 4153 
L 2506 4153 
L 2506 4538 
L 3953 4538 
z
M 5950 2725 
L 5950 1559 
L 5522 1559 
L 5522 2341 
L 2928 2341 
L 2928 1516 
L 2500 1516 
L 2500 2725 
L 5950 2725 
z
M 600 5044 
L 2194 5044 
L 2194 4659 
L 600 4659 
L 600 5044 
z
M 331 4206 
L 2384 4206 
L 2384 3816 
L 331 3816 
L 331 4206 
z
M 600 3359 
L 2194 3359 
L 2194 2975 
L 600 2975 
L 600 3359 
z
M 600 2522 
L 2194 2522 
L 2194 2138 
L 600 2138 
L 600 2522 
z
M 2353 -91 
Q 3025 194 3244 647 
Q 3431 1044 3441 2069 
L 3872 2069 
Q 3859 869 3634 441 
Q 3334 -109 2616 -475 
L 2353 -91 
z
M 4428 2069 
L 4856 2069 
L 4856 275 
Q 4856 128 4934 88 
Q 4994 63 5175 63 
Q 5500 63 5547 263 
Q 5584 425 5606 984 
L 6034 856 
Q 5994 153 5931 -38 
Q 5825 -372 5144 -372 
Q 4688 -372 4544 -275 
Q 4428 -191 4428 44 
L 4428 2069 
z
" transform="scale(0.015625)"/>
      <path id="IPAexGothic-307f" d="M 1291 4416 
Q 2209 4456 3341 4647 
L 3666 4409 
Q 3478 3597 3134 2703 
Q 3959 2575 4581 2300 
Q 4669 2759 4678 3488 
L 5163 3381 
Q 5134 2672 5016 2106 
Q 5519 1856 6016 1519 
L 5722 1081 
Q 5184 1459 4888 1613 
Q 4572 441 3456 -238 
L 3072 109 
Q 4150 678 4472 1831 
Q 3706 2200 2969 2284 
Q 2038 200 1319 200 
Q 1013 200 775 525 
Q 569 819 569 1197 
Q 569 1756 1081 2172 
Q 1681 2647 2663 2716 
Q 2900 3313 3084 4159 
Q 2278 4022 1447 3956 
L 1291 4416 
z
M 2481 2291 
Q 1644 2206 1241 1734 
Q 1038 1494 1038 1178 
Q 1038 1019 1100 897 
Q 1188 706 1338 706 
Q 1513 706 1797 1097 
Q 2131 1534 2481 2291 
z
" transform="scale(0.015625)"/>
      <path id="IPAexGothic-8fbc" d="M 4294 4897 
L 4294 4456 
Q 4294 3291 4763 2394 
Q 5206 1531 5938 1019 
L 5613 572 
Q 4391 1628 4044 3156 
Q 3706 1475 2503 544 
L 2169 934 
Q 3650 1928 3834 4403 
L 3841 4481 
L 2566 4481 
L 2566 4897 
L 4294 4897 
z
M 1831 775 
Q 2106 428 2516 284 
Q 2906 150 4197 150 
Q 5228 150 6119 216 
Q 6003 13 5944 -269 
Q 5022 -303 4453 -303 
Q 2925 -303 2425 -131 
Q 1900 44 1600 478 
Q 1144 -56 666 -450 
L 372 38 
Q 825 309 1378 759 
L 1378 2303 
L 397 2303 
L 397 2731 
L 1831 2731 
L 1831 775 
z
M 1625 3616 
Q 1191 4200 634 4703 
L 972 4997 
Q 1456 4616 1984 3969 
L 1625 3616 
z
" transform="scale(0.015625)"/>
      <path id="IPAexGothic-30fb" d="M 2772 2859 
L 3628 2859 
L 3628 2003 
L 2772 2003 
L 2772 2859 
z
" transform="scale(0.015625)"/>
      <path id="IPAexGothic-96c6" d="M 3000 4634 
Q 3197 5047 3275 5338 
L 3775 5216 
Q 3634 4922 3447 4634 
L 5625 4634 
L 5625 4269 
L 3416 4269 
L 3416 3884 
L 5291 3884 
L 5291 3553 
L 3416 3553 
L 3416 3175 
L 5291 3175 
L 5291 2844 
L 3416 2844 
L 3416 2431 
L 5759 2431 
L 5759 2066 
L 3403 2066 
L 3403 1659 
L 5981 1659 
L 5981 1281 
L 3741 1281 
Q 4628 538 6078 141 
L 5759 -275 
Q 4266 222 3403 1122 
L 3403 -447 
L 2950 -447 
L 2950 1091 
Q 2094 69 600 -409 
L 294 -25 
Q 1778 388 2644 1281 
L 416 1281 
L 416 1659 
L 2950 1659 
L 2950 2066 
L 1222 2066 
L 1222 3744 
Q 894 3322 600 3066 
L 306 3375 
Q 1209 4163 1625 5338 
L 2091 5244 
Q 1950 4909 1797 4634 
L 3000 4634 
z
M 1663 4269 
L 1663 3884 
L 3000 3884 
L 3000 4269 
L 1663 4269 
z
M 1663 3553 
L 1663 3175 
L 3000 3175 
L 3000 3553 
L 1663 3553 
z
M 1663 2844 
L 1663 2431 
L 3000 2431 
L 3000 2844 
L 1663 2844 
z
" transform="scale(0.015625)"/>
      <path id="IPAexGothic-8a08" d="M 2853 1684 
L 2853 -416 
L 2413 -416 
L 2413 -128 
L 1088 -128 
L 1088 -447 
L 647 -447 
L 647 1684 
L 2853 1684 
z
M 1088 1300 
L 1088 256 
L 2413 256 
L 2413 1300 
L 1088 1300 
z
M 4322 3225 
L 4322 5178 
L 4781 5178 
L 4781 3225 
L 6063 3225 
L 6063 2797 
L 4781 2797 
L 4781 -447 
L 4322 -447 
L 4322 2797 
L 3063 2797 
L 3063 3225 
L 4322 3225 
z
M 781 5044 
L 2722 5044 
L 2722 4647 
L 781 4647 
L 781 5044 
z
M 384 4206 
L 3150 4206 
L 3150 3803 
L 384 3803 
L 384 4206 
z
M 781 3359 
L 2722 3359 
L 2722 2963 
L 781 2963 
L 781 3359 
z
M 781 2522 
L 2722 2522 
L 2722 2125 
L 781 2125 
L 781 2522 
z
" transform="scale(0.015625)"/>
     </defs>
     <use xlink:href="#IPAexGothic-43"/>
     <use xlink:href="#IPAexGothic-68" x="72.509766"/>
     <use xlink:href="#IPAexGothic-2e" x="133.203125"/>
     <use xlink:href="#IPAexGothic-31" x="159.619141"/>
     <use xlink:href="#IPAexGothic-20" x="222.607422"/>
     <use xlink:href="#IPAexGothic-30c7" x="249.609375"/>
     <use xlink:href="#IPAexGothic-30fc" x="349.609375"/>
     <use xlink:href="#IPAexGothic-30bf" x="449.609375"/>
     <use xlink:href="#IPAexGothic-8aad" x="549.609375"/>
     <use xlink:href="#IPAexGothic-307f" x="649.609375"/>
     <use xlink:href="#IPAexGothic-8fbc" x="749.609375"/>
     <use xlink:href="#IPAexGothic-307f" x="849.609375"/>
     <use xlink:href="#IPAexGothic-30fb" x="949.609375"/>
     <use xlink:href="#IPAexGothic-96c6" x="1049.609375"/>
     <use xlink:href="#IPAexGothic-8a08" x="1149.609375"/>
    </g>
   </g>
   <g id="text_2">
    <!-- フィルタリングと集計 -->
    <g style="fill: #1a1a2e" transform="translate(31.68 55.4175) scale(0.24 -0.24)">
     <defs>
      <path id="IPAexGothic-30d5" d="M 4966 4294 
L 5263 4019 
Q 4819 894 1966 -97 
L 1600 353 
Q 4234 1156 4684 3822 
L 1044 3756 
L 1044 4244 
L 4966 4294 
z
" transform="scale(0.015625)"/>
      <path id="IPAexGothic-30a3" d="M 3034 -231 
L 3034 2188 
Q 2344 1656 1516 1294 
L 1191 1672 
Q 2981 2431 4128 3922 
L 4519 3634 
Q 4138 3122 3534 2597 
L 3534 -231 
L 3034 -231 
z
" transform="scale(0.015625)"/>
      <path id="IPAexGothic-30eb" d="M 353 331 
Q 1313 994 1544 2022 
Q 1684 2650 1684 4397 
L 2203 4397 
L 2203 4153 
L 2203 4116 
Q 2203 2259 1934 1491 
Q 1619 588 744 -38 
L 353 331 
z
M 3125 4666 
L 3650 4666 
L 3650 769 
Q 4875 1488 5672 2734 
L 6000 2278 
Q 5075 966 3516 63 
L 3125 359 
L 3125 4666 
z
" transform="scale(0.015625)"/>
      <path id="IPAexGothic-30ea" d="M 1678 4788 
L 2222 4788 
L 2222 1900 
L 1678 1900 
L 1678 4788 
z
M 4084 4909 
L 4628 4909 
L 4628 2753 
Q 4628 1563 4150 794 
Q 3725 119 2772 -353 
L 2394 78 
Q 3334 494 3706 1094 
Q 4084 1703 4084 2725 
L 4084 4909 
z
" transform="scale(0.015625)"/>
      <path id="IPAexGothic-30f3" d="M 2444 3084 
Q 1816 3656 1056 4084 
L 1381 4519 
Q 2063 4191 2816 3559 
L 2444 3084 
z
M 1100 609 
Q 3984 1106 5216 3828 
L 5619 3469 
Q 4413 794 1434 103 
L 1100 609 
z
" transform="scale(0.015625)"/>
      <path id="IPAexGothic-30b0" d="M 4769 4128 
L 5106 3878 
Q 4728 2272 3866 1238 
Q 3106 328 1863 -288 
L 1491 122 
Q 2709 628 3475 1563 
Q 4238 2491 4525 3669 
L 2738 3669 
Q 2022 2591 1191 1897 
L 813 2247 
Q 2163 3338 2766 4959 
L 3256 4819 
Q 3197 4609 2975 4128 
L 4769 4128 
z
M 6009 4422 
Q 5647 4966 5253 5294 
L 5556 5522 
Q 5941 5213 6328 4697 
L 6009 4422 
z
M 5416 3956 
Q 5125 4447 4678 4844 
L 4991 5088 
Q 5363 4781 5747 4231 
L 5416 3956 
z
" transform="scale(0.015625)"/>
      <path id="IPAexGothic-3068" d="M 5222 56 
Q 4200 -72 3450 -72 
Q 2478 -72 1941 113 
Q 1184 372 1184 1038 
Q 1184 1584 1594 2009 
Q 1941 2369 2656 2725 
Q 2231 3734 1972 4878 
L 2491 4978 
Q 2706 3884 3078 2950 
Q 4250 3447 4756 3616 
L 4978 3150 
Q 3181 2575 2409 2078 
Q 1691 1613 1691 1113 
Q 1691 403 3322 403 
Q 4125 403 5134 563 
L 5222 56 
z
" transform="scale(0.015625)"/>
     </defs>
     <use xlink:href="#IPAexGothic-30d5"/>
     <use xlink:href="#IPAexGothic-30a3" x="100"/>
     <use xlink:href="#IPAexGothic-30eb" x="200"/>
     <use xlink:href="#IPAexGothic-30bf" x="300"/>
     <use xlink:href="#IPAexGothic-30ea" x="400"/>
     <use xlink:href="#IPAexGothic-30f3" x="500"/>
     <use xlink:href="#IPAexGothic-30b0" x="600"/>
     <use xlink:href="#IPAexGothic-3068" x="700"/>
     <use xlink:href="#IPAexGothic-96c6" x="800"/>
     <use xlink:href="#IPAexGothic-8a08" x="900"/>
    </g>
   </g>
   <g id="text_3">
    <!-- 🔍 フィルタリング：条件で絞り込む -->
    <g style="fill: #4a90d9" transform="translate(31.68 74.848594) scale(0.13 -0.13)">
     <defs>
      <path id="IPAexGothic-1f50d" d="M 5759 -641 
L 641 -641 
L 641 5503 
L 5759 5503 
L 5759 -641 
z
M 5216 5172 
L 1191 5172 
L 3206 2694 
L 5216 5172 
z
M 5428 -53 
L 5428 4903 
L 3419 2425 
L 5428 -53 
z
M 2988 2425 
L 972 4916 
L 972 -59 
L 2988 2425 
z
M 5209 -309 
L 3206 2163 
L 1197 -309 
L 5209 -309 
z
" transform="scale(0.015625)"/>
      <path id="IPAexGothic-ff1a" d="M 2822 3366 
L 3578 3366 
L 3578 2609 
L 2822 2609 
L 2822 3366 
z
M 2822 1081 
L 3578 1081 
L 3578 325 
L 2822 325 
L 2822 1081 
z
" transform="scale(0.015625)"/>
      <path id="IPAexGothic-6761" d="M 3406 1475 
L 3406 -447 
L 2953 -447 
L 2953 1422 
Q 2147 306 641 -331 
L 334 59 
Q 1738 569 2563 1538 
L 488 1538 
L 488 1941 
L 2953 1941 
L 2953 2691 
L 3406 2691 
L 3406 1941 
L 5928 1941 
L 5928 1538 
L 3847 1538 
Q 4597 769 6063 238 
L 5759 -203 
Q 4256 400 3406 1475 
z
M 3738 3419 
Q 4619 2991 5959 2772 
L 5684 2356 
Q 4216 2631 3353 3150 
Q 2350 2494 813 2175 
L 531 2566 
Q 2063 2825 2997 3391 
Q 2494 3763 2163 4219 
Q 1694 3747 1038 3359 
L 725 3688 
Q 1897 4319 2466 5306 
L 2900 5203 
Q 2784 5003 2713 4903 
L 4641 4903 
L 4872 4691 
Q 4384 3938 3738 3419 
z
M 3353 3634 
Q 3919 4075 4219 4531 
L 2438 4531 
L 2425 4513 
Q 2838 3956 3353 3634 
z
" transform="scale(0.015625)"/>
      <path id="IPAexGothic-4ef6" d="M 3903 3425 
L 2906 3425 
Q 2697 2825 2309 2247 
L 1991 2572 
Q 2588 3497 2803 4788 
L 3256 4713 
Q 3175 4313 3041 3834 
L 3903 3834 
L 3903 5250 
L 4356 5250 
L 4356 3834 
L 5731 3834 
L 5731 3425 
L 4356 3425 
L 4356 2009 
L 6041 2009 
L 6041 1594 
L 4356 1594 
L 4356 -447 
L 3903 -447 
L 3903 1594 
L 2078 1594 
L 2078 2009 
L 3903 2009 
L 3903 3425 
z
M 1638 3681 
L 1638 -447 
L 1169 -447 
L 1169 2753 
Q 881 2272 575 1863 
L 313 2253 
Q 1238 3463 1650 5184 
L 2125 5069 
Q 1909 4316 1638 3681 
z
" transform="scale(0.015625)"/>
      <path id="IPAexGothic-3067" d="M 581 4034 
Q 2978 4363 5466 4556 
L 5509 4097 
Q 4388 4031 3750 3572 
Q 2797 2878 2797 1913 
Q 2797 1169 3291 819 
Q 3778 484 4869 416 
L 4906 -116 
Q 2278 0 2278 1850 
Q 2278 3125 3691 4000 
Q 2066 3784 684 3553 
L 581 4034 
z
M 5631 2522 
Q 5269 3063 4875 3391 
L 5175 3622 
Q 5559 3313 5950 2797 
L 5631 2522 
z
M 5034 2053 
Q 4747 2544 4300 2944 
L 4613 3184 
Q 4984 2878 5369 2328 
L 5034 2053 
z
" transform="scale(0.015625)"/>
      <path id="IPAexGothic-7d5e" d="M 1253 3084 
Q 825 3691 391 4128 
L 672 4428 
Q 903 4184 928 4153 
Q 1297 4694 1547 5331 
L 1963 5119 
Q 1550 4353 1163 3859 
Q 1363 3600 1478 3425 
Q 1872 4034 2150 4550 
L 2534 4313 
Q 1881 3234 1319 2572 
Q 1841 2594 2206 2638 
Q 2106 2959 2009 3181 
L 2359 3309 
Q 2600 2753 2763 2100 
L 2394 1941 
Q 2384 1969 2344 2150 
Q 2322 2256 2303 2322 
Q 2122 2291 1797 2241 
L 1797 -447 
L 1375 -447 
L 1375 2188 
L 1338 2181 
Q 884 2134 434 2106 
L 288 2534 
Q 363 2538 531 2541 
Q 681 2544 759 2547 
L 875 2553 
Q 956 2666 1097 2863 
Q 1194 3003 1234 3059 
L 1253 3084 
z
M 4428 678 
Q 3800 -84 2913 -488 
L 2644 -122 
Q 3578 266 4153 991 
Q 3753 1528 3500 2328 
L 3853 2503 
Q 4044 1819 4403 1344 
Q 4719 1869 4881 2663 
L 5284 2503 
Q 5088 1656 4678 1025 
Q 5291 422 6125 50 
L 5844 -378 
Q 4981 78 4428 678 
z
M 4588 4256 
L 6034 4256 
L 6034 3853 
L 2791 3853 
L 2791 4256 
L 4147 4256 
L 4147 5294 
L 4588 5294 
L 4588 4256 
z
M 359 206 
Q 594 841 659 1759 
L 1069 1709 
Q 991 678 775 -13 
L 359 206 
z
M 2381 313 
Q 2234 1113 2009 1722 
L 2363 1838 
Q 2603 1294 2803 506 
L 2381 313 
z
M 2759 2316 
Q 3309 2847 3603 3675 
L 3994 3513 
Q 3634 2600 3066 2022 
L 2759 2316 
z
M 5697 2125 
Q 5250 2884 4641 3531 
L 4972 3731 
Q 5606 3119 6047 2419 
L 5697 2125 
z
" transform="scale(0.015625)"/>
      <path id="IPAexGothic-308a" d="M 2878 2925 
Q 2503 2294 2372 2041 
Q 2222 1750 2163 1459 
L 1716 1503 
Q 1509 2131 1509 3091 
Q 1509 3744 1663 4872 
L 2181 4806 
Q 2003 3541 2003 3016 
Q 2003 2613 2028 2259 
Q 2109 2413 2313 2766 
Q 2484 3063 2578 3238 
L 2878 2925 
z
M 2488 128 
Q 3534 503 3928 1184 
Q 4234 1713 4234 2975 
Q 4234 3872 4122 4928 
L 4666 4928 
Q 4759 3794 4759 2975 
Q 4759 1516 4356 844 
Q 3913 103 2853 -288 
L 2488 128 
z
" transform="scale(0.015625)"/>
      <path id="IPAexGothic-3080" d="M 1856 4984 
L 2347 4984 
L 2316 4084 
Q 2863 4131 3506 4256 
L 3556 3794 
Q 3119 3722 2297 3647 
L 2259 2509 
Q 2366 2272 2366 2022 
Q 2366 1672 2175 1375 
Q 2009 1100 2009 753 
Q 2009 459 2272 384 
Q 2503 313 3072 313 
Q 3747 313 4178 428 
Q 4594 534 4594 1056 
Q 4594 1506 4375 2034 
L 4888 2138 
Q 5100 1516 5100 991 
Q 5100 219 4491 25 
Q 4022 -128 3000 -128 
Q 2222 -128 1894 13 
Q 1534 169 1534 556 
Q 1534 753 1572 953 
Q 1456 909 1325 909 
Q 1072 909 894 1050 
Q 594 1294 594 1778 
Q 594 2319 959 2675 
Q 1231 2938 1547 2938 
Q 1650 2938 1803 2894 
L 1822 3616 
Q 1372 3597 1063 3597 
Q 928 3597 581 3609 
L 581 4063 
Q 894 4038 1278 4038 
Q 1394 4038 1828 4050 
L 1856 4984 
z
M 1572 2584 
Q 1409 2584 1266 2431 
Q 1041 2181 1041 1813 
Q 1041 1281 1425 1281 
Q 1644 1281 1794 1556 
Q 1878 1703 1878 2016 
Q 1878 2584 1572 2584 
z
M 5644 2516 
Q 5050 3319 4331 3884 
L 4716 4197 
Q 5391 3684 6041 2900 
L 5644 2516 
z
" transform="scale(0.015625)"/>
     </defs>
     <use xlink:href="#IPAexGothic-1f50d"/>
     <use xlink:href="#IPAexGothic-20" x="100"/>
     <use xlink:href="#IPAexGothic-30d5" x="127.001953"/>
     <use xlink:href="#IPAexGothic-30a3" x="227.001953"/>
     <use xlink:href="#IPAexGothic-30eb" x="327.001953"/>
     <use xlink:href="#IPAexGothic-30bf" x="427.001953"/>
     <use xlink:href="#IPAexGothic-30ea" x="527.001953"/>
     <use xlink:href="#IPAexGothic-30f3" x="627.001953"/>
     <use xlink:href="#IPAexGothic-30b0" x="727.001953"/>
     <use xlink:href="#IPAexGothic-ff1a" x="827.001953"/>
     <use xlink:href="#IPAexGothic-6761" x="927.001953"/>
     <use xlink:href="#IPAexGothic-4ef6" x="1027.001953"/>
     <use xlink:href="#IPAexGothic-3067" x="1127.001953"/>
     <use xlink:href="#IPAexGothic-7d5e" x="1227.001953"/>
     <use xlink:href="#IPAexGothic-308a" x="1327.001953"/>
     <use xlink:href="#IPAexGothic-8fbc" x="1427.001953"/>
     <use xlink:href="#IPAexGothic-3080" x="1527.001953"/>
    </g>
   </g>
   <g id="text_4">
    <!-- # アルコール度数が 13.5 以上 -->
    <g style="fill: #cdd6f4" transform="translate(40.32 95.546034) scale(0.105 -0.105)">
     <defs>
      <path id="DejaVuSansMono-23" d="M 2138 4594 
L 1813 3297 
L 2578 3297 
L 2906 4594 
L 3406 4594 
L 3078 3297 
L 3841 3297 
L 3841 2816 
L 2963 2816 
L 2700 1772 
L 3481 1772 
L 3481 1294 
L 2578 1294 
L 2253 0 
L 1753 0 
L 2081 1294 
L 1313 1294 
L 984 0 
L 488 0 
L 813 1294 
L 6 1294 
L 6 1772 
L 934 1772 
L 1197 2816 
L 366 2816 
L 366 3297 
L 1313 3297 
L 1638 4594 
L 2138 4594 
z
M 2463 2816 
L 1697 2816 
L 1434 1772 
L 2203 1772 
L 2463 2816 
z
" transform="scale(0.015625)"/>
      <path id="DejaVuSansMono-20" transform="scale(0.015625)"/>
      <path id="DejaVuSansMono-30a2" d="M 325 -1131 
L 325 4513 
L 3525 4513 
L 3525 -1131 
L 325 -1131 
z
M 684 -775 
L 3169 -775 
L 3169 4153 
L 684 4153 
L 684 -775 
z
" transform="scale(0.015625)"/>
      <path id="DejaVuSansMono-30eb" d="M 325 -1131 
L 325 4513 
L 3525 4513 
L 3525 -1131 
L 325 -1131 
z
M 684 -775 
L 3169 -775 
L 3169 4153 
L 684 4153 
L 684 -775 
z
" transform="scale(0.015625)"/>
      <path id="DejaVuSansMono-30b3" d="M 325 -1131 
L 325 4513 
L 3525 4513 
L 3525 -1131 
L 325 -1131 
z
M 684 -775 
L 3169 -775 
L 3169 4153 
L 684 4153 
L 684 -775 
z
" transform="scale(0.015625)"/>
      <path id="DejaVuSansMono-30fc" d="M 325 -1131 
L 325 4513 
L 3525 4513 
L 3525 -1131 
L 325 -1131 
z
M 684 -775 
L 3169 -775 
L 3169 4153 
L 684 4153 
L 684 -775 
z
" transform="scale(0.015625)"/>
      <path id="DejaVuSansMono-5ea6" d="M 325 -1131 
L 325 4513 
L 3525 4513 
L 3525 -1131 
L 325 -1131 
z
M 684 -775 
L 3169 -775 
L 3169 4153 
L 684 4153 
L 684 -775 
z
" transform="scale(0.015625)"/>
      <path id="DejaVuSansMono-6570" d="M 325 -1131 
L 325 4513 
L 3525 4513 
L 3525 -1131 
L 325 -1131 
z
M 684 -775 
L 3169 -775 
L 3169 4153 
L 684 4153 
L 684 -775 
z
" transform="scale(0.015625)"/>
      <path id="DejaVuSansMono-304c" d="M 325 -1131 
L 325 4513 
L 3525 4513 
L 3525 -1131 
L 325 -1131 
z
M 684 -775 
L 3169 -775 
L 3169 4153 
L 684 4153 
L 684 -775 
z
" transform="scale(0.015625)"/>
      <path id="DejaVuSansMono-31" d="M 844 531 
L 1825 531 
L 1825 4097 
L 769 3859 
L 769 4434 
L 1819 4666 
L 2450 4666 
L 2450 531 
L 3419 531 
L 3419 0 
L 844 0 
L 844 531 
z
" transform="scale(0.015625)"/>
      <path id="DejaVuSansMono-33" d="M 2425 2497 
Q 2884 2375 3128 2064 
Q 3372 1753 3372 1288 
Q 3372 644 2939 276 
Q 2506 -91 1741 -91 
Q 1419 -91 1084 -31 
Q 750 28 428 141 
L 428 769 
Q 747 603 1056 522 
Q 1366 441 1672 441 
Q 2191 441 2469 675 
Q 2747 909 2747 1350 
Q 2747 1756 2469 1995 
Q 2191 2234 1716 2234 
L 1234 2234 
L 1234 2753 
L 1716 2753 
Q 2150 2753 2394 2943 
Q 2638 3134 2638 3475 
Q 2638 3834 2411 4026 
Q 2184 4219 1766 4219 
Q 1488 4219 1191 4156 
Q 894 4094 569 3969 
L 569 4550 
Q 947 4650 1242 4700 
Q 1538 4750 1766 4750 
Q 2447 4750 2855 4408 
Q 3263 4066 3263 3500 
Q 3263 3116 3048 2859 
Q 2834 2603 2425 2497 
z
" transform="scale(0.015625)"/>
      <path id="DejaVuSansMono-2e" d="M 1528 953 
L 2316 953 
L 2316 0 
L 1528 0 
L 1528 953 
z
" transform="scale(0.015625)"/>
      <path id="DejaVuSansMono-35" d="M 647 4666 
L 3009 4666 
L 3009 4134 
L 1222 4134 
L 1222 2988 
Q 1356 3038 1492 3061 
Q 1628 3084 1766 3084 
Q 2491 3084 2916 2656 
Q 3341 2228 3341 1497 
Q 3341 759 2895 334 
Q 2450 -91 1678 -91 
Q 1306 -91 998 -41 
Q 691 9 447 109 
L 447 750 
Q 734 594 1025 517 
Q 1316 441 1619 441 
Q 2141 441 2423 716 
Q 2706 991 2706 1497 
Q 2706 1997 2414 2275 
Q 2122 2553 1600 2553 
Q 1347 2553 1106 2495 
Q 866 2438 647 2322 
L 647 4666 
z
" transform="scale(0.015625)"/>
      <path id="DejaVuSansMono-4ee5" d="M 325 -1131 
L 325 4513 
L 3525 4513 
L 3525 -1131 
L 325 -1131 
z
M 684 -775 
L 3169 -775 
L 3169 4153 
L 684 4153 
L 684 -775 
z
" transform="scale(0.015625)"/>
      <path id="DejaVuSansMono-4e0a" d="M 325 -1131 
L 325 4513 
L 3525 4513 
L 3525 -1131 
L 325 -1131 
z
M 684 -775 
L 3169 -775 
L 3169 4153 
L 684 4153 
L 684 -775 
z
" transform="scale(0.015625)"/>
     </defs>
     <use xlink:href="#DejaVuSansMono-23"/>
     <use xlink:href="#DejaVuSansMono-20" x="60.205078"/>
     <use xlink:href="#DejaVuSansMono-30a2" x="120.410156"/>
     <use xlink:href="#DejaVuSansMono-30eb" x="180.615234"/>
     <use xlink:href="#DejaVuSansMono-30b3" x="240.820312"/>
     <use xlink:href="#DejaVuSansMono-30fc" x="301.025391"/>
     <use xlink:href="#DejaVuSansMono-30eb" x="361.230469"/>
     <use xlink:href="#DejaVuSansMono-5ea6" x="421.435547"/>
     <use xlink:href="#DejaVuSansMono-6570" x="481.640625"/>
     <use xlink:href="#DejaVuSansMono-304c" x="541.845703"/>
     <use xlink:href="#DejaVuSansMono-20" x="602.050781"/>
     <use xlink:href="#DejaVuSansMono-31" x="662.255859"/>
     <use xlink:href="#DejaVuSansMono-33" x="722.460938"/>
     <use xlink:href="#DejaVuSansMono-2e" x="782.666016"/>
     <use xlink:href="#DejaVuSansMono-35" x="842.871094"/>
     <use xlink:href="#DejaVuSansMono-20" x="903.076172"/>
     <use xlink:href="#DejaVuSansMono-4ee5" x="963.28125"/>
     <use xlink:href="#DejaVuSansMono-4e0a" x="1023.486328"/>
    </g>
   </g>
   <g id="text_5">
    <!-- high_alc = df[df["alcohol"] &gt;= 13.5] -->
    <g style="fill: #cdd6f4" transform="translate(40.32 109.224019) scale(0.105 -0.105)">
     <defs>
      <path id="DejaVuSansMono-68" d="M 3284 2169 
L 3284 0 
L 2706 0 
L 2706 2169 
Q 2706 2641 2540 2862 
Q 2375 3084 2022 3084 
Q 1619 3084 1401 2798 
Q 1184 2513 1184 1978 
L 1184 0 
L 609 0 
L 609 4863 
L 1184 4863 
L 1184 2975 
Q 1338 3275 1600 3429 
Q 1863 3584 2222 3584 
Q 2756 3584 3020 3232 
Q 3284 2881 3284 2169 
z
" transform="scale(0.015625)"/>
      <path id="DejaVuSansMono-69" d="M 800 3500 
L 2272 3500 
L 2272 447 
L 3413 447 
L 3413 0 
L 556 0 
L 556 447 
L 1697 447 
L 1697 3053 
L 800 3053 
L 800 3500 
z
M 1697 4863 
L 2272 4863 
L 2272 4134 
L 1697 4134 
L 1697 4863 
z
" transform="scale(0.015625)"/>
      <path id="DejaVuSansMono-67" d="M 2681 1778 
Q 2681 2425 2470 2761 
Q 2259 3097 1856 3097 
Q 1434 3097 1212 2761 
Q 991 2425 991 1778 
Q 991 1131 1214 792 
Q 1438 453 1863 453 
Q 2259 453 2470 793 
Q 2681 1134 2681 1778 
z
M 3256 225 
Q 3256 -563 2884 -969 
Q 2513 -1375 1791 -1375 
Q 1553 -1375 1293 -1331 
Q 1034 -1288 775 -1203 
L 775 -634 
Q 1081 -778 1331 -847 
Q 1581 -916 1791 -916 
Q 2256 -916 2468 -662 
Q 2681 -409 2681 141 
L 2681 166 
L 2681 556 
Q 2544 263 2306 119 
Q 2069 -25 1728 -25 
Q 1116 -25 750 465 
Q 384 956 384 1778 
Q 384 2603 750 3093 
Q 1116 3584 1728 3584 
Q 2066 3584 2300 3450 
Q 2534 3316 2681 3034 
L 2681 3488 
L 3256 3488 
L 3256 225 
z
" transform="scale(0.015625)"/>
      <path id="DejaVuSansMono-5f" d="M 3853 -1259 
L 3853 -1509 
L 0 -1509 
L 0 -1259 
L 3853 -1259 
z
" transform="scale(0.015625)"/>
      <path id="DejaVuSansMono-61" d="M 2194 1759 
L 2003 1759 
Q 1500 1759 1245 1582 
Q 991 1406 991 1056 
Q 991 741 1181 566 
Q 1372 391 1709 391 
Q 2184 391 2456 720 
Q 2728 1050 2731 1631 
L 2731 1759 
L 2194 1759 
z
M 3309 1997 
L 3309 0 
L 2731 0 
L 2731 519 
Q 2547 206 2267 57 
Q 1988 -91 1588 -91 
Q 1053 -91 734 211 
Q 416 513 416 1019 
Q 416 1603 808 1906 
Q 1200 2209 1959 2209 
L 2731 2209 
L 2731 2300 
Q 2728 2719 2518 2908 
Q 2309 3097 1850 3097 
Q 1556 3097 1256 3012 
Q 956 2928 672 2766 
L 672 3341 
Q 991 3463 1283 3523 
Q 1575 3584 1850 3584 
Q 2284 3584 2592 3456 
Q 2900 3328 3091 3072 
Q 3209 2916 3259 2686 
Q 3309 2456 3309 1997 
z
" transform="scale(0.015625)"/>
      <path id="DejaVuSansMono-6c" d="M 1997 1269 
Q 1997 881 2139 684 
Q 2281 488 2559 488 
L 3231 488 
L 3231 0 
L 2503 0 
Q 1988 0 1705 331 
Q 1422 663 1422 1269 
L 1422 4447 
L 500 4447 
L 500 4897 
L 1997 4897 
L 1997 1269 
z
" transform="scale(0.015625)"/>
      <path id="DejaVuSansMono-63" d="M 3316 178 
Q 3084 44 2839 -23 
Q 2594 -91 2338 -91 
Q 1525 -91 1067 396 
Q 609 884 609 1747 
Q 609 2609 1067 3096 
Q 1525 3584 2338 3584 
Q 2591 3584 2831 3518 
Q 3072 3453 3316 3316 
L 3316 2713 
Q 3088 2916 2858 3006 
Q 2628 3097 2338 3097 
Q 1797 3097 1506 2747 
Q 1216 2397 1216 1747 
Q 1216 1100 1508 748 
Q 1800 397 2338 397 
Q 2638 397 2875 489 
Q 3113 581 3316 775 
L 3316 178 
z
" transform="scale(0.015625)"/>
      <path id="DejaVuSansMono-3d" d="M 275 1638 
L 3578 1638 
L 3578 1100 
L 275 1100 
L 275 1638 
z
M 275 2906 
L 3578 2906 
L 3578 2375 
L 275 2375 
L 275 2906 
z
" transform="scale(0.015625)"/>
      <path id="DejaVuSansMono-64" d="M 2681 3053 
L 2681 4863 
L 3256 4863 
L 3256 0 
L 2681 0 
L 2681 441 
Q 2538 181 2298 45 
Q 2059 -91 1747 -91 
Q 1113 -91 748 401 
Q 384 894 384 1759 
Q 384 2613 750 3098 
Q 1116 3584 1747 3584 
Q 2063 3584 2303 3448 
Q 2544 3313 2681 3053 
z
M 991 1747 
Q 991 1078 1203 737 
Q 1416 397 1831 397 
Q 2247 397 2464 740 
Q 2681 1084 2681 1747 
Q 2681 2413 2464 2755 
Q 2247 3097 1831 3097 
Q 1416 3097 1203 2756 
Q 991 2416 991 1747 
z
" transform="scale(0.015625)"/>
      <path id="DejaVuSansMono-66" d="M 3322 4863 
L 3322 4384 
L 2669 4384 
Q 2359 4384 2239 4257 
Q 2119 4131 2119 3809 
L 2119 3500 
L 3322 3500 
L 3322 3053 
L 2119 3053 
L 2119 0 
L 1544 0 
L 1544 3053 
L 609 3053 
L 609 3500 
L 1544 3500 
L 1544 3744 
Q 1544 4319 1808 4591 
Q 2072 4863 2631 4863 
L 3322 4863 
z
" transform="scale(0.015625)"/>
      <path id="DejaVuSansMono-5b" d="M 1447 4863 
L 2772 4863 
L 2772 4416 
L 2022 4416 
L 2022 -397 
L 2772 -397 
L 2772 -844 
L 1447 -844 
L 1447 4863 
z
" transform="scale(0.015625)"/>
      <path id="DejaVuSansMono-22" d="M 2797 4666 
L 2797 2931 
L 2253 2931 
L 2253 4666 
L 2797 4666 
z
M 1600 4666 
L 1600 2931 
L 1056 2931 
L 1056 4666 
L 1600 4666 
z
" transform="scale(0.015625)"/>
      <path id="DejaVuSansMono-6f" d="M 1925 3097 
Q 1488 3097 1263 2756 
Q 1038 2416 1038 1747 
Q 1038 1081 1263 739 
Q 1488 397 1925 397 
Q 2366 397 2591 739 
Q 2816 1081 2816 1747 
Q 2816 2416 2591 2756 
Q 2366 3097 1925 3097 
z
M 1925 3584 
Q 2653 3584 3039 3112 
Q 3425 2641 3425 1747 
Q 3425 850 3040 379 
Q 2656 -91 1925 -91 
Q 1197 -91 812 379 
Q 428 850 428 1747 
Q 428 2641 812 3112 
Q 1197 3584 1925 3584 
z
" transform="scale(0.015625)"/>
      <path id="DejaVuSansMono-5d" d="M 2406 4863 
L 2406 -844 
L 1081 -844 
L 1081 -397 
L 1831 -397 
L 1831 4416 
L 1081 4416 
L 1081 4863 
L 2406 4863 
z
" transform="scale(0.015625)"/>
      <path id="DejaVuSansMono-3e" d="M 275 3003 
L 275 3572 
L 3578 2266 
L 3578 1747 
L 275 441 
L 275 1013 
L 2931 2003 
L 275 3003 
z
" transform="scale(0.015625)"/>
     </defs>
     <use xlink:href="#DejaVuSansMono-68"/>
     <use xlink:href="#DejaVuSansMono-69" x="60.205078"/>
     <use xlink:href="#DejaVuSansMono-67" x="120.410156"/>
     <use xlink:href="#DejaVuSansMono-68" x="180.615234"/>
     <use xlink:href="#DejaVuSansMono-5f" x="240.820312"/>
     <use xlink:href="#DejaVuSansMono-61" x="301.025391"/>
     <use xlink:href="#DejaVuSansMono-6c" x="361.230469"/>
     <use xlink:href="#DejaVuSansMono-63" x="421.435547"/>
     <use xlink:href="#DejaVuSansMono-20" x="481.640625"/>
     <use xlink:href="#DejaVuSansMono-3d" x="541.845703"/>
     <use xlink:href="#DejaVuSansMono-20" x="602.050781"/>
     <use xlink:href="#DejaVuSansMono-64" x="662.255859"/>
     <use xlink:href="#DejaVuSansMono-66" x="722.460938"/>
     <use xlink:href="#DejaVuSansMono-5b" x="782.666016"/>
     <use xlink:href="#DejaVuSansMono-64" x="842.871094"/>
     <use xlink:href="#DejaVuSansMono-66" x="903.076172"/>
     <use xlink:href="#DejaVuSansMono-5b" x="963.28125"/>
     <use xlink:href="#DejaVuSansMono-22" x="1023.486328"/>
     <use xlink:href="#DejaVuSansMono-61" x="1083.691406"/>
     <use xlink:href="#DejaVuSansMono-6c" x="1143.896484"/>
     <use xlink:href="#DejaVuSansMono-63" x="1204.101562"/>
     <use xlink:href="#DejaVuSansMono-6f" x="1264.306641"/>
     <use xlink:href="#DejaVuSansMono-68" x="1324.511719"/>
     <use xlink:href="#DejaVuSansMono-6f" x="1384.716797"/>
     <use xlink:href="#DejaVuSansMono-6c" x="1444.921875"/>
     <use xlink:href="#DejaVuSansMono-22" x="1505.126953"/>
     <use xlink:href="#DejaVuSansMono-5d" x="1565.332031"/>
     <use xlink:href="#DejaVuSansMono-20" x="1625.537109"/>
     <use xlink:href="#DejaVuSansMono-3e" x="1685.742188"/>
     <use xlink:href="#DejaVuSansMono-3d" x="1745.947266"/>
     <use xlink:href="#DejaVuSansMono-20" x="1806.152344"/>
     <use xlink:href="#DejaVuSansMono-31" x="1866.357422"/>
     <use xlink:href="#DejaVuSansMono-33" x="1926.5625"/>
     <use xlink:href="#DejaVuSansMono-2e" x="1986.767578"/>
     <use xlink:href="#DejaVuSansMono-35" x="2046.972656"/>
     <use xlink:href="#DejaVuSansMono-5d" x="2107.177734"/>
    </g>
   </g>
   <g id="text_6">
    <!-- # 複数条件（&amp; で AND） -->
    <g style="fill: #cdd6f4" transform="translate(40.32 137.018034) scale(0.105 -0.105)">
     <defs>
      <path id="DejaVuSansMono-8907" d="M 325 -1131 
L 325 4513 
L 3525 4513 
L 3525 -1131 
L 325 -1131 
z
M 684 -775 
L 3169 -775 
L 3169 4153 
L 684 4153 
L 684 -775 
z
" transform="scale(0.015625)"/>
      <path id="DejaVuSansMono-6761" d="M 325 -1131 
L 325 4513 
L 3525 4513 
L 3525 -1131 
L 325 -1131 
z
M 684 -775 
L 3169 -775 
L 3169 4153 
L 684 4153 
L 684 -775 
z
" transform="scale(0.015625)"/>
      <path id="DejaVuSansMono-4ef6" d="M 325 -1131 
L 325 4513 
L 3525 4513 
L 3525 -1131 
L 325 -1131 
z
M 684 -775 
L 3169 -775 
L 3169 4153 
L 684 4153 
L 684 -775 
z
" transform="scale(0.015625)"/>
      <path id="DejaVuSansMono-ff08" d="M 325 -1131 
L 325 4513 
L 3525 4513 
L 3525 -1131 
L 325 -1131 
z
M 684 -775 
L 3169 -775 
L 3169 4153 
L 684 4153 
L 684 -775 
z
" transform="scale(0.015625)"/>
      <path id="DejaVuSansMono-26" d="M 1709 2834 
L 3009 1088 
Q 3131 1241 3190 1475 
Q 3250 1709 3250 2034 
Q 3250 2134 3241 2353 
L 3238 2375 
L 3750 2375 
L 3750 2253 
Q 3750 1750 3634 1370 
Q 3519 991 3284 716 
L 3816 0 
L 3150 0 
L 2906 341 
Q 2647 122 2356 15 
Q 2066 -91 1734 -91 
Q 1059 -91 618 329 
Q 178 750 178 1388 
Q 178 1816 393 2181 
Q 609 2547 1044 2859 
Q 888 3084 813 3300 
Q 738 3516 738 3738 
Q 738 4206 1048 4478 
Q 1359 4750 1900 4750 
Q 2103 4750 2308 4712 
Q 2513 4675 2731 4603 
L 2731 4031 
Q 2547 4153 2351 4211 
Q 2156 4269 1941 4269 
Q 1638 4269 1463 4126 
Q 1288 3984 1288 3744 
Q 1288 3559 1378 3357 
Q 1469 3156 1709 2834 
z
M 1300 2509 
Q 1013 2281 870 2026 
Q 728 1772 728 1484 
Q 728 1013 1040 702 
Q 1353 391 1838 391 
Q 1969 391 2112 428 
Q 2256 466 2394 538 
Q 2478 584 2533 620 
Q 2588 656 2638 697 
L 1300 2509 
z
" transform="scale(0.015625)"/>
      <path id="DejaVuSansMono-3067" d="M 325 -1131 
L 325 4513 
L 3525 4513 
L 3525 -1131 
L 325 -1131 
z
M 684 -775 
L 3169 -775 
L 3169 4153 
L 684 4153 
L 684 -775 
z
" transform="scale(0.015625)"/>
      <path id="DejaVuSansMono-41" d="M 1925 4109 
L 1259 1722 
L 2591 1722 
L 1925 4109 
z
M 1544 4666 
L 2309 4666 
L 3738 0 
L 3084 0 
L 2741 1216 
L 1106 1216 
L 769 0 
L 116 0 
L 1544 4666 
z
" transform="scale(0.015625)"/>
      <path id="DejaVuSansMono-4e" d="M 434 4666 
L 1234 4666 
L 2809 825 
L 2809 4666 
L 3419 4666 
L 3419 0 
L 2619 0 
L 1044 3841 
L 1044 0 
L 434 0 
L 434 4666 
z
" transform="scale(0.015625)"/>
      <path id="DejaVuSansMono-44" d="M 1363 519 
Q 2159 519 2475 911 
Q 2791 1303 2791 2328 
Q 2791 3363 2477 3755 
Q 2163 4147 1363 4147 
L 1063 4147 
L 1063 519 
L 1363 519 
z
M 1375 4666 
Q 2444 4666 2950 4097 
Q 3456 3528 3456 2328 
Q 3456 1134 2950 567 
Q 2444 0 1375 0 
L 428 0 
L 428 4666 
L 1375 4666 
z
" transform="scale(0.015625)"/>
      <path id="DejaVuSansMono-ff09" d="M 325 -1131 
L 325 4513 
L 3525 4513 
L 3525 -1131 
L 325 -1131 
z
M 684 -775 
L 3169 -775 
L 3169 4153 
L 684 4153 
L 684 -775 
z
" transform="scale(0.015625)"/>
     </defs>
     <use xlink:href="#DejaVuSansMono-23"/>
     <use xlink:href="#DejaVuSansMono-20" x="60.205078"/>
     <use xlink:href="#DejaVuSansMono-8907" x="120.410156"/>
     <use xlink:href="#DejaVuSansMono-6570" x="180.615234"/>
     <use xlink:href="#DejaVuSansMono-6761" x="240.820312"/>
     <use xlink:href="#DejaVuSansMono-4ef6" x="301.025391"/>
     <use xlink:href="#DejaVuSansMono-ff08" x="361.230469"/>
     <use xlink:href="#DejaVuSansMono-26" x="421.435547"/>
     <use xlink:href="#DejaVuSansMono-20" x="481.640625"/>
     <use xlink:href="#DejaVuSansMono-3067" x="541.845703"/>
     <use xlink:href="#DejaVuSansMono-20" x="602.050781"/>
     <use xlink:href="#DejaVuSansMono-41" x="662.255859"/>
     <use xlink:href="#DejaVuSansMono-4e" x="722.460938"/>
     <use xlink:href="#DejaVuSansMono-44" x="782.666016"/>
     <use xlink:href="#DejaVuSansMono-ff09" x="842.871094"/>
    </g>
   </g>
   <g id="text_7">
    <!-- filtered = df[(df["alcohol"] &gt;= 13.5) &amp; (df["color_intensity"] &gt;= 5.0)] -->
    <g style="fill: #cdd6f4" transform="translate(40.32 150.696019) scale(0.105 -0.105)">
     <defs>
      <path id="DejaVuSansMono-74" d="M 1919 4494 
L 1919 3500 
L 3225 3500 
L 3225 3053 
L 1919 3053 
L 1919 1153 
Q 1919 766 2066 612 
Q 2213 459 2578 459 
L 3225 459 
L 3225 0 
L 2522 0 
Q 1875 0 1609 259 
Q 1344 519 1344 1153 
L 1344 3053 
L 409 3053 
L 409 3500 
L 1344 3500 
L 1344 4494 
L 1919 4494 
z
" transform="scale(0.015625)"/>
      <path id="DejaVuSansMono-65" d="M 3475 1894 
L 3475 1613 
L 984 1613 
L 984 1594 
Q 984 1022 1282 709 
Q 1581 397 2125 397 
Q 2400 397 2700 484 
Q 3000 572 3341 750 
L 3341 178 
Q 3013 44 2708 -23 
Q 2403 -91 2119 -91 
Q 1303 -91 843 398 
Q 384 888 384 1747 
Q 384 2584 834 3084 
Q 1284 3584 2034 3584 
Q 2703 3584 3089 3131 
Q 3475 2678 3475 1894 
z
M 2900 2063 
Q 2888 2569 2661 2833 
Q 2434 3097 2009 3097 
Q 1594 3097 1325 2822 
Q 1056 2547 1006 2059 
L 2900 2063 
z
" transform="scale(0.015625)"/>
      <path id="DejaVuSansMono-72" d="M 3609 2778 
Q 3425 2922 3234 2987 
Q 3044 3053 2816 3053 
Q 2278 3053 1993 2715 
Q 1709 2378 1709 1741 
L 1709 0 
L 1131 0 
L 1131 3500 
L 1709 3500 
L 1709 2816 
Q 1853 3188 2151 3386 
Q 2450 3584 2859 3584 
Q 3072 3584 3256 3531 
Q 3441 3478 3609 3366 
L 3609 2778 
z
" transform="scale(0.015625)"/>
      <path id="DejaVuSansMono-28" d="M 2766 4856 
Q 2350 4144 2145 3436 
Q 1941 2728 1941 2009 
Q 1941 1294 2145 584 
Q 2350 -125 2766 -844 
L 2266 -844 
Q 1794 -100 1562 604 
Q 1331 1309 1331 2009 
Q 1331 2706 1562 3412 
Q 1794 4119 2266 4856 
L 2766 4856 
z
" transform="scale(0.015625)"/>
      <path id="DejaVuSansMono-29" d="M 1088 4856 
L 1588 4856 
Q 2059 4119 2290 3412 
Q 2522 2706 2522 2009 
Q 2522 1306 2290 600 
Q 2059 -106 1588 -844 
L 1088 -844 
Q 1503 -119 1708 590 
Q 1913 1300 1913 2009 
Q 1913 2722 1708 3431 
Q 1503 4141 1088 4856 
z
" transform="scale(0.015625)"/>
      <path id="DejaVuSansMono-6e" d="M 3284 2169 
L 3284 0 
L 2706 0 
L 2706 2169 
Q 2706 2641 2540 2862 
Q 2375 3084 2022 3084 
Q 1619 3084 1401 2798 
Q 1184 2513 1184 1978 
L 1184 0 
L 609 0 
L 609 3500 
L 1184 3500 
L 1184 2975 
Q 1338 3275 1600 3429 
Q 1863 3584 2222 3584 
Q 2756 3584 3020 3232 
Q 3284 2881 3284 2169 
z
" transform="scale(0.015625)"/>
      <path id="DejaVuSansMono-73" d="M 3041 3378 
L 3041 2816 
Q 2794 2959 2544 3031 
Q 2294 3103 2034 3103 
Q 1644 3103 1451 2976 
Q 1259 2850 1259 2591 
Q 1259 2356 1403 2240 
Q 1547 2125 2119 2016 
L 2350 1972 
Q 2778 1891 2998 1647 
Q 3219 1403 3219 1013 
Q 3219 494 2850 201 
Q 2481 -91 1825 -91 
Q 1566 -91 1281 -36 
Q 997 19 666 128 
L 666 722 
Q 988 556 1281 473 
Q 1575 391 1838 391 
Q 2219 391 2428 545 
Q 2638 700 2638 978 
Q 2638 1378 1872 1531 
L 1847 1538 
L 1631 1581 
Q 1134 1678 906 1908 
Q 678 2138 678 2534 
Q 678 3038 1018 3311 
Q 1359 3584 1991 3584 
Q 2272 3584 2531 3532 
Q 2791 3481 3041 3378 
z
" transform="scale(0.015625)"/>
      <path id="DejaVuSansMono-79" d="M 2681 1125 
Q 2538 759 2316 163 
Q 2006 -663 1900 -844 
Q 1756 -1088 1540 -1209 
Q 1325 -1331 1038 -1331 
L 575 -1331 
L 575 -850 
L 916 -850 
Q 1169 -850 1312 -703 
Q 1456 -556 1678 56 
L 325 3500 
L 934 3500 
L 1972 763 
L 2994 3500 
L 3603 3500 
L 2681 1125 
z
" transform="scale(0.015625)"/>
      <path id="DejaVuSansMono-30" d="M 1509 2344 
Q 1509 2516 1629 2641 
Q 1750 2766 1919 2766 
Q 2094 2766 2219 2641 
Q 2344 2516 2344 2344 
Q 2344 2169 2220 2047 
Q 2097 1925 1919 1925 
Q 1744 1925 1626 2044 
Q 1509 2163 1509 2344 
z
M 1925 4250 
Q 1484 4250 1267 3775 
Q 1050 3300 1050 2328 
Q 1050 1359 1267 884 
Q 1484 409 1925 409 
Q 2369 409 2586 884 
Q 2803 1359 2803 2328 
Q 2803 3300 2586 3775 
Q 2369 4250 1925 4250 
z
M 1925 4750 
Q 2672 4750 3055 4137 
Q 3438 3525 3438 2328 
Q 3438 1134 3055 521 
Q 2672 -91 1925 -91 
Q 1178 -91 797 521 
Q 416 1134 416 2328 
Q 416 3525 797 4137 
Q 1178 4750 1925 4750 
z
" transform="scale(0.015625)"/>
     </defs>
     <use xlink:href="#DejaVuSansMono-66"/>
     <use xlink:href="#DejaVuSansMono-69" x="60.205078"/>
     <use xlink:href="#DejaVuSansMono-6c" x="120.410156"/>
     <use xlink:href="#DejaVuSansMono-74" x="180.615234"/>
     <use xlink:href="#DejaVuSansMono-65" x="240.820312"/>
     <use xlink:href="#DejaVuSansMono-72" x="301.025391"/>
     <use xlink:href="#DejaVuSansMono-65" x="361.230469"/>
     <use xlink:href="#DejaVuSansMono-64" x="421.435547"/>
     <use xlink:href="#DejaVuSansMono-20" x="481.640625"/>
     <use xlink:href="#DejaVuSansMono-3d" x="541.845703"/>
     <use xlink:href="#DejaVuSansMono-20" x="602.050781"/>
     <use xlink:href="#DejaVuSansMono-64" x="662.255859"/>
     <use xlink:href="#DejaVuSansMono-66" x="722.460938"/>
     <use xlink:href="#DejaVuSansMono-5b" x="782.666016"/>
     <use xlink:href="#DejaVuSansMono-28" x="842.871094"/>
     <use xlink:href="#DejaVuSansMono-64" x="903.076172"/>
     <use xlink:href="#DejaVuSansMono-66" x="963.28125"/>
     <use xlink:href="#DejaVuSansMono-5b" x="1023.486328"/>
     <use xlink:href="#DejaVuSansMono-22" x="1083.691406"/>
     <use xlink:href="#DejaVuSansMono-61" x="1143.896484"/>
     <use xlink:href="#DejaVuSansMono-6c" x="1204.101562"/>
     <use xlink:href="#DejaVuSansMono-63" x="1264.306641"/>
     <use xlink:href="#DejaVuSansMono-6f" x="1324.511719"/>
     <use xlink:href="#DejaVuSansMono-68" x="1384.716797"/>
     <use xlink:href="#DejaVuSansMono-6f" x="1444.921875"/>
     <use xlink:href="#DejaVuSansMono-6c" x="1505.126953"/>
     <use xlink:href="#DejaVuSansMono-22" x="1565.332031"/>
     <use xlink:href="#DejaVuSansMono-5d" x="1625.537109"/>
     <use xlink:href="#DejaVuSansMono-20" x="1685.742188"/>
     <use xlink:href="#DejaVuSansMono-3e" x="1745.947266"/>
     <use xlink:href="#DejaVuSansMono-3d" x="1806.152344"/>
     <use xlink:href="#DejaVuSansMono-20" x="1866.357422"/>
     <use xlink:href="#DejaVuSansMono-31" x="1926.5625"/>
     <use xlink:href="#DejaVuSansMono-33" x="1986.767578"/>
     <use xlink:href="#DejaVuSansMono-2e" x="2046.972656"/>
     <use xlink:href="#DejaVuSansMono-35" x="2107.177734"/>
     <use xlink:href="#DejaVuSansMono-29" x="2167.382812"/>
     <use xlink:href="#DejaVuSansMono-20" x="2227.587891"/>
     <use xlink:href="#DejaVuSansMono-26" x="2287.792969"/>
     <use xlink:href="#DejaVuSansMono-20" x="2347.998047"/>
     <use xlink:href="#DejaVuSansMono-28" x="2408.203125"/>
     <use xlink:href="#DejaVuSansMono-64" x="2468.408203"/>
     <use xlink:href="#DejaVuSansMono-66" x="2528.613281"/>
     <use xlink:href="#DejaVuSansMono-5b" x="2588.818359"/>
     <use xlink:href="#DejaVuSansMono-22" x="2649.023438"/>
     <use xlink:href="#DejaVuSansMono-63" x="2709.228516"/>
     <use xlink:href="#DejaVuSansMono-6f" x="2769.433594"/>
     <use xlink:href="#DejaVuSansMono-6c" x="2829.638672"/>
     <use xlink:href="#DejaVuSansMono-6f" x="2889.84375"/>
     <use xlink:href="#DejaVuSansMono-72" x="2950.048828"/>
     <use xlink:href="#DejaVuSansMono-5f" x="3010.253906"/>
     <use xlink:href="#DejaVuSansMono-69" x="3070.458984"/>
     <use xlink:href="#DejaVuSansMono-6e" x="3130.664062"/>
     <use xlink:href="#DejaVuSansMono-74" x="3190.869141"/>
     <use xlink:href="#DejaVuSansMono-65" x="3251.074219"/>
     <use xlink:href="#DejaVuSansMono-6e" x="3311.279297"/>
     <use xlink:href="#DejaVuSansMono-73" x="3371.484375"/>
     <use xlink:href="#DejaVuSansMono-69" x="3431.689453"/>
     <use xlink:href="#DejaVuSansMono-74" x="3491.894531"/>
     <use xlink:href="#DejaVuSansMono-79" x="3552.099609"/>
     <use xlink:href="#DejaVuSansMono-22" x="3612.304688"/>
     <use xlink:href="#DejaVuSansMono-5d" x="3672.509766"/>
     <use xlink:href="#DejaVuSansMono-20" x="3732.714844"/>
     <use xlink:href="#DejaVuSansMono-3e" x="3792.919922"/>
     <use xlink:href="#DejaVuSansMono-3d" x="3853.125"/>
     <use xlink:href="#DejaVuSansMono-20" x="3913.330078"/>
     <use xlink:href="#DejaVuSansMono-35" x="3973.535156"/>
     <use xlink:href="#DejaVuSansMono-2e" x="4033.740234"/>
     <use xlink:href="#DejaVuSansMono-30" x="4093.945312"/>
     <use xlink:href="#DejaVuSansMono-29" x="4154.150391"/>
     <use xlink:href="#DejaVuSansMono-5d" x="4214.355469"/>
    </g>
   </g>
   <g id="text_8">
    <!-- 📊 groupby：グループごとに集計する -->
    <g style="fill: #4a90d9" transform="translate(31.68 181.136562) scale(0.13 -0.13)">
     <defs>
      <path id="IPAexGothic-1f4ca" d="M 5759 -641 
L 641 -641 
L 641 5503 
L 5759 5503 
L 5759 -641 
z
M 5216 5172 
L 1191 5172 
L 3206 2694 
L 5216 5172 
z
M 5428 -53 
L 5428 4903 
L 3419 2425 
L 5428 -53 
z
M 2988 2425 
L 972 4916 
L 972 -59 
L 2988 2425 
z
M 5209 -309 
L 3206 2163 
L 1197 -309 
L 5209 -309 
z
" transform="scale(0.015625)"/>
      <path id="IPAexGothic-67" d="M 1331 1150 
Q 1006 1122 1006 900 
Q 1006 613 1763 575 
L 2131 556 
Q 3303 497 3303 -294 
Q 3303 -700 2925 -959 
Q 2519 -1253 1794 -1253 
Q 1138 -1253 738 -1028 
Q 353 -809 353 -428 
Q 353 84 1075 247 
L 1075 269 
Q 506 413 506 778 
Q 506 1116 994 1297 
Q 456 1575 456 2181 
Q 456 2650 769 2963 
Q 1128 3322 1738 3322 
Q 2125 3322 2422 3153 
Q 2650 3453 3259 3463 
L 3259 3013 
Q 2838 3003 2703 2938 
Q 3034 2613 3034 2169 
Q 3034 1728 2734 1425 
Q 2400 1094 1813 1094 
Q 1563 1094 1331 1150 
z
M 1734 2919 
Q 1409 2919 1197 2706 
Q 988 2497 988 2181 
Q 988 1872 1184 1684 
Q 1397 1472 1756 1472 
Q 2094 1472 2297 1678 
Q 2503 1881 2503 2203 
Q 2503 2497 2297 2700 
Q 2081 2919 1734 2919 
z
M 1753 159 
Q 903 159 903 -366 
Q 903 -875 1800 -875 
Q 2378 -875 2638 -606 
Q 2772 -481 2772 -313 
Q 2772 159 1753 159 
z
" transform="scale(0.015625)"/>
      <path id="IPAexGothic-72" d="M 2309 3316 
L 2213 2769 
Q 2106 2791 2022 2791 
Q 1653 2791 1413 2444 
Q 1113 2006 1113 1675 
L 1113 63 
L 563 63 
L 563 3250 
L 1081 3250 
L 1056 2303 
L 1069 2303 
Q 1422 3341 2097 3341 
Q 2206 3341 2309 3316 
z
" transform="scale(0.015625)"/>
      <path id="IPAexGothic-6f" d="M 1919 3341 
Q 2594 3341 3056 2888 
Q 3531 2413 3531 1638 
Q 3531 888 3066 422 
Q 2609 -31 1919 -31 
Q 1228 -31 781 416 
Q 313 881 313 1656 
Q 313 2413 788 2888 
Q 1241 3341 1919 3341 
z
M 1919 2919 
Q 1519 2919 1241 2631 
Q 888 2278 888 1650 
Q 888 1031 1234 684 
Q 1516 403 1919 403 
Q 2331 403 2609 691 
Q 2956 1038 2956 1672 
Q 2956 2269 2603 2631 
Q 2316 2919 1919 2919 
z
" transform="scale(0.015625)"/>
      <path id="IPAexGothic-75" d="M 3284 63 
L 2772 63 
L 2772 644 
Q 2300 0 1625 0 
Q 1072 0 763 375 
Q 519 678 519 1241 
L 519 3250 
L 1069 3250 
L 1069 1259 
Q 1069 466 1734 466 
Q 2406 466 2734 1291 
L 2734 3250 
L 3284 3250 
L 3284 63 
z
" transform="scale(0.015625)"/>
      <path id="IPAexGothic-70" d="M 1075 2688 
Q 1525 3341 2206 3341 
Q 2769 3341 3172 2938 
Q 3641 2469 3641 1644 
Q 3641 841 3178 372 
Q 2775 -31 2200 -31 
Q 1569 -31 1106 497 
L 1106 -1216 
L 563 -1216 
L 563 3250 
L 1075 3250 
L 1075 2688 
z
M 1106 1950 
L 1106 1291 
Q 1106 897 1516 600 
Q 1791 403 2106 403 
Q 2469 403 2725 659 
Q 3066 997 3066 1631 
Q 3066 2200 2784 2559 
Q 2503 2900 2100 2900 
Q 1656 2900 1338 2484 
Q 1106 2184 1106 1950 
z
" transform="scale(0.015625)"/>
      <path id="IPAexGothic-62" d="M 1125 2731 
Q 1550 3341 2219 3341 
Q 2788 3341 3191 2938 
Q 3659 2469 3659 1644 
Q 3659 838 3191 372 
Q 2788 -31 2206 -31 
Q 1559 -31 1088 516 
L 1009 44 
L 581 44 
L 581 4794 
L 1125 4794 
L 1125 2731 
z
M 1125 1997 
L 1125 1253 
Q 1125 888 1528 600 
Q 1803 403 2119 403 
Q 2488 403 2744 659 
Q 3084 1009 3084 1631 
Q 3084 2194 2803 2553 
Q 2525 2900 2125 2900 
Q 1759 2900 1438 2578 
Q 1125 2266 1125 1997 
z
" transform="scale(0.015625)"/>
      <path id="IPAexGothic-79" d="M 3122 3250 
L 1575 -488 
Q 1278 -1203 550 -1203 
L 478 -1203 
L 344 -703 
L 447 -703 
Q 969 -703 1150 -238 
L 1356 275 
L 38 3250 
L 659 3250 
L 1363 1459 
Q 1528 1025 1606 781 
L 1625 781 
Q 1750 1169 1863 1459 
L 2528 3250 
L 3122 3250 
z
" transform="scale(0.015625)"/>
      <path id="IPAexGothic-30d7" d="M 4825 4275 
L 5125 4000 
Q 4884 2378 4081 1381 
Q 3294 413 1888 -116 
L 1522 331 
Q 4069 1113 4550 3803 
L 966 3738 
L 966 4225 
L 4825 4275 
z
M 5597 5509 
Q 5906 5509 6119 5275 
Q 6303 5075 6303 4806 
Q 6303 4494 6069 4281 
Q 5866 4097 5597 4097 
Q 5284 4097 5072 4331 
Q 4888 4534 4888 4806 
Q 4888 5116 5122 5328 
Q 5328 5509 5597 5509 
z
M 5597 5228 
Q 5409 5228 5278 5088 
Q 5169 4966 5169 4806 
Q 5169 4616 5309 4488 
Q 5434 4378 5597 4378 
Q 5784 4378 5913 4519 
Q 6022 4641 6022 4806 
Q 6022 4991 5881 5119 
Q 5759 5228 5597 5228 
z
" transform="scale(0.015625)"/>
      <path id="IPAexGothic-3054" d="M 1525 4409 
Q 2284 4350 2881 4350 
Q 3778 4350 4481 4447 
L 4591 4019 
Q 3778 3791 2856 2981 
L 2497 3256 
Q 3028 3653 3488 3938 
Q 2969 3897 2497 3897 
Q 1975 3897 1544 3944 
L 1525 4409 
z
M 5122 178 
Q 4244 0 3181 0 
Q 2194 0 1594 331 
Q 1038 641 1038 1184 
Q 1038 1725 1538 2234 
L 1922 1991 
Q 1525 1631 1525 1247 
Q 1525 488 3169 488 
Q 4166 488 5069 709 
L 5122 178 
z
M 5959 4250 
Q 5597 4791 5203 5119 
L 5506 5350 
Q 5888 5041 6278 4525 
L 5959 4250 
z
M 5391 3763 
Q 5100 4253 4653 4653 
L 4966 4897 
Q 5338 4588 5722 4038 
L 5391 3763 
z
" transform="scale(0.015625)"/>
      <path id="IPAexGothic-306b" d="M 1088 -38 
Q 922 1003 922 2081 
Q 922 3222 1331 4794 
L 1813 4684 
Q 1391 3113 1391 2003 
Q 1391 1441 1422 1147 
Q 1434 1181 1813 2016 
L 2125 1797 
Q 1800 1081 1691 763 
Q 1581 453 1581 269 
Q 1581 78 1588 6 
L 1088 -38 
z
M 2834 4038 
Q 3969 4213 5313 4172 
L 5338 3681 
Q 3959 3728 2869 3547 
L 2834 4038 
z
M 5650 256 
Q 5044 172 4372 172 
Q 3463 172 3047 434 
Q 2784 594 2675 841 
Q 2572 1075 2572 1447 
Q 2572 1563 2578 1656 
L 3053 1684 
Q 3050 1613 3044 1528 
Q 3041 1481 3041 1466 
Q 3041 1200 3119 1053 
Q 3178 944 3309 850 
Q 3569 678 4275 678 
Q 4891 678 5588 763 
L 5650 256 
z
" transform="scale(0.015625)"/>
      <path id="IPAexGothic-3059" d="M 3322 5075 
L 3816 5075 
L 3816 4063 
Q 4131 4075 5756 4116 
L 5756 3669 
Q 5431 3672 3816 3653 
L 3816 2463 
Q 3956 2125 3956 1741 
Q 3956 922 3519 397 
Q 3128 -72 2309 -409 
L 1941 -31 
Q 3263 453 3488 1363 
Q 3250 1031 2809 1031 
Q 2441 1031 2150 1313 
Q 1875 1588 1875 2050 
Q 1875 2475 2166 2769 
Q 2431 3041 2822 3041 
Q 3088 3041 3322 2881 
L 3322 3641 
Q 3000 3634 609 3547 
L 609 3988 
Q 1197 4000 2106 4022 
Q 3066 4047 3322 4050 
L 3322 5075 
z
M 3372 2044 
Q 3372 2300 3194 2478 
Q 3050 2613 2869 2613 
Q 2622 2613 2463 2406 
Q 2344 2250 2344 2088 
Q 2344 1797 2484 1622 
Q 2625 1453 2859 1453 
Q 3372 1453 3372 2044 
z
" transform="scale(0.015625)"/>
      <path id="IPAexGothic-308b" d="M 4391 4397 
L 2613 2588 
Q 3225 2809 3759 2809 
Q 4263 2809 4659 2625 
Q 5391 2269 5391 1484 
Q 5391 756 4706 275 
Q 4072 -166 3053 -166 
Q 2559 -166 2247 19 
Q 1863 250 1863 666 
Q 1863 934 2069 1141 
Q 2331 1403 2741 1403 
Q 3509 1403 4019 428 
Q 4872 784 4872 1491 
Q 4872 1981 4469 2222 
Q 4166 2406 3681 2406 
Q 2425 2406 1238 1209 
L 891 1581 
Q 2438 2934 3578 4281 
Q 2594 4125 1588 4066 
L 1478 4550 
Q 2594 4581 4109 4763 
L 4391 4397 
z
M 3591 303 
Q 3244 1025 2731 1025 
Q 2553 1025 2434 934 
Q 2316 844 2316 700 
Q 2316 250 3034 250 
Q 3275 250 3591 303 
z
" transform="scale(0.015625)"/>
     </defs>
     <use xlink:href="#IPAexGothic-1f4ca"/>
     <use xlink:href="#IPAexGothic-20" x="100"/>
     <use xlink:href="#IPAexGothic-67" x="127.001953"/>
     <use xlink:href="#IPAexGothic-72" x="182.519531"/>
     <use xlink:href="#IPAexGothic-6f" x="219.53125"/>
     <use xlink:href="#IPAexGothic-75" x="279.931641"/>
     <use xlink:href="#IPAexGothic-70" x="340.332031"/>
     <use xlink:href="#IPAexGothic-62" x="402.441406"/>
     <use xlink:href="#IPAexGothic-79" x="464.84375"/>
     <use xlink:href="#IPAexGothic-ff1a" x="514.0625"/>
     <use xlink:href="#IPAexGothic-30b0" x="614.0625"/>
     <use xlink:href="#IPAexGothic-30eb" x="714.0625"/>
     <use xlink:href="#IPAexGothic-30fc" x="814.0625"/>
     <use xlink:href="#IPAexGothic-30d7" x="914.0625"/>
     <use xlink:href="#IPAexGothic-3054" x="1014.0625"/>
     <use xlink:href="#IPAexGothic-3068" x="1114.0625"/>
     <use xlink:href="#IPAexGothic-306b" x="1214.0625"/>
     <use xlink:href="#IPAexGothic-96c6" x="1314.0625"/>
     <use xlink:href="#IPAexGothic-8a08" x="1414.0625"/>
     <use xlink:href="#IPAexGothic-3059" x="1514.0625"/>
     <use xlink:href="#IPAexGothic-308b" x="1614.0625"/>
    </g>
   </g>
   <g id="text_9">
    <!-- # 品種ごとの平均を集計 -->
    <g style="fill: #cdd6f4" transform="translate(40.32 200.666034) scale(0.105 -0.105)">
     <defs>
      <path id="DejaVuSansMono-54c1" d="M 325 -1131 
L 325 4513 
L 3525 4513 
L 3525 -1131 
L 325 -1131 
z
M 684 -775 
L 3169 -775 
L 3169 4153 
L 684 4153 
L 684 -775 
z
" transform="scale(0.015625)"/>
      <path id="DejaVuSansMono-7a2e" d="M 325 -1131 
L 325 4513 
L 3525 4513 
L 3525 -1131 
L 325 -1131 
z
M 684 -775 
L 3169 -775 
L 3169 4153 
L 684 4153 
L 684 -775 
z
" transform="scale(0.015625)"/>
      <path id="DejaVuSansMono-3054" d="M 325 -1131 
L 325 4513 
L 3525 4513 
L 3525 -1131 
L 325 -1131 
z
M 684 -775 
L 3169 -775 
L 3169 4153 
L 684 4153 
L 684 -775 
z
" transform="scale(0.015625)"/>
      <path id="DejaVuSansMono-3068" d="M 325 -1131 
L 325 4513 
L 3525 4513 
L 3525 -1131 
L 325 -1131 
z
M 684 -775 
L 3169 -775 
L 3169 4153 
L 684 4153 
L 684 -775 
z
" transform="scale(0.015625)"/>
      <path id="DejaVuSansMono-306e" d="M 325 -1131 
L 325 4513 
L 3525 4513 
L 3525 -1131 
L 325 -1131 
z
M 684 -775 
L 3169 -775 
L 3169 4153 
L 684 4153 
L 684 -775 
z
" transform="scale(0.015625)"/>
      <path id="DejaVuSansMono-5e73" d="M 325 -1131 
L 325 4513 
L 3525 4513 
L 3525 -1131 
L 325 -1131 
z
M 684 -775 
L 3169 -775 
L 3169 4153 
L 684 4153 
L 684 -775 
z
" transform="scale(0.015625)"/>
      <path id="DejaVuSansMono-5747" d="M 325 -1131 
L 325 4513 
L 3525 4513 
L 3525 -1131 
L 325 -1131 
z
M 684 -775 
L 3169 -775 
L 3169 4153 
L 684 4153 
L 684 -775 
z
" transform="scale(0.015625)"/>
      <path id="DejaVuSansMono-3092" d="M 325 -1131 
L 325 4513 
L 3525 4513 
L 3525 -1131 
L 325 -1131 
z
M 684 -775 
L 3169 -775 
L 3169 4153 
L 684 4153 
L 684 -775 
z
" transform="scale(0.015625)"/>
      <path id="DejaVuSansMono-96c6" d="M 325 -1131 
L 325 4513 
L 3525 4513 
L 3525 -1131 
L 325 -1131 
z
M 684 -775 
L 3169 -775 
L 3169 4153 
L 684 4153 
L 684 -775 
z
" transform="scale(0.015625)"/>
      <path id="DejaVuSansMono-8a08" d="M 325 -1131 
L 325 4513 
L 3525 4513 
L 3525 -1131 
L 325 -1131 
z
M 684 -775 
L 3169 -775 
L 3169 4153 
L 684 4153 
L 684 -775 
z
" transform="scale(0.015625)"/>
     </defs>
     <use xlink:href="#DejaVuSansMono-23"/>
     <use xlink:href="#DejaVuSansMono-20" x="60.205078"/>
     <use xlink:href="#DejaVuSansMono-54c1" x="120.410156"/>
     <use xlink:href="#DejaVuSansMono-7a2e" x="180.615234"/>
     <use xlink:href="#DejaVuSansMono-3054" x="240.820312"/>
     <use xlink:href="#DejaVuSansMono-3068" x="301.025391"/>
     <use xlink:href="#DejaVuSansMono-306e" x="361.230469"/>
     <use xlink:href="#DejaVuSansMono-5e73" x="421.435547"/>
     <use xlink:href="#DejaVuSansMono-5747" x="481.640625"/>
     <use xlink:href="#DejaVuSansMono-3092" x="541.845703"/>
     <use xlink:href="#DejaVuSansMono-96c6" x="602.050781"/>
     <use xlink:href="#DejaVuSansMono-8a08" x="662.255859"/>
    </g>
   </g>
   <g id="text_10">
    <!-- df.groupby("品種")[["alcohol", "proline"]].mean().round(2) -->
    <g style="fill: #cdd6f4" transform="translate(40.32 214.453941) scale(0.105 -0.105)">
     <defs>
      <path id="DejaVuSansMono-75" d="M 609 1325 
L 609 3494 
L 1184 3494 
L 1184 1325 
Q 1184 853 1351 631 
Q 1519 409 1869 409 
Q 2275 409 2490 695 
Q 2706 981 2706 1516 
L 2706 3494 
L 3284 3494 
L 3284 0 
L 2706 0 
L 2706 525 
Q 2553 222 2289 65 
Q 2025 -91 1672 -91 
Q 1134 -91 871 261 
Q 609 613 609 1325 
z
" transform="scale(0.015625)"/>
      <path id="DejaVuSansMono-70" d="M 1172 441 
L 1172 -1331 
L 594 -1331 
L 594 3500 
L 1172 3500 
L 1172 3053 
Q 1316 3313 1555 3448 
Q 1794 3584 2106 3584 
Q 2741 3584 3102 3093 
Q 3463 2603 3463 1734 
Q 3463 881 3100 395 
Q 2738 -91 2106 -91 
Q 1788 -91 1548 45 
Q 1309 181 1172 441 
z
M 2859 1747 
Q 2859 2416 2648 2756 
Q 2438 3097 2022 3097 
Q 1603 3097 1387 2755 
Q 1172 2413 1172 1747 
Q 1172 1084 1387 740 
Q 1603 397 2022 397 
Q 2438 397 2648 737 
Q 2859 1078 2859 1747 
z
" transform="scale(0.015625)"/>
      <path id="DejaVuSansMono-62" d="M 2869 1747 
Q 2869 2416 2656 2756 
Q 2444 3097 2028 3097 
Q 1609 3097 1393 2755 
Q 1178 2413 1178 1747 
Q 1178 1084 1393 740 
Q 1609 397 2028 397 
Q 2444 397 2656 737 
Q 2869 1078 2869 1747 
z
M 1178 3053 
Q 1316 3309 1558 3446 
Q 1800 3584 2119 3584 
Q 2750 3584 3112 3098 
Q 3475 2613 3475 1759 
Q 3475 894 3111 401 
Q 2747 -91 2113 -91 
Q 1800 -91 1561 45 
Q 1322 181 1178 441 
L 1178 0 
L 603 0 
L 603 4863 
L 1178 4863 
L 1178 3053 
z
" transform="scale(0.015625)"/>
      <path id="DejaVuSansMono-2c" d="M 1569 947 
L 2356 947 
L 2356 300 
L 1741 -897 
L 1259 -897 
L 1569 300 
L 1569 947 
z
" transform="scale(0.015625)"/>
      <path id="DejaVuSansMono-6d" d="M 2113 3144 
Q 2219 3369 2383 3476 
Q 2547 3584 2778 3584 
Q 3200 3584 3373 3257 
Q 3547 2931 3547 2028 
L 3547 0 
L 3022 0 
L 3022 2003 
Q 3022 2744 2939 2923 
Q 2856 3103 2638 3103 
Q 2388 3103 2295 2911 
Q 2203 2719 2203 2003 
L 2203 0 
L 1678 0 
L 1678 2003 
Q 1678 2753 1589 2928 
Q 1500 3103 1269 3103 
Q 1041 3103 952 2911 
Q 863 2719 863 2003 
L 863 0 
L 341 0 
L 341 3500 
L 863 3500 
L 863 3200 
Q 966 3388 1120 3486 
Q 1275 3584 1472 3584 
Q 1709 3584 1867 3475 
Q 2025 3366 2113 3144 
z
" transform="scale(0.015625)"/>
      <path id="DejaVuSansMono-32" d="M 1166 531 
L 3309 531 
L 3309 0 
L 475 0 
L 475 531 
Q 1059 1147 1496 1619 
Q 1934 2091 2100 2284 
Q 2413 2666 2522 2902 
Q 2631 3138 2631 3384 
Q 2631 3775 2401 3997 
Q 2172 4219 1772 4219 
Q 1488 4219 1175 4116 
Q 863 4013 513 3803 
L 513 4441 
Q 834 4594 1145 4672 
Q 1456 4750 1759 4750 
Q 2444 4750 2861 4386 
Q 3278 4022 3278 3431 
Q 3278 3131 3139 2831 
Q 3000 2531 2688 2169 
Q 2513 1966 2180 1606 
Q 1847 1247 1166 531 
z
" transform="scale(0.015625)"/>
     </defs>
     <use xlink:href="#DejaVuSansMono-64"/>
     <use xlink:href="#DejaVuSansMono-66" x="60.205078"/>
     <use xlink:href="#DejaVuSansMono-2e" x="120.410156"/>
     <use xlink:href="#DejaVuSansMono-67" x="180.615234"/>
     <use xlink:href="#DejaVuSansMono-72" x="240.820312"/>
     <use xlink:href="#DejaVuSansMono-6f" x="301.025391"/>
     <use xlink:href="#DejaVuSansMono-75" x="361.230469"/>
     <use xlink:href="#DejaVuSansMono-70" x="421.435547"/>
     <use xlink:href="#DejaVuSansMono-62" x="481.640625"/>
     <use xlink:href="#DejaVuSansMono-79" x="541.845703"/>
     <use xlink:href="#DejaVuSansMono-28" x="602.050781"/>
     <use xlink:href="#DejaVuSansMono-22" x="662.255859"/>
     <use xlink:href="#DejaVuSansMono-54c1" x="722.460938"/>
     <use xlink:href="#DejaVuSansMono-7a2e" x="782.666016"/>
     <use xlink:href="#DejaVuSansMono-22" x="842.871094"/>
     <use xlink:href="#DejaVuSansMono-29" x="903.076172"/>
     <use xlink:href="#DejaVuSansMono-5b" x="963.28125"/>
     <use xlink:href="#DejaVuSansMono-5b" x="1023.486328"/>
     <use xlink:href="#DejaVuSansMono-22" x="1083.691406"/>
     <use xlink:href="#DejaVuSansMono-61" x="1143.896484"/>
     <use xlink:href="#DejaVuSansMono-6c" x="1204.101562"/>
     <use xlink:href="#DejaVuSansMono-63" x="1264.306641"/>
     <use xlink:href="#DejaVuSansMono-6f" x="1324.511719"/>
     <use xlink:href="#DejaVuSansMono-68" x="1384.716797"/>
     <use xlink:href="#DejaVuSansMono-6f" x="1444.921875"/>
     <use xlink:href="#DejaVuSansMono-6c" x="1505.126953"/>
     <use xlink:href="#DejaVuSansMono-22" x="1565.332031"/>
     <use xlink:href="#DejaVuSansMono-2c" x="1625.537109"/>
     <use xlink:href="#DejaVuSansMono-20" x="1685.742188"/>
     <use xlink:href="#DejaVuSansMono-22" x="1745.947266"/>
     <use xlink:href="#DejaVuSansMono-70" x="1806.152344"/>
     <use xlink:href="#DejaVuSansMono-72" x="1866.357422"/>
     <use xlink:href="#DejaVuSansMono-6f" x="1926.5625"/>
     <use xlink:href="#DejaVuSansMono-6c" x="1986.767578"/>
     <use xlink:href="#DejaVuSansMono-69" x="2046.972656"/>
     <use xlink:href="#DejaVuSansMono-6e" x="2107.177734"/>
     <use xlink:href="#DejaVuSansMono-65" x="2167.382812"/>
     <use xlink:href="#DejaVuSansMono-22" x="2227.587891"/>
     <use xlink:href="#DejaVuSansMono-5d" x="2287.792969"/>
     <use xlink:href="#DejaVuSansMono-5d" x="2347.998047"/>
     <use xlink:href="#DejaVuSansMono-2e" x="2408.203125"/>
     <use xlink:href="#DejaVuSansMono-6d" x="2468.408203"/>
     <use xlink:href="#DejaVuSansMono-65" x="2528.613281"/>
     <use xlink:href="#DejaVuSansMono-61" x="2588.818359"/>
     <use xlink:href="#DejaVuSansMono-6e" x="2649.023438"/>
     <use xlink:href="#DejaVuSansMono-28" x="2709.228516"/>
     <use xlink:href="#DejaVuSansMono-29" x="2769.433594"/>
     <use xlink:href="#DejaVuSansMono-2e" x="2829.638672"/>
     <use xlink:href="#DejaVuSansMono-72" x="2889.84375"/>
     <use xlink:href="#DejaVuSansMono-6f" x="2950.048828"/>
     <use xlink:href="#DejaVuSansMono-75" x="3010.253906"/>
     <use xlink:href="#DejaVuSansMono-6e" x="3070.458984"/>
     <use xlink:href="#DejaVuSansMono-64" x="3130.664062"/>
     <use xlink:href="#DejaVuSansMono-28" x="3190.869141"/>
     <use xlink:href="#DejaVuSansMono-32" x="3251.074219"/>
     <use xlink:href="#DejaVuSansMono-29" x="3311.279297"/>
    </g>
   </g>
   <g id="text_11">
    <!-- # ソート -->
    <g style="fill: #cdd6f4" transform="translate(40.32 242.138034) scale(0.105 -0.105)">
     <defs>
      <path id="DejaVuSansMono-30bd" d="M 325 -1131 
L 325 4513 
L 3525 4513 
L 3525 -1131 
L 325 -1131 
z
M 684 -775 
L 3169 -775 
L 3169 4153 
L 684 4153 
L 684 -775 
z
" transform="scale(0.015625)"/>
      <path id="DejaVuSansMono-30c8" d="M 325 -1131 
L 325 4513 
L 3525 4513 
L 3525 -1131 
L 325 -1131 
z
M 684 -775 
L 3169 -775 
L 3169 4153 
L 684 4153 
L 684 -775 
z
" transform="scale(0.015625)"/>
     </defs>
     <use xlink:href="#DejaVuSansMono-23"/>
     <use xlink:href="#DejaVuSansMono-20" x="60.205078"/>
     <use xlink:href="#DejaVuSansMono-30bd" x="120.410156"/>
     <use xlink:href="#DejaVuSansMono-30fc" x="180.615234"/>
     <use xlink:href="#DejaVuSansMono-30c8" x="240.820312"/>
    </g>
   </g>
   <g id="text_12">
    <!-- df.sort_values("proline", ascending=False).head() -->
    <g style="fill: #cdd6f4" transform="translate(40.32 255.816019) scale(0.105 -0.105)">
     <defs>
      <path id="DejaVuSansMono-76" d="M 313 3500 
L 909 3500 
L 1925 563 
L 2944 3500 
L 3541 3500 
L 2297 0 
L 1556 0 
L 313 3500 
z
" transform="scale(0.015625)"/>
      <path id="DejaVuSansMono-46" d="M 728 4666 
L 3475 4666 
L 3475 4134 
L 1363 4134 
L 1363 2759 
L 3278 2759 
L 3278 2228 
L 1363 2228 
L 1363 0 
L 728 0 
L 728 4666 
z
" transform="scale(0.015625)"/>
     </defs>
     <use xlink:href="#DejaVuSansMono-64"/>
     <use xlink:href="#DejaVuSansMono-66" x="60.205078"/>
     <use xlink:href="#DejaVuSansMono-2e" x="120.410156"/>
     <use xlink:href="#DejaVuSansMono-73" x="180.615234"/>
     <use xlink:href="#DejaVuSansMono-6f" x="240.820312"/>
     <use xlink:href="#DejaVuSansMono-72" x="301.025391"/>
     <use xlink:href="#DejaVuSansMono-74" x="361.230469"/>
     <use xlink:href="#DejaVuSansMono-5f" x="421.435547"/>
     <use xlink:href="#DejaVuSansMono-76" x="481.640625"/>
     <use xlink:href="#DejaVuSansMono-61" x="541.845703"/>
     <use xlink:href="#DejaVuSansMono-6c" x="602.050781"/>
     <use xlink:href="#DejaVuSansMono-75" x="662.255859"/>
     <use xlink:href="#DejaVuSansMono-65" x="722.460938"/>
     <use xlink:href="#DejaVuSansMono-73" x="782.666016"/>
     <use xlink:href="#DejaVuSansMono-28" x="842.871094"/>
     <use xlink:href="#DejaVuSansMono-22" x="903.076172"/>
     <use xlink:href="#DejaVuSansMono-70" x="963.28125"/>
     <use xlink:href="#DejaVuSansMono-72" x="1023.486328"/>
     <use xlink:href="#DejaVuSansMono-6f" x="1083.691406"/>
     <use xlink:href="#DejaVuSansMono-6c" x="1143.896484"/>
     <use xlink:href="#DejaVuSansMono-69" x="1204.101562"/>
     <use xlink:href="#DejaVuSansMono-6e" x="1264.306641"/>
     <use xlink:href="#DejaVuSansMono-65" x="1324.511719"/>
     <use xlink:href="#DejaVuSansMono-22" x="1384.716797"/>
     <use xlink:href="#DejaVuSansMono-2c" x="1444.921875"/>
     <use xlink:href="#DejaVuSansMono-20" x="1505.126953"/>
     <use xlink:href="#DejaVuSansMono-61" x="1565.332031"/>
     <use xlink:href="#DejaVuSansMono-73" x="1625.537109"/>
     <use xlink:href="#DejaVuSansMono-63" x="1685.742188"/>
     <use xlink:href="#DejaVuSansMono-65" x="1745.947266"/>
     <use xlink:href="#DejaVuSansMono-6e" x="1806.152344"/>
     <use xlink:href="#DejaVuSansMono-64" x="1866.357422"/>
     <use xlink:href="#DejaVuSansMono-69" x="1926.5625"/>
     <use xlink:href="#DejaVuSansMono-6e" x="1986.767578"/>
     <use xlink:href="#DejaVuSansMono-67" x="2046.972656"/>
     <use xlink:href="#DejaVuSansMono-3d" x="2107.177734"/>
     <use xlink:href="#DejaVuSansMono-46" x="2167.382812"/>
     <use xlink:href="#DejaVuSansMono-61" x="2227.587891"/>
     <use xlink:href="#DejaVuSansMono-6c" x="2287.792969"/>
     <use xlink:href="#DejaVuSansMono-73" x="2347.998047"/>
     <use xlink:href="#DejaVuSansMono-65" x="2408.203125"/>
     <use xlink:href="#DejaVuSansMono-29" x="2468.408203"/>
     <use xlink:href="#DejaVuSansMono-2e" x="2528.613281"/>
     <use xlink:href="#DejaVuSansMono-68" x="2588.818359"/>
     <use xlink:href="#DejaVuSansMono-65" x="2649.023438"/>
     <use xlink:href="#DejaVuSansMono-61" x="2709.228516"/>
     <use xlink:href="#DejaVuSansMono-64" x="2769.433594"/>
     <use xlink:href="#DejaVuSansMono-28" x="2829.638672"/>
     <use xlink:href="#DejaVuSansMono-29" x="2889.84375"/>
    </g>
   </g>
   <g id="text_13">
    <!-- 実務例：「都道府県ごと」「月ごと」の売上平均集計が groupby 一発で出来る -->
    <g style="fill: #1a5276" transform="translate(41.04 300.713431) scale(0.125 -0.125)">
     <defs>
      <path id="IPAexGothic-5b9f" d="M 3525 1275 
Q 4288 350 6022 91 
L 5738 -375 
Q 3953 -41 3219 1050 
Q 2731 -144 728 -472 
L 466 -44 
Q 2422 150 2872 1275 
L 384 1275 
L 384 1659 
L 2950 1659 
L 2950 2144 
L 966 2144 
L 966 2509 
L 2950 2509 
L 2950 2969 
L 1266 2969 
L 1266 3341 
L 2950 3341 
L 2950 3988 
L 3403 3988 
L 3403 3341 
L 5125 3341 
L 5125 2969 
L 3403 2969 
L 3403 2509 
L 5444 2509 
L 5444 2144 
L 3403 2144 
L 3403 1659 
L 6016 1659 
L 6016 1275 
L 3525 1275 
z
M 3413 4544 
L 5778 4544 
L 5778 3269 
L 5309 3269 
L 5309 4147 
L 1084 4147 
L 1084 3269 
L 616 3269 
L 616 4544 
L 2938 4544 
L 2938 5313 
L 3413 5313 
L 3413 4544 
z
" transform="scale(0.015625)"/>
      <path id="IPAexGothic-52d9" d="M 4500 1497 
Q 4394 150 2881 -475 
L 2569 -103 
Q 3894 350 4066 1466 
L 2888 1466 
L 2888 1856 
L 4084 1856 
L 4084 2522 
L 4513 2522 
L 4513 1881 
L 5806 1881 
Q 5788 431 5666 13 
Q 5559 -359 5069 -359 
Q 4772 -359 4353 -313 
L 4281 141 
Q 4597 56 4947 56 
Q 5225 56 5275 325 
Q 5347 653 5378 1497 
L 4500 1497 
z
M 4200 3206 
Q 3825 3531 3584 3891 
Q 3381 3553 3125 3269 
L 2841 3578 
Q 3497 4338 3725 5319 
L 4134 5209 
Q 4050 4903 3963 4666 
L 5928 4666 
L 5928 4281 
L 5434 4281 
Q 5256 3725 4819 3231 
Q 5353 2906 6100 2725 
L 5856 2347 
Q 5078 2616 4531 2963 
Q 3975 2506 3144 2241 
L 2913 2597 
Q 3722 2828 4200 3206 
z
M 4481 3469 
Q 4838 3866 5000 4281 
L 3797 4281 
L 3788 4263 
L 3775 4244 
Q 4056 3806 4481 3469 
z
M 1503 1856 
Q 1119 972 491 366 
L 256 750 
Q 1081 1516 1453 2559 
L 378 2559 
L 378 2950 
L 2719 2950 
L 2922 2759 
Q 2741 2003 2456 1428 
L 2091 1619 
Q 2294 2041 2456 2559 
L 1919 2559 
L 1919 -13 
Q 1919 -459 1425 -459 
Q 1178 -459 831 -403 
L 772 38 
Q 1069 -38 1303 -38 
Q 1503 -38 1503 191 
L 1503 1856 
z
M 1856 3638 
Q 1928 3559 2150 3284 
L 1806 3003 
Q 1397 3597 884 4034 
L 1197 4263 
Q 1400 4100 1600 3900 
Q 2013 4281 2278 4628 
L 563 4628 
L 563 5019 
L 2663 5019 
L 2906 4763 
Q 2463 4184 1856 3638 
z
" transform="scale(0.015625)"/>
      <path id="IPAexGothic-4f8b" d="M 2869 3713 
L 3750 3713 
L 4006 3522 
Q 3872 2134 3463 1241 
Q 3019 247 2094 -472 
L 1778 -128 
Q 2691 516 3163 1600 
Q 2791 1994 2388 2284 
Q 2163 1853 1928 1544 
L 1638 1888 
Q 2331 2806 2572 4488 
L 1906 4488 
L 1906 4891 
L 4206 4891 
L 4206 4488 
L 2997 4488 
L 2991 4450 
Q 2938 4013 2869 3713 
z
M 2772 3322 
Q 2659 2916 2534 2613 
Q 2997 2319 3316 2009 
Q 3338 2078 3341 2094 
Q 3519 2644 3566 3322 
L 2772 3322 
z
M 1400 3816 
L 1400 -447 
L 972 -447 
L 972 2797 
Q 753 2347 484 1966 
L 250 2363 
Q 981 3531 1388 5313 
L 1822 5203 
Q 1613 4419 1400 3816 
z
M 4378 4519 
L 4806 4519 
L 4806 959 
L 4378 959 
L 4378 4519 
z
M 5422 5088 
L 5850 5088 
L 5850 109 
Q 5850 -391 5300 -391 
Q 4925 -391 4544 -359 
L 4444 109 
Q 4863 44 5225 44 
Q 5422 44 5422 238 
L 5422 5088 
z
" transform="scale(0.015625)"/>
      <path id="IPAexGothic-300c" d="M 4134 5300 
L 5875 5300 
L 5875 4853 
L 4581 4853 
L 4581 656 
L 4134 656 
L 4134 5300 
z
" transform="scale(0.015625)"/>
      <path id="IPAexGothic-90fd" d="M 2956 4238 
Q 3153 4631 3300 5031 
L 3703 4878 
Q 3338 4041 2891 3384 
L 3709 3384 
L 3709 3000 
L 2597 3000 
L 2566 2963 
Q 2325 2678 1956 2328 
L 3384 2328 
L 3384 -422 
L 2969 -422 
L 2969 -147 
L 1541 -147 
L 1541 -459 
L 1125 -459 
L 1125 1638 
Q 919 1488 459 1191 
L 197 1528 
Q 1159 2063 2041 2963 
L 350 2963 
L 350 3347 
L 1656 3347 
L 1656 4116 
L 703 4116 
L 703 4488 
L 1688 4488 
L 1688 5313 
L 2109 5313 
L 2109 4488 
L 2956 4488 
L 2956 4238 
z
M 2897 4116 
L 2072 4116 
L 2072 3347 
L 2372 3347 
Q 2656 3722 2878 4091 
L 2897 4116 
z
M 1541 1956 
L 1541 1306 
L 2969 1306 
L 2969 1956 
L 1541 1956 
z
M 1541 941 
L 1541 225 
L 2969 225 
L 2969 941 
L 1541 941 
z
M 5288 2828 
Q 6041 2053 6041 1191 
Q 6041 422 5419 422 
Q 5081 422 4781 459 
L 4703 928 
Q 5034 856 5297 856 
Q 5513 856 5553 1003 
Q 5572 1081 5572 1216 
Q 5572 2028 4794 2791 
Q 5178 3569 5388 4428 
L 4403 4428 
L 4403 -450 
L 3963 -450 
L 3963 4831 
L 5697 4831 
L 5931 4613 
Q 5603 3509 5288 2828 
z
" transform="scale(0.015625)"/>
      <path id="IPAexGothic-9053" d="M 1831 781 
Q 2144 400 2663 256 
Q 3019 159 4222 159 
Q 5213 159 6119 216 
Q 5994 -3 5944 -263 
Q 5025 -294 4428 -294 
Q 2800 -294 2272 -63 
Q 1869 119 1600 491 
Q 1131 -53 666 -444 
L 372 44 
Q 881 344 1378 775 
L 1378 2303 
L 397 2303 
L 397 2731 
L 1831 2731 
L 1831 781 
z
M 3731 4038 
L 2088 4038 
L 2088 4409 
L 3113 4409 
Q 2931 4800 2700 5088 
L 3131 5288 
Q 3369 4897 3572 4409 
L 4338 4409 
Q 4519 4781 4678 5313 
L 5156 5178 
Q 4966 4728 4794 4409 
L 5944 4409 
L 5944 4038 
L 4203 4038 
Q 4184 3975 4166 3903 
Q 4122 3734 4050 3553 
L 5434 3553 
L 5434 634 
L 2575 634 
L 2575 3553 
L 3616 3553 
Q 3684 3788 3731 4038 
z
M 2991 3194 
L 2991 2700 
L 5016 2700 
L 5016 3194 
L 2991 3194 
z
M 2991 2347 
L 2991 1863 
L 5016 1863 
L 5016 2347 
L 2991 2347 
z
M 2991 1509 
L 2991 1006 
L 5016 1006 
L 5016 1509 
L 2991 1509 
z
M 1619 3622 
Q 1266 4113 634 4703 
L 972 4997 
Q 1531 4541 1978 3969 
L 1619 3622 
z
" transform="scale(0.015625)"/>
      <path id="IPAexGothic-5e9c" d="M 3534 4506 
L 6044 4506 
L 6044 4091 
L 1306 4091 
L 1306 2863 
Q 1306 1541 1191 859 
Q 1075 141 706 -403 
L 341 -63 
Q 691 438 788 1191 
Q 853 1684 853 2741 
L 853 4506 
L 3047 4506 
L 3047 5306 
L 3534 5306 
L 3534 4506 
z
M 2478 2747 
L 2478 -447 
L 2038 -447 
L 2038 1906 
Q 1816 1547 1556 1203 
L 1328 1625 
Q 2006 2469 2459 3909 
L 2881 3788 
Q 2722 3303 2478 2747 
z
M 5063 2847 
L 5909 2847 
L 5909 2444 
L 5091 2444 
L 5091 72 
Q 5091 -181 4972 -288 
Q 4872 -391 4556 -391 
Q 4156 -391 3778 -347 
L 3713 128 
Q 4072 44 4441 44 
Q 4644 44 4644 244 
L 4644 2444 
L 2747 2444 
L 2747 2847 
L 4616 2847 
L 4616 3844 
L 5063 3844 
L 5063 2847 
z
M 3756 769 
Q 3431 1413 3016 1856 
L 3375 2119 
Q 3800 1675 4153 1050 
L 3756 769 
z
" transform="scale(0.015625)"/>
      <path id="IPAexGothic-770c" d="M 5178 5050 
L 5178 2213 
L 1875 2213 
L 1875 5050 
L 5178 5050 
z
M 2316 4672 
L 2316 4219 
L 4738 4219 
L 4738 4672 
L 2316 4672 
z
M 2316 3866 
L 2316 3406 
L 4738 3406 
L 4738 3866 
L 2316 3866 
z
M 2316 3053 
L 2316 2578 
L 4738 2578 
L 4738 3053 
L 2316 3053 
z
M 1094 1806 
L 5975 1806 
L 5975 1422 
L 3472 1422 
L 3472 -447 
L 3003 -447 
L 3003 1422 
L 1094 1422 
L 1094 1122 
L 641 1122 
L 641 4700 
L 1094 4700 
L 1094 1806 
z
M 5581 -197 
Q 4900 463 4047 972 
L 4416 1247 
Q 5244 784 5984 166 
L 5581 -197 
z
M 488 19 
Q 1400 463 1997 1166 
L 2419 916 
Q 1763 159 828 -347 
L 488 19 
z
" transform="scale(0.015625)"/>
      <path id="IPAexGothic-300d" d="M 1819 4209 
L 2266 4209 
L 2266 -434 
L 525 -434 
L 525 13 
L 1819 13 
L 1819 4209 
z
" transform="scale(0.015625)"/>
      <path id="IPAexGothic-6708" d="M 5044 4984 
L 5044 256 
Q 5044 -78 4869 -203 
Q 4734 -300 4403 -300 
Q 3894 -300 3253 -247 
L 3169 244 
Q 3750 159 4294 159 
Q 4503 159 4547 263 
Q 4569 313 4569 438 
L 4569 1672 
L 1953 1672 
Q 1906 956 1716 475 
Q 1538 6 1116 -472 
L 744 -63 
Q 1259 475 1403 1244 
Q 1500 1772 1500 2650 
L 1500 4984 
L 5044 4984 
z
M 1981 4569 
L 1981 3541 
L 4569 3541 
L 4569 4569 
L 1981 4569 
z
M 1981 3144 
L 1981 2556 
Q 1981 2288 1975 2147 
L 1975 2069 
L 4569 2069 
L 4569 3144 
L 1981 3144 
z
" transform="scale(0.015625)"/>
      <path id="IPAexGothic-306e" d="M 3119 469 
Q 5275 766 5275 2425 
Q 5275 3453 4413 3925 
Q 4041 4116 3547 4159 
Q 3394 2525 2850 1400 
Q 2322 306 1722 306 
Q 1384 306 1084 666 
Q 609 1244 609 2003 
Q 609 3025 1397 3794 
Q 2184 4563 3431 4563 
Q 4306 4563 4928 4122 
Q 5813 3506 5813 2425 
Q 5813 438 3431 6 
L 3119 469 
z
M 3053 4147 
Q 2378 4044 1891 3641 
Q 1097 2981 1097 1991 
Q 1097 1366 1434 978 
Q 1581 813 1719 813 
Q 2022 813 2416 1625 
Q 2909 2638 3053 4147 
z
" transform="scale(0.015625)"/>
      <path id="IPAexGothic-58f2" d="M 2938 4544 
L 2938 5313 
L 3419 5313 
L 3419 4544 
L 5781 4544 
L 5781 4147 
L 3419 4147 
L 3419 3559 
L 5306 3559 
L 5306 3163 
L 1088 3163 
L 1088 3559 
L 2938 3559 
L 2938 4147 
L 609 4147 
L 609 4544 
L 2938 4544 
z
M 5684 2706 
L 5684 1522 
L 5216 1522 
L 5216 2316 
L 1178 2316 
L 1178 1478 
L 709 1478 
L 709 2706 
L 5684 2706 
z
M 531 -84 
Q 1494 91 1894 556 
Q 2213 913 2222 1972 
L 2688 1972 
Q 2678 756 2216 225 
Q 1794 -256 819 -506 
L 531 -84 
z
M 3622 1972 
L 4091 1972 
L 4091 353 
Q 4091 191 4181 153 
Q 4313 100 4684 100 
Q 5169 100 5294 159 
Q 5503 256 5513 1006 
L 5972 863 
Q 5944 -22 5691 -206 
Q 5503 -347 4659 -347 
Q 3981 -347 3809 -250 
Q 3622 -144 3622 178 
L 3622 1972 
z
" transform="scale(0.015625)"/>
      <path id="IPAexGothic-4e0a" d="M 3259 3366 
L 5475 3366 
L 5475 2913 
L 3259 2913 
L 3259 556 
L 5991 556 
L 5991 103 
L 391 103 
L 391 556 
L 2772 556 
L 2772 5050 
L 3259 5050 
L 3259 3366 
z
" transform="scale(0.015625)"/>
      <path id="IPAexGothic-5e73" d="M 3422 4428 
L 3422 1941 
L 6084 1941 
L 6084 1513 
L 3422 1513 
L 3422 -447 
L 2934 -447 
L 2934 1513 
L 322 1513 
L 322 1941 
L 2934 1941 
L 2934 4428 
L 641 4428 
L 641 4856 
L 5763 4856 
L 5763 4428 
L 3422 4428 
z
M 1728 2278 
Q 1488 3094 1081 3859 
L 1544 4038 
Q 1875 3422 2222 2472 
L 1728 2278 
z
M 4134 2425 
Q 4509 3138 4813 4128 
L 5306 3944 
Q 4984 3006 4569 2228 
L 4134 2425 
z
" transform="scale(0.015625)"/>
      <path id="IPAexGothic-5747" d="M 1206 3794 
L 1206 5144 
L 1659 5144 
L 1659 3794 
L 2369 3794 
L 2369 3372 
L 1659 3372 
L 1659 1325 
Q 2078 1513 2484 1722 
L 2566 1313 
Q 1556 775 559 397 
L 334 838 
Q 803 975 1206 1138 
L 1206 3372 
L 413 3372 
L 413 3794 
L 1206 3794 
z
M 3475 4244 
L 5844 4244 
Q 5834 1131 5619 184 
Q 5494 -366 4838 -366 
Q 4369 -366 3859 -306 
L 3769 184 
Q 4241 88 4731 88 
Q 5059 88 5147 306 
Q 5359 919 5369 3828 
L 3316 3828 
Q 3013 3119 2466 2472 
L 2150 2828 
Q 2944 3788 3259 5263 
L 3719 5147 
Q 3619 4663 3475 4244 
z
M 2975 2847 
L 4678 2847 
L 4678 2431 
L 2975 2431 
L 2975 2847 
z
M 2559 1044 
Q 3747 1338 4838 1797 
L 4891 1388 
Q 3831 891 2766 588 
L 2559 1044 
z
" transform="scale(0.015625)"/>
      <path id="IPAexGothic-304c" d="M 659 3384 
Q 1434 3503 2113 3581 
Q 2313 4341 2394 4972 
L 2900 4875 
Q 2759 4147 2619 3628 
L 2719 3634 
Q 2894 3641 3041 3641 
Q 4072 3641 4072 2369 
Q 4072 1128 3700 384 
Q 3478 -56 3003 -56 
Q 2591 -56 2113 231 
L 2138 775 
Q 2631 444 2925 444 
Q 3169 444 3297 706 
Q 3566 1294 3566 2388 
Q 3566 3219 3016 3219 
Q 2825 3219 2497 3194 
Q 2388 2763 2113 2047 
Q 1634 797 1119 -38 
L 678 244 
Q 1356 1238 1863 2750 
Q 1888 2819 1991 3128 
Q 1594 3081 769 2916 
L 659 3384 
z
M 5441 1838 
Q 4913 3038 4091 3916 
L 4475 4184 
Q 5350 3269 5888 2156 
L 5441 1838 
z
M 5913 4275 
Q 5553 4819 5159 5147 
L 5459 5375 
Q 5844 5066 6234 4550 
L 5913 4275 
z
M 5344 3788 
Q 5053 4278 4609 4678 
L 4922 4922 
Q 5294 4613 5678 4063 
L 5344 3788 
z
" transform="scale(0.015625)"/>
      <path id="IPAexGothic-4e00" d="M 513 2847 
L 5881 2847 
L 5881 2328 
L 513 2328 
L 513 2847 
z
" transform="scale(0.015625)"/>
      <path id="IPAexGothic-767a" d="M 4719 3638 
Q 5159 4016 5453 4391 
L 5831 4122 
Q 5406 3700 5038 3413 
Q 5500 3116 6106 2856 
L 5800 2456 
Q 5231 2738 4706 3113 
L 4706 2772 
L 4103 2772 
L 4103 1919 
L 5753 1919 
L 5753 1522 
L 4103 1522 
L 4103 359 
Q 4103 159 4206 131 
Q 4313 94 4678 94 
Q 5256 94 5350 191 
Q 5444 284 5472 766 
Q 5472 863 5478 900 
L 5928 741 
Q 5900 25 5741 -141 
Q 5572 -341 4647 -341 
Q 4084 -341 3900 -256 
Q 3650 -150 3650 213 
L 3650 1522 
L 2725 1522 
Q 2572 34 709 -475 
L 466 -63 
Q 2128 347 2272 1522 
L 641 1522 
L 641 1919 
L 2291 1919 
L 2291 2772 
L 1778 2772 
L 1778 3009 
Q 1263 2647 581 2316 
L 288 2700 
Q 1044 2991 1663 3444 
Q 1269 3850 863 4134 
L 1191 4425 
Q 1697 4006 1991 3713 
Q 2434 4100 2763 4616 
L 1284 4616 
L 1284 5006 
L 3456 5006 
Q 3725 4566 4025 4244 
Q 4422 4584 4738 4988 
L 5109 4719 
Q 4747 4328 4294 3981 
Q 4506 3781 4719 3638 
z
M 3650 2772 
L 2738 2772 
L 2738 1919 
L 3650 1919 
L 3650 2772 
z
M 1978 3156 
L 4641 3156 
Q 3756 3794 3238 4544 
Q 2766 3769 1978 3156 
z
" transform="scale(0.015625)"/>
      <path id="IPAexGothic-51fa" d="M 3419 2956 
L 4928 2956 
L 4928 4500 
L 5397 4500 
L 5397 2203 
L 4928 2203 
L 4928 2541 
L 3419 2541 
L 3419 384 
L 5194 384 
L 5194 1813 
L 5653 1813 
L 5653 -447 
L 5194 -447 
L 5194 -31 
L 1203 -31 
L 1203 -447 
L 744 -447 
L 744 1813 
L 1203 1813 
L 1203 384 
L 2938 384 
L 2938 2541 
L 1459 2541 
L 1459 2203 
L 1000 2203 
L 1000 4500 
L 1459 4500 
L 1459 2956 
L 2938 2956 
L 2938 5144 
L 3419 5144 
L 3419 2956 
z
" transform="scale(0.015625)"/>
      <path id="IPAexGothic-6765" d="M 3403 1691 
L 3403 -447 
L 2944 -447 
L 2944 1647 
Q 2141 481 666 -166 
L 353 219 
Q 1878 806 2809 2063 
L 481 2063 
L 481 2472 
L 2944 2472 
L 2944 3897 
L 806 3897 
L 806 4306 
L 2944 4306 
L 2944 5313 
L 3403 5313 
L 3403 4306 
L 5584 4306 
L 5584 3897 
L 3403 3897 
L 3403 2472 
L 3947 2472 
Q 4297 3125 4522 3828 
L 5009 3641 
Q 4784 3094 4428 2472 
L 5913 2472 
L 5913 2063 
L 3556 2063 
Q 4522 969 6084 384 
L 5759 -63 
Q 4181 647 3403 1691 
z
M 1831 2534 
Q 1606 3188 1325 3628 
L 1747 3803 
Q 2031 3369 2294 2719 
L 1831 2534 
z
" transform="scale(0.015625)"/>
     </defs>
     <use xlink:href="#IPAexGothic-5b9f"/>
     <use xlink:href="#IPAexGothic-52d9" x="100"/>
     <use xlink:href="#IPAexGothic-4f8b" x="200"/>
     <use xlink:href="#IPAexGothic-ff1a" x="300"/>
     <use xlink:href="#IPAexGothic-300c" x="400"/>
     <use xlink:href="#IPAexGothic-90fd" x="500"/>
     <use xlink:href="#IPAexGothic-9053" x="600"/>
     <use xlink:href="#IPAexGothic-5e9c" x="700"/>
     <use xlink:href="#IPAexGothic-770c" x="800"/>
     <use xlink:href="#IPAexGothic-3054" x="900"/>
     <use xlink:href="#IPAexGothic-3068" x="1000"/>
     <use xlink:href="#IPAexGothic-300d" x="1100"/>
     <use xlink:href="#IPAexGothic-300c" x="1200"/>
     <use xlink:href="#IPAexGothic-6708" x="1300"/>
     <use xlink:href="#IPAexGothic-3054" x="1400"/>
     <use xlink:href="#IPAexGothic-3068" x="1500"/>
     <use xlink:href="#IPAexGothic-300d" x="1600"/>
     <use xlink:href="#IPAexGothic-306e" x="1700"/>
     <use xlink:href="#IPAexGothic-58f2" x="1800"/>
     <use xlink:href="#IPAexGothic-4e0a" x="1900"/>
     <use xlink:href="#IPAexGothic-5e73" x="2000"/>
     <use xlink:href="#IPAexGothic-5747" x="2100"/>
     <use xlink:href="#IPAexGothic-96c6" x="2200"/>
     <use xlink:href="#IPAexGothic-8a08" x="2300"/>
     <use xlink:href="#IPAexGothic-304c" x="2400"/>
     <use xlink:href="#IPAexGothic-20" x="2500"/>
     <use xlink:href="#IPAexGothic-67" x="2527.001953"/>
     <use xlink:href="#IPAexGothic-72" x="2582.519531"/>
     <use xlink:href="#IPAexGothic-6f" x="2619.53125"/>
     <use xlink:href="#IPAexGothic-75" x="2679.931641"/>
     <use xlink:href="#IPAexGothic-70" x="2740.332031"/>
     <use xlink:href="#IPAexGothic-62" x="2802.441406"/>
     <use xlink:href="#IPAexGothic-79" x="2864.84375"/>
     <use xlink:href="#IPAexGothic-20" x="2914.0625"/>
     <use xlink:href="#IPAexGothic-4e00" x="2941.064453"/>
     <use xlink:href="#IPAexGothic-767a" x="3041.064453"/>
     <use xlink:href="#IPAexGothic-3067" x="3141.064453"/>
     <use xlink:href="#IPAexGothic-51fa" x="3241.064453"/>
     <use xlink:href="#IPAexGothic-6765" x="3341.064453"/>
     <use xlink:href="#IPAexGothic-308b" x="3441.064453"/>
    </g>
   </g>
  </g>
 </g>
 <defs>
  <clipPath id="pab7b16e3f0">
   <rect x="0" y="-0" width="691.2" height="388.8"/>
  </clipPath>
 </defs>
</svg>
