<?xml version="1.0" encoding="utf-8" standalone="no"?>
<!DOCTYPE svg PUBLIC "-//W3C//DTD SVG 1.1//EN"
  "http://www.w3.org/Graphics/SVG/1.1/DTD/svg11.dtd">
<svg xmlns:xlink="http://www.w3.org/1999/xlink" width="691.2pt" height="388.8pt" viewBox="0 0 691.2 388.8" xmlns="http://www.w3.org/2000/svg" version="1.1">
 <metadata>
  <rdf:RDF xmlns:dc="http://purl.org/dc/elements/1.1/" xmlns:cc="http://creativecommons.org/ns#" xmlns:rdf="http://www.w3.org/1999/02/22-rdf-syntax-ns#">
   <cc:Work>
    <dc:type rdf:resource="http://purl.org/dc/dcmitype/StillImage"/>
    <dc:date>2026-04-09T02:37:45.491762</dc:date>
    <dc:format>image/svg+xml</dc:format>
    <dc:creator>
     <cc:Agent>
      <dc:title>Matplotlib v3.9.4, https://matplotlib.org/</dc:title>
     </cc:Agent>
    </dc:creator>
   </cc:Work>
  </rdf:RDF>
 </metadata>
 <defs>
  <style type="text/css">*{stroke-linejoin: round; stroke-linecap: butt}</style>
 </defs>
 <g id="figure_1">
  <g id="patch_1">
   <path d="M 0 388.8 
L 691.2 388.8 
L 691.2 0 
L 0 0 
z
" style="fill: #ffffff"/>
  </g>
  <g id="axes_1">
   <g id="patch_2">
    <path d="M 0 -0 
L 691.2 -0 
L 691.2 24.48 
L 0 24.48 
z
" clip-path="url(#p64901d997b)" style="fill: #4a90d9"/>
   </g>
   <g id="patch_3">
    <path d="M 31.68 59.04 
L 659.52 59.04 
L 659.52 60.48 
L 31.68 60.48 
z
" clip-path="url(#p64901d997b)" style="fill: #ecf0f1"/>
   </g>
   <g id="patch_4">
    <path d="M 31.68 309.6 
L 659.52 309.6 
L 659.52 338.4 
L 31.68 338.4 
z
" clip-path="url(#p64901d997b)" style="fill: #eafaf1"/>
   </g>
   <g id="patch_5">
    <path d="M 31.68 309.6 
L 33.84 309.6 
L 33.84 338.4 
L 31.68 338.4 
z
" clip-path="url(#p64901d997b)" style="fill: #5ba85a"/>
   </g>
   <g id="patch_6">
    <path d="M 44.64 76.32 
C 48.077032 76.32 51.373755 77.685547 53.804104 80.115896 
C 56.234453 82.546245 57.6 85.842968 57.6 89.28 
C 57.6 92.717032 56.234453 96.013755 53.804104 98.444104 
C 51.373755 100.874453 48.077032 102.24 44.64 102.24 
C 41.202968 102.24 37.906245 100.874453 35.475896 98.444104 
C 33.045547 96.013755 31.68 92.717032 31.68 89.28 
C 31.68 85.842968 33.045547 82.546245 35.475896 80.115896 
C 37.906245 77.685547 41.202968 76.32 44.64 76.32 
z
" clip-path="url(#p64901d997b)" style="fill: #4a90d9; stroke: #4a90d9; stroke-linejoin: miter"/>
   </g>
   <g id="patch_7">
    <path d="M 44.64 118.08 
C 48.077032 118.08 51.373755 119.445547 53.804104 121.875896 
C 56.234453 124.306245 57.6 127.602968 57.6 131.04 
C 57.6 134.477032 56.234453 137.773755 53.804104 140.204104 
C 51.373755 142.634453 48.077032 144 44.64 144 
C 41.202968 144 37.906245 142.634453 35.475896 140.204104 
C 33.045547 137.773755 31.68 134.477032 31.68 131.04 
C 31.68 127.602968 33.045547 124.306245 35.475896 121.875896 
C 37.906245 119.445547 41.202968 118.08 44.64 118.08 
z
" clip-path="url(#p64901d997b)" style="fill: #4a90d9; stroke: #4a90d9; stroke-linejoin: miter"/>
   </g>
   <g id="patch_8">
    <path d="M 44.64 159.84 
C 48.077032 159.84 51.373755 161.205547 53.804104 163.635896 
C 56.234453 166.066245 57.6 169.362968 57.6 172.8 
C 57.6 176.237032 56.234453 179.533755 53.804104 181.964104 
C 51.373755 184.394453 48.077032 185.76 44.64 185.76 
C 41.202968 185.76 37.906245 184.394453 35.475896 181.964104 
C 33.045547 179.533755 31.68 176.237032 31.68 172.8 
C 31.68 169.362968 33.045547 166.066245 35.475896 163.635896 
C 37.906245 161.205547 41.202968 159.84 44.64 159.84 
z
" clip-path="url(#p64901d997b)" style="fill: #4a90d9; stroke: #4a90d9; stroke-linejoin: miter"/>
   </g>
   <g id="patch_9">
    <path d="M 44.64 201.6 
C 48.077032 201.6 51.373755 202.965547 53.804104 205.395896 
C 56.234453 207.826245 57.6 211.122968 57.6 214.56 
C 57.6 217.997032 56.234453 221.293755 53.804104 223.724104 
C 51.373755 226.154453 48.077032 227.52 44.64 227.52 
C 41.202968 227.52 37.906245 226.154453 35.475896 223.724104 
C 33.045547 221.293755 31.68 217.997032 31.68 214.56 
C 31.68 211.122968 33.045547 207.826245 35.475896 205.395896 
C 37.906245 202.965547 41.202968 201.6 44.64 201.6 
z
" clip-path="url(#p64901d997b)" style="fill: #4a90d9; stroke: #4a90d9; stroke-linejoin: miter"/>
   </g>
   <g id="text_1">
    <!-- Ch.1 データ読み込み・集計 -->
    <g style="fill: #ffffff" transform="translate(31.68 15.061875) scale(0.1 -0.1)">
     <defs>
      <path id="IPAexGothic-43" d="M 4353 1088 
Q 4181 694 3859 428 
Q 3313 -31 2559 -31 
Q 1588 -31 959 653 
Q 378 1294 378 2331 
Q 378 3406 1013 4078 
Q 1619 4725 2534 4725 
Q 3813 4725 4322 3628 
L 3809 3391 
Q 3425 4238 2541 4238 
Q 1891 4238 1453 3744 
Q 994 3216 994 2322 
Q 994 1550 1384 1056 
Q 1841 472 2563 472 
Q 3456 472 3878 1319 
L 4353 1088 
z
" transform="scale(0.015625)"/>
      <path id="IPAexGothic-68" d="M 3347 63 
L 2797 63 
L 2797 2041 
Q 2797 2853 2131 2853 
Q 1447 2853 1131 2041 
L 1131 63 
L 581 63 
L 581 4794 
L 1131 4794 
L 1131 2706 
Q 1566 3316 2247 3316 
Q 3347 3316 3347 2072 
L 3347 63 
z
" transform="scale(0.015625)"/>
      <path id="IPAexGothic-2e" d="M 1184 63 
L 494 63 
L 494 753 
L 1184 753 
L 1184 63 
z
" transform="scale(0.015625)"/>
      <path id="IPAexGothic-31" d="M 2463 63 
L 1900 63 
L 1900 4103 
Q 1372 3922 788 3797 
L 684 4231 
Q 1519 4441 2106 4731 
L 2463 4731 
L 2463 63 
z
" transform="scale(0.015625)"/>
      <path id="IPAexGothic-20" transform="scale(0.015625)"/>
      <path id="IPAexGothic-30c7" d="M 563 3072 
L 5741 3072 
L 5741 2613 
L 3578 2613 
Q 3538 1516 3134 872 
Q 2688 156 1663 -256 
L 1313 156 
Q 2338 538 2713 1166 
Q 3003 1644 3034 2613 
L 563 2613 
L 563 3072 
z
M 1406 4588 
L 4588 4588 
L 4588 4128 
L 1406 4128 
L 1406 4588 
z
M 6009 4469 
Q 5647 5009 5253 5338 
L 5553 5569 
Q 5938 5259 6328 4744 
L 6009 4469 
z
M 5413 4000 
Q 5125 4491 4678 4891 
L 4991 5131 
Q 5363 4825 5747 4275 
L 5413 4000 
z
" transform="scale(0.015625)"/>
      <path id="IPAexGothic-30fc" d="M 588 2688 
L 5809 2688 
L 5809 2175 
L 588 2175 
L 588 2688 
z
" transform="scale(0.015625)"/>
      <path id="IPAexGothic-30bf" d="M 4978 4263 
L 5313 3988 
Q 4797 2431 4056 1459 
Q 3191 325 1822 -300 
L 1466 109 
Q 2131 381 2613 738 
Q 3053 1066 3531 1600 
Q 2919 2225 2144 2791 
Q 1603 2203 1172 1875 
L 825 2234 
Q 2316 3328 2866 5031 
L 3359 4897 
Q 3325 4775 3109 4263 
L 4978 4263 
z
M 2894 3816 
Q 2709 3522 2438 3169 
Q 3194 2616 3841 2003 
Q 4366 2806 4747 3816 
L 2894 3816 
z
" transform="scale(0.015625)"/>
      <path id="IPAexGothic-8aad" d="M 2284 1684 
L 2284 -128 
L 919 -128 
L 919 -447 
L 509 -447 
L 509 1684 
L 2284 1684 
z
M 919 1313 
L 919 244 
L 1875 244 
L 1875 1313 
L 919 1313 
z
M 3953 4538 
L 3953 5313 
L 4394 5313 
L 4394 4538 
L 5994 4538 
L 5994 4153 
L 4394 4153 
L 4394 3572 
L 5822 3572 
L 5822 3194 
L 2653 3194 
L 2653 3572 
L 3953 3572 
L 3953 4153 
L 2506 4153 
L 2506 4538 
L 3953 4538 
z
M 5950 2725 
L 5950 1559 
L 5522 1559 
L 5522 2341 
L 2928 2341 
L 2928 1516 
L 2500 1516 
L 2500 2725 
L 5950 2725 
z
M 600 5044 
L 2194 5044 
L 2194 4659 
L 600 4659 
L 600 5044 
z
M 331 4206 
L 2384 4206 
L 2384 3816 
L 331 3816 
L 331 4206 
z
M 600 3359 
L 2194 3359 
L 2194 2975 
L 600 2975 
L 600 3359 
z
M 600 2522 
L 2194 2522 
L 2194 2138 
L 600 2138 
L 600 2522 
z
M 2353 -91 
Q 3025 194 3244 647 
Q 3431 1044 3441 2069 
L 3872 2069 
Q 3859 869 3634 441 
Q 3334 -109 2616 -475 
L 2353 -91 
z
M 4428 2069 
L 4856 2069 
L 4856 275 
Q 4856 128 4934 88 
Q 4994 63 5175 63 
Q 5500 63 5547 263 
Q 5584 425 5606 984 
L 6034 856 
Q 5994 153 5931 -38 
Q 5825 -372 5144 -372 
Q 4688 -372 4544 -275 
Q 4428 -191 4428 44 
L 4428 2069 
z
" transform="scale(0.015625)"/>
      <path id="IPAexGothic-307f" d="M 1291 4416 
Q 2209 4456 3341 4647 
L 3666 4409 
Q 3478 3597 3134 2703 
Q 3959 2575 4581 2300 
Q 4669 2759 4678 3488 
L 5163 3381 
Q 5134 2672 5016 2106 
Q 5519 1856 6016 1519 
L 5722 1081 
Q 5184 1459 4888 1613 
Q 4572 441 3456 -238 
L 3072 109 
Q 4150 678 4472 1831 
Q 3706 2200 2969 2284 
Q 2038 200 1319 200 
Q 1013 200 775 525 
Q 569 819 569 1197 
Q 569 1756 1081 2172 
Q 1681 2647 2663 2716 
Q 2900 3313 3084 4159 
Q 2278 4022 1447 3956 
L 1291 4416 
z
M 2481 2291 
Q 1644 2206 1241 1734 
Q 1038 1494 1038 1178 
Q 1038 1019 1100 897 
Q 1188 706 1338 706 
Q 1513 706 1797 1097 
Q 2131 1534 2481 2291 
z
" transform="scale(0.015625)"/>
      <path id="IPAexGothic-8fbc" d="M 4294 4897 
L 4294 4456 
Q 4294 3291 4763 2394 
Q 5206 1531 5938 1019 
L 5613 572 
Q 4391 1628 4044 3156 
Q 3706 1475 2503 544 
L 2169 934 
Q 3650 1928 3834 4403 
L 3841 4481 
L 2566 4481 
L 2566 4897 
L 4294 4897 
z
M 1831 775 
Q 2106 428 2516 284 
Q 2906 150 4197 150 
Q 5228 150 6119 216 
Q 6003 13 5944 -269 
Q 5022 -303 4453 -303 
Q 2925 -303 2425 -131 
Q 1900 44 1600 478 
Q 1144 -56 666 -450 
L 372 38 
Q 825 309 1378 759 
L 1378 2303 
L 397 2303 
L 397 2731 
L 1831 2731 
L 1831 775 
z
M 1625 3616 
Q 1191 4200 634 4703 
L 972 4997 
Q 1456 4616 1984 3969 
L 1625 3616 
z
" transform="scale(0.015625)"/>
      <path id="IPAexGothic-30fb" d="M 2772 2859 
L 3628 2859 
L 3628 2003 
L 2772 2003 
L 2772 2859 
z
" transform="scale(0.015625)"/>
      <path id="IPAexGothic-96c6" d="M 3000 4634 
Q 3197 5047 3275 5338 
L 3775 5216 
Q 3634 4922 3447 4634 
L 5625 4634 
L 5625 4269 
L 3416 4269 
L 3416 3884 
L 5291 3884 
L 5291 3553 
L 3416 3553 
L 3416 3175 
L 5291 3175 
L 5291 2844 
L 3416 2844 
L 3416 2431 
L 5759 2431 
L 5759 2066 
L 3403 2066 
L 3403 1659 
L 5981 1659 
L 5981 1281 
L 3741 1281 
Q 4628 538 6078 141 
L 5759 -275 
Q 4266 222 3403 1122 
L 3403 -447 
L 2950 -447 
L 2950 1091 
Q 2094 69 600 -409 
L 294 -25 
Q 1778 388 2644 1281 
L 416 1281 
L 416 1659 
L 2950 1659 
L 2950 2066 
L 1222 2066 
L 1222 3744 
Q 894 3322 600 3066 
L 306 3375 
Q 1209 4163 1625 5338 
L 2091 5244 
Q 1950 4909 1797 4634 
L 3000 4634 
z
M 1663 4269 
L 1663 3884 
L 3000 3884 
L 3000 4269 
L 1663 4269 
z
M 1663 3553 
L 1663 3175 
L 3000 3175 
L 3000 3553 
L 1663 3553 
z
M 1663 2844 
L 1663 2431 
L 3000 2431 
L 3000 2844 
L 1663 2844 
z
" transform="scale(0.015625)"/>
      <path id="IPAexGothic-8a08" d="M 2853 1684 
L 2853 -416 
L 2413 -416 
L 2413 -128 
L 1088 -128 
L 1088 -447 
L 647 -447 
L 647 1684 
L 2853 1684 
z
M 1088 1300 
L 1088 256 
L 2413 256 
L 2413 1300 
L 1088 1300 
z
M 4322 3225 
L 4322 5178 
L 4781 5178 
L 4781 3225 
L 6063 3225 
L 6063 2797 
L 4781 2797 
L 4781 -447 
L 4322 -447 
L 4322 2797 
L 3063 2797 
L 3063 3225 
L 4322 3225 
z
M 781 5044 
L 2722 5044 
L 2722 4647 
L 781 4647 
L 781 5044 
z
M 384 4206 
L 3150 4206 
L 3150 3803 
L 384 3803 
L 384 4206 
z
M 781 3359 
L 2722 3359 
L 2722 2963 
L 781 2963 
L 781 3359 
z
M 781 2522 
L 2722 2522 
L 2722 2125 
L 781 2125 
L 781 2522 
z
" transform="scale(0.015625)"/>
     </defs>
     <use xlink:href="#IPAexGothic-43"/>
     <use xlink:href="#IPAexGothic-68" x="72.509766"/>
     <use xlink:href="#IPAexGothic-2e" x="133.203125"/>
     <use xlink:href="#IPAexGothic-31" x="159.619141"/>
     <use xlink:href="#IPAexGothic-20" x="222.607422"/>
     <use xlink:href="#IPAexGothic-30c7" x="249.609375"/>
     <use xlink:href="#IPAexGothic-30fc" x="349.609375"/>
     <use xlink:href="#IPAexGothic-30bf" x="449.609375"/>
     <use xlink:href="#IPAexGothic-8aad" x="549.609375"/>
     <use xlink:href="#IPAexGothic-307f" x="649.609375"/>
     <use xlink:href="#IPAexGothic-8fbc" x="749.609375"/>
     <use xlink:href="#IPAexGothic-307f" x="849.609375"/>
     <use xlink:href="#IPAexGothic-30fb" x="949.609375"/>
     <use xlink:href="#IPAexGothic-96c6" x="1049.609375"/>
     <use xlink:href="#IPAexGothic-8a08" x="1149.609375"/>
    </g>
   </g>
   <g id="text_2">
    <!-- 演習の進め方（40分） -->
    <g style="fill: #1a1a2e" transform="translate(31.68 55.4175) scale(0.24 -0.24)">
     <defs>
      <path id="IPAexGothic-6f14" d="M 4091 2869 
L 5600 2869 
L 5600 697 
L 2209 697 
L 2209 2869 
L 3675 2869 
L 3675 3353 
L 2522 3353 
L 2522 3725 
L 5356 3725 
L 5356 3353 
L 4091 3353 
L 4091 2869 
z
M 4091 2503 
L 4091 1972 
L 5172 1972 
L 5172 2503 
L 4091 2503 
z
M 4091 1625 
L 4091 1063 
L 5172 1063 
L 5172 1625 
L 4091 1625 
z
M 3675 1063 
L 3675 1625 
L 2638 1625 
L 2638 1063 
L 3675 1063 
z
M 3675 1972 
L 3675 2503 
L 2638 2503 
L 2638 1972 
L 3675 1972 
z
M 4109 4544 
L 5984 4544 
L 5984 3378 
L 5544 3378 
L 5544 4166 
L 2341 4166 
L 2341 3378 
L 1900 3378 
L 1900 4544 
L 3656 4544 
L 3656 5313 
L 4109 5313 
L 4109 4544 
z
M 1447 3878 
Q 1088 4347 556 4769 
L 859 5100 
Q 1366 4719 1766 4250 
L 1447 3878 
z
M 1288 2381 
Q 841 2906 378 3256 
L 678 3591 
Q 1113 3288 1606 2753 
L 1288 2381 
z
M 372 -72 
Q 934 834 1306 1906 
L 1672 1613 
Q 1306 519 750 -422 
L 372 -72 
z
M 5741 -441 
Q 5019 47 4225 397 
L 4578 684 
Q 5353 372 6100 -63 
L 5741 -441 
z
M 1653 -109 
Q 2553 178 3213 653 
L 3541 359 
Q 2819 -159 1984 -506 
L 1653 -109 
z
" transform="scale(0.015625)"/>
      <path id="IPAexGothic-7fd2" d="M 3006 5063 
L 3006 3047 
Q 3006 2781 2878 2675 
Q 2769 2584 2481 2584 
Q 2078 2584 1772 2631 
L 1716 3072 
Q 2159 2988 2347 2988 
Q 2566 2988 2566 3219 
L 2566 4678 
L 466 4678 
L 466 5063 
L 3006 5063 
z
M 5778 5063 
L 5778 3041 
Q 5778 2584 5288 2584 
Q 4916 2584 4519 2631 
L 4441 3066 
Q 4856 2988 5131 2988 
Q 5338 2988 5338 3206 
L 5338 4678 
L 3238 4678 
L 3238 5063 
L 5778 5063 
z
M 2866 2119 
Q 2950 2356 3013 2669 
L 3500 2572 
Q 3409 2322 3306 2119 
L 5325 2119 
L 5325 -447 
L 4856 -447 
L 4856 -172 
L 1619 -172 
L 1619 -447 
L 1150 -447 
L 1150 2119 
L 2866 2119 
z
M 1619 1747 
L 1619 1197 
L 4856 1197 
L 4856 1747 
L 1619 1747 
z
M 1619 831 
L 1619 206 
L 4856 206 
L 4856 831 
L 1619 831 
z
M 1594 3681 
Q 1219 4044 778 4341 
L 1056 4609 
Q 1525 4325 1869 3981 
L 1594 3681 
z
M 4269 3694 
Q 3816 4066 3403 4341 
L 3684 4622 
Q 4203 4294 4556 3994 
L 4269 3694 
z
M 447 2950 
Q 1328 3347 2225 3969 
L 2353 3622 
Q 1581 3056 691 2606 
L 447 2950 
z
M 3231 3059 
Q 4138 3444 4978 4031 
L 5113 3675 
Q 4281 3066 3463 2700 
L 3231 3059 
z
" transform="scale(0.015625)"/>
      <path id="IPAexGothic-306e" d="M 3119 469 
Q 5275 766 5275 2425 
Q 5275 3453 4413 3925 
Q 4041 4116 3547 4159 
Q 3394 2525 2850 1400 
Q 2322 306 1722 306 
Q 1384 306 1084 666 
Q 609 1244 609 2003 
Q 609 3025 1397 3794 
Q 2184 4563 3431 4563 
Q 4306 4563 4928 4122 
Q 5813 3506 5813 2425 
Q 5813 438 3431 6 
L 3119 469 
z
M 3053 4147 
Q 2378 4044 1891 3641 
Q 1097 2981 1097 1991 
Q 1097 1366 1434 978 
Q 1581 813 1719 813 
Q 2022 813 2416 1625 
Q 2909 2638 3053 4147 
z
" transform="scale(0.015625)"/>
      <path id="IPAexGothic-9032" d="M 4303 1119 
L 5922 1119 
L 5922 728 
L 2828 728 
L 2828 381 
L 2413 381 
L 2413 3431 
Q 2141 3059 1925 2834 
L 1625 3169 
Q 2488 4059 2909 5281 
L 3347 5141 
Q 3125 4613 2925 4238 
L 3875 4238 
Q 4134 4709 4316 5256 
L 4781 5122 
Q 4553 4616 4328 4238 
L 5806 4238 
L 5806 3866 
L 4303 3866 
L 4303 3200 
L 5544 3200 
L 5544 2841 
L 4303 2841 
L 4303 2175 
L 5544 2175 
L 5544 1809 
L 4303 1809 
L 4303 1119 
z
M 3894 1119 
L 3894 1809 
L 2828 1809 
L 2828 1119 
L 3894 1119 
z
M 2828 2175 
L 3894 2175 
L 3894 2841 
L 2828 2841 
L 2828 2175 
z
M 2828 3200 
L 3894 3200 
L 3894 3866 
L 2828 3866 
L 2828 3200 
z
M 1703 734 
Q 1894 484 2241 313 
Q 2675 94 3963 94 
Q 4863 94 6144 178 
Q 6025 -50 5978 -300 
Q 4931 -341 4378 -341 
Q 2803 -341 2228 -122 
Q 1756 50 1519 397 
Q 1106 -75 647 -447 
L 366 19 
Q 847 309 1263 678 
L 1263 2303 
L 378 2303 
L 378 2731 
L 1703 2731 
L 1703 734 
z
M 1516 3775 
Q 1053 4347 563 4738 
L 878 5056 
Q 1466 4597 1856 4128 
L 1516 3775 
z
" transform="scale(0.015625)"/>
      <path id="IPAexGothic-3081" d="M 1588 4550 
Q 1709 3969 1881 3431 
Q 2488 3791 3309 3891 
Q 3444 4513 3488 4972 
L 3994 4878 
Q 3922 4456 3800 3897 
Q 4666 3838 5169 3397 
Q 5513 3103 5650 2753 
Q 5784 2413 5784 1900 
Q 5784 1081 5106 550 
Q 4500 75 3397 -128 
L 3103 331 
Q 4238 484 4784 944 
Q 5253 1334 5253 1913 
Q 5253 2428 5100 2725 
Q 4981 2963 4716 3156 
Q 4331 3441 3694 3500 
Q 3363 2388 2766 1428 
Q 2872 1241 3084 966 
L 2725 647 
Q 2597 813 2475 1019 
Q 1834 231 1313 231 
Q 966 231 756 556 
Q 544 884 544 1338 
Q 544 2300 1484 3156 
Q 1250 3903 1153 4353 
L 1588 4550 
z
M 1631 2725 
Q 991 2069 991 1378 
Q 991 738 1344 738 
Q 1709 738 2228 1428 
Q 1894 2025 1631 2725 
z
M 3206 3488 
Q 2519 3381 2009 3028 
Q 2266 2306 2516 1863 
Q 3003 2763 3206 3488 
z
" transform="scale(0.015625)"/>
      <path id="IPAexGothic-65b9" d="M 2931 3750 
L 2925 3616 
Q 2916 3203 2872 2778 
L 5244 2778 
Q 5175 781 5000 156 
Q 4913 -144 4691 -247 
Q 4528 -325 4194 -325 
Q 3759 -325 3256 -263 
L 3144 269 
Q 3700 156 4141 156 
Q 4491 156 4556 463 
Q 4725 1197 4744 2350 
L 2822 2350 
Q 2822 2313 2816 2288 
Q 2538 428 916 -484 
L 563 -94 
Q 1859 491 2247 1869 
Q 2422 2488 2450 3750 
L 409 3750 
L 409 4178 
L 2931 4178 
L 2931 5175 
L 3431 5175 
L 3431 4178 
L 5984 4178 
L 5984 3750 
L 2931 3750 
z
" transform="scale(0.015625)"/>
      <path id="IPAexGothic-ff08" d="M 5419 -434 
Q 4197 769 4197 2438 
Q 4197 4097 5419 5300 
L 5919 5300 
Q 4678 4078 4678 2425 
Q 4678 788 5919 -434 
L 5419 -434 
z
" transform="scale(0.015625)"/>
      <path id="IPAexGothic-34" d="M 3813 1159 
L 3059 1159 
L 3059 63 
L 2547 63 
L 2547 1159 
L 197 1159 
L 197 1672 
L 2456 4678 
L 3059 4678 
L 3059 1634 
L 3813 1634 
L 3813 1159 
z
M 2578 4109 
L 2559 4109 
Q 2278 3656 2003 3284 
L 759 1634 
L 2547 1634 
L 2547 3144 
Q 2547 3481 2578 4109 
z
" transform="scale(0.015625)"/>
      <path id="IPAexGothic-30" d="M 2038 4725 
Q 2881 4725 3334 3944 
Q 3694 3325 3694 2344 
Q 3694 1372 3334 741 
Q 2888 -31 2016 -31 
Q 1147 -31 700 741 
Q 341 1372 341 2350 
Q 341 3713 1000 4334 
Q 1419 4725 2038 4725 
z
M 2016 4266 
Q 1516 4266 1228 3759 
Q 934 3247 934 2344 
Q 934 1456 1222 947 
Q 1513 447 2016 447 
Q 2619 447 2909 1153 
Q 3100 1622 3100 2375 
Q 3100 3256 2806 3759 
Q 2509 4266 2016 4266 
z
" transform="scale(0.015625)"/>
      <path id="IPAexGothic-5206" d="M 3031 2431 
Q 2916 1378 2528 759 
Q 1991 -81 941 -469 
L 625 -53 
Q 2356 488 2541 2431 
L 1375 2431 
L 1375 2772 
Q 1044 2431 653 2156 
L 313 2534 
Q 1600 3425 2219 5056 
L 2688 4875 
Q 2200 3672 1453 2847 
L 4966 2847 
Q 4878 559 4741 94 
Q 4666 -163 4459 -250 
Q 4288 -322 3941 -322 
Q 3525 -322 2981 -263 
L 2884 256 
Q 3441 138 3844 138 
Q 4213 138 4281 438 
Q 4388 931 4472 2431 
L 3031 2431 
z
M 5747 2303 
Q 4416 3238 3506 4934 
L 3934 5113 
Q 4747 3572 6084 2747 
L 5747 2303 
z
" transform="scale(0.015625)"/>
      <path id="IPAexGothic-ff09" d="M 481 -434 
Q 1722 788 1722 2431 
Q 1722 4066 481 5300 
L 981 5300 
Q 2203 4097 2203 2431 
Q 2203 769 981 -434 
L 481 -434 
z
" transform="scale(0.015625)"/>
     </defs>
     <use xlink:href="#IPAexGothic-6f14"/>
     <use xlink:href="#IPAexGothic-7fd2" x="100"/>
     <use xlink:href="#IPAexGothic-306e" x="200"/>
     <use xlink:href="#IPAexGothic-9032" x="300"/>
     <use xlink:href="#IPAexGothic-3081" x="400"/>
     <use xlink:href="#IPAexGothic-65b9" x="500"/>
     <use xlink:href="#IPAexGothic-ff08" x="600"/>
     <use xlink:href="#IPAexGothic-34" x="700"/>
     <use xlink:href="#IPAexGothic-30" x="762.988281"/>
     <use xlink:href="#IPAexGothic-5206" x="825.976562"/>
     <use xlink:href="#IPAexGothic-ff09" x="925.976562"/>
    </g>
   </g>
   <g id="text_3">
    <!-- notebooks/ch1_data_analysis.ipynb の演習セクション -->
    <g style="fill: #7f8c8d" transform="translate(31.68 73.321875) scale(0.12 -0.12)">
     <defs>
      <path id="IPAexGothic-6e" d="M 3328 63 
L 2778 63 
L 2778 2041 
Q 2778 2853 2106 2853 
Q 1428 2853 1113 2041 
L 1113 63 
L 563 63 
L 563 3250 
L 1075 3250 
L 1075 2675 
Q 1525 3316 2222 3316 
Q 3328 3316 3328 2072 
L 3328 63 
z
" transform="scale(0.015625)"/>
      <path id="IPAexGothic-6f" d="M 1919 3341 
Q 2594 3341 3056 2888 
Q 3531 2413 3531 1638 
Q 3531 888 3066 422 
Q 2609 -31 1919 -31 
Q 1228 -31 781 416 
Q 313 881 313 1656 
Q 313 2413 788 2888 
Q 1241 3341 1919 3341 
z
M 1919 2919 
Q 1519 2919 1241 2631 
Q 888 2278 888 1650 
Q 888 1031 1234 684 
Q 1516 403 1919 403 
Q 2331 403 2609 691 
Q 2956 1038 2956 1672 
Q 2956 2269 2603 2631 
Q 2316 2919 1919 2919 
z
" transform="scale(0.015625)"/>
      <path id="IPAexGothic-74" d="M 2125 241 
Q 1769 -6 1397 -6 
Q 653 -6 653 831 
L 653 2859 
L 219 2859 
L 219 3250 
L 653 3250 
L 653 3966 
L 1178 4228 
L 1178 3250 
L 2063 3250 
L 2063 2859 
L 1178 2859 
L 1178 906 
Q 1178 416 1513 416 
Q 1738 416 1941 588 
L 2125 241 
z
" transform="scale(0.015625)"/>
      <path id="IPAexGothic-65" d="M 863 1594 
Q 891 1041 1209 722 
Q 1534 397 1997 397 
Q 2606 397 2963 966 
L 3322 728 
Q 2869 -31 1931 -31 
Q 1222 -31 766 422 
Q 306 884 306 1641 
Q 306 2444 788 2925 
Q 1216 3353 1856 3353 
Q 2459 3353 2866 2956 
Q 3322 2494 3322 1722 
L 3322 1594 
L 863 1594 
z
M 2756 1997 
Q 2709 2431 2450 2681 
Q 2194 2938 1844 2938 
Q 1438 2938 1150 2591 
Q 953 2356 894 1997 
L 2756 1997 
z
" transform="scale(0.015625)"/>
      <path id="IPAexGothic-62" d="M 1125 2731 
Q 1550 3341 2219 3341 
Q 2788 3341 3191 2938 
Q 3659 2469 3659 1644 
Q 3659 838 3191 372 
Q 2788 -31 2206 -31 
Q 1559 -31 1088 516 
L 1009 44 
L 581 44 
L 581 4794 
L 1125 4794 
L 1125 2731 
z
M 1125 1997 
L 1125 1253 
Q 1125 888 1528 600 
Q 1803 403 2119 403 
Q 2488 403 2744 659 
Q 3084 1009 3084 1631 
Q 3084 2194 2803 2553 
Q 2525 2900 2125 2900 
Q 1759 2900 1438 2578 
Q 1125 2266 1125 1997 
z
" transform="scale(0.015625)"/>
      <path id="IPAexGothic-6b" d="M 3244 63 
L 2578 63 
L 1484 1613 
L 1119 1259 
L 1119 63 
L 581 63 
L 581 4794 
L 1119 4794 
L 1119 1766 
L 2463 3250 
L 3153 3250 
L 1828 1925 
L 3244 63 
z
" transform="scale(0.015625)"/>
      <path id="IPAexGothic-73" d="M 2234 2547 
Q 1938 2931 1484 2931 
Q 891 2931 891 2475 
Q 891 2153 1531 1944 
L 1741 1875 
Q 2650 1578 2650 894 
Q 2650 434 2272 172 
Q 1972 -31 1497 -31 
Q 766 -31 256 503 
L 603 819 
Q 997 397 1516 397 
Q 2131 397 2131 875 
Q 2131 1238 1453 1478 
L 1234 1553 
Q 378 1853 378 2431 
Q 378 2797 628 3047 
Q 928 3347 1453 3347 
Q 2156 3347 2606 2859 
L 2234 2547 
z
" transform="scale(0.015625)"/>
      <path id="IPAexGothic-2f" d="M 2719 4709 
L 600 -884 
L 300 -763 
L 2413 4831 
L 2719 4709 
z
" transform="scale(0.015625)"/>
      <path id="IPAexGothic-63" d="M 3269 784 
Q 2834 -31 1900 -31 
Q 1228 -31 788 409 
Q 313 891 313 1663 
Q 313 2428 788 2913 
Q 1222 3347 1881 3347 
Q 2813 3347 3206 2541 
L 2763 2309 
Q 2484 2900 1900 2900 
Q 1516 2900 1234 2619 
Q 881 2266 881 1650 
Q 881 1069 1222 728 
Q 1522 428 1956 428 
Q 2547 428 2847 1016 
L 3269 784 
z
" transform="scale(0.015625)"/>
      <path id="IPAexGothic-5f" d="M 3200 -750 
L 0 -750 
L 0 -431 
L 3200 -431 
L 3200 -750 
z
" transform="scale(0.015625)"/>
      <path id="IPAexGothic-64" d="M 3391 63 
L 2891 63 
L 2891 619 
Q 2441 -31 1753 -31 
Q 1181 -31 788 372 
Q 313 844 313 1663 
Q 313 2466 772 2938 
Q 1169 3341 1753 3341 
Q 2384 3341 2847 2809 
L 2847 4794 
L 3391 4794 
L 3391 63 
z
M 2847 1303 
L 2847 2097 
Q 2847 2413 2456 2706 
Q 2181 2906 1853 2906 
Q 1484 2906 1228 2650 
Q 888 2309 888 1678 
Q 888 1109 1169 750 
Q 1441 409 1847 409 
Q 2322 409 2656 875 
Q 2847 1134 2847 1303 
z
" transform="scale(0.015625)"/>
      <path id="IPAexGothic-61" d="M 3156 63 
L 2672 63 
Q 2559 303 2531 556 
L 2509 556 
Q 2147 -25 1428 -25 
Q 934 -25 622 288 
Q 347 563 347 959 
Q 347 1947 2050 1997 
L 2478 2009 
L 2478 2175 
Q 2478 2509 2288 2700 
Q 2088 2900 1775 2900 
Q 1238 2900 969 2378 
L 494 2597 
Q 938 3328 1788 3328 
Q 2375 3328 2691 3000 
Q 2984 2706 2984 2169 
L 2984 997 
Q 2984 400 3156 63 
z
M 2491 1625 
L 2141 1619 
Q 903 1591 903 953 
Q 903 728 1050 581 
Q 1231 403 1525 403 
Q 1934 403 2234 703 
Q 2491 969 2491 1344 
L 2491 1625 
z
" transform="scale(0.015625)"/>
      <path id="IPAexGothic-6c" d="M 1131 63 
L 581 63 
L 581 4794 
L 1131 4794 
L 1131 63 
z
" transform="scale(0.015625)"/>
      <path id="IPAexGothic-79" d="M 3122 3250 
L 1575 -488 
Q 1278 -1203 550 -1203 
L 478 -1203 
L 344 -703 
L 447 -703 
Q 969 -703 1150 -238 
L 1356 275 
L 38 3250 
L 659 3250 
L 1363 1459 
Q 1528 1025 1606 781 
L 1625 781 
Q 1750 1169 1863 1459 
L 2528 3250 
L 3122 3250 
z
" transform="scale(0.015625)"/>
      <path id="IPAexGothic-69" d="M 1178 3928 
L 550 3928 
L 550 4569 
L 1178 4569 
L 1178 3928 
z
M 1138 63 
L 588 63 
L 588 3250 
L 1138 3250 
L 1138 63 
z
" transform="scale(0.015625)"/>
      <path id="IPAexGothic-70" d="M 1075 2688 
Q 1525 3341 2206 3341 
Q 2769 3341 3172 2938 
Q 3641 2469 3641 1644 
Q 3641 841 3178 372 
Q 2775 -31 2200 -31 
Q 1569 -31 1106 497 
L 1106 -1216 
L 563 -1216 
L 563 3250 
L 1075 3250 
L 1075 2688 
z
M 1106 1950 
L 1106 1291 
Q 1106 897 1516 600 
Q 1791 403 2106 403 
Q 2469 403 2725 659 
Q 3066 997 3066 1631 
Q 3066 2200 2784 2559 
Q 2503 2900 2100 2900 
Q 1656 2900 1338 2484 
Q 1106 2184 1106 1950 
z
" transform="scale(0.015625)"/>
      <path id="IPAexGothic-30bb" d="M 2059 4878 
L 2584 4878 
L 2584 3397 
L 5291 3731 
L 5606 3444 
Q 4838 2313 4006 1556 
L 3569 1875 
Q 4297 2459 4844 3231 
L 2584 2931 
L 2584 978 
Q 2584 734 2738 669 
Q 2922 584 3616 584 
Q 4419 584 5425 697 
L 5444 172 
Q 4563 103 3844 103 
Q 2678 103 2359 256 
Q 2059 403 2059 863 
L 2059 2859 
L 638 2675 
L 588 3150 
L 2059 3334 
L 2059 4878 
z
" transform="scale(0.015625)"/>
      <path id="IPAexGothic-30af" d="M 4934 4191 
L 5272 3941 
Q 4894 2334 4031 1300 
Q 3275 391 2028 -225 
L 1656 184 
Q 2875 691 3641 1625 
Q 4403 2553 4691 3731 
L 2903 3731 
Q 2188 2653 1356 1959 
L 978 2309 
Q 2328 3400 2931 5022 
L 3422 4881 
Q 3363 4672 3141 4191 
L 4934 4191 
z
" transform="scale(0.015625)"/>
      <path id="IPAexGothic-30b7" d="M 2828 3531 
Q 2219 4056 1613 4359 
L 1913 4781 
Q 2503 4491 3169 3981 
L 2828 3531 
z
M 1163 500 
Q 3944 1094 5338 3525 
L 5688 3128 
Q 4297 700 1484 0 
L 1163 500 
z
M 2072 2278 
Q 1466 2800 831 3109 
L 1131 3541 
Q 1806 3213 2406 2725 
L 2072 2278 
z
" transform="scale(0.015625)"/>
      <path id="IPAexGothic-30e7" d="M 1625 3469 
L 4653 3469 
L 4653 0 
L 4172 0 
L 4172 294 
L 1553 294 
L 1553 753 
L 4172 753 
L 4172 1734 
L 1766 1734 
L 1766 2169 
L 4172 2169 
L 4172 3028 
L 1625 3028 
L 1625 3469 
z
" transform="scale(0.015625)"/>
      <path id="IPAexGothic-30f3" d="M 2444 3084 
Q 1816 3656 1056 4084 
L 1381 4519 
Q 2063 4191 2816 3559 
L 2444 3084 
z
M 1100 609 
Q 3984 1106 5216 3828 
L 5619 3469 
Q 4413 794 1434 103 
L 1100 609 
z
" transform="scale(0.015625)"/>
     </defs>
     <use xlink:href="#IPAexGothic-6e"/>
     <use xlink:href="#IPAexGothic-6f" x="60.400391"/>
     <use xlink:href="#IPAexGothic-74" x="120.800781"/>
     <use xlink:href="#IPAexGothic-65" x="155.419922"/>
     <use xlink:href="#IPAexGothic-62" x="212.304688"/>
     <use xlink:href="#IPAexGothic-6f" x="274.707031"/>
     <use xlink:href="#IPAexGothic-6f" x="335.107422"/>
     <use xlink:href="#IPAexGothic-6b" x="395.507812"/>
     <use xlink:href="#IPAexGothic-73" x="447.314453"/>
     <use xlink:href="#IPAexGothic-2f" x="493.505859"/>
     <use xlink:href="#IPAexGothic-63" x="543.505859"/>
     <use xlink:href="#IPAexGothic-68" x="597.900391"/>
     <use xlink:href="#IPAexGothic-31" x="658.59375"/>
     <use xlink:href="#IPAexGothic-5f" x="721.582031"/>
     <use xlink:href="#IPAexGothic-64" x="771.582031"/>
     <use xlink:href="#IPAexGothic-61" x="833.984375"/>
     <use xlink:href="#IPAexGothic-74" x="888.964844"/>
     <use xlink:href="#IPAexGothic-61" x="923.583984"/>
     <use xlink:href="#IPAexGothic-5f" x="978.564453"/>
     <use xlink:href="#IPAexGothic-61" x="1028.564453"/>
     <use xlink:href="#IPAexGothic-6e" x="1083.544922"/>
     <use xlink:href="#IPAexGothic-61" x="1143.945312"/>
     <use xlink:href="#IPAexGothic-6c" x="1198.925781"/>
     <use xlink:href="#IPAexGothic-79" x="1225.927734"/>
     <use xlink:href="#IPAexGothic-73" x="1275.146484"/>
     <use xlink:href="#IPAexGothic-69" x="1321.337891"/>
     <use xlink:href="#IPAexGothic-73" x="1348.339844"/>
     <use xlink:href="#IPAexGothic-2e" x="1394.53125"/>
     <use xlink:href="#IPAexGothic-69" x="1420.947266"/>
     <use xlink:href="#IPAexGothic-70" x="1447.949219"/>
     <use xlink:href="#IPAexGothic-79" x="1510.058594"/>
     <use xlink:href="#IPAexGothic-6e" x="1559.277344"/>
     <use xlink:href="#IPAexGothic-62" x="1619.677734"/>
     <use xlink:href="#IPAexGothic-20" x="1682.080078"/>
     <use xlink:href="#IPAexGothic-306e" x="1709.082031"/>
     <use xlink:href="#IPAexGothic-6f14" x="1809.082031"/>
     <use xlink:href="#IPAexGothic-7fd2" x="1909.082031"/>
     <use xlink:href="#IPAexGothic-30bb" x="2009.082031"/>
     <use xlink:href="#IPAexGothic-30af" x="2109.082031"/>
     <use xlink:href="#IPAexGothic-30b7" x="2209.082031"/>
     <use xlink:href="#IPAexGothic-30e7" x="2309.082031"/>
     <use xlink:href="#IPAexGothic-30f3" x="2409.082031"/>
    </g>
   </g>
   <g id="text_4">
    <!-- 問1 -->
    <g style="fill: #ffffff" transform="translate(34.860937 92.634375) scale(0.12 -0.12)">
     <defs>
      <path id="IPAexGothic-554f" d="M 4384 2291 
L 4384 525 
L 2400 525 
L 2400 172 
L 1972 172 
L 1972 2291 
L 4384 2291 
z
M 3956 1919 
L 2400 1919 
L 2400 897 
L 3956 897 
L 3956 1919 
z
M 2913 4984 
L 2913 2884 
L 1094 2884 
L 1094 -450 
L 641 -450 
L 641 4984 
L 2913 4984 
z
M 1094 4606 
L 1094 4109 
L 2497 4109 
L 2497 4606 
L 1094 4606 
z
M 1094 3769 
L 1094 3250 
L 2497 3250 
L 2497 3769 
L 1094 3769 
z
M 5753 4984 
L 5753 91 
Q 5753 -403 5244 -403 
Q 4875 -403 4444 -366 
L 4366 97 
Q 4750 38 5063 38 
Q 5300 38 5300 281 
L 5300 2884 
L 3444 2884 
L 3444 4984 
L 5753 4984 
z
M 3859 4606 
L 3859 4109 
L 5300 4109 
L 5300 4606 
L 3859 4606 
z
M 3859 3769 
L 3859 3250 
L 5300 3250 
L 5300 3769 
L 3859 3769 
z
" transform="scale(0.015625)"/>
     </defs>
     <use xlink:href="#IPAexGothic-554f"/>
     <use xlink:href="#IPAexGothic-31" x="100"/>
    </g>
   </g>
   <g id="text_5">
    <!-- 品種ごとのデータ件数を確認する -->
    <g style="fill: #2c3e50" transform="translate(64.8 89.815937) scale(0.14 -0.14)">
     <defs>
      <path id="IPAexGothic-54c1" d="M 4781 4947 
L 4781 2872 
L 1613 2872 
L 1613 4947 
L 4781 4947 
z
M 2066 4556 
L 2066 3263 
L 4334 3263 
L 4334 4556 
L 2066 4556 
z
M 2841 2291 
L 2841 -325 
L 2400 -325 
L 2400 0 
L 1088 0 
L 1088 -384 
L 647 -384 
L 647 2291 
L 2841 2291 
z
M 1088 1900 
L 1088 397 
L 2400 397 
L 2400 1900 
L 1088 1900 
z
M 5747 2291 
L 5747 -384 
L 5306 -384 
L 5306 0 
L 3950 0 
L 3950 -384 
L 3509 -384 
L 3509 2291 
L 5747 2291 
z
M 3950 1900 
L 3950 397 
L 5306 397 
L 5306 1900 
L 3950 1900 
z
" transform="scale(0.015625)"/>
      <path id="IPAexGothic-7a2e" d="M 1269 2366 
Q 959 1388 456 659 
L 238 1100 
Q 878 2028 1203 3128 
L 328 3128 
L 328 3531 
L 1269 3531 
L 1269 4453 
Q 919 4388 525 4338 
L 347 4703 
Q 1372 4850 2144 5131 
L 2484 4766 
Q 2019 4622 1691 4544 
L 1691 3531 
L 2419 3531 
L 2419 3128 
L 1691 3128 
L 1691 2669 
Q 2081 2350 2478 1913 
L 2203 1509 
Q 1934 1897 1691 2169 
L 1691 -450 
L 1269 -450 
L 1269 2366 
z
M 3963 3297 
L 3963 3703 
L 2350 3703 
L 2350 4063 
L 3963 4063 
L 3963 4497 
L 3872 4491 
Q 3219 4431 2722 4409 
L 2541 4784 
Q 4100 4831 5350 5119 
L 5678 4741 
Q 5128 4634 4378 4544 
L 4378 4063 
L 6013 4063 
L 6013 3703 
L 4378 3703 
L 4378 3297 
L 5641 3297 
L 5641 1313 
L 4378 1313 
L 4378 872 
L 5750 872 
L 5750 525 
L 4378 525 
L 4378 78 
L 6069 78 
L 6069 -288 
L 2297 -288 
L 2297 78 
L 3963 78 
L 3963 525 
L 2613 525 
L 2613 872 
L 3963 872 
L 3963 1313 
L 2728 1313 
L 2728 3297 
L 3963 3297 
z
M 3975 2956 
L 3138 2956 
L 3138 2472 
L 3975 2472 
L 3975 2956 
z
M 4366 2956 
L 4366 2472 
L 5238 2472 
L 5238 2956 
L 4366 2956 
z
M 3975 2159 
L 3138 2159 
L 3138 1653 
L 3975 1653 
L 3975 2159 
z
M 4366 2159 
L 4366 1653 
L 5238 1653 
L 5238 2159 
L 4366 2159 
z
" transform="scale(0.015625)"/>
      <path id="IPAexGothic-3054" d="M 1525 4409 
Q 2284 4350 2881 4350 
Q 3778 4350 4481 4447 
L 4591 4019 
Q 3778 3791 2856 2981 
L 2497 3256 
Q 3028 3653 3488 3938 
Q 2969 3897 2497 3897 
Q 1975 3897 1544 3944 
L 1525 4409 
z
M 5122 178 
Q 4244 0 3181 0 
Q 2194 0 1594 331 
Q 1038 641 1038 1184 
Q 1038 1725 1538 2234 
L 1922 1991 
Q 1525 1631 1525 1247 
Q 1525 488 3169 488 
Q 4166 488 5069 709 
L 5122 178 
z
M 5959 4250 
Q 5597 4791 5203 5119 
L 5506 5350 
Q 5888 5041 6278 4525 
L 5959 4250 
z
M 5391 3763 
Q 5100 4253 4653 4653 
L 4966 4897 
Q 5338 4588 5722 4038 
L 5391 3763 
z
" transform="scale(0.015625)"/>
      <path id="IPAexGothic-3068" d="M 5222 56 
Q 4200 -72 3450 -72 
Q 2478 -72 1941 113 
Q 1184 372 1184 1038 
Q 1184 1584 1594 2009 
Q 1941 2369 2656 2725 
Q 2231 3734 1972 4878 
L 2491 4978 
Q 2706 3884 3078 2950 
Q 4250 3447 4756 3616 
L 4978 3150 
Q 3181 2575 2409 2078 
Q 1691 1613 1691 1113 
Q 1691 403 3322 403 
Q 4125 403 5134 563 
L 5222 56 
z
" transform="scale(0.015625)"/>
      <path id="IPAexGothic-4ef6" d="M 3903 3425 
L 2906 3425 
Q 2697 2825 2309 2247 
L 1991 2572 
Q 2588 3497 2803 4788 
L 3256 4713 
Q 3175 4313 3041 3834 
L 3903 3834 
L 3903 5250 
L 4356 5250 
L 4356 3834 
L 5731 3834 
L 5731 3425 
L 4356 3425 
L 4356 2009 
L 6041 2009 
L 6041 1594 
L 4356 1594 
L 4356 -447 
L 3903 -447 
L 3903 1594 
L 2078 1594 
L 2078 2009 
L 3903 2009 
L 3903 3425 
z
M 1638 3681 
L 1638 -447 
L 1169 -447 
L 1169 2753 
Q 881 2272 575 1863 
L 313 2253 
Q 1238 3463 1650 5184 
L 2125 5069 
Q 1909 4316 1638 3681 
z
" transform="scale(0.015625)"/>
      <path id="IPAexGothic-6570" d="M 2847 1553 
Q 2741 1006 2425 534 
Q 2625 441 3091 203 
L 2809 -188 
Q 2541 0 2144 209 
Q 1569 -291 703 -500 
L 422 -125 
Q 1263 19 1747 406 
Q 1222 650 734 816 
Q 975 1172 1147 1503 
L 1172 1553 
L 359 1553 
L 359 1925 
L 1344 1925 
Q 1406 2066 1569 2475 
L 1691 2450 
L 1691 3372 
Q 1250 2738 550 2303 
L 275 2663 
Q 1019 3013 1528 3641 
L 378 3641 
L 378 4006 
L 1691 4006 
L 1691 5313 
L 2113 5313 
L 2113 4006 
L 3297 4006 
L 3297 3641 
L 2113 3641 
L 2113 3513 
Q 2659 3291 3175 2963 
L 2956 2584 
Q 2553 2922 2113 3159 
L 2113 2372 
L 1966 2372 
Q 1928 2288 1872 2141 
Q 1806 1975 1784 1925 
L 3378 1925 
L 3378 1553 
L 2847 1553 
z
M 2419 1553 
L 1613 1553 
Q 1478 1269 1313 997 
Q 1559 909 2047 703 
Q 2313 1047 2419 1553 
z
M 4363 1163 
Q 3953 1781 3738 2638 
Q 3575 2281 3428 2016 
L 3103 2406 
Q 3675 3444 3916 5291 
L 4363 5200 
Q 4284 4666 4197 4197 
L 6009 4197 
L 6009 3775 
L 5503 3775 
Q 5397 2275 4869 1191 
Q 5419 503 6144 75 
L 5822 -378 
Q 5188 106 4631 788 
Q 4113 34 3341 -463 
L 3031 -78 
Q 3888 406 4363 1163 
z
M 4588 1594 
Q 4938 2388 5059 3775 
L 4100 3775 
Q 4041 3519 3972 3288 
Q 3981 3250 3991 3194 
Q 4175 2256 4588 1594 
z
M 1003 4116 
Q 878 4544 638 4934 
L 1053 5094 
Q 1247 4788 1438 4269 
L 1003 4116 
z
M 2316 4269 
Q 2550 4688 2688 5131 
L 3128 4997 
Q 2966 4588 2675 4128 
L 2316 4269 
z
" transform="scale(0.015625)"/>
      <path id="IPAexGothic-3092" d="M 1094 4263 
Q 1544 4222 2359 4222 
Q 2581 4734 2700 5163 
L 3175 5028 
Q 2997 4538 2859 4256 
Q 3516 4284 4294 4459 
L 4356 4019 
Q 3603 3869 2656 3819 
Q 2391 3284 2059 2797 
Q 2531 3200 2963 3200 
Q 3638 3200 3859 2378 
Q 4556 2681 5338 2950 
L 5575 2528 
Q 4641 2253 3941 1956 
Q 3981 1678 3994 1028 
L 3513 991 
Q 3513 1456 3494 1753 
Q 2388 1194 2388 716 
Q 2388 428 2753 328 
Q 3066 241 3806 241 
Q 4394 241 5178 344 
L 5216 -128 
Q 4434 -213 3653 -213 
Q 2656 -213 2244 41 
Q 1913 244 1913 631 
Q 1913 1094 2344 1497 
Q 2709 1841 3428 2181 
Q 3266 2797 2878 2797 
Q 2238 2797 1209 1419 
L 838 1694 
Q 1625 2716 2163 3800 
Q 1522 3800 1088 3825 
L 1094 4263 
z
" transform="scale(0.015625)"/>
      <path id="IPAexGothic-78ba" d="M 4347 3219 
Q 4516 3538 4647 3956 
L 5075 3853 
Q 4875 3431 4750 3219 
L 5888 3219 
L 5888 2847 
L 4700 2847 
L 4700 2222 
L 5741 2222 
L 5741 1869 
L 4700 1869 
L 4700 1250 
L 5741 1250 
L 5741 897 
L 4700 897 
L 4700 231 
L 6034 231 
L 6034 -141 
L 3463 -141 
L 3463 -447 
L 3047 -447 
L 3047 2444 
Q 2756 2019 2484 1703 
L 2284 2100 
Q 3159 3197 3506 4147 
L 2913 4147 
L 2913 3425 
L 2509 3425 
L 2509 4519 
L 3634 4519 
Q 3750 4903 3847 5319 
L 4269 5241 
Q 4175 4834 4072 4519 
L 5934 4519 
L 5934 3425 
L 5525 3425 
L 5525 4147 
L 3938 4147 
Q 3747 3647 3513 3219 
L 4347 3219 
z
M 4297 2847 
L 3463 2847 
L 3463 2222 
L 4297 2222 
L 4297 2847 
z
M 4297 1869 
L 3463 1869 
L 3463 1250 
L 4297 1250 
L 4297 1869 
z
M 4297 897 
L 3463 897 
L 3463 231 
L 4297 231 
L 4297 897 
z
M 1159 2944 
L 2275 2944 
L 2275 197 
L 1213 197 
L 1213 -328 
L 816 -328 
L 816 2206 
Q 650 1903 394 1522 
L 188 1919 
Q 931 3013 1200 4416 
L 406 4416 
L 406 4819 
L 2409 4819 
L 2409 4416 
L 1616 4416 
L 1597 4353 
Q 1456 3663 1159 2944 
z
M 1213 2553 
L 1213 588 
L 1878 588 
L 1878 2553 
L 1213 2553 
z
" transform="scale(0.015625)"/>
      <path id="IPAexGothic-8a8d" d="M 4341 4556 
Q 4309 4069 4219 3694 
Q 4622 3497 4956 3309 
L 4731 2963 
Q 4463 3125 4141 3291 
L 4091 3322 
Q 3756 2566 2959 2088 
L 2663 2419 
Q 3456 2844 3713 3500 
Q 3213 3722 2906 3828 
L 3113 4141 
Q 3381 4050 3828 3866 
Q 3916 4231 3925 4556 
L 2816 4556 
L 2816 4947 
L 5775 4947 
Q 5766 3272 5653 2713 
Q 5606 2459 5453 2369 
Q 5334 2284 5025 2284 
Q 4684 2284 4366 2334 
L 4303 2784 
Q 4644 2713 4928 2713 
Q 5181 2713 5228 2906 
Q 5309 3234 5338 4513 
Q 5338 4544 5338 4556 
L 4341 4556 
z
M 2406 1684 
L 2406 -128 
L 959 -128 
L 959 -447 
L 544 -447 
L 544 1684 
L 2406 1684 
z
M 959 1313 
L 959 244 
L 1984 244 
L 1984 1313 
L 959 1313 
z
M 634 5044 
L 2313 5044 
L 2313 4659 
L 634 4659 
L 634 5044 
z
M 353 4206 
L 2638 4206 
L 2638 3816 
L 353 3816 
L 353 4206 
z
M 634 3359 
L 2313 3359 
L 2313 2975 
L 634 2975 
L 634 3359 
z
M 634 2522 
L 2313 2522 
L 2313 2138 
L 634 2138 
L 634 2522 
z
M 2528 31 
Q 2816 625 2919 1447 
L 3322 1375 
Q 3200 381 2900 -225 
L 2528 31 
z
M 3572 1556 
L 4000 1556 
L 4000 294 
Q 4000 128 4084 100 
Q 4144 75 4300 75 
Q 4728 75 4775 275 
Q 4806 394 4825 738 
L 5253 616 
Q 5206 -44 5081 -188 
Q 4941 -347 4359 -347 
Q 3900 -347 3738 -269 
Q 3572 -191 3572 91 
L 3572 1556 
z
M 5775 -25 
Q 5428 800 5006 1375 
L 5366 1588 
Q 5819 994 6166 244 
L 5775 -25 
z
M 4566 1294 
Q 4106 1772 3656 2075 
L 3938 2350 
Q 4331 2113 4872 1613 
L 4566 1294 
z
" transform="scale(0.015625)"/>
      <path id="IPAexGothic-3059" d="M 3322 5075 
L 3816 5075 
L 3816 4063 
Q 4131 4075 5756 4116 
L 5756 3669 
Q 5431 3672 3816 3653 
L 3816 2463 
Q 3956 2125 3956 1741 
Q 3956 922 3519 397 
Q 3128 -72 2309 -409 
L 1941 -31 
Q 3263 453 3488 1363 
Q 3250 1031 2809 1031 
Q 2441 1031 2150 1313 
Q 1875 1588 1875 2050 
Q 1875 2475 2166 2769 
Q 2431 3041 2822 3041 
Q 3088 3041 3322 2881 
L 3322 3641 
Q 3000 3634 609 3547 
L 609 3988 
Q 1197 4000 2106 4022 
Q 3066 4047 3322 4050 
L 3322 5075 
z
M 3372 2044 
Q 3372 2300 3194 2478 
Q 3050 2613 2869 2613 
Q 2622 2613 2463 2406 
Q 2344 2250 2344 2088 
Q 2344 1797 2484 1622 
Q 2625 1453 2859 1453 
Q 3372 1453 3372 2044 
z
" transform="scale(0.015625)"/>
      <path id="IPAexGothic-308b" d="M 4391 4397 
L 2613 2588 
Q 3225 2809 3759 2809 
Q 4263 2809 4659 2625 
Q 5391 2269 5391 1484 
Q 5391 756 4706 275 
Q 4072 -166 3053 -166 
Q 2559 -166 2247 19 
Q 1863 250 1863 666 
Q 1863 934 2069 1141 
Q 2331 1403 2741 1403 
Q 3509 1403 4019 428 
Q 4872 784 4872 1491 
Q 4872 1981 4469 2222 
Q 4166 2406 3681 2406 
Q 2425 2406 1238 1209 
L 891 1581 
Q 2438 2934 3578 4281 
Q 2594 4125 1588 4066 
L 1478 4550 
Q 2594 4581 4109 4763 
L 4391 4397 
z
M 3591 303 
Q 3244 1025 2731 1025 
Q 2553 1025 2434 934 
Q 2316 844 2316 700 
Q 2316 250 3034 250 
Q 3275 250 3591 303 
z
" transform="scale(0.015625)"/>
     </defs>
     <use xlink:href="#IPAexGothic-54c1"/>
     <use xlink:href="#IPAexGothic-7a2e" x="100"/>
     <use xlink:href="#IPAexGothic-3054" x="200"/>
     <use xlink:href="#IPAexGothic-3068" x="300"/>
     <use xlink:href="#IPAexGothic-306e" x="400"/>
     <use xlink:href="#IPAexGothic-30c7" x="500"/>
     <use xlink:href="#IPAexGothic-30fc" x="600"/>
     <use xlink:href="#IPAexGothic-30bf" x="700"/>
     <use xlink:href="#IPAexGothic-4ef6" x="800"/>
     <use xlink:href="#IPAexGothic-6570" x="900"/>
     <use xlink:href="#IPAexGothic-3092" x="1000"/>
     <use xlink:href="#IPAexGothic-78ba" x="1100"/>
     <use xlink:href="#IPAexGothic-8a8d" x="1200"/>
     <use xlink:href="#IPAexGothic-3059" x="1300"/>
     <use xlink:href="#IPAexGothic-308b" x="1400"/>
    </g>
   </g>
   <g id="text_6">
    <!-- ヒント：value_counts() -->
    <g style="fill: #7f8c8d" transform="translate(66.24 101.329687) scale(0.1 -0.1)">
     <defs>
      <path id="IPAexGothic-30d2" d="M 1375 4806 
L 1900 4806 
L 1900 2809 
Q 3572 3188 4766 3922 
L 5150 3506 
Q 3663 2716 1900 2328 
L 1900 1094 
Q 1900 775 2091 700 
Q 2288 616 3181 616 
Q 4184 616 5413 750 
L 5413 238 
Q 4275 128 3281 128 
Q 1956 128 1663 325 
Q 1375 509 1375 997 
L 1375 4806 
z
" transform="scale(0.015625)"/>
      <path id="IPAexGothic-30c8" d="M 2284 4997 
L 2803 4997 
L 2803 3206 
Q 4088 2619 5216 1888 
L 4878 1369 
Q 3819 2175 2803 2688 
L 2803 -184 
L 2284 -184 
L 2284 4997 
z
" transform="scale(0.015625)"/>
      <path id="IPAexGothic-ff1a" d="M 2822 3366 
L 3578 3366 
L 3578 2609 
L 2822 2609 
L 2822 3366 
z
M 2822 1081 
L 3578 1081 
L 3578 325 
L 2822 325 
L 2822 1081 
z
" transform="scale(0.015625)"/>
      <path id="IPAexGothic-76" d="M 3103 3250 
L 1747 6 
L 1375 6 
L 25 3250 
L 628 3250 
L 1338 1388 
L 1522 844 
L 1569 703 
L 1588 703 
Q 1641 884 1822 1388 
L 2516 3250 
L 3103 3250 
z
" transform="scale(0.015625)"/>
      <path id="IPAexGothic-75" d="M 3284 63 
L 2772 63 
L 2772 644 
Q 2300 0 1625 0 
Q 1072 0 763 375 
Q 519 678 519 1241 
L 519 3250 
L 1069 3250 
L 1069 1259 
Q 1069 466 1734 466 
Q 2406 466 2734 1291 
L 2734 3250 
L 3284 3250 
L 3284 63 
z
" transform="scale(0.015625)"/>
      <path id="IPAexGothic-28" d="M 1928 -1016 
L 1653 -1166 
Q 488 69 488 1875 
Q 488 3678 1653 4909 
L 1928 4763 
Q 1006 3522 1006 1881 
Q 1006 203 1928 -1016 
z
" transform="scale(0.015625)"/>
      <path id="IPAexGothic-29" d="M 466 4909 
Q 1638 3672 1638 1875 
Q 1638 75 466 -1166 
L 191 -1016 
Q 1119 216 1119 1881 
Q 1119 3509 191 4763 
L 466 4909 
z
" transform="scale(0.015625)"/>
     </defs>
     <use xlink:href="#IPAexGothic-30d2"/>
     <use xlink:href="#IPAexGothic-30f3" x="100"/>
     <use xlink:href="#IPAexGothic-30c8" x="200"/>
     <use xlink:href="#IPAexGothic-ff1a" x="300"/>
     <use xlink:href="#IPAexGothic-76" x="400"/>
     <use xlink:href="#IPAexGothic-61" x="448.583984"/>
     <use xlink:href="#IPAexGothic-6c" x="503.564453"/>
     <use xlink:href="#IPAexGothic-75" x="530.566406"/>
     <use xlink:href="#IPAexGothic-65" x="590.966797"/>
     <use xlink:href="#IPAexGothic-5f" x="647.851562"/>
     <use xlink:href="#IPAexGothic-63" x="697.851562"/>
     <use xlink:href="#IPAexGothic-6f" x="752.246094"/>
     <use xlink:href="#IPAexGothic-75" x="812.646484"/>
     <use xlink:href="#IPAexGothic-6e" x="873.046875"/>
     <use xlink:href="#IPAexGothic-74" x="933.447266"/>
     <use xlink:href="#IPAexGothic-73" x="968.066406"/>
     <use xlink:href="#IPAexGothic-28" x="1014.257812"/>
     <use xlink:href="#IPAexGothic-29" x="1047.558594"/>
    </g>
   </g>
   <g id="text_7">
    <!-- 問2 -->
    <g style="fill: #ffffff" transform="translate(34.860937 134.394375) scale(0.12 -0.12)">
     <defs>
      <path id="IPAexGothic-32" d="M 3659 63 
L 447 63 
L 447 594 
Q 825 1475 1894 2203 
L 2072 2322 
Q 2619 2697 2791 2906 
Q 2988 3153 2988 3444 
Q 2988 3772 2756 4003 
Q 2500 4259 2084 4259 
Q 1250 4259 991 3328 
L 497 3506 
Q 853 4725 2116 4725 
Q 2806 4725 3216 4316 
Q 3575 3947 3575 3425 
Q 3575 3038 3344 2722 
Q 3131 2416 2366 1938 
L 2231 1856 
Q 1256 1253 978 569 
L 3659 569 
L 3659 63 
z
" transform="scale(0.015625)"/>
     </defs>
     <use xlink:href="#IPAexGothic-554f"/>
     <use xlink:href="#IPAexGothic-32" x="100"/>
    </g>
   </g>
   <g id="text_8">
    <!-- プロリン含有量が最も多い品種を特定する -->
    <g style="fill: #2c3e50" transform="translate(64.8 131.519062) scale(0.14 -0.14)">
     <defs>
      <path id="IPAexGothic-30d7" d="M 4825 4275 
L 5125 4000 
Q 4884 2378 4081 1381 
Q 3294 413 1888 -116 
L 1522 331 
Q 4069 1113 4550 3803 
L 966 3738 
L 966 4225 
L 4825 4275 
z
M 5597 5509 
Q 5906 5509 6119 5275 
Q 6303 5075 6303 4806 
Q 6303 4494 6069 4281 
Q 5866 4097 5597 4097 
Q 5284 4097 5072 4331 
Q 4888 4534 4888 4806 
Q 4888 5116 5122 5328 
Q 5328 5509 5597 5509 
z
M 5597 5228 
Q 5409 5228 5278 5088 
Q 5169 4966 5169 4806 
Q 5169 4616 5309 4488 
Q 5434 4378 5597 4378 
Q 5784 4378 5913 4519 
Q 6022 4641 6022 4806 
Q 6022 4991 5881 5119 
Q 5759 5228 5597 5228 
z
" transform="scale(0.015625)"/>
      <path id="IPAexGothic-30ed" d="M 1147 4269 
L 5250 4269 
L 5250 172 
L 4725 172 
L 4725 569 
L 1672 569 
L 1672 172 
L 1147 172 
L 1147 4269 
z
M 1672 3781 
L 1672 1063 
L 4725 1063 
L 4725 3781 
L 1672 3781 
z
" transform="scale(0.015625)"/>
      <path id="IPAexGothic-30ea" d="M 1678 4788 
L 2222 4788 
L 2222 1900 
L 1678 1900 
L 1678 4788 
z
M 4084 4909 
L 4628 4909 
L 4628 2753 
Q 4628 1563 4150 794 
Q 3725 119 2772 -353 
L 2394 78 
Q 3334 494 3706 1094 
Q 4084 1703 4084 2725 
L 4084 4909 
z
" transform="scale(0.015625)"/>
      <path id="IPAexGothic-542b" d="M 3641 1594 
Q 4128 2063 4434 2534 
L 1181 2534 
L 1181 2925 
L 4772 2925 
L 5069 2688 
Q 4634 2016 4244 1594 
L 5331 1594 
L 5331 -447 
L 4856 -447 
L 4856 -166 
L 1600 -166 
L 1600 -447 
L 1125 -447 
L 1125 1594 
L 3641 1594 
z
M 1600 1209 
L 1600 231 
L 4856 231 
L 4856 1209 
L 1600 1209 
z
M 4491 3725 
L 4491 3413 
L 1950 3413 
L 1950 3688 
Q 1372 3275 647 2944 
L 306 3322 
Q 1997 3950 2872 5275 
L 3416 5275 
Q 4403 4084 6138 3444 
L 5803 3047 
Q 5069 3356 4491 3725 
z
M 4363 3809 
Q 3628 4303 3153 4872 
Q 2731 4272 2119 3809 
L 4363 3809 
z
" transform="scale(0.015625)"/>
      <path id="IPAexGothic-6709" d="M 2353 3334 
L 5197 3334 
L 5197 103 
Q 5197 -178 5088 -288 
Q 4966 -409 4584 -409 
Q 4113 -409 3684 -366 
L 3634 109 
Q 4109 13 4513 13 
Q 4750 13 4750 250 
L 4750 941 
L 2238 941 
L 2238 -447 
L 1784 -447 
L 1784 2438 
Q 1241 1734 581 1247 
L 288 1613 
Q 1616 2578 2163 3988 
L 509 3988 
L 509 4391 
L 2309 4391 
Q 2453 4866 2538 5300 
L 2988 5256 
Q 2884 4778 2769 4391 
L 5953 4391 
L 5953 3988 
L 2634 3988 
Q 2516 3650 2353 3334 
z
M 2238 2950 
L 2238 2328 
L 4750 2328 
L 4750 2950 
L 2238 2950 
z
M 2238 1950 
L 2238 1313 
L 4750 1313 
L 4750 1950 
L 2238 1950 
z
" transform="scale(0.015625)"/>
      <path id="IPAexGothic-91cf" d="M 5081 5159 
L 5081 3497 
L 1275 3497 
L 1275 5159 
L 5081 5159 
z
M 1716 4819 
L 1716 4475 
L 4647 4475 
L 4647 4819 
L 1716 4819 
z
M 1716 4175 
L 1716 3816 
L 4647 3816 
L 4647 4175 
L 1716 4175 
z
M 5238 2625 
L 5238 997 
L 3388 997 
L 3388 694 
L 5428 694 
L 5428 353 
L 3388 353 
L 3388 34 
L 6044 34 
L 6044 -331 
L 353 -331 
L 353 34 
L 2972 34 
L 2972 353 
L 969 353 
L 969 694 
L 2972 694 
L 2972 997 
L 1159 997 
L 1159 2625 
L 5238 2625 
z
M 1588 2325 
L 1588 1972 
L 2972 1972 
L 2972 2325 
L 1588 2325 
z
M 1588 1672 
L 1588 1303 
L 2972 1303 
L 2972 1672 
L 1588 1672 
z
M 4809 1303 
L 4809 1672 
L 3388 1672 
L 3388 1303 
L 4809 1303 
z
M 4809 1972 
L 4809 2325 
L 3388 2325 
L 3388 1972 
L 4809 1972 
z
M 384 3231 
L 6009 3231 
L 6009 2884 
L 384 2884 
L 384 3231 
z
" transform="scale(0.015625)"/>
      <path id="IPAexGothic-304c" d="M 659 3384 
Q 1434 3503 2113 3581 
Q 2313 4341 2394 4972 
L 2900 4875 
Q 2759 4147 2619 3628 
L 2719 3634 
Q 2894 3641 3041 3641 
Q 4072 3641 4072 2369 
Q 4072 1128 3700 384 
Q 3478 -56 3003 -56 
Q 2591 -56 2113 231 
L 2138 775 
Q 2631 444 2925 444 
Q 3169 444 3297 706 
Q 3566 1294 3566 2388 
Q 3566 3219 3016 3219 
Q 2825 3219 2497 3194 
Q 2388 2763 2113 2047 
Q 1634 797 1119 -38 
L 678 244 
Q 1356 1238 1863 2750 
Q 1888 2819 1991 3128 
Q 1594 3081 769 2916 
L 659 3384 
z
M 5441 1838 
Q 4913 3038 4091 3916 
L 4475 4184 
Q 5350 3269 5888 2156 
L 5441 1838 
z
M 5913 4275 
Q 5553 4819 5159 5147 
L 5459 5375 
Q 5844 5066 6234 4550 
L 5913 4275 
z
M 5344 3788 
Q 5053 4278 4609 4678 
L 4922 4922 
Q 5294 4613 5678 4063 
L 5344 3788 
z
" transform="scale(0.015625)"/>
      <path id="IPAexGothic-6700" d="M 5106 5050 
L 5106 3275 
L 1284 3275 
L 1284 5050 
L 5106 5050 
z
M 1741 4697 
L 1741 4331 
L 4656 4331 
L 4656 4697 
L 1741 4697 
z
M 1741 4000 
L 1741 3622 
L 4656 3622 
L 4656 4000 
L 1741 4000 
z
M 2925 2528 
L 2925 -450 
L 2503 -450 
L 2503 228 
Q 1869 94 525 -78 
L 409 356 
Q 491 363 609 372 
Q 725 381 756 381 
L 994 403 
L 994 2528 
L 384 2528 
L 384 2900 
L 6016 2900 
L 6016 2528 
L 2925 2528 
z
M 2503 2528 
L 1400 2528 
L 1400 2088 
L 2503 2088 
L 2503 2528 
z
M 2503 1763 
L 1400 1763 
L 1400 1309 
L 2503 1309 
L 2503 1763 
z
M 2503 984 
L 1400 984 
L 1400 434 
L 1759 472 
Q 2159 500 2503 550 
L 2503 984 
z
M 4844 588 
Q 5350 225 6047 -9 
L 5753 -419 
Q 5066 -128 4556 288 
Q 4000 -241 3281 -534 
L 3006 -163 
Q 3734 84 4263 563 
Q 3722 1141 3463 1803 
L 3084 1803 
L 3084 2169 
L 5425 2169 
L 5656 1963 
Q 5328 1178 4881 638 
L 4844 588 
z
M 4538 850 
Q 4884 1275 5119 1803 
L 3872 1803 
Q 4113 1275 4538 850 
z
" transform="scale(0.015625)"/>
      <path id="IPAexGothic-3082" d="M 997 3950 
Q 1622 3844 2303 3816 
L 2491 5056 
L 2988 4984 
Q 2872 4363 2797 3816 
Q 3475 3822 4244 3938 
L 4244 3494 
Q 3659 3394 2731 3372 
Q 2700 3131 2603 2381 
Q 3263 2381 4031 2509 
L 4031 2059 
Q 3359 1947 2534 1947 
Q 2472 1447 2472 1216 
Q 2472 191 3609 191 
Q 4831 191 4831 1163 
Q 4831 1597 4500 2131 
L 5003 2181 
Q 5338 1638 5338 1153 
Q 5338 472 4819 75 
Q 4372 -256 3609 -256 
Q 2003 -256 2003 1153 
Q 2003 1556 2059 1959 
Q 1372 2022 1013 2094 
L 1056 2541 
Q 1581 2431 2125 2400 
L 2247 3378 
Q 1550 3406 941 3519 
L 997 3950 
z
" transform="scale(0.015625)"/>
      <path id="IPAexGothic-591a" d="M 3719 794 
Q 3313 1209 2834 1550 
Q 2309 1216 1638 984 
L 1350 1350 
Q 2997 1878 3969 3134 
L 4397 3022 
Q 4206 2759 4116 2656 
L 5563 2656 
L 5803 2425 
Q 4853 913 3700 281 
Q 2784 -209 1331 -447 
L 1025 0 
Q 2738 163 3719 794 
z
M 4097 1063 
L 4128 1088 
Q 4831 1650 5150 2259 
L 3744 2259 
Q 3447 1981 3181 1784 
Q 3625 1481 4097 1063 
z
M 2681 3072 
Q 2297 3456 1881 3763 
Q 1547 3528 1044 3269 
L 747 3622 
Q 2097 4191 2872 5313 
L 3309 5153 
Q 3116 4903 3028 4800 
L 4588 4800 
L 4813 4581 
Q 3981 3331 2791 2650 
Q 1925 2153 728 1856 
L 422 2259 
Q 1844 2541 2681 3072 
z
M 3059 3341 
Q 3747 3850 4141 4409 
L 2669 4409 
Q 2425 4178 2206 4000 
Q 2641 3709 3059 3341 
z
" transform="scale(0.015625)"/>
      <path id="IPAexGothic-3044" d="M 3369 1447 
Q 2906 122 2278 122 
Q 1966 122 1647 481 
Q 1209 966 1044 1966 
Q 891 2888 891 4313 
L 1422 4313 
Q 1413 2444 1666 1550 
Q 1913 678 2278 678 
Q 2619 678 2925 1791 
L 3369 1447 
z
M 5378 1294 
Q 4928 2797 4034 3809 
L 4488 4031 
Q 5375 3000 5881 1563 
L 5378 1294 
z
" transform="scale(0.015625)"/>
      <path id="IPAexGothic-7279" d="M 1025 3950 
L 1434 3950 
L 1434 5313 
L 1875 5313 
L 1875 3950 
L 2534 3950 
L 2534 3547 
L 1875 3547 
L 1875 2216 
Q 2084 2313 2494 2516 
L 2547 2106 
Q 2281 1963 1856 1750 
L 1856 -447 
L 1416 -447 
L 1416 1538 
Q 1028 1359 538 1153 
L 313 1581 
Q 778 1744 1434 2019 
L 1434 3547 
L 947 3547 
Q 828 3013 647 2556 
L 275 2803 
Q 584 3600 691 4744 
L 1131 4688 
Q 1091 4291 1025 3950 
z
M 3872 4372 
L 3872 5313 
L 4313 5313 
L 4313 4372 
L 5738 4372 
L 5738 3981 
L 4313 3981 
L 4313 3200 
L 6072 3200 
L 6072 2803 
L 5106 2803 
L 5106 2047 
L 5956 2047 
L 5956 1650 
L 5125 1650 
L 5125 38 
Q 5125 -447 4594 -447 
Q 4288 -447 3788 -391 
L 3691 78 
Q 4181 0 4491 0 
Q 4684 0 4684 172 
L 4684 1650 
L 2609 1650 
L 2609 2047 
L 4666 2047 
L 4666 2803 
L 2400 2803 
L 2400 3200 
L 3872 3200 
L 3872 3981 
L 2653 3981 
L 2653 4372 
L 3872 4372 
z
M 3550 384 
Q 3216 959 2834 1331 
L 3172 1575 
Q 3641 1116 3916 672 
L 3550 384 
z
" transform="scale(0.015625)"/>
      <path id="IPAexGothic-5b9a" d="M 3431 303 
Q 3931 225 4709 225 
Q 5191 225 6053 263 
Q 5963 59 5888 -228 
Q 5234 -250 4844 -250 
Q 3569 -250 3003 -78 
Q 2259 153 1750 903 
Q 1441 163 806 -459 
L 475 -75 
Q 1416 759 1684 2419 
L 2125 2303 
Q 2031 1756 1909 1356 
Q 2338 678 2972 416 
L 2972 2944 
L 1434 2944 
L 1434 3353 
L 4959 3353 
L 4959 2944 
L 3431 2944 
L 3431 1984 
L 5397 1984 
L 5397 1569 
L 3431 1569 
L 3431 303 
z
M 3419 4428 
L 5750 4428 
L 5750 3166 
L 5275 3166 
L 5275 4025 
L 1122 4025 
L 1122 3166 
L 647 3166 
L 647 4428 
L 2938 4428 
L 2938 5313 
L 3419 5313 
L 3419 4428 
z
" transform="scale(0.015625)"/>
     </defs>
     <use xlink:href="#IPAexGothic-30d7"/>
     <use xlink:href="#IPAexGothic-30ed" x="100"/>
     <use xlink:href="#IPAexGothic-30ea" x="200"/>
     <use xlink:href="#IPAexGothic-30f3" x="300"/>
     <use xlink:href="#IPAexGothic-542b" x="400"/>
     <use xlink:href="#IPAexGothic-6709" x="500"/>
     <use xlink:href="#IPAexGothic-91cf" x="600"/>
     <use xlink:href="#IPAexGothic-304c" x="700"/>
     <use xlink:href="#IPAexGothic-6700" x="800"/>
     <use xlink:href="#IPAexGothic-3082" x="900"/>
     <use xlink:href="#IPAexGothic-591a" x="1000"/>
     <use xlink:href="#IPAexGothic-3044" x="1100"/>
     <use xlink:href="#IPAexGothic-54c1" x="1200"/>
     <use xlink:href="#IPAexGothic-7a2e" x="1300"/>
     <use xlink:href="#IPAexGothic-3092" x="1400"/>
     <use xlink:href="#IPAexGothic-7279" x="1500"/>
     <use xlink:href="#IPAexGothic-5b9a" x="1600"/>
     <use xlink:href="#IPAexGothic-3059" x="1700"/>
     <use xlink:href="#IPAexGothic-308b" x="1800"/>
    </g>
   </g>
   <g id="text_9">
    <!-- ヒント：groupby → mean → sort_values -->
    <g style="fill: #7f8c8d" transform="translate(66.24 143.167812) scale(0.1 -0.1)">
     <defs>
      <path id="IPAexGothic-67" d="M 1331 1150 
Q 1006 1122 1006 900 
Q 1006 613 1763 575 
L 2131 556 
Q 3303 497 3303 -294 
Q 3303 -700 2925 -959 
Q 2519 -1253 1794 -1253 
Q 1138 -1253 738 -1028 
Q 353 -809 353 -428 
Q 353 84 1075 247 
L 1075 269 
Q 506 413 506 778 
Q 506 1116 994 1297 
Q 456 1575 456 2181 
Q 456 2650 769 2963 
Q 1128 3322 1738 3322 
Q 2125 3322 2422 3153 
Q 2650 3453 3259 3463 
L 3259 3013 
Q 2838 3003 2703 2938 
Q 3034 2613 3034 2169 
Q 3034 1728 2734 1425 
Q 2400 1094 1813 1094 
Q 1563 1094 1331 1150 
z
M 1734 2919 
Q 1409 2919 1197 2706 
Q 988 2497 988 2181 
Q 988 1872 1184 1684 
Q 1397 1472 1756 1472 
Q 2094 1472 2297 1678 
Q 2503 1881 2503 2203 
Q 2503 2497 2297 2700 
Q 2081 2919 1734 2919 
z
M 1753 159 
Q 903 159 903 -366 
Q 903 -875 1800 -875 
Q 2378 -875 2638 -606 
Q 2772 -481 2772 -313 
Q 2772 159 1753 159 
z
" transform="scale(0.015625)"/>
      <path id="IPAexGothic-72" d="M 2309 3316 
L 2213 2769 
Q 2106 2791 2022 2791 
Q 1653 2791 1413 2444 
Q 1113 2006 1113 1675 
L 1113 63 
L 563 63 
L 563 3250 
L 1081 3250 
L 1056 2303 
L 1069 2303 
Q 1422 3341 2097 3341 
Q 2206 3341 2309 3316 
z
" transform="scale(0.015625)"/>
      <path id="IPAexGothic-2192" d="M 3947 3572 
L 4631 3572 
L 6072 2431 
L 4631 1294 
L 3947 1294 
L 5094 2194 
L 459 2194 
L 459 2669 
L 5094 2669 
L 3947 3572 
z
" transform="scale(0.015625)"/>
      <path id="IPAexGothic-6d" d="M 5022 63 
L 4472 63 
L 4472 2059 
Q 4472 2869 3847 2869 
Q 3550 2869 3303 2594 
Q 3128 2397 3059 2103 
L 3059 63 
L 2509 63 
L 2509 2066 
Q 2509 2869 1919 2869 
Q 1606 2869 1369 2594 
Q 1113 2306 1113 2041 
L 1113 63 
L 563 63 
L 563 3250 
L 1075 3250 
L 1075 2700 
Q 1391 3316 2028 3316 
Q 2725 3316 2956 2647 
Q 3303 3316 3953 3316 
Q 4478 3316 4772 2944 
Q 5022 2638 5022 2072 
L 5022 63 
z
" transform="scale(0.015625)"/>
     </defs>
     <use xlink:href="#IPAexGothic-30d2"/>
     <use xlink:href="#IPAexGothic-30f3" x="100"/>
     <use xlink:href="#IPAexGothic-30c8" x="200"/>
     <use xlink:href="#IPAexGothic-ff1a" x="300"/>
     <use xlink:href="#IPAexGothic-67" x="400"/>
     <use xlink:href="#IPAexGothic-72" x="455.517578"/>
     <use xlink:href="#IPAexGothic-6f" x="492.529297"/>
     <use xlink:href="#IPAexGothic-75" x="552.929688"/>
     <use xlink:href="#IPAexGothic-70" x="613.330078"/>
     <use xlink:href="#IPAexGothic-62" x="675.439453"/>
     <use xlink:href="#IPAexGothic-79" x="737.841797"/>
     <use xlink:href="#IPAexGothic-20" x="787.060547"/>
     <use xlink:href="#IPAexGothic-2192" x="814.0625"/>
     <use xlink:href="#IPAexGothic-20" x="914.0625"/>
     <use xlink:href="#IPAexGothic-6d" x="941.064453"/>
     <use xlink:href="#IPAexGothic-65" x="1028.173828"/>
     <use xlink:href="#IPAexGothic-61" x="1085.058594"/>
     <use xlink:href="#IPAexGothic-6e" x="1140.039062"/>
     <use xlink:href="#IPAexGothic-20" x="1200.439453"/>
     <use xlink:href="#IPAexGothic-2192" x="1227.441406"/>
     <use xlink:href="#IPAexGothic-20" x="1327.441406"/>
     <use xlink:href="#IPAexGothic-73" x="1354.443359"/>
     <use xlink:href="#IPAexGothic-6f" x="1400.634766"/>
     <use xlink:href="#IPAexGothic-72" x="1461.035156"/>
     <use xlink:href="#IPAexGothic-74" x="1498.046875"/>
     <use xlink:href="#IPAexGothic-5f" x="1532.666016"/>
     <use xlink:href="#IPAexGothic-76" x="1582.666016"/>
     <use xlink:href="#IPAexGothic-61" x="1631.25"/>
     <use xlink:href="#IPAexGothic-6c" x="1686.230469"/>
     <use xlink:href="#IPAexGothic-75" x="1713.232422"/>
     <use xlink:href="#IPAexGothic-65" x="1773.632812"/>
     <use xlink:href="#IPAexGothic-73" x="1830.517578"/>
    </g>
   </g>
   <g id="text_10">
    <!-- 問3 -->
    <g style="fill: #ffffff" transform="translate(34.860937 176.154375) scale(0.12 -0.12)">
     <defs>
      <path id="IPAexGothic-33" d="M 2381 2419 
Q 3506 2216 3506 1278 
Q 3506 716 3128 356 
Q 2709 -31 1944 -31 
Q 797 -31 288 881 
L 756 1131 
Q 1109 441 1938 441 
Q 2425 441 2694 691 
Q 2950 928 2950 1291 
Q 2950 1719 2566 1978 
Q 2216 2213 1644 2213 
L 1363 2213 
L 1363 2669 
L 1656 2669 
Q 2231 2669 2534 2888 
Q 2859 3119 2859 3509 
Q 2859 3934 2494 4138 
Q 2259 4278 1931 4278 
Q 1238 4278 903 3578 
L 434 3803 
Q 897 4725 1938 4725 
Q 2597 4725 3006 4394 
Q 3416 4069 3416 3534 
Q 3416 3028 3019 2706 
Q 2763 2500 2381 2444 
L 2381 2419 
z
" transform="scale(0.015625)"/>
     </defs>
     <use xlink:href="#IPAexGothic-554f"/>
     <use xlink:href="#IPAexGothic-33" x="100"/>
    </g>
   </g>
   <g id="text_11">
    <!-- アルコール度数が高く色が濃いワインを絞り込む -->
    <g style="fill: #2c3e50" transform="translate(64.8 173.206875) scale(0.14 -0.14)">
     <defs>
      <path id="IPAexGothic-30a2" d="M 5388 4556 
L 5747 4200 
Q 5081 3022 4019 2191 
L 3647 2547 
Q 4519 3178 5081 4091 
L 850 4013 
L 850 4500 
L 5388 4556 
z
M 1216 256 
Q 2319 813 2616 1691 
Q 2797 2200 2797 3628 
L 3313 3628 
Q 3303 1981 3059 1356 
Q 2697 431 1594 -153 
L 1216 256 
z
" transform="scale(0.015625)"/>
      <path id="IPAexGothic-30eb" d="M 353 331 
Q 1313 994 1544 2022 
Q 1684 2650 1684 4397 
L 2203 4397 
L 2203 4153 
L 2203 4116 
Q 2203 2259 1934 1491 
Q 1619 588 744 -38 
L 353 331 
z
M 3125 4666 
L 3650 4666 
L 3650 769 
Q 4875 1488 5672 2734 
L 6000 2278 
Q 5075 966 3516 63 
L 3125 359 
L 3125 4666 
z
" transform="scale(0.015625)"/>
      <path id="IPAexGothic-30b3" d="M 1134 4213 
L 5166 4213 
L 5166 153 
L 4653 153 
L 4653 594 
L 1063 594 
L 1063 1088 
L 4653 1088 
L 4653 3725 
L 1134 3725 
L 1134 4213 
z
" transform="scale(0.015625)"/>
      <path id="IPAexGothic-5ea6" d="M 3516 4622 
L 5794 4622 
L 5794 4231 
L 1278 4231 
L 1278 3547 
L 2328 3547 
L 2328 4041 
L 2759 4041 
L 2759 3547 
L 4097 3547 
L 4097 4041 
L 4525 4041 
L 4525 3547 
L 5825 3547 
L 5825 3163 
L 4525 3163 
L 4525 2266 
L 2328 2266 
L 2328 3163 
L 1278 3163 
L 1278 2747 
Q 1278 1434 1131 775 
Q 1006 203 606 -441 
L 269 -50 
Q 653 541 763 1381 
Q 825 1869 825 2747 
L 825 4622 
L 3034 4622 
L 3034 5313 
L 3516 5313 
L 3516 4622 
z
M 2759 3163 
L 2759 2619 
L 4097 2619 
L 4097 3163 
L 2759 3163 
z
M 3609 263 
Q 2784 -231 1472 -494 
L 1222 -97 
Q 2444 63 3213 491 
Q 2544 909 2119 1522 
L 1575 1522 
L 1575 1900 
L 4897 1900 
L 5125 1700 
Q 4628 994 3994 516 
Q 4769 200 5925 56 
L 5638 -397 
Q 4434 -163 3609 263 
z
M 2606 1522 
Q 2984 1044 3578 716 
Q 4163 1119 4422 1522 
L 2606 1522 
z
" transform="scale(0.015625)"/>
      <path id="IPAexGothic-9ad8" d="M 4481 1588 
L 4481 366 
L 2319 366 
L 2319 0 
L 1891 0 
L 1891 1588 
L 4481 1588 
z
M 4053 1247 
L 2319 1247 
L 2319 706 
L 4053 706 
L 4053 1247 
z
M 3419 4641 
L 5916 4641 
L 5916 4263 
L 481 4263 
L 481 4641 
L 2938 4641 
L 2938 5313 
L 3419 5313 
L 3419 4641 
z
M 4884 3878 
L 4884 2694 
L 1513 2694 
L 1513 3878 
L 4884 3878 
z
M 1959 3531 
L 1959 3041 
L 4438 3041 
L 4438 3531 
L 1959 3531 
z
M 5684 2309 
L 5684 103 
Q 5684 -378 5091 -378 
Q 4697 -378 4316 -353 
L 4253 109 
Q 4706 44 5006 44 
Q 5231 44 5231 250 
L 5231 1944 
L 1166 1944 
L 1166 -447 
L 713 -447 
L 713 2309 
L 5684 2309 
z
" transform="scale(0.015625)"/>
      <path id="IPAexGothic-304f" d="M 4022 -300 
Q 3050 984 1863 2047 
Q 1538 2338 1538 2522 
Q 1538 2700 1953 3041 
Q 3144 4019 3816 5094 
L 4256 4769 
Q 3456 3659 2234 2694 
Q 2106 2588 2106 2528 
Q 2106 2466 2344 2247 
Q 3591 1113 4444 103 
L 4022 -300 
z
" transform="scale(0.015625)"/>
      <path id="IPAexGothic-8272" d="M 1672 1691 
L 1672 572 
Q 1672 309 1863 244 
Q 2056 178 3309 178 
Q 4959 178 5244 250 
Q 5444 306 5491 544 
Q 5534 788 5544 1147 
L 6016 988 
Q 5950 56 5703 -97 
Q 5447 -256 3413 -256 
Q 1725 -256 1466 -128 
Q 1231 -6 1231 372 
L 1231 3144 
Q 953 2866 622 2600 
L 328 2953 
Q 1509 3825 2131 5275 
L 2581 5172 
Q 2528 5056 2388 4756 
L 4150 4756 
L 4425 4544 
Q 3997 3894 3694 3541 
L 5422 3541 
L 5422 1391 
L 4981 1391 
L 4981 1691 
L 1672 1691 
z
M 1672 2088 
L 3075 2088 
L 3075 3150 
L 1672 3150 
L 1672 2088 
z
M 3503 3150 
L 3503 2088 
L 4981 2088 
L 4981 3150 
L 3503 3150 
z
M 3209 3541 
Q 3553 3938 3809 4372 
L 2178 4372 
Q 1925 3950 1588 3541 
L 3209 3541 
z
" transform="scale(0.015625)"/>
      <path id="IPAexGothic-6fc3" d="M 5034 422 
Q 5384 141 6047 -31 
L 5734 -422 
Q 4369 88 4044 1216 
L 3403 1216 
L 3403 109 
Q 3909 203 4381 325 
L 4403 -6 
Q 3675 -269 2566 -469 
L 2406 -59 
Q 2491 -47 2975 25 
L 2975 1216 
L 2375 1216 
Q 2325 584 2222 250 
Q 2109 -113 1825 -506 
L 1484 -166 
Q 1966 456 1966 1813 
L 1966 2841 
L 5828 2841 
L 5828 2500 
L 2394 2500 
L 2394 1984 
Q 2394 1594 2388 1556 
L 5981 1556 
L 5981 1216 
L 5356 1216 
L 5719 966 
Q 5438 684 5034 422 
z
M 4778 659 
Q 5144 966 5350 1216 
L 4447 1216 
Q 4566 913 4778 659 
z
M 3153 4825 
L 3153 5313 
L 3544 5313 
L 3544 4825 
L 4147 4825 
L 4147 5313 
L 4538 5313 
L 4538 4825 
L 5534 4825 
L 5534 3150 
L 2150 3150 
L 2150 4825 
L 3153 4825 
z
M 2553 4513 
L 2553 4147 
L 3175 4147 
L 3175 4513 
L 2553 4513 
z
M 2553 3859 
L 2553 3463 
L 3175 3463 
L 3175 3859 
L 2553 3859 
z
M 5125 3463 
L 5125 3859 
L 4519 3859 
L 4519 3463 
L 5125 3463 
z
M 5125 4147 
L 5125 4513 
L 4519 4513 
L 4519 4147 
L 5125 4147 
z
M 3544 4513 
L 3544 4147 
L 4147 4147 
L 4147 4513 
L 3544 4513 
z
M 3544 3859 
L 3544 3463 
L 4147 3463 
L 4147 3859 
L 3544 3859 
z
M 1413 3884 
Q 909 4469 506 4781 
L 806 5113 
Q 1306 4744 1734 4256 
L 1413 3884 
z
M 1203 2381 
Q 741 2931 294 3272 
L 588 3609 
Q 1078 3244 1516 2766 
L 1203 2381 
z
M 331 -103 
Q 847 803 1172 1931 
L 1547 1650 
Q 1184 413 722 -441 
L 331 -103 
z
M 2669 2194 
L 5472 2194 
L 5472 1869 
L 2669 1869 
L 2669 2194 
z
" transform="scale(0.015625)"/>
      <path id="IPAexGothic-30ef" d="M 1031 4391 
L 5025 4391 
L 5350 4097 
Q 5131 2372 4456 1375 
Q 3800 400 2509 -116 
L 2131 325 
Q 3478 775 4078 1753 
Q 4625 2647 4769 3903 
L 1575 3903 
L 1575 2363 
L 1031 2363 
L 1031 4391 
z
" transform="scale(0.015625)"/>
      <path id="IPAexGothic-30a4" d="M 3131 -231 
L 3131 2875 
Q 2091 2088 1106 1656 
L 781 2059 
Q 3016 3000 4469 4916 
L 4916 4641 
Q 4384 3938 3675 3316 
L 3675 -231 
L 3131 -231 
z
" transform="scale(0.015625)"/>
      <path id="IPAexGothic-7d5e" d="M 1253 3084 
Q 825 3691 391 4128 
L 672 4428 
Q 903 4184 928 4153 
Q 1297 4694 1547 5331 
L 1963 5119 
Q 1550 4353 1163 3859 
Q 1363 3600 1478 3425 
Q 1872 4034 2150 4550 
L 2534 4313 
Q 1881 3234 1319 2572 
Q 1841 2594 2206 2638 
Q 2106 2959 2009 3181 
L 2359 3309 
Q 2600 2753 2763 2100 
L 2394 1941 
Q 2384 1969 2344 2150 
Q 2322 2256 2303 2322 
Q 2122 2291 1797 2241 
L 1797 -447 
L 1375 -447 
L 1375 2188 
L 1338 2181 
Q 884 2134 434 2106 
L 288 2534 
Q 363 2538 531 2541 
Q 681 2544 759 2547 
L 875 2553 
Q 956 2666 1097 2863 
Q 1194 3003 1234 3059 
L 1253 3084 
z
M 4428 678 
Q 3800 -84 2913 -488 
L 2644 -122 
Q 3578 266 4153 991 
Q 3753 1528 3500 2328 
L 3853 2503 
Q 4044 1819 4403 1344 
Q 4719 1869 4881 2663 
L 5284 2503 
Q 5088 1656 4678 1025 
Q 5291 422 6125 50 
L 5844 -378 
Q 4981 78 4428 678 
z
M 4588 4256 
L 6034 4256 
L 6034 3853 
L 2791 3853 
L 2791 4256 
L 4147 4256 
L 4147 5294 
L 4588 5294 
L 4588 4256 
z
M 359 206 
Q 594 841 659 1759 
L 1069 1709 
Q 991 678 775 -13 
L 359 206 
z
M 2381 313 
Q 2234 1113 2009 1722 
L 2363 1838 
Q 2603 1294 2803 506 
L 2381 313 
z
M 2759 2316 
Q 3309 2847 3603 3675 
L 3994 3513 
Q 3634 2600 3066 2022 
L 2759 2316 
z
M 5697 2125 
Q 5250 2884 4641 3531 
L 4972 3731 
Q 5606 3119 6047 2419 
L 5697 2125 
z
" transform="scale(0.015625)"/>
      <path id="IPAexGothic-308a" d="M 2878 2925 
Q 2503 2294 2372 2041 
Q 2222 1750 2163 1459 
L 1716 1503 
Q 1509 2131 1509 3091 
Q 1509 3744 1663 4872 
L 2181 4806 
Q 2003 3541 2003 3016 
Q 2003 2613 2028 2259 
Q 2109 2413 2313 2766 
Q 2484 3063 2578 3238 
L 2878 2925 
z
M 2488 128 
Q 3534 503 3928 1184 
Q 4234 1713 4234 2975 
Q 4234 3872 4122 4928 
L 4666 4928 
Q 4759 3794 4759 2975 
Q 4759 1516 4356 844 
Q 3913 103 2853 -288 
L 2488 128 
z
" transform="scale(0.015625)"/>
      <path id="IPAexGothic-3080" d="M 1856 4984 
L 2347 4984 
L 2316 4084 
Q 2863 4131 3506 4256 
L 3556 3794 
Q 3119 3722 2297 3647 
L 2259 2509 
Q 2366 2272 2366 2022 
Q 2366 1672 2175 1375 
Q 2009 1100 2009 753 
Q 2009 459 2272 384 
Q 2503 313 3072 313 
Q 3747 313 4178 428 
Q 4594 534 4594 1056 
Q 4594 1506 4375 2034 
L 4888 2138 
Q 5100 1516 5100 991 
Q 5100 219 4491 25 
Q 4022 -128 3000 -128 
Q 2222 -128 1894 13 
Q 1534 169 1534 556 
Q 1534 753 1572 953 
Q 1456 909 1325 909 
Q 1072 909 894 1050 
Q 594 1294 594 1778 
Q 594 2319 959 2675 
Q 1231 2938 1547 2938 
Q 1650 2938 1803 2894 
L 1822 3616 
Q 1372 3597 1063 3597 
Q 928 3597 581 3609 
L 581 4063 
Q 894 4038 1278 4038 
Q 1394 4038 1828 4050 
L 1856 4984 
z
M 1572 2584 
Q 1409 2584 1266 2431 
Q 1041 2181 1041 1813 
Q 1041 1281 1425 1281 
Q 1644 1281 1794 1556 
Q 1878 1703 1878 2016 
Q 1878 2584 1572 2584 
z
M 5644 2516 
Q 5050 3319 4331 3884 
L 4716 4197 
Q 5391 3684 6041 2900 
L 5644 2516 
z
" transform="scale(0.015625)"/>
     </defs>
     <use xlink:href="#IPAexGothic-30a2"/>
     <use xlink:href="#IPAexGothic-30eb" x="100"/>
     <use xlink:href="#IPAexGothic-30b3" x="200"/>
     <use xlink:href="#IPAexGothic-30fc" x="300"/>
     <use xlink:href="#IPAexGothic-30eb" x="400"/>
     <use xlink:href="#IPAexGothic-5ea6" x="500"/>
     <use xlink:href="#IPAexGothic-6570" x="600"/>
     <use xlink:href="#IPAexGothic-304c" x="700"/>
     <use xlink:href="#IPAexGothic-9ad8" x="800"/>
     <use xlink:href="#IPAexGothic-304f" x="900"/>
     <use xlink:href="#IPAexGothic-8272" x="1000"/>
     <use xlink:href="#IPAexGothic-304c" x="1100"/>
     <use xlink:href="#IPAexGothic-6fc3" x="1200"/>
     <use xlink:href="#IPAexGothic-3044" x="1300"/>
     <use xlink:href="#IPAexGothic-30ef" x="1400"/>
     <use xlink:href="#IPAexGothic-30a4" x="1500"/>
     <use xlink:href="#IPAexGothic-30f3" x="1600"/>
     <use xlink:href="#IPAexGothic-3092" x="1700"/>
     <use xlink:href="#IPAexGothic-7d5e" x="1800"/>
     <use xlink:href="#IPAexGothic-308a" x="1900"/>
     <use xlink:href="#IPAexGothic-8fbc" x="2000"/>
     <use xlink:href="#IPAexGothic-3080" x="2100"/>
    </g>
   </g>
   <g id="text_12">
    <!-- ヒント：複数条件フィルタ -->
    <g style="fill: #7f8c8d" transform="translate(66.24 184.610625) scale(0.1 -0.1)">
     <defs>
      <path id="IPAexGothic-8907" d="M 4031 2103 
Q 3931 1894 3825 1741 
L 5381 1741 
L 5606 1566 
Q 5222 963 4709 516 
Q 5325 175 6150 -16 
L 5875 -419 
Q 5034 -169 4366 241 
Q 3609 -272 2547 -519 
L 2284 -141 
Q 3369 59 4019 484 
Q 3663 775 3359 1156 
Q 2984 784 2591 538 
L 2297 844 
Q 3131 1319 3575 2103 
L 2988 2103 
L 2988 3647 
Q 2819 3388 2647 3194 
L 2347 3500 
Q 2981 4281 3269 5313 
L 3691 5203 
Q 3606 4916 3519 4684 
L 5966 4684 
L 5966 4313 
L 3359 4313 
Q 3266 4119 3166 3944 
L 5588 3944 
L 5588 2103 
L 4031 2103 
z
M 3391 3597 
L 3391 3200 
L 5184 3200 
L 5184 3597 
L 3391 3597 
z
M 3391 2875 
L 3391 2456 
L 5184 2456 
L 5184 2875 
L 3391 2875 
z
M 4356 728 
Q 4709 1019 4959 1381 
L 3653 1381 
Q 3928 1041 4356 728 
z
M 1675 2466 
Q 1722 2434 1841 2350 
Q 2116 2666 2316 3009 
L 2653 2766 
Q 2416 2450 2116 2153 
Q 2388 1950 2681 1684 
L 2419 1325 
Q 2141 1622 1675 2025 
L 1675 -447 
L 1241 -447 
L 1241 2159 
Q 909 1772 506 1409 
L 275 1825 
Q 1366 2688 1853 3809 
L 416 3809 
L 416 4225 
L 1203 4225 
L 1203 5306 
L 1650 5306 
L 1650 4225 
L 2200 4225 
L 2425 4034 
Q 2103 3306 1675 2716 
L 1675 2466 
z
" transform="scale(0.015625)"/>
      <path id="IPAexGothic-6761" d="M 3406 1475 
L 3406 -447 
L 2953 -447 
L 2953 1422 
Q 2147 306 641 -331 
L 334 59 
Q 1738 569 2563 1538 
L 488 1538 
L 488 1941 
L 2953 1941 
L 2953 2691 
L 3406 2691 
L 3406 1941 
L 5928 1941 
L 5928 1538 
L 3847 1538 
Q 4597 769 6063 238 
L 5759 -203 
Q 4256 400 3406 1475 
z
M 3738 3419 
Q 4619 2991 5959 2772 
L 5684 2356 
Q 4216 2631 3353 3150 
Q 2350 2494 813 2175 
L 531 2566 
Q 2063 2825 2997 3391 
Q 2494 3763 2163 4219 
Q 1694 3747 1038 3359 
L 725 3688 
Q 1897 4319 2466 5306 
L 2900 5203 
Q 2784 5003 2713 4903 
L 4641 4903 
L 4872 4691 
Q 4384 3938 3738 3419 
z
M 3353 3634 
Q 3919 4075 4219 4531 
L 2438 4531 
L 2425 4513 
Q 2838 3956 3353 3634 
z
" transform="scale(0.015625)"/>
      <path id="IPAexGothic-30d5" d="M 4966 4294 
L 5263 4019 
Q 4819 894 1966 -97 
L 1600 353 
Q 4234 1156 4684 3822 
L 1044 3756 
L 1044 4244 
L 4966 4294 
z
" transform="scale(0.015625)"/>
      <path id="IPAexGothic-30a3" d="M 3034 -231 
L 3034 2188 
Q 2344 1656 1516 1294 
L 1191 1672 
Q 2981 2431 4128 3922 
L 4519 3634 
Q 4138 3122 3534 2597 
L 3534 -231 
L 3034 -231 
z
" transform="scale(0.015625)"/>
     </defs>
     <use xlink:href="#IPAexGothic-30d2"/>
     <use xlink:href="#IPAexGothic-30f3" x="100"/>
     <use xlink:href="#IPAexGothic-30c8" x="200"/>
     <use xlink:href="#IPAexGothic-ff1a" x="300"/>
     <use xlink:href="#IPAexGothic-8907" x="400"/>
     <use xlink:href="#IPAexGothic-6570" x="500"/>
     <use xlink:href="#IPAexGothic-6761" x="600"/>
     <use xlink:href="#IPAexGothic-4ef6" x="700"/>
     <use xlink:href="#IPAexGothic-30d5" x="800"/>
     <use xlink:href="#IPAexGothic-30a3" x="900"/>
     <use xlink:href="#IPAexGothic-30eb" x="1000"/>
     <use xlink:href="#IPAexGothic-30bf" x="1100"/>
    </g>
   </g>
   <g id="text_13">
    <!-- 問4 -->
    <g style="fill: #ffffff" transform="translate(34.860937 217.914375) scale(0.12 -0.12)">
     <use xlink:href="#IPAexGothic-554f"/>
     <use xlink:href="#IPAexGothic-34" x="100"/>
    </g>
   </g>
   <g id="text_14">
    <!-- （発展）欠損値補完を品種ごとの平均に変更する -->
    <g style="fill: #2c3e50" transform="translate(64.8 214.966875) scale(0.14 -0.14)">
     <defs>
      <path id="IPAexGothic-767a" d="M 4719 3638 
Q 5159 4016 5453 4391 
L 5831 4122 
Q 5406 3700 5038 3413 
Q 5500 3116 6106 2856 
L 5800 2456 
Q 5231 2738 4706 3113 
L 4706 2772 
L 4103 2772 
L 4103 1919 
L 5753 1919 
L 5753 1522 
L 4103 1522 
L 4103 359 
Q 4103 159 4206 131 
Q 4313 94 4678 94 
Q 5256 94 5350 191 
Q 5444 284 5472 766 
Q 5472 863 5478 900 
L 5928 741 
Q 5900 25 5741 -141 
Q 5572 -341 4647 -341 
Q 4084 -341 3900 -256 
Q 3650 -150 3650 213 
L 3650 1522 
L 2725 1522 
Q 2572 34 709 -475 
L 466 -63 
Q 2128 347 2272 1522 
L 641 1522 
L 641 1919 
L 2291 1919 
L 2291 2772 
L 1778 2772 
L 1778 3009 
Q 1263 2647 581 2316 
L 288 2700 
Q 1044 2991 1663 3444 
Q 1269 3850 863 4134 
L 1191 4425 
Q 1697 4006 1991 3713 
Q 2434 4100 2763 4616 
L 1284 4616 
L 1284 5006 
L 3456 5006 
Q 3725 4566 4025 4244 
Q 4422 4584 4738 4988 
L 5109 4719 
Q 4747 4328 4294 3981 
Q 4506 3781 4719 3638 
z
M 3650 2772 
L 2738 2772 
L 2738 1919 
L 3650 1919 
L 3650 2772 
z
M 1978 3156 
L 4641 3156 
Q 3756 3794 3238 4544 
Q 2766 3769 1978 3156 
z
" transform="scale(0.015625)"/>
      <path id="IPAexGothic-5c55" d="M 3731 1600 
Q 3925 1181 4294 850 
Q 4678 1134 5038 1550 
L 5441 1294 
Q 5047 928 4591 622 
Q 5147 234 5944 38 
L 5663 -391 
Q 3803 263 3303 1600 
L 2541 1600 
L 2541 172 
Q 3159 288 3791 428 
L 3822 50 
Q 2572 -278 1522 -447 
L 1356 -6 
Q 1763 44 2100 103 
L 2100 1600 
L 1350 1600 
Q 1272 422 750 -453 
L 384 -103 
Q 928 813 928 2184 
L 928 4978 
L 5509 4978 
L 5509 3572 
L 4378 3572 
L 4378 3016 
L 5688 3016 
L 5688 2638 
L 4378 2638 
L 4378 1984 
L 5938 1984 
L 5938 1600 
L 3731 1600 
z
M 5069 4594 
L 1363 4594 
L 1363 3944 
L 5069 3944 
L 5069 4594 
z
M 3963 3572 
L 2853 3572 
L 2853 3016 
L 3963 3016 
L 3963 3572 
z
M 2438 3572 
L 1363 3572 
L 1363 3016 
L 2438 3016 
L 2438 3572 
z
M 3963 2638 
L 2853 2638 
L 2853 1984 
L 3963 1984 
L 3963 2638 
z
M 2438 2638 
L 1363 2638 
L 1363 1984 
L 2438 1984 
L 2438 2638 
z
" transform="scale(0.015625)"/>
      <path id="IPAexGothic-6b20" d="M 3241 2347 
Q 2847 388 822 -372 
L 481 63 
Q 2931 784 2931 3403 
L 2931 3744 
L 1997 3744 
Q 1613 2813 1013 2125 
L 647 2491 
Q 1578 3516 1953 5241 
L 2441 5125 
Q 2322 4650 2159 4172 
L 5422 4172 
L 5769 3916 
Q 5253 2869 4725 2188 
L 4309 2481 
Q 4781 3025 5128 3744 
L 3419 3744 
L 3419 3384 
Q 3419 2472 4150 1522 
Q 4778 697 5972 209 
L 5600 -256 
Q 3700 741 3241 2347 
z
" transform="scale(0.015625)"/>
      <path id="IPAexGothic-640d" d="M 1178 4013 
L 1178 5300 
L 1606 5300 
L 1606 4013 
L 2316 4013 
L 2316 3597 
L 1606 3597 
L 1606 2381 
Q 1797 2438 2259 2597 
L 2291 2216 
Q 2022 2106 1606 1972 
L 1606 0 
Q 1606 -272 1484 -363 
Q 1384 -447 1094 -447 
Q 797 -447 519 -409 
L 441 50 
Q 719 -6 966 -6 
Q 1178 -6 1178 172 
L 1178 1831 
Q 753 1703 403 1619 
L 275 2047 
Q 741 2144 1153 2253 
L 1178 2259 
L 1178 3597 
L 372 3597 
L 372 4013 
L 1178 4013 
z
M 5428 5038 
L 5428 3731 
L 2816 3731 
L 2816 5038 
L 5428 5038 
z
M 3244 4678 
L 3244 4084 
L 4997 4084 
L 4997 4678 
L 3244 4678 
z
M 5753 3391 
L 5753 659 
L 2509 659 
L 2509 3391 
L 5753 3391 
z
M 2938 3038 
L 2938 2597 
L 5325 2597 
L 5325 3038 
L 2938 3038 
z
M 2938 2256 
L 2938 1813 
L 5325 1813 
L 5325 2256 
L 2938 2256 
z
M 2938 1472 
L 2938 1006 
L 5325 1006 
L 5325 1472 
L 2938 1472 
z
M 2034 -122 
Q 2828 141 3469 609 
L 3781 313 
Q 3153 -172 2347 -513 
L 2034 -122 
z
M 5803 -447 
Q 5113 16 4356 319 
L 4653 634 
Q 5450 325 6150 -78 
L 5803 -447 
z
" transform="scale(0.015625)"/>
      <path id="IPAexGothic-5024" d="M 4172 3675 
L 5453 3675 
L 5453 684 
L 3019 684 
L 3019 3675 
L 3750 3675 
Q 3788 3884 3825 4153 
L 2141 4153 
L 2141 4544 
L 3884 4544 
Q 3922 4844 3966 5325 
L 4434 5272 
L 4388 4953 
Q 4331 4578 4331 4544 
L 5863 4544 
L 5863 4153 
L 4269 4153 
Q 4200 3781 4172 3675 
z
M 5038 3316 
L 3434 3316 
L 3434 2803 
L 5038 2803 
L 5038 3316 
z
M 3434 2450 
L 3434 1941 
L 5038 1941 
L 5038 2450 
L 3434 2450 
z
M 3434 1588 
L 3434 1044 
L 5038 1044 
L 5038 1588 
L 3434 1588 
z
M 1509 3669 
L 1509 -447 
L 1069 -447 
L 1069 2725 
Q 856 2338 531 1875 
L 288 2266 
Q 1163 3531 1541 5325 
L 1975 5222 
Q 1791 4378 1509 3669 
z
M 2488 244 
L 6031 244 
L 6031 -153 
L 2488 -153 
L 2488 -447 
L 2059 -447 
L 2059 3213 
L 2488 3213 
L 2488 244 
z
" transform="scale(0.015625)"/>
      <path id="IPAexGothic-88dc" d="M 1600 2394 
L 1688 2338 
Q 1700 2325 1766 2288 
Q 1938 2509 2188 2925 
L 2506 2709 
Q 2297 2431 1997 2119 
Q 2328 1875 2522 1697 
L 2259 1359 
Q 1956 1672 1600 1997 
L 1600 -447 
L 1172 -447 
L 1172 2159 
Q 906 1816 494 1403 
L 256 1794 
Q 1275 2716 1747 3816 
L 403 3816 
L 403 4231 
L 1153 4231 
L 1153 5306 
L 1581 5306 
L 1581 4231 
L 2047 4231 
L 2297 4034 
Q 2003 3319 1600 2741 
L 1600 2394 
z
M 4384 4019 
L 4384 3419 
L 5778 3419 
L 5778 25 
Q 5778 -391 5303 -391 
Q 4997 -391 4806 -366 
L 4728 56 
Q 5006 19 5209 19 
Q 5363 19 5363 206 
L 5363 1031 
L 4378 1031 
L 4378 -288 
L 3969 -288 
L 3969 1031 
L 3034 1031 
L 3034 -447 
L 2613 -447 
L 2613 3419 
L 3963 3419 
L 3963 4019 
L 2350 4019 
L 2350 4403 
L 3963 4403 
L 3963 5313 
L 4384 5313 
L 4384 4403 
L 5338 4403 
Q 5331 4422 5303 4459 
Q 5113 4750 4813 5050 
L 5144 5247 
Q 5413 4997 5681 4641 
L 5350 4403 
L 6047 4403 
L 6047 4019 
L 4384 4019 
z
M 3969 3047 
L 3034 3047 
L 3034 2413 
L 3969 2413 
L 3969 3047 
z
M 4378 3047 
L 4378 2413 
L 5363 2413 
L 5363 3047 
L 4378 3047 
z
M 3969 2047 
L 3034 2047 
L 3034 1391 
L 3969 1391 
L 3969 2047 
z
M 4378 2047 
L 4378 1391 
L 5363 1391 
L 5363 2047 
L 4378 2047 
z
" transform="scale(0.015625)"/>
      <path id="IPAexGothic-5b8c" d="M 3419 4428 
L 5753 4428 
L 5753 3166 
L 5278 3166 
L 5278 4025 
L 1116 4025 
L 1116 3166 
L 641 3166 
L 641 4428 
L 2938 4428 
L 2938 5313 
L 3419 5313 
L 3419 4428 
z
M 4084 1850 
L 4084 353 
Q 4084 178 4219 138 
Q 4356 106 4713 106 
Q 5334 106 5422 300 
Q 5519 500 5519 1013 
L 5978 872 
Q 5931 9 5734 -169 
Q 5556 -347 4672 -347 
Q 3981 -347 3809 -250 
Q 3625 -144 3625 184 
L 3625 1850 
L 2697 1850 
Q 2688 819 2281 325 
Q 1834 -206 822 -506 
L 528 -84 
Q 1556 156 1916 622 
Q 2222 1003 2231 1850 
L 516 1850 
L 516 2266 
L 5881 2266 
L 5881 1850 
L 4084 1850 
z
M 1422 3341 
L 4975 3341 
L 4975 2938 
L 1422 2938 
L 1422 3341 
z
" transform="scale(0.015625)"/>
      <path id="IPAexGothic-5e73" d="M 3422 4428 
L 3422 1941 
L 6084 1941 
L 6084 1513 
L 3422 1513 
L 3422 -447 
L 2934 -447 
L 2934 1513 
L 322 1513 
L 322 1941 
L 2934 1941 
L 2934 4428 
L 641 4428 
L 641 4856 
L 5763 4856 
L 5763 4428 
L 3422 4428 
z
M 1728 2278 
Q 1488 3094 1081 3859 
L 1544 4038 
Q 1875 3422 2222 2472 
L 1728 2278 
z
M 4134 2425 
Q 4509 3138 4813 4128 
L 5306 3944 
Q 4984 3006 4569 2228 
L 4134 2425 
z
" transform="scale(0.015625)"/>
      <path id="IPAexGothic-5747" d="M 1206 3794 
L 1206 5144 
L 1659 5144 
L 1659 3794 
L 2369 3794 
L 2369 3372 
L 1659 3372 
L 1659 1325 
Q 2078 1513 2484 1722 
L 2566 1313 
Q 1556 775 559 397 
L 334 838 
Q 803 975 1206 1138 
L 1206 3372 
L 413 3372 
L 413 3794 
L 1206 3794 
z
M 3475 4244 
L 5844 4244 
Q 5834 1131 5619 184 
Q 5494 -366 4838 -366 
Q 4369 -366 3859 -306 
L 3769 184 
Q 4241 88 4731 88 
Q 5059 88 5147 306 
Q 5359 919 5369 3828 
L 3316 3828 
Q 3013 3119 2466 2472 
L 2150 2828 
Q 2944 3788 3259 5263 
L 3719 5147 
Q 3619 4663 3475 4244 
z
M 2975 2847 
L 4678 2847 
L 4678 2431 
L 2975 2431 
L 2975 2847 
z
M 2559 1044 
Q 3747 1338 4838 1797 
L 4891 1388 
Q 3831 891 2766 588 
L 2559 1044 
z
" transform="scale(0.015625)"/>
      <path id="IPAexGothic-306b" d="M 1088 -38 
Q 922 1003 922 2081 
Q 922 3222 1331 4794 
L 1813 4684 
Q 1391 3113 1391 2003 
Q 1391 1441 1422 1147 
Q 1434 1181 1813 2016 
L 2125 1797 
Q 1800 1081 1691 763 
Q 1581 453 1581 269 
Q 1581 78 1588 6 
L 1088 -38 
z
M 2834 4038 
Q 3969 4213 5313 4172 
L 5338 3681 
Q 3959 3728 2869 3547 
L 2834 4038 
z
M 5650 256 
Q 5044 172 4372 172 
Q 3463 172 3047 434 
Q 2784 594 2675 841 
Q 2572 1075 2572 1447 
Q 2572 1563 2578 1656 
L 3053 1684 
Q 3050 1613 3044 1528 
Q 3041 1481 3041 1466 
Q 3041 1200 3119 1053 
Q 3178 944 3309 850 
Q 3569 678 4275 678 
Q 4891 678 5588 763 
L 5650 256 
z
" transform="scale(0.015625)"/>
      <path id="IPAexGothic-5909" d="M 2147 1253 
Q 1641 822 944 563 
L 672 900 
Q 1938 1391 2556 2394 
L 2972 2231 
Q 2847 2034 2747 1900 
L 4750 1900 
L 4969 1700 
Q 4422 984 3859 563 
Q 4650 241 6094 69 
L 5825 -366 
Q 4275 -125 3431 288 
Q 2441 -272 603 -538 
L 341 -134 
Q 2103 75 2997 538 
Q 2591 791 2184 1209 
L 2147 1253 
z
M 2434 1528 
L 2422 1516 
Q 2803 1106 3425 778 
Q 3888 1078 4269 1528 
L 2434 1528 
z
M 4059 4147 
L 4059 2650 
Q 4059 2272 3663 2272 
Q 3416 2272 3047 2309 
L 2963 2725 
Q 3241 2681 3431 2681 
Q 3631 2681 3631 2872 
L 3631 4147 
L 2822 4147 
Q 2766 3291 2503 2816 
Q 2191 2259 1503 1869 
L 1172 2156 
Q 1878 2572 2144 3066 
Q 2359 3456 2388 4147 
L 403 4147 
L 403 4544 
L 2938 4544 
L 2938 5294 
L 3419 5294 
L 3419 4544 
L 6000 4544 
L 6000 4147 
L 4059 4147 
z
M 5494 2363 
Q 4828 3150 4328 3584 
L 4672 3859 
Q 5266 3369 5878 2656 
L 5494 2363 
z
M 341 2528 
Q 1025 3022 1441 3775 
L 1844 3597 
Q 1406 2781 706 2241 
L 341 2528 
z
" transform="scale(0.015625)"/>
      <path id="IPAexGothic-66f4" d="M 2956 3994 
L 2956 4588 
L 513 4588 
L 513 4984 
L 5881 4984 
L 5881 4588 
L 3413 4588 
L 3413 3994 
L 5300 3994 
L 5300 1288 
L 4838 1288 
L 4838 1759 
L 3406 1759 
Q 3384 1125 3150 709 
Q 4291 244 5997 31 
L 5694 -428 
Q 4109 -166 2906 384 
Q 2294 -266 744 -488 
L 494 -66 
Q 1903 59 2491 588 
Q 2041 813 1594 1166 
L 1928 1434 
Q 2331 1106 2747 897 
Q 2922 1219 2950 1759 
L 1556 1759 
L 1556 1413 
L 1097 1413 
L 1097 3994 
L 2956 3994 
z
M 2956 3609 
L 1556 3609 
L 1556 3078 
L 2956 3078 
L 2956 3609 
z
M 3413 3609 
L 3413 3078 
L 4838 3078 
L 4838 3609 
L 3413 3609 
z
M 2956 2700 
L 1556 2700 
L 1556 2144 
L 2956 2144 
L 2956 2700 
z
M 3413 2700 
L 3413 2144 
L 4838 2144 
L 4838 2700 
L 3413 2700 
z
" transform="scale(0.015625)"/>
     </defs>
     <use xlink:href="#IPAexGothic-ff08"/>
     <use xlink:href="#IPAexGothic-767a" x="100"/>
     <use xlink:href="#IPAexGothic-5c55" x="200"/>
     <use xlink:href="#IPAexGothic-ff09" x="300"/>
     <use xlink:href="#IPAexGothic-6b20" x="400"/>
     <use xlink:href="#IPAexGothic-640d" x="500"/>
     <use xlink:href="#IPAexGothic-5024" x="600"/>
     <use xlink:href="#IPAexGothic-88dc" x="700"/>
     <use xlink:href="#IPAexGothic-5b8c" x="800"/>
     <use xlink:href="#IPAexGothic-3092" x="900"/>
     <use xlink:href="#IPAexGothic-54c1" x="1000"/>
     <use xlink:href="#IPAexGothic-7a2e" x="1100"/>
     <use xlink:href="#IPAexGothic-3054" x="1200"/>
     <use xlink:href="#IPAexGothic-3068" x="1300"/>
     <use xlink:href="#IPAexGothic-306e" x="1400"/>
     <use xlink:href="#IPAexGothic-5e73" x="1500"/>
     <use xlink:href="#IPAexGothic-5747" x="1600"/>
     <use xlink:href="#IPAexGothic-306b" x="1700"/>
     <use xlink:href="#IPAexGothic-5909" x="1800"/>
     <use xlink:href="#IPAexGothic-66f4" x="1900"/>
     <use xlink:href="#IPAexGothic-3059" x="2000"/>
     <use xlink:href="#IPAexGothic-308b" x="2100"/>
    </g>
   </g>
   <g id="text_15">
    <!-- ヒント：groupby + transform -->
    <g style="fill: #7f8c8d" transform="translate(66.24 226.687812) scale(0.1 -0.1)">
     <defs>
      <path id="IPAexGothic-2b" d="M 2369 1856 
L 2369 219 
L 1984 219 
L 1984 1856 
L 416 1856 
L 416 2216 
L 1984 2216 
L 1984 3725 
L 2369 3725 
L 2369 2216 
L 3922 2216 
L 3922 1856 
L 2369 1856 
z
" transform="scale(0.015625)"/>
      <path id="IPAexGothic-66" d="M 2456 4622 
L 2228 4244 
Q 1991 4422 1741 4422 
Q 1184 4422 1184 3672 
L 1184 3250 
L 2053 3250 
L 2053 2859 
L 1184 2859 
L 1184 63 
L 641 63 
L 641 2859 
L 122 2859 
L 122 3250 
L 641 3250 
L 641 3659 
Q 641 4188 891 4484 
Q 1200 4844 1709 4844 
Q 2116 4844 2456 4622 
z
" transform="scale(0.015625)"/>
     </defs>
     <use xlink:href="#IPAexGothic-30d2"/>
     <use xlink:href="#IPAexGothic-30f3" x="100"/>
     <use xlink:href="#IPAexGothic-30c8" x="200"/>
     <use xlink:href="#IPAexGothic-ff1a" x="300"/>
     <use xlink:href="#IPAexGothic-67" x="400"/>
     <use xlink:href="#IPAexGothic-72" x="455.517578"/>
     <use xlink:href="#IPAexGothic-6f" x="492.529297"/>
     <use xlink:href="#IPAexGothic-75" x="552.929688"/>
     <use xlink:href="#IPAexGothic-70" x="613.330078"/>
     <use xlink:href="#IPAexGothic-62" x="675.439453"/>
     <use xlink:href="#IPAexGothic-79" x="737.841797"/>
     <use xlink:href="#IPAexGothic-20" x="787.060547"/>
     <use xlink:href="#IPAexGothic-2b" x="814.0625"/>
     <use xlink:href="#IPAexGothic-20" x="881.884766"/>
     <use xlink:href="#IPAexGothic-74" x="908.886719"/>
     <use xlink:href="#IPAexGothic-72" x="943.505859"/>
     <use xlink:href="#IPAexGothic-61" x="980.517578"/>
     <use xlink:href="#IPAexGothic-6e" x="1035.498047"/>
     <use xlink:href="#IPAexGothic-73" x="1095.898438"/>
     <use xlink:href="#IPAexGothic-66" x="1142.089844"/>
     <use xlink:href="#IPAexGothic-6f" x="1172.705078"/>
     <use xlink:href="#IPAexGothic-72" x="1233.105469"/>
     <use xlink:href="#IPAexGothic-6d" x="1270.117188"/>
    </g>
   </g>
   <g id="text_16">
    <!-- ✅ 問3まで完了すれば十分です。問4は発展問題です。 -->
    <g style="fill: #1e8449" transform="translate(41.04 335.840385) scale(0.125 -0.125)">
     <defs>
      <path id="IPAexGothic-2705" d="M 5759 -641 
L 641 -641 
L 641 5503 
L 5759 5503 
L 5759 -641 
z
M 5216 5172 
L 1191 5172 
L 3206 2694 
L 5216 5172 
z
M 5428 -53 
L 5428 4903 
L 3419 2425 
L 5428 -53 
z
M 2988 2425 
L 972 4916 
L 972 -59 
L 2988 2425 
z
M 5209 -309 
L 3206 2163 
L 1197 -309 
L 5209 -309 
z
" transform="scale(0.015625)"/>
      <path id="IPAexGothic-307e" d="M 3538 5075 
L 3547 4141 
Q 4509 4203 5288 4341 
L 5325 3897 
Q 4744 3809 3553 3719 
L 3566 2925 
Q 4578 3022 5031 3103 
L 5063 2663 
Q 4519 2572 3578 2503 
L 3628 1403 
Q 4531 1128 5459 513 
L 5153 84 
Q 4656 456 3641 909 
Q 3669 331 3391 84 
Q 3116 -153 2559 -153 
Q 1900 -153 1522 72 
Q 1138 297 1138 719 
Q 1138 1163 1634 1413 
Q 1994 1594 2413 1594 
Q 2797 1594 3156 1538 
L 3109 2472 
Q 2641 2450 2413 2450 
Q 1931 2450 1422 2484 
L 1422 2919 
Q 1941 2872 2516 2872 
Q 2706 2872 3097 2894 
L 3072 3688 
Q 2381 3675 2344 3675 
Q 1794 3675 1075 3706 
L 1075 4141 
Q 1744 4097 2431 4097 
Q 2456 4097 3059 4109 
L 3041 5075 
L 3538 5075 
z
M 3163 1088 
Q 2713 1184 2394 1184 
Q 2094 1184 1875 1091 
Q 1606 975 1606 750 
Q 1606 484 1925 363 
Q 2156 275 2503 275 
Q 3163 275 3163 794 
L 3163 1088 
z
" transform="scale(0.015625)"/>
      <path id="IPAexGothic-3067" d="M 581 4034 
Q 2978 4363 5466 4556 
L 5509 4097 
Q 4388 4031 3750 3572 
Q 2797 2878 2797 1913 
Q 2797 1169 3291 819 
Q 3778 484 4869 416 
L 4906 -116 
Q 2278 0 2278 1850 
Q 2278 3125 3691 4000 
Q 2066 3784 684 3553 
L 581 4034 
z
M 5631 2522 
Q 5269 3063 4875 3391 
L 5175 3622 
Q 5559 3313 5950 2797 
L 5631 2522 
z
M 5034 2053 
Q 4747 2544 4300 2944 
L 4613 3184 
Q 4984 2878 5369 2328 
L 5034 2053 
z
" transform="scale(0.015625)"/>
      <path id="IPAexGothic-4e86" d="M 3475 2997 
L 3475 206 
Q 3475 -94 3372 -197 
Q 3253 -325 2897 -325 
Q 2466 -325 1944 -263 
L 1850 269 
Q 2447 181 2756 181 
Q 2975 181 2975 409 
L 2975 3188 
Q 3916 3756 4544 4372 
L 1044 4372 
L 1044 4800 
L 5138 4800 
L 5428 4500 
Q 4453 3622 3475 2997 
z
" transform="scale(0.015625)"/>
      <path id="IPAexGothic-308c" d="M 538 3694 
Q 1275 3791 1800 3903 
L 1838 5006 
L 2316 5006 
L 2253 4006 
L 2619 3675 
Q 2428 3425 2247 3144 
Q 2241 3084 2241 2869 
Q 3341 4031 4134 4031 
Q 4856 4031 4856 3309 
Q 4856 3047 4794 2491 
Q 4719 1747 4719 1044 
Q 4719 672 4922 672 
Q 5084 672 5263 788 
Q 5613 1034 5850 1491 
L 6131 1025 
Q 5856 641 5600 447 
Q 5238 166 4866 166 
Q 4244 166 4244 1100 
Q 4244 1519 4350 2956 
Q 4369 3181 4369 3238 
Q 4369 3434 4297 3513 
Q 4231 3584 4081 3584 
Q 3438 3584 2228 2291 
Q 2222 1931 2222 1478 
Q 2222 753 2241 -159 
L 1747 -159 
Q 1747 1241 1753 1734 
Q 1544 1466 928 647 
L 531 991 
Q 1603 2291 1772 2478 
Q 1772 3038 1791 3469 
Q 1128 3284 653 3194 
L 538 3694 
z
" transform="scale(0.015625)"/>
      <path id="IPAexGothic-3070" d="M 5294 4134 
Q 5066 4672 4775 5025 
L 5122 5203 
Q 5403 4881 5659 4341 
L 5294 4134 
z
M 5928 4481 
Q 5678 4991 5391 5313 
L 5722 5503 
Q 5978 5231 6278 4697 
L 5928 4481 
z
M 4028 4831 
L 4500 4831 
L 4519 3725 
Q 4966 3772 5544 3897 
L 5581 3422 
Q 5219 3350 4525 3275 
L 4559 1394 
Q 5063 1238 5897 709 
L 5619 269 
Q 5031 728 4572 934 
Q 4572 397 4347 181 
Q 4091 -56 3597 -56 
Q 2953 -56 2631 188 
Q 2350 400 2350 788 
Q 2350 1181 2734 1441 
Q 3013 1625 3497 1625 
Q 3722 1625 4097 1547 
L 4059 3244 
Q 3659 3225 3322 3225 
Q 2881 3225 2447 3256 
L 2428 3716 
Q 2909 3672 3419 3672 
Q 3709 3672 4053 3691 
L 4028 4831 
z
M 4103 1106 
Q 3716 1216 3475 1216 
Q 2803 1216 2803 806 
Q 2803 378 3597 378 
Q 3850 378 3984 525 
Q 4103 656 4103 878 
Q 4103 1044 4103 1106 
z
M 963 -97 
Q 756 1025 756 1888 
Q 756 3109 1209 4838 
L 1691 4716 
Q 1231 2997 1231 1856 
Q 1231 1522 1269 1063 
Q 1553 1663 1716 1953 
L 2038 1759 
Q 1447 669 1447 97 
Q 1447 25 1453 -44 
L 963 -97 
z
" transform="scale(0.015625)"/>
      <path id="IPAexGothic-5341" d="M 2913 2981 
L 2913 5216 
L 3444 5216 
L 3444 2981 
L 5922 2981 
L 5922 2500 
L 3444 2500 
L 3444 -450 
L 2913 -450 
L 2913 2500 
L 481 2500 
L 481 2981 
L 2913 2981 
z
" transform="scale(0.015625)"/>
      <path id="IPAexGothic-3002" d="M 1166 1241 
Q 1366 1241 1563 1138 
Q 2009 900 2009 391 
Q 2009 188 1913 6 
Q 1675 -459 1159 -459 
Q 941 -459 753 -356 
Q 306 -119 306 397 
Q 306 744 569 1003 
Q 806 1241 1166 1241 
z
M 1159 916 
Q 953 916 797 781 
Q 631 625 631 391 
Q 631 278 681 166 
Q 819 -134 1159 -134 
Q 1309 -134 1434 -56 
Q 1684 88 1684 391 
Q 1684 722 1397 866 
Q 1281 916 1159 916 
z
" transform="scale(0.015625)"/>
      <path id="IPAexGothic-306f" d="M 4066 4875 
L 4538 4875 
L 4556 3769 
Q 5003 3816 5581 3941 
L 5619 3469 
Q 5256 3394 4563 3322 
L 4597 1441 
Q 5100 1284 5934 756 
L 5656 313 
Q 5066 772 4609 978 
Q 4609 441 4384 225 
Q 4128 -13 3634 -13 
Q 2991 -13 2669 231 
Q 2388 444 2388 831 
Q 2388 1225 2772 1484 
Q 3050 1669 3534 1669 
Q 3759 1669 4134 1594 
L 4097 3288 
Q 3697 3269 3359 3269 
Q 2925 3269 2484 3300 
L 2466 3763 
Q 2953 3716 3456 3716 
Q 3738 3716 4091 3738 
L 4066 4875 
z
M 4141 1153 
Q 3753 1259 3513 1259 
Q 2841 1259 2841 850 
Q 2841 422 3634 422 
Q 3888 422 4022 569 
Q 4141 700 4141 922 
Q 4141 1088 4141 1153 
z
M 1000 -50 
Q 794 1072 794 1931 
Q 794 3153 1247 4884 
L 1728 4763 
Q 1269 3044 1269 1900 
Q 1269 1569 1306 1106 
Q 1591 1706 1753 1997 
L 2075 1806 
Q 1484 716 1484 141 
Q 1484 72 1491 0 
L 1000 -50 
z
" transform="scale(0.015625)"/>
      <path id="IPAexGothic-984c" d="M 2056 300 
Q 2556 63 3925 63 
Q 4719 63 6159 141 
Q 6063 -128 6038 -325 
Q 4956 -366 4322 -366 
Q 2675 -366 2100 -169 
Q 1500 34 1038 697 
Q 850 -3 547 -494 
L 206 -153 
Q 734 700 841 1963 
L 1244 1881 
Q 1203 1506 1147 1150 
Q 1350 809 1647 563 
L 1647 2309 
L 322 2309 
L 322 2688 
L 3219 2688 
L 3219 2309 
L 2056 2309 
L 2056 1619 
L 3053 1619 
L 3053 1234 
L 2056 1234 
L 2056 300 
z
M 4575 4122 
L 5734 4122 
L 5734 1269 
L 3431 1269 
L 3431 4122 
L 4184 4122 
Q 4269 4400 4313 4716 
L 3122 4716 
L 3122 5088 
L 5984 5088 
L 5984 4716 
L 4756 4716 
Q 4659 4356 4575 4122 
z
M 5331 3769 
L 3834 3769 
L 3834 3284 
L 5331 3284 
L 5331 3769 
z
M 3834 2959 
L 3834 2472 
L 5331 2472 
L 5331 2959 
L 3834 2959 
z
M 3834 2147 
L 3834 1628 
L 5331 1628 
L 5331 2147 
L 3834 2147 
z
M 2894 5088 
L 2894 3103 
L 653 3103 
L 653 5088 
L 2894 5088 
z
M 1056 4728 
L 1056 4269 
L 2491 4269 
L 2491 4728 
L 1056 4728 
z
M 1056 3928 
L 1056 3450 
L 2491 3450 
L 2491 3928 
L 1056 3928 
z
M 2925 481 
Q 3553 809 3931 1222 
L 4275 997 
Q 3825 481 3241 159 
L 2925 481 
z
M 5734 225 
Q 5366 594 4781 978 
L 5050 1241 
Q 5641 891 6056 550 
L 5734 225 
z
" transform="scale(0.015625)"/>
     </defs>
     <use xlink:href="#IPAexGothic-2705"/>
     <use xlink:href="#IPAexGothic-20" x="100"/>
     <use xlink:href="#IPAexGothic-554f" x="127.001953"/>
     <use xlink:href="#IPAexGothic-33" x="227.001953"/>
     <use xlink:href="#IPAexGothic-307e" x="289.990234"/>
     <use xlink:href="#IPAexGothic-3067" x="389.990234"/>
     <use xlink:href="#IPAexGothic-5b8c" x="489.990234"/>
     <use xlink:href="#IPAexGothic-4e86" x="589.990234"/>
     <use xlink:href="#IPAexGothic-3059" x="689.990234"/>
     <use xlink:href="#IPAexGothic-308c" x="789.990234"/>
     <use xlink:href="#IPAexGothic-3070" x="889.990234"/>
     <use xlink:href="#IPAexGothic-5341" x="989.990234"/>
     <use xlink:href="#IPAexGothic-5206" x="1089.990234"/>
     <use xlink:href="#IPAexGothic-3067" x="1189.990234"/>
     <use xlink:href="#IPAexGothic-3059" x="1289.990234"/>
     <use xlink:href="#IPAexGothic-3002" x="1389.990234"/>
     <use xlink:href="#IPAexGothic-554f" x="1489.990234"/>
     <use xlink:href="#IPAexGothic-34" x="1589.990234"/>
     <use xlink:href="#IPAexGothic-306f" x="1652.978516"/>
     <use xlink:href="#IPAexGothic-767a" x="1752.978516"/>
     <use xlink:href="#IPAexGothic-5c55" x="1852.978516"/>
     <use xlink:href="#IPAexGothic-554f" x="1952.978516"/>
     <use xlink:href="#IPAexGothic-984c" x="2052.978516"/>
     <use xlink:href="#IPAexGothic-3067" x="2152.978516"/>
     <use xlink:href="#IPAexGothic-3059" x="2252.978516"/>
     <use xlink:href="#IPAexGothic-3002" x="2352.978516"/>
    </g>
   </g>
  </g>
 </g>
 <defs>
  <clipPath id="p64901d997b">
   <rect x="0" y="-0" width="691.2" height="388.8"/>
  </clipPath>
 </defs>
</svg>
