<?xml version="1.0" encoding="utf-8" standalone="no"?>
<!DOCTYPE svg PUBLIC "-//W3C//DTD SVG 1.1//EN"
  "http://www.w3.org/Graphics/SVG/1.1/DTD/svg11.dtd">
<svg xmlns:xlink="http://www.w3.org/1999/xlink" width="691.2pt" height="388.8pt" viewBox="0 0 691.2 388.8" xmlns="http://www.w3.org/2000/svg" version="1.1">
 <metadata>
  <rdf:RDF xmlns:dc="http://purl.org/dc/elements/1.1/" xmlns:cc="http://creativecommons.org/ns#" xmlns:rdf="http://www.w3.org/1999/02/22-rdf-syntax-ns#">
   <cc:Work>
    <dc:type rdf:resource="http://purl.org/dc/dcmitype/StillImage"/>
    <dc:date>2026-04-09T02:37:45.459488</dc:date>
    <dc:format>image/svg+xml</dc:format>
    <dc:creator>
     <cc:Agent>
      <dc:title>Matplotlib v3.9.4, https://matplotlib.org/</dc:title>
     </cc:Agent>
    </dc:creator>
   </cc:Work>
  </rdf:RDF>
 </metadata>
 <defs>
  <style type="text/css">*{stroke-linejoin: round; stroke-linecap: butt}</style>
 </defs>
 <g id="figure_1">
  <g id="patch_1">
   <path d="M 0 388.8 
L 691.2 388.8 
L 691.2 0 
L 0 0 
z
" style="fill: #ffffff"/>
  </g>
  <g id="axes_1">
   <g id="patch_2">
    <path d="M 0 -0 
L 691.2 -0 
L 691.2 24.48 
L 0 24.48 
z
" clip-path="url(#pafa5b156d1)" style="fill: #4a90d9"/>
   </g>
   <g id="patch_3">
    <path d="M 31.68 59.04 
L 659.52 59.04 
L 659.52 60.48 
L 31.68 60.48 
z
" clip-path="url(#pafa5b156d1)" style="fill: #ecf0f1"/>
   </g>
   <g id="patch_4">
    <path d="M 31.68 72 
L 139.68 72 
L 139.68 103.68 
L 31.68 103.68 
z
" clip-path="url(#pafa5b156d1)" style="fill: #4a90d9; stroke: #ffffff; stroke-linejoin: miter"/>
   </g>
   <g id="patch_5">
    <path d="M 139.68 72 
L 298.08 72 
L 298.08 103.68 
L 139.68 103.68 
z
" clip-path="url(#pafa5b156d1)" style="fill: #4a90d9; stroke: #ffffff; stroke-linejoin: miter"/>
   </g>
   <g id="patch_6">
    <path d="M 298.08 72 
L 521.28 72 
L 521.28 103.68 
L 298.08 103.68 
z
" clip-path="url(#pafa5b156d1)" style="fill: #4a90d9; stroke: #ffffff; stroke-linejoin: miter"/>
   </g>
   <g id="patch_7">
    <path d="M 521.28 72 
L 659.52 72 
L 659.52 103.68 
L 521.28 103.68 
z
" clip-path="url(#pafa5b156d1)" style="fill: #4a90d9; stroke: #ffffff; stroke-linejoin: miter"/>
   </g>
   <g id="patch_8">
    <path d="M 31.68 103.68 
L 139.68 103.68 
L 139.68 135.36 
L 31.68 135.36 
z
" clip-path="url(#pafa5b156d1)" style="fill: #ffffff; stroke: #ecf0f1; stroke-width: 0.5; stroke-linejoin: miter"/>
   </g>
   <g id="patch_9">
    <path d="M 139.68 103.68 
L 298.08 103.68 
L 298.08 135.36 
L 139.68 135.36 
z
" clip-path="url(#pafa5b156d1)" style="fill: #ffffff; stroke: #ecf0f1; stroke-width: 0.5; stroke-linejoin: miter"/>
   </g>
   <g id="patch_10">
    <path d="M 298.08 103.68 
L 521.28 103.68 
L 521.28 135.36 
L 298.08 135.36 
z
" clip-path="url(#pafa5b156d1)" style="fill: #ffffff; stroke: #ecf0f1; stroke-width: 0.5; stroke-linejoin: miter"/>
   </g>
   <g id="patch_11">
    <path d="M 521.28 103.68 
L 659.52 103.68 
L 659.52 135.36 
L 521.28 135.36 
z
" clip-path="url(#pafa5b156d1)" style="fill: #ffffff; stroke: #ecf0f1; stroke-width: 0.5; stroke-linejoin: miter"/>
   </g>
   <g id="patch_12">
    <path d="M 31.68 135.36 
L 139.68 135.36 
L 139.68 167.04 
L 31.68 167.04 
z
" clip-path="url(#pafa5b156d1)" style="fill: #f8f9fa; stroke: #ecf0f1; stroke-width: 0.5; stroke-linejoin: miter"/>
   </g>
   <g id="patch_13">
    <path d="M 139.68 135.36 
L 298.08 135.36 
L 298.08 167.04 
L 139.68 167.04 
z
" clip-path="url(#pafa5b156d1)" style="fill: #f8f9fa; stroke: #ecf0f1; stroke-width: 0.5; stroke-linejoin: miter"/>
   </g>
   <g id="patch_14">
    <path d="M 298.08 135.36 
L 521.28 135.36 
L 521.28 167.04 
L 298.08 167.04 
z
" clip-path="url(#pafa5b156d1)" style="fill: #f8f9fa; stroke: #ecf0f1; stroke-width: 0.5; stroke-linejoin: miter"/>
   </g>
   <g id="patch_15">
    <path d="M 521.28 135.36 
L 659.52 135.36 
L 659.52 167.04 
L 521.28 167.04 
z
" clip-path="url(#pafa5b156d1)" style="fill: #f8f9fa; stroke: #ecf0f1; stroke-width: 0.5; stroke-linejoin: miter"/>
   </g>
   <g id="patch_16">
    <path d="M 31.68 167.04 
L 139.68 167.04 
L 139.68 198.72 
L 31.68 198.72 
z
" clip-path="url(#pafa5b156d1)" style="fill: #ffffff; stroke: #ecf0f1; stroke-width: 0.5; stroke-linejoin: miter"/>
   </g>
   <g id="patch_17">
    <path d="M 139.68 167.04 
L 298.08 167.04 
L 298.08 198.72 
L 139.68 198.72 
z
" clip-path="url(#pafa5b156d1)" style="fill: #ffffff; stroke: #ecf0f1; stroke-width: 0.5; stroke-linejoin: miter"/>
   </g>
   <g id="patch_18">
    <path d="M 298.08 167.04 
L 521.28 167.04 
L 521.28 198.72 
L 298.08 198.72 
z
" clip-path="url(#pafa5b156d1)" style="fill: #ffffff; stroke: #ecf0f1; stroke-width: 0.5; stroke-linejoin: miter"/>
   </g>
   <g id="patch_19">
    <path d="M 521.28 167.04 
L 659.52 167.04 
L 659.52 198.72 
L 521.28 198.72 
z
" clip-path="url(#pafa5b156d1)" style="fill: #ffffff; stroke: #ecf0f1; stroke-width: 0.5; stroke-linejoin: miter"/>
   </g>
   <g id="patch_20">
    <path d="M 31.68 247.68 
L 659.52 247.68 
L 659.52 279.36 
L 31.68 279.36 
z
" clip-path="url(#pafa5b156d1)" style="fill: #fef9e7"/>
   </g>
   <g id="patch_21">
    <path d="M 31.68 247.68 
L 33.84 247.68 
L 33.84 279.36 
L 31.68 279.36 
z
" clip-path="url(#pafa5b156d1)" style="fill: #e8a838"/>
   </g>
   <g id="text_1">
    <!-- Ch.1 データ読み込み・集計 -->
    <g style="fill: #ffffff" transform="translate(31.68 15.061875) scale(0.1 -0.1)">
     <defs>
      <path id="IPAexGothic-43" d="M 4353 1088 
Q 4181 694 3859 428 
Q 3313 -31 2559 -31 
Q 1588 -31 959 653 
Q 378 1294 378 2331 
Q 378 3406 1013 4078 
Q 1619 4725 2534 4725 
Q 3813 4725 4322 3628 
L 3809 3391 
Q 3425 4238 2541 4238 
Q 1891 4238 1453 3744 
Q 994 3216 994 2322 
Q 994 1550 1384 1056 
Q 1841 472 2563 472 
Q 3456 472 3878 1319 
L 4353 1088 
z
" transform="scale(0.015625)"/>
      <path id="IPAexGothic-68" d="M 3347 63 
L 2797 63 
L 2797 2041 
Q 2797 2853 2131 2853 
Q 1447 2853 1131 2041 
L 1131 63 
L 581 63 
L 581 4794 
L 1131 4794 
L 1131 2706 
Q 1566 3316 2247 3316 
Q 3347 3316 3347 2072 
L 3347 63 
z
" transform="scale(0.015625)"/>
      <path id="IPAexGothic-2e" d="M 1184 63 
L 494 63 
L 494 753 
L 1184 753 
L 1184 63 
z
" transform="scale(0.015625)"/>
      <path id="IPAexGothic-31" d="M 2463 63 
L 1900 63 
L 1900 4103 
Q 1372 3922 788 3797 
L 684 4231 
Q 1519 4441 2106 4731 
L 2463 4731 
L 2463 63 
z
" transform="scale(0.015625)"/>
      <path id="IPAexGothic-20" transform="scale(0.015625)"/>
      <path id="IPAexGothic-30c7" d="M 563 3072 
L 5741 3072 
L 5741 2613 
L 3578 2613 
Q 3538 1516 3134 872 
Q 2688 156 1663 -256 
L 1313 156 
Q 2338 538 2713 1166 
Q 3003 1644 3034 2613 
L 563 2613 
L 563 3072 
z
M 1406 4588 
L 4588 4588 
L 4588 4128 
L 1406 4128 
L 1406 4588 
z
M 6009 4469 
Q 5647 5009 5253 5338 
L 5553 5569 
Q 5938 5259 6328 4744 
L 6009 4469 
z
M 5413 4000 
Q 5125 4491 4678 4891 
L 4991 5131 
Q 5363 4825 5747 4275 
L 5413 4000 
z
" transform="scale(0.015625)"/>
      <path id="IPAexGothic-30fc" d="M 588 2688 
L 5809 2688 
L 5809 2175 
L 588 2175 
L 588 2688 
z
" transform="scale(0.015625)"/>
      <path id="IPAexGothic-30bf" d="M 4978 4263 
L 5313 3988 
Q 4797 2431 4056 1459 
Q 3191 325 1822 -300 
L 1466 109 
Q 2131 381 2613 738 
Q 3053 1066 3531 1600 
Q 2919 2225 2144 2791 
Q 1603 2203 1172 1875 
L 825 2234 
Q 2316 3328 2866 5031 
L 3359 4897 
Q 3325 4775 3109 4263 
L 4978 4263 
z
M 2894 3816 
Q 2709 3522 2438 3169 
Q 3194 2616 3841 2003 
Q 4366 2806 4747 3816 
L 2894 3816 
z
" transform="scale(0.015625)"/>
      <path id="IPAexGothic-8aad" d="M 2284 1684 
L 2284 -128 
L 919 -128 
L 919 -447 
L 509 -447 
L 509 1684 
L 2284 1684 
z
M 919 1313 
L 919 244 
L 1875 244 
L 1875 1313 
L 919 1313 
z
M 3953 4538 
L 3953 5313 
L 4394 5313 
L 4394 4538 
L 5994 4538 
L 5994 4153 
L 4394 4153 
L 4394 3572 
L 5822 3572 
L 5822 3194 
L 2653 3194 
L 2653 3572 
L 3953 3572 
L 3953 4153 
L 2506 4153 
L 2506 4538 
L 3953 4538 
z
M 5950 2725 
L 5950 1559 
L 5522 1559 
L 5522 2341 
L 2928 2341 
L 2928 1516 
L 2500 1516 
L 2500 2725 
L 5950 2725 
z
M 600 5044 
L 2194 5044 
L 2194 4659 
L 600 4659 
L 600 5044 
z
M 331 4206 
L 2384 4206 
L 2384 3816 
L 331 3816 
L 331 4206 
z
M 600 3359 
L 2194 3359 
L 2194 2975 
L 600 2975 
L 600 3359 
z
M 600 2522 
L 2194 2522 
L 2194 2138 
L 600 2138 
L 600 2522 
z
M 2353 -91 
Q 3025 194 3244 647 
Q 3431 1044 3441 2069 
L 3872 2069 
Q 3859 869 3634 441 
Q 3334 -109 2616 -475 
L 2353 -91 
z
M 4428 2069 
L 4856 2069 
L 4856 275 
Q 4856 128 4934 88 
Q 4994 63 5175 63 
Q 5500 63 5547 263 
Q 5584 425 5606 984 
L 6034 856 
Q 5994 153 5931 -38 
Q 5825 -372 5144 -372 
Q 4688 -372 4544 -275 
Q 4428 -191 4428 44 
L 4428 2069 
z
" transform="scale(0.015625)"/>
      <path id="IPAexGothic-307f" d="M 1291 4416 
Q 2209 4456 3341 4647 
L 3666 4409 
Q 3478 3597 3134 2703 
Q 3959 2575 4581 2300 
Q 4669 2759 4678 3488 
L 5163 3381 
Q 5134 2672 5016 2106 
Q 5519 1856 6016 1519 
L 5722 1081 
Q 5184 1459 4888 1613 
Q 4572 441 3456 -238 
L 3072 109 
Q 4150 678 4472 1831 
Q 3706 2200 2969 2284 
Q 2038 200 1319 200 
Q 1013 200 775 525 
Q 569 819 569 1197 
Q 569 1756 1081 2172 
Q 1681 2647 2663 2716 
Q 2900 3313 3084 4159 
Q 2278 4022 1447 3956 
L 1291 4416 
z
M 2481 2291 
Q 1644 2206 1241 1734 
Q 1038 1494 1038 1178 
Q 1038 1019 1100 897 
Q 1188 706 1338 706 
Q 1513 706 1797 1097 
Q 2131 1534 2481 2291 
z
" transform="scale(0.015625)"/>
      <path id="IPAexGothic-8fbc" d="M 4294 4897 
L 4294 4456 
Q 4294 3291 4763 2394 
Q 5206 1531 5938 1019 
L 5613 572 
Q 4391 1628 4044 3156 
Q 3706 1475 2503 544 
L 2169 934 
Q 3650 1928 3834 4403 
L 3841 4481 
L 2566 4481 
L 2566 4897 
L 4294 4897 
z
M 1831 775 
Q 2106 428 2516 284 
Q 2906 150 4197 150 
Q 5228 150 6119 216 
Q 6003 13 5944 -269 
Q 5022 -303 4453 -303 
Q 2925 -303 2425 -131 
Q 1900 44 1600 478 
Q 1144 -56 666 -450 
L 372 38 
Q 825 309 1378 759 
L 1378 2303 
L 397 2303 
L 397 2731 
L 1831 2731 
L 1831 775 
z
M 1625 3616 
Q 1191 4200 634 4703 
L 972 4997 
Q 1456 4616 1984 3969 
L 1625 3616 
z
" transform="scale(0.015625)"/>
      <path id="IPAexGothic-30fb" d="M 2772 2859 
L 3628 2859 
L 3628 2003 
L 2772 2003 
L 2772 2859 
z
" transform="scale(0.015625)"/>
      <path id="IPAexGothic-96c6" d="M 3000 4634 
Q 3197 5047 3275 5338 
L 3775 5216 
Q 3634 4922 3447 4634 
L 5625 4634 
L 5625 4269 
L 3416 4269 
L 3416 3884 
L 5291 3884 
L 5291 3553 
L 3416 3553 
L 3416 3175 
L 5291 3175 
L 5291 2844 
L 3416 2844 
L 3416 2431 
L 5759 2431 
L 5759 2066 
L 3403 2066 
L 3403 1659 
L 5981 1659 
L 5981 1281 
L 3741 1281 
Q 4628 538 6078 141 
L 5759 -275 
Q 4266 222 3403 1122 
L 3403 -447 
L 2950 -447 
L 2950 1091 
Q 2094 69 600 -409 
L 294 -25 
Q 1778 388 2644 1281 
L 416 1281 
L 416 1659 
L 2950 1659 
L 2950 2066 
L 1222 2066 
L 1222 3744 
Q 894 3322 600 3066 
L 306 3375 
Q 1209 4163 1625 5338 
L 2091 5244 
Q 1950 4909 1797 4634 
L 3000 4634 
z
M 1663 4269 
L 1663 3884 
L 3000 3884 
L 3000 4269 
L 1663 4269 
z
M 1663 3553 
L 1663 3175 
L 3000 3175 
L 3000 3553 
L 1663 3553 
z
M 1663 2844 
L 1663 2431 
L 3000 2431 
L 3000 2844 
L 1663 2844 
z
" transform="scale(0.015625)"/>
      <path id="IPAexGothic-8a08" d="M 2853 1684 
L 2853 -416 
L 2413 -416 
L 2413 -128 
L 1088 -128 
L 1088 -447 
L 647 -447 
L 647 1684 
L 2853 1684 
z
M 1088 1300 
L 1088 256 
L 2413 256 
L 2413 1300 
L 1088 1300 
z
M 4322 3225 
L 4322 5178 
L 4781 5178 
L 4781 3225 
L 6063 3225 
L 6063 2797 
L 4781 2797 
L 4781 -447 
L 4322 -447 
L 4322 2797 
L 3063 2797 
L 3063 3225 
L 4322 3225 
z
M 781 5044 
L 2722 5044 
L 2722 4647 
L 781 4647 
L 781 5044 
z
M 384 4206 
L 3150 4206 
L 3150 3803 
L 384 3803 
L 384 4206 
z
M 781 3359 
L 2722 3359 
L 2722 2963 
L 781 2963 
L 781 3359 
z
M 781 2522 
L 2722 2522 
L 2722 2125 
L 781 2125 
L 781 2522 
z
" transform="scale(0.015625)"/>
     </defs>
     <use xlink:href="#IPAexGothic-43"/>
     <use xlink:href="#IPAexGothic-68" x="72.509766"/>
     <use xlink:href="#IPAexGothic-2e" x="133.203125"/>
     <use xlink:href="#IPAexGothic-31" x="159.619141"/>
     <use xlink:href="#IPAexGothic-20" x="222.607422"/>
     <use xlink:href="#IPAexGothic-30c7" x="249.609375"/>
     <use xlink:href="#IPAexGothic-30fc" x="349.609375"/>
     <use xlink:href="#IPAexGothic-30bf" x="449.609375"/>
     <use xlink:href="#IPAexGothic-8aad" x="549.609375"/>
     <use xlink:href="#IPAexGothic-307f" x="649.609375"/>
     <use xlink:href="#IPAexGothic-8fbc" x="749.609375"/>
     <use xlink:href="#IPAexGothic-307f" x="849.609375"/>
     <use xlink:href="#IPAexGothic-30fb" x="949.609375"/>
     <use xlink:href="#IPAexGothic-96c6" x="1049.609375"/>
     <use xlink:href="#IPAexGothic-8a08" x="1149.609375"/>
    </g>
   </g>
   <g id="text_2">
    <!-- 欠損値の処理方針 -->
    <g style="fill: #1a1a2e" transform="translate(31.68 55.4175) scale(0.24 -0.24)">
     <defs>
      <path id="IPAexGothic-6b20" d="M 3241 2347 
Q 2847 388 822 -372 
L 481 63 
Q 2931 784 2931 3403 
L 2931 3744 
L 1997 3744 
Q 1613 2813 1013 2125 
L 647 2491 
Q 1578 3516 1953 5241 
L 2441 5125 
Q 2322 4650 2159 4172 
L 5422 4172 
L 5769 3916 
Q 5253 2869 4725 2188 
L 4309 2481 
Q 4781 3025 5128 3744 
L 3419 3744 
L 3419 3384 
Q 3419 2472 4150 1522 
Q 4778 697 5972 209 
L 5600 -256 
Q 3700 741 3241 2347 
z
" transform="scale(0.015625)"/>
      <path id="IPAexGothic-640d" d="M 1178 4013 
L 1178 5300 
L 1606 5300 
L 1606 4013 
L 2316 4013 
L 2316 3597 
L 1606 3597 
L 1606 2381 
Q 1797 2438 2259 2597 
L 2291 2216 
Q 2022 2106 1606 1972 
L 1606 0 
Q 1606 -272 1484 -363 
Q 1384 -447 1094 -447 
Q 797 -447 519 -409 
L 441 50 
Q 719 -6 966 -6 
Q 1178 -6 1178 172 
L 1178 1831 
Q 753 1703 403 1619 
L 275 2047 
Q 741 2144 1153 2253 
L 1178 2259 
L 1178 3597 
L 372 3597 
L 372 4013 
L 1178 4013 
z
M 5428 5038 
L 5428 3731 
L 2816 3731 
L 2816 5038 
L 5428 5038 
z
M 3244 4678 
L 3244 4084 
L 4997 4084 
L 4997 4678 
L 3244 4678 
z
M 5753 3391 
L 5753 659 
L 2509 659 
L 2509 3391 
L 5753 3391 
z
M 2938 3038 
L 2938 2597 
L 5325 2597 
L 5325 3038 
L 2938 3038 
z
M 2938 2256 
L 2938 1813 
L 5325 1813 
L 5325 2256 
L 2938 2256 
z
M 2938 1472 
L 2938 1006 
L 5325 1006 
L 5325 1472 
L 2938 1472 
z
M 2034 -122 
Q 2828 141 3469 609 
L 3781 313 
Q 3153 -172 2347 -513 
L 2034 -122 
z
M 5803 -447 
Q 5113 16 4356 319 
L 4653 634 
Q 5450 325 6150 -78 
L 5803 -447 
z
" transform="scale(0.015625)"/>
      <path id="IPAexGothic-5024" d="M 4172 3675 
L 5453 3675 
L 5453 684 
L 3019 684 
L 3019 3675 
L 3750 3675 
Q 3788 3884 3825 4153 
L 2141 4153 
L 2141 4544 
L 3884 4544 
Q 3922 4844 3966 5325 
L 4434 5272 
L 4388 4953 
Q 4331 4578 4331 4544 
L 5863 4544 
L 5863 4153 
L 4269 4153 
Q 4200 3781 4172 3675 
z
M 5038 3316 
L 3434 3316 
L 3434 2803 
L 5038 2803 
L 5038 3316 
z
M 3434 2450 
L 3434 1941 
L 5038 1941 
L 5038 2450 
L 3434 2450 
z
M 3434 1588 
L 3434 1044 
L 5038 1044 
L 5038 1588 
L 3434 1588 
z
M 1509 3669 
L 1509 -447 
L 1069 -447 
L 1069 2725 
Q 856 2338 531 1875 
L 288 2266 
Q 1163 3531 1541 5325 
L 1975 5222 
Q 1791 4378 1509 3669 
z
M 2488 244 
L 6031 244 
L 6031 -153 
L 2488 -153 
L 2488 -447 
L 2059 -447 
L 2059 3213 
L 2488 3213 
L 2488 244 
z
" transform="scale(0.015625)"/>
      <path id="IPAexGothic-306e" d="M 3119 469 
Q 5275 766 5275 2425 
Q 5275 3453 4413 3925 
Q 4041 4116 3547 4159 
Q 3394 2525 2850 1400 
Q 2322 306 1722 306 
Q 1384 306 1084 666 
Q 609 1244 609 2003 
Q 609 3025 1397 3794 
Q 2184 4563 3431 4563 
Q 4306 4563 4928 4122 
Q 5813 3506 5813 2425 
Q 5813 438 3431 6 
L 3119 469 
z
M 3053 4147 
Q 2378 4044 1891 3641 
Q 1097 2981 1097 1991 
Q 1097 1366 1434 978 
Q 1581 813 1719 813 
Q 2022 813 2416 1625 
Q 2909 2638 3053 4147 
z
" transform="scale(0.015625)"/>
      <path id="IPAexGothic-51e6" d="M 2144 1263 
Q 2538 638 3147 425 
Q 3628 253 4741 253 
Q 5266 253 6163 303 
Q 6038 63 6009 -216 
Q 5450 -234 5094 -234 
Q 3675 -234 3097 -38 
Q 2388 206 1919 884 
Q 1366 6 734 -478 
L 397 -106 
Q 1128 384 1675 1306 
Q 1341 1969 1138 2913 
Q 934 2309 606 1775 
L 306 2159 
Q 1069 3425 1319 5219 
L 1759 5116 
Q 1694 4763 1631 4481 
L 2650 4481 
L 2903 4275 
Q 2759 2447 2144 1263 
z
M 1900 1744 
Q 2356 2797 2469 4066 
L 1528 4066 
Q 1463 3822 1388 3625 
Q 1534 2575 1900 1744 
z
M 5056 4756 
L 5056 1466 
Q 5056 1263 5269 1263 
Q 5466 1263 5484 1475 
Q 5506 1600 5516 2081 
L 5525 2222 
L 5953 2069 
Q 5944 1234 5831 1038 
Q 5728 859 5216 859 
Q 4888 859 4750 950 
Q 4622 1038 4622 1294 
L 4622 4353 
L 3872 4353 
L 3872 3759 
Q 3872 2544 3744 1916 
Q 3600 1244 3141 706 
L 2813 1025 
Q 3256 1563 3372 2369 
Q 3428 2809 3428 3566 
L 3428 4756 
L 5056 4756 
z
" transform="scale(0.015625)"/>
      <path id="IPAexGothic-7406" d="M 1541 4397 
L 1541 3084 
L 2219 3084 
L 2219 2688 
L 1541 2688 
L 1541 1247 
Q 1919 1356 2397 1522 
L 2431 1144 
Q 1353 713 434 472 
L 263 909 
Q 763 1025 1113 1119 
L 1113 2688 
L 441 2688 
L 441 3084 
L 1113 3084 
L 1113 4397 
L 369 4397 
L 369 4800 
L 2347 4800 
L 2347 4397 
L 1541 4397 
z
M 5691 4991 
L 5691 2106 
L 4378 2106 
L 4378 1375 
L 5825 1375 
L 5825 984 
L 4378 984 
L 4378 206 
L 6081 206 
L 6081 -191 
L 2150 -191 
L 2150 206 
L 3944 206 
L 3944 984 
L 2559 984 
L 2559 1375 
L 3944 1375 
L 3944 2106 
L 2675 2106 
L 2675 4991 
L 5691 4991 
z
M 3091 4606 
L 3091 3750 
L 3956 3750 
L 3956 4606 
L 3091 4606 
z
M 3091 3378 
L 3091 2491 
L 3956 2491 
L 3956 3378 
L 3091 3378 
z
M 5275 2491 
L 5275 3378 
L 4366 3378 
L 4366 2491 
L 5275 2491 
z
M 5275 3750 
L 5275 4606 
L 4366 4606 
L 4366 3750 
L 5275 3750 
z
" transform="scale(0.015625)"/>
      <path id="IPAexGothic-65b9" d="M 2931 3750 
L 2925 3616 
Q 2916 3203 2872 2778 
L 5244 2778 
Q 5175 781 5000 156 
Q 4913 -144 4691 -247 
Q 4528 -325 4194 -325 
Q 3759 -325 3256 -263 
L 3144 269 
Q 3700 156 4141 156 
Q 4491 156 4556 463 
Q 4725 1197 4744 2350 
L 2822 2350 
Q 2822 2313 2816 2288 
Q 2538 428 916 -484 
L 563 -94 
Q 1859 491 2247 1869 
Q 2422 2488 2450 3750 
L 409 3750 
L 409 4178 
L 2931 4178 
L 2931 5175 
L 3431 5175 
L 3431 4178 
L 5984 4178 
L 5984 3750 
L 2931 3750 
z
" transform="scale(0.015625)"/>
      <path id="IPAexGothic-91dd" d="M 1256 3566 
L 2772 3566 
L 2772 3181 
L 2044 3181 
L 2044 2497 
L 3156 2497 
L 3156 2113 
L 2044 2113 
L 2044 434 
Q 2544 556 3272 775 
L 3309 366 
Q 2156 -31 597 -378 
L 425 84 
Q 1050 203 1550 313 
L 1603 328 
L 1603 2113 
L 475 2113 
L 475 2497 
L 1603 2497 
L 1603 3181 
L 950 3181 
Q 813 3016 566 2778 
L 322 3169 
Q 1253 4069 1697 5313 
L 2131 5216 
Q 2044 4994 2009 4922 
Q 2694 4444 3316 3791 
L 3028 3400 
Q 2422 4081 1844 4563 
Q 1572 3988 1256 3566 
z
M 4425 3116 
L 4425 5175 
L 4878 5175 
L 4878 3116 
L 6081 3116 
L 6081 2688 
L 4878 2688 
L 4878 -447 
L 4425 -447 
L 4425 2688 
L 3209 2688 
L 3209 3116 
L 4425 3116 
z
M 909 481 
Q 775 1163 563 1650 
L 994 1791 
Q 1197 1294 1331 634 
L 909 481 
z
M 2303 819 
Q 2509 1294 2656 1913 
L 3097 1784 
Q 2863 1084 2663 697 
L 2303 819 
z
" transform="scale(0.015625)"/>
     </defs>
     <use xlink:href="#IPAexGothic-6b20"/>
     <use xlink:href="#IPAexGothic-640d" x="100"/>
     <use xlink:href="#IPAexGothic-5024" x="200"/>
     <use xlink:href="#IPAexGothic-306e" x="300"/>
     <use xlink:href="#IPAexGothic-51e6" x="400"/>
     <use xlink:href="#IPAexGothic-7406" x="500"/>
     <use xlink:href="#IPAexGothic-65b9" x="600"/>
     <use xlink:href="#IPAexGothic-91dd" x="700"/>
    </g>
   </g>
   <g id="text_3">
    <!-- 方法 -->
    <g style="fill: #ffffff" transform="translate(38.88 91.194375) scale(0.12 -0.12)">
     <defs>
      <path id="IPAexGothic-6cd5" d="M 3853 2175 
L 3847 2144 
Q 3500 1134 3109 384 
L 3078 331 
Q 3663 372 4444 466 
L 5025 538 
Q 4722 1006 4341 1478 
L 4719 1688 
Q 5372 928 5978 -78 
L 5575 -384 
Q 5353 16 5244 184 
Q 3900 -56 2003 -219 
L 1869 256 
Q 2147 266 2578 294 
Q 3125 1406 3366 2175 
L 1838 2175 
L 1838 2578 
L 3628 2578 
L 3628 3738 
L 2200 3738 
L 2200 4147 
L 3628 4147 
L 3628 5216 
L 4097 5216 
L 4097 4147 
L 5653 4147 
L 5653 3738 
L 4097 3738 
L 4097 2578 
L 6016 2578 
L 6016 2175 
L 3853 2175 
z
M 372 6 
Q 981 797 1472 1913 
L 1806 1550 
Q 1294 378 750 -403 
L 372 6 
z
M 1409 2394 
Q 931 2928 469 3231 
L 775 3597 
Q 1275 3259 1747 2778 
L 1409 2394 
z
M 1613 3847 
Q 1188 4338 691 4703 
L 1000 5056 
Q 1503 4709 1934 4238 
L 1613 3847 
z
" transform="scale(0.015625)"/>
     </defs>
     <use xlink:href="#IPAexGothic-65b9"/>
     <use xlink:href="#IPAexGothic-6cd5" x="100"/>
    </g>
   </g>
   <g id="text_4">
    <!-- コード -->
    <g style="fill: #ffffff" transform="translate(146.88 91.194375) scale(0.12 -0.12)">
     <defs>
      <path id="IPAexGothic-30b3" d="M 1134 4213 
L 5166 4213 
L 5166 153 
L 4653 153 
L 4653 594 
L 1063 594 
L 1063 1088 
L 4653 1088 
L 4653 3725 
L 1134 3725 
L 1134 4213 
z
" transform="scale(0.015625)"/>
      <path id="IPAexGothic-30c9" d="M 2247 4959 
L 2766 4959 
L 2766 3169 
Q 4050 2581 5178 1850 
L 4841 1331 
Q 3781 2138 2766 2650 
L 2766 -225 
L 2247 -225 
L 2247 4959 
z
M 5263 3847 
Q 4900 4388 4506 4716 
L 4806 4947 
Q 5191 4638 5581 4122 
L 5263 3847 
z
M 4666 3378 
Q 4375 3869 3931 4269 
L 4244 4513 
Q 4616 4206 5000 3653 
L 4666 3378 
z
" transform="scale(0.015625)"/>
     </defs>
     <use xlink:href="#IPAexGothic-30b3"/>
     <use xlink:href="#IPAexGothic-30fc" x="100"/>
     <use xlink:href="#IPAexGothic-30c9" x="200"/>
    </g>
   </g>
   <g id="text_5">
    <!-- 使う場面 -->
    <g style="fill: #ffffff" transform="translate(305.28 91.194375) scale(0.12 -0.12)">
     <defs>
      <path id="IPAexGothic-4f7f" d="M 3700 3547 
L 3700 4103 
L 1894 4103 
L 1894 4500 
L 3700 4500 
L 3700 5306 
L 4141 5306 
L 4141 4500 
L 5981 4500 
L 5981 4103 
L 4141 4103 
L 4141 3547 
L 5638 3547 
L 5638 1484 
L 5209 1484 
L 5209 1809 
L 4134 1809 
Q 4106 1163 3922 741 
Q 4784 241 6103 19 
L 5816 -419 
Q 4619 -150 3713 394 
Q 3238 -234 2059 -541 
L 1772 -138 
Q 2941 75 3366 625 
Q 2925 963 2563 1322 
L 2884 1566 
Q 3213 1228 3553 978 
Q 3684 1363 3694 1809 
L 2634 1809 
L 2634 1484 
L 2206 1484 
L 2206 3547 
L 3700 3547 
z
M 3700 3163 
L 2634 3163 
L 2634 2194 
L 3700 2194 
L 3700 3163 
z
M 4141 3163 
L 4141 2194 
L 5209 2194 
L 5209 3163 
L 4141 3163 
z
M 1509 3769 
L 1509 -447 
L 1069 -447 
L 1069 2822 
Q 813 2363 531 1972 
L 288 2363 
Q 1147 3628 1528 5331 
L 1975 5222 
Q 1747 4356 1509 3769 
z
" transform="scale(0.015625)"/>
      <path id="IPAexGothic-3046" d="M 3897 4025 
Q 3203 4456 2144 4728 
L 2381 5166 
Q 3353 4928 4166 4481 
L 3897 4025 
z
M 1172 3050 
Q 2872 3628 3566 3628 
Q 4269 3628 4603 3181 
Q 4847 2850 4847 2253 
Q 4847 372 2619 -275 
L 2278 159 
Q 3356 397 3881 994 
Q 4328 1503 4328 2228 
Q 4328 3181 3534 3181 
Q 2909 3181 1397 2553 
L 1172 3050 
z
" transform="scale(0.015625)"/>
      <path id="IPAexGothic-5834" d="M 5028 1588 
Q 4619 319 3603 -506 
L 3250 -213 
Q 4253 513 4606 1588 
L 4147 1588 
Q 3678 622 2675 -97 
L 2347 219 
Q 3244 778 3713 1588 
L 3219 1588 
Q 2806 1041 2181 628 
L 1869 953 
Q 2769 1500 3238 2363 
L 2247 2363 
L 2247 2741 
L 6078 2741 
L 6078 2363 
L 3691 2363 
Q 3572 2109 3475 1953 
L 5863 1953 
Q 5813 400 5650 -69 
Q 5516 -453 4997 -453 
Q 4709 -453 4409 -422 
L 4306 38 
Q 4678 -31 4928 -31 
Q 5200 -31 5266 269 
Q 5356 703 5413 1588 
L 5028 1588 
z
M 1138 3859 
L 1138 5209 
L 1584 5209 
L 1584 3859 
L 2372 3859 
L 2372 3431 
L 1584 3431 
L 1584 1672 
Q 1953 1866 2347 2106 
L 2441 1722 
Q 1403 1047 509 628 
L 300 1063 
Q 741 1247 1059 1403 
L 1138 1441 
L 1138 3431 
L 363 3431 
L 363 3859 
L 1138 3859 
z
M 5441 5088 
L 5441 3097 
L 2797 3097 
L 2797 5088 
L 5441 5088 
z
M 3219 4728 
L 3219 4281 
L 5019 4281 
L 5019 4728 
L 3219 4728 
z
M 3219 3928 
L 3219 3456 
L 5019 3456 
L 5019 3928 
L 3219 3928 
z
" transform="scale(0.015625)"/>
      <path id="IPAexGothic-9762" d="M 3063 3616 
L 5628 3616 
L 5628 -450 
L 5175 -450 
L 5175 -97 
L 1222 -97 
L 1222 -450 
L 769 -450 
L 769 3616 
L 2619 3616 
Q 2781 4025 2869 4434 
L 353 4434 
L 353 4856 
L 6044 4856 
L 6044 4434 
L 3381 4434 
L 3369 4397 
Q 3222 3963 3063 3616 
z
M 2178 3219 
L 1222 3219 
L 1222 300 
L 2178 300 
L 2178 3219 
z
M 2600 3219 
L 2600 2509 
L 3772 2509 
L 3772 3219 
L 2600 3219 
z
M 4194 3219 
L 4194 300 
L 5175 300 
L 5175 3219 
L 4194 3219 
z
M 2600 2138 
L 2600 1428 
L 3772 1428 
L 3772 2138 
L 2600 2138 
z
M 2600 1056 
L 2600 300 
L 3772 300 
L 3772 1056 
L 2600 1056 
z
" transform="scale(0.015625)"/>
     </defs>
     <use xlink:href="#IPAexGothic-4f7f"/>
     <use xlink:href="#IPAexGothic-3046" x="100"/>
     <use xlink:href="#IPAexGothic-5834" x="200"/>
     <use xlink:href="#IPAexGothic-9762" x="300"/>
    </g>
   </g>
   <g id="text_6">
    <!-- リスク -->
    <g style="fill: #ffffff" transform="translate(528.48 91.194375) scale(0.12 -0.12)">
     <defs>
      <path id="IPAexGothic-30ea" d="M 1678 4788 
L 2222 4788 
L 2222 1900 
L 1678 1900 
L 1678 4788 
z
M 4084 4909 
L 4628 4909 
L 4628 2753 
Q 4628 1563 4150 794 
Q 3725 119 2772 -353 
L 2394 78 
Q 3334 494 3706 1094 
Q 4084 1703 4084 2725 
L 4084 4909 
z
" transform="scale(0.015625)"/>
      <path id="IPAexGothic-30b9" d="M 4359 4481 
L 4716 4147 
Q 4328 3072 3647 2150 
Q 4659 1434 5659 453 
L 5234 19 
Q 4256 1088 3353 1778 
Q 2372 597 1044 -31 
L 653 403 
Q 3128 1453 4097 4000 
L 1241 3963 
L 1228 4453 
L 4359 4481 
z
" transform="scale(0.015625)"/>
      <path id="IPAexGothic-30af" d="M 4934 4191 
L 5272 3941 
Q 4894 2334 4031 1300 
Q 3275 391 2028 -225 
L 1656 184 
Q 2875 691 3641 1625 
Q 4403 2553 4691 3731 
L 2903 3731 
Q 2188 2653 1356 1959 
L 978 2309 
Q 2328 3400 2931 5022 
L 3422 4881 
Q 3363 4672 3141 4191 
L 4934 4191 
z
" transform="scale(0.015625)"/>
     </defs>
     <use xlink:href="#IPAexGothic-30ea"/>
     <use xlink:href="#IPAexGothic-30b9" x="100"/>
     <use xlink:href="#IPAexGothic-30af" x="200"/>
    </g>
   </g>
   <g id="text_7">
    <!-- 削除 -->
    <g style="fill: #2c3e50" transform="translate(38.88 122.874375) scale(0.12 -0.12)">
     <defs>
      <path id="IPAexGothic-524a" d="M 3506 3406 
L 3506 97 
Q 3506 -397 2963 -397 
Q 2513 -397 2169 -359 
L 2103 103 
Q 2497 38 2872 38 
Q 3066 38 3066 238 
L 3066 1050 
L 1053 1050 
L 1053 -447 
L 613 -447 
L 613 3406 
L 1809 3406 
L 1809 5313 
L 2250 5313 
L 2250 3406 
L 3506 3406 
z
M 3066 3022 
L 1053 3022 
L 1053 2419 
L 3066 2419 
L 3066 3022 
z
M 3066 2047 
L 1053 2047 
L 1053 1422 
L 3066 1422 
L 3066 2047 
z
M 959 3525 
Q 747 4191 447 4781 
L 863 4947 
Q 1144 4438 1406 3694 
L 959 3525 
z
M 2628 3694 
Q 2959 4284 3172 4997 
L 3628 4825 
Q 3353 4075 3031 3531 
L 2628 3694 
z
M 4159 4584 
L 4606 4584 
L 4606 1013 
L 4159 1013 
L 4159 4584 
z
M 5369 5106 
L 5809 5106 
L 5809 147 
Q 5809 -128 5700 -256 
Q 5575 -391 5156 -391 
Q 4744 -391 4350 -341 
L 4269 141 
Q 4763 69 5138 69 
Q 5369 69 5369 325 
L 5369 5106 
z
" transform="scale(0.015625)"/>
      <path id="IPAexGothic-9664" d="M 3028 3213 
Q 2713 2894 2378 2634 
L 2081 2975 
Q 3238 3838 3797 5247 
L 4284 5247 
Q 5038 3938 6222 3206 
L 5928 2797 
Q 5497 3122 5281 3322 
L 5281 2981 
L 4347 2981 
L 4347 2194 
L 5909 2194 
L 5909 1809 
L 4347 1809 
L 4347 38 
Q 4347 -222 4225 -325 
Q 4116 -416 3816 -416 
Q 3425 -416 3203 -378 
L 3138 72 
Q 3494 13 3734 13 
Q 3906 13 3906 197 
L 3906 1809 
L 2372 1809 
L 2372 2194 
L 3906 2194 
L 3906 2981 
L 3028 2981 
L 3028 3213 
z
M 3172 3359 
L 5238 3359 
Q 4525 4025 4059 4813 
Q 3719 3984 3172 3359 
z
M 2131 4991 
L 2353 4784 
Q 2044 3778 1700 3025 
Q 2225 2272 2225 1491 
Q 2225 800 1631 800 
Q 1384 800 1125 844 
L 1056 1278 
Q 1303 1216 1541 1216 
Q 1797 1216 1797 1541 
Q 1797 2291 1259 3038 
Q 1588 3703 1844 4581 
L 966 4581 
L 966 -450 
L 538 -450 
L 538 4991 
L 2131 4991 
z
M 5644 -31 
Q 5222 728 4653 1338 
L 5006 1588 
Q 5572 1022 6041 300 
L 5644 -31 
z
M 2188 191 
Q 2756 778 3034 1544 
L 3450 1356 
Q 3103 469 2528 -134 
L 2188 191 
z
" transform="scale(0.015625)"/>
     </defs>
     <use xlink:href="#IPAexGothic-524a"/>
     <use xlink:href="#IPAexGothic-9664" x="100"/>
    </g>
   </g>
   <g id="text_8">
    <!-- df.dropna() -->
    <g style="fill: #2c3e50" transform="translate(146.88 122.982188) scale(0.12 -0.12)">
     <defs>
      <path id="IPAexGothic-64" d="M 3391 63 
L 2891 63 
L 2891 619 
Q 2441 -31 1753 -31 
Q 1181 -31 788 372 
Q 313 844 313 1663 
Q 313 2466 772 2938 
Q 1169 3341 1753 3341 
Q 2384 3341 2847 2809 
L 2847 4794 
L 3391 4794 
L 3391 63 
z
M 2847 1303 
L 2847 2097 
Q 2847 2413 2456 2706 
Q 2181 2906 1853 2906 
Q 1484 2906 1228 2650 
Q 888 2309 888 1678 
Q 888 1109 1169 750 
Q 1441 409 1847 409 
Q 2322 409 2656 875 
Q 2847 1134 2847 1303 
z
" transform="scale(0.015625)"/>
      <path id="IPAexGothic-66" d="M 2456 4622 
L 2228 4244 
Q 1991 4422 1741 4422 
Q 1184 4422 1184 3672 
L 1184 3250 
L 2053 3250 
L 2053 2859 
L 1184 2859 
L 1184 63 
L 641 63 
L 641 2859 
L 122 2859 
L 122 3250 
L 641 3250 
L 641 3659 
Q 641 4188 891 4484 
Q 1200 4844 1709 4844 
Q 2116 4844 2456 4622 
z
" transform="scale(0.015625)"/>
      <path id="IPAexGothic-72" d="M 2309 3316 
L 2213 2769 
Q 2106 2791 2022 2791 
Q 1653 2791 1413 2444 
Q 1113 2006 1113 1675 
L 1113 63 
L 563 63 
L 563 3250 
L 1081 3250 
L 1056 2303 
L 1069 2303 
Q 1422 3341 2097 3341 
Q 2206 3341 2309 3316 
z
" transform="scale(0.015625)"/>
      <path id="IPAexGothic-6f" d="M 1919 3341 
Q 2594 3341 3056 2888 
Q 3531 2413 3531 1638 
Q 3531 888 3066 422 
Q 2609 -31 1919 -31 
Q 1228 -31 781 416 
Q 313 881 313 1656 
Q 313 2413 788 2888 
Q 1241 3341 1919 3341 
z
M 1919 2919 
Q 1519 2919 1241 2631 
Q 888 2278 888 1650 
Q 888 1031 1234 684 
Q 1516 403 1919 403 
Q 2331 403 2609 691 
Q 2956 1038 2956 1672 
Q 2956 2269 2603 2631 
Q 2316 2919 1919 2919 
z
" transform="scale(0.015625)"/>
      <path id="IPAexGothic-70" d="M 1075 2688 
Q 1525 3341 2206 3341 
Q 2769 3341 3172 2938 
Q 3641 2469 3641 1644 
Q 3641 841 3178 372 
Q 2775 -31 2200 -31 
Q 1569 -31 1106 497 
L 1106 -1216 
L 563 -1216 
L 563 3250 
L 1075 3250 
L 1075 2688 
z
M 1106 1950 
L 1106 1291 
Q 1106 897 1516 600 
Q 1791 403 2106 403 
Q 2469 403 2725 659 
Q 3066 997 3066 1631 
Q 3066 2200 2784 2559 
Q 2503 2900 2100 2900 
Q 1656 2900 1338 2484 
Q 1106 2184 1106 1950 
z
" transform="scale(0.015625)"/>
      <path id="IPAexGothic-6e" d="M 3328 63 
L 2778 63 
L 2778 2041 
Q 2778 2853 2106 2853 
Q 1428 2853 1113 2041 
L 1113 63 
L 563 63 
L 563 3250 
L 1075 3250 
L 1075 2675 
Q 1525 3316 2222 3316 
Q 3328 3316 3328 2072 
L 3328 63 
z
" transform="scale(0.015625)"/>
      <path id="IPAexGothic-61" d="M 3156 63 
L 2672 63 
Q 2559 303 2531 556 
L 2509 556 
Q 2147 -25 1428 -25 
Q 934 -25 622 288 
Q 347 563 347 959 
Q 347 1947 2050 1997 
L 2478 2009 
L 2478 2175 
Q 2478 2509 2288 2700 
Q 2088 2900 1775 2900 
Q 1238 2900 969 2378 
L 494 2597 
Q 938 3328 1788 3328 
Q 2375 3328 2691 3000 
Q 2984 2706 2984 2169 
L 2984 997 
Q 2984 400 3156 63 
z
M 2491 1625 
L 2141 1619 
Q 903 1591 903 953 
Q 903 728 1050 581 
Q 1231 403 1525 403 
Q 1934 403 2234 703 
Q 2491 969 2491 1344 
L 2491 1625 
z
" transform="scale(0.015625)"/>
      <path id="IPAexGothic-28" d="M 1928 -1016 
L 1653 -1166 
Q 488 69 488 1875 
Q 488 3678 1653 4909 
L 1928 4763 
Q 1006 3522 1006 1881 
Q 1006 203 1928 -1016 
z
" transform="scale(0.015625)"/>
      <path id="IPAexGothic-29" d="M 466 4909 
Q 1638 3672 1638 1875 
Q 1638 75 466 -1166 
L 191 -1016 
Q 1119 216 1119 1881 
Q 1119 3509 191 4763 
L 466 4909 
z
" transform="scale(0.015625)"/>
     </defs>
     <use xlink:href="#IPAexGothic-64"/>
     <use xlink:href="#IPAexGothic-66" x="62.402344"/>
     <use xlink:href="#IPAexGothic-2e" x="93.017578"/>
     <use xlink:href="#IPAexGothic-64" x="119.433594"/>
     <use xlink:href="#IPAexGothic-72" x="181.835938"/>
     <use xlink:href="#IPAexGothic-6f" x="218.847656"/>
     <use xlink:href="#IPAexGothic-70" x="279.248047"/>
     <use xlink:href="#IPAexGothic-6e" x="341.357422"/>
     <use xlink:href="#IPAexGothic-61" x="401.757812"/>
     <use xlink:href="#IPAexGothic-28" x="456.738281"/>
     <use xlink:href="#IPAexGothic-29" x="490.039062"/>
    </g>
   </g>
   <g id="text_9">
    <!-- 欠損が少量かつランダムな場合 -->
    <g style="fill: #2c3e50" transform="translate(305.28 122.941875) scale(0.12 -0.12)">
     <defs>
      <path id="IPAexGothic-304c" d="M 659 3384 
Q 1434 3503 2113 3581 
Q 2313 4341 2394 4972 
L 2900 4875 
Q 2759 4147 2619 3628 
L 2719 3634 
Q 2894 3641 3041 3641 
Q 4072 3641 4072 2369 
Q 4072 1128 3700 384 
Q 3478 -56 3003 -56 
Q 2591 -56 2113 231 
L 2138 775 
Q 2631 444 2925 444 
Q 3169 444 3297 706 
Q 3566 1294 3566 2388 
Q 3566 3219 3016 3219 
Q 2825 3219 2497 3194 
Q 2388 2763 2113 2047 
Q 1634 797 1119 -38 
L 678 244 
Q 1356 1238 1863 2750 
Q 1888 2819 1991 3128 
Q 1594 3081 769 2916 
L 659 3384 
z
M 5441 1838 
Q 4913 3038 4091 3916 
L 4475 4184 
Q 5350 3269 5888 2156 
L 5441 1838 
z
M 5913 4275 
Q 5553 4819 5159 5147 
L 5459 5375 
Q 5844 5066 6234 4550 
L 5913 4275 
z
M 5344 3788 
Q 5053 4278 4609 4678 
L 4922 4922 
Q 5294 4613 5678 4063 
L 5344 3788 
z
" transform="scale(0.015625)"/>
      <path id="IPAexGothic-5c11" d="M 2950 5147 
L 3444 5147 
L 3444 1894 
Q 3444 1597 3291 1472 
Q 3156 1375 2816 1375 
Q 2444 1375 2169 1416 
L 2081 1894 
Q 2472 1822 2738 1822 
Q 2950 1822 2950 2034 
L 2950 5147 
z
M 5613 2228 
Q 4884 3428 4172 4219 
L 4556 4488 
Q 5416 3538 6016 2559 
L 5613 2228 
z
M 581 2150 
Q 1350 3016 1675 4325 
L 2150 4184 
Q 1753 2741 972 1806 
L 581 2150 
z
M 997 25 
Q 3766 525 4691 2706 
L 5138 2503 
Q 4116 253 1319 -409 
L 997 25 
z
" transform="scale(0.015625)"/>
      <path id="IPAexGothic-91cf" d="M 5081 5159 
L 5081 3497 
L 1275 3497 
L 1275 5159 
L 5081 5159 
z
M 1716 4819 
L 1716 4475 
L 4647 4475 
L 4647 4819 
L 1716 4819 
z
M 1716 4175 
L 1716 3816 
L 4647 3816 
L 4647 4175 
L 1716 4175 
z
M 5238 2625 
L 5238 997 
L 3388 997 
L 3388 694 
L 5428 694 
L 5428 353 
L 3388 353 
L 3388 34 
L 6044 34 
L 6044 -331 
L 353 -331 
L 353 34 
L 2972 34 
L 2972 353 
L 969 353 
L 969 694 
L 2972 694 
L 2972 997 
L 1159 997 
L 1159 2625 
L 5238 2625 
z
M 1588 2325 
L 1588 1972 
L 2972 1972 
L 2972 2325 
L 1588 2325 
z
M 1588 1672 
L 1588 1303 
L 2972 1303 
L 2972 1672 
L 1588 1672 
z
M 4809 1303 
L 4809 1672 
L 3388 1672 
L 3388 1303 
L 4809 1303 
z
M 4809 1972 
L 4809 2325 
L 3388 2325 
L 3388 1972 
L 4809 1972 
z
M 384 3231 
L 6009 3231 
L 6009 2884 
L 384 2884 
L 384 3231 
z
" transform="scale(0.015625)"/>
      <path id="IPAexGothic-304b" d="M 659 3384 
Q 1434 3503 2113 3581 
Q 2313 4341 2394 4972 
L 2900 4875 
Q 2759 4147 2619 3628 
L 2719 3634 
Q 2894 3641 3041 3641 
Q 4072 3641 4072 2369 
Q 4072 1128 3700 384 
Q 3478 -56 3003 -56 
Q 2591 -56 2113 231 
L 2138 775 
Q 2631 444 2925 444 
Q 3169 444 3297 706 
Q 3566 1294 3566 2388 
Q 3566 3219 3016 3219 
Q 2825 3219 2497 3194 
Q 2388 2763 2113 2047 
Q 1634 797 1119 -38 
L 678 244 
Q 1356 1238 1863 2750 
Q 1888 2819 1991 3128 
Q 1594 3081 769 2916 
L 659 3384 
z
M 5644 1753 
Q 5072 3025 4238 3916 
L 4641 4184 
Q 5494 3275 6081 2094 
L 5644 1753 
z
" transform="scale(0.015625)"/>
      <path id="IPAexGothic-3064" d="M 575 3541 
Q 2694 4116 3769 4116 
Q 4506 4116 4978 3750 
Q 5559 3303 5559 2497 
Q 5559 1481 4606 903 
Q 3750 388 2213 281 
L 1963 781 
Q 5022 916 5022 2497 
Q 5022 3053 4663 3375 
Q 4331 3669 3734 3669 
Q 2663 3669 800 3041 
L 575 3541 
z
" transform="scale(0.015625)"/>
      <path id="IPAexGothic-30e9" d="M 1447 4709 
L 4922 4709 
L 4922 4234 
L 1447 4234 
L 1447 4709 
z
M 897 3303 
L 5172 3303 
L 5478 3013 
Q 5069 1669 4219 875 
Q 3475 181 2306 -181 
L 1972 294 
Q 4150 784 4834 2828 
L 897 2828 
L 897 3303 
z
" transform="scale(0.015625)"/>
      <path id="IPAexGothic-30f3" d="M 2444 3084 
Q 1816 3656 1056 4084 
L 1381 4519 
Q 2063 4191 2816 3559 
L 2444 3084 
z
M 1100 609 
Q 3984 1106 5216 3828 
L 5619 3469 
Q 4413 794 1434 103 
L 1100 609 
z
" transform="scale(0.015625)"/>
      <path id="IPAexGothic-30c0" d="M 4806 4219 
L 5141 3944 
Q 4625 2388 3884 1416 
Q 3019 281 1650 -344 
L 1294 66 
Q 1959 338 2441 694 
Q 2881 1022 3359 1556 
Q 2747 2181 1972 2747 
Q 1431 2159 1000 1831 
L 653 2191 
Q 2144 3284 2694 4988 
L 3188 4853 
Q 3153 4731 2938 4219 
L 4806 4219 
z
M 2722 3772 
Q 2538 3478 2266 3125 
Q 3022 2572 3669 1959 
Q 4194 2763 4575 3772 
L 2722 3772 
z
M 6009 4469 
Q 5647 5009 5256 5338 
L 5556 5569 
Q 5941 5259 6331 4744 
L 6009 4469 
z
M 5397 4031 
Q 5106 4522 4659 4922 
L 4972 5166 
Q 5344 4856 5728 4306 
L 5397 4031 
z
" transform="scale(0.015625)"/>
      <path id="IPAexGothic-30e0" d="M 609 891 
L 719 897 
L 884 903 
Q 1053 916 1263 925 
Q 1413 931 1447 934 
Q 2291 2888 2856 4706 
L 3394 4525 
Q 2841 2859 2019 981 
Q 3553 1109 4659 1275 
Q 4200 1950 3669 2588 
L 4122 2838 
Q 5075 1700 5788 513 
L 5319 194 
Q 5038 691 4922 866 
Q 2919 509 822 328 
L 609 891 
z
" transform="scale(0.015625)"/>
      <path id="IPAexGothic-306a" d="M 3906 3147 
L 4372 3147 
Q 4381 2278 4444 1272 
Q 5244 1003 5838 631 
L 5556 222 
Q 4953 600 4463 813 
Q 4478 263 4234 22 
Q 3984 -225 3419 -225 
Q 2897 -225 2563 0 
Q 2216 231 2216 647 
Q 2216 1081 2656 1319 
Q 2959 1484 3297 1484 
Q 3638 1484 3969 1413 
Q 3916 2219 3906 3147 
z
M 3975 984 
Q 3631 1081 3297 1081 
Q 3031 1081 2856 978 
Q 2663 863 2663 653 
Q 2663 197 3400 197 
Q 3750 197 3875 378 
Q 3997 556 3975 984 
z
M 738 3928 
Q 1453 3884 1997 3938 
Q 2144 4381 2294 5125 
L 2784 5050 
Q 2684 4559 2516 3988 
Q 2969 4031 3559 4172 
L 3578 3713 
Q 2919 3575 2375 3531 
Q 1853 2028 1044 831 
L 603 1113 
Q 1325 2063 1856 3488 
Q 1063 3459 763 3475 
L 738 3928 
z
M 5538 2759 
Q 5000 3353 4263 3853 
L 4591 4191 
Q 5338 3728 5897 3128 
L 5538 2759 
z
" transform="scale(0.015625)"/>
      <path id="IPAexGothic-5408" d="M 1831 3188 
L 4653 3188 
L 4653 2778 
L 1747 2778 
L 1747 3125 
Q 1275 2778 594 2453 
L 294 2828 
Q 2006 3509 2891 5147 
L 3431 5147 
Q 4331 3806 6125 3003 
L 5831 2588 
Q 4119 3416 3175 4731 
Q 2650 3806 1831 3188 
z
M 5113 2088 
L 5113 -450 
L 4638 -450 
L 4638 -97 
L 1766 -97 
L 1766 -450 
L 1284 -450 
L 1284 2088 
L 5113 2088 
z
M 1766 1691 
L 1766 300 
L 4638 300 
L 4638 1691 
L 1766 1691 
z
" transform="scale(0.015625)"/>
     </defs>
     <use xlink:href="#IPAexGothic-6b20"/>
     <use xlink:href="#IPAexGothic-640d" x="100"/>
     <use xlink:href="#IPAexGothic-304c" x="200"/>
     <use xlink:href="#IPAexGothic-5c11" x="300"/>
     <use xlink:href="#IPAexGothic-91cf" x="400"/>
     <use xlink:href="#IPAexGothic-304b" x="500"/>
     <use xlink:href="#IPAexGothic-3064" x="600"/>
     <use xlink:href="#IPAexGothic-30e9" x="700"/>
     <use xlink:href="#IPAexGothic-30f3" x="800"/>
     <use xlink:href="#IPAexGothic-30c0" x="900"/>
     <use xlink:href="#IPAexGothic-30e0" x="1000"/>
     <use xlink:href="#IPAexGothic-306a" x="1100"/>
     <use xlink:href="#IPAexGothic-5834" x="1200"/>
     <use xlink:href="#IPAexGothic-5408" x="1300"/>
    </g>
   </g>
   <g id="text_10">
    <!-- データ量が減る -->
    <g style="fill: #2c3e50" transform="translate(528.48 122.911875) scale(0.12 -0.12)">
     <defs>
      <path id="IPAexGothic-6e1b" d="M 4531 1175 
Q 4263 2144 4184 3794 
L 2419 3794 
L 2419 2566 
Q 2419 1391 2309 741 
Q 2194 59 1844 -481 
L 1491 -156 
Q 1991 622 1991 2419 
L 1991 4172 
L 4172 4172 
L 4153 4469 
Q 4150 4556 4141 4816 
Q 4131 5156 4128 5306 
L 4563 5306 
Q 4575 4588 4594 4206 
L 5938 4206 
L 5938 3822 
L 4613 3822 
Q 4697 2419 4831 1706 
Q 5131 2281 5381 3250 
L 5791 3078 
Q 5466 1978 4991 1144 
Q 5125 753 5306 459 
Q 5391 325 5441 325 
Q 5556 325 5703 1259 
L 6106 947 
Q 5844 -353 5534 -353 
Q 5397 -353 5203 -150 
Q 4922 163 4697 697 
Q 4181 19 3513 -475 
L 3188 -141 
Q 4000 384 4531 1175 
z
M 4038 2431 
L 4038 903 
L 3066 903 
L 3066 506 
L 2694 506 
L 2694 2431 
L 4038 2431 
z
M 3066 2088 
L 3066 1247 
L 3659 1247 
L 3659 2088 
L 3066 2088 
z
M 1472 3872 
Q 963 4463 556 4769 
L 856 5100 
Q 1372 4728 1784 4250 
L 1472 3872 
z
M 1209 2375 
Q 781 2897 294 3256 
L 581 3603 
Q 1109 3213 1516 2759 
L 1209 2375 
z
M 331 -103 
Q 838 763 1172 1931 
L 1547 1644 
Q 1188 422 722 -441 
L 331 -103 
z
M 2609 3272 
L 4081 3272 
L 4081 2900 
L 2609 2900 
L 2609 3272 
z
M 5413 4281 
Q 5128 4753 4881 5019 
L 5259 5209 
Q 5566 4884 5803 4513 
L 5413 4281 
z
" transform="scale(0.015625)"/>
      <path id="IPAexGothic-308b" d="M 4391 4397 
L 2613 2588 
Q 3225 2809 3759 2809 
Q 4263 2809 4659 2625 
Q 5391 2269 5391 1484 
Q 5391 756 4706 275 
Q 4072 -166 3053 -166 
Q 2559 -166 2247 19 
Q 1863 250 1863 666 
Q 1863 934 2069 1141 
Q 2331 1403 2741 1403 
Q 3509 1403 4019 428 
Q 4872 784 4872 1491 
Q 4872 1981 4469 2222 
Q 4166 2406 3681 2406 
Q 2425 2406 1238 1209 
L 891 1581 
Q 2438 2934 3578 4281 
Q 2594 4125 1588 4066 
L 1478 4550 
Q 2594 4581 4109 4763 
L 4391 4397 
z
M 3591 303 
Q 3244 1025 2731 1025 
Q 2553 1025 2434 934 
Q 2316 844 2316 700 
Q 2316 250 3034 250 
Q 3275 250 3591 303 
z
" transform="scale(0.015625)"/>
     </defs>
     <use xlink:href="#IPAexGothic-30c7"/>
     <use xlink:href="#IPAexGothic-30fc" x="100"/>
     <use xlink:href="#IPAexGothic-30bf" x="200"/>
     <use xlink:href="#IPAexGothic-91cf" x="300"/>
     <use xlink:href="#IPAexGothic-304c" x="400"/>
     <use xlink:href="#IPAexGothic-6e1b" x="500"/>
     <use xlink:href="#IPAexGothic-308b" x="600"/>
    </g>
   </g>
   <g id="text_11">
    <!-- 平均値で補完 -->
    <g style="fill: #2c3e50" transform="translate(38.88 154.554375) scale(0.12 -0.12)">
     <defs>
      <path id="IPAexGothic-5e73" d="M 3422 4428 
L 3422 1941 
L 6084 1941 
L 6084 1513 
L 3422 1513 
L 3422 -447 
L 2934 -447 
L 2934 1513 
L 322 1513 
L 322 1941 
L 2934 1941 
L 2934 4428 
L 641 4428 
L 641 4856 
L 5763 4856 
L 5763 4428 
L 3422 4428 
z
M 1728 2278 
Q 1488 3094 1081 3859 
L 1544 4038 
Q 1875 3422 2222 2472 
L 1728 2278 
z
M 4134 2425 
Q 4509 3138 4813 4128 
L 5306 3944 
Q 4984 3006 4569 2228 
L 4134 2425 
z
" transform="scale(0.015625)"/>
      <path id="IPAexGothic-5747" d="M 1206 3794 
L 1206 5144 
L 1659 5144 
L 1659 3794 
L 2369 3794 
L 2369 3372 
L 1659 3372 
L 1659 1325 
Q 2078 1513 2484 1722 
L 2566 1313 
Q 1556 775 559 397 
L 334 838 
Q 803 975 1206 1138 
L 1206 3372 
L 413 3372 
L 413 3794 
L 1206 3794 
z
M 3475 4244 
L 5844 4244 
Q 5834 1131 5619 184 
Q 5494 -366 4838 -366 
Q 4369 -366 3859 -306 
L 3769 184 
Q 4241 88 4731 88 
Q 5059 88 5147 306 
Q 5359 919 5369 3828 
L 3316 3828 
Q 3013 3119 2466 2472 
L 2150 2828 
Q 2944 3788 3259 5263 
L 3719 5147 
Q 3619 4663 3475 4244 
z
M 2975 2847 
L 4678 2847 
L 4678 2431 
L 2975 2431 
L 2975 2847 
z
M 2559 1044 
Q 3747 1338 4838 1797 
L 4891 1388 
Q 3831 891 2766 588 
L 2559 1044 
z
" transform="scale(0.015625)"/>
      <path id="IPAexGothic-3067" d="M 581 4034 
Q 2978 4363 5466 4556 
L 5509 4097 
Q 4388 4031 3750 3572 
Q 2797 2878 2797 1913 
Q 2797 1169 3291 819 
Q 3778 484 4869 416 
L 4906 -116 
Q 2278 0 2278 1850 
Q 2278 3125 3691 4000 
Q 2066 3784 684 3553 
L 581 4034 
z
M 5631 2522 
Q 5269 3063 4875 3391 
L 5175 3622 
Q 5559 3313 5950 2797 
L 5631 2522 
z
M 5034 2053 
Q 4747 2544 4300 2944 
L 4613 3184 
Q 4984 2878 5369 2328 
L 5034 2053 
z
" transform="scale(0.015625)"/>
      <path id="IPAexGothic-88dc" d="M 1600 2394 
L 1688 2338 
Q 1700 2325 1766 2288 
Q 1938 2509 2188 2925 
L 2506 2709 
Q 2297 2431 1997 2119 
Q 2328 1875 2522 1697 
L 2259 1359 
Q 1956 1672 1600 1997 
L 1600 -447 
L 1172 -447 
L 1172 2159 
Q 906 1816 494 1403 
L 256 1794 
Q 1275 2716 1747 3816 
L 403 3816 
L 403 4231 
L 1153 4231 
L 1153 5306 
L 1581 5306 
L 1581 4231 
L 2047 4231 
L 2297 4034 
Q 2003 3319 1600 2741 
L 1600 2394 
z
M 4384 4019 
L 4384 3419 
L 5778 3419 
L 5778 25 
Q 5778 -391 5303 -391 
Q 4997 -391 4806 -366 
L 4728 56 
Q 5006 19 5209 19 
Q 5363 19 5363 206 
L 5363 1031 
L 4378 1031 
L 4378 -288 
L 3969 -288 
L 3969 1031 
L 3034 1031 
L 3034 -447 
L 2613 -447 
L 2613 3419 
L 3963 3419 
L 3963 4019 
L 2350 4019 
L 2350 4403 
L 3963 4403 
L 3963 5313 
L 4384 5313 
L 4384 4403 
L 5338 4403 
Q 5331 4422 5303 4459 
Q 5113 4750 4813 5050 
L 5144 5247 
Q 5413 4997 5681 4641 
L 5350 4403 
L 6047 4403 
L 6047 4019 
L 4384 4019 
z
M 3969 3047 
L 3034 3047 
L 3034 2413 
L 3969 2413 
L 3969 3047 
z
M 4378 3047 
L 4378 2413 
L 5363 2413 
L 5363 3047 
L 4378 3047 
z
M 3969 2047 
L 3034 2047 
L 3034 1391 
L 3969 1391 
L 3969 2047 
z
M 4378 2047 
L 4378 1391 
L 5363 1391 
L 5363 2047 
L 4378 2047 
z
" transform="scale(0.015625)"/>
      <path id="IPAexGothic-5b8c" d="M 3419 4428 
L 5753 4428 
L 5753 3166 
L 5278 3166 
L 5278 4025 
L 1116 4025 
L 1116 3166 
L 641 3166 
L 641 4428 
L 2938 4428 
L 2938 5313 
L 3419 5313 
L 3419 4428 
z
M 4084 1850 
L 4084 353 
Q 4084 178 4219 138 
Q 4356 106 4713 106 
Q 5334 106 5422 300 
Q 5519 500 5519 1013 
L 5978 872 
Q 5931 9 5734 -169 
Q 5556 -347 4672 -347 
Q 3981 -347 3809 -250 
Q 3625 -144 3625 184 
L 3625 1850 
L 2697 1850 
Q 2688 819 2281 325 
Q 1834 -206 822 -506 
L 528 -84 
Q 1556 156 1916 622 
Q 2222 1003 2231 1850 
L 516 1850 
L 516 2266 
L 5881 2266 
L 5881 1850 
L 4084 1850 
z
M 1422 3341 
L 4975 3341 
L 4975 2938 
L 1422 2938 
L 1422 3341 
z
" transform="scale(0.015625)"/>
     </defs>
     <use xlink:href="#IPAexGothic-5e73"/>
     <use xlink:href="#IPAexGothic-5747" x="100"/>
     <use xlink:href="#IPAexGothic-5024" x="200"/>
     <use xlink:href="#IPAexGothic-3067" x="300"/>
     <use xlink:href="#IPAexGothic-88dc" x="400"/>
     <use xlink:href="#IPAexGothic-5b8c" x="500"/>
    </g>
   </g>
   <g id="text_12">
    <!-- df.fillna(df.mean()) -->
    <g style="fill: #2c3e50" transform="translate(146.88 154.615312) scale(0.12 -0.12)">
     <defs>
      <path id="IPAexGothic-69" d="M 1178 3928 
L 550 3928 
L 550 4569 
L 1178 4569 
L 1178 3928 
z
M 1138 63 
L 588 63 
L 588 3250 
L 1138 3250 
L 1138 63 
z
" transform="scale(0.015625)"/>
      <path id="IPAexGothic-6c" d="M 1131 63 
L 581 63 
L 581 4794 
L 1131 4794 
L 1131 63 
z
" transform="scale(0.015625)"/>
      <path id="IPAexGothic-6d" d="M 5022 63 
L 4472 63 
L 4472 2059 
Q 4472 2869 3847 2869 
Q 3550 2869 3303 2594 
Q 3128 2397 3059 2103 
L 3059 63 
L 2509 63 
L 2509 2066 
Q 2509 2869 1919 2869 
Q 1606 2869 1369 2594 
Q 1113 2306 1113 2041 
L 1113 63 
L 563 63 
L 563 3250 
L 1075 3250 
L 1075 2700 
Q 1391 3316 2028 3316 
Q 2725 3316 2956 2647 
Q 3303 3316 3953 3316 
Q 4478 3316 4772 2944 
Q 5022 2638 5022 2072 
L 5022 63 
z
" transform="scale(0.015625)"/>
      <path id="IPAexGothic-65" d="M 863 1594 
Q 891 1041 1209 722 
Q 1534 397 1997 397 
Q 2606 397 2963 966 
L 3322 728 
Q 2869 -31 1931 -31 
Q 1222 -31 766 422 
Q 306 884 306 1641 
Q 306 2444 788 2925 
Q 1216 3353 1856 3353 
Q 2459 3353 2866 2956 
Q 3322 2494 3322 1722 
L 3322 1594 
L 863 1594 
z
M 2756 1997 
Q 2709 2431 2450 2681 
Q 2194 2938 1844 2938 
Q 1438 2938 1150 2591 
Q 953 2356 894 1997 
L 2756 1997 
z
" transform="scale(0.015625)"/>
     </defs>
     <use xlink:href="#IPAexGothic-64"/>
     <use xlink:href="#IPAexGothic-66" x="62.402344"/>
     <use xlink:href="#IPAexGothic-2e" x="93.017578"/>
     <use xlink:href="#IPAexGothic-66" x="119.433594"/>
     <use xlink:href="#IPAexGothic-69" x="150.048828"/>
     <use xlink:href="#IPAexGothic-6c" x="177.050781"/>
     <use xlink:href="#IPAexGothic-6c" x="204.052734"/>
     <use xlink:href="#IPAexGothic-6e" x="231.054688"/>
     <use xlink:href="#IPAexGothic-61" x="291.455078"/>
     <use xlink:href="#IPAexGothic-28" x="346.435547"/>
     <use xlink:href="#IPAexGothic-64" x="379.736328"/>
     <use xlink:href="#IPAexGothic-66" x="442.138672"/>
     <use xlink:href="#IPAexGothic-2e" x="472.753906"/>
     <use xlink:href="#IPAexGothic-6d" x="499.169922"/>
     <use xlink:href="#IPAexGothic-65" x="586.279297"/>
     <use xlink:href="#IPAexGothic-61" x="643.164062"/>
     <use xlink:href="#IPAexGothic-6e" x="698.144531"/>
     <use xlink:href="#IPAexGothic-28" x="758.544922"/>
     <use xlink:href="#IPAexGothic-29" x="791.845703"/>
     <use xlink:href="#IPAexGothic-29" x="825.146484"/>
    </g>
   </g>
   <g id="text_13">
    <!-- 数値データで欠損が一定量ある場合 -->
    <g style="fill: #2c3e50" transform="translate(305.28 154.621875) scale(0.12 -0.12)">
     <defs>
      <path id="IPAexGothic-6570" d="M 2847 1553 
Q 2741 1006 2425 534 
Q 2625 441 3091 203 
L 2809 -188 
Q 2541 0 2144 209 
Q 1569 -291 703 -500 
L 422 -125 
Q 1263 19 1747 406 
Q 1222 650 734 816 
Q 975 1172 1147 1503 
L 1172 1553 
L 359 1553 
L 359 1925 
L 1344 1925 
Q 1406 2066 1569 2475 
L 1691 2450 
L 1691 3372 
Q 1250 2738 550 2303 
L 275 2663 
Q 1019 3013 1528 3641 
L 378 3641 
L 378 4006 
L 1691 4006 
L 1691 5313 
L 2113 5313 
L 2113 4006 
L 3297 4006 
L 3297 3641 
L 2113 3641 
L 2113 3513 
Q 2659 3291 3175 2963 
L 2956 2584 
Q 2553 2922 2113 3159 
L 2113 2372 
L 1966 2372 
Q 1928 2288 1872 2141 
Q 1806 1975 1784 1925 
L 3378 1925 
L 3378 1553 
L 2847 1553 
z
M 2419 1553 
L 1613 1553 
Q 1478 1269 1313 997 
Q 1559 909 2047 703 
Q 2313 1047 2419 1553 
z
M 4363 1163 
Q 3953 1781 3738 2638 
Q 3575 2281 3428 2016 
L 3103 2406 
Q 3675 3444 3916 5291 
L 4363 5200 
Q 4284 4666 4197 4197 
L 6009 4197 
L 6009 3775 
L 5503 3775 
Q 5397 2275 4869 1191 
Q 5419 503 6144 75 
L 5822 -378 
Q 5188 106 4631 788 
Q 4113 34 3341 -463 
L 3031 -78 
Q 3888 406 4363 1163 
z
M 4588 1594 
Q 4938 2388 5059 3775 
L 4100 3775 
Q 4041 3519 3972 3288 
Q 3981 3250 3991 3194 
Q 4175 2256 4588 1594 
z
M 1003 4116 
Q 878 4544 638 4934 
L 1053 5094 
Q 1247 4788 1438 4269 
L 1003 4116 
z
M 2316 4269 
Q 2550 4688 2688 5131 
L 3128 4997 
Q 2966 4588 2675 4128 
L 2316 4269 
z
" transform="scale(0.015625)"/>
      <path id="IPAexGothic-4e00" d="M 513 2847 
L 5881 2847 
L 5881 2328 
L 513 2328 
L 513 2847 
z
" transform="scale(0.015625)"/>
      <path id="IPAexGothic-5b9a" d="M 3431 303 
Q 3931 225 4709 225 
Q 5191 225 6053 263 
Q 5963 59 5888 -228 
Q 5234 -250 4844 -250 
Q 3569 -250 3003 -78 
Q 2259 153 1750 903 
Q 1441 163 806 -459 
L 475 -75 
Q 1416 759 1684 2419 
L 2125 2303 
Q 2031 1756 1909 1356 
Q 2338 678 2972 416 
L 2972 2944 
L 1434 2944 
L 1434 3353 
L 4959 3353 
L 4959 2944 
L 3431 2944 
L 3431 1984 
L 5397 1984 
L 5397 1569 
L 3431 1569 
L 3431 303 
z
M 3419 4428 
L 5750 4428 
L 5750 3166 
L 5275 3166 
L 5275 4025 
L 1122 4025 
L 1122 3166 
L 647 3166 
L 647 4428 
L 2938 4428 
L 2938 5313 
L 3419 5313 
L 3419 4428 
z
" transform="scale(0.015625)"/>
      <path id="IPAexGothic-3042" d="M 966 4134 
Q 1228 4116 1550 4116 
Q 1934 4116 2284 4141 
Q 2297 4247 2319 4453 
Q 2369 4872 2381 5050 
L 2853 5019 
Q 2794 4547 2759 4178 
Q 3672 4275 4581 4525 
L 4634 4084 
Q 3750 3863 2713 3756 
Q 2675 3378 2663 2931 
Q 3088 3084 3669 3138 
Q 3738 3325 3763 3547 
L 4238 3438 
Q 4188 3219 4153 3128 
Q 4797 3041 5166 2741 
Q 5703 2297 5703 1581 
Q 5703 794 5056 300 
Q 4559 -84 3681 -213 
L 3406 213 
Q 4169 297 4622 594 
Q 5203 969 5203 1588 
Q 5203 2216 4672 2553 
Q 4413 2725 4025 2772 
Q 3550 1556 2747 800 
Q 2766 584 2847 275 
L 2388 103 
Q 2369 191 2316 525 
Q 1756 128 1300 128 
Q 666 128 666 794 
Q 666 1244 950 1691 
Q 1216 2100 1678 2425 
Q 1834 2541 2194 2731 
Q 2206 3159 2253 3719 
Q 1772 3681 1338 3681 
Q 1106 3681 1006 3688 
L 966 4134 
z
M 2188 2291 
Q 1966 2169 1703 1913 
Q 1431 1650 1272 1353 
Q 1144 1109 1134 922 
Q 1119 575 1384 575 
Q 1788 575 2247 997 
Q 2197 1497 2188 2291 
z
M 3553 2772 
Q 3038 2700 2638 2534 
Q 2638 1734 2663 1300 
Q 3231 1931 3553 2772 
z
" transform="scale(0.015625)"/>
     </defs>
     <use xlink:href="#IPAexGothic-6570"/>
     <use xlink:href="#IPAexGothic-5024" x="100"/>
     <use xlink:href="#IPAexGothic-30c7" x="200"/>
     <use xlink:href="#IPAexGothic-30fc" x="300"/>
     <use xlink:href="#IPAexGothic-30bf" x="400"/>
     <use xlink:href="#IPAexGothic-3067" x="500"/>
     <use xlink:href="#IPAexGothic-6b20" x="600"/>
     <use xlink:href="#IPAexGothic-640d" x="700"/>
     <use xlink:href="#IPAexGothic-304c" x="800"/>
     <use xlink:href="#IPAexGothic-4e00" x="900"/>
     <use xlink:href="#IPAexGothic-5b9a" x="1000"/>
     <use xlink:href="#IPAexGothic-91cf" x="1100"/>
     <use xlink:href="#IPAexGothic-3042" x="1200"/>
     <use xlink:href="#IPAexGothic-308b" x="1300"/>
     <use xlink:href="#IPAexGothic-5834" x="1400"/>
     <use xlink:href="#IPAexGothic-5408" x="1500"/>
    </g>
   </g>
   <g id="text_14">
    <!-- 分布が変わる可能性 -->
    <g style="fill: #2c3e50" transform="translate(528.48 154.554375) scale(0.12 -0.12)">
     <defs>
      <path id="IPAexGothic-5206" d="M 3031 2431 
Q 2916 1378 2528 759 
Q 1991 -81 941 -469 
L 625 -53 
Q 2356 488 2541 2431 
L 1375 2431 
L 1375 2772 
Q 1044 2431 653 2156 
L 313 2534 
Q 1600 3425 2219 5056 
L 2688 4875 
Q 2200 3672 1453 2847 
L 4966 2847 
Q 4878 559 4741 94 
Q 4666 -163 4459 -250 
Q 4288 -322 3941 -322 
Q 3525 -322 2981 -263 
L 2884 256 
Q 3441 138 3844 138 
Q 4213 138 4281 438 
Q 4388 931 4472 2431 
L 3031 2431 
z
M 5747 2303 
Q 4416 3238 3506 4934 
L 3934 5113 
Q 4747 3572 6084 2747 
L 5747 2303 
z
" transform="scale(0.015625)"/>
      <path id="IPAexGothic-5e03" d="M 3228 2741 
L 3228 3584 
L 3688 3584 
L 3688 2741 
L 5500 2741 
L 5500 750 
Q 5500 475 5353 369 
Q 5228 272 4900 272 
Q 4625 272 4269 291 
L 4188 775 
Q 4600 713 4834 713 
Q 5047 713 5047 956 
L 5047 2325 
L 3688 2325 
L 3688 -447 
L 3228 -447 
L 3228 2325 
L 2056 2325 
L 2056 91 
L 1603 91 
L 1603 2228 
Q 1159 1747 622 1313 
L 303 1691 
Q 1544 2625 2144 3847 
L 516 3847 
L 516 4275 
L 2338 4275 
Q 2506 4684 2656 5228 
L 3150 5153 
Q 2988 4581 2856 4275 
L 5984 4275 
L 5984 3847 
L 2669 3847 
Q 2369 3231 2009 2741 
L 3228 2741 
z
" transform="scale(0.015625)"/>
      <path id="IPAexGothic-5909" d="M 2147 1253 
Q 1641 822 944 563 
L 672 900 
Q 1938 1391 2556 2394 
L 2972 2231 
Q 2847 2034 2747 1900 
L 4750 1900 
L 4969 1700 
Q 4422 984 3859 563 
Q 4650 241 6094 69 
L 5825 -366 
Q 4275 -125 3431 288 
Q 2441 -272 603 -538 
L 341 -134 
Q 2103 75 2997 538 
Q 2591 791 2184 1209 
L 2147 1253 
z
M 2434 1528 
L 2422 1516 
Q 2803 1106 3425 778 
Q 3888 1078 4269 1528 
L 2434 1528 
z
M 4059 4147 
L 4059 2650 
Q 4059 2272 3663 2272 
Q 3416 2272 3047 2309 
L 2963 2725 
Q 3241 2681 3431 2681 
Q 3631 2681 3631 2872 
L 3631 4147 
L 2822 4147 
Q 2766 3291 2503 2816 
Q 2191 2259 1503 1869 
L 1172 2156 
Q 1878 2572 2144 3066 
Q 2359 3456 2388 4147 
L 403 4147 
L 403 4544 
L 2938 4544 
L 2938 5294 
L 3419 5294 
L 3419 4544 
L 6000 4544 
L 6000 4147 
L 4059 4147 
z
M 5494 2363 
Q 4828 3150 4328 3584 
L 4672 3859 
Q 5266 3369 5878 2656 
L 5494 2363 
z
M 341 2528 
Q 1025 3022 1441 3775 
L 1844 3597 
Q 1406 2781 706 2241 
L 341 2528 
z
" transform="scale(0.015625)"/>
      <path id="IPAexGothic-308f" d="M 609 3672 
Q 1272 3750 1894 3884 
L 1934 4978 
L 2406 4972 
L 2369 3934 
L 2753 3634 
Q 2416 3238 2356 3153 
Q 2350 3078 2350 2853 
Q 3322 3616 4219 3616 
Q 4878 3616 5331 3200 
Q 5819 2750 5819 2028 
Q 5819 419 3584 -53 
L 3266 391 
Q 5294 766 5294 2034 
Q 5294 2534 5000 2847 
Q 4691 3175 4175 3175 
Q 3341 3175 2344 2303 
Q 2344 678 2369 -150 
L 1881 -150 
Q 1863 1200 1869 1888 
Q 1766 1781 866 716 
L 513 1081 
Q 1450 2088 1869 2469 
Q 1869 2500 1878 2947 
Q 1881 3225 1888 3456 
Q 1406 3319 744 3178 
L 609 3672 
z
" transform="scale(0.015625)"/>
      <path id="IPAexGothic-53ef" d="M 5100 4313 
L 5100 288 
Q 5100 -63 4913 -200 
Q 4756 -322 4313 -322 
Q 3859 -322 3313 -263 
L 3231 263 
Q 3869 178 4294 178 
Q 4525 178 4575 275 
Q 4613 341 4613 497 
L 4613 4313 
L 416 4313 
L 416 4728 
L 5972 4728 
L 5972 4313 
L 5100 4313 
z
M 3666 3406 
L 3666 1259 
L 1713 1259 
L 1713 741 
L 1259 741 
L 1259 3406 
L 3666 3406 
z
M 1713 3003 
L 1713 1669 
L 3213 1669 
L 3213 3003 
L 1713 3003 
z
" transform="scale(0.015625)"/>
      <path id="IPAexGothic-80fd" d="M 888 3903 
Q 1228 4475 1509 5325 
L 1991 5203 
Q 1684 4497 1344 3941 
L 1325 3916 
L 1406 3916 
Q 1972 3928 2522 3966 
L 2584 3966 
Q 2438 4216 2181 4556 
L 2541 4753 
Q 3025 4141 3372 3475 
L 2988 3213 
Q 2909 3375 2775 3634 
Q 1938 3513 447 3456 
L 319 3897 
Q 613 3897 734 3903 
L 888 3903 
z
M 2963 3072 
L 2963 50 
Q 2963 -384 2413 -384 
Q 2100 -384 1822 -347 
L 1753 97 
Q 2091 38 2328 38 
Q 2534 38 2534 225 
L 2534 934 
L 1150 934 
L 1150 -447 
L 722 -447 
L 722 3072 
L 2963 3072 
z
M 1150 2688 
L 1150 2194 
L 2534 2194 
L 2534 2688 
L 1150 2688 
z
M 1150 1822 
L 1150 1306 
L 2534 1306 
L 2534 1822 
L 1150 1822 
z
M 3934 4153 
Q 4806 4444 5431 4872 
L 5803 4525 
Q 4866 4013 3934 3763 
L 3934 3206 
Q 3934 3022 4069 2981 
Q 4188 2950 4550 2950 
Q 5344 2950 5431 3116 
Q 5497 3234 5516 3828 
L 5963 3706 
Q 5934 2825 5719 2675 
Q 5522 2534 4594 2534 
Q 3897 2534 3678 2644 
Q 3494 2741 3494 3034 
L 3494 5209 
L 3934 5209 
L 3934 4153 
z
M 3934 1338 
Q 3947 1344 3984 1356 
Q 4816 1628 5472 2041 
L 5841 1684 
Q 4884 1203 3934 959 
L 3934 353 
Q 3934 131 4088 81 
Q 4203 38 4625 38 
Q 5228 38 5375 100 
Q 5556 188 5584 991 
L 6053 872 
Q 6025 203 5919 -44 
Q 5816 -281 5478 -341 
Q 5253 -384 4722 -384 
Q 3966 -384 3738 -294 
Q 3494 -197 3494 116 
L 3494 2338 
L 3934 2338 
L 3934 1338 
z
" transform="scale(0.015625)"/>
      <path id="IPAexGothic-6027" d="M 3106 3788 
L 3900 3788 
L 3900 5216 
L 4353 5216 
L 4353 3788 
L 5884 3788 
L 5884 3372 
L 4353 3372 
L 4353 2069 
L 5756 2069 
L 5756 1653 
L 4353 1653 
L 4353 153 
L 6081 153 
L 6081 -269 
L 2231 -269 
L 2231 153 
L 3900 153 
L 3900 1653 
L 2606 1653 
L 2606 2069 
L 3900 2069 
L 3900 3372 
L 2984 3372 
Q 2806 2803 2544 2325 
L 2147 2613 
Q 2638 3428 2875 4875 
L 3313 4778 
Q 3234 4309 3106 3788 
z
M 269 2188 
Q 459 2891 525 3950 
L 934 3884 
Q 884 2694 672 1931 
L 269 2188 
z
M 1997 3047 
Q 1872 3591 1650 4078 
L 1984 4256 
Q 2216 3844 2394 3291 
L 1997 3047 
z
M 1159 5313 
L 1613 5313 
L 1613 -447 
L 1159 -447 
L 1159 5313 
z
" transform="scale(0.015625)"/>
     </defs>
     <use xlink:href="#IPAexGothic-5206"/>
     <use xlink:href="#IPAexGothic-5e03" x="100"/>
     <use xlink:href="#IPAexGothic-304c" x="200"/>
     <use xlink:href="#IPAexGothic-5909" x="300"/>
     <use xlink:href="#IPAexGothic-308f" x="400"/>
     <use xlink:href="#IPAexGothic-308b" x="500"/>
     <use xlink:href="#IPAexGothic-53ef" x="600"/>
     <use xlink:href="#IPAexGothic-80fd" x="700"/>
     <use xlink:href="#IPAexGothic-6027" x="800"/>
    </g>
   </g>
   <g id="text_15">
    <!-- グループ別平均 -->
    <g style="fill: #2c3e50" transform="translate(38.88 186.234375) scale(0.12 -0.12)">
     <defs>
      <path id="IPAexGothic-30b0" d="M 4769 4128 
L 5106 3878 
Q 4728 2272 3866 1238 
Q 3106 328 1863 -288 
L 1491 122 
Q 2709 628 3475 1563 
Q 4238 2491 4525 3669 
L 2738 3669 
Q 2022 2591 1191 1897 
L 813 2247 
Q 2163 3338 2766 4959 
L 3256 4819 
Q 3197 4609 2975 4128 
L 4769 4128 
z
M 6009 4422 
Q 5647 4966 5253 5294 
L 5556 5522 
Q 5941 5213 6328 4697 
L 6009 4422 
z
M 5416 3956 
Q 5125 4447 4678 4844 
L 4991 5088 
Q 5363 4781 5747 4231 
L 5416 3956 
z
" transform="scale(0.015625)"/>
      <path id="IPAexGothic-30eb" d="M 353 331 
Q 1313 994 1544 2022 
Q 1684 2650 1684 4397 
L 2203 4397 
L 2203 4153 
L 2203 4116 
Q 2203 2259 1934 1491 
Q 1619 588 744 -38 
L 353 331 
z
M 3125 4666 
L 3650 4666 
L 3650 769 
Q 4875 1488 5672 2734 
L 6000 2278 
Q 5075 966 3516 63 
L 3125 359 
L 3125 4666 
z
" transform="scale(0.015625)"/>
      <path id="IPAexGothic-30d7" d="M 4825 4275 
L 5125 4000 
Q 4884 2378 4081 1381 
Q 3294 413 1888 -116 
L 1522 331 
Q 4069 1113 4550 3803 
L 966 3738 
L 966 4225 
L 4825 4275 
z
M 5597 5509 
Q 5906 5509 6119 5275 
Q 6303 5075 6303 4806 
Q 6303 4494 6069 4281 
Q 5866 4097 5597 4097 
Q 5284 4097 5072 4331 
Q 4888 4534 4888 4806 
Q 4888 5116 5122 5328 
Q 5328 5509 5597 5509 
z
M 5597 5228 
Q 5409 5228 5278 5088 
Q 5169 4966 5169 4806 
Q 5169 4616 5309 4488 
Q 5434 4378 5597 4378 
Q 5784 4378 5913 4519 
Q 6022 4641 6022 4806 
Q 6022 4991 5881 5119 
Q 5759 5228 5597 5228 
z
" transform="scale(0.015625)"/>
      <path id="IPAexGothic-5225" d="M 1922 2963 
Q 1906 2453 1894 2209 
L 3341 2209 
Q 3313 550 3175 63 
Q 3059 -366 2413 -366 
Q 2072 -366 1753 -313 
L 1691 134 
Q 2084 63 2413 63 
Q 2694 63 2759 319 
Q 2856 722 2888 1753 
Q 2888 1800 2894 1819 
L 1863 1819 
Q 1709 350 700 -481 
L 353 -147 
Q 1075 403 1306 1256 
Q 1450 1822 1478 2963 
L 700 2963 
L 700 4984 
L 3278 4984 
L 3278 2963 
L 1922 2963 
z
M 1141 4588 
L 1141 3353 
L 2838 3353 
L 2838 4588 
L 1141 4588 
z
M 3972 4597 
L 4425 4597 
L 4425 1159 
L 3972 1159 
L 3972 4597 
z
M 5309 5044 
L 5763 5044 
L 5763 191 
Q 5763 -141 5581 -263 
Q 5438 -359 5116 -359 
Q 4688 -359 4253 -313 
L 4156 178 
Q 4625 116 5072 116 
Q 5309 116 5309 353 
L 5309 5044 
z
" transform="scale(0.015625)"/>
     </defs>
     <use xlink:href="#IPAexGothic-30b0"/>
     <use xlink:href="#IPAexGothic-30eb" x="100"/>
     <use xlink:href="#IPAexGothic-30fc" x="200"/>
     <use xlink:href="#IPAexGothic-30d7" x="300"/>
     <use xlink:href="#IPAexGothic-5225" x="400"/>
     <use xlink:href="#IPAexGothic-5e73" x="500"/>
     <use xlink:href="#IPAexGothic-5747" x="600"/>
    </g>
   </g>
   <g id="text_16">
    <!-- groupby + transform -->
    <g style="fill: #2c3e50" transform="translate(146.88 186.246562) scale(0.12 -0.12)">
     <defs>
      <path id="IPAexGothic-67" d="M 1331 1150 
Q 1006 1122 1006 900 
Q 1006 613 1763 575 
L 2131 556 
Q 3303 497 3303 -294 
Q 3303 -700 2925 -959 
Q 2519 -1253 1794 -1253 
Q 1138 -1253 738 -1028 
Q 353 -809 353 -428 
Q 353 84 1075 247 
L 1075 269 
Q 506 413 506 778 
Q 506 1116 994 1297 
Q 456 1575 456 2181 
Q 456 2650 769 2963 
Q 1128 3322 1738 3322 
Q 2125 3322 2422 3153 
Q 2650 3453 3259 3463 
L 3259 3013 
Q 2838 3003 2703 2938 
Q 3034 2613 3034 2169 
Q 3034 1728 2734 1425 
Q 2400 1094 1813 1094 
Q 1563 1094 1331 1150 
z
M 1734 2919 
Q 1409 2919 1197 2706 
Q 988 2497 988 2181 
Q 988 1872 1184 1684 
Q 1397 1472 1756 1472 
Q 2094 1472 2297 1678 
Q 2503 1881 2503 2203 
Q 2503 2497 2297 2700 
Q 2081 2919 1734 2919 
z
M 1753 159 
Q 903 159 903 -366 
Q 903 -875 1800 -875 
Q 2378 -875 2638 -606 
Q 2772 -481 2772 -313 
Q 2772 159 1753 159 
z
" transform="scale(0.015625)"/>
      <path id="IPAexGothic-75" d="M 3284 63 
L 2772 63 
L 2772 644 
Q 2300 0 1625 0 
Q 1072 0 763 375 
Q 519 678 519 1241 
L 519 3250 
L 1069 3250 
L 1069 1259 
Q 1069 466 1734 466 
Q 2406 466 2734 1291 
L 2734 3250 
L 3284 3250 
L 3284 63 
z
" transform="scale(0.015625)"/>
      <path id="IPAexGothic-62" d="M 1125 2731 
Q 1550 3341 2219 3341 
Q 2788 3341 3191 2938 
Q 3659 2469 3659 1644 
Q 3659 838 3191 372 
Q 2788 -31 2206 -31 
Q 1559 -31 1088 516 
L 1009 44 
L 581 44 
L 581 4794 
L 1125 4794 
L 1125 2731 
z
M 1125 1997 
L 1125 1253 
Q 1125 888 1528 600 
Q 1803 403 2119 403 
Q 2488 403 2744 659 
Q 3084 1009 3084 1631 
Q 3084 2194 2803 2553 
Q 2525 2900 2125 2900 
Q 1759 2900 1438 2578 
Q 1125 2266 1125 1997 
z
" transform="scale(0.015625)"/>
      <path id="IPAexGothic-79" d="M 3122 3250 
L 1575 -488 
Q 1278 -1203 550 -1203 
L 478 -1203 
L 344 -703 
L 447 -703 
Q 969 -703 1150 -238 
L 1356 275 
L 38 3250 
L 659 3250 
L 1363 1459 
Q 1528 1025 1606 781 
L 1625 781 
Q 1750 1169 1863 1459 
L 2528 3250 
L 3122 3250 
z
" transform="scale(0.015625)"/>
      <path id="IPAexGothic-2b" d="M 2369 1856 
L 2369 219 
L 1984 219 
L 1984 1856 
L 416 1856 
L 416 2216 
L 1984 2216 
L 1984 3725 
L 2369 3725 
L 2369 2216 
L 3922 2216 
L 3922 1856 
L 2369 1856 
z
" transform="scale(0.015625)"/>
      <path id="IPAexGothic-74" d="M 2125 241 
Q 1769 -6 1397 -6 
Q 653 -6 653 831 
L 653 2859 
L 219 2859 
L 219 3250 
L 653 3250 
L 653 3966 
L 1178 4228 
L 1178 3250 
L 2063 3250 
L 2063 2859 
L 1178 2859 
L 1178 906 
Q 1178 416 1513 416 
Q 1738 416 1941 588 
L 2125 241 
z
" transform="scale(0.015625)"/>
      <path id="IPAexGothic-73" d="M 2234 2547 
Q 1938 2931 1484 2931 
Q 891 2931 891 2475 
Q 891 2153 1531 1944 
L 1741 1875 
Q 2650 1578 2650 894 
Q 2650 434 2272 172 
Q 1972 -31 1497 -31 
Q 766 -31 256 503 
L 603 819 
Q 997 397 1516 397 
Q 2131 397 2131 875 
Q 2131 1238 1453 1478 
L 1234 1553 
Q 378 1853 378 2431 
Q 378 2797 628 3047 
Q 928 3347 1453 3347 
Q 2156 3347 2606 2859 
L 2234 2547 
z
" transform="scale(0.015625)"/>
     </defs>
     <use xlink:href="#IPAexGothic-67"/>
     <use xlink:href="#IPAexGothic-72" x="55.517578"/>
     <use xlink:href="#IPAexGothic-6f" x="92.529297"/>
     <use xlink:href="#IPAexGothic-75" x="152.929688"/>
     <use xlink:href="#IPAexGothic-70" x="213.330078"/>
     <use xlink:href="#IPAexGothic-62" x="275.439453"/>
     <use xlink:href="#IPAexGothic-79" x="337.841797"/>
     <use xlink:href="#IPAexGothic-20" x="387.060547"/>
     <use xlink:href="#IPAexGothic-2b" x="414.0625"/>
     <use xlink:href="#IPAexGothic-20" x="481.884766"/>
     <use xlink:href="#IPAexGothic-74" x="508.886719"/>
     <use xlink:href="#IPAexGothic-72" x="543.505859"/>
     <use xlink:href="#IPAexGothic-61" x="580.517578"/>
     <use xlink:href="#IPAexGothic-6e" x="635.498047"/>
     <use xlink:href="#IPAexGothic-73" x="695.898438"/>
     <use xlink:href="#IPAexGothic-66" x="742.089844"/>
     <use xlink:href="#IPAexGothic-6f" x="772.705078"/>
     <use xlink:href="#IPAexGothic-72" x="833.105469"/>
     <use xlink:href="#IPAexGothic-6d" x="870.117188"/>
    </g>
   </g>
   <g id="text_17">
    <!-- グループ間に差がある場合 -->
    <g style="fill: #2c3e50" transform="translate(305.28 186.25125) scale(0.12 -0.12)">
     <defs>
      <path id="IPAexGothic-9593" d="M 4450 2566 
L 4450 353 
L 2375 353 
L 2375 -25 
L 1953 -25 
L 1953 2566 
L 4450 2566 
z
M 4028 2200 
L 2375 2200 
L 2375 1653 
L 4028 1653 
L 4028 2200 
z
M 4028 1300 
L 2375 1300 
L 2375 719 
L 4028 719 
L 4028 1300 
z
M 2913 5019 
L 2913 3059 
L 1056 3059 
L 1056 -447 
L 609 -447 
L 609 5019 
L 2913 5019 
z
M 1056 4659 
L 1056 4206 
L 2497 4206 
L 2497 4659 
L 1056 4659 
z
M 1056 3881 
L 1056 3413 
L 2497 3413 
L 2497 3881 
L 1056 3881 
z
M 5788 5019 
L 5788 91 
Q 5788 -225 5641 -331 
Q 5525 -409 5231 -409 
Q 4803 -409 4481 -366 
L 4419 97 
Q 4853 38 5128 38 
Q 5341 38 5341 244 
L 5341 3059 
L 3438 3059 
L 3438 5019 
L 5788 5019 
z
M 3853 4659 
L 3853 4206 
L 5341 4206 
L 5341 4659 
L 3853 4659 
z
M 3853 3881 
L 3853 3413 
L 5341 3413 
L 5341 3881 
L 3853 3881 
z
" transform="scale(0.015625)"/>
      <path id="IPAexGothic-306b" d="M 1088 -38 
Q 922 1003 922 2081 
Q 922 3222 1331 4794 
L 1813 4684 
Q 1391 3113 1391 2003 
Q 1391 1441 1422 1147 
Q 1434 1181 1813 2016 
L 2125 1797 
Q 1800 1081 1691 763 
Q 1581 453 1581 269 
Q 1581 78 1588 6 
L 1088 -38 
z
M 2834 4038 
Q 3969 4213 5313 4172 
L 5338 3681 
Q 3959 3728 2869 3547 
L 2834 4038 
z
M 5650 256 
Q 5044 172 4372 172 
Q 3463 172 3047 434 
Q 2784 594 2675 841 
Q 2572 1075 2572 1447 
Q 2572 1563 2578 1656 
L 3053 1684 
Q 3050 1613 3044 1528 
Q 3041 1481 3041 1466 
Q 3041 1200 3119 1053 
Q 3178 944 3309 850 
Q 3569 678 4275 678 
Q 4891 678 5588 763 
L 5650 256 
z
" transform="scale(0.015625)"/>
      <path id="IPAexGothic-5dee" d="M 2188 4481 
Q 2013 4781 1766 5084 
L 2194 5275 
Q 2459 4913 2669 4481 
L 3659 4481 
Q 3931 4881 4100 5294 
L 4575 5122 
Q 4353 4766 4150 4481 
L 5725 4481 
L 5725 4103 
L 3403 4103 
L 3403 3519 
L 5431 3519 
L 5431 3147 
L 3403 3147 
L 3403 2534 
L 5975 2534 
L 5975 2138 
L 2341 2138 
Q 2225 1813 2041 1466 
L 5431 1466 
L 5431 1081 
L 3813 1081 
L 3813 103 
L 5913 103 
L 5913 -294 
L 1338 -294 
L 1338 103 
L 3344 103 
L 3344 1081 
L 1803 1081 
Q 1331 400 588 -172 
L 281 200 
Q 1394 966 1875 2138 
L 416 2138 
L 416 2534 
L 2950 2534 
L 2950 3147 
L 959 3147 
L 959 3519 
L 2950 3519 
L 2950 4103 
L 666 4103 
L 666 4481 
L 2188 4481 
z
" transform="scale(0.015625)"/>
     </defs>
     <use xlink:href="#IPAexGothic-30b0"/>
     <use xlink:href="#IPAexGothic-30eb" x="100"/>
     <use xlink:href="#IPAexGothic-30fc" x="200"/>
     <use xlink:href="#IPAexGothic-30d7" x="300"/>
     <use xlink:href="#IPAexGothic-9593" x="400"/>
     <use xlink:href="#IPAexGothic-306b" x="500"/>
     <use xlink:href="#IPAexGothic-5dee" x="600"/>
     <use xlink:href="#IPAexGothic-304c" x="700"/>
     <use xlink:href="#IPAexGothic-3042" x="800"/>
     <use xlink:href="#IPAexGothic-308b" x="900"/>
     <use xlink:href="#IPAexGothic-5834" x="1000"/>
     <use xlink:href="#IPAexGothic-5408" x="1100"/>
    </g>
   </g>
   <g id="text_18">
    <!-- コードが複雑 -->
    <g style="fill: #2c3e50" transform="translate(528.48 186.234375) scale(0.12 -0.12)">
     <defs>
      <path id="IPAexGothic-8907" d="M 4031 2103 
Q 3931 1894 3825 1741 
L 5381 1741 
L 5606 1566 
Q 5222 963 4709 516 
Q 5325 175 6150 -16 
L 5875 -419 
Q 5034 -169 4366 241 
Q 3609 -272 2547 -519 
L 2284 -141 
Q 3369 59 4019 484 
Q 3663 775 3359 1156 
Q 2984 784 2591 538 
L 2297 844 
Q 3131 1319 3575 2103 
L 2988 2103 
L 2988 3647 
Q 2819 3388 2647 3194 
L 2347 3500 
Q 2981 4281 3269 5313 
L 3691 5203 
Q 3606 4916 3519 4684 
L 5966 4684 
L 5966 4313 
L 3359 4313 
Q 3266 4119 3166 3944 
L 5588 3944 
L 5588 2103 
L 4031 2103 
z
M 3391 3597 
L 3391 3200 
L 5184 3200 
L 5184 3597 
L 3391 3597 
z
M 3391 2875 
L 3391 2456 
L 5184 2456 
L 5184 2875 
L 3391 2875 
z
M 4356 728 
Q 4709 1019 4959 1381 
L 3653 1381 
Q 3928 1041 4356 728 
z
M 1675 2466 
Q 1722 2434 1841 2350 
Q 2116 2666 2316 3009 
L 2653 2766 
Q 2416 2450 2116 2153 
Q 2388 1950 2681 1684 
L 2419 1325 
Q 2141 1622 1675 2025 
L 1675 -447 
L 1241 -447 
L 1241 2159 
Q 909 1772 506 1409 
L 275 1825 
Q 1366 2688 1853 3809 
L 416 3809 
L 416 4225 
L 1203 4225 
L 1203 5306 
L 1650 5306 
L 1650 4225 
L 2200 4225 
L 2425 4034 
Q 2103 3306 1675 2716 
L 1675 2466 
z
" transform="scale(0.015625)"/>
      <path id="IPAexGothic-96d1" d="M 1550 1147 
Q 1191 497 597 -50 
L 303 309 
Q 1078 931 1453 1703 
L 372 1703 
L 372 2100 
L 1550 2100 
L 1550 2838 
L 1966 2838 
L 1966 2100 
L 3034 2100 
L 3034 1703 
L 1966 1703 
L 1966 1403 
Q 2572 1066 3066 653 
L 2797 269 
Q 2450 634 1966 1006 
L 1966 -447 
L 1550 -447 
L 1550 1147 
z
M 3853 4097 
L 4600 4097 
L 4625 4153 
Q 4819 4641 4966 5275 
L 5400 5172 
Q 5222 4566 5003 4097 
L 6016 4097 
L 6016 3713 
L 4997 3713 
L 4997 2847 
L 5888 2847 
L 5888 2475 
L 4997 2475 
L 4997 1613 
L 5888 1613 
L 5888 1241 
L 4997 1241 
L 4997 334 
L 6091 334 
L 6091 -63 
L 3841 -63 
L 3841 -447 
L 3425 -447 
L 3425 2969 
Q 3225 2500 3034 2200 
L 2759 2513 
Q 3416 3559 3725 5294 
L 4147 5184 
Q 4028 4644 3853 4097 
z
M 3841 3713 
L 3841 2847 
L 4600 2847 
L 4600 3713 
L 3841 3713 
z
M 3841 2475 
L 3841 1613 
L 4600 1613 
L 4600 2475 
L 3841 2475 
z
M 3841 1241 
L 3841 334 
L 4600 334 
L 4600 1241 
L 3841 1241 
z
M 1638 4538 
L 2456 4538 
L 2456 3341 
Q 2456 3213 2559 3213 
Q 2697 3213 2725 3366 
Q 2756 3559 2756 3866 
L 3091 3756 
Q 3059 3184 2988 3019 
Q 2900 2828 2475 2828 
Q 2206 2828 2122 2913 
Q 2053 2981 2053 3172 
L 2053 4141 
L 1625 4141 
Q 1528 3109 563 2469 
L 275 2803 
Q 1088 3291 1203 4116 
L 441 4116 
L 441 4506 
L 1222 4506 
L 1222 5313 
L 1638 5313 
L 1638 4538 
z
" transform="scale(0.015625)"/>
     </defs>
     <use xlink:href="#IPAexGothic-30b3"/>
     <use xlink:href="#IPAexGothic-30fc" x="100"/>
     <use xlink:href="#IPAexGothic-30c9" x="200"/>
     <use xlink:href="#IPAexGothic-304c" x="300"/>
     <use xlink:href="#IPAexGothic-8907" x="400"/>
     <use xlink:href="#IPAexGothic-96d1" x="500"/>
    </g>
   </g>
   <g id="text_19">
    <!-- ⚠️ 「どれが正解」は一概に言えない。データの性質とビジネス要件に合わせて判断する -->
    <g style="fill: #7d6608" transform="translate(41.04 276.100986) scale(0.13 -0.13)">
     <defs>
      <path id="IPAexGothic-26a0" d="M 5759 -641 
L 641 -641 
L 641 5503 
L 5759 5503 
L 5759 -641 
z
M 5216 5172 
L 1191 5172 
L 3206 2694 
L 5216 5172 
z
M 5428 -53 
L 5428 4903 
L 3419 2425 
L 5428 -53 
z
M 2988 2425 
L 972 4916 
L 972 -59 
L 2988 2425 
z
M 5209 -309 
L 3206 2163 
L 1197 -309 
L 5209 -309 
z
" transform="scale(0.015625)"/>
      <path id="IPAexGothic-fe0f" d="M 5759 -641 
L 641 -641 
L 641 5503 
L 5759 5503 
L 5759 -641 
z
M 5216 5172 
L 1191 5172 
L 3206 2694 
L 5216 5172 
z
M 5428 -53 
L 5428 4903 
L 3419 2425 
L 5428 -53 
z
M 2988 2425 
L 972 4916 
L 972 -59 
L 2988 2425 
z
M 5209 -309 
L 3206 2163 
L 1197 -309 
L 5209 -309 
z
" transform="scale(0.015625)"/>
      <path id="IPAexGothic-300c" d="M 4134 5300 
L 5875 5300 
L 5875 4853 
L 4581 4853 
L 4581 656 
L 4134 656 
L 4134 5300 
z
" transform="scale(0.015625)"/>
      <path id="IPAexGothic-3069" d="M 5222 56 
Q 4200 -72 3450 -72 
Q 2478 -72 1941 113 
Q 1184 372 1184 1038 
Q 1184 1584 1594 2009 
Q 1941 2369 2656 2725 
Q 2231 3734 1972 4878 
L 2491 4978 
Q 2706 3884 3078 2950 
Q 4250 3447 4756 3616 
L 4978 3150 
Q 3181 2575 2409 2078 
Q 1691 1613 1691 1113 
Q 1691 403 3322 403 
Q 4125 403 5134 563 
L 5222 56 
z
M 5778 4153 
Q 5419 4697 5025 5025 
L 5325 5253 
Q 5709 4944 6100 4428 
L 5778 4153 
z
M 5184 3688 
Q 4894 4175 4447 4575 
L 4763 4819 
Q 5134 4513 5516 3963 
L 5184 3688 
z
" transform="scale(0.015625)"/>
      <path id="IPAexGothic-308c" d="M 538 3694 
Q 1275 3791 1800 3903 
L 1838 5006 
L 2316 5006 
L 2253 4006 
L 2619 3675 
Q 2428 3425 2247 3144 
Q 2241 3084 2241 2869 
Q 3341 4031 4134 4031 
Q 4856 4031 4856 3309 
Q 4856 3047 4794 2491 
Q 4719 1747 4719 1044 
Q 4719 672 4922 672 
Q 5084 672 5263 788 
Q 5613 1034 5850 1491 
L 6131 1025 
Q 5856 641 5600 447 
Q 5238 166 4866 166 
Q 4244 166 4244 1100 
Q 4244 1519 4350 2956 
Q 4369 3181 4369 3238 
Q 4369 3434 4297 3513 
Q 4231 3584 4081 3584 
Q 3438 3584 2228 2291 
Q 2222 1931 2222 1478 
Q 2222 753 2241 -159 
L 1747 -159 
Q 1747 1241 1753 1734 
Q 1544 1466 928 647 
L 531 991 
Q 1603 2291 1772 2478 
Q 1772 3038 1791 3469 
Q 1128 3284 653 3194 
L 538 3694 
z
" transform="scale(0.015625)"/>
      <path id="IPAexGothic-6b63" d="M 3547 409 
L 5916 409 
L 5916 -31 
L 481 -31 
L 481 409 
L 1441 409 
L 1441 3231 
L 1934 3231 
L 1934 409 
L 3059 409 
L 3059 4288 
L 750 4288 
L 750 4728 
L 5659 4728 
L 5659 4288 
L 3547 4288 
L 3547 2669 
L 5353 2669 
L 5353 2241 
L 3547 2241 
L 3547 409 
z
" transform="scale(0.015625)"/>
      <path id="IPAexGothic-89e3" d="M 4538 2222 
L 4538 2906 
L 4953 2906 
L 4953 2222 
L 5850 2222 
L 5850 1850 
L 4953 1850 
L 4953 1159 
L 6072 1159 
L 6072 775 
L 4953 775 
L 4953 -447 
L 4538 -447 
L 4538 775 
L 3303 775 
L 3303 1159 
L 4538 1159 
L 4538 1850 
L 3897 1850 
Q 3781 1528 3622 1269 
L 3303 1544 
Q 3600 2072 3706 2734 
L 4103 2663 
Q 4053 2416 4006 2222 
L 4538 2222 
z
M 2394 3803 
L 3141 3803 
L 3141 63 
Q 3141 -213 3006 -306 
Q 2900 -384 2622 -384 
Q 2250 -384 1919 -341 
L 1853 103 
Q 2278 31 2547 31 
Q 2744 31 2744 213 
L 2744 1319 
L 1241 1319 
Q 1191 303 722 -513 
L 394 -178 
Q 863 566 863 1869 
L 863 3181 
Q 738 3000 516 2741 
L 281 3094 
Q 1106 4053 1363 5319 
L 1797 5238 
Q 1747 5044 1719 4959 
L 1700 4891 
L 2653 4891 
L 2853 4684 
Q 2653 4238 2394 3803 
z
M 1809 3450 
L 1259 3450 
L 1259 2747 
L 1809 2747 
L 1809 3450 
z
M 2175 3450 
L 2175 2747 
L 2744 2747 
L 2744 3450 
L 2175 3450 
z
M 1809 2406 
L 1259 2406 
L 1259 1672 
L 1809 1672 
L 1809 2406 
z
M 2175 2406 
L 2175 1672 
L 2744 1672 
L 2744 2406 
L 2175 2406 
z
M 1969 3803 
Q 2172 4141 2322 4531 
L 1572 4531 
Q 1409 4100 1247 3803 
L 1969 3803 
z
M 4622 4594 
Q 4534 3469 3597 2897 
L 3297 3225 
Q 4088 3625 4191 4594 
L 3316 4594 
L 3316 4978 
L 5844 4978 
Q 5813 3791 5734 3422 
Q 5688 3194 5556 3103 
Q 5444 3031 5184 3031 
Q 4863 3031 4556 3078 
L 4500 3475 
Q 4819 3422 5044 3422 
Q 5266 3422 5313 3600 
Q 5372 3831 5400 4594 
L 4622 4594 
z
" transform="scale(0.015625)"/>
      <path id="IPAexGothic-300d" d="M 1819 4209 
L 2266 4209 
L 2266 -434 
L 525 -434 
L 525 13 
L 1819 13 
L 1819 4209 
z
" transform="scale(0.015625)"/>
      <path id="IPAexGothic-306f" d="M 4066 4875 
L 4538 4875 
L 4556 3769 
Q 5003 3816 5581 3941 
L 5619 3469 
Q 5256 3394 4563 3322 
L 4597 1441 
Q 5100 1284 5934 756 
L 5656 313 
Q 5066 772 4609 978 
Q 4609 441 4384 225 
Q 4128 -13 3634 -13 
Q 2991 -13 2669 231 
Q 2388 444 2388 831 
Q 2388 1225 2772 1484 
Q 3050 1669 3534 1669 
Q 3759 1669 4134 1594 
L 4097 3288 
Q 3697 3269 3359 3269 
Q 2925 3269 2484 3300 
L 2466 3763 
Q 2953 3716 3456 3716 
Q 3738 3716 4091 3738 
L 4066 4875 
z
M 4141 1153 
Q 3753 1259 3513 1259 
Q 2841 1259 2841 850 
Q 2841 422 3634 422 
Q 3888 422 4022 569 
Q 4141 700 4141 922 
Q 4141 1088 4141 1153 
z
M 1000 -50 
Q 794 1072 794 1931 
Q 794 3153 1247 4884 
L 1728 4763 
Q 1269 3044 1269 1900 
Q 1269 1569 1306 1106 
Q 1591 1706 1753 1997 
L 2075 1806 
Q 1484 716 1484 141 
Q 1484 72 1491 0 
L 1000 -50 
z
" transform="scale(0.015625)"/>
      <path id="IPAexGothic-6982" d="M 1119 2613 
Q 806 1556 381 850 
L 153 1300 
Q 753 2272 1063 3603 
L 294 3603 
L 294 4013 
L 1119 4013 
L 1119 5306 
L 1522 5306 
L 1522 4013 
L 2078 4013 
L 2078 3603 
L 1522 3603 
L 1522 2956 
Q 1900 2569 2231 2181 
L 1997 1772 
Q 1769 2153 1522 2478 
L 1522 -447 
L 1119 -447 
L 1119 2613 
z
M 5391 4563 
Q 5372 3697 5275 2881 
L 6081 2881 
L 6081 2491 
L 5209 2491 
Q 5209 2484 5103 2066 
L 5294 2066 
L 5294 191 
Q 5294 50 5441 50 
Q 5584 50 5613 197 
Q 5663 397 5672 972 
L 6063 825 
Q 6053 22 5922 -194 
Q 5794 -378 5447 -378 
Q 5069 -378 4975 -281 
Q 4897 -206 4897 19 
L 4897 1497 
Q 4434 369 3253 -506 
L 2963 -172 
Q 4488 872 4813 2491 
L 3706 2491 
L 3706 2206 
L 2631 2206 
L 2631 800 
Q 3088 1053 3425 1259 
Q 3259 1597 3097 1834 
L 3419 2009 
Q 3778 1469 4019 922 
L 3681 653 
Q 3644 747 3566 947 
Q 2859 444 2028 -6 
L 1806 409 
Q 2169 566 2247 606 
L 2247 5050 
L 3706 5050 
L 3706 2881 
L 4159 2881 
L 4159 4563 
L 3878 4563 
L 3878 4953 
L 5881 4953 
L 5881 4563 
L 5391 4563 
z
M 5006 4563 
L 4531 4563 
L 4531 2881 
L 4884 2881 
Q 4984 3706 5006 4563 
z
M 3328 4666 
L 2631 4666 
L 2631 3834 
L 3328 3834 
L 3328 4666 
z
M 3328 3463 
L 2631 3463 
L 2631 2591 
L 3328 2591 
L 3328 3463 
z
" transform="scale(0.015625)"/>
      <path id="IPAexGothic-8a00" d="M 5272 1619 
L 5272 -447 
L 4797 -447 
L 4797 -116 
L 1594 -116 
L 1594 -447 
L 1119 -447 
L 1119 1619 
L 5272 1619 
z
M 1594 1234 
L 1594 269 
L 4797 269 
L 4797 1234 
L 1594 1234 
z
M 1344 4978 
L 5050 4978 
L 5050 4588 
L 1344 4588 
L 1344 4978 
z
M 447 4147 
L 5950 4147 
L 5950 3738 
L 447 3738 
L 447 4147 
z
M 1344 3297 
L 5050 3297 
L 5050 2900 
L 1344 2900 
L 1344 3297 
z
M 1344 2456 
L 5050 2456 
L 5050 2059 
L 1344 2059 
L 1344 2456 
z
" transform="scale(0.015625)"/>
      <path id="IPAexGothic-3048" d="M 3797 4038 
Q 3144 4428 2013 4709 
L 2266 5106 
Q 3388 4838 4078 4469 
L 3797 4038 
z
M 1263 3347 
Q 2566 3428 3956 3641 
L 4291 3263 
Q 3759 2741 2875 1778 
Q 3156 1881 3356 1881 
Q 3909 1881 3919 1253 
L 3931 709 
Q 3941 456 4116 409 
Q 4244 372 4519 372 
Q 4944 372 5538 481 
L 5581 -31 
Q 5097 -103 4675 -103 
Q 4047 -103 3791 25 
Q 3484 178 3463 594 
L 3444 1094 
Q 3434 1491 3150 1491 
Q 2800 1491 2322 1072 
Q 1950 747 1109 -184 
L 738 166 
Q 2053 1434 3597 3181 
Q 2600 2988 1391 2841 
L 1263 3347 
z
" transform="scale(0.015625)"/>
      <path id="IPAexGothic-3044" d="M 3369 1447 
Q 2906 122 2278 122 
Q 1966 122 1647 481 
Q 1209 966 1044 1966 
Q 891 2888 891 4313 
L 1422 4313 
Q 1413 2444 1666 1550 
Q 1913 678 2278 678 
Q 2619 678 2925 1791 
L 3369 1447 
z
M 5378 1294 
Q 4928 2797 4034 3809 
L 4488 4031 
Q 5375 3000 5881 1563 
L 5378 1294 
z
" transform="scale(0.015625)"/>
      <path id="IPAexGothic-3002" d="M 1166 1241 
Q 1366 1241 1563 1138 
Q 2009 900 2009 391 
Q 2009 188 1913 6 
Q 1675 -459 1159 -459 
Q 941 -459 753 -356 
Q 306 -119 306 397 
Q 306 744 569 1003 
Q 806 1241 1166 1241 
z
M 1159 916 
Q 953 916 797 781 
Q 631 625 631 391 
Q 631 278 681 166 
Q 819 -134 1159 -134 
Q 1309 -134 1434 -56 
Q 1684 88 1684 391 
Q 1684 722 1397 866 
Q 1281 916 1159 916 
z
" transform="scale(0.015625)"/>
      <path id="IPAexGothic-8cea" d="M 2022 3194 
L 2022 3922 
L 1297 3922 
Q 1191 3228 747 2763 
L 416 3047 
Q 916 3525 916 4347 
L 916 5006 
Q 1003 5006 1069 5013 
Q 2038 5041 2775 5203 
L 3025 4856 
Q 2116 4694 1322 4666 
L 1322 4341 
L 1322 4269 
L 3159 4269 
L 3159 3922 
L 2431 3922 
L 2431 3194 
L 3097 3194 
L 2903 3347 
Q 3403 3778 3403 4428 
L 3403 5013 
Q 3494 5013 3563 5019 
Q 4375 5038 5266 5222 
L 5613 4872 
Q 4728 4713 3806 4653 
L 3806 4416 
Q 3806 4319 3800 4269 
L 5913 4269 
L 5913 3922 
L 4941 3922 
L 4941 3194 
L 5178 3194 
L 5178 603 
L 1234 603 
L 1234 3194 
L 2022 3194 
z
M 3366 3194 
L 4538 3194 
L 4538 3922 
L 3763 3922 
Q 3666 3503 3366 3194 
z
M 4728 2853 
L 1688 2853 
L 1688 2444 
L 4728 2444 
L 4728 2853 
z
M 1688 2119 
L 1688 1700 
L 4728 1700 
L 4728 2119 
L 1688 2119 
z
M 1688 1375 
L 1688 944 
L 4728 944 
L 4728 1375 
L 1688 1375 
z
M 447 -116 
Q 1503 131 2253 588 
L 2663 325 
Q 1747 -241 794 -525 
L 447 -116 
z
M 5484 -441 
Q 4625 16 3634 319 
L 4056 594 
Q 5003 325 5888 -50 
L 5484 -441 
z
" transform="scale(0.015625)"/>
      <path id="IPAexGothic-3068" d="M 5222 56 
Q 4200 -72 3450 -72 
Q 2478 -72 1941 113 
Q 1184 372 1184 1038 
Q 1184 1584 1594 2009 
Q 1941 2369 2656 2725 
Q 2231 3734 1972 4878 
L 2491 4978 
Q 2706 3884 3078 2950 
Q 4250 3447 4756 3616 
L 4978 3150 
Q 3181 2575 2409 2078 
Q 1691 1613 1691 1113 
Q 1691 403 3322 403 
Q 4125 403 5134 563 
L 5222 56 
z
" transform="scale(0.015625)"/>
      <path id="IPAexGothic-30d3" d="M 1356 4775 
L 1881 4775 
L 1881 2778 
Q 3553 3153 4747 3891 
L 5131 3475 
Q 3644 2681 1881 2297 
L 1881 1063 
Q 1881 744 2072 669 
Q 2266 584 3163 584 
Q 4169 584 5394 716 
L 5394 206 
Q 4259 97 3263 97 
Q 1938 97 1644 294 
Q 1356 478 1356 966 
L 1356 4775 
z
M 5972 4250 
Q 5609 4791 5216 5119 
L 5516 5350 
Q 5900 5041 6291 4525 
L 5972 4250 
z
M 5375 3781 
Q 5084 4272 4641 4672 
L 4953 4916 
Q 5325 4606 5709 4056 
L 5375 3781 
z
" transform="scale(0.015625)"/>
      <path id="IPAexGothic-30b8" d="M 2759 3481 
Q 2150 4006 1544 4309 
L 1844 4731 
Q 2434 4441 3100 3931 
L 2759 3481 
z
M 1094 447 
Q 3875 1041 5269 3475 
L 5619 3078 
Q 4228 650 1416 -50 
L 1094 447 
z
M 2003 2228 
Q 1397 2747 763 3059 
L 1063 3488 
Q 1738 3159 2338 2675 
L 2003 2228 
z
M 5594 4219 
Q 5234 4759 4841 5088 
L 5141 5319 
Q 5525 5009 5916 4494 
L 5594 4219 
z
M 5000 3750 
Q 4709 4241 4263 4641 
L 4578 4884 
Q 4947 4575 5331 4025 
L 5000 3750 
z
" transform="scale(0.015625)"/>
      <path id="IPAexGothic-30cd" d="M 1288 3834 
L 4803 3834 
L 5066 3559 
Q 4419 2813 3466 2134 
L 3466 -294 
L 2953 -294 
L 2953 1800 
Q 1963 1203 1056 891 
L 731 1328 
Q 1797 1631 2844 2281 
Q 3675 2794 4253 3381 
L 1288 3381 
L 1288 3834 
z
M 3669 4031 
Q 3094 4459 2291 4850 
L 2572 5222 
Q 3334 4884 4000 4428 
L 3669 4031 
z
M 5441 838 
Q 4781 1413 3859 1966 
L 4159 2316 
Q 5078 1819 5825 1247 
L 5441 838 
z
" transform="scale(0.015625)"/>
      <path id="IPAexGothic-8981" d="M 2278 4025 
L 2278 4581 
L 528 4581 
L 528 4978 
L 5856 4978 
L 5856 4581 
L 4081 4581 
L 4081 4025 
L 5522 4025 
L 5522 2547 
L 863 2547 
L 863 4025 
L 2278 4025 
z
M 2694 4025 
L 3659 4025 
L 3659 4581 
L 2694 4581 
L 2694 4025 
z
M 2278 3666 
L 1316 3666 
L 1316 2906 
L 2278 2906 
L 2278 3666 
z
M 2694 3666 
L 2694 2906 
L 3659 2906 
L 3659 3666 
L 2694 3666 
z
M 4081 3666 
L 4081 2906 
L 5075 2906 
L 5075 3666 
L 4081 3666 
z
M 3066 338 
Q 2547 503 1694 722 
L 1503 775 
Q 1816 1141 2066 1503 
L 447 1503 
L 447 1900 
L 2316 1900 
Q 2497 2225 2641 2516 
L 3084 2366 
Q 2984 2172 2834 1900 
L 5950 1900 
L 5950 1503 
L 4619 1503 
Q 4369 878 3988 484 
Q 4750 263 5797 -91 
L 5413 -488 
Q 4441 -100 3597 172 
Q 2706 -406 869 -531 
L 625 -97 
Q 2122 -28 3066 338 
z
M 3513 619 
Q 3934 1025 4134 1503 
L 2597 1503 
Q 2413 1213 2238 984 
L 2213 953 
Q 2656 853 3513 619 
z
" transform="scale(0.015625)"/>
      <path id="IPAexGothic-4ef6" d="M 3903 3425 
L 2906 3425 
Q 2697 2825 2309 2247 
L 1991 2572 
Q 2588 3497 2803 4788 
L 3256 4713 
Q 3175 4313 3041 3834 
L 3903 3834 
L 3903 5250 
L 4356 5250 
L 4356 3834 
L 5731 3834 
L 5731 3425 
L 4356 3425 
L 4356 2009 
L 6041 2009 
L 6041 1594 
L 4356 1594 
L 4356 -447 
L 3903 -447 
L 3903 1594 
L 2078 1594 
L 2078 2009 
L 3903 2009 
L 3903 3425 
z
M 1638 3681 
L 1638 -447 
L 1169 -447 
L 1169 2753 
Q 881 2272 575 1863 
L 313 2253 
Q 1238 3463 1650 5184 
L 2125 5069 
Q 1909 4316 1638 3681 
z
" transform="scale(0.015625)"/>
      <path id="IPAexGothic-305b" d="M 4013 4922 
L 4500 4922 
L 4500 3475 
L 5881 3541 
L 5900 3116 
L 4500 3053 
L 4500 1863 
Q 4500 1363 3994 1363 
Q 3563 1363 3169 1516 
L 3169 1997 
Q 3575 1816 3816 1816 
Q 4013 1816 4013 2028 
L 4013 3028 
L 2191 2944 
L 2191 1044 
Q 2191 613 2550 525 
Q 2784 463 3609 463 
Q 4384 463 5172 544 
L 5191 44 
Q 4403 -19 3641 -19 
Q 2456 -19 2081 172 
Q 1697 375 1697 909 
L 1697 2919 
L 488 2859 
L 469 3291 
L 1697 3347 
L 1697 4609 
L 2191 4609 
L 2191 3366 
L 4013 3456 
L 4013 4922 
z
" transform="scale(0.015625)"/>
      <path id="IPAexGothic-3066" d="M 581 4034 
Q 2978 4363 5466 4556 
L 5509 4097 
Q 4388 4031 3750 3572 
Q 2797 2878 2797 1913 
Q 2797 1169 3291 819 
Q 3778 484 4869 416 
L 4906 -116 
Q 2278 0 2278 1850 
Q 2278 3125 3691 4000 
Q 2066 3784 684 3553 
L 581 4034 
z
" transform="scale(0.015625)"/>
      <path id="IPAexGothic-5224" d="M 1844 3059 
L 1844 5313 
L 2291 5313 
L 2291 3059 
L 3578 3059 
L 3578 2656 
L 2291 2656 
L 2291 1766 
L 3694 1766 
L 3694 1363 
L 2291 1363 
L 2291 -450 
L 1844 -450 
L 1844 1363 
L 347 1363 
L 347 1766 
L 1844 1766 
L 1844 2656 
L 531 2656 
L 531 3059 
L 1844 3059 
z
M 1000 3313 
Q 800 4119 531 4666 
L 975 4838 
L 1025 4716 
Q 1316 4028 1466 3463 
L 1000 3313 
z
M 2631 3447 
Q 2972 4197 3150 4900 
L 3631 4734 
Q 3422 4041 3047 3300 
L 2631 3447 
z
M 4084 4538 
L 4531 4538 
L 4531 1050 
L 4084 1050 
L 4084 4538 
z
M 5341 4978 
L 5794 4978 
L 5794 147 
Q 5794 -131 5666 -250 
Q 5528 -359 5150 -359 
Q 4684 -359 4322 -319 
L 4234 166 
Q 4728 94 5072 94 
Q 5341 94 5341 347 
L 5341 4978 
z
" transform="scale(0.015625)"/>
      <path id="IPAexGothic-65ad" d="M 1819 2719 
L 928 2719 
L 928 519 
L 3188 519 
L 3188 128 
L 928 128 
L 928 -319 
L 513 -319 
L 513 4813 
L 928 4813 
L 928 3097 
L 1881 3097 
L 1881 5075 
L 2291 5075 
L 2291 3097 
L 3281 3097 
L 3281 2719 
L 2291 2719 
L 2291 2506 
Q 2819 2059 3194 1606 
L 2919 1247 
Q 2581 1759 2291 2066 
L 2291 666 
L 1881 666 
L 1881 2125 
Q 1613 1400 1197 825 
L 947 1184 
Q 1506 1869 1819 2719 
z
M 3584 4647 
Q 3653 4656 3756 4666 
Q 4731 4772 5503 5063 
L 5875 4666 
Q 5050 4422 4013 4294 
L 4013 3219 
L 6125 3219 
L 6125 2803 
L 5344 2803 
L 5344 -447 
L 4903 -447 
L 4903 2803 
L 4013 2803 
L 4013 2663 
Q 4003 1384 3897 769 
Q 3772 63 3388 -531 
L 3041 -225 
Q 3431 413 3528 1350 
Q 3584 1916 3584 2950 
L 3584 4647 
z
M 1363 3256 
Q 1244 3906 1050 4428 
L 1428 4563 
Q 1622 4069 1759 3391 
L 1363 3256 
z
M 2419 3384 
Q 2678 4050 2816 4634 
L 3231 4494 
Q 3084 3925 2778 3263 
L 2419 3384 
z
" transform="scale(0.015625)"/>
      <path id="IPAexGothic-3059" d="M 3322 5075 
L 3816 5075 
L 3816 4063 
Q 4131 4075 5756 4116 
L 5756 3669 
Q 5431 3672 3816 3653 
L 3816 2463 
Q 3956 2125 3956 1741 
Q 3956 922 3519 397 
Q 3128 -72 2309 -409 
L 1941 -31 
Q 3263 453 3488 1363 
Q 3250 1031 2809 1031 
Q 2441 1031 2150 1313 
Q 1875 1588 1875 2050 
Q 1875 2475 2166 2769 
Q 2431 3041 2822 3041 
Q 3088 3041 3322 2881 
L 3322 3641 
Q 3000 3634 609 3547 
L 609 3988 
Q 1197 4000 2106 4022 
Q 3066 4047 3322 4050 
L 3322 5075 
z
M 3372 2044 
Q 3372 2300 3194 2478 
Q 3050 2613 2869 2613 
Q 2622 2613 2463 2406 
Q 2344 2250 2344 2088 
Q 2344 1797 2484 1622 
Q 2625 1453 2859 1453 
Q 3372 1453 3372 2044 
z
" transform="scale(0.015625)"/>
     </defs>
     <use xlink:href="#IPAexGothic-26a0"/>
     <use xlink:href="#IPAexGothic-fe0f" x="100"/>
     <use xlink:href="#IPAexGothic-20" x="200"/>
     <use xlink:href="#IPAexGothic-300c" x="227.001953"/>
     <use xlink:href="#IPAexGothic-3069" x="327.001953"/>
     <use xlink:href="#IPAexGothic-308c" x="427.001953"/>
     <use xlink:href="#IPAexGothic-304c" x="527.001953"/>
     <use xlink:href="#IPAexGothic-6b63" x="627.001953"/>
     <use xlink:href="#IPAexGothic-89e3" x="727.001953"/>
     <use xlink:href="#IPAexGothic-300d" x="827.001953"/>
     <use xlink:href="#IPAexGothic-306f" x="927.001953"/>
     <use xlink:href="#IPAexGothic-4e00" x="1027.001953"/>
     <use xlink:href="#IPAexGothic-6982" x="1127.001953"/>
     <use xlink:href="#IPAexGothic-306b" x="1227.001953"/>
     <use xlink:href="#IPAexGothic-8a00" x="1327.001953"/>
     <use xlink:href="#IPAexGothic-3048" x="1427.001953"/>
     <use xlink:href="#IPAexGothic-306a" x="1527.001953"/>
     <use xlink:href="#IPAexGothic-3044" x="1627.001953"/>
     <use xlink:href="#IPAexGothic-3002" x="1727.001953"/>
     <use xlink:href="#IPAexGothic-30c7" x="1827.001953"/>
     <use xlink:href="#IPAexGothic-30fc" x="1927.001953"/>
     <use xlink:href="#IPAexGothic-30bf" x="2027.001953"/>
     <use xlink:href="#IPAexGothic-306e" x="2127.001953"/>
     <use xlink:href="#IPAexGothic-6027" x="2227.001953"/>
     <use xlink:href="#IPAexGothic-8cea" x="2327.001953"/>
     <use xlink:href="#IPAexGothic-3068" x="2427.001953"/>
     <use xlink:href="#IPAexGothic-30d3" x="2527.001953"/>
     <use xlink:href="#IPAexGothic-30b8" x="2627.001953"/>
     <use xlink:href="#IPAexGothic-30cd" x="2727.001953"/>
     <use xlink:href="#IPAexGothic-30b9" x="2827.001953"/>
     <use xlink:href="#IPAexGothic-8981" x="2927.001953"/>
     <use xlink:href="#IPAexGothic-4ef6" x="3027.001953"/>
     <use xlink:href="#IPAexGothic-306b" x="3127.001953"/>
     <use xlink:href="#IPAexGothic-5408" x="3227.001953"/>
     <use xlink:href="#IPAexGothic-308f" x="3327.001953"/>
     <use xlink:href="#IPAexGothic-305b" x="3427.001953"/>
     <use xlink:href="#IPAexGothic-3066" x="3527.001953"/>
     <use xlink:href="#IPAexGothic-5224" x="3627.001953"/>
     <use xlink:href="#IPAexGothic-65ad" x="3727.001953"/>
     <use xlink:href="#IPAexGothic-3059" x="3827.001953"/>
     <use xlink:href="#IPAexGothic-308b" x="3927.001953"/>
    </g>
   </g>
  </g>
 </g>
 <defs>
  <clipPath id="pafa5b156d1">
   <rect x="0" y="-0" width="691.2" height="388.8"/>
  </clipPath>
 </defs>
</svg>
