<?xml version="1.0" encoding="utf-8" standalone="no"?>
<!DOCTYPE svg PUBLIC "-//W3C//DTD SVG 1.1//EN"
  "http://www.w3.org/Graphics/SVG/1.1/DTD/svg11.dtd">
<svg xmlns:xlink="http://www.w3.org/1999/xlink" width="691.2pt" height="388.8pt" viewBox="0 0 691.2 388.8" xmlns="http://www.w3.org/2000/svg" version="1.1">
 <metadata>
  <rdf:RDF xmlns:dc="http://purl.org/dc/elements/1.1/" xmlns:cc="http://creativecommons.org/ns#" xmlns:rdf="http://www.w3.org/1999/02/22-rdf-syntax-ns#">
   <cc:Work>
    <dc:type rdf:resource="http://purl.org/dc/dcmitype/StillImage"/>
    <dc:date>2026-04-09T02:37:45.444347</dc:date>
    <dc:format>image/svg+xml</dc:format>
    <dc:creator>
     <cc:Agent>
      <dc:title>Matplotlib v3.9.4, https://matplotlib.org/</dc:title>
     </cc:Agent>
    </dc:creator>
   </cc:Work>
  </rdf:RDF>
 </metadata>
 <defs>
  <style type="text/css">*{stroke-linejoin: round; stroke-linecap: butt}</style>
 </defs>
 <g id="figure_1">
  <g id="patch_1">
   <path d="M 0 388.8 
L 691.2 388.8 
L 691.2 0 
L 0 0 
z
" style="fill: #ffffff"/>
  </g>
  <g id="axes_1">
   <g id="patch_2">
    <path d="M 0 -0 
L 691.2 -0 
L 691.2 24.48 
L 0 24.48 
z
" clip-path="url(#pba2e4c3caa)" style="fill: #4a90d9"/>
   </g>
   <g id="patch_3">
    <path d="M 31.68 59.04 
L 659.52 59.04 
L 659.52 60.48 
L 31.68 60.48 
z
" clip-path="url(#pba2e4c3caa)" style="fill: #ecf0f1"/>
   </g>
   <g id="patch_4">
    <path d="M 31.68 59.04 
L 659.52 59.04 
L 659.52 96.48 
L 31.68 96.48 
z
" clip-path="url(#pba2e4c3caa)" style="fill: #fef9e7"/>
   </g>
   <g id="patch_5">
    <path d="M 31.68 59.04 
L 33.84 59.04 
L 33.84 96.48 
L 31.68 96.48 
z
" clip-path="url(#pba2e4c3caa)" style="fill: #e8a838"/>
   </g>
   <g id="patch_6">
    <path d="M 31.68 234.72 
L 659.52 234.72 
Q 662.4 234.72 662.4 237.6 
L 662.4 331.2 
Q 662.4 334.08 659.52 334.08 
L 31.68 334.08 
Q 28.8 334.08 28.8 331.2 
L 28.8 237.6 
Q 28.8 234.72 31.68 234.72 
z
" clip-path="url(#pba2e4c3caa)" style="fill: #1e1e2e; stroke: #555555; stroke-linejoin: miter"/>
   </g>
   <g id="text_1">
    <!-- Ch.1 データ読み込み・集計 -->
    <g style="fill: #ffffff" transform="translate(31.68 15.061875) scale(0.1 -0.1)">
     <defs>
      <path id="IPAexGothic-43" d="M 4353 1088 
Q 4181 694 3859 428 
Q 3313 -31 2559 -31 
Q 1588 -31 959 653 
Q 378 1294 378 2331 
Q 378 3406 1013 4078 
Q 1619 4725 2534 4725 
Q 3813 4725 4322 3628 
L 3809 3391 
Q 3425 4238 2541 4238 
Q 1891 4238 1453 3744 
Q 994 3216 994 2322 
Q 994 1550 1384 1056 
Q 1841 472 2563 472 
Q 3456 472 3878 1319 
L 4353 1088 
z
" transform="scale(0.015625)"/>
      <path id="IPAexGothic-68" d="M 3347 63 
L 2797 63 
L 2797 2041 
Q 2797 2853 2131 2853 
Q 1447 2853 1131 2041 
L 1131 63 
L 581 63 
L 581 4794 
L 1131 4794 
L 1131 2706 
Q 1566 3316 2247 3316 
Q 3347 3316 3347 2072 
L 3347 63 
z
" transform="scale(0.015625)"/>
      <path id="IPAexGothic-2e" d="M 1184 63 
L 494 63 
L 494 753 
L 1184 753 
L 1184 63 
z
" transform="scale(0.015625)"/>
      <path id="IPAexGothic-31" d="M 2463 63 
L 1900 63 
L 1900 4103 
Q 1372 3922 788 3797 
L 684 4231 
Q 1519 4441 2106 4731 
L 2463 4731 
L 2463 63 
z
" transform="scale(0.015625)"/>
      <path id="IPAexGothic-20" transform="scale(0.015625)"/>
      <path id="IPAexGothic-30c7" d="M 563 3072 
L 5741 3072 
L 5741 2613 
L 3578 2613 
Q 3538 1516 3134 872 
Q 2688 156 1663 -256 
L 1313 156 
Q 2338 538 2713 1166 
Q 3003 1644 3034 2613 
L 563 2613 
L 563 3072 
z
M 1406 4588 
L 4588 4588 
L 4588 4128 
L 1406 4128 
L 1406 4588 
z
M 6009 4469 
Q 5647 5009 5253 5338 
L 5553 5569 
Q 5938 5259 6328 4744 
L 6009 4469 
z
M 5413 4000 
Q 5125 4491 4678 4891 
L 4991 5131 
Q 5363 4825 5747 4275 
L 5413 4000 
z
" transform="scale(0.015625)"/>
      <path id="IPAexGothic-30fc" d="M 588 2688 
L 5809 2688 
L 5809 2175 
L 588 2175 
L 588 2688 
z
" transform="scale(0.015625)"/>
      <path id="IPAexGothic-30bf" d="M 4978 4263 
L 5313 3988 
Q 4797 2431 4056 1459 
Q 3191 325 1822 -300 
L 1466 109 
Q 2131 381 2613 738 
Q 3053 1066 3531 1600 
Q 2919 2225 2144 2791 
Q 1603 2203 1172 1875 
L 825 2234 
Q 2316 3328 2866 5031 
L 3359 4897 
Q 3325 4775 3109 4263 
L 4978 4263 
z
M 2894 3816 
Q 2709 3522 2438 3169 
Q 3194 2616 3841 2003 
Q 4366 2806 4747 3816 
L 2894 3816 
z
" transform="scale(0.015625)"/>
      <path id="IPAexGothic-8aad" d="M 2284 1684 
L 2284 -128 
L 919 -128 
L 919 -447 
L 509 -447 
L 509 1684 
L 2284 1684 
z
M 919 1313 
L 919 244 
L 1875 244 
L 1875 1313 
L 919 1313 
z
M 3953 4538 
L 3953 5313 
L 4394 5313 
L 4394 4538 
L 5994 4538 
L 5994 4153 
L 4394 4153 
L 4394 3572 
L 5822 3572 
L 5822 3194 
L 2653 3194 
L 2653 3572 
L 3953 3572 
L 3953 4153 
L 2506 4153 
L 2506 4538 
L 3953 4538 
z
M 5950 2725 
L 5950 1559 
L 5522 1559 
L 5522 2341 
L 2928 2341 
L 2928 1516 
L 2500 1516 
L 2500 2725 
L 5950 2725 
z
M 600 5044 
L 2194 5044 
L 2194 4659 
L 600 4659 
L 600 5044 
z
M 331 4206 
L 2384 4206 
L 2384 3816 
L 331 3816 
L 331 4206 
z
M 600 3359 
L 2194 3359 
L 2194 2975 
L 600 2975 
L 600 3359 
z
M 600 2522 
L 2194 2522 
L 2194 2138 
L 600 2138 
L 600 2522 
z
M 2353 -91 
Q 3025 194 3244 647 
Q 3431 1044 3441 2069 
L 3872 2069 
Q 3859 869 3634 441 
Q 3334 -109 2616 -475 
L 2353 -91 
z
M 4428 2069 
L 4856 2069 
L 4856 275 
Q 4856 128 4934 88 
Q 4994 63 5175 63 
Q 5500 63 5547 263 
Q 5584 425 5606 984 
L 6034 856 
Q 5994 153 5931 -38 
Q 5825 -372 5144 -372 
Q 4688 -372 4544 -275 
Q 4428 -191 4428 44 
L 4428 2069 
z
" transform="scale(0.015625)"/>
      <path id="IPAexGothic-307f" d="M 1291 4416 
Q 2209 4456 3341 4647 
L 3666 4409 
Q 3478 3597 3134 2703 
Q 3959 2575 4581 2300 
Q 4669 2759 4678 3488 
L 5163 3381 
Q 5134 2672 5016 2106 
Q 5519 1856 6016 1519 
L 5722 1081 
Q 5184 1459 4888 1613 
Q 4572 441 3456 -238 
L 3072 109 
Q 4150 678 4472 1831 
Q 3706 2200 2969 2284 
Q 2038 200 1319 200 
Q 1013 200 775 525 
Q 569 819 569 1197 
Q 569 1756 1081 2172 
Q 1681 2647 2663 2716 
Q 2900 3313 3084 4159 
Q 2278 4022 1447 3956 
L 1291 4416 
z
M 2481 2291 
Q 1644 2206 1241 1734 
Q 1038 1494 1038 1178 
Q 1038 1019 1100 897 
Q 1188 706 1338 706 
Q 1513 706 1797 1097 
Q 2131 1534 2481 2291 
z
" transform="scale(0.015625)"/>
      <path id="IPAexGothic-8fbc" d="M 4294 4897 
L 4294 4456 
Q 4294 3291 4763 2394 
Q 5206 1531 5938 1019 
L 5613 572 
Q 4391 1628 4044 3156 
Q 3706 1475 2503 544 
L 2169 934 
Q 3650 1928 3834 4403 
L 3841 4481 
L 2566 4481 
L 2566 4897 
L 4294 4897 
z
M 1831 775 
Q 2106 428 2516 284 
Q 2906 150 4197 150 
Q 5228 150 6119 216 
Q 6003 13 5944 -269 
Q 5022 -303 4453 -303 
Q 2925 -303 2425 -131 
Q 1900 44 1600 478 
Q 1144 -56 666 -450 
L 372 38 
Q 825 309 1378 759 
L 1378 2303 
L 397 2303 
L 397 2731 
L 1831 2731 
L 1831 775 
z
M 1625 3616 
Q 1191 4200 634 4703 
L 972 4997 
Q 1456 4616 1984 3969 
L 1625 3616 
z
" transform="scale(0.015625)"/>
      <path id="IPAexGothic-30fb" d="M 2772 2859 
L 3628 2859 
L 3628 2003 
L 2772 2003 
L 2772 2859 
z
" transform="scale(0.015625)"/>
      <path id="IPAexGothic-96c6" d="M 3000 4634 
Q 3197 5047 3275 5338 
L 3775 5216 
Q 3634 4922 3447 4634 
L 5625 4634 
L 5625 4269 
L 3416 4269 
L 3416 3884 
L 5291 3884 
L 5291 3553 
L 3416 3553 
L 3416 3175 
L 5291 3175 
L 5291 2844 
L 3416 2844 
L 3416 2431 
L 5759 2431 
L 5759 2066 
L 3403 2066 
L 3403 1659 
L 5981 1659 
L 5981 1281 
L 3741 1281 
Q 4628 538 6078 141 
L 5759 -275 
Q 4266 222 3403 1122 
L 3403 -447 
L 2950 -447 
L 2950 1091 
Q 2094 69 600 -409 
L 294 -25 
Q 1778 388 2644 1281 
L 416 1281 
L 416 1659 
L 2950 1659 
L 2950 2066 
L 1222 2066 
L 1222 3744 
Q 894 3322 600 3066 
L 306 3375 
Q 1209 4163 1625 5338 
L 2091 5244 
Q 1950 4909 1797 4634 
L 3000 4634 
z
M 1663 4269 
L 1663 3884 
L 3000 3884 
L 3000 4269 
L 1663 4269 
z
M 1663 3553 
L 1663 3175 
L 3000 3175 
L 3000 3553 
L 1663 3553 
z
M 1663 2844 
L 1663 2431 
L 3000 2431 
L 3000 2844 
L 1663 2844 
z
" transform="scale(0.015625)"/>
      <path id="IPAexGothic-8a08" d="M 2853 1684 
L 2853 -416 
L 2413 -416 
L 2413 -128 
L 1088 -128 
L 1088 -447 
L 647 -447 
L 647 1684 
L 2853 1684 
z
M 1088 1300 
L 1088 256 
L 2413 256 
L 2413 1300 
L 1088 1300 
z
M 4322 3225 
L 4322 5178 
L 4781 5178 
L 4781 3225 
L 6063 3225 
L 6063 2797 
L 4781 2797 
L 4781 -447 
L 4322 -447 
L 4322 2797 
L 3063 2797 
L 3063 3225 
L 4322 3225 
z
M 781 5044 
L 2722 5044 
L 2722 4647 
L 781 4647 
L 781 5044 
z
M 384 4206 
L 3150 4206 
L 3150 3803 
L 384 3803 
L 384 4206 
z
M 781 3359 
L 2722 3359 
L 2722 2963 
L 781 2963 
L 781 3359 
z
M 781 2522 
L 2722 2522 
L 2722 2125 
L 781 2125 
L 781 2522 
z
" transform="scale(0.015625)"/>
     </defs>
     <use xlink:href="#IPAexGothic-43"/>
     <use xlink:href="#IPAexGothic-68" x="72.509766"/>
     <use xlink:href="#IPAexGothic-2e" x="133.203125"/>
     <use xlink:href="#IPAexGothic-31" x="159.619141"/>
     <use xlink:href="#IPAexGothic-20" x="222.607422"/>
     <use xlink:href="#IPAexGothic-30c7" x="249.609375"/>
     <use xlink:href="#IPAexGothic-30fc" x="349.609375"/>
     <use xlink:href="#IPAexGothic-30bf" x="449.609375"/>
     <use xlink:href="#IPAexGothic-8aad" x="549.609375"/>
     <use xlink:href="#IPAexGothic-307f" x="649.609375"/>
     <use xlink:href="#IPAexGothic-8fbc" x="749.609375"/>
     <use xlink:href="#IPAexGothic-307f" x="849.609375"/>
     <use xlink:href="#IPAexGothic-30fb" x="949.609375"/>
     <use xlink:href="#IPAexGothic-96c6" x="1049.609375"/>
     <use xlink:href="#IPAexGothic-8a08" x="1149.609375"/>
    </g>
   </g>
   <g id="text_2">
    <!-- 欠損値（NaN）とは -->
    <g style="fill: #1a1a2e" transform="translate(31.68 55.4175) scale(0.24 -0.24)">
     <defs>
      <path id="IPAexGothic-6b20" d="M 3241 2347 
Q 2847 388 822 -372 
L 481 63 
Q 2931 784 2931 3403 
L 2931 3744 
L 1997 3744 
Q 1613 2813 1013 2125 
L 647 2491 
Q 1578 3516 1953 5241 
L 2441 5125 
Q 2322 4650 2159 4172 
L 5422 4172 
L 5769 3916 
Q 5253 2869 4725 2188 
L 4309 2481 
Q 4781 3025 5128 3744 
L 3419 3744 
L 3419 3384 
Q 3419 2472 4150 1522 
Q 4778 697 5972 209 
L 5600 -256 
Q 3700 741 3241 2347 
z
" transform="scale(0.015625)"/>
      <path id="IPAexGothic-640d" d="M 1178 4013 
L 1178 5300 
L 1606 5300 
L 1606 4013 
L 2316 4013 
L 2316 3597 
L 1606 3597 
L 1606 2381 
Q 1797 2438 2259 2597 
L 2291 2216 
Q 2022 2106 1606 1972 
L 1606 0 
Q 1606 -272 1484 -363 
Q 1384 -447 1094 -447 
Q 797 -447 519 -409 
L 441 50 
Q 719 -6 966 -6 
Q 1178 -6 1178 172 
L 1178 1831 
Q 753 1703 403 1619 
L 275 2047 
Q 741 2144 1153 2253 
L 1178 2259 
L 1178 3597 
L 372 3597 
L 372 4013 
L 1178 4013 
z
M 5428 5038 
L 5428 3731 
L 2816 3731 
L 2816 5038 
L 5428 5038 
z
M 3244 4678 
L 3244 4084 
L 4997 4084 
L 4997 4678 
L 3244 4678 
z
M 5753 3391 
L 5753 659 
L 2509 659 
L 2509 3391 
L 5753 3391 
z
M 2938 3038 
L 2938 2597 
L 5325 2597 
L 5325 3038 
L 2938 3038 
z
M 2938 2256 
L 2938 1813 
L 5325 1813 
L 5325 2256 
L 2938 2256 
z
M 2938 1472 
L 2938 1006 
L 5325 1006 
L 5325 1472 
L 2938 1472 
z
M 2034 -122 
Q 2828 141 3469 609 
L 3781 313 
Q 3153 -172 2347 -513 
L 2034 -122 
z
M 5803 -447 
Q 5113 16 4356 319 
L 4653 634 
Q 5450 325 6150 -78 
L 5803 -447 
z
" transform="scale(0.015625)"/>
      <path id="IPAexGothic-5024" d="M 4172 3675 
L 5453 3675 
L 5453 684 
L 3019 684 
L 3019 3675 
L 3750 3675 
Q 3788 3884 3825 4153 
L 2141 4153 
L 2141 4544 
L 3884 4544 
Q 3922 4844 3966 5325 
L 4434 5272 
L 4388 4953 
Q 4331 4578 4331 4544 
L 5863 4544 
L 5863 4153 
L 4269 4153 
Q 4200 3781 4172 3675 
z
M 5038 3316 
L 3434 3316 
L 3434 2803 
L 5038 2803 
L 5038 3316 
z
M 3434 2450 
L 3434 1941 
L 5038 1941 
L 5038 2450 
L 3434 2450 
z
M 3434 1588 
L 3434 1044 
L 5038 1044 
L 5038 1588 
L 3434 1588 
z
M 1509 3669 
L 1509 -447 
L 1069 -447 
L 1069 2725 
Q 856 2338 531 1875 
L 288 2266 
Q 1163 3531 1541 5325 
L 1975 5222 
Q 1791 4378 1509 3669 
z
M 2488 244 
L 6031 244 
L 6031 -153 
L 2488 -153 
L 2488 -447 
L 2059 -447 
L 2059 3213 
L 2488 3213 
L 2488 244 
z
" transform="scale(0.015625)"/>
      <path id="IPAexGothic-ff08" d="M 5419 -434 
Q 4197 769 4197 2438 
Q 4197 4097 5419 5300 
L 5919 5300 
Q 4678 4078 4678 2425 
Q 4678 788 5919 -434 
L 5419 -434 
z
" transform="scale(0.015625)"/>
      <path id="IPAexGothic-4e" d="M 4244 63 
L 3731 63 
L 1697 3150 
Q 1466 3500 1141 4097 
L 1116 4097 
L 1128 3797 
Q 1159 2803 1159 2469 
L 1159 63 
L 609 63 
L 609 4634 
L 1366 4634 
L 3113 1978 
Q 3453 1447 3713 966 
L 3738 966 
Q 3694 1897 3694 2469 
L 3694 4634 
L 4244 4634 
L 4244 63 
z
" transform="scale(0.015625)"/>
      <path id="IPAexGothic-61" d="M 3156 63 
L 2672 63 
Q 2559 303 2531 556 
L 2509 556 
Q 2147 -25 1428 -25 
Q 934 -25 622 288 
Q 347 563 347 959 
Q 347 1947 2050 1997 
L 2478 2009 
L 2478 2175 
Q 2478 2509 2288 2700 
Q 2088 2900 1775 2900 
Q 1238 2900 969 2378 
L 494 2597 
Q 938 3328 1788 3328 
Q 2375 3328 2691 3000 
Q 2984 2706 2984 2169 
L 2984 997 
Q 2984 400 3156 63 
z
M 2491 1625 
L 2141 1619 
Q 903 1591 903 953 
Q 903 728 1050 581 
Q 1231 403 1525 403 
Q 1934 403 2234 703 
Q 2491 969 2491 1344 
L 2491 1625 
z
" transform="scale(0.015625)"/>
      <path id="IPAexGothic-ff09" d="M 481 -434 
Q 1722 788 1722 2431 
Q 1722 4066 481 5300 
L 981 5300 
Q 2203 4097 2203 2431 
Q 2203 769 981 -434 
L 481 -434 
z
" transform="scale(0.015625)"/>
      <path id="IPAexGothic-3068" d="M 5222 56 
Q 4200 -72 3450 -72 
Q 2478 -72 1941 113 
Q 1184 372 1184 1038 
Q 1184 1584 1594 2009 
Q 1941 2369 2656 2725 
Q 2231 3734 1972 4878 
L 2491 4978 
Q 2706 3884 3078 2950 
Q 4250 3447 4756 3616 
L 4978 3150 
Q 3181 2575 2409 2078 
Q 1691 1613 1691 1113 
Q 1691 403 3322 403 
Q 4125 403 5134 563 
L 5222 56 
z
" transform="scale(0.015625)"/>
      <path id="IPAexGothic-306f" d="M 4066 4875 
L 4538 4875 
L 4556 3769 
Q 5003 3816 5581 3941 
L 5619 3469 
Q 5256 3394 4563 3322 
L 4597 1441 
Q 5100 1284 5934 756 
L 5656 313 
Q 5066 772 4609 978 
Q 4609 441 4384 225 
Q 4128 -13 3634 -13 
Q 2991 -13 2669 231 
Q 2388 444 2388 831 
Q 2388 1225 2772 1484 
Q 3050 1669 3534 1669 
Q 3759 1669 4134 1594 
L 4097 3288 
Q 3697 3269 3359 3269 
Q 2925 3269 2484 3300 
L 2466 3763 
Q 2953 3716 3456 3716 
Q 3738 3716 4091 3738 
L 4066 4875 
z
M 4141 1153 
Q 3753 1259 3513 1259 
Q 2841 1259 2841 850 
Q 2841 422 3634 422 
Q 3888 422 4022 569 
Q 4141 700 4141 922 
Q 4141 1088 4141 1153 
z
M 1000 -50 
Q 794 1072 794 1931 
Q 794 3153 1247 4884 
L 1728 4763 
Q 1269 3044 1269 1900 
Q 1269 1569 1306 1106 
Q 1591 1706 1753 1997 
L 2075 1806 
Q 1484 716 1484 141 
Q 1484 72 1491 0 
L 1000 -50 
z
" transform="scale(0.015625)"/>
     </defs>
     <use xlink:href="#IPAexGothic-6b20"/>
     <use xlink:href="#IPAexGothic-640d" x="100"/>
     <use xlink:href="#IPAexGothic-5024" x="200"/>
     <use xlink:href="#IPAexGothic-ff08" x="300"/>
     <use xlink:href="#IPAexGothic-4e" x="400"/>
     <use xlink:href="#IPAexGothic-61" x="475.976562"/>
     <use xlink:href="#IPAexGothic-4e" x="530.957031"/>
     <use xlink:href="#IPAexGothic-ff09" x="606.933594"/>
     <use xlink:href="#IPAexGothic-3068" x="706.933594"/>
     <use xlink:href="#IPAexGothic-306f" x="806.933594"/>
    </g>
   </g>
   <g id="text_3">
    <!-- ⚠️ 現実のデータには必ず「空白」が存在します。そのままモデルに入れるとエラーになります。 -->
    <g style="fill: #7d6608" transform="translate(41.04 90.784063) scale(0.13 -0.13)">
     <defs>
      <path id="IPAexGothic-26a0" d="M 5759 -641 
L 641 -641 
L 641 5503 
L 5759 5503 
L 5759 -641 
z
M 5216 5172 
L 1191 5172 
L 3206 2694 
L 5216 5172 
z
M 5428 -53 
L 5428 4903 
L 3419 2425 
L 5428 -53 
z
M 2988 2425 
L 972 4916 
L 972 -59 
L 2988 2425 
z
M 5209 -309 
L 3206 2163 
L 1197 -309 
L 5209 -309 
z
" transform="scale(0.015625)"/>
      <path id="IPAexGothic-fe0f" d="M 5759 -641 
L 641 -641 
L 641 5503 
L 5759 5503 
L 5759 -641 
z
M 5216 5172 
L 1191 5172 
L 3206 2694 
L 5216 5172 
z
M 5428 -53 
L 5428 4903 
L 3419 2425 
L 5428 -53 
z
M 2988 2425 
L 972 4916 
L 972 -59 
L 2988 2425 
z
M 5209 -309 
L 3206 2163 
L 1197 -309 
L 5209 -309 
z
" transform="scale(0.015625)"/>
      <path id="IPAexGothic-73fe" d="M 4788 1638 
L 4788 313 
Q 4788 153 4866 113 
Q 4941 81 5203 81 
Q 5522 81 5581 266 
Q 5625 400 5644 1009 
L 6081 831 
Q 6041 38 5919 -141 
Q 5769 -359 5116 -359 
Q 4566 -359 4444 -219 
Q 4347 -122 4347 97 
L 4347 1638 
L 3847 1638 
Q 3819 794 3469 313 
Q 3134 -144 2331 -441 
L 2028 -56 
Q 2841 184 3134 622 
Q 3378 981 3419 1638 
L 2791 1638 
L 2791 5050 
L 5588 5050 
L 5588 1638 
L 4788 1638 
z
M 3219 4666 
L 3219 4044 
L 5159 4044 
L 5159 4666 
L 3219 4666 
z
M 3219 3666 
L 3219 3047 
L 5159 3047 
L 5159 3666 
L 3219 3666 
z
M 3219 2675 
L 3219 2022 
L 5159 2022 
L 5159 2675 
L 3219 2675 
z
M 1631 4391 
L 1631 3028 
L 2363 3028 
L 2363 2631 
L 1631 2631 
L 1631 1166 
Q 2131 1316 2553 1459 
L 2584 1063 
Q 1581 675 422 359 
L 256 806 
Q 669 897 1203 1044 
L 1203 2631 
L 459 2631 
L 459 3028 
L 1203 3028 
L 1203 4391 
L 384 4391 
L 384 4794 
L 2516 4794 
L 2516 4391 
L 1631 4391 
z
" transform="scale(0.015625)"/>
      <path id="IPAexGothic-5b9f" d="M 3525 1275 
Q 4288 350 6022 91 
L 5738 -375 
Q 3953 -41 3219 1050 
Q 2731 -144 728 -472 
L 466 -44 
Q 2422 150 2872 1275 
L 384 1275 
L 384 1659 
L 2950 1659 
L 2950 2144 
L 966 2144 
L 966 2509 
L 2950 2509 
L 2950 2969 
L 1266 2969 
L 1266 3341 
L 2950 3341 
L 2950 3988 
L 3403 3988 
L 3403 3341 
L 5125 3341 
L 5125 2969 
L 3403 2969 
L 3403 2509 
L 5444 2509 
L 5444 2144 
L 3403 2144 
L 3403 1659 
L 6016 1659 
L 6016 1275 
L 3525 1275 
z
M 3413 4544 
L 5778 4544 
L 5778 3269 
L 5309 3269 
L 5309 4147 
L 1084 4147 
L 1084 3269 
L 616 3269 
L 616 4544 
L 2938 4544 
L 2938 5313 
L 3413 5313 
L 3413 4544 
z
" transform="scale(0.015625)"/>
      <path id="IPAexGothic-306e" d="M 3119 469 
Q 5275 766 5275 2425 
Q 5275 3453 4413 3925 
Q 4041 4116 3547 4159 
Q 3394 2525 2850 1400 
Q 2322 306 1722 306 
Q 1384 306 1084 666 
Q 609 1244 609 2003 
Q 609 3025 1397 3794 
Q 2184 4563 3431 4563 
Q 4306 4563 4928 4122 
Q 5813 3506 5813 2425 
Q 5813 438 3431 6 
L 3119 469 
z
M 3053 4147 
Q 2378 4044 1891 3641 
Q 1097 2981 1097 1991 
Q 1097 1366 1434 978 
Q 1581 813 1719 813 
Q 2022 813 2416 1625 
Q 2909 2638 3053 4147 
z
" transform="scale(0.015625)"/>
      <path id="IPAexGothic-306b" d="M 1088 -38 
Q 922 1003 922 2081 
Q 922 3222 1331 4794 
L 1813 4684 
Q 1391 3113 1391 2003 
Q 1391 1441 1422 1147 
Q 1434 1181 1813 2016 
L 2125 1797 
Q 1800 1081 1691 763 
Q 1581 453 1581 269 
Q 1581 78 1588 6 
L 1088 -38 
z
M 2834 4038 
Q 3969 4213 5313 4172 
L 5338 3681 
Q 3959 3728 2869 3547 
L 2834 4038 
z
M 5650 256 
Q 5044 172 4372 172 
Q 3463 172 3047 434 
Q 2784 594 2675 841 
Q 2572 1075 2572 1447 
Q 2572 1563 2578 1656 
L 3053 1684 
Q 3050 1613 3044 1528 
Q 3041 1481 3041 1466 
Q 3041 1200 3119 1053 
Q 3178 944 3309 850 
Q 3569 678 4275 678 
Q 4891 678 5588 763 
L 5650 256 
z
" transform="scale(0.015625)"/>
      <path id="IPAexGothic-5fc5" d="M 1984 922 
L 1984 3769 
L 2459 3769 
L 2459 1344 
Q 4031 2828 4719 4825 
L 5172 4634 
Q 4263 2306 2459 722 
L 2459 569 
Q 2459 316 2631 266 
Q 2775 222 3363 222 
Q 4100 222 4272 313 
Q 4463 419 4481 1459 
L 4969 1325 
Q 4919 244 4738 13 
Q 4547 -238 3406 -238 
Q 2456 -238 2234 -134 
Q 1994 -28 1984 341 
Q 1409 -97 709 -469 
L 403 -78 
Q 1197 284 1906 863 
L 1984 922 
z
M 3397 3700 
Q 2672 4338 1931 4722 
L 2241 5100 
Q 2972 4713 3731 4116 
L 3397 3700 
z
M 403 1106 
Q 788 1972 934 3263 
L 1416 3166 
Q 1244 1781 844 838 
L 403 1106 
z
M 5678 941 
Q 5266 2097 4781 2894 
L 5184 3097 
Q 5725 2294 6131 1216 
L 5678 941 
z
" transform="scale(0.015625)"/>
      <path id="IPAexGothic-305a" d="M 4922 4269 
Q 4694 4781 4391 5125 
L 4744 5325 
Q 5059 4928 5288 4494 
L 4922 4269 
z
M 5703 4441 
Q 5463 4934 5141 5306 
L 5481 5522 
Q 5781 5172 6056 4691 
L 5703 4441 
z
M 3322 5075 
L 3816 5075 
L 3816 4063 
Q 4131 4075 5756 4116 
L 5756 3669 
Q 5431 3672 3816 3653 
L 3816 2463 
Q 3956 2125 3956 1741 
Q 3956 922 3519 397 
Q 3128 -72 2309 -409 
L 1941 -31 
Q 3263 453 3488 1363 
Q 3250 1031 2809 1031 
Q 2441 1031 2150 1313 
Q 1875 1588 1875 2050 
Q 1875 2475 2166 2769 
Q 2431 3041 2822 3041 
Q 3088 3041 3322 2881 
L 3322 3641 
Q 3000 3634 609 3547 
L 609 3988 
Q 1197 4000 2106 4022 
Q 3066 4047 3322 4050 
L 3322 5075 
z
M 3372 2044 
Q 3372 2300 3194 2478 
Q 3050 2613 2869 2613 
Q 2622 2613 2463 2406 
Q 2344 2250 2344 2088 
Q 2344 1797 2484 1622 
Q 2625 1453 2859 1453 
Q 3372 1453 3372 2044 
z
" transform="scale(0.015625)"/>
      <path id="IPAexGothic-300c" d="M 4134 5300 
L 5875 5300 
L 5875 4853 
L 4581 4853 
L 4581 656 
L 4134 656 
L 4134 5300 
z
" transform="scale(0.015625)"/>
      <path id="IPAexGothic-7a7a" d="M 4003 4072 
L 4003 2959 
Q 4003 2794 4091 2753 
Q 4181 2709 4475 2709 
Q 4944 2709 4991 2844 
Q 5025 2922 5056 3341 
L 5503 3234 
Q 5503 2684 5344 2478 
Q 5200 2288 4456 2288 
Q 3897 2288 3722 2372 
Q 3544 2456 3544 2747 
L 3544 4072 
L 1091 4072 
L 1091 3138 
L 616 3138 
L 616 4488 
L 2934 4488 
L 2934 5313 
L 3422 5313 
L 3422 4488 
L 5781 4488 
L 5781 3363 
L 5306 3363 
L 5306 4072 
L 4003 4072 
z
M 3422 1369 
L 3422 191 
L 5950 191 
L 5950 -225 
L 450 -225 
L 450 191 
L 2934 191 
L 2934 1369 
L 994 1369 
L 994 1791 
L 5406 1791 
L 5406 1369 
L 3422 1369 
z
M 738 2375 
Q 1597 2538 1947 3003 
Q 2209 3344 2284 3963 
L 2716 3872 
Q 2609 2944 2094 2497 
Q 1716 2169 1013 2003 
L 738 2375 
z
" transform="scale(0.015625)"/>
      <path id="IPAexGothic-767d" d="M 2541 4244 
Q 2706 4734 2809 5241 
L 3378 5113 
Q 3234 4644 3041 4244 
L 5363 4244 
L 5363 -353 
L 4869 -353 
L 4869 44 
L 1519 44 
L 1519 -353 
L 1031 -353 
L 1031 4244 
L 2541 4244 
z
M 1519 3816 
L 1519 2419 
L 4869 2419 
L 4869 3816 
L 1519 3816 
z
M 1519 1984 
L 1519 478 
L 4869 478 
L 4869 1984 
L 1519 1984 
z
" transform="scale(0.015625)"/>
      <path id="IPAexGothic-300d" d="M 1819 4209 
L 2266 4209 
L 2266 -434 
L 525 -434 
L 525 13 
L 1819 13 
L 1819 4209 
z
" transform="scale(0.015625)"/>
      <path id="IPAexGothic-304c" d="M 659 3384 
Q 1434 3503 2113 3581 
Q 2313 4341 2394 4972 
L 2900 4875 
Q 2759 4147 2619 3628 
L 2719 3634 
Q 2894 3641 3041 3641 
Q 4072 3641 4072 2369 
Q 4072 1128 3700 384 
Q 3478 -56 3003 -56 
Q 2591 -56 2113 231 
L 2138 775 
Q 2631 444 2925 444 
Q 3169 444 3297 706 
Q 3566 1294 3566 2388 
Q 3566 3219 3016 3219 
Q 2825 3219 2497 3194 
Q 2388 2763 2113 2047 
Q 1634 797 1119 -38 
L 678 244 
Q 1356 1238 1863 2750 
Q 1888 2819 1991 3128 
Q 1594 3081 769 2916 
L 659 3384 
z
M 5441 1838 
Q 4913 3038 4091 3916 
L 4475 4184 
Q 5350 3269 5888 2156 
L 5441 1838 
z
M 5913 4275 
Q 5553 4819 5159 5147 
L 5459 5375 
Q 5844 5066 6234 4550 
L 5913 4275 
z
M 5344 3788 
Q 5053 4278 4609 4678 
L 4922 4922 
Q 5294 4613 5678 4063 
L 5344 3788 
z
" transform="scale(0.015625)"/>
      <path id="IPAexGothic-5b58" d="M 2194 4372 
Q 2316 4781 2431 5263 
L 2903 5159 
Q 2759 4631 2675 4372 
L 5913 4372 
L 5913 3963 
L 2525 3963 
Q 2266 3288 1925 2728 
L 1925 -447 
L 1472 -447 
L 1472 2088 
Q 1106 1625 569 1166 
L 281 1513 
Q 1009 2125 1472 2828 
L 1472 3253 
L 1675 3169 
Q 1922 3628 2047 3963 
L 575 3963 
L 575 4372 
L 2194 4372 
z
M 4347 2088 
L 4347 1806 
L 6009 1806 
L 6009 1416 
L 4372 1416 
L 4372 109 
Q 4372 -384 3822 -384 
Q 3481 -384 3003 -331 
L 2934 134 
Q 3384 38 3741 38 
Q 3925 38 3925 263 
L 3925 1416 
L 2191 1416 
L 2191 1806 
L 3900 1806 
L 3900 2272 
Q 4453 2556 4825 2919 
L 2722 2919 
L 2722 3303 
L 5288 3303 
L 5563 3066 
Q 4978 2494 4347 2088 
z
" transform="scale(0.015625)"/>
      <path id="IPAexGothic-5728" d="M 2200 4372 
Q 2322 4719 2456 5269 
L 2938 5159 
Q 2781 4625 2694 4372 
L 5913 4372 
L 5913 3963 
L 2541 3963 
Q 2528 3938 2522 3919 
Q 2266 3272 1900 2709 
L 1900 -447 
L 1447 -447 
L 1447 2081 
Q 1028 1581 538 1184 
L 256 1538 
Q 972 2109 1447 2816 
L 1447 3253 
L 1663 3163 
Q 1859 3519 2047 3963 
L 575 3963 
L 575 4372 
L 2200 4372 
z
M 3803 2431 
L 3803 3609 
L 4244 3609 
L 4244 2431 
L 5619 2431 
L 5619 2034 
L 4244 2034 
L 4244 263 
L 5997 263 
L 5997 -153 
L 2216 -153 
L 2216 263 
L 3803 263 
L 3803 2034 
L 2491 2034 
L 2491 2431 
L 3803 2431 
z
" transform="scale(0.015625)"/>
      <path id="IPAexGothic-3057" d="M 1750 4884 
L 2281 4884 
L 2238 1319 
Q 2228 809 2391 569 
Q 2594 281 3128 281 
Q 3772 281 4344 744 
Q 4822 1131 5156 1759 
L 5534 1369 
Q 5094 653 4534 263 
Q 3878 -206 3134 -206 
Q 2341 -206 1994 213 
Q 1697 575 1706 1269 
L 1750 4884 
z
" transform="scale(0.015625)"/>
      <path id="IPAexGothic-307e" d="M 3538 5075 
L 3547 4141 
Q 4509 4203 5288 4341 
L 5325 3897 
Q 4744 3809 3553 3719 
L 3566 2925 
Q 4578 3022 5031 3103 
L 5063 2663 
Q 4519 2572 3578 2503 
L 3628 1403 
Q 4531 1128 5459 513 
L 5153 84 
Q 4656 456 3641 909 
Q 3669 331 3391 84 
Q 3116 -153 2559 -153 
Q 1900 -153 1522 72 
Q 1138 297 1138 719 
Q 1138 1163 1634 1413 
Q 1994 1594 2413 1594 
Q 2797 1594 3156 1538 
L 3109 2472 
Q 2641 2450 2413 2450 
Q 1931 2450 1422 2484 
L 1422 2919 
Q 1941 2872 2516 2872 
Q 2706 2872 3097 2894 
L 3072 3688 
Q 2381 3675 2344 3675 
Q 1794 3675 1075 3706 
L 1075 4141 
Q 1744 4097 2431 4097 
Q 2456 4097 3059 4109 
L 3041 5075 
L 3538 5075 
z
M 3163 1088 
Q 2713 1184 2394 1184 
Q 2094 1184 1875 1091 
Q 1606 975 1606 750 
Q 1606 484 1925 363 
Q 2156 275 2503 275 
Q 3163 275 3163 794 
L 3163 1088 
z
" transform="scale(0.015625)"/>
      <path id="IPAexGothic-3059" d="M 3322 5075 
L 3816 5075 
L 3816 4063 
Q 4131 4075 5756 4116 
L 5756 3669 
Q 5431 3672 3816 3653 
L 3816 2463 
Q 3956 2125 3956 1741 
Q 3956 922 3519 397 
Q 3128 -72 2309 -409 
L 1941 -31 
Q 3263 453 3488 1363 
Q 3250 1031 2809 1031 
Q 2441 1031 2150 1313 
Q 1875 1588 1875 2050 
Q 1875 2475 2166 2769 
Q 2431 3041 2822 3041 
Q 3088 3041 3322 2881 
L 3322 3641 
Q 3000 3634 609 3547 
L 609 3988 
Q 1197 4000 2106 4022 
Q 3066 4047 3322 4050 
L 3322 5075 
z
M 3372 2044 
Q 3372 2300 3194 2478 
Q 3050 2613 2869 2613 
Q 2622 2613 2463 2406 
Q 2344 2250 2344 2088 
Q 2344 1797 2484 1622 
Q 2625 1453 2859 1453 
Q 3372 1453 3372 2044 
z
" transform="scale(0.015625)"/>
      <path id="IPAexGothic-3002" d="M 1166 1241 
Q 1366 1241 1563 1138 
Q 2009 900 2009 391 
Q 2009 188 1913 6 
Q 1675 -459 1159 -459 
Q 941 -459 753 -356 
Q 306 -119 306 397 
Q 306 744 569 1003 
Q 806 1241 1166 1241 
z
M 1159 916 
Q 953 916 797 781 
Q 631 625 631 391 
Q 631 278 681 166 
Q 819 -134 1159 -134 
Q 1309 -134 1434 -56 
Q 1684 88 1684 391 
Q 1684 722 1397 866 
Q 1281 916 1159 916 
z
" transform="scale(0.015625)"/>
      <path id="IPAexGothic-305d" d="M 1503 4575 
Q 2897 4641 4378 4813 
L 4641 4488 
Q 3566 3469 2738 2809 
Q 4478 3072 5516 3200 
L 5581 2741 
Q 4425 2644 3884 2394 
Q 2978 1972 2978 1131 
Q 2978 659 3506 450 
Q 3953 272 4819 269 
L 4838 -250 
Q 3725 -241 3200 44 
Q 2497 431 2497 1113 
Q 2497 1916 3403 2534 
Q 1234 2188 781 2106 
L 691 2559 
Q 809 2575 2072 2747 
Q 3203 3694 3872 4378 
Q 2759 4184 1606 4091 
L 1503 4575 
z
" transform="scale(0.015625)"/>
      <path id="IPAexGothic-30e2" d="M 1216 4409 
L 5147 4409 
L 5147 3950 
L 3053 3950 
L 3053 2797 
L 5644 2797 
L 5644 2328 
L 3053 2328 
L 3053 972 
Q 3053 669 3272 600 
Q 3453 544 4013 544 
Q 4556 544 5269 600 
L 5269 97 
Q 4684 50 4147 50 
Q 3025 50 2753 250 
Q 2541 403 2541 825 
L 2541 2328 
L 744 2328 
L 744 2797 
L 2541 2797 
L 2541 3950 
L 1216 3950 
L 1216 4409 
z
" transform="scale(0.015625)"/>
      <path id="IPAexGothic-30eb" d="M 353 331 
Q 1313 994 1544 2022 
Q 1684 2650 1684 4397 
L 2203 4397 
L 2203 4153 
L 2203 4116 
Q 2203 2259 1934 1491 
Q 1619 588 744 -38 
L 353 331 
z
M 3125 4666 
L 3650 4666 
L 3650 769 
Q 4875 1488 5672 2734 
L 6000 2278 
Q 5075 966 3516 63 
L 3125 359 
L 3125 4666 
z
" transform="scale(0.015625)"/>
      <path id="IPAexGothic-5165" d="M 3275 3078 
Q 2806 619 819 -334 
L 447 91 
Q 2934 1156 3000 4550 
L 1472 4550 
L 1472 4984 
L 3525 4984 
L 3525 4728 
Q 3525 3053 4116 2041 
Q 4734 972 6022 275 
L 5650 -200 
Q 3697 1044 3275 3078 
z
" transform="scale(0.015625)"/>
      <path id="IPAexGothic-308c" d="M 538 3694 
Q 1275 3791 1800 3903 
L 1838 5006 
L 2316 5006 
L 2253 4006 
L 2619 3675 
Q 2428 3425 2247 3144 
Q 2241 3084 2241 2869 
Q 3341 4031 4134 4031 
Q 4856 4031 4856 3309 
Q 4856 3047 4794 2491 
Q 4719 1747 4719 1044 
Q 4719 672 4922 672 
Q 5084 672 5263 788 
Q 5613 1034 5850 1491 
L 6131 1025 
Q 5856 641 5600 447 
Q 5238 166 4866 166 
Q 4244 166 4244 1100 
Q 4244 1519 4350 2956 
Q 4369 3181 4369 3238 
Q 4369 3434 4297 3513 
Q 4231 3584 4081 3584 
Q 3438 3584 2228 2291 
Q 2222 1931 2222 1478 
Q 2222 753 2241 -159 
L 1747 -159 
Q 1747 1241 1753 1734 
Q 1544 1466 928 647 
L 531 991 
Q 1603 2291 1772 2478 
Q 1772 3038 1791 3469 
Q 1128 3284 653 3194 
L 538 3694 
z
" transform="scale(0.015625)"/>
      <path id="IPAexGothic-308b" d="M 4391 4397 
L 2613 2588 
Q 3225 2809 3759 2809 
Q 4263 2809 4659 2625 
Q 5391 2269 5391 1484 
Q 5391 756 4706 275 
Q 4072 -166 3053 -166 
Q 2559 -166 2247 19 
Q 1863 250 1863 666 
Q 1863 934 2069 1141 
Q 2331 1403 2741 1403 
Q 3509 1403 4019 428 
Q 4872 784 4872 1491 
Q 4872 1981 4469 2222 
Q 4166 2406 3681 2406 
Q 2425 2406 1238 1209 
L 891 1581 
Q 2438 2934 3578 4281 
Q 2594 4125 1588 4066 
L 1478 4550 
Q 2594 4581 4109 4763 
L 4391 4397 
z
M 3591 303 
Q 3244 1025 2731 1025 
Q 2553 1025 2434 934 
Q 2316 844 2316 700 
Q 2316 250 3034 250 
Q 3275 250 3591 303 
z
" transform="scale(0.015625)"/>
      <path id="IPAexGothic-30a8" d="M 1109 4063 
L 5294 4063 
L 5294 3594 
L 3444 3594 
L 3444 988 
L 5759 988 
L 5759 513 
L 641 513 
L 641 988 
L 2913 988 
L 2913 3594 
L 1109 3594 
L 1109 4063 
z
" transform="scale(0.015625)"/>
      <path id="IPAexGothic-30e9" d="M 1447 4709 
L 4922 4709 
L 4922 4234 
L 1447 4234 
L 1447 4709 
z
M 897 3303 
L 5172 3303 
L 5478 3013 
Q 5069 1669 4219 875 
Q 3475 181 2306 -181 
L 1972 294 
Q 4150 784 4834 2828 
L 897 2828 
L 897 3303 
z
" transform="scale(0.015625)"/>
      <path id="IPAexGothic-306a" d="M 3906 3147 
L 4372 3147 
Q 4381 2278 4444 1272 
Q 5244 1003 5838 631 
L 5556 222 
Q 4953 600 4463 813 
Q 4478 263 4234 22 
Q 3984 -225 3419 -225 
Q 2897 -225 2563 0 
Q 2216 231 2216 647 
Q 2216 1081 2656 1319 
Q 2959 1484 3297 1484 
Q 3638 1484 3969 1413 
Q 3916 2219 3906 3147 
z
M 3975 984 
Q 3631 1081 3297 1081 
Q 3031 1081 2856 978 
Q 2663 863 2663 653 
Q 2663 197 3400 197 
Q 3750 197 3875 378 
Q 3997 556 3975 984 
z
M 738 3928 
Q 1453 3884 1997 3938 
Q 2144 4381 2294 5125 
L 2784 5050 
Q 2684 4559 2516 3988 
Q 2969 4031 3559 4172 
L 3578 3713 
Q 2919 3575 2375 3531 
Q 1853 2028 1044 831 
L 603 1113 
Q 1325 2063 1856 3488 
Q 1063 3459 763 3475 
L 738 3928 
z
M 5538 2759 
Q 5000 3353 4263 3853 
L 4591 4191 
Q 5338 3728 5897 3128 
L 5538 2759 
z
" transform="scale(0.015625)"/>
      <path id="IPAexGothic-308a" d="M 2878 2925 
Q 2503 2294 2372 2041 
Q 2222 1750 2163 1459 
L 1716 1503 
Q 1509 2131 1509 3091 
Q 1509 3744 1663 4872 
L 2181 4806 
Q 2003 3541 2003 3016 
Q 2003 2613 2028 2259 
Q 2109 2413 2313 2766 
Q 2484 3063 2578 3238 
L 2878 2925 
z
M 2488 128 
Q 3534 503 3928 1184 
Q 4234 1713 4234 2975 
Q 4234 3872 4122 4928 
L 4666 4928 
Q 4759 3794 4759 2975 
Q 4759 1516 4356 844 
Q 3913 103 2853 -288 
L 2488 128 
z
" transform="scale(0.015625)"/>
     </defs>
     <use xlink:href="#IPAexGothic-26a0"/>
     <use xlink:href="#IPAexGothic-fe0f" x="100"/>
     <use xlink:href="#IPAexGothic-20" x="200"/>
     <use xlink:href="#IPAexGothic-73fe" x="227.001953"/>
     <use xlink:href="#IPAexGothic-5b9f" x="327.001953"/>
     <use xlink:href="#IPAexGothic-306e" x="427.001953"/>
     <use xlink:href="#IPAexGothic-30c7" x="527.001953"/>
     <use xlink:href="#IPAexGothic-30fc" x="627.001953"/>
     <use xlink:href="#IPAexGothic-30bf" x="727.001953"/>
     <use xlink:href="#IPAexGothic-306b" x="827.001953"/>
     <use xlink:href="#IPAexGothic-306f" x="927.001953"/>
     <use xlink:href="#IPAexGothic-5fc5" x="1027.001953"/>
     <use xlink:href="#IPAexGothic-305a" x="1127.001953"/>
     <use xlink:href="#IPAexGothic-300c" x="1227.001953"/>
     <use xlink:href="#IPAexGothic-7a7a" x="1327.001953"/>
     <use xlink:href="#IPAexGothic-767d" x="1427.001953"/>
     <use xlink:href="#IPAexGothic-300d" x="1527.001953"/>
     <use xlink:href="#IPAexGothic-304c" x="1627.001953"/>
     <use xlink:href="#IPAexGothic-5b58" x="1727.001953"/>
     <use xlink:href="#IPAexGothic-5728" x="1827.001953"/>
     <use xlink:href="#IPAexGothic-3057" x="1927.001953"/>
     <use xlink:href="#IPAexGothic-307e" x="2027.001953"/>
     <use xlink:href="#IPAexGothic-3059" x="2127.001953"/>
     <use xlink:href="#IPAexGothic-3002" x="2227.001953"/>
     <use xlink:href="#IPAexGothic-305d" x="2327.001953"/>
     <use xlink:href="#IPAexGothic-306e" x="2427.001953"/>
     <use xlink:href="#IPAexGothic-307e" x="2527.001953"/>
     <use xlink:href="#IPAexGothic-307e" x="2627.001953"/>
     <use xlink:href="#IPAexGothic-30e2" x="2727.001953"/>
     <use xlink:href="#IPAexGothic-30c7" x="2827.001953"/>
     <use xlink:href="#IPAexGothic-30eb" x="2927.001953"/>
     <use xlink:href="#IPAexGothic-306b" x="3027.001953"/>
     <use xlink:href="#IPAexGothic-5165" x="3127.001953"/>
     <use xlink:href="#IPAexGothic-308c" x="3227.001953"/>
     <use xlink:href="#IPAexGothic-308b" x="3327.001953"/>
     <use xlink:href="#IPAexGothic-3068" x="3427.001953"/>
     <use xlink:href="#IPAexGothic-30a8" x="3527.001953"/>
     <use xlink:href="#IPAexGothic-30e9" x="3627.001953"/>
     <use xlink:href="#IPAexGothic-30fc" x="3727.001953"/>
     <use xlink:href="#IPAexGothic-306b" x="3827.001953"/>
     <use xlink:href="#IPAexGothic-306a" x="3927.001953"/>
     <use xlink:href="#IPAexGothic-308a" x="4027.001953"/>
     <use xlink:href="#IPAexGothic-307e" x="4127.001953"/>
     <use xlink:href="#IPAexGothic-3059" x="4227.001953"/>
     <use xlink:href="#IPAexGothic-3002" x="4327.001953"/>
    </g>
   </g>
   <g id="text_4">
    <!-- ▸ -->
    <g style="fill: #4a90d9" transform="translate(33.12 116.755) scale(0.095 -0.095)">
     <defs>
      <path id="IPAexGothic-25b8" d="M 5759 -641 
L 641 -641 
L 641 5503 
L 5759 5503 
L 5759 -641 
z
M 5216 5172 
L 1191 5172 
L 3206 2694 
L 5216 5172 
z
M 5428 -53 
L 5428 4903 
L 3419 2425 
L 5428 -53 
z
M 2988 2425 
L 972 4916 
L 972 -59 
L 2988 2425 
z
M 5209 -309 
L 3206 2163 
L 1197 -309 
L 5209 -309 
z
" transform="scale(0.015625)"/>
     </defs>
     <use xlink:href="#IPAexGothic-25b8"/>
    </g>
   </g>
   <g id="text_5">
    <!-- NaN = Not a Number（値が記録されていない） -->
    <g style="fill: #2c3e50" transform="translate(46.08 118.486875) scale(0.14 -0.14)">
     <defs>
      <path id="IPAexGothic-3d" d="M 416 2803 
L 3922 2803 
L 3922 2438 
L 416 2438 
L 416 2803 
z
M 416 1625 
L 3922 1625 
L 3922 1259 
L 416 1259 
L 416 1625 
z
" transform="scale(0.015625)"/>
      <path id="IPAexGothic-6f" d="M 1919 3341 
Q 2594 3341 3056 2888 
Q 3531 2413 3531 1638 
Q 3531 888 3066 422 
Q 2609 -31 1919 -31 
Q 1228 -31 781 416 
Q 313 881 313 1656 
Q 313 2413 788 2888 
Q 1241 3341 1919 3341 
z
M 1919 2919 
Q 1519 2919 1241 2631 
Q 888 2278 888 1650 
Q 888 1031 1234 684 
Q 1516 403 1919 403 
Q 2331 403 2609 691 
Q 2956 1038 2956 1672 
Q 2956 2269 2603 2631 
Q 2316 2919 1919 2919 
z
" transform="scale(0.015625)"/>
      <path id="IPAexGothic-74" d="M 2125 241 
Q 1769 -6 1397 -6 
Q 653 -6 653 831 
L 653 2859 
L 219 2859 
L 219 3250 
L 653 3250 
L 653 3966 
L 1178 4228 
L 1178 3250 
L 2063 3250 
L 2063 2859 
L 1178 2859 
L 1178 906 
Q 1178 416 1513 416 
Q 1738 416 1941 588 
L 2125 241 
z
" transform="scale(0.015625)"/>
      <path id="IPAexGothic-75" d="M 3284 63 
L 2772 63 
L 2772 644 
Q 2300 0 1625 0 
Q 1072 0 763 375 
Q 519 678 519 1241 
L 519 3250 
L 1069 3250 
L 1069 1259 
Q 1069 466 1734 466 
Q 2406 466 2734 1291 
L 2734 3250 
L 3284 3250 
L 3284 63 
z
" transform="scale(0.015625)"/>
      <path id="IPAexGothic-6d" d="M 5022 63 
L 4472 63 
L 4472 2059 
Q 4472 2869 3847 2869 
Q 3550 2869 3303 2594 
Q 3128 2397 3059 2103 
L 3059 63 
L 2509 63 
L 2509 2066 
Q 2509 2869 1919 2869 
Q 1606 2869 1369 2594 
Q 1113 2306 1113 2041 
L 1113 63 
L 563 63 
L 563 3250 
L 1075 3250 
L 1075 2700 
Q 1391 3316 2028 3316 
Q 2725 3316 2956 2647 
Q 3303 3316 3953 3316 
Q 4478 3316 4772 2944 
Q 5022 2638 5022 2072 
L 5022 63 
z
" transform="scale(0.015625)"/>
      <path id="IPAexGothic-62" d="M 1125 2731 
Q 1550 3341 2219 3341 
Q 2788 3341 3191 2938 
Q 3659 2469 3659 1644 
Q 3659 838 3191 372 
Q 2788 -31 2206 -31 
Q 1559 -31 1088 516 
L 1009 44 
L 581 44 
L 581 4794 
L 1125 4794 
L 1125 2731 
z
M 1125 1997 
L 1125 1253 
Q 1125 888 1528 600 
Q 1803 403 2119 403 
Q 2488 403 2744 659 
Q 3084 1009 3084 1631 
Q 3084 2194 2803 2553 
Q 2525 2900 2125 2900 
Q 1759 2900 1438 2578 
Q 1125 2266 1125 1997 
z
" transform="scale(0.015625)"/>
      <path id="IPAexGothic-65" d="M 863 1594 
Q 891 1041 1209 722 
Q 1534 397 1997 397 
Q 2606 397 2963 966 
L 3322 728 
Q 2869 -31 1931 -31 
Q 1222 -31 766 422 
Q 306 884 306 1641 
Q 306 2444 788 2925 
Q 1216 3353 1856 3353 
Q 2459 3353 2866 2956 
Q 3322 2494 3322 1722 
L 3322 1594 
L 863 1594 
z
M 2756 1997 
Q 2709 2431 2450 2681 
Q 2194 2938 1844 2938 
Q 1438 2938 1150 2591 
Q 953 2356 894 1997 
L 2756 1997 
z
" transform="scale(0.015625)"/>
      <path id="IPAexGothic-72" d="M 2309 3316 
L 2213 2769 
Q 2106 2791 2022 2791 
Q 1653 2791 1413 2444 
Q 1113 2006 1113 1675 
L 1113 63 
L 563 63 
L 563 3250 
L 1081 3250 
L 1056 2303 
L 1069 2303 
Q 1422 3341 2097 3341 
Q 2206 3341 2309 3316 
z
" transform="scale(0.015625)"/>
      <path id="IPAexGothic-8a18" d="M 3603 2425 
L 3603 506 
Q 3603 284 3719 238 
Q 3853 188 4444 188 
Q 5363 188 5463 372 
Q 5553 550 5566 1319 
L 6038 1191 
Q 5991 188 5838 -31 
Q 5709 -200 5444 -238 
Q 5094 -288 4469 -288 
Q 3666 -288 3444 -209 
Q 3150 -106 3150 306 
L 3150 2834 
L 5200 2834 
L 5200 4372 
L 2919 4372 
L 2919 4781 
L 5641 4781 
L 5641 2078 
L 5200 2078 
L 5200 2425 
L 3603 2425 
z
M 2566 1684 
L 2566 -128 
L 991 -128 
L 991 -447 
L 563 -447 
L 563 1684 
L 2566 1684 
z
M 991 1313 
L 991 244 
L 2138 244 
L 2138 1313 
L 991 1313 
z
M 672 5044 
L 2459 5044 
L 2459 4659 
L 672 4659 
L 672 5044 
z
M 366 4206 
L 2734 4206 
L 2734 3816 
L 366 3816 
L 366 4206 
z
M 672 3359 
L 2459 3359 
L 2459 2975 
L 672 2975 
L 672 3359 
z
M 672 2522 
L 2459 2522 
L 2459 2138 
L 672 2138 
L 672 2522 
z
" transform="scale(0.015625)"/>
      <path id="IPAexGothic-9332" d="M 2706 500 
L 2759 525 
Q 3331 825 3944 1369 
L 4063 991 
Q 3641 569 2859 72 
L 2681 428 
Q 1697 -9 481 -378 
L 294 44 
Q 822 178 1422 366 
L 1422 2138 
L 409 2138 
L 409 2522 
L 1422 2522 
L 1422 3181 
L 794 3181 
Q 691 3056 475 2816 
L 256 3194 
Q 1047 4072 1478 5325 
L 1900 5222 
Q 1894 5209 1859 5116 
Q 1834 5056 1819 5013 
Q 2475 4491 2950 3925 
L 2663 3516 
Q 2206 4138 1716 4609 
L 1663 4653 
Q 1344 3963 1075 3566 
L 2503 3566 
L 2503 3181 
L 1838 3181 
L 1838 2522 
L 2700 2522 
L 2700 2138 
L 1838 2138 
L 1838 506 
Q 2125 606 2675 838 
L 2706 500 
z
M 4609 2706 
Q 4753 2106 4953 1716 
Q 5263 1997 5631 2494 
L 6003 2194 
Q 5622 1775 5141 1381 
Q 5513 809 6163 331 
L 5825 -31 
Q 5000 631 4597 1753 
L 4597 6 
Q 4597 -416 4128 -416 
Q 3909 -416 3534 -384 
L 3450 72 
Q 3706 6 4013 6 
Q 4181 6 4181 184 
L 4181 2706 
L 2697 2706 
L 2697 3091 
L 4878 3091 
L 4878 3706 
L 3150 3706 
L 3150 4078 
L 4878 4078 
L 4878 4672 
L 2978 4672 
L 2978 5050 
L 5300 5050 
L 5300 3091 
L 6094 3091 
L 6094 2706 
L 4609 2706 
z
M 775 544 
Q 672 1153 472 1722 
L 875 1838 
Q 1069 1259 1178 672 
L 775 544 
z
M 1991 903 
Q 2194 1388 2328 1966 
L 2750 1838 
Q 2569 1241 2341 813 
L 1991 903 
z
M 3641 1350 
Q 3322 1831 2944 2169 
L 3250 2425 
Q 3644 2078 3969 1656 
L 3641 1350 
z
" transform="scale(0.015625)"/>
      <path id="IPAexGothic-3055" d="M 1747 1184 
Q 1747 834 2094 609 
Q 2422 391 3706 391 
Q 4088 391 4422 434 
L 4478 -50 
Q 4116 -84 3853 -84 
Q 3000 -84 2544 -13 
Q 2044 69 1759 263 
Q 1272 597 1272 1125 
Q 1272 1638 1728 1953 
Q 2163 2253 2884 2253 
Q 3741 2253 4300 2003 
Q 3797 2556 3322 3438 
Q 2128 3219 1113 3219 
L 966 3694 
Q 1150 3688 1388 3688 
Q 2291 3688 3128 3847 
Q 2919 4253 2597 4953 
L 3059 5081 
Q 3347 4384 3591 3950 
Q 4375 4147 5028 4481 
L 5297 4056 
Q 4653 3763 3775 3547 
Q 4309 2597 5069 1703 
L 4672 1363 
Q 3994 1838 2872 1838 
Q 2278 1838 1984 1628 
Q 1747 1459 1747 1184 
z
" transform="scale(0.015625)"/>
      <path id="IPAexGothic-3066" d="M 581 4034 
Q 2978 4363 5466 4556 
L 5509 4097 
Q 4388 4031 3750 3572 
Q 2797 2878 2797 1913 
Q 2797 1169 3291 819 
Q 3778 484 4869 416 
L 4906 -116 
Q 2278 0 2278 1850 
Q 2278 3125 3691 4000 
Q 2066 3784 684 3553 
L 581 4034 
z
" transform="scale(0.015625)"/>
      <path id="IPAexGothic-3044" d="M 3369 1447 
Q 2906 122 2278 122 
Q 1966 122 1647 481 
Q 1209 966 1044 1966 
Q 891 2888 891 4313 
L 1422 4313 
Q 1413 2444 1666 1550 
Q 1913 678 2278 678 
Q 2619 678 2925 1791 
L 3369 1447 
z
M 5378 1294 
Q 4928 2797 4034 3809 
L 4488 4031 
Q 5375 3000 5881 1563 
L 5378 1294 
z
" transform="scale(0.015625)"/>
     </defs>
     <use xlink:href="#IPAexGothic-4e"/>
     <use xlink:href="#IPAexGothic-61" x="75.976562"/>
     <use xlink:href="#IPAexGothic-4e" x="130.957031"/>
     <use xlink:href="#IPAexGothic-20" x="206.933594"/>
     <use xlink:href="#IPAexGothic-3d" x="233.935547"/>
     <use xlink:href="#IPAexGothic-20" x="301.757812"/>
     <use xlink:href="#IPAexGothic-4e" x="328.759766"/>
     <use xlink:href="#IPAexGothic-6f" x="404.736328"/>
     <use xlink:href="#IPAexGothic-74" x="465.136719"/>
     <use xlink:href="#IPAexGothic-20" x="499.755859"/>
     <use xlink:href="#IPAexGothic-61" x="526.757812"/>
     <use xlink:href="#IPAexGothic-20" x="581.738281"/>
     <use xlink:href="#IPAexGothic-4e" x="608.740234"/>
     <use xlink:href="#IPAexGothic-75" x="684.716797"/>
     <use xlink:href="#IPAexGothic-6d" x="745.117188"/>
     <use xlink:href="#IPAexGothic-62" x="832.226562"/>
     <use xlink:href="#IPAexGothic-65" x="894.628906"/>
     <use xlink:href="#IPAexGothic-72" x="951.513672"/>
     <use xlink:href="#IPAexGothic-ff08" x="988.525391"/>
     <use xlink:href="#IPAexGothic-5024" x="1088.525391"/>
     <use xlink:href="#IPAexGothic-304c" x="1188.525391"/>
     <use xlink:href="#IPAexGothic-8a18" x="1288.525391"/>
     <use xlink:href="#IPAexGothic-9332" x="1388.525391"/>
     <use xlink:href="#IPAexGothic-3055" x="1488.525391"/>
     <use xlink:href="#IPAexGothic-308c" x="1588.525391"/>
     <use xlink:href="#IPAexGothic-3066" x="1688.525391"/>
     <use xlink:href="#IPAexGothic-3044" x="1788.525391"/>
     <use xlink:href="#IPAexGothic-306a" x="1888.525391"/>
     <use xlink:href="#IPAexGothic-3044" x="1988.525391"/>
     <use xlink:href="#IPAexGothic-ff09" x="2088.525391"/>
    </g>
   </g>
   <g id="text_6">
    <!-- 原因：入力ミス・センサー故障・アンケート未回答 など -->
    <g style="fill: #7f8c8d" transform="translate(53.28 143.225156) scale(0.105 -0.105)">
     <defs>
      <path id="IPAexGothic-539f" d="M 3600 3816 
L 5359 3816 
L 5359 1575 
L 3944 1575 
L 3944 6 
Q 3944 -434 3459 -434 
Q 3059 -434 2722 -384 
L 2638 72 
Q 2991 0 3297 0 
Q 3491 0 3491 213 
L 3491 1575 
L 1941 1575 
L 1941 3816 
L 3156 3816 
Q 3259 4116 3331 4403 
L 1347 4403 
L 1347 3138 
Q 1347 1613 1206 872 
Q 1078 181 738 -453 
L 341 -97 
Q 872 900 872 2850 
L 872 4831 
L 5922 4831 
L 5922 4403 
L 3816 4403 
Q 3706 4066 3600 3816 
z
M 4919 3456 
L 2381 3456 
L 2381 2894 
L 4919 2894 
L 4919 3456 
z
M 2381 2528 
L 2381 1941 
L 4919 1941 
L 4919 2528 
L 2381 2528 
z
M 5575 -122 
Q 5006 622 4419 1100 
L 4775 1381 
Q 5447 847 5966 225 
L 5575 -122 
z
M 1353 84 
Q 1994 591 2422 1338 
L 2838 1125 
Q 2353 294 1716 -256 
L 1353 84 
z
" transform="scale(0.015625)"/>
      <path id="IPAexGothic-56e0" d="M 3494 2906 
Q 3875 1681 5009 1000 
L 4697 628 
Q 3619 1325 3244 2509 
Q 3034 1138 1722 544 
L 1428 903 
Q 2750 1406 2931 2906 
L 1413 2906 
L 1413 3297 
L 2950 3297 
L 2950 4281 
L 3403 4281 
L 3403 3297 
L 4978 3297 
L 4978 2906 
L 3494 2906 
z
M 5716 4884 
L 5716 -450 
L 5256 -450 
L 5256 -91 
L 1141 -91 
L 1141 -450 
L 672 -450 
L 672 4884 
L 5716 4884 
z
M 1141 4475 
L 1141 313 
L 5256 313 
L 5256 4475 
L 1141 4475 
z
" transform="scale(0.015625)"/>
      <path id="IPAexGothic-ff1a" d="M 2822 3366 
L 3578 3366 
L 3578 2609 
L 2822 2609 
L 2822 3366 
z
M 2822 1081 
L 3578 1081 
L 3578 325 
L 2822 325 
L 2822 1081 
z
" transform="scale(0.015625)"/>
      <path id="IPAexGothic-529b" d="M 3303 3944 
L 5653 3944 
Q 5622 1247 5428 356 
Q 5303 -231 4647 -231 
Q 4159 -231 3456 -147 
L 3381 416 
Q 4022 263 4456 263 
Q 4881 263 4947 616 
Q 5106 1509 5134 3303 
L 5141 3509 
L 3291 3509 
Q 3234 2200 2741 1281 
Q 2194 297 878 -416 
L 525 -6 
Q 2709 963 2778 3450 
L 641 3450 
L 641 3891 
L 2784 3891 
L 2784 5147 
L 3303 5147 
L 3303 3944 
z
" transform="scale(0.015625)"/>
      <path id="IPAexGothic-30df" d="M 4606 3353 
Q 3022 4028 1600 4375 
L 1888 4806 
Q 3403 4425 4881 3813 
L 4606 3353 
z
M 4184 1863 
Q 2906 2466 1747 2763 
L 2028 3213 
Q 3169 2903 4466 2328 
L 4184 1863 
z
M 4631 -159 
Q 3119 638 1125 1234 
L 1413 1678 
Q 3228 1169 4953 319 
L 4631 -159 
z
" transform="scale(0.015625)"/>
      <path id="IPAexGothic-30b9" d="M 4359 4481 
L 4716 4147 
Q 4328 3072 3647 2150 
Q 4659 1434 5659 453 
L 5234 19 
Q 4256 1088 3353 1778 
Q 2372 597 1044 -31 
L 653 403 
Q 3128 1453 4097 4000 
L 1241 3963 
L 1228 4453 
L 4359 4481 
z
" transform="scale(0.015625)"/>
      <path id="IPAexGothic-30bb" d="M 2059 4878 
L 2584 4878 
L 2584 3397 
L 5291 3731 
L 5606 3444 
Q 4838 2313 4006 1556 
L 3569 1875 
Q 4297 2459 4844 3231 
L 2584 2931 
L 2584 978 
Q 2584 734 2738 669 
Q 2922 584 3616 584 
Q 4419 584 5425 697 
L 5444 172 
Q 4563 103 3844 103 
Q 2678 103 2359 256 
Q 2059 403 2059 863 
L 2059 2859 
L 638 2675 
L 588 3150 
L 2059 3334 
L 2059 4878 
z
" transform="scale(0.015625)"/>
      <path id="IPAexGothic-30f3" d="M 2444 3084 
Q 1816 3656 1056 4084 
L 1381 4519 
Q 2063 4191 2816 3559 
L 2444 3084 
z
M 1100 609 
Q 3984 1106 5216 3828 
L 5619 3469 
Q 4413 794 1434 103 
L 1100 609 
z
" transform="scale(0.015625)"/>
      <path id="IPAexGothic-30b5" d="M 3994 4919 
L 4506 4919 
L 4506 3531 
L 5888 3531 
L 5888 3072 
L 4506 3072 
Q 4488 1719 4153 1063 
Q 3728 222 2644 -325 
L 2266 38 
Q 3325 525 3713 1319 
Q 3975 1853 3994 3072 
L 2331 3072 
L 2331 1575 
L 1819 1575 
L 1819 3072 
L 513 3072 
L 513 3531 
L 1819 3531 
L 1819 4797 
L 2331 4797 
L 2331 3531 
L 3994 3531 
L 3994 4919 
z
" transform="scale(0.015625)"/>
      <path id="IPAexGothic-6545" d="M 1978 2425 
L 2831 2425 
L 2831 184 
L 1122 184 
L 1122 -206 
L 694 -206 
L 694 2425 
L 1538 2425 
L 1538 3609 
L 322 3609 
L 322 4025 
L 1538 4025 
L 1538 5216 
L 1978 5216 
L 1978 4025 
L 3175 4025 
L 3175 3609 
L 1978 3609 
L 1978 2425 
z
M 2403 2034 
L 1122 2034 
L 1122 569 
L 2403 569 
L 2403 2034 
z
M 4353 1163 
Q 3931 1800 3688 2778 
Q 3553 2422 3322 2028 
L 2997 2419 
Q 3581 3466 3803 5284 
L 4256 5203 
Q 4175 4606 4091 4191 
L 5959 4191 
L 5959 3775 
L 5484 3775 
L 5478 3738 
Q 5372 2238 4853 1197 
Q 5394 522 6138 75 
L 5819 -378 
Q 5144 131 4616 788 
Q 4103 44 3322 -469 
L 3016 -84 
Q 3878 400 4353 1163 
z
M 4572 1594 
Q 4928 2431 5050 3775 
L 3994 3775 
Q 3969 3659 3919 3481 
Q 4081 2419 4572 1594 
z
" transform="scale(0.015625)"/>
      <path id="IPAexGothic-969c" d="M 4281 1184 
L 4281 744 
L 6050 744 
L 6050 372 
L 4281 372 
L 4281 -447 
L 3841 -447 
L 3841 372 
L 2031 372 
L 2031 744 
L 3841 744 
L 3841 1184 
L 2613 1184 
L 2613 2931 
L 5538 2931 
L 5538 1184 
L 4281 1184 
z
M 3041 2600 
L 3041 2234 
L 5109 2234 
L 5109 2600 
L 3041 2600 
z
M 3041 1909 
L 3041 1516 
L 5109 1516 
L 5109 1909 
L 3041 1909 
z
M 1594 3078 
Q 2144 2391 2144 1547 
Q 2144 825 1569 825 
Q 1322 825 1081 863 
L 1006 1316 
Q 1266 1259 1491 1259 
Q 1716 1259 1716 1638 
Q 1716 2372 1153 3038 
Q 1506 3766 1691 4588 
L 903 4588 
L 903 -450 
L 488 -450 
L 488 4991 
L 1991 4991 
L 2209 4806 
Q 1931 3797 1594 3078 
z
M 4281 4666 
L 5728 4666 
L 5728 4313 
L 5131 4313 
Q 5016 3972 4878 3688 
L 6009 3688 
L 6009 3322 
L 2094 3322 
L 2094 3688 
L 3219 3688 
Q 3106 4016 2963 4313 
L 2425 4313 
L 2425 4666 
L 3841 4666 
L 3841 5313 
L 4281 5313 
L 4281 4666 
z
M 3406 4313 
Q 3509 4109 3650 3688 
L 4447 3688 
Q 4606 4053 4678 4313 
L 3406 4313 
z
" transform="scale(0.015625)"/>
      <path id="IPAexGothic-30a2" d="M 5388 4556 
L 5747 4200 
Q 5081 3022 4019 2191 
L 3647 2547 
Q 4519 3178 5081 4091 
L 850 4013 
L 850 4500 
L 5388 4556 
z
M 1216 256 
Q 2319 813 2616 1691 
Q 2797 2200 2797 3628 
L 3313 3628 
Q 3303 1981 3059 1356 
Q 2697 431 1594 -153 
L 1216 256 
z
" transform="scale(0.015625)"/>
      <path id="IPAexGothic-30b1" d="M 5638 3275 
L 4178 3275 
Q 4141 1972 3738 1234 
Q 3241 322 2150 -256 
L 1766 141 
Q 2931 678 3353 1644 
Q 3619 2263 3647 3275 
L 2097 3275 
Q 1694 2456 972 1784 
L 594 2128 
Q 1781 3203 2138 4966 
L 2628 4856 
Q 2503 4281 2303 3744 
L 5638 3744 
L 5638 3275 
z
" transform="scale(0.015625)"/>
      <path id="IPAexGothic-30c8" d="M 2284 4997 
L 2803 4997 
L 2803 3206 
Q 4088 2619 5216 1888 
L 4878 1369 
Q 3819 2175 2803 2688 
L 2803 -184 
L 2284 -184 
L 2284 4997 
z
" transform="scale(0.015625)"/>
      <path id="IPAexGothic-672a" d="M 3656 2438 
Q 4506 1213 6094 378 
L 5744 -91 
Q 4197 894 3413 2131 
L 3413 -450 
L 2938 -450 
L 2938 2078 
Q 2191 694 684 -213 
L 341 203 
Q 1834 981 2725 2438 
L 447 2438 
L 447 2853 
L 2938 2853 
L 2938 3903 
L 959 3903 
L 959 4319 
L 2938 4319 
L 2938 5309 
L 3413 5309 
L 3413 4319 
L 5434 4319 
L 5434 3903 
L 3413 3903 
L 3413 2853 
L 5947 2853 
L 5947 2438 
L 3656 2438 
z
" transform="scale(0.015625)"/>
      <path id="IPAexGothic-56de" d="M 4519 3647 
L 4519 1178 
L 1875 1178 
L 1875 3647 
L 4519 3647 
z
M 2328 3250 
L 2328 1575 
L 4066 1575 
L 4066 3250 
L 2328 3250 
z
M 5722 4891 
L 5722 -456 
L 5247 -456 
L 5247 -103 
L 1147 -103 
L 1147 -456 
L 672 -456 
L 672 4891 
L 5722 4891 
z
M 1147 4475 
L 1147 313 
L 5247 313 
L 5247 4475 
L 1147 4475 
z
" transform="scale(0.015625)"/>
      <path id="IPAexGothic-7b54" d="M 2241 4197 
Q 2406 3875 2566 3403 
L 2119 3250 
Q 1963 3806 1766 4197 
L 1422 4197 
Q 1113 3603 678 3128 
L 325 3416 
Q 994 4131 1331 5241 
L 1784 5138 
Q 1653 4722 1600 4588 
L 3169 4588 
L 3169 4197 
L 2241 4197 
z
M 4697 4197 
Q 4928 3863 5144 3434 
L 4684 3263 
Q 4472 3759 4197 4197 
L 3756 4197 
L 3731 4153 
Q 3603 3931 3378 3653 
L 3000 3884 
Q 3459 4447 3725 5247 
L 4166 5150 
Q 4063 4831 3956 4588 
L 5972 4588 
L 5972 4197 
L 4697 4197 
z
M 1319 1575 
L 5075 1575 
L 5075 -450 
L 4622 -450 
L 4622 -103 
L 1772 -103 
L 1772 -450 
L 1319 -450 
L 1319 1575 
z
M 4622 1191 
L 1772 1191 
L 1772 281 
L 4622 281 
L 4622 1191 
z
M 4478 2291 
L 4478 2016 
L 2022 2016 
L 2022 2253 
Q 1350 1828 550 1534 
L 281 1925 
Q 1997 2475 2888 3622 
L 3347 3622 
Q 4416 2638 6150 2078 
L 5894 1669 
Q 5131 1941 4478 2291 
z
M 2253 2413 
L 4269 2413 
Q 3628 2775 3141 3250 
Q 2775 2809 2253 2413 
z
" transform="scale(0.015625)"/>
      <path id="IPAexGothic-3069" d="M 5222 56 
Q 4200 -72 3450 -72 
Q 2478 -72 1941 113 
Q 1184 372 1184 1038 
Q 1184 1584 1594 2009 
Q 1941 2369 2656 2725 
Q 2231 3734 1972 4878 
L 2491 4978 
Q 2706 3884 3078 2950 
Q 4250 3447 4756 3616 
L 4978 3150 
Q 3181 2575 2409 2078 
Q 1691 1613 1691 1113 
Q 1691 403 3322 403 
Q 4125 403 5134 563 
L 5222 56 
z
M 5778 4153 
Q 5419 4697 5025 5025 
L 5325 5253 
Q 5709 4944 6100 4428 
L 5778 4153 
z
M 5184 3688 
Q 4894 4175 4447 4575 
L 4763 4819 
Q 5134 4513 5516 3963 
L 5184 3688 
z
" transform="scale(0.015625)"/>
     </defs>
     <use xlink:href="#IPAexGothic-539f"/>
     <use xlink:href="#IPAexGothic-56e0" x="100"/>
     <use xlink:href="#IPAexGothic-ff1a" x="200"/>
     <use xlink:href="#IPAexGothic-5165" x="300"/>
     <use xlink:href="#IPAexGothic-529b" x="400"/>
     <use xlink:href="#IPAexGothic-30df" x="500"/>
     <use xlink:href="#IPAexGothic-30b9" x="600"/>
     <use xlink:href="#IPAexGothic-30fb" x="700"/>
     <use xlink:href="#IPAexGothic-30bb" x="800"/>
     <use xlink:href="#IPAexGothic-30f3" x="900"/>
     <use xlink:href="#IPAexGothic-30b5" x="1000"/>
     <use xlink:href="#IPAexGothic-30fc" x="1100"/>
     <use xlink:href="#IPAexGothic-6545" x="1200"/>
     <use xlink:href="#IPAexGothic-969c" x="1300"/>
     <use xlink:href="#IPAexGothic-30fb" x="1400"/>
     <use xlink:href="#IPAexGothic-30a2" x="1500"/>
     <use xlink:href="#IPAexGothic-30f3" x="1600"/>
     <use xlink:href="#IPAexGothic-30b1" x="1700"/>
     <use xlink:href="#IPAexGothic-30fc" x="1800"/>
     <use xlink:href="#IPAexGothic-30c8" x="1900"/>
     <use xlink:href="#IPAexGothic-672a" x="2000"/>
     <use xlink:href="#IPAexGothic-56de" x="2100"/>
     <use xlink:href="#IPAexGothic-7b54" x="2200"/>
     <use xlink:href="#IPAexGothic-20" x="2300"/>
     <use xlink:href="#IPAexGothic-306a" x="2327.001953"/>
     <use xlink:href="#IPAexGothic-3069" x="2427.001953"/>
    </g>
   </g>
   <g id="text_7">
    <!-- ▸ -->
    <g style="fill: #4a90d9" transform="translate(33.12 159.955) scale(0.095 -0.095)">
     <use xlink:href="#IPAexGothic-25b8"/>
    </g>
   </g>
   <g id="text_8">
    <!-- 確認方法：df.isnull().sum() で各列の欠損件数を表示 -->
    <g style="fill: #2c3e50" transform="translate(46.08 162.7675) scale(0.14 -0.14)">
     <defs>
      <path id="IPAexGothic-78ba" d="M 4347 3219 
Q 4516 3538 4647 3956 
L 5075 3853 
Q 4875 3431 4750 3219 
L 5888 3219 
L 5888 2847 
L 4700 2847 
L 4700 2222 
L 5741 2222 
L 5741 1869 
L 4700 1869 
L 4700 1250 
L 5741 1250 
L 5741 897 
L 4700 897 
L 4700 231 
L 6034 231 
L 6034 -141 
L 3463 -141 
L 3463 -447 
L 3047 -447 
L 3047 2444 
Q 2756 2019 2484 1703 
L 2284 2100 
Q 3159 3197 3506 4147 
L 2913 4147 
L 2913 3425 
L 2509 3425 
L 2509 4519 
L 3634 4519 
Q 3750 4903 3847 5319 
L 4269 5241 
Q 4175 4834 4072 4519 
L 5934 4519 
L 5934 3425 
L 5525 3425 
L 5525 4147 
L 3938 4147 
Q 3747 3647 3513 3219 
L 4347 3219 
z
M 4297 2847 
L 3463 2847 
L 3463 2222 
L 4297 2222 
L 4297 2847 
z
M 4297 1869 
L 3463 1869 
L 3463 1250 
L 4297 1250 
L 4297 1869 
z
M 4297 897 
L 3463 897 
L 3463 231 
L 4297 231 
L 4297 897 
z
M 1159 2944 
L 2275 2944 
L 2275 197 
L 1213 197 
L 1213 -328 
L 816 -328 
L 816 2206 
Q 650 1903 394 1522 
L 188 1919 
Q 931 3013 1200 4416 
L 406 4416 
L 406 4819 
L 2409 4819 
L 2409 4416 
L 1616 4416 
L 1597 4353 
Q 1456 3663 1159 2944 
z
M 1213 2553 
L 1213 588 
L 1878 588 
L 1878 2553 
L 1213 2553 
z
" transform="scale(0.015625)"/>
      <path id="IPAexGothic-8a8d" d="M 4341 4556 
Q 4309 4069 4219 3694 
Q 4622 3497 4956 3309 
L 4731 2963 
Q 4463 3125 4141 3291 
L 4091 3322 
Q 3756 2566 2959 2088 
L 2663 2419 
Q 3456 2844 3713 3500 
Q 3213 3722 2906 3828 
L 3113 4141 
Q 3381 4050 3828 3866 
Q 3916 4231 3925 4556 
L 2816 4556 
L 2816 4947 
L 5775 4947 
Q 5766 3272 5653 2713 
Q 5606 2459 5453 2369 
Q 5334 2284 5025 2284 
Q 4684 2284 4366 2334 
L 4303 2784 
Q 4644 2713 4928 2713 
Q 5181 2713 5228 2906 
Q 5309 3234 5338 4513 
Q 5338 4544 5338 4556 
L 4341 4556 
z
M 2406 1684 
L 2406 -128 
L 959 -128 
L 959 -447 
L 544 -447 
L 544 1684 
L 2406 1684 
z
M 959 1313 
L 959 244 
L 1984 244 
L 1984 1313 
L 959 1313 
z
M 634 5044 
L 2313 5044 
L 2313 4659 
L 634 4659 
L 634 5044 
z
M 353 4206 
L 2638 4206 
L 2638 3816 
L 353 3816 
L 353 4206 
z
M 634 3359 
L 2313 3359 
L 2313 2975 
L 634 2975 
L 634 3359 
z
M 634 2522 
L 2313 2522 
L 2313 2138 
L 634 2138 
L 634 2522 
z
M 2528 31 
Q 2816 625 2919 1447 
L 3322 1375 
Q 3200 381 2900 -225 
L 2528 31 
z
M 3572 1556 
L 4000 1556 
L 4000 294 
Q 4000 128 4084 100 
Q 4144 75 4300 75 
Q 4728 75 4775 275 
Q 4806 394 4825 738 
L 5253 616 
Q 5206 -44 5081 -188 
Q 4941 -347 4359 -347 
Q 3900 -347 3738 -269 
Q 3572 -191 3572 91 
L 3572 1556 
z
M 5775 -25 
Q 5428 800 5006 1375 
L 5366 1588 
Q 5819 994 6166 244 
L 5775 -25 
z
M 4566 1294 
Q 4106 1772 3656 2075 
L 3938 2350 
Q 4331 2113 4872 1613 
L 4566 1294 
z
" transform="scale(0.015625)"/>
      <path id="IPAexGothic-65b9" d="M 2931 3750 
L 2925 3616 
Q 2916 3203 2872 2778 
L 5244 2778 
Q 5175 781 5000 156 
Q 4913 -144 4691 -247 
Q 4528 -325 4194 -325 
Q 3759 -325 3256 -263 
L 3144 269 
Q 3700 156 4141 156 
Q 4491 156 4556 463 
Q 4725 1197 4744 2350 
L 2822 2350 
Q 2822 2313 2816 2288 
Q 2538 428 916 -484 
L 563 -94 
Q 1859 491 2247 1869 
Q 2422 2488 2450 3750 
L 409 3750 
L 409 4178 
L 2931 4178 
L 2931 5175 
L 3431 5175 
L 3431 4178 
L 5984 4178 
L 5984 3750 
L 2931 3750 
z
" transform="scale(0.015625)"/>
      <path id="IPAexGothic-6cd5" d="M 3853 2175 
L 3847 2144 
Q 3500 1134 3109 384 
L 3078 331 
Q 3663 372 4444 466 
L 5025 538 
Q 4722 1006 4341 1478 
L 4719 1688 
Q 5372 928 5978 -78 
L 5575 -384 
Q 5353 16 5244 184 
Q 3900 -56 2003 -219 
L 1869 256 
Q 2147 266 2578 294 
Q 3125 1406 3366 2175 
L 1838 2175 
L 1838 2578 
L 3628 2578 
L 3628 3738 
L 2200 3738 
L 2200 4147 
L 3628 4147 
L 3628 5216 
L 4097 5216 
L 4097 4147 
L 5653 4147 
L 5653 3738 
L 4097 3738 
L 4097 2578 
L 6016 2578 
L 6016 2175 
L 3853 2175 
z
M 372 6 
Q 981 797 1472 1913 
L 1806 1550 
Q 1294 378 750 -403 
L 372 6 
z
M 1409 2394 
Q 931 2928 469 3231 
L 775 3597 
Q 1275 3259 1747 2778 
L 1409 2394 
z
M 1613 3847 
Q 1188 4338 691 4703 
L 1000 5056 
Q 1503 4709 1934 4238 
L 1613 3847 
z
" transform="scale(0.015625)"/>
      <path id="IPAexGothic-64" d="M 3391 63 
L 2891 63 
L 2891 619 
Q 2441 -31 1753 -31 
Q 1181 -31 788 372 
Q 313 844 313 1663 
Q 313 2466 772 2938 
Q 1169 3341 1753 3341 
Q 2384 3341 2847 2809 
L 2847 4794 
L 3391 4794 
L 3391 63 
z
M 2847 1303 
L 2847 2097 
Q 2847 2413 2456 2706 
Q 2181 2906 1853 2906 
Q 1484 2906 1228 2650 
Q 888 2309 888 1678 
Q 888 1109 1169 750 
Q 1441 409 1847 409 
Q 2322 409 2656 875 
Q 2847 1134 2847 1303 
z
" transform="scale(0.015625)"/>
      <path id="IPAexGothic-66" d="M 2456 4622 
L 2228 4244 
Q 1991 4422 1741 4422 
Q 1184 4422 1184 3672 
L 1184 3250 
L 2053 3250 
L 2053 2859 
L 1184 2859 
L 1184 63 
L 641 63 
L 641 2859 
L 122 2859 
L 122 3250 
L 641 3250 
L 641 3659 
Q 641 4188 891 4484 
Q 1200 4844 1709 4844 
Q 2116 4844 2456 4622 
z
" transform="scale(0.015625)"/>
      <path id="IPAexGothic-69" d="M 1178 3928 
L 550 3928 
L 550 4569 
L 1178 4569 
L 1178 3928 
z
M 1138 63 
L 588 63 
L 588 3250 
L 1138 3250 
L 1138 63 
z
" transform="scale(0.015625)"/>
      <path id="IPAexGothic-73" d="M 2234 2547 
Q 1938 2931 1484 2931 
Q 891 2931 891 2475 
Q 891 2153 1531 1944 
L 1741 1875 
Q 2650 1578 2650 894 
Q 2650 434 2272 172 
Q 1972 -31 1497 -31 
Q 766 -31 256 503 
L 603 819 
Q 997 397 1516 397 
Q 2131 397 2131 875 
Q 2131 1238 1453 1478 
L 1234 1553 
Q 378 1853 378 2431 
Q 378 2797 628 3047 
Q 928 3347 1453 3347 
Q 2156 3347 2606 2859 
L 2234 2547 
z
" transform="scale(0.015625)"/>
      <path id="IPAexGothic-6e" d="M 3328 63 
L 2778 63 
L 2778 2041 
Q 2778 2853 2106 2853 
Q 1428 2853 1113 2041 
L 1113 63 
L 563 63 
L 563 3250 
L 1075 3250 
L 1075 2675 
Q 1525 3316 2222 3316 
Q 3328 3316 3328 2072 
L 3328 63 
z
" transform="scale(0.015625)"/>
      <path id="IPAexGothic-6c" d="M 1131 63 
L 581 63 
L 581 4794 
L 1131 4794 
L 1131 63 
z
" transform="scale(0.015625)"/>
      <path id="IPAexGothic-28" d="M 1928 -1016 
L 1653 -1166 
Q 488 69 488 1875 
Q 488 3678 1653 4909 
L 1928 4763 
Q 1006 3522 1006 1881 
Q 1006 203 1928 -1016 
z
" transform="scale(0.015625)"/>
      <path id="IPAexGothic-29" d="M 466 4909 
Q 1638 3672 1638 1875 
Q 1638 75 466 -1166 
L 191 -1016 
Q 1119 216 1119 1881 
Q 1119 3509 191 4763 
L 466 4909 
z
" transform="scale(0.015625)"/>
      <path id="IPAexGothic-3067" d="M 581 4034 
Q 2978 4363 5466 4556 
L 5509 4097 
Q 4388 4031 3750 3572 
Q 2797 2878 2797 1913 
Q 2797 1169 3291 819 
Q 3778 484 4869 416 
L 4906 -116 
Q 2278 0 2278 1850 
Q 2278 3125 3691 4000 
Q 2066 3784 684 3553 
L 581 4034 
z
M 5631 2522 
Q 5269 3063 4875 3391 
L 5175 3622 
Q 5559 3313 5950 2797 
L 5631 2522 
z
M 5034 2053 
Q 4747 2544 4300 2944 
L 4613 3184 
Q 4984 2878 5369 2328 
L 5034 2053 
z
" transform="scale(0.015625)"/>
      <path id="IPAexGothic-5404" d="M 4991 1906 
L 4991 -447 
L 4522 -447 
L 4522 -122 
L 1925 -122 
L 1925 -447 
L 1456 -447 
L 1456 1778 
Q 1116 1631 619 1453 
L 325 1850 
Q 1703 2213 2903 3078 
Q 2422 3500 2047 3969 
Q 1594 3431 906 2956 
L 619 3309 
Q 1734 4053 2450 5338 
L 2922 5228 
Q 2734 4913 2666 4813 
L 4663 4813 
L 4900 4581 
Q 4313 3738 3588 3091 
Q 4509 2459 6034 2144 
L 5753 1709 
Q 4188 2138 3244 2809 
Q 2572 2300 1747 1906 
L 4991 1906 
z
M 1925 1509 
L 1925 269 
L 4522 269 
L 4522 1509 
L 1925 1509 
z
M 3244 3347 
Q 3809 3813 4253 4422 
L 2403 4422 
Q 2328 4319 2297 4275 
Q 2759 3722 3244 3347 
z
" transform="scale(0.015625)"/>
      <path id="IPAexGothic-5217" d="M 2334 1600 
Q 1944 1966 1306 2378 
Q 1038 1938 709 1541 
L 434 1906 
Q 1325 2934 1663 4550 
L 606 4550 
L 606 4953 
L 3781 4953 
L 3781 4550 
L 2097 4550 
Q 2091 4531 2078 4466 
Q 2000 4100 1900 3781 
L 3141 3781 
L 3409 3575 
Q 3156 2138 2656 1247 
Q 2097 269 1003 -500 
L 684 -128 
Q 1769 563 2334 1600 
z
M 2534 2009 
Q 2794 2656 2919 3384 
L 1766 3384 
Q 1638 3034 1478 2706 
Q 2181 2294 2534 2009 
z
M 3956 4416 
L 4409 4416 
L 4409 966 
L 3956 966 
L 3956 4416 
z
M 5306 5056 
L 5759 5056 
L 5759 197 
Q 5759 -138 5569 -263 
Q 5419 -353 5094 -353 
Q 4547 -353 3963 -294 
L 3878 191 
Q 4600 116 5038 116 
Q 5306 116 5306 359 
L 5306 5056 
z
" transform="scale(0.015625)"/>
      <path id="IPAexGothic-4ef6" d="M 3903 3425 
L 2906 3425 
Q 2697 2825 2309 2247 
L 1991 2572 
Q 2588 3497 2803 4788 
L 3256 4713 
Q 3175 4313 3041 3834 
L 3903 3834 
L 3903 5250 
L 4356 5250 
L 4356 3834 
L 5731 3834 
L 5731 3425 
L 4356 3425 
L 4356 2009 
L 6041 2009 
L 6041 1594 
L 4356 1594 
L 4356 -447 
L 3903 -447 
L 3903 1594 
L 2078 1594 
L 2078 2009 
L 3903 2009 
L 3903 3425 
z
M 1638 3681 
L 1638 -447 
L 1169 -447 
L 1169 2753 
Q 881 2272 575 1863 
L 313 2253 
Q 1238 3463 1650 5184 
L 2125 5069 
Q 1909 4316 1638 3681 
z
" transform="scale(0.015625)"/>
      <path id="IPAexGothic-6570" d="M 2847 1553 
Q 2741 1006 2425 534 
Q 2625 441 3091 203 
L 2809 -188 
Q 2541 0 2144 209 
Q 1569 -291 703 -500 
L 422 -125 
Q 1263 19 1747 406 
Q 1222 650 734 816 
Q 975 1172 1147 1503 
L 1172 1553 
L 359 1553 
L 359 1925 
L 1344 1925 
Q 1406 2066 1569 2475 
L 1691 2450 
L 1691 3372 
Q 1250 2738 550 2303 
L 275 2663 
Q 1019 3013 1528 3641 
L 378 3641 
L 378 4006 
L 1691 4006 
L 1691 5313 
L 2113 5313 
L 2113 4006 
L 3297 4006 
L 3297 3641 
L 2113 3641 
L 2113 3513 
Q 2659 3291 3175 2963 
L 2956 2584 
Q 2553 2922 2113 3159 
L 2113 2372 
L 1966 2372 
Q 1928 2288 1872 2141 
Q 1806 1975 1784 1925 
L 3378 1925 
L 3378 1553 
L 2847 1553 
z
M 2419 1553 
L 1613 1553 
Q 1478 1269 1313 997 
Q 1559 909 2047 703 
Q 2313 1047 2419 1553 
z
M 4363 1163 
Q 3953 1781 3738 2638 
Q 3575 2281 3428 2016 
L 3103 2406 
Q 3675 3444 3916 5291 
L 4363 5200 
Q 4284 4666 4197 4197 
L 6009 4197 
L 6009 3775 
L 5503 3775 
Q 5397 2275 4869 1191 
Q 5419 503 6144 75 
L 5822 -378 
Q 5188 106 4631 788 
Q 4113 34 3341 -463 
L 3031 -78 
Q 3888 406 4363 1163 
z
M 4588 1594 
Q 4938 2388 5059 3775 
L 4100 3775 
Q 4041 3519 3972 3288 
Q 3981 3250 3991 3194 
Q 4175 2256 4588 1594 
z
M 1003 4116 
Q 878 4544 638 4934 
L 1053 5094 
Q 1247 4788 1438 4269 
L 1003 4116 
z
M 2316 4269 
Q 2550 4688 2688 5131 
L 3128 4997 
Q 2966 4588 2675 4128 
L 2316 4269 
z
" transform="scale(0.015625)"/>
      <path id="IPAexGothic-3092" d="M 1094 4263 
Q 1544 4222 2359 4222 
Q 2581 4734 2700 5163 
L 3175 5028 
Q 2997 4538 2859 4256 
Q 3516 4284 4294 4459 
L 4356 4019 
Q 3603 3869 2656 3819 
Q 2391 3284 2059 2797 
Q 2531 3200 2963 3200 
Q 3638 3200 3859 2378 
Q 4556 2681 5338 2950 
L 5575 2528 
Q 4641 2253 3941 1956 
Q 3981 1678 3994 1028 
L 3513 991 
Q 3513 1456 3494 1753 
Q 2388 1194 2388 716 
Q 2388 428 2753 328 
Q 3066 241 3806 241 
Q 4394 241 5178 344 
L 5216 -128 
Q 4434 -213 3653 -213 
Q 2656 -213 2244 41 
Q 1913 244 1913 631 
Q 1913 1094 2344 1497 
Q 2709 1841 3428 2181 
Q 3266 2797 2878 2797 
Q 2238 2797 1209 1419 
L 838 1694 
Q 1625 2716 2163 3800 
Q 1522 3800 1088 3825 
L 1094 4263 
z
" transform="scale(0.015625)"/>
      <path id="IPAexGothic-8868" d="M 3209 2350 
Q 2856 1944 2328 1563 
L 2328 288 
Q 2975 438 3756 691 
L 3763 275 
Q 2534 -163 1184 -447 
L 978 13 
Q 1566 119 1819 175 
L 1875 188 
L 1875 1275 
Q 1306 941 506 666 
L 219 1056 
Q 1813 1509 2675 2356 
L 384 2356 
L 384 2753 
L 2978 2753 
L 2978 3309 
L 959 3309 
L 959 3694 
L 2978 3694 
L 2978 4219 
L 641 4219 
L 641 4603 
L 2978 4603 
L 2978 5313 
L 3431 5313 
L 3431 4603 
L 5759 4603 
L 5759 4219 
L 3431 4219 
L 3431 3694 
L 5434 3694 
L 5434 3309 
L 3431 3309 
L 3431 2753 
L 6016 2753 
L 6016 2356 
L 3634 2356 
Q 3863 1838 4244 1356 
Q 4781 1756 5166 2191 
L 5588 1894 
Q 5084 1419 4525 1056 
Q 5150 459 6106 66 
L 5734 -356 
Q 3850 575 3209 2350 
z
" transform="scale(0.015625)"/>
      <path id="IPAexGothic-793a" d="M 3488 2822 
L 3488 153 
Q 3488 -144 3334 -247 
Q 3213 -331 2872 -331 
Q 2425 -331 1950 -294 
L 1859 213 
Q 2350 128 2775 128 
Q 3000 128 3000 353 
L 3000 2822 
L 447 2822 
L 447 3250 
L 5950 3250 
L 5950 2822 
L 3488 2822 
z
M 1125 4813 
L 5266 4813 
L 5266 4384 
L 1125 4384 
L 1125 4813 
z
M 5581 244 
Q 4966 1263 4206 2081 
L 4563 2369 
Q 5319 1575 6009 622 
L 5581 244 
z
M 403 616 
Q 1184 1238 1741 2259 
L 2163 2053 
Q 1631 975 763 238 
L 403 616 
z
" transform="scale(0.015625)"/>
     </defs>
     <use xlink:href="#IPAexGothic-78ba"/>
     <use xlink:href="#IPAexGothic-8a8d" x="100"/>
     <use xlink:href="#IPAexGothic-65b9" x="200"/>
     <use xlink:href="#IPAexGothic-6cd5" x="300"/>
     <use xlink:href="#IPAexGothic-ff1a" x="400"/>
     <use xlink:href="#IPAexGothic-64" x="500"/>
     <use xlink:href="#IPAexGothic-66" x="562.402344"/>
     <use xlink:href="#IPAexGothic-2e" x="593.017578"/>
     <use xlink:href="#IPAexGothic-69" x="619.433594"/>
     <use xlink:href="#IPAexGothic-73" x="646.435547"/>
     <use xlink:href="#IPAexGothic-6e" x="692.626953"/>
     <use xlink:href="#IPAexGothic-75" x="753.027344"/>
     <use xlink:href="#IPAexGothic-6c" x="813.427734"/>
     <use xlink:href="#IPAexGothic-6c" x="840.429688"/>
     <use xlink:href="#IPAexGothic-28" x="867.431641"/>
     <use xlink:href="#IPAexGothic-29" x="900.732422"/>
     <use xlink:href="#IPAexGothic-2e" x="934.033203"/>
     <use xlink:href="#IPAexGothic-73" x="960.449219"/>
     <use xlink:href="#IPAexGothic-75" x="1006.640625"/>
     <use xlink:href="#IPAexGothic-6d" x="1067.041016"/>
     <use xlink:href="#IPAexGothic-28" x="1154.150391"/>
     <use xlink:href="#IPAexGothic-29" x="1187.451172"/>
     <use xlink:href="#IPAexGothic-20" x="1220.751953"/>
     <use xlink:href="#IPAexGothic-3067" x="1247.753906"/>
     <use xlink:href="#IPAexGothic-5404" x="1347.753906"/>
     <use xlink:href="#IPAexGothic-5217" x="1447.753906"/>
     <use xlink:href="#IPAexGothic-306e" x="1547.753906"/>
     <use xlink:href="#IPAexGothic-6b20" x="1647.753906"/>
     <use xlink:href="#IPAexGothic-640d" x="1747.753906"/>
     <use xlink:href="#IPAexGothic-4ef6" x="1847.753906"/>
     <use xlink:href="#IPAexGothic-6570" x="1947.753906"/>
     <use xlink:href="#IPAexGothic-3092" x="2047.753906"/>
     <use xlink:href="#IPAexGothic-8868" x="2147.753906"/>
     <use xlink:href="#IPAexGothic-793a" x="2247.753906"/>
    </g>
   </g>
   <g id="text_9">
    <!-- ▸ -->
    <g style="fill: #4a90d9" transform="translate(33.12 190.195) scale(0.095 -0.095)">
     <use xlink:href="#IPAexGothic-25b8"/>
    </g>
   </g>
   <g id="text_10">
    <!-- 欠損率：df.isnull().sum() / len(df) * 100 -->
    <g style="fill: #2c3e50" transform="translate(46.08 192.952812) scale(0.14 -0.14)">
     <defs>
      <path id="IPAexGothic-7387" d="M 3022 2847 
Q 3338 3231 3684 3744 
L 4053 3525 
Q 3506 2766 2919 2181 
L 3266 2200 
Q 3575 2209 3825 2234 
Q 3728 2406 3575 2616 
L 3913 2772 
Q 4244 2350 4541 1766 
L 4156 1547 
Q 4084 1753 3997 1913 
L 3856 1894 
Q 3709 1875 3416 1850 
L 3416 1228 
L 6084 1228 
L 6084 819 
L 3416 819 
L 3416 -447 
L 2941 -447 
L 2941 819 
L 322 819 
L 322 1228 
L 2941 1228 
L 2941 1803 
L 2881 1797 
Q 2306 1759 2031 1747 
L 1903 2163 
Q 2319 2163 2416 2169 
Q 2522 2269 2772 2553 
Q 2347 3028 1916 3347 
L 2184 3653 
L 2447 3425 
Q 2681 3744 2869 4128 
L 547 4128 
L 547 4525 
L 2941 4525 
L 2941 5313 
L 3416 5313 
L 3416 4525 
L 5853 4525 
L 5853 4128 
L 2972 4128 
L 3278 3981 
Q 2991 3509 2697 3188 
Q 2850 3041 3022 2847 
z
M 1497 2822 
Q 1128 3263 691 3566 
L 1000 3847 
Q 1409 3588 1831 3156 
L 1497 2822 
z
M 4219 3078 
Q 4794 3478 5147 3897 
L 5538 3616 
Q 5078 3178 4494 2803 
L 4219 3078 
z
M 5556 1631 
Q 4997 2109 4372 2444 
L 4659 2741 
Q 5356 2381 5894 1984 
L 5556 1631 
z
M 538 1925 
Q 1306 2297 1881 2803 
L 2075 2456 
Q 1622 2034 813 1528 
L 538 1925 
z
" transform="scale(0.015625)"/>
      <path id="IPAexGothic-2f" d="M 2719 4709 
L 600 -884 
L 300 -763 
L 2413 4831 
L 2719 4709 
z
" transform="scale(0.015625)"/>
      <path id="IPAexGothic-2a" d="M 2113 3341 
L 1900 2997 
L 1325 3419 
L 1397 2688 
L 966 2688 
L 1038 3419 
L 463 2997 
L 250 3341 
L 903 3650 
L 250 3950 
L 463 4303 
L 1038 3878 
L 966 4591 
L 1397 4591 
L 1325 3878 
L 1900 4303 
L 2113 3950 
L 1459 3650 
L 2113 3341 
z
" transform="scale(0.015625)"/>
      <path id="IPAexGothic-30" d="M 2038 4725 
Q 2881 4725 3334 3944 
Q 3694 3325 3694 2344 
Q 3694 1372 3334 741 
Q 2888 -31 2016 -31 
Q 1147 -31 700 741 
Q 341 1372 341 2350 
Q 341 3713 1000 4334 
Q 1419 4725 2038 4725 
z
M 2016 4266 
Q 1516 4266 1228 3759 
Q 934 3247 934 2344 
Q 934 1456 1222 947 
Q 1513 447 2016 447 
Q 2619 447 2909 1153 
Q 3100 1622 3100 2375 
Q 3100 3256 2806 3759 
Q 2509 4266 2016 4266 
z
" transform="scale(0.015625)"/>
     </defs>
     <use xlink:href="#IPAexGothic-6b20"/>
     <use xlink:href="#IPAexGothic-640d" x="100"/>
     <use xlink:href="#IPAexGothic-7387" x="200"/>
     <use xlink:href="#IPAexGothic-ff1a" x="300"/>
     <use xlink:href="#IPAexGothic-64" x="400"/>
     <use xlink:href="#IPAexGothic-66" x="462.402344"/>
     <use xlink:href="#IPAexGothic-2e" x="493.017578"/>
     <use xlink:href="#IPAexGothic-69" x="519.433594"/>
     <use xlink:href="#IPAexGothic-73" x="546.435547"/>
     <use xlink:href="#IPAexGothic-6e" x="592.626953"/>
     <use xlink:href="#IPAexGothic-75" x="653.027344"/>
     <use xlink:href="#IPAexGothic-6c" x="713.427734"/>
     <use xlink:href="#IPAexGothic-6c" x="740.429688"/>
     <use xlink:href="#IPAexGothic-28" x="767.431641"/>
     <use xlink:href="#IPAexGothic-29" x="800.732422"/>
     <use xlink:href="#IPAexGothic-2e" x="834.033203"/>
     <use xlink:href="#IPAexGothic-73" x="860.449219"/>
     <use xlink:href="#IPAexGothic-75" x="906.640625"/>
     <use xlink:href="#IPAexGothic-6d" x="967.041016"/>
     <use xlink:href="#IPAexGothic-28" x="1054.150391"/>
     <use xlink:href="#IPAexGothic-29" x="1087.451172"/>
     <use xlink:href="#IPAexGothic-20" x="1120.751953"/>
     <use xlink:href="#IPAexGothic-2f" x="1147.753906"/>
     <use xlink:href="#IPAexGothic-20" x="1197.753906"/>
     <use xlink:href="#IPAexGothic-6c" x="1224.755859"/>
     <use xlink:href="#IPAexGothic-65" x="1251.757812"/>
     <use xlink:href="#IPAexGothic-6e" x="1308.642578"/>
     <use xlink:href="#IPAexGothic-28" x="1369.042969"/>
     <use xlink:href="#IPAexGothic-64" x="1402.34375"/>
     <use xlink:href="#IPAexGothic-66" x="1464.746094"/>
     <use xlink:href="#IPAexGothic-29" x="1495.361328"/>
     <use xlink:href="#IPAexGothic-20" x="1528.662109"/>
     <use xlink:href="#IPAexGothic-2a" x="1555.664062"/>
     <use xlink:href="#IPAexGothic-20" x="1592.675781"/>
     <use xlink:href="#IPAexGothic-31" x="1619.677734"/>
     <use xlink:href="#IPAexGothic-30" x="1682.666016"/>
     <use xlink:href="#IPAexGothic-30" x="1745.654297"/>
    </g>
   </g>
   <g id="text_11">
    <!-- # 各列の欠損件数を確認 -->
    <g style="fill: #cdd6f4" transform="translate(40.32 255.112434) scale(0.105 -0.105)">
     <defs>
      <path id="DejaVuSansMono-23" d="M 2138 4594 
L 1813 3297 
L 2578 3297 
L 2906 4594 
L 3406 4594 
L 3078 3297 
L 3841 3297 
L 3841 2816 
L 2963 2816 
L 2700 1772 
L 3481 1772 
L 3481 1294 
L 2578 1294 
L 2253 0 
L 1753 0 
L 2081 1294 
L 1313 1294 
L 984 0 
L 488 0 
L 813 1294 
L 6 1294 
L 6 1772 
L 934 1772 
L 1197 2816 
L 366 2816 
L 366 3297 
L 1313 3297 
L 1638 4594 
L 2138 4594 
z
M 2463 2816 
L 1697 2816 
L 1434 1772 
L 2203 1772 
L 2463 2816 
z
" transform="scale(0.015625)"/>
      <path id="DejaVuSansMono-20" transform="scale(0.015625)"/>
      <path id="DejaVuSansMono-5404" d="M 325 -1131 
L 325 4513 
L 3525 4513 
L 3525 -1131 
L 325 -1131 
z
M 684 -775 
L 3169 -775 
L 3169 4153 
L 684 4153 
L 684 -775 
z
" transform="scale(0.015625)"/>
      <path id="DejaVuSansMono-5217" d="M 325 -1131 
L 325 4513 
L 3525 4513 
L 3525 -1131 
L 325 -1131 
z
M 684 -775 
L 3169 -775 
L 3169 4153 
L 684 4153 
L 684 -775 
z
" transform="scale(0.015625)"/>
      <path id="DejaVuSansMono-306e" d="M 325 -1131 
L 325 4513 
L 3525 4513 
L 3525 -1131 
L 325 -1131 
z
M 684 -775 
L 3169 -775 
L 3169 4153 
L 684 4153 
L 684 -775 
z
" transform="scale(0.015625)"/>
      <path id="DejaVuSansMono-6b20" d="M 325 -1131 
L 325 4513 
L 3525 4513 
L 3525 -1131 
L 325 -1131 
z
M 684 -775 
L 3169 -775 
L 3169 4153 
L 684 4153 
L 684 -775 
z
" transform="scale(0.015625)"/>
      <path id="DejaVuSansMono-640d" d="M 325 -1131 
L 325 4513 
L 3525 4513 
L 3525 -1131 
L 325 -1131 
z
M 684 -775 
L 3169 -775 
L 3169 4153 
L 684 4153 
L 684 -775 
z
" transform="scale(0.015625)"/>
      <path id="DejaVuSansMono-4ef6" d="M 325 -1131 
L 325 4513 
L 3525 4513 
L 3525 -1131 
L 325 -1131 
z
M 684 -775 
L 3169 -775 
L 3169 4153 
L 684 4153 
L 684 -775 
z
" transform="scale(0.015625)"/>
      <path id="DejaVuSansMono-6570" d="M 325 -1131 
L 325 4513 
L 3525 4513 
L 3525 -1131 
L 325 -1131 
z
M 684 -775 
L 3169 -775 
L 3169 4153 
L 684 4153 
L 684 -775 
z
" transform="scale(0.015625)"/>
      <path id="DejaVuSansMono-3092" d="M 325 -1131 
L 325 4513 
L 3525 4513 
L 3525 -1131 
L 325 -1131 
z
M 684 -775 
L 3169 -775 
L 3169 4153 
L 684 4153 
L 684 -775 
z
" transform="scale(0.015625)"/>
      <path id="DejaVuSansMono-78ba" d="M 325 -1131 
L 325 4513 
L 3525 4513 
L 3525 -1131 
L 325 -1131 
z
M 684 -775 
L 3169 -775 
L 3169 4153 
L 684 4153 
L 684 -775 
z
" transform="scale(0.015625)"/>
      <path id="DejaVuSansMono-8a8d" d="M 325 -1131 
L 325 4513 
L 3525 4513 
L 3525 -1131 
L 325 -1131 
z
M 684 -775 
L 3169 -775 
L 3169 4153 
L 684 4153 
L 684 -775 
z
" transform="scale(0.015625)"/>
     </defs>
     <use xlink:href="#DejaVuSansMono-23"/>
     <use xlink:href="#DejaVuSansMono-20" x="60.205078"/>
     <use xlink:href="#DejaVuSansMono-5404" x="120.410156"/>
     <use xlink:href="#DejaVuSansMono-5217" x="180.615234"/>
     <use xlink:href="#DejaVuSansMono-306e" x="240.820312"/>
     <use xlink:href="#DejaVuSansMono-6b20" x="301.025391"/>
     <use xlink:href="#DejaVuSansMono-640d" x="361.230469"/>
     <use xlink:href="#DejaVuSansMono-4ef6" x="421.435547"/>
     <use xlink:href="#DejaVuSansMono-6570" x="481.640625"/>
     <use xlink:href="#DejaVuSansMono-3092" x="541.845703"/>
     <use xlink:href="#DejaVuSansMono-78ba" x="602.050781"/>
     <use xlink:href="#DejaVuSansMono-8a8d" x="662.255859"/>
    </g>
   </g>
   <g id="text_12">
    <!-- df.isnull().sum() -->
    <g style="fill: #cdd6f4" transform="translate(40.32 271.528434) scale(0.105 -0.105)">
     <defs>
      <path id="DejaVuSansMono-64" d="M 2681 3053 
L 2681 4863 
L 3256 4863 
L 3256 0 
L 2681 0 
L 2681 441 
Q 2538 181 2298 45 
Q 2059 -91 1747 -91 
Q 1113 -91 748 401 
Q 384 894 384 1759 
Q 384 2613 750 3098 
Q 1116 3584 1747 3584 
Q 2063 3584 2303 3448 
Q 2544 3313 2681 3053 
z
M 991 1747 
Q 991 1078 1203 737 
Q 1416 397 1831 397 
Q 2247 397 2464 740 
Q 2681 1084 2681 1747 
Q 2681 2413 2464 2755 
Q 2247 3097 1831 3097 
Q 1416 3097 1203 2756 
Q 991 2416 991 1747 
z
" transform="scale(0.015625)"/>
      <path id="DejaVuSansMono-66" d="M 3322 4863 
L 3322 4384 
L 2669 4384 
Q 2359 4384 2239 4257 
Q 2119 4131 2119 3809 
L 2119 3500 
L 3322 3500 
L 3322 3053 
L 2119 3053 
L 2119 0 
L 1544 0 
L 1544 3053 
L 609 3053 
L 609 3500 
L 1544 3500 
L 1544 3744 
Q 1544 4319 1808 4591 
Q 2072 4863 2631 4863 
L 3322 4863 
z
" transform="scale(0.015625)"/>
      <path id="DejaVuSansMono-2e" d="M 1528 953 
L 2316 953 
L 2316 0 
L 1528 0 
L 1528 953 
z
" transform="scale(0.015625)"/>
      <path id="DejaVuSansMono-69" d="M 800 3500 
L 2272 3500 
L 2272 447 
L 3413 447 
L 3413 0 
L 556 0 
L 556 447 
L 1697 447 
L 1697 3053 
L 800 3053 
L 800 3500 
z
M 1697 4863 
L 2272 4863 
L 2272 4134 
L 1697 4134 
L 1697 4863 
z
" transform="scale(0.015625)"/>
      <path id="DejaVuSansMono-73" d="M 3041 3378 
L 3041 2816 
Q 2794 2959 2544 3031 
Q 2294 3103 2034 3103 
Q 1644 3103 1451 2976 
Q 1259 2850 1259 2591 
Q 1259 2356 1403 2240 
Q 1547 2125 2119 2016 
L 2350 1972 
Q 2778 1891 2998 1647 
Q 3219 1403 3219 1013 
Q 3219 494 2850 201 
Q 2481 -91 1825 -91 
Q 1566 -91 1281 -36 
Q 997 19 666 128 
L 666 722 
Q 988 556 1281 473 
Q 1575 391 1838 391 
Q 2219 391 2428 545 
Q 2638 700 2638 978 
Q 2638 1378 1872 1531 
L 1847 1538 
L 1631 1581 
Q 1134 1678 906 1908 
Q 678 2138 678 2534 
Q 678 3038 1018 3311 
Q 1359 3584 1991 3584 
Q 2272 3584 2531 3532 
Q 2791 3481 3041 3378 
z
" transform="scale(0.015625)"/>
      <path id="DejaVuSansMono-6e" d="M 3284 2169 
L 3284 0 
L 2706 0 
L 2706 2169 
Q 2706 2641 2540 2862 
Q 2375 3084 2022 3084 
Q 1619 3084 1401 2798 
Q 1184 2513 1184 1978 
L 1184 0 
L 609 0 
L 609 3500 
L 1184 3500 
L 1184 2975 
Q 1338 3275 1600 3429 
Q 1863 3584 2222 3584 
Q 2756 3584 3020 3232 
Q 3284 2881 3284 2169 
z
" transform="scale(0.015625)"/>
      <path id="DejaVuSansMono-75" d="M 609 1325 
L 609 3494 
L 1184 3494 
L 1184 1325 
Q 1184 853 1351 631 
Q 1519 409 1869 409 
Q 2275 409 2490 695 
Q 2706 981 2706 1516 
L 2706 3494 
L 3284 3494 
L 3284 0 
L 2706 0 
L 2706 525 
Q 2553 222 2289 65 
Q 2025 -91 1672 -91 
Q 1134 -91 871 261 
Q 609 613 609 1325 
z
" transform="scale(0.015625)"/>
      <path id="DejaVuSansMono-6c" d="M 1997 1269 
Q 1997 881 2139 684 
Q 2281 488 2559 488 
L 3231 488 
L 3231 0 
L 2503 0 
Q 1988 0 1705 331 
Q 1422 663 1422 1269 
L 1422 4447 
L 500 4447 
L 500 4897 
L 1997 4897 
L 1997 1269 
z
" transform="scale(0.015625)"/>
      <path id="DejaVuSansMono-28" d="M 2766 4856 
Q 2350 4144 2145 3436 
Q 1941 2728 1941 2009 
Q 1941 1294 2145 584 
Q 2350 -125 2766 -844 
L 2266 -844 
Q 1794 -100 1562 604 
Q 1331 1309 1331 2009 
Q 1331 2706 1562 3412 
Q 1794 4119 2266 4856 
L 2766 4856 
z
" transform="scale(0.015625)"/>
      <path id="DejaVuSansMono-29" d="M 1088 4856 
L 1588 4856 
Q 2059 4119 2290 3412 
Q 2522 2706 2522 2009 
Q 2522 1306 2290 600 
Q 2059 -106 1588 -844 
L 1088 -844 
Q 1503 -119 1708 590 
Q 1913 1300 1913 2009 
Q 1913 2722 1708 3431 
Q 1503 4141 1088 4856 
z
" transform="scale(0.015625)"/>
      <path id="DejaVuSansMono-6d" d="M 2113 3144 
Q 2219 3369 2383 3476 
Q 2547 3584 2778 3584 
Q 3200 3584 3373 3257 
Q 3547 2931 3547 2028 
L 3547 0 
L 3022 0 
L 3022 2003 
Q 3022 2744 2939 2923 
Q 2856 3103 2638 3103 
Q 2388 3103 2295 2911 
Q 2203 2719 2203 2003 
L 2203 0 
L 1678 0 
L 1678 2003 
Q 1678 2753 1589 2928 
Q 1500 3103 1269 3103 
Q 1041 3103 952 2911 
Q 863 2719 863 2003 
L 863 0 
L 341 0 
L 341 3500 
L 863 3500 
L 863 3200 
Q 966 3388 1120 3486 
Q 1275 3584 1472 3584 
Q 1709 3584 1867 3475 
Q 2025 3366 2113 3144 
z
" transform="scale(0.015625)"/>
     </defs>
     <use xlink:href="#DejaVuSansMono-64"/>
     <use xlink:href="#DejaVuSansMono-66" x="60.205078"/>
     <use xlink:href="#DejaVuSansMono-2e" x="120.410156"/>
     <use xlink:href="#DejaVuSansMono-69" x="180.615234"/>
     <use xlink:href="#DejaVuSansMono-73" x="240.820312"/>
     <use xlink:href="#DejaVuSansMono-6e" x="301.025391"/>
     <use xlink:href="#DejaVuSansMono-75" x="361.230469"/>
     <use xlink:href="#DejaVuSansMono-6c" x="421.435547"/>
     <use xlink:href="#DejaVuSansMono-6c" x="481.640625"/>
     <use xlink:href="#DejaVuSansMono-28" x="541.845703"/>
     <use xlink:href="#DejaVuSansMono-29" x="602.050781"/>
     <use xlink:href="#DejaVuSansMono-2e" x="662.255859"/>
     <use xlink:href="#DejaVuSansMono-73" x="722.460938"/>
     <use xlink:href="#DejaVuSansMono-75" x="782.666016"/>
     <use xlink:href="#DejaVuSansMono-6d" x="842.871094"/>
     <use xlink:href="#DejaVuSansMono-28" x="903.076172"/>
     <use xlink:href="#DejaVuSansMono-29" x="963.28125"/>
    </g>
   </g>
   <g id="text_13">
    <!-- # 欠損率（%）を確認 -->
    <g style="fill: #cdd6f4" transform="translate(40.32 304.360434) scale(0.105 -0.105)">
     <defs>
      <path id="DejaVuSansMono-7387" d="M 325 -1131 
L 325 4513 
L 3525 4513 
L 3525 -1131 
L 325 -1131 
z
M 684 -775 
L 3169 -775 
L 3169 4153 
L 684 4153 
L 684 -775 
z
" transform="scale(0.015625)"/>
      <path id="DejaVuSansMono-ff08" d="M 325 -1131 
L 325 4513 
L 3525 4513 
L 3525 -1131 
L 325 -1131 
z
M 684 -775 
L 3169 -775 
L 3169 4153 
L 684 4153 
L 684 -775 
z
" transform="scale(0.015625)"/>
      <path id="DejaVuSansMono-25" d="M 2175 997 
Q 2175 753 2339 587 
Q 2503 422 2747 422 
Q 2988 422 3155 589 
Q 3322 756 3322 997 
Q 3322 1238 3153 1406 
Q 2984 1575 2747 1575 
Q 2503 1575 2339 1409 
Q 2175 1244 2175 997 
z
M 1753 997 
Q 1753 1419 2040 1708 
Q 2328 1997 2747 1997 
Q 2947 1997 3126 1922 
Q 3306 1847 3450 1703 
Q 3594 1556 3672 1375 
Q 3750 1194 3750 997 
Q 3750 581 3459 290 
Q 3169 0 2747 0 
Q 2322 0 2037 286 
Q 1753 572 1753 997 
z
M 378 1453 
L 269 1753 
L 3525 3059 
L 3653 2759 
L 378 1453 
z
M 525 3475 
Q 525 3228 689 3064 
Q 853 2900 1100 2900 
Q 1341 2900 1509 3067 
Q 1678 3234 1678 3475 
Q 1678 3716 1509 3883 
Q 1341 4050 1100 4050 
Q 859 4050 692 3884 
Q 525 3719 525 3475 
z
M 103 3475 
Q 103 3897 390 4186 
Q 678 4475 1100 4475 
Q 1300 4475 1483 4400 
Q 1666 4325 1806 4184 
Q 1947 4044 2023 3861 
Q 2100 3678 2100 3475 
Q 2100 3056 1809 2767 
Q 1519 2478 1100 2478 
Q 678 2478 390 2765 
Q 103 3053 103 3475 
z
" transform="scale(0.015625)"/>
      <path id="DejaVuSansMono-ff09" d="M 325 -1131 
L 325 4513 
L 3525 4513 
L 3525 -1131 
L 325 -1131 
z
M 684 -775 
L 3169 -775 
L 3169 4153 
L 684 4153 
L 684 -775 
z
" transform="scale(0.015625)"/>
     </defs>
     <use xlink:href="#DejaVuSansMono-23"/>
     <use xlink:href="#DejaVuSansMono-20" x="60.205078"/>
     <use xlink:href="#DejaVuSansMono-6b20" x="120.410156"/>
     <use xlink:href="#DejaVuSansMono-640d" x="180.615234"/>
     <use xlink:href="#DejaVuSansMono-7387" x="240.820312"/>
     <use xlink:href="#DejaVuSansMono-ff08" x="301.025391"/>
     <use xlink:href="#DejaVuSansMono-25" x="361.230469"/>
     <use xlink:href="#DejaVuSansMono-ff09" x="421.435547"/>
     <use xlink:href="#DejaVuSansMono-3092" x="481.640625"/>
     <use xlink:href="#DejaVuSansMono-78ba" x="541.845703"/>
     <use xlink:href="#DejaVuSansMono-8a8d" x="602.050781"/>
    </g>
   </g>
   <g id="text_14">
    <!-- (df.isnull().sum() / len(df) * 100).round(1) -->
    <g style="fill: #cdd6f4" transform="translate(40.32 320.776434) scale(0.105 -0.105)">
     <defs>
      <path id="DejaVuSansMono-2f" d="M 2778 4666 
L 3372 4666 
L 916 -594 
L 319 -594 
L 2778 4666 
z
" transform="scale(0.015625)"/>
      <path id="DejaVuSansMono-65" d="M 3475 1894 
L 3475 1613 
L 984 1613 
L 984 1594 
Q 984 1022 1282 709 
Q 1581 397 2125 397 
Q 2400 397 2700 484 
Q 3000 572 3341 750 
L 3341 178 
Q 3013 44 2708 -23 
Q 2403 -91 2119 -91 
Q 1303 -91 843 398 
Q 384 888 384 1747 
Q 384 2584 834 3084 
Q 1284 3584 2034 3584 
Q 2703 3584 3089 3131 
Q 3475 2678 3475 1894 
z
M 2900 2063 
Q 2888 2569 2661 2833 
Q 2434 3097 2009 3097 
Q 1594 3097 1325 2822 
Q 1056 2547 1006 2059 
L 2900 2063 
z
" transform="scale(0.015625)"/>
      <path id="DejaVuSansMono-2a" d="M 3334 3897 
L 2216 3291 
L 3334 2681 
L 3156 2375 
L 2106 3009 
L 2106 1831 
L 1747 1831 
L 1747 3009 
L 697 2375 
L 519 2681 
L 1638 3291 
L 519 3897 
L 697 4206 
L 1747 3572 
L 1747 4750 
L 2106 4750 
L 2106 3572 
L 3156 4206 
L 3334 3897 
z
" transform="scale(0.015625)"/>
      <path id="DejaVuSansMono-31" d="M 844 531 
L 1825 531 
L 1825 4097 
L 769 3859 
L 769 4434 
L 1819 4666 
L 2450 4666 
L 2450 531 
L 3419 531 
L 3419 0 
L 844 0 
L 844 531 
z
" transform="scale(0.015625)"/>
      <path id="DejaVuSansMono-30" d="M 1509 2344 
Q 1509 2516 1629 2641 
Q 1750 2766 1919 2766 
Q 2094 2766 2219 2641 
Q 2344 2516 2344 2344 
Q 2344 2169 2220 2047 
Q 2097 1925 1919 1925 
Q 1744 1925 1626 2044 
Q 1509 2163 1509 2344 
z
M 1925 4250 
Q 1484 4250 1267 3775 
Q 1050 3300 1050 2328 
Q 1050 1359 1267 884 
Q 1484 409 1925 409 
Q 2369 409 2586 884 
Q 2803 1359 2803 2328 
Q 2803 3300 2586 3775 
Q 2369 4250 1925 4250 
z
M 1925 4750 
Q 2672 4750 3055 4137 
Q 3438 3525 3438 2328 
Q 3438 1134 3055 521 
Q 2672 -91 1925 -91 
Q 1178 -91 797 521 
Q 416 1134 416 2328 
Q 416 3525 797 4137 
Q 1178 4750 1925 4750 
z
" transform="scale(0.015625)"/>
      <path id="DejaVuSansMono-72" d="M 3609 2778 
Q 3425 2922 3234 2987 
Q 3044 3053 2816 3053 
Q 2278 3053 1993 2715 
Q 1709 2378 1709 1741 
L 1709 0 
L 1131 0 
L 1131 3500 
L 1709 3500 
L 1709 2816 
Q 1853 3188 2151 3386 
Q 2450 3584 2859 3584 
Q 3072 3584 3256 3531 
Q 3441 3478 3609 3366 
L 3609 2778 
z
" transform="scale(0.015625)"/>
      <path id="DejaVuSansMono-6f" d="M 1925 3097 
Q 1488 3097 1263 2756 
Q 1038 2416 1038 1747 
Q 1038 1081 1263 739 
Q 1488 397 1925 397 
Q 2366 397 2591 739 
Q 2816 1081 2816 1747 
Q 2816 2416 2591 2756 
Q 2366 3097 1925 3097 
z
M 1925 3584 
Q 2653 3584 3039 3112 
Q 3425 2641 3425 1747 
Q 3425 850 3040 379 
Q 2656 -91 1925 -91 
Q 1197 -91 812 379 
Q 428 850 428 1747 
Q 428 2641 812 3112 
Q 1197 3584 1925 3584 
z
" transform="scale(0.015625)"/>
     </defs>
     <use xlink:href="#DejaVuSansMono-28"/>
     <use xlink:href="#DejaVuSansMono-64" x="60.205078"/>
     <use xlink:href="#DejaVuSansMono-66" x="120.410156"/>
     <use xlink:href="#DejaVuSansMono-2e" x="180.615234"/>
     <use xlink:href="#DejaVuSansMono-69" x="240.820312"/>
     <use xlink:href="#DejaVuSansMono-73" x="301.025391"/>
     <use xlink:href="#DejaVuSansMono-6e" x="361.230469"/>
     <use xlink:href="#DejaVuSansMono-75" x="421.435547"/>
     <use xlink:href="#DejaVuSansMono-6c" x="481.640625"/>
     <use xlink:href="#DejaVuSansMono-6c" x="541.845703"/>
     <use xlink:href="#DejaVuSansMono-28" x="602.050781"/>
     <use xlink:href="#DejaVuSansMono-29" x="662.255859"/>
     <use xlink:href="#DejaVuSansMono-2e" x="722.460938"/>
     <use xlink:href="#DejaVuSansMono-73" x="782.666016"/>
     <use xlink:href="#DejaVuSansMono-75" x="842.871094"/>
     <use xlink:href="#DejaVuSansMono-6d" x="903.076172"/>
     <use xlink:href="#DejaVuSansMono-28" x="963.28125"/>
     <use xlink:href="#DejaVuSansMono-29" x="1023.486328"/>
     <use xlink:href="#DejaVuSansMono-20" x="1083.691406"/>
     <use xlink:href="#DejaVuSansMono-2f" x="1143.896484"/>
     <use xlink:href="#DejaVuSansMono-20" x="1204.101562"/>
     <use xlink:href="#DejaVuSansMono-6c" x="1264.306641"/>
     <use xlink:href="#DejaVuSansMono-65" x="1324.511719"/>
     <use xlink:href="#DejaVuSansMono-6e" x="1384.716797"/>
     <use xlink:href="#DejaVuSansMono-28" x="1444.921875"/>
     <use xlink:href="#DejaVuSansMono-64" x="1505.126953"/>
     <use xlink:href="#DejaVuSansMono-66" x="1565.332031"/>
     <use xlink:href="#DejaVuSansMono-29" x="1625.537109"/>
     <use xlink:href="#DejaVuSansMono-20" x="1685.742188"/>
     <use xlink:href="#DejaVuSansMono-2a" x="1745.947266"/>
     <use xlink:href="#DejaVuSansMono-20" x="1806.152344"/>
     <use xlink:href="#DejaVuSansMono-31" x="1866.357422"/>
     <use xlink:href="#DejaVuSansMono-30" x="1926.5625"/>
     <use xlink:href="#DejaVuSansMono-30" x="1986.767578"/>
     <use xlink:href="#DejaVuSansMono-29" x="2046.972656"/>
     <use xlink:href="#DejaVuSansMono-2e" x="2107.177734"/>
     <use xlink:href="#DejaVuSansMono-72" x="2167.382812"/>
     <use xlink:href="#DejaVuSansMono-6f" x="2227.587891"/>
     <use xlink:href="#DejaVuSansMono-75" x="2287.792969"/>
     <use xlink:href="#DejaVuSansMono-6e" x="2347.998047"/>
     <use xlink:href="#DejaVuSansMono-64" x="2408.203125"/>
     <use xlink:href="#DejaVuSansMono-28" x="2468.408203"/>
     <use xlink:href="#DejaVuSansMono-31" x="2528.613281"/>
     <use xlink:href="#DejaVuSansMono-29" x="2588.818359"/>
    </g>
   </g>
  </g>
 </g>
 <defs>
  <clipPath id="pba2e4c3caa">
   <rect x="0" y="-0" width="691.2" height="388.8"/>
  </clipPath>
 </defs>
</svg>
