<?xml version="1.0" encoding="utf-8" standalone="no"?>
<!DOCTYPE svg PUBLIC "-//W3C//DTD SVG 1.1//EN"
  "http://www.w3.org/Graphics/SVG/1.1/DTD/svg11.dtd">
<svg xmlns:xlink="http://www.w3.org/1999/xlink" width="691.2pt" height="388.8pt" viewBox="0 0 691.2 388.8" xmlns="http://www.w3.org/2000/svg" version="1.1">
 <metadata>
  <rdf:RDF xmlns:dc="http://purl.org/dc/elements/1.1/" xmlns:cc="http://creativecommons.org/ns#" xmlns:rdf="http://www.w3.org/1999/02/22-rdf-syntax-ns#">
   <cc:Work>
    <dc:type rdf:resource="http://purl.org/dc/dcmitype/StillImage"/>
    <dc:date>2026-04-09T02:37:45.508165</dc:date>
    <dc:format>image/svg+xml</dc:format>
    <dc:creator>
     <cc:Agent>
      <dc:title>Matplotlib v3.9.4, https://matplotlib.org/</dc:title>
     </cc:Agent>
    </dc:creator>
   </cc:Work>
  </rdf:RDF>
 </metadata>
 <defs>
  <style type="text/css">*{stroke-linejoin: round; stroke-linecap: butt}</style>
 </defs>
 <g id="figure_1">
  <g id="patch_1">
   <path d="M 0 388.8 
L 691.2 388.8 
L 691.2 0 
L 0 0 
z
" style="fill: #ffffff"/>
  </g>
  <g id="axes_1">
   <g id="patch_2">
    <path d="M 0 -0 
L 691.2 -0 
L 691.2 24.48 
L 0 24.48 
z
" clip-path="url(#p966b347781)" style="fill: #4a90d9"/>
   </g>
   <g id="patch_3">
    <path d="M 31.68 59.04 
L 659.52 59.04 
L 659.52 60.48 
L 31.68 60.48 
z
" clip-path="url(#p966b347781)" style="fill: #ecf0f1"/>
   </g>
   <g id="patch_4">
    <path d="M 31.68 63.36 
L 161.28 63.36 
L 161.28 89.28 
L 31.68 89.28 
z
" clip-path="url(#p966b347781)" style="fill: #4a90d9; stroke: #ffffff; stroke-linejoin: miter"/>
   </g>
   <g id="patch_5">
    <path d="M 161.28 63.36 
L 377.28 63.36 
L 377.28 89.28 
L 161.28 89.28 
z
" clip-path="url(#p966b347781)" style="fill: #4a90d9; stroke: #ffffff; stroke-linejoin: miter"/>
   </g>
   <g id="patch_6">
    <path d="M 377.28 63.36 
L 659.52 63.36 
L 659.52 89.28 
L 377.28 89.28 
z
" clip-path="url(#p966b347781)" style="fill: #4a90d9; stroke: #ffffff; stroke-linejoin: miter"/>
   </g>
   <g id="patch_7">
    <path d="M 31.68 89.28 
L 161.28 89.28 
L 161.28 115.2 
L 31.68 115.2 
z
" clip-path="url(#p966b347781)" style="fill: #ffffff; stroke: #ecf0f1; stroke-width: 0.5; stroke-linejoin: miter"/>
   </g>
   <g id="patch_8">
    <path d="M 161.28 89.28 
L 377.28 89.28 
L 377.28 115.2 
L 161.28 115.2 
z
" clip-path="url(#p966b347781)" style="fill: #ffffff; stroke: #ecf0f1; stroke-width: 0.5; stroke-linejoin: miter"/>
   </g>
   <g id="patch_9">
    <path d="M 377.28 89.28 
L 659.52 89.28 
L 659.52 115.2 
L 377.28 115.2 
z
" clip-path="url(#p966b347781)" style="fill: #ffffff; stroke: #ecf0f1; stroke-width: 0.5; stroke-linejoin: miter"/>
   </g>
   <g id="patch_10">
    <path d="M 31.68 115.2 
L 161.28 115.2 
L 161.28 141.12 
L 31.68 141.12 
z
" clip-path="url(#p966b347781)" style="fill: #f8f9fa; stroke: #ecf0f1; stroke-width: 0.5; stroke-linejoin: miter"/>
   </g>
   <g id="patch_11">
    <path d="M 161.28 115.2 
L 377.28 115.2 
L 377.28 141.12 
L 161.28 141.12 
z
" clip-path="url(#p966b347781)" style="fill: #f8f9fa; stroke: #ecf0f1; stroke-width: 0.5; stroke-linejoin: miter"/>
   </g>
   <g id="patch_12">
    <path d="M 377.28 115.2 
L 659.52 115.2 
L 659.52 141.12 
L 377.28 141.12 
z
" clip-path="url(#p966b347781)" style="fill: #f8f9fa; stroke: #ecf0f1; stroke-width: 0.5; stroke-linejoin: miter"/>
   </g>
   <g id="patch_13">
    <path d="M 31.68 141.12 
L 161.28 141.12 
L 161.28 167.04 
L 31.68 167.04 
z
" clip-path="url(#p966b347781)" style="fill: #ffffff; stroke: #ecf0f1; stroke-width: 0.5; stroke-linejoin: miter"/>
   </g>
   <g id="patch_14">
    <path d="M 161.28 141.12 
L 377.28 141.12 
L 377.28 167.04 
L 161.28 167.04 
z
" clip-path="url(#p966b347781)" style="fill: #ffffff; stroke: #ecf0f1; stroke-width: 0.5; stroke-linejoin: miter"/>
   </g>
   <g id="patch_15">
    <path d="M 377.28 141.12 
L 659.52 141.12 
L 659.52 167.04 
L 377.28 167.04 
z
" clip-path="url(#p966b347781)" style="fill: #ffffff; stroke: #ecf0f1; stroke-width: 0.5; stroke-linejoin: miter"/>
   </g>
   <g id="patch_16">
    <path d="M 31.68 167.04 
L 161.28 167.04 
L 161.28 192.96 
L 31.68 192.96 
z
" clip-path="url(#p966b347781)" style="fill: #f8f9fa; stroke: #ecf0f1; stroke-width: 0.5; stroke-linejoin: miter"/>
   </g>
   <g id="patch_17">
    <path d="M 161.28 167.04 
L 377.28 167.04 
L 377.28 192.96 
L 161.28 192.96 
z
" clip-path="url(#p966b347781)" style="fill: #f8f9fa; stroke: #ecf0f1; stroke-width: 0.5; stroke-linejoin: miter"/>
   </g>
   <g id="patch_18">
    <path d="M 377.28 167.04 
L 659.52 167.04 
L 659.52 192.96 
L 377.28 192.96 
z
" clip-path="url(#p966b347781)" style="fill: #f8f9fa; stroke: #ecf0f1; stroke-width: 0.5; stroke-linejoin: miter"/>
   </g>
   <g id="patch_19">
    <path d="M 31.68 192.96 
L 161.28 192.96 
L 161.28 218.88 
L 31.68 218.88 
z
" clip-path="url(#p966b347781)" style="fill: #ffffff; stroke: #ecf0f1; stroke-width: 0.5; stroke-linejoin: miter"/>
   </g>
   <g id="patch_20">
    <path d="M 161.28 192.96 
L 377.28 192.96 
L 377.28 218.88 
L 161.28 218.88 
z
" clip-path="url(#p966b347781)" style="fill: #ffffff; stroke: #ecf0f1; stroke-width: 0.5; stroke-linejoin: miter"/>
   </g>
   <g id="patch_21">
    <path d="M 377.28 192.96 
L 659.52 192.96 
L 659.52 218.88 
L 377.28 218.88 
z
" clip-path="url(#p966b347781)" style="fill: #ffffff; stroke: #ecf0f1; stroke-width: 0.5; stroke-linejoin: miter"/>
   </g>
   <g id="patch_22">
    <path d="M 31.68 280.8 
L 659.52 280.8 
L 659.52 312.48 
L 31.68 312.48 
z
" clip-path="url(#p966b347781)" style="fill: #ebf5fb"/>
   </g>
   <g id="patch_23">
    <path d="M 31.68 280.8 
L 33.84 280.8 
L 33.84 312.48 
L 31.68 312.48 
z
" clip-path="url(#p966b347781)" style="fill: #4a90d9"/>
   </g>
   <g id="text_1">
    <!-- Ch.1 データ読み込み・集計 -->
    <g style="fill: #ffffff" transform="translate(31.68 15.061875) scale(0.1 -0.1)">
     <defs>
      <path id="IPAexGothic-43" d="M 4353 1088 
Q 4181 694 3859 428 
Q 3313 -31 2559 -31 
Q 1588 -31 959 653 
Q 378 1294 378 2331 
Q 378 3406 1013 4078 
Q 1619 4725 2534 4725 
Q 3813 4725 4322 3628 
L 3809 3391 
Q 3425 4238 2541 4238 
Q 1891 4238 1453 3744 
Q 994 3216 994 2322 
Q 994 1550 1384 1056 
Q 1841 472 2563 472 
Q 3456 472 3878 1319 
L 4353 1088 
z
" transform="scale(0.015625)"/>
      <path id="IPAexGothic-68" d="M 3347 63 
L 2797 63 
L 2797 2041 
Q 2797 2853 2131 2853 
Q 1447 2853 1131 2041 
L 1131 63 
L 581 63 
L 581 4794 
L 1131 4794 
L 1131 2706 
Q 1566 3316 2247 3316 
Q 3347 3316 3347 2072 
L 3347 63 
z
" transform="scale(0.015625)"/>
      <path id="IPAexGothic-2e" d="M 1184 63 
L 494 63 
L 494 753 
L 1184 753 
L 1184 63 
z
" transform="scale(0.015625)"/>
      <path id="IPAexGothic-31" d="M 2463 63 
L 1900 63 
L 1900 4103 
Q 1372 3922 788 3797 
L 684 4231 
Q 1519 4441 2106 4731 
L 2463 4731 
L 2463 63 
z
" transform="scale(0.015625)"/>
      <path id="IPAexGothic-20" transform="scale(0.015625)"/>
      <path id="IPAexGothic-30c7" d="M 563 3072 
L 5741 3072 
L 5741 2613 
L 3578 2613 
Q 3538 1516 3134 872 
Q 2688 156 1663 -256 
L 1313 156 
Q 2338 538 2713 1166 
Q 3003 1644 3034 2613 
L 563 2613 
L 563 3072 
z
M 1406 4588 
L 4588 4588 
L 4588 4128 
L 1406 4128 
L 1406 4588 
z
M 6009 4469 
Q 5647 5009 5253 5338 
L 5553 5569 
Q 5938 5259 6328 4744 
L 6009 4469 
z
M 5413 4000 
Q 5125 4491 4678 4891 
L 4991 5131 
Q 5363 4825 5747 4275 
L 5413 4000 
z
" transform="scale(0.015625)"/>
      <path id="IPAexGothic-30fc" d="M 588 2688 
L 5809 2688 
L 5809 2175 
L 588 2175 
L 588 2688 
z
" transform="scale(0.015625)"/>
      <path id="IPAexGothic-30bf" d="M 4978 4263 
L 5313 3988 
Q 4797 2431 4056 1459 
Q 3191 325 1822 -300 
L 1466 109 
Q 2131 381 2613 738 
Q 3053 1066 3531 1600 
Q 2919 2225 2144 2791 
Q 1603 2203 1172 1875 
L 825 2234 
Q 2316 3328 2866 5031 
L 3359 4897 
Q 3325 4775 3109 4263 
L 4978 4263 
z
M 2894 3816 
Q 2709 3522 2438 3169 
Q 3194 2616 3841 2003 
Q 4366 2806 4747 3816 
L 2894 3816 
z
" transform="scale(0.015625)"/>
      <path id="IPAexGothic-8aad" d="M 2284 1684 
L 2284 -128 
L 919 -128 
L 919 -447 
L 509 -447 
L 509 1684 
L 2284 1684 
z
M 919 1313 
L 919 244 
L 1875 244 
L 1875 1313 
L 919 1313 
z
M 3953 4538 
L 3953 5313 
L 4394 5313 
L 4394 4538 
L 5994 4538 
L 5994 4153 
L 4394 4153 
L 4394 3572 
L 5822 3572 
L 5822 3194 
L 2653 3194 
L 2653 3572 
L 3953 3572 
L 3953 4153 
L 2506 4153 
L 2506 4538 
L 3953 4538 
z
M 5950 2725 
L 5950 1559 
L 5522 1559 
L 5522 2341 
L 2928 2341 
L 2928 1516 
L 2500 1516 
L 2500 2725 
L 5950 2725 
z
M 600 5044 
L 2194 5044 
L 2194 4659 
L 600 4659 
L 600 5044 
z
M 331 4206 
L 2384 4206 
L 2384 3816 
L 331 3816 
L 331 4206 
z
M 600 3359 
L 2194 3359 
L 2194 2975 
L 600 2975 
L 600 3359 
z
M 600 2522 
L 2194 2522 
L 2194 2138 
L 600 2138 
L 600 2522 
z
M 2353 -91 
Q 3025 194 3244 647 
Q 3431 1044 3441 2069 
L 3872 2069 
Q 3859 869 3634 441 
Q 3334 -109 2616 -475 
L 2353 -91 
z
M 4428 2069 
L 4856 2069 
L 4856 275 
Q 4856 128 4934 88 
Q 4994 63 5175 63 
Q 5500 63 5547 263 
Q 5584 425 5606 984 
L 6034 856 
Q 5994 153 5931 -38 
Q 5825 -372 5144 -372 
Q 4688 -372 4544 -275 
Q 4428 -191 4428 44 
L 4428 2069 
z
" transform="scale(0.015625)"/>
      <path id="IPAexGothic-307f" d="M 1291 4416 
Q 2209 4456 3341 4647 
L 3666 4409 
Q 3478 3597 3134 2703 
Q 3959 2575 4581 2300 
Q 4669 2759 4678 3488 
L 5163 3381 
Q 5134 2672 5016 2106 
Q 5519 1856 6016 1519 
L 5722 1081 
Q 5184 1459 4888 1613 
Q 4572 441 3456 -238 
L 3072 109 
Q 4150 678 4472 1831 
Q 3706 2200 2969 2284 
Q 2038 200 1319 200 
Q 1013 200 775 525 
Q 569 819 569 1197 
Q 569 1756 1081 2172 
Q 1681 2647 2663 2716 
Q 2900 3313 3084 4159 
Q 2278 4022 1447 3956 
L 1291 4416 
z
M 2481 2291 
Q 1644 2206 1241 1734 
Q 1038 1494 1038 1178 
Q 1038 1019 1100 897 
Q 1188 706 1338 706 
Q 1513 706 1797 1097 
Q 2131 1534 2481 2291 
z
" transform="scale(0.015625)"/>
      <path id="IPAexGothic-8fbc" d="M 4294 4897 
L 4294 4456 
Q 4294 3291 4763 2394 
Q 5206 1531 5938 1019 
L 5613 572 
Q 4391 1628 4044 3156 
Q 3706 1475 2503 544 
L 2169 934 
Q 3650 1928 3834 4403 
L 3841 4481 
L 2566 4481 
L 2566 4897 
L 4294 4897 
z
M 1831 775 
Q 2106 428 2516 284 
Q 2906 150 4197 150 
Q 5228 150 6119 216 
Q 6003 13 5944 -269 
Q 5022 -303 4453 -303 
Q 2925 -303 2425 -131 
Q 1900 44 1600 478 
Q 1144 -56 666 -450 
L 372 38 
Q 825 309 1378 759 
L 1378 2303 
L 397 2303 
L 397 2731 
L 1831 2731 
L 1831 775 
z
M 1625 3616 
Q 1191 4200 634 4703 
L 972 4997 
Q 1456 4616 1984 3969 
L 1625 3616 
z
" transform="scale(0.015625)"/>
      <path id="IPAexGothic-30fb" d="M 2772 2859 
L 3628 2859 
L 3628 2003 
L 2772 2003 
L 2772 2859 
z
" transform="scale(0.015625)"/>
      <path id="IPAexGothic-96c6" d="M 3000 4634 
Q 3197 5047 3275 5338 
L 3775 5216 
Q 3634 4922 3447 4634 
L 5625 4634 
L 5625 4269 
L 3416 4269 
L 3416 3884 
L 5291 3884 
L 5291 3553 
L 3416 3553 
L 3416 3175 
L 5291 3175 
L 5291 2844 
L 3416 2844 
L 3416 2431 
L 5759 2431 
L 5759 2066 
L 3403 2066 
L 3403 1659 
L 5981 1659 
L 5981 1281 
L 3741 1281 
Q 4628 538 6078 141 
L 5759 -275 
Q 4266 222 3403 1122 
L 3403 -447 
L 2950 -447 
L 2950 1091 
Q 2094 69 600 -409 
L 294 -25 
Q 1778 388 2644 1281 
L 416 1281 
L 416 1659 
L 2950 1659 
L 2950 2066 
L 1222 2066 
L 1222 3744 
Q 894 3322 600 3066 
L 306 3375 
Q 1209 4163 1625 5338 
L 2091 5244 
Q 1950 4909 1797 4634 
L 3000 4634 
z
M 1663 4269 
L 1663 3884 
L 3000 3884 
L 3000 4269 
L 1663 4269 
z
M 1663 3553 
L 1663 3175 
L 3000 3175 
L 3000 3553 
L 1663 3553 
z
M 1663 2844 
L 1663 2431 
L 3000 2431 
L 3000 2844 
L 1663 2844 
z
" transform="scale(0.015625)"/>
      <path id="IPAexGothic-8a08" d="M 2853 1684 
L 2853 -416 
L 2413 -416 
L 2413 -128 
L 1088 -128 
L 1088 -447 
L 647 -447 
L 647 1684 
L 2853 1684 
z
M 1088 1300 
L 1088 256 
L 2413 256 
L 2413 1300 
L 1088 1300 
z
M 4322 3225 
L 4322 5178 
L 4781 5178 
L 4781 3225 
L 6063 3225 
L 6063 2797 
L 4781 2797 
L 4781 -447 
L 4322 -447 
L 4322 2797 
L 3063 2797 
L 3063 3225 
L 4322 3225 
z
M 781 5044 
L 2722 5044 
L 2722 4647 
L 781 4647 
L 781 5044 
z
M 384 4206 
L 3150 4206 
L 3150 3803 
L 384 3803 
L 384 4206 
z
M 781 3359 
L 2722 3359 
L 2722 2963 
L 781 2963 
L 781 3359 
z
M 781 2522 
L 2722 2522 
L 2722 2125 
L 781 2125 
L 781 2522 
z
" transform="scale(0.015625)"/>
     </defs>
     <use xlink:href="#IPAexGothic-43"/>
     <use xlink:href="#IPAexGothic-68" x="72.509766"/>
     <use xlink:href="#IPAexGothic-2e" x="133.203125"/>
     <use xlink:href="#IPAexGothic-31" x="159.619141"/>
     <use xlink:href="#IPAexGothic-20" x="222.607422"/>
     <use xlink:href="#IPAexGothic-30c7" x="249.609375"/>
     <use xlink:href="#IPAexGothic-30fc" x="349.609375"/>
     <use xlink:href="#IPAexGothic-30bf" x="449.609375"/>
     <use xlink:href="#IPAexGothic-8aad" x="549.609375"/>
     <use xlink:href="#IPAexGothic-307f" x="649.609375"/>
     <use xlink:href="#IPAexGothic-8fbc" x="749.609375"/>
     <use xlink:href="#IPAexGothic-307f" x="849.609375"/>
     <use xlink:href="#IPAexGothic-30fb" x="949.609375"/>
     <use xlink:href="#IPAexGothic-96c6" x="1049.609375"/>
     <use xlink:href="#IPAexGothic-8a08" x="1149.609375"/>
    </g>
   </g>
   <g id="text_2">
    <!-- Ch.1 まとめ -->
    <g style="fill: #1a1a2e" transform="translate(31.68 55.4175) scale(0.24 -0.24)">
     <defs>
      <path id="IPAexGothic-307e" d="M 3538 5075 
L 3547 4141 
Q 4509 4203 5288 4341 
L 5325 3897 
Q 4744 3809 3553 3719 
L 3566 2925 
Q 4578 3022 5031 3103 
L 5063 2663 
Q 4519 2572 3578 2503 
L 3628 1403 
Q 4531 1128 5459 513 
L 5153 84 
Q 4656 456 3641 909 
Q 3669 331 3391 84 
Q 3116 -153 2559 -153 
Q 1900 -153 1522 72 
Q 1138 297 1138 719 
Q 1138 1163 1634 1413 
Q 1994 1594 2413 1594 
Q 2797 1594 3156 1538 
L 3109 2472 
Q 2641 2450 2413 2450 
Q 1931 2450 1422 2484 
L 1422 2919 
Q 1941 2872 2516 2872 
Q 2706 2872 3097 2894 
L 3072 3688 
Q 2381 3675 2344 3675 
Q 1794 3675 1075 3706 
L 1075 4141 
Q 1744 4097 2431 4097 
Q 2456 4097 3059 4109 
L 3041 5075 
L 3538 5075 
z
M 3163 1088 
Q 2713 1184 2394 1184 
Q 2094 1184 1875 1091 
Q 1606 975 1606 750 
Q 1606 484 1925 363 
Q 2156 275 2503 275 
Q 3163 275 3163 794 
L 3163 1088 
z
" transform="scale(0.015625)"/>
      <path id="IPAexGothic-3068" d="M 5222 56 
Q 4200 -72 3450 -72 
Q 2478 -72 1941 113 
Q 1184 372 1184 1038 
Q 1184 1584 1594 2009 
Q 1941 2369 2656 2725 
Q 2231 3734 1972 4878 
L 2491 4978 
Q 2706 3884 3078 2950 
Q 4250 3447 4756 3616 
L 4978 3150 
Q 3181 2575 2409 2078 
Q 1691 1613 1691 1113 
Q 1691 403 3322 403 
Q 4125 403 5134 563 
L 5222 56 
z
" transform="scale(0.015625)"/>
      <path id="IPAexGothic-3081" d="M 1588 4550 
Q 1709 3969 1881 3431 
Q 2488 3791 3309 3891 
Q 3444 4513 3488 4972 
L 3994 4878 
Q 3922 4456 3800 3897 
Q 4666 3838 5169 3397 
Q 5513 3103 5650 2753 
Q 5784 2413 5784 1900 
Q 5784 1081 5106 550 
Q 4500 75 3397 -128 
L 3103 331 
Q 4238 484 4784 944 
Q 5253 1334 5253 1913 
Q 5253 2428 5100 2725 
Q 4981 2963 4716 3156 
Q 4331 3441 3694 3500 
Q 3363 2388 2766 1428 
Q 2872 1241 3084 966 
L 2725 647 
Q 2597 813 2475 1019 
Q 1834 231 1313 231 
Q 966 231 756 556 
Q 544 884 544 1338 
Q 544 2300 1484 3156 
Q 1250 3903 1153 4353 
L 1588 4550 
z
M 1631 2725 
Q 991 2069 991 1378 
Q 991 738 1344 738 
Q 1709 738 2228 1428 
Q 1894 2025 1631 2725 
z
M 3206 3488 
Q 2519 3381 2009 3028 
Q 2266 2306 2516 1863 
Q 3003 2763 3206 3488 
z
" transform="scale(0.015625)"/>
     </defs>
     <use xlink:href="#IPAexGothic-43"/>
     <use xlink:href="#IPAexGothic-68" x="72.509766"/>
     <use xlink:href="#IPAexGothic-2e" x="133.203125"/>
     <use xlink:href="#IPAexGothic-31" x="159.619141"/>
     <use xlink:href="#IPAexGothic-20" x="222.607422"/>
     <use xlink:href="#IPAexGothic-307e" x="249.609375"/>
     <use xlink:href="#IPAexGothic-3068" x="349.609375"/>
     <use xlink:href="#IPAexGothic-3081" x="449.609375"/>
    </g>
   </g>
   <g id="text_3">
    <!-- 操作 -->
    <g style="fill: #ffffff" transform="translate(38.88 79.674375) scale(0.12 -0.12)">
     <defs>
      <path id="IPAexGothic-64cd" d="M 4381 1306 
Q 5084 588 6109 213 
L 5816 -203 
Q 4803 297 4197 1050 
L 4197 -447 
L 3769 -447 
L 3769 1019 
Q 3203 203 2194 -288 
L 1900 84 
Q 2900 466 3597 1306 
L 2047 1306 
L 2047 1678 
L 3769 1678 
L 3769 2113 
L 4197 2113 
L 4197 1678 
L 5944 1678 
L 5944 1306 
L 4381 1306 
z
M 1119 4013 
L 1119 5313 
L 1534 5313 
L 1534 4013 
L 2150 4013 
L 2150 3609 
L 1534 3609 
L 1534 2375 
Q 1644 2406 2066 2547 
L 2097 2175 
Q 1784 2044 1534 1953 
L 1534 0 
Q 1534 -263 1419 -356 
Q 1309 -447 1034 -447 
Q 763 -447 484 -409 
L 416 44 
Q 681 -6 934 -6 
Q 1119 -6 1119 172 
L 1119 1806 
Q 894 1722 422 1581 
L 269 2016 
Q 734 2128 1119 2247 
L 1119 3609 
L 344 3609 
L 344 4013 
L 1119 4013 
z
M 5106 5081 
L 5106 3800 
L 2809 3800 
L 2809 5081 
L 5106 5081 
z
M 3225 4728 
L 3225 4141 
L 4691 4141 
L 4691 4728 
L 3225 4728 
z
M 3794 3488 
L 3794 2213 
L 2228 2213 
L 2228 3488 
L 3794 3488 
z
M 2631 3147 
L 2631 2553 
L 3391 2553 
L 3391 3147 
L 2631 3147 
z
M 5759 3488 
L 5759 2213 
L 4172 2213 
L 4172 3488 
L 5759 3488 
z
M 4575 3147 
L 4575 2553 
L 5356 2553 
L 5356 3147 
L 4575 3147 
z
" transform="scale(0.015625)"/>
      <path id="IPAexGothic-4f5c" d="M 3609 3834 
L 3231 3834 
Q 2869 2822 2297 2038 
L 1963 2381 
Q 2797 3513 3153 5275 
L 3616 5184 
Q 3506 4656 3378 4256 
L 5984 4256 
L 5984 3834 
L 4078 3834 
L 4078 2906 
L 5678 2906 
L 5678 2484 
L 4078 2484 
L 4078 1563 
L 5775 1563 
L 5775 1147 
L 4078 1147 
L 4078 -447 
L 3609 -447 
L 3609 3834 
z
M 1734 3725 
L 1734 -447 
L 1275 -447 
L 1275 2797 
L 1250 2747 
Q 984 2284 647 1850 
L 372 2234 
Q 1309 3481 1747 5203 
L 2219 5081 
Q 2028 4406 1734 3725 
z
" transform="scale(0.015625)"/>
     </defs>
     <use xlink:href="#IPAexGothic-64cd"/>
     <use xlink:href="#IPAexGothic-4f5c" x="100"/>
    </g>
   </g>
   <g id="text_4">
    <!-- コード -->
    <g style="fill: #ffffff" transform="translate(168.48 79.674375) scale(0.12 -0.12)">
     <defs>
      <path id="IPAexGothic-30b3" d="M 1134 4213 
L 5166 4213 
L 5166 153 
L 4653 153 
L 4653 594 
L 1063 594 
L 1063 1088 
L 4653 1088 
L 4653 3725 
L 1134 3725 
L 1134 4213 
z
" transform="scale(0.015625)"/>
      <path id="IPAexGothic-30c9" d="M 2247 4959 
L 2766 4959 
L 2766 3169 
Q 4050 2581 5178 1850 
L 4841 1331 
Q 3781 2138 2766 2650 
L 2766 -225 
L 2247 -225 
L 2247 4959 
z
M 5263 3847 
Q 4900 4388 4506 4716 
L 4806 4947 
Q 5191 4638 5581 4122 
L 5263 3847 
z
M 4666 3378 
Q 4375 3869 3931 4269 
L 4244 4513 
Q 4616 4206 5000 3653 
L 4666 3378 
z
" transform="scale(0.015625)"/>
     </defs>
     <use xlink:href="#IPAexGothic-30b3"/>
     <use xlink:href="#IPAexGothic-30fc" x="100"/>
     <use xlink:href="#IPAexGothic-30c9" x="200"/>
    </g>
   </g>
   <g id="text_5">
    <!-- ポイント -->
    <g style="fill: #ffffff" transform="translate(384.48 79.674375) scale(0.12 -0.12)">
     <defs>
      <path id="IPAexGothic-30dd" d="M 5188 5453 
Q 5497 5453 5706 5219 
Q 5891 5016 5891 4747 
Q 5891 4434 5656 4222 
Q 5453 4038 5188 4038 
Q 4872 4038 4659 4272 
Q 4475 4475 4475 4747 
Q 4475 5059 4709 5269 
Q 4916 5453 5188 5453 
z
M 5188 5172 
Q 4997 5172 4866 5031 
Q 4756 4909 4756 4747 
Q 4756 4556 4897 4428 
Q 5022 4319 5188 4319 
Q 5372 4319 5500 4459 
Q 5609 4584 5609 4747 
Q 5609 4934 5469 5063 
Q 5347 5172 5188 5172 
z
M 2972 4978 
L 3478 4978 
L 3478 3794 
L 5584 3794 
L 5584 3341 
L 3478 3341 
L 3478 397 
Q 3478 -147 2844 -147 
Q 2428 -147 2019 -72 
L 1909 459 
Q 2300 359 2716 359 
Q 2972 359 2972 616 
L 2972 3341 
L 822 3341 
L 822 3794 
L 2972 3794 
L 2972 4978 
z
M 603 922 
Q 988 1294 1222 1694 
Q 1438 2063 1600 2572 
L 2050 2369 
Q 1859 1766 1588 1325 
Q 1372 975 1000 556 
L 603 922 
z
M 5313 709 
Q 4847 1700 4309 2388 
L 4719 2656 
Q 5269 2016 5775 1031 
L 5313 709 
z
" transform="scale(0.015625)"/>
      <path id="IPAexGothic-30a4" d="M 3131 -231 
L 3131 2875 
Q 2091 2088 1106 1656 
L 781 2059 
Q 3016 3000 4469 4916 
L 4916 4641 
Q 4384 3938 3675 3316 
L 3675 -231 
L 3131 -231 
z
" transform="scale(0.015625)"/>
      <path id="IPAexGothic-30f3" d="M 2444 3084 
Q 1816 3656 1056 4084 
L 1381 4519 
Q 2063 4191 2816 3559 
L 2444 3084 
z
M 1100 609 
Q 3984 1106 5216 3828 
L 5619 3469 
Q 4413 794 1434 103 
L 1100 609 
z
" transform="scale(0.015625)"/>
      <path id="IPAexGothic-30c8" d="M 2284 4997 
L 2803 4997 
L 2803 3206 
Q 4088 2619 5216 1888 
L 4878 1369 
Q 3819 2175 2803 2688 
L 2803 -184 
L 2284 -184 
L 2284 4997 
z
" transform="scale(0.015625)"/>
     </defs>
     <use xlink:href="#IPAexGothic-30dd"/>
     <use xlink:href="#IPAexGothic-30a4" x="100"/>
     <use xlink:href="#IPAexGothic-30f3" x="200"/>
     <use xlink:href="#IPAexGothic-30c8" x="300"/>
    </g>
   </g>
   <g id="text_6">
    <!-- 形を確認 -->
    <g style="fill: #2c3e50" transform="translate(38.88 105.594375) scale(0.12 -0.12)">
     <defs>
      <path id="IPAexGothic-5f62" d="M 2856 4488 
L 2856 2859 
L 3744 2859 
L 3744 2456 
L 2875 2456 
L 2875 -384 
L 2434 -384 
L 2434 2456 
L 1653 2456 
L 1653 2394 
Q 1653 1425 1466 759 
Q 1266 59 756 -525 
L 425 -181 
Q 1213 666 1213 2341 
L 1213 2456 
L 322 2456 
L 322 2859 
L 1213 2859 
L 1213 4488 
L 481 4488 
L 481 4891 
L 3609 4891 
L 3609 4488 
L 2856 4488 
z
M 2416 4488 
L 1653 4488 
L 1653 2859 
L 2416 2859 
L 2416 4488 
z
M 3369 6 
Q 4859 738 5728 2203 
L 6144 1966 
Q 5216 403 3688 -384 
L 3369 6 
z
M 3334 3425 
Q 4566 4031 5197 5141 
L 5634 4909 
Q 4872 3697 3650 3066 
L 3334 3425 
z
M 3303 1728 
Q 4684 2331 5472 3706 
L 5888 3481 
Q 5025 2031 3609 1338 
L 3303 1728 
z
" transform="scale(0.015625)"/>
      <path id="IPAexGothic-3092" d="M 1094 4263 
Q 1544 4222 2359 4222 
Q 2581 4734 2700 5163 
L 3175 5028 
Q 2997 4538 2859 4256 
Q 3516 4284 4294 4459 
L 4356 4019 
Q 3603 3869 2656 3819 
Q 2391 3284 2059 2797 
Q 2531 3200 2963 3200 
Q 3638 3200 3859 2378 
Q 4556 2681 5338 2950 
L 5575 2528 
Q 4641 2253 3941 1956 
Q 3981 1678 3994 1028 
L 3513 991 
Q 3513 1456 3494 1753 
Q 2388 1194 2388 716 
Q 2388 428 2753 328 
Q 3066 241 3806 241 
Q 4394 241 5178 344 
L 5216 -128 
Q 4434 -213 3653 -213 
Q 2656 -213 2244 41 
Q 1913 244 1913 631 
Q 1913 1094 2344 1497 
Q 2709 1841 3428 2181 
Q 3266 2797 2878 2797 
Q 2238 2797 1209 1419 
L 838 1694 
Q 1625 2716 2163 3800 
Q 1522 3800 1088 3825 
L 1094 4263 
z
" transform="scale(0.015625)"/>
      <path id="IPAexGothic-78ba" d="M 4347 3219 
Q 4516 3538 4647 3956 
L 5075 3853 
Q 4875 3431 4750 3219 
L 5888 3219 
L 5888 2847 
L 4700 2847 
L 4700 2222 
L 5741 2222 
L 5741 1869 
L 4700 1869 
L 4700 1250 
L 5741 1250 
L 5741 897 
L 4700 897 
L 4700 231 
L 6034 231 
L 6034 -141 
L 3463 -141 
L 3463 -447 
L 3047 -447 
L 3047 2444 
Q 2756 2019 2484 1703 
L 2284 2100 
Q 3159 3197 3506 4147 
L 2913 4147 
L 2913 3425 
L 2509 3425 
L 2509 4519 
L 3634 4519 
Q 3750 4903 3847 5319 
L 4269 5241 
Q 4175 4834 4072 4519 
L 5934 4519 
L 5934 3425 
L 5525 3425 
L 5525 4147 
L 3938 4147 
Q 3747 3647 3513 3219 
L 4347 3219 
z
M 4297 2847 
L 3463 2847 
L 3463 2222 
L 4297 2222 
L 4297 2847 
z
M 4297 1869 
L 3463 1869 
L 3463 1250 
L 4297 1250 
L 4297 1869 
z
M 4297 897 
L 3463 897 
L 3463 231 
L 4297 231 
L 4297 897 
z
M 1159 2944 
L 2275 2944 
L 2275 197 
L 1213 197 
L 1213 -328 
L 816 -328 
L 816 2206 
Q 650 1903 394 1522 
L 188 1919 
Q 931 3013 1200 4416 
L 406 4416 
L 406 4819 
L 2409 4819 
L 2409 4416 
L 1616 4416 
L 1597 4353 
Q 1456 3663 1159 2944 
z
M 1213 2553 
L 1213 588 
L 1878 588 
L 1878 2553 
L 1213 2553 
z
" transform="scale(0.015625)"/>
      <path id="IPAexGothic-8a8d" d="M 4341 4556 
Q 4309 4069 4219 3694 
Q 4622 3497 4956 3309 
L 4731 2963 
Q 4463 3125 4141 3291 
L 4091 3322 
Q 3756 2566 2959 2088 
L 2663 2419 
Q 3456 2844 3713 3500 
Q 3213 3722 2906 3828 
L 3113 4141 
Q 3381 4050 3828 3866 
Q 3916 4231 3925 4556 
L 2816 4556 
L 2816 4947 
L 5775 4947 
Q 5766 3272 5653 2713 
Q 5606 2459 5453 2369 
Q 5334 2284 5025 2284 
Q 4684 2284 4366 2334 
L 4303 2784 
Q 4644 2713 4928 2713 
Q 5181 2713 5228 2906 
Q 5309 3234 5338 4513 
Q 5338 4544 5338 4556 
L 4341 4556 
z
M 2406 1684 
L 2406 -128 
L 959 -128 
L 959 -447 
L 544 -447 
L 544 1684 
L 2406 1684 
z
M 959 1313 
L 959 244 
L 1984 244 
L 1984 1313 
L 959 1313 
z
M 634 5044 
L 2313 5044 
L 2313 4659 
L 634 4659 
L 634 5044 
z
M 353 4206 
L 2638 4206 
L 2638 3816 
L 353 3816 
L 353 4206 
z
M 634 3359 
L 2313 3359 
L 2313 2975 
L 634 2975 
L 634 3359 
z
M 634 2522 
L 2313 2522 
L 2313 2138 
L 634 2138 
L 634 2522 
z
M 2528 31 
Q 2816 625 2919 1447 
L 3322 1375 
Q 3200 381 2900 -225 
L 2528 31 
z
M 3572 1556 
L 4000 1556 
L 4000 294 
Q 4000 128 4084 100 
Q 4144 75 4300 75 
Q 4728 75 4775 275 
Q 4806 394 4825 738 
L 5253 616 
Q 5206 -44 5081 -188 
Q 4941 -347 4359 -347 
Q 3900 -347 3738 -269 
Q 3572 -191 3572 91 
L 3572 1556 
z
M 5775 -25 
Q 5428 800 5006 1375 
L 5366 1588 
Q 5819 994 6166 244 
L 5775 -25 
z
M 4566 1294 
Q 4106 1772 3656 2075 
L 3938 2350 
Q 4331 2113 4872 1613 
L 4566 1294 
z
" transform="scale(0.015625)"/>
     </defs>
     <use xlink:href="#IPAexGothic-5f62"/>
     <use xlink:href="#IPAexGothic-3092" x="100"/>
     <use xlink:href="#IPAexGothic-78ba" x="200"/>
     <use xlink:href="#IPAexGothic-8a8d" x="300"/>
    </g>
   </g>
   <g id="text_7">
    <!-- head() / info() / describe() -->
    <g style="fill: #2c3e50" transform="translate(168.48 105.655312) scale(0.12 -0.12)">
     <defs>
      <path id="IPAexGothic-65" d="M 863 1594 
Q 891 1041 1209 722 
Q 1534 397 1997 397 
Q 2606 397 2963 966 
L 3322 728 
Q 2869 -31 1931 -31 
Q 1222 -31 766 422 
Q 306 884 306 1641 
Q 306 2444 788 2925 
Q 1216 3353 1856 3353 
Q 2459 3353 2866 2956 
Q 3322 2494 3322 1722 
L 3322 1594 
L 863 1594 
z
M 2756 1997 
Q 2709 2431 2450 2681 
Q 2194 2938 1844 2938 
Q 1438 2938 1150 2591 
Q 953 2356 894 1997 
L 2756 1997 
z
" transform="scale(0.015625)"/>
      <path id="IPAexGothic-61" d="M 3156 63 
L 2672 63 
Q 2559 303 2531 556 
L 2509 556 
Q 2147 -25 1428 -25 
Q 934 -25 622 288 
Q 347 563 347 959 
Q 347 1947 2050 1997 
L 2478 2009 
L 2478 2175 
Q 2478 2509 2288 2700 
Q 2088 2900 1775 2900 
Q 1238 2900 969 2378 
L 494 2597 
Q 938 3328 1788 3328 
Q 2375 3328 2691 3000 
Q 2984 2706 2984 2169 
L 2984 997 
Q 2984 400 3156 63 
z
M 2491 1625 
L 2141 1619 
Q 903 1591 903 953 
Q 903 728 1050 581 
Q 1231 403 1525 403 
Q 1934 403 2234 703 
Q 2491 969 2491 1344 
L 2491 1625 
z
" transform="scale(0.015625)"/>
      <path id="IPAexGothic-64" d="M 3391 63 
L 2891 63 
L 2891 619 
Q 2441 -31 1753 -31 
Q 1181 -31 788 372 
Q 313 844 313 1663 
Q 313 2466 772 2938 
Q 1169 3341 1753 3341 
Q 2384 3341 2847 2809 
L 2847 4794 
L 3391 4794 
L 3391 63 
z
M 2847 1303 
L 2847 2097 
Q 2847 2413 2456 2706 
Q 2181 2906 1853 2906 
Q 1484 2906 1228 2650 
Q 888 2309 888 1678 
Q 888 1109 1169 750 
Q 1441 409 1847 409 
Q 2322 409 2656 875 
Q 2847 1134 2847 1303 
z
" transform="scale(0.015625)"/>
      <path id="IPAexGothic-28" d="M 1928 -1016 
L 1653 -1166 
Q 488 69 488 1875 
Q 488 3678 1653 4909 
L 1928 4763 
Q 1006 3522 1006 1881 
Q 1006 203 1928 -1016 
z
" transform="scale(0.015625)"/>
      <path id="IPAexGothic-29" d="M 466 4909 
Q 1638 3672 1638 1875 
Q 1638 75 466 -1166 
L 191 -1016 
Q 1119 216 1119 1881 
Q 1119 3509 191 4763 
L 466 4909 
z
" transform="scale(0.015625)"/>
      <path id="IPAexGothic-2f" d="M 2719 4709 
L 600 -884 
L 300 -763 
L 2413 4831 
L 2719 4709 
z
" transform="scale(0.015625)"/>
      <path id="IPAexGothic-69" d="M 1178 3928 
L 550 3928 
L 550 4569 
L 1178 4569 
L 1178 3928 
z
M 1138 63 
L 588 63 
L 588 3250 
L 1138 3250 
L 1138 63 
z
" transform="scale(0.015625)"/>
      <path id="IPAexGothic-6e" d="M 3328 63 
L 2778 63 
L 2778 2041 
Q 2778 2853 2106 2853 
Q 1428 2853 1113 2041 
L 1113 63 
L 563 63 
L 563 3250 
L 1075 3250 
L 1075 2675 
Q 1525 3316 2222 3316 
Q 3328 3316 3328 2072 
L 3328 63 
z
" transform="scale(0.015625)"/>
      <path id="IPAexGothic-66" d="M 2456 4622 
L 2228 4244 
Q 1991 4422 1741 4422 
Q 1184 4422 1184 3672 
L 1184 3250 
L 2053 3250 
L 2053 2859 
L 1184 2859 
L 1184 63 
L 641 63 
L 641 2859 
L 122 2859 
L 122 3250 
L 641 3250 
L 641 3659 
Q 641 4188 891 4484 
Q 1200 4844 1709 4844 
Q 2116 4844 2456 4622 
z
" transform="scale(0.015625)"/>
      <path id="IPAexGothic-6f" d="M 1919 3341 
Q 2594 3341 3056 2888 
Q 3531 2413 3531 1638 
Q 3531 888 3066 422 
Q 2609 -31 1919 -31 
Q 1228 -31 781 416 
Q 313 881 313 1656 
Q 313 2413 788 2888 
Q 1241 3341 1919 3341 
z
M 1919 2919 
Q 1519 2919 1241 2631 
Q 888 2278 888 1650 
Q 888 1031 1234 684 
Q 1516 403 1919 403 
Q 2331 403 2609 691 
Q 2956 1038 2956 1672 
Q 2956 2269 2603 2631 
Q 2316 2919 1919 2919 
z
" transform="scale(0.015625)"/>
      <path id="IPAexGothic-73" d="M 2234 2547 
Q 1938 2931 1484 2931 
Q 891 2931 891 2475 
Q 891 2153 1531 1944 
L 1741 1875 
Q 2650 1578 2650 894 
Q 2650 434 2272 172 
Q 1972 -31 1497 -31 
Q 766 -31 256 503 
L 603 819 
Q 997 397 1516 397 
Q 2131 397 2131 875 
Q 2131 1238 1453 1478 
L 1234 1553 
Q 378 1853 378 2431 
Q 378 2797 628 3047 
Q 928 3347 1453 3347 
Q 2156 3347 2606 2859 
L 2234 2547 
z
" transform="scale(0.015625)"/>
      <path id="IPAexGothic-63" d="M 3269 784 
Q 2834 -31 1900 -31 
Q 1228 -31 788 409 
Q 313 891 313 1663 
Q 313 2428 788 2913 
Q 1222 3347 1881 3347 
Q 2813 3347 3206 2541 
L 2763 2309 
Q 2484 2900 1900 2900 
Q 1516 2900 1234 2619 
Q 881 2266 881 1650 
Q 881 1069 1222 728 
Q 1522 428 1956 428 
Q 2547 428 2847 1016 
L 3269 784 
z
" transform="scale(0.015625)"/>
      <path id="IPAexGothic-72" d="M 2309 3316 
L 2213 2769 
Q 2106 2791 2022 2791 
Q 1653 2791 1413 2444 
Q 1113 2006 1113 1675 
L 1113 63 
L 563 63 
L 563 3250 
L 1081 3250 
L 1056 2303 
L 1069 2303 
Q 1422 3341 2097 3341 
Q 2206 3341 2309 3316 
z
" transform="scale(0.015625)"/>
      <path id="IPAexGothic-62" d="M 1125 2731 
Q 1550 3341 2219 3341 
Q 2788 3341 3191 2938 
Q 3659 2469 3659 1644 
Q 3659 838 3191 372 
Q 2788 -31 2206 -31 
Q 1559 -31 1088 516 
L 1009 44 
L 581 44 
L 581 4794 
L 1125 4794 
L 1125 2731 
z
M 1125 1997 
L 1125 1253 
Q 1125 888 1528 600 
Q 1803 403 2119 403 
Q 2488 403 2744 659 
Q 3084 1009 3084 1631 
Q 3084 2194 2803 2553 
Q 2525 2900 2125 2900 
Q 1759 2900 1438 2578 
Q 1125 2266 1125 1997 
z
" transform="scale(0.015625)"/>
     </defs>
     <use xlink:href="#IPAexGothic-68"/>
     <use xlink:href="#IPAexGothic-65" x="60.693359"/>
     <use xlink:href="#IPAexGothic-61" x="117.578125"/>
     <use xlink:href="#IPAexGothic-64" x="172.558594"/>
     <use xlink:href="#IPAexGothic-28" x="234.960938"/>
     <use xlink:href="#IPAexGothic-29" x="268.261719"/>
     <use xlink:href="#IPAexGothic-20" x="301.5625"/>
     <use xlink:href="#IPAexGothic-2f" x="328.564453"/>
     <use xlink:href="#IPAexGothic-20" x="378.564453"/>
     <use xlink:href="#IPAexGothic-69" x="405.566406"/>
     <use xlink:href="#IPAexGothic-6e" x="432.568359"/>
     <use xlink:href="#IPAexGothic-66" x="492.96875"/>
     <use xlink:href="#IPAexGothic-6f" x="523.583984"/>
     <use xlink:href="#IPAexGothic-28" x="583.984375"/>
     <use xlink:href="#IPAexGothic-29" x="617.285156"/>
     <use xlink:href="#IPAexGothic-20" x="650.585938"/>
     <use xlink:href="#IPAexGothic-2f" x="677.587891"/>
     <use xlink:href="#IPAexGothic-20" x="727.587891"/>
     <use xlink:href="#IPAexGothic-64" x="754.589844"/>
     <use xlink:href="#IPAexGothic-65" x="816.992188"/>
     <use xlink:href="#IPAexGothic-73" x="873.876953"/>
     <use xlink:href="#IPAexGothic-63" x="920.068359"/>
     <use xlink:href="#IPAexGothic-72" x="974.462891"/>
     <use xlink:href="#IPAexGothic-69" x="1011.474609"/>
     <use xlink:href="#IPAexGothic-62" x="1038.476562"/>
     <use xlink:href="#IPAexGothic-65" x="1100.878906"/>
     <use xlink:href="#IPAexGothic-28" x="1157.763672"/>
     <use xlink:href="#IPAexGothic-29" x="1191.064453"/>
    </g>
   </g>
   <g id="text_8">
    <!-- この3つを最初に必ず実行 -->
    <g style="fill: #2c3e50" transform="translate(384.48 105.6375) scale(0.12 -0.12)">
     <defs>
      <path id="IPAexGothic-3053" d="M 1647 4422 
Q 2400 4363 3003 4363 
Q 3803 4363 4653 4459 
L 4763 4031 
Q 4319 3906 3788 3588 
Q 3347 3322 2978 2994 
L 2619 3272 
Q 3150 3666 3609 3950 
Q 3097 3909 2619 3909 
Q 2091 3909 1666 3956 
L 1647 4422 
z
M 5244 191 
Q 4363 13 3303 13 
Q 2316 13 1716 344 
Q 1159 653 1159 1197 
Q 1159 1738 1659 2247 
L 2044 2003 
Q 1647 1644 1647 1263 
Q 1647 500 3291 500 
Q 4288 500 5191 722 
L 5244 191 
z
" transform="scale(0.015625)"/>
      <path id="IPAexGothic-306e" d="M 3119 469 
Q 5275 766 5275 2425 
Q 5275 3453 4413 3925 
Q 4041 4116 3547 4159 
Q 3394 2525 2850 1400 
Q 2322 306 1722 306 
Q 1384 306 1084 666 
Q 609 1244 609 2003 
Q 609 3025 1397 3794 
Q 2184 4563 3431 4563 
Q 4306 4563 4928 4122 
Q 5813 3506 5813 2425 
Q 5813 438 3431 6 
L 3119 469 
z
M 3053 4147 
Q 2378 4044 1891 3641 
Q 1097 2981 1097 1991 
Q 1097 1366 1434 978 
Q 1581 813 1719 813 
Q 2022 813 2416 1625 
Q 2909 2638 3053 4147 
z
" transform="scale(0.015625)"/>
      <path id="IPAexGothic-33" d="M 2381 2419 
Q 3506 2216 3506 1278 
Q 3506 716 3128 356 
Q 2709 -31 1944 -31 
Q 797 -31 288 881 
L 756 1131 
Q 1109 441 1938 441 
Q 2425 441 2694 691 
Q 2950 928 2950 1291 
Q 2950 1719 2566 1978 
Q 2216 2213 1644 2213 
L 1363 2213 
L 1363 2669 
L 1656 2669 
Q 2231 2669 2534 2888 
Q 2859 3119 2859 3509 
Q 2859 3934 2494 4138 
Q 2259 4278 1931 4278 
Q 1238 4278 903 3578 
L 434 3803 
Q 897 4725 1938 4725 
Q 2597 4725 3006 4394 
Q 3416 4069 3416 3534 
Q 3416 3028 3019 2706 
Q 2763 2500 2381 2444 
L 2381 2419 
z
" transform="scale(0.015625)"/>
      <path id="IPAexGothic-3064" d="M 575 3541 
Q 2694 4116 3769 4116 
Q 4506 4116 4978 3750 
Q 5559 3303 5559 2497 
Q 5559 1481 4606 903 
Q 3750 388 2213 281 
L 1963 781 
Q 5022 916 5022 2497 
Q 5022 3053 4663 3375 
Q 4331 3669 3734 3669 
Q 2663 3669 800 3041 
L 575 3541 
z
" transform="scale(0.015625)"/>
      <path id="IPAexGothic-6700" d="M 5106 5050 
L 5106 3275 
L 1284 3275 
L 1284 5050 
L 5106 5050 
z
M 1741 4697 
L 1741 4331 
L 4656 4331 
L 4656 4697 
L 1741 4697 
z
M 1741 4000 
L 1741 3622 
L 4656 3622 
L 4656 4000 
L 1741 4000 
z
M 2925 2528 
L 2925 -450 
L 2503 -450 
L 2503 228 
Q 1869 94 525 -78 
L 409 356 
Q 491 363 609 372 
Q 725 381 756 381 
L 994 403 
L 994 2528 
L 384 2528 
L 384 2900 
L 6016 2900 
L 6016 2528 
L 2925 2528 
z
M 2503 2528 
L 1400 2528 
L 1400 2088 
L 2503 2088 
L 2503 2528 
z
M 2503 1763 
L 1400 1763 
L 1400 1309 
L 2503 1309 
L 2503 1763 
z
M 2503 984 
L 1400 984 
L 1400 434 
L 1759 472 
Q 2159 500 2503 550 
L 2503 984 
z
M 4844 588 
Q 5350 225 6047 -9 
L 5753 -419 
Q 5066 -128 4556 288 
Q 4000 -241 3281 -534 
L 3006 -163 
Q 3734 84 4263 563 
Q 3722 1141 3463 1803 
L 3084 1803 
L 3084 2169 
L 5425 2169 
L 5656 1963 
Q 5328 1178 4881 638 
L 4844 588 
z
M 4538 850 
Q 4884 1275 5119 1803 
L 3872 1803 
Q 4113 1275 4538 850 
z
" transform="scale(0.015625)"/>
      <path id="IPAexGothic-521d" d="M 4394 4281 
Q 4394 2850 4228 1881 
Q 3972 422 2822 -469 
L 2475 -109 
Q 3559 669 3800 2106 
Q 3947 3019 3947 4281 
L 2938 4281 
L 2938 4709 
L 5847 4709 
Q 5838 1063 5713 316 
Q 5609 -306 4900 -306 
Q 4534 -306 4184 -256 
L 4106 275 
Q 4506 175 4869 175 
Q 5225 175 5272 634 
Q 5378 1606 5388 4281 
L 4394 4281 
z
M 1938 2347 
Q 2038 2297 2153 2234 
Q 2491 2606 2731 2944 
L 3075 2700 
Q 2756 2322 2463 2053 
Q 2716 1906 3122 1619 
L 2813 1228 
Q 2384 1625 1938 1919 
L 1938 -447 
L 1484 -447 
L 1484 2119 
Q 1013 1669 569 1363 
L 294 1766 
Q 1516 2559 2250 3750 
L 466 3750 
L 466 4166 
L 1453 4166 
L 1453 5241 
L 1906 5241 
L 1906 4166 
L 2666 4166 
L 2872 3947 
Q 2434 3191 1938 2603 
L 1938 2347 
z
" transform="scale(0.015625)"/>
      <path id="IPAexGothic-306b" d="M 1088 -38 
Q 922 1003 922 2081 
Q 922 3222 1331 4794 
L 1813 4684 
Q 1391 3113 1391 2003 
Q 1391 1441 1422 1147 
Q 1434 1181 1813 2016 
L 2125 1797 
Q 1800 1081 1691 763 
Q 1581 453 1581 269 
Q 1581 78 1588 6 
L 1088 -38 
z
M 2834 4038 
Q 3969 4213 5313 4172 
L 5338 3681 
Q 3959 3728 2869 3547 
L 2834 4038 
z
M 5650 256 
Q 5044 172 4372 172 
Q 3463 172 3047 434 
Q 2784 594 2675 841 
Q 2572 1075 2572 1447 
Q 2572 1563 2578 1656 
L 3053 1684 
Q 3050 1613 3044 1528 
Q 3041 1481 3041 1466 
Q 3041 1200 3119 1053 
Q 3178 944 3309 850 
Q 3569 678 4275 678 
Q 4891 678 5588 763 
L 5650 256 
z
" transform="scale(0.015625)"/>
      <path id="IPAexGothic-5fc5" d="M 1984 922 
L 1984 3769 
L 2459 3769 
L 2459 1344 
Q 4031 2828 4719 4825 
L 5172 4634 
Q 4263 2306 2459 722 
L 2459 569 
Q 2459 316 2631 266 
Q 2775 222 3363 222 
Q 4100 222 4272 313 
Q 4463 419 4481 1459 
L 4969 1325 
Q 4919 244 4738 13 
Q 4547 -238 3406 -238 
Q 2456 -238 2234 -134 
Q 1994 -28 1984 341 
Q 1409 -97 709 -469 
L 403 -78 
Q 1197 284 1906 863 
L 1984 922 
z
M 3397 3700 
Q 2672 4338 1931 4722 
L 2241 5100 
Q 2972 4713 3731 4116 
L 3397 3700 
z
M 403 1106 
Q 788 1972 934 3263 
L 1416 3166 
Q 1244 1781 844 838 
L 403 1106 
z
M 5678 941 
Q 5266 2097 4781 2894 
L 5184 3097 
Q 5725 2294 6131 1216 
L 5678 941 
z
" transform="scale(0.015625)"/>
      <path id="IPAexGothic-305a" d="M 4922 4269 
Q 4694 4781 4391 5125 
L 4744 5325 
Q 5059 4928 5288 4494 
L 4922 4269 
z
M 5703 4441 
Q 5463 4934 5141 5306 
L 5481 5522 
Q 5781 5172 6056 4691 
L 5703 4441 
z
M 3322 5075 
L 3816 5075 
L 3816 4063 
Q 4131 4075 5756 4116 
L 5756 3669 
Q 5431 3672 3816 3653 
L 3816 2463 
Q 3956 2125 3956 1741 
Q 3956 922 3519 397 
Q 3128 -72 2309 -409 
L 1941 -31 
Q 3263 453 3488 1363 
Q 3250 1031 2809 1031 
Q 2441 1031 2150 1313 
Q 1875 1588 1875 2050 
Q 1875 2475 2166 2769 
Q 2431 3041 2822 3041 
Q 3088 3041 3322 2881 
L 3322 3641 
Q 3000 3634 609 3547 
L 609 3988 
Q 1197 4000 2106 4022 
Q 3066 4047 3322 4050 
L 3322 5075 
z
M 3372 2044 
Q 3372 2300 3194 2478 
Q 3050 2613 2869 2613 
Q 2622 2613 2463 2406 
Q 2344 2250 2344 2088 
Q 2344 1797 2484 1622 
Q 2625 1453 2859 1453 
Q 3372 1453 3372 2044 
z
" transform="scale(0.015625)"/>
      <path id="IPAexGothic-5b9f" d="M 3525 1275 
Q 4288 350 6022 91 
L 5738 -375 
Q 3953 -41 3219 1050 
Q 2731 -144 728 -472 
L 466 -44 
Q 2422 150 2872 1275 
L 384 1275 
L 384 1659 
L 2950 1659 
L 2950 2144 
L 966 2144 
L 966 2509 
L 2950 2509 
L 2950 2969 
L 1266 2969 
L 1266 3341 
L 2950 3341 
L 2950 3988 
L 3403 3988 
L 3403 3341 
L 5125 3341 
L 5125 2969 
L 3403 2969 
L 3403 2509 
L 5444 2509 
L 5444 2144 
L 3403 2144 
L 3403 1659 
L 6016 1659 
L 6016 1275 
L 3525 1275 
z
M 3413 4544 
L 5778 4544 
L 5778 3269 
L 5309 3269 
L 5309 4147 
L 1084 4147 
L 1084 3269 
L 616 3269 
L 616 4544 
L 2938 4544 
L 2938 5313 
L 3413 5313 
L 3413 4544 
z
" transform="scale(0.015625)"/>
      <path id="IPAexGothic-884c" d="M 1822 2753 
L 1822 -447 
L 1353 -447 
L 1353 2169 
Q 966 1744 622 1466 
L 316 1791 
Q 1294 2559 1969 3822 
L 2397 3634 
Q 2109 3138 1822 2753 
z
M 4975 2803 
L 4975 103 
Q 4975 -391 4369 -391 
Q 3925 -391 3356 -341 
L 3288 159 
Q 3775 78 4259 78 
Q 4516 78 4516 319 
L 4516 2803 
L 2384 2803 
L 2384 3225 
L 6013 3225 
L 6013 2803 
L 4975 2803 
z
M 384 3691 
Q 1231 4256 1756 5075 
L 2144 4850 
Q 1541 3947 666 3347 
L 384 3691 
z
M 2709 4794 
L 5659 4794 
L 5659 4378 
L 2709 4378 
L 2709 4794 
z
" transform="scale(0.015625)"/>
     </defs>
     <use xlink:href="#IPAexGothic-3053"/>
     <use xlink:href="#IPAexGothic-306e" x="100"/>
     <use xlink:href="#IPAexGothic-33" x="200"/>
     <use xlink:href="#IPAexGothic-3064" x="262.988281"/>
     <use xlink:href="#IPAexGothic-3092" x="362.988281"/>
     <use xlink:href="#IPAexGothic-6700" x="462.988281"/>
     <use xlink:href="#IPAexGothic-521d" x="562.988281"/>
     <use xlink:href="#IPAexGothic-306b" x="662.988281"/>
     <use xlink:href="#IPAexGothic-5fc5" x="762.988281"/>
     <use xlink:href="#IPAexGothic-305a" x="862.988281"/>
     <use xlink:href="#IPAexGothic-5b9f" x="962.988281"/>
     <use xlink:href="#IPAexGothic-884c" x="1062.988281"/>
    </g>
   </g>
   <g id="text_9">
    <!-- 欠損値確認 -->
    <g style="fill: #2c3e50" transform="translate(38.88 131.514375) scale(0.12 -0.12)">
     <defs>
      <path id="IPAexGothic-6b20" d="M 3241 2347 
Q 2847 388 822 -372 
L 481 63 
Q 2931 784 2931 3403 
L 2931 3744 
L 1997 3744 
Q 1613 2813 1013 2125 
L 647 2491 
Q 1578 3516 1953 5241 
L 2441 5125 
Q 2322 4650 2159 4172 
L 5422 4172 
L 5769 3916 
Q 5253 2869 4725 2188 
L 4309 2481 
Q 4781 3025 5128 3744 
L 3419 3744 
L 3419 3384 
Q 3419 2472 4150 1522 
Q 4778 697 5972 209 
L 5600 -256 
Q 3700 741 3241 2347 
z
" transform="scale(0.015625)"/>
      <path id="IPAexGothic-640d" d="M 1178 4013 
L 1178 5300 
L 1606 5300 
L 1606 4013 
L 2316 4013 
L 2316 3597 
L 1606 3597 
L 1606 2381 
Q 1797 2438 2259 2597 
L 2291 2216 
Q 2022 2106 1606 1972 
L 1606 0 
Q 1606 -272 1484 -363 
Q 1384 -447 1094 -447 
Q 797 -447 519 -409 
L 441 50 
Q 719 -6 966 -6 
Q 1178 -6 1178 172 
L 1178 1831 
Q 753 1703 403 1619 
L 275 2047 
Q 741 2144 1153 2253 
L 1178 2259 
L 1178 3597 
L 372 3597 
L 372 4013 
L 1178 4013 
z
M 5428 5038 
L 5428 3731 
L 2816 3731 
L 2816 5038 
L 5428 5038 
z
M 3244 4678 
L 3244 4084 
L 4997 4084 
L 4997 4678 
L 3244 4678 
z
M 5753 3391 
L 5753 659 
L 2509 659 
L 2509 3391 
L 5753 3391 
z
M 2938 3038 
L 2938 2597 
L 5325 2597 
L 5325 3038 
L 2938 3038 
z
M 2938 2256 
L 2938 1813 
L 5325 1813 
L 5325 2256 
L 2938 2256 
z
M 2938 1472 
L 2938 1006 
L 5325 1006 
L 5325 1472 
L 2938 1472 
z
M 2034 -122 
Q 2828 141 3469 609 
L 3781 313 
Q 3153 -172 2347 -513 
L 2034 -122 
z
M 5803 -447 
Q 5113 16 4356 319 
L 4653 634 
Q 5450 325 6150 -78 
L 5803 -447 
z
" transform="scale(0.015625)"/>
      <path id="IPAexGothic-5024" d="M 4172 3675 
L 5453 3675 
L 5453 684 
L 3019 684 
L 3019 3675 
L 3750 3675 
Q 3788 3884 3825 4153 
L 2141 4153 
L 2141 4544 
L 3884 4544 
Q 3922 4844 3966 5325 
L 4434 5272 
L 4388 4953 
Q 4331 4578 4331 4544 
L 5863 4544 
L 5863 4153 
L 4269 4153 
Q 4200 3781 4172 3675 
z
M 5038 3316 
L 3434 3316 
L 3434 2803 
L 5038 2803 
L 5038 3316 
z
M 3434 2450 
L 3434 1941 
L 5038 1941 
L 5038 2450 
L 3434 2450 
z
M 3434 1588 
L 3434 1044 
L 5038 1044 
L 5038 1588 
L 3434 1588 
z
M 1509 3669 
L 1509 -447 
L 1069 -447 
L 1069 2725 
Q 856 2338 531 1875 
L 288 2266 
Q 1163 3531 1541 5325 
L 1975 5222 
Q 1791 4378 1509 3669 
z
M 2488 244 
L 6031 244 
L 6031 -153 
L 2488 -153 
L 2488 -447 
L 2059 -447 
L 2059 3213 
L 2488 3213 
L 2488 244 
z
" transform="scale(0.015625)"/>
     </defs>
     <use xlink:href="#IPAexGothic-6b20"/>
     <use xlink:href="#IPAexGothic-640d" x="100"/>
     <use xlink:href="#IPAexGothic-5024" x="200"/>
     <use xlink:href="#IPAexGothic-78ba" x="300"/>
     <use xlink:href="#IPAexGothic-8a8d" x="400"/>
    </g>
   </g>
   <g id="text_10">
    <!-- isnull().sum() -->
    <g style="fill: #2c3e50" transform="translate(168.48 131.575312) scale(0.12 -0.12)">
     <defs>
      <path id="IPAexGothic-75" d="M 3284 63 
L 2772 63 
L 2772 644 
Q 2300 0 1625 0 
Q 1072 0 763 375 
Q 519 678 519 1241 
L 519 3250 
L 1069 3250 
L 1069 1259 
Q 1069 466 1734 466 
Q 2406 466 2734 1291 
L 2734 3250 
L 3284 3250 
L 3284 63 
z
" transform="scale(0.015625)"/>
      <path id="IPAexGothic-6c" d="M 1131 63 
L 581 63 
L 581 4794 
L 1131 4794 
L 1131 63 
z
" transform="scale(0.015625)"/>
      <path id="IPAexGothic-6d" d="M 5022 63 
L 4472 63 
L 4472 2059 
Q 4472 2869 3847 2869 
Q 3550 2869 3303 2594 
Q 3128 2397 3059 2103 
L 3059 63 
L 2509 63 
L 2509 2066 
Q 2509 2869 1919 2869 
Q 1606 2869 1369 2594 
Q 1113 2306 1113 2041 
L 1113 63 
L 563 63 
L 563 3250 
L 1075 3250 
L 1075 2700 
Q 1391 3316 2028 3316 
Q 2725 3316 2956 2647 
Q 3303 3316 3953 3316 
Q 4478 3316 4772 2944 
Q 5022 2638 5022 2072 
L 5022 63 
z
" transform="scale(0.015625)"/>
     </defs>
     <use xlink:href="#IPAexGothic-69"/>
     <use xlink:href="#IPAexGothic-73" x="27.001953"/>
     <use xlink:href="#IPAexGothic-6e" x="73.193359"/>
     <use xlink:href="#IPAexGothic-75" x="133.59375"/>
     <use xlink:href="#IPAexGothic-6c" x="193.994141"/>
     <use xlink:href="#IPAexGothic-6c" x="220.996094"/>
     <use xlink:href="#IPAexGothic-28" x="247.998047"/>
     <use xlink:href="#IPAexGothic-29" x="281.298828"/>
     <use xlink:href="#IPAexGothic-2e" x="314.599609"/>
     <use xlink:href="#IPAexGothic-73" x="341.015625"/>
     <use xlink:href="#IPAexGothic-75" x="387.207031"/>
     <use xlink:href="#IPAexGothic-6d" x="447.607422"/>
     <use xlink:href="#IPAexGothic-28" x="534.716797"/>
     <use xlink:href="#IPAexGothic-29" x="568.017578"/>
    </g>
   </g>
   <g id="text_11">
    <!-- 欠損があるか確認してから進む -->
    <g style="fill: #2c3e50" transform="translate(384.48 131.514375) scale(0.12 -0.12)">
     <defs>
      <path id="IPAexGothic-304c" d="M 659 3384 
Q 1434 3503 2113 3581 
Q 2313 4341 2394 4972 
L 2900 4875 
Q 2759 4147 2619 3628 
L 2719 3634 
Q 2894 3641 3041 3641 
Q 4072 3641 4072 2369 
Q 4072 1128 3700 384 
Q 3478 -56 3003 -56 
Q 2591 -56 2113 231 
L 2138 775 
Q 2631 444 2925 444 
Q 3169 444 3297 706 
Q 3566 1294 3566 2388 
Q 3566 3219 3016 3219 
Q 2825 3219 2497 3194 
Q 2388 2763 2113 2047 
Q 1634 797 1119 -38 
L 678 244 
Q 1356 1238 1863 2750 
Q 1888 2819 1991 3128 
Q 1594 3081 769 2916 
L 659 3384 
z
M 5441 1838 
Q 4913 3038 4091 3916 
L 4475 4184 
Q 5350 3269 5888 2156 
L 5441 1838 
z
M 5913 4275 
Q 5553 4819 5159 5147 
L 5459 5375 
Q 5844 5066 6234 4550 
L 5913 4275 
z
M 5344 3788 
Q 5053 4278 4609 4678 
L 4922 4922 
Q 5294 4613 5678 4063 
L 5344 3788 
z
" transform="scale(0.015625)"/>
      <path id="IPAexGothic-3042" d="M 966 4134 
Q 1228 4116 1550 4116 
Q 1934 4116 2284 4141 
Q 2297 4247 2319 4453 
Q 2369 4872 2381 5050 
L 2853 5019 
Q 2794 4547 2759 4178 
Q 3672 4275 4581 4525 
L 4634 4084 
Q 3750 3863 2713 3756 
Q 2675 3378 2663 2931 
Q 3088 3084 3669 3138 
Q 3738 3325 3763 3547 
L 4238 3438 
Q 4188 3219 4153 3128 
Q 4797 3041 5166 2741 
Q 5703 2297 5703 1581 
Q 5703 794 5056 300 
Q 4559 -84 3681 -213 
L 3406 213 
Q 4169 297 4622 594 
Q 5203 969 5203 1588 
Q 5203 2216 4672 2553 
Q 4413 2725 4025 2772 
Q 3550 1556 2747 800 
Q 2766 584 2847 275 
L 2388 103 
Q 2369 191 2316 525 
Q 1756 128 1300 128 
Q 666 128 666 794 
Q 666 1244 950 1691 
Q 1216 2100 1678 2425 
Q 1834 2541 2194 2731 
Q 2206 3159 2253 3719 
Q 1772 3681 1338 3681 
Q 1106 3681 1006 3688 
L 966 4134 
z
M 2188 2291 
Q 1966 2169 1703 1913 
Q 1431 1650 1272 1353 
Q 1144 1109 1134 922 
Q 1119 575 1384 575 
Q 1788 575 2247 997 
Q 2197 1497 2188 2291 
z
M 3553 2772 
Q 3038 2700 2638 2534 
Q 2638 1734 2663 1300 
Q 3231 1931 3553 2772 
z
" transform="scale(0.015625)"/>
      <path id="IPAexGothic-308b" d="M 4391 4397 
L 2613 2588 
Q 3225 2809 3759 2809 
Q 4263 2809 4659 2625 
Q 5391 2269 5391 1484 
Q 5391 756 4706 275 
Q 4072 -166 3053 -166 
Q 2559 -166 2247 19 
Q 1863 250 1863 666 
Q 1863 934 2069 1141 
Q 2331 1403 2741 1403 
Q 3509 1403 4019 428 
Q 4872 784 4872 1491 
Q 4872 1981 4469 2222 
Q 4166 2406 3681 2406 
Q 2425 2406 1238 1209 
L 891 1581 
Q 2438 2934 3578 4281 
Q 2594 4125 1588 4066 
L 1478 4550 
Q 2594 4581 4109 4763 
L 4391 4397 
z
M 3591 303 
Q 3244 1025 2731 1025 
Q 2553 1025 2434 934 
Q 2316 844 2316 700 
Q 2316 250 3034 250 
Q 3275 250 3591 303 
z
" transform="scale(0.015625)"/>
      <path id="IPAexGothic-304b" d="M 659 3384 
Q 1434 3503 2113 3581 
Q 2313 4341 2394 4972 
L 2900 4875 
Q 2759 4147 2619 3628 
L 2719 3634 
Q 2894 3641 3041 3641 
Q 4072 3641 4072 2369 
Q 4072 1128 3700 384 
Q 3478 -56 3003 -56 
Q 2591 -56 2113 231 
L 2138 775 
Q 2631 444 2925 444 
Q 3169 444 3297 706 
Q 3566 1294 3566 2388 
Q 3566 3219 3016 3219 
Q 2825 3219 2497 3194 
Q 2388 2763 2113 2047 
Q 1634 797 1119 -38 
L 678 244 
Q 1356 1238 1863 2750 
Q 1888 2819 1991 3128 
Q 1594 3081 769 2916 
L 659 3384 
z
M 5644 1753 
Q 5072 3025 4238 3916 
L 4641 4184 
Q 5494 3275 6081 2094 
L 5644 1753 
z
" transform="scale(0.015625)"/>
      <path id="IPAexGothic-3057" d="M 1750 4884 
L 2281 4884 
L 2238 1319 
Q 2228 809 2391 569 
Q 2594 281 3128 281 
Q 3772 281 4344 744 
Q 4822 1131 5156 1759 
L 5534 1369 
Q 5094 653 4534 263 
Q 3878 -206 3134 -206 
Q 2341 -206 1994 213 
Q 1697 575 1706 1269 
L 1750 4884 
z
" transform="scale(0.015625)"/>
      <path id="IPAexGothic-3066" d="M 581 4034 
Q 2978 4363 5466 4556 
L 5509 4097 
Q 4388 4031 3750 3572 
Q 2797 2878 2797 1913 
Q 2797 1169 3291 819 
Q 3778 484 4869 416 
L 4906 -116 
Q 2278 0 2278 1850 
Q 2278 3125 3691 4000 
Q 2066 3784 684 3553 
L 581 4034 
z
" transform="scale(0.015625)"/>
      <path id="IPAexGothic-3089" d="M 3700 3928 
Q 2897 4478 2156 4750 
L 2381 5166 
Q 3147 4891 3956 4384 
L 3700 3928 
z
M 1344 1281 
Q 1450 2544 1747 4038 
L 2234 3928 
Q 1994 2856 1888 1844 
Q 2897 2688 3963 2688 
Q 4531 2688 4909 2450 
Q 5441 2122 5441 1516 
Q 5441 669 4569 213 
Q 3856 -169 2584 -238 
L 2363 250 
Q 3484 250 4213 588 
Q 4909 922 4909 1509 
Q 4909 1856 4647 2059 
Q 4366 2266 3897 2266 
Q 2853 2266 1766 1141 
L 1344 1281 
z
" transform="scale(0.015625)"/>
      <path id="IPAexGothic-9032" d="M 4303 1119 
L 5922 1119 
L 5922 728 
L 2828 728 
L 2828 381 
L 2413 381 
L 2413 3431 
Q 2141 3059 1925 2834 
L 1625 3169 
Q 2488 4059 2909 5281 
L 3347 5141 
Q 3125 4613 2925 4238 
L 3875 4238 
Q 4134 4709 4316 5256 
L 4781 5122 
Q 4553 4616 4328 4238 
L 5806 4238 
L 5806 3866 
L 4303 3866 
L 4303 3200 
L 5544 3200 
L 5544 2841 
L 4303 2841 
L 4303 2175 
L 5544 2175 
L 5544 1809 
L 4303 1809 
L 4303 1119 
z
M 3894 1119 
L 3894 1809 
L 2828 1809 
L 2828 1119 
L 3894 1119 
z
M 2828 2175 
L 3894 2175 
L 3894 2841 
L 2828 2841 
L 2828 2175 
z
M 2828 3200 
L 3894 3200 
L 3894 3866 
L 2828 3866 
L 2828 3200 
z
M 1703 734 
Q 1894 484 2241 313 
Q 2675 94 3963 94 
Q 4863 94 6144 178 
Q 6025 -50 5978 -300 
Q 4931 -341 4378 -341 
Q 2803 -341 2228 -122 
Q 1756 50 1519 397 
Q 1106 -75 647 -447 
L 366 19 
Q 847 309 1263 678 
L 1263 2303 
L 378 2303 
L 378 2731 
L 1703 2731 
L 1703 734 
z
M 1516 3775 
Q 1053 4347 563 4738 
L 878 5056 
Q 1466 4597 1856 4128 
L 1516 3775 
z
" transform="scale(0.015625)"/>
      <path id="IPAexGothic-3080" d="M 1856 4984 
L 2347 4984 
L 2316 4084 
Q 2863 4131 3506 4256 
L 3556 3794 
Q 3119 3722 2297 3647 
L 2259 2509 
Q 2366 2272 2366 2022 
Q 2366 1672 2175 1375 
Q 2009 1100 2009 753 
Q 2009 459 2272 384 
Q 2503 313 3072 313 
Q 3747 313 4178 428 
Q 4594 534 4594 1056 
Q 4594 1506 4375 2034 
L 4888 2138 
Q 5100 1516 5100 991 
Q 5100 219 4491 25 
Q 4022 -128 3000 -128 
Q 2222 -128 1894 13 
Q 1534 169 1534 556 
Q 1534 753 1572 953 
Q 1456 909 1325 909 
Q 1072 909 894 1050 
Q 594 1294 594 1778 
Q 594 2319 959 2675 
Q 1231 2938 1547 2938 
Q 1650 2938 1803 2894 
L 1822 3616 
Q 1372 3597 1063 3597 
Q 928 3597 581 3609 
L 581 4063 
Q 894 4038 1278 4038 
Q 1394 4038 1828 4050 
L 1856 4984 
z
M 1572 2584 
Q 1409 2584 1266 2431 
Q 1041 2181 1041 1813 
Q 1041 1281 1425 1281 
Q 1644 1281 1794 1556 
Q 1878 1703 1878 2016 
Q 1878 2584 1572 2584 
z
M 5644 2516 
Q 5050 3319 4331 3884 
L 4716 4197 
Q 5391 3684 6041 2900 
L 5644 2516 
z
" transform="scale(0.015625)"/>
     </defs>
     <use xlink:href="#IPAexGothic-6b20"/>
     <use xlink:href="#IPAexGothic-640d" x="100"/>
     <use xlink:href="#IPAexGothic-304c" x="200"/>
     <use xlink:href="#IPAexGothic-3042" x="300"/>
     <use xlink:href="#IPAexGothic-308b" x="400"/>
     <use xlink:href="#IPAexGothic-304b" x="500"/>
     <use xlink:href="#IPAexGothic-78ba" x="600"/>
     <use xlink:href="#IPAexGothic-8a8d" x="700"/>
     <use xlink:href="#IPAexGothic-3057" x="800"/>
     <use xlink:href="#IPAexGothic-3066" x="900"/>
     <use xlink:href="#IPAexGothic-304b" x="1000"/>
     <use xlink:href="#IPAexGothic-3089" x="1100"/>
     <use xlink:href="#IPAexGothic-9032" x="1200"/>
     <use xlink:href="#IPAexGothic-3080" x="1300"/>
    </g>
   </g>
   <g id="text_12">
    <!-- 欠損値補完 -->
    <g style="fill: #2c3e50" transform="translate(38.88 157.434375) scale(0.12 -0.12)">
     <defs>
      <path id="IPAexGothic-88dc" d="M 1600 2394 
L 1688 2338 
Q 1700 2325 1766 2288 
Q 1938 2509 2188 2925 
L 2506 2709 
Q 2297 2431 1997 2119 
Q 2328 1875 2522 1697 
L 2259 1359 
Q 1956 1672 1600 1997 
L 1600 -447 
L 1172 -447 
L 1172 2159 
Q 906 1816 494 1403 
L 256 1794 
Q 1275 2716 1747 3816 
L 403 3816 
L 403 4231 
L 1153 4231 
L 1153 5306 
L 1581 5306 
L 1581 4231 
L 2047 4231 
L 2297 4034 
Q 2003 3319 1600 2741 
L 1600 2394 
z
M 4384 4019 
L 4384 3419 
L 5778 3419 
L 5778 25 
Q 5778 -391 5303 -391 
Q 4997 -391 4806 -366 
L 4728 56 
Q 5006 19 5209 19 
Q 5363 19 5363 206 
L 5363 1031 
L 4378 1031 
L 4378 -288 
L 3969 -288 
L 3969 1031 
L 3034 1031 
L 3034 -447 
L 2613 -447 
L 2613 3419 
L 3963 3419 
L 3963 4019 
L 2350 4019 
L 2350 4403 
L 3963 4403 
L 3963 5313 
L 4384 5313 
L 4384 4403 
L 5338 4403 
Q 5331 4422 5303 4459 
Q 5113 4750 4813 5050 
L 5144 5247 
Q 5413 4997 5681 4641 
L 5350 4403 
L 6047 4403 
L 6047 4019 
L 4384 4019 
z
M 3969 3047 
L 3034 3047 
L 3034 2413 
L 3969 2413 
L 3969 3047 
z
M 4378 3047 
L 4378 2413 
L 5363 2413 
L 5363 3047 
L 4378 3047 
z
M 3969 2047 
L 3034 2047 
L 3034 1391 
L 3969 1391 
L 3969 2047 
z
M 4378 2047 
L 4378 1391 
L 5363 1391 
L 5363 2047 
L 4378 2047 
z
" transform="scale(0.015625)"/>
      <path id="IPAexGothic-5b8c" d="M 3419 4428 
L 5753 4428 
L 5753 3166 
L 5278 3166 
L 5278 4025 
L 1116 4025 
L 1116 3166 
L 641 3166 
L 641 4428 
L 2938 4428 
L 2938 5313 
L 3419 5313 
L 3419 4428 
z
M 4084 1850 
L 4084 353 
Q 4084 178 4219 138 
Q 4356 106 4713 106 
Q 5334 106 5422 300 
Q 5519 500 5519 1013 
L 5978 872 
Q 5931 9 5734 -169 
Q 5556 -347 4672 -347 
Q 3981 -347 3809 -250 
Q 3625 -144 3625 184 
L 3625 1850 
L 2697 1850 
Q 2688 819 2281 325 
Q 1834 -206 822 -506 
L 528 -84 
Q 1556 156 1916 622 
Q 2222 1003 2231 1850 
L 516 1850 
L 516 2266 
L 5881 2266 
L 5881 1850 
L 4084 1850 
z
M 1422 3341 
L 4975 3341 
L 4975 2938 
L 1422 2938 
L 1422 3341 
z
" transform="scale(0.015625)"/>
     </defs>
     <use xlink:href="#IPAexGothic-6b20"/>
     <use xlink:href="#IPAexGothic-640d" x="100"/>
     <use xlink:href="#IPAexGothic-5024" x="200"/>
     <use xlink:href="#IPAexGothic-88dc" x="300"/>
     <use xlink:href="#IPAexGothic-5b8c" x="400"/>
    </g>
   </g>
   <g id="text_13">
    <!-- fillna(平均値) -->
    <g style="fill: #2c3e50" transform="translate(168.48 157.885312) scale(0.12 -0.12)">
     <defs>
      <path id="IPAexGothic-5e73" d="M 3422 4428 
L 3422 1941 
L 6084 1941 
L 6084 1513 
L 3422 1513 
L 3422 -447 
L 2934 -447 
L 2934 1513 
L 322 1513 
L 322 1941 
L 2934 1941 
L 2934 4428 
L 641 4428 
L 641 4856 
L 5763 4856 
L 5763 4428 
L 3422 4428 
z
M 1728 2278 
Q 1488 3094 1081 3859 
L 1544 4038 
Q 1875 3422 2222 2472 
L 1728 2278 
z
M 4134 2425 
Q 4509 3138 4813 4128 
L 5306 3944 
Q 4984 3006 4569 2228 
L 4134 2425 
z
" transform="scale(0.015625)"/>
      <path id="IPAexGothic-5747" d="M 1206 3794 
L 1206 5144 
L 1659 5144 
L 1659 3794 
L 2369 3794 
L 2369 3372 
L 1659 3372 
L 1659 1325 
Q 2078 1513 2484 1722 
L 2566 1313 
Q 1556 775 559 397 
L 334 838 
Q 803 975 1206 1138 
L 1206 3372 
L 413 3372 
L 413 3794 
L 1206 3794 
z
M 3475 4244 
L 5844 4244 
Q 5834 1131 5619 184 
Q 5494 -366 4838 -366 
Q 4369 -366 3859 -306 
L 3769 184 
Q 4241 88 4731 88 
Q 5059 88 5147 306 
Q 5359 919 5369 3828 
L 3316 3828 
Q 3013 3119 2466 2472 
L 2150 2828 
Q 2944 3788 3259 5263 
L 3719 5147 
Q 3619 4663 3475 4244 
z
M 2975 2847 
L 4678 2847 
L 4678 2431 
L 2975 2431 
L 2975 2847 
z
M 2559 1044 
Q 3747 1338 4838 1797 
L 4891 1388 
Q 3831 891 2766 588 
L 2559 1044 
z
" transform="scale(0.015625)"/>
     </defs>
     <use xlink:href="#IPAexGothic-66"/>
     <use xlink:href="#IPAexGothic-69" x="30.615234"/>
     <use xlink:href="#IPAexGothic-6c" x="57.617188"/>
     <use xlink:href="#IPAexGothic-6c" x="84.619141"/>
     <use xlink:href="#IPAexGothic-6e" x="111.621094"/>
     <use xlink:href="#IPAexGothic-61" x="172.021484"/>
     <use xlink:href="#IPAexGothic-28" x="227.001953"/>
     <use xlink:href="#IPAexGothic-5e73" x="260.302734"/>
     <use xlink:href="#IPAexGothic-5747" x="360.302734"/>
     <use xlink:href="#IPAexGothic-5024" x="460.302734"/>
     <use xlink:href="#IPAexGothic-29" x="560.302734"/>
    </g>
   </g>
   <g id="text_14">
    <!-- 削除か補完かはデータ次第 -->
    <g style="fill: #2c3e50" transform="translate(384.48 157.495312) scale(0.12 -0.12)">
     <defs>
      <path id="IPAexGothic-524a" d="M 3506 3406 
L 3506 97 
Q 3506 -397 2963 -397 
Q 2513 -397 2169 -359 
L 2103 103 
Q 2497 38 2872 38 
Q 3066 38 3066 238 
L 3066 1050 
L 1053 1050 
L 1053 -447 
L 613 -447 
L 613 3406 
L 1809 3406 
L 1809 5313 
L 2250 5313 
L 2250 3406 
L 3506 3406 
z
M 3066 3022 
L 1053 3022 
L 1053 2419 
L 3066 2419 
L 3066 3022 
z
M 3066 2047 
L 1053 2047 
L 1053 1422 
L 3066 1422 
L 3066 2047 
z
M 959 3525 
Q 747 4191 447 4781 
L 863 4947 
Q 1144 4438 1406 3694 
L 959 3525 
z
M 2628 3694 
Q 2959 4284 3172 4997 
L 3628 4825 
Q 3353 4075 3031 3531 
L 2628 3694 
z
M 4159 4584 
L 4606 4584 
L 4606 1013 
L 4159 1013 
L 4159 4584 
z
M 5369 5106 
L 5809 5106 
L 5809 147 
Q 5809 -128 5700 -256 
Q 5575 -391 5156 -391 
Q 4744 -391 4350 -341 
L 4269 141 
Q 4763 69 5138 69 
Q 5369 69 5369 325 
L 5369 5106 
z
" transform="scale(0.015625)"/>
      <path id="IPAexGothic-9664" d="M 3028 3213 
Q 2713 2894 2378 2634 
L 2081 2975 
Q 3238 3838 3797 5247 
L 4284 5247 
Q 5038 3938 6222 3206 
L 5928 2797 
Q 5497 3122 5281 3322 
L 5281 2981 
L 4347 2981 
L 4347 2194 
L 5909 2194 
L 5909 1809 
L 4347 1809 
L 4347 38 
Q 4347 -222 4225 -325 
Q 4116 -416 3816 -416 
Q 3425 -416 3203 -378 
L 3138 72 
Q 3494 13 3734 13 
Q 3906 13 3906 197 
L 3906 1809 
L 2372 1809 
L 2372 2194 
L 3906 2194 
L 3906 2981 
L 3028 2981 
L 3028 3213 
z
M 3172 3359 
L 5238 3359 
Q 4525 4025 4059 4813 
Q 3719 3984 3172 3359 
z
M 2131 4991 
L 2353 4784 
Q 2044 3778 1700 3025 
Q 2225 2272 2225 1491 
Q 2225 800 1631 800 
Q 1384 800 1125 844 
L 1056 1278 
Q 1303 1216 1541 1216 
Q 1797 1216 1797 1541 
Q 1797 2291 1259 3038 
Q 1588 3703 1844 4581 
L 966 4581 
L 966 -450 
L 538 -450 
L 538 4991 
L 2131 4991 
z
M 5644 -31 
Q 5222 728 4653 1338 
L 5006 1588 
Q 5572 1022 6041 300 
L 5644 -31 
z
M 2188 191 
Q 2756 778 3034 1544 
L 3450 1356 
Q 3103 469 2528 -134 
L 2188 191 
z
" transform="scale(0.015625)"/>
      <path id="IPAexGothic-306f" d="M 4066 4875 
L 4538 4875 
L 4556 3769 
Q 5003 3816 5581 3941 
L 5619 3469 
Q 5256 3394 4563 3322 
L 4597 1441 
Q 5100 1284 5934 756 
L 5656 313 
Q 5066 772 4609 978 
Q 4609 441 4384 225 
Q 4128 -13 3634 -13 
Q 2991 -13 2669 231 
Q 2388 444 2388 831 
Q 2388 1225 2772 1484 
Q 3050 1669 3534 1669 
Q 3759 1669 4134 1594 
L 4097 3288 
Q 3697 3269 3359 3269 
Q 2925 3269 2484 3300 
L 2466 3763 
Q 2953 3716 3456 3716 
Q 3738 3716 4091 3738 
L 4066 4875 
z
M 4141 1153 
Q 3753 1259 3513 1259 
Q 2841 1259 2841 850 
Q 2841 422 3634 422 
Q 3888 422 4022 569 
Q 4141 700 4141 922 
Q 4141 1088 4141 1153 
z
M 1000 -50 
Q 794 1072 794 1931 
Q 794 3153 1247 4884 
L 1728 4763 
Q 1269 3044 1269 1900 
Q 1269 1569 1306 1106 
Q 1591 1706 1753 1997 
L 2075 1806 
Q 1484 716 1484 141 
Q 1484 72 1491 0 
L 1000 -50 
z
" transform="scale(0.015625)"/>
      <path id="IPAexGothic-6b21" d="M 3519 3750 
L 2950 3750 
Q 2678 3041 2231 2444 
L 1853 2772 
Q 2600 3756 2878 5184 
L 3353 5094 
Q 3241 4603 3103 4166 
L 5541 4166 
L 5841 3928 
Q 5406 2903 4906 2222 
L 4484 2481 
Q 4963 3072 5247 3750 
L 3994 3750 
L 3994 3263 
Q 3994 1384 6028 91 
L 5681 -353 
Q 4166 622 3794 2194 
Q 3669 1413 3391 922 
Q 2903 72 1931 -488 
L 1613 -72 
Q 3519 888 3519 3359 
L 3519 3750 
z
M 1438 3200 
Q 959 3884 509 4294 
L 881 4628 
Q 1413 4153 1841 3597 
L 1438 3200 
z
M 325 250 
Q 984 938 1600 2003 
L 1950 1656 
Q 1319 538 697 -184 
L 325 250 
z
" transform="scale(0.015625)"/>
      <path id="IPAexGothic-7b2c" d="M 2256 4416 
Q 2394 4172 2513 3841 
L 2084 3666 
Q 1953 4150 1822 4416 
L 1419 4416 
Q 1122 3888 784 3513 
L 459 3769 
Q 1066 4406 1381 5313 
L 1797 5203 
Q 1731 5044 1613 4788 
L 3178 4788 
L 3178 4416 
L 2256 4416 
z
M 3031 1153 
Q 2178 222 888 -288 
L 559 78 
Q 1819 509 2713 1363 
L 1381 1363 
Q 1294 1013 1272 941 
L 831 1038 
Q 1047 1803 1150 2688 
L 3031 2688 
L 3031 3231 
L 956 3231 
L 956 3603 
L 5444 3603 
L 5444 2072 
L 5009 2072 
L 5009 2328 
L 3478 2328 
L 3478 1734 
L 5834 1734 
Q 5794 675 5713 353 
Q 5606 -31 5119 -31 
Q 4684 -31 4247 19 
L 4156 472 
Q 4609 391 4963 391 
Q 5225 391 5284 594 
Q 5322 763 5359 1319 
L 5359 1363 
L 3478 1363 
L 3478 -447 
L 3031 -447 
L 3031 1153 
z
M 5009 2688 
L 5009 3231 
L 3478 3231 
L 3478 2688 
L 5009 2688 
z
M 1547 2328 
Q 1522 2066 1456 1734 
L 3031 1734 
L 3031 2328 
L 1547 2328 
z
M 3947 4788 
L 5863 4788 
L 5863 4416 
L 4672 4416 
Q 4813 4225 4991 3847 
L 4575 3672 
Q 4434 4094 4222 4416 
L 3775 4416 
Q 3553 3981 3281 3641 
L 2938 3884 
Q 3428 4472 3691 5319 
L 4106 5222 
Q 4028 4978 3947 4788 
z
" transform="scale(0.015625)"/>
     </defs>
     <use xlink:href="#IPAexGothic-524a"/>
     <use xlink:href="#IPAexGothic-9664" x="100"/>
     <use xlink:href="#IPAexGothic-304b" x="200"/>
     <use xlink:href="#IPAexGothic-88dc" x="300"/>
     <use xlink:href="#IPAexGothic-5b8c" x="400"/>
     <use xlink:href="#IPAexGothic-304b" x="500"/>
     <use xlink:href="#IPAexGothic-306f" x="600"/>
     <use xlink:href="#IPAexGothic-30c7" x="700"/>
     <use xlink:href="#IPAexGothic-30fc" x="800"/>
     <use xlink:href="#IPAexGothic-30bf" x="900"/>
     <use xlink:href="#IPAexGothic-6b21" x="1000"/>
     <use xlink:href="#IPAexGothic-7b2c" x="1100"/>
    </g>
   </g>
   <g id="text_15">
    <!-- フィルタ -->
    <g style="fill: #2c3e50" transform="translate(38.88 183.354375) scale(0.12 -0.12)">
     <defs>
      <path id="IPAexGothic-30d5" d="M 4966 4294 
L 5263 4019 
Q 4819 894 1966 -97 
L 1600 353 
Q 4234 1156 4684 3822 
L 1044 3756 
L 1044 4244 
L 4966 4294 
z
" transform="scale(0.015625)"/>
      <path id="IPAexGothic-30a3" d="M 3034 -231 
L 3034 2188 
Q 2344 1656 1516 1294 
L 1191 1672 
Q 2981 2431 4128 3922 
L 4519 3634 
Q 4138 3122 3534 2597 
L 3534 -231 
L 3034 -231 
z
" transform="scale(0.015625)"/>
      <path id="IPAexGothic-30eb" d="M 353 331 
Q 1313 994 1544 2022 
Q 1684 2650 1684 4397 
L 2203 4397 
L 2203 4153 
L 2203 4116 
Q 2203 2259 1934 1491 
Q 1619 588 744 -38 
L 353 331 
z
M 3125 4666 
L 3650 4666 
L 3650 769 
Q 4875 1488 5672 2734 
L 6000 2278 
Q 5075 966 3516 63 
L 3125 359 
L 3125 4666 
z
" transform="scale(0.015625)"/>
     </defs>
     <use xlink:href="#IPAexGothic-30d5"/>
     <use xlink:href="#IPAexGothic-30a3" x="100"/>
     <use xlink:href="#IPAexGothic-30eb" x="200"/>
     <use xlink:href="#IPAexGothic-30bf" x="300"/>
    </g>
   </g>
   <g id="text_16">
    <!-- df[df["列"] &gt; 値] -->
    <g style="fill: #2c3e50" transform="translate(168.48 183.64125) scale(0.12 -0.12)">
     <defs>
      <path id="IPAexGothic-5b" d="M 1706 -991 
L 581 -991 
L 581 4750 
L 1706 4750 
L 1706 4438 
L 1028 4438 
L 1028 -678 
L 1706 -678 
L 1706 -991 
z
" transform="scale(0.015625)"/>
      <path id="IPAexGothic-22" d="M 1809 4794 
L 1706 3084 
L 1331 3084 
L 1228 4794 
L 1809 4794 
z
M 900 4794 
L 806 3084 
L 422 3084 
L 325 4794 
L 900 4794 
z
" transform="scale(0.015625)"/>
      <path id="IPAexGothic-5217" d="M 2334 1600 
Q 1944 1966 1306 2378 
Q 1038 1938 709 1541 
L 434 1906 
Q 1325 2934 1663 4550 
L 606 4550 
L 606 4953 
L 3781 4953 
L 3781 4550 
L 2097 4550 
Q 2091 4531 2078 4466 
Q 2000 4100 1900 3781 
L 3141 3781 
L 3409 3575 
Q 3156 2138 2656 1247 
Q 2097 269 1003 -500 
L 684 -128 
Q 1769 563 2334 1600 
z
M 2534 2009 
Q 2794 2656 2919 3384 
L 1766 3384 
Q 1638 3034 1478 2706 
Q 2181 2294 2534 2009 
z
M 3956 4416 
L 4409 4416 
L 4409 966 
L 3956 966 
L 3956 4416 
z
M 5306 5056 
L 5759 5056 
L 5759 197 
Q 5759 -138 5569 -263 
Q 5419 -353 5094 -353 
Q 4547 -353 3963 -294 
L 3878 191 
Q 4600 116 5038 116 
Q 5306 116 5306 359 
L 5306 5056 
z
" transform="scale(0.015625)"/>
      <path id="IPAexGothic-5d" d="M 1322 -991 
L 197 -991 
L 197 -678 
L 875 -678 
L 875 4438 
L 197 4438 
L 197 4750 
L 1322 4750 
L 1322 -991 
z
" transform="scale(0.015625)"/>
      <path id="IPAexGothic-3e" d="M 3444 2028 
L 409 3450 
L 569 3794 
L 3928 2175 
L 3928 1881 
L 569 263 
L 409 609 
L 3444 2028 
z
" transform="scale(0.015625)"/>
     </defs>
     <use xlink:href="#IPAexGothic-64"/>
     <use xlink:href="#IPAexGothic-66" x="62.402344"/>
     <use xlink:href="#IPAexGothic-5b" x="93.017578"/>
     <use xlink:href="#IPAexGothic-64" x="122.998047"/>
     <use xlink:href="#IPAexGothic-66" x="185.400391"/>
     <use xlink:href="#IPAexGothic-5b" x="216.015625"/>
     <use xlink:href="#IPAexGothic-22" x="245.996094"/>
     <use xlink:href="#IPAexGothic-5217" x="279.785156"/>
     <use xlink:href="#IPAexGothic-22" x="379.785156"/>
     <use xlink:href="#IPAexGothic-5d" x="413.574219"/>
     <use xlink:href="#IPAexGothic-20" x="443.554688"/>
     <use xlink:href="#IPAexGothic-3e" x="470.556641"/>
     <use xlink:href="#IPAexGothic-20" x="538.378906"/>
     <use xlink:href="#IPAexGothic-5024" x="565.380859"/>
     <use xlink:href="#IPAexGothic-5d" x="665.380859"/>
    </g>
   </g>
   <g id="text_17">
    <!-- 条件に合う行だけ取り出す -->
    <g style="fill: #2c3e50" transform="translate(384.48 183.354375) scale(0.12 -0.12)">
     <defs>
      <path id="IPAexGothic-6761" d="M 3406 1475 
L 3406 -447 
L 2953 -447 
L 2953 1422 
Q 2147 306 641 -331 
L 334 59 
Q 1738 569 2563 1538 
L 488 1538 
L 488 1941 
L 2953 1941 
L 2953 2691 
L 3406 2691 
L 3406 1941 
L 5928 1941 
L 5928 1538 
L 3847 1538 
Q 4597 769 6063 238 
L 5759 -203 
Q 4256 400 3406 1475 
z
M 3738 3419 
Q 4619 2991 5959 2772 
L 5684 2356 
Q 4216 2631 3353 3150 
Q 2350 2494 813 2175 
L 531 2566 
Q 2063 2825 2997 3391 
Q 2494 3763 2163 4219 
Q 1694 3747 1038 3359 
L 725 3688 
Q 1897 4319 2466 5306 
L 2900 5203 
Q 2784 5003 2713 4903 
L 4641 4903 
L 4872 4691 
Q 4384 3938 3738 3419 
z
M 3353 3634 
Q 3919 4075 4219 4531 
L 2438 4531 
L 2425 4513 
Q 2838 3956 3353 3634 
z
" transform="scale(0.015625)"/>
      <path id="IPAexGothic-4ef6" d="M 3903 3425 
L 2906 3425 
Q 2697 2825 2309 2247 
L 1991 2572 
Q 2588 3497 2803 4788 
L 3256 4713 
Q 3175 4313 3041 3834 
L 3903 3834 
L 3903 5250 
L 4356 5250 
L 4356 3834 
L 5731 3834 
L 5731 3425 
L 4356 3425 
L 4356 2009 
L 6041 2009 
L 6041 1594 
L 4356 1594 
L 4356 -447 
L 3903 -447 
L 3903 1594 
L 2078 1594 
L 2078 2009 
L 3903 2009 
L 3903 3425 
z
M 1638 3681 
L 1638 -447 
L 1169 -447 
L 1169 2753 
Q 881 2272 575 1863 
L 313 2253 
Q 1238 3463 1650 5184 
L 2125 5069 
Q 1909 4316 1638 3681 
z
" transform="scale(0.015625)"/>
      <path id="IPAexGothic-5408" d="M 1831 3188 
L 4653 3188 
L 4653 2778 
L 1747 2778 
L 1747 3125 
Q 1275 2778 594 2453 
L 294 2828 
Q 2006 3509 2891 5147 
L 3431 5147 
Q 4331 3806 6125 3003 
L 5831 2588 
Q 4119 3416 3175 4731 
Q 2650 3806 1831 3188 
z
M 5113 2088 
L 5113 -450 
L 4638 -450 
L 4638 -97 
L 1766 -97 
L 1766 -450 
L 1284 -450 
L 1284 2088 
L 5113 2088 
z
M 1766 1691 
L 1766 300 
L 4638 300 
L 4638 1691 
L 1766 1691 
z
" transform="scale(0.015625)"/>
      <path id="IPAexGothic-3046" d="M 3897 4025 
Q 3203 4456 2144 4728 
L 2381 5166 
Q 3353 4928 4166 4481 
L 3897 4025 
z
M 1172 3050 
Q 2872 3628 3566 3628 
Q 4269 3628 4603 3181 
Q 4847 2850 4847 2253 
Q 4847 372 2619 -275 
L 2278 159 
Q 3356 397 3881 994 
Q 4328 1503 4328 2228 
Q 4328 3181 3534 3181 
Q 2909 3181 1397 2553 
L 1172 3050 
z
" transform="scale(0.015625)"/>
      <path id="IPAexGothic-3060" d="M 684 3963 
Q 1138 3922 1556 3922 
Q 1800 3922 2106 3944 
Q 2266 4563 2369 5081 
L 2875 4991 
Q 2806 4700 2619 3981 
Q 3209 4050 3656 4159 
L 3688 3688 
Q 3109 3581 2497 3531 
Q 1822 1263 1153 -78 
L 653 141 
Q 1406 1469 1991 3500 
Q 1641 3481 1256 3481 
Q 1109 3481 697 3494 
L 684 3963 
z
M 5753 44 
Q 5053 -44 4597 -44 
Q 3619 -44 3206 303 
Q 2866 594 2766 1191 
L 3213 1356 
Q 3247 1038 3347 869 
Q 3425 741 3578 641 
Q 3866 450 4556 450 
Q 5009 450 5728 544 
L 5753 44 
z
M 3144 2828 
Q 4216 3113 5409 3041 
L 5381 2566 
L 5356 2566 
Q 4263 2631 3194 2388 
L 3144 2828 
z
M 5569 4103 
Q 5206 4644 4813 4972 
L 5113 5203 
Q 5497 4894 5888 4378 
L 5569 4103 
z
M 4972 3634 
Q 4684 4125 4238 4525 
L 4550 4769 
Q 4922 4459 5306 3909 
L 4972 3634 
z
" transform="scale(0.015625)"/>
      <path id="IPAexGothic-3051" d="M 2553 3481 
Q 2891 3463 3219 3463 
Q 3691 3463 4338 3506 
Q 4303 4434 4250 4897 
L 4763 4897 
Q 4769 4772 4825 3566 
Q 5319 3634 5709 3744 
L 5747 3291 
Q 5356 3159 4838 3109 
Q 4844 2875 4844 2606 
Q 4844 1434 4575 856 
Q 4250 138 3347 -313 
L 2938 56 
Q 3809 441 4094 1006 
Q 4363 1525 4363 2625 
Q 4363 2853 4359 3059 
Q 3722 3009 3175 3009 
Q 2791 3009 2591 3022 
L 2553 3481 
z
M 1925 2088 
L 2253 1881 
Q 1697 872 1678 166 
L 1259 72 
Q 941 1184 941 2272 
Q 941 3181 1344 4872 
L 1819 4750 
Q 1416 3166 1416 2163 
Q 1416 1722 1491 1222 
L 1925 2088 
z
" transform="scale(0.015625)"/>
      <path id="IPAexGothic-53d6" d="M 2825 4544 
L 2825 -447 
L 2384 -447 
L 2384 891 
L 2250 853 
Q 1509 650 484 431 
L 331 884 
Q 594 925 919 981 
L 919 4544 
L 406 4544 
L 406 4953 
L 3300 4953 
L 3300 4544 
L 2825 4544 
z
M 2384 4544 
L 1341 4544 
L 1341 3700 
L 2384 3700 
L 2384 4544 
z
M 2384 3316 
L 1341 3316 
L 1341 2472 
L 2384 2472 
L 2384 3316 
z
M 2384 2088 
L 1341 2088 
L 1341 1056 
L 1525 1091 
Q 2231 1231 2384 1269 
L 2384 2088 
z
M 4838 1281 
L 4863 1244 
Q 5359 578 6116 59 
L 5822 -378 
Q 5178 116 4606 872 
Q 4050 13 3250 -506 
L 2956 -128 
Q 3788 359 4338 1269 
Q 3644 2359 3422 3963 
L 3063 3963 
L 3063 4391 
L 5522 4391 
L 5753 4188 
Q 5372 2341 4838 1281 
z
M 4569 1697 
Q 5019 2684 5222 3963 
L 3850 3963 
Q 4069 2634 4569 1697 
z
" transform="scale(0.015625)"/>
      <path id="IPAexGothic-308a" d="M 2878 2925 
Q 2503 2294 2372 2041 
Q 2222 1750 2163 1459 
L 1716 1503 
Q 1509 2131 1509 3091 
Q 1509 3744 1663 4872 
L 2181 4806 
Q 2003 3541 2003 3016 
Q 2003 2613 2028 2259 
Q 2109 2413 2313 2766 
Q 2484 3063 2578 3238 
L 2878 2925 
z
M 2488 128 
Q 3534 503 3928 1184 
Q 4234 1713 4234 2975 
Q 4234 3872 4122 4928 
L 4666 4928 
Q 4759 3794 4759 2975 
Q 4759 1516 4356 844 
Q 3913 103 2853 -288 
L 2488 128 
z
" transform="scale(0.015625)"/>
      <path id="IPAexGothic-51fa" d="M 3419 2956 
L 4928 2956 
L 4928 4500 
L 5397 4500 
L 5397 2203 
L 4928 2203 
L 4928 2541 
L 3419 2541 
L 3419 384 
L 5194 384 
L 5194 1813 
L 5653 1813 
L 5653 -447 
L 5194 -447 
L 5194 -31 
L 1203 -31 
L 1203 -447 
L 744 -447 
L 744 1813 
L 1203 1813 
L 1203 384 
L 2938 384 
L 2938 2541 
L 1459 2541 
L 1459 2203 
L 1000 2203 
L 1000 4500 
L 1459 4500 
L 1459 2956 
L 2938 2956 
L 2938 5144 
L 3419 5144 
L 3419 2956 
z
" transform="scale(0.015625)"/>
      <path id="IPAexGothic-3059" d="M 3322 5075 
L 3816 5075 
L 3816 4063 
Q 4131 4075 5756 4116 
L 5756 3669 
Q 5431 3672 3816 3653 
L 3816 2463 
Q 3956 2125 3956 1741 
Q 3956 922 3519 397 
Q 3128 -72 2309 -409 
L 1941 -31 
Q 3263 453 3488 1363 
Q 3250 1031 2809 1031 
Q 2441 1031 2150 1313 
Q 1875 1588 1875 2050 
Q 1875 2475 2166 2769 
Q 2431 3041 2822 3041 
Q 3088 3041 3322 2881 
L 3322 3641 
Q 3000 3634 609 3547 
L 609 3988 
Q 1197 4000 2106 4022 
Q 3066 4047 3322 4050 
L 3322 5075 
z
M 3372 2044 
Q 3372 2300 3194 2478 
Q 3050 2613 2869 2613 
Q 2622 2613 2463 2406 
Q 2344 2250 2344 2088 
Q 2344 1797 2484 1622 
Q 2625 1453 2859 1453 
Q 3372 1453 3372 2044 
z
" transform="scale(0.015625)"/>
     </defs>
     <use xlink:href="#IPAexGothic-6761"/>
     <use xlink:href="#IPAexGothic-4ef6" x="100"/>
     <use xlink:href="#IPAexGothic-306b" x="200"/>
     <use xlink:href="#IPAexGothic-5408" x="300"/>
     <use xlink:href="#IPAexGothic-3046" x="400"/>
     <use xlink:href="#IPAexGothic-884c" x="500"/>
     <use xlink:href="#IPAexGothic-3060" x="600"/>
     <use xlink:href="#IPAexGothic-3051" x="700"/>
     <use xlink:href="#IPAexGothic-53d6" x="800"/>
     <use xlink:href="#IPAexGothic-308a" x="900"/>
     <use xlink:href="#IPAexGothic-51fa" x="1000"/>
     <use xlink:href="#IPAexGothic-3059" x="1100"/>
    </g>
   </g>
   <g id="text_18">
    <!-- 集計 -->
    <g style="fill: #2c3e50" transform="translate(38.88 209.274375) scale(0.12 -0.12)">
     <use xlink:href="#IPAexGothic-96c6"/>
     <use xlink:href="#IPAexGothic-8a08" x="100"/>
    </g>
   </g>
   <g id="text_19">
    <!-- groupby("列").mean() -->
    <g style="fill: #2c3e50" transform="translate(168.48 209.485312) scale(0.12 -0.12)">
     <defs>
      <path id="IPAexGothic-67" d="M 1331 1150 
Q 1006 1122 1006 900 
Q 1006 613 1763 575 
L 2131 556 
Q 3303 497 3303 -294 
Q 3303 -700 2925 -959 
Q 2519 -1253 1794 -1253 
Q 1138 -1253 738 -1028 
Q 353 -809 353 -428 
Q 353 84 1075 247 
L 1075 269 
Q 506 413 506 778 
Q 506 1116 994 1297 
Q 456 1575 456 2181 
Q 456 2650 769 2963 
Q 1128 3322 1738 3322 
Q 2125 3322 2422 3153 
Q 2650 3453 3259 3463 
L 3259 3013 
Q 2838 3003 2703 2938 
Q 3034 2613 3034 2169 
Q 3034 1728 2734 1425 
Q 2400 1094 1813 1094 
Q 1563 1094 1331 1150 
z
M 1734 2919 
Q 1409 2919 1197 2706 
Q 988 2497 988 2181 
Q 988 1872 1184 1684 
Q 1397 1472 1756 1472 
Q 2094 1472 2297 1678 
Q 2503 1881 2503 2203 
Q 2503 2497 2297 2700 
Q 2081 2919 1734 2919 
z
M 1753 159 
Q 903 159 903 -366 
Q 903 -875 1800 -875 
Q 2378 -875 2638 -606 
Q 2772 -481 2772 -313 
Q 2772 159 1753 159 
z
" transform="scale(0.015625)"/>
      <path id="IPAexGothic-70" d="M 1075 2688 
Q 1525 3341 2206 3341 
Q 2769 3341 3172 2938 
Q 3641 2469 3641 1644 
Q 3641 841 3178 372 
Q 2775 -31 2200 -31 
Q 1569 -31 1106 497 
L 1106 -1216 
L 563 -1216 
L 563 3250 
L 1075 3250 
L 1075 2688 
z
M 1106 1950 
L 1106 1291 
Q 1106 897 1516 600 
Q 1791 403 2106 403 
Q 2469 403 2725 659 
Q 3066 997 3066 1631 
Q 3066 2200 2784 2559 
Q 2503 2900 2100 2900 
Q 1656 2900 1338 2484 
Q 1106 2184 1106 1950 
z
" transform="scale(0.015625)"/>
      <path id="IPAexGothic-79" d="M 3122 3250 
L 1575 -488 
Q 1278 -1203 550 -1203 
L 478 -1203 
L 344 -703 
L 447 -703 
Q 969 -703 1150 -238 
L 1356 275 
L 38 3250 
L 659 3250 
L 1363 1459 
Q 1528 1025 1606 781 
L 1625 781 
Q 1750 1169 1863 1459 
L 2528 3250 
L 3122 3250 
z
" transform="scale(0.015625)"/>
     </defs>
     <use xlink:href="#IPAexGothic-67"/>
     <use xlink:href="#IPAexGothic-72" x="55.517578"/>
     <use xlink:href="#IPAexGothic-6f" x="92.529297"/>
     <use xlink:href="#IPAexGothic-75" x="152.929688"/>
     <use xlink:href="#IPAexGothic-70" x="213.330078"/>
     <use xlink:href="#IPAexGothic-62" x="275.439453"/>
     <use xlink:href="#IPAexGothic-79" x="337.841797"/>
     <use xlink:href="#IPAexGothic-28" x="387.060547"/>
     <use xlink:href="#IPAexGothic-22" x="420.361328"/>
     <use xlink:href="#IPAexGothic-5217" x="454.150391"/>
     <use xlink:href="#IPAexGothic-22" x="554.150391"/>
     <use xlink:href="#IPAexGothic-29" x="587.939453"/>
     <use xlink:href="#IPAexGothic-2e" x="621.240234"/>
     <use xlink:href="#IPAexGothic-6d" x="647.65625"/>
     <use xlink:href="#IPAexGothic-65" x="734.765625"/>
     <use xlink:href="#IPAexGothic-61" x="791.650391"/>
     <use xlink:href="#IPAexGothic-6e" x="846.630859"/>
     <use xlink:href="#IPAexGothic-28" x="907.03125"/>
     <use xlink:href="#IPAexGothic-29" x="940.332031"/>
    </g>
   </g>
   <g id="text_20">
    <!-- グループごとの傾向を掴む -->
    <g style="fill: #2c3e50" transform="translate(384.48 209.29125) scale(0.12 -0.12)">
     <defs>
      <path id="IPAexGothic-30b0" d="M 4769 4128 
L 5106 3878 
Q 4728 2272 3866 1238 
Q 3106 328 1863 -288 
L 1491 122 
Q 2709 628 3475 1563 
Q 4238 2491 4525 3669 
L 2738 3669 
Q 2022 2591 1191 1897 
L 813 2247 
Q 2163 3338 2766 4959 
L 3256 4819 
Q 3197 4609 2975 4128 
L 4769 4128 
z
M 6009 4422 
Q 5647 4966 5253 5294 
L 5556 5522 
Q 5941 5213 6328 4697 
L 6009 4422 
z
M 5416 3956 
Q 5125 4447 4678 4844 
L 4991 5088 
Q 5363 4781 5747 4231 
L 5416 3956 
z
" transform="scale(0.015625)"/>
      <path id="IPAexGothic-30d7" d="M 4825 4275 
L 5125 4000 
Q 4884 2378 4081 1381 
Q 3294 413 1888 -116 
L 1522 331 
Q 4069 1113 4550 3803 
L 966 3738 
L 966 4225 
L 4825 4275 
z
M 5597 5509 
Q 5906 5509 6119 5275 
Q 6303 5075 6303 4806 
Q 6303 4494 6069 4281 
Q 5866 4097 5597 4097 
Q 5284 4097 5072 4331 
Q 4888 4534 4888 4806 
Q 4888 5116 5122 5328 
Q 5328 5509 5597 5509 
z
M 5597 5228 
Q 5409 5228 5278 5088 
Q 5169 4966 5169 4806 
Q 5169 4616 5309 4488 
Q 5434 4378 5597 4378 
Q 5784 4378 5913 4519 
Q 6022 4641 6022 4806 
Q 6022 4991 5881 5119 
Q 5759 5228 5597 5228 
z
" transform="scale(0.015625)"/>
      <path id="IPAexGothic-3054" d="M 1525 4409 
Q 2284 4350 2881 4350 
Q 3778 4350 4481 4447 
L 4591 4019 
Q 3778 3791 2856 2981 
L 2497 3256 
Q 3028 3653 3488 3938 
Q 2969 3897 2497 3897 
Q 1975 3897 1544 3944 
L 1525 4409 
z
M 5122 178 
Q 4244 0 3181 0 
Q 2194 0 1594 331 
Q 1038 641 1038 1184 
Q 1038 1725 1538 2234 
L 1922 1991 
Q 1525 1631 1525 1247 
Q 1525 488 3169 488 
Q 4166 488 5069 709 
L 5122 178 
z
M 5959 4250 
Q 5597 4791 5203 5119 
L 5506 5350 
Q 5888 5041 6278 4525 
L 5959 4250 
z
M 5391 3763 
Q 5100 4253 4653 4653 
L 4966 4897 
Q 5338 4588 5722 4038 
L 5391 3763 
z
" transform="scale(0.015625)"/>
      <path id="IPAexGothic-50be" d="M 4653 4025 
L 5741 4025 
L 5741 794 
L 3509 794 
L 3509 4025 
L 4263 4025 
L 4291 4122 
Q 4344 4366 4391 4659 
L 3100 4659 
L 3100 5056 
L 6047 5056 
L 6047 4659 
L 4838 4659 
Q 4831 4603 4800 4506 
Q 4691 4128 4653 4025 
z
M 5331 3653 
L 3913 3653 
L 3913 3078 
L 5331 3078 
L 5331 3653 
z
M 3913 2713 
L 3913 2138 
L 5331 2138 
L 5331 2713 
L 3913 2713 
z
M 3913 1778 
L 3913 1166 
L 5331 1166 
L 5331 1778 
L 3913 1778 
z
M 1400 3725 
L 1400 -447 
L 966 -447 
L 966 2694 
Q 759 2284 478 1863 
L 244 2259 
Q 1028 3500 1388 5306 
L 1816 5203 
Q 1622 4353 1400 3725 
z
M 2291 3059 
Q 2684 3319 3000 3656 
L 3269 3297 
Q 2838 2906 2291 2613 
L 2291 1044 
Q 2291 825 2534 825 
Q 2769 825 2797 1038 
Q 2831 1353 2841 1775 
L 3244 1647 
Q 3234 694 3066 544 
Q 2925 403 2450 403 
Q 2138 403 2009 494 
Q 1881 581 1881 841 
L 1881 4544 
L 2291 4544 
L 2291 3059 
z
M 2975 -191 
Q 3656 200 4097 756 
L 4450 538 
Q 3916 -128 3309 -506 
L 2975 -191 
z
M 5794 -428 
Q 5278 163 4806 525 
L 5134 769 
Q 5613 434 6150 -122 
L 5794 -428 
z
" transform="scale(0.015625)"/>
      <path id="IPAexGothic-5411" d="M 4409 3034 
L 4409 1044 
L 2378 1044 
L 2378 591 
L 1938 591 
L 1938 3034 
L 4409 3034 
z
M 3969 2638 
L 2378 2638 
L 2378 1441 
L 3969 1441 
L 3969 2638 
z
M 2559 4275 
Q 2731 4803 2803 5306 
L 3347 5197 
Q 3200 4681 3028 4275 
L 5709 4275 
L 5709 206 
Q 5709 -128 5538 -241 
Q 5388 -331 5028 -331 
Q 4484 -331 4038 -294 
L 3922 206 
Q 4491 128 4934 128 
Q 5234 128 5234 409 
L 5234 3872 
L 1159 3872 
L 1159 -453 
L 684 -453 
L 684 4275 
L 2559 4275 
z
" transform="scale(0.015625)"/>
      <path id="IPAexGothic-63b4" d="M 1119 4013 
L 1119 5313 
L 1534 5313 
L 1534 4013 
L 2109 4013 
L 2109 3609 
L 1534 3609 
L 1534 2363 
Q 1928 2484 2122 2553 
L 2156 2188 
Q 1994 2119 1534 1947 
L 1534 0 
Q 1534 -263 1419 -356 
Q 1309 -447 1041 -447 
Q 772 -447 484 -409 
L 416 44 
Q 681 -6 934 -6 
Q 1119 -6 1119 172 
L 1119 1797 
Q 713 1663 422 1581 
L 269 2016 
Q 678 2116 1119 2241 
L 1119 3609 
L 344 3609 
L 344 4013 
L 1119 4013 
z
M 4225 3641 
L 4225 2834 
L 5159 2834 
L 5159 2463 
L 4225 2463 
L 4225 1234 
L 5294 1234 
L 5294 844 
L 2888 844 
L 2888 1234 
L 3816 1234 
L 3816 2463 
L 3034 2463 
L 3034 2834 
L 3816 2834 
L 3816 3641 
L 2944 3641 
L 2944 4025 
L 5250 4025 
L 5250 3641 
L 4225 3641 
z
M 4800 1356 
Q 4666 1766 4422 2156 
L 4763 2309 
Q 5003 1953 5172 1556 
L 4800 1356 
z
M 5881 4984 
L 5881 -450 
L 5459 -450 
L 5459 -91 
L 2719 -91 
L 2719 -450 
L 2297 -450 
L 2297 4984 
L 5881 4984 
z
M 2719 4588 
L 2719 300 
L 5459 300 
L 5459 4588 
L 2719 4588 
z
" transform="scale(0.015625)"/>
     </defs>
     <use xlink:href="#IPAexGothic-30b0"/>
     <use xlink:href="#IPAexGothic-30eb" x="100"/>
     <use xlink:href="#IPAexGothic-30fc" x="200"/>
     <use xlink:href="#IPAexGothic-30d7" x="300"/>
     <use xlink:href="#IPAexGothic-3054" x="400"/>
     <use xlink:href="#IPAexGothic-3068" x="500"/>
     <use xlink:href="#IPAexGothic-306e" x="600"/>
     <use xlink:href="#IPAexGothic-50be" x="700"/>
     <use xlink:href="#IPAexGothic-5411" x="800"/>
     <use xlink:href="#IPAexGothic-3092" x="900"/>
     <use xlink:href="#IPAexGothic-63b4" x="1000"/>
     <use xlink:href="#IPAexGothic-3080" x="1100"/>
    </g>
   </g>
   <g id="text_21">
    <!-- ➡️ 次は Ch.2 データ可視化・EDA：集計で見えた数値を「グラフ」で直感的に理解します -->
    <g style="fill: #1a5276" transform="translate(41.04 309.220986) scale(0.13 -0.13)">
     <defs>
      <path id="IPAexGothic-27a1" d="M 5759 -641 
L 641 -641 
L 641 5503 
L 5759 5503 
L 5759 -641 
z
M 5216 5172 
L 1191 5172 
L 3206 2694 
L 5216 5172 
z
M 5428 -53 
L 5428 4903 
L 3419 2425 
L 5428 -53 
z
M 2988 2425 
L 972 4916 
L 972 -59 
L 2988 2425 
z
M 5209 -309 
L 3206 2163 
L 1197 -309 
L 5209 -309 
z
" transform="scale(0.015625)"/>
      <path id="IPAexGothic-fe0f" d="M 5759 -641 
L 641 -641 
L 641 5503 
L 5759 5503 
L 5759 -641 
z
M 5216 5172 
L 1191 5172 
L 3206 2694 
L 5216 5172 
z
M 5428 -53 
L 5428 4903 
L 3419 2425 
L 5428 -53 
z
M 2988 2425 
L 972 4916 
L 972 -59 
L 2988 2425 
z
M 5209 -309 
L 3206 2163 
L 1197 -309 
L 5209 -309 
z
" transform="scale(0.015625)"/>
      <path id="IPAexGothic-32" d="M 3659 63 
L 447 63 
L 447 594 
Q 825 1475 1894 2203 
L 2072 2322 
Q 2619 2697 2791 2906 
Q 2988 3153 2988 3444 
Q 2988 3772 2756 4003 
Q 2500 4259 2084 4259 
Q 1250 4259 991 3328 
L 497 3506 
Q 853 4725 2116 4725 
Q 2806 4725 3216 4316 
Q 3575 3947 3575 3425 
Q 3575 3038 3344 2722 
Q 3131 2416 2366 1938 
L 2231 1856 
Q 1256 1253 978 569 
L 3659 569 
L 3659 63 
z
" transform="scale(0.015625)"/>
      <path id="IPAexGothic-53ef" d="M 5100 4313 
L 5100 288 
Q 5100 -63 4913 -200 
Q 4756 -322 4313 -322 
Q 3859 -322 3313 -263 
L 3231 263 
Q 3869 178 4294 178 
Q 4525 178 4575 275 
Q 4613 341 4613 497 
L 4613 4313 
L 416 4313 
L 416 4728 
L 5972 4728 
L 5972 4313 
L 5100 4313 
z
M 3666 3406 
L 3666 1259 
L 1713 1259 
L 1713 741 
L 1259 741 
L 1259 3406 
L 3666 3406 
z
M 1713 3003 
L 1713 1669 
L 3213 1669 
L 3213 3003 
L 1713 3003 
z
" transform="scale(0.015625)"/>
      <path id="IPAexGothic-8996" d="M 2953 1631 
L 2953 5050 
L 5622 5050 
L 5622 1631 
L 4916 1631 
L 4916 300 
Q 4916 138 5000 100 
Q 5050 75 5219 75 
Q 5584 75 5641 275 
Q 5678 419 5697 1003 
L 6116 825 
Q 6075 75 5981 -97 
Q 5875 -297 5622 -334 
Q 5478 -353 5159 -353 
Q 4797 -353 4659 -288 
Q 4488 -203 4488 91 
L 4488 1631 
L 4028 1631 
Q 3978 841 3675 378 
Q 3353 -119 2625 -453 
L 2319 -91 
Q 3003 175 3303 634 
Q 3547 1013 3603 1631 
L 2953 1631 
z
M 3375 2016 
L 5206 2016 
L 5206 2669 
L 3375 2669 
L 3375 2016 
z
M 3375 3041 
L 5206 3041 
L 5206 3666 
L 3375 3666 
L 3375 3041 
z
M 3375 4038 
L 5206 4038 
L 5206 4666 
L 3375 4666 
L 3375 4038 
z
M 1766 2547 
Q 2294 2244 2834 1797 
L 2541 1381 
Q 2181 1728 1791 2041 
L 1766 2059 
L 1766 -456 
L 1313 -456 
L 1313 2047 
Q 894 1559 463 1216 
L 206 1619 
Q 1319 2453 1981 3775 
L 391 3775 
L 391 4197 
L 1250 4197 
L 1250 5309 
L 1703 5309 
L 1703 4197 
L 2303 4197 
L 2541 3978 
Q 2234 3259 1766 2622 
L 1766 2547 
z
" transform="scale(0.015625)"/>
      <path id="IPAexGothic-5316" d="M 1831 3700 
L 1831 -341 
L 1356 -341 
L 1356 2772 
Q 1069 2275 678 1772 
L 378 2138 
Q 1319 3278 1856 5166 
L 2319 5013 
Q 2100 4319 1831 3700 
z
M 3425 2906 
Q 4528 3350 5306 3969 
L 5703 3616 
Q 4728 2919 3425 2444 
L 3425 575 
Q 3425 353 3584 306 
Q 3738 263 4334 263 
Q 5072 263 5250 347 
Q 5384 403 5422 594 
Q 5475 872 5506 1497 
L 5978 1331 
Q 5931 319 5775 106 
Q 5641 -75 5331 -141 
Q 5041 -206 4244 -206 
Q 3438 -206 3181 -78 
Q 2931 47 2931 384 
L 2931 5113 
L 3425 5113 
L 3425 2906 
z
" transform="scale(0.015625)"/>
      <path id="IPAexGothic-45" d="M 3547 63 
L 609 63 
L 609 4634 
L 3469 4634 
L 3469 4147 
L 1166 4147 
L 1166 2650 
L 3206 2650 
L 3206 2191 
L 1166 2191 
L 1166 556 
L 3547 556 
L 3547 63 
z
" transform="scale(0.015625)"/>
      <path id="IPAexGothic-44" d="M 609 4634 
L 1984 4634 
Q 3159 4634 3791 4050 
Q 4456 3444 4456 2356 
Q 4456 1047 3516 441 
Q 2925 63 1941 63 
L 609 63 
L 609 4634 
z
M 1172 556 
L 1894 556 
Q 3853 556 3853 2356 
Q 3853 4147 1928 4147 
L 1172 4147 
L 1172 556 
z
" transform="scale(0.015625)"/>
      <path id="IPAexGothic-41" d="M 4056 63 
L 3444 63 
L 2938 1409 
L 1100 1409 
L 603 63 
L -6 63 
L 1806 4666 
L 2259 4666 
L 4056 63 
z
M 2778 1863 
L 2316 3078 
Q 2125 3588 2028 4000 
L 2009 4000 
Q 1897 3563 1716 3078 
L 1263 1863 
L 2778 1863 
z
" transform="scale(0.015625)"/>
      <path id="IPAexGothic-ff1a" d="M 2822 3366 
L 3578 3366 
L 3578 2609 
L 2822 2609 
L 2822 3366 
z
M 2822 1081 
L 3578 1081 
L 3578 325 
L 2822 325 
L 2822 1081 
z
" transform="scale(0.015625)"/>
      <path id="IPAexGothic-3067" d="M 581 4034 
Q 2978 4363 5466 4556 
L 5509 4097 
Q 4388 4031 3750 3572 
Q 2797 2878 2797 1913 
Q 2797 1169 3291 819 
Q 3778 484 4869 416 
L 4906 -116 
Q 2278 0 2278 1850 
Q 2278 3125 3691 4000 
Q 2066 3784 684 3553 
L 581 4034 
z
M 5631 2522 
Q 5269 3063 4875 3391 
L 5175 3622 
Q 5559 3313 5950 2797 
L 5631 2522 
z
M 5034 2053 
Q 4747 2544 4300 2944 
L 4613 3184 
Q 4984 2878 5369 2328 
L 5034 2053 
z
" transform="scale(0.015625)"/>
      <path id="IPAexGothic-898b" d="M 4053 1631 
L 4053 403 
Q 4053 194 4159 144 
Q 4259 100 4594 100 
Q 5206 100 5303 272 
Q 5369 394 5406 1031 
L 5413 1138 
L 5881 966 
Q 5831 75 5656 -128 
Q 5475 -341 4566 -341 
Q 4041 -341 3859 -269 
Q 3584 -166 3584 184 
L 3584 1631 
L 2719 1631 
Q 2663 631 2219 197 
Q 1744 -256 756 -469 
L 513 -38 
Q 1500 134 1888 513 
Q 2216 831 2247 1631 
L 1288 1631 
L 1288 5050 
L 5106 5050 
L 5106 1631 
L 4053 1631 
z
M 1747 4653 
L 1747 4044 
L 4638 4044 
L 4638 4653 
L 1747 4653 
z
M 1747 3653 
L 1747 3047 
L 4638 3047 
L 4638 3653 
L 1747 3653 
z
M 1747 2663 
L 1747 2028 
L 4638 2028 
L 4638 2663 
L 1747 2663 
z
" transform="scale(0.015625)"/>
      <path id="IPAexGothic-3048" d="M 3797 4038 
Q 3144 4428 2013 4709 
L 2266 5106 
Q 3388 4838 4078 4469 
L 3797 4038 
z
M 1263 3347 
Q 2566 3428 3956 3641 
L 4291 3263 
Q 3759 2741 2875 1778 
Q 3156 1881 3356 1881 
Q 3909 1881 3919 1253 
L 3931 709 
Q 3941 456 4116 409 
Q 4244 372 4519 372 
Q 4944 372 5538 481 
L 5581 -31 
Q 5097 -103 4675 -103 
Q 4047 -103 3791 25 
Q 3484 178 3463 594 
L 3444 1094 
Q 3434 1491 3150 1491 
Q 2800 1491 2322 1072 
Q 1950 747 1109 -184 
L 738 166 
Q 2053 1434 3597 3181 
Q 2600 2988 1391 2841 
L 1263 3347 
z
" transform="scale(0.015625)"/>
      <path id="IPAexGothic-305f" d="M 684 3994 
Q 1138 3953 1556 3953 
Q 1797 3953 2106 3975 
Q 2266 4594 2369 5113 
L 2875 5025 
Q 2806 4731 2619 4013 
Q 3209 4084 3656 4191 
L 3688 3719 
Q 3109 3613 2497 3566 
Q 1822 1294 1153 -44 
L 653 172 
Q 1406 1500 1991 3531 
Q 1634 3513 1256 3513 
Q 1106 3513 697 3525 
L 684 3994 
z
M 5753 78 
Q 5059 -13 4597 -13 
Q 3619 -13 3206 334 
Q 2866 625 2766 1222 
L 3213 1388 
Q 3247 1069 3347 903 
Q 3425 775 3578 672 
Q 3866 481 4556 481 
Q 5009 481 5728 575 
L 5753 78 
z
M 3144 2859 
Q 4216 3147 5409 3072 
L 5381 2597 
L 5356 2597 
Q 4263 2663 3194 2419 
L 3144 2859 
z
" transform="scale(0.015625)"/>
      <path id="IPAexGothic-6570" d="M 2847 1553 
Q 2741 1006 2425 534 
Q 2625 441 3091 203 
L 2809 -188 
Q 2541 0 2144 209 
Q 1569 -291 703 -500 
L 422 -125 
Q 1263 19 1747 406 
Q 1222 650 734 816 
Q 975 1172 1147 1503 
L 1172 1553 
L 359 1553 
L 359 1925 
L 1344 1925 
Q 1406 2066 1569 2475 
L 1691 2450 
L 1691 3372 
Q 1250 2738 550 2303 
L 275 2663 
Q 1019 3013 1528 3641 
L 378 3641 
L 378 4006 
L 1691 4006 
L 1691 5313 
L 2113 5313 
L 2113 4006 
L 3297 4006 
L 3297 3641 
L 2113 3641 
L 2113 3513 
Q 2659 3291 3175 2963 
L 2956 2584 
Q 2553 2922 2113 3159 
L 2113 2372 
L 1966 2372 
Q 1928 2288 1872 2141 
Q 1806 1975 1784 1925 
L 3378 1925 
L 3378 1553 
L 2847 1553 
z
M 2419 1553 
L 1613 1553 
Q 1478 1269 1313 997 
Q 1559 909 2047 703 
Q 2313 1047 2419 1553 
z
M 4363 1163 
Q 3953 1781 3738 2638 
Q 3575 2281 3428 2016 
L 3103 2406 
Q 3675 3444 3916 5291 
L 4363 5200 
Q 4284 4666 4197 4197 
L 6009 4197 
L 6009 3775 
L 5503 3775 
Q 5397 2275 4869 1191 
Q 5419 503 6144 75 
L 5822 -378 
Q 5188 106 4631 788 
Q 4113 34 3341 -463 
L 3031 -78 
Q 3888 406 4363 1163 
z
M 4588 1594 
Q 4938 2388 5059 3775 
L 4100 3775 
Q 4041 3519 3972 3288 
Q 3981 3250 3991 3194 
Q 4175 2256 4588 1594 
z
M 1003 4116 
Q 878 4544 638 4934 
L 1053 5094 
Q 1247 4788 1438 4269 
L 1003 4116 
z
M 2316 4269 
Q 2550 4688 2688 5131 
L 3128 4997 
Q 2966 4588 2675 4128 
L 2316 4269 
z
" transform="scale(0.015625)"/>
      <path id="IPAexGothic-300c" d="M 4134 5300 
L 5875 5300 
L 5875 4853 
L 4581 4853 
L 4581 656 
L 4134 656 
L 4134 5300 
z
" transform="scale(0.015625)"/>
      <path id="IPAexGothic-30e9" d="M 1447 4709 
L 4922 4709 
L 4922 4234 
L 1447 4234 
L 1447 4709 
z
M 897 3303 
L 5172 3303 
L 5478 3013 
Q 5069 1669 4219 875 
Q 3475 181 2306 -181 
L 1972 294 
Q 4150 784 4834 2828 
L 897 2828 
L 897 3303 
z
" transform="scale(0.015625)"/>
      <path id="IPAexGothic-300d" d="M 1819 4209 
L 2266 4209 
L 2266 -434 
L 525 -434 
L 525 13 
L 1819 13 
L 1819 4209 
z
" transform="scale(0.015625)"/>
      <path id="IPAexGothic-76f4" d="M 3297 3688 
L 5222 3688 
L 5222 684 
L 1984 684 
L 1984 3688 
L 2847 3688 
Q 2859 3741 2913 4044 
L 2931 4153 
L 647 4153 
L 647 4538 
L 2994 4538 
L 3009 4609 
Q 3056 4944 3103 5338 
L 3584 5288 
Q 3556 5047 3469 4538 
L 5881 4538 
L 5881 4153 
L 3400 4153 
Q 3328 3819 3297 3688 
z
M 4781 3316 
L 2425 3316 
L 2425 2809 
L 4781 2809 
L 4781 3316 
z
M 2425 2450 
L 2425 1953 
L 4781 1953 
L 4781 2450 
L 2425 2450 
z
M 2425 1594 
L 2425 1056 
L 4781 1056 
L 4781 1594 
L 2425 1594 
z
M 1331 244 
L 6081 244 
L 6081 -153 
L 1331 -153 
L 1331 -447 
L 878 -447 
L 878 3213 
L 1331 3213 
L 1331 244 
z
" transform="scale(0.015625)"/>
      <path id="IPAexGothic-611f" d="M 3575 4525 
Q 3519 4872 3478 5313 
L 3928 5313 
Q 3959 4891 4009 4538 
L 4869 4538 
Q 4697 4850 4453 5106 
L 4803 5294 
Q 5081 5025 5266 4703 
L 4956 4538 
L 5931 4538 
L 5931 4166 
L 4075 4166 
Q 4216 3400 4528 2872 
Q 4794 3322 5003 3934 
L 5394 3750 
Q 5153 3072 4784 2491 
Q 4809 2450 4828 2425 
Q 5203 1944 5394 1944 
Q 5534 1944 5609 2766 
L 6013 2481 
Q 5841 1400 5534 1400 
Q 5166 1400 4516 2119 
Q 4141 1647 3672 1294 
L 3350 1613 
Q 3850 1941 4253 2463 
Q 3859 3078 3641 4153 
L 1297 4153 
L 1297 3494 
Q 1297 2631 1169 2100 
Q 1056 1622 747 1209 
L 409 1547 
Q 744 1978 813 2631 
Q 844 2972 844 3403 
L 844 4525 
L 3575 4525 
z
M 3372 3097 
L 3372 1884 
L 2034 1884 
L 2034 1597 
L 1638 1597 
L 1638 3097 
L 3372 3097 
z
M 2034 2772 
L 2034 2209 
L 2975 2209 
L 2975 2772 
L 2034 2772 
z
M 1509 3775 
L 3525 3775 
L 3525 3428 
L 1509 3428 
L 1509 3775 
z
M 409 -25 
Q 909 466 1159 1131 
L 1581 991 
Q 1297 188 794 -347 
L 409 -25 
z
M 2009 1281 
L 2478 1281 
L 2478 359 
Q 2478 156 2606 106 
Q 2741 63 3334 63 
Q 4156 63 4278 172 
Q 4369 266 4378 738 
L 4822 603 
Q 4813 -38 4622 -200 
Q 4434 -359 3303 -359 
Q 2431 -359 2241 -269 
Q 2009 -163 2009 147 
L 2009 1281 
z
M 5734 -147 
Q 5250 569 4684 1056 
L 5044 1306 
Q 5650 813 6138 159 
L 5734 -147 
z
M 3444 481 
Q 3131 913 2713 1294 
L 3059 1563 
Q 3513 1188 3822 781 
L 3444 481 
z
" transform="scale(0.015625)"/>
      <path id="IPAexGothic-7684" d="M 5925 4141 
Q 5859 888 5656 91 
Q 5581 -219 5350 -325 
Q 5178 -397 4856 -397 
Q 4428 -397 4044 -353 
L 3953 134 
Q 4444 56 4838 56 
Q 5128 56 5203 234 
Q 5400 706 5459 3438 
L 5466 3719 
L 3838 3719 
Q 3550 3031 3116 2503 
L 2809 2856 
Q 3469 3659 3788 5172 
L 4250 5050 
Q 4144 4559 4000 4141 
L 5925 4141 
z
M 1316 4244 
L 1394 4475 
Q 1500 4806 1566 5209 
L 2053 5141 
Q 1872 4525 1753 4244 
L 2756 4244 
L 2756 366 
L 1022 366 
L 1022 -91 
L 581 -91 
L 581 4244 
L 1316 4244 
z
M 1022 3847 
L 1022 2553 
L 2316 2553 
L 2316 3847 
L 1022 3847 
z
M 1022 2169 
L 1022 763 
L 2316 763 
L 2316 2169 
L 1022 2169 
z
M 4384 1288 
Q 3975 2069 3531 2578 
L 3859 2834 
Q 4375 2259 4753 1569 
L 4384 1288 
z
" transform="scale(0.015625)"/>
      <path id="IPAexGothic-7406" d="M 1541 4397 
L 1541 3084 
L 2219 3084 
L 2219 2688 
L 1541 2688 
L 1541 1247 
Q 1919 1356 2397 1522 
L 2431 1144 
Q 1353 713 434 472 
L 263 909 
Q 763 1025 1113 1119 
L 1113 2688 
L 441 2688 
L 441 3084 
L 1113 3084 
L 1113 4397 
L 369 4397 
L 369 4800 
L 2347 4800 
L 2347 4397 
L 1541 4397 
z
M 5691 4991 
L 5691 2106 
L 4378 2106 
L 4378 1375 
L 5825 1375 
L 5825 984 
L 4378 984 
L 4378 206 
L 6081 206 
L 6081 -191 
L 2150 -191 
L 2150 206 
L 3944 206 
L 3944 984 
L 2559 984 
L 2559 1375 
L 3944 1375 
L 3944 2106 
L 2675 2106 
L 2675 4991 
L 5691 4991 
z
M 3091 4606 
L 3091 3750 
L 3956 3750 
L 3956 4606 
L 3091 4606 
z
M 3091 3378 
L 3091 2491 
L 3956 2491 
L 3956 3378 
L 3091 3378 
z
M 5275 2491 
L 5275 3378 
L 4366 3378 
L 4366 2491 
L 5275 2491 
z
M 5275 3750 
L 5275 4606 
L 4366 4606 
L 4366 3750 
L 5275 3750 
z
" transform="scale(0.015625)"/>
      <path id="IPAexGothic-89e3" d="M 4538 2222 
L 4538 2906 
L 4953 2906 
L 4953 2222 
L 5850 2222 
L 5850 1850 
L 4953 1850 
L 4953 1159 
L 6072 1159 
L 6072 775 
L 4953 775 
L 4953 -447 
L 4538 -447 
L 4538 775 
L 3303 775 
L 3303 1159 
L 4538 1159 
L 4538 1850 
L 3897 1850 
Q 3781 1528 3622 1269 
L 3303 1544 
Q 3600 2072 3706 2734 
L 4103 2663 
Q 4053 2416 4006 2222 
L 4538 2222 
z
M 2394 3803 
L 3141 3803 
L 3141 63 
Q 3141 -213 3006 -306 
Q 2900 -384 2622 -384 
Q 2250 -384 1919 -341 
L 1853 103 
Q 2278 31 2547 31 
Q 2744 31 2744 213 
L 2744 1319 
L 1241 1319 
Q 1191 303 722 -513 
L 394 -178 
Q 863 566 863 1869 
L 863 3181 
Q 738 3000 516 2741 
L 281 3094 
Q 1106 4053 1363 5319 
L 1797 5238 
Q 1747 5044 1719 4959 
L 1700 4891 
L 2653 4891 
L 2853 4684 
Q 2653 4238 2394 3803 
z
M 1809 3450 
L 1259 3450 
L 1259 2747 
L 1809 2747 
L 1809 3450 
z
M 2175 3450 
L 2175 2747 
L 2744 2747 
L 2744 3450 
L 2175 3450 
z
M 1809 2406 
L 1259 2406 
L 1259 1672 
L 1809 1672 
L 1809 2406 
z
M 2175 2406 
L 2175 1672 
L 2744 1672 
L 2744 2406 
L 2175 2406 
z
M 1969 3803 
Q 2172 4141 2322 4531 
L 1572 4531 
Q 1409 4100 1247 3803 
L 1969 3803 
z
M 4622 4594 
Q 4534 3469 3597 2897 
L 3297 3225 
Q 4088 3625 4191 4594 
L 3316 4594 
L 3316 4978 
L 5844 4978 
Q 5813 3791 5734 3422 
Q 5688 3194 5556 3103 
Q 5444 3031 5184 3031 
Q 4863 3031 4556 3078 
L 4500 3475 
Q 4819 3422 5044 3422 
Q 5266 3422 5313 3600 
Q 5372 3831 5400 4594 
L 4622 4594 
z
" transform="scale(0.015625)"/>
     </defs>
     <use xlink:href="#IPAexGothic-27a1"/>
     <use xlink:href="#IPAexGothic-fe0f" x="100"/>
     <use xlink:href="#IPAexGothic-20" x="200"/>
     <use xlink:href="#IPAexGothic-6b21" x="227.001953"/>
     <use xlink:href="#IPAexGothic-306f" x="327.001953"/>
     <use xlink:href="#IPAexGothic-20" x="427.001953"/>
     <use xlink:href="#IPAexGothic-43" x="454.003906"/>
     <use xlink:href="#IPAexGothic-68" x="526.513672"/>
     <use xlink:href="#IPAexGothic-2e" x="587.207031"/>
     <use xlink:href="#IPAexGothic-32" x="613.623047"/>
     <use xlink:href="#IPAexGothic-20" x="676.611328"/>
     <use xlink:href="#IPAexGothic-30c7" x="703.613281"/>
     <use xlink:href="#IPAexGothic-30fc" x="803.613281"/>
     <use xlink:href="#IPAexGothic-30bf" x="903.613281"/>
     <use xlink:href="#IPAexGothic-53ef" x="1003.613281"/>
     <use xlink:href="#IPAexGothic-8996" x="1103.613281"/>
     <use xlink:href="#IPAexGothic-5316" x="1203.613281"/>
     <use xlink:href="#IPAexGothic-30fb" x="1303.613281"/>
     <use xlink:href="#IPAexGothic-45" x="1403.613281"/>
     <use xlink:href="#IPAexGothic-44" x="1463.134766"/>
     <use xlink:href="#IPAexGothic-41" x="1538.818359"/>
     <use xlink:href="#IPAexGothic-ff1a" x="1602.539062"/>
     <use xlink:href="#IPAexGothic-96c6" x="1702.539062"/>
     <use xlink:href="#IPAexGothic-8a08" x="1802.539062"/>
     <use xlink:href="#IPAexGothic-3067" x="1902.539062"/>
     <use xlink:href="#IPAexGothic-898b" x="2002.539062"/>
     <use xlink:href="#IPAexGothic-3048" x="2102.539062"/>
     <use xlink:href="#IPAexGothic-305f" x="2202.539062"/>
     <use xlink:href="#IPAexGothic-6570" x="2302.539062"/>
     <use xlink:href="#IPAexGothic-5024" x="2402.539062"/>
     <use xlink:href="#IPAexGothic-3092" x="2502.539062"/>
     <use xlink:href="#IPAexGothic-300c" x="2602.539062"/>
     <use xlink:href="#IPAexGothic-30b0" x="2702.539062"/>
     <use xlink:href="#IPAexGothic-30e9" x="2802.539062"/>
     <use xlink:href="#IPAexGothic-30d5" x="2902.539062"/>
     <use xlink:href="#IPAexGothic-300d" x="3002.539062"/>
     <use xlink:href="#IPAexGothic-3067" x="3102.539062"/>
     <use xlink:href="#IPAexGothic-76f4" x="3202.539062"/>
     <use xlink:href="#IPAexGothic-611f" x="3302.539062"/>
     <use xlink:href="#IPAexGothic-7684" x="3402.539062"/>
     <use xlink:href="#IPAexGothic-306b" x="3502.539062"/>
     <use xlink:href="#IPAexGothic-7406" x="3602.539062"/>
     <use xlink:href="#IPAexGothic-89e3" x="3702.539062"/>
     <use xlink:href="#IPAexGothic-3057" x="3802.539062"/>
     <use xlink:href="#IPAexGothic-307e" x="3902.539062"/>
     <use xlink:href="#IPAexGothic-3059" x="4002.539062"/>
    </g>
   </g>
  </g>
 </g>
 <defs>
  <clipPath id="p966b347781">
   <rect x="0" y="-0" width="691.2" height="388.8"/>
  </clipPath>
 </defs>
</svg>
