<?xml version="1.0" encoding="utf-8" standalone="no"?>
<!DOCTYPE svg PUBLIC "-//W3C//DTD SVG 1.1//EN"
  "http://www.w3.org/Graphics/SVG/1.1/DTD/svg11.dtd">
<svg xmlns:xlink="http://www.w3.org/1999/xlink" width="691.2pt" height="388.8pt" viewBox="0 0 691.2 388.8" xmlns="http://www.w3.org/2000/svg" version="1.1">
 <metadata>
  <rdf:RDF xmlns:dc="http://purl.org/dc/elements/1.1/" xmlns:cc="http://creativecommons.org/ns#" xmlns:rdf="http://www.w3.org/1999/02/22-rdf-syntax-ns#">
   <cc:Work>
    <dc:type rdf:resource="http://purl.org/dc/dcmitype/StillImage"/>
    <dc:date>2026-04-09T02:37:45.427842</dc:date>
    <dc:format>image/svg+xml</dc:format>
    <dc:creator>
     <cc:Agent>
      <dc:title>Matplotlib v3.9.4, https://matplotlib.org/</dc:title>
     </cc:Agent>
    </dc:creator>
   </cc:Work>
  </rdf:RDF>
 </metadata>
 <defs>
  <style type="text/css">*{stroke-linejoin: round; stroke-linecap: butt}</style>
 </defs>
 <g id="figure_1">
  <g id="patch_1">
   <path d="M 0 388.8 
L 691.2 388.8 
L 691.2 0 
L 0 0 
z
" style="fill: #ffffff"/>
  </g>
  <g id="axes_1">
   <g id="patch_2">
    <path d="M 0 -0 
L 691.2 -0 
L 691.2 24.48 
L 0 24.48 
z
" clip-path="url(#pe352cd33c5)" style="fill: #4a90d9"/>
   </g>
   <g id="patch_3">
    <path d="M 31.68 59.04 
L 659.52 59.04 
L 659.52 60.48 
L 31.68 60.48 
z
" clip-path="url(#pe352cd33c5)" style="fill: #ecf0f1"/>
   </g>
   <g id="patch_4">
    <path d="M 31.68 72 
L 175.68 72 
L 175.68 100.8 
L 31.68 100.8 
z
" clip-path="url(#pe352cd33c5)" style="fill: #4a90d9; stroke: #ffffff; stroke-linejoin: miter"/>
   </g>
   <g id="patch_5">
    <path d="M 175.68 72 
L 334.08 72 
L 334.08 100.8 
L 175.68 100.8 
z
" clip-path="url(#pe352cd33c5)" style="fill: #4a90d9; stroke: #ffffff; stroke-linejoin: miter"/>
   </g>
   <g id="patch_6">
    <path d="M 334.08 72 
L 659.52 72 
L 659.52 100.8 
L 334.08 100.8 
z
" clip-path="url(#pe352cd33c5)" style="fill: #4a90d9; stroke: #ffffff; stroke-linejoin: miter"/>
   </g>
   <g id="patch_7">
    <path d="M 31.68 100.8 
L 175.68 100.8 
L 175.68 129.6 
L 31.68 129.6 
z
" clip-path="url(#pe352cd33c5)" style="fill: #ffffff; stroke: #ecf0f1; stroke-width: 0.5; stroke-linejoin: miter"/>
   </g>
   <g id="patch_8">
    <path d="M 175.68 100.8 
L 334.08 100.8 
L 334.08 129.6 
L 175.68 129.6 
z
" clip-path="url(#pe352cd33c5)" style="fill: #ffffff; stroke: #ecf0f1; stroke-width: 0.5; stroke-linejoin: miter"/>
   </g>
   <g id="patch_9">
    <path d="M 334.08 100.8 
L 659.52 100.8 
L 659.52 129.6 
L 334.08 129.6 
z
" clip-path="url(#pe352cd33c5)" style="fill: #ffffff; stroke: #ecf0f1; stroke-width: 0.5; stroke-linejoin: miter"/>
   </g>
   <g id="patch_10">
    <path d="M 31.68 129.6 
L 175.68 129.6 
L 175.68 158.4 
L 31.68 158.4 
z
" clip-path="url(#pe352cd33c5)" style="fill: #f8f9fa; stroke: #ecf0f1; stroke-width: 0.5; stroke-linejoin: miter"/>
   </g>
   <g id="patch_11">
    <path d="M 175.68 129.6 
L 334.08 129.6 
L 334.08 158.4 
L 175.68 158.4 
z
" clip-path="url(#pe352cd33c5)" style="fill: #f8f9fa; stroke: #ecf0f1; stroke-width: 0.5; stroke-linejoin: miter"/>
   </g>
   <g id="patch_12">
    <path d="M 334.08 129.6 
L 659.52 129.6 
L 659.52 158.4 
L 334.08 158.4 
z
" clip-path="url(#pe352cd33c5)" style="fill: #f8f9fa; stroke: #ecf0f1; stroke-width: 0.5; stroke-linejoin: miter"/>
   </g>
   <g id="patch_13">
    <path d="M 31.68 158.4 
L 175.68 158.4 
L 175.68 187.2 
L 31.68 187.2 
z
" clip-path="url(#pe352cd33c5)" style="fill: #ffffff; stroke: #ecf0f1; stroke-width: 0.5; stroke-linejoin: miter"/>
   </g>
   <g id="patch_14">
    <path d="M 175.68 158.4 
L 334.08 158.4 
L 334.08 187.2 
L 175.68 187.2 
z
" clip-path="url(#pe352cd33c5)" style="fill: #ffffff; stroke: #ecf0f1; stroke-width: 0.5; stroke-linejoin: miter"/>
   </g>
   <g id="patch_15">
    <path d="M 334.08 158.4 
L 659.52 158.4 
L 659.52 187.2 
L 334.08 187.2 
z
" clip-path="url(#pe352cd33c5)" style="fill: #ffffff; stroke: #ecf0f1; stroke-width: 0.5; stroke-linejoin: miter"/>
   </g>
   <g id="patch_16">
    <path d="M 31.68 184.32 
L 659.52 184.32 
Q 662.4 184.32 662.4 187.2 
L 662.4 288 
Q 662.4 290.88 659.52 290.88 
L 31.68 290.88 
Q 28.8 290.88 28.8 288 
L 28.8 187.2 
Q 28.8 184.32 31.68 184.32 
z
" clip-path="url(#pe352cd33c5)" style="fill: #1e1e2e; stroke: #555555; stroke-linejoin: miter"/>
   </g>
   <g id="text_1">
    <!-- Ch.1 データ読み込み・集計 -->
    <g style="fill: #ffffff" transform="translate(31.68 15.061875) scale(0.1 -0.1)">
     <defs>
      <path id="IPAexGothic-43" d="M 4353 1088 
Q 4181 694 3859 428 
Q 3313 -31 2559 -31 
Q 1588 -31 959 653 
Q 378 1294 378 2331 
Q 378 3406 1013 4078 
Q 1619 4725 2534 4725 
Q 3813 4725 4322 3628 
L 3809 3391 
Q 3425 4238 2541 4238 
Q 1891 4238 1453 3744 
Q 994 3216 994 2322 
Q 994 1550 1384 1056 
Q 1841 472 2563 472 
Q 3456 472 3878 1319 
L 4353 1088 
z
" transform="scale(0.015625)"/>
      <path id="IPAexGothic-68" d="M 3347 63 
L 2797 63 
L 2797 2041 
Q 2797 2853 2131 2853 
Q 1447 2853 1131 2041 
L 1131 63 
L 581 63 
L 581 4794 
L 1131 4794 
L 1131 2706 
Q 1566 3316 2247 3316 
Q 3347 3316 3347 2072 
L 3347 63 
z
" transform="scale(0.015625)"/>
      <path id="IPAexGothic-2e" d="M 1184 63 
L 494 63 
L 494 753 
L 1184 753 
L 1184 63 
z
" transform="scale(0.015625)"/>
      <path id="IPAexGothic-31" d="M 2463 63 
L 1900 63 
L 1900 4103 
Q 1372 3922 788 3797 
L 684 4231 
Q 1519 4441 2106 4731 
L 2463 4731 
L 2463 63 
z
" transform="scale(0.015625)"/>
      <path id="IPAexGothic-20" transform="scale(0.015625)"/>
      <path id="IPAexGothic-30c7" d="M 563 3072 
L 5741 3072 
L 5741 2613 
L 3578 2613 
Q 3538 1516 3134 872 
Q 2688 156 1663 -256 
L 1313 156 
Q 2338 538 2713 1166 
Q 3003 1644 3034 2613 
L 563 2613 
L 563 3072 
z
M 1406 4588 
L 4588 4588 
L 4588 4128 
L 1406 4128 
L 1406 4588 
z
M 6009 4469 
Q 5647 5009 5253 5338 
L 5553 5569 
Q 5938 5259 6328 4744 
L 6009 4469 
z
M 5413 4000 
Q 5125 4491 4678 4891 
L 4991 5131 
Q 5363 4825 5747 4275 
L 5413 4000 
z
" transform="scale(0.015625)"/>
      <path id="IPAexGothic-30fc" d="M 588 2688 
L 5809 2688 
L 5809 2175 
L 588 2175 
L 588 2688 
z
" transform="scale(0.015625)"/>
      <path id="IPAexGothic-30bf" d="M 4978 4263 
L 5313 3988 
Q 4797 2431 4056 1459 
Q 3191 325 1822 -300 
L 1466 109 
Q 2131 381 2613 738 
Q 3053 1066 3531 1600 
Q 2919 2225 2144 2791 
Q 1603 2203 1172 1875 
L 825 2234 
Q 2316 3328 2866 5031 
L 3359 4897 
Q 3325 4775 3109 4263 
L 4978 4263 
z
M 2894 3816 
Q 2709 3522 2438 3169 
Q 3194 2616 3841 2003 
Q 4366 2806 4747 3816 
L 2894 3816 
z
" transform="scale(0.015625)"/>
      <path id="IPAexGothic-8aad" d="M 2284 1684 
L 2284 -128 
L 919 -128 
L 919 -447 
L 509 -447 
L 509 1684 
L 2284 1684 
z
M 919 1313 
L 919 244 
L 1875 244 
L 1875 1313 
L 919 1313 
z
M 3953 4538 
L 3953 5313 
L 4394 5313 
L 4394 4538 
L 5994 4538 
L 5994 4153 
L 4394 4153 
L 4394 3572 
L 5822 3572 
L 5822 3194 
L 2653 3194 
L 2653 3572 
L 3953 3572 
L 3953 4153 
L 2506 4153 
L 2506 4538 
L 3953 4538 
z
M 5950 2725 
L 5950 1559 
L 5522 1559 
L 5522 2341 
L 2928 2341 
L 2928 1516 
L 2500 1516 
L 2500 2725 
L 5950 2725 
z
M 600 5044 
L 2194 5044 
L 2194 4659 
L 600 4659 
L 600 5044 
z
M 331 4206 
L 2384 4206 
L 2384 3816 
L 331 3816 
L 331 4206 
z
M 600 3359 
L 2194 3359 
L 2194 2975 
L 600 2975 
L 600 3359 
z
M 600 2522 
L 2194 2522 
L 2194 2138 
L 600 2138 
L 600 2522 
z
M 2353 -91 
Q 3025 194 3244 647 
Q 3431 1044 3441 2069 
L 3872 2069 
Q 3859 869 3634 441 
Q 3334 -109 2616 -475 
L 2353 -91 
z
M 4428 2069 
L 4856 2069 
L 4856 275 
Q 4856 128 4934 88 
Q 4994 63 5175 63 
Q 5500 63 5547 263 
Q 5584 425 5606 984 
L 6034 856 
Q 5994 153 5931 -38 
Q 5825 -372 5144 -372 
Q 4688 -372 4544 -275 
Q 4428 -191 4428 44 
L 4428 2069 
z
" transform="scale(0.015625)"/>
      <path id="IPAexGothic-307f" d="M 1291 4416 
Q 2209 4456 3341 4647 
L 3666 4409 
Q 3478 3597 3134 2703 
Q 3959 2575 4581 2300 
Q 4669 2759 4678 3488 
L 5163 3381 
Q 5134 2672 5016 2106 
Q 5519 1856 6016 1519 
L 5722 1081 
Q 5184 1459 4888 1613 
Q 4572 441 3456 -238 
L 3072 109 
Q 4150 678 4472 1831 
Q 3706 2200 2969 2284 
Q 2038 200 1319 200 
Q 1013 200 775 525 
Q 569 819 569 1197 
Q 569 1756 1081 2172 
Q 1681 2647 2663 2716 
Q 2900 3313 3084 4159 
Q 2278 4022 1447 3956 
L 1291 4416 
z
M 2481 2291 
Q 1644 2206 1241 1734 
Q 1038 1494 1038 1178 
Q 1038 1019 1100 897 
Q 1188 706 1338 706 
Q 1513 706 1797 1097 
Q 2131 1534 2481 2291 
z
" transform="scale(0.015625)"/>
      <path id="IPAexGothic-8fbc" d="M 4294 4897 
L 4294 4456 
Q 4294 3291 4763 2394 
Q 5206 1531 5938 1019 
L 5613 572 
Q 4391 1628 4044 3156 
Q 3706 1475 2503 544 
L 2169 934 
Q 3650 1928 3834 4403 
L 3841 4481 
L 2566 4481 
L 2566 4897 
L 4294 4897 
z
M 1831 775 
Q 2106 428 2516 284 
Q 2906 150 4197 150 
Q 5228 150 6119 216 
Q 6003 13 5944 -269 
Q 5022 -303 4453 -303 
Q 2925 -303 2425 -131 
Q 1900 44 1600 478 
Q 1144 -56 666 -450 
L 372 38 
Q 825 309 1378 759 
L 1378 2303 
L 397 2303 
L 397 2731 
L 1831 2731 
L 1831 775 
z
M 1625 3616 
Q 1191 4200 634 4703 
L 972 4997 
Q 1456 4616 1984 3969 
L 1625 3616 
z
" transform="scale(0.015625)"/>
      <path id="IPAexGothic-30fb" d="M 2772 2859 
L 3628 2859 
L 3628 2003 
L 2772 2003 
L 2772 2859 
z
" transform="scale(0.015625)"/>
      <path id="IPAexGothic-96c6" d="M 3000 4634 
Q 3197 5047 3275 5338 
L 3775 5216 
Q 3634 4922 3447 4634 
L 5625 4634 
L 5625 4269 
L 3416 4269 
L 3416 3884 
L 5291 3884 
L 5291 3553 
L 3416 3553 
L 3416 3175 
L 5291 3175 
L 5291 2844 
L 3416 2844 
L 3416 2431 
L 5759 2431 
L 5759 2066 
L 3403 2066 
L 3403 1659 
L 5981 1659 
L 5981 1281 
L 3741 1281 
Q 4628 538 6078 141 
L 5759 -275 
Q 4266 222 3403 1122 
L 3403 -447 
L 2950 -447 
L 2950 1091 
Q 2094 69 600 -409 
L 294 -25 
Q 1778 388 2644 1281 
L 416 1281 
L 416 1659 
L 2950 1659 
L 2950 2066 
L 1222 2066 
L 1222 3744 
Q 894 3322 600 3066 
L 306 3375 
Q 1209 4163 1625 5338 
L 2091 5244 
Q 1950 4909 1797 4634 
L 3000 4634 
z
M 1663 4269 
L 1663 3884 
L 3000 3884 
L 3000 4269 
L 1663 4269 
z
M 1663 3553 
L 1663 3175 
L 3000 3175 
L 3000 3553 
L 1663 3553 
z
M 1663 2844 
L 1663 2431 
L 3000 2431 
L 3000 2844 
L 1663 2844 
z
" transform="scale(0.015625)"/>
      <path id="IPAexGothic-8a08" d="M 2853 1684 
L 2853 -416 
L 2413 -416 
L 2413 -128 
L 1088 -128 
L 1088 -447 
L 647 -447 
L 647 1684 
L 2853 1684 
z
M 1088 1300 
L 1088 256 
L 2413 256 
L 2413 1300 
L 1088 1300 
z
M 4322 3225 
L 4322 5178 
L 4781 5178 
L 4781 3225 
L 6063 3225 
L 6063 2797 
L 4781 2797 
L 4781 -447 
L 4322 -447 
L 4322 2797 
L 3063 2797 
L 3063 3225 
L 4322 3225 
z
M 781 5044 
L 2722 5044 
L 2722 4647 
L 781 4647 
L 781 5044 
z
M 384 4206 
L 3150 4206 
L 3150 3803 
L 384 3803 
L 384 4206 
z
M 781 3359 
L 2722 3359 
L 2722 2963 
L 781 2963 
L 781 3359 
z
M 781 2522 
L 2722 2522 
L 2722 2125 
L 781 2125 
L 781 2522 
z
" transform="scale(0.015625)"/>
     </defs>
     <use xlink:href="#IPAexGothic-43"/>
     <use xlink:href="#IPAexGothic-68" x="72.509766"/>
     <use xlink:href="#IPAexGothic-2e" x="133.203125"/>
     <use xlink:href="#IPAexGothic-31" x="159.619141"/>
     <use xlink:href="#IPAexGothic-20" x="222.607422"/>
     <use xlink:href="#IPAexGothic-30c7" x="249.609375"/>
     <use xlink:href="#IPAexGothic-30fc" x="349.609375"/>
     <use xlink:href="#IPAexGothic-30bf" x="449.609375"/>
     <use xlink:href="#IPAexGothic-8aad" x="549.609375"/>
     <use xlink:href="#IPAexGothic-307f" x="649.609375"/>
     <use xlink:href="#IPAexGothic-8fbc" x="749.609375"/>
     <use xlink:href="#IPAexGothic-307f" x="849.609375"/>
     <use xlink:href="#IPAexGothic-30fb" x="949.609375"/>
     <use xlink:href="#IPAexGothic-96c6" x="1049.609375"/>
     <use xlink:href="#IPAexGothic-8a08" x="1149.609375"/>
    </g>
   </g>
   <g id="text_2">
    <!-- データを手に入れたら：必ずこの3つを実行 -->
    <g style="fill: #1a1a2e" transform="translate(31.68 55.53375) scale(0.24 -0.24)">
     <defs>
      <path id="IPAexGothic-3092" d="M 1094 4263 
Q 1544 4222 2359 4222 
Q 2581 4734 2700 5163 
L 3175 5028 
Q 2997 4538 2859 4256 
Q 3516 4284 4294 4459 
L 4356 4019 
Q 3603 3869 2656 3819 
Q 2391 3284 2059 2797 
Q 2531 3200 2963 3200 
Q 3638 3200 3859 2378 
Q 4556 2681 5338 2950 
L 5575 2528 
Q 4641 2253 3941 1956 
Q 3981 1678 3994 1028 
L 3513 991 
Q 3513 1456 3494 1753 
Q 2388 1194 2388 716 
Q 2388 428 2753 328 
Q 3066 241 3806 241 
Q 4394 241 5178 344 
L 5216 -128 
Q 4434 -213 3653 -213 
Q 2656 -213 2244 41 
Q 1913 244 1913 631 
Q 1913 1094 2344 1497 
Q 2709 1841 3428 2181 
Q 3266 2797 2878 2797 
Q 2238 2797 1209 1419 
L 838 1694 
Q 1625 2716 2163 3800 
Q 1522 3800 1088 3825 
L 1094 4263 
z
" transform="scale(0.015625)"/>
      <path id="IPAexGothic-624b" d="M 3519 4303 
L 3519 3284 
L 5594 3284 
L 5594 2875 
L 3519 2875 
L 3519 1906 
L 6078 1906 
L 6078 1491 
L 3519 1491 
L 3519 191 
Q 3519 -322 2841 -322 
Q 2322 -322 1803 -263 
L 1719 238 
Q 2306 131 2775 131 
Q 3038 131 3038 372 
L 3038 1491 
L 313 1491 
L 313 1906 
L 3038 1906 
L 3038 2875 
L 797 2875 
L 797 3284 
L 3038 3284 
L 3038 4238 
Q 2056 4119 1047 4059 
L 850 4463 
Q 3213 4588 4869 5013 
L 5266 4616 
Q 4481 4441 3569 4309 
L 3519 4303 
z
" transform="scale(0.015625)"/>
      <path id="IPAexGothic-306b" d="M 1088 -38 
Q 922 1003 922 2081 
Q 922 3222 1331 4794 
L 1813 4684 
Q 1391 3113 1391 2003 
Q 1391 1441 1422 1147 
Q 1434 1181 1813 2016 
L 2125 1797 
Q 1800 1081 1691 763 
Q 1581 453 1581 269 
Q 1581 78 1588 6 
L 1088 -38 
z
M 2834 4038 
Q 3969 4213 5313 4172 
L 5338 3681 
Q 3959 3728 2869 3547 
L 2834 4038 
z
M 5650 256 
Q 5044 172 4372 172 
Q 3463 172 3047 434 
Q 2784 594 2675 841 
Q 2572 1075 2572 1447 
Q 2572 1563 2578 1656 
L 3053 1684 
Q 3050 1613 3044 1528 
Q 3041 1481 3041 1466 
Q 3041 1200 3119 1053 
Q 3178 944 3309 850 
Q 3569 678 4275 678 
Q 4891 678 5588 763 
L 5650 256 
z
" transform="scale(0.015625)"/>
      <path id="IPAexGothic-5165" d="M 3275 3078 
Q 2806 619 819 -334 
L 447 91 
Q 2934 1156 3000 4550 
L 1472 4550 
L 1472 4984 
L 3525 4984 
L 3525 4728 
Q 3525 3053 4116 2041 
Q 4734 972 6022 275 
L 5650 -200 
Q 3697 1044 3275 3078 
z
" transform="scale(0.015625)"/>
      <path id="IPAexGothic-308c" d="M 538 3694 
Q 1275 3791 1800 3903 
L 1838 5006 
L 2316 5006 
L 2253 4006 
L 2619 3675 
Q 2428 3425 2247 3144 
Q 2241 3084 2241 2869 
Q 3341 4031 4134 4031 
Q 4856 4031 4856 3309 
Q 4856 3047 4794 2491 
Q 4719 1747 4719 1044 
Q 4719 672 4922 672 
Q 5084 672 5263 788 
Q 5613 1034 5850 1491 
L 6131 1025 
Q 5856 641 5600 447 
Q 5238 166 4866 166 
Q 4244 166 4244 1100 
Q 4244 1519 4350 2956 
Q 4369 3181 4369 3238 
Q 4369 3434 4297 3513 
Q 4231 3584 4081 3584 
Q 3438 3584 2228 2291 
Q 2222 1931 2222 1478 
Q 2222 753 2241 -159 
L 1747 -159 
Q 1747 1241 1753 1734 
Q 1544 1466 928 647 
L 531 991 
Q 1603 2291 1772 2478 
Q 1772 3038 1791 3469 
Q 1128 3284 653 3194 
L 538 3694 
z
" transform="scale(0.015625)"/>
      <path id="IPAexGothic-305f" d="M 684 3994 
Q 1138 3953 1556 3953 
Q 1797 3953 2106 3975 
Q 2266 4594 2369 5113 
L 2875 5025 
Q 2806 4731 2619 4013 
Q 3209 4084 3656 4191 
L 3688 3719 
Q 3109 3613 2497 3566 
Q 1822 1294 1153 -44 
L 653 172 
Q 1406 1500 1991 3531 
Q 1634 3513 1256 3513 
Q 1106 3513 697 3525 
L 684 3994 
z
M 5753 78 
Q 5059 -13 4597 -13 
Q 3619 -13 3206 334 
Q 2866 625 2766 1222 
L 3213 1388 
Q 3247 1069 3347 903 
Q 3425 775 3578 672 
Q 3866 481 4556 481 
Q 5009 481 5728 575 
L 5753 78 
z
M 3144 2859 
Q 4216 3147 5409 3072 
L 5381 2597 
L 5356 2597 
Q 4263 2663 3194 2419 
L 3144 2859 
z
" transform="scale(0.015625)"/>
      <path id="IPAexGothic-3089" d="M 3700 3928 
Q 2897 4478 2156 4750 
L 2381 5166 
Q 3147 4891 3956 4384 
L 3700 3928 
z
M 1344 1281 
Q 1450 2544 1747 4038 
L 2234 3928 
Q 1994 2856 1888 1844 
Q 2897 2688 3963 2688 
Q 4531 2688 4909 2450 
Q 5441 2122 5441 1516 
Q 5441 669 4569 213 
Q 3856 -169 2584 -238 
L 2363 250 
Q 3484 250 4213 588 
Q 4909 922 4909 1509 
Q 4909 1856 4647 2059 
Q 4366 2266 3897 2266 
Q 2853 2266 1766 1141 
L 1344 1281 
z
" transform="scale(0.015625)"/>
      <path id="IPAexGothic-ff1a" d="M 2822 3366 
L 3578 3366 
L 3578 2609 
L 2822 2609 
L 2822 3366 
z
M 2822 1081 
L 3578 1081 
L 3578 325 
L 2822 325 
L 2822 1081 
z
" transform="scale(0.015625)"/>
      <path id="IPAexGothic-5fc5" d="M 1984 922 
L 1984 3769 
L 2459 3769 
L 2459 1344 
Q 4031 2828 4719 4825 
L 5172 4634 
Q 4263 2306 2459 722 
L 2459 569 
Q 2459 316 2631 266 
Q 2775 222 3363 222 
Q 4100 222 4272 313 
Q 4463 419 4481 1459 
L 4969 1325 
Q 4919 244 4738 13 
Q 4547 -238 3406 -238 
Q 2456 -238 2234 -134 
Q 1994 -28 1984 341 
Q 1409 -97 709 -469 
L 403 -78 
Q 1197 284 1906 863 
L 1984 922 
z
M 3397 3700 
Q 2672 4338 1931 4722 
L 2241 5100 
Q 2972 4713 3731 4116 
L 3397 3700 
z
M 403 1106 
Q 788 1972 934 3263 
L 1416 3166 
Q 1244 1781 844 838 
L 403 1106 
z
M 5678 941 
Q 5266 2097 4781 2894 
L 5184 3097 
Q 5725 2294 6131 1216 
L 5678 941 
z
" transform="scale(0.015625)"/>
      <path id="IPAexGothic-305a" d="M 4922 4269 
Q 4694 4781 4391 5125 
L 4744 5325 
Q 5059 4928 5288 4494 
L 4922 4269 
z
M 5703 4441 
Q 5463 4934 5141 5306 
L 5481 5522 
Q 5781 5172 6056 4691 
L 5703 4441 
z
M 3322 5075 
L 3816 5075 
L 3816 4063 
Q 4131 4075 5756 4116 
L 5756 3669 
Q 5431 3672 3816 3653 
L 3816 2463 
Q 3956 2125 3956 1741 
Q 3956 922 3519 397 
Q 3128 -72 2309 -409 
L 1941 -31 
Q 3263 453 3488 1363 
Q 3250 1031 2809 1031 
Q 2441 1031 2150 1313 
Q 1875 1588 1875 2050 
Q 1875 2475 2166 2769 
Q 2431 3041 2822 3041 
Q 3088 3041 3322 2881 
L 3322 3641 
Q 3000 3634 609 3547 
L 609 3988 
Q 1197 4000 2106 4022 
Q 3066 4047 3322 4050 
L 3322 5075 
z
M 3372 2044 
Q 3372 2300 3194 2478 
Q 3050 2613 2869 2613 
Q 2622 2613 2463 2406 
Q 2344 2250 2344 2088 
Q 2344 1797 2484 1622 
Q 2625 1453 2859 1453 
Q 3372 1453 3372 2044 
z
" transform="scale(0.015625)"/>
      <path id="IPAexGothic-3053" d="M 1647 4422 
Q 2400 4363 3003 4363 
Q 3803 4363 4653 4459 
L 4763 4031 
Q 4319 3906 3788 3588 
Q 3347 3322 2978 2994 
L 2619 3272 
Q 3150 3666 3609 3950 
Q 3097 3909 2619 3909 
Q 2091 3909 1666 3956 
L 1647 4422 
z
M 5244 191 
Q 4363 13 3303 13 
Q 2316 13 1716 344 
Q 1159 653 1159 1197 
Q 1159 1738 1659 2247 
L 2044 2003 
Q 1647 1644 1647 1263 
Q 1647 500 3291 500 
Q 4288 500 5191 722 
L 5244 191 
z
" transform="scale(0.015625)"/>
      <path id="IPAexGothic-306e" d="M 3119 469 
Q 5275 766 5275 2425 
Q 5275 3453 4413 3925 
Q 4041 4116 3547 4159 
Q 3394 2525 2850 1400 
Q 2322 306 1722 306 
Q 1384 306 1084 666 
Q 609 1244 609 2003 
Q 609 3025 1397 3794 
Q 2184 4563 3431 4563 
Q 4306 4563 4928 4122 
Q 5813 3506 5813 2425 
Q 5813 438 3431 6 
L 3119 469 
z
M 3053 4147 
Q 2378 4044 1891 3641 
Q 1097 2981 1097 1991 
Q 1097 1366 1434 978 
Q 1581 813 1719 813 
Q 2022 813 2416 1625 
Q 2909 2638 3053 4147 
z
" transform="scale(0.015625)"/>
      <path id="IPAexGothic-33" d="M 2381 2419 
Q 3506 2216 3506 1278 
Q 3506 716 3128 356 
Q 2709 -31 1944 -31 
Q 797 -31 288 881 
L 756 1131 
Q 1109 441 1938 441 
Q 2425 441 2694 691 
Q 2950 928 2950 1291 
Q 2950 1719 2566 1978 
Q 2216 2213 1644 2213 
L 1363 2213 
L 1363 2669 
L 1656 2669 
Q 2231 2669 2534 2888 
Q 2859 3119 2859 3509 
Q 2859 3934 2494 4138 
Q 2259 4278 1931 4278 
Q 1238 4278 903 3578 
L 434 3803 
Q 897 4725 1938 4725 
Q 2597 4725 3006 4394 
Q 3416 4069 3416 3534 
Q 3416 3028 3019 2706 
Q 2763 2500 2381 2444 
L 2381 2419 
z
" transform="scale(0.015625)"/>
      <path id="IPAexGothic-3064" d="M 575 3541 
Q 2694 4116 3769 4116 
Q 4506 4116 4978 3750 
Q 5559 3303 5559 2497 
Q 5559 1481 4606 903 
Q 3750 388 2213 281 
L 1963 781 
Q 5022 916 5022 2497 
Q 5022 3053 4663 3375 
Q 4331 3669 3734 3669 
Q 2663 3669 800 3041 
L 575 3541 
z
" transform="scale(0.015625)"/>
      <path id="IPAexGothic-5b9f" d="M 3525 1275 
Q 4288 350 6022 91 
L 5738 -375 
Q 3953 -41 3219 1050 
Q 2731 -144 728 -472 
L 466 -44 
Q 2422 150 2872 1275 
L 384 1275 
L 384 1659 
L 2950 1659 
L 2950 2144 
L 966 2144 
L 966 2509 
L 2950 2509 
L 2950 2969 
L 1266 2969 
L 1266 3341 
L 2950 3341 
L 2950 3988 
L 3403 3988 
L 3403 3341 
L 5125 3341 
L 5125 2969 
L 3403 2969 
L 3403 2509 
L 5444 2509 
L 5444 2144 
L 3403 2144 
L 3403 1659 
L 6016 1659 
L 6016 1275 
L 3525 1275 
z
M 3413 4544 
L 5778 4544 
L 5778 3269 
L 5309 3269 
L 5309 4147 
L 1084 4147 
L 1084 3269 
L 616 3269 
L 616 4544 
L 2938 4544 
L 2938 5313 
L 3413 5313 
L 3413 4544 
z
" transform="scale(0.015625)"/>
      <path id="IPAexGothic-884c" d="M 1822 2753 
L 1822 -447 
L 1353 -447 
L 1353 2169 
Q 966 1744 622 1466 
L 316 1791 
Q 1294 2559 1969 3822 
L 2397 3634 
Q 2109 3138 1822 2753 
z
M 4975 2803 
L 4975 103 
Q 4975 -391 4369 -391 
Q 3925 -391 3356 -341 
L 3288 159 
Q 3775 78 4259 78 
Q 4516 78 4516 319 
L 4516 2803 
L 2384 2803 
L 2384 3225 
L 6013 3225 
L 6013 2803 
L 4975 2803 
z
M 384 3691 
Q 1231 4256 1756 5075 
L 2144 4850 
Q 1541 3947 666 3347 
L 384 3691 
z
M 2709 4794 
L 5659 4794 
L 5659 4378 
L 2709 4378 
L 2709 4794 
z
" transform="scale(0.015625)"/>
     </defs>
     <use xlink:href="#IPAexGothic-30c7"/>
     <use xlink:href="#IPAexGothic-30fc" x="100"/>
     <use xlink:href="#IPAexGothic-30bf" x="200"/>
     <use xlink:href="#IPAexGothic-3092" x="300"/>
     <use xlink:href="#IPAexGothic-624b" x="400"/>
     <use xlink:href="#IPAexGothic-306b" x="500"/>
     <use xlink:href="#IPAexGothic-5165" x="600"/>
     <use xlink:href="#IPAexGothic-308c" x="700"/>
     <use xlink:href="#IPAexGothic-305f" x="800"/>
     <use xlink:href="#IPAexGothic-3089" x="900"/>
     <use xlink:href="#IPAexGothic-ff1a" x="1000"/>
     <use xlink:href="#IPAexGothic-5fc5" x="1100"/>
     <use xlink:href="#IPAexGothic-305a" x="1200"/>
     <use xlink:href="#IPAexGothic-3053" x="1300"/>
     <use xlink:href="#IPAexGothic-306e" x="1400"/>
     <use xlink:href="#IPAexGothic-33" x="1500"/>
     <use xlink:href="#IPAexGothic-3064" x="1562.988281"/>
     <use xlink:href="#IPAexGothic-3092" x="1662.988281"/>
     <use xlink:href="#IPAexGothic-5b9f" x="1762.988281"/>
     <use xlink:href="#IPAexGothic-884c" x="1862.988281"/>
    </g>
   </g>
   <g id="text_3">
    <!-- メソッド -->
    <g style="fill: #ffffff" transform="translate(38.88 89.894141) scale(0.125 -0.125)">
     <defs>
      <path id="IPAexGothic-30e1" d="M 2041 3641 
Q 2678 3259 3359 2747 
Q 3906 3678 4281 4819 
L 4784 4609 
Q 4347 3384 3756 2425 
Q 4225 2031 4925 1369 
L 4544 972 
Q 4031 1519 3475 1997 
Q 2522 650 1259 -172 
L 863 206 
Q 2197 1006 3091 2328 
Q 2456 2844 1700 3263 
L 2041 3641 
z
" transform="scale(0.015625)"/>
      <path id="IPAexGothic-30bd" d="M 1863 2578 
Q 1469 3528 1038 4213 
L 1550 4459 
Q 1972 3809 2394 2869 
L 1863 2578 
z
M 1728 303 
Q 4272 1347 4800 4531 
L 5356 4372 
Q 4725 1072 2119 -141 
L 1728 303 
z
" transform="scale(0.015625)"/>
      <path id="IPAexGothic-30c3" d="M 1775 1984 
Q 1553 2666 1275 3175 
L 1716 3391 
Q 2034 2866 2247 2209 
L 1775 1984 
z
M 3003 2297 
Q 2813 2978 2522 3469 
L 2978 3681 
Q 3291 3166 3484 2522 
L 3003 2297 
z
M 1928 372 
Q 3094 744 3731 1569 
Q 4275 2263 4469 3525 
L 4975 3406 
Q 4734 1975 4016 1119 
Q 3406 391 2266 -44 
L 1928 372 
z
" transform="scale(0.015625)"/>
      <path id="IPAexGothic-30c9" d="M 2247 4959 
L 2766 4959 
L 2766 3169 
Q 4050 2581 5178 1850 
L 4841 1331 
Q 3781 2138 2766 2650 
L 2766 -225 
L 2247 -225 
L 2247 4959 
z
M 5263 3847 
Q 4900 4388 4506 4716 
L 4806 4947 
Q 5191 4638 5581 4122 
L 5263 3847 
z
M 4666 3378 
Q 4375 3869 3931 4269 
L 4244 4513 
Q 4616 4206 5000 3653 
L 4666 3378 
z
" transform="scale(0.015625)"/>
     </defs>
     <use xlink:href="#IPAexGothic-30e1"/>
     <use xlink:href="#IPAexGothic-30bd" x="100"/>
     <use xlink:href="#IPAexGothic-30c3" x="200"/>
     <use xlink:href="#IPAexGothic-30c9" x="300"/>
    </g>
   </g>
   <g id="text_4">
    <!-- 何がわかるか -->
    <g style="fill: #ffffff" transform="translate(182.88 89.894141) scale(0.125 -0.125)">
     <defs>
      <path id="IPAexGothic-4f55" d="M 5531 4250 
L 5531 153 
Q 5531 -150 5350 -263 
Q 5206 -359 4850 -359 
Q 4325 -359 3944 -313 
L 3872 191 
Q 4372 116 4788 116 
Q 5056 116 5056 403 
L 5056 4250 
L 2022 4250 
L 2022 4666 
L 6031 4666 
L 6031 4250 
L 5531 4250 
z
M 1641 3809 
L 1641 -447 
L 1172 -447 
L 1172 2847 
Q 881 2338 525 1863 
L 256 2253 
Q 1197 3481 1594 5184 
L 2069 5069 
Q 1866 4344 1641 3809 
z
M 4300 3378 
L 4300 1125 
L 2853 1125 
L 2853 625 
L 2425 625 
L 2425 3378 
L 4300 3378 
z
M 2853 2988 
L 2853 1516 
L 3872 1516 
L 3872 2988 
L 2853 2988 
z
" transform="scale(0.015625)"/>
      <path id="IPAexGothic-304c" d="M 659 3384 
Q 1434 3503 2113 3581 
Q 2313 4341 2394 4972 
L 2900 4875 
Q 2759 4147 2619 3628 
L 2719 3634 
Q 2894 3641 3041 3641 
Q 4072 3641 4072 2369 
Q 4072 1128 3700 384 
Q 3478 -56 3003 -56 
Q 2591 -56 2113 231 
L 2138 775 
Q 2631 444 2925 444 
Q 3169 444 3297 706 
Q 3566 1294 3566 2388 
Q 3566 3219 3016 3219 
Q 2825 3219 2497 3194 
Q 2388 2763 2113 2047 
Q 1634 797 1119 -38 
L 678 244 
Q 1356 1238 1863 2750 
Q 1888 2819 1991 3128 
Q 1594 3081 769 2916 
L 659 3384 
z
M 5441 1838 
Q 4913 3038 4091 3916 
L 4475 4184 
Q 5350 3269 5888 2156 
L 5441 1838 
z
M 5913 4275 
Q 5553 4819 5159 5147 
L 5459 5375 
Q 5844 5066 6234 4550 
L 5913 4275 
z
M 5344 3788 
Q 5053 4278 4609 4678 
L 4922 4922 
Q 5294 4613 5678 4063 
L 5344 3788 
z
" transform="scale(0.015625)"/>
      <path id="IPAexGothic-308f" d="M 609 3672 
Q 1272 3750 1894 3884 
L 1934 4978 
L 2406 4972 
L 2369 3934 
L 2753 3634 
Q 2416 3238 2356 3153 
Q 2350 3078 2350 2853 
Q 3322 3616 4219 3616 
Q 4878 3616 5331 3200 
Q 5819 2750 5819 2028 
Q 5819 419 3584 -53 
L 3266 391 
Q 5294 766 5294 2034 
Q 5294 2534 5000 2847 
Q 4691 3175 4175 3175 
Q 3341 3175 2344 2303 
Q 2344 678 2369 -150 
L 1881 -150 
Q 1863 1200 1869 1888 
Q 1766 1781 866 716 
L 513 1081 
Q 1450 2088 1869 2469 
Q 1869 2500 1878 2947 
Q 1881 3225 1888 3456 
Q 1406 3319 744 3178 
L 609 3672 
z
" transform="scale(0.015625)"/>
      <path id="IPAexGothic-304b" d="M 659 3384 
Q 1434 3503 2113 3581 
Q 2313 4341 2394 4972 
L 2900 4875 
Q 2759 4147 2619 3628 
L 2719 3634 
Q 2894 3641 3041 3641 
Q 4072 3641 4072 2369 
Q 4072 1128 3700 384 
Q 3478 -56 3003 -56 
Q 2591 -56 2113 231 
L 2138 775 
Q 2631 444 2925 444 
Q 3169 444 3297 706 
Q 3566 1294 3566 2388 
Q 3566 3219 3016 3219 
Q 2825 3219 2497 3194 
Q 2388 2763 2113 2047 
Q 1634 797 1119 -38 
L 678 244 
Q 1356 1238 1863 2750 
Q 1888 2819 1991 3128 
Q 1594 3081 769 2916 
L 659 3384 
z
M 5644 1753 
Q 5072 3025 4238 3916 
L 4641 4184 
Q 5494 3275 6081 2094 
L 5644 1753 
z
" transform="scale(0.015625)"/>
      <path id="IPAexGothic-308b" d="M 4391 4397 
L 2613 2588 
Q 3225 2809 3759 2809 
Q 4263 2809 4659 2625 
Q 5391 2269 5391 1484 
Q 5391 756 4706 275 
Q 4072 -166 3053 -166 
Q 2559 -166 2247 19 
Q 1863 250 1863 666 
Q 1863 934 2069 1141 
Q 2331 1403 2741 1403 
Q 3509 1403 4019 428 
Q 4872 784 4872 1491 
Q 4872 1981 4469 2222 
Q 4166 2406 3681 2406 
Q 2425 2406 1238 1209 
L 891 1581 
Q 2438 2934 3578 4281 
Q 2594 4125 1588 4066 
L 1478 4550 
Q 2594 4581 4109 4763 
L 4391 4397 
z
M 3591 303 
Q 3244 1025 2731 1025 
Q 2553 1025 2434 934 
Q 2316 844 2316 700 
Q 2316 250 3034 250 
Q 3275 250 3591 303 
z
" transform="scale(0.015625)"/>
     </defs>
     <use xlink:href="#IPAexGothic-4f55"/>
     <use xlink:href="#IPAexGothic-304c" x="100"/>
     <use xlink:href="#IPAexGothic-308f" x="200"/>
     <use xlink:href="#IPAexGothic-304b" x="300"/>
     <use xlink:href="#IPAexGothic-308b" x="400"/>
     <use xlink:href="#IPAexGothic-304b" x="500"/>
    </g>
   </g>
   <g id="text_5">
    <!-- 確認するポイント -->
    <g style="fill: #ffffff" transform="translate(341.28 89.894141) scale(0.125 -0.125)">
     <defs>
      <path id="IPAexGothic-78ba" d="M 4347 3219 
Q 4516 3538 4647 3956 
L 5075 3853 
Q 4875 3431 4750 3219 
L 5888 3219 
L 5888 2847 
L 4700 2847 
L 4700 2222 
L 5741 2222 
L 5741 1869 
L 4700 1869 
L 4700 1250 
L 5741 1250 
L 5741 897 
L 4700 897 
L 4700 231 
L 6034 231 
L 6034 -141 
L 3463 -141 
L 3463 -447 
L 3047 -447 
L 3047 2444 
Q 2756 2019 2484 1703 
L 2284 2100 
Q 3159 3197 3506 4147 
L 2913 4147 
L 2913 3425 
L 2509 3425 
L 2509 4519 
L 3634 4519 
Q 3750 4903 3847 5319 
L 4269 5241 
Q 4175 4834 4072 4519 
L 5934 4519 
L 5934 3425 
L 5525 3425 
L 5525 4147 
L 3938 4147 
Q 3747 3647 3513 3219 
L 4347 3219 
z
M 4297 2847 
L 3463 2847 
L 3463 2222 
L 4297 2222 
L 4297 2847 
z
M 4297 1869 
L 3463 1869 
L 3463 1250 
L 4297 1250 
L 4297 1869 
z
M 4297 897 
L 3463 897 
L 3463 231 
L 4297 231 
L 4297 897 
z
M 1159 2944 
L 2275 2944 
L 2275 197 
L 1213 197 
L 1213 -328 
L 816 -328 
L 816 2206 
Q 650 1903 394 1522 
L 188 1919 
Q 931 3013 1200 4416 
L 406 4416 
L 406 4819 
L 2409 4819 
L 2409 4416 
L 1616 4416 
L 1597 4353 
Q 1456 3663 1159 2944 
z
M 1213 2553 
L 1213 588 
L 1878 588 
L 1878 2553 
L 1213 2553 
z
" transform="scale(0.015625)"/>
      <path id="IPAexGothic-8a8d" d="M 4341 4556 
Q 4309 4069 4219 3694 
Q 4622 3497 4956 3309 
L 4731 2963 
Q 4463 3125 4141 3291 
L 4091 3322 
Q 3756 2566 2959 2088 
L 2663 2419 
Q 3456 2844 3713 3500 
Q 3213 3722 2906 3828 
L 3113 4141 
Q 3381 4050 3828 3866 
Q 3916 4231 3925 4556 
L 2816 4556 
L 2816 4947 
L 5775 4947 
Q 5766 3272 5653 2713 
Q 5606 2459 5453 2369 
Q 5334 2284 5025 2284 
Q 4684 2284 4366 2334 
L 4303 2784 
Q 4644 2713 4928 2713 
Q 5181 2713 5228 2906 
Q 5309 3234 5338 4513 
Q 5338 4544 5338 4556 
L 4341 4556 
z
M 2406 1684 
L 2406 -128 
L 959 -128 
L 959 -447 
L 544 -447 
L 544 1684 
L 2406 1684 
z
M 959 1313 
L 959 244 
L 1984 244 
L 1984 1313 
L 959 1313 
z
M 634 5044 
L 2313 5044 
L 2313 4659 
L 634 4659 
L 634 5044 
z
M 353 4206 
L 2638 4206 
L 2638 3816 
L 353 3816 
L 353 4206 
z
M 634 3359 
L 2313 3359 
L 2313 2975 
L 634 2975 
L 634 3359 
z
M 634 2522 
L 2313 2522 
L 2313 2138 
L 634 2138 
L 634 2522 
z
M 2528 31 
Q 2816 625 2919 1447 
L 3322 1375 
Q 3200 381 2900 -225 
L 2528 31 
z
M 3572 1556 
L 4000 1556 
L 4000 294 
Q 4000 128 4084 100 
Q 4144 75 4300 75 
Q 4728 75 4775 275 
Q 4806 394 4825 738 
L 5253 616 
Q 5206 -44 5081 -188 
Q 4941 -347 4359 -347 
Q 3900 -347 3738 -269 
Q 3572 -191 3572 91 
L 3572 1556 
z
M 5775 -25 
Q 5428 800 5006 1375 
L 5366 1588 
Q 5819 994 6166 244 
L 5775 -25 
z
M 4566 1294 
Q 4106 1772 3656 2075 
L 3938 2350 
Q 4331 2113 4872 1613 
L 4566 1294 
z
" transform="scale(0.015625)"/>
      <path id="IPAexGothic-3059" d="M 3322 5075 
L 3816 5075 
L 3816 4063 
Q 4131 4075 5756 4116 
L 5756 3669 
Q 5431 3672 3816 3653 
L 3816 2463 
Q 3956 2125 3956 1741 
Q 3956 922 3519 397 
Q 3128 -72 2309 -409 
L 1941 -31 
Q 3263 453 3488 1363 
Q 3250 1031 2809 1031 
Q 2441 1031 2150 1313 
Q 1875 1588 1875 2050 
Q 1875 2475 2166 2769 
Q 2431 3041 2822 3041 
Q 3088 3041 3322 2881 
L 3322 3641 
Q 3000 3634 609 3547 
L 609 3988 
Q 1197 4000 2106 4022 
Q 3066 4047 3322 4050 
L 3322 5075 
z
M 3372 2044 
Q 3372 2300 3194 2478 
Q 3050 2613 2869 2613 
Q 2622 2613 2463 2406 
Q 2344 2250 2344 2088 
Q 2344 1797 2484 1622 
Q 2625 1453 2859 1453 
Q 3372 1453 3372 2044 
z
" transform="scale(0.015625)"/>
      <path id="IPAexGothic-30dd" d="M 5188 5453 
Q 5497 5453 5706 5219 
Q 5891 5016 5891 4747 
Q 5891 4434 5656 4222 
Q 5453 4038 5188 4038 
Q 4872 4038 4659 4272 
Q 4475 4475 4475 4747 
Q 4475 5059 4709 5269 
Q 4916 5453 5188 5453 
z
M 5188 5172 
Q 4997 5172 4866 5031 
Q 4756 4909 4756 4747 
Q 4756 4556 4897 4428 
Q 5022 4319 5188 4319 
Q 5372 4319 5500 4459 
Q 5609 4584 5609 4747 
Q 5609 4934 5469 5063 
Q 5347 5172 5188 5172 
z
M 2972 4978 
L 3478 4978 
L 3478 3794 
L 5584 3794 
L 5584 3341 
L 3478 3341 
L 3478 397 
Q 3478 -147 2844 -147 
Q 2428 -147 2019 -72 
L 1909 459 
Q 2300 359 2716 359 
Q 2972 359 2972 616 
L 2972 3341 
L 822 3341 
L 822 3794 
L 2972 3794 
L 2972 4978 
z
M 603 922 
Q 988 1294 1222 1694 
Q 1438 2063 1600 2572 
L 2050 2369 
Q 1859 1766 1588 1325 
Q 1372 975 1000 556 
L 603 922 
z
M 5313 709 
Q 4847 1700 4309 2388 
L 4719 2656 
Q 5269 2016 5775 1031 
L 5313 709 
z
" transform="scale(0.015625)"/>
      <path id="IPAexGothic-30a4" d="M 3131 -231 
L 3131 2875 
Q 2091 2088 1106 1656 
L 781 2059 
Q 3016 3000 4469 4916 
L 4916 4641 
Q 4384 3938 3675 3316 
L 3675 -231 
L 3131 -231 
z
" transform="scale(0.015625)"/>
      <path id="IPAexGothic-30f3" d="M 2444 3084 
Q 1816 3656 1056 4084 
L 1381 4519 
Q 2063 4191 2816 3559 
L 2444 3084 
z
M 1100 609 
Q 3984 1106 5216 3828 
L 5619 3469 
Q 4413 794 1434 103 
L 1100 609 
z
" transform="scale(0.015625)"/>
      <path id="IPAexGothic-30c8" d="M 2284 4997 
L 2803 4997 
L 2803 3206 
Q 4088 2619 5216 1888 
L 4878 1369 
Q 3819 2175 2803 2688 
L 2803 -184 
L 2284 -184 
L 2284 4997 
z
" transform="scale(0.015625)"/>
     </defs>
     <use xlink:href="#IPAexGothic-78ba"/>
     <use xlink:href="#IPAexGothic-8a8d" x="100"/>
     <use xlink:href="#IPAexGothic-3059" x="200"/>
     <use xlink:href="#IPAexGothic-308b" x="300"/>
     <use xlink:href="#IPAexGothic-30dd" x="400"/>
     <use xlink:href="#IPAexGothic-30a4" x="500"/>
     <use xlink:href="#IPAexGothic-30f3" x="600"/>
     <use xlink:href="#IPAexGothic-30c8" x="700"/>
    </g>
   </g>
   <g id="text_6">
    <!-- df.head() -->
    <g style="fill: #2c3e50" transform="translate(38.88 118.757617) scale(0.125 -0.125)">
     <defs>
      <path id="IPAexGothic-64" d="M 3391 63 
L 2891 63 
L 2891 619 
Q 2441 -31 1753 -31 
Q 1181 -31 788 372 
Q 313 844 313 1663 
Q 313 2466 772 2938 
Q 1169 3341 1753 3341 
Q 2384 3341 2847 2809 
L 2847 4794 
L 3391 4794 
L 3391 63 
z
M 2847 1303 
L 2847 2097 
Q 2847 2413 2456 2706 
Q 2181 2906 1853 2906 
Q 1484 2906 1228 2650 
Q 888 2309 888 1678 
Q 888 1109 1169 750 
Q 1441 409 1847 409 
Q 2322 409 2656 875 
Q 2847 1134 2847 1303 
z
" transform="scale(0.015625)"/>
      <path id="IPAexGothic-66" d="M 2456 4622 
L 2228 4244 
Q 1991 4422 1741 4422 
Q 1184 4422 1184 3672 
L 1184 3250 
L 2053 3250 
L 2053 2859 
L 1184 2859 
L 1184 63 
L 641 63 
L 641 2859 
L 122 2859 
L 122 3250 
L 641 3250 
L 641 3659 
Q 641 4188 891 4484 
Q 1200 4844 1709 4844 
Q 2116 4844 2456 4622 
z
" transform="scale(0.015625)"/>
      <path id="IPAexGothic-65" d="M 863 1594 
Q 891 1041 1209 722 
Q 1534 397 1997 397 
Q 2606 397 2963 966 
L 3322 728 
Q 2869 -31 1931 -31 
Q 1222 -31 766 422 
Q 306 884 306 1641 
Q 306 2444 788 2925 
Q 1216 3353 1856 3353 
Q 2459 3353 2866 2956 
Q 3322 2494 3322 1722 
L 3322 1594 
L 863 1594 
z
M 2756 1997 
Q 2709 2431 2450 2681 
Q 2194 2938 1844 2938 
Q 1438 2938 1150 2591 
Q 953 2356 894 1997 
L 2756 1997 
z
" transform="scale(0.015625)"/>
      <path id="IPAexGothic-61" d="M 3156 63 
L 2672 63 
Q 2559 303 2531 556 
L 2509 556 
Q 2147 -25 1428 -25 
Q 934 -25 622 288 
Q 347 563 347 959 
Q 347 1947 2050 1997 
L 2478 2009 
L 2478 2175 
Q 2478 2509 2288 2700 
Q 2088 2900 1775 2900 
Q 1238 2900 969 2378 
L 494 2597 
Q 938 3328 1788 3328 
Q 2375 3328 2691 3000 
Q 2984 2706 2984 2169 
L 2984 997 
Q 2984 400 3156 63 
z
M 2491 1625 
L 2141 1619 
Q 903 1591 903 953 
Q 903 728 1050 581 
Q 1231 403 1525 403 
Q 1934 403 2234 703 
Q 2491 969 2491 1344 
L 2491 1625 
z
" transform="scale(0.015625)"/>
      <path id="IPAexGothic-28" d="M 1928 -1016 
L 1653 -1166 
Q 488 69 488 1875 
Q 488 3678 1653 4909 
L 1928 4763 
Q 1006 3522 1006 1881 
Q 1006 203 1928 -1016 
z
" transform="scale(0.015625)"/>
      <path id="IPAexGothic-29" d="M 466 4909 
Q 1638 3672 1638 1875 
Q 1638 75 466 -1166 
L 191 -1016 
Q 1119 216 1119 1881 
Q 1119 3509 191 4763 
L 466 4909 
z
" transform="scale(0.015625)"/>
     </defs>
     <use xlink:href="#IPAexGothic-64"/>
     <use xlink:href="#IPAexGothic-66" x="62.402344"/>
     <use xlink:href="#IPAexGothic-2e" x="93.017578"/>
     <use xlink:href="#IPAexGothic-68" x="119.433594"/>
     <use xlink:href="#IPAexGothic-65" x="180.126953"/>
     <use xlink:href="#IPAexGothic-61" x="237.011719"/>
     <use xlink:href="#IPAexGothic-64" x="291.992188"/>
     <use xlink:href="#IPAexGothic-28" x="354.394531"/>
     <use xlink:href="#IPAexGothic-29" x="387.695312"/>
    </g>
   </g>
   <g id="text_7">
    <!-- 先頭5行を表示 -->
    <g style="fill: #2c3e50" transform="translate(182.88 118.694141) scale(0.125 -0.125)">
     <defs>
      <path id="IPAexGothic-5148" d="M 1853 4097 
L 2994 4097 
L 2994 5306 
L 3481 5306 
L 3481 4097 
L 5534 4097 
L 5534 3681 
L 3481 3681 
L 3481 2584 
L 5950 2584 
L 5950 2169 
L 4153 2169 
L 4153 372 
Q 4153 213 4263 172 
Q 4378 134 4728 134 
Q 5175 134 5294 178 
Q 5447 238 5484 447 
Q 5541 747 5547 1131 
L 6016 966 
Q 5969 78 5803 -122 
Q 5622 -334 4697 -334 
Q 4106 -334 3897 -244 
Q 3694 -147 3694 153 
L 3694 2169 
L 2694 2169 
Q 2694 2131 2694 2113 
Q 2675 1094 2253 519 
Q 1781 -134 819 -481 
L 491 -78 
Q 1516 219 1900 825 
Q 2197 1294 2225 2169 
L 441 2169 
L 441 2584 
L 2994 2584 
L 2994 3681 
L 1688 3681 
Q 1450 3156 1131 2731 
L 753 3047 
Q 1366 3803 1619 4975 
L 2091 4866 
Q 1953 4378 1853 4097 
z
" transform="scale(0.015625)"/>
      <path id="IPAexGothic-982d" d="M 4556 3956 
L 5709 3956 
L 5709 788 
L 3328 788 
L 3328 3956 
L 4159 3956 
Q 4231 4213 4300 4581 
L 3022 4581 
L 3022 4978 
L 6022 4978 
L 6022 4581 
L 4744 4581 
Q 4741 4563 4728 4528 
Q 4716 4491 4709 4472 
Q 4653 4225 4556 3956 
z
M 5300 3584 
L 3738 3584 
L 3738 3028 
L 5300 3028 
L 5300 3584 
z
M 3738 2669 
L 3738 2113 
L 5300 2113 
L 5300 2669 
L 3738 2669 
z
M 3738 1753 
L 3738 1159 
L 5300 1159 
L 5300 1753 
L 3738 1753 
z
M 2750 3928 
L 2750 2253 
L 556 2253 
L 556 3928 
L 2750 3928 
z
M 972 3544 
L 972 2638 
L 2334 2638 
L 2334 3544 
L 972 3544 
z
M 1753 622 
Q 2003 1316 2144 2047 
L 2584 1913 
Q 2453 1372 2206 738 
Q 2563 828 2988 959 
L 3019 581 
Q 1919 203 459 -141 
L 300 288 
Q 828 388 1559 569 
L 1753 622 
z
M 350 4978 
L 2847 4978 
L 2847 4581 
L 350 4581 
L 350 4978 
z
M 1009 641 
Q 913 1231 684 1844 
L 1094 1978 
Q 1322 1309 1431 788 
L 1009 641 
z
M 2763 -184 
Q 3538 247 3941 744 
L 4300 500 
Q 3725 -141 3084 -506 
L 2763 -184 
z
M 5747 -434 
Q 5369 19 4709 519 
L 5038 763 
Q 5459 500 6138 -122 
L 5747 -434 
z
" transform="scale(0.015625)"/>
      <path id="IPAexGothic-35" d="M 1178 2603 
Q 1634 2963 2172 2963 
Q 2816 2963 3241 2528 
Q 3638 2113 3638 1497 
Q 3638 938 3297 513 
Q 2869 -31 2031 -31 
Q 959 -31 469 784 
L 938 1028 
Q 1309 434 2013 434 
Q 2466 434 2769 716 
Q 3081 1013 3081 1503 
Q 3081 1966 2806 2241 
Q 2519 2528 2056 2528 
Q 1406 2528 1072 2028 
L 591 2091 
L 884 4634 
L 3406 4634 
L 3406 4153 
L 1341 4153 
L 1134 2603 
L 1178 2603 
z
" transform="scale(0.015625)"/>
      <path id="IPAexGothic-8868" d="M 3209 2350 
Q 2856 1944 2328 1563 
L 2328 288 
Q 2975 438 3756 691 
L 3763 275 
Q 2534 -163 1184 -447 
L 978 13 
Q 1566 119 1819 175 
L 1875 188 
L 1875 1275 
Q 1306 941 506 666 
L 219 1056 
Q 1813 1509 2675 2356 
L 384 2356 
L 384 2753 
L 2978 2753 
L 2978 3309 
L 959 3309 
L 959 3694 
L 2978 3694 
L 2978 4219 
L 641 4219 
L 641 4603 
L 2978 4603 
L 2978 5313 
L 3431 5313 
L 3431 4603 
L 5759 4603 
L 5759 4219 
L 3431 4219 
L 3431 3694 
L 5434 3694 
L 5434 3309 
L 3431 3309 
L 3431 2753 
L 6016 2753 
L 6016 2356 
L 3634 2356 
Q 3863 1838 4244 1356 
Q 4781 1756 5166 2191 
L 5588 1894 
Q 5084 1419 4525 1056 
Q 5150 459 6106 66 
L 5734 -356 
Q 3850 575 3209 2350 
z
" transform="scale(0.015625)"/>
      <path id="IPAexGothic-793a" d="M 3488 2822 
L 3488 153 
Q 3488 -144 3334 -247 
Q 3213 -331 2872 -331 
Q 2425 -331 1950 -294 
L 1859 213 
Q 2350 128 2775 128 
Q 3000 128 3000 353 
L 3000 2822 
L 447 2822 
L 447 3250 
L 5950 3250 
L 5950 2822 
L 3488 2822 
z
M 1125 4813 
L 5266 4813 
L 5266 4384 
L 1125 4384 
L 1125 4813 
z
M 5581 244 
Q 4966 1263 4206 2081 
L 4563 2369 
Q 5319 1575 6009 622 
L 5581 244 
z
M 403 616 
Q 1184 1238 1741 2259 
L 2163 2053 
Q 1631 975 763 238 
L 403 616 
z
" transform="scale(0.015625)"/>
     </defs>
     <use xlink:href="#IPAexGothic-5148"/>
     <use xlink:href="#IPAexGothic-982d" x="100"/>
     <use xlink:href="#IPAexGothic-35" x="200"/>
     <use xlink:href="#IPAexGothic-884c" x="262.988281"/>
     <use xlink:href="#IPAexGothic-3092" x="362.988281"/>
     <use xlink:href="#IPAexGothic-8868" x="462.988281"/>
     <use xlink:href="#IPAexGothic-793a" x="562.988281"/>
    </g>
   </g>
   <g id="text_8">
    <!-- 列名・値の形式・データの「顔」 -->
    <g style="fill: #2c3e50" transform="translate(341.28 118.776172) scale(0.125 -0.125)">
     <defs>
      <path id="IPAexGothic-5217" d="M 2334 1600 
Q 1944 1966 1306 2378 
Q 1038 1938 709 1541 
L 434 1906 
Q 1325 2934 1663 4550 
L 606 4550 
L 606 4953 
L 3781 4953 
L 3781 4550 
L 2097 4550 
Q 2091 4531 2078 4466 
Q 2000 4100 1900 3781 
L 3141 3781 
L 3409 3575 
Q 3156 2138 2656 1247 
Q 2097 269 1003 -500 
L 684 -128 
Q 1769 563 2334 1600 
z
M 2534 2009 
Q 2794 2656 2919 3384 
L 1766 3384 
Q 1638 3034 1478 2706 
Q 2181 2294 2534 2009 
z
M 3956 4416 
L 4409 4416 
L 4409 966 
L 3956 966 
L 3956 4416 
z
M 5306 5056 
L 5759 5056 
L 5759 197 
Q 5759 -138 5569 -263 
Q 5419 -353 5094 -353 
Q 4547 -353 3963 -294 
L 3878 191 
Q 4600 116 5038 116 
Q 5306 116 5306 359 
L 5306 5056 
z
" transform="scale(0.015625)"/>
      <path id="IPAexGothic-540d" d="M 2669 2094 
L 5563 2094 
L 5563 -434 
L 5088 -434 
L 5088 -122 
L 2459 -122 
L 2459 -447 
L 1984 -447 
L 1984 1716 
Q 1294 1366 716 1147 
L 397 1531 
Q 1775 1950 2844 2700 
Q 2400 3181 1978 3500 
Q 1509 3091 934 2784 
L 609 3122 
Q 2097 3881 2869 5297 
L 3322 5184 
Q 3263 5081 3028 4709 
L 4984 4709 
L 5253 4478 
Q 4072 2894 2669 2094 
z
M 2459 1697 
L 2459 269 
L 5088 269 
L 5088 1697 
L 2459 1697 
z
M 3213 2981 
Q 4069 3694 4531 4319 
L 2747 4319 
Q 2563 4088 2278 3781 
Q 2847 3366 3213 2981 
z
" transform="scale(0.015625)"/>
      <path id="IPAexGothic-5024" d="M 4172 3675 
L 5453 3675 
L 5453 684 
L 3019 684 
L 3019 3675 
L 3750 3675 
Q 3788 3884 3825 4153 
L 2141 4153 
L 2141 4544 
L 3884 4544 
Q 3922 4844 3966 5325 
L 4434 5272 
L 4388 4953 
Q 4331 4578 4331 4544 
L 5863 4544 
L 5863 4153 
L 4269 4153 
Q 4200 3781 4172 3675 
z
M 5038 3316 
L 3434 3316 
L 3434 2803 
L 5038 2803 
L 5038 3316 
z
M 3434 2450 
L 3434 1941 
L 5038 1941 
L 5038 2450 
L 3434 2450 
z
M 3434 1588 
L 3434 1044 
L 5038 1044 
L 5038 1588 
L 3434 1588 
z
M 1509 3669 
L 1509 -447 
L 1069 -447 
L 1069 2725 
Q 856 2338 531 1875 
L 288 2266 
Q 1163 3531 1541 5325 
L 1975 5222 
Q 1791 4378 1509 3669 
z
M 2488 244 
L 6031 244 
L 6031 -153 
L 2488 -153 
L 2488 -447 
L 2059 -447 
L 2059 3213 
L 2488 3213 
L 2488 244 
z
" transform="scale(0.015625)"/>
      <path id="IPAexGothic-5f62" d="M 2856 4488 
L 2856 2859 
L 3744 2859 
L 3744 2456 
L 2875 2456 
L 2875 -384 
L 2434 -384 
L 2434 2456 
L 1653 2456 
L 1653 2394 
Q 1653 1425 1466 759 
Q 1266 59 756 -525 
L 425 -181 
Q 1213 666 1213 2341 
L 1213 2456 
L 322 2456 
L 322 2859 
L 1213 2859 
L 1213 4488 
L 481 4488 
L 481 4891 
L 3609 4891 
L 3609 4488 
L 2856 4488 
z
M 2416 4488 
L 1653 4488 
L 1653 2859 
L 2416 2859 
L 2416 4488 
z
M 3369 6 
Q 4859 738 5728 2203 
L 6144 1966 
Q 5216 403 3688 -384 
L 3369 6 
z
M 3334 3425 
Q 4566 4031 5197 5141 
L 5634 4909 
Q 4872 3697 3650 3066 
L 3334 3425 
z
M 3303 1728 
Q 4684 2331 5472 3706 
L 5888 3481 
Q 5025 2031 3609 1338 
L 3303 1728 
z
" transform="scale(0.015625)"/>
      <path id="IPAexGothic-5f0f" d="M 3975 4006 
L 5922 4006 
L 5922 3591 
L 4013 3591 
Q 4119 2525 4244 2094 
Q 4544 1028 4988 528 
Q 5234 253 5331 253 
Q 5484 253 5628 1209 
L 6056 928 
Q 5834 -350 5403 -350 
Q 5191 -350 4834 -13 
Q 3794 981 3534 3559 
L 481 3559 
L 481 3981 
L 3497 3981 
Q 3444 4603 3425 5306 
L 3900 5306 
Q 3928 4616 3975 4006 
z
M 2309 2222 
L 2309 775 
L 2516 806 
Q 2938 881 3691 1038 
L 3731 666 
Q 2284 291 641 31 
L 494 494 
Q 1434 628 1850 697 
L 1850 2222 
L 775 2222 
L 775 2631 
L 3384 2631 
L 3384 2222 
L 2309 2222 
z
M 5056 4141 
Q 4759 4631 4391 4997 
L 4763 5222 
Q 5150 4834 5434 4403 
L 5056 4141 
z
" transform="scale(0.015625)"/>
      <path id="IPAexGothic-300c" d="M 4134 5300 
L 5875 5300 
L 5875 4853 
L 4581 4853 
L 4581 656 
L 4134 656 
L 4134 5300 
z
" transform="scale(0.015625)"/>
      <path id="IPAexGothic-9854" d="M 4609 4031 
L 5709 4031 
L 5709 703 
L 3394 703 
L 3394 4031 
L 4219 4031 
Q 4284 4291 4347 4659 
L 3138 4659 
L 3138 5056 
L 6022 5056 
L 6022 4659 
L 4794 4659 
Q 4691 4253 4609 4031 
z
M 5300 3659 
L 3797 3659 
L 3797 3047 
L 5300 3047 
L 5300 3659 
z
M 3797 2688 
L 3797 2075 
L 5300 2075 
L 5300 2688 
L 3797 2688 
z
M 3797 1716 
L 3797 1075 
L 5300 1075 
L 5300 1716 
L 3797 1716 
z
M 2022 4588 
L 3159 4588 
L 3159 4216 
L 409 4216 
L 409 4588 
L 1594 4588 
L 1594 5309 
L 2022 5309 
L 2022 4588 
z
M 1947 3181 
Q 2184 3716 2284 4206 
L 2713 4084 
Q 2569 3631 2350 3181 
L 3134 3181 
L 3134 2816 
L 959 2816 
L 959 2266 
Q 959 1225 891 653 
Q 803 63 563 -428 
L 225 -97 
Q 550 538 550 2266 
L 550 3181 
L 1947 3181 
z
M 1147 3194 
Q 1059 3656 872 4056 
L 1256 4184 
Q 1469 3725 1550 3334 
L 1147 3194 
z
M 1044 1869 
Q 1938 2166 2394 2803 
L 2741 2591 
Q 2169 1856 1275 1544 
L 1044 1869 
z
M 2816 -191 
Q 3528 141 3975 684 
L 4322 459 
Q 3813 -153 3150 -519 
L 2816 -191 
z
M 5763 -428 
Q 5253 97 4678 447 
L 5006 697 
Q 5638 331 6119 -122 
L 5763 -428 
z
M 1069 1025 
Q 2056 1300 2644 2034 
L 2978 1825 
Q 2338 1003 1319 678 
L 1069 1025 
z
M 953 -25 
Q 2109 269 2844 1159 
L 3181 928 
Q 2431 -13 1216 -391 
L 953 -25 
z
" transform="scale(0.015625)"/>
      <path id="IPAexGothic-300d" d="M 1819 4209 
L 2266 4209 
L 2266 -434 
L 525 -434 
L 525 13 
L 1819 13 
L 1819 4209 
z
" transform="scale(0.015625)"/>
     </defs>
     <use xlink:href="#IPAexGothic-5217"/>
     <use xlink:href="#IPAexGothic-540d" x="100"/>
     <use xlink:href="#IPAexGothic-30fb" x="200"/>
     <use xlink:href="#IPAexGothic-5024" x="300"/>
     <use xlink:href="#IPAexGothic-306e" x="400"/>
     <use xlink:href="#IPAexGothic-5f62" x="500"/>
     <use xlink:href="#IPAexGothic-5f0f" x="600"/>
     <use xlink:href="#IPAexGothic-30fb" x="700"/>
     <use xlink:href="#IPAexGothic-30c7" x="800"/>
     <use xlink:href="#IPAexGothic-30fc" x="900"/>
     <use xlink:href="#IPAexGothic-30bf" x="1000"/>
     <use xlink:href="#IPAexGothic-306e" x="1100"/>
     <use xlink:href="#IPAexGothic-300c" x="1200"/>
     <use xlink:href="#IPAexGothic-9854" x="1300"/>
     <use xlink:href="#IPAexGothic-300d" x="1400"/>
    </g>
   </g>
   <g id="text_9">
    <!-- df.info() -->
    <g style="fill: #2c3e50" transform="translate(38.88 147.557617) scale(0.125 -0.125)">
     <defs>
      <path id="IPAexGothic-69" d="M 1178 3928 
L 550 3928 
L 550 4569 
L 1178 4569 
L 1178 3928 
z
M 1138 63 
L 588 63 
L 588 3250 
L 1138 3250 
L 1138 63 
z
" transform="scale(0.015625)"/>
      <path id="IPAexGothic-6e" d="M 3328 63 
L 2778 63 
L 2778 2041 
Q 2778 2853 2106 2853 
Q 1428 2853 1113 2041 
L 1113 63 
L 563 63 
L 563 3250 
L 1075 3250 
L 1075 2675 
Q 1525 3316 2222 3316 
Q 3328 3316 3328 2072 
L 3328 63 
z
" transform="scale(0.015625)"/>
      <path id="IPAexGothic-6f" d="M 1919 3341 
Q 2594 3341 3056 2888 
Q 3531 2413 3531 1638 
Q 3531 888 3066 422 
Q 2609 -31 1919 -31 
Q 1228 -31 781 416 
Q 313 881 313 1656 
Q 313 2413 788 2888 
Q 1241 3341 1919 3341 
z
M 1919 2919 
Q 1519 2919 1241 2631 
Q 888 2278 888 1650 
Q 888 1031 1234 684 
Q 1516 403 1919 403 
Q 2331 403 2609 691 
Q 2956 1038 2956 1672 
Q 2956 2269 2603 2631 
Q 2316 2919 1919 2919 
z
" transform="scale(0.015625)"/>
     </defs>
     <use xlink:href="#IPAexGothic-64"/>
     <use xlink:href="#IPAexGothic-66" x="62.402344"/>
     <use xlink:href="#IPAexGothic-2e" x="93.017578"/>
     <use xlink:href="#IPAexGothic-69" x="119.433594"/>
     <use xlink:href="#IPAexGothic-6e" x="146.435547"/>
     <use xlink:href="#IPAexGothic-66" x="206.835938"/>
     <use xlink:href="#IPAexGothic-6f" x="237.451172"/>
     <use xlink:href="#IPAexGothic-28" x="297.851562"/>
     <use xlink:href="#IPAexGothic-29" x="331.152344"/>
    </g>
   </g>
   <g id="text_10">
    <!-- 列名・データ型・欠損件数 -->
    <g style="fill: #2c3e50" transform="translate(182.88 147.564453) scale(0.125 -0.125)">
     <defs>
      <path id="IPAexGothic-578b" d="M 2931 4647 
L 2931 3713 
L 3750 3713 
L 3750 3341 
L 2931 3341 
L 2931 1906 
L 2509 1906 
L 2509 3341 
L 1766 3341 
Q 1688 2388 934 1709 
L 606 2022 
Q 1256 2519 1344 3341 
L 441 3341 
L 441 3713 
L 1356 3713 
L 1356 4647 
L 691 4647 
L 691 5019 
L 3541 5019 
L 3541 4647 
L 2931 4647 
z
M 2509 4647 
L 1778 4647 
L 1778 3713 
L 2509 3713 
L 2509 4647 
z
M 2938 1350 
L 2938 1850 
L 3413 1850 
L 3413 1350 
L 5434 1350 
L 5434 953 
L 3413 953 
L 3413 178 
L 6019 178 
L 6019 -231 
L 384 -231 
L 384 178 
L 2938 178 
L 2938 953 
L 959 953 
L 959 1350 
L 2938 1350 
z
M 4000 4844 
L 4441 4844 
L 4441 2700 
L 4000 2700 
L 4000 4844 
z
M 5256 5153 
L 5697 5153 
L 5697 2278 
Q 5697 2003 5556 1909 
Q 5428 1819 5141 1819 
Q 4734 1819 4284 1875 
L 4225 2309 
Q 4700 2228 5050 2228 
Q 5256 2228 5256 2444 
L 5256 5153 
z
" transform="scale(0.015625)"/>
      <path id="IPAexGothic-6b20" d="M 3241 2347 
Q 2847 388 822 -372 
L 481 63 
Q 2931 784 2931 3403 
L 2931 3744 
L 1997 3744 
Q 1613 2813 1013 2125 
L 647 2491 
Q 1578 3516 1953 5241 
L 2441 5125 
Q 2322 4650 2159 4172 
L 5422 4172 
L 5769 3916 
Q 5253 2869 4725 2188 
L 4309 2481 
Q 4781 3025 5128 3744 
L 3419 3744 
L 3419 3384 
Q 3419 2472 4150 1522 
Q 4778 697 5972 209 
L 5600 -256 
Q 3700 741 3241 2347 
z
" transform="scale(0.015625)"/>
      <path id="IPAexGothic-640d" d="M 1178 4013 
L 1178 5300 
L 1606 5300 
L 1606 4013 
L 2316 4013 
L 2316 3597 
L 1606 3597 
L 1606 2381 
Q 1797 2438 2259 2597 
L 2291 2216 
Q 2022 2106 1606 1972 
L 1606 0 
Q 1606 -272 1484 -363 
Q 1384 -447 1094 -447 
Q 797 -447 519 -409 
L 441 50 
Q 719 -6 966 -6 
Q 1178 -6 1178 172 
L 1178 1831 
Q 753 1703 403 1619 
L 275 2047 
Q 741 2144 1153 2253 
L 1178 2259 
L 1178 3597 
L 372 3597 
L 372 4013 
L 1178 4013 
z
M 5428 5038 
L 5428 3731 
L 2816 3731 
L 2816 5038 
L 5428 5038 
z
M 3244 4678 
L 3244 4084 
L 4997 4084 
L 4997 4678 
L 3244 4678 
z
M 5753 3391 
L 5753 659 
L 2509 659 
L 2509 3391 
L 5753 3391 
z
M 2938 3038 
L 2938 2597 
L 5325 2597 
L 5325 3038 
L 2938 3038 
z
M 2938 2256 
L 2938 1813 
L 5325 1813 
L 5325 2256 
L 2938 2256 
z
M 2938 1472 
L 2938 1006 
L 5325 1006 
L 5325 1472 
L 2938 1472 
z
M 2034 -122 
Q 2828 141 3469 609 
L 3781 313 
Q 3153 -172 2347 -513 
L 2034 -122 
z
M 5803 -447 
Q 5113 16 4356 319 
L 4653 634 
Q 5450 325 6150 -78 
L 5803 -447 
z
" transform="scale(0.015625)"/>
      <path id="IPAexGothic-4ef6" d="M 3903 3425 
L 2906 3425 
Q 2697 2825 2309 2247 
L 1991 2572 
Q 2588 3497 2803 4788 
L 3256 4713 
Q 3175 4313 3041 3834 
L 3903 3834 
L 3903 5250 
L 4356 5250 
L 4356 3834 
L 5731 3834 
L 5731 3425 
L 4356 3425 
L 4356 2009 
L 6041 2009 
L 6041 1594 
L 4356 1594 
L 4356 -447 
L 3903 -447 
L 3903 1594 
L 2078 1594 
L 2078 2009 
L 3903 2009 
L 3903 3425 
z
M 1638 3681 
L 1638 -447 
L 1169 -447 
L 1169 2753 
Q 881 2272 575 1863 
L 313 2253 
Q 1238 3463 1650 5184 
L 2125 5069 
Q 1909 4316 1638 3681 
z
" transform="scale(0.015625)"/>
      <path id="IPAexGothic-6570" d="M 2847 1553 
Q 2741 1006 2425 534 
Q 2625 441 3091 203 
L 2809 -188 
Q 2541 0 2144 209 
Q 1569 -291 703 -500 
L 422 -125 
Q 1263 19 1747 406 
Q 1222 650 734 816 
Q 975 1172 1147 1503 
L 1172 1553 
L 359 1553 
L 359 1925 
L 1344 1925 
Q 1406 2066 1569 2475 
L 1691 2450 
L 1691 3372 
Q 1250 2738 550 2303 
L 275 2663 
Q 1019 3013 1528 3641 
L 378 3641 
L 378 4006 
L 1691 4006 
L 1691 5313 
L 2113 5313 
L 2113 4006 
L 3297 4006 
L 3297 3641 
L 2113 3641 
L 2113 3513 
Q 2659 3291 3175 2963 
L 2956 2584 
Q 2553 2922 2113 3159 
L 2113 2372 
L 1966 2372 
Q 1928 2288 1872 2141 
Q 1806 1975 1784 1925 
L 3378 1925 
L 3378 1553 
L 2847 1553 
z
M 2419 1553 
L 1613 1553 
Q 1478 1269 1313 997 
Q 1559 909 2047 703 
Q 2313 1047 2419 1553 
z
M 4363 1163 
Q 3953 1781 3738 2638 
Q 3575 2281 3428 2016 
L 3103 2406 
Q 3675 3444 3916 5291 
L 4363 5200 
Q 4284 4666 4197 4197 
L 6009 4197 
L 6009 3775 
L 5503 3775 
Q 5397 2275 4869 1191 
Q 5419 503 6144 75 
L 5822 -378 
Q 5188 106 4631 788 
Q 4113 34 3341 -463 
L 3031 -78 
Q 3888 406 4363 1163 
z
M 4588 1594 
Q 4938 2388 5059 3775 
L 4100 3775 
Q 4041 3519 3972 3288 
Q 3981 3250 3991 3194 
Q 4175 2256 4588 1594 
z
M 1003 4116 
Q 878 4544 638 4934 
L 1053 5094 
Q 1247 4788 1438 4269 
L 1003 4116 
z
M 2316 4269 
Q 2550 4688 2688 5131 
L 3128 4997 
Q 2966 4588 2675 4128 
L 2316 4269 
z
" transform="scale(0.015625)"/>
     </defs>
     <use xlink:href="#IPAexGothic-5217"/>
     <use xlink:href="#IPAexGothic-540d" x="100"/>
     <use xlink:href="#IPAexGothic-30fb" x="200"/>
     <use xlink:href="#IPAexGothic-30c7" x="300"/>
     <use xlink:href="#IPAexGothic-30fc" x="400"/>
     <use xlink:href="#IPAexGothic-30bf" x="500"/>
     <use xlink:href="#IPAexGothic-578b" x="600"/>
     <use xlink:href="#IPAexGothic-30fb" x="700"/>
     <use xlink:href="#IPAexGothic-6b20" x="800"/>
     <use xlink:href="#IPAexGothic-640d" x="900"/>
     <use xlink:href="#IPAexGothic-4ef6" x="1000"/>
     <use xlink:href="#IPAexGothic-6570" x="1100"/>
    </g>
   </g>
   <g id="text_11">
    <!-- 型が正しいか・欠損がないか -->
    <g style="fill: #2c3e50" transform="translate(341.28 147.494141) scale(0.125 -0.125)">
     <defs>
      <path id="IPAexGothic-6b63" d="M 3547 409 
L 5916 409 
L 5916 -31 
L 481 -31 
L 481 409 
L 1441 409 
L 1441 3231 
L 1934 3231 
L 1934 409 
L 3059 409 
L 3059 4288 
L 750 4288 
L 750 4728 
L 5659 4728 
L 5659 4288 
L 3547 4288 
L 3547 2669 
L 5353 2669 
L 5353 2241 
L 3547 2241 
L 3547 409 
z
" transform="scale(0.015625)"/>
      <path id="IPAexGothic-3057" d="M 1750 4884 
L 2281 4884 
L 2238 1319 
Q 2228 809 2391 569 
Q 2594 281 3128 281 
Q 3772 281 4344 744 
Q 4822 1131 5156 1759 
L 5534 1369 
Q 5094 653 4534 263 
Q 3878 -206 3134 -206 
Q 2341 -206 1994 213 
Q 1697 575 1706 1269 
L 1750 4884 
z
" transform="scale(0.015625)"/>
      <path id="IPAexGothic-3044" d="M 3369 1447 
Q 2906 122 2278 122 
Q 1966 122 1647 481 
Q 1209 966 1044 1966 
Q 891 2888 891 4313 
L 1422 4313 
Q 1413 2444 1666 1550 
Q 1913 678 2278 678 
Q 2619 678 2925 1791 
L 3369 1447 
z
M 5378 1294 
Q 4928 2797 4034 3809 
L 4488 4031 
Q 5375 3000 5881 1563 
L 5378 1294 
z
" transform="scale(0.015625)"/>
      <path id="IPAexGothic-306a" d="M 3906 3147 
L 4372 3147 
Q 4381 2278 4444 1272 
Q 5244 1003 5838 631 
L 5556 222 
Q 4953 600 4463 813 
Q 4478 263 4234 22 
Q 3984 -225 3419 -225 
Q 2897 -225 2563 0 
Q 2216 231 2216 647 
Q 2216 1081 2656 1319 
Q 2959 1484 3297 1484 
Q 3638 1484 3969 1413 
Q 3916 2219 3906 3147 
z
M 3975 984 
Q 3631 1081 3297 1081 
Q 3031 1081 2856 978 
Q 2663 863 2663 653 
Q 2663 197 3400 197 
Q 3750 197 3875 378 
Q 3997 556 3975 984 
z
M 738 3928 
Q 1453 3884 1997 3938 
Q 2144 4381 2294 5125 
L 2784 5050 
Q 2684 4559 2516 3988 
Q 2969 4031 3559 4172 
L 3578 3713 
Q 2919 3575 2375 3531 
Q 1853 2028 1044 831 
L 603 1113 
Q 1325 2063 1856 3488 
Q 1063 3459 763 3475 
L 738 3928 
z
M 5538 2759 
Q 5000 3353 4263 3853 
L 4591 4191 
Q 5338 3728 5897 3128 
L 5538 2759 
z
" transform="scale(0.015625)"/>
     </defs>
     <use xlink:href="#IPAexGothic-578b"/>
     <use xlink:href="#IPAexGothic-304c" x="100"/>
     <use xlink:href="#IPAexGothic-6b63" x="200"/>
     <use xlink:href="#IPAexGothic-3057" x="300"/>
     <use xlink:href="#IPAexGothic-3044" x="400"/>
     <use xlink:href="#IPAexGothic-304b" x="500"/>
     <use xlink:href="#IPAexGothic-30fb" x="600"/>
     <use xlink:href="#IPAexGothic-6b20" x="700"/>
     <use xlink:href="#IPAexGothic-640d" x="800"/>
     <use xlink:href="#IPAexGothic-304c" x="900"/>
     <use xlink:href="#IPAexGothic-306a" x="1000"/>
     <use xlink:href="#IPAexGothic-3044" x="1100"/>
     <use xlink:href="#IPAexGothic-304b" x="1200"/>
    </g>
   </g>
   <g id="text_12">
    <!-- df.describe() -->
    <g style="fill: #2c3e50" transform="translate(38.88 176.357617) scale(0.125 -0.125)">
     <defs>
      <path id="IPAexGothic-73" d="M 2234 2547 
Q 1938 2931 1484 2931 
Q 891 2931 891 2475 
Q 891 2153 1531 1944 
L 1741 1875 
Q 2650 1578 2650 894 
Q 2650 434 2272 172 
Q 1972 -31 1497 -31 
Q 766 -31 256 503 
L 603 819 
Q 997 397 1516 397 
Q 2131 397 2131 875 
Q 2131 1238 1453 1478 
L 1234 1553 
Q 378 1853 378 2431 
Q 378 2797 628 3047 
Q 928 3347 1453 3347 
Q 2156 3347 2606 2859 
L 2234 2547 
z
" transform="scale(0.015625)"/>
      <path id="IPAexGothic-63" d="M 3269 784 
Q 2834 -31 1900 -31 
Q 1228 -31 788 409 
Q 313 891 313 1663 
Q 313 2428 788 2913 
Q 1222 3347 1881 3347 
Q 2813 3347 3206 2541 
L 2763 2309 
Q 2484 2900 1900 2900 
Q 1516 2900 1234 2619 
Q 881 2266 881 1650 
Q 881 1069 1222 728 
Q 1522 428 1956 428 
Q 2547 428 2847 1016 
L 3269 784 
z
" transform="scale(0.015625)"/>
      <path id="IPAexGothic-72" d="M 2309 3316 
L 2213 2769 
Q 2106 2791 2022 2791 
Q 1653 2791 1413 2444 
Q 1113 2006 1113 1675 
L 1113 63 
L 563 63 
L 563 3250 
L 1081 3250 
L 1056 2303 
L 1069 2303 
Q 1422 3341 2097 3341 
Q 2206 3341 2309 3316 
z
" transform="scale(0.015625)"/>
      <path id="IPAexGothic-62" d="M 1125 2731 
Q 1550 3341 2219 3341 
Q 2788 3341 3191 2938 
Q 3659 2469 3659 1644 
Q 3659 838 3191 372 
Q 2788 -31 2206 -31 
Q 1559 -31 1088 516 
L 1009 44 
L 581 44 
L 581 4794 
L 1125 4794 
L 1125 2731 
z
M 1125 1997 
L 1125 1253 
Q 1125 888 1528 600 
Q 1803 403 2119 403 
Q 2488 403 2744 659 
Q 3084 1009 3084 1631 
Q 3084 2194 2803 2553 
Q 2525 2900 2125 2900 
Q 1759 2900 1438 2578 
Q 1125 2266 1125 1997 
z
" transform="scale(0.015625)"/>
     </defs>
     <use xlink:href="#IPAexGothic-64"/>
     <use xlink:href="#IPAexGothic-66" x="62.402344"/>
     <use xlink:href="#IPAexGothic-2e" x="93.017578"/>
     <use xlink:href="#IPAexGothic-64" x="119.433594"/>
     <use xlink:href="#IPAexGothic-65" x="181.835938"/>
     <use xlink:href="#IPAexGothic-73" x="238.720703"/>
     <use xlink:href="#IPAexGothic-63" x="284.912109"/>
     <use xlink:href="#IPAexGothic-72" x="339.306641"/>
     <use xlink:href="#IPAexGothic-69" x="376.318359"/>
     <use xlink:href="#IPAexGothic-62" x="403.320312"/>
     <use xlink:href="#IPAexGothic-65" x="465.722656"/>
     <use xlink:href="#IPAexGothic-28" x="522.607422"/>
     <use xlink:href="#IPAexGothic-29" x="555.908203"/>
    </g>
   </g>
   <g id="text_13">
    <!-- 平均・最大・最小・標準偏差 -->
    <g style="fill: #2c3e50" transform="translate(182.88 176.294141) scale(0.125 -0.125)">
     <defs>
      <path id="IPAexGothic-5e73" d="M 3422 4428 
L 3422 1941 
L 6084 1941 
L 6084 1513 
L 3422 1513 
L 3422 -447 
L 2934 -447 
L 2934 1513 
L 322 1513 
L 322 1941 
L 2934 1941 
L 2934 4428 
L 641 4428 
L 641 4856 
L 5763 4856 
L 5763 4428 
L 3422 4428 
z
M 1728 2278 
Q 1488 3094 1081 3859 
L 1544 4038 
Q 1875 3422 2222 2472 
L 1728 2278 
z
M 4134 2425 
Q 4509 3138 4813 4128 
L 5306 3944 
Q 4984 3006 4569 2228 
L 4134 2425 
z
" transform="scale(0.015625)"/>
      <path id="IPAexGothic-5747" d="M 1206 3794 
L 1206 5144 
L 1659 5144 
L 1659 3794 
L 2369 3794 
L 2369 3372 
L 1659 3372 
L 1659 1325 
Q 2078 1513 2484 1722 
L 2566 1313 
Q 1556 775 559 397 
L 334 838 
Q 803 975 1206 1138 
L 1206 3372 
L 413 3372 
L 413 3794 
L 1206 3794 
z
M 3475 4244 
L 5844 4244 
Q 5834 1131 5619 184 
Q 5494 -366 4838 -366 
Q 4369 -366 3859 -306 
L 3769 184 
Q 4241 88 4731 88 
Q 5059 88 5147 306 
Q 5359 919 5369 3828 
L 3316 3828 
Q 3013 3119 2466 2472 
L 2150 2828 
Q 2944 3788 3259 5263 
L 3719 5147 
Q 3619 4663 3475 4244 
z
M 2975 2847 
L 4678 2847 
L 4678 2431 
L 2975 2431 
L 2975 2847 
z
M 2559 1044 
Q 3747 1338 4838 1797 
L 4891 1388 
Q 3831 891 2766 588 
L 2559 1044 
z
" transform="scale(0.015625)"/>
      <path id="IPAexGothic-6700" d="M 5106 5050 
L 5106 3275 
L 1284 3275 
L 1284 5050 
L 5106 5050 
z
M 1741 4697 
L 1741 4331 
L 4656 4331 
L 4656 4697 
L 1741 4697 
z
M 1741 4000 
L 1741 3622 
L 4656 3622 
L 4656 4000 
L 1741 4000 
z
M 2925 2528 
L 2925 -450 
L 2503 -450 
L 2503 228 
Q 1869 94 525 -78 
L 409 356 
Q 491 363 609 372 
Q 725 381 756 381 
L 994 403 
L 994 2528 
L 384 2528 
L 384 2900 
L 6016 2900 
L 6016 2528 
L 2925 2528 
z
M 2503 2528 
L 1400 2528 
L 1400 2088 
L 2503 2088 
L 2503 2528 
z
M 2503 1763 
L 1400 1763 
L 1400 1309 
L 2503 1309 
L 2503 1763 
z
M 2503 984 
L 1400 984 
L 1400 434 
L 1759 472 
Q 2159 500 2503 550 
L 2503 984 
z
M 4844 588 
Q 5350 225 6047 -9 
L 5753 -419 
Q 5066 -128 4556 288 
Q 4000 -241 3281 -534 
L 3006 -163 
Q 3734 84 4263 563 
Q 3722 1141 3463 1803 
L 3084 1803 
L 3084 2169 
L 5425 2169 
L 5656 1963 
Q 5328 1178 4881 638 
L 4844 588 
z
M 4538 850 
Q 4884 1275 5119 1803 
L 3872 1803 
Q 4113 1275 4538 850 
z
" transform="scale(0.015625)"/>
      <path id="IPAexGothic-5927" d="M 3528 3181 
Q 4150 1197 6003 275 
L 5647 -184 
Q 3891 831 3259 2681 
Q 2894 644 872 -344 
L 513 97 
Q 1678 528 2344 1538 
Q 2784 2219 2900 3181 
L 481 3181 
L 481 3628 
L 2925 3628 
L 2925 5150 
L 3431 5150 
L 3431 3628 
L 5922 3628 
L 5922 3181 
L 3528 3181 
z
" transform="scale(0.015625)"/>
      <path id="IPAexGothic-5c0f" d="M 2944 5006 
L 3450 5006 
L 3450 359 
Q 3450 41 3322 -97 
Q 3181 -238 2759 -238 
Q 2388 -238 1931 -197 
L 1831 313 
Q 2244 231 2694 231 
Q 2944 231 2944 475 
L 2944 5006 
z
M 5453 1031 
Q 4928 2516 4172 3719 
L 4600 3916 
Q 5400 2650 5944 1281 
L 5453 1031 
z
M 434 1259 
Q 1238 2231 1553 3769 
L 2041 3641 
Q 1675 1938 825 897 
L 434 1259 
z
" transform="scale(0.015625)"/>
      <path id="IPAexGothic-6a19" d="M 1113 2534 
Q 813 1522 384 794 
L 153 1250 
Q 763 2228 1063 3547 
L 294 3547 
L 294 3956 
L 1113 3956 
L 1113 5306 
L 1522 5306 
L 1522 3956 
L 2144 3956 
L 2144 3547 
L 1522 3547 
L 1522 3009 
Q 1991 2634 2309 2288 
L 2059 1844 
Q 1813 2222 1522 2550 
L 1522 -447 
L 1113 -447 
L 1113 2534 
z
M 3353 4109 
L 3353 4641 
L 2100 4641 
L 2100 5019 
L 5997 5019 
L 5997 4641 
L 4753 4641 
L 4753 4109 
L 5778 4109 
L 5778 2769 
L 2356 2769 
L 2356 4109 
L 3353 4109 
z
M 3756 4109 
L 4350 4109 
L 4350 4641 
L 3756 4641 
L 3756 4109 
z
M 3359 3756 
L 2772 3756 
L 2772 3122 
L 3359 3122 
L 3359 3756 
z
M 3756 3756 
L 3756 3122 
L 4350 3122 
L 4350 3756 
L 3756 3756 
z
M 4741 3756 
L 4741 3122 
L 5363 3122 
L 5363 3756 
L 4741 3756 
z
M 4300 1191 
L 4300 19 
Q 4300 -409 3809 -409 
Q 3469 -409 3175 -372 
L 3097 78 
Q 3416 0 3675 0 
Q 3866 0 3866 184 
L 3866 1191 
L 2100 1191 
L 2100 1563 
L 6072 1563 
L 6072 1191 
L 4300 1191 
z
M 2481 2350 
L 5669 2350 
L 5669 1984 
L 2481 1984 
L 2481 2350 
z
M 1938 13 
Q 2534 406 2938 1069 
L 3322 891 
Q 2903 150 2272 -306 
L 1938 13 
z
M 5722 -191 
Q 5166 459 4666 838 
L 4978 1088 
Q 5572 681 6094 134 
L 5722 -191 
z
" transform="scale(0.015625)"/>
      <path id="IPAexGothic-6e96" d="M 4341 4141 
L 4341 3694 
L 5506 3694 
L 5506 3353 
L 4341 3353 
L 4341 2906 
L 5506 2906 
L 5506 2566 
L 4341 2566 
L 4341 2088 
L 5922 2088 
L 5922 1722 
L 3413 1722 
L 3413 1100 
L 6081 1100 
L 6081 703 
L 3413 703 
L 3413 -450 
L 2938 -450 
L 2938 703 
L 319 703 
L 319 1100 
L 2938 1100 
L 2938 1722 
L 2450 1722 
L 2450 3644 
Q 2288 3441 2047 3188 
L 1759 3528 
Q 2531 4259 2841 5288 
L 3297 5166 
Q 3156 4800 3003 4500 
L 3969 4500 
Q 4163 4869 4284 5269 
L 4756 5159 
Q 4572 4759 4409 4500 
L 5794 4500 
L 5794 4141 
L 4341 4141 
z
M 3931 4141 
L 2878 4141 
L 2878 3694 
L 3931 3694 
L 3931 4141 
z
M 2878 2088 
L 3931 2088 
L 3931 2566 
L 2878 2566 
L 2878 2088 
z
M 2878 2906 
L 3931 2906 
L 3931 3353 
L 2878 3353 
L 2878 2906 
z
M 497 1778 
Q 1053 2316 1625 3178 
L 1913 2897 
Q 1484 2128 875 1431 
L 497 1778 
z
M 1559 4134 
Q 1109 4519 678 4769 
L 941 5131 
Q 1494 4831 1834 4519 
L 1559 4134 
z
M 1297 3141 
Q 997 3388 397 3763 
L 631 4122 
Q 1153 3847 1547 3538 
L 1297 3141 
z
" transform="scale(0.015625)"/>
      <path id="IPAexGothic-504f" d="M 1503 3653 
L 1503 -447 
L 1063 -447 
L 1063 2700 
Q 816 2247 538 1863 
L 288 2253 
Q 1175 3556 1528 5325 
L 1963 5222 
Q 1800 4438 1503 3653 
z
M 5681 4116 
L 5681 2859 
L 2616 2859 
L 2616 2769 
Q 2616 2603 2609 2406 
L 5863 2406 
L 5863 13 
Q 5863 -213 5772 -300 
Q 5688 -384 5466 -384 
Q 5281 -384 5138 -359 
L 5081 72 
Q 5216 31 5338 31 
Q 5447 31 5447 191 
L 5447 916 
L 4856 916 
L 4856 -281 
L 4459 -281 
L 4459 916 
L 3922 916 
L 3922 -281 
L 3525 -281 
L 3525 916 
L 2988 916 
L 2988 -447 
L 2578 -447 
L 2578 1997 
L 2566 1997 
Q 2441 594 1881 -347 
L 1591 31 
Q 1981 672 2097 1466 
Q 2188 2072 2188 2950 
L 2188 4116 
L 5681 4116 
z
M 5253 3763 
L 2616 3763 
L 2616 3213 
L 5253 3213 
L 5253 3763 
z
M 2988 2053 
L 2988 1253 
L 3525 1253 
L 3525 2053 
L 2988 2053 
z
M 5447 1253 
L 5447 2053 
L 4856 2053 
L 4856 1253 
L 5447 1253 
z
M 3922 2053 
L 3922 1253 
L 4459 1253 
L 4459 2053 
L 3922 2053 
z
M 1997 4966 
L 5978 4966 
L 5978 4594 
L 1997 4594 
L 1997 4966 
z
" transform="scale(0.015625)"/>
      <path id="IPAexGothic-5dee" d="M 2188 4481 
Q 2013 4781 1766 5084 
L 2194 5275 
Q 2459 4913 2669 4481 
L 3659 4481 
Q 3931 4881 4100 5294 
L 4575 5122 
Q 4353 4766 4150 4481 
L 5725 4481 
L 5725 4103 
L 3403 4103 
L 3403 3519 
L 5431 3519 
L 5431 3147 
L 3403 3147 
L 3403 2534 
L 5975 2534 
L 5975 2138 
L 2341 2138 
Q 2225 1813 2041 1466 
L 5431 1466 
L 5431 1081 
L 3813 1081 
L 3813 103 
L 5913 103 
L 5913 -294 
L 1338 -294 
L 1338 103 
L 3344 103 
L 3344 1081 
L 1803 1081 
Q 1331 400 588 -172 
L 281 200 
Q 1394 966 1875 2138 
L 416 2138 
L 416 2534 
L 2950 2534 
L 2950 3147 
L 959 3147 
L 959 3519 
L 2950 3519 
L 2950 4103 
L 666 4103 
L 666 4481 
L 2188 4481 
z
" transform="scale(0.015625)"/>
     </defs>
     <use xlink:href="#IPAexGothic-5e73"/>
     <use xlink:href="#IPAexGothic-5747" x="100"/>
     <use xlink:href="#IPAexGothic-30fb" x="200"/>
     <use xlink:href="#IPAexGothic-6700" x="300"/>
     <use xlink:href="#IPAexGothic-5927" x="400"/>
     <use xlink:href="#IPAexGothic-30fb" x="500"/>
     <use xlink:href="#IPAexGothic-6700" x="600"/>
     <use xlink:href="#IPAexGothic-5c0f" x="700"/>
     <use xlink:href="#IPAexGothic-30fb" x="800"/>
     <use xlink:href="#IPAexGothic-6a19" x="900"/>
     <use xlink:href="#IPAexGothic-6e96" x="1000"/>
     <use xlink:href="#IPAexGothic-504f" x="1100"/>
     <use xlink:href="#IPAexGothic-5dee" x="1200"/>
    </g>
   </g>
   <g id="text_14">
    <!-- 異常に大きい値・値の範囲 -->
    <g style="fill: #2c3e50" transform="translate(341.28 176.294141) scale(0.125 -0.125)">
     <defs>
      <path id="IPAexGothic-7570" d="M 4369 2828 
L 4369 2216 
L 5616 2216 
L 5616 1844 
L 4369 1844 
L 4369 1247 
L 6078 1247 
L 6078 863 
L 313 863 
L 313 1247 
L 1975 1247 
L 1975 1844 
L 772 1844 
L 772 2216 
L 1975 2216 
L 1975 2828 
L 1094 2828 
L 1094 5025 
L 5297 5025 
L 5297 2828 
L 4369 2828 
z
M 3922 2828 
L 2428 2828 
L 2428 2216 
L 3922 2216 
L 3922 2828 
z
M 3922 1844 
L 2428 1844 
L 2428 1247 
L 3922 1247 
L 3922 1844 
z
M 1534 4659 
L 1534 4109 
L 2959 4109 
L 2959 4659 
L 1534 4659 
z
M 1534 3756 
L 1534 3181 
L 2959 3181 
L 2959 3756 
L 1534 3756 
z
M 4856 3181 
L 4856 3756 
L 3391 3756 
L 3391 3181 
L 4856 3181 
z
M 4856 4109 
L 4856 4659 
L 3391 4659 
L 3391 4109 
L 4856 4109 
z
M 394 -97 
Q 1472 225 2225 750 
L 2641 488 
Q 1778 -116 741 -506 
L 394 -97 
z
M 5456 -397 
Q 4619 75 3588 488 
L 3978 769 
Q 4909 475 5859 13 
L 5456 -397 
z
" transform="scale(0.015625)"/>
      <path id="IPAexGothic-5e38" d="M 2944 1697 
L 2944 2150 
L 1534 2150 
L 1534 3475 
L 4856 3475 
L 4856 2150 
L 3413 2150 
L 3413 1697 
L 5459 1697 
L 5459 359 
Q 5459 -122 4888 -122 
Q 4506 -122 4184 -84 
L 4109 384 
Q 4428 319 4772 319 
Q 5006 319 5006 550 
L 5006 1313 
L 3413 1313 
L 3413 -453 
L 2944 -453 
L 2944 1313 
L 1413 1313 
L 1413 -197 
L 959 -197 
L 959 1697 
L 2944 1697 
z
M 1991 2522 
L 4403 2522 
L 4403 3097 
L 1991 3097 
L 1991 2522 
z
M 1784 4238 
Q 1550 4672 1328 4947 
L 1741 5172 
Q 2038 4825 2259 4409 
L 1963 4238 
L 2944 4238 
L 2944 5313 
L 3413 5313 
L 3413 4238 
L 3988 4238 
Q 4306 4725 4481 5184 
L 4953 4994 
Q 4747 4566 4506 4238 
L 5803 4238 
L 5803 3009 
L 5350 3009 
L 5350 3853 
L 1034 3853 
L 1034 3009 
L 581 3009 
L 581 4238 
L 1784 4238 
z
" transform="scale(0.015625)"/>
      <path id="IPAexGothic-304d" d="M 2944 1600 
Q 2369 1600 2053 1428 
Q 1772 1275 1772 1019 
Q 1772 666 2200 481 
Q 2600 309 3903 309 
Q 4138 309 4397 331 
L 4422 -147 
Q 4203 -166 3969 -166 
Q 2325 -166 1819 141 
Q 1313 444 1313 994 
Q 1313 1447 1791 1738 
Q 2219 1997 2859 1997 
Q 3319 1997 3606 1947 
Q 3894 1894 4216 1759 
Q 3953 2050 3506 2791 
Q 2263 2547 1191 2491 
L 1094 2956 
Q 2263 2966 3281 3175 
Q 3019 3647 2950 3794 
Q 2125 3641 1253 3622 
L 1166 4063 
Q 2013 4063 2750 4184 
Q 2478 4744 2381 4984 
L 2841 5131 
Q 2925 4916 3213 4281 
Q 3888 4438 4459 4709 
L 4672 4313 
Q 4119 4056 3409 3891 
Q 3638 3447 3738 3284 
Q 4528 3503 5113 3794 
L 5331 3366 
Q 4738 3094 3953 2900 
Q 4272 2366 4903 1484 
L 4575 1147 
Q 3888 1600 2944 1600 
z
" transform="scale(0.015625)"/>
      <path id="IPAexGothic-7bc4" d="M 1613 2631 
L 1613 2938 
L 397 2938 
L 397 3291 
L 1613 3291 
L 1613 3731 
L 2003 3731 
L 2003 3291 
L 3238 3291 
L 3238 2938 
L 2003 2938 
L 2003 2631 
L 3013 2631 
L 3013 978 
L 2003 978 
L 2003 628 
L 3300 628 
L 3300 275 
L 2003 275 
L 2003 -447 
L 1613 -447 
L 1613 275 
L 328 275 
L 328 628 
L 1613 628 
L 1613 978 
L 634 978 
L 634 2631 
L 1613 2631 
z
M 1619 2319 
L 1019 2319 
L 1019 1966 
L 1619 1966 
L 1619 2319 
z
M 1997 2319 
L 1997 1966 
L 2622 1966 
L 2622 2319 
L 1997 2319 
z
M 1619 1666 
L 1019 1666 
L 1019 1291 
L 1619 1291 
L 1619 1666 
z
M 1997 1666 
L 1997 1291 
L 2622 1291 
L 2622 1666 
L 1997 1666 
z
M 3941 3072 
L 3941 288 
Q 3941 103 4038 63 
Q 4134 19 4672 19 
Q 5447 19 5553 116 
Q 5659 222 5669 872 
L 6103 750 
Q 6094 53 5944 -166 
Q 5778 -391 4800 -391 
Q 3944 -391 3744 -313 
Q 3513 -219 3513 178 
L 3513 3463 
L 5681 3463 
L 5681 1350 
Q 5681 922 5209 922 
Q 4778 922 4459 966 
L 4381 1381 
Q 4797 1313 5075 1313 
Q 5253 1313 5253 1509 
L 5253 3072 
L 3941 3072 
z
M 1413 4788 
L 3200 4788 
L 3200 4416 
L 2228 4416 
Q 2350 4184 2497 3800 
L 2066 3672 
Q 1959 4031 1791 4416 
L 1253 4416 
L 1241 4384 
Q 1006 3903 600 3469 
L 288 3744 
Q 884 4350 1150 5350 
L 1569 5275 
Q 1503 5038 1413 4788 
z
M 3963 4788 
L 6034 4788 
L 6034 4416 
L 4678 4416 
Q 4863 4141 5025 3806 
L 4594 3659 
Q 4406 4113 4225 4416 
L 3800 4416 
Q 3569 3934 3256 3584 
L 2925 3841 
Q 3434 4416 3694 5356 
L 4116 5263 
Q 4022 4956 3963 4788 
z
" transform="scale(0.015625)"/>
      <path id="IPAexGothic-56f2" d="M 2291 3494 
L 2291 4384 
L 2731 4384 
L 2731 3494 
L 3700 3494 
L 3700 4384 
L 4141 4384 
L 4141 3494 
L 4997 3494 
L 4997 3122 
L 4141 3122 
L 4141 2156 
L 5100 2156 
L 5100 1772 
L 4159 1772 
L 4159 447 
L 3719 447 
L 3719 1772 
L 2688 1772 
Q 2541 853 1766 344 
L 1441 666 
Q 2119 1069 2247 1772 
L 1291 1772 
L 1291 2156 
L 2284 2156 
Q 2291 2228 2291 2375 
L 2291 3122 
L 1388 3122 
L 1388 3494 
L 2291 3494 
z
M 3700 3122 
L 2731 3122 
L 2731 2475 
Q 2731 2272 2725 2156 
L 3700 2156 
L 3700 3122 
z
M 5759 4984 
L 5759 -447 
L 5300 -447 
L 5300 -172 
L 1097 -172 
L 1097 -447 
L 628 -447 
L 628 4984 
L 5759 4984 
z
M 1097 4575 
L 1097 244 
L 5300 244 
L 5300 4575 
L 1097 4575 
z
" transform="scale(0.015625)"/>
     </defs>
     <use xlink:href="#IPAexGothic-7570"/>
     <use xlink:href="#IPAexGothic-5e38" x="100"/>
     <use xlink:href="#IPAexGothic-306b" x="200"/>
     <use xlink:href="#IPAexGothic-5927" x="300"/>
     <use xlink:href="#IPAexGothic-304d" x="400"/>
     <use xlink:href="#IPAexGothic-3044" x="500"/>
     <use xlink:href="#IPAexGothic-5024" x="600"/>
     <use xlink:href="#IPAexGothic-30fb" x="700"/>
     <use xlink:href="#IPAexGothic-5024" x="800"/>
     <use xlink:href="#IPAexGothic-306e" x="900"/>
     <use xlink:href="#IPAexGothic-7bc4" x="1000"/>
     <use xlink:href="#IPAexGothic-56f2" x="1100"/>
    </g>
   </g>
   <g id="text_15">
    <!-- wine = load_wine() -->
    <g style="fill: #cdd6f4" transform="translate(40.32 203.875219) scale(0.105 -0.105)">
     <defs>
      <path id="DejaVuSansMono-77" d="M 0 3500 
L 569 3500 
L 1178 672 
L 1678 2478 
L 2169 2478 
L 2675 672 
L 3284 3500 
L 3853 3500 
L 3034 0 
L 2484 0 
L 1925 1919 
L 1369 0 
L 819 0 
L 0 3500 
z
" transform="scale(0.015625)"/>
      <path id="DejaVuSansMono-69" d="M 800 3500 
L 2272 3500 
L 2272 447 
L 3413 447 
L 3413 0 
L 556 0 
L 556 447 
L 1697 447 
L 1697 3053 
L 800 3053 
L 800 3500 
z
M 1697 4863 
L 2272 4863 
L 2272 4134 
L 1697 4134 
L 1697 4863 
z
" transform="scale(0.015625)"/>
      <path id="DejaVuSansMono-6e" d="M 3284 2169 
L 3284 0 
L 2706 0 
L 2706 2169 
Q 2706 2641 2540 2862 
Q 2375 3084 2022 3084 
Q 1619 3084 1401 2798 
Q 1184 2513 1184 1978 
L 1184 0 
L 609 0 
L 609 3500 
L 1184 3500 
L 1184 2975 
Q 1338 3275 1600 3429 
Q 1863 3584 2222 3584 
Q 2756 3584 3020 3232 
Q 3284 2881 3284 2169 
z
" transform="scale(0.015625)"/>
      <path id="DejaVuSansMono-65" d="M 3475 1894 
L 3475 1613 
L 984 1613 
L 984 1594 
Q 984 1022 1282 709 
Q 1581 397 2125 397 
Q 2400 397 2700 484 
Q 3000 572 3341 750 
L 3341 178 
Q 3013 44 2708 -23 
Q 2403 -91 2119 -91 
Q 1303 -91 843 398 
Q 384 888 384 1747 
Q 384 2584 834 3084 
Q 1284 3584 2034 3584 
Q 2703 3584 3089 3131 
Q 3475 2678 3475 1894 
z
M 2900 2063 
Q 2888 2569 2661 2833 
Q 2434 3097 2009 3097 
Q 1594 3097 1325 2822 
Q 1056 2547 1006 2059 
L 2900 2063 
z
" transform="scale(0.015625)"/>
      <path id="DejaVuSansMono-20" transform="scale(0.015625)"/>
      <path id="DejaVuSansMono-3d" d="M 275 1638 
L 3578 1638 
L 3578 1100 
L 275 1100 
L 275 1638 
z
M 275 2906 
L 3578 2906 
L 3578 2375 
L 275 2375 
L 275 2906 
z
" transform="scale(0.015625)"/>
      <path id="DejaVuSansMono-6c" d="M 1997 1269 
Q 1997 881 2139 684 
Q 2281 488 2559 488 
L 3231 488 
L 3231 0 
L 2503 0 
Q 1988 0 1705 331 
Q 1422 663 1422 1269 
L 1422 4447 
L 500 4447 
L 500 4897 
L 1997 4897 
L 1997 1269 
z
" transform="scale(0.015625)"/>
      <path id="DejaVuSansMono-6f" d="M 1925 3097 
Q 1488 3097 1263 2756 
Q 1038 2416 1038 1747 
Q 1038 1081 1263 739 
Q 1488 397 1925 397 
Q 2366 397 2591 739 
Q 2816 1081 2816 1747 
Q 2816 2416 2591 2756 
Q 2366 3097 1925 3097 
z
M 1925 3584 
Q 2653 3584 3039 3112 
Q 3425 2641 3425 1747 
Q 3425 850 3040 379 
Q 2656 -91 1925 -91 
Q 1197 -91 812 379 
Q 428 850 428 1747 
Q 428 2641 812 3112 
Q 1197 3584 1925 3584 
z
" transform="scale(0.015625)"/>
      <path id="DejaVuSansMono-61" d="M 2194 1759 
L 2003 1759 
Q 1500 1759 1245 1582 
Q 991 1406 991 1056 
Q 991 741 1181 566 
Q 1372 391 1709 391 
Q 2184 391 2456 720 
Q 2728 1050 2731 1631 
L 2731 1759 
L 2194 1759 
z
M 3309 1997 
L 3309 0 
L 2731 0 
L 2731 519 
Q 2547 206 2267 57 
Q 1988 -91 1588 -91 
Q 1053 -91 734 211 
Q 416 513 416 1019 
Q 416 1603 808 1906 
Q 1200 2209 1959 2209 
L 2731 2209 
L 2731 2300 
Q 2728 2719 2518 2908 
Q 2309 3097 1850 3097 
Q 1556 3097 1256 3012 
Q 956 2928 672 2766 
L 672 3341 
Q 991 3463 1283 3523 
Q 1575 3584 1850 3584 
Q 2284 3584 2592 3456 
Q 2900 3328 3091 3072 
Q 3209 2916 3259 2686 
Q 3309 2456 3309 1997 
z
" transform="scale(0.015625)"/>
      <path id="DejaVuSansMono-64" d="M 2681 3053 
L 2681 4863 
L 3256 4863 
L 3256 0 
L 2681 0 
L 2681 441 
Q 2538 181 2298 45 
Q 2059 -91 1747 -91 
Q 1113 -91 748 401 
Q 384 894 384 1759 
Q 384 2613 750 3098 
Q 1116 3584 1747 3584 
Q 2063 3584 2303 3448 
Q 2544 3313 2681 3053 
z
M 991 1747 
Q 991 1078 1203 737 
Q 1416 397 1831 397 
Q 2247 397 2464 740 
Q 2681 1084 2681 1747 
Q 2681 2413 2464 2755 
Q 2247 3097 1831 3097 
Q 1416 3097 1203 2756 
Q 991 2416 991 1747 
z
" transform="scale(0.015625)"/>
      <path id="DejaVuSansMono-5f" d="M 3853 -1259 
L 3853 -1509 
L 0 -1509 
L 0 -1259 
L 3853 -1259 
z
" transform="scale(0.015625)"/>
      <path id="DejaVuSansMono-28" d="M 2766 4856 
Q 2350 4144 2145 3436 
Q 1941 2728 1941 2009 
Q 1941 1294 2145 584 
Q 2350 -125 2766 -844 
L 2266 -844 
Q 1794 -100 1562 604 
Q 1331 1309 1331 2009 
Q 1331 2706 1562 3412 
Q 1794 4119 2266 4856 
L 2766 4856 
z
" transform="scale(0.015625)"/>
      <path id="DejaVuSansMono-29" d="M 1088 4856 
L 1588 4856 
Q 2059 4119 2290 3412 
Q 2522 2706 2522 2009 
Q 2522 1306 2290 600 
Q 2059 -106 1588 -844 
L 1088 -844 
Q 1503 -119 1708 590 
Q 1913 1300 1913 2009 
Q 1913 2722 1708 3431 
Q 1503 4141 1088 4856 
z
" transform="scale(0.015625)"/>
     </defs>
     <use xlink:href="#DejaVuSansMono-77"/>
     <use xlink:href="#DejaVuSansMono-69" x="60.205078"/>
     <use xlink:href="#DejaVuSansMono-6e" x="120.410156"/>
     <use xlink:href="#DejaVuSansMono-65" x="180.615234"/>
     <use xlink:href="#DejaVuSansMono-20" x="240.820312"/>
     <use xlink:href="#DejaVuSansMono-3d" x="301.025391"/>
     <use xlink:href="#DejaVuSansMono-20" x="361.230469"/>
     <use xlink:href="#DejaVuSansMono-6c" x="421.435547"/>
     <use xlink:href="#DejaVuSansMono-6f" x="481.640625"/>
     <use xlink:href="#DejaVuSansMono-61" x="541.845703"/>
     <use xlink:href="#DejaVuSansMono-64" x="602.050781"/>
     <use xlink:href="#DejaVuSansMono-5f" x="662.255859"/>
     <use xlink:href="#DejaVuSansMono-77" x="722.460938"/>
     <use xlink:href="#DejaVuSansMono-69" x="782.666016"/>
     <use xlink:href="#DejaVuSansMono-6e" x="842.871094"/>
     <use xlink:href="#DejaVuSansMono-65" x="903.076172"/>
     <use xlink:href="#DejaVuSansMono-28" x="963.28125"/>
     <use xlink:href="#DejaVuSansMono-29" x="1023.486328"/>
    </g>
   </g>
   <g id="text_16">
    <!-- df = pd.DataFrame(wine.data, columns=wine.feature_names) -->
    <g style="fill: #cdd6f4" transform="translate(40.32 218.755219) scale(0.105 -0.105)">
     <defs>
      <path id="DejaVuSansMono-66" d="M 3322 4863 
L 3322 4384 
L 2669 4384 
Q 2359 4384 2239 4257 
Q 2119 4131 2119 3809 
L 2119 3500 
L 3322 3500 
L 3322 3053 
L 2119 3053 
L 2119 0 
L 1544 0 
L 1544 3053 
L 609 3053 
L 609 3500 
L 1544 3500 
L 1544 3744 
Q 1544 4319 1808 4591 
Q 2072 4863 2631 4863 
L 3322 4863 
z
" transform="scale(0.015625)"/>
      <path id="DejaVuSansMono-70" d="M 1172 441 
L 1172 -1331 
L 594 -1331 
L 594 3500 
L 1172 3500 
L 1172 3053 
Q 1316 3313 1555 3448 
Q 1794 3584 2106 3584 
Q 2741 3584 3102 3093 
Q 3463 2603 3463 1734 
Q 3463 881 3100 395 
Q 2738 -91 2106 -91 
Q 1788 -91 1548 45 
Q 1309 181 1172 441 
z
M 2859 1747 
Q 2859 2416 2648 2756 
Q 2438 3097 2022 3097 
Q 1603 3097 1387 2755 
Q 1172 2413 1172 1747 
Q 1172 1084 1387 740 
Q 1603 397 2022 397 
Q 2438 397 2648 737 
Q 2859 1078 2859 1747 
z
" transform="scale(0.015625)"/>
      <path id="DejaVuSansMono-2e" d="M 1528 953 
L 2316 953 
L 2316 0 
L 1528 0 
L 1528 953 
z
" transform="scale(0.015625)"/>
      <path id="DejaVuSansMono-44" d="M 1363 519 
Q 2159 519 2475 911 
Q 2791 1303 2791 2328 
Q 2791 3363 2477 3755 
Q 2163 4147 1363 4147 
L 1063 4147 
L 1063 519 
L 1363 519 
z
M 1375 4666 
Q 2444 4666 2950 4097 
Q 3456 3528 3456 2328 
Q 3456 1134 2950 567 
Q 2444 0 1375 0 
L 428 0 
L 428 4666 
L 1375 4666 
z
" transform="scale(0.015625)"/>
      <path id="DejaVuSansMono-74" d="M 1919 4494 
L 1919 3500 
L 3225 3500 
L 3225 3053 
L 1919 3053 
L 1919 1153 
Q 1919 766 2066 612 
Q 2213 459 2578 459 
L 3225 459 
L 3225 0 
L 2522 0 
Q 1875 0 1609 259 
Q 1344 519 1344 1153 
L 1344 3053 
L 409 3053 
L 409 3500 
L 1344 3500 
L 1344 4494 
L 1919 4494 
z
" transform="scale(0.015625)"/>
      <path id="DejaVuSansMono-46" d="M 728 4666 
L 3475 4666 
L 3475 4134 
L 1363 4134 
L 1363 2759 
L 3278 2759 
L 3278 2228 
L 1363 2228 
L 1363 0 
L 728 0 
L 728 4666 
z
" transform="scale(0.015625)"/>
      <path id="DejaVuSansMono-72" d="M 3609 2778 
Q 3425 2922 3234 2987 
Q 3044 3053 2816 3053 
Q 2278 3053 1993 2715 
Q 1709 2378 1709 1741 
L 1709 0 
L 1131 0 
L 1131 3500 
L 1709 3500 
L 1709 2816 
Q 1853 3188 2151 3386 
Q 2450 3584 2859 3584 
Q 3072 3584 3256 3531 
Q 3441 3478 3609 3366 
L 3609 2778 
z
" transform="scale(0.015625)"/>
      <path id="DejaVuSansMono-6d" d="M 2113 3144 
Q 2219 3369 2383 3476 
Q 2547 3584 2778 3584 
Q 3200 3584 3373 3257 
Q 3547 2931 3547 2028 
L 3547 0 
L 3022 0 
L 3022 2003 
Q 3022 2744 2939 2923 
Q 2856 3103 2638 3103 
Q 2388 3103 2295 2911 
Q 2203 2719 2203 2003 
L 2203 0 
L 1678 0 
L 1678 2003 
Q 1678 2753 1589 2928 
Q 1500 3103 1269 3103 
Q 1041 3103 952 2911 
Q 863 2719 863 2003 
L 863 0 
L 341 0 
L 341 3500 
L 863 3500 
L 863 3200 
Q 966 3388 1120 3486 
Q 1275 3584 1472 3584 
Q 1709 3584 1867 3475 
Q 2025 3366 2113 3144 
z
" transform="scale(0.015625)"/>
      <path id="DejaVuSansMono-2c" d="M 1569 947 
L 2356 947 
L 2356 300 
L 1741 -897 
L 1259 -897 
L 1569 300 
L 1569 947 
z
" transform="scale(0.015625)"/>
      <path id="DejaVuSansMono-63" d="M 3316 178 
Q 3084 44 2839 -23 
Q 2594 -91 2338 -91 
Q 1525 -91 1067 396 
Q 609 884 609 1747 
Q 609 2609 1067 3096 
Q 1525 3584 2338 3584 
Q 2591 3584 2831 3518 
Q 3072 3453 3316 3316 
L 3316 2713 
Q 3088 2916 2858 3006 
Q 2628 3097 2338 3097 
Q 1797 3097 1506 2747 
Q 1216 2397 1216 1747 
Q 1216 1100 1508 748 
Q 1800 397 2338 397 
Q 2638 397 2875 489 
Q 3113 581 3316 775 
L 3316 178 
z
" transform="scale(0.015625)"/>
      <path id="DejaVuSansMono-75" d="M 609 1325 
L 609 3494 
L 1184 3494 
L 1184 1325 
Q 1184 853 1351 631 
Q 1519 409 1869 409 
Q 2275 409 2490 695 
Q 2706 981 2706 1516 
L 2706 3494 
L 3284 3494 
L 3284 0 
L 2706 0 
L 2706 525 
Q 2553 222 2289 65 
Q 2025 -91 1672 -91 
Q 1134 -91 871 261 
Q 609 613 609 1325 
z
" transform="scale(0.015625)"/>
      <path id="DejaVuSansMono-73" d="M 3041 3378 
L 3041 2816 
Q 2794 2959 2544 3031 
Q 2294 3103 2034 3103 
Q 1644 3103 1451 2976 
Q 1259 2850 1259 2591 
Q 1259 2356 1403 2240 
Q 1547 2125 2119 2016 
L 2350 1972 
Q 2778 1891 2998 1647 
Q 3219 1403 3219 1013 
Q 3219 494 2850 201 
Q 2481 -91 1825 -91 
Q 1566 -91 1281 -36 
Q 997 19 666 128 
L 666 722 
Q 988 556 1281 473 
Q 1575 391 1838 391 
Q 2219 391 2428 545 
Q 2638 700 2638 978 
Q 2638 1378 1872 1531 
L 1847 1538 
L 1631 1581 
Q 1134 1678 906 1908 
Q 678 2138 678 2534 
Q 678 3038 1018 3311 
Q 1359 3584 1991 3584 
Q 2272 3584 2531 3532 
Q 2791 3481 3041 3378 
z
" transform="scale(0.015625)"/>
     </defs>
     <use xlink:href="#DejaVuSansMono-64"/>
     <use xlink:href="#DejaVuSansMono-66" x="60.205078"/>
     <use xlink:href="#DejaVuSansMono-20" x="120.410156"/>
     <use xlink:href="#DejaVuSansMono-3d" x="180.615234"/>
     <use xlink:href="#DejaVuSansMono-20" x="240.820312"/>
     <use xlink:href="#DejaVuSansMono-70" x="301.025391"/>
     <use xlink:href="#DejaVuSansMono-64" x="361.230469"/>
     <use xlink:href="#DejaVuSansMono-2e" x="421.435547"/>
     <use xlink:href="#DejaVuSansMono-44" x="481.640625"/>
     <use xlink:href="#DejaVuSansMono-61" x="541.845703"/>
     <use xlink:href="#DejaVuSansMono-74" x="602.050781"/>
     <use xlink:href="#DejaVuSansMono-61" x="662.255859"/>
     <use xlink:href="#DejaVuSansMono-46" x="722.460938"/>
     <use xlink:href="#DejaVuSansMono-72" x="782.666016"/>
     <use xlink:href="#DejaVuSansMono-61" x="842.871094"/>
     <use xlink:href="#DejaVuSansMono-6d" x="903.076172"/>
     <use xlink:href="#DejaVuSansMono-65" x="963.28125"/>
     <use xlink:href="#DejaVuSansMono-28" x="1023.486328"/>
     <use xlink:href="#DejaVuSansMono-77" x="1083.691406"/>
     <use xlink:href="#DejaVuSansMono-69" x="1143.896484"/>
     <use xlink:href="#DejaVuSansMono-6e" x="1204.101562"/>
     <use xlink:href="#DejaVuSansMono-65" x="1264.306641"/>
     <use xlink:href="#DejaVuSansMono-2e" x="1324.511719"/>
     <use xlink:href="#DejaVuSansMono-64" x="1384.716797"/>
     <use xlink:href="#DejaVuSansMono-61" x="1444.921875"/>
     <use xlink:href="#DejaVuSansMono-74" x="1505.126953"/>
     <use xlink:href="#DejaVuSansMono-61" x="1565.332031"/>
     <use xlink:href="#DejaVuSansMono-2c" x="1625.537109"/>
     <use xlink:href="#DejaVuSansMono-20" x="1685.742188"/>
     <use xlink:href="#DejaVuSansMono-63" x="1745.947266"/>
     <use xlink:href="#DejaVuSansMono-6f" x="1806.152344"/>
     <use xlink:href="#DejaVuSansMono-6c" x="1866.357422"/>
     <use xlink:href="#DejaVuSansMono-75" x="1926.5625"/>
     <use xlink:href="#DejaVuSansMono-6d" x="1986.767578"/>
     <use xlink:href="#DejaVuSansMono-6e" x="2046.972656"/>
     <use xlink:href="#DejaVuSansMono-73" x="2107.177734"/>
     <use xlink:href="#DejaVuSansMono-3d" x="2167.382812"/>
     <use xlink:href="#DejaVuSansMono-77" x="2227.587891"/>
     <use xlink:href="#DejaVuSansMono-69" x="2287.792969"/>
     <use xlink:href="#DejaVuSansMono-6e" x="2347.998047"/>
     <use xlink:href="#DejaVuSansMono-65" x="2408.203125"/>
     <use xlink:href="#DejaVuSansMono-2e" x="2468.408203"/>
     <use xlink:href="#DejaVuSansMono-66" x="2528.613281"/>
     <use xlink:href="#DejaVuSansMono-65" x="2588.818359"/>
     <use xlink:href="#DejaVuSansMono-61" x="2649.023438"/>
     <use xlink:href="#DejaVuSansMono-74" x="2709.228516"/>
     <use xlink:href="#DejaVuSansMono-75" x="2769.433594"/>
     <use xlink:href="#DejaVuSansMono-72" x="2829.638672"/>
     <use xlink:href="#DejaVuSansMono-65" x="2889.84375"/>
     <use xlink:href="#DejaVuSansMono-5f" x="2950.048828"/>
     <use xlink:href="#DejaVuSansMono-6e" x="3010.253906"/>
     <use xlink:href="#DejaVuSansMono-61" x="3070.458984"/>
     <use xlink:href="#DejaVuSansMono-6d" x="3130.664062"/>
     <use xlink:href="#DejaVuSansMono-65" x="3190.869141"/>
     <use xlink:href="#DejaVuSansMono-73" x="3251.074219"/>
     <use xlink:href="#DejaVuSansMono-29" x="3311.279297"/>
    </g>
   </g>
   <g id="text_17">
    <!-- df.head()      # 先頭確認 -->
    <g style="fill: #cdd6f4" transform="translate(40.32 248.661234) scale(0.105 -0.105)">
     <defs>
      <path id="DejaVuSansMono-68" d="M 3284 2169 
L 3284 0 
L 2706 0 
L 2706 2169 
Q 2706 2641 2540 2862 
Q 2375 3084 2022 3084 
Q 1619 3084 1401 2798 
Q 1184 2513 1184 1978 
L 1184 0 
L 609 0 
L 609 4863 
L 1184 4863 
L 1184 2975 
Q 1338 3275 1600 3429 
Q 1863 3584 2222 3584 
Q 2756 3584 3020 3232 
Q 3284 2881 3284 2169 
z
" transform="scale(0.015625)"/>
      <path id="DejaVuSansMono-23" d="M 2138 4594 
L 1813 3297 
L 2578 3297 
L 2906 4594 
L 3406 4594 
L 3078 3297 
L 3841 3297 
L 3841 2816 
L 2963 2816 
L 2700 1772 
L 3481 1772 
L 3481 1294 
L 2578 1294 
L 2253 0 
L 1753 0 
L 2081 1294 
L 1313 1294 
L 984 0 
L 488 0 
L 813 1294 
L 6 1294 
L 6 1772 
L 934 1772 
L 1197 2816 
L 366 2816 
L 366 3297 
L 1313 3297 
L 1638 4594 
L 2138 4594 
z
M 2463 2816 
L 1697 2816 
L 1434 1772 
L 2203 1772 
L 2463 2816 
z
" transform="scale(0.015625)"/>
      <path id="DejaVuSansMono-5148" d="M 325 -1131 
L 325 4513 
L 3525 4513 
L 3525 -1131 
L 325 -1131 
z
M 684 -775 
L 3169 -775 
L 3169 4153 
L 684 4153 
L 684 -775 
z
" transform="scale(0.015625)"/>
      <path id="DejaVuSansMono-982d" d="M 325 -1131 
L 325 4513 
L 3525 4513 
L 3525 -1131 
L 325 -1131 
z
M 684 -775 
L 3169 -775 
L 3169 4153 
L 684 4153 
L 684 -775 
z
" transform="scale(0.015625)"/>
      <path id="DejaVuSansMono-78ba" d="M 325 -1131 
L 325 4513 
L 3525 4513 
L 3525 -1131 
L 325 -1131 
z
M 684 -775 
L 3169 -775 
L 3169 4153 
L 684 4153 
L 684 -775 
z
" transform="scale(0.015625)"/>
      <path id="DejaVuSansMono-8a8d" d="M 325 -1131 
L 325 4513 
L 3525 4513 
L 3525 -1131 
L 325 -1131 
z
M 684 -775 
L 3169 -775 
L 3169 4153 
L 684 4153 
L 684 -775 
z
" transform="scale(0.015625)"/>
     </defs>
     <use xlink:href="#DejaVuSansMono-64"/>
     <use xlink:href="#DejaVuSansMono-66" x="60.205078"/>
     <use xlink:href="#DejaVuSansMono-2e" x="120.410156"/>
     <use xlink:href="#DejaVuSansMono-68" x="180.615234"/>
     <use xlink:href="#DejaVuSansMono-65" x="240.820312"/>
     <use xlink:href="#DejaVuSansMono-61" x="301.025391"/>
     <use xlink:href="#DejaVuSansMono-64" x="361.230469"/>
     <use xlink:href="#DejaVuSansMono-28" x="421.435547"/>
     <use xlink:href="#DejaVuSansMono-29" x="481.640625"/>
     <use xlink:href="#DejaVuSansMono-20" x="541.845703"/>
     <use xlink:href="#DejaVuSansMono-20" x="602.050781"/>
     <use xlink:href="#DejaVuSansMono-20" x="662.255859"/>
     <use xlink:href="#DejaVuSansMono-20" x="722.460938"/>
     <use xlink:href="#DejaVuSansMono-20" x="782.666016"/>
     <use xlink:href="#DejaVuSansMono-20" x="842.871094"/>
     <use xlink:href="#DejaVuSansMono-23" x="903.076172"/>
     <use xlink:href="#DejaVuSansMono-20" x="963.28125"/>
     <use xlink:href="#DejaVuSansMono-5148" x="1023.486328"/>
     <use xlink:href="#DejaVuSansMono-982d" x="1083.691406"/>
     <use xlink:href="#DejaVuSansMono-78ba" x="1143.896484"/>
     <use xlink:href="#DejaVuSansMono-8a8d" x="1204.101562"/>
    </g>
   </g>
   <g id="text_18">
    <!-- df.info()      # 型・欠損確認 -->
    <g style="fill: #cdd6f4" transform="translate(40.32 263.541234) scale(0.105 -0.105)">
     <defs>
      <path id="DejaVuSansMono-578b" d="M 325 -1131 
L 325 4513 
L 3525 4513 
L 3525 -1131 
L 325 -1131 
z
M 684 -775 
L 3169 -775 
L 3169 4153 
L 684 4153 
L 684 -775 
z
" transform="scale(0.015625)"/>
      <path id="DejaVuSansMono-30fb" d="M 325 -1131 
L 325 4513 
L 3525 4513 
L 3525 -1131 
L 325 -1131 
z
M 684 -775 
L 3169 -775 
L 3169 4153 
L 684 4153 
L 684 -775 
z
" transform="scale(0.015625)"/>
      <path id="DejaVuSansMono-6b20" d="M 325 -1131 
L 325 4513 
L 3525 4513 
L 3525 -1131 
L 325 -1131 
z
M 684 -775 
L 3169 -775 
L 3169 4153 
L 684 4153 
L 684 -775 
z
" transform="scale(0.015625)"/>
      <path id="DejaVuSansMono-640d" d="M 325 -1131 
L 325 4513 
L 3525 4513 
L 3525 -1131 
L 325 -1131 
z
M 684 -775 
L 3169 -775 
L 3169 4153 
L 684 4153 
L 684 -775 
z
" transform="scale(0.015625)"/>
     </defs>
     <use xlink:href="#DejaVuSansMono-64"/>
     <use xlink:href="#DejaVuSansMono-66" x="60.205078"/>
     <use xlink:href="#DejaVuSansMono-2e" x="120.410156"/>
     <use xlink:href="#DejaVuSansMono-69" x="180.615234"/>
     <use xlink:href="#DejaVuSansMono-6e" x="240.820312"/>
     <use xlink:href="#DejaVuSansMono-66" x="301.025391"/>
     <use xlink:href="#DejaVuSansMono-6f" x="361.230469"/>
     <use xlink:href="#DejaVuSansMono-28" x="421.435547"/>
     <use xlink:href="#DejaVuSansMono-29" x="481.640625"/>
     <use xlink:href="#DejaVuSansMono-20" x="541.845703"/>
     <use xlink:href="#DejaVuSansMono-20" x="602.050781"/>
     <use xlink:href="#DejaVuSansMono-20" x="662.255859"/>
     <use xlink:href="#DejaVuSansMono-20" x="722.460938"/>
     <use xlink:href="#DejaVuSansMono-20" x="782.666016"/>
     <use xlink:href="#DejaVuSansMono-20" x="842.871094"/>
     <use xlink:href="#DejaVuSansMono-23" x="903.076172"/>
     <use xlink:href="#DejaVuSansMono-20" x="963.28125"/>
     <use xlink:href="#DejaVuSansMono-578b" x="1023.486328"/>
     <use xlink:href="#DejaVuSansMono-30fb" x="1083.691406"/>
     <use xlink:href="#DejaVuSansMono-6b20" x="1143.896484"/>
     <use xlink:href="#DejaVuSansMono-640d" x="1204.101562"/>
     <use xlink:href="#DejaVuSansMono-78ba" x="1264.306641"/>
     <use xlink:href="#DejaVuSansMono-8a8d" x="1324.511719"/>
    </g>
   </g>
   <g id="text_19">
    <!-- df.describe()  # 統計量確認 -->
    <g style="fill: #cdd6f4" transform="translate(40.32 278.421234) scale(0.105 -0.105)">
     <defs>
      <path id="DejaVuSansMono-62" d="M 2869 1747 
Q 2869 2416 2656 2756 
Q 2444 3097 2028 3097 
Q 1609 3097 1393 2755 
Q 1178 2413 1178 1747 
Q 1178 1084 1393 740 
Q 1609 397 2028 397 
Q 2444 397 2656 737 
Q 2869 1078 2869 1747 
z
M 1178 3053 
Q 1316 3309 1558 3446 
Q 1800 3584 2119 3584 
Q 2750 3584 3112 3098 
Q 3475 2613 3475 1759 
Q 3475 894 3111 401 
Q 2747 -91 2113 -91 
Q 1800 -91 1561 45 
Q 1322 181 1178 441 
L 1178 0 
L 603 0 
L 603 4863 
L 1178 4863 
L 1178 3053 
z
" transform="scale(0.015625)"/>
      <path id="DejaVuSansMono-7d71" d="M 325 -1131 
L 325 4513 
L 3525 4513 
L 3525 -1131 
L 325 -1131 
z
M 684 -775 
L 3169 -775 
L 3169 4153 
L 684 4153 
L 684 -775 
z
" transform="scale(0.015625)"/>
      <path id="DejaVuSansMono-8a08" d="M 325 -1131 
L 325 4513 
L 3525 4513 
L 3525 -1131 
L 325 -1131 
z
M 684 -775 
L 3169 -775 
L 3169 4153 
L 684 4153 
L 684 -775 
z
" transform="scale(0.015625)"/>
      <path id="DejaVuSansMono-91cf" d="M 325 -1131 
L 325 4513 
L 3525 4513 
L 3525 -1131 
L 325 -1131 
z
M 684 -775 
L 3169 -775 
L 3169 4153 
L 684 4153 
L 684 -775 
z
" transform="scale(0.015625)"/>
     </defs>
     <use xlink:href="#DejaVuSansMono-64"/>
     <use xlink:href="#DejaVuSansMono-66" x="60.205078"/>
     <use xlink:href="#DejaVuSansMono-2e" x="120.410156"/>
     <use xlink:href="#DejaVuSansMono-64" x="180.615234"/>
     <use xlink:href="#DejaVuSansMono-65" x="240.820312"/>
     <use xlink:href="#DejaVuSansMono-73" x="301.025391"/>
     <use xlink:href="#DejaVuSansMono-63" x="361.230469"/>
     <use xlink:href="#DejaVuSansMono-72" x="421.435547"/>
     <use xlink:href="#DejaVuSansMono-69" x="481.640625"/>
     <use xlink:href="#DejaVuSansMono-62" x="541.845703"/>
     <use xlink:href="#DejaVuSansMono-65" x="602.050781"/>
     <use xlink:href="#DejaVuSansMono-28" x="662.255859"/>
     <use xlink:href="#DejaVuSansMono-29" x="722.460938"/>
     <use xlink:href="#DejaVuSansMono-20" x="782.666016"/>
     <use xlink:href="#DejaVuSansMono-20" x="842.871094"/>
     <use xlink:href="#DejaVuSansMono-23" x="903.076172"/>
     <use xlink:href="#DejaVuSansMono-20" x="963.28125"/>
     <use xlink:href="#DejaVuSansMono-7d71" x="1023.486328"/>
     <use xlink:href="#DejaVuSansMono-8a08" x="1083.691406"/>
     <use xlink:href="#DejaVuSansMono-91cf" x="1143.896484"/>
     <use xlink:href="#DejaVuSansMono-78ba" x="1204.101562"/>
     <use xlink:href="#DejaVuSansMono-8a8d" x="1264.306641"/>
    </g>
   </g>
  </g>
 </g>
 <defs>
  <clipPath id="pe352cd33c5">
   <rect x="0" y="-0" width="691.2" height="388.8"/>
  </clipPath>
 </defs>
</svg>
