<?xml version="1.0" encoding="utf-8" standalone="no"?>
<!DOCTYPE svg PUBLIC "-//W3C//DTD SVG 1.1//EN"
  "http://www.w3.org/Graphics/SVG/1.1/DTD/svg11.dtd">
<svg xmlns:xlink="http://www.w3.org/1999/xlink" width="691.2pt" height="388.8pt" viewBox="0 0 691.2 388.8" xmlns="http://www.w3.org/2000/svg" version="1.1">
 <metadata>
  <rdf:RDF xmlns:dc="http://purl.org/dc/elements/1.1/" xmlns:cc="http://creativecommons.org/ns#" xmlns:rdf="http://www.w3.org/1999/02/22-rdf-syntax-ns#">
   <cc:Work>
    <dc:type rdf:resource="http://purl.org/dc/dcmitype/StillImage"/>
    <dc:date>2026-04-09T02:37:45.670109</dc:date>
    <dc:format>image/svg+xml</dc:format>
    <dc:creator>
     <cc:Agent>
      <dc:title>Matplotlib v3.9.4, https://matplotlib.org/</dc:title>
     </cc:Agent>
    </dc:creator>
   </cc:Work>
  </rdf:RDF>
 </metadata>
 <defs>
  <style type="text/css">*{stroke-linejoin: round; stroke-linecap: butt}</style>
 </defs>
 <g id="figure_1">
  <g id="patch_1">
   <path d="M 0 388.8 
L 691.2 388.8 
L 691.2 0 
L 0 0 
z
" style="fill: #ffffff"/>
  </g>
  <g id="axes_1">
   <g id="patch_2">
    <path d="M 0 -0 
L 691.2 -0 
L 691.2 24.48 
L 0 24.48 
z
" clip-path="url(#p62ff2f9cb9)" style="fill: #5ba85a"/>
   </g>
   <g id="patch_3">
    <path d="M 31.68 59.04 
L 659.52 59.04 
L 659.52 60.48 
L 31.68 60.48 
z
" clip-path="url(#p62ff2f9cb9)" style="fill: #ecf0f1"/>
   </g>
   <g id="patch_4">
    <path d="M 31.68 69.12 
L 146.88 69.12 
L 146.88 97.92 
L 31.68 97.92 
z
" clip-path="url(#p62ff2f9cb9)" style="fill: #5ba85a; stroke: #ffffff; stroke-linejoin: miter"/>
   </g>
   <g id="patch_5">
    <path d="M 146.88 69.12 
L 659.52 69.12 
L 659.52 97.92 
L 146.88 97.92 
z
" clip-path="url(#p62ff2f9cb9)" style="fill: #5ba85a; stroke: #ffffff; stroke-linejoin: miter"/>
   </g>
   <g id="patch_6">
    <path d="M 31.68 97.92 
L 146.88 97.92 
L 146.88 126.72 
L 31.68 126.72 
z
" clip-path="url(#p62ff2f9cb9)" style="fill: #ffffff; stroke: #ecf0f1; stroke-width: 0.5; stroke-linejoin: miter"/>
   </g>
   <g id="patch_7">
    <path d="M 146.88 97.92 
L 659.52 97.92 
L 659.52 126.72 
L 146.88 126.72 
z
" clip-path="url(#p62ff2f9cb9)" style="fill: #ffffff; stroke: #ecf0f1; stroke-width: 0.5; stroke-linejoin: miter"/>
   </g>
   <g id="patch_8">
    <path d="M 31.68 126.72 
L 146.88 126.72 
L 146.88 155.52 
L 31.68 155.52 
z
" clip-path="url(#p62ff2f9cb9)" style="fill: #f8f9fa; stroke: #ecf0f1; stroke-width: 0.5; stroke-linejoin: miter"/>
   </g>
   <g id="patch_9">
    <path d="M 146.88 126.72 
L 659.52 126.72 
L 659.52 155.52 
L 146.88 155.52 
z
" clip-path="url(#p62ff2f9cb9)" style="fill: #f8f9fa; stroke: #ecf0f1; stroke-width: 0.5; stroke-linejoin: miter"/>
   </g>
   <g id="patch_10">
    <path d="M 31.68 155.52 
L 146.88 155.52 
L 146.88 184.32 
L 31.68 184.32 
z
" clip-path="url(#p62ff2f9cb9)" style="fill: #ffffff; stroke: #ecf0f1; stroke-width: 0.5; stroke-linejoin: miter"/>
   </g>
   <g id="patch_11">
    <path d="M 146.88 155.52 
L 659.52 155.52 
L 659.52 184.32 
L 146.88 184.32 
z
" clip-path="url(#p62ff2f9cb9)" style="fill: #ffffff; stroke: #ecf0f1; stroke-width: 0.5; stroke-linejoin: miter"/>
   </g>
   <g id="patch_12">
    <path d="M 31.68 191.52 
L 659.52 191.52 
Q 662.4 191.52 662.4 194.4 
L 662.4 249.12 
Q 662.4 252 659.52 252 
L 31.68 252 
Q 28.8 252 28.8 249.12 
L 28.8 194.4 
Q 28.8 191.52 31.68 191.52 
z
" clip-path="url(#p62ff2f9cb9)" style="fill: #1e1e2e; stroke: #555555; stroke-linejoin: miter"/>
   </g>
   <g id="patch_13">
    <path d="M 31.68 259.2 
L 659.52 259.2 
L 659.52 290.88 
L 31.68 290.88 
z
" clip-path="url(#p62ff2f9cb9)" style="fill: #fef9e7"/>
   </g>
   <g id="patch_14">
    <path d="M 31.68 259.2 
L 33.84 259.2 
L 33.84 290.88 
L 31.68 290.88 
z
" clip-path="url(#p62ff2f9cb9)" style="fill: #e8a838"/>
   </g>
   <g id="patch_15">
    <path d="M 31.68 302.4 
L 659.52 302.4 
L 659.52 331.2 
L 31.68 331.2 
z
" clip-path="url(#p62ff2f9cb9)" style="fill: #ebf5fb"/>
   </g>
   <g id="patch_16">
    <path d="M 31.68 302.4 
L 33.84 302.4 
L 33.84 331.2 
L 31.68 331.2 
z
" clip-path="url(#p62ff2f9cb9)" style="fill: #4a90d9"/>
   </g>
   <g id="text_1">
    <!-- Ch.2 データ可視化・EDA -->
    <g style="fill: #ffffff" transform="translate(31.68 15.047031) scale(0.1 -0.1)">
     <defs>
      <path id="IPAexGothic-43" d="M 4353 1088 
Q 4181 694 3859 428 
Q 3313 -31 2559 -31 
Q 1588 -31 959 653 
Q 378 1294 378 2331 
Q 378 3406 1013 4078 
Q 1619 4725 2534 4725 
Q 3813 4725 4322 3628 
L 3809 3391 
Q 3425 4238 2541 4238 
Q 1891 4238 1453 3744 
Q 994 3216 994 2322 
Q 994 1550 1384 1056 
Q 1841 472 2563 472 
Q 3456 472 3878 1319 
L 4353 1088 
z
" transform="scale(0.015625)"/>
      <path id="IPAexGothic-68" d="M 3347 63 
L 2797 63 
L 2797 2041 
Q 2797 2853 2131 2853 
Q 1447 2853 1131 2041 
L 1131 63 
L 581 63 
L 581 4794 
L 1131 4794 
L 1131 2706 
Q 1566 3316 2247 3316 
Q 3347 3316 3347 2072 
L 3347 63 
z
" transform="scale(0.015625)"/>
      <path id="IPAexGothic-2e" d="M 1184 63 
L 494 63 
L 494 753 
L 1184 753 
L 1184 63 
z
" transform="scale(0.015625)"/>
      <path id="IPAexGothic-32" d="M 3659 63 
L 447 63 
L 447 594 
Q 825 1475 1894 2203 
L 2072 2322 
Q 2619 2697 2791 2906 
Q 2988 3153 2988 3444 
Q 2988 3772 2756 4003 
Q 2500 4259 2084 4259 
Q 1250 4259 991 3328 
L 497 3506 
Q 853 4725 2116 4725 
Q 2806 4725 3216 4316 
Q 3575 3947 3575 3425 
Q 3575 3038 3344 2722 
Q 3131 2416 2366 1938 
L 2231 1856 
Q 1256 1253 978 569 
L 3659 569 
L 3659 63 
z
" transform="scale(0.015625)"/>
      <path id="IPAexGothic-20" transform="scale(0.015625)"/>
      <path id="IPAexGothic-30c7" d="M 563 3072 
L 5741 3072 
L 5741 2613 
L 3578 2613 
Q 3538 1516 3134 872 
Q 2688 156 1663 -256 
L 1313 156 
Q 2338 538 2713 1166 
Q 3003 1644 3034 2613 
L 563 2613 
L 563 3072 
z
M 1406 4588 
L 4588 4588 
L 4588 4128 
L 1406 4128 
L 1406 4588 
z
M 6009 4469 
Q 5647 5009 5253 5338 
L 5553 5569 
Q 5938 5259 6328 4744 
L 6009 4469 
z
M 5413 4000 
Q 5125 4491 4678 4891 
L 4991 5131 
Q 5363 4825 5747 4275 
L 5413 4000 
z
" transform="scale(0.015625)"/>
      <path id="IPAexGothic-30fc" d="M 588 2688 
L 5809 2688 
L 5809 2175 
L 588 2175 
L 588 2688 
z
" transform="scale(0.015625)"/>
      <path id="IPAexGothic-30bf" d="M 4978 4263 
L 5313 3988 
Q 4797 2431 4056 1459 
Q 3191 325 1822 -300 
L 1466 109 
Q 2131 381 2613 738 
Q 3053 1066 3531 1600 
Q 2919 2225 2144 2791 
Q 1603 2203 1172 1875 
L 825 2234 
Q 2316 3328 2866 5031 
L 3359 4897 
Q 3325 4775 3109 4263 
L 4978 4263 
z
M 2894 3816 
Q 2709 3522 2438 3169 
Q 3194 2616 3841 2003 
Q 4366 2806 4747 3816 
L 2894 3816 
z
" transform="scale(0.015625)"/>
      <path id="IPAexGothic-53ef" d="M 5100 4313 
L 5100 288 
Q 5100 -63 4913 -200 
Q 4756 -322 4313 -322 
Q 3859 -322 3313 -263 
L 3231 263 
Q 3869 178 4294 178 
Q 4525 178 4575 275 
Q 4613 341 4613 497 
L 4613 4313 
L 416 4313 
L 416 4728 
L 5972 4728 
L 5972 4313 
L 5100 4313 
z
M 3666 3406 
L 3666 1259 
L 1713 1259 
L 1713 741 
L 1259 741 
L 1259 3406 
L 3666 3406 
z
M 1713 3003 
L 1713 1669 
L 3213 1669 
L 3213 3003 
L 1713 3003 
z
" transform="scale(0.015625)"/>
      <path id="IPAexGothic-8996" d="M 2953 1631 
L 2953 5050 
L 5622 5050 
L 5622 1631 
L 4916 1631 
L 4916 300 
Q 4916 138 5000 100 
Q 5050 75 5219 75 
Q 5584 75 5641 275 
Q 5678 419 5697 1003 
L 6116 825 
Q 6075 75 5981 -97 
Q 5875 -297 5622 -334 
Q 5478 -353 5159 -353 
Q 4797 -353 4659 -288 
Q 4488 -203 4488 91 
L 4488 1631 
L 4028 1631 
Q 3978 841 3675 378 
Q 3353 -119 2625 -453 
L 2319 -91 
Q 3003 175 3303 634 
Q 3547 1013 3603 1631 
L 2953 1631 
z
M 3375 2016 
L 5206 2016 
L 5206 2669 
L 3375 2669 
L 3375 2016 
z
M 3375 3041 
L 5206 3041 
L 5206 3666 
L 3375 3666 
L 3375 3041 
z
M 3375 4038 
L 5206 4038 
L 5206 4666 
L 3375 4666 
L 3375 4038 
z
M 1766 2547 
Q 2294 2244 2834 1797 
L 2541 1381 
Q 2181 1728 1791 2041 
L 1766 2059 
L 1766 -456 
L 1313 -456 
L 1313 2047 
Q 894 1559 463 1216 
L 206 1619 
Q 1319 2453 1981 3775 
L 391 3775 
L 391 4197 
L 1250 4197 
L 1250 5309 
L 1703 5309 
L 1703 4197 
L 2303 4197 
L 2541 3978 
Q 2234 3259 1766 2622 
L 1766 2547 
z
" transform="scale(0.015625)"/>
      <path id="IPAexGothic-5316" d="M 1831 3700 
L 1831 -341 
L 1356 -341 
L 1356 2772 
Q 1069 2275 678 1772 
L 378 2138 
Q 1319 3278 1856 5166 
L 2319 5013 
Q 2100 4319 1831 3700 
z
M 3425 2906 
Q 4528 3350 5306 3969 
L 5703 3616 
Q 4728 2919 3425 2444 
L 3425 575 
Q 3425 353 3584 306 
Q 3738 263 4334 263 
Q 5072 263 5250 347 
Q 5384 403 5422 594 
Q 5475 872 5506 1497 
L 5978 1331 
Q 5931 319 5775 106 
Q 5641 -75 5331 -141 
Q 5041 -206 4244 -206 
Q 3438 -206 3181 -78 
Q 2931 47 2931 384 
L 2931 5113 
L 3425 5113 
L 3425 2906 
z
" transform="scale(0.015625)"/>
      <path id="IPAexGothic-30fb" d="M 2772 2859 
L 3628 2859 
L 3628 2003 
L 2772 2003 
L 2772 2859 
z
" transform="scale(0.015625)"/>
      <path id="IPAexGothic-45" d="M 3547 63 
L 609 63 
L 609 4634 
L 3469 4634 
L 3469 4147 
L 1166 4147 
L 1166 2650 
L 3206 2650 
L 3206 2191 
L 1166 2191 
L 1166 556 
L 3547 556 
L 3547 63 
z
" transform="scale(0.015625)"/>
      <path id="IPAexGothic-44" d="M 609 4634 
L 1984 4634 
Q 3159 4634 3791 4050 
Q 4456 3444 4456 2356 
Q 4456 1047 3516 441 
Q 2925 63 1941 63 
L 609 63 
L 609 4634 
z
M 1172 556 
L 1894 556 
Q 3853 556 3853 2356 
Q 3853 4147 1928 4147 
L 1172 4147 
L 1172 556 
z
" transform="scale(0.015625)"/>
      <path id="IPAexGothic-41" d="M 4056 63 
L 3444 63 
L 2938 1409 
L 1100 1409 
L 603 63 
L -6 63 
L 1806 4666 
L 2259 4666 
L 4056 63 
z
M 2778 1863 
L 2316 3078 
Q 2125 3588 2028 4000 
L 2009 4000 
Q 1897 3563 1716 3078 
L 1263 1863 
L 2778 1863 
z
" transform="scale(0.015625)"/>
     </defs>
     <use xlink:href="#IPAexGothic-43"/>
     <use xlink:href="#IPAexGothic-68" x="72.509766"/>
     <use xlink:href="#IPAexGothic-2e" x="133.203125"/>
     <use xlink:href="#IPAexGothic-32" x="159.619141"/>
     <use xlink:href="#IPAexGothic-20" x="222.607422"/>
     <use xlink:href="#IPAexGothic-30c7" x="249.609375"/>
     <use xlink:href="#IPAexGothic-30fc" x="349.609375"/>
     <use xlink:href="#IPAexGothic-30bf" x="449.609375"/>
     <use xlink:href="#IPAexGothic-53ef" x="549.609375"/>
     <use xlink:href="#IPAexGothic-8996" x="649.609375"/>
     <use xlink:href="#IPAexGothic-5316" x="749.609375"/>
     <use xlink:href="#IPAexGothic-30fb" x="849.609375"/>
     <use xlink:href="#IPAexGothic-45" x="949.609375"/>
     <use xlink:href="#IPAexGothic-44" x="1009.130859"/>
     <use xlink:href="#IPAexGothic-41" x="1084.814453"/>
    </g>
   </g>
   <g id="text_2">
    <!-- 散布図と相関係数 -->
    <g style="fill: #1a1a2e" transform="translate(31.68 55.4175) scale(0.24 -0.24)">
     <defs>
      <path id="IPAexGothic-6563" d="M 4484 1197 
Q 4041 1978 3878 2719 
Q 3700 2313 3525 2016 
L 3256 2400 
Q 3816 3469 4056 5284 
L 4491 5197 
Q 4400 4594 4313 4191 
L 5991 4191 
L 5991 3769 
L 5541 3769 
Q 5534 3750 5534 3697 
Q 5459 2300 4966 1216 
Q 5478 475 6150 56 
L 5844 -391 
Q 5250 78 4741 794 
Q 4309 53 3550 -494 
L 3256 -103 
Q 3984 309 4484 1197 
z
M 4703 1644 
Q 5019 2469 5106 3769 
L 4209 3769 
Q 4194 3688 4109 3403 
Q 4241 2519 4703 1644 
z
M 1150 4513 
L 1150 5313 
L 1572 5313 
L 1572 4513 
L 2253 4513 
L 2253 5313 
L 2669 5313 
L 2669 4513 
L 3334 4513 
L 3334 4141 
L 2669 4141 
L 2669 3450 
L 3463 3450 
L 3463 3078 
L 306 3078 
L 306 3450 
L 1150 3450 
L 1150 4141 
L 484 4141 
L 484 4513 
L 1150 4513 
z
M 2253 4141 
L 1572 4141 
L 1572 3450 
L 2253 3450 
L 2253 4141 
z
M 3019 2669 
L 3019 63 
Q 3019 -194 2909 -281 
Q 2803 -378 2488 -378 
Q 2250 -378 1944 -347 
L 1863 97 
Q 2128 31 2394 31 
Q 2609 31 2609 238 
L 2609 744 
L 1203 744 
L 1203 -447 
L 800 -447 
L 800 2669 
L 3019 2669 
z
M 1203 2303 
L 1203 1881 
L 2609 1881 
L 2609 2303 
L 1203 2303 
z
M 1203 1528 
L 1203 1097 
L 2609 1097 
L 2609 1528 
L 1203 1528 
z
" transform="scale(0.015625)"/>
      <path id="IPAexGothic-5e03" d="M 3228 2741 
L 3228 3584 
L 3688 3584 
L 3688 2741 
L 5500 2741 
L 5500 750 
Q 5500 475 5353 369 
Q 5228 272 4900 272 
Q 4625 272 4269 291 
L 4188 775 
Q 4600 713 4834 713 
Q 5047 713 5047 956 
L 5047 2325 
L 3688 2325 
L 3688 -447 
L 3228 -447 
L 3228 2325 
L 2056 2325 
L 2056 91 
L 1603 91 
L 1603 2228 
Q 1159 1747 622 1313 
L 303 1691 
Q 1544 2625 2144 3847 
L 516 3847 
L 516 4275 
L 2338 4275 
Q 2506 4684 2656 5228 
L 3150 5153 
Q 2988 4581 2856 4275 
L 5984 4275 
L 5984 3847 
L 2669 3847 
Q 2369 3231 2009 2741 
L 3228 2741 
z
" transform="scale(0.015625)"/>
      <path id="IPAexGothic-56f3" d="M 3375 1428 
Q 2606 747 1625 447 
L 1356 831 
Q 2297 1091 2966 1631 
L 2791 1709 
Q 2138 2022 1338 2328 
L 1575 2669 
Q 2356 2375 3297 1941 
Q 4069 2759 4422 4178 
L 4853 4013 
Q 4456 2588 3694 1747 
Q 4313 1434 5000 1050 
L 4706 666 
Q 4113 1041 3431 1394 
L 3375 1428 
z
M 2131 2681 
Q 1897 3466 1625 3903 
L 2038 4084 
Q 2331 3563 2559 2869 
L 2131 2681 
z
M 3169 2834 
Q 2934 3603 2663 4056 
L 3059 4225 
Q 3366 3728 3597 3022 
L 3169 2834 
z
M 5769 4984 
L 5769 -447 
L 5300 -447 
L 5300 -128 
L 1097 -128 
L 1097 -447 
L 628 -447 
L 628 4984 
L 5769 4984 
z
M 1097 4575 
L 1097 275 
L 5300 275 
L 5300 4575 
L 1097 4575 
z
" transform="scale(0.015625)"/>
      <path id="IPAexGothic-3068" d="M 5222 56 
Q 4200 -72 3450 -72 
Q 2478 -72 1941 113 
Q 1184 372 1184 1038 
Q 1184 1584 1594 2009 
Q 1941 2369 2656 2725 
Q 2231 3734 1972 4878 
L 2491 4978 
Q 2706 3884 3078 2950 
Q 4250 3447 4756 3616 
L 4978 3150 
Q 3181 2575 2409 2078 
Q 1691 1613 1691 1113 
Q 1691 403 3322 403 
Q 4125 403 5134 563 
L 5222 56 
z
" transform="scale(0.015625)"/>
      <path id="IPAexGothic-76f8" d="M 1388 2691 
L 1369 2631 
Q 1075 1622 556 781 
L 275 1250 
Q 1006 2284 1316 3541 
L 409 3541 
L 409 3956 
L 1388 3956 
L 1388 5300 
L 1828 5300 
L 1828 3956 
L 2725 3956 
L 2725 3541 
L 1828 3541 
L 1828 2925 
Q 2456 2400 2819 1978 
L 2550 1519 
Q 2238 1963 1828 2422 
L 1828 -447 
L 1388 -447 
L 1388 2691 
z
M 5803 4884 
L 5803 -331 
L 5369 -331 
L 5369 116 
L 3409 116 
L 3409 -331 
L 2981 -331 
L 2981 4884 
L 5803 4884 
z
M 3409 4488 
L 3409 3450 
L 5369 3450 
L 5369 4488 
L 3409 4488 
z
M 3409 3066 
L 3409 2022 
L 5369 2022 
L 5369 3066 
L 3409 3066 
z
M 3409 1638 
L 3409 506 
L 5369 506 
L 5369 1638 
L 3409 1638 
z
" transform="scale(0.015625)"/>
      <path id="IPAexGothic-95a2" d="M 2919 5063 
L 2919 3288 
L 1016 3288 
L 1016 -450 
L 569 -450 
L 569 5063 
L 2919 5063 
z
M 1016 4709 
L 1016 4331 
L 2509 4331 
L 2509 4709 
L 1016 4709 
z
M 1016 4019 
L 1016 3628 
L 2509 3628 
L 2509 4019 
L 1016 4019 
z
M 5822 5063 
L 5822 44 
Q 5822 -409 5297 -409 
Q 4956 -409 4672 -366 
L 4594 97 
Q 4841 31 5156 31 
Q 5369 31 5369 244 
L 5369 3288 
L 3422 3288 
L 3422 5063 
L 5822 5063 
z
M 3831 4709 
L 3831 4331 
L 5369 4331 
L 5369 4709 
L 3831 4709 
z
M 3831 4019 
L 3831 3628 
L 5369 3628 
L 5369 4019 
L 3831 4019 
z
M 2425 2478 
Q 2328 2713 2150 2975 
L 2559 3122 
Q 2709 2866 2859 2478 
L 3525 2478 
Q 3716 2847 3806 3147 
L 4256 3022 
Q 4084 2669 3953 2478 
L 4766 2478 
L 4766 2113 
L 3391 2113 
L 3391 1672 
L 4928 1672 
L 4928 1300 
L 3366 1300 
Q 3363 1263 3334 1141 
Q 4016 863 4734 409 
L 4428 34 
Q 3888 441 3281 763 
Q 3278 766 3241 788 
Q 3225 797 3219 800 
Q 2881 100 1875 -256 
L 1588 122 
Q 2769 409 2931 1300 
L 1466 1300 
L 1466 1672 
L 2963 1672 
L 2963 2113 
L 1625 2113 
L 1625 2478 
L 2425 2478 
z
" transform="scale(0.015625)"/>
      <path id="IPAexGothic-4fc2" d="M 3672 2763 
Q 4203 3306 4741 4013 
L 5131 3750 
Q 4428 2884 3641 2194 
L 4288 2219 
Q 4478 2228 4819 2247 
Q 5084 2259 5197 2266 
Q 5016 2553 4741 2891 
L 5094 3097 
Q 5569 2553 5984 1822 
L 5600 1547 
Q 5478 1791 5394 1938 
Q 4747 1866 4050 1828 
L 4050 -450 
L 3603 -450 
L 3603 1803 
L 3066 1778 
Q 2728 1759 2028 1741 
L 1888 2175 
L 2003 2175 
L 2175 2175 
L 2450 2181 
L 3066 2181 
L 3103 2219 
Q 3266 2363 3372 2469 
Q 2813 3084 2247 3556 
L 2572 3884 
Q 2888 3600 2919 3569 
Q 3309 3963 3659 4472 
Q 2938 4384 2234 4338 
L 2059 4747 
Q 3884 4844 5266 5163 
L 5619 4784 
Q 4719 4597 3794 4484 
L 4106 4269 
Q 3725 3781 3297 3372 
L 3206 3281 
Q 3441 3034 3672 2763 
z
M 1578 3675 
L 1578 -447 
L 1125 -447 
L 1125 2741 
Q 834 2247 544 1856 
L 294 2253 
Q 1213 3503 1603 5241 
L 2044 5141 
Q 1841 4322 1578 3675 
z
M 1875 122 
Q 2391 684 2700 1441 
L 3116 1253 
Q 2794 447 2241 -206 
L 1875 122 
z
M 5447 -72 
Q 5009 716 4478 1313 
L 4844 1544 
Q 5453 934 5856 244 
L 5447 -72 
z
" transform="scale(0.015625)"/>
      <path id="IPAexGothic-6570" d="M 2847 1553 
Q 2741 1006 2425 534 
Q 2625 441 3091 203 
L 2809 -188 
Q 2541 0 2144 209 
Q 1569 -291 703 -500 
L 422 -125 
Q 1263 19 1747 406 
Q 1222 650 734 816 
Q 975 1172 1147 1503 
L 1172 1553 
L 359 1553 
L 359 1925 
L 1344 1925 
Q 1406 2066 1569 2475 
L 1691 2450 
L 1691 3372 
Q 1250 2738 550 2303 
L 275 2663 
Q 1019 3013 1528 3641 
L 378 3641 
L 378 4006 
L 1691 4006 
L 1691 5313 
L 2113 5313 
L 2113 4006 
L 3297 4006 
L 3297 3641 
L 2113 3641 
L 2113 3513 
Q 2659 3291 3175 2963 
L 2956 2584 
Q 2553 2922 2113 3159 
L 2113 2372 
L 1966 2372 
Q 1928 2288 1872 2141 
Q 1806 1975 1784 1925 
L 3378 1925 
L 3378 1553 
L 2847 1553 
z
M 2419 1553 
L 1613 1553 
Q 1478 1269 1313 997 
Q 1559 909 2047 703 
Q 2313 1047 2419 1553 
z
M 4363 1163 
Q 3953 1781 3738 2638 
Q 3575 2281 3428 2016 
L 3103 2406 
Q 3675 3444 3916 5291 
L 4363 5200 
Q 4284 4666 4197 4197 
L 6009 4197 
L 6009 3775 
L 5503 3775 
Q 5397 2275 4869 1191 
Q 5419 503 6144 75 
L 5822 -378 
Q 5188 106 4631 788 
Q 4113 34 3341 -463 
L 3031 -78 
Q 3888 406 4363 1163 
z
M 4588 1594 
Q 4938 2388 5059 3775 
L 4100 3775 
Q 4041 3519 3972 3288 
Q 3981 3250 3991 3194 
Q 4175 2256 4588 1594 
z
M 1003 4116 
Q 878 4544 638 4934 
L 1053 5094 
Q 1247 4788 1438 4269 
L 1003 4116 
z
M 2316 4269 
Q 2550 4688 2688 5131 
L 3128 4997 
Q 2966 4588 2675 4128 
L 2316 4269 
z
" transform="scale(0.015625)"/>
     </defs>
     <use xlink:href="#IPAexGothic-6563"/>
     <use xlink:href="#IPAexGothic-5e03" x="100"/>
     <use xlink:href="#IPAexGothic-56f3" x="200"/>
     <use xlink:href="#IPAexGothic-3068" x="300"/>
     <use xlink:href="#IPAexGothic-76f8" x="400"/>
     <use xlink:href="#IPAexGothic-95a2" x="500"/>
     <use xlink:href="#IPAexGothic-4fc2" x="600"/>
     <use xlink:href="#IPAexGothic-6570" x="700"/>
    </g>
   </g>
   <g id="text_3">
    <!-- 相関係数 r -->
    <g style="fill: #ffffff" transform="translate(38.88 87.153906) scale(0.13 -0.13)">
     <defs>
      <path id="IPAexGothic-72" d="M 2309 3316 
L 2213 2769 
Q 2106 2791 2022 2791 
Q 1653 2791 1413 2444 
Q 1113 2006 1113 1675 
L 1113 63 
L 563 63 
L 563 3250 
L 1081 3250 
L 1056 2303 
L 1069 2303 
Q 1422 3341 2097 3341 
Q 2206 3341 2309 3316 
z
" transform="scale(0.015625)"/>
     </defs>
     <use xlink:href="#IPAexGothic-76f8"/>
     <use xlink:href="#IPAexGothic-95a2" x="100"/>
     <use xlink:href="#IPAexGothic-4fc2" x="200"/>
     <use xlink:href="#IPAexGothic-6570" x="300"/>
     <use xlink:href="#IPAexGothic-20" x="400"/>
     <use xlink:href="#IPAexGothic-72" x="427.001953"/>
    </g>
   </g>
   <g id="text_4">
    <!-- 意味 -->
    <g style="fill: #ffffff" transform="translate(154.08 87.153906) scale(0.13 -0.13)">
     <defs>
      <path id="IPAexGothic-610f" d="M 3206 1394 
Q 3563 1097 3897 666 
L 3525 391 
Q 3166 878 2850 1175 
L 3188 1394 
L 1281 1394 
L 1281 3084 
L 5106 3084 
L 5106 1394 
L 3206 1394 
z
M 1747 2744 
L 1747 2419 
L 4647 2419 
L 4647 2744 
L 1747 2744 
z
M 1747 2088 
L 1747 1734 
L 4647 1734 
L 4647 2088 
L 1747 2088 
z
M 3419 4722 
L 5625 4722 
L 5625 4369 
L 4556 4369 
Q 4438 4066 4288 3809 
L 5978 3809 
L 5978 3444 
L 416 3444 
L 416 3809 
L 2081 3809 
Q 1981 4081 1819 4369 
L 769 4369 
L 769 4722 
L 2938 4722 
L 2938 5309 
L 3419 5309 
L 3419 4722 
z
M 2316 4369 
Q 2425 4169 2553 3809 
L 3828 3809 
Q 3969 4066 4072 4369 
L 2316 4369 
z
M 397 -25 
Q 869 419 1178 1044 
L 1581 863 
Q 1275 144 775 -347 
L 397 -25 
z
M 2009 1131 
L 2478 1131 
L 2478 319 
Q 2478 128 2581 100 
Q 2697 56 3284 56 
Q 4184 56 4275 141 
Q 4363 216 4391 703 
L 4834 581 
Q 4825 -34 4634 -206 
Q 4450 -372 3400 -372 
Q 2453 -372 2259 -288 
Q 2009 -194 2009 141 
L 2009 1131 
z
M 5728 -191 
Q 5306 447 4703 991 
L 5038 1234 
Q 5631 756 6125 141 
L 5728 -191 
z
" transform="scale(0.015625)"/>
      <path id="IPAexGothic-5473" d="M 4366 2413 
Q 4941 1313 6125 569 
L 5781 141 
Q 4756 934 4244 1991 
L 4244 -447 
L 3803 -447 
L 3803 1931 
Q 3331 747 2153 -59 
L 1825 319 
Q 3094 1072 3681 2413 
L 2294 2413 
L 2294 2822 
L 3803 2822 
L 3803 3775 
L 2422 3775 
L 2422 4178 
L 3803 4178 
L 3803 5272 
L 4244 5272 
L 4244 4178 
L 5747 4178 
L 5747 3775 
L 4244 3775 
L 4244 2822 
L 6003 2822 
L 6003 2413 
L 4366 2413 
z
M 2144 4634 
L 2144 1075 
L 966 1075 
L 966 575 
L 538 575 
L 538 4634 
L 2144 4634 
z
M 966 4225 
L 966 1478 
L 1709 1478 
L 1709 4225 
L 966 4225 
z
" transform="scale(0.015625)"/>
     </defs>
     <use xlink:href="#IPAexGothic-610f"/>
     <use xlink:href="#IPAexGothic-5473" x="100"/>
    </g>
   </g>
   <g id="text_5">
    <!-- r ≈ +1 -->
    <g style="fill: #2c3e50" transform="translate(38.88 115.953906) scale(0.13 -0.13)">
     <defs>
      <path id="IPAexGothic-2248" d="M 616 2100 
L 384 2266 
Q 534 2653 791 2813 
Q 1009 2950 1350 2950 
Q 1622 2950 2369 2663 
Q 2834 2478 3034 2478 
Q 3275 2478 3438 2600 
Q 3584 2706 3719 2944 
L 3963 2778 
Q 3809 2391 3556 2231 
Q 3338 2094 2997 2094 
Q 2716 2094 2075 2344 
L 1947 2394 
Q 1494 2572 1325 2572 
Q 1081 2572 913 2453 
Q 763 2344 616 2100 
z
M 616 953 
L 384 1119 
Q 547 1503 800 1663 
Q 1016 1797 1350 1797 
Q 1609 1797 2369 1516 
L 2484 1472 
Q 2875 1325 3034 1325 
Q 3453 1325 3719 1791 
L 3963 1625 
Q 3809 1241 3556 1081 
Q 3334 947 2997 947 
Q 2703 947 2075 1191 
L 1947 1241 
Q 1494 1419 1325 1419 
Q 1081 1419 913 1300 
Q 763 1194 616 953 
z
" transform="scale(0.015625)"/>
      <path id="IPAexGothic-2b" d="M 2369 1856 
L 2369 219 
L 1984 219 
L 1984 1856 
L 416 1856 
L 416 2216 
L 1984 2216 
L 1984 3725 
L 2369 3725 
L 2369 2216 
L 3922 2216 
L 3922 1856 
L 2369 1856 
z
" transform="scale(0.015625)"/>
      <path id="IPAexGothic-31" d="M 2463 63 
L 1900 63 
L 1900 4103 
Q 1372 3922 788 3797 
L 684 4231 
Q 1519 4441 2106 4731 
L 2463 4731 
L 2463 63 
z
" transform="scale(0.015625)"/>
     </defs>
     <use xlink:href="#IPAexGothic-72"/>
     <use xlink:href="#IPAexGothic-20" x="37.011719"/>
     <use xlink:href="#IPAexGothic-2248" x="64.013672"/>
     <use xlink:href="#IPAexGothic-20" x="131.835938"/>
     <use xlink:href="#IPAexGothic-2b" x="158.837891"/>
     <use xlink:href="#IPAexGothic-31" x="226.660156"/>
    </g>
   </g>
   <g id="text_6">
    <!-- 強い正の相関（一方が増えると他方も増える） -->
    <g style="fill: #2c3e50" transform="translate(154.08 115.953906) scale(0.13 -0.13)">
     <defs>
      <path id="IPAexGothic-5f37" d="M 2144 2222 
Q 2097 375 1928 -141 
Q 1822 -469 1356 -469 
Q 1025 -469 684 -409 
L 622 50 
Q 1050 -41 1256 -41 
Q 1497 -41 1544 159 
Q 1653 597 1703 1759 
L 1703 1831 
L 819 1831 
Q 791 1603 756 1384 
L 353 1478 
Q 528 2644 556 3597 
L 1697 3597 
L 1697 4588 
L 378 4588 
L 378 4978 
L 2106 4978 
L 2106 2888 
L 1697 2888 
L 1697 3213 
L 941 3213 
Q 934 2869 872 2222 
L 2144 2222 
z
M 3931 3394 
L 3375 3347 
Q 2628 3294 2459 3284 
L 2331 3700 
Q 2772 3709 2963 3719 
Q 3431 4450 3778 5325 
L 4231 5172 
Q 3809 4281 3431 3738 
L 3669 3750 
Q 4434 3784 5147 3859 
Q 4888 4225 4675 4456 
L 5000 4678 
Q 5547 4103 5959 3450 
L 5588 3188 
Q 5419 3456 5359 3547 
Q 4900 3478 4347 3431 
L 4347 2784 
L 5666 2784 
L 5666 1209 
L 4347 1209 
L 4347 231 
Q 4872 272 5288 331 
Q 5119 644 4944 881 
L 5322 1056 
Q 5772 475 6094 -238 
L 5678 -500 
Q 5594 -278 5456 13 
L 5416 6 
Q 4275 -225 2406 -359 
L 2259 97 
Q 3019 122 3853 184 
L 3931 191 
L 3931 1209 
L 3053 1209 
L 3053 844 
L 2638 844 
L 2638 2784 
L 3931 2784 
L 3931 3394 
z
M 3931 2413 
L 3053 2413 
L 3053 1581 
L 3931 1581 
L 3931 2413 
z
M 4347 2413 
L 4347 1581 
L 5244 1581 
L 5244 2413 
L 4347 2413 
z
" transform="scale(0.015625)"/>
      <path id="IPAexGothic-3044" d="M 3369 1447 
Q 2906 122 2278 122 
Q 1966 122 1647 481 
Q 1209 966 1044 1966 
Q 891 2888 891 4313 
L 1422 4313 
Q 1413 2444 1666 1550 
Q 1913 678 2278 678 
Q 2619 678 2925 1791 
L 3369 1447 
z
M 5378 1294 
Q 4928 2797 4034 3809 
L 4488 4031 
Q 5375 3000 5881 1563 
L 5378 1294 
z
" transform="scale(0.015625)"/>
      <path id="IPAexGothic-6b63" d="M 3547 409 
L 5916 409 
L 5916 -31 
L 481 -31 
L 481 409 
L 1441 409 
L 1441 3231 
L 1934 3231 
L 1934 409 
L 3059 409 
L 3059 4288 
L 750 4288 
L 750 4728 
L 5659 4728 
L 5659 4288 
L 3547 4288 
L 3547 2669 
L 5353 2669 
L 5353 2241 
L 3547 2241 
L 3547 409 
z
" transform="scale(0.015625)"/>
      <path id="IPAexGothic-306e" d="M 3119 469 
Q 5275 766 5275 2425 
Q 5275 3453 4413 3925 
Q 4041 4116 3547 4159 
Q 3394 2525 2850 1400 
Q 2322 306 1722 306 
Q 1384 306 1084 666 
Q 609 1244 609 2003 
Q 609 3025 1397 3794 
Q 2184 4563 3431 4563 
Q 4306 4563 4928 4122 
Q 5813 3506 5813 2425 
Q 5813 438 3431 6 
L 3119 469 
z
M 3053 4147 
Q 2378 4044 1891 3641 
Q 1097 2981 1097 1991 
Q 1097 1366 1434 978 
Q 1581 813 1719 813 
Q 2022 813 2416 1625 
Q 2909 2638 3053 4147 
z
" transform="scale(0.015625)"/>
      <path id="IPAexGothic-ff08" d="M 5419 -434 
Q 4197 769 4197 2438 
Q 4197 4097 5419 5300 
L 5919 5300 
Q 4678 4078 4678 2425 
Q 4678 788 5919 -434 
L 5419 -434 
z
" transform="scale(0.015625)"/>
      <path id="IPAexGothic-4e00" d="M 513 2847 
L 5881 2847 
L 5881 2328 
L 513 2328 
L 513 2847 
z
" transform="scale(0.015625)"/>
      <path id="IPAexGothic-65b9" d="M 2931 3750 
L 2925 3616 
Q 2916 3203 2872 2778 
L 5244 2778 
Q 5175 781 5000 156 
Q 4913 -144 4691 -247 
Q 4528 -325 4194 -325 
Q 3759 -325 3256 -263 
L 3144 269 
Q 3700 156 4141 156 
Q 4491 156 4556 463 
Q 4725 1197 4744 2350 
L 2822 2350 
Q 2822 2313 2816 2288 
Q 2538 428 916 -484 
L 563 -94 
Q 1859 491 2247 1869 
Q 2422 2488 2450 3750 
L 409 3750 
L 409 4178 
L 2931 4178 
L 2931 5175 
L 3431 5175 
L 3431 4178 
L 5984 4178 
L 5984 3750 
L 2931 3750 
z
" transform="scale(0.015625)"/>
      <path id="IPAexGothic-304c" d="M 659 3384 
Q 1434 3503 2113 3581 
Q 2313 4341 2394 4972 
L 2900 4875 
Q 2759 4147 2619 3628 
L 2719 3634 
Q 2894 3641 3041 3641 
Q 4072 3641 4072 2369 
Q 4072 1128 3700 384 
Q 3478 -56 3003 -56 
Q 2591 -56 2113 231 
L 2138 775 
Q 2631 444 2925 444 
Q 3169 444 3297 706 
Q 3566 1294 3566 2388 
Q 3566 3219 3016 3219 
Q 2825 3219 2497 3194 
Q 2388 2763 2113 2047 
Q 1634 797 1119 -38 
L 678 244 
Q 1356 1238 1863 2750 
Q 1888 2819 1991 3128 
Q 1594 3081 769 2916 
L 659 3384 
z
M 5441 1838 
Q 4913 3038 4091 3916 
L 4475 4184 
Q 5350 3269 5888 2156 
L 5441 1838 
z
M 5913 4275 
Q 5553 4819 5159 5147 
L 5459 5375 
Q 5844 5066 6234 4550 
L 5913 4275 
z
M 5344 3788 
Q 5053 4278 4609 4678 
L 4922 4922 
Q 5294 4613 5678 4063 
L 5344 3788 
z
" transform="scale(0.015625)"/>
      <path id="IPAexGothic-5897" d="M 1125 3719 
L 1125 5147 
L 1572 5147 
L 1572 3719 
L 2181 3719 
L 2181 3291 
L 1572 3291 
L 1572 1313 
Q 1931 1441 2256 1600 
L 2309 1184 
Q 1350 725 447 428 
L 275 891 
Q 784 1016 1125 1147 
L 1125 3291 
L 363 3291 
L 363 3719 
L 1125 3719 
z
M 3272 4434 
Q 3094 4838 2913 5106 
L 3347 5266 
Q 3600 4844 3750 4434 
L 4469 4434 
Q 4691 4872 4831 5306 
L 5306 5125 
Q 5116 4744 4934 4434 
L 5875 4434 
L 5875 2322 
L 2375 2322 
L 2375 4434 
L 3272 4434 
z
M 2803 4094 
L 2803 3566 
L 3897 3566 
L 3897 4094 
L 2803 4094 
z
M 2803 3241 
L 2803 2663 
L 3897 2663 
L 3897 3241 
L 2803 3241 
z
M 5447 2663 
L 5447 3241 
L 4313 3241 
L 4313 2663 
L 5447 2663 
z
M 5447 3566 
L 5447 4094 
L 4313 4094 
L 4313 3566 
L 5447 3566 
z
M 5631 1953 
L 5631 -447 
L 5203 -447 
L 5203 -159 
L 3084 -159 
L 3084 -447 
L 2650 -447 
L 2650 1953 
L 5631 1953 
z
M 3084 1600 
L 3084 1075 
L 5203 1075 
L 5203 1600 
L 3084 1600 
z
M 3084 744 
L 3084 188 
L 5203 188 
L 5203 744 
L 3084 744 
z
" transform="scale(0.015625)"/>
      <path id="IPAexGothic-3048" d="M 3797 4038 
Q 3144 4428 2013 4709 
L 2266 5106 
Q 3388 4838 4078 4469 
L 3797 4038 
z
M 1263 3347 
Q 2566 3428 3956 3641 
L 4291 3263 
Q 3759 2741 2875 1778 
Q 3156 1881 3356 1881 
Q 3909 1881 3919 1253 
L 3931 709 
Q 3941 456 4116 409 
Q 4244 372 4519 372 
Q 4944 372 5538 481 
L 5581 -31 
Q 5097 -103 4675 -103 
Q 4047 -103 3791 25 
Q 3484 178 3463 594 
L 3444 1094 
Q 3434 1491 3150 1491 
Q 2800 1491 2322 1072 
Q 1950 747 1109 -184 
L 738 166 
Q 2053 1434 3597 3181 
Q 2600 2988 1391 2841 
L 1263 3347 
z
" transform="scale(0.015625)"/>
      <path id="IPAexGothic-308b" d="M 4391 4397 
L 2613 2588 
Q 3225 2809 3759 2809 
Q 4263 2809 4659 2625 
Q 5391 2269 5391 1484 
Q 5391 756 4706 275 
Q 4072 -166 3053 -166 
Q 2559 -166 2247 19 
Q 1863 250 1863 666 
Q 1863 934 2069 1141 
Q 2331 1403 2741 1403 
Q 3509 1403 4019 428 
Q 4872 784 4872 1491 
Q 4872 1981 4469 2222 
Q 4166 2406 3681 2406 
Q 2425 2406 1238 1209 
L 891 1581 
Q 2438 2934 3578 4281 
Q 2594 4125 1588 4066 
L 1478 4550 
Q 2594 4581 4109 4763 
L 4391 4397 
z
M 3591 303 
Q 3244 1025 2731 1025 
Q 2553 1025 2434 934 
Q 2316 844 2316 700 
Q 2316 250 3034 250 
Q 3275 250 3591 303 
z
" transform="scale(0.015625)"/>
      <path id="IPAexGothic-4ed6" d="M 2888 2881 
L 2888 581 
Q 2888 322 3022 256 
Q 3166 178 4047 178 
Q 4928 178 5184 228 
Q 5419 278 5466 478 
Q 5506 622 5538 1044 
L 5550 1159 
L 6009 1006 
Q 5934 34 5684 -128 
Q 5444 -281 4091 -281 
Q 2938 -281 2672 -153 
Q 2434 -41 2434 300 
L 2434 2747 
L 1794 2553 
L 1691 2988 
L 2434 3200 
L 2434 4825 
L 2888 4825 
L 2888 3328 
L 3644 3547 
L 3644 5247 
L 4097 5247 
L 4097 3675 
L 5300 4013 
L 5563 3834 
L 5563 1875 
Q 5563 1566 5428 1459 
Q 5319 1369 5059 1369 
Q 4844 1369 4438 1403 
L 4366 1850 
Q 4750 1778 4922 1778 
Q 5122 1778 5122 2009 
L 5122 3541 
L 4097 3238 
L 4097 991 
L 3644 991 
L 3644 3103 
L 2888 2881 
z
M 1503 3775 
L 1503 -447 
L 1063 -447 
L 1063 2900 
Q 797 2431 481 2022 
L 219 2419 
Q 1125 3622 1566 5241 
L 1991 5106 
Q 1822 4531 1503 3775 
z
" transform="scale(0.015625)"/>
      <path id="IPAexGothic-3082" d="M 997 3950 
Q 1622 3844 2303 3816 
L 2491 5056 
L 2988 4984 
Q 2872 4363 2797 3816 
Q 3475 3822 4244 3938 
L 4244 3494 
Q 3659 3394 2731 3372 
Q 2700 3131 2603 2381 
Q 3263 2381 4031 2509 
L 4031 2059 
Q 3359 1947 2534 1947 
Q 2472 1447 2472 1216 
Q 2472 191 3609 191 
Q 4831 191 4831 1163 
Q 4831 1597 4500 2131 
L 5003 2181 
Q 5338 1638 5338 1153 
Q 5338 472 4819 75 
Q 4372 -256 3609 -256 
Q 2003 -256 2003 1153 
Q 2003 1556 2059 1959 
Q 1372 2022 1013 2094 
L 1056 2541 
Q 1581 2431 2125 2400 
L 2247 3378 
Q 1550 3406 941 3519 
L 997 3950 
z
" transform="scale(0.015625)"/>
      <path id="IPAexGothic-ff09" d="M 481 -434 
Q 1722 788 1722 2431 
Q 1722 4066 481 5300 
L 981 5300 
Q 2203 4097 2203 2431 
Q 2203 769 981 -434 
L 481 -434 
z
" transform="scale(0.015625)"/>
     </defs>
     <use xlink:href="#IPAexGothic-5f37"/>
     <use xlink:href="#IPAexGothic-3044" x="100"/>
     <use xlink:href="#IPAexGothic-6b63" x="200"/>
     <use xlink:href="#IPAexGothic-306e" x="300"/>
     <use xlink:href="#IPAexGothic-76f8" x="400"/>
     <use xlink:href="#IPAexGothic-95a2" x="500"/>
     <use xlink:href="#IPAexGothic-ff08" x="600"/>
     <use xlink:href="#IPAexGothic-4e00" x="700"/>
     <use xlink:href="#IPAexGothic-65b9" x="800"/>
     <use xlink:href="#IPAexGothic-304c" x="900"/>
     <use xlink:href="#IPAexGothic-5897" x="1000"/>
     <use xlink:href="#IPAexGothic-3048" x="1100"/>
     <use xlink:href="#IPAexGothic-308b" x="1200"/>
     <use xlink:href="#IPAexGothic-3068" x="1300"/>
     <use xlink:href="#IPAexGothic-4ed6" x="1400"/>
     <use xlink:href="#IPAexGothic-65b9" x="1500"/>
     <use xlink:href="#IPAexGothic-3082" x="1600"/>
     <use xlink:href="#IPAexGothic-5897" x="1700"/>
     <use xlink:href="#IPAexGothic-3048" x="1800"/>
     <use xlink:href="#IPAexGothic-308b" x="1900"/>
     <use xlink:href="#IPAexGothic-ff09" x="2000"/>
    </g>
   </g>
   <g id="text_7">
    <!-- r ≈ 0 -->
    <g style="fill: #2c3e50" transform="translate(38.88 144.753906) scale(0.13 -0.13)">
     <defs>
      <path id="IPAexGothic-30" d="M 2038 4725 
Q 2881 4725 3334 3944 
Q 3694 3325 3694 2344 
Q 3694 1372 3334 741 
Q 2888 -31 2016 -31 
Q 1147 -31 700 741 
Q 341 1372 341 2350 
Q 341 3713 1000 4334 
Q 1419 4725 2038 4725 
z
M 2016 4266 
Q 1516 4266 1228 3759 
Q 934 3247 934 2344 
Q 934 1456 1222 947 
Q 1513 447 2016 447 
Q 2619 447 2909 1153 
Q 3100 1622 3100 2375 
Q 3100 3256 2806 3759 
Q 2509 4266 2016 4266 
z
" transform="scale(0.015625)"/>
     </defs>
     <use xlink:href="#IPAexGothic-72"/>
     <use xlink:href="#IPAexGothic-20" x="37.011719"/>
     <use xlink:href="#IPAexGothic-2248" x="64.013672"/>
     <use xlink:href="#IPAexGothic-20" x="131.835938"/>
     <use xlink:href="#IPAexGothic-30" x="158.837891"/>
    </g>
   </g>
   <g id="text_8">
    <!-- 相関なし（2変数に関係がない） -->
    <g style="fill: #2c3e50" transform="translate(154.08 144.753906) scale(0.13 -0.13)">
     <defs>
      <path id="IPAexGothic-306a" d="M 3906 3147 
L 4372 3147 
Q 4381 2278 4444 1272 
Q 5244 1003 5838 631 
L 5556 222 
Q 4953 600 4463 813 
Q 4478 263 4234 22 
Q 3984 -225 3419 -225 
Q 2897 -225 2563 0 
Q 2216 231 2216 647 
Q 2216 1081 2656 1319 
Q 2959 1484 3297 1484 
Q 3638 1484 3969 1413 
Q 3916 2219 3906 3147 
z
M 3975 984 
Q 3631 1081 3297 1081 
Q 3031 1081 2856 978 
Q 2663 863 2663 653 
Q 2663 197 3400 197 
Q 3750 197 3875 378 
Q 3997 556 3975 984 
z
M 738 3928 
Q 1453 3884 1997 3938 
Q 2144 4381 2294 5125 
L 2784 5050 
Q 2684 4559 2516 3988 
Q 2969 4031 3559 4172 
L 3578 3713 
Q 2919 3575 2375 3531 
Q 1853 2028 1044 831 
L 603 1113 
Q 1325 2063 1856 3488 
Q 1063 3459 763 3475 
L 738 3928 
z
M 5538 2759 
Q 5000 3353 4263 3853 
L 4591 4191 
Q 5338 3728 5897 3128 
L 5538 2759 
z
" transform="scale(0.015625)"/>
      <path id="IPAexGothic-3057" d="M 1750 4884 
L 2281 4884 
L 2238 1319 
Q 2228 809 2391 569 
Q 2594 281 3128 281 
Q 3772 281 4344 744 
Q 4822 1131 5156 1759 
L 5534 1369 
Q 5094 653 4534 263 
Q 3878 -206 3134 -206 
Q 2341 -206 1994 213 
Q 1697 575 1706 1269 
L 1750 4884 
z
" transform="scale(0.015625)"/>
      <path id="IPAexGothic-5909" d="M 2147 1253 
Q 1641 822 944 563 
L 672 900 
Q 1938 1391 2556 2394 
L 2972 2231 
Q 2847 2034 2747 1900 
L 4750 1900 
L 4969 1700 
Q 4422 984 3859 563 
Q 4650 241 6094 69 
L 5825 -366 
Q 4275 -125 3431 288 
Q 2441 -272 603 -538 
L 341 -134 
Q 2103 75 2997 538 
Q 2591 791 2184 1209 
L 2147 1253 
z
M 2434 1528 
L 2422 1516 
Q 2803 1106 3425 778 
Q 3888 1078 4269 1528 
L 2434 1528 
z
M 4059 4147 
L 4059 2650 
Q 4059 2272 3663 2272 
Q 3416 2272 3047 2309 
L 2963 2725 
Q 3241 2681 3431 2681 
Q 3631 2681 3631 2872 
L 3631 4147 
L 2822 4147 
Q 2766 3291 2503 2816 
Q 2191 2259 1503 1869 
L 1172 2156 
Q 1878 2572 2144 3066 
Q 2359 3456 2388 4147 
L 403 4147 
L 403 4544 
L 2938 4544 
L 2938 5294 
L 3419 5294 
L 3419 4544 
L 6000 4544 
L 6000 4147 
L 4059 4147 
z
M 5494 2363 
Q 4828 3150 4328 3584 
L 4672 3859 
Q 5266 3369 5878 2656 
L 5494 2363 
z
M 341 2528 
Q 1025 3022 1441 3775 
L 1844 3597 
Q 1406 2781 706 2241 
L 341 2528 
z
" transform="scale(0.015625)"/>
      <path id="IPAexGothic-306b" d="M 1088 -38 
Q 922 1003 922 2081 
Q 922 3222 1331 4794 
L 1813 4684 
Q 1391 3113 1391 2003 
Q 1391 1441 1422 1147 
Q 1434 1181 1813 2016 
L 2125 1797 
Q 1800 1081 1691 763 
Q 1581 453 1581 269 
Q 1581 78 1588 6 
L 1088 -38 
z
M 2834 4038 
Q 3969 4213 5313 4172 
L 5338 3681 
Q 3959 3728 2869 3547 
L 2834 4038 
z
M 5650 256 
Q 5044 172 4372 172 
Q 3463 172 3047 434 
Q 2784 594 2675 841 
Q 2572 1075 2572 1447 
Q 2572 1563 2578 1656 
L 3053 1684 
Q 3050 1613 3044 1528 
Q 3041 1481 3041 1466 
Q 3041 1200 3119 1053 
Q 3178 944 3309 850 
Q 3569 678 4275 678 
Q 4891 678 5588 763 
L 5650 256 
z
" transform="scale(0.015625)"/>
     </defs>
     <use xlink:href="#IPAexGothic-76f8"/>
     <use xlink:href="#IPAexGothic-95a2" x="100"/>
     <use xlink:href="#IPAexGothic-306a" x="200"/>
     <use xlink:href="#IPAexGothic-3057" x="300"/>
     <use xlink:href="#IPAexGothic-ff08" x="400"/>
     <use xlink:href="#IPAexGothic-32" x="500"/>
     <use xlink:href="#IPAexGothic-5909" x="562.988281"/>
     <use xlink:href="#IPAexGothic-6570" x="662.988281"/>
     <use xlink:href="#IPAexGothic-306b" x="762.988281"/>
     <use xlink:href="#IPAexGothic-95a2" x="862.988281"/>
     <use xlink:href="#IPAexGothic-4fc2" x="962.988281"/>
     <use xlink:href="#IPAexGothic-304c" x="1062.988281"/>
     <use xlink:href="#IPAexGothic-306a" x="1162.988281"/>
     <use xlink:href="#IPAexGothic-3044" x="1262.988281"/>
     <use xlink:href="#IPAexGothic-ff09" x="1362.988281"/>
    </g>
   </g>
   <g id="text_9">
    <!-- r ≈ −1 -->
    <g style="fill: #2c3e50" transform="translate(38.88 173.553906) scale(0.13 -0.13)">
     <defs>
      <path id="IPAexGothic-2212" d="M 416 2222 
L 3922 2222 
L 3922 1856 
L 416 1856 
L 416 2222 
z
" transform="scale(0.015625)"/>
     </defs>
     <use xlink:href="#IPAexGothic-72"/>
     <use xlink:href="#IPAexGothic-20" x="37.011719"/>
     <use xlink:href="#IPAexGothic-2248" x="64.013672"/>
     <use xlink:href="#IPAexGothic-20" x="131.835938"/>
     <use xlink:href="#IPAexGothic-2212" x="158.837891"/>
     <use xlink:href="#IPAexGothic-31" x="226.660156"/>
    </g>
   </g>
   <g id="text_10">
    <!-- 強い負の相関（一方が増えると他方は減る） -->
    <g style="fill: #2c3e50" transform="translate(154.08 173.553906) scale(0.13 -0.13)">
     <defs>
      <path id="IPAexGothic-8ca0" d="M 3897 3803 
L 5356 3803 
L 5356 716 
L 1363 716 
L 1363 3356 
Q 1122 3144 716 2875 
L 409 3222 
Q 1725 4066 2309 5316 
L 2772 5228 
Q 2706 5100 2578 4856 
L 4338 4856 
L 4588 4684 
Q 4225 4169 3897 3803 
z
M 3359 3803 
Q 3666 4138 3897 4472 
L 2347 4472 
Q 2184 4213 1822 3803 
L 3359 3803 
z
M 1816 3419 
L 1816 2894 
L 4903 2894 
L 4903 3419 
L 1816 3419 
z
M 1816 2534 
L 1816 2003 
L 4903 2003 
L 4903 2534 
L 1816 2534 
z
M 1816 1638 
L 1816 1100 
L 4903 1100 
L 4903 1638 
L 1816 1638 
z
M 575 -97 
Q 1625 153 2438 684 
L 2828 416 
Q 2028 -159 878 -513 
L 575 -97 
z
M 5606 -416 
Q 4575 109 3750 397 
L 4116 684 
Q 4988 419 5991 -13 
L 5606 -416 
z
" transform="scale(0.015625)"/>
      <path id="IPAexGothic-306f" d="M 4066 4875 
L 4538 4875 
L 4556 3769 
Q 5003 3816 5581 3941 
L 5619 3469 
Q 5256 3394 4563 3322 
L 4597 1441 
Q 5100 1284 5934 756 
L 5656 313 
Q 5066 772 4609 978 
Q 4609 441 4384 225 
Q 4128 -13 3634 -13 
Q 2991 -13 2669 231 
Q 2388 444 2388 831 
Q 2388 1225 2772 1484 
Q 3050 1669 3534 1669 
Q 3759 1669 4134 1594 
L 4097 3288 
Q 3697 3269 3359 3269 
Q 2925 3269 2484 3300 
L 2466 3763 
Q 2953 3716 3456 3716 
Q 3738 3716 4091 3738 
L 4066 4875 
z
M 4141 1153 
Q 3753 1259 3513 1259 
Q 2841 1259 2841 850 
Q 2841 422 3634 422 
Q 3888 422 4022 569 
Q 4141 700 4141 922 
Q 4141 1088 4141 1153 
z
M 1000 -50 
Q 794 1072 794 1931 
Q 794 3153 1247 4884 
L 1728 4763 
Q 1269 3044 1269 1900 
Q 1269 1569 1306 1106 
Q 1591 1706 1753 1997 
L 2075 1806 
Q 1484 716 1484 141 
Q 1484 72 1491 0 
L 1000 -50 
z
" transform="scale(0.015625)"/>
      <path id="IPAexGothic-6e1b" d="M 4531 1175 
Q 4263 2144 4184 3794 
L 2419 3794 
L 2419 2566 
Q 2419 1391 2309 741 
Q 2194 59 1844 -481 
L 1491 -156 
Q 1991 622 1991 2419 
L 1991 4172 
L 4172 4172 
L 4153 4469 
Q 4150 4556 4141 4816 
Q 4131 5156 4128 5306 
L 4563 5306 
Q 4575 4588 4594 4206 
L 5938 4206 
L 5938 3822 
L 4613 3822 
Q 4697 2419 4831 1706 
Q 5131 2281 5381 3250 
L 5791 3078 
Q 5466 1978 4991 1144 
Q 5125 753 5306 459 
Q 5391 325 5441 325 
Q 5556 325 5703 1259 
L 6106 947 
Q 5844 -353 5534 -353 
Q 5397 -353 5203 -150 
Q 4922 163 4697 697 
Q 4181 19 3513 -475 
L 3188 -141 
Q 4000 384 4531 1175 
z
M 4038 2431 
L 4038 903 
L 3066 903 
L 3066 506 
L 2694 506 
L 2694 2431 
L 4038 2431 
z
M 3066 2088 
L 3066 1247 
L 3659 1247 
L 3659 2088 
L 3066 2088 
z
M 1472 3872 
Q 963 4463 556 4769 
L 856 5100 
Q 1372 4728 1784 4250 
L 1472 3872 
z
M 1209 2375 
Q 781 2897 294 3256 
L 581 3603 
Q 1109 3213 1516 2759 
L 1209 2375 
z
M 331 -103 
Q 838 763 1172 1931 
L 1547 1644 
Q 1188 422 722 -441 
L 331 -103 
z
M 2609 3272 
L 4081 3272 
L 4081 2900 
L 2609 2900 
L 2609 3272 
z
M 5413 4281 
Q 5128 4753 4881 5019 
L 5259 5209 
Q 5566 4884 5803 4513 
L 5413 4281 
z
" transform="scale(0.015625)"/>
     </defs>
     <use xlink:href="#IPAexGothic-5f37"/>
     <use xlink:href="#IPAexGothic-3044" x="100"/>
     <use xlink:href="#IPAexGothic-8ca0" x="200"/>
     <use xlink:href="#IPAexGothic-306e" x="300"/>
     <use xlink:href="#IPAexGothic-76f8" x="400"/>
     <use xlink:href="#IPAexGothic-95a2" x="500"/>
     <use xlink:href="#IPAexGothic-ff08" x="600"/>
     <use xlink:href="#IPAexGothic-4e00" x="700"/>
     <use xlink:href="#IPAexGothic-65b9" x="800"/>
     <use xlink:href="#IPAexGothic-304c" x="900"/>
     <use xlink:href="#IPAexGothic-5897" x="1000"/>
     <use xlink:href="#IPAexGothic-3048" x="1100"/>
     <use xlink:href="#IPAexGothic-308b" x="1200"/>
     <use xlink:href="#IPAexGothic-3068" x="1300"/>
     <use xlink:href="#IPAexGothic-4ed6" x="1400"/>
     <use xlink:href="#IPAexGothic-65b9" x="1500"/>
     <use xlink:href="#IPAexGothic-306f" x="1600"/>
     <use xlink:href="#IPAexGothic-6e1b" x="1700"/>
     <use xlink:href="#IPAexGothic-308b" x="1800"/>
     <use xlink:href="#IPAexGothic-ff09" x="1900"/>
    </g>
   </g>
   <g id="text_11">
    <!-- # 相関行列とヒートマップ -->
    <g style="fill: #cdd6f4" transform="translate(40.32 211.005234) scale(0.105 -0.105)">
     <defs>
      <path id="DejaVuSansMono-23" d="M 2138 4594 
L 1813 3297 
L 2578 3297 
L 2906 4594 
L 3406 4594 
L 3078 3297 
L 3841 3297 
L 3841 2816 
L 2963 2816 
L 2700 1772 
L 3481 1772 
L 3481 1294 
L 2578 1294 
L 2253 0 
L 1753 0 
L 2081 1294 
L 1313 1294 
L 984 0 
L 488 0 
L 813 1294 
L 6 1294 
L 6 1772 
L 934 1772 
L 1197 2816 
L 366 2816 
L 366 3297 
L 1313 3297 
L 1638 4594 
L 2138 4594 
z
M 2463 2816 
L 1697 2816 
L 1434 1772 
L 2203 1772 
L 2463 2816 
z
" transform="scale(0.015625)"/>
      <path id="DejaVuSansMono-20" transform="scale(0.015625)"/>
      <path id="DejaVuSansMono-76f8" d="M 325 -1131 
L 325 4513 
L 3525 4513 
L 3525 -1131 
L 325 -1131 
z
M 684 -775 
L 3169 -775 
L 3169 4153 
L 684 4153 
L 684 -775 
z
" transform="scale(0.015625)"/>
      <path id="DejaVuSansMono-95a2" d="M 325 -1131 
L 325 4513 
L 3525 4513 
L 3525 -1131 
L 325 -1131 
z
M 684 -775 
L 3169 -775 
L 3169 4153 
L 684 4153 
L 684 -775 
z
" transform="scale(0.015625)"/>
      <path id="DejaVuSansMono-884c" d="M 325 -1131 
L 325 4513 
L 3525 4513 
L 3525 -1131 
L 325 -1131 
z
M 684 -775 
L 3169 -775 
L 3169 4153 
L 684 4153 
L 684 -775 
z
" transform="scale(0.015625)"/>
      <path id="DejaVuSansMono-5217" d="M 325 -1131 
L 325 4513 
L 3525 4513 
L 3525 -1131 
L 325 -1131 
z
M 684 -775 
L 3169 -775 
L 3169 4153 
L 684 4153 
L 684 -775 
z
" transform="scale(0.015625)"/>
      <path id="DejaVuSansMono-3068" d="M 325 -1131 
L 325 4513 
L 3525 4513 
L 3525 -1131 
L 325 -1131 
z
M 684 -775 
L 3169 -775 
L 3169 4153 
L 684 4153 
L 684 -775 
z
" transform="scale(0.015625)"/>
      <path id="DejaVuSansMono-30d2" d="M 325 -1131 
L 325 4513 
L 3525 4513 
L 3525 -1131 
L 325 -1131 
z
M 684 -775 
L 3169 -775 
L 3169 4153 
L 684 4153 
L 684 -775 
z
" transform="scale(0.015625)"/>
      <path id="DejaVuSansMono-30fc" d="M 325 -1131 
L 325 4513 
L 3525 4513 
L 3525 -1131 
L 325 -1131 
z
M 684 -775 
L 3169 -775 
L 3169 4153 
L 684 4153 
L 684 -775 
z
" transform="scale(0.015625)"/>
      <path id="DejaVuSansMono-30c8" d="M 325 -1131 
L 325 4513 
L 3525 4513 
L 3525 -1131 
L 325 -1131 
z
M 684 -775 
L 3169 -775 
L 3169 4153 
L 684 4153 
L 684 -775 
z
" transform="scale(0.015625)"/>
      <path id="DejaVuSansMono-30de" d="M 325 -1131 
L 325 4513 
L 3525 4513 
L 3525 -1131 
L 325 -1131 
z
M 684 -775 
L 3169 -775 
L 3169 4153 
L 684 4153 
L 684 -775 
z
" transform="scale(0.015625)"/>
      <path id="DejaVuSansMono-30c3" d="M 325 -1131 
L 325 4513 
L 3525 4513 
L 3525 -1131 
L 325 -1131 
z
M 684 -775 
L 3169 -775 
L 3169 4153 
L 684 4153 
L 684 -775 
z
" transform="scale(0.015625)"/>
      <path id="DejaVuSansMono-30d7" d="M 325 -1131 
L 325 4513 
L 3525 4513 
L 3525 -1131 
L 325 -1131 
z
M 684 -775 
L 3169 -775 
L 3169 4153 
L 684 4153 
L 684 -775 
z
" transform="scale(0.015625)"/>
     </defs>
     <use xlink:href="#DejaVuSansMono-23"/>
     <use xlink:href="#DejaVuSansMono-20" x="60.205078"/>
     <use xlink:href="#DejaVuSansMono-76f8" x="120.410156"/>
     <use xlink:href="#DejaVuSansMono-95a2" x="180.615234"/>
     <use xlink:href="#DejaVuSansMono-884c" x="240.820312"/>
     <use xlink:href="#DejaVuSansMono-5217" x="301.025391"/>
     <use xlink:href="#DejaVuSansMono-3068" x="361.230469"/>
     <use xlink:href="#DejaVuSansMono-30d2" x="421.435547"/>
     <use xlink:href="#DejaVuSansMono-30fc" x="481.640625"/>
     <use xlink:href="#DejaVuSansMono-30c8" x="541.845703"/>
     <use xlink:href="#DejaVuSansMono-30de" x="602.050781"/>
     <use xlink:href="#DejaVuSansMono-30c3" x="662.255859"/>
     <use xlink:href="#DejaVuSansMono-30d7" x="722.460938"/>
    </g>
   </g>
   <g id="text_12">
    <!-- corr = df.corr() -->
    <g style="fill: #cdd6f4" transform="translate(40.32 225.405234) scale(0.105 -0.105)">
     <defs>
      <path id="DejaVuSansMono-63" d="M 3316 178 
Q 3084 44 2839 -23 
Q 2594 -91 2338 -91 
Q 1525 -91 1067 396 
Q 609 884 609 1747 
Q 609 2609 1067 3096 
Q 1525 3584 2338 3584 
Q 2591 3584 2831 3518 
Q 3072 3453 3316 3316 
L 3316 2713 
Q 3088 2916 2858 3006 
Q 2628 3097 2338 3097 
Q 1797 3097 1506 2747 
Q 1216 2397 1216 1747 
Q 1216 1100 1508 748 
Q 1800 397 2338 397 
Q 2638 397 2875 489 
Q 3113 581 3316 775 
L 3316 178 
z
" transform="scale(0.015625)"/>
      <path id="DejaVuSansMono-6f" d="M 1925 3097 
Q 1488 3097 1263 2756 
Q 1038 2416 1038 1747 
Q 1038 1081 1263 739 
Q 1488 397 1925 397 
Q 2366 397 2591 739 
Q 2816 1081 2816 1747 
Q 2816 2416 2591 2756 
Q 2366 3097 1925 3097 
z
M 1925 3584 
Q 2653 3584 3039 3112 
Q 3425 2641 3425 1747 
Q 3425 850 3040 379 
Q 2656 -91 1925 -91 
Q 1197 -91 812 379 
Q 428 850 428 1747 
Q 428 2641 812 3112 
Q 1197 3584 1925 3584 
z
" transform="scale(0.015625)"/>
      <path id="DejaVuSansMono-72" d="M 3609 2778 
Q 3425 2922 3234 2987 
Q 3044 3053 2816 3053 
Q 2278 3053 1993 2715 
Q 1709 2378 1709 1741 
L 1709 0 
L 1131 0 
L 1131 3500 
L 1709 3500 
L 1709 2816 
Q 1853 3188 2151 3386 
Q 2450 3584 2859 3584 
Q 3072 3584 3256 3531 
Q 3441 3478 3609 3366 
L 3609 2778 
z
" transform="scale(0.015625)"/>
      <path id="DejaVuSansMono-3d" d="M 275 1638 
L 3578 1638 
L 3578 1100 
L 275 1100 
L 275 1638 
z
M 275 2906 
L 3578 2906 
L 3578 2375 
L 275 2375 
L 275 2906 
z
" transform="scale(0.015625)"/>
      <path id="DejaVuSansMono-64" d="M 2681 3053 
L 2681 4863 
L 3256 4863 
L 3256 0 
L 2681 0 
L 2681 441 
Q 2538 181 2298 45 
Q 2059 -91 1747 -91 
Q 1113 -91 748 401 
Q 384 894 384 1759 
Q 384 2613 750 3098 
Q 1116 3584 1747 3584 
Q 2063 3584 2303 3448 
Q 2544 3313 2681 3053 
z
M 991 1747 
Q 991 1078 1203 737 
Q 1416 397 1831 397 
Q 2247 397 2464 740 
Q 2681 1084 2681 1747 
Q 2681 2413 2464 2755 
Q 2247 3097 1831 3097 
Q 1416 3097 1203 2756 
Q 991 2416 991 1747 
z
" transform="scale(0.015625)"/>
      <path id="DejaVuSansMono-66" d="M 3322 4863 
L 3322 4384 
L 2669 4384 
Q 2359 4384 2239 4257 
Q 2119 4131 2119 3809 
L 2119 3500 
L 3322 3500 
L 3322 3053 
L 2119 3053 
L 2119 0 
L 1544 0 
L 1544 3053 
L 609 3053 
L 609 3500 
L 1544 3500 
L 1544 3744 
Q 1544 4319 1808 4591 
Q 2072 4863 2631 4863 
L 3322 4863 
z
" transform="scale(0.015625)"/>
      <path id="DejaVuSansMono-2e" d="M 1528 953 
L 2316 953 
L 2316 0 
L 1528 0 
L 1528 953 
z
" transform="scale(0.015625)"/>
      <path id="DejaVuSansMono-28" d="M 2766 4856 
Q 2350 4144 2145 3436 
Q 1941 2728 1941 2009 
Q 1941 1294 2145 584 
Q 2350 -125 2766 -844 
L 2266 -844 
Q 1794 -100 1562 604 
Q 1331 1309 1331 2009 
Q 1331 2706 1562 3412 
Q 1794 4119 2266 4856 
L 2766 4856 
z
" transform="scale(0.015625)"/>
      <path id="DejaVuSansMono-29" d="M 1088 4856 
L 1588 4856 
Q 2059 4119 2290 3412 
Q 2522 2706 2522 2009 
Q 2522 1306 2290 600 
Q 2059 -106 1588 -844 
L 1088 -844 
Q 1503 -119 1708 590 
Q 1913 1300 1913 2009 
Q 1913 2722 1708 3431 
Q 1503 4141 1088 4856 
z
" transform="scale(0.015625)"/>
     </defs>
     <use xlink:href="#DejaVuSansMono-63"/>
     <use xlink:href="#DejaVuSansMono-6f" x="60.205078"/>
     <use xlink:href="#DejaVuSansMono-72" x="120.410156"/>
     <use xlink:href="#DejaVuSansMono-72" x="180.615234"/>
     <use xlink:href="#DejaVuSansMono-20" x="240.820312"/>
     <use xlink:href="#DejaVuSansMono-3d" x="301.025391"/>
     <use xlink:href="#DejaVuSansMono-20" x="361.230469"/>
     <use xlink:href="#DejaVuSansMono-64" x="421.435547"/>
     <use xlink:href="#DejaVuSansMono-66" x="481.640625"/>
     <use xlink:href="#DejaVuSansMono-2e" x="541.845703"/>
     <use xlink:href="#DejaVuSansMono-63" x="602.050781"/>
     <use xlink:href="#DejaVuSansMono-6f" x="662.255859"/>
     <use xlink:href="#DejaVuSansMono-72" x="722.460938"/>
     <use xlink:href="#DejaVuSansMono-72" x="782.666016"/>
     <use xlink:href="#DejaVuSansMono-28" x="842.871094"/>
     <use xlink:href="#DejaVuSansMono-29" x="903.076172"/>
    </g>
   </g>
   <g id="text_13">
    <!-- sns.heatmap(corr, annot=True, fmt=".2f", cmap="coolwarm", center=0) -->
    <g style="fill: #cdd6f4" transform="translate(40.32 239.805234) scale(0.105 -0.105)">
     <defs>
      <path id="DejaVuSansMono-73" d="M 3041 3378 
L 3041 2816 
Q 2794 2959 2544 3031 
Q 2294 3103 2034 3103 
Q 1644 3103 1451 2976 
Q 1259 2850 1259 2591 
Q 1259 2356 1403 2240 
Q 1547 2125 2119 2016 
L 2350 1972 
Q 2778 1891 2998 1647 
Q 3219 1403 3219 1013 
Q 3219 494 2850 201 
Q 2481 -91 1825 -91 
Q 1566 -91 1281 -36 
Q 997 19 666 128 
L 666 722 
Q 988 556 1281 473 
Q 1575 391 1838 391 
Q 2219 391 2428 545 
Q 2638 700 2638 978 
Q 2638 1378 1872 1531 
L 1847 1538 
L 1631 1581 
Q 1134 1678 906 1908 
Q 678 2138 678 2534 
Q 678 3038 1018 3311 
Q 1359 3584 1991 3584 
Q 2272 3584 2531 3532 
Q 2791 3481 3041 3378 
z
" transform="scale(0.015625)"/>
      <path id="DejaVuSansMono-6e" d="M 3284 2169 
L 3284 0 
L 2706 0 
L 2706 2169 
Q 2706 2641 2540 2862 
Q 2375 3084 2022 3084 
Q 1619 3084 1401 2798 
Q 1184 2513 1184 1978 
L 1184 0 
L 609 0 
L 609 3500 
L 1184 3500 
L 1184 2975 
Q 1338 3275 1600 3429 
Q 1863 3584 2222 3584 
Q 2756 3584 3020 3232 
Q 3284 2881 3284 2169 
z
" transform="scale(0.015625)"/>
      <path id="DejaVuSansMono-68" d="M 3284 2169 
L 3284 0 
L 2706 0 
L 2706 2169 
Q 2706 2641 2540 2862 
Q 2375 3084 2022 3084 
Q 1619 3084 1401 2798 
Q 1184 2513 1184 1978 
L 1184 0 
L 609 0 
L 609 4863 
L 1184 4863 
L 1184 2975 
Q 1338 3275 1600 3429 
Q 1863 3584 2222 3584 
Q 2756 3584 3020 3232 
Q 3284 2881 3284 2169 
z
" transform="scale(0.015625)"/>
      <path id="DejaVuSansMono-65" d="M 3475 1894 
L 3475 1613 
L 984 1613 
L 984 1594 
Q 984 1022 1282 709 
Q 1581 397 2125 397 
Q 2400 397 2700 484 
Q 3000 572 3341 750 
L 3341 178 
Q 3013 44 2708 -23 
Q 2403 -91 2119 -91 
Q 1303 -91 843 398 
Q 384 888 384 1747 
Q 384 2584 834 3084 
Q 1284 3584 2034 3584 
Q 2703 3584 3089 3131 
Q 3475 2678 3475 1894 
z
M 2900 2063 
Q 2888 2569 2661 2833 
Q 2434 3097 2009 3097 
Q 1594 3097 1325 2822 
Q 1056 2547 1006 2059 
L 2900 2063 
z
" transform="scale(0.015625)"/>
      <path id="DejaVuSansMono-61" d="M 2194 1759 
L 2003 1759 
Q 1500 1759 1245 1582 
Q 991 1406 991 1056 
Q 991 741 1181 566 
Q 1372 391 1709 391 
Q 2184 391 2456 720 
Q 2728 1050 2731 1631 
L 2731 1759 
L 2194 1759 
z
M 3309 1997 
L 3309 0 
L 2731 0 
L 2731 519 
Q 2547 206 2267 57 
Q 1988 -91 1588 -91 
Q 1053 -91 734 211 
Q 416 513 416 1019 
Q 416 1603 808 1906 
Q 1200 2209 1959 2209 
L 2731 2209 
L 2731 2300 
Q 2728 2719 2518 2908 
Q 2309 3097 1850 3097 
Q 1556 3097 1256 3012 
Q 956 2928 672 2766 
L 672 3341 
Q 991 3463 1283 3523 
Q 1575 3584 1850 3584 
Q 2284 3584 2592 3456 
Q 2900 3328 3091 3072 
Q 3209 2916 3259 2686 
Q 3309 2456 3309 1997 
z
" transform="scale(0.015625)"/>
      <path id="DejaVuSansMono-74" d="M 1919 4494 
L 1919 3500 
L 3225 3500 
L 3225 3053 
L 1919 3053 
L 1919 1153 
Q 1919 766 2066 612 
Q 2213 459 2578 459 
L 3225 459 
L 3225 0 
L 2522 0 
Q 1875 0 1609 259 
Q 1344 519 1344 1153 
L 1344 3053 
L 409 3053 
L 409 3500 
L 1344 3500 
L 1344 4494 
L 1919 4494 
z
" transform="scale(0.015625)"/>
      <path id="DejaVuSansMono-6d" d="M 2113 3144 
Q 2219 3369 2383 3476 
Q 2547 3584 2778 3584 
Q 3200 3584 3373 3257 
Q 3547 2931 3547 2028 
L 3547 0 
L 3022 0 
L 3022 2003 
Q 3022 2744 2939 2923 
Q 2856 3103 2638 3103 
Q 2388 3103 2295 2911 
Q 2203 2719 2203 2003 
L 2203 0 
L 1678 0 
L 1678 2003 
Q 1678 2753 1589 2928 
Q 1500 3103 1269 3103 
Q 1041 3103 952 2911 
Q 863 2719 863 2003 
L 863 0 
L 341 0 
L 341 3500 
L 863 3500 
L 863 3200 
Q 966 3388 1120 3486 
Q 1275 3584 1472 3584 
Q 1709 3584 1867 3475 
Q 2025 3366 2113 3144 
z
" transform="scale(0.015625)"/>
      <path id="DejaVuSansMono-70" d="M 1172 441 
L 1172 -1331 
L 594 -1331 
L 594 3500 
L 1172 3500 
L 1172 3053 
Q 1316 3313 1555 3448 
Q 1794 3584 2106 3584 
Q 2741 3584 3102 3093 
Q 3463 2603 3463 1734 
Q 3463 881 3100 395 
Q 2738 -91 2106 -91 
Q 1788 -91 1548 45 
Q 1309 181 1172 441 
z
M 2859 1747 
Q 2859 2416 2648 2756 
Q 2438 3097 2022 3097 
Q 1603 3097 1387 2755 
Q 1172 2413 1172 1747 
Q 1172 1084 1387 740 
Q 1603 397 2022 397 
Q 2438 397 2648 737 
Q 2859 1078 2859 1747 
z
" transform="scale(0.015625)"/>
      <path id="DejaVuSansMono-2c" d="M 1569 947 
L 2356 947 
L 2356 300 
L 1741 -897 
L 1259 -897 
L 1569 300 
L 1569 947 
z
" transform="scale(0.015625)"/>
      <path id="DejaVuSansMono-54" d="M 147 4666 
L 3706 4666 
L 3706 4134 
L 2247 4134 
L 2247 0 
L 1613 0 
L 1613 4134 
L 147 4134 
L 147 4666 
z
" transform="scale(0.015625)"/>
      <path id="DejaVuSansMono-75" d="M 609 1325 
L 609 3494 
L 1184 3494 
L 1184 1325 
Q 1184 853 1351 631 
Q 1519 409 1869 409 
Q 2275 409 2490 695 
Q 2706 981 2706 1516 
L 2706 3494 
L 3284 3494 
L 3284 0 
L 2706 0 
L 2706 525 
Q 2553 222 2289 65 
Q 2025 -91 1672 -91 
Q 1134 -91 871 261 
Q 609 613 609 1325 
z
" transform="scale(0.015625)"/>
      <path id="DejaVuSansMono-22" d="M 2797 4666 
L 2797 2931 
L 2253 2931 
L 2253 4666 
L 2797 4666 
z
M 1600 4666 
L 1600 2931 
L 1056 2931 
L 1056 4666 
L 1600 4666 
z
" transform="scale(0.015625)"/>
      <path id="DejaVuSansMono-32" d="M 1166 531 
L 3309 531 
L 3309 0 
L 475 0 
L 475 531 
Q 1059 1147 1496 1619 
Q 1934 2091 2100 2284 
Q 2413 2666 2522 2902 
Q 2631 3138 2631 3384 
Q 2631 3775 2401 3997 
Q 2172 4219 1772 4219 
Q 1488 4219 1175 4116 
Q 863 4013 513 3803 
L 513 4441 
Q 834 4594 1145 4672 
Q 1456 4750 1759 4750 
Q 2444 4750 2861 4386 
Q 3278 4022 3278 3431 
Q 3278 3131 3139 2831 
Q 3000 2531 2688 2169 
Q 2513 1966 2180 1606 
Q 1847 1247 1166 531 
z
" transform="scale(0.015625)"/>
      <path id="DejaVuSansMono-6c" d="M 1997 1269 
Q 1997 881 2139 684 
Q 2281 488 2559 488 
L 3231 488 
L 3231 0 
L 2503 0 
Q 1988 0 1705 331 
Q 1422 663 1422 1269 
L 1422 4447 
L 500 4447 
L 500 4897 
L 1997 4897 
L 1997 1269 
z
" transform="scale(0.015625)"/>
      <path id="DejaVuSansMono-77" d="M 0 3500 
L 569 3500 
L 1178 672 
L 1678 2478 
L 2169 2478 
L 2675 672 
L 3284 3500 
L 3853 3500 
L 3034 0 
L 2484 0 
L 1925 1919 
L 1369 0 
L 819 0 
L 0 3500 
z
" transform="scale(0.015625)"/>
      <path id="DejaVuSansMono-30" d="M 1509 2344 
Q 1509 2516 1629 2641 
Q 1750 2766 1919 2766 
Q 2094 2766 2219 2641 
Q 2344 2516 2344 2344 
Q 2344 2169 2220 2047 
Q 2097 1925 1919 1925 
Q 1744 1925 1626 2044 
Q 1509 2163 1509 2344 
z
M 1925 4250 
Q 1484 4250 1267 3775 
Q 1050 3300 1050 2328 
Q 1050 1359 1267 884 
Q 1484 409 1925 409 
Q 2369 409 2586 884 
Q 2803 1359 2803 2328 
Q 2803 3300 2586 3775 
Q 2369 4250 1925 4250 
z
M 1925 4750 
Q 2672 4750 3055 4137 
Q 3438 3525 3438 2328 
Q 3438 1134 3055 521 
Q 2672 -91 1925 -91 
Q 1178 -91 797 521 
Q 416 1134 416 2328 
Q 416 3525 797 4137 
Q 1178 4750 1925 4750 
z
" transform="scale(0.015625)"/>
     </defs>
     <use xlink:href="#DejaVuSansMono-73"/>
     <use xlink:href="#DejaVuSansMono-6e" x="60.205078"/>
     <use xlink:href="#DejaVuSansMono-73" x="120.410156"/>
     <use xlink:href="#DejaVuSansMono-2e" x="180.615234"/>
     <use xlink:href="#DejaVuSansMono-68" x="240.820312"/>
     <use xlink:href="#DejaVuSansMono-65" x="301.025391"/>
     <use xlink:href="#DejaVuSansMono-61" x="361.230469"/>
     <use xlink:href="#DejaVuSansMono-74" x="421.435547"/>
     <use xlink:href="#DejaVuSansMono-6d" x="481.640625"/>
     <use xlink:href="#DejaVuSansMono-61" x="541.845703"/>
     <use xlink:href="#DejaVuSansMono-70" x="602.050781"/>
     <use xlink:href="#DejaVuSansMono-28" x="662.255859"/>
     <use xlink:href="#DejaVuSansMono-63" x="722.460938"/>
     <use xlink:href="#DejaVuSansMono-6f" x="782.666016"/>
     <use xlink:href="#DejaVuSansMono-72" x="842.871094"/>
     <use xlink:href="#DejaVuSansMono-72" x="903.076172"/>
     <use xlink:href="#DejaVuSansMono-2c" x="963.28125"/>
     <use xlink:href="#DejaVuSansMono-20" x="1023.486328"/>
     <use xlink:href="#DejaVuSansMono-61" x="1083.691406"/>
     <use xlink:href="#DejaVuSansMono-6e" x="1143.896484"/>
     <use xlink:href="#DejaVuSansMono-6e" x="1204.101562"/>
     <use xlink:href="#DejaVuSansMono-6f" x="1264.306641"/>
     <use xlink:href="#DejaVuSansMono-74" x="1324.511719"/>
     <use xlink:href="#DejaVuSansMono-3d" x="1384.716797"/>
     <use xlink:href="#DejaVuSansMono-54" x="1444.921875"/>
     <use xlink:href="#DejaVuSansMono-72" x="1505.126953"/>
     <use xlink:href="#DejaVuSansMono-75" x="1565.332031"/>
     <use xlink:href="#DejaVuSansMono-65" x="1625.537109"/>
     <use xlink:href="#DejaVuSansMono-2c" x="1685.742188"/>
     <use xlink:href="#DejaVuSansMono-20" x="1745.947266"/>
     <use xlink:href="#DejaVuSansMono-66" x="1806.152344"/>
     <use xlink:href="#DejaVuSansMono-6d" x="1866.357422"/>
     <use xlink:href="#DejaVuSansMono-74" x="1926.5625"/>
     <use xlink:href="#DejaVuSansMono-3d" x="1986.767578"/>
     <use xlink:href="#DejaVuSansMono-22" x="2046.972656"/>
     <use xlink:href="#DejaVuSansMono-2e" x="2107.177734"/>
     <use xlink:href="#DejaVuSansMono-32" x="2167.382812"/>
     <use xlink:href="#DejaVuSansMono-66" x="2227.587891"/>
     <use xlink:href="#DejaVuSansMono-22" x="2287.792969"/>
     <use xlink:href="#DejaVuSansMono-2c" x="2347.998047"/>
     <use xlink:href="#DejaVuSansMono-20" x="2408.203125"/>
     <use xlink:href="#DejaVuSansMono-63" x="2468.408203"/>
     <use xlink:href="#DejaVuSansMono-6d" x="2528.613281"/>
     <use xlink:href="#DejaVuSansMono-61" x="2588.818359"/>
     <use xlink:href="#DejaVuSansMono-70" x="2649.023438"/>
     <use xlink:href="#DejaVuSansMono-3d" x="2709.228516"/>
     <use xlink:href="#DejaVuSansMono-22" x="2769.433594"/>
     <use xlink:href="#DejaVuSansMono-63" x="2829.638672"/>
     <use xlink:href="#DejaVuSansMono-6f" x="2889.84375"/>
     <use xlink:href="#DejaVuSansMono-6f" x="2950.048828"/>
     <use xlink:href="#DejaVuSansMono-6c" x="3010.253906"/>
     <use xlink:href="#DejaVuSansMono-77" x="3070.458984"/>
     <use xlink:href="#DejaVuSansMono-61" x="3130.664062"/>
     <use xlink:href="#DejaVuSansMono-72" x="3190.869141"/>
     <use xlink:href="#DejaVuSansMono-6d" x="3251.074219"/>
     <use xlink:href="#DejaVuSansMono-22" x="3311.279297"/>
     <use xlink:href="#DejaVuSansMono-2c" x="3371.484375"/>
     <use xlink:href="#DejaVuSansMono-20" x="3431.689453"/>
     <use xlink:href="#DejaVuSansMono-63" x="3491.894531"/>
     <use xlink:href="#DejaVuSansMono-65" x="3552.099609"/>
     <use xlink:href="#DejaVuSansMono-6e" x="3612.304688"/>
     <use xlink:href="#DejaVuSansMono-74" x="3672.509766"/>
     <use xlink:href="#DejaVuSansMono-65" x="3732.714844"/>
     <use xlink:href="#DejaVuSansMono-72" x="3792.919922"/>
     <use xlink:href="#DejaVuSansMono-3d" x="3853.125"/>
     <use xlink:href="#DejaVuSansMono-30" x="3913.330078"/>
     <use xlink:href="#DejaVuSansMono-29" x="3973.535156"/>
    </g>
   </g>
   <g id="text_14">
    <!-- ⚠️ 相関 ≠ 因果関係 -->
    <g style="fill: #7d6608" transform="translate(41.04 279.155435) scale(0.125 -0.125)">
     <defs>
      <path id="IPAexGothic-26a0" d="M 5759 -641 
L 641 -641 
L 641 5503 
L 5759 5503 
L 5759 -641 
z
M 5216 5172 
L 1191 5172 
L 3206 2694 
L 5216 5172 
z
M 5428 -53 
L 5428 4903 
L 3419 2425 
L 5428 -53 
z
M 2988 2425 
L 972 4916 
L 972 -59 
L 2988 2425 
z
M 5209 -309 
L 3206 2163 
L 1197 -309 
L 5209 -309 
z
" transform="scale(0.015625)"/>
      <path id="IPAexGothic-fe0f" d="M 5759 -641 
L 641 -641 
L 641 5503 
L 5759 5503 
L 5759 -641 
z
M 5216 5172 
L 1191 5172 
L 3206 2694 
L 5216 5172 
z
M 5428 -53 
L 5428 4903 
L 3419 2425 
L 5428 -53 
z
M 2988 2425 
L 972 4916 
L 972 -59 
L 2988 2425 
z
M 5209 -309 
L 3206 2163 
L 1197 -309 
L 5209 -309 
z
" transform="scale(0.015625)"/>
      <path id="IPAexGothic-2260" d="M 2119 2444 
L 416 2444 
L 416 2803 
L 2241 2803 
L 2644 3956 
L 2988 3841 
L 2638 2803 
L 3922 2803 
L 3922 2444 
L 2509 2444 
L 2222 1619 
L 3922 1619 
L 3922 1259 
L 2100 1259 
L 1697 106 
L 1350 222 
L 1703 1259 
L 416 1259 
L 416 1619 
L 1831 1619 
L 2119 2444 
z
" transform="scale(0.015625)"/>
      <path id="IPAexGothic-56e0" d="M 3494 2906 
Q 3875 1681 5009 1000 
L 4697 628 
Q 3619 1325 3244 2509 
Q 3034 1138 1722 544 
L 1428 903 
Q 2750 1406 2931 2906 
L 1413 2906 
L 1413 3297 
L 2950 3297 
L 2950 4281 
L 3403 4281 
L 3403 3297 
L 4978 3297 
L 4978 2906 
L 3494 2906 
z
M 5716 4884 
L 5716 -450 
L 5256 -450 
L 5256 -91 
L 1141 -91 
L 1141 -450 
L 672 -450 
L 672 4884 
L 5716 4884 
z
M 1141 4475 
L 1141 313 
L 5256 313 
L 5256 4475 
L 1141 4475 
z
" transform="scale(0.015625)"/>
      <path id="IPAexGothic-679c" d="M 3809 1666 
Q 4656 800 6088 297 
L 5784 -131 
Q 4256 494 3406 1563 
L 3406 -447 
L 2947 -447 
L 2947 1519 
Q 2203 425 647 -281 
L 334 109 
Q 1769 697 2575 1666 
L 378 1666 
L 378 2075 
L 2947 2075 
L 2947 2625 
L 1109 2625 
L 1109 5013 
L 5288 5013 
L 5288 2625 
L 3406 2625 
L 3406 2075 
L 6016 2075 
L 6016 1666 
L 3809 1666 
z
M 1556 4628 
L 1556 3994 
L 2959 3994 
L 2959 4628 
L 1556 4628 
z
M 1556 3628 
L 1556 3009 
L 2959 3009 
L 2959 3628 
L 1556 3628 
z
M 4834 3009 
L 4834 3628 
L 3394 3628 
L 3394 3009 
L 4834 3009 
z
M 4834 3994 
L 4834 4628 
L 3394 4628 
L 3394 3994 
L 4834 3994 
z
" transform="scale(0.015625)"/>
     </defs>
     <use xlink:href="#IPAexGothic-26a0"/>
     <use xlink:href="#IPAexGothic-fe0f" x="100"/>
     <use xlink:href="#IPAexGothic-20" x="200"/>
     <use xlink:href="#IPAexGothic-76f8" x="227.001953"/>
     <use xlink:href="#IPAexGothic-95a2" x="327.001953"/>
     <use xlink:href="#IPAexGothic-20" x="427.001953"/>
     <use xlink:href="#IPAexGothic-2260" x="454.003906"/>
     <use xlink:href="#IPAexGothic-20" x="521.826172"/>
     <use xlink:href="#IPAexGothic-56e0" x="548.828125"/>
     <use xlink:href="#IPAexGothic-679c" x="648.828125"/>
     <use xlink:href="#IPAexGothic-95a2" x="748.828125"/>
     <use xlink:href="#IPAexGothic-4fc2" x="848.828125"/>
    </g>
   </g>
   <g id="text_15">
    <!-- 例）アイスが売れると溺死者が増える → 原因は「夏（気温）」 -->
    <g style="fill: #7d6608" transform="translate(41.04 292.667629) scale(0.125 -0.125)">
     <defs>
      <path id="IPAexGothic-4f8b" d="M 2869 3713 
L 3750 3713 
L 4006 3522 
Q 3872 2134 3463 1241 
Q 3019 247 2094 -472 
L 1778 -128 
Q 2691 516 3163 1600 
Q 2791 1994 2388 2284 
Q 2163 1853 1928 1544 
L 1638 1888 
Q 2331 2806 2572 4488 
L 1906 4488 
L 1906 4891 
L 4206 4891 
L 4206 4488 
L 2997 4488 
L 2991 4450 
Q 2938 4013 2869 3713 
z
M 2772 3322 
Q 2659 2916 2534 2613 
Q 2997 2319 3316 2009 
Q 3338 2078 3341 2094 
Q 3519 2644 3566 3322 
L 2772 3322 
z
M 1400 3816 
L 1400 -447 
L 972 -447 
L 972 2797 
Q 753 2347 484 1966 
L 250 2363 
Q 981 3531 1388 5313 
L 1822 5203 
Q 1613 4419 1400 3816 
z
M 4378 4519 
L 4806 4519 
L 4806 959 
L 4378 959 
L 4378 4519 
z
M 5422 5088 
L 5850 5088 
L 5850 109 
Q 5850 -391 5300 -391 
Q 4925 -391 4544 -359 
L 4444 109 
Q 4863 44 5225 44 
Q 5422 44 5422 238 
L 5422 5088 
z
" transform="scale(0.015625)"/>
      <path id="IPAexGothic-30a2" d="M 5388 4556 
L 5747 4200 
Q 5081 3022 4019 2191 
L 3647 2547 
Q 4519 3178 5081 4091 
L 850 4013 
L 850 4500 
L 5388 4556 
z
M 1216 256 
Q 2319 813 2616 1691 
Q 2797 2200 2797 3628 
L 3313 3628 
Q 3303 1981 3059 1356 
Q 2697 431 1594 -153 
L 1216 256 
z
" transform="scale(0.015625)"/>
      <path id="IPAexGothic-30a4" d="M 3131 -231 
L 3131 2875 
Q 2091 2088 1106 1656 
L 781 2059 
Q 3016 3000 4469 4916 
L 4916 4641 
Q 4384 3938 3675 3316 
L 3675 -231 
L 3131 -231 
z
" transform="scale(0.015625)"/>
      <path id="IPAexGothic-30b9" d="M 4359 4481 
L 4716 4147 
Q 4328 3072 3647 2150 
Q 4659 1434 5659 453 
L 5234 19 
Q 4256 1088 3353 1778 
Q 2372 597 1044 -31 
L 653 403 
Q 3128 1453 4097 4000 
L 1241 3963 
L 1228 4453 
L 4359 4481 
z
" transform="scale(0.015625)"/>
      <path id="IPAexGothic-58f2" d="M 2938 4544 
L 2938 5313 
L 3419 5313 
L 3419 4544 
L 5781 4544 
L 5781 4147 
L 3419 4147 
L 3419 3559 
L 5306 3559 
L 5306 3163 
L 1088 3163 
L 1088 3559 
L 2938 3559 
L 2938 4147 
L 609 4147 
L 609 4544 
L 2938 4544 
z
M 5684 2706 
L 5684 1522 
L 5216 1522 
L 5216 2316 
L 1178 2316 
L 1178 1478 
L 709 1478 
L 709 2706 
L 5684 2706 
z
M 531 -84 
Q 1494 91 1894 556 
Q 2213 913 2222 1972 
L 2688 1972 
Q 2678 756 2216 225 
Q 1794 -256 819 -506 
L 531 -84 
z
M 3622 1972 
L 4091 1972 
L 4091 353 
Q 4091 191 4181 153 
Q 4313 100 4684 100 
Q 5169 100 5294 159 
Q 5503 256 5513 1006 
L 5972 863 
Q 5944 -22 5691 -206 
Q 5503 -347 4659 -347 
Q 3981 -347 3809 -250 
Q 3622 -144 3622 178 
L 3622 1972 
z
" transform="scale(0.015625)"/>
      <path id="IPAexGothic-308c" d="M 538 3694 
Q 1275 3791 1800 3903 
L 1838 5006 
L 2316 5006 
L 2253 4006 
L 2619 3675 
Q 2428 3425 2247 3144 
Q 2241 3084 2241 2869 
Q 3341 4031 4134 4031 
Q 4856 4031 4856 3309 
Q 4856 3047 4794 2491 
Q 4719 1747 4719 1044 
Q 4719 672 4922 672 
Q 5084 672 5263 788 
Q 5613 1034 5850 1491 
L 6131 1025 
Q 5856 641 5600 447 
Q 5238 166 4866 166 
Q 4244 166 4244 1100 
Q 4244 1519 4350 2956 
Q 4369 3181 4369 3238 
Q 4369 3434 4297 3513 
Q 4231 3584 4081 3584 
Q 3438 3584 2228 2291 
Q 2222 1931 2222 1478 
Q 2222 753 2241 -159 
L 1747 -159 
Q 1747 1241 1753 1734 
Q 1544 1466 928 647 
L 531 991 
Q 1603 2291 1772 2478 
Q 1772 3038 1791 3469 
Q 1128 3284 653 3194 
L 538 3694 
z
" transform="scale(0.015625)"/>
      <path id="IPAexGothic-6eba" d="M 3731 2809 
Q 3713 525 3616 -31 
Q 3550 -422 3047 -422 
Q 2763 -422 2413 -372 
L 2338 84 
Q 2669 13 2925 13 
Q 3172 13 3200 209 
Q 3281 681 3291 2163 
L 3297 2438 
L 1813 2438 
Q 1922 3003 1972 3872 
L 3194 3872 
L 3194 4600 
L 1856 4600 
L 1856 4984 
L 3609 4984 
L 3609 3500 
L 2381 3500 
Q 2363 3144 2322 2809 
L 3731 2809 
z
M 5772 4984 
L 5772 3500 
L 4513 3500 
Q 4503 3203 4472 2906 
Q 4466 2859 4466 2809 
L 5956 2809 
Q 5956 497 5863 6 
Q 5784 -384 5344 -384 
Q 4997 -384 4672 -347 
L 4594 116 
Q 4925 44 5184 44 
Q 5419 44 5459 269 
Q 5516 641 5534 2213 
L 5534 2438 
L 3988 2438 
Q 4081 3078 4109 3872 
L 5344 3872 
L 5344 4600 
L 3975 4600 
L 3975 4984 
L 5772 4984 
z
M 1413 3872 
Q 903 4463 497 4769 
L 800 5100 
Q 1313 4728 1728 4250 
L 1413 3872 
z
M 1216 2375 
Q 716 2953 300 3256 
L 588 3597 
Q 1097 3225 1522 2753 
L 1216 2375 
z
M 350 -103 
Q 853 766 1197 1941 
L 1575 1650 
Q 1184 363 741 -441 
L 350 -103 
z
M 1613 1472 
Q 2313 1822 2763 2363 
L 3041 2119 
Q 2491 1491 1863 1159 
L 1613 1472 
z
M 3866 1434 
Q 4513 1778 4978 2369 
L 5272 2125 
Q 4813 1531 4122 1094 
L 3866 1434 
z
M 1491 422 
Q 2300 838 2913 1563 
L 3194 1306 
Q 2575 538 1747 63 
L 1491 422 
z
M 3813 434 
Q 4572 847 5125 1594 
L 5413 1338 
Q 4844 556 4081 109 
L 3813 434 
z
" transform="scale(0.015625)"/>
      <path id="IPAexGothic-6b7b" d="M 2134 1381 
Q 1691 1863 1256 2200 
Q 997 1788 616 1406 
L 309 1713 
Q 1325 2825 1584 4403 
L 1591 4441 
L 456 4441 
L 456 4856 
L 5947 4856 
L 5947 4441 
L 4053 4441 
L 4053 2431 
Q 4888 2881 5478 3456 
L 5894 3116 
Q 5109 2469 4053 1950 
L 4053 516 
Q 4053 275 4238 225 
Q 4378 194 4684 194 
Q 5428 194 5506 397 
Q 5575 591 5594 1325 
L 6088 1163 
Q 6050 141 5869 -56 
Q 5666 -281 4628 -281 
Q 4063 -281 3841 -166 
Q 3594 -41 3594 356 
L 3594 4441 
L 2050 4441 
Q 2041 4400 2031 4300 
Q 1978 4000 1838 3519 
L 3003 3519 
L 3266 3322 
Q 3028 1938 2472 1028 
Q 1906 119 738 -438 
L 419 -47 
Q 1541 413 2134 1381 
z
M 2356 1797 
Q 2647 2425 2759 3116 
L 1703 3116 
Q 1603 2844 1450 2534 
Q 1966 2188 2356 1797 
z
" transform="scale(0.015625)"/>
      <path id="IPAexGothic-8005" d="M 4328 4153 
Q 4694 4550 5038 5025 
L 5453 4794 
Q 4963 4138 4128 3372 
L 6041 3372 
L 6041 2963 
L 3656 2963 
Q 3319 2703 2778 2338 
L 5088 2338 
L 5088 -447 
L 4634 -447 
L 4634 -159 
L 2213 -159 
L 2213 -447 
L 1759 -447 
L 1759 1709 
Q 1141 1359 478 1075 
L 231 1472 
Q 1663 2022 2938 2913 
L 344 2913 
L 344 3322 
L 2703 3322 
L 2703 4109 
L 1125 4109 
L 1125 4500 
L 2741 4500 
L 2741 5313 
L 3194 5313 
L 3194 4500 
L 4328 4500 
L 4328 4153 
z
M 4281 4109 
L 3156 4109 
L 3156 3322 
L 3463 3322 
Q 3956 3747 4281 4109 
z
M 2213 1953 
L 2213 1306 
L 4634 1306 
L 4634 1953 
L 2213 1953 
z
M 2213 934 
L 2213 231 
L 4634 231 
L 4634 934 
L 2213 934 
z
" transform="scale(0.015625)"/>
      <path id="IPAexGothic-2192" d="M 3947 3572 
L 4631 3572 
L 6072 2431 
L 4631 1294 
L 3947 1294 
L 5094 2194 
L 459 2194 
L 459 2669 
L 5094 2669 
L 3947 3572 
z
" transform="scale(0.015625)"/>
      <path id="IPAexGothic-539f" d="M 3600 3816 
L 5359 3816 
L 5359 1575 
L 3944 1575 
L 3944 6 
Q 3944 -434 3459 -434 
Q 3059 -434 2722 -384 
L 2638 72 
Q 2991 0 3297 0 
Q 3491 0 3491 213 
L 3491 1575 
L 1941 1575 
L 1941 3816 
L 3156 3816 
Q 3259 4116 3331 4403 
L 1347 4403 
L 1347 3138 
Q 1347 1613 1206 872 
Q 1078 181 738 -453 
L 341 -97 
Q 872 900 872 2850 
L 872 4831 
L 5922 4831 
L 5922 4403 
L 3816 4403 
Q 3706 4066 3600 3816 
z
M 4919 3456 
L 2381 3456 
L 2381 2894 
L 4919 2894 
L 4919 3456 
z
M 2381 2528 
L 2381 1941 
L 4919 1941 
L 4919 2528 
L 2381 2528 
z
M 5575 -122 
Q 5006 622 4419 1100 
L 4775 1381 
Q 5447 847 5966 225 
L 5575 -122 
z
M 1353 84 
Q 1994 591 2422 1338 
L 2838 1125 
Q 2353 294 1716 -256 
L 1353 84 
z
" transform="scale(0.015625)"/>
      <path id="IPAexGothic-300c" d="M 4134 5300 
L 5875 5300 
L 5875 4853 
L 4581 4853 
L 4581 656 
L 4134 656 
L 4134 5300 
z
" transform="scale(0.015625)"/>
      <path id="IPAexGothic-590f" d="M 3194 4281 
L 5138 4281 
L 5138 1875 
L 2866 1875 
Q 2722 1688 2513 1478 
L 4766 1478 
L 5009 1284 
Q 4441 744 3831 381 
Q 4753 103 6006 -3 
L 5688 -450 
Q 4431 -256 3416 131 
L 3378 147 
Q 2263 -378 659 -541 
L 422 -144 
Q 1991 -38 2909 350 
Q 2341 625 1938 991 
Q 1391 609 784 381 
L 491 703 
Q 1678 1106 2347 1875 
L 1253 1875 
L 1253 4281 
L 2744 4281 
Q 2781 4413 2847 4672 
L 478 4672 
L 478 5050 
L 5919 5050 
L 5919 4672 
L 3313 4672 
Q 3238 4400 3194 4281 
z
M 4697 3941 
L 1694 3941 
L 1694 3584 
L 4697 3584 
L 4697 3941 
z
M 1694 3266 
L 1694 2906 
L 4697 2906 
L 4697 3266 
L 1694 3266 
z
M 1694 2594 
L 1694 2216 
L 4697 2216 
L 4697 2594 
L 1694 2594 
z
M 2334 1131 
Q 2781 797 3347 550 
Q 3916 838 4228 1131 
L 2334 1131 
z
" transform="scale(0.015625)"/>
      <path id="IPAexGothic-6c17" d="M 1863 4659 
L 5594 4659 
L 5594 4263 
L 1672 4263 
Q 1306 3572 831 3059 
L 531 3397 
Q 1266 4181 1600 5288 
L 2069 5203 
Q 1981 4941 1863 4659 
z
M 5000 2950 
L 5006 2400 
Q 5025 1044 5222 466 
Q 5328 184 5394 184 
Q 5513 184 5638 1191 
L 6047 916 
Q 5847 -450 5422 -450 
Q 5128 -450 4856 147 
Q 4550 819 4550 2381 
L 4550 2553 
L 672 2553 
L 672 2950 
L 5000 2950 
z
M 2388 1106 
Q 1741 1553 1069 1875 
L 1350 2188 
Q 1991 1878 2606 1478 
L 2669 1441 
Q 3034 1894 3250 2431 
L 3681 2241 
Q 3403 1634 3047 1184 
Q 3672 744 4269 231 
L 3944 -128 
Q 3384 391 2759 844 
Q 2031 50 928 -372 
L 653 31 
Q 1728 403 2356 1069 
L 2388 1106 
z
M 1516 3822 
L 4991 3822 
L 4991 3425 
L 1516 3425 
L 1516 3822 
z
" transform="scale(0.015625)"/>
      <path id="IPAexGothic-6e29" d="M 5344 4984 
L 5344 2669 
L 2381 2669 
L 2381 4984 
L 5344 4984 
z
M 2822 4613 
L 2822 4025 
L 4909 4025 
L 4909 4613 
L 2822 4613 
z
M 2822 3659 
L 2822 3041 
L 4909 3041 
L 4909 3659 
L 2822 3659 
z
M 5628 2131 
L 5628 178 
L 6094 178 
L 6094 -225 
L 1631 -225 
L 1631 178 
L 2138 178 
L 2138 2131 
L 5628 2131 
z
M 2553 1747 
L 2553 178 
L 3169 178 
L 3169 1747 
L 2553 1747 
z
M 5213 178 
L 5213 1747 
L 4572 1747 
L 4572 178 
L 5213 178 
z
M 3566 1747 
L 3566 178 
L 4175 178 
L 4175 1747 
L 3566 1747 
z
M 1613 3859 
Q 1247 4297 706 4716 
L 1013 5063 
Q 1494 4731 1934 4244 
L 1613 3859 
z
M 1422 2388 
Q 975 2903 475 3250 
L 781 3609 
Q 1338 3225 1747 2759 
L 1422 2388 
z
M 353 19 
Q 969 806 1466 1919 
L 1800 1563 
Q 1303 422 731 -372 
L 353 19 
z
" transform="scale(0.015625)"/>
      <path id="IPAexGothic-300d" d="M 1819 4209 
L 2266 4209 
L 2266 -434 
L 525 -434 
L 525 13 
L 1819 13 
L 1819 4209 
z
" transform="scale(0.015625)"/>
     </defs>
     <use xlink:href="#IPAexGothic-4f8b"/>
     <use xlink:href="#IPAexGothic-ff09" x="100"/>
     <use xlink:href="#IPAexGothic-30a2" x="200"/>
     <use xlink:href="#IPAexGothic-30a4" x="300"/>
     <use xlink:href="#IPAexGothic-30b9" x="400"/>
     <use xlink:href="#IPAexGothic-304c" x="500"/>
     <use xlink:href="#IPAexGothic-58f2" x="600"/>
     <use xlink:href="#IPAexGothic-308c" x="700"/>
     <use xlink:href="#IPAexGothic-308b" x="800"/>
     <use xlink:href="#IPAexGothic-3068" x="900"/>
     <use xlink:href="#IPAexGothic-6eba" x="1000"/>
     <use xlink:href="#IPAexGothic-6b7b" x="1100"/>
     <use xlink:href="#IPAexGothic-8005" x="1200"/>
     <use xlink:href="#IPAexGothic-304c" x="1300"/>
     <use xlink:href="#IPAexGothic-5897" x="1400"/>
     <use xlink:href="#IPAexGothic-3048" x="1500"/>
     <use xlink:href="#IPAexGothic-308b" x="1600"/>
     <use xlink:href="#IPAexGothic-20" x="1700"/>
     <use xlink:href="#IPAexGothic-2192" x="1727.001953"/>
     <use xlink:href="#IPAexGothic-20" x="1827.001953"/>
     <use xlink:href="#IPAexGothic-539f" x="1854.003906"/>
     <use xlink:href="#IPAexGothic-56e0" x="1954.003906"/>
     <use xlink:href="#IPAexGothic-306f" x="2054.003906"/>
     <use xlink:href="#IPAexGothic-300c" x="2154.003906"/>
     <use xlink:href="#IPAexGothic-590f" x="2254.003906"/>
     <use xlink:href="#IPAexGothic-ff08" x="2354.003906"/>
     <use xlink:href="#IPAexGothic-6c17" x="2454.003906"/>
     <use xlink:href="#IPAexGothic-6e29" x="2554.003906"/>
     <use xlink:href="#IPAexGothic-ff09" x="2654.003906"/>
     <use xlink:href="#IPAexGothic-300d" x="2754.003906"/>
    </g>
   </g>
   <g id="text_16">
    <!-- 💡 相関が高い変数 = 予測に使える候補（ただし多重共線性に注意） -->
    <g style="fill: #1a5276" transform="translate(41.04 328.640385) scale(0.125 -0.125)">
     <defs>
      <path id="IPAexGothic-1f4a1" d="M 5759 -641 
L 641 -641 
L 641 5503 
L 5759 5503 
L 5759 -641 
z
M 5216 5172 
L 1191 5172 
L 3206 2694 
L 5216 5172 
z
M 5428 -53 
L 5428 4903 
L 3419 2425 
L 5428 -53 
z
M 2988 2425 
L 972 4916 
L 972 -59 
L 2988 2425 
z
M 5209 -309 
L 3206 2163 
L 1197 -309 
L 5209 -309 
z
" transform="scale(0.015625)"/>
      <path id="IPAexGothic-9ad8" d="M 4481 1588 
L 4481 366 
L 2319 366 
L 2319 0 
L 1891 0 
L 1891 1588 
L 4481 1588 
z
M 4053 1247 
L 2319 1247 
L 2319 706 
L 4053 706 
L 4053 1247 
z
M 3419 4641 
L 5916 4641 
L 5916 4263 
L 481 4263 
L 481 4641 
L 2938 4641 
L 2938 5313 
L 3419 5313 
L 3419 4641 
z
M 4884 3878 
L 4884 2694 
L 1513 2694 
L 1513 3878 
L 4884 3878 
z
M 1959 3531 
L 1959 3041 
L 4438 3041 
L 4438 3531 
L 1959 3531 
z
M 5684 2309 
L 5684 103 
Q 5684 -378 5091 -378 
Q 4697 -378 4316 -353 
L 4253 109 
Q 4706 44 5006 44 
Q 5231 44 5231 250 
L 5231 1944 
L 1166 1944 
L 1166 -447 
L 713 -447 
L 713 2309 
L 5684 2309 
z
" transform="scale(0.015625)"/>
      <path id="IPAexGothic-3d" d="M 416 2803 
L 3922 2803 
L 3922 2438 
L 416 2438 
L 416 2803 
z
M 416 1625 
L 3922 1625 
L 3922 1259 
L 416 1259 
L 416 1625 
z
" transform="scale(0.015625)"/>
      <path id="IPAexGothic-4e88" d="M 3541 3491 
Q 3644 3419 3816 3300 
Q 3944 3213 3997 3175 
L 3663 2894 
L 5603 2894 
L 5872 2625 
Q 5181 1709 4463 1069 
L 4066 1378 
Q 4722 1878 5153 2466 
L 3509 2466 
L 3509 147 
Q 3509 -150 3388 -263 
Q 3266 -384 2822 -384 
Q 2341 -384 1863 -331 
L 1766 172 
Q 2416 84 2766 84 
Q 3022 84 3022 334 
L 3022 2466 
L 513 2466 
L 513 2894 
L 3553 2894 
Q 2809 3488 1947 3963 
L 2247 4291 
Q 2741 4009 3181 3725 
Q 3941 4191 4400 4591 
L 1159 4591 
L 1159 5006 
L 4975 5006 
L 5250 4725 
Q 4428 4044 3541 3491 
z
" transform="scale(0.015625)"/>
      <path id="IPAexGothic-6e2c" d="M 3856 4884 
L 3856 1081 
L 2059 1081 
L 2059 4884 
L 3856 4884 
z
M 2456 4494 
L 2456 3756 
L 3459 3756 
L 3459 4494 
L 2456 4494 
z
M 2456 3384 
L 2456 2656 
L 3459 2656 
L 3459 3384 
L 2456 3384 
z
M 2456 2284 
L 2456 1478 
L 3459 1478 
L 3459 2284 
L 2456 2284 
z
M 1413 3891 
Q 1000 4428 556 4763 
L 856 5100 
Q 1309 4753 1734 4269 
L 1413 3891 
z
M 1222 2394 
Q 816 2878 325 3256 
L 625 3591 
Q 1141 3231 1528 2778 
L 1222 2394 
z
M 375 -78 
Q 916 800 1297 1906 
L 1669 1619 
Q 1284 478 759 -428 
L 375 -78 
z
M 3819 -256 
Q 3478 319 3128 716 
L 3469 966 
Q 3834 581 4172 63 
L 3819 -256 
z
M 4378 4513 
L 4806 4513 
L 4806 959 
L 4378 959 
L 4378 4513 
z
M 1638 -109 
Q 2103 300 2450 984 
L 2828 763 
Q 2425 -6 1944 -488 
L 1638 -109 
z
M 5419 5081 
L 5853 5081 
L 5853 109 
Q 5853 -391 5297 -391 
Q 4919 -391 4541 -359 
L 4441 109 
Q 4928 50 5219 50 
Q 5419 50 5419 244 
L 5419 5081 
z
" transform="scale(0.015625)"/>
      <path id="IPAexGothic-4f7f" d="M 3700 3547 
L 3700 4103 
L 1894 4103 
L 1894 4500 
L 3700 4500 
L 3700 5306 
L 4141 5306 
L 4141 4500 
L 5981 4500 
L 5981 4103 
L 4141 4103 
L 4141 3547 
L 5638 3547 
L 5638 1484 
L 5209 1484 
L 5209 1809 
L 4134 1809 
Q 4106 1163 3922 741 
Q 4784 241 6103 19 
L 5816 -419 
Q 4619 -150 3713 394 
Q 3238 -234 2059 -541 
L 1772 -138 
Q 2941 75 3366 625 
Q 2925 963 2563 1322 
L 2884 1566 
Q 3213 1228 3553 978 
Q 3684 1363 3694 1809 
L 2634 1809 
L 2634 1484 
L 2206 1484 
L 2206 3547 
L 3700 3547 
z
M 3700 3163 
L 2634 3163 
L 2634 2194 
L 3700 2194 
L 3700 3163 
z
M 4141 3163 
L 4141 2194 
L 5209 2194 
L 5209 3163 
L 4141 3163 
z
M 1509 3769 
L 1509 -447 
L 1069 -447 
L 1069 2822 
Q 813 2363 531 1972 
L 288 2363 
Q 1147 3628 1528 5331 
L 1975 5222 
Q 1747 4356 1509 3769 
z
" transform="scale(0.015625)"/>
      <path id="IPAexGothic-5019" d="M 4453 2359 
L 4453 1647 
L 6034 1647 
L 6034 1275 
L 4569 1275 
Q 4981 422 6066 6 
L 5784 -409 
Q 4741 100 4306 1019 
Q 4009 -41 2725 -484 
L 2463 -122 
Q 3819 253 4000 1275 
L 2469 1275 
L 2469 1647 
L 4025 1647 
L 4025 2359 
L 3391 2359 
Q 3228 2028 3013 1775 
L 2681 2047 
Q 3084 2522 3322 3275 
L 3700 3172 
Q 3622 2903 3556 2731 
L 5631 2731 
L 5631 2359 
L 4453 2359 
z
M 1400 3816 
L 1400 -447 
L 972 -447 
L 972 2791 
Q 759 2359 491 1966 
L 256 2363 
Q 963 3481 1375 5313 
L 1809 5209 
Q 1619 4431 1400 3816 
z
M 5134 4984 
L 5031 3775 
L 6063 3775 
L 6063 3391 
L 2491 3391 
L 2491 3775 
L 4588 3775 
L 4666 4606 
L 2975 4606 
L 2975 4984 
L 5134 4984 
z
M 1838 4191 
L 2266 4191 
L 2266 331 
L 1838 331 
L 1838 4191 
z
" transform="scale(0.015625)"/>
      <path id="IPAexGothic-88dc" d="M 1600 2394 
L 1688 2338 
Q 1700 2325 1766 2288 
Q 1938 2509 2188 2925 
L 2506 2709 
Q 2297 2431 1997 2119 
Q 2328 1875 2522 1697 
L 2259 1359 
Q 1956 1672 1600 1997 
L 1600 -447 
L 1172 -447 
L 1172 2159 
Q 906 1816 494 1403 
L 256 1794 
Q 1275 2716 1747 3816 
L 403 3816 
L 403 4231 
L 1153 4231 
L 1153 5306 
L 1581 5306 
L 1581 4231 
L 2047 4231 
L 2297 4034 
Q 2003 3319 1600 2741 
L 1600 2394 
z
M 4384 4019 
L 4384 3419 
L 5778 3419 
L 5778 25 
Q 5778 -391 5303 -391 
Q 4997 -391 4806 -366 
L 4728 56 
Q 5006 19 5209 19 
Q 5363 19 5363 206 
L 5363 1031 
L 4378 1031 
L 4378 -288 
L 3969 -288 
L 3969 1031 
L 3034 1031 
L 3034 -447 
L 2613 -447 
L 2613 3419 
L 3963 3419 
L 3963 4019 
L 2350 4019 
L 2350 4403 
L 3963 4403 
L 3963 5313 
L 4384 5313 
L 4384 4403 
L 5338 4403 
Q 5331 4422 5303 4459 
Q 5113 4750 4813 5050 
L 5144 5247 
Q 5413 4997 5681 4641 
L 5350 4403 
L 6047 4403 
L 6047 4019 
L 4384 4019 
z
M 3969 3047 
L 3034 3047 
L 3034 2413 
L 3969 2413 
L 3969 3047 
z
M 4378 3047 
L 4378 2413 
L 5363 2413 
L 5363 3047 
L 4378 3047 
z
M 3969 2047 
L 3034 2047 
L 3034 1391 
L 3969 1391 
L 3969 2047 
z
M 4378 2047 
L 4378 1391 
L 5363 1391 
L 5363 2047 
L 4378 2047 
z
" transform="scale(0.015625)"/>
      <path id="IPAexGothic-305f" d="M 684 3994 
Q 1138 3953 1556 3953 
Q 1797 3953 2106 3975 
Q 2266 4594 2369 5113 
L 2875 5025 
Q 2806 4731 2619 4013 
Q 3209 4084 3656 4191 
L 3688 3719 
Q 3109 3613 2497 3566 
Q 1822 1294 1153 -44 
L 653 172 
Q 1406 1500 1991 3531 
Q 1634 3513 1256 3513 
Q 1106 3513 697 3525 
L 684 3994 
z
M 5753 78 
Q 5059 -13 4597 -13 
Q 3619 -13 3206 334 
Q 2866 625 2766 1222 
L 3213 1388 
Q 3247 1069 3347 903 
Q 3425 775 3578 672 
Q 3866 481 4556 481 
Q 5009 481 5728 575 
L 5753 78 
z
M 3144 2859 
Q 4216 3147 5409 3072 
L 5381 2597 
L 5356 2597 
Q 4263 2663 3194 2419 
L 3144 2859 
z
" transform="scale(0.015625)"/>
      <path id="IPAexGothic-3060" d="M 684 3963 
Q 1138 3922 1556 3922 
Q 1800 3922 2106 3944 
Q 2266 4563 2369 5081 
L 2875 4991 
Q 2806 4700 2619 3981 
Q 3209 4050 3656 4159 
L 3688 3688 
Q 3109 3581 2497 3531 
Q 1822 1263 1153 -78 
L 653 141 
Q 1406 1469 1991 3500 
Q 1641 3481 1256 3481 
Q 1109 3481 697 3494 
L 684 3963 
z
M 5753 44 
Q 5053 -44 4597 -44 
Q 3619 -44 3206 303 
Q 2866 594 2766 1191 
L 3213 1356 
Q 3247 1038 3347 869 
Q 3425 741 3578 641 
Q 3866 450 4556 450 
Q 5009 450 5728 544 
L 5753 44 
z
M 3144 2828 
Q 4216 3113 5409 3041 
L 5381 2566 
L 5356 2566 
Q 4263 2631 3194 2388 
L 3144 2828 
z
M 5569 4103 
Q 5206 4644 4813 4972 
L 5113 5203 
Q 5497 4894 5888 4378 
L 5569 4103 
z
M 4972 3634 
Q 4684 4125 4238 4525 
L 4550 4769 
Q 4922 4459 5306 3909 
L 4972 3634 
z
" transform="scale(0.015625)"/>
      <path id="IPAexGothic-591a" d="M 3719 794 
Q 3313 1209 2834 1550 
Q 2309 1216 1638 984 
L 1350 1350 
Q 2997 1878 3969 3134 
L 4397 3022 
Q 4206 2759 4116 2656 
L 5563 2656 
L 5803 2425 
Q 4853 913 3700 281 
Q 2784 -209 1331 -447 
L 1025 0 
Q 2738 163 3719 794 
z
M 4097 1063 
L 4128 1088 
Q 4831 1650 5150 2259 
L 3744 2259 
Q 3447 1981 3181 1784 
Q 3625 1481 4097 1063 
z
M 2681 3072 
Q 2297 3456 1881 3763 
Q 1547 3528 1044 3269 
L 747 3622 
Q 2097 4191 2872 5313 
L 3309 5153 
Q 3116 4903 3028 4800 
L 4588 4800 
L 4813 4581 
Q 3981 3331 2791 2650 
Q 1925 2153 728 1856 
L 422 2259 
Q 1844 2541 2681 3072 
z
M 3059 3341 
Q 3747 3850 4141 4409 
L 2669 4409 
Q 2425 4178 2206 4000 
Q 2641 3709 3059 3341 
z
" transform="scale(0.015625)"/>
      <path id="IPAexGothic-91cd" d="M 2950 3284 
L 2950 3684 
L 481 3684 
L 481 4063 
L 2950 4063 
L 2950 4491 
L 2747 4478 
Q 2100 4431 1241 4400 
L 1038 4791 
Q 3488 4878 4903 5113 
L 5234 4734 
Q 4388 4600 3406 4522 
L 3406 4063 
L 5913 4063 
L 5913 3684 
L 3406 3684 
L 3406 3284 
L 5269 3284 
L 5269 1313 
L 3406 1313 
L 3406 884 
L 5594 884 
L 5594 519 
L 3406 519 
L 3406 84 
L 6009 84 
L 6009 -294 
L 384 -294 
L 384 84 
L 2950 84 
L 2950 519 
L 800 519 
L 800 884 
L 2950 884 
L 2950 1313 
L 1128 1313 
L 1128 3284 
L 2950 3284 
z
M 2963 2931 
L 1569 2931 
L 1569 2472 
L 2963 2472 
L 2963 2931 
z
M 3394 2931 
L 3394 2472 
L 4825 2472 
L 4825 2931 
L 3394 2931 
z
M 2963 2147 
L 1569 2147 
L 1569 1659 
L 2963 1659 
L 2963 2147 
z
M 3394 2147 
L 3394 1659 
L 4825 1659 
L 4825 2147 
L 3394 2147 
z
" transform="scale(0.015625)"/>
      <path id="IPAexGothic-5171" d="M 1906 3916 
L 1906 5150 
L 2388 5150 
L 2388 3916 
L 3966 3916 
L 3966 5150 
L 4447 5150 
L 4447 3916 
L 5688 3916 
L 5688 3488 
L 4447 3488 
L 4447 2009 
L 5944 2009 
L 5944 1581 
L 447 1581 
L 447 2009 
L 1906 2009 
L 1906 3488 
L 703 3488 
L 703 3916 
L 1906 3916 
z
M 3966 3488 
L 2388 3488 
L 2388 2009 
L 3966 2009 
L 3966 3488 
z
M 466 -6 
Q 1559 513 2213 1375 
L 2656 1106 
Q 1881 169 856 -409 
L 466 -6 
z
M 5478 -281 
Q 4728 475 3725 1100 
L 4088 1416 
Q 5050 841 5888 128 
L 5478 -281 
z
" transform="scale(0.015625)"/>
      <path id="IPAexGothic-7dda" d="M 1247 3078 
Q 838 3659 378 4122 
L 666 4428 
Q 788 4306 916 4153 
Q 1281 4681 1541 5331 
L 1956 5119 
Q 1553 4391 1156 3866 
Q 1394 3547 1478 3419 
Q 1863 3991 2156 4550 
L 2541 4313 
Q 1859 3213 1319 2572 
Q 1700 2581 2266 2631 
Q 2169 2872 2016 3150 
L 2366 3303 
Q 2675 2750 2884 2106 
L 2500 1919 
Q 2494 1947 2378 2322 
Q 2147 2281 1791 2234 
L 1791 -447 
L 1369 -447 
L 1369 2181 
Q 975 2134 428 2106 
L 281 2534 
Q 722 2544 863 2553 
Q 947 2666 1247 3078 
z
M 4678 1553 
L 4678 25 
Q 4678 -231 4569 -319 
Q 4472 -397 4225 -397 
Q 3991 -397 3725 -366 
L 3659 56 
Q 3891 13 4122 13 
Q 4275 13 4275 184 
L 4275 2444 
L 3116 2444 
L 3116 4691 
L 4019 4691 
Q 4091 4934 4178 5356 
L 4647 5278 
Q 4506 4884 4416 4691 
L 5772 4691 
L 5772 2444 
L 4697 2444 
Q 4803 1978 5025 1594 
Q 5416 1984 5644 2316 
L 6003 2047 
Q 5578 1584 5216 1288 
Q 5609 738 6213 269 
L 5938 -116 
Q 5056 606 4678 1553 
z
M 3531 4331 
L 3531 3756 
L 5356 3756 
L 5356 4331 
L 3531 4331 
z
M 3531 3403 
L 3531 2803 
L 5356 2803 
L 5356 3403 
L 3531 3403 
z
M 353 206 
Q 566 769 653 1759 
L 1063 1709 
Q 984 678 769 -13 
L 353 206 
z
M 2322 428 
Q 2222 1150 2009 1759 
L 2375 1869 
Q 2581 1366 2738 616 
L 2322 428 
z
M 2834 1925 
L 3950 1925 
L 4153 1747 
Q 3781 534 2878 -231 
L 2578 69 
Q 3359 666 3666 1541 
L 2834 1541 
L 2834 1925 
z
" transform="scale(0.015625)"/>
      <path id="IPAexGothic-6027" d="M 3106 3788 
L 3900 3788 
L 3900 5216 
L 4353 5216 
L 4353 3788 
L 5884 3788 
L 5884 3372 
L 4353 3372 
L 4353 2069 
L 5756 2069 
L 5756 1653 
L 4353 1653 
L 4353 153 
L 6081 153 
L 6081 -269 
L 2231 -269 
L 2231 153 
L 3900 153 
L 3900 1653 
L 2606 1653 
L 2606 2069 
L 3900 2069 
L 3900 3372 
L 2984 3372 
Q 2806 2803 2544 2325 
L 2147 2613 
Q 2638 3428 2875 4875 
L 3313 4778 
Q 3234 4309 3106 3788 
z
M 269 2188 
Q 459 2891 525 3950 
L 934 3884 
Q 884 2694 672 1931 
L 269 2188 
z
M 1997 3047 
Q 1872 3591 1650 4078 
L 1984 4256 
Q 2216 3844 2394 3291 
L 1997 3047 
z
M 1159 5313 
L 1613 5313 
L 1613 -447 
L 1159 -447 
L 1159 5313 
z
" transform="scale(0.015625)"/>
      <path id="IPAexGothic-6ce8" d="M 4147 141 
L 6016 141 
L 6016 -275 
L 1853 -275 
L 1853 141 
L 3678 141 
L 3678 1741 
L 2231 1741 
L 2231 2163 
L 3678 2163 
L 3678 3506 
L 2034 3506 
L 2034 3922 
L 5838 3922 
L 5838 3506 
L 4147 3506 
L 4147 2163 
L 5703 2163 
L 5703 1741 
L 4147 1741 
L 4147 141 
z
M 466 0 
Q 1144 847 1688 2022 
L 2028 1691 
Q 1556 584 838 -403 
L 466 0 
z
M 1419 2297 
Q 944 2813 434 3188 
L 753 3547 
Q 1281 3191 1753 2681 
L 1419 2297 
z
M 1619 3775 
Q 1159 4331 659 4691 
L 991 5044 
Q 1509 4650 1963 4166 
L 1619 3775 
z
M 4116 4050 
Q 3572 4566 2872 4978 
L 3200 5331 
Q 3850 4953 4472 4434 
L 4116 4050 
z
" transform="scale(0.015625)"/>
     </defs>
     <use xlink:href="#IPAexGothic-1f4a1"/>
     <use xlink:href="#IPAexGothic-20" x="100"/>
     <use xlink:href="#IPAexGothic-76f8" x="127.001953"/>
     <use xlink:href="#IPAexGothic-95a2" x="227.001953"/>
     <use xlink:href="#IPAexGothic-304c" x="327.001953"/>
     <use xlink:href="#IPAexGothic-9ad8" x="427.001953"/>
     <use xlink:href="#IPAexGothic-3044" x="527.001953"/>
     <use xlink:href="#IPAexGothic-5909" x="627.001953"/>
     <use xlink:href="#IPAexGothic-6570" x="727.001953"/>
     <use xlink:href="#IPAexGothic-20" x="827.001953"/>
     <use xlink:href="#IPAexGothic-3d" x="854.003906"/>
     <use xlink:href="#IPAexGothic-20" x="921.826172"/>
     <use xlink:href="#IPAexGothic-4e88" x="948.828125"/>
     <use xlink:href="#IPAexGothic-6e2c" x="1048.828125"/>
     <use xlink:href="#IPAexGothic-306b" x="1148.828125"/>
     <use xlink:href="#IPAexGothic-4f7f" x="1248.828125"/>
     <use xlink:href="#IPAexGothic-3048" x="1348.828125"/>
     <use xlink:href="#IPAexGothic-308b" x="1448.828125"/>
     <use xlink:href="#IPAexGothic-5019" x="1548.828125"/>
     <use xlink:href="#IPAexGothic-88dc" x="1648.828125"/>
     <use xlink:href="#IPAexGothic-ff08" x="1748.828125"/>
     <use xlink:href="#IPAexGothic-305f" x="1848.828125"/>
     <use xlink:href="#IPAexGothic-3060" x="1948.828125"/>
     <use xlink:href="#IPAexGothic-3057" x="2048.828125"/>
     <use xlink:href="#IPAexGothic-591a" x="2148.828125"/>
     <use xlink:href="#IPAexGothic-91cd" x="2248.828125"/>
     <use xlink:href="#IPAexGothic-5171" x="2348.828125"/>
     <use xlink:href="#IPAexGothic-7dda" x="2448.828125"/>
     <use xlink:href="#IPAexGothic-6027" x="2548.828125"/>
     <use xlink:href="#IPAexGothic-306b" x="2648.828125"/>
     <use xlink:href="#IPAexGothic-6ce8" x="2748.828125"/>
     <use xlink:href="#IPAexGothic-610f" x="2848.828125"/>
     <use xlink:href="#IPAexGothic-ff09" x="2948.828125"/>
    </g>
   </g>
  </g>
 </g>
 <defs>
  <clipPath id="p62ff2f9cb9">
   <rect x="0" y="-0" width="691.2" height="388.8"/>
  </clipPath>
 </defs>
</svg>
