<?xml version="1.0" encoding="utf-8" standalone="no"?>
<!DOCTYPE svg PUBLIC "-//W3C//DTD SVG 1.1//EN"
  "http://www.w3.org/Graphics/SVG/1.1/DTD/svg11.dtd">
<svg xmlns:xlink="http://www.w3.org/1999/xlink" width="691.2pt" height="388.8pt" viewBox="0 0 691.2 388.8" xmlns="http://www.w3.org/2000/svg" version="1.1">
 <metadata>
  <rdf:RDF xmlns:dc="http://purl.org/dc/elements/1.1/" xmlns:cc="http://creativecommons.org/ns#" xmlns:rdf="http://www.w3.org/1999/02/22-rdf-syntax-ns#">
   <cc:Work>
    <dc:type rdf:resource="http://purl.org/dc/dcmitype/StillImage"/>
    <dc:date>2026-04-09T02:37:45.629947</dc:date>
    <dc:format>image/svg+xml</dc:format>
    <dc:creator>
     <cc:Agent>
      <dc:title>Matplotlib v3.9.4, https://matplotlib.org/</dc:title>
     </cc:Agent>
    </dc:creator>
   </cc:Work>
  </rdf:RDF>
 </metadata>
 <defs>
  <style type="text/css">*{stroke-linejoin: round; stroke-linecap: butt}</style>
 </defs>
 <g id="figure_1">
  <g id="patch_1">
   <path d="M 0 388.8 
L 691.2 388.8 
L 691.2 0 
L 0 0 
z
" style="fill: #ffffff"/>
  </g>
  <g id="axes_1">
   <g id="patch_2">
    <path d="M 0 -0 
L 691.2 -0 
L 691.2 24.48 
L 0 24.48 
z
" clip-path="url(#p01a0bca4af)" style="fill: #5ba85a"/>
   </g>
   <g id="patch_3">
    <path d="M 31.68 59.04 
L 659.52 59.04 
L 659.52 60.48 
L 31.68 60.48 
z
" clip-path="url(#p01a0bca4af)" style="fill: #ecf0f1"/>
   </g>
   <g id="patch_4">
    <path d="M 31.68 221.76 
L 659.52 221.76 
Q 662.4 221.76 662.4 224.64 
L 662.4 296.64 
Q 662.4 299.52 659.52 299.52 
L 31.68 299.52 
Q 28.8 299.52 28.8 296.64 
L 28.8 224.64 
Q 28.8 221.76 31.68 221.76 
z
" clip-path="url(#p01a0bca4af)" style="fill: #1e1e2e; stroke: #555555; stroke-linejoin: miter"/>
   </g>
   <g id="patch_5">
    <path d="M 31.68 306.72 
L 659.52 306.72 
L 659.52 335.52 
L 31.68 335.52 
z
" clip-path="url(#p01a0bca4af)" style="fill: #eafaf1"/>
   </g>
   <g id="patch_6">
    <path d="M 31.68 306.72 
L 33.84 306.72 
L 33.84 335.52 
L 31.68 335.52 
z
" clip-path="url(#p01a0bca4af)" style="fill: #5ba85a"/>
   </g>
   <g id="text_1">
    <!-- Ch.2 データ可視化・EDA -->
    <g style="fill: #ffffff" transform="translate(31.68 15.047031) scale(0.1 -0.1)">
     <defs>
      <path id="IPAexGothic-43" d="M 4353 1088 
Q 4181 694 3859 428 
Q 3313 -31 2559 -31 
Q 1588 -31 959 653 
Q 378 1294 378 2331 
Q 378 3406 1013 4078 
Q 1619 4725 2534 4725 
Q 3813 4725 4322 3628 
L 3809 3391 
Q 3425 4238 2541 4238 
Q 1891 4238 1453 3744 
Q 994 3216 994 2322 
Q 994 1550 1384 1056 
Q 1841 472 2563 472 
Q 3456 472 3878 1319 
L 4353 1088 
z
" transform="scale(0.015625)"/>
      <path id="IPAexGothic-68" d="M 3347 63 
L 2797 63 
L 2797 2041 
Q 2797 2853 2131 2853 
Q 1447 2853 1131 2041 
L 1131 63 
L 581 63 
L 581 4794 
L 1131 4794 
L 1131 2706 
Q 1566 3316 2247 3316 
Q 3347 3316 3347 2072 
L 3347 63 
z
" transform="scale(0.015625)"/>
      <path id="IPAexGothic-2e" d="M 1184 63 
L 494 63 
L 494 753 
L 1184 753 
L 1184 63 
z
" transform="scale(0.015625)"/>
      <path id="IPAexGothic-32" d="M 3659 63 
L 447 63 
L 447 594 
Q 825 1475 1894 2203 
L 2072 2322 
Q 2619 2697 2791 2906 
Q 2988 3153 2988 3444 
Q 2988 3772 2756 4003 
Q 2500 4259 2084 4259 
Q 1250 4259 991 3328 
L 497 3506 
Q 853 4725 2116 4725 
Q 2806 4725 3216 4316 
Q 3575 3947 3575 3425 
Q 3575 3038 3344 2722 
Q 3131 2416 2366 1938 
L 2231 1856 
Q 1256 1253 978 569 
L 3659 569 
L 3659 63 
z
" transform="scale(0.015625)"/>
      <path id="IPAexGothic-20" transform="scale(0.015625)"/>
      <path id="IPAexGothic-30c7" d="M 563 3072 
L 5741 3072 
L 5741 2613 
L 3578 2613 
Q 3538 1516 3134 872 
Q 2688 156 1663 -256 
L 1313 156 
Q 2338 538 2713 1166 
Q 3003 1644 3034 2613 
L 563 2613 
L 563 3072 
z
M 1406 4588 
L 4588 4588 
L 4588 4128 
L 1406 4128 
L 1406 4588 
z
M 6009 4469 
Q 5647 5009 5253 5338 
L 5553 5569 
Q 5938 5259 6328 4744 
L 6009 4469 
z
M 5413 4000 
Q 5125 4491 4678 4891 
L 4991 5131 
Q 5363 4825 5747 4275 
L 5413 4000 
z
" transform="scale(0.015625)"/>
      <path id="IPAexGothic-30fc" d="M 588 2688 
L 5809 2688 
L 5809 2175 
L 588 2175 
L 588 2688 
z
" transform="scale(0.015625)"/>
      <path id="IPAexGothic-30bf" d="M 4978 4263 
L 5313 3988 
Q 4797 2431 4056 1459 
Q 3191 325 1822 -300 
L 1466 109 
Q 2131 381 2613 738 
Q 3053 1066 3531 1600 
Q 2919 2225 2144 2791 
Q 1603 2203 1172 1875 
L 825 2234 
Q 2316 3328 2866 5031 
L 3359 4897 
Q 3325 4775 3109 4263 
L 4978 4263 
z
M 2894 3816 
Q 2709 3522 2438 3169 
Q 3194 2616 3841 2003 
Q 4366 2806 4747 3816 
L 2894 3816 
z
" transform="scale(0.015625)"/>
      <path id="IPAexGothic-53ef" d="M 5100 4313 
L 5100 288 
Q 5100 -63 4913 -200 
Q 4756 -322 4313 -322 
Q 3859 -322 3313 -263 
L 3231 263 
Q 3869 178 4294 178 
Q 4525 178 4575 275 
Q 4613 341 4613 497 
L 4613 4313 
L 416 4313 
L 416 4728 
L 5972 4728 
L 5972 4313 
L 5100 4313 
z
M 3666 3406 
L 3666 1259 
L 1713 1259 
L 1713 741 
L 1259 741 
L 1259 3406 
L 3666 3406 
z
M 1713 3003 
L 1713 1669 
L 3213 1669 
L 3213 3003 
L 1713 3003 
z
" transform="scale(0.015625)"/>
      <path id="IPAexGothic-8996" d="M 2953 1631 
L 2953 5050 
L 5622 5050 
L 5622 1631 
L 4916 1631 
L 4916 300 
Q 4916 138 5000 100 
Q 5050 75 5219 75 
Q 5584 75 5641 275 
Q 5678 419 5697 1003 
L 6116 825 
Q 6075 75 5981 -97 
Q 5875 -297 5622 -334 
Q 5478 -353 5159 -353 
Q 4797 -353 4659 -288 
Q 4488 -203 4488 91 
L 4488 1631 
L 4028 1631 
Q 3978 841 3675 378 
Q 3353 -119 2625 -453 
L 2319 -91 
Q 3003 175 3303 634 
Q 3547 1013 3603 1631 
L 2953 1631 
z
M 3375 2016 
L 5206 2016 
L 5206 2669 
L 3375 2669 
L 3375 2016 
z
M 3375 3041 
L 5206 3041 
L 5206 3666 
L 3375 3666 
L 3375 3041 
z
M 3375 4038 
L 5206 4038 
L 5206 4666 
L 3375 4666 
L 3375 4038 
z
M 1766 2547 
Q 2294 2244 2834 1797 
L 2541 1381 
Q 2181 1728 1791 2041 
L 1766 2059 
L 1766 -456 
L 1313 -456 
L 1313 2047 
Q 894 1559 463 1216 
L 206 1619 
Q 1319 2453 1981 3775 
L 391 3775 
L 391 4197 
L 1250 4197 
L 1250 5309 
L 1703 5309 
L 1703 4197 
L 2303 4197 
L 2541 3978 
Q 2234 3259 1766 2622 
L 1766 2547 
z
" transform="scale(0.015625)"/>
      <path id="IPAexGothic-5316" d="M 1831 3700 
L 1831 -341 
L 1356 -341 
L 1356 2772 
Q 1069 2275 678 1772 
L 378 2138 
Q 1319 3278 1856 5166 
L 2319 5013 
Q 2100 4319 1831 3700 
z
M 3425 2906 
Q 4528 3350 5306 3969 
L 5703 3616 
Q 4728 2919 3425 2444 
L 3425 575 
Q 3425 353 3584 306 
Q 3738 263 4334 263 
Q 5072 263 5250 347 
Q 5384 403 5422 594 
Q 5475 872 5506 1497 
L 5978 1331 
Q 5931 319 5775 106 
Q 5641 -75 5331 -141 
Q 5041 -206 4244 -206 
Q 3438 -206 3181 -78 
Q 2931 47 2931 384 
L 2931 5113 
L 3425 5113 
L 3425 2906 
z
" transform="scale(0.015625)"/>
      <path id="IPAexGothic-30fb" d="M 2772 2859 
L 3628 2859 
L 3628 2003 
L 2772 2003 
L 2772 2859 
z
" transform="scale(0.015625)"/>
      <path id="IPAexGothic-45" d="M 3547 63 
L 609 63 
L 609 4634 
L 3469 4634 
L 3469 4147 
L 1166 4147 
L 1166 2650 
L 3206 2650 
L 3206 2191 
L 1166 2191 
L 1166 556 
L 3547 556 
L 3547 63 
z
" transform="scale(0.015625)"/>
      <path id="IPAexGothic-44" d="M 609 4634 
L 1984 4634 
Q 3159 4634 3791 4050 
Q 4456 3444 4456 2356 
Q 4456 1047 3516 441 
Q 2925 63 1941 63 
L 609 63 
L 609 4634 
z
M 1172 556 
L 1894 556 
Q 3853 556 3853 2356 
Q 3853 4147 1928 4147 
L 1172 4147 
L 1172 556 
z
" transform="scale(0.015625)"/>
      <path id="IPAexGothic-41" d="M 4056 63 
L 3444 63 
L 2938 1409 
L 1100 1409 
L 603 63 
L -6 63 
L 1806 4666 
L 2259 4666 
L 4056 63 
z
M 2778 1863 
L 2316 3078 
Q 2125 3588 2028 4000 
L 2009 4000 
Q 1897 3563 1716 3078 
L 1263 1863 
L 2778 1863 
z
" transform="scale(0.015625)"/>
     </defs>
     <use xlink:href="#IPAexGothic-43"/>
     <use xlink:href="#IPAexGothic-68" x="72.509766"/>
     <use xlink:href="#IPAexGothic-2e" x="133.203125"/>
     <use xlink:href="#IPAexGothic-32" x="159.619141"/>
     <use xlink:href="#IPAexGothic-20" x="222.607422"/>
     <use xlink:href="#IPAexGothic-30c7" x="249.609375"/>
     <use xlink:href="#IPAexGothic-30fc" x="349.609375"/>
     <use xlink:href="#IPAexGothic-30bf" x="449.609375"/>
     <use xlink:href="#IPAexGothic-53ef" x="549.609375"/>
     <use xlink:href="#IPAexGothic-8996" x="649.609375"/>
     <use xlink:href="#IPAexGothic-5316" x="749.609375"/>
     <use xlink:href="#IPAexGothic-30fb" x="849.609375"/>
     <use xlink:href="#IPAexGothic-45" x="949.609375"/>
     <use xlink:href="#IPAexGothic-44" x="1009.130859"/>
     <use xlink:href="#IPAexGothic-41" x="1084.814453"/>
    </g>
   </g>
   <g id="text_2">
    <!-- ヒストグラム：データの分布を見る -->
    <g style="fill: #1a1a2e" transform="translate(31.68 55.5225) scale(0.24 -0.24)">
     <defs>
      <path id="IPAexGothic-30d2" d="M 1375 4806 
L 1900 4806 
L 1900 2809 
Q 3572 3188 4766 3922 
L 5150 3506 
Q 3663 2716 1900 2328 
L 1900 1094 
Q 1900 775 2091 700 
Q 2288 616 3181 616 
Q 4184 616 5413 750 
L 5413 238 
Q 4275 128 3281 128 
Q 1956 128 1663 325 
Q 1375 509 1375 997 
L 1375 4806 
z
" transform="scale(0.015625)"/>
      <path id="IPAexGothic-30b9" d="M 4359 4481 
L 4716 4147 
Q 4328 3072 3647 2150 
Q 4659 1434 5659 453 
L 5234 19 
Q 4256 1088 3353 1778 
Q 2372 597 1044 -31 
L 653 403 
Q 3128 1453 4097 4000 
L 1241 3963 
L 1228 4453 
L 4359 4481 
z
" transform="scale(0.015625)"/>
      <path id="IPAexGothic-30c8" d="M 2284 4997 
L 2803 4997 
L 2803 3206 
Q 4088 2619 5216 1888 
L 4878 1369 
Q 3819 2175 2803 2688 
L 2803 -184 
L 2284 -184 
L 2284 4997 
z
" transform="scale(0.015625)"/>
      <path id="IPAexGothic-30b0" d="M 4769 4128 
L 5106 3878 
Q 4728 2272 3866 1238 
Q 3106 328 1863 -288 
L 1491 122 
Q 2709 628 3475 1563 
Q 4238 2491 4525 3669 
L 2738 3669 
Q 2022 2591 1191 1897 
L 813 2247 
Q 2163 3338 2766 4959 
L 3256 4819 
Q 3197 4609 2975 4128 
L 4769 4128 
z
M 6009 4422 
Q 5647 4966 5253 5294 
L 5556 5522 
Q 5941 5213 6328 4697 
L 6009 4422 
z
M 5416 3956 
Q 5125 4447 4678 4844 
L 4991 5088 
Q 5363 4781 5747 4231 
L 5416 3956 
z
" transform="scale(0.015625)"/>
      <path id="IPAexGothic-30e9" d="M 1447 4709 
L 4922 4709 
L 4922 4234 
L 1447 4234 
L 1447 4709 
z
M 897 3303 
L 5172 3303 
L 5478 3013 
Q 5069 1669 4219 875 
Q 3475 181 2306 -181 
L 1972 294 
Q 4150 784 4834 2828 
L 897 2828 
L 897 3303 
z
" transform="scale(0.015625)"/>
      <path id="IPAexGothic-30e0" d="M 609 891 
L 719 897 
L 884 903 
Q 1053 916 1263 925 
Q 1413 931 1447 934 
Q 2291 2888 2856 4706 
L 3394 4525 
Q 2841 2859 2019 981 
Q 3553 1109 4659 1275 
Q 4200 1950 3669 2588 
L 4122 2838 
Q 5075 1700 5788 513 
L 5319 194 
Q 5038 691 4922 866 
Q 2919 509 822 328 
L 609 891 
z
" transform="scale(0.015625)"/>
      <path id="IPAexGothic-ff1a" d="M 2822 3366 
L 3578 3366 
L 3578 2609 
L 2822 2609 
L 2822 3366 
z
M 2822 1081 
L 3578 1081 
L 3578 325 
L 2822 325 
L 2822 1081 
z
" transform="scale(0.015625)"/>
      <path id="IPAexGothic-306e" d="M 3119 469 
Q 5275 766 5275 2425 
Q 5275 3453 4413 3925 
Q 4041 4116 3547 4159 
Q 3394 2525 2850 1400 
Q 2322 306 1722 306 
Q 1384 306 1084 666 
Q 609 1244 609 2003 
Q 609 3025 1397 3794 
Q 2184 4563 3431 4563 
Q 4306 4563 4928 4122 
Q 5813 3506 5813 2425 
Q 5813 438 3431 6 
L 3119 469 
z
M 3053 4147 
Q 2378 4044 1891 3641 
Q 1097 2981 1097 1991 
Q 1097 1366 1434 978 
Q 1581 813 1719 813 
Q 2022 813 2416 1625 
Q 2909 2638 3053 4147 
z
" transform="scale(0.015625)"/>
      <path id="IPAexGothic-5206" d="M 3031 2431 
Q 2916 1378 2528 759 
Q 1991 -81 941 -469 
L 625 -53 
Q 2356 488 2541 2431 
L 1375 2431 
L 1375 2772 
Q 1044 2431 653 2156 
L 313 2534 
Q 1600 3425 2219 5056 
L 2688 4875 
Q 2200 3672 1453 2847 
L 4966 2847 
Q 4878 559 4741 94 
Q 4666 -163 4459 -250 
Q 4288 -322 3941 -322 
Q 3525 -322 2981 -263 
L 2884 256 
Q 3441 138 3844 138 
Q 4213 138 4281 438 
Q 4388 931 4472 2431 
L 3031 2431 
z
M 5747 2303 
Q 4416 3238 3506 4934 
L 3934 5113 
Q 4747 3572 6084 2747 
L 5747 2303 
z
" transform="scale(0.015625)"/>
      <path id="IPAexGothic-5e03" d="M 3228 2741 
L 3228 3584 
L 3688 3584 
L 3688 2741 
L 5500 2741 
L 5500 750 
Q 5500 475 5353 369 
Q 5228 272 4900 272 
Q 4625 272 4269 291 
L 4188 775 
Q 4600 713 4834 713 
Q 5047 713 5047 956 
L 5047 2325 
L 3688 2325 
L 3688 -447 
L 3228 -447 
L 3228 2325 
L 2056 2325 
L 2056 91 
L 1603 91 
L 1603 2228 
Q 1159 1747 622 1313 
L 303 1691 
Q 1544 2625 2144 3847 
L 516 3847 
L 516 4275 
L 2338 4275 
Q 2506 4684 2656 5228 
L 3150 5153 
Q 2988 4581 2856 4275 
L 5984 4275 
L 5984 3847 
L 2669 3847 
Q 2369 3231 2009 2741 
L 3228 2741 
z
" transform="scale(0.015625)"/>
      <path id="IPAexGothic-3092" d="M 1094 4263 
Q 1544 4222 2359 4222 
Q 2581 4734 2700 5163 
L 3175 5028 
Q 2997 4538 2859 4256 
Q 3516 4284 4294 4459 
L 4356 4019 
Q 3603 3869 2656 3819 
Q 2391 3284 2059 2797 
Q 2531 3200 2963 3200 
Q 3638 3200 3859 2378 
Q 4556 2681 5338 2950 
L 5575 2528 
Q 4641 2253 3941 1956 
Q 3981 1678 3994 1028 
L 3513 991 
Q 3513 1456 3494 1753 
Q 2388 1194 2388 716 
Q 2388 428 2753 328 
Q 3066 241 3806 241 
Q 4394 241 5178 344 
L 5216 -128 
Q 4434 -213 3653 -213 
Q 2656 -213 2244 41 
Q 1913 244 1913 631 
Q 1913 1094 2344 1497 
Q 2709 1841 3428 2181 
Q 3266 2797 2878 2797 
Q 2238 2797 1209 1419 
L 838 1694 
Q 1625 2716 2163 3800 
Q 1522 3800 1088 3825 
L 1094 4263 
z
" transform="scale(0.015625)"/>
      <path id="IPAexGothic-898b" d="M 4053 1631 
L 4053 403 
Q 4053 194 4159 144 
Q 4259 100 4594 100 
Q 5206 100 5303 272 
Q 5369 394 5406 1031 
L 5413 1138 
L 5881 966 
Q 5831 75 5656 -128 
Q 5475 -341 4566 -341 
Q 4041 -341 3859 -269 
Q 3584 -166 3584 184 
L 3584 1631 
L 2719 1631 
Q 2663 631 2219 197 
Q 1744 -256 756 -469 
L 513 -38 
Q 1500 134 1888 513 
Q 2216 831 2247 1631 
L 1288 1631 
L 1288 5050 
L 5106 5050 
L 5106 1631 
L 4053 1631 
z
M 1747 4653 
L 1747 4044 
L 4638 4044 
L 4638 4653 
L 1747 4653 
z
M 1747 3653 
L 1747 3047 
L 4638 3047 
L 4638 3653 
L 1747 3653 
z
M 1747 2663 
L 1747 2028 
L 4638 2028 
L 4638 2663 
L 1747 2663 
z
" transform="scale(0.015625)"/>
      <path id="IPAexGothic-308b" d="M 4391 4397 
L 2613 2588 
Q 3225 2809 3759 2809 
Q 4263 2809 4659 2625 
Q 5391 2269 5391 1484 
Q 5391 756 4706 275 
Q 4072 -166 3053 -166 
Q 2559 -166 2247 19 
Q 1863 250 1863 666 
Q 1863 934 2069 1141 
Q 2331 1403 2741 1403 
Q 3509 1403 4019 428 
Q 4872 784 4872 1491 
Q 4872 1981 4469 2222 
Q 4166 2406 3681 2406 
Q 2425 2406 1238 1209 
L 891 1581 
Q 2438 2934 3578 4281 
Q 2594 4125 1588 4066 
L 1478 4550 
Q 2594 4581 4109 4763 
L 4391 4397 
z
M 3591 303 
Q 3244 1025 2731 1025 
Q 2553 1025 2434 934 
Q 2316 844 2316 700 
Q 2316 250 3034 250 
Q 3275 250 3591 303 
z
" transform="scale(0.015625)"/>
     </defs>
     <use xlink:href="#IPAexGothic-30d2"/>
     <use xlink:href="#IPAexGothic-30b9" x="100"/>
     <use xlink:href="#IPAexGothic-30c8" x="200"/>
     <use xlink:href="#IPAexGothic-30b0" x="300"/>
     <use xlink:href="#IPAexGothic-30e9" x="400"/>
     <use xlink:href="#IPAexGothic-30e0" x="500"/>
     <use xlink:href="#IPAexGothic-ff1a" x="600"/>
     <use xlink:href="#IPAexGothic-30c7" x="700"/>
     <use xlink:href="#IPAexGothic-30fc" x="800"/>
     <use xlink:href="#IPAexGothic-30bf" x="900"/>
     <use xlink:href="#IPAexGothic-306e" x="1000"/>
     <use xlink:href="#IPAexGothic-5206" x="1100"/>
     <use xlink:href="#IPAexGothic-5e03" x="1200"/>
     <use xlink:href="#IPAexGothic-3092" x="1300"/>
     <use xlink:href="#IPAexGothic-898b" x="1400"/>
     <use xlink:href="#IPAexGothic-308b" x="1500"/>
    </g>
   </g>
   <g id="text_3">
    <!-- ▸ -->
    <g style="fill: #5ba85a" transform="translate(33.12 80.755) scale(0.095 -0.095)">
     <defs>
      <path id="IPAexGothic-25b8" d="M 5759 -641 
L 641 -641 
L 641 5503 
L 5759 5503 
L 5759 -641 
z
M 5216 5172 
L 1191 5172 
L 3206 2694 
L 5216 5172 
z
M 5428 -53 
L 5428 4903 
L 3419 2425 
L 5428 -53 
z
M 2988 2425 
L 972 4916 
L 972 -59 
L 2988 2425 
z
M 5209 -309 
L 3206 2163 
L 1197 -309 
L 5209 -309 
z
" transform="scale(0.015625)"/>
     </defs>
     <use xlink:href="#IPAexGothic-25b8"/>
    </g>
   </g>
   <g id="text_4">
    <!-- 横軸：値の範囲 -->
    <g style="fill: #2c3e50" transform="translate(46.08 82.486875) scale(0.14 -0.14)">
     <defs>
      <path id="IPAexGothic-6a2a" d="M 2363 3616 
L 3259 3616 
L 3259 4263 
L 2388 4263 
L 2388 4622 
L 3259 4622 
L 3259 5313 
L 3675 5313 
L 3675 4622 
L 4584 4622 
L 4584 5313 
L 5006 5313 
L 5006 4622 
L 5903 4622 
L 5903 4263 
L 5006 4263 
L 5006 3616 
L 6088 3616 
L 6088 3238 
L 4341 3238 
L 4341 2822 
L 5756 2822 
L 5756 647 
L 4850 647 
Q 5500 359 6153 -91 
L 5806 -453 
Q 5247 6 4500 384 
L 4844 647 
L 2563 647 
L 2563 2822 
L 3938 2822 
L 3938 3238 
L 2228 3238 
L 2228 3609 
L 1622 3609 
L 1622 2925 
Q 2184 2425 2441 2131 
L 2184 1663 
Q 1872 2125 1622 2431 
L 1622 -447 
L 1200 -447 
L 1200 2584 
Q 916 1609 450 847 
L 188 1306 
Q 897 2366 1134 3609 
L 322 3609 
L 322 4013 
L 1200 4013 
L 1200 5306 
L 1622 5306 
L 1622 4013 
L 2363 4013 
L 2363 3616 
z
M 4584 3616 
L 4584 4263 
L 3675 4263 
L 3675 3616 
L 4584 3616 
z
M 2978 2463 
L 2978 1925 
L 3938 1925 
L 3938 2463 
L 2978 2463 
z
M 2978 1578 
L 2978 1006 
L 3938 1006 
L 3938 1578 
L 2978 1578 
z
M 5331 1006 
L 5331 1578 
L 4341 1578 
L 4341 1006 
L 5331 1006 
z
M 5331 1925 
L 5331 2463 
L 4341 2463 
L 4341 1925 
L 5331 1925 
z
M 2125 -197 
Q 2969 147 3509 628 
L 3872 366 
Q 3253 -191 2459 -538 
L 2125 -197 
z
" transform="scale(0.015625)"/>
      <path id="IPAexGothic-8ef8" d="M 1506 3688 
L 1506 4122 
L 425 4122 
L 425 4506 
L 1506 4506 
L 1506 5313 
L 1922 5313 
L 1922 4506 
L 3041 4506 
L 3041 4122 
L 1922 4122 
L 1922 3688 
L 2900 3688 
L 2900 1547 
L 1922 1547 
L 1922 1094 
L 3122 1094 
L 3122 709 
L 1922 709 
L 1922 -450 
L 1506 -450 
L 1506 709 
L 316 709 
L 316 1094 
L 1506 1094 
L 1506 1547 
L 553 1547 
L 553 3688 
L 1506 3688 
z
M 1525 3347 
L 938 3347 
L 938 2797 
L 1525 2797 
L 1525 3347 
z
M 1909 3347 
L 1909 2797 
L 2522 2797 
L 2522 3347 
L 1909 3347 
z
M 1525 2472 
L 938 2472 
L 938 1888 
L 1525 1888 
L 1525 2472 
z
M 1909 2472 
L 1909 1888 
L 2522 1888 
L 2522 2472 
L 1909 2472 
z
M 4381 4116 
L 4381 5209 
L 4803 5209 
L 4803 4116 
L 5916 4116 
L 5916 -366 
L 5506 -366 
L 5506 0 
L 3713 0 
L 3713 -391 
L 3303 -391 
L 3303 4116 
L 4381 4116 
z
M 3713 3725 
L 3713 2316 
L 4394 2316 
L 4394 3725 
L 3713 3725 
z
M 3713 1931 
L 3713 397 
L 4394 397 
L 4394 1931 
L 3713 1931 
z
M 4791 3725 
L 4791 2316 
L 5506 2316 
L 5506 3725 
L 4791 3725 
z
M 4791 1931 
L 4791 397 
L 5506 397 
L 5506 1931 
L 4791 1931 
z
" transform="scale(0.015625)"/>
      <path id="IPAexGothic-5024" d="M 4172 3675 
L 5453 3675 
L 5453 684 
L 3019 684 
L 3019 3675 
L 3750 3675 
Q 3788 3884 3825 4153 
L 2141 4153 
L 2141 4544 
L 3884 4544 
Q 3922 4844 3966 5325 
L 4434 5272 
L 4388 4953 
Q 4331 4578 4331 4544 
L 5863 4544 
L 5863 4153 
L 4269 4153 
Q 4200 3781 4172 3675 
z
M 5038 3316 
L 3434 3316 
L 3434 2803 
L 5038 2803 
L 5038 3316 
z
M 3434 2450 
L 3434 1941 
L 5038 1941 
L 5038 2450 
L 3434 2450 
z
M 3434 1588 
L 3434 1044 
L 5038 1044 
L 5038 1588 
L 3434 1588 
z
M 1509 3669 
L 1509 -447 
L 1069 -447 
L 1069 2725 
Q 856 2338 531 1875 
L 288 2266 
Q 1163 3531 1541 5325 
L 1975 5222 
Q 1791 4378 1509 3669 
z
M 2488 244 
L 6031 244 
L 6031 -153 
L 2488 -153 
L 2488 -447 
L 2059 -447 
L 2059 3213 
L 2488 3213 
L 2488 244 
z
" transform="scale(0.015625)"/>
      <path id="IPAexGothic-7bc4" d="M 1613 2631 
L 1613 2938 
L 397 2938 
L 397 3291 
L 1613 3291 
L 1613 3731 
L 2003 3731 
L 2003 3291 
L 3238 3291 
L 3238 2938 
L 2003 2938 
L 2003 2631 
L 3013 2631 
L 3013 978 
L 2003 978 
L 2003 628 
L 3300 628 
L 3300 275 
L 2003 275 
L 2003 -447 
L 1613 -447 
L 1613 275 
L 328 275 
L 328 628 
L 1613 628 
L 1613 978 
L 634 978 
L 634 2631 
L 1613 2631 
z
M 1619 2319 
L 1019 2319 
L 1019 1966 
L 1619 1966 
L 1619 2319 
z
M 1997 2319 
L 1997 1966 
L 2622 1966 
L 2622 2319 
L 1997 2319 
z
M 1619 1666 
L 1019 1666 
L 1019 1291 
L 1619 1291 
L 1619 1666 
z
M 1997 1666 
L 1997 1291 
L 2622 1291 
L 2622 1666 
L 1997 1666 
z
M 3941 3072 
L 3941 288 
Q 3941 103 4038 63 
Q 4134 19 4672 19 
Q 5447 19 5553 116 
Q 5659 222 5669 872 
L 6103 750 
Q 6094 53 5944 -166 
Q 5778 -391 4800 -391 
Q 3944 -391 3744 -313 
Q 3513 -219 3513 178 
L 3513 3463 
L 5681 3463 
L 5681 1350 
Q 5681 922 5209 922 
Q 4778 922 4459 966 
L 4381 1381 
Q 4797 1313 5075 1313 
Q 5253 1313 5253 1509 
L 5253 3072 
L 3941 3072 
z
M 1413 4788 
L 3200 4788 
L 3200 4416 
L 2228 4416 
Q 2350 4184 2497 3800 
L 2066 3672 
Q 1959 4031 1791 4416 
L 1253 4416 
L 1241 4384 
Q 1006 3903 600 3469 
L 288 3744 
Q 884 4350 1150 5350 
L 1569 5275 
Q 1503 5038 1413 4788 
z
M 3963 4788 
L 6034 4788 
L 6034 4416 
L 4678 4416 
Q 4863 4141 5025 3806 
L 4594 3659 
Q 4406 4113 4225 4416 
L 3800 4416 
Q 3569 3934 3256 3584 
L 2925 3841 
Q 3434 4416 3694 5356 
L 4116 5263 
Q 4022 4956 3963 4788 
z
" transform="scale(0.015625)"/>
      <path id="IPAexGothic-56f2" d="M 2291 3494 
L 2291 4384 
L 2731 4384 
L 2731 3494 
L 3700 3494 
L 3700 4384 
L 4141 4384 
L 4141 3494 
L 4997 3494 
L 4997 3122 
L 4141 3122 
L 4141 2156 
L 5100 2156 
L 5100 1772 
L 4159 1772 
L 4159 447 
L 3719 447 
L 3719 1772 
L 2688 1772 
Q 2541 853 1766 344 
L 1441 666 
Q 2119 1069 2247 1772 
L 1291 1772 
L 1291 2156 
L 2284 2156 
Q 2291 2228 2291 2375 
L 2291 3122 
L 1388 3122 
L 1388 3494 
L 2291 3494 
z
M 3700 3122 
L 2731 3122 
L 2731 2475 
Q 2731 2272 2725 2156 
L 3700 2156 
L 3700 3122 
z
M 5759 4984 
L 5759 -447 
L 5300 -447 
L 5300 -172 
L 1097 -172 
L 1097 -447 
L 628 -447 
L 628 4984 
L 5759 4984 
z
M 1097 4575 
L 1097 244 
L 5300 244 
L 5300 4575 
L 1097 4575 
z
" transform="scale(0.015625)"/>
     </defs>
     <use xlink:href="#IPAexGothic-6a2a"/>
     <use xlink:href="#IPAexGothic-8ef8" x="100"/>
     <use xlink:href="#IPAexGothic-ff1a" x="200"/>
     <use xlink:href="#IPAexGothic-5024" x="300"/>
     <use xlink:href="#IPAexGothic-306e" x="400"/>
     <use xlink:href="#IPAexGothic-7bc4" x="500"/>
     <use xlink:href="#IPAexGothic-56f2" x="600"/>
    </g>
   </g>
   <g id="text_5">
    <!-- 縦軸：その範囲に含まれるデータ件数 -->
    <g style="fill: #7f8c8d" transform="translate(53.28 104.441953) scale(0.105 -0.105)">
     <defs>
      <path id="IPAexGothic-7e26" d="M 3225 2663 
L 3225 -447 
L 2816 -447 
L 2816 1997 
Q 2684 1800 2469 1522 
L 2303 1966 
Q 2925 2772 3297 3794 
L 3659 3622 
Q 3513 3197 3225 2663 
z
M 1147 3072 
Q 741 3678 313 4134 
L 569 4441 
Q 731 4259 819 4153 
Q 1178 4691 1416 5338 
L 1813 5141 
Q 1472 4456 1050 3859 
Q 1163 3716 1350 3419 
Q 1597 3834 1953 4544 
L 2322 4341 
Q 1816 3372 1228 2578 
Q 1756 2609 1978 2638 
Q 1875 2966 1778 3175 
L 2088 3303 
Q 2331 2822 2463 2247 
L 2131 2059 
L 2081 2272 
L 2066 2338 
L 1606 2259 
L 1606 -447 
L 1209 -447 
L 1209 2209 
Q 834 2159 366 2131 
L 256 2541 
Q 322 2544 466 2547 
Q 600 2550 672 2553 
L 806 2559 
Q 847 2616 1147 3072 
z
M 4641 3431 
L 3731 3431 
L 3731 3834 
L 4853 3834 
L 4866 3878 
Q 5163 4628 5306 5281 
L 5747 5141 
Q 5516 4381 5247 3834 
L 6022 3834 
L 6022 3431 
L 5050 3431 
L 5050 2259 
L 5913 2259 
L 5913 1856 
L 5050 1856 
L 5050 250 
Q 5453 103 5972 103 
Q 6100 103 6209 109 
Q 6106 -88 6069 -347 
Q 5109 -347 4609 0 
Q 4253 247 4019 763 
Q 3872 -22 3669 -494 
L 3353 -147 
Q 3766 1119 3816 2753 
L 4225 2688 
Q 4197 1931 4109 1306 
Q 4300 772 4641 481 
L 4641 3431 
z
M 294 213 
Q 491 809 556 1806 
L 941 1753 
Q 894 728 697 13 
L 294 213 
z
M 2041 366 
Q 1934 1172 1766 1797 
L 2106 1894 
Q 2278 1344 2444 506 
L 2041 366 
z
M 2297 3750 
Q 2834 4381 3156 5234 
L 3534 5044 
Q 3159 4094 2553 3413 
L 2297 3750 
z
M 4225 3916 
Q 4103 4541 3872 5131 
L 4269 5241 
Q 4531 4631 4634 4038 
L 4225 3916 
z
" transform="scale(0.015625)"/>
      <path id="IPAexGothic-305d" d="M 1503 4575 
Q 2897 4641 4378 4813 
L 4641 4488 
Q 3566 3469 2738 2809 
Q 4478 3072 5516 3200 
L 5581 2741 
Q 4425 2644 3884 2394 
Q 2978 1972 2978 1131 
Q 2978 659 3506 450 
Q 3953 272 4819 269 
L 4838 -250 
Q 3725 -241 3200 44 
Q 2497 431 2497 1113 
Q 2497 1916 3403 2534 
Q 1234 2188 781 2106 
L 691 2559 
Q 809 2575 2072 2747 
Q 3203 3694 3872 4378 
Q 2759 4184 1606 4091 
L 1503 4575 
z
" transform="scale(0.015625)"/>
      <path id="IPAexGothic-306b" d="M 1088 -38 
Q 922 1003 922 2081 
Q 922 3222 1331 4794 
L 1813 4684 
Q 1391 3113 1391 2003 
Q 1391 1441 1422 1147 
Q 1434 1181 1813 2016 
L 2125 1797 
Q 1800 1081 1691 763 
Q 1581 453 1581 269 
Q 1581 78 1588 6 
L 1088 -38 
z
M 2834 4038 
Q 3969 4213 5313 4172 
L 5338 3681 
Q 3959 3728 2869 3547 
L 2834 4038 
z
M 5650 256 
Q 5044 172 4372 172 
Q 3463 172 3047 434 
Q 2784 594 2675 841 
Q 2572 1075 2572 1447 
Q 2572 1563 2578 1656 
L 3053 1684 
Q 3050 1613 3044 1528 
Q 3041 1481 3041 1466 
Q 3041 1200 3119 1053 
Q 3178 944 3309 850 
Q 3569 678 4275 678 
Q 4891 678 5588 763 
L 5650 256 
z
" transform="scale(0.015625)"/>
      <path id="IPAexGothic-542b" d="M 3641 1594 
Q 4128 2063 4434 2534 
L 1181 2534 
L 1181 2925 
L 4772 2925 
L 5069 2688 
Q 4634 2016 4244 1594 
L 5331 1594 
L 5331 -447 
L 4856 -447 
L 4856 -166 
L 1600 -166 
L 1600 -447 
L 1125 -447 
L 1125 1594 
L 3641 1594 
z
M 1600 1209 
L 1600 231 
L 4856 231 
L 4856 1209 
L 1600 1209 
z
M 4491 3725 
L 4491 3413 
L 1950 3413 
L 1950 3688 
Q 1372 3275 647 2944 
L 306 3322 
Q 1997 3950 2872 5275 
L 3416 5275 
Q 4403 4084 6138 3444 
L 5803 3047 
Q 5069 3356 4491 3725 
z
M 4363 3809 
Q 3628 4303 3153 4872 
Q 2731 4272 2119 3809 
L 4363 3809 
z
" transform="scale(0.015625)"/>
      <path id="IPAexGothic-307e" d="M 3538 5075 
L 3547 4141 
Q 4509 4203 5288 4341 
L 5325 3897 
Q 4744 3809 3553 3719 
L 3566 2925 
Q 4578 3022 5031 3103 
L 5063 2663 
Q 4519 2572 3578 2503 
L 3628 1403 
Q 4531 1128 5459 513 
L 5153 84 
Q 4656 456 3641 909 
Q 3669 331 3391 84 
Q 3116 -153 2559 -153 
Q 1900 -153 1522 72 
Q 1138 297 1138 719 
Q 1138 1163 1634 1413 
Q 1994 1594 2413 1594 
Q 2797 1594 3156 1538 
L 3109 2472 
Q 2641 2450 2413 2450 
Q 1931 2450 1422 2484 
L 1422 2919 
Q 1941 2872 2516 2872 
Q 2706 2872 3097 2894 
L 3072 3688 
Q 2381 3675 2344 3675 
Q 1794 3675 1075 3706 
L 1075 4141 
Q 1744 4097 2431 4097 
Q 2456 4097 3059 4109 
L 3041 5075 
L 3538 5075 
z
M 3163 1088 
Q 2713 1184 2394 1184 
Q 2094 1184 1875 1091 
Q 1606 975 1606 750 
Q 1606 484 1925 363 
Q 2156 275 2503 275 
Q 3163 275 3163 794 
L 3163 1088 
z
" transform="scale(0.015625)"/>
      <path id="IPAexGothic-308c" d="M 538 3694 
Q 1275 3791 1800 3903 
L 1838 5006 
L 2316 5006 
L 2253 4006 
L 2619 3675 
Q 2428 3425 2247 3144 
Q 2241 3084 2241 2869 
Q 3341 4031 4134 4031 
Q 4856 4031 4856 3309 
Q 4856 3047 4794 2491 
Q 4719 1747 4719 1044 
Q 4719 672 4922 672 
Q 5084 672 5263 788 
Q 5613 1034 5850 1491 
L 6131 1025 
Q 5856 641 5600 447 
Q 5238 166 4866 166 
Q 4244 166 4244 1100 
Q 4244 1519 4350 2956 
Q 4369 3181 4369 3238 
Q 4369 3434 4297 3513 
Q 4231 3584 4081 3584 
Q 3438 3584 2228 2291 
Q 2222 1931 2222 1478 
Q 2222 753 2241 -159 
L 1747 -159 
Q 1747 1241 1753 1734 
Q 1544 1466 928 647 
L 531 991 
Q 1603 2291 1772 2478 
Q 1772 3038 1791 3469 
Q 1128 3284 653 3194 
L 538 3694 
z
" transform="scale(0.015625)"/>
      <path id="IPAexGothic-4ef6" d="M 3903 3425 
L 2906 3425 
Q 2697 2825 2309 2247 
L 1991 2572 
Q 2588 3497 2803 4788 
L 3256 4713 
Q 3175 4313 3041 3834 
L 3903 3834 
L 3903 5250 
L 4356 5250 
L 4356 3834 
L 5731 3834 
L 5731 3425 
L 4356 3425 
L 4356 2009 
L 6041 2009 
L 6041 1594 
L 4356 1594 
L 4356 -447 
L 3903 -447 
L 3903 1594 
L 2078 1594 
L 2078 2009 
L 3903 2009 
L 3903 3425 
z
M 1638 3681 
L 1638 -447 
L 1169 -447 
L 1169 2753 
Q 881 2272 575 1863 
L 313 2253 
Q 1238 3463 1650 5184 
L 2125 5069 
Q 1909 4316 1638 3681 
z
" transform="scale(0.015625)"/>
      <path id="IPAexGothic-6570" d="M 2847 1553 
Q 2741 1006 2425 534 
Q 2625 441 3091 203 
L 2809 -188 
Q 2541 0 2144 209 
Q 1569 -291 703 -500 
L 422 -125 
Q 1263 19 1747 406 
Q 1222 650 734 816 
Q 975 1172 1147 1503 
L 1172 1553 
L 359 1553 
L 359 1925 
L 1344 1925 
Q 1406 2066 1569 2475 
L 1691 2450 
L 1691 3372 
Q 1250 2738 550 2303 
L 275 2663 
Q 1019 3013 1528 3641 
L 378 3641 
L 378 4006 
L 1691 4006 
L 1691 5313 
L 2113 5313 
L 2113 4006 
L 3297 4006 
L 3297 3641 
L 2113 3641 
L 2113 3513 
Q 2659 3291 3175 2963 
L 2956 2584 
Q 2553 2922 2113 3159 
L 2113 2372 
L 1966 2372 
Q 1928 2288 1872 2141 
Q 1806 1975 1784 1925 
L 3378 1925 
L 3378 1553 
L 2847 1553 
z
M 2419 1553 
L 1613 1553 
Q 1478 1269 1313 997 
Q 1559 909 2047 703 
Q 2313 1047 2419 1553 
z
M 4363 1163 
Q 3953 1781 3738 2638 
Q 3575 2281 3428 2016 
L 3103 2406 
Q 3675 3444 3916 5291 
L 4363 5200 
Q 4284 4666 4197 4197 
L 6009 4197 
L 6009 3775 
L 5503 3775 
Q 5397 2275 4869 1191 
Q 5419 503 6144 75 
L 5822 -378 
Q 5188 106 4631 788 
Q 4113 34 3341 -463 
L 3031 -78 
Q 3888 406 4363 1163 
z
M 4588 1594 
Q 4938 2388 5059 3775 
L 4100 3775 
Q 4041 3519 3972 3288 
Q 3981 3250 3991 3194 
Q 4175 2256 4588 1594 
z
M 1003 4116 
Q 878 4544 638 4934 
L 1053 5094 
Q 1247 4788 1438 4269 
L 1003 4116 
z
M 2316 4269 
Q 2550 4688 2688 5131 
L 3128 4997 
Q 2966 4588 2675 4128 
L 2316 4269 
z
" transform="scale(0.015625)"/>
     </defs>
     <use xlink:href="#IPAexGothic-7e26"/>
     <use xlink:href="#IPAexGothic-8ef8" x="100"/>
     <use xlink:href="#IPAexGothic-ff1a" x="200"/>
     <use xlink:href="#IPAexGothic-305d" x="300"/>
     <use xlink:href="#IPAexGothic-306e" x="400"/>
     <use xlink:href="#IPAexGothic-7bc4" x="500"/>
     <use xlink:href="#IPAexGothic-56f2" x="600"/>
     <use xlink:href="#IPAexGothic-306b" x="700"/>
     <use xlink:href="#IPAexGothic-542b" x="800"/>
     <use xlink:href="#IPAexGothic-307e" x="900"/>
     <use xlink:href="#IPAexGothic-308c" x="1000"/>
     <use xlink:href="#IPAexGothic-308b" x="1100"/>
     <use xlink:href="#IPAexGothic-30c7" x="1200"/>
     <use xlink:href="#IPAexGothic-30fc" x="1300"/>
     <use xlink:href="#IPAexGothic-30bf" x="1400"/>
     <use xlink:href="#IPAexGothic-4ef6" x="1500"/>
     <use xlink:href="#IPAexGothic-6570" x="1600"/>
    </g>
   </g>
   <g id="text_6">
    <!-- ▸ -->
    <g style="fill: #5ba85a" transform="translate(33.12 121.075) scale(0.095 -0.095)">
     <use xlink:href="#IPAexGothic-25b8"/>
    </g>
   </g>
   <g id="text_7">
    <!-- 山が左に偏っている → 低い値が多い -->
    <g style="fill: #2c3e50" transform="translate(46.08 122.806875) scale(0.14 -0.14)">
     <defs>
      <path id="IPAexGothic-5c71" d="M 3425 619 
L 5131 619 
L 5131 4031 
L 5619 4031 
L 5619 -256 
L 5131 -256 
L 5131 178 
L 1263 178 
L 1263 -297 
L 775 -297 
L 775 4031 
L 1263 4031 
L 1263 619 
L 2925 619 
L 2925 5150 
L 3425 5150 
L 3425 619 
z
" transform="scale(0.015625)"/>
      <path id="IPAexGothic-304c" d="M 659 3384 
Q 1434 3503 2113 3581 
Q 2313 4341 2394 4972 
L 2900 4875 
Q 2759 4147 2619 3628 
L 2719 3634 
Q 2894 3641 3041 3641 
Q 4072 3641 4072 2369 
Q 4072 1128 3700 384 
Q 3478 -56 3003 -56 
Q 2591 -56 2113 231 
L 2138 775 
Q 2631 444 2925 444 
Q 3169 444 3297 706 
Q 3566 1294 3566 2388 
Q 3566 3219 3016 3219 
Q 2825 3219 2497 3194 
Q 2388 2763 2113 2047 
Q 1634 797 1119 -38 
L 678 244 
Q 1356 1238 1863 2750 
Q 1888 2819 1991 3128 
Q 1594 3081 769 2916 
L 659 3384 
z
M 5441 1838 
Q 4913 3038 4091 3916 
L 4475 4184 
Q 5350 3269 5888 2156 
L 5441 1838 
z
M 5913 4275 
Q 5553 4819 5159 5147 
L 5459 5375 
Q 5844 5066 6234 4550 
L 5913 4275 
z
M 5344 3788 
Q 5053 4278 4609 4678 
L 4922 4922 
Q 5294 4613 5678 4063 
L 5344 3788 
z
" transform="scale(0.015625)"/>
      <path id="IPAexGothic-5de6" d="M 2456 4147 
Q 2588 4697 2659 5247 
L 3128 5216 
Q 3031 4575 2922 4147 
L 5850 4147 
L 5850 3713 
L 2806 3713 
Q 2591 2981 2309 2438 
L 5406 2438 
L 5406 2022 
L 3897 2022 
L 3897 306 
L 5944 306 
L 5944 -122 
L 1444 -122 
L 1444 306 
L 3416 306 
L 3416 2022 
L 2072 2022 
Q 1419 956 638 356 
L 306 722 
Q 1759 1800 2334 3713 
L 544 3713 
L 544 4147 
L 2456 4147 
z
" transform="scale(0.015625)"/>
      <path id="IPAexGothic-504f" d="M 1503 3653 
L 1503 -447 
L 1063 -447 
L 1063 2700 
Q 816 2247 538 1863 
L 288 2253 
Q 1175 3556 1528 5325 
L 1963 5222 
Q 1800 4438 1503 3653 
z
M 5681 4116 
L 5681 2859 
L 2616 2859 
L 2616 2769 
Q 2616 2603 2609 2406 
L 5863 2406 
L 5863 13 
Q 5863 -213 5772 -300 
Q 5688 -384 5466 -384 
Q 5281 -384 5138 -359 
L 5081 72 
Q 5216 31 5338 31 
Q 5447 31 5447 191 
L 5447 916 
L 4856 916 
L 4856 -281 
L 4459 -281 
L 4459 916 
L 3922 916 
L 3922 -281 
L 3525 -281 
L 3525 916 
L 2988 916 
L 2988 -447 
L 2578 -447 
L 2578 1997 
L 2566 1997 
Q 2441 594 1881 -347 
L 1591 31 
Q 1981 672 2097 1466 
Q 2188 2072 2188 2950 
L 2188 4116 
L 5681 4116 
z
M 5253 3763 
L 2616 3763 
L 2616 3213 
L 5253 3213 
L 5253 3763 
z
M 2988 2053 
L 2988 1253 
L 3525 1253 
L 3525 2053 
L 2988 2053 
z
M 5447 1253 
L 5447 2053 
L 4856 2053 
L 4856 1253 
L 5447 1253 
z
M 3922 2053 
L 3922 1253 
L 4459 1253 
L 4459 2053 
L 3922 2053 
z
M 1997 4966 
L 5978 4966 
L 5978 4594 
L 1997 4594 
L 1997 4966 
z
" transform="scale(0.015625)"/>
      <path id="IPAexGothic-3063" d="M 1113 2656 
Q 2778 3103 3709 3103 
Q 4359 3103 4734 2778 
Q 5150 2409 5150 1803 
Q 5150 247 2456 25 
L 2231 494 
Q 3425 541 4028 878 
Q 4663 1231 4663 1806 
Q 4663 2681 3647 2681 
Q 2834 2681 1319 2203 
L 1113 2656 
z
" transform="scale(0.015625)"/>
      <path id="IPAexGothic-3066" d="M 581 4034 
Q 2978 4363 5466 4556 
L 5509 4097 
Q 4388 4031 3750 3572 
Q 2797 2878 2797 1913 
Q 2797 1169 3291 819 
Q 3778 484 4869 416 
L 4906 -116 
Q 2278 0 2278 1850 
Q 2278 3125 3691 4000 
Q 2066 3784 684 3553 
L 581 4034 
z
" transform="scale(0.015625)"/>
      <path id="IPAexGothic-3044" d="M 3369 1447 
Q 2906 122 2278 122 
Q 1966 122 1647 481 
Q 1209 966 1044 1966 
Q 891 2888 891 4313 
L 1422 4313 
Q 1413 2444 1666 1550 
Q 1913 678 2278 678 
Q 2619 678 2925 1791 
L 3369 1447 
z
M 5378 1294 
Q 4928 2797 4034 3809 
L 4488 4031 
Q 5375 3000 5881 1563 
L 5378 1294 
z
" transform="scale(0.015625)"/>
      <path id="IPAexGothic-2192" d="M 3947 3572 
L 4631 3572 
L 6072 2431 
L 4631 1294 
L 3947 1294 
L 5094 2194 
L 459 2194 
L 459 2669 
L 5094 2669 
L 3947 3572 
z
" transform="scale(0.015625)"/>
      <path id="IPAexGothic-4f4e" d="M 1575 3681 
L 1575 -447 
L 1122 -447 
L 1122 2853 
Q 763 2303 438 1913 
L 206 2316 
Q 1213 3534 1684 5228 
L 2119 5094 
Q 1872 4281 1575 3681 
z
M 2350 4684 
L 2516 4697 
Q 3934 4794 5113 5144 
L 5484 4741 
Q 4925 4600 4378 4503 
Q 4388 3869 4434 3166 
L 4434 3122 
L 5894 3122 
L 5894 2713 
L 4472 2713 
Q 4569 1709 4959 884 
Q 5256 263 5400 263 
Q 5516 263 5594 1131 
L 6028 813 
Q 5903 -372 5550 -372 
Q 5150 -372 4672 459 
Q 4150 1359 4025 2663 
L 2797 2663 
L 2797 997 
Q 3581 1247 4069 1453 
L 4134 1056 
Q 3156 619 2069 294 
L 1881 750 
Q 2241 838 2350 872 
L 2350 4684 
z
M 3916 4428 
Q 3316 4341 2797 4313 
L 2797 3066 
L 3988 3066 
Q 3934 3694 3916 4428 
z
M 2375 128 
L 4666 128 
L 4666 -288 
L 2375 -288 
L 2375 128 
z
" transform="scale(0.015625)"/>
      <path id="IPAexGothic-591a" d="M 3719 794 
Q 3313 1209 2834 1550 
Q 2309 1216 1638 984 
L 1350 1350 
Q 2997 1878 3969 3134 
L 4397 3022 
Q 4206 2759 4116 2656 
L 5563 2656 
L 5803 2425 
Q 4853 913 3700 281 
Q 2784 -209 1331 -447 
L 1025 0 
Q 2738 163 3719 794 
z
M 4097 1063 
L 4128 1088 
Q 4831 1650 5150 2259 
L 3744 2259 
Q 3447 1981 3181 1784 
Q 3625 1481 4097 1063 
z
M 2681 3072 
Q 2297 3456 1881 3763 
Q 1547 3528 1044 3269 
L 747 3622 
Q 2097 4191 2872 5313 
L 3309 5153 
Q 3116 4903 3028 4800 
L 4588 4800 
L 4813 4581 
Q 3981 3331 2791 2650 
Q 1925 2153 728 1856 
L 422 2259 
Q 1844 2541 2681 3072 
z
M 3059 3341 
Q 3747 3850 4141 4409 
L 2669 4409 
Q 2425 4178 2206 4000 
Q 2641 3709 3059 3341 
z
" transform="scale(0.015625)"/>
     </defs>
     <use xlink:href="#IPAexGothic-5c71"/>
     <use xlink:href="#IPAexGothic-304c" x="100"/>
     <use xlink:href="#IPAexGothic-5de6" x="200"/>
     <use xlink:href="#IPAexGothic-306b" x="300"/>
     <use xlink:href="#IPAexGothic-504f" x="400"/>
     <use xlink:href="#IPAexGothic-3063" x="500"/>
     <use xlink:href="#IPAexGothic-3066" x="600"/>
     <use xlink:href="#IPAexGothic-3044" x="700"/>
     <use xlink:href="#IPAexGothic-308b" x="800"/>
     <use xlink:href="#IPAexGothic-20" x="900"/>
     <use xlink:href="#IPAexGothic-2192" x="927.001953"/>
     <use xlink:href="#IPAexGothic-20" x="1027.001953"/>
     <use xlink:href="#IPAexGothic-4f4e" x="1054.003906"/>
     <use xlink:href="#IPAexGothic-3044" x="1154.003906"/>
     <use xlink:href="#IPAexGothic-5024" x="1254.003906"/>
     <use xlink:href="#IPAexGothic-304c" x="1354.003906"/>
     <use xlink:href="#IPAexGothic-591a" x="1454.003906"/>
     <use xlink:href="#IPAexGothic-3044" x="1554.003906"/>
    </g>
   </g>
   <g id="text_8">
    <!-- ▸ -->
    <g style="fill: #5ba85a" transform="translate(33.12 148.435) scale(0.095 -0.095)">
     <use xlink:href="#IPAexGothic-25b8"/>
    </g>
   </g>
   <g id="text_9">
    <!-- 2つの山がある → 2つのグループが混在？ -->
    <g style="fill: #2c3e50" transform="translate(46.08 150.166875) scale(0.14 -0.14)">
     <defs>
      <path id="IPAexGothic-3064" d="M 575 3541 
Q 2694 4116 3769 4116 
Q 4506 4116 4978 3750 
Q 5559 3303 5559 2497 
Q 5559 1481 4606 903 
Q 3750 388 2213 281 
L 1963 781 
Q 5022 916 5022 2497 
Q 5022 3053 4663 3375 
Q 4331 3669 3734 3669 
Q 2663 3669 800 3041 
L 575 3541 
z
" transform="scale(0.015625)"/>
      <path id="IPAexGothic-3042" d="M 966 4134 
Q 1228 4116 1550 4116 
Q 1934 4116 2284 4141 
Q 2297 4247 2319 4453 
Q 2369 4872 2381 5050 
L 2853 5019 
Q 2794 4547 2759 4178 
Q 3672 4275 4581 4525 
L 4634 4084 
Q 3750 3863 2713 3756 
Q 2675 3378 2663 2931 
Q 3088 3084 3669 3138 
Q 3738 3325 3763 3547 
L 4238 3438 
Q 4188 3219 4153 3128 
Q 4797 3041 5166 2741 
Q 5703 2297 5703 1581 
Q 5703 794 5056 300 
Q 4559 -84 3681 -213 
L 3406 213 
Q 4169 297 4622 594 
Q 5203 969 5203 1588 
Q 5203 2216 4672 2553 
Q 4413 2725 4025 2772 
Q 3550 1556 2747 800 
Q 2766 584 2847 275 
L 2388 103 
Q 2369 191 2316 525 
Q 1756 128 1300 128 
Q 666 128 666 794 
Q 666 1244 950 1691 
Q 1216 2100 1678 2425 
Q 1834 2541 2194 2731 
Q 2206 3159 2253 3719 
Q 1772 3681 1338 3681 
Q 1106 3681 1006 3688 
L 966 4134 
z
M 2188 2291 
Q 1966 2169 1703 1913 
Q 1431 1650 1272 1353 
Q 1144 1109 1134 922 
Q 1119 575 1384 575 
Q 1788 575 2247 997 
Q 2197 1497 2188 2291 
z
M 3553 2772 
Q 3038 2700 2638 2534 
Q 2638 1734 2663 1300 
Q 3231 1931 3553 2772 
z
" transform="scale(0.015625)"/>
      <path id="IPAexGothic-30eb" d="M 353 331 
Q 1313 994 1544 2022 
Q 1684 2650 1684 4397 
L 2203 4397 
L 2203 4153 
L 2203 4116 
Q 2203 2259 1934 1491 
Q 1619 588 744 -38 
L 353 331 
z
M 3125 4666 
L 3650 4666 
L 3650 769 
Q 4875 1488 5672 2734 
L 6000 2278 
Q 5075 966 3516 63 
L 3125 359 
L 3125 4666 
z
" transform="scale(0.015625)"/>
      <path id="IPAexGothic-30d7" d="M 4825 4275 
L 5125 4000 
Q 4884 2378 4081 1381 
Q 3294 413 1888 -116 
L 1522 331 
Q 4069 1113 4550 3803 
L 966 3738 
L 966 4225 
L 4825 4275 
z
M 5597 5509 
Q 5906 5509 6119 5275 
Q 6303 5075 6303 4806 
Q 6303 4494 6069 4281 
Q 5866 4097 5597 4097 
Q 5284 4097 5072 4331 
Q 4888 4534 4888 4806 
Q 4888 5116 5122 5328 
Q 5328 5509 5597 5509 
z
M 5597 5228 
Q 5409 5228 5278 5088 
Q 5169 4966 5169 4806 
Q 5169 4616 5309 4488 
Q 5434 4378 5597 4378 
Q 5784 4378 5913 4519 
Q 6022 4641 6022 4806 
Q 6022 4991 5881 5119 
Q 5759 5228 5597 5228 
z
" transform="scale(0.015625)"/>
      <path id="IPAexGothic-6df7" d="M 2272 206 
L 2272 2425 
L 2713 2425 
L 2713 1722 
L 3844 1722 
L 3844 1338 
L 2713 1338 
L 2713 300 
Q 3363 447 3825 581 
L 3844 197 
Q 2866 -144 1803 -353 
L 1638 84 
Q 2041 153 2272 206 
z
M 5441 4984 
L 5441 2663 
L 2209 2663 
L 2209 4984 
L 5441 4984 
z
M 2656 4606 
L 2656 4019 
L 4994 4019 
L 4994 4606 
L 2656 4606 
z
M 2656 3659 
L 2656 3041 
L 4994 3041 
L 4994 3659 
L 2656 3659 
z
M 4506 1600 
Q 5128 1806 5575 2106 
L 5906 1759 
Q 5325 1438 4506 1209 
L 4506 391 
Q 4506 219 4628 172 
Q 4734 134 5013 134 
Q 5463 134 5531 263 
Q 5609 431 5619 1038 
L 6069 884 
Q 6019 63 5900 -97 
Q 5756 -281 4994 -281 
Q 4444 -281 4288 -216 
Q 4072 -131 4072 191 
L 4072 2425 
L 4506 2425 
L 4506 1600 
z
M 1500 3866 
Q 1131 4303 591 4722 
L 897 5063 
Q 1359 4759 1813 4250 
L 1500 3866 
z
M 1403 2394 
Q 966 2906 463 3250 
L 769 3603 
Q 1334 3209 1728 2759 
L 1403 2394 
z
M 341 6 
Q 956 800 1441 1919 
L 1781 1563 
Q 1269 391 725 -391 
L 341 6 
z
" transform="scale(0.015625)"/>
      <path id="IPAexGothic-5728" d="M 2200 4372 
Q 2322 4719 2456 5269 
L 2938 5159 
Q 2781 4625 2694 4372 
L 5913 4372 
L 5913 3963 
L 2541 3963 
Q 2528 3938 2522 3919 
Q 2266 3272 1900 2709 
L 1900 -447 
L 1447 -447 
L 1447 2081 
Q 1028 1581 538 1184 
L 256 1538 
Q 972 2109 1447 2816 
L 1447 3253 
L 1663 3163 
Q 1859 3519 2047 3963 
L 575 3963 
L 575 4372 
L 2200 4372 
z
M 3803 2431 
L 3803 3609 
L 4244 3609 
L 4244 2431 
L 5619 2431 
L 5619 2034 
L 4244 2034 
L 4244 263 
L 5997 263 
L 5997 -153 
L 2216 -153 
L 2216 263 
L 3803 263 
L 3803 2034 
L 2491 2034 
L 2491 2431 
L 3803 2431 
z
" transform="scale(0.015625)"/>
      <path id="IPAexGothic-ff1f" d="M 1503 3444 
Q 1550 4184 1963 4616 
Q 2466 5128 3272 5128 
Q 3888 5128 4313 4853 
Q 4909 4469 4909 3778 
Q 4909 3059 4116 2563 
Q 3628 2250 3506 1881 
Q 3422 1650 3422 1228 
L 2853 1228 
Q 2863 1869 3053 2197 
Q 3281 2588 3847 2950 
Q 4341 3269 4341 3778 
Q 4341 4231 3975 4463 
Q 3697 4634 3266 4634 
Q 2656 4634 2341 4225 
Q 2109 3928 2091 3444 
L 1503 3444 
z
M 2763 647 
L 3506 647 
L 3506 -97 
L 2763 -97 
L 2763 647 
z
" transform="scale(0.015625)"/>
     </defs>
     <use xlink:href="#IPAexGothic-32"/>
     <use xlink:href="#IPAexGothic-3064" x="62.988281"/>
     <use xlink:href="#IPAexGothic-306e" x="162.988281"/>
     <use xlink:href="#IPAexGothic-5c71" x="262.988281"/>
     <use xlink:href="#IPAexGothic-304c" x="362.988281"/>
     <use xlink:href="#IPAexGothic-3042" x="462.988281"/>
     <use xlink:href="#IPAexGothic-308b" x="562.988281"/>
     <use xlink:href="#IPAexGothic-20" x="662.988281"/>
     <use xlink:href="#IPAexGothic-2192" x="689.990234"/>
     <use xlink:href="#IPAexGothic-20" x="789.990234"/>
     <use xlink:href="#IPAexGothic-32" x="816.992188"/>
     <use xlink:href="#IPAexGothic-3064" x="879.980469"/>
     <use xlink:href="#IPAexGothic-306e" x="979.980469"/>
     <use xlink:href="#IPAexGothic-30b0" x="1079.980469"/>
     <use xlink:href="#IPAexGothic-30eb" x="1179.980469"/>
     <use xlink:href="#IPAexGothic-30fc" x="1279.980469"/>
     <use xlink:href="#IPAexGothic-30d7" x="1379.980469"/>
     <use xlink:href="#IPAexGothic-304c" x="1479.980469"/>
     <use xlink:href="#IPAexGothic-6df7" x="1579.980469"/>
     <use xlink:href="#IPAexGothic-5728" x="1679.980469"/>
     <use xlink:href="#IPAexGothic-ff1f" x="1779.980469"/>
    </g>
   </g>
   <g id="text_10">
    <!-- ▸ -->
    <g style="fill: #5ba85a" transform="translate(33.12 175.795) scale(0.095 -0.095)">
     <use xlink:href="#IPAexGothic-25b8"/>
    </g>
   </g>
   <g id="text_11">
    <!-- 品種別に色分けすることで「品種ごとの違い」がわかる -->
    <g style="fill: #2c3e50" transform="translate(46.08 177.526875) scale(0.14 -0.14)">
     <defs>
      <path id="IPAexGothic-54c1" d="M 4781 4947 
L 4781 2872 
L 1613 2872 
L 1613 4947 
L 4781 4947 
z
M 2066 4556 
L 2066 3263 
L 4334 3263 
L 4334 4556 
L 2066 4556 
z
M 2841 2291 
L 2841 -325 
L 2400 -325 
L 2400 0 
L 1088 0 
L 1088 -384 
L 647 -384 
L 647 2291 
L 2841 2291 
z
M 1088 1900 
L 1088 397 
L 2400 397 
L 2400 1900 
L 1088 1900 
z
M 5747 2291 
L 5747 -384 
L 5306 -384 
L 5306 0 
L 3950 0 
L 3950 -384 
L 3509 -384 
L 3509 2291 
L 5747 2291 
z
M 3950 1900 
L 3950 397 
L 5306 397 
L 5306 1900 
L 3950 1900 
z
" transform="scale(0.015625)"/>
      <path id="IPAexGothic-7a2e" d="M 1269 2366 
Q 959 1388 456 659 
L 238 1100 
Q 878 2028 1203 3128 
L 328 3128 
L 328 3531 
L 1269 3531 
L 1269 4453 
Q 919 4388 525 4338 
L 347 4703 
Q 1372 4850 2144 5131 
L 2484 4766 
Q 2019 4622 1691 4544 
L 1691 3531 
L 2419 3531 
L 2419 3128 
L 1691 3128 
L 1691 2669 
Q 2081 2350 2478 1913 
L 2203 1509 
Q 1934 1897 1691 2169 
L 1691 -450 
L 1269 -450 
L 1269 2366 
z
M 3963 3297 
L 3963 3703 
L 2350 3703 
L 2350 4063 
L 3963 4063 
L 3963 4497 
L 3872 4491 
Q 3219 4431 2722 4409 
L 2541 4784 
Q 4100 4831 5350 5119 
L 5678 4741 
Q 5128 4634 4378 4544 
L 4378 4063 
L 6013 4063 
L 6013 3703 
L 4378 3703 
L 4378 3297 
L 5641 3297 
L 5641 1313 
L 4378 1313 
L 4378 872 
L 5750 872 
L 5750 525 
L 4378 525 
L 4378 78 
L 6069 78 
L 6069 -288 
L 2297 -288 
L 2297 78 
L 3963 78 
L 3963 525 
L 2613 525 
L 2613 872 
L 3963 872 
L 3963 1313 
L 2728 1313 
L 2728 3297 
L 3963 3297 
z
M 3975 2956 
L 3138 2956 
L 3138 2472 
L 3975 2472 
L 3975 2956 
z
M 4366 2956 
L 4366 2472 
L 5238 2472 
L 5238 2956 
L 4366 2956 
z
M 3975 2159 
L 3138 2159 
L 3138 1653 
L 3975 1653 
L 3975 2159 
z
M 4366 2159 
L 4366 1653 
L 5238 1653 
L 5238 2159 
L 4366 2159 
z
" transform="scale(0.015625)"/>
      <path id="IPAexGothic-5225" d="M 1922 2963 
Q 1906 2453 1894 2209 
L 3341 2209 
Q 3313 550 3175 63 
Q 3059 -366 2413 -366 
Q 2072 -366 1753 -313 
L 1691 134 
Q 2084 63 2413 63 
Q 2694 63 2759 319 
Q 2856 722 2888 1753 
Q 2888 1800 2894 1819 
L 1863 1819 
Q 1709 350 700 -481 
L 353 -147 
Q 1075 403 1306 1256 
Q 1450 1822 1478 2963 
L 700 2963 
L 700 4984 
L 3278 4984 
L 3278 2963 
L 1922 2963 
z
M 1141 4588 
L 1141 3353 
L 2838 3353 
L 2838 4588 
L 1141 4588 
z
M 3972 4597 
L 4425 4597 
L 4425 1159 
L 3972 1159 
L 3972 4597 
z
M 5309 5044 
L 5763 5044 
L 5763 191 
Q 5763 -141 5581 -263 
Q 5438 -359 5116 -359 
Q 4688 -359 4253 -313 
L 4156 178 
Q 4625 116 5072 116 
Q 5309 116 5309 353 
L 5309 5044 
z
" transform="scale(0.015625)"/>
      <path id="IPAexGothic-8272" d="M 1672 1691 
L 1672 572 
Q 1672 309 1863 244 
Q 2056 178 3309 178 
Q 4959 178 5244 250 
Q 5444 306 5491 544 
Q 5534 788 5544 1147 
L 6016 988 
Q 5950 56 5703 -97 
Q 5447 -256 3413 -256 
Q 1725 -256 1466 -128 
Q 1231 -6 1231 372 
L 1231 3144 
Q 953 2866 622 2600 
L 328 2953 
Q 1509 3825 2131 5275 
L 2581 5172 
Q 2528 5056 2388 4756 
L 4150 4756 
L 4425 4544 
Q 3997 3894 3694 3541 
L 5422 3541 
L 5422 1391 
L 4981 1391 
L 4981 1691 
L 1672 1691 
z
M 1672 2088 
L 3075 2088 
L 3075 3150 
L 1672 3150 
L 1672 2088 
z
M 3503 3150 
L 3503 2088 
L 4981 2088 
L 4981 3150 
L 3503 3150 
z
M 3209 3541 
Q 3553 3938 3809 4372 
L 2178 4372 
Q 1925 3950 1588 3541 
L 3209 3541 
z
" transform="scale(0.015625)"/>
      <path id="IPAexGothic-3051" d="M 2553 3481 
Q 2891 3463 3219 3463 
Q 3691 3463 4338 3506 
Q 4303 4434 4250 4897 
L 4763 4897 
Q 4769 4772 4825 3566 
Q 5319 3634 5709 3744 
L 5747 3291 
Q 5356 3159 4838 3109 
Q 4844 2875 4844 2606 
Q 4844 1434 4575 856 
Q 4250 138 3347 -313 
L 2938 56 
Q 3809 441 4094 1006 
Q 4363 1525 4363 2625 
Q 4363 2853 4359 3059 
Q 3722 3009 3175 3009 
Q 2791 3009 2591 3022 
L 2553 3481 
z
M 1925 2088 
L 2253 1881 
Q 1697 872 1678 166 
L 1259 72 
Q 941 1184 941 2272 
Q 941 3181 1344 4872 
L 1819 4750 
Q 1416 3166 1416 2163 
Q 1416 1722 1491 1222 
L 1925 2088 
z
" transform="scale(0.015625)"/>
      <path id="IPAexGothic-3059" d="M 3322 5075 
L 3816 5075 
L 3816 4063 
Q 4131 4075 5756 4116 
L 5756 3669 
Q 5431 3672 3816 3653 
L 3816 2463 
Q 3956 2125 3956 1741 
Q 3956 922 3519 397 
Q 3128 -72 2309 -409 
L 1941 -31 
Q 3263 453 3488 1363 
Q 3250 1031 2809 1031 
Q 2441 1031 2150 1313 
Q 1875 1588 1875 2050 
Q 1875 2475 2166 2769 
Q 2431 3041 2822 3041 
Q 3088 3041 3322 2881 
L 3322 3641 
Q 3000 3634 609 3547 
L 609 3988 
Q 1197 4000 2106 4022 
Q 3066 4047 3322 4050 
L 3322 5075 
z
M 3372 2044 
Q 3372 2300 3194 2478 
Q 3050 2613 2869 2613 
Q 2622 2613 2463 2406 
Q 2344 2250 2344 2088 
Q 2344 1797 2484 1622 
Q 2625 1453 2859 1453 
Q 3372 1453 3372 2044 
z
" transform="scale(0.015625)"/>
      <path id="IPAexGothic-3053" d="M 1647 4422 
Q 2400 4363 3003 4363 
Q 3803 4363 4653 4459 
L 4763 4031 
Q 4319 3906 3788 3588 
Q 3347 3322 2978 2994 
L 2619 3272 
Q 3150 3666 3609 3950 
Q 3097 3909 2619 3909 
Q 2091 3909 1666 3956 
L 1647 4422 
z
M 5244 191 
Q 4363 13 3303 13 
Q 2316 13 1716 344 
Q 1159 653 1159 1197 
Q 1159 1738 1659 2247 
L 2044 2003 
Q 1647 1644 1647 1263 
Q 1647 500 3291 500 
Q 4288 500 5191 722 
L 5244 191 
z
" transform="scale(0.015625)"/>
      <path id="IPAexGothic-3068" d="M 5222 56 
Q 4200 -72 3450 -72 
Q 2478 -72 1941 113 
Q 1184 372 1184 1038 
Q 1184 1584 1594 2009 
Q 1941 2369 2656 2725 
Q 2231 3734 1972 4878 
L 2491 4978 
Q 2706 3884 3078 2950 
Q 4250 3447 4756 3616 
L 4978 3150 
Q 3181 2575 2409 2078 
Q 1691 1613 1691 1113 
Q 1691 403 3322 403 
Q 4125 403 5134 563 
L 5222 56 
z
" transform="scale(0.015625)"/>
      <path id="IPAexGothic-3067" d="M 581 4034 
Q 2978 4363 5466 4556 
L 5509 4097 
Q 4388 4031 3750 3572 
Q 2797 2878 2797 1913 
Q 2797 1169 3291 819 
Q 3778 484 4869 416 
L 4906 -116 
Q 2278 0 2278 1850 
Q 2278 3125 3691 4000 
Q 2066 3784 684 3553 
L 581 4034 
z
M 5631 2522 
Q 5269 3063 4875 3391 
L 5175 3622 
Q 5559 3313 5950 2797 
L 5631 2522 
z
M 5034 2053 
Q 4747 2544 4300 2944 
L 4613 3184 
Q 4984 2878 5369 2328 
L 5034 2053 
z
" transform="scale(0.015625)"/>
      <path id="IPAexGothic-300c" d="M 4134 5300 
L 5875 5300 
L 5875 4853 
L 4581 4853 
L 4581 656 
L 4134 656 
L 4134 5300 
z
" transform="scale(0.015625)"/>
      <path id="IPAexGothic-3054" d="M 1525 4409 
Q 2284 4350 2881 4350 
Q 3778 4350 4481 4447 
L 4591 4019 
Q 3778 3791 2856 2981 
L 2497 3256 
Q 3028 3653 3488 3938 
Q 2969 3897 2497 3897 
Q 1975 3897 1544 3944 
L 1525 4409 
z
M 5122 178 
Q 4244 0 3181 0 
Q 2194 0 1594 331 
Q 1038 641 1038 1184 
Q 1038 1725 1538 2234 
L 1922 1991 
Q 1525 1631 1525 1247 
Q 1525 488 3169 488 
Q 4166 488 5069 709 
L 5122 178 
z
M 5959 4250 
Q 5597 4791 5203 5119 
L 5506 5350 
Q 5888 5041 6278 4525 
L 5959 4250 
z
M 5391 3763 
Q 5100 4253 4653 4653 
L 4966 4897 
Q 5338 4588 5722 4038 
L 5391 3763 
z
" transform="scale(0.015625)"/>
      <path id="IPAexGothic-9055" d="M 4494 2319 
L 4494 1947 
L 5728 1947 
L 5728 1606 
L 4494 1606 
L 4494 1184 
L 6009 1184 
L 6009 838 
L 4494 838 
L 4494 222 
L 4078 222 
L 4078 838 
L 1919 838 
L 1919 1184 
L 2719 1184 
L 2719 1606 
L 2206 1606 
L 2206 1947 
L 4078 1947 
L 4078 2319 
L 2534 2319 
L 2534 3359 
L 5331 3359 
L 5331 2319 
L 4494 2319 
z
M 4078 1184 
L 4078 1606 
L 3122 1606 
L 3122 1184 
L 4078 1184 
z
M 2938 3041 
L 2938 2638 
L 4928 2638 
L 4928 3041 
L 2938 3041 
z
M 1709 741 
Q 1938 444 2222 306 
Q 2653 94 3934 94 
Q 4900 94 6144 178 
Q 6025 -50 5978 -300 
Q 4969 -341 4359 -341 
Q 2788 -341 2222 -128 
Q 1781 34 1531 391 
Q 1125 -72 653 -453 
L 372 13 
Q 909 338 1275 666 
L 1275 2303 
L 378 2303 
L 378 2731 
L 1709 2731 
L 1709 741 
z
M 3113 4019 
Q 3141 4078 3259 4384 
L 2528 4384 
L 2528 4703 
L 3369 4703 
L 3388 4759 
Q 3478 5056 3534 5284 
L 3950 5222 
Q 3906 5025 3822 4781 
L 3803 4703 
L 5109 4703 
L 5109 4019 
L 5978 4019 
L 5978 3678 
L 1953 3678 
L 1953 4019 
L 3113 4019 
z
M 3688 4384 
L 3675 4341 
Q 3653 4278 3547 4019 
L 4706 4019 
L 4706 4384 
L 3688 4384 
z
M 1484 3775 
Q 1016 4344 525 4738 
L 838 5056 
Q 1413 4594 1825 4122 
L 1484 3775 
z
" transform="scale(0.015625)"/>
      <path id="IPAexGothic-300d" d="M 1819 4209 
L 2266 4209 
L 2266 -434 
L 525 -434 
L 525 13 
L 1819 13 
L 1819 4209 
z
" transform="scale(0.015625)"/>
      <path id="IPAexGothic-308f" d="M 609 3672 
Q 1272 3750 1894 3884 
L 1934 4978 
L 2406 4972 
L 2369 3934 
L 2753 3634 
Q 2416 3238 2356 3153 
Q 2350 3078 2350 2853 
Q 3322 3616 4219 3616 
Q 4878 3616 5331 3200 
Q 5819 2750 5819 2028 
Q 5819 419 3584 -53 
L 3266 391 
Q 5294 766 5294 2034 
Q 5294 2534 5000 2847 
Q 4691 3175 4175 3175 
Q 3341 3175 2344 2303 
Q 2344 678 2369 -150 
L 1881 -150 
Q 1863 1200 1869 1888 
Q 1766 1781 866 716 
L 513 1081 
Q 1450 2088 1869 2469 
Q 1869 2500 1878 2947 
Q 1881 3225 1888 3456 
Q 1406 3319 744 3178 
L 609 3672 
z
" transform="scale(0.015625)"/>
      <path id="IPAexGothic-304b" d="M 659 3384 
Q 1434 3503 2113 3581 
Q 2313 4341 2394 4972 
L 2900 4875 
Q 2759 4147 2619 3628 
L 2719 3634 
Q 2894 3641 3041 3641 
Q 4072 3641 4072 2369 
Q 4072 1128 3700 384 
Q 3478 -56 3003 -56 
Q 2591 -56 2113 231 
L 2138 775 
Q 2631 444 2925 444 
Q 3169 444 3297 706 
Q 3566 1294 3566 2388 
Q 3566 3219 3016 3219 
Q 2825 3219 2497 3194 
Q 2388 2763 2113 2047 
Q 1634 797 1119 -38 
L 678 244 
Q 1356 1238 1863 2750 
Q 1888 2819 1991 3128 
Q 1594 3081 769 2916 
L 659 3384 
z
M 5644 1753 
Q 5072 3025 4238 3916 
L 4641 4184 
Q 5494 3275 6081 2094 
L 5644 1753 
z
" transform="scale(0.015625)"/>
     </defs>
     <use xlink:href="#IPAexGothic-54c1"/>
     <use xlink:href="#IPAexGothic-7a2e" x="100"/>
     <use xlink:href="#IPAexGothic-5225" x="200"/>
     <use xlink:href="#IPAexGothic-306b" x="300"/>
     <use xlink:href="#IPAexGothic-8272" x="400"/>
     <use xlink:href="#IPAexGothic-5206" x="500"/>
     <use xlink:href="#IPAexGothic-3051" x="600"/>
     <use xlink:href="#IPAexGothic-3059" x="700"/>
     <use xlink:href="#IPAexGothic-308b" x="800"/>
     <use xlink:href="#IPAexGothic-3053" x="900"/>
     <use xlink:href="#IPAexGothic-3068" x="1000"/>
     <use xlink:href="#IPAexGothic-3067" x="1100"/>
     <use xlink:href="#IPAexGothic-300c" x="1200"/>
     <use xlink:href="#IPAexGothic-54c1" x="1300"/>
     <use xlink:href="#IPAexGothic-7a2e" x="1400"/>
     <use xlink:href="#IPAexGothic-3054" x="1500"/>
     <use xlink:href="#IPAexGothic-3068" x="1600"/>
     <use xlink:href="#IPAexGothic-306e" x="1700"/>
     <use xlink:href="#IPAexGothic-9055" x="1800"/>
     <use xlink:href="#IPAexGothic-3044" x="1900"/>
     <use xlink:href="#IPAexGothic-300d" x="2000"/>
     <use xlink:href="#IPAexGothic-304c" x="2100"/>
     <use xlink:href="#IPAexGothic-308f" x="2200"/>
     <use xlink:href="#IPAexGothic-304b" x="2300"/>
     <use xlink:href="#IPAexGothic-308b" x="2400"/>
    </g>
   </g>
   <g id="text_12">
    <!-- # 品種ごとのヒストグラム -->
    <g style="fill: #cdd6f4" transform="translate(40.32 240.208434) scale(0.105 -0.105)">
     <defs>
      <path id="DejaVuSansMono-23" d="M 2138 4594 
L 1813 3297 
L 2578 3297 
L 2906 4594 
L 3406 4594 
L 3078 3297 
L 3841 3297 
L 3841 2816 
L 2963 2816 
L 2700 1772 
L 3481 1772 
L 3481 1294 
L 2578 1294 
L 2253 0 
L 1753 0 
L 2081 1294 
L 1313 1294 
L 984 0 
L 488 0 
L 813 1294 
L 6 1294 
L 6 1772 
L 934 1772 
L 1197 2816 
L 366 2816 
L 366 3297 
L 1313 3297 
L 1638 4594 
L 2138 4594 
z
M 2463 2816 
L 1697 2816 
L 1434 1772 
L 2203 1772 
L 2463 2816 
z
" transform="scale(0.015625)"/>
      <path id="DejaVuSansMono-20" transform="scale(0.015625)"/>
      <path id="DejaVuSansMono-54c1" d="M 325 -1131 
L 325 4513 
L 3525 4513 
L 3525 -1131 
L 325 -1131 
z
M 684 -775 
L 3169 -775 
L 3169 4153 
L 684 4153 
L 684 -775 
z
" transform="scale(0.015625)"/>
      <path id="DejaVuSansMono-7a2e" d="M 325 -1131 
L 325 4513 
L 3525 4513 
L 3525 -1131 
L 325 -1131 
z
M 684 -775 
L 3169 -775 
L 3169 4153 
L 684 4153 
L 684 -775 
z
" transform="scale(0.015625)"/>
      <path id="DejaVuSansMono-3054" d="M 325 -1131 
L 325 4513 
L 3525 4513 
L 3525 -1131 
L 325 -1131 
z
M 684 -775 
L 3169 -775 
L 3169 4153 
L 684 4153 
L 684 -775 
z
" transform="scale(0.015625)"/>
      <path id="DejaVuSansMono-3068" d="M 325 -1131 
L 325 4513 
L 3525 4513 
L 3525 -1131 
L 325 -1131 
z
M 684 -775 
L 3169 -775 
L 3169 4153 
L 684 4153 
L 684 -775 
z
" transform="scale(0.015625)"/>
      <path id="DejaVuSansMono-306e" d="M 325 -1131 
L 325 4513 
L 3525 4513 
L 3525 -1131 
L 325 -1131 
z
M 684 -775 
L 3169 -775 
L 3169 4153 
L 684 4153 
L 684 -775 
z
" transform="scale(0.015625)"/>
      <path id="DejaVuSansMono-30d2" d="M 325 -1131 
L 325 4513 
L 3525 4513 
L 3525 -1131 
L 325 -1131 
z
M 684 -775 
L 3169 -775 
L 3169 4153 
L 684 4153 
L 684 -775 
z
" transform="scale(0.015625)"/>
      <path id="DejaVuSansMono-30b9" d="M 325 -1131 
L 325 4513 
L 3525 4513 
L 3525 -1131 
L 325 -1131 
z
M 684 -775 
L 3169 -775 
L 3169 4153 
L 684 4153 
L 684 -775 
z
" transform="scale(0.015625)"/>
      <path id="DejaVuSansMono-30c8" d="M 325 -1131 
L 325 4513 
L 3525 4513 
L 3525 -1131 
L 325 -1131 
z
M 684 -775 
L 3169 -775 
L 3169 4153 
L 684 4153 
L 684 -775 
z
" transform="scale(0.015625)"/>
      <path id="DejaVuSansMono-30b0" d="M 325 -1131 
L 325 4513 
L 3525 4513 
L 3525 -1131 
L 325 -1131 
z
M 684 -775 
L 3169 -775 
L 3169 4153 
L 684 4153 
L 684 -775 
z
" transform="scale(0.015625)"/>
      <path id="DejaVuSansMono-30e9" d="M 325 -1131 
L 325 4513 
L 3525 4513 
L 3525 -1131 
L 325 -1131 
z
M 684 -775 
L 3169 -775 
L 3169 4153 
L 684 4153 
L 684 -775 
z
" transform="scale(0.015625)"/>
      <path id="DejaVuSansMono-30e0" d="M 325 -1131 
L 325 4513 
L 3525 4513 
L 3525 -1131 
L 325 -1131 
z
M 684 -775 
L 3169 -775 
L 3169 4153 
L 684 4153 
L 684 -775 
z
" transform="scale(0.015625)"/>
     </defs>
     <use xlink:href="#DejaVuSansMono-23"/>
     <use xlink:href="#DejaVuSansMono-20" x="60.205078"/>
     <use xlink:href="#DejaVuSansMono-54c1" x="120.410156"/>
     <use xlink:href="#DejaVuSansMono-7a2e" x="180.615234"/>
     <use xlink:href="#DejaVuSansMono-3054" x="240.820312"/>
     <use xlink:href="#DejaVuSansMono-3068" x="301.025391"/>
     <use xlink:href="#DejaVuSansMono-306e" x="361.230469"/>
     <use xlink:href="#DejaVuSansMono-30d2" x="421.435547"/>
     <use xlink:href="#DejaVuSansMono-30b9" x="481.640625"/>
     <use xlink:href="#DejaVuSansMono-30c8" x="541.845703"/>
     <use xlink:href="#DejaVuSansMono-30b0" x="602.050781"/>
     <use xlink:href="#DejaVuSansMono-30e9" x="662.255859"/>
     <use xlink:href="#DejaVuSansMono-30e0" x="722.460938"/>
    </g>
   </g>
   <g id="text_13">
    <!-- for name, group in df.groupby("品種"): -->
    <g style="fill: #cdd6f4" transform="translate(40.32 252.24045) scale(0.105 -0.105)">
     <defs>
      <path id="DejaVuSansMono-66" d="M 3322 4863 
L 3322 4384 
L 2669 4384 
Q 2359 4384 2239 4257 
Q 2119 4131 2119 3809 
L 2119 3500 
L 3322 3500 
L 3322 3053 
L 2119 3053 
L 2119 0 
L 1544 0 
L 1544 3053 
L 609 3053 
L 609 3500 
L 1544 3500 
L 1544 3744 
Q 1544 4319 1808 4591 
Q 2072 4863 2631 4863 
L 3322 4863 
z
" transform="scale(0.015625)"/>
      <path id="DejaVuSansMono-6f" d="M 1925 3097 
Q 1488 3097 1263 2756 
Q 1038 2416 1038 1747 
Q 1038 1081 1263 739 
Q 1488 397 1925 397 
Q 2366 397 2591 739 
Q 2816 1081 2816 1747 
Q 2816 2416 2591 2756 
Q 2366 3097 1925 3097 
z
M 1925 3584 
Q 2653 3584 3039 3112 
Q 3425 2641 3425 1747 
Q 3425 850 3040 379 
Q 2656 -91 1925 -91 
Q 1197 -91 812 379 
Q 428 850 428 1747 
Q 428 2641 812 3112 
Q 1197 3584 1925 3584 
z
" transform="scale(0.015625)"/>
      <path id="DejaVuSansMono-72" d="M 3609 2778 
Q 3425 2922 3234 2987 
Q 3044 3053 2816 3053 
Q 2278 3053 1993 2715 
Q 1709 2378 1709 1741 
L 1709 0 
L 1131 0 
L 1131 3500 
L 1709 3500 
L 1709 2816 
Q 1853 3188 2151 3386 
Q 2450 3584 2859 3584 
Q 3072 3584 3256 3531 
Q 3441 3478 3609 3366 
L 3609 2778 
z
" transform="scale(0.015625)"/>
      <path id="DejaVuSansMono-6e" d="M 3284 2169 
L 3284 0 
L 2706 0 
L 2706 2169 
Q 2706 2641 2540 2862 
Q 2375 3084 2022 3084 
Q 1619 3084 1401 2798 
Q 1184 2513 1184 1978 
L 1184 0 
L 609 0 
L 609 3500 
L 1184 3500 
L 1184 2975 
Q 1338 3275 1600 3429 
Q 1863 3584 2222 3584 
Q 2756 3584 3020 3232 
Q 3284 2881 3284 2169 
z
" transform="scale(0.015625)"/>
      <path id="DejaVuSansMono-61" d="M 2194 1759 
L 2003 1759 
Q 1500 1759 1245 1582 
Q 991 1406 991 1056 
Q 991 741 1181 566 
Q 1372 391 1709 391 
Q 2184 391 2456 720 
Q 2728 1050 2731 1631 
L 2731 1759 
L 2194 1759 
z
M 3309 1997 
L 3309 0 
L 2731 0 
L 2731 519 
Q 2547 206 2267 57 
Q 1988 -91 1588 -91 
Q 1053 -91 734 211 
Q 416 513 416 1019 
Q 416 1603 808 1906 
Q 1200 2209 1959 2209 
L 2731 2209 
L 2731 2300 
Q 2728 2719 2518 2908 
Q 2309 3097 1850 3097 
Q 1556 3097 1256 3012 
Q 956 2928 672 2766 
L 672 3341 
Q 991 3463 1283 3523 
Q 1575 3584 1850 3584 
Q 2284 3584 2592 3456 
Q 2900 3328 3091 3072 
Q 3209 2916 3259 2686 
Q 3309 2456 3309 1997 
z
" transform="scale(0.015625)"/>
      <path id="DejaVuSansMono-6d" d="M 2113 3144 
Q 2219 3369 2383 3476 
Q 2547 3584 2778 3584 
Q 3200 3584 3373 3257 
Q 3547 2931 3547 2028 
L 3547 0 
L 3022 0 
L 3022 2003 
Q 3022 2744 2939 2923 
Q 2856 3103 2638 3103 
Q 2388 3103 2295 2911 
Q 2203 2719 2203 2003 
L 2203 0 
L 1678 0 
L 1678 2003 
Q 1678 2753 1589 2928 
Q 1500 3103 1269 3103 
Q 1041 3103 952 2911 
Q 863 2719 863 2003 
L 863 0 
L 341 0 
L 341 3500 
L 863 3500 
L 863 3200 
Q 966 3388 1120 3486 
Q 1275 3584 1472 3584 
Q 1709 3584 1867 3475 
Q 2025 3366 2113 3144 
z
" transform="scale(0.015625)"/>
      <path id="DejaVuSansMono-65" d="M 3475 1894 
L 3475 1613 
L 984 1613 
L 984 1594 
Q 984 1022 1282 709 
Q 1581 397 2125 397 
Q 2400 397 2700 484 
Q 3000 572 3341 750 
L 3341 178 
Q 3013 44 2708 -23 
Q 2403 -91 2119 -91 
Q 1303 -91 843 398 
Q 384 888 384 1747 
Q 384 2584 834 3084 
Q 1284 3584 2034 3584 
Q 2703 3584 3089 3131 
Q 3475 2678 3475 1894 
z
M 2900 2063 
Q 2888 2569 2661 2833 
Q 2434 3097 2009 3097 
Q 1594 3097 1325 2822 
Q 1056 2547 1006 2059 
L 2900 2063 
z
" transform="scale(0.015625)"/>
      <path id="DejaVuSansMono-2c" d="M 1569 947 
L 2356 947 
L 2356 300 
L 1741 -897 
L 1259 -897 
L 1569 300 
L 1569 947 
z
" transform="scale(0.015625)"/>
      <path id="DejaVuSansMono-67" d="M 2681 1778 
Q 2681 2425 2470 2761 
Q 2259 3097 1856 3097 
Q 1434 3097 1212 2761 
Q 991 2425 991 1778 
Q 991 1131 1214 792 
Q 1438 453 1863 453 
Q 2259 453 2470 793 
Q 2681 1134 2681 1778 
z
M 3256 225 
Q 3256 -563 2884 -969 
Q 2513 -1375 1791 -1375 
Q 1553 -1375 1293 -1331 
Q 1034 -1288 775 -1203 
L 775 -634 
Q 1081 -778 1331 -847 
Q 1581 -916 1791 -916 
Q 2256 -916 2468 -662 
Q 2681 -409 2681 141 
L 2681 166 
L 2681 556 
Q 2544 263 2306 119 
Q 2069 -25 1728 -25 
Q 1116 -25 750 465 
Q 384 956 384 1778 
Q 384 2603 750 3093 
Q 1116 3584 1728 3584 
Q 2066 3584 2300 3450 
Q 2534 3316 2681 3034 
L 2681 3488 
L 3256 3488 
L 3256 225 
z
" transform="scale(0.015625)"/>
      <path id="DejaVuSansMono-75" d="M 609 1325 
L 609 3494 
L 1184 3494 
L 1184 1325 
Q 1184 853 1351 631 
Q 1519 409 1869 409 
Q 2275 409 2490 695 
Q 2706 981 2706 1516 
L 2706 3494 
L 3284 3494 
L 3284 0 
L 2706 0 
L 2706 525 
Q 2553 222 2289 65 
Q 2025 -91 1672 -91 
Q 1134 -91 871 261 
Q 609 613 609 1325 
z
" transform="scale(0.015625)"/>
      <path id="DejaVuSansMono-70" d="M 1172 441 
L 1172 -1331 
L 594 -1331 
L 594 3500 
L 1172 3500 
L 1172 3053 
Q 1316 3313 1555 3448 
Q 1794 3584 2106 3584 
Q 2741 3584 3102 3093 
Q 3463 2603 3463 1734 
Q 3463 881 3100 395 
Q 2738 -91 2106 -91 
Q 1788 -91 1548 45 
Q 1309 181 1172 441 
z
M 2859 1747 
Q 2859 2416 2648 2756 
Q 2438 3097 2022 3097 
Q 1603 3097 1387 2755 
Q 1172 2413 1172 1747 
Q 1172 1084 1387 740 
Q 1603 397 2022 397 
Q 2438 397 2648 737 
Q 2859 1078 2859 1747 
z
" transform="scale(0.015625)"/>
      <path id="DejaVuSansMono-69" d="M 800 3500 
L 2272 3500 
L 2272 447 
L 3413 447 
L 3413 0 
L 556 0 
L 556 447 
L 1697 447 
L 1697 3053 
L 800 3053 
L 800 3500 
z
M 1697 4863 
L 2272 4863 
L 2272 4134 
L 1697 4134 
L 1697 4863 
z
" transform="scale(0.015625)"/>
      <path id="DejaVuSansMono-64" d="M 2681 3053 
L 2681 4863 
L 3256 4863 
L 3256 0 
L 2681 0 
L 2681 441 
Q 2538 181 2298 45 
Q 2059 -91 1747 -91 
Q 1113 -91 748 401 
Q 384 894 384 1759 
Q 384 2613 750 3098 
Q 1116 3584 1747 3584 
Q 2063 3584 2303 3448 
Q 2544 3313 2681 3053 
z
M 991 1747 
Q 991 1078 1203 737 
Q 1416 397 1831 397 
Q 2247 397 2464 740 
Q 2681 1084 2681 1747 
Q 2681 2413 2464 2755 
Q 2247 3097 1831 3097 
Q 1416 3097 1203 2756 
Q 991 2416 991 1747 
z
" transform="scale(0.015625)"/>
      <path id="DejaVuSansMono-2e" d="M 1528 953 
L 2316 953 
L 2316 0 
L 1528 0 
L 1528 953 
z
" transform="scale(0.015625)"/>
      <path id="DejaVuSansMono-62" d="M 2869 1747 
Q 2869 2416 2656 2756 
Q 2444 3097 2028 3097 
Q 1609 3097 1393 2755 
Q 1178 2413 1178 1747 
Q 1178 1084 1393 740 
Q 1609 397 2028 397 
Q 2444 397 2656 737 
Q 2869 1078 2869 1747 
z
M 1178 3053 
Q 1316 3309 1558 3446 
Q 1800 3584 2119 3584 
Q 2750 3584 3112 3098 
Q 3475 2613 3475 1759 
Q 3475 894 3111 401 
Q 2747 -91 2113 -91 
Q 1800 -91 1561 45 
Q 1322 181 1178 441 
L 1178 0 
L 603 0 
L 603 4863 
L 1178 4863 
L 1178 3053 
z
" transform="scale(0.015625)"/>
      <path id="DejaVuSansMono-79" d="M 2681 1125 
Q 2538 759 2316 163 
Q 2006 -663 1900 -844 
Q 1756 -1088 1540 -1209 
Q 1325 -1331 1038 -1331 
L 575 -1331 
L 575 -850 
L 916 -850 
Q 1169 -850 1312 -703 
Q 1456 -556 1678 56 
L 325 3500 
L 934 3500 
L 1972 763 
L 2994 3500 
L 3603 3500 
L 2681 1125 
z
" transform="scale(0.015625)"/>
      <path id="DejaVuSansMono-28" d="M 2766 4856 
Q 2350 4144 2145 3436 
Q 1941 2728 1941 2009 
Q 1941 1294 2145 584 
Q 2350 -125 2766 -844 
L 2266 -844 
Q 1794 -100 1562 604 
Q 1331 1309 1331 2009 
Q 1331 2706 1562 3412 
Q 1794 4119 2266 4856 
L 2766 4856 
z
" transform="scale(0.015625)"/>
      <path id="DejaVuSansMono-22" d="M 2797 4666 
L 2797 2931 
L 2253 2931 
L 2253 4666 
L 2797 4666 
z
M 1600 4666 
L 1600 2931 
L 1056 2931 
L 1056 4666 
L 1600 4666 
z
" transform="scale(0.015625)"/>
      <path id="DejaVuSansMono-29" d="M 1088 4856 
L 1588 4856 
Q 2059 4119 2290 3412 
Q 2522 2706 2522 2009 
Q 2522 1306 2290 600 
Q 2059 -106 1588 -844 
L 1088 -844 
Q 1503 -119 1708 590 
Q 1913 1300 1913 2009 
Q 1913 2722 1708 3431 
Q 1503 4141 1088 4856 
z
" transform="scale(0.015625)"/>
      <path id="DejaVuSansMono-3a" d="M 1528 3322 
L 2316 3322 
L 2316 2375 
L 1528 2375 
L 1528 3322 
z
M 1528 953 
L 2316 953 
L 2316 0 
L 1528 0 
L 1528 953 
z
" transform="scale(0.015625)"/>
     </defs>
     <use xlink:href="#DejaVuSansMono-66"/>
     <use xlink:href="#DejaVuSansMono-6f" x="60.205078"/>
     <use xlink:href="#DejaVuSansMono-72" x="120.410156"/>
     <use xlink:href="#DejaVuSansMono-20" x="180.615234"/>
     <use xlink:href="#DejaVuSansMono-6e" x="240.820312"/>
     <use xlink:href="#DejaVuSansMono-61" x="301.025391"/>
     <use xlink:href="#DejaVuSansMono-6d" x="361.230469"/>
     <use xlink:href="#DejaVuSansMono-65" x="421.435547"/>
     <use xlink:href="#DejaVuSansMono-2c" x="481.640625"/>
     <use xlink:href="#DejaVuSansMono-20" x="541.845703"/>
     <use xlink:href="#DejaVuSansMono-67" x="602.050781"/>
     <use xlink:href="#DejaVuSansMono-72" x="662.255859"/>
     <use xlink:href="#DejaVuSansMono-6f" x="722.460938"/>
     <use xlink:href="#DejaVuSansMono-75" x="782.666016"/>
     <use xlink:href="#DejaVuSansMono-70" x="842.871094"/>
     <use xlink:href="#DejaVuSansMono-20" x="903.076172"/>
     <use xlink:href="#DejaVuSansMono-69" x="963.28125"/>
     <use xlink:href="#DejaVuSansMono-6e" x="1023.486328"/>
     <use xlink:href="#DejaVuSansMono-20" x="1083.691406"/>
     <use xlink:href="#DejaVuSansMono-64" x="1143.896484"/>
     <use xlink:href="#DejaVuSansMono-66" x="1204.101562"/>
     <use xlink:href="#DejaVuSansMono-2e" x="1264.306641"/>
     <use xlink:href="#DejaVuSansMono-67" x="1324.511719"/>
     <use xlink:href="#DejaVuSansMono-72" x="1384.716797"/>
     <use xlink:href="#DejaVuSansMono-6f" x="1444.921875"/>
     <use xlink:href="#DejaVuSansMono-75" x="1505.126953"/>
     <use xlink:href="#DejaVuSansMono-70" x="1565.332031"/>
     <use xlink:href="#DejaVuSansMono-62" x="1625.537109"/>
     <use xlink:href="#DejaVuSansMono-79" x="1685.742188"/>
     <use xlink:href="#DejaVuSansMono-28" x="1745.947266"/>
     <use xlink:href="#DejaVuSansMono-22" x="1806.152344"/>
     <use xlink:href="#DejaVuSansMono-54c1" x="1866.357422"/>
     <use xlink:href="#DejaVuSansMono-7a2e" x="1926.5625"/>
     <use xlink:href="#DejaVuSansMono-22" x="1986.767578"/>
     <use xlink:href="#DejaVuSansMono-29" x="2046.972656"/>
     <use xlink:href="#DejaVuSansMono-3a" x="2107.177734"/>
    </g>
   </g>
   <g id="text_14">
    <!--     plt.hist(group["alcohol"], bins=15, alpha=0.6, label=name) -->
    <g style="fill: #cdd6f4" transform="translate(40.32 264.364341) scale(0.105 -0.105)">
     <defs>
      <path id="DejaVuSansMono-6c" d="M 1997 1269 
Q 1997 881 2139 684 
Q 2281 488 2559 488 
L 3231 488 
L 3231 0 
L 2503 0 
Q 1988 0 1705 331 
Q 1422 663 1422 1269 
L 1422 4447 
L 500 4447 
L 500 4897 
L 1997 4897 
L 1997 1269 
z
" transform="scale(0.015625)"/>
      <path id="DejaVuSansMono-74" d="M 1919 4494 
L 1919 3500 
L 3225 3500 
L 3225 3053 
L 1919 3053 
L 1919 1153 
Q 1919 766 2066 612 
Q 2213 459 2578 459 
L 3225 459 
L 3225 0 
L 2522 0 
Q 1875 0 1609 259 
Q 1344 519 1344 1153 
L 1344 3053 
L 409 3053 
L 409 3500 
L 1344 3500 
L 1344 4494 
L 1919 4494 
z
" transform="scale(0.015625)"/>
      <path id="DejaVuSansMono-68" d="M 3284 2169 
L 3284 0 
L 2706 0 
L 2706 2169 
Q 2706 2641 2540 2862 
Q 2375 3084 2022 3084 
Q 1619 3084 1401 2798 
Q 1184 2513 1184 1978 
L 1184 0 
L 609 0 
L 609 4863 
L 1184 4863 
L 1184 2975 
Q 1338 3275 1600 3429 
Q 1863 3584 2222 3584 
Q 2756 3584 3020 3232 
Q 3284 2881 3284 2169 
z
" transform="scale(0.015625)"/>
      <path id="DejaVuSansMono-73" d="M 3041 3378 
L 3041 2816 
Q 2794 2959 2544 3031 
Q 2294 3103 2034 3103 
Q 1644 3103 1451 2976 
Q 1259 2850 1259 2591 
Q 1259 2356 1403 2240 
Q 1547 2125 2119 2016 
L 2350 1972 
Q 2778 1891 2998 1647 
Q 3219 1403 3219 1013 
Q 3219 494 2850 201 
Q 2481 -91 1825 -91 
Q 1566 -91 1281 -36 
Q 997 19 666 128 
L 666 722 
Q 988 556 1281 473 
Q 1575 391 1838 391 
Q 2219 391 2428 545 
Q 2638 700 2638 978 
Q 2638 1378 1872 1531 
L 1847 1538 
L 1631 1581 
Q 1134 1678 906 1908 
Q 678 2138 678 2534 
Q 678 3038 1018 3311 
Q 1359 3584 1991 3584 
Q 2272 3584 2531 3532 
Q 2791 3481 3041 3378 
z
" transform="scale(0.015625)"/>
      <path id="DejaVuSansMono-5b" d="M 1447 4863 
L 2772 4863 
L 2772 4416 
L 2022 4416 
L 2022 -397 
L 2772 -397 
L 2772 -844 
L 1447 -844 
L 1447 4863 
z
" transform="scale(0.015625)"/>
      <path id="DejaVuSansMono-63" d="M 3316 178 
Q 3084 44 2839 -23 
Q 2594 -91 2338 -91 
Q 1525 -91 1067 396 
Q 609 884 609 1747 
Q 609 2609 1067 3096 
Q 1525 3584 2338 3584 
Q 2591 3584 2831 3518 
Q 3072 3453 3316 3316 
L 3316 2713 
Q 3088 2916 2858 3006 
Q 2628 3097 2338 3097 
Q 1797 3097 1506 2747 
Q 1216 2397 1216 1747 
Q 1216 1100 1508 748 
Q 1800 397 2338 397 
Q 2638 397 2875 489 
Q 3113 581 3316 775 
L 3316 178 
z
" transform="scale(0.015625)"/>
      <path id="DejaVuSansMono-5d" d="M 2406 4863 
L 2406 -844 
L 1081 -844 
L 1081 -397 
L 1831 -397 
L 1831 4416 
L 1081 4416 
L 1081 4863 
L 2406 4863 
z
" transform="scale(0.015625)"/>
      <path id="DejaVuSansMono-3d" d="M 275 1638 
L 3578 1638 
L 3578 1100 
L 275 1100 
L 275 1638 
z
M 275 2906 
L 3578 2906 
L 3578 2375 
L 275 2375 
L 275 2906 
z
" transform="scale(0.015625)"/>
      <path id="DejaVuSansMono-31" d="M 844 531 
L 1825 531 
L 1825 4097 
L 769 3859 
L 769 4434 
L 1819 4666 
L 2450 4666 
L 2450 531 
L 3419 531 
L 3419 0 
L 844 0 
L 844 531 
z
" transform="scale(0.015625)"/>
      <path id="DejaVuSansMono-35" d="M 647 4666 
L 3009 4666 
L 3009 4134 
L 1222 4134 
L 1222 2988 
Q 1356 3038 1492 3061 
Q 1628 3084 1766 3084 
Q 2491 3084 2916 2656 
Q 3341 2228 3341 1497 
Q 3341 759 2895 334 
Q 2450 -91 1678 -91 
Q 1306 -91 998 -41 
Q 691 9 447 109 
L 447 750 
Q 734 594 1025 517 
Q 1316 441 1619 441 
Q 2141 441 2423 716 
Q 2706 991 2706 1497 
Q 2706 1997 2414 2275 
Q 2122 2553 1600 2553 
Q 1347 2553 1106 2495 
Q 866 2438 647 2322 
L 647 4666 
z
" transform="scale(0.015625)"/>
      <path id="DejaVuSansMono-30" d="M 1509 2344 
Q 1509 2516 1629 2641 
Q 1750 2766 1919 2766 
Q 2094 2766 2219 2641 
Q 2344 2516 2344 2344 
Q 2344 2169 2220 2047 
Q 2097 1925 1919 1925 
Q 1744 1925 1626 2044 
Q 1509 2163 1509 2344 
z
M 1925 4250 
Q 1484 4250 1267 3775 
Q 1050 3300 1050 2328 
Q 1050 1359 1267 884 
Q 1484 409 1925 409 
Q 2369 409 2586 884 
Q 2803 1359 2803 2328 
Q 2803 3300 2586 3775 
Q 2369 4250 1925 4250 
z
M 1925 4750 
Q 2672 4750 3055 4137 
Q 3438 3525 3438 2328 
Q 3438 1134 3055 521 
Q 2672 -91 1925 -91 
Q 1178 -91 797 521 
Q 416 1134 416 2328 
Q 416 3525 797 4137 
Q 1178 4750 1925 4750 
z
" transform="scale(0.015625)"/>
      <path id="DejaVuSansMono-36" d="M 3097 4563 
L 3097 3981 
Q 2900 4097 2678 4158 
Q 2456 4219 2216 4219 
Q 1616 4219 1306 3767 
Q 997 3316 997 2438 
Q 1147 2750 1412 2917 
Q 1678 3084 2022 3084 
Q 2697 3084 3067 2670 
Q 3438 2256 3438 1497 
Q 3438 741 3056 325 
Q 2675 -91 1984 -91 
Q 1172 -91 794 492 
Q 416 1075 416 2328 
Q 416 3509 870 4129 
Q 1325 4750 2188 4750 
Q 2419 4750 2650 4701 
Q 2881 4653 3097 4563 
z
M 1972 2591 
Q 1569 2591 1337 2300 
Q 1106 2009 1106 1497 
Q 1106 984 1337 693 
Q 1569 403 1972 403 
Q 2391 403 2603 679 
Q 2816 956 2816 1497 
Q 2816 2041 2603 2316 
Q 2391 2591 1972 2591 
z
" transform="scale(0.015625)"/>
     </defs>
     <use xlink:href="#DejaVuSansMono-20"/>
     <use xlink:href="#DejaVuSansMono-20" x="60.205078"/>
     <use xlink:href="#DejaVuSansMono-20" x="120.410156"/>
     <use xlink:href="#DejaVuSansMono-20" x="180.615234"/>
     <use xlink:href="#DejaVuSansMono-70" x="240.820312"/>
     <use xlink:href="#DejaVuSansMono-6c" x="301.025391"/>
     <use xlink:href="#DejaVuSansMono-74" x="361.230469"/>
     <use xlink:href="#DejaVuSansMono-2e" x="421.435547"/>
     <use xlink:href="#DejaVuSansMono-68" x="481.640625"/>
     <use xlink:href="#DejaVuSansMono-69" x="541.845703"/>
     <use xlink:href="#DejaVuSansMono-73" x="602.050781"/>
     <use xlink:href="#DejaVuSansMono-74" x="662.255859"/>
     <use xlink:href="#DejaVuSansMono-28" x="722.460938"/>
     <use xlink:href="#DejaVuSansMono-67" x="782.666016"/>
     <use xlink:href="#DejaVuSansMono-72" x="842.871094"/>
     <use xlink:href="#DejaVuSansMono-6f" x="903.076172"/>
     <use xlink:href="#DejaVuSansMono-75" x="963.28125"/>
     <use xlink:href="#DejaVuSansMono-70" x="1023.486328"/>
     <use xlink:href="#DejaVuSansMono-5b" x="1083.691406"/>
     <use xlink:href="#DejaVuSansMono-22" x="1143.896484"/>
     <use xlink:href="#DejaVuSansMono-61" x="1204.101562"/>
     <use xlink:href="#DejaVuSansMono-6c" x="1264.306641"/>
     <use xlink:href="#DejaVuSansMono-63" x="1324.511719"/>
     <use xlink:href="#DejaVuSansMono-6f" x="1384.716797"/>
     <use xlink:href="#DejaVuSansMono-68" x="1444.921875"/>
     <use xlink:href="#DejaVuSansMono-6f" x="1505.126953"/>
     <use xlink:href="#DejaVuSansMono-6c" x="1565.332031"/>
     <use xlink:href="#DejaVuSansMono-22" x="1625.537109"/>
     <use xlink:href="#DejaVuSansMono-5d" x="1685.742188"/>
     <use xlink:href="#DejaVuSansMono-2c" x="1745.947266"/>
     <use xlink:href="#DejaVuSansMono-20" x="1806.152344"/>
     <use xlink:href="#DejaVuSansMono-62" x="1866.357422"/>
     <use xlink:href="#DejaVuSansMono-69" x="1926.5625"/>
     <use xlink:href="#DejaVuSansMono-6e" x="1986.767578"/>
     <use xlink:href="#DejaVuSansMono-73" x="2046.972656"/>
     <use xlink:href="#DejaVuSansMono-3d" x="2107.177734"/>
     <use xlink:href="#DejaVuSansMono-31" x="2167.382812"/>
     <use xlink:href="#DejaVuSansMono-35" x="2227.587891"/>
     <use xlink:href="#DejaVuSansMono-2c" x="2287.792969"/>
     <use xlink:href="#DejaVuSansMono-20" x="2347.998047"/>
     <use xlink:href="#DejaVuSansMono-61" x="2408.203125"/>
     <use xlink:href="#DejaVuSansMono-6c" x="2468.408203"/>
     <use xlink:href="#DejaVuSansMono-70" x="2528.613281"/>
     <use xlink:href="#DejaVuSansMono-68" x="2588.818359"/>
     <use xlink:href="#DejaVuSansMono-61" x="2649.023438"/>
     <use xlink:href="#DejaVuSansMono-3d" x="2709.228516"/>
     <use xlink:href="#DejaVuSansMono-30" x="2769.433594"/>
     <use xlink:href="#DejaVuSansMono-2e" x="2829.638672"/>
     <use xlink:href="#DejaVuSansMono-36" x="2889.84375"/>
     <use xlink:href="#DejaVuSansMono-2c" x="2950.048828"/>
     <use xlink:href="#DejaVuSansMono-20" x="3010.253906"/>
     <use xlink:href="#DejaVuSansMono-6c" x="3070.458984"/>
     <use xlink:href="#DejaVuSansMono-61" x="3130.664062"/>
     <use xlink:href="#DejaVuSansMono-62" x="3190.869141"/>
     <use xlink:href="#DejaVuSansMono-65" x="3251.074219"/>
     <use xlink:href="#DejaVuSansMono-6c" x="3311.279297"/>
     <use xlink:href="#DejaVuSansMono-3d" x="3371.484375"/>
     <use xlink:href="#DejaVuSansMono-6e" x="3431.689453"/>
     <use xlink:href="#DejaVuSansMono-61" x="3491.894531"/>
     <use xlink:href="#DejaVuSansMono-6d" x="3552.099609"/>
     <use xlink:href="#DejaVuSansMono-65" x="3612.304688"/>
     <use xlink:href="#DejaVuSansMono-29" x="3672.509766"/>
    </g>
   </g>
   <g id="text_15">
    <!-- plt.legend() -->
    <g style="fill: #cdd6f4" transform="translate(40.32 276.460341) scale(0.105 -0.105)">
     <use xlink:href="#DejaVuSansMono-70"/>
     <use xlink:href="#DejaVuSansMono-6c" x="60.205078"/>
     <use xlink:href="#DejaVuSansMono-74" x="120.410156"/>
     <use xlink:href="#DejaVuSansMono-2e" x="180.615234"/>
     <use xlink:href="#DejaVuSansMono-6c" x="240.820312"/>
     <use xlink:href="#DejaVuSansMono-65" x="301.025391"/>
     <use xlink:href="#DejaVuSansMono-67" x="361.230469"/>
     <use xlink:href="#DejaVuSansMono-65" x="421.435547"/>
     <use xlink:href="#DejaVuSansMono-6e" x="481.640625"/>
     <use xlink:href="#DejaVuSansMono-64" x="541.845703"/>
     <use xlink:href="#DejaVuSansMono-28" x="602.050781"/>
     <use xlink:href="#DejaVuSansMono-29" x="662.255859"/>
    </g>
   </g>
   <g id="text_16">
    <!-- plt.show() -->
    <g style="fill: #cdd6f4" transform="translate(40.32 288.592434) scale(0.105 -0.105)">
     <defs>
      <path id="DejaVuSansMono-77" d="M 0 3500 
L 569 3500 
L 1178 672 
L 1678 2478 
L 2169 2478 
L 2675 672 
L 3284 3500 
L 3853 3500 
L 3034 0 
L 2484 0 
L 1925 1919 
L 1369 0 
L 819 0 
L 0 3500 
z
" transform="scale(0.015625)"/>
     </defs>
     <use xlink:href="#DejaVuSansMono-70"/>
     <use xlink:href="#DejaVuSansMono-6c" x="60.205078"/>
     <use xlink:href="#DejaVuSansMono-74" x="120.410156"/>
     <use xlink:href="#DejaVuSansMono-2e" x="180.615234"/>
     <use xlink:href="#DejaVuSansMono-73" x="240.820312"/>
     <use xlink:href="#DejaVuSansMono-68" x="301.025391"/>
     <use xlink:href="#DejaVuSansMono-6f" x="361.230469"/>
     <use xlink:href="#DejaVuSansMono-77" x="421.435547"/>
     <use xlink:href="#DejaVuSansMono-28" x="481.640625"/>
     <use xlink:href="#DejaVuSansMono-29" x="541.845703"/>
    </g>
   </g>
   <g id="text_17">
    <!-- 🔍 観察：Barolo は他の品種よりアルコール度数が高い傾向がある -->
    <g style="fill: #1e8449" transform="translate(41.04 332.960385) scale(0.125 -0.125)">
     <defs>
      <path id="IPAexGothic-1f50d" d="M 5759 -641 
L 641 -641 
L 641 5503 
L 5759 5503 
L 5759 -641 
z
M 5216 5172 
L 1191 5172 
L 3206 2694 
L 5216 5172 
z
M 5428 -53 
L 5428 4903 
L 3419 2425 
L 5428 -53 
z
M 2988 2425 
L 972 4916 
L 972 -59 
L 2988 2425 
z
M 5209 -309 
L 3206 2163 
L 1197 -309 
L 5209 -309 
z
" transform="scale(0.015625)"/>
      <path id="IPAexGothic-89b3" d="M 1919 4369 
Q 1841 4025 1747 3725 
L 3150 3725 
L 3150 3372 
L 1619 3372 
Q 1459 2959 1294 2675 
L 1825 2675 
Q 1950 2972 2016 3250 
L 2406 3141 
Q 2294 2831 2203 2675 
L 3078 2675 
L 3078 2344 
L 2209 2344 
L 2209 1925 
L 2944 1925 
L 2944 1613 
L 2209 1613 
L 2209 1191 
L 2944 1191 
L 2944 878 
L 2209 878 
L 2209 422 
L 3109 422 
L 3109 91 
L 1191 91 
L 1191 -288 
L 806 -288 
L 806 1944 
Q 606 1666 441 1503 
L 213 1856 
Q 816 2478 1209 3372 
L 353 3372 
L 353 3725 
L 1350 3725 
Q 1453 4019 1538 4369 
L 1094 4369 
Q 916 4025 722 3794 
L 441 4081 
Q 863 4603 1044 5309 
L 1441 5241 
Q 1366 4997 1253 4722 
L 3053 4722 
L 3053 4369 
L 1919 4369 
z
M 1191 2344 
L 1191 1925 
L 1850 1925 
L 1850 2344 
L 1191 2344 
z
M 1191 1613 
L 1191 1191 
L 1850 1191 
L 1850 1613 
L 1191 1613 
z
M 1191 878 
L 1191 422 
L 1850 422 
L 1850 878 
L 1191 878 
z
M 5128 1638 
L 5128 238 
Q 5128 63 5397 63 
Q 5663 63 5709 216 
Q 5759 403 5778 966 
L 6163 806 
Q 6106 81 6028 -109 
Q 5925 -359 5363 -359 
Q 4719 -359 4719 6 
L 4719 1638 
L 4253 1638 
Q 4231 813 4003 372 
Q 3744 -113 3100 -441 
L 2813 -84 
Q 3444 184 3663 653 
Q 3834 1031 3841 1638 
L 3369 1638 
L 3369 5044 
L 5709 5044 
L 5709 1638 
L 5128 1638 
z
M 3778 4672 
L 3778 4031 
L 5306 4031 
L 5306 4672 
L 3778 4672 
z
M 3778 3672 
L 3778 3034 
L 5306 3034 
L 5306 3672 
L 3778 3672 
z
M 3778 2675 
L 3778 2009 
L 5306 2009 
L 5306 2675 
L 3778 2675 
z
" transform="scale(0.015625)"/>
      <path id="IPAexGothic-5bdf" d="M 4178 2456 
Q 3459 3041 3066 3916 
L 3431 4056 
Q 3791 3319 4300 2875 
Q 4581 3156 4844 3559 
L 3809 3559 
L 3809 3891 
L 5144 3891 
L 5341 3713 
L 5341 4313 
L 1041 4313 
L 1041 3566 
L 581 3566 
L 581 4684 
L 2938 4684 
L 2938 5313 
L 3413 5313 
L 3413 4684 
L 5809 4684 
L 5809 3566 
L 5341 3566 
Q 5006 3063 4600 2638 
Q 5244 2184 6041 1925 
L 5766 1528 
Q 4928 1866 4209 2431 
L 4209 2084 
L 2169 2084 
L 2169 2353 
Q 1569 1791 575 1363 
L 300 1700 
Q 928 1913 1425 2238 
Q 1297 2419 1028 2688 
Q 831 2522 631 2394 
L 350 2663 
Q 1263 3209 1694 4222 
L 2078 4094 
Q 2031 3991 1950 3847 
L 2888 3847 
L 3091 3669 
Q 2778 2947 2278 2456 
L 4178 2456 
z
M 1713 2444 
Q 1794 2513 2041 2759 
Q 1778 2963 1469 3131 
Q 1363 3003 1253 2894 
Q 1466 2713 1713 2444 
z
M 1753 3522 
Q 1741 3497 1650 3369 
Q 2006 3184 2266 3009 
Q 2453 3259 2578 3522 
L 1753 3522 
z
M 3434 1197 
L 3434 -13 
Q 3434 -459 2931 -459 
Q 2547 -459 2200 -422 
L 2125 6 
Q 2494 -63 2822 -63 
Q 2981 -63 2981 103 
L 2981 1197 
L 1216 1197 
L 1216 1594 
L 5219 1594 
L 5219 1197 
L 3434 1197 
z
M 544 -6 
Q 1297 350 1881 1013 
L 2247 788 
Q 1684 103 894 -366 
L 544 -6 
z
M 5291 -281 
Q 4566 434 3959 813 
L 4313 1081 
Q 4975 669 5675 63 
L 5291 -281 
z
" transform="scale(0.015625)"/>
      <path id="IPAexGothic-42" d="M 2688 2425 
Q 3816 2225 3816 1338 
Q 3816 556 3041 222 
Q 2672 63 2094 63 
L 609 63 
L 609 4634 
L 1916 4634 
Q 2494 4634 2869 4500 
Q 3644 4222 3644 3491 
Q 3644 2609 2688 2447 
L 2688 2425 
z
M 1159 2656 
L 1844 2656 
Q 3063 2656 3063 3431 
Q 3063 4181 1881 4181 
L 1159 4181 
L 1159 2656 
z
M 1159 522 
L 2016 522 
Q 3222 522 3222 1369 
Q 3222 1897 2625 2100 
Q 2278 2222 1875 2222 
L 1159 2222 
L 1159 522 
z
" transform="scale(0.015625)"/>
      <path id="IPAexGothic-61" d="M 3156 63 
L 2672 63 
Q 2559 303 2531 556 
L 2509 556 
Q 2147 -25 1428 -25 
Q 934 -25 622 288 
Q 347 563 347 959 
Q 347 1947 2050 1997 
L 2478 2009 
L 2478 2175 
Q 2478 2509 2288 2700 
Q 2088 2900 1775 2900 
Q 1238 2900 969 2378 
L 494 2597 
Q 938 3328 1788 3328 
Q 2375 3328 2691 3000 
Q 2984 2706 2984 2169 
L 2984 997 
Q 2984 400 3156 63 
z
M 2491 1625 
L 2141 1619 
Q 903 1591 903 953 
Q 903 728 1050 581 
Q 1231 403 1525 403 
Q 1934 403 2234 703 
Q 2491 969 2491 1344 
L 2491 1625 
z
" transform="scale(0.015625)"/>
      <path id="IPAexGothic-72" d="M 2309 3316 
L 2213 2769 
Q 2106 2791 2022 2791 
Q 1653 2791 1413 2444 
Q 1113 2006 1113 1675 
L 1113 63 
L 563 63 
L 563 3250 
L 1081 3250 
L 1056 2303 
L 1069 2303 
Q 1422 3341 2097 3341 
Q 2206 3341 2309 3316 
z
" transform="scale(0.015625)"/>
      <path id="IPAexGothic-6f" d="M 1919 3341 
Q 2594 3341 3056 2888 
Q 3531 2413 3531 1638 
Q 3531 888 3066 422 
Q 2609 -31 1919 -31 
Q 1228 -31 781 416 
Q 313 881 313 1656 
Q 313 2413 788 2888 
Q 1241 3341 1919 3341 
z
M 1919 2919 
Q 1519 2919 1241 2631 
Q 888 2278 888 1650 
Q 888 1031 1234 684 
Q 1516 403 1919 403 
Q 2331 403 2609 691 
Q 2956 1038 2956 1672 
Q 2956 2269 2603 2631 
Q 2316 2919 1919 2919 
z
" transform="scale(0.015625)"/>
      <path id="IPAexGothic-6c" d="M 1131 63 
L 581 63 
L 581 4794 
L 1131 4794 
L 1131 63 
z
" transform="scale(0.015625)"/>
      <path id="IPAexGothic-306f" d="M 4066 4875 
L 4538 4875 
L 4556 3769 
Q 5003 3816 5581 3941 
L 5619 3469 
Q 5256 3394 4563 3322 
L 4597 1441 
Q 5100 1284 5934 756 
L 5656 313 
Q 5066 772 4609 978 
Q 4609 441 4384 225 
Q 4128 -13 3634 -13 
Q 2991 -13 2669 231 
Q 2388 444 2388 831 
Q 2388 1225 2772 1484 
Q 3050 1669 3534 1669 
Q 3759 1669 4134 1594 
L 4097 3288 
Q 3697 3269 3359 3269 
Q 2925 3269 2484 3300 
L 2466 3763 
Q 2953 3716 3456 3716 
Q 3738 3716 4091 3738 
L 4066 4875 
z
M 4141 1153 
Q 3753 1259 3513 1259 
Q 2841 1259 2841 850 
Q 2841 422 3634 422 
Q 3888 422 4022 569 
Q 4141 700 4141 922 
Q 4141 1088 4141 1153 
z
M 1000 -50 
Q 794 1072 794 1931 
Q 794 3153 1247 4884 
L 1728 4763 
Q 1269 3044 1269 1900 
Q 1269 1569 1306 1106 
Q 1591 1706 1753 1997 
L 2075 1806 
Q 1484 716 1484 141 
Q 1484 72 1491 0 
L 1000 -50 
z
" transform="scale(0.015625)"/>
      <path id="IPAexGothic-4ed6" d="M 2888 2881 
L 2888 581 
Q 2888 322 3022 256 
Q 3166 178 4047 178 
Q 4928 178 5184 228 
Q 5419 278 5466 478 
Q 5506 622 5538 1044 
L 5550 1159 
L 6009 1006 
Q 5934 34 5684 -128 
Q 5444 -281 4091 -281 
Q 2938 -281 2672 -153 
Q 2434 -41 2434 300 
L 2434 2747 
L 1794 2553 
L 1691 2988 
L 2434 3200 
L 2434 4825 
L 2888 4825 
L 2888 3328 
L 3644 3547 
L 3644 5247 
L 4097 5247 
L 4097 3675 
L 5300 4013 
L 5563 3834 
L 5563 1875 
Q 5563 1566 5428 1459 
Q 5319 1369 5059 1369 
Q 4844 1369 4438 1403 
L 4366 1850 
Q 4750 1778 4922 1778 
Q 5122 1778 5122 2009 
L 5122 3541 
L 4097 3238 
L 4097 991 
L 3644 991 
L 3644 3103 
L 2888 2881 
z
M 1503 3775 
L 1503 -447 
L 1063 -447 
L 1063 2900 
Q 797 2431 481 2022 
L 219 2419 
Q 1125 3622 1566 5241 
L 1991 5106 
Q 1822 4531 1503 3775 
z
" transform="scale(0.015625)"/>
      <path id="IPAexGothic-3088" d="M 2784 5019 
L 3272 5019 
Q 3247 4378 3272 3647 
Q 4184 3719 4850 3903 
L 4997 3431 
Q 4369 3291 3272 3200 
Q 3288 2366 3378 1550 
Q 4134 1353 5344 647 
L 5031 213 
Q 4244 759 3406 1044 
L 3413 891 
Q 3434 359 3122 84 
Q 2863 -141 2272 -141 
Q 1641 -141 1272 116 
Q 934 350 934 738 
Q 934 1294 1500 1534 
Q 1841 1678 2278 1678 
Q 2581 1678 2906 1631 
Q 2813 2559 2784 5019 
z
M 2931 1178 
Q 2613 1244 2369 1244 
Q 1422 1244 1422 794 
Q 1422 300 2278 300 
Q 2956 300 2938 934 
L 2931 1178 
z
" transform="scale(0.015625)"/>
      <path id="IPAexGothic-308a" d="M 2878 2925 
Q 2503 2294 2372 2041 
Q 2222 1750 2163 1459 
L 1716 1503 
Q 1509 2131 1509 3091 
Q 1509 3744 1663 4872 
L 2181 4806 
Q 2003 3541 2003 3016 
Q 2003 2613 2028 2259 
Q 2109 2413 2313 2766 
Q 2484 3063 2578 3238 
L 2878 2925 
z
M 2488 128 
Q 3534 503 3928 1184 
Q 4234 1713 4234 2975 
Q 4234 3872 4122 4928 
L 4666 4928 
Q 4759 3794 4759 2975 
Q 4759 1516 4356 844 
Q 3913 103 2853 -288 
L 2488 128 
z
" transform="scale(0.015625)"/>
      <path id="IPAexGothic-30a2" d="M 5388 4556 
L 5747 4200 
Q 5081 3022 4019 2191 
L 3647 2547 
Q 4519 3178 5081 4091 
L 850 4013 
L 850 4500 
L 5388 4556 
z
M 1216 256 
Q 2319 813 2616 1691 
Q 2797 2200 2797 3628 
L 3313 3628 
Q 3303 1981 3059 1356 
Q 2697 431 1594 -153 
L 1216 256 
z
" transform="scale(0.015625)"/>
      <path id="IPAexGothic-30b3" d="M 1134 4213 
L 5166 4213 
L 5166 153 
L 4653 153 
L 4653 594 
L 1063 594 
L 1063 1088 
L 4653 1088 
L 4653 3725 
L 1134 3725 
L 1134 4213 
z
" transform="scale(0.015625)"/>
      <path id="IPAexGothic-5ea6" d="M 3516 4622 
L 5794 4622 
L 5794 4231 
L 1278 4231 
L 1278 3547 
L 2328 3547 
L 2328 4041 
L 2759 4041 
L 2759 3547 
L 4097 3547 
L 4097 4041 
L 4525 4041 
L 4525 3547 
L 5825 3547 
L 5825 3163 
L 4525 3163 
L 4525 2266 
L 2328 2266 
L 2328 3163 
L 1278 3163 
L 1278 2747 
Q 1278 1434 1131 775 
Q 1006 203 606 -441 
L 269 -50 
Q 653 541 763 1381 
Q 825 1869 825 2747 
L 825 4622 
L 3034 4622 
L 3034 5313 
L 3516 5313 
L 3516 4622 
z
M 2759 3163 
L 2759 2619 
L 4097 2619 
L 4097 3163 
L 2759 3163 
z
M 3609 263 
Q 2784 -231 1472 -494 
L 1222 -97 
Q 2444 63 3213 491 
Q 2544 909 2119 1522 
L 1575 1522 
L 1575 1900 
L 4897 1900 
L 5125 1700 
Q 4628 994 3994 516 
Q 4769 200 5925 56 
L 5638 -397 
Q 4434 -163 3609 263 
z
M 2606 1522 
Q 2984 1044 3578 716 
Q 4163 1119 4422 1522 
L 2606 1522 
z
" transform="scale(0.015625)"/>
      <path id="IPAexGothic-9ad8" d="M 4481 1588 
L 4481 366 
L 2319 366 
L 2319 0 
L 1891 0 
L 1891 1588 
L 4481 1588 
z
M 4053 1247 
L 2319 1247 
L 2319 706 
L 4053 706 
L 4053 1247 
z
M 3419 4641 
L 5916 4641 
L 5916 4263 
L 481 4263 
L 481 4641 
L 2938 4641 
L 2938 5313 
L 3419 5313 
L 3419 4641 
z
M 4884 3878 
L 4884 2694 
L 1513 2694 
L 1513 3878 
L 4884 3878 
z
M 1959 3531 
L 1959 3041 
L 4438 3041 
L 4438 3531 
L 1959 3531 
z
M 5684 2309 
L 5684 103 
Q 5684 -378 5091 -378 
Q 4697 -378 4316 -353 
L 4253 109 
Q 4706 44 5006 44 
Q 5231 44 5231 250 
L 5231 1944 
L 1166 1944 
L 1166 -447 
L 713 -447 
L 713 2309 
L 5684 2309 
z
" transform="scale(0.015625)"/>
      <path id="IPAexGothic-50be" d="M 4653 4025 
L 5741 4025 
L 5741 794 
L 3509 794 
L 3509 4025 
L 4263 4025 
L 4291 4122 
Q 4344 4366 4391 4659 
L 3100 4659 
L 3100 5056 
L 6047 5056 
L 6047 4659 
L 4838 4659 
Q 4831 4603 4800 4506 
Q 4691 4128 4653 4025 
z
M 5331 3653 
L 3913 3653 
L 3913 3078 
L 5331 3078 
L 5331 3653 
z
M 3913 2713 
L 3913 2138 
L 5331 2138 
L 5331 2713 
L 3913 2713 
z
M 3913 1778 
L 3913 1166 
L 5331 1166 
L 5331 1778 
L 3913 1778 
z
M 1400 3725 
L 1400 -447 
L 966 -447 
L 966 2694 
Q 759 2284 478 1863 
L 244 2259 
Q 1028 3500 1388 5306 
L 1816 5203 
Q 1622 4353 1400 3725 
z
M 2291 3059 
Q 2684 3319 3000 3656 
L 3269 3297 
Q 2838 2906 2291 2613 
L 2291 1044 
Q 2291 825 2534 825 
Q 2769 825 2797 1038 
Q 2831 1353 2841 1775 
L 3244 1647 
Q 3234 694 3066 544 
Q 2925 403 2450 403 
Q 2138 403 2009 494 
Q 1881 581 1881 841 
L 1881 4544 
L 2291 4544 
L 2291 3059 
z
M 2975 -191 
Q 3656 200 4097 756 
L 4450 538 
Q 3916 -128 3309 -506 
L 2975 -191 
z
M 5794 -428 
Q 5278 163 4806 525 
L 5134 769 
Q 5613 434 6150 -122 
L 5794 -428 
z
" transform="scale(0.015625)"/>
      <path id="IPAexGothic-5411" d="M 4409 3034 
L 4409 1044 
L 2378 1044 
L 2378 591 
L 1938 591 
L 1938 3034 
L 4409 3034 
z
M 3969 2638 
L 2378 2638 
L 2378 1441 
L 3969 1441 
L 3969 2638 
z
M 2559 4275 
Q 2731 4803 2803 5306 
L 3347 5197 
Q 3200 4681 3028 4275 
L 5709 4275 
L 5709 206 
Q 5709 -128 5538 -241 
Q 5388 -331 5028 -331 
Q 4484 -331 4038 -294 
L 3922 206 
Q 4491 128 4934 128 
Q 5234 128 5234 409 
L 5234 3872 
L 1159 3872 
L 1159 -453 
L 684 -453 
L 684 4275 
L 2559 4275 
z
" transform="scale(0.015625)"/>
     </defs>
     <use xlink:href="#IPAexGothic-1f50d"/>
     <use xlink:href="#IPAexGothic-20" x="100"/>
     <use xlink:href="#IPAexGothic-89b3" x="127.001953"/>
     <use xlink:href="#IPAexGothic-5bdf" x="227.001953"/>
     <use xlink:href="#IPAexGothic-ff1a" x="327.001953"/>
     <use xlink:href="#IPAexGothic-42" x="427.001953"/>
     <use xlink:href="#IPAexGothic-61" x="492.919922"/>
     <use xlink:href="#IPAexGothic-72" x="547.900391"/>
     <use xlink:href="#IPAexGothic-6f" x="584.912109"/>
     <use xlink:href="#IPAexGothic-6c" x="645.3125"/>
     <use xlink:href="#IPAexGothic-6f" x="672.314453"/>
     <use xlink:href="#IPAexGothic-20" x="732.714844"/>
     <use xlink:href="#IPAexGothic-306f" x="759.716797"/>
     <use xlink:href="#IPAexGothic-4ed6" x="859.716797"/>
     <use xlink:href="#IPAexGothic-306e" x="959.716797"/>
     <use xlink:href="#IPAexGothic-54c1" x="1059.716797"/>
     <use xlink:href="#IPAexGothic-7a2e" x="1159.716797"/>
     <use xlink:href="#IPAexGothic-3088" x="1259.716797"/>
     <use xlink:href="#IPAexGothic-308a" x="1359.716797"/>
     <use xlink:href="#IPAexGothic-30a2" x="1459.716797"/>
     <use xlink:href="#IPAexGothic-30eb" x="1559.716797"/>
     <use xlink:href="#IPAexGothic-30b3" x="1659.716797"/>
     <use xlink:href="#IPAexGothic-30fc" x="1759.716797"/>
     <use xlink:href="#IPAexGothic-30eb" x="1859.716797"/>
     <use xlink:href="#IPAexGothic-5ea6" x="1959.716797"/>
     <use xlink:href="#IPAexGothic-6570" x="2059.716797"/>
     <use xlink:href="#IPAexGothic-304c" x="2159.716797"/>
     <use xlink:href="#IPAexGothic-9ad8" x="2259.716797"/>
     <use xlink:href="#IPAexGothic-3044" x="2359.716797"/>
     <use xlink:href="#IPAexGothic-50be" x="2459.716797"/>
     <use xlink:href="#IPAexGothic-5411" x="2559.716797"/>
     <use xlink:href="#IPAexGothic-304c" x="2659.716797"/>
     <use xlink:href="#IPAexGothic-3042" x="2759.716797"/>
     <use xlink:href="#IPAexGothic-308b" x="2859.716797"/>
    </g>
   </g>
  </g>
 </g>
 <defs>
  <clipPath id="p01a0bca4af">
   <rect x="0" y="-0" width="691.2" height="388.8"/>
  </clipPath>
 </defs>
</svg>
