<?xml version="1.0" encoding="utf-8" standalone="no"?>
<!DOCTYPE svg PUBLIC "-//W3C//DTD SVG 1.1//EN"
  "http://www.w3.org/Graphics/SVG/1.1/DTD/svg11.dtd">
<svg xmlns:xlink="http://www.w3.org/1999/xlink" width="691.2pt" height="388.8pt" viewBox="0 0 691.2 388.8" xmlns="http://www.w3.org/2000/svg" version="1.1">
 <metadata>
  <rdf:RDF xmlns:dc="http://purl.org/dc/elements/1.1/" xmlns:cc="http://creativecommons.org/ns#" xmlns:rdf="http://www.w3.org/1999/02/22-rdf-syntax-ns#">
   <cc:Work>
    <dc:type rdf:resource="http://purl.org/dc/dcmitype/StillImage"/>
    <dc:date>2026-04-09T02:37:45.593254</dc:date>
    <dc:format>image/svg+xml</dc:format>
    <dc:creator>
     <cc:Agent>
      <dc:title>Matplotlib v3.9.4, https://matplotlib.org/</dc:title>
     </cc:Agent>
    </dc:creator>
   </cc:Work>
  </rdf:RDF>
 </metadata>
 <defs>
  <style type="text/css">*{stroke-linejoin: round; stroke-linecap: butt}</style>
 </defs>
 <g id="figure_1">
  <g id="patch_1">
   <path d="M 0 388.8 
L 691.2 388.8 
L 691.2 0 
L 0 0 
z
" style="fill: #ffffff"/>
  </g>
  <g id="axes_1">
   <g id="patch_2">
    <path d="M 0 -0 
L 691.2 -0 
L 691.2 24.48 
L 0 24.48 
z
" clip-path="url(#pdfe6687b74)" style="fill: #5ba85a"/>
   </g>
   <g id="patch_3">
    <path d="M 31.68 59.04 
L 659.52 59.04 
L 659.52 60.48 
L 31.68 60.48 
z
" clip-path="url(#pdfe6687b74)" style="fill: #ecf0f1"/>
   </g>
   <g id="patch_4">
    <path d="M 31.68 59.04 
L 659.52 59.04 
L 659.52 96.48 
L 31.68 96.48 
z
" clip-path="url(#pdfe6687b74)" style="fill: #eafaf1"/>
   </g>
   <g id="patch_5">
    <path d="M 31.68 59.04 
L 33.84 59.04 
L 33.84 96.48 
L 31.68 96.48 
z
" clip-path="url(#pdfe6687b74)" style="fill: #5ba85a"/>
   </g>
   <g id="patch_6">
    <path d="M 31.68 102.24 
L 339.84 102.24 
Q 344.16 102.24 344.16 106.56 
L 344.16 279.36 
Q 344.16 283.68 339.84 283.68 
L 31.68 283.68 
Q 27.36 283.68 27.36 279.36 
L 27.36 106.56 
Q 27.36 102.24 31.68 102.24 
z
" clip-path="url(#pdfe6687b74)" style="fill: #fdedec; stroke: #c0392b; stroke-width: 2; stroke-linejoin: miter"/>
   </g>
   <g id="patch_7">
    <path d="M 351.36 102.24 
L 659.52 102.24 
Q 663.84 102.24 663.84 106.56 
L 663.84 279.36 
Q 663.84 283.68 659.52 283.68 
L 351.36 283.68 
Q 347.04 283.68 347.04 279.36 
L 347.04 106.56 
Q 347.04 102.24 351.36 102.24 
z
" clip-path="url(#pdfe6687b74)" style="fill: #eafaf1; stroke: #5ba85a; stroke-width: 2; stroke-linejoin: miter"/>
   </g>
   <g id="patch_8">
    <path d="M 31.68 296.64 
L 659.52 296.64 
L 659.52 325.44 
L 31.68 325.44 
z
" clip-path="url(#pdfe6687b74)" style="fill: #ebf5fb"/>
   </g>
   <g id="patch_9">
    <path d="M 31.68 296.64 
L 33.84 296.64 
L 33.84 325.44 
L 31.68 325.44 
z
" clip-path="url(#pdfe6687b74)" style="fill: #4a90d9"/>
   </g>
   <g id="text_1">
    <!-- Ch.2 データ可視化・EDA -->
    <g style="fill: #ffffff" transform="translate(31.68 15.047031) scale(0.1 -0.1)">
     <defs>
      <path id="IPAexGothic-43" d="M 4353 1088 
Q 4181 694 3859 428 
Q 3313 -31 2559 -31 
Q 1588 -31 959 653 
Q 378 1294 378 2331 
Q 378 3406 1013 4078 
Q 1619 4725 2534 4725 
Q 3813 4725 4322 3628 
L 3809 3391 
Q 3425 4238 2541 4238 
Q 1891 4238 1453 3744 
Q 994 3216 994 2322 
Q 994 1550 1384 1056 
Q 1841 472 2563 472 
Q 3456 472 3878 1319 
L 4353 1088 
z
" transform="scale(0.015625)"/>
      <path id="IPAexGothic-68" d="M 3347 63 
L 2797 63 
L 2797 2041 
Q 2797 2853 2131 2853 
Q 1447 2853 1131 2041 
L 1131 63 
L 581 63 
L 581 4794 
L 1131 4794 
L 1131 2706 
Q 1566 3316 2247 3316 
Q 3347 3316 3347 2072 
L 3347 63 
z
" transform="scale(0.015625)"/>
      <path id="IPAexGothic-2e" d="M 1184 63 
L 494 63 
L 494 753 
L 1184 753 
L 1184 63 
z
" transform="scale(0.015625)"/>
      <path id="IPAexGothic-32" d="M 3659 63 
L 447 63 
L 447 594 
Q 825 1475 1894 2203 
L 2072 2322 
Q 2619 2697 2791 2906 
Q 2988 3153 2988 3444 
Q 2988 3772 2756 4003 
Q 2500 4259 2084 4259 
Q 1250 4259 991 3328 
L 497 3506 
Q 853 4725 2116 4725 
Q 2806 4725 3216 4316 
Q 3575 3947 3575 3425 
Q 3575 3038 3344 2722 
Q 3131 2416 2366 1938 
L 2231 1856 
Q 1256 1253 978 569 
L 3659 569 
L 3659 63 
z
" transform="scale(0.015625)"/>
      <path id="IPAexGothic-20" transform="scale(0.015625)"/>
      <path id="IPAexGothic-30c7" d="M 563 3072 
L 5741 3072 
L 5741 2613 
L 3578 2613 
Q 3538 1516 3134 872 
Q 2688 156 1663 -256 
L 1313 156 
Q 2338 538 2713 1166 
Q 3003 1644 3034 2613 
L 563 2613 
L 563 3072 
z
M 1406 4588 
L 4588 4588 
L 4588 4128 
L 1406 4128 
L 1406 4588 
z
M 6009 4469 
Q 5647 5009 5253 5338 
L 5553 5569 
Q 5938 5259 6328 4744 
L 6009 4469 
z
M 5413 4000 
Q 5125 4491 4678 4891 
L 4991 5131 
Q 5363 4825 5747 4275 
L 5413 4000 
z
" transform="scale(0.015625)"/>
      <path id="IPAexGothic-30fc" d="M 588 2688 
L 5809 2688 
L 5809 2175 
L 588 2175 
L 588 2688 
z
" transform="scale(0.015625)"/>
      <path id="IPAexGothic-30bf" d="M 4978 4263 
L 5313 3988 
Q 4797 2431 4056 1459 
Q 3191 325 1822 -300 
L 1466 109 
Q 2131 381 2613 738 
Q 3053 1066 3531 1600 
Q 2919 2225 2144 2791 
Q 1603 2203 1172 1875 
L 825 2234 
Q 2316 3328 2866 5031 
L 3359 4897 
Q 3325 4775 3109 4263 
L 4978 4263 
z
M 2894 3816 
Q 2709 3522 2438 3169 
Q 3194 2616 3841 2003 
Q 4366 2806 4747 3816 
L 2894 3816 
z
" transform="scale(0.015625)"/>
      <path id="IPAexGothic-53ef" d="M 5100 4313 
L 5100 288 
Q 5100 -63 4913 -200 
Q 4756 -322 4313 -322 
Q 3859 -322 3313 -263 
L 3231 263 
Q 3869 178 4294 178 
Q 4525 178 4575 275 
Q 4613 341 4613 497 
L 4613 4313 
L 416 4313 
L 416 4728 
L 5972 4728 
L 5972 4313 
L 5100 4313 
z
M 3666 3406 
L 3666 1259 
L 1713 1259 
L 1713 741 
L 1259 741 
L 1259 3406 
L 3666 3406 
z
M 1713 3003 
L 1713 1669 
L 3213 1669 
L 3213 3003 
L 1713 3003 
z
" transform="scale(0.015625)"/>
      <path id="IPAexGothic-8996" d="M 2953 1631 
L 2953 5050 
L 5622 5050 
L 5622 1631 
L 4916 1631 
L 4916 300 
Q 4916 138 5000 100 
Q 5050 75 5219 75 
Q 5584 75 5641 275 
Q 5678 419 5697 1003 
L 6116 825 
Q 6075 75 5981 -97 
Q 5875 -297 5622 -334 
Q 5478 -353 5159 -353 
Q 4797 -353 4659 -288 
Q 4488 -203 4488 91 
L 4488 1631 
L 4028 1631 
Q 3978 841 3675 378 
Q 3353 -119 2625 -453 
L 2319 -91 
Q 3003 175 3303 634 
Q 3547 1013 3603 1631 
L 2953 1631 
z
M 3375 2016 
L 5206 2016 
L 5206 2669 
L 3375 2669 
L 3375 2016 
z
M 3375 3041 
L 5206 3041 
L 5206 3666 
L 3375 3666 
L 3375 3041 
z
M 3375 4038 
L 5206 4038 
L 5206 4666 
L 3375 4666 
L 3375 4038 
z
M 1766 2547 
Q 2294 2244 2834 1797 
L 2541 1381 
Q 2181 1728 1791 2041 
L 1766 2059 
L 1766 -456 
L 1313 -456 
L 1313 2047 
Q 894 1559 463 1216 
L 206 1619 
Q 1319 2453 1981 3775 
L 391 3775 
L 391 4197 
L 1250 4197 
L 1250 5309 
L 1703 5309 
L 1703 4197 
L 2303 4197 
L 2541 3978 
Q 2234 3259 1766 2622 
L 1766 2547 
z
" transform="scale(0.015625)"/>
      <path id="IPAexGothic-5316" d="M 1831 3700 
L 1831 -341 
L 1356 -341 
L 1356 2772 
Q 1069 2275 678 1772 
L 378 2138 
Q 1319 3278 1856 5166 
L 2319 5013 
Q 2100 4319 1831 3700 
z
M 3425 2906 
Q 4528 3350 5306 3969 
L 5703 3616 
Q 4728 2919 3425 2444 
L 3425 575 
Q 3425 353 3584 306 
Q 3738 263 4334 263 
Q 5072 263 5250 347 
Q 5384 403 5422 594 
Q 5475 872 5506 1497 
L 5978 1331 
Q 5931 319 5775 106 
Q 5641 -75 5331 -141 
Q 5041 -206 4244 -206 
Q 3438 -206 3181 -78 
Q 2931 47 2931 384 
L 2931 5113 
L 3425 5113 
L 3425 2906 
z
" transform="scale(0.015625)"/>
      <path id="IPAexGothic-30fb" d="M 2772 2859 
L 3628 2859 
L 3628 2003 
L 2772 2003 
L 2772 2859 
z
" transform="scale(0.015625)"/>
      <path id="IPAexGothic-45" d="M 3547 63 
L 609 63 
L 609 4634 
L 3469 4634 
L 3469 4147 
L 1166 4147 
L 1166 2650 
L 3206 2650 
L 3206 2191 
L 1166 2191 
L 1166 556 
L 3547 556 
L 3547 63 
z
" transform="scale(0.015625)"/>
      <path id="IPAexGothic-44" d="M 609 4634 
L 1984 4634 
Q 3159 4634 3791 4050 
Q 4456 3444 4456 2356 
Q 4456 1047 3516 441 
Q 2925 63 1941 63 
L 609 63 
L 609 4634 
z
M 1172 556 
L 1894 556 
Q 3853 556 3853 2356 
Q 3853 4147 1928 4147 
L 1172 4147 
L 1172 556 
z
" transform="scale(0.015625)"/>
      <path id="IPAexGothic-41" d="M 4056 63 
L 3444 63 
L 2938 1409 
L 1100 1409 
L 603 63 
L -6 63 
L 1806 4666 
L 2259 4666 
L 4056 63 
z
M 2778 1863 
L 2316 3078 
Q 2125 3588 2028 4000 
L 2009 4000 
Q 1897 3563 1716 3078 
L 1263 1863 
L 2778 1863 
z
" transform="scale(0.015625)"/>
     </defs>
     <use xlink:href="#IPAexGothic-43"/>
     <use xlink:href="#IPAexGothic-68" x="72.509766"/>
     <use xlink:href="#IPAexGothic-2e" x="133.203125"/>
     <use xlink:href="#IPAexGothic-32" x="159.619141"/>
     <use xlink:href="#IPAexGothic-20" x="222.607422"/>
     <use xlink:href="#IPAexGothic-30c7" x="249.609375"/>
     <use xlink:href="#IPAexGothic-30fc" x="349.609375"/>
     <use xlink:href="#IPAexGothic-30bf" x="449.609375"/>
     <use xlink:href="#IPAexGothic-53ef" x="549.609375"/>
     <use xlink:href="#IPAexGothic-8996" x="649.609375"/>
     <use xlink:href="#IPAexGothic-5316" x="749.609375"/>
     <use xlink:href="#IPAexGothic-30fb" x="849.609375"/>
     <use xlink:href="#IPAexGothic-45" x="949.609375"/>
     <use xlink:href="#IPAexGothic-44" x="1009.130859"/>
     <use xlink:href="#IPAexGothic-41" x="1084.814453"/>
    </g>
   </g>
   <g id="text_2">
    <!-- EDA（探索的データ分析）とは -->
    <g style="fill: #1a1a2e" transform="translate(31.68 55.7325) scale(0.24 -0.24)">
     <defs>
      <path id="IPAexGothic-ff08" d="M 5419 -434 
Q 4197 769 4197 2438 
Q 4197 4097 5419 5300 
L 5919 5300 
Q 4678 4078 4678 2425 
Q 4678 788 5919 -434 
L 5419 -434 
z
" transform="scale(0.015625)"/>
      <path id="IPAexGothic-63a2" d="M 4794 4525 
L 4794 3416 
Q 4794 3291 4850 3250 
Q 4913 3206 5131 3206 
Q 5488 3206 5547 3316 
Q 5588 3397 5600 3756 
L 6003 3616 
Q 5972 3097 5881 2975 
Q 5753 2809 5069 2809 
Q 4669 2809 4550 2872 
Q 4366 2963 4366 3200 
L 4366 4525 
L 2834 4525 
L 2834 3691 
L 2400 3691 
L 2400 4922 
L 5900 4922 
L 5900 3866 
L 5472 3866 
L 5472 4525 
L 4794 4525 
z
M 4469 1778 
Q 5084 834 6150 306 
L 5831 -103 
Q 4856 522 4359 1331 
L 4359 -450 
L 3931 -450 
L 3931 1291 
Q 3472 400 2497 -188 
L 2191 184 
Q 3241 700 3828 1778 
L 2350 1778 
L 2350 2175 
L 3931 2175 
L 3931 2859 
L 4359 2859 
L 4359 2175 
L 6028 2175 
L 6028 1778 
L 4469 1778 
z
M 1184 4019 
L 1184 5313 
L 1613 5313 
L 1613 4019 
L 2238 4019 
L 2238 3603 
L 1613 3603 
L 1613 2406 
Q 1856 2484 2272 2644 
L 2316 2272 
Q 1966 2116 1613 1984 
L 1613 6 
Q 1613 -272 1491 -363 
Q 1391 -447 1088 -447 
Q 803 -447 525 -409 
L 447 50 
Q 747 -6 978 -6 
Q 1184 -6 1184 172 
L 1184 1831 
Q 759 1684 428 1588 
L 275 2009 
Q 634 2100 1184 2266 
L 1184 3603 
L 372 3603 
L 372 4019 
L 1184 4019 
z
M 2431 2913 
Q 3375 3338 3481 4434 
L 3903 4341 
Q 3806 3494 3347 3016 
Q 3113 2772 2706 2553 
L 2431 2913 
z
" transform="scale(0.015625)"/>
      <path id="IPAexGothic-7d22" d="M 3419 1247 
L 3419 -450 
L 2931 -450 
L 2931 1222 
L 2547 1209 
Q 1831 1178 525 1144 
L 384 1575 
Q 1184 1575 2222 1588 
L 2450 1594 
Q 1797 2219 1297 2566 
L 1631 2834 
Q 1916 2634 2163 2419 
Q 2569 2784 2913 3238 
L 978 3238 
L 978 2559 
L 538 2559 
L 538 3616 
L 2950 3616 
L 2950 4206 
L 703 4206 
L 703 4603 
L 2950 4603 
L 2950 5313 
L 3403 5313 
L 3403 4603 
L 5691 4603 
L 5691 4206 
L 3403 4206 
L 3403 3616 
L 5869 3616 
L 5869 2559 
L 5428 2559 
L 5428 3238 
L 3059 3238 
L 3328 3059 
Q 2847 2500 2450 2175 
Q 2597 2056 2913 1741 
Q 3644 2325 4256 3025 
L 4653 2778 
Q 4041 2134 3444 1663 
L 3384 1619 
L 3719 1631 
L 3866 1631 
L 4678 1663 
L 4788 1669 
L 5038 1681 
Q 4778 1919 4531 2125 
L 4841 2359 
Q 5500 1869 6053 1284 
L 5691 984 
Q 5469 1244 5350 1369 
L 5116 1350 
Q 4909 1341 4531 1313 
L 3419 1247 
z
M 544 -6 
Q 1394 366 2003 984 
L 2431 769 
Q 1753 59 922 -366 
L 544 -6 
z
M 5538 -281 
Q 4797 372 4006 800 
L 4372 1069 
Q 5228 644 5922 91 
L 5538 -281 
z
" transform="scale(0.015625)"/>
      <path id="IPAexGothic-7684" d="M 5925 4141 
Q 5859 888 5656 91 
Q 5581 -219 5350 -325 
Q 5178 -397 4856 -397 
Q 4428 -397 4044 -353 
L 3953 134 
Q 4444 56 4838 56 
Q 5128 56 5203 234 
Q 5400 706 5459 3438 
L 5466 3719 
L 3838 3719 
Q 3550 3031 3116 2503 
L 2809 2856 
Q 3469 3659 3788 5172 
L 4250 5050 
Q 4144 4559 4000 4141 
L 5925 4141 
z
M 1316 4244 
L 1394 4475 
Q 1500 4806 1566 5209 
L 2053 5141 
Q 1872 4525 1753 4244 
L 2756 4244 
L 2756 366 
L 1022 366 
L 1022 -91 
L 581 -91 
L 581 4244 
L 1316 4244 
z
M 1022 3847 
L 1022 2553 
L 2316 2553 
L 2316 3847 
L 1022 3847 
z
M 1022 2169 
L 1022 763 
L 2316 763 
L 2316 2169 
L 1022 2169 
z
M 4384 1288 
Q 3975 2069 3531 2578 
L 3859 2834 
Q 4375 2259 4753 1569 
L 4384 1288 
z
" transform="scale(0.015625)"/>
      <path id="IPAexGothic-5206" d="M 3031 2431 
Q 2916 1378 2528 759 
Q 1991 -81 941 -469 
L 625 -53 
Q 2356 488 2541 2431 
L 1375 2431 
L 1375 2772 
Q 1044 2431 653 2156 
L 313 2534 
Q 1600 3425 2219 5056 
L 2688 4875 
Q 2200 3672 1453 2847 
L 4966 2847 
Q 4878 559 4741 94 
Q 4666 -163 4459 -250 
Q 4288 -322 3941 -322 
Q 3525 -322 2981 -263 
L 2884 256 
Q 3441 138 3844 138 
Q 4213 138 4281 438 
Q 4388 931 4472 2431 
L 3031 2431 
z
M 5747 2303 
Q 4416 3238 3506 4934 
L 3934 5113 
Q 4747 3572 6084 2747 
L 5747 2303 
z
" transform="scale(0.015625)"/>
      <path id="IPAexGothic-6790" d="M 1363 2669 
L 1350 2625 
Q 1066 1647 550 781 
L 263 1256 
Q 953 2256 1300 3541 
L 397 3541 
L 397 3956 
L 1363 3956 
L 1363 5300 
L 1803 5300 
L 1803 3956 
L 2700 3956 
L 2700 3541 
L 1803 3541 
L 1803 2931 
Q 2375 2453 2788 1991 
L 2519 1531 
Q 2156 2053 1803 2434 
L 1803 -447 
L 1363 -447 
L 1363 2669 
z
M 3016 4634 
L 3156 4647 
Q 4450 4763 5319 5075 
L 5709 4678 
Q 4731 4363 3469 4256 
L 3469 3213 
L 6088 3213 
L 6088 2797 
L 5134 2797 
L 5134 -441 
L 4681 -441 
L 4681 2797 
L 3469 2797 
Q 3469 1600 3347 972 
Q 3184 100 2663 -525 
L 2331 -225 
Q 2850 488 2953 1325 
Q 3016 1772 3016 2584 
L 3016 4634 
z
" transform="scale(0.015625)"/>
      <path id="IPAexGothic-ff09" d="M 481 -434 
Q 1722 788 1722 2431 
Q 1722 4066 481 5300 
L 981 5300 
Q 2203 4097 2203 2431 
Q 2203 769 981 -434 
L 481 -434 
z
" transform="scale(0.015625)"/>
      <path id="IPAexGothic-3068" d="M 5222 56 
Q 4200 -72 3450 -72 
Q 2478 -72 1941 113 
Q 1184 372 1184 1038 
Q 1184 1584 1594 2009 
Q 1941 2369 2656 2725 
Q 2231 3734 1972 4878 
L 2491 4978 
Q 2706 3884 3078 2950 
Q 4250 3447 4756 3616 
L 4978 3150 
Q 3181 2575 2409 2078 
Q 1691 1613 1691 1113 
Q 1691 403 3322 403 
Q 4125 403 5134 563 
L 5222 56 
z
" transform="scale(0.015625)"/>
      <path id="IPAexGothic-306f" d="M 4066 4875 
L 4538 4875 
L 4556 3769 
Q 5003 3816 5581 3941 
L 5619 3469 
Q 5256 3394 4563 3322 
L 4597 1441 
Q 5100 1284 5934 756 
L 5656 313 
Q 5066 772 4609 978 
Q 4609 441 4384 225 
Q 4128 -13 3634 -13 
Q 2991 -13 2669 231 
Q 2388 444 2388 831 
Q 2388 1225 2772 1484 
Q 3050 1669 3534 1669 
Q 3759 1669 4134 1594 
L 4097 3288 
Q 3697 3269 3359 3269 
Q 2925 3269 2484 3300 
L 2466 3763 
Q 2953 3716 3456 3716 
Q 3738 3716 4091 3738 
L 4066 4875 
z
M 4141 1153 
Q 3753 1259 3513 1259 
Q 2841 1259 2841 850 
Q 2841 422 3634 422 
Q 3888 422 4022 569 
Q 4141 700 4141 922 
Q 4141 1088 4141 1153 
z
M 1000 -50 
Q 794 1072 794 1931 
Q 794 3153 1247 4884 
L 1728 4763 
Q 1269 3044 1269 1900 
Q 1269 1569 1306 1106 
Q 1591 1706 1753 1997 
L 2075 1806 
Q 1484 716 1484 141 
Q 1484 72 1491 0 
L 1000 -50 
z
" transform="scale(0.015625)"/>
     </defs>
     <use xlink:href="#IPAexGothic-45"/>
     <use xlink:href="#IPAexGothic-44" x="59.521484"/>
     <use xlink:href="#IPAexGothic-41" x="135.205078"/>
     <use xlink:href="#IPAexGothic-ff08" x="198.925781"/>
     <use xlink:href="#IPAexGothic-63a2" x="298.925781"/>
     <use xlink:href="#IPAexGothic-7d22" x="398.925781"/>
     <use xlink:href="#IPAexGothic-7684" x="498.925781"/>
     <use xlink:href="#IPAexGothic-30c7" x="598.925781"/>
     <use xlink:href="#IPAexGothic-30fc" x="698.925781"/>
     <use xlink:href="#IPAexGothic-30bf" x="798.925781"/>
     <use xlink:href="#IPAexGothic-5206" x="898.925781"/>
     <use xlink:href="#IPAexGothic-6790" x="998.925781"/>
     <use xlink:href="#IPAexGothic-ff09" x="1098.925781"/>
     <use xlink:href="#IPAexGothic-3068" x="1198.925781"/>
     <use xlink:href="#IPAexGothic-306f" x="1298.925781"/>
    </g>
   </g>
   <g id="text_3">
    <!-- モデルを作る前に、データの 特徴・傾向・外れ値・相関 を可視化によって把握する作業 -->
    <g style="fill: #1e8449" transform="translate(41.04 90.889453) scale(0.135 -0.135)">
     <defs>
      <path id="IPAexGothic-30e2" d="M 1216 4409 
L 5147 4409 
L 5147 3950 
L 3053 3950 
L 3053 2797 
L 5644 2797 
L 5644 2328 
L 3053 2328 
L 3053 972 
Q 3053 669 3272 600 
Q 3453 544 4013 544 
Q 4556 544 5269 600 
L 5269 97 
Q 4684 50 4147 50 
Q 3025 50 2753 250 
Q 2541 403 2541 825 
L 2541 2328 
L 744 2328 
L 744 2797 
L 2541 2797 
L 2541 3950 
L 1216 3950 
L 1216 4409 
z
" transform="scale(0.015625)"/>
      <path id="IPAexGothic-30eb" d="M 353 331 
Q 1313 994 1544 2022 
Q 1684 2650 1684 4397 
L 2203 4397 
L 2203 4153 
L 2203 4116 
Q 2203 2259 1934 1491 
Q 1619 588 744 -38 
L 353 331 
z
M 3125 4666 
L 3650 4666 
L 3650 769 
Q 4875 1488 5672 2734 
L 6000 2278 
Q 5075 966 3516 63 
L 3125 359 
L 3125 4666 
z
" transform="scale(0.015625)"/>
      <path id="IPAexGothic-3092" d="M 1094 4263 
Q 1544 4222 2359 4222 
Q 2581 4734 2700 5163 
L 3175 5028 
Q 2997 4538 2859 4256 
Q 3516 4284 4294 4459 
L 4356 4019 
Q 3603 3869 2656 3819 
Q 2391 3284 2059 2797 
Q 2531 3200 2963 3200 
Q 3638 3200 3859 2378 
Q 4556 2681 5338 2950 
L 5575 2528 
Q 4641 2253 3941 1956 
Q 3981 1678 3994 1028 
L 3513 991 
Q 3513 1456 3494 1753 
Q 2388 1194 2388 716 
Q 2388 428 2753 328 
Q 3066 241 3806 241 
Q 4394 241 5178 344 
L 5216 -128 
Q 4434 -213 3653 -213 
Q 2656 -213 2244 41 
Q 1913 244 1913 631 
Q 1913 1094 2344 1497 
Q 2709 1841 3428 2181 
Q 3266 2797 2878 2797 
Q 2238 2797 1209 1419 
L 838 1694 
Q 1625 2716 2163 3800 
Q 1522 3800 1088 3825 
L 1094 4263 
z
" transform="scale(0.015625)"/>
      <path id="IPAexGothic-4f5c" d="M 3609 3834 
L 3231 3834 
Q 2869 2822 2297 2038 
L 1963 2381 
Q 2797 3513 3153 5275 
L 3616 5184 
Q 3506 4656 3378 4256 
L 5984 4256 
L 5984 3834 
L 4078 3834 
L 4078 2906 
L 5678 2906 
L 5678 2484 
L 4078 2484 
L 4078 1563 
L 5775 1563 
L 5775 1147 
L 4078 1147 
L 4078 -447 
L 3609 -447 
L 3609 3834 
z
M 1734 3725 
L 1734 -447 
L 1275 -447 
L 1275 2797 
L 1250 2747 
Q 984 2284 647 1850 
L 372 2234 
Q 1309 3481 1747 5203 
L 2219 5081 
Q 2028 4406 1734 3725 
z
" transform="scale(0.015625)"/>
      <path id="IPAexGothic-308b" d="M 4391 4397 
L 2613 2588 
Q 3225 2809 3759 2809 
Q 4263 2809 4659 2625 
Q 5391 2269 5391 1484 
Q 5391 756 4706 275 
Q 4072 -166 3053 -166 
Q 2559 -166 2247 19 
Q 1863 250 1863 666 
Q 1863 934 2069 1141 
Q 2331 1403 2741 1403 
Q 3509 1403 4019 428 
Q 4872 784 4872 1491 
Q 4872 1981 4469 2222 
Q 4166 2406 3681 2406 
Q 2425 2406 1238 1209 
L 891 1581 
Q 2438 2934 3578 4281 
Q 2594 4125 1588 4066 
L 1478 4550 
Q 2594 4581 4109 4763 
L 4391 4397 
z
M 3591 303 
Q 3244 1025 2731 1025 
Q 2553 1025 2434 934 
Q 2316 844 2316 700 
Q 2316 250 3034 250 
Q 3275 250 3591 303 
z
" transform="scale(0.015625)"/>
      <path id="IPAexGothic-524d" d="M 3653 4281 
Q 3913 4741 4134 5319 
L 4638 5184 
Q 4453 4769 4153 4281 
L 6078 4281 
L 6078 3872 
L 319 3872 
L 319 4281 
L 3653 4281 
z
M 3006 3366 
L 3006 25 
Q 3006 -219 2897 -306 
Q 2797 -391 2522 -391 
Q 2294 -391 1938 -359 
L 1881 84 
Q 2178 25 2413 25 
Q 2578 25 2578 172 
L 2578 1031 
L 1228 1031 
L 1228 -447 
L 794 -447 
L 794 3366 
L 3006 3366 
z
M 1228 2981 
L 1228 2394 
L 2578 2394 
L 2578 2981 
L 1228 2981 
z
M 1228 2022 
L 1228 1403 
L 2578 1403 
L 2578 2022 
L 1228 2022 
z
M 2131 4294 
Q 1934 4769 1656 5106 
L 2078 5300 
Q 2353 4959 2584 4500 
L 2131 4294 
z
M 3834 3238 
L 4275 3238 
L 4275 684 
L 3834 684 
L 3834 3238 
z
M 5147 3425 
L 5600 3425 
L 5600 97 
Q 5600 -172 5497 -275 
Q 5384 -409 5013 -409 
Q 4634 -409 4169 -359 
L 4109 97 
Q 4550 19 4934 19 
Q 5147 19 5147 231 
L 5147 3425 
z
" transform="scale(0.015625)"/>
      <path id="IPAexGothic-306b" d="M 1088 -38 
Q 922 1003 922 2081 
Q 922 3222 1331 4794 
L 1813 4684 
Q 1391 3113 1391 2003 
Q 1391 1441 1422 1147 
Q 1434 1181 1813 2016 
L 2125 1797 
Q 1800 1081 1691 763 
Q 1581 453 1581 269 
Q 1581 78 1588 6 
L 1088 -38 
z
M 2834 4038 
Q 3969 4213 5313 4172 
L 5338 3681 
Q 3959 3728 2869 3547 
L 2834 4038 
z
M 5650 256 
Q 5044 172 4372 172 
Q 3463 172 3047 434 
Q 2784 594 2675 841 
Q 2572 1075 2572 1447 
Q 2572 1563 2578 1656 
L 3053 1684 
Q 3050 1613 3044 1528 
Q 3041 1481 3041 1466 
Q 3041 1200 3119 1053 
Q 3178 944 3309 850 
Q 3569 678 4275 678 
Q 4891 678 5588 763 
L 5650 256 
z
" transform="scale(0.015625)"/>
      <path id="IPAexGothic-3001" d="M 1325 -409 
Q 859 319 281 856 
L 691 1209 
Q 1225 734 1772 -25 
L 1325 -409 
z
" transform="scale(0.015625)"/>
      <path id="IPAexGothic-306e" d="M 3119 469 
Q 5275 766 5275 2425 
Q 5275 3453 4413 3925 
Q 4041 4116 3547 4159 
Q 3394 2525 2850 1400 
Q 2322 306 1722 306 
Q 1384 306 1084 666 
Q 609 1244 609 2003 
Q 609 3025 1397 3794 
Q 2184 4563 3431 4563 
Q 4306 4563 4928 4122 
Q 5813 3506 5813 2425 
Q 5813 438 3431 6 
L 3119 469 
z
M 3053 4147 
Q 2378 4044 1891 3641 
Q 1097 2981 1097 1991 
Q 1097 1366 1434 978 
Q 1581 813 1719 813 
Q 2022 813 2416 1625 
Q 2909 2638 3053 4147 
z
" transform="scale(0.015625)"/>
      <path id="IPAexGothic-7279" d="M 1025 3950 
L 1434 3950 
L 1434 5313 
L 1875 5313 
L 1875 3950 
L 2534 3950 
L 2534 3547 
L 1875 3547 
L 1875 2216 
Q 2084 2313 2494 2516 
L 2547 2106 
Q 2281 1963 1856 1750 
L 1856 -447 
L 1416 -447 
L 1416 1538 
Q 1028 1359 538 1153 
L 313 1581 
Q 778 1744 1434 2019 
L 1434 3547 
L 947 3547 
Q 828 3013 647 2556 
L 275 2803 
Q 584 3600 691 4744 
L 1131 4688 
Q 1091 4291 1025 3950 
z
M 3872 4372 
L 3872 5313 
L 4313 5313 
L 4313 4372 
L 5738 4372 
L 5738 3981 
L 4313 3981 
L 4313 3200 
L 6072 3200 
L 6072 2803 
L 5106 2803 
L 5106 2047 
L 5956 2047 
L 5956 1650 
L 5125 1650 
L 5125 38 
Q 5125 -447 4594 -447 
Q 4288 -447 3788 -391 
L 3691 78 
Q 4181 0 4491 0 
Q 4684 0 4684 172 
L 4684 1650 
L 2609 1650 
L 2609 2047 
L 4666 2047 
L 4666 2803 
L 2400 2803 
L 2400 3200 
L 3872 3200 
L 3872 3981 
L 2653 3981 
L 2653 4372 
L 3872 4372 
z
M 3550 384 
Q 3216 959 2834 1331 
L 3172 1575 
Q 3641 1116 3916 672 
L 3550 384 
z
" transform="scale(0.015625)"/>
      <path id="IPAexGothic-5fb4" d="M 5656 3775 
L 5656 3697 
Q 5597 2178 5228 1188 
Q 5678 478 6181 31 
L 5900 -419 
Q 5375 125 5016 741 
Q 4591 -3 3941 -500 
L 3616 -138 
Q 4372 331 4788 1163 
Q 4441 1838 4269 2759 
Q 4131 2388 3953 2078 
L 3697 2413 
L 3072 2413 
L 3072 1784 
L 3788 1784 
L 3788 1425 
L 3072 1425 
L 3072 747 
Q 3600 866 4063 1003 
L 4081 625 
Q 3147 297 1784 25 
L 1631 459 
Q 2194 553 2656 650 
L 2656 1425 
L 1856 1425 
L 1856 1784 
L 2656 1784 
L 2656 2413 
L 1663 2413 
L 1663 2784 
L 3838 2784 
Q 4222 3697 4422 5259 
L 4844 5197 
Q 4775 4688 4672 4178 
L 6059 4178 
L 6059 3775 
L 5656 3775 
z
M 5253 3775 
L 4575 3775 
Q 4516 3525 4497 3463 
L 4509 3391 
Q 4638 2475 4966 1700 
Q 5188 2516 5253 3775 
z
M 1372 2950 
L 1372 -447 
L 950 -447 
L 950 2328 
Q 728 2038 419 1716 
L 194 2088 
Q 944 2819 1453 3981 
L 1825 3803 
Q 1631 3384 1372 2950 
z
M 3088 3700 
L 3484 3700 
L 3484 4819 
L 3875 4819 
L 3875 3334 
L 1916 3334 
L 1916 4819 
L 2306 4819 
L 2306 3700 
L 2684 3700 
L 2684 5313 
L 3088 5313 
L 3088 3700 
z
M 256 3884 
Q 916 4419 1350 5203 
L 1716 5013 
Q 1300 4234 513 3547 
L 256 3884 
z
" transform="scale(0.015625)"/>
      <path id="IPAexGothic-50be" d="M 4653 4025 
L 5741 4025 
L 5741 794 
L 3509 794 
L 3509 4025 
L 4263 4025 
L 4291 4122 
Q 4344 4366 4391 4659 
L 3100 4659 
L 3100 5056 
L 6047 5056 
L 6047 4659 
L 4838 4659 
Q 4831 4603 4800 4506 
Q 4691 4128 4653 4025 
z
M 5331 3653 
L 3913 3653 
L 3913 3078 
L 5331 3078 
L 5331 3653 
z
M 3913 2713 
L 3913 2138 
L 5331 2138 
L 5331 2713 
L 3913 2713 
z
M 3913 1778 
L 3913 1166 
L 5331 1166 
L 5331 1778 
L 3913 1778 
z
M 1400 3725 
L 1400 -447 
L 966 -447 
L 966 2694 
Q 759 2284 478 1863 
L 244 2259 
Q 1028 3500 1388 5306 
L 1816 5203 
Q 1622 4353 1400 3725 
z
M 2291 3059 
Q 2684 3319 3000 3656 
L 3269 3297 
Q 2838 2906 2291 2613 
L 2291 1044 
Q 2291 825 2534 825 
Q 2769 825 2797 1038 
Q 2831 1353 2841 1775 
L 3244 1647 
Q 3234 694 3066 544 
Q 2925 403 2450 403 
Q 2138 403 2009 494 
Q 1881 581 1881 841 
L 1881 4544 
L 2291 4544 
L 2291 3059 
z
M 2975 -191 
Q 3656 200 4097 756 
L 4450 538 
Q 3916 -128 3309 -506 
L 2975 -191 
z
M 5794 -428 
Q 5278 163 4806 525 
L 5134 769 
Q 5613 434 6150 -122 
L 5794 -428 
z
" transform="scale(0.015625)"/>
      <path id="IPAexGothic-5411" d="M 4409 3034 
L 4409 1044 
L 2378 1044 
L 2378 591 
L 1938 591 
L 1938 3034 
L 4409 3034 
z
M 3969 2638 
L 2378 2638 
L 2378 1441 
L 3969 1441 
L 3969 2638 
z
M 2559 4275 
Q 2731 4803 2803 5306 
L 3347 5197 
Q 3200 4681 3028 4275 
L 5709 4275 
L 5709 206 
Q 5709 -128 5538 -241 
Q 5388 -331 5028 -331 
Q 4484 -331 4038 -294 
L 3922 206 
Q 4491 128 4934 128 
Q 5234 128 5234 409 
L 5234 3872 
L 1159 3872 
L 1159 -453 
L 684 -453 
L 684 4275 
L 2559 4275 
z
" transform="scale(0.015625)"/>
      <path id="IPAexGothic-5916" d="M 3306 3503 
Q 3647 3125 4075 2747 
L 4075 5088 
L 4563 5088 
L 4563 2369 
Q 4600 2344 4631 2325 
Q 5250 1891 6078 1594 
L 5791 1141 
Q 5144 1409 4563 1806 
L 4563 -397 
L 4075 -397 
L 4075 2178 
Q 3575 2609 3209 3053 
Q 2975 2078 2703 1550 
Q 2100 344 1022 -447 
L 644 -69 
Q 1581 519 2269 1747 
L 2281 1775 
Q 1903 2209 1394 2644 
Q 1109 2184 706 1734 
L 388 2081 
Q 1538 3406 1797 5184 
L 2269 5069 
Q 2197 4725 2141 4506 
L 3141 4506 
L 3422 4281 
Q 3372 3863 3306 3503 
z
M 2494 2234 
L 2513 2291 
Q 2806 3078 2922 4091 
L 2025 4091 
Q 1841 3500 1591 3009 
Q 2072 2653 2494 2234 
z
" transform="scale(0.015625)"/>
      <path id="IPAexGothic-308c" d="M 538 3694 
Q 1275 3791 1800 3903 
L 1838 5006 
L 2316 5006 
L 2253 4006 
L 2619 3675 
Q 2428 3425 2247 3144 
Q 2241 3084 2241 2869 
Q 3341 4031 4134 4031 
Q 4856 4031 4856 3309 
Q 4856 3047 4794 2491 
Q 4719 1747 4719 1044 
Q 4719 672 4922 672 
Q 5084 672 5263 788 
Q 5613 1034 5850 1491 
L 6131 1025 
Q 5856 641 5600 447 
Q 5238 166 4866 166 
Q 4244 166 4244 1100 
Q 4244 1519 4350 2956 
Q 4369 3181 4369 3238 
Q 4369 3434 4297 3513 
Q 4231 3584 4081 3584 
Q 3438 3584 2228 2291 
Q 2222 1931 2222 1478 
Q 2222 753 2241 -159 
L 1747 -159 
Q 1747 1241 1753 1734 
Q 1544 1466 928 647 
L 531 991 
Q 1603 2291 1772 2478 
Q 1772 3038 1791 3469 
Q 1128 3284 653 3194 
L 538 3694 
z
" transform="scale(0.015625)"/>
      <path id="IPAexGothic-5024" d="M 4172 3675 
L 5453 3675 
L 5453 684 
L 3019 684 
L 3019 3675 
L 3750 3675 
Q 3788 3884 3825 4153 
L 2141 4153 
L 2141 4544 
L 3884 4544 
Q 3922 4844 3966 5325 
L 4434 5272 
L 4388 4953 
Q 4331 4578 4331 4544 
L 5863 4544 
L 5863 4153 
L 4269 4153 
Q 4200 3781 4172 3675 
z
M 5038 3316 
L 3434 3316 
L 3434 2803 
L 5038 2803 
L 5038 3316 
z
M 3434 2450 
L 3434 1941 
L 5038 1941 
L 5038 2450 
L 3434 2450 
z
M 3434 1588 
L 3434 1044 
L 5038 1044 
L 5038 1588 
L 3434 1588 
z
M 1509 3669 
L 1509 -447 
L 1069 -447 
L 1069 2725 
Q 856 2338 531 1875 
L 288 2266 
Q 1163 3531 1541 5325 
L 1975 5222 
Q 1791 4378 1509 3669 
z
M 2488 244 
L 6031 244 
L 6031 -153 
L 2488 -153 
L 2488 -447 
L 2059 -447 
L 2059 3213 
L 2488 3213 
L 2488 244 
z
" transform="scale(0.015625)"/>
      <path id="IPAexGothic-76f8" d="M 1388 2691 
L 1369 2631 
Q 1075 1622 556 781 
L 275 1250 
Q 1006 2284 1316 3541 
L 409 3541 
L 409 3956 
L 1388 3956 
L 1388 5300 
L 1828 5300 
L 1828 3956 
L 2725 3956 
L 2725 3541 
L 1828 3541 
L 1828 2925 
Q 2456 2400 2819 1978 
L 2550 1519 
Q 2238 1963 1828 2422 
L 1828 -447 
L 1388 -447 
L 1388 2691 
z
M 5803 4884 
L 5803 -331 
L 5369 -331 
L 5369 116 
L 3409 116 
L 3409 -331 
L 2981 -331 
L 2981 4884 
L 5803 4884 
z
M 3409 4488 
L 3409 3450 
L 5369 3450 
L 5369 4488 
L 3409 4488 
z
M 3409 3066 
L 3409 2022 
L 5369 2022 
L 5369 3066 
L 3409 3066 
z
M 3409 1638 
L 3409 506 
L 5369 506 
L 5369 1638 
L 3409 1638 
z
" transform="scale(0.015625)"/>
      <path id="IPAexGothic-95a2" d="M 2919 5063 
L 2919 3288 
L 1016 3288 
L 1016 -450 
L 569 -450 
L 569 5063 
L 2919 5063 
z
M 1016 4709 
L 1016 4331 
L 2509 4331 
L 2509 4709 
L 1016 4709 
z
M 1016 4019 
L 1016 3628 
L 2509 3628 
L 2509 4019 
L 1016 4019 
z
M 5822 5063 
L 5822 44 
Q 5822 -409 5297 -409 
Q 4956 -409 4672 -366 
L 4594 97 
Q 4841 31 5156 31 
Q 5369 31 5369 244 
L 5369 3288 
L 3422 3288 
L 3422 5063 
L 5822 5063 
z
M 3831 4709 
L 3831 4331 
L 5369 4331 
L 5369 4709 
L 3831 4709 
z
M 3831 4019 
L 3831 3628 
L 5369 3628 
L 5369 4019 
L 3831 4019 
z
M 2425 2478 
Q 2328 2713 2150 2975 
L 2559 3122 
Q 2709 2866 2859 2478 
L 3525 2478 
Q 3716 2847 3806 3147 
L 4256 3022 
Q 4084 2669 3953 2478 
L 4766 2478 
L 4766 2113 
L 3391 2113 
L 3391 1672 
L 4928 1672 
L 4928 1300 
L 3366 1300 
Q 3363 1263 3334 1141 
Q 4016 863 4734 409 
L 4428 34 
Q 3888 441 3281 763 
Q 3278 766 3241 788 
Q 3225 797 3219 800 
Q 2881 100 1875 -256 
L 1588 122 
Q 2769 409 2931 1300 
L 1466 1300 
L 1466 1672 
L 2963 1672 
L 2963 2113 
L 1625 2113 
L 1625 2478 
L 2425 2478 
z
" transform="scale(0.015625)"/>
      <path id="IPAexGothic-3088" d="M 2784 5019 
L 3272 5019 
Q 3247 4378 3272 3647 
Q 4184 3719 4850 3903 
L 4997 3431 
Q 4369 3291 3272 3200 
Q 3288 2366 3378 1550 
Q 4134 1353 5344 647 
L 5031 213 
Q 4244 759 3406 1044 
L 3413 891 
Q 3434 359 3122 84 
Q 2863 -141 2272 -141 
Q 1641 -141 1272 116 
Q 934 350 934 738 
Q 934 1294 1500 1534 
Q 1841 1678 2278 1678 
Q 2581 1678 2906 1631 
Q 2813 2559 2784 5019 
z
M 2931 1178 
Q 2613 1244 2369 1244 
Q 1422 1244 1422 794 
Q 1422 300 2278 300 
Q 2956 300 2938 934 
L 2931 1178 
z
" transform="scale(0.015625)"/>
      <path id="IPAexGothic-3063" d="M 1113 2656 
Q 2778 3103 3709 3103 
Q 4359 3103 4734 2778 
Q 5150 2409 5150 1803 
Q 5150 247 2456 25 
L 2231 494 
Q 3425 541 4028 878 
Q 4663 1231 4663 1806 
Q 4663 2681 3647 2681 
Q 2834 2681 1319 2203 
L 1113 2656 
z
" transform="scale(0.015625)"/>
      <path id="IPAexGothic-3066" d="M 581 4034 
Q 2978 4363 5466 4556 
L 5509 4097 
Q 4388 4031 3750 3572 
Q 2797 2878 2797 1913 
Q 2797 1169 3291 819 
Q 3778 484 4869 416 
L 4906 -116 
Q 2278 0 2278 1850 
Q 2278 3125 3691 4000 
Q 2066 3784 684 3553 
L 581 4034 
z
" transform="scale(0.015625)"/>
      <path id="IPAexGothic-628a" d="M 3072 2234 
L 3072 500 
Q 3072 231 3263 172 
Q 3438 122 4203 122 
Q 5134 122 5313 206 
Q 5438 263 5484 463 
Q 5528 641 5566 1159 
L 6028 1019 
Q 5941 6 5688 -172 
Q 5469 -325 4209 -325 
Q 3209 -325 2950 -234 
Q 2619 -113 2619 300 
L 2619 4831 
L 5638 4831 
L 5638 1903 
L 5184 1903 
L 5184 2234 
L 3072 2234 
z
M 3072 2631 
L 3891 2631 
L 3891 4434 
L 3072 4434 
L 3072 2631 
z
M 5184 4434 
L 4338 4434 
L 4338 2631 
L 5184 2631 
L 5184 4434 
z
M 1184 4013 
L 1184 5247 
L 1613 5247 
L 1613 4013 
L 2328 4013 
L 2328 3597 
L 1613 3597 
L 1613 2381 
L 1669 2394 
Q 1928 2472 2400 2625 
L 2425 2259 
Q 2088 2131 1613 1972 
L 1613 56 
Q 1613 -222 1491 -306 
Q 1381 -397 1094 -397 
Q 750 -397 525 -353 
L 447 109 
Q 722 44 978 44 
Q 1184 44 1184 231 
L 1184 1838 
Q 906 1753 403 1619 
L 275 2047 
Q 781 2150 1094 2241 
Q 1159 2253 1184 2259 
L 1184 3597 
L 378 3597 
L 378 4013 
L 1184 4013 
z
" transform="scale(0.015625)"/>
      <path id="IPAexGothic-63e1" d="M 4513 1734 
L 4513 1094 
L 5844 1094 
L 5844 728 
L 4513 728 
L 4513 66 
L 6066 66 
L 6066 -319 
L 2603 -319 
L 2603 66 
L 4097 66 
L 4097 728 
L 2913 728 
L 2913 1094 
L 4097 1094 
L 4097 1703 
Q 3594 1672 2994 1644 
L 2859 2053 
L 3219 2053 
L 3419 2059 
Q 3638 2425 3816 2791 
L 2731 2791 
L 2731 2700 
Q 2722 1622 2622 966 
Q 2503 194 2097 -503 
L 1766 -172 
Q 2141 472 2244 1350 
Q 2316 1984 2316 2919 
L 2316 4984 
L 5766 4984 
L 5766 3678 
L 2731 3678 
L 2731 3156 
L 5963 3156 
L 5963 2791 
L 4263 2791 
Q 4063 2378 3853 2059 
Q 4303 2069 5159 2106 
Q 4894 2422 4709 2613 
L 5050 2766 
Q 5622 2213 6041 1669 
L 5669 1447 
Q 5519 1659 5394 1816 
Q 5356 1816 5338 1809 
Q 5091 1781 4513 1734 
z
M 5350 4619 
L 2731 4619 
L 2731 4044 
L 5350 4044 
L 5350 4619 
z
M 1119 4019 
L 1119 5313 
L 1534 5313 
L 1534 4019 
L 2109 4019 
L 2109 3616 
L 1534 3616 
L 1534 2375 
Q 1891 2478 2128 2566 
L 2163 2206 
Q 1909 2100 1534 1959 
L 1534 0 
Q 1534 -263 1419 -356 
Q 1309 -447 1028 -447 
Q 716 -447 484 -409 
L 409 44 
Q 684 -6 934 -6 
Q 1119 -6 1119 172 
L 1119 1813 
Q 784 1694 422 1588 
L 269 2022 
Q 484 2072 1119 2247 
L 1119 3616 
L 344 3616 
L 344 4019 
L 1119 4019 
z
" transform="scale(0.015625)"/>
      <path id="IPAexGothic-3059" d="M 3322 5075 
L 3816 5075 
L 3816 4063 
Q 4131 4075 5756 4116 
L 5756 3669 
Q 5431 3672 3816 3653 
L 3816 2463 
Q 3956 2125 3956 1741 
Q 3956 922 3519 397 
Q 3128 -72 2309 -409 
L 1941 -31 
Q 3263 453 3488 1363 
Q 3250 1031 2809 1031 
Q 2441 1031 2150 1313 
Q 1875 1588 1875 2050 
Q 1875 2475 2166 2769 
Q 2431 3041 2822 3041 
Q 3088 3041 3322 2881 
L 3322 3641 
Q 3000 3634 609 3547 
L 609 3988 
Q 1197 4000 2106 4022 
Q 3066 4047 3322 4050 
L 3322 5075 
z
M 3372 2044 
Q 3372 2300 3194 2478 
Q 3050 2613 2869 2613 
Q 2622 2613 2463 2406 
Q 2344 2250 2344 2088 
Q 2344 1797 2484 1622 
Q 2625 1453 2859 1453 
Q 3372 1453 3372 2044 
z
" transform="scale(0.015625)"/>
      <path id="IPAexGothic-696d" d="M 3397 2738 
L 3397 2350 
L 5328 2350 
L 5328 1984 
L 3397 1984 
L 3397 1594 
L 6016 1594 
L 6016 1209 
L 3831 1209 
Q 4706 509 6078 134 
L 5759 -288 
Q 4253 222 3397 1125 
L 3397 -447 
L 2956 -447 
L 2956 1106 
Q 2038 31 594 -416 
L 281 -38 
Q 1663 334 2566 1209 
L 384 1209 
L 384 1594 
L 2956 1594 
L 2956 1984 
L 1063 1984 
L 1063 2350 
L 2956 2350 
L 2956 2738 
L 769 2738 
L 769 3109 
L 2228 3109 
Q 2069 3519 1900 3769 
L 441 3769 
L 441 4141 
L 2413 4141 
L 2413 5313 
L 2853 5313 
L 2853 4141 
L 3500 4141 
L 3500 5313 
L 3941 5313 
L 3941 4141 
L 5950 4141 
L 5950 3769 
L 4447 3769 
Q 4294 3413 4106 3109 
L 5625 3109 
L 5625 2738 
L 3397 2738 
z
M 2406 3769 
Q 2581 3447 2694 3109 
L 3653 3109 
Q 3856 3463 3953 3769 
L 2406 3769 
z
M 1528 4166 
Q 1334 4656 1056 4984 
L 1484 5166 
Q 1728 4856 1966 4353 
L 1528 4166 
z
M 4366 4306 
Q 4678 4828 4819 5228 
L 5288 5069 
Q 5066 4606 4775 4166 
L 4366 4306 
z
" transform="scale(0.015625)"/>
     </defs>
     <use xlink:href="#IPAexGothic-30e2"/>
     <use xlink:href="#IPAexGothic-30c7" x="100"/>
     <use xlink:href="#IPAexGothic-30eb" x="200"/>
     <use xlink:href="#IPAexGothic-3092" x="300"/>
     <use xlink:href="#IPAexGothic-4f5c" x="400"/>
     <use xlink:href="#IPAexGothic-308b" x="500"/>
     <use xlink:href="#IPAexGothic-524d" x="600"/>
     <use xlink:href="#IPAexGothic-306b" x="700"/>
     <use xlink:href="#IPAexGothic-3001" x="800"/>
     <use xlink:href="#IPAexGothic-30c7" x="900"/>
     <use xlink:href="#IPAexGothic-30fc" x="1000"/>
     <use xlink:href="#IPAexGothic-30bf" x="1100"/>
     <use xlink:href="#IPAexGothic-306e" x="1200"/>
     <use xlink:href="#IPAexGothic-20" x="1300"/>
     <use xlink:href="#IPAexGothic-7279" x="1327.001953"/>
     <use xlink:href="#IPAexGothic-5fb4" x="1427.001953"/>
     <use xlink:href="#IPAexGothic-30fb" x="1527.001953"/>
     <use xlink:href="#IPAexGothic-50be" x="1627.001953"/>
     <use xlink:href="#IPAexGothic-5411" x="1727.001953"/>
     <use xlink:href="#IPAexGothic-30fb" x="1827.001953"/>
     <use xlink:href="#IPAexGothic-5916" x="1927.001953"/>
     <use xlink:href="#IPAexGothic-308c" x="2027.001953"/>
     <use xlink:href="#IPAexGothic-5024" x="2127.001953"/>
     <use xlink:href="#IPAexGothic-30fb" x="2227.001953"/>
     <use xlink:href="#IPAexGothic-76f8" x="2327.001953"/>
     <use xlink:href="#IPAexGothic-95a2" x="2427.001953"/>
     <use xlink:href="#IPAexGothic-20" x="2527.001953"/>
     <use xlink:href="#IPAexGothic-3092" x="2554.003906"/>
     <use xlink:href="#IPAexGothic-53ef" x="2654.003906"/>
     <use xlink:href="#IPAexGothic-8996" x="2754.003906"/>
     <use xlink:href="#IPAexGothic-5316" x="2854.003906"/>
     <use xlink:href="#IPAexGothic-306b" x="2954.003906"/>
     <use xlink:href="#IPAexGothic-3088" x="3054.003906"/>
     <use xlink:href="#IPAexGothic-3063" x="3154.003906"/>
     <use xlink:href="#IPAexGothic-3066" x="3254.003906"/>
     <use xlink:href="#IPAexGothic-628a" x="3354.003906"/>
     <use xlink:href="#IPAexGothic-63e1" x="3454.003906"/>
     <use xlink:href="#IPAexGothic-3059" x="3554.003906"/>
     <use xlink:href="#IPAexGothic-308b" x="3654.003906"/>
     <use xlink:href="#IPAexGothic-4f5c" x="3754.003906"/>
     <use xlink:href="#IPAexGothic-696d" x="3854.003906"/>
    </g>
   </g>
   <g id="text_4">
    <!-- ❌ EDA をしないと… -->
    <g style="fill: #c0392b" transform="translate(43.2 126.65) scale(0.13 -0.13)">
     <defs>
      <path id="IPAexGothic-274c" d="M 5759 -641 
L 641 -641 
L 641 5503 
L 5759 5503 
L 5759 -641 
z
M 5216 5172 
L 1191 5172 
L 3206 2694 
L 5216 5172 
z
M 5428 -53 
L 5428 4903 
L 3419 2425 
L 5428 -53 
z
M 2988 2425 
L 972 4916 
L 972 -59 
L 2988 2425 
z
M 5209 -309 
L 3206 2163 
L 1197 -309 
L 5209 -309 
z
" transform="scale(0.015625)"/>
      <path id="IPAexGothic-3057" d="M 1750 4884 
L 2281 4884 
L 2238 1319 
Q 2228 809 2391 569 
Q 2594 281 3128 281 
Q 3772 281 4344 744 
Q 4822 1131 5156 1759 
L 5534 1369 
Q 5094 653 4534 263 
Q 3878 -206 3134 -206 
Q 2341 -206 1994 213 
Q 1697 575 1706 1269 
L 1750 4884 
z
" transform="scale(0.015625)"/>
      <path id="IPAexGothic-306a" d="M 3906 3147 
L 4372 3147 
Q 4381 2278 4444 1272 
Q 5244 1003 5838 631 
L 5556 222 
Q 4953 600 4463 813 
Q 4478 263 4234 22 
Q 3984 -225 3419 -225 
Q 2897 -225 2563 0 
Q 2216 231 2216 647 
Q 2216 1081 2656 1319 
Q 2959 1484 3297 1484 
Q 3638 1484 3969 1413 
Q 3916 2219 3906 3147 
z
M 3975 984 
Q 3631 1081 3297 1081 
Q 3031 1081 2856 978 
Q 2663 863 2663 653 
Q 2663 197 3400 197 
Q 3750 197 3875 378 
Q 3997 556 3975 984 
z
M 738 3928 
Q 1453 3884 1997 3938 
Q 2144 4381 2294 5125 
L 2784 5050 
Q 2684 4559 2516 3988 
Q 2969 4031 3559 4172 
L 3578 3713 
Q 2919 3575 2375 3531 
Q 1853 2028 1044 831 
L 603 1113 
Q 1325 2063 1856 3488 
Q 1063 3459 763 3475 
L 738 3928 
z
M 5538 2759 
Q 5000 3353 4263 3853 
L 4591 4191 
Q 5338 3728 5897 3128 
L 5538 2759 
z
" transform="scale(0.015625)"/>
      <path id="IPAexGothic-3044" d="M 3369 1447 
Q 2906 122 2278 122 
Q 1966 122 1647 481 
Q 1209 966 1044 1966 
Q 891 2888 891 4313 
L 1422 4313 
Q 1413 2444 1666 1550 
Q 1913 678 2278 678 
Q 2619 678 2925 1791 
L 3369 1447 
z
M 5378 1294 
Q 4928 2797 4034 3809 
L 4488 4031 
Q 5375 3000 5881 1563 
L 5378 1294 
z
" transform="scale(0.015625)"/>
      <path id="IPAexGothic-2026" d="M 703 2791 
L 1419 2791 
L 1419 2075 
L 703 2075 
L 703 2791 
z
M 2834 2791 
L 3550 2791 
L 3550 2075 
L 2834 2075 
L 2834 2791 
z
M 4966 2791 
L 5681 2791 
L 5681 2075 
L 4966 2075 
L 4966 2791 
z
" transform="scale(0.015625)"/>
     </defs>
     <use xlink:href="#IPAexGothic-274c"/>
     <use xlink:href="#IPAexGothic-20" x="100"/>
     <use xlink:href="#IPAexGothic-45" x="127.001953"/>
     <use xlink:href="#IPAexGothic-44" x="186.523438"/>
     <use xlink:href="#IPAexGothic-41" x="262.207031"/>
     <use xlink:href="#IPAexGothic-20" x="325.927734"/>
     <use xlink:href="#IPAexGothic-3092" x="352.929688"/>
     <use xlink:href="#IPAexGothic-3057" x="452.929688"/>
     <use xlink:href="#IPAexGothic-306a" x="552.929688"/>
     <use xlink:href="#IPAexGothic-3044" x="652.929688"/>
     <use xlink:href="#IPAexGothic-3068" x="752.929688"/>
     <use xlink:href="#IPAexGothic-2026" x="852.929688"/>
    </g>
   </g>
   <g id="text_5">
    <!-- ・データの異常に気づかない -->
    <g style="fill: #2c3e50" transform="translate(47.52 144.091016) scale(0.115 -0.115)">
     <defs>
      <path id="IPAexGothic-7570" d="M 4369 2828 
L 4369 2216 
L 5616 2216 
L 5616 1844 
L 4369 1844 
L 4369 1247 
L 6078 1247 
L 6078 863 
L 313 863 
L 313 1247 
L 1975 1247 
L 1975 1844 
L 772 1844 
L 772 2216 
L 1975 2216 
L 1975 2828 
L 1094 2828 
L 1094 5025 
L 5297 5025 
L 5297 2828 
L 4369 2828 
z
M 3922 2828 
L 2428 2828 
L 2428 2216 
L 3922 2216 
L 3922 2828 
z
M 3922 1844 
L 2428 1844 
L 2428 1247 
L 3922 1247 
L 3922 1844 
z
M 1534 4659 
L 1534 4109 
L 2959 4109 
L 2959 4659 
L 1534 4659 
z
M 1534 3756 
L 1534 3181 
L 2959 3181 
L 2959 3756 
L 1534 3756 
z
M 4856 3181 
L 4856 3756 
L 3391 3756 
L 3391 3181 
L 4856 3181 
z
M 4856 4109 
L 4856 4659 
L 3391 4659 
L 3391 4109 
L 4856 4109 
z
M 394 -97 
Q 1472 225 2225 750 
L 2641 488 
Q 1778 -116 741 -506 
L 394 -97 
z
M 5456 -397 
Q 4619 75 3588 488 
L 3978 769 
Q 4909 475 5859 13 
L 5456 -397 
z
" transform="scale(0.015625)"/>
      <path id="IPAexGothic-5e38" d="M 2944 1697 
L 2944 2150 
L 1534 2150 
L 1534 3475 
L 4856 3475 
L 4856 2150 
L 3413 2150 
L 3413 1697 
L 5459 1697 
L 5459 359 
Q 5459 -122 4888 -122 
Q 4506 -122 4184 -84 
L 4109 384 
Q 4428 319 4772 319 
Q 5006 319 5006 550 
L 5006 1313 
L 3413 1313 
L 3413 -453 
L 2944 -453 
L 2944 1313 
L 1413 1313 
L 1413 -197 
L 959 -197 
L 959 1697 
L 2944 1697 
z
M 1991 2522 
L 4403 2522 
L 4403 3097 
L 1991 3097 
L 1991 2522 
z
M 1784 4238 
Q 1550 4672 1328 4947 
L 1741 5172 
Q 2038 4825 2259 4409 
L 1963 4238 
L 2944 4238 
L 2944 5313 
L 3413 5313 
L 3413 4238 
L 3988 4238 
Q 4306 4725 4481 5184 
L 4953 4994 
Q 4747 4566 4506 4238 
L 5803 4238 
L 5803 3009 
L 5350 3009 
L 5350 3853 
L 1034 3853 
L 1034 3009 
L 581 3009 
L 581 4238 
L 1784 4238 
z
" transform="scale(0.015625)"/>
      <path id="IPAexGothic-6c17" d="M 1863 4659 
L 5594 4659 
L 5594 4263 
L 1672 4263 
Q 1306 3572 831 3059 
L 531 3397 
Q 1266 4181 1600 5288 
L 2069 5203 
Q 1981 4941 1863 4659 
z
M 5000 2950 
L 5006 2400 
Q 5025 1044 5222 466 
Q 5328 184 5394 184 
Q 5513 184 5638 1191 
L 6047 916 
Q 5847 -450 5422 -450 
Q 5128 -450 4856 147 
Q 4550 819 4550 2381 
L 4550 2553 
L 672 2553 
L 672 2950 
L 5000 2950 
z
M 2388 1106 
Q 1741 1553 1069 1875 
L 1350 2188 
Q 1991 1878 2606 1478 
L 2669 1441 
Q 3034 1894 3250 2431 
L 3681 2241 
Q 3403 1634 3047 1184 
Q 3672 744 4269 231 
L 3944 -128 
Q 3384 391 2759 844 
Q 2031 50 928 -372 
L 653 31 
Q 1728 403 2356 1069 
L 2388 1106 
z
M 1516 3822 
L 4991 3822 
L 4991 3425 
L 1516 3425 
L 1516 3822 
z
" transform="scale(0.015625)"/>
      <path id="IPAexGothic-3065" d="M 575 3444 
Q 2697 4019 3769 4019 
Q 4506 4019 4978 3653 
Q 5559 3206 5559 2400 
Q 5559 1384 4606 806 
Q 3750 291 2213 184 
L 1963 684 
Q 5022 819 5022 2400 
Q 5022 2956 4663 3278 
Q 4331 3572 3734 3572 
Q 2663 3572 800 2944 
L 575 3444 
z
M 5863 4256 
Q 5500 4797 5106 5125 
L 5406 5356 
Q 5791 5047 6181 4531 
L 5863 4256 
z
M 5241 3841 
Q 4950 4331 4503 4728 
L 4819 4972 
Q 5191 4666 5572 4116 
L 5241 3841 
z
" transform="scale(0.015625)"/>
      <path id="IPAexGothic-304b" d="M 659 3384 
Q 1434 3503 2113 3581 
Q 2313 4341 2394 4972 
L 2900 4875 
Q 2759 4147 2619 3628 
L 2719 3634 
Q 2894 3641 3041 3641 
Q 4072 3641 4072 2369 
Q 4072 1128 3700 384 
Q 3478 -56 3003 -56 
Q 2591 -56 2113 231 
L 2138 775 
Q 2631 444 2925 444 
Q 3169 444 3297 706 
Q 3566 1294 3566 2388 
Q 3566 3219 3016 3219 
Q 2825 3219 2497 3194 
Q 2388 2763 2113 2047 
Q 1634 797 1119 -38 
L 678 244 
Q 1356 1238 1863 2750 
Q 1888 2819 1991 3128 
Q 1594 3081 769 2916 
L 659 3384 
z
M 5644 1753 
Q 5072 3025 4238 3916 
L 4641 4184 
Q 5494 3275 6081 2094 
L 5644 1753 
z
" transform="scale(0.015625)"/>
     </defs>
     <use xlink:href="#IPAexGothic-30fb"/>
     <use xlink:href="#IPAexGothic-30c7" x="100"/>
     <use xlink:href="#IPAexGothic-30fc" x="200"/>
     <use xlink:href="#IPAexGothic-30bf" x="300"/>
     <use xlink:href="#IPAexGothic-306e" x="400"/>
     <use xlink:href="#IPAexGothic-7570" x="500"/>
     <use xlink:href="#IPAexGothic-5e38" x="600"/>
     <use xlink:href="#IPAexGothic-306b" x="700"/>
     <use xlink:href="#IPAexGothic-6c17" x="800"/>
     <use xlink:href="#IPAexGothic-3065" x="900"/>
     <use xlink:href="#IPAexGothic-304b" x="1000"/>
     <use xlink:href="#IPAexGothic-306a" x="1100"/>
     <use xlink:href="#IPAexGothic-3044" x="1200"/>
    </g>
   </g>
   <g id="text_6">
    <!-- ・重要でない変数にも同じ手間をかける -->
    <g style="fill: #2c3e50" transform="translate(47.52 162.694219) scale(0.115 -0.115)">
     <defs>
      <path id="IPAexGothic-91cd" d="M 2950 3284 
L 2950 3684 
L 481 3684 
L 481 4063 
L 2950 4063 
L 2950 4491 
L 2747 4478 
Q 2100 4431 1241 4400 
L 1038 4791 
Q 3488 4878 4903 5113 
L 5234 4734 
Q 4388 4600 3406 4522 
L 3406 4063 
L 5913 4063 
L 5913 3684 
L 3406 3684 
L 3406 3284 
L 5269 3284 
L 5269 1313 
L 3406 1313 
L 3406 884 
L 5594 884 
L 5594 519 
L 3406 519 
L 3406 84 
L 6009 84 
L 6009 -294 
L 384 -294 
L 384 84 
L 2950 84 
L 2950 519 
L 800 519 
L 800 884 
L 2950 884 
L 2950 1313 
L 1128 1313 
L 1128 3284 
L 2950 3284 
z
M 2963 2931 
L 1569 2931 
L 1569 2472 
L 2963 2472 
L 2963 2931 
z
M 3394 2931 
L 3394 2472 
L 4825 2472 
L 4825 2931 
L 3394 2931 
z
M 2963 2147 
L 1569 2147 
L 1569 1659 
L 2963 1659 
L 2963 2147 
z
M 3394 2147 
L 3394 1659 
L 4825 1659 
L 4825 2147 
L 3394 2147 
z
" transform="scale(0.015625)"/>
      <path id="IPAexGothic-8981" d="M 2278 4025 
L 2278 4581 
L 528 4581 
L 528 4978 
L 5856 4978 
L 5856 4581 
L 4081 4581 
L 4081 4025 
L 5522 4025 
L 5522 2547 
L 863 2547 
L 863 4025 
L 2278 4025 
z
M 2694 4025 
L 3659 4025 
L 3659 4581 
L 2694 4581 
L 2694 4025 
z
M 2278 3666 
L 1316 3666 
L 1316 2906 
L 2278 2906 
L 2278 3666 
z
M 2694 3666 
L 2694 2906 
L 3659 2906 
L 3659 3666 
L 2694 3666 
z
M 4081 3666 
L 4081 2906 
L 5075 2906 
L 5075 3666 
L 4081 3666 
z
M 3066 338 
Q 2547 503 1694 722 
L 1503 775 
Q 1816 1141 2066 1503 
L 447 1503 
L 447 1900 
L 2316 1900 
Q 2497 2225 2641 2516 
L 3084 2366 
Q 2984 2172 2834 1900 
L 5950 1900 
L 5950 1503 
L 4619 1503 
Q 4369 878 3988 484 
Q 4750 263 5797 -91 
L 5413 -488 
Q 4441 -100 3597 172 
Q 2706 -406 869 -531 
L 625 -97 
Q 2122 -28 3066 338 
z
M 3513 619 
Q 3934 1025 4134 1503 
L 2597 1503 
Q 2413 1213 2238 984 
L 2213 953 
Q 2656 853 3513 619 
z
" transform="scale(0.015625)"/>
      <path id="IPAexGothic-3067" d="M 581 4034 
Q 2978 4363 5466 4556 
L 5509 4097 
Q 4388 4031 3750 3572 
Q 2797 2878 2797 1913 
Q 2797 1169 3291 819 
Q 3778 484 4869 416 
L 4906 -116 
Q 2278 0 2278 1850 
Q 2278 3125 3691 4000 
Q 2066 3784 684 3553 
L 581 4034 
z
M 5631 2522 
Q 5269 3063 4875 3391 
L 5175 3622 
Q 5559 3313 5950 2797 
L 5631 2522 
z
M 5034 2053 
Q 4747 2544 4300 2944 
L 4613 3184 
Q 4984 2878 5369 2328 
L 5034 2053 
z
" transform="scale(0.015625)"/>
      <path id="IPAexGothic-5909" d="M 2147 1253 
Q 1641 822 944 563 
L 672 900 
Q 1938 1391 2556 2394 
L 2972 2231 
Q 2847 2034 2747 1900 
L 4750 1900 
L 4969 1700 
Q 4422 984 3859 563 
Q 4650 241 6094 69 
L 5825 -366 
Q 4275 -125 3431 288 
Q 2441 -272 603 -538 
L 341 -134 
Q 2103 75 2997 538 
Q 2591 791 2184 1209 
L 2147 1253 
z
M 2434 1528 
L 2422 1516 
Q 2803 1106 3425 778 
Q 3888 1078 4269 1528 
L 2434 1528 
z
M 4059 4147 
L 4059 2650 
Q 4059 2272 3663 2272 
Q 3416 2272 3047 2309 
L 2963 2725 
Q 3241 2681 3431 2681 
Q 3631 2681 3631 2872 
L 3631 4147 
L 2822 4147 
Q 2766 3291 2503 2816 
Q 2191 2259 1503 1869 
L 1172 2156 
Q 1878 2572 2144 3066 
Q 2359 3456 2388 4147 
L 403 4147 
L 403 4544 
L 2938 4544 
L 2938 5294 
L 3419 5294 
L 3419 4544 
L 6000 4544 
L 6000 4147 
L 4059 4147 
z
M 5494 2363 
Q 4828 3150 4328 3584 
L 4672 3859 
Q 5266 3369 5878 2656 
L 5494 2363 
z
M 341 2528 
Q 1025 3022 1441 3775 
L 1844 3597 
Q 1406 2781 706 2241 
L 341 2528 
z
" transform="scale(0.015625)"/>
      <path id="IPAexGothic-6570" d="M 2847 1553 
Q 2741 1006 2425 534 
Q 2625 441 3091 203 
L 2809 -188 
Q 2541 0 2144 209 
Q 1569 -291 703 -500 
L 422 -125 
Q 1263 19 1747 406 
Q 1222 650 734 816 
Q 975 1172 1147 1503 
L 1172 1553 
L 359 1553 
L 359 1925 
L 1344 1925 
Q 1406 2066 1569 2475 
L 1691 2450 
L 1691 3372 
Q 1250 2738 550 2303 
L 275 2663 
Q 1019 3013 1528 3641 
L 378 3641 
L 378 4006 
L 1691 4006 
L 1691 5313 
L 2113 5313 
L 2113 4006 
L 3297 4006 
L 3297 3641 
L 2113 3641 
L 2113 3513 
Q 2659 3291 3175 2963 
L 2956 2584 
Q 2553 2922 2113 3159 
L 2113 2372 
L 1966 2372 
Q 1928 2288 1872 2141 
Q 1806 1975 1784 1925 
L 3378 1925 
L 3378 1553 
L 2847 1553 
z
M 2419 1553 
L 1613 1553 
Q 1478 1269 1313 997 
Q 1559 909 2047 703 
Q 2313 1047 2419 1553 
z
M 4363 1163 
Q 3953 1781 3738 2638 
Q 3575 2281 3428 2016 
L 3103 2406 
Q 3675 3444 3916 5291 
L 4363 5200 
Q 4284 4666 4197 4197 
L 6009 4197 
L 6009 3775 
L 5503 3775 
Q 5397 2275 4869 1191 
Q 5419 503 6144 75 
L 5822 -378 
Q 5188 106 4631 788 
Q 4113 34 3341 -463 
L 3031 -78 
Q 3888 406 4363 1163 
z
M 4588 1594 
Q 4938 2388 5059 3775 
L 4100 3775 
Q 4041 3519 3972 3288 
Q 3981 3250 3991 3194 
Q 4175 2256 4588 1594 
z
M 1003 4116 
Q 878 4544 638 4934 
L 1053 5094 
Q 1247 4788 1438 4269 
L 1003 4116 
z
M 2316 4269 
Q 2550 4688 2688 5131 
L 3128 4997 
Q 2966 4588 2675 4128 
L 2316 4269 
z
" transform="scale(0.015625)"/>
      <path id="IPAexGothic-3082" d="M 997 3950 
Q 1622 3844 2303 3816 
L 2491 5056 
L 2988 4984 
Q 2872 4363 2797 3816 
Q 3475 3822 4244 3938 
L 4244 3494 
Q 3659 3394 2731 3372 
Q 2700 3131 2603 2381 
Q 3263 2381 4031 2509 
L 4031 2059 
Q 3359 1947 2534 1947 
Q 2472 1447 2472 1216 
Q 2472 191 3609 191 
Q 4831 191 4831 1163 
Q 4831 1597 4500 2131 
L 5003 2181 
Q 5338 1638 5338 1153 
Q 5338 472 4819 75 
Q 4372 -256 3609 -256 
Q 2003 -256 2003 1153 
Q 2003 1556 2059 1959 
Q 1372 2022 1013 2094 
L 1056 2541 
Q 1581 2431 2125 2400 
L 2247 3378 
Q 1550 3406 941 3519 
L 997 3950 
z
" transform="scale(0.015625)"/>
      <path id="IPAexGothic-540c" d="M 4409 2847 
L 4409 1038 
L 2378 1038 
L 2378 578 
L 1938 578 
L 1938 2847 
L 4409 2847 
z
M 3969 2463 
L 2378 2463 
L 2378 1422 
L 3969 1422 
L 3969 2463 
z
M 5675 4922 
L 5675 194 
Q 5675 -81 5547 -209 
Q 5416 -331 5003 -331 
Q 4509 -331 3984 -294 
L 3875 213 
Q 4506 138 4956 138 
Q 5194 138 5194 359 
L 5194 4506 
L 1197 4506 
L 1197 -447 
L 716 -447 
L 716 4922 
L 5675 4922 
z
M 1588 3841 
L 4806 3841 
L 4806 3438 
L 1588 3438 
L 1588 3841 
z
" transform="scale(0.015625)"/>
      <path id="IPAexGothic-3058" d="M 1697 4884 
L 2228 4884 
L 2184 1319 
Q 2175 809 2338 569 
Q 2541 281 3075 281 
Q 3719 281 4291 744 
Q 4769 1131 5103 1759 
L 5481 1369 
Q 5041 653 4481 263 
Q 3825 -206 3081 -206 
Q 2288 -206 1941 213 
Q 1644 575 1653 1269 
L 1697 4884 
z
M 5147 3834 
Q 4788 4375 4394 4703 
L 4694 4934 
Q 5078 4625 5469 4109 
L 5147 3834 
z
M 4553 3366 
Q 4263 3856 3816 4256 
L 4131 4497 
Q 4500 4191 4884 3641 
L 4553 3366 
z
" transform="scale(0.015625)"/>
      <path id="IPAexGothic-624b" d="M 3519 4303 
L 3519 3284 
L 5594 3284 
L 5594 2875 
L 3519 2875 
L 3519 1906 
L 6078 1906 
L 6078 1491 
L 3519 1491 
L 3519 191 
Q 3519 -322 2841 -322 
Q 2322 -322 1803 -263 
L 1719 238 
Q 2306 131 2775 131 
Q 3038 131 3038 372 
L 3038 1491 
L 313 1491 
L 313 1906 
L 3038 1906 
L 3038 2875 
L 797 2875 
L 797 3284 
L 3038 3284 
L 3038 4238 
Q 2056 4119 1047 4059 
L 850 4463 
Q 3213 4588 4869 5013 
L 5266 4616 
Q 4481 4441 3569 4309 
L 3519 4303 
z
" transform="scale(0.015625)"/>
      <path id="IPAexGothic-9593" d="M 4450 2566 
L 4450 353 
L 2375 353 
L 2375 -25 
L 1953 -25 
L 1953 2566 
L 4450 2566 
z
M 4028 2200 
L 2375 2200 
L 2375 1653 
L 4028 1653 
L 4028 2200 
z
M 4028 1300 
L 2375 1300 
L 2375 719 
L 4028 719 
L 4028 1300 
z
M 2913 5019 
L 2913 3059 
L 1056 3059 
L 1056 -447 
L 609 -447 
L 609 5019 
L 2913 5019 
z
M 1056 4659 
L 1056 4206 
L 2497 4206 
L 2497 4659 
L 1056 4659 
z
M 1056 3881 
L 1056 3413 
L 2497 3413 
L 2497 3881 
L 1056 3881 
z
M 5788 5019 
L 5788 91 
Q 5788 -225 5641 -331 
Q 5525 -409 5231 -409 
Q 4803 -409 4481 -366 
L 4419 97 
Q 4853 38 5128 38 
Q 5341 38 5341 244 
L 5341 3059 
L 3438 3059 
L 3438 5019 
L 5788 5019 
z
M 3853 4659 
L 3853 4206 
L 5341 4206 
L 5341 4659 
L 3853 4659 
z
M 3853 3881 
L 3853 3413 
L 5341 3413 
L 5341 3881 
L 3853 3881 
z
" transform="scale(0.015625)"/>
      <path id="IPAexGothic-3051" d="M 2553 3481 
Q 2891 3463 3219 3463 
Q 3691 3463 4338 3506 
Q 4303 4434 4250 4897 
L 4763 4897 
Q 4769 4772 4825 3566 
Q 5319 3634 5709 3744 
L 5747 3291 
Q 5356 3159 4838 3109 
Q 4844 2875 4844 2606 
Q 4844 1434 4575 856 
Q 4250 138 3347 -313 
L 2938 56 
Q 3809 441 4094 1006 
Q 4363 1525 4363 2625 
Q 4363 2853 4359 3059 
Q 3722 3009 3175 3009 
Q 2791 3009 2591 3022 
L 2553 3481 
z
M 1925 2088 
L 2253 1881 
Q 1697 872 1678 166 
L 1259 72 
Q 941 1184 941 2272 
Q 941 3181 1344 4872 
L 1819 4750 
Q 1416 3166 1416 2163 
Q 1416 1722 1491 1222 
L 1925 2088 
z
" transform="scale(0.015625)"/>
     </defs>
     <use xlink:href="#IPAexGothic-30fb"/>
     <use xlink:href="#IPAexGothic-91cd" x="100"/>
     <use xlink:href="#IPAexGothic-8981" x="200"/>
     <use xlink:href="#IPAexGothic-3067" x="300"/>
     <use xlink:href="#IPAexGothic-306a" x="400"/>
     <use xlink:href="#IPAexGothic-3044" x="500"/>
     <use xlink:href="#IPAexGothic-5909" x="600"/>
     <use xlink:href="#IPAexGothic-6570" x="700"/>
     <use xlink:href="#IPAexGothic-306b" x="800"/>
     <use xlink:href="#IPAexGothic-3082" x="900"/>
     <use xlink:href="#IPAexGothic-540c" x="1000"/>
     <use xlink:href="#IPAexGothic-3058" x="1100"/>
     <use xlink:href="#IPAexGothic-624b" x="1200"/>
     <use xlink:href="#IPAexGothic-9593" x="1300"/>
     <use xlink:href="#IPAexGothic-3092" x="1400"/>
     <use xlink:href="#IPAexGothic-304b" x="1500"/>
     <use xlink:href="#IPAexGothic-3051" x="1600"/>
     <use xlink:href="#IPAexGothic-308b" x="1700"/>
    </g>
   </g>
   <g id="text_7">
    <!-- ・モデルの結果が「なぜか」わからない -->
    <g style="fill: #2c3e50" transform="translate(47.52 181.430391) scale(0.115 -0.115)">
     <defs>
      <path id="IPAexGothic-7d50" d="M 1241 3084 
Q 794 3713 378 4128 
L 666 4422 
Q 828 4259 916 4153 
Q 1300 4750 1541 5331 
L 1956 5119 
Q 1547 4363 1150 3859 
Q 1228 3759 1466 3425 
Q 1844 4016 2138 4550 
L 2522 4313 
Q 1853 3213 1313 2572 
Q 1647 2581 2253 2631 
Q 2134 2909 2009 3156 
L 2353 3303 
Q 2656 2775 2878 2106 
L 2494 1925 
Q 2469 2022 2425 2156 
Q 2384 2284 2372 2322 
Q 2334 2319 2222 2300 
Q 1966 2259 1778 2234 
L 1778 -447 
L 1363 -447 
L 1363 2181 
L 1291 2175 
Q 1000 2144 428 2106 
L 281 2534 
Q 672 2547 863 2553 
Q 909 2613 972 2700 
Q 1059 2816 1241 3084 
z
M 4134 4325 
L 4134 5309 
L 4563 5309 
L 4563 4325 
L 6113 4325 
L 6113 3934 
L 4563 3934 
L 4563 3034 
L 5906 3034 
L 5906 2650 
L 2859 2650 
L 2859 3034 
L 4134 3034 
L 4134 3934 
L 2719 3934 
L 2719 4325 
L 4134 4325 
z
M 5631 1997 
L 5631 -450 
L 5203 -450 
L 5203 -103 
L 3550 -103 
L 3550 -450 
L 3122 -450 
L 3122 1997 
L 5631 1997 
z
M 3550 1613 
L 3550 281 
L 5203 281 
L 5203 1613 
L 3550 1613 
z
M 353 197 
Q 581 863 647 1759 
L 1056 1709 
Q 988 709 769 -13 
L 353 197 
z
M 2334 313 
Q 2206 1147 1997 1759 
L 2363 1869 
Q 2609 1253 2766 488 
L 2334 313 
z
" transform="scale(0.015625)"/>
      <path id="IPAexGothic-679c" d="M 3809 1666 
Q 4656 800 6088 297 
L 5784 -131 
Q 4256 494 3406 1563 
L 3406 -447 
L 2947 -447 
L 2947 1519 
Q 2203 425 647 -281 
L 334 109 
Q 1769 697 2575 1666 
L 378 1666 
L 378 2075 
L 2947 2075 
L 2947 2625 
L 1109 2625 
L 1109 5013 
L 5288 5013 
L 5288 2625 
L 3406 2625 
L 3406 2075 
L 6016 2075 
L 6016 1666 
L 3809 1666 
z
M 1556 4628 
L 1556 3994 
L 2959 3994 
L 2959 4628 
L 1556 4628 
z
M 1556 3628 
L 1556 3009 
L 2959 3009 
L 2959 3628 
L 1556 3628 
z
M 4834 3009 
L 4834 3628 
L 3394 3628 
L 3394 3009 
L 4834 3009 
z
M 4834 3994 
L 4834 4628 
L 3394 4628 
L 3394 3994 
L 4834 3994 
z
" transform="scale(0.015625)"/>
      <path id="IPAexGothic-304c" d="M 659 3384 
Q 1434 3503 2113 3581 
Q 2313 4341 2394 4972 
L 2900 4875 
Q 2759 4147 2619 3628 
L 2719 3634 
Q 2894 3641 3041 3641 
Q 4072 3641 4072 2369 
Q 4072 1128 3700 384 
Q 3478 -56 3003 -56 
Q 2591 -56 2113 231 
L 2138 775 
Q 2631 444 2925 444 
Q 3169 444 3297 706 
Q 3566 1294 3566 2388 
Q 3566 3219 3016 3219 
Q 2825 3219 2497 3194 
Q 2388 2763 2113 2047 
Q 1634 797 1119 -38 
L 678 244 
Q 1356 1238 1863 2750 
Q 1888 2819 1991 3128 
Q 1594 3081 769 2916 
L 659 3384 
z
M 5441 1838 
Q 4913 3038 4091 3916 
L 4475 4184 
Q 5350 3269 5888 2156 
L 5441 1838 
z
M 5913 4275 
Q 5553 4819 5159 5147 
L 5459 5375 
Q 5844 5066 6234 4550 
L 5913 4275 
z
M 5344 3788 
Q 5053 4278 4609 4678 
L 4922 4922 
Q 5294 4613 5678 4063 
L 5344 3788 
z
" transform="scale(0.015625)"/>
      <path id="IPAexGothic-300c" d="M 4134 5300 
L 5875 5300 
L 5875 4853 
L 4581 4853 
L 4581 656 
L 4134 656 
L 4134 5300 
z
" transform="scale(0.015625)"/>
      <path id="IPAexGothic-305c" d="M 3978 4897 
L 4466 4897 
L 4466 3450 
L 5847 3513 
L 5866 3091 
L 4466 3028 
L 4466 1838 
Q 4466 1338 3959 1338 
Q 3528 1338 3134 1491 
L 3134 1972 
Q 3541 1791 3781 1791 
Q 3978 1791 3978 2003 
L 3978 3003 
L 2156 2919 
L 2156 1019 
Q 2156 588 2516 500 
Q 2750 438 3575 438 
Q 4350 438 5138 519 
L 5156 19 
Q 4366 -44 3606 -44 
Q 2422 -44 2047 147 
Q 1663 350 1663 884 
L 1663 2894 
L 453 2834 
L 434 3263 
L 1663 3322 
L 1663 4581 
L 2156 4581 
L 2156 3341 
L 3978 3431 
L 3978 4897 
z
M 5259 3928 
Q 5041 4466 4775 4878 
L 5131 5075 
Q 5431 4616 5644 4141 
L 5259 3928 
z
M 5913 4281 
Q 5691 4778 5400 5184 
L 5741 5369 
Q 6053 4997 6272 4494 
L 5913 4281 
z
" transform="scale(0.015625)"/>
      <path id="IPAexGothic-300d" d="M 1819 4209 
L 2266 4209 
L 2266 -434 
L 525 -434 
L 525 13 
L 1819 13 
L 1819 4209 
z
" transform="scale(0.015625)"/>
      <path id="IPAexGothic-308f" d="M 609 3672 
Q 1272 3750 1894 3884 
L 1934 4978 
L 2406 4972 
L 2369 3934 
L 2753 3634 
Q 2416 3238 2356 3153 
Q 2350 3078 2350 2853 
Q 3322 3616 4219 3616 
Q 4878 3616 5331 3200 
Q 5819 2750 5819 2028 
Q 5819 419 3584 -53 
L 3266 391 
Q 5294 766 5294 2034 
Q 5294 2534 5000 2847 
Q 4691 3175 4175 3175 
Q 3341 3175 2344 2303 
Q 2344 678 2369 -150 
L 1881 -150 
Q 1863 1200 1869 1888 
Q 1766 1781 866 716 
L 513 1081 
Q 1450 2088 1869 2469 
Q 1869 2500 1878 2947 
Q 1881 3225 1888 3456 
Q 1406 3319 744 3178 
L 609 3672 
z
" transform="scale(0.015625)"/>
      <path id="IPAexGothic-3089" d="M 3700 3928 
Q 2897 4478 2156 4750 
L 2381 5166 
Q 3147 4891 3956 4384 
L 3700 3928 
z
M 1344 1281 
Q 1450 2544 1747 4038 
L 2234 3928 
Q 1994 2856 1888 1844 
Q 2897 2688 3963 2688 
Q 4531 2688 4909 2450 
Q 5441 2122 5441 1516 
Q 5441 669 4569 213 
Q 3856 -169 2584 -238 
L 2363 250 
Q 3484 250 4213 588 
Q 4909 922 4909 1509 
Q 4909 1856 4647 2059 
Q 4366 2266 3897 2266 
Q 2853 2266 1766 1141 
L 1344 1281 
z
" transform="scale(0.015625)"/>
     </defs>
     <use xlink:href="#IPAexGothic-30fb"/>
     <use xlink:href="#IPAexGothic-30e2" x="100"/>
     <use xlink:href="#IPAexGothic-30c7" x="200"/>
     <use xlink:href="#IPAexGothic-30eb" x="300"/>
     <use xlink:href="#IPAexGothic-306e" x="400"/>
     <use xlink:href="#IPAexGothic-7d50" x="500"/>
     <use xlink:href="#IPAexGothic-679c" x="600"/>
     <use xlink:href="#IPAexGothic-304c" x="700"/>
     <use xlink:href="#IPAexGothic-300c" x="800"/>
     <use xlink:href="#IPAexGothic-306a" x="900"/>
     <use xlink:href="#IPAexGothic-305c" x="1000"/>
     <use xlink:href="#IPAexGothic-304b" x="1100"/>
     <use xlink:href="#IPAexGothic-300d" x="1200"/>
     <use xlink:href="#IPAexGothic-308f" x="1300"/>
     <use xlink:href="#IPAexGothic-304b" x="1400"/>
     <use xlink:href="#IPAexGothic-3089" x="1500"/>
     <use xlink:href="#IPAexGothic-306a" x="1600"/>
     <use xlink:href="#IPAexGothic-3044" x="1700"/>
    </g>
   </g>
   <g id="text_8">
    <!-- ・間違った仮説でモデルを作ってしまう -->
    <g style="fill: #2c3e50" transform="translate(47.52 200.206094) scale(0.115 -0.115)">
     <defs>
      <path id="IPAexGothic-9055" d="M 4494 2319 
L 4494 1947 
L 5728 1947 
L 5728 1606 
L 4494 1606 
L 4494 1184 
L 6009 1184 
L 6009 838 
L 4494 838 
L 4494 222 
L 4078 222 
L 4078 838 
L 1919 838 
L 1919 1184 
L 2719 1184 
L 2719 1606 
L 2206 1606 
L 2206 1947 
L 4078 1947 
L 4078 2319 
L 2534 2319 
L 2534 3359 
L 5331 3359 
L 5331 2319 
L 4494 2319 
z
M 4078 1184 
L 4078 1606 
L 3122 1606 
L 3122 1184 
L 4078 1184 
z
M 2938 3041 
L 2938 2638 
L 4928 2638 
L 4928 3041 
L 2938 3041 
z
M 1709 741 
Q 1938 444 2222 306 
Q 2653 94 3934 94 
Q 4900 94 6144 178 
Q 6025 -50 5978 -300 
Q 4969 -341 4359 -341 
Q 2788 -341 2222 -128 
Q 1781 34 1531 391 
Q 1125 -72 653 -453 
L 372 13 
Q 909 338 1275 666 
L 1275 2303 
L 378 2303 
L 378 2731 
L 1709 2731 
L 1709 741 
z
M 3113 4019 
Q 3141 4078 3259 4384 
L 2528 4384 
L 2528 4703 
L 3369 4703 
L 3388 4759 
Q 3478 5056 3534 5284 
L 3950 5222 
Q 3906 5025 3822 4781 
L 3803 4703 
L 5109 4703 
L 5109 4019 
L 5978 4019 
L 5978 3678 
L 1953 3678 
L 1953 4019 
L 3113 4019 
z
M 3688 4384 
L 3675 4341 
Q 3653 4278 3547 4019 
L 4706 4019 
L 4706 4384 
L 3688 4384 
z
M 1484 3775 
Q 1016 4344 525 4738 
L 838 5056 
Q 1413 4594 1825 4122 
L 1484 3775 
z
" transform="scale(0.015625)"/>
      <path id="IPAexGothic-305f" d="M 684 3994 
Q 1138 3953 1556 3953 
Q 1797 3953 2106 3975 
Q 2266 4594 2369 5113 
L 2875 5025 
Q 2806 4731 2619 4013 
Q 3209 4084 3656 4191 
L 3688 3719 
Q 3109 3613 2497 3566 
Q 1822 1294 1153 -44 
L 653 172 
Q 1406 1500 1991 3531 
Q 1634 3513 1256 3513 
Q 1106 3513 697 3525 
L 684 3994 
z
M 5753 78 
Q 5059 -13 4597 -13 
Q 3619 -13 3206 334 
Q 2866 625 2766 1222 
L 3213 1388 
Q 3247 1069 3347 903 
Q 3425 775 3578 672 
Q 3866 481 4556 481 
Q 5009 481 5728 575 
L 5753 78 
z
M 3144 2859 
Q 4216 3147 5409 3072 
L 5381 2597 
L 5356 2597 
Q 4263 2663 3194 2419 
L 3144 2859 
z
" transform="scale(0.015625)"/>
      <path id="IPAexGothic-4eee" d="M 1644 3675 
L 1644 -447 
L 1175 -447 
L 1175 2747 
Q 925 2322 578 1863 
L 313 2253 
Q 1244 3463 1656 5178 
L 2131 5069 
Q 1919 4306 1644 3675 
z
M 2969 4481 
L 2969 3353 
L 5331 3353 
L 5600 3116 
Q 5275 1909 4722 1075 
Q 5275 494 6034 38 
L 5697 -384 
Q 4994 88 4434 684 
Q 3916 34 3091 -481 
L 2766 -72 
Q 3616 353 4141 1044 
Q 3463 1928 3194 2944 
L 2969 2944 
Q 2959 1709 2841 1056 
Q 2694 234 2216 -475 
L 1844 -134 
Q 2316 481 2438 1428 
Q 2516 2013 2516 2919 
L 2516 4897 
L 5869 4897 
L 5869 4481 
L 2969 4481 
z
M 4422 1441 
Q 4828 2069 5050 2944 
L 3647 2944 
Q 3863 2184 4422 1441 
z
" transform="scale(0.015625)"/>
      <path id="IPAexGothic-8aac" d="M 3541 1947 
L 2900 1947 
L 2900 3859 
L 4406 3859 
Q 4741 4516 4969 5241 
L 5438 5063 
Q 5166 4434 4847 3859 
L 5756 3859 
L 5756 1947 
L 4956 1947 
L 4956 281 
Q 4956 94 5213 94 
Q 5553 94 5603 241 
Q 5656 431 5666 1000 
L 6109 838 
Q 6100 9 5947 -181 
Q 5794 -353 5244 -353 
Q 4884 -353 4734 -303 
Q 4516 -225 4516 91 
L 4516 1947 
L 3981 1947 
Q 3981 1219 3816 709 
Q 3594 25 2875 -453 
L 2534 -116 
Q 3200 275 3406 897 
Q 3541 1291 3541 1934 
L 3541 1947 
z
M 5322 2338 
L 5322 3463 
L 3334 3463 
L 3334 2338 
L 5322 2338 
z
M 2394 1684 
L 2394 -128 
L 959 -128 
L 959 -447 
L 538 -447 
L 538 1684 
L 2394 1684 
z
M 959 1313 
L 959 244 
L 1978 244 
L 1978 1313 
L 959 1313 
z
M 634 5044 
L 2306 5044 
L 2306 4659 
L 634 4659 
L 634 5044 
z
M 353 4206 
L 2631 4206 
L 2631 3816 
L 353 3816 
L 353 4206 
z
M 634 3359 
L 2306 3359 
L 2306 2975 
L 634 2975 
L 634 3359 
z
M 634 2522 
L 2306 2522 
L 2306 2138 
L 634 2138 
L 634 2522 
z
M 3578 3988 
Q 3347 4569 3084 4966 
L 3481 5166 
Q 3769 4747 4000 4191 
L 3578 3988 
z
" transform="scale(0.015625)"/>
      <path id="IPAexGothic-307e" d="M 3538 5075 
L 3547 4141 
Q 4509 4203 5288 4341 
L 5325 3897 
Q 4744 3809 3553 3719 
L 3566 2925 
Q 4578 3022 5031 3103 
L 5063 2663 
Q 4519 2572 3578 2503 
L 3628 1403 
Q 4531 1128 5459 513 
L 5153 84 
Q 4656 456 3641 909 
Q 3669 331 3391 84 
Q 3116 -153 2559 -153 
Q 1900 -153 1522 72 
Q 1138 297 1138 719 
Q 1138 1163 1634 1413 
Q 1994 1594 2413 1594 
Q 2797 1594 3156 1538 
L 3109 2472 
Q 2641 2450 2413 2450 
Q 1931 2450 1422 2484 
L 1422 2919 
Q 1941 2872 2516 2872 
Q 2706 2872 3097 2894 
L 3072 3688 
Q 2381 3675 2344 3675 
Q 1794 3675 1075 3706 
L 1075 4141 
Q 1744 4097 2431 4097 
Q 2456 4097 3059 4109 
L 3041 5075 
L 3538 5075 
z
M 3163 1088 
Q 2713 1184 2394 1184 
Q 2094 1184 1875 1091 
Q 1606 975 1606 750 
Q 1606 484 1925 363 
Q 2156 275 2503 275 
Q 3163 275 3163 794 
L 3163 1088 
z
" transform="scale(0.015625)"/>
      <path id="IPAexGothic-3046" d="M 3897 4025 
Q 3203 4456 2144 4728 
L 2381 5166 
Q 3353 4928 4166 4481 
L 3897 4025 
z
M 1172 3050 
Q 2872 3628 3566 3628 
Q 4269 3628 4603 3181 
Q 4847 2850 4847 2253 
Q 4847 372 2619 -275 
L 2278 159 
Q 3356 397 3881 994 
Q 4328 1503 4328 2228 
Q 4328 3181 3534 3181 
Q 2909 3181 1397 2553 
L 1172 3050 
z
" transform="scale(0.015625)"/>
     </defs>
     <use xlink:href="#IPAexGothic-30fb"/>
     <use xlink:href="#IPAexGothic-9593" x="100"/>
     <use xlink:href="#IPAexGothic-9055" x="200"/>
     <use xlink:href="#IPAexGothic-3063" x="300"/>
     <use xlink:href="#IPAexGothic-305f" x="400"/>
     <use xlink:href="#IPAexGothic-4eee" x="500"/>
     <use xlink:href="#IPAexGothic-8aac" x="600"/>
     <use xlink:href="#IPAexGothic-3067" x="700"/>
     <use xlink:href="#IPAexGothic-30e2" x="800"/>
     <use xlink:href="#IPAexGothic-30c7" x="900"/>
     <use xlink:href="#IPAexGothic-30eb" x="1000"/>
     <use xlink:href="#IPAexGothic-3092" x="1100"/>
     <use xlink:href="#IPAexGothic-4f5c" x="1200"/>
     <use xlink:href="#IPAexGothic-3063" x="1300"/>
     <use xlink:href="#IPAexGothic-3066" x="1400"/>
     <use xlink:href="#IPAexGothic-3057" x="1500"/>
     <use xlink:href="#IPAexGothic-307e" x="1600"/>
     <use xlink:href="#IPAexGothic-3046" x="1700"/>
    </g>
   </g>
   <g id="text_9">
    <!-- ✅ EDA をすると… -->
    <g style="fill: #5ba85a" transform="translate(362.88 126.65) scale(0.13 -0.13)">
     <defs>
      <path id="IPAexGothic-2705" d="M 5759 -641 
L 641 -641 
L 641 5503 
L 5759 5503 
L 5759 -641 
z
M 5216 5172 
L 1191 5172 
L 3206 2694 
L 5216 5172 
z
M 5428 -53 
L 5428 4903 
L 3419 2425 
L 5428 -53 
z
M 2988 2425 
L 972 4916 
L 972 -59 
L 2988 2425 
z
M 5209 -309 
L 3206 2163 
L 1197 -309 
L 5209 -309 
z
" transform="scale(0.015625)"/>
     </defs>
     <use xlink:href="#IPAexGothic-2705"/>
     <use xlink:href="#IPAexGothic-20" x="100"/>
     <use xlink:href="#IPAexGothic-45" x="127.001953"/>
     <use xlink:href="#IPAexGothic-44" x="186.523438"/>
     <use xlink:href="#IPAexGothic-41" x="262.207031"/>
     <use xlink:href="#IPAexGothic-20" x="325.927734"/>
     <use xlink:href="#IPAexGothic-3092" x="352.929688"/>
     <use xlink:href="#IPAexGothic-3059" x="452.929688"/>
     <use xlink:href="#IPAexGothic-308b" x="552.929688"/>
     <use xlink:href="#IPAexGothic-3068" x="652.929688"/>
     <use xlink:href="#IPAexGothic-2026" x="752.929688"/>
    </g>
   </g>
   <g id="text_10">
    <!-- ・欠損・外れ値を早期発見できる -->
    <g style="fill: #2c3e50" transform="translate(367.2 143.974219) scale(0.115 -0.115)">
     <defs>
      <path id="IPAexGothic-6b20" d="M 3241 2347 
Q 2847 388 822 -372 
L 481 63 
Q 2931 784 2931 3403 
L 2931 3744 
L 1997 3744 
Q 1613 2813 1013 2125 
L 647 2491 
Q 1578 3516 1953 5241 
L 2441 5125 
Q 2322 4650 2159 4172 
L 5422 4172 
L 5769 3916 
Q 5253 2869 4725 2188 
L 4309 2481 
Q 4781 3025 5128 3744 
L 3419 3744 
L 3419 3384 
Q 3419 2472 4150 1522 
Q 4778 697 5972 209 
L 5600 -256 
Q 3700 741 3241 2347 
z
" transform="scale(0.015625)"/>
      <path id="IPAexGothic-640d" d="M 1178 4013 
L 1178 5300 
L 1606 5300 
L 1606 4013 
L 2316 4013 
L 2316 3597 
L 1606 3597 
L 1606 2381 
Q 1797 2438 2259 2597 
L 2291 2216 
Q 2022 2106 1606 1972 
L 1606 0 
Q 1606 -272 1484 -363 
Q 1384 -447 1094 -447 
Q 797 -447 519 -409 
L 441 50 
Q 719 -6 966 -6 
Q 1178 -6 1178 172 
L 1178 1831 
Q 753 1703 403 1619 
L 275 2047 
Q 741 2144 1153 2253 
L 1178 2259 
L 1178 3597 
L 372 3597 
L 372 4013 
L 1178 4013 
z
M 5428 5038 
L 5428 3731 
L 2816 3731 
L 2816 5038 
L 5428 5038 
z
M 3244 4678 
L 3244 4084 
L 4997 4084 
L 4997 4678 
L 3244 4678 
z
M 5753 3391 
L 5753 659 
L 2509 659 
L 2509 3391 
L 5753 3391 
z
M 2938 3038 
L 2938 2597 
L 5325 2597 
L 5325 3038 
L 2938 3038 
z
M 2938 2256 
L 2938 1813 
L 5325 1813 
L 5325 2256 
L 2938 2256 
z
M 2938 1472 
L 2938 1006 
L 5325 1006 
L 5325 1472 
L 2938 1472 
z
M 2034 -122 
Q 2828 141 3469 609 
L 3781 313 
Q 3153 -172 2347 -513 
L 2034 -122 
z
M 5803 -447 
Q 5113 16 4356 319 
L 4653 634 
Q 5450 325 6150 -78 
L 5803 -447 
z
" transform="scale(0.015625)"/>
      <path id="IPAexGothic-65e9" d="M 3419 2216 
L 3419 1375 
L 6050 1375 
L 6050 959 
L 3419 959 
L 3419 -447 
L 2931 -447 
L 2931 959 
L 347 959 
L 347 1375 
L 2931 1375 
L 2931 2216 
L 1597 2216 
L 1597 1888 
L 1128 1888 
L 1128 4922 
L 5269 4922 
L 5269 1913 
L 4800 1913 
L 4800 2216 
L 3419 2216 
z
M 1597 4513 
L 1597 3769 
L 4800 3769 
L 4800 4513 
L 1597 4513 
z
M 1597 3384 
L 1597 2613 
L 4800 2613 
L 4800 3384 
L 1597 3384 
z
" transform="scale(0.015625)"/>
      <path id="IPAexGothic-671f" d="M 1009 4469 
L 1009 5313 
L 1431 5313 
L 1431 4469 
L 2513 4469 
L 2513 5313 
L 2928 5313 
L 2928 4469 
L 3434 4469 
L 3434 4084 
L 2928 4084 
L 2928 1522 
L 3503 1522 
L 3503 1125 
L 319 1125 
L 319 1522 
L 1009 1522 
L 1009 4084 
L 441 4084 
L 441 4469 
L 1009 4469 
z
M 2513 4084 
L 1431 4084 
L 1431 3481 
L 2513 3481 
L 2513 4084 
z
M 2513 3116 
L 1431 3116 
L 1431 2516 
L 2513 2516 
L 2513 3116 
z
M 2513 2156 
L 1431 2156 
L 1431 1522 
L 2513 1522 
L 2513 2156 
z
M 5747 4984 
L 5747 72 
Q 5747 -391 5216 -391 
Q 4766 -391 4419 -347 
L 4350 109 
Q 4763 38 5138 38 
Q 5331 38 5331 225 
L 5331 1703 
L 4113 1703 
Q 4094 1028 3997 597 
Q 3875 -16 3478 -544 
L 3122 -206 
Q 3691 491 3691 1997 
L 3691 4984 
L 5747 4984 
z
M 5331 4594 
L 4113 4594 
L 4113 3547 
L 5331 3547 
L 5331 4594 
z
M 5331 3163 
L 4113 3163 
L 4113 2088 
L 5331 2088 
L 5331 3163 
z
M 434 -109 
Q 978 328 1331 984 
L 1728 769 
Q 1322 22 766 -475 
L 434 -109 
z
M 2853 -97 
Q 2559 453 2194 819 
L 2547 1038 
Q 2866 747 3231 219 
L 2853 -97 
z
" transform="scale(0.015625)"/>
      <path id="IPAexGothic-767a" d="M 4719 3638 
Q 5159 4016 5453 4391 
L 5831 4122 
Q 5406 3700 5038 3413 
Q 5500 3116 6106 2856 
L 5800 2456 
Q 5231 2738 4706 3113 
L 4706 2772 
L 4103 2772 
L 4103 1919 
L 5753 1919 
L 5753 1522 
L 4103 1522 
L 4103 359 
Q 4103 159 4206 131 
Q 4313 94 4678 94 
Q 5256 94 5350 191 
Q 5444 284 5472 766 
Q 5472 863 5478 900 
L 5928 741 
Q 5900 25 5741 -141 
Q 5572 -341 4647 -341 
Q 4084 -341 3900 -256 
Q 3650 -150 3650 213 
L 3650 1522 
L 2725 1522 
Q 2572 34 709 -475 
L 466 -63 
Q 2128 347 2272 1522 
L 641 1522 
L 641 1919 
L 2291 1919 
L 2291 2772 
L 1778 2772 
L 1778 3009 
Q 1263 2647 581 2316 
L 288 2700 
Q 1044 2991 1663 3444 
Q 1269 3850 863 4134 
L 1191 4425 
Q 1697 4006 1991 3713 
Q 2434 4100 2763 4616 
L 1284 4616 
L 1284 5006 
L 3456 5006 
Q 3725 4566 4025 4244 
Q 4422 4584 4738 4988 
L 5109 4719 
Q 4747 4328 4294 3981 
Q 4506 3781 4719 3638 
z
M 3650 2772 
L 2738 2772 
L 2738 1919 
L 3650 1919 
L 3650 2772 
z
M 1978 3156 
L 4641 3156 
Q 3756 3794 3238 4544 
Q 2766 3769 1978 3156 
z
" transform="scale(0.015625)"/>
      <path id="IPAexGothic-898b" d="M 4053 1631 
L 4053 403 
Q 4053 194 4159 144 
Q 4259 100 4594 100 
Q 5206 100 5303 272 
Q 5369 394 5406 1031 
L 5413 1138 
L 5881 966 
Q 5831 75 5656 -128 
Q 5475 -341 4566 -341 
Q 4041 -341 3859 -269 
Q 3584 -166 3584 184 
L 3584 1631 
L 2719 1631 
Q 2663 631 2219 197 
Q 1744 -256 756 -469 
L 513 -38 
Q 1500 134 1888 513 
Q 2216 831 2247 1631 
L 1288 1631 
L 1288 5050 
L 5106 5050 
L 5106 1631 
L 4053 1631 
z
M 1747 4653 
L 1747 4044 
L 4638 4044 
L 4638 4653 
L 1747 4653 
z
M 1747 3653 
L 1747 3047 
L 4638 3047 
L 4638 3653 
L 1747 3653 
z
M 1747 2663 
L 1747 2028 
L 4638 2028 
L 4638 2663 
L 1747 2663 
z
" transform="scale(0.015625)"/>
      <path id="IPAexGothic-304d" d="M 2944 1600 
Q 2369 1600 2053 1428 
Q 1772 1275 1772 1019 
Q 1772 666 2200 481 
Q 2600 309 3903 309 
Q 4138 309 4397 331 
L 4422 -147 
Q 4203 -166 3969 -166 
Q 2325 -166 1819 141 
Q 1313 444 1313 994 
Q 1313 1447 1791 1738 
Q 2219 1997 2859 1997 
Q 3319 1997 3606 1947 
Q 3894 1894 4216 1759 
Q 3953 2050 3506 2791 
Q 2263 2547 1191 2491 
L 1094 2956 
Q 2263 2966 3281 3175 
Q 3019 3647 2950 3794 
Q 2125 3641 1253 3622 
L 1166 4063 
Q 2013 4063 2750 4184 
Q 2478 4744 2381 4984 
L 2841 5131 
Q 2925 4916 3213 4281 
Q 3888 4438 4459 4709 
L 4672 4313 
Q 4119 4056 3409 3891 
Q 3638 3447 3738 3284 
Q 4528 3503 5113 3794 
L 5331 3366 
Q 4738 3094 3953 2900 
Q 4272 2366 4903 1484 
L 4575 1147 
Q 3888 1600 2944 1600 
z
" transform="scale(0.015625)"/>
     </defs>
     <use xlink:href="#IPAexGothic-30fb"/>
     <use xlink:href="#IPAexGothic-6b20" x="100"/>
     <use xlink:href="#IPAexGothic-640d" x="200"/>
     <use xlink:href="#IPAexGothic-30fb" x="300"/>
     <use xlink:href="#IPAexGothic-5916" x="400"/>
     <use xlink:href="#IPAexGothic-308c" x="500"/>
     <use xlink:href="#IPAexGothic-5024" x="600"/>
     <use xlink:href="#IPAexGothic-3092" x="700"/>
     <use xlink:href="#IPAexGothic-65e9" x="800"/>
     <use xlink:href="#IPAexGothic-671f" x="900"/>
     <use xlink:href="#IPAexGothic-767a" x="1000"/>
     <use xlink:href="#IPAexGothic-898b" x="1100"/>
     <use xlink:href="#IPAexGothic-3067" x="1200"/>
     <use xlink:href="#IPAexGothic-304d" x="1300"/>
     <use xlink:href="#IPAexGothic-308b" x="1400"/>
    </g>
   </g>
   <g id="text_11">
    <!-- ・効果的な変数を絞り込める -->
    <g style="fill: #2c3e50" transform="translate(367.2 162.694219) scale(0.115 -0.115)">
     <defs>
      <path id="IPAexGothic-52b9" d="M 4078 3828 
L 4078 5203 
L 4525 5203 
L 4525 3884 
L 5894 3884 
Q 5884 1113 5728 238 
Q 5631 -331 5069 -331 
Q 4684 -331 4294 -275 
L 4219 231 
Q 4603 122 4922 122 
Q 5222 122 5281 434 
Q 5431 1328 5441 3194 
L 5447 3463 
L 4519 3463 
Q 4519 2075 4294 1288 
Q 3978 159 3034 -481 
L 2706 -141 
Q 3628 491 3906 1556 
Q 4050 2141 4078 3328 
L 4078 3413 
L 3266 3413 
L 3266 3816 
L 422 3816 
L 422 4219 
L 1716 4219 
L 1716 5313 
L 2156 5313 
L 2156 4219 
L 3316 4219 
L 3316 3828 
L 4078 3828 
z
M 1813 1216 
Q 1356 1728 972 2081 
L 1281 2350 
Q 1603 2059 1997 1644 
L 2022 1613 
Q 2197 1994 2309 2547 
L 2706 2406 
Q 2566 1769 2322 1288 
Q 2738 828 3000 500 
L 2681 147 
Q 2341 600 2100 884 
Q 1538 25 756 -447 
L 447 -91 
Q 1294 353 1813 1216 
z
M 269 2350 
Q 906 2888 1253 3622 
L 1631 3431 
Q 1203 2613 550 2016 
L 269 2350 
z
M 3144 2209 
Q 2694 2950 2156 3450 
L 2503 3659 
Q 3069 3153 3463 2547 
L 3144 2209 
z
" transform="scale(0.015625)"/>
      <path id="IPAexGothic-7d5e" d="M 1253 3084 
Q 825 3691 391 4128 
L 672 4428 
Q 903 4184 928 4153 
Q 1297 4694 1547 5331 
L 1963 5119 
Q 1550 4353 1163 3859 
Q 1363 3600 1478 3425 
Q 1872 4034 2150 4550 
L 2534 4313 
Q 1881 3234 1319 2572 
Q 1841 2594 2206 2638 
Q 2106 2959 2009 3181 
L 2359 3309 
Q 2600 2753 2763 2100 
L 2394 1941 
Q 2384 1969 2344 2150 
Q 2322 2256 2303 2322 
Q 2122 2291 1797 2241 
L 1797 -447 
L 1375 -447 
L 1375 2188 
L 1338 2181 
Q 884 2134 434 2106 
L 288 2534 
Q 363 2538 531 2541 
Q 681 2544 759 2547 
L 875 2553 
Q 956 2666 1097 2863 
Q 1194 3003 1234 3059 
L 1253 3084 
z
M 4428 678 
Q 3800 -84 2913 -488 
L 2644 -122 
Q 3578 266 4153 991 
Q 3753 1528 3500 2328 
L 3853 2503 
Q 4044 1819 4403 1344 
Q 4719 1869 4881 2663 
L 5284 2503 
Q 5088 1656 4678 1025 
Q 5291 422 6125 50 
L 5844 -378 
Q 4981 78 4428 678 
z
M 4588 4256 
L 6034 4256 
L 6034 3853 
L 2791 3853 
L 2791 4256 
L 4147 4256 
L 4147 5294 
L 4588 5294 
L 4588 4256 
z
M 359 206 
Q 594 841 659 1759 
L 1069 1709 
Q 991 678 775 -13 
L 359 206 
z
M 2381 313 
Q 2234 1113 2009 1722 
L 2363 1838 
Q 2603 1294 2803 506 
L 2381 313 
z
M 2759 2316 
Q 3309 2847 3603 3675 
L 3994 3513 
Q 3634 2600 3066 2022 
L 2759 2316 
z
M 5697 2125 
Q 5250 2884 4641 3531 
L 4972 3731 
Q 5606 3119 6047 2419 
L 5697 2125 
z
" transform="scale(0.015625)"/>
      <path id="IPAexGothic-308a" d="M 2878 2925 
Q 2503 2294 2372 2041 
Q 2222 1750 2163 1459 
L 1716 1503 
Q 1509 2131 1509 3091 
Q 1509 3744 1663 4872 
L 2181 4806 
Q 2003 3541 2003 3016 
Q 2003 2613 2028 2259 
Q 2109 2413 2313 2766 
Q 2484 3063 2578 3238 
L 2878 2925 
z
M 2488 128 
Q 3534 503 3928 1184 
Q 4234 1713 4234 2975 
Q 4234 3872 4122 4928 
L 4666 4928 
Q 4759 3794 4759 2975 
Q 4759 1516 4356 844 
Q 3913 103 2853 -288 
L 2488 128 
z
" transform="scale(0.015625)"/>
      <path id="IPAexGothic-8fbc" d="M 4294 4897 
L 4294 4456 
Q 4294 3291 4763 2394 
Q 5206 1531 5938 1019 
L 5613 572 
Q 4391 1628 4044 3156 
Q 3706 1475 2503 544 
L 2169 934 
Q 3650 1928 3834 4403 
L 3841 4481 
L 2566 4481 
L 2566 4897 
L 4294 4897 
z
M 1831 775 
Q 2106 428 2516 284 
Q 2906 150 4197 150 
Q 5228 150 6119 216 
Q 6003 13 5944 -269 
Q 5022 -303 4453 -303 
Q 2925 -303 2425 -131 
Q 1900 44 1600 478 
Q 1144 -56 666 -450 
L 372 38 
Q 825 309 1378 759 
L 1378 2303 
L 397 2303 
L 397 2731 
L 1831 2731 
L 1831 775 
z
M 1625 3616 
Q 1191 4200 634 4703 
L 972 4997 
Q 1456 4616 1984 3969 
L 1625 3616 
z
" transform="scale(0.015625)"/>
      <path id="IPAexGothic-3081" d="M 1588 4550 
Q 1709 3969 1881 3431 
Q 2488 3791 3309 3891 
Q 3444 4513 3488 4972 
L 3994 4878 
Q 3922 4456 3800 3897 
Q 4666 3838 5169 3397 
Q 5513 3103 5650 2753 
Q 5784 2413 5784 1900 
Q 5784 1081 5106 550 
Q 4500 75 3397 -128 
L 3103 331 
Q 4238 484 4784 944 
Q 5253 1334 5253 1913 
Q 5253 2428 5100 2725 
Q 4981 2963 4716 3156 
Q 4331 3441 3694 3500 
Q 3363 2388 2766 1428 
Q 2872 1241 3084 966 
L 2725 647 
Q 2597 813 2475 1019 
Q 1834 231 1313 231 
Q 966 231 756 556 
Q 544 884 544 1338 
Q 544 2300 1484 3156 
Q 1250 3903 1153 4353 
L 1588 4550 
z
M 1631 2725 
Q 991 2069 991 1378 
Q 991 738 1344 738 
Q 1709 738 2228 1428 
Q 1894 2025 1631 2725 
z
M 3206 3488 
Q 2519 3381 2009 3028 
Q 2266 2306 2516 1863 
Q 3003 2763 3206 3488 
z
" transform="scale(0.015625)"/>
     </defs>
     <use xlink:href="#IPAexGothic-30fb"/>
     <use xlink:href="#IPAexGothic-52b9" x="100"/>
     <use xlink:href="#IPAexGothic-679c" x="200"/>
     <use xlink:href="#IPAexGothic-7684" x="300"/>
     <use xlink:href="#IPAexGothic-306a" x="400"/>
     <use xlink:href="#IPAexGothic-5909" x="500"/>
     <use xlink:href="#IPAexGothic-6570" x="600"/>
     <use xlink:href="#IPAexGothic-3092" x="700"/>
     <use xlink:href="#IPAexGothic-7d5e" x="800"/>
     <use xlink:href="#IPAexGothic-308a" x="900"/>
     <use xlink:href="#IPAexGothic-8fbc" x="1000"/>
     <use xlink:href="#IPAexGothic-3081" x="1100"/>
     <use xlink:href="#IPAexGothic-308b" x="1200"/>
    </g>
   </g>
   <g id="text_12">
    <!-- ・「この変数が重要そう」と仮説が立てられる -->
    <g style="fill: #2c3e50" transform="translate(367.2 181.414219) scale(0.115 -0.115)">
     <defs>
      <path id="IPAexGothic-3053" d="M 1647 4422 
Q 2400 4363 3003 4363 
Q 3803 4363 4653 4459 
L 4763 4031 
Q 4319 3906 3788 3588 
Q 3347 3322 2978 2994 
L 2619 3272 
Q 3150 3666 3609 3950 
Q 3097 3909 2619 3909 
Q 2091 3909 1666 3956 
L 1647 4422 
z
M 5244 191 
Q 4363 13 3303 13 
Q 2316 13 1716 344 
Q 1159 653 1159 1197 
Q 1159 1738 1659 2247 
L 2044 2003 
Q 1647 1644 1647 1263 
Q 1647 500 3291 500 
Q 4288 500 5191 722 
L 5244 191 
z
" transform="scale(0.015625)"/>
      <path id="IPAexGothic-305d" d="M 1503 4575 
Q 2897 4641 4378 4813 
L 4641 4488 
Q 3566 3469 2738 2809 
Q 4478 3072 5516 3200 
L 5581 2741 
Q 4425 2644 3884 2394 
Q 2978 1972 2978 1131 
Q 2978 659 3506 450 
Q 3953 272 4819 269 
L 4838 -250 
Q 3725 -241 3200 44 
Q 2497 431 2497 1113 
Q 2497 1916 3403 2534 
Q 1234 2188 781 2106 
L 691 2559 
Q 809 2575 2072 2747 
Q 3203 3694 3872 4378 
Q 2759 4184 1606 4091 
L 1503 4575 
z
" transform="scale(0.015625)"/>
      <path id="IPAexGothic-7acb" d="M 3425 4050 
L 5747 4050 
L 5747 3622 
L 641 3622 
L 641 4050 
L 2925 4050 
L 2925 5113 
L 3425 5113 
L 3425 4050 
z
M 3572 459 
Q 3578 478 3600 541 
Q 3613 581 3622 606 
Q 4066 1825 4391 3447 
L 4897 3322 
Q 4522 1716 4072 459 
L 6009 459 
L 6009 31 
L 384 31 
L 384 459 
L 3572 459 
z
M 2047 678 
Q 1797 2000 1369 3166 
L 1844 3322 
Q 2253 2178 2547 813 
L 2047 678 
z
" transform="scale(0.015625)"/>
     </defs>
     <use xlink:href="#IPAexGothic-30fb"/>
     <use xlink:href="#IPAexGothic-300c" x="100"/>
     <use xlink:href="#IPAexGothic-3053" x="200"/>
     <use xlink:href="#IPAexGothic-306e" x="300"/>
     <use xlink:href="#IPAexGothic-5909" x="400"/>
     <use xlink:href="#IPAexGothic-6570" x="500"/>
     <use xlink:href="#IPAexGothic-304c" x="600"/>
     <use xlink:href="#IPAexGothic-91cd" x="700"/>
     <use xlink:href="#IPAexGothic-8981" x="800"/>
     <use xlink:href="#IPAexGothic-305d" x="900"/>
     <use xlink:href="#IPAexGothic-3046" x="1000"/>
     <use xlink:href="#IPAexGothic-300d" x="1100"/>
     <use xlink:href="#IPAexGothic-3068" x="1200"/>
     <use xlink:href="#IPAexGothic-4eee" x="1300"/>
     <use xlink:href="#IPAexGothic-8aac" x="1400"/>
     <use xlink:href="#IPAexGothic-304c" x="1500"/>
     <use xlink:href="#IPAexGothic-7acb" x="1600"/>
     <use xlink:href="#IPAexGothic-3066" x="1700"/>
     <use xlink:href="#IPAexGothic-3089" x="1800"/>
     <use xlink:href="#IPAexGothic-308c" x="1900"/>
     <use xlink:href="#IPAexGothic-308b" x="2000"/>
    </g>
   </g>
   <g id="text_13">
    <!-- ・モデルの結果を説明できる -->
    <g style="fill: #2c3e50" transform="translate(367.2 200.218672) scale(0.115 -0.115)">
     <defs>
      <path id="IPAexGothic-660e" d="M 3753 1684 
Q 3675 378 2716 -488 
L 2359 -147 
Q 3325 609 3325 2031 
L 3325 4984 
L 5722 4984 
L 5722 103 
Q 5722 -391 5172 -391 
Q 4753 -391 4328 -347 
L 4266 141 
Q 4700 69 5031 69 
Q 5281 69 5281 322 
L 5281 1684 
L 3753 1684 
z
M 3766 2075 
L 5281 2075 
L 5281 3150 
L 3766 3150 
L 3766 2075 
z
M 3766 3547 
L 5281 3547 
L 5281 4575 
L 3766 4575 
L 3766 3547 
z
M 2681 4813 
L 2681 1063 
L 1050 1063 
L 1050 634 
L 609 634 
L 609 4813 
L 2681 4813 
z
M 1050 4422 
L 1050 3181 
L 2241 3181 
L 2241 4422 
L 1050 4422 
z
M 1050 2797 
L 1050 1459 
L 2241 1459 
L 2241 2797 
L 1050 2797 
z
" transform="scale(0.015625)"/>
     </defs>
     <use xlink:href="#IPAexGothic-30fb"/>
     <use xlink:href="#IPAexGothic-30e2" x="100"/>
     <use xlink:href="#IPAexGothic-30c7" x="200"/>
     <use xlink:href="#IPAexGothic-30eb" x="300"/>
     <use xlink:href="#IPAexGothic-306e" x="400"/>
     <use xlink:href="#IPAexGothic-7d50" x="500"/>
     <use xlink:href="#IPAexGothic-679c" x="600"/>
     <use xlink:href="#IPAexGothic-3092" x="700"/>
     <use xlink:href="#IPAexGothic-8aac" x="800"/>
     <use xlink:href="#IPAexGothic-660e" x="900"/>
     <use xlink:href="#IPAexGothic-3067" x="1000"/>
     <use xlink:href="#IPAexGothic-304d" x="1100"/>
     <use xlink:href="#IPAexGothic-308b" x="1200"/>
    </g>
   </g>
   <g id="text_14">
    <!-- データサイエンティストの業務時間の 20〜30% は EDA が占めます -->
    <g style="fill: #1a5276" transform="translate(41.04 322.685072) scale(0.125 -0.125)">
     <defs>
      <path id="IPAexGothic-30b5" d="M 3994 4919 
L 4506 4919 
L 4506 3531 
L 5888 3531 
L 5888 3072 
L 4506 3072 
Q 4488 1719 4153 1063 
Q 3728 222 2644 -325 
L 2266 38 
Q 3325 525 3713 1319 
Q 3975 1853 3994 3072 
L 2331 3072 
L 2331 1575 
L 1819 1575 
L 1819 3072 
L 513 3072 
L 513 3531 
L 1819 3531 
L 1819 4797 
L 2331 4797 
L 2331 3531 
L 3994 3531 
L 3994 4919 
z
" transform="scale(0.015625)"/>
      <path id="IPAexGothic-30a4" d="M 3131 -231 
L 3131 2875 
Q 2091 2088 1106 1656 
L 781 2059 
Q 3016 3000 4469 4916 
L 4916 4641 
Q 4384 3938 3675 3316 
L 3675 -231 
L 3131 -231 
z
" transform="scale(0.015625)"/>
      <path id="IPAexGothic-30a8" d="M 1109 4063 
L 5294 4063 
L 5294 3594 
L 3444 3594 
L 3444 988 
L 5759 988 
L 5759 513 
L 641 513 
L 641 988 
L 2913 988 
L 2913 3594 
L 1109 3594 
L 1109 4063 
z
" transform="scale(0.015625)"/>
      <path id="IPAexGothic-30f3" d="M 2444 3084 
Q 1816 3656 1056 4084 
L 1381 4519 
Q 2063 4191 2816 3559 
L 2444 3084 
z
M 1100 609 
Q 3984 1106 5216 3828 
L 5619 3469 
Q 4413 794 1434 103 
L 1100 609 
z
" transform="scale(0.015625)"/>
      <path id="IPAexGothic-30c6" d="M 563 3072 
L 5741 3072 
L 5741 2613 
L 3578 2613 
Q 3538 1516 3134 872 
Q 2688 156 1663 -256 
L 1313 156 
Q 2338 538 2713 1166 
Q 3003 1644 3034 2613 
L 563 2613 
L 563 3072 
z
M 1406 4588 
L 4941 4588 
L 4941 4128 
L 1406 4128 
L 1406 4588 
z
" transform="scale(0.015625)"/>
      <path id="IPAexGothic-30a3" d="M 3034 -231 
L 3034 2188 
Q 2344 1656 1516 1294 
L 1191 1672 
Q 2981 2431 4128 3922 
L 4519 3634 
Q 4138 3122 3534 2597 
L 3534 -231 
L 3034 -231 
z
" transform="scale(0.015625)"/>
      <path id="IPAexGothic-30b9" d="M 4359 4481 
L 4716 4147 
Q 4328 3072 3647 2150 
Q 4659 1434 5659 453 
L 5234 19 
Q 4256 1088 3353 1778 
Q 2372 597 1044 -31 
L 653 403 
Q 3128 1453 4097 4000 
L 1241 3963 
L 1228 4453 
L 4359 4481 
z
" transform="scale(0.015625)"/>
      <path id="IPAexGothic-30c8" d="M 2284 4997 
L 2803 4997 
L 2803 3206 
Q 4088 2619 5216 1888 
L 4878 1369 
Q 3819 2175 2803 2688 
L 2803 -184 
L 2284 -184 
L 2284 4997 
z
" transform="scale(0.015625)"/>
      <path id="IPAexGothic-52d9" d="M 4500 1497 
Q 4394 150 2881 -475 
L 2569 -103 
Q 3894 350 4066 1466 
L 2888 1466 
L 2888 1856 
L 4084 1856 
L 4084 2522 
L 4513 2522 
L 4513 1881 
L 5806 1881 
Q 5788 431 5666 13 
Q 5559 -359 5069 -359 
Q 4772 -359 4353 -313 
L 4281 141 
Q 4597 56 4947 56 
Q 5225 56 5275 325 
Q 5347 653 5378 1497 
L 4500 1497 
z
M 4200 3206 
Q 3825 3531 3584 3891 
Q 3381 3553 3125 3269 
L 2841 3578 
Q 3497 4338 3725 5319 
L 4134 5209 
Q 4050 4903 3963 4666 
L 5928 4666 
L 5928 4281 
L 5434 4281 
Q 5256 3725 4819 3231 
Q 5353 2906 6100 2725 
L 5856 2347 
Q 5078 2616 4531 2963 
Q 3975 2506 3144 2241 
L 2913 2597 
Q 3722 2828 4200 3206 
z
M 4481 3469 
Q 4838 3866 5000 4281 
L 3797 4281 
L 3788 4263 
L 3775 4244 
Q 4056 3806 4481 3469 
z
M 1503 1856 
Q 1119 972 491 366 
L 256 750 
Q 1081 1516 1453 2559 
L 378 2559 
L 378 2950 
L 2719 2950 
L 2922 2759 
Q 2741 2003 2456 1428 
L 2091 1619 
Q 2294 2041 2456 2559 
L 1919 2559 
L 1919 -13 
Q 1919 -459 1425 -459 
Q 1178 -459 831 -403 
L 772 38 
Q 1069 -38 1303 -38 
Q 1503 -38 1503 191 
L 1503 1856 
z
M 1856 3638 
Q 1928 3559 2150 3284 
L 1806 3003 
Q 1397 3597 884 4034 
L 1197 4263 
Q 1400 4100 1600 3900 
Q 2013 4281 2278 4628 
L 563 4628 
L 563 5019 
L 2663 5019 
L 2906 4763 
Q 2463 4184 1856 3638 
z
" transform="scale(0.015625)"/>
      <path id="IPAexGothic-6642" d="M 2328 4728 
L 2328 563 
L 934 563 
L 934 56 
L 519 56 
L 519 4728 
L 2328 4728 
z
M 934 4331 
L 934 2881 
L 1906 2881 
L 1906 4331 
L 934 4331 
z
M 934 2497 
L 934 953 
L 1906 953 
L 1906 2497 
L 934 2497 
z
M 3938 4372 
L 3938 5313 
L 4378 5313 
L 4378 4372 
L 5772 4372 
L 5772 3981 
L 4378 3981 
L 4378 3194 
L 6072 3194 
L 6072 2803 
L 5203 2803 
L 5203 2047 
L 5959 2047 
L 5959 1650 
L 5216 1650 
L 5216 31 
Q 5216 -447 4691 -447 
Q 4394 -447 3888 -391 
L 3784 78 
Q 4272 0 4591 0 
Q 4775 0 4775 172 
L 4775 1650 
L 2581 1650 
L 2581 2047 
L 4763 2047 
L 4763 2803 
L 2538 2803 
L 2538 3194 
L 3938 3194 
L 3938 3981 
L 2716 3981 
L 2716 4372 
L 3938 4372 
z
M 3669 384 
Q 3331 950 2956 1325 
L 3291 1575 
Q 3719 1147 4025 659 
L 3669 384 
z
" transform="scale(0.015625)"/>
      <path id="IPAexGothic-30" d="M 2038 4725 
Q 2881 4725 3334 3944 
Q 3694 3325 3694 2344 
Q 3694 1372 3334 741 
Q 2888 -31 2016 -31 
Q 1147 -31 700 741 
Q 341 1372 341 2350 
Q 341 3713 1000 4334 
Q 1419 4725 2038 4725 
z
M 2016 4266 
Q 1516 4266 1228 3759 
Q 934 3247 934 2344 
Q 934 1456 1222 947 
Q 1513 447 2016 447 
Q 2619 447 2909 1153 
Q 3100 1622 3100 2375 
Q 3100 3256 2806 3759 
Q 2509 4266 2016 4266 
z
" transform="scale(0.015625)"/>
      <path id="IPAexGothic-301c" d="M 678 2591 
Q 1259 3116 2022 3116 
Q 2559 3116 3359 2603 
Q 4019 2188 4353 2188 
Q 5056 2188 5722 2853 
L 5722 2259 
Q 5141 1734 4378 1734 
Q 3806 1734 3041 2234 
Q 2381 2663 2041 2663 
Q 1344 2663 678 1997 
L 678 2591 
z
" transform="scale(0.015625)"/>
      <path id="IPAexGothic-33" d="M 2381 2419 
Q 3506 2216 3506 1278 
Q 3506 716 3128 356 
Q 2709 -31 1944 -31 
Q 797 -31 288 881 
L 756 1131 
Q 1109 441 1938 441 
Q 2425 441 2694 691 
Q 2950 928 2950 1291 
Q 2950 1719 2566 1978 
Q 2216 2213 1644 2213 
L 1363 2213 
L 1363 2669 
L 1656 2669 
Q 2231 2669 2534 2888 
Q 2859 3119 2859 3509 
Q 2859 3934 2494 4138 
Q 2259 4278 1931 4278 
Q 1238 4278 903 3578 
L 434 3803 
Q 897 4725 1938 4725 
Q 2597 4725 3006 4394 
Q 3416 4069 3416 3534 
Q 3416 3028 3019 2706 
Q 2763 2500 2381 2444 
L 2381 2419 
z
" transform="scale(0.015625)"/>
      <path id="IPAexGothic-25" d="M 4088 2481 
Q 4528 2481 4800 2181 
Q 5094 1847 5094 1203 
Q 5094 534 4728 197 
Q 4472 -38 4088 -38 
Q 3647 -38 3378 269 
Q 3084 600 3084 1222 
Q 3084 1906 3444 2244 
Q 3697 2481 4088 2481 
z
M 4081 2097 
Q 3566 2097 3566 1234 
Q 3566 356 4097 356 
Q 4613 356 4613 1241 
Q 4613 2097 4081 2097 
z
M 1331 4731 
Q 1769 4731 2041 4431 
Q 2334 4097 2334 3450 
Q 2334 2781 1969 2447 
Q 1713 2209 1331 2209 
Q 888 2209 619 2516 
Q 325 2850 325 3472 
Q 325 4156 684 4494 
Q 941 4731 1331 4731 
z
M 1322 4347 
Q 806 4347 806 3484 
Q 806 2606 1338 2606 
Q 1859 2606 1859 3484 
Q 1859 3859 1725 4091 
Q 1584 4347 1322 4347 
z
M 4569 4603 
L 1106 -134 
L 856 78 
L 4313 4813 
L 4569 4603 
z
" transform="scale(0.015625)"/>
      <path id="IPAexGothic-5360" d="M 3309 4122 
L 5728 4122 
L 5728 3694 
L 3309 3694 
L 3309 2456 
L 5300 2456 
L 5300 -447 
L 4806 -447 
L 4806 0 
L 1588 0 
L 1588 -447 
L 1094 -447 
L 1094 2456 
L 2816 2456 
L 2816 5209 
L 3309 5209 
L 3309 4122 
z
M 1588 2047 
L 1588 403 
L 4806 403 
L 4806 2047 
L 1588 2047 
z
" transform="scale(0.015625)"/>
     </defs>
     <use xlink:href="#IPAexGothic-30c7"/>
     <use xlink:href="#IPAexGothic-30fc" x="100"/>
     <use xlink:href="#IPAexGothic-30bf" x="200"/>
     <use xlink:href="#IPAexGothic-30b5" x="300"/>
     <use xlink:href="#IPAexGothic-30a4" x="400"/>
     <use xlink:href="#IPAexGothic-30a8" x="500"/>
     <use xlink:href="#IPAexGothic-30f3" x="600"/>
     <use xlink:href="#IPAexGothic-30c6" x="700"/>
     <use xlink:href="#IPAexGothic-30a3" x="800"/>
     <use xlink:href="#IPAexGothic-30b9" x="900"/>
     <use xlink:href="#IPAexGothic-30c8" x="1000"/>
     <use xlink:href="#IPAexGothic-306e" x="1100"/>
     <use xlink:href="#IPAexGothic-696d" x="1200"/>
     <use xlink:href="#IPAexGothic-52d9" x="1300"/>
     <use xlink:href="#IPAexGothic-6642" x="1400"/>
     <use xlink:href="#IPAexGothic-9593" x="1500"/>
     <use xlink:href="#IPAexGothic-306e" x="1600"/>
     <use xlink:href="#IPAexGothic-20" x="1700"/>
     <use xlink:href="#IPAexGothic-32" x="1727.001953"/>
     <use xlink:href="#IPAexGothic-30" x="1789.990234"/>
     <use xlink:href="#IPAexGothic-301c" x="1852.978516"/>
     <use xlink:href="#IPAexGothic-33" x="1952.978516"/>
     <use xlink:href="#IPAexGothic-30" x="2015.966797"/>
     <use xlink:href="#IPAexGothic-25" x="2078.955078"/>
     <use xlink:href="#IPAexGothic-20" x="2163.964844"/>
     <use xlink:href="#IPAexGothic-306f" x="2190.966797"/>
     <use xlink:href="#IPAexGothic-20" x="2290.966797"/>
     <use xlink:href="#IPAexGothic-45" x="2317.96875"/>
     <use xlink:href="#IPAexGothic-44" x="2377.490234"/>
     <use xlink:href="#IPAexGothic-41" x="2453.173828"/>
     <use xlink:href="#IPAexGothic-20" x="2516.894531"/>
     <use xlink:href="#IPAexGothic-304c" x="2543.896484"/>
     <use xlink:href="#IPAexGothic-5360" x="2643.896484"/>
     <use xlink:href="#IPAexGothic-3081" x="2743.896484"/>
     <use xlink:href="#IPAexGothic-307e" x="2843.896484"/>
     <use xlink:href="#IPAexGothic-3059" x="2943.896484"/>
    </g>
   </g>
  </g>
 </g>
 <defs>
  <clipPath id="pdfe6687b74">
   <rect x="0" y="-0" width="691.2" height="388.8"/>
  </clipPath>
 </defs>
</svg>
