<?xml version="1.0" encoding="utf-8" standalone="no"?>
<!DOCTYPE svg PUBLIC "-//W3C//DTD SVG 1.1//EN"
  "http://www.w3.org/Graphics/SVG/1.1/DTD/svg11.dtd">
<svg xmlns:xlink="http://www.w3.org/1999/xlink" width="691.2pt" height="388.8pt" viewBox="0 0 691.2 388.8" xmlns="http://www.w3.org/2000/svg" version="1.1">
 <metadata>
  <rdf:RDF xmlns:dc="http://purl.org/dc/elements/1.1/" xmlns:cc="http://creativecommons.org/ns#" xmlns:rdf="http://www.w3.org/1999/02/22-rdf-syntax-ns#">
   <cc:Work>
    <dc:type rdf:resource="http://purl.org/dc/dcmitype/StillImage"/>
    <dc:date>2026-04-09T02:37:45.653468</dc:date>
    <dc:format>image/svg+xml</dc:format>
    <dc:creator>
     <cc:Agent>
      <dc:title>Matplotlib v3.9.4, https://matplotlib.org/</dc:title>
     </cc:Agent>
    </dc:creator>
   </cc:Work>
  </rdf:RDF>
 </metadata>
 <defs>
  <style type="text/css">*{stroke-linejoin: round; stroke-linecap: butt}</style>
 </defs>
 <g id="figure_1">
  <g id="patch_1">
   <path d="M 0 388.8 
L 691.2 388.8 
L 691.2 0 
L 0 0 
z
" style="fill: #ffffff"/>
  </g>
  <g id="axes_1">
   <g id="patch_2">
    <path d="M 0 -0 
L 691.2 -0 
L 691.2 24.48 
L 0 24.48 
z
" clip-path="url(#p5b90656329)" style="fill: #5ba85a"/>
   </g>
   <g id="patch_3">
    <path d="M 31.68 59.04 
L 659.52 59.04 
L 659.52 60.48 
L 31.68 60.48 
z
" clip-path="url(#p5b90656329)" style="fill: #ecf0f1"/>
   </g>
   <g id="patch_4">
    <path d="M 31.68 72 
L 175.68 72 
L 175.68 97.92 
L 31.68 97.92 
z
" clip-path="url(#p5b90656329)" style="fill: #5ba85a; stroke: #ffffff; stroke-linejoin: miter"/>
   </g>
   <g id="patch_5">
    <path d="M 175.68 72 
L 659.52 72 
L 659.52 97.92 
L 175.68 97.92 
z
" clip-path="url(#p5b90656329)" style="fill: #5ba85a; stroke: #ffffff; stroke-linejoin: miter"/>
   </g>
   <g id="patch_6">
    <path d="M 31.68 97.92 
L 175.68 97.92 
L 175.68 123.84 
L 31.68 123.84 
z
" clip-path="url(#p5b90656329)" style="fill: #ffffff; stroke: #ecf0f1; stroke-width: 0.5; stroke-linejoin: miter"/>
   </g>
   <g id="patch_7">
    <path d="M 175.68 97.92 
L 659.52 97.92 
L 659.52 123.84 
L 175.68 123.84 
z
" clip-path="url(#p5b90656329)" style="fill: #ffffff; stroke: #ecf0f1; stroke-width: 0.5; stroke-linejoin: miter"/>
   </g>
   <g id="patch_8">
    <path d="M 31.68 123.84 
L 175.68 123.84 
L 175.68 149.76 
L 31.68 149.76 
z
" clip-path="url(#p5b90656329)" style="fill: #f8f9fa; stroke: #ecf0f1; stroke-width: 0.5; stroke-linejoin: miter"/>
   </g>
   <g id="patch_9">
    <path d="M 175.68 123.84 
L 659.52 123.84 
L 659.52 149.76 
L 175.68 149.76 
z
" clip-path="url(#p5b90656329)" style="fill: #f8f9fa; stroke: #ecf0f1; stroke-width: 0.5; stroke-linejoin: miter"/>
   </g>
   <g id="patch_10">
    <path d="M 31.68 149.76 
L 175.68 149.76 
L 175.68 175.68 
L 31.68 175.68 
z
" clip-path="url(#p5b90656329)" style="fill: #ffffff; stroke: #ecf0f1; stroke-width: 0.5; stroke-linejoin: miter"/>
   </g>
   <g id="patch_11">
    <path d="M 175.68 149.76 
L 659.52 149.76 
L 659.52 175.68 
L 175.68 175.68 
z
" clip-path="url(#p5b90656329)" style="fill: #ffffff; stroke: #ecf0f1; stroke-width: 0.5; stroke-linejoin: miter"/>
   </g>
   <g id="patch_12">
    <path d="M 31.68 175.68 
L 175.68 175.68 
L 175.68 201.6 
L 31.68 201.6 
z
" clip-path="url(#p5b90656329)" style="fill: #f8f9fa; stroke: #ecf0f1; stroke-width: 0.5; stroke-linejoin: miter"/>
   </g>
   <g id="patch_13">
    <path d="M 175.68 175.68 
L 659.52 175.68 
L 659.52 201.6 
L 175.68 201.6 
z
" clip-path="url(#p5b90656329)" style="fill: #f8f9fa; stroke: #ecf0f1; stroke-width: 0.5; stroke-linejoin: miter"/>
   </g>
   <g id="patch_14">
    <path d="M 31.68 201.6 
L 175.68 201.6 
L 175.68 227.52 
L 31.68 227.52 
z
" clip-path="url(#p5b90656329)" style="fill: #ffffff; stroke: #ecf0f1; stroke-width: 0.5; stroke-linejoin: miter"/>
   </g>
   <g id="patch_15">
    <path d="M 175.68 201.6 
L 659.52 201.6 
L 659.52 227.52 
L 175.68 227.52 
z
" clip-path="url(#p5b90656329)" style="fill: #ffffff; stroke: #ecf0f1; stroke-width: 0.5; stroke-linejoin: miter"/>
   </g>
   <g id="patch_16">
    <path d="M 31.68 236.16 
L 659.52 236.16 
Q 662.4 236.16 662.4 239.04 
L 662.4 288 
Q 662.4 290.88 659.52 290.88 
L 31.68 290.88 
Q 28.8 290.88 28.8 288 
L 28.8 239.04 
Q 28.8 236.16 31.68 236.16 
z
" clip-path="url(#p5b90656329)" style="fill: #1e1e2e; stroke: #555555; stroke-linejoin: miter"/>
   </g>
   <g id="patch_17">
    <path d="M 31.68 298.08 
L 659.52 298.08 
L 659.52 326.88 
L 31.68 326.88 
z
" clip-path="url(#p5b90656329)" style="fill: #eafaf1"/>
   </g>
   <g id="patch_18">
    <path d="M 31.68 298.08 
L 33.84 298.08 
L 33.84 326.88 
L 31.68 326.88 
z
" clip-path="url(#p5b90656329)" style="fill: #5ba85a"/>
   </g>
   <g id="text_1">
    <!-- Ch.2 データ可視化・EDA -->
    <g style="fill: #ffffff" transform="translate(31.68 15.047031) scale(0.1 -0.1)">
     <defs>
      <path id="IPAexGothic-43" d="M 4353 1088 
Q 4181 694 3859 428 
Q 3313 -31 2559 -31 
Q 1588 -31 959 653 
Q 378 1294 378 2331 
Q 378 3406 1013 4078 
Q 1619 4725 2534 4725 
Q 3813 4725 4322 3628 
L 3809 3391 
Q 3425 4238 2541 4238 
Q 1891 4238 1453 3744 
Q 994 3216 994 2322 
Q 994 1550 1384 1056 
Q 1841 472 2563 472 
Q 3456 472 3878 1319 
L 4353 1088 
z
" transform="scale(0.015625)"/>
      <path id="IPAexGothic-68" d="M 3347 63 
L 2797 63 
L 2797 2041 
Q 2797 2853 2131 2853 
Q 1447 2853 1131 2041 
L 1131 63 
L 581 63 
L 581 4794 
L 1131 4794 
L 1131 2706 
Q 1566 3316 2247 3316 
Q 3347 3316 3347 2072 
L 3347 63 
z
" transform="scale(0.015625)"/>
      <path id="IPAexGothic-2e" d="M 1184 63 
L 494 63 
L 494 753 
L 1184 753 
L 1184 63 
z
" transform="scale(0.015625)"/>
      <path id="IPAexGothic-32" d="M 3659 63 
L 447 63 
L 447 594 
Q 825 1475 1894 2203 
L 2072 2322 
Q 2619 2697 2791 2906 
Q 2988 3153 2988 3444 
Q 2988 3772 2756 4003 
Q 2500 4259 2084 4259 
Q 1250 4259 991 3328 
L 497 3506 
Q 853 4725 2116 4725 
Q 2806 4725 3216 4316 
Q 3575 3947 3575 3425 
Q 3575 3038 3344 2722 
Q 3131 2416 2366 1938 
L 2231 1856 
Q 1256 1253 978 569 
L 3659 569 
L 3659 63 
z
" transform="scale(0.015625)"/>
      <path id="IPAexGothic-20" transform="scale(0.015625)"/>
      <path id="IPAexGothic-30c7" d="M 563 3072 
L 5741 3072 
L 5741 2613 
L 3578 2613 
Q 3538 1516 3134 872 
Q 2688 156 1663 -256 
L 1313 156 
Q 2338 538 2713 1166 
Q 3003 1644 3034 2613 
L 563 2613 
L 563 3072 
z
M 1406 4588 
L 4588 4588 
L 4588 4128 
L 1406 4128 
L 1406 4588 
z
M 6009 4469 
Q 5647 5009 5253 5338 
L 5553 5569 
Q 5938 5259 6328 4744 
L 6009 4469 
z
M 5413 4000 
Q 5125 4491 4678 4891 
L 4991 5131 
Q 5363 4825 5747 4275 
L 5413 4000 
z
" transform="scale(0.015625)"/>
      <path id="IPAexGothic-30fc" d="M 588 2688 
L 5809 2688 
L 5809 2175 
L 588 2175 
L 588 2688 
z
" transform="scale(0.015625)"/>
      <path id="IPAexGothic-30bf" d="M 4978 4263 
L 5313 3988 
Q 4797 2431 4056 1459 
Q 3191 325 1822 -300 
L 1466 109 
Q 2131 381 2613 738 
Q 3053 1066 3531 1600 
Q 2919 2225 2144 2791 
Q 1603 2203 1172 1875 
L 825 2234 
Q 2316 3328 2866 5031 
L 3359 4897 
Q 3325 4775 3109 4263 
L 4978 4263 
z
M 2894 3816 
Q 2709 3522 2438 3169 
Q 3194 2616 3841 2003 
Q 4366 2806 4747 3816 
L 2894 3816 
z
" transform="scale(0.015625)"/>
      <path id="IPAexGothic-53ef" d="M 5100 4313 
L 5100 288 
Q 5100 -63 4913 -200 
Q 4756 -322 4313 -322 
Q 3859 -322 3313 -263 
L 3231 263 
Q 3869 178 4294 178 
Q 4525 178 4575 275 
Q 4613 341 4613 497 
L 4613 4313 
L 416 4313 
L 416 4728 
L 5972 4728 
L 5972 4313 
L 5100 4313 
z
M 3666 3406 
L 3666 1259 
L 1713 1259 
L 1713 741 
L 1259 741 
L 1259 3406 
L 3666 3406 
z
M 1713 3003 
L 1713 1669 
L 3213 1669 
L 3213 3003 
L 1713 3003 
z
" transform="scale(0.015625)"/>
      <path id="IPAexGothic-8996" d="M 2953 1631 
L 2953 5050 
L 5622 5050 
L 5622 1631 
L 4916 1631 
L 4916 300 
Q 4916 138 5000 100 
Q 5050 75 5219 75 
Q 5584 75 5641 275 
Q 5678 419 5697 1003 
L 6116 825 
Q 6075 75 5981 -97 
Q 5875 -297 5622 -334 
Q 5478 -353 5159 -353 
Q 4797 -353 4659 -288 
Q 4488 -203 4488 91 
L 4488 1631 
L 4028 1631 
Q 3978 841 3675 378 
Q 3353 -119 2625 -453 
L 2319 -91 
Q 3003 175 3303 634 
Q 3547 1013 3603 1631 
L 2953 1631 
z
M 3375 2016 
L 5206 2016 
L 5206 2669 
L 3375 2669 
L 3375 2016 
z
M 3375 3041 
L 5206 3041 
L 5206 3666 
L 3375 3666 
L 3375 3041 
z
M 3375 4038 
L 5206 4038 
L 5206 4666 
L 3375 4666 
L 3375 4038 
z
M 1766 2547 
Q 2294 2244 2834 1797 
L 2541 1381 
Q 2181 1728 1791 2041 
L 1766 2059 
L 1766 -456 
L 1313 -456 
L 1313 2047 
Q 894 1559 463 1216 
L 206 1619 
Q 1319 2453 1981 3775 
L 391 3775 
L 391 4197 
L 1250 4197 
L 1250 5309 
L 1703 5309 
L 1703 4197 
L 2303 4197 
L 2541 3978 
Q 2234 3259 1766 2622 
L 1766 2547 
z
" transform="scale(0.015625)"/>
      <path id="IPAexGothic-5316" d="M 1831 3700 
L 1831 -341 
L 1356 -341 
L 1356 2772 
Q 1069 2275 678 1772 
L 378 2138 
Q 1319 3278 1856 5166 
L 2319 5013 
Q 2100 4319 1831 3700 
z
M 3425 2906 
Q 4528 3350 5306 3969 
L 5703 3616 
Q 4728 2919 3425 2444 
L 3425 575 
Q 3425 353 3584 306 
Q 3738 263 4334 263 
Q 5072 263 5250 347 
Q 5384 403 5422 594 
Q 5475 872 5506 1497 
L 5978 1331 
Q 5931 319 5775 106 
Q 5641 -75 5331 -141 
Q 5041 -206 4244 -206 
Q 3438 -206 3181 -78 
Q 2931 47 2931 384 
L 2931 5113 
L 3425 5113 
L 3425 2906 
z
" transform="scale(0.015625)"/>
      <path id="IPAexGothic-30fb" d="M 2772 2859 
L 3628 2859 
L 3628 2003 
L 2772 2003 
L 2772 2859 
z
" transform="scale(0.015625)"/>
      <path id="IPAexGothic-45" d="M 3547 63 
L 609 63 
L 609 4634 
L 3469 4634 
L 3469 4147 
L 1166 4147 
L 1166 2650 
L 3206 2650 
L 3206 2191 
L 1166 2191 
L 1166 556 
L 3547 556 
L 3547 63 
z
" transform="scale(0.015625)"/>
      <path id="IPAexGothic-44" d="M 609 4634 
L 1984 4634 
Q 3159 4634 3791 4050 
Q 4456 3444 4456 2356 
Q 4456 1047 3516 441 
Q 2925 63 1941 63 
L 609 63 
L 609 4634 
z
M 1172 556 
L 1894 556 
Q 3853 556 3853 2356 
Q 3853 4147 1928 4147 
L 1172 4147 
L 1172 556 
z
" transform="scale(0.015625)"/>
      <path id="IPAexGothic-41" d="M 4056 63 
L 3444 63 
L 2938 1409 
L 1100 1409 
L 603 63 
L -6 63 
L 1806 4666 
L 2259 4666 
L 4056 63 
z
M 2778 1863 
L 2316 3078 
Q 2125 3588 2028 4000 
L 2009 4000 
Q 1897 3563 1716 3078 
L 1263 1863 
L 2778 1863 
z
" transform="scale(0.015625)"/>
     </defs>
     <use xlink:href="#IPAexGothic-43"/>
     <use xlink:href="#IPAexGothic-68" x="72.509766"/>
     <use xlink:href="#IPAexGothic-2e" x="133.203125"/>
     <use xlink:href="#IPAexGothic-32" x="159.619141"/>
     <use xlink:href="#IPAexGothic-20" x="222.607422"/>
     <use xlink:href="#IPAexGothic-30c7" x="249.609375"/>
     <use xlink:href="#IPAexGothic-30fc" x="349.609375"/>
     <use xlink:href="#IPAexGothic-30bf" x="449.609375"/>
     <use xlink:href="#IPAexGothic-53ef" x="549.609375"/>
     <use xlink:href="#IPAexGothic-8996" x="649.609375"/>
     <use xlink:href="#IPAexGothic-5316" x="749.609375"/>
     <use xlink:href="#IPAexGothic-30fb" x="849.609375"/>
     <use xlink:href="#IPAexGothic-45" x="949.609375"/>
     <use xlink:href="#IPAexGothic-44" x="1009.130859"/>
     <use xlink:href="#IPAexGothic-41" x="1084.814453"/>
    </g>
   </g>
   <g id="text_2">
    <!-- 箱ひげ図：グループ間の分布を比較する -->
    <g style="fill: #1a1a2e" transform="translate(31.68 55.4175) scale(0.24 -0.24)">
     <defs>
      <path id="IPAexGothic-7bb1" d="M 1534 1588 
Q 1169 800 594 188 
L 325 563 
Q 1091 1253 1484 2228 
L 403 2228 
L 403 2619 
L 1534 2619 
L 1534 3450 
L 1950 3450 
L 1950 2619 
L 3025 2619 
L 3025 2228 
L 1950 2228 
L 1950 1863 
Q 2566 1463 2981 1075 
L 2725 684 
Q 2391 1059 1950 1441 
L 1950 -441 
L 1534 -441 
L 1534 1588 
z
M 1509 4659 
L 3206 4659 
L 3206 4288 
L 2284 4288 
Q 2459 3925 2584 3578 
L 2156 3409 
Q 2006 3906 1838 4288 
L 1344 4288 
Q 1053 3697 634 3275 
L 294 3572 
Q 925 4228 1278 5306 
L 1703 5203 
Q 1588 4844 1509 4659 
z
M 3963 4659 
L 6078 4659 
L 6078 4288 
L 4697 4288 
Q 4909 3950 5063 3616 
L 4625 3441 
Q 4463 3875 4231 4288 
L 3819 4288 
Q 3616 3791 3309 3347 
L 2931 3584 
Q 3422 4256 3700 5300 
L 4116 5216 
Q 4056 4966 3963 4659 
z
M 5822 3181 
L 5822 -447 
L 5400 -447 
L 5400 -153 
L 3700 -153 
L 3700 -441 
L 3278 -441 
L 3278 3181 
L 5822 3181 
z
M 3700 2803 
L 3700 2203 
L 5400 2203 
L 5400 2803 
L 3700 2803 
z
M 3700 1844 
L 3700 1244 
L 5400 1244 
L 5400 1844 
L 3700 1844 
z
M 3700 884 
L 3700 231 
L 5400 231 
L 5400 884 
L 3700 884 
z
" transform="scale(0.015625)"/>
      <path id="IPAexGothic-3072" d="M 550 3828 
Q 1725 4038 2784 4494 
L 3053 4091 
Q 1594 2788 1594 1575 
Q 1594 1044 1888 694 
Q 2216 309 2759 309 
Q 3472 309 3872 909 
Q 4213 1425 4213 2547 
Q 4213 3550 3988 4238 
L 4428 4409 
Q 4900 3409 5972 2209 
L 5594 1806 
Q 5016 2534 4513 3513 
Q 4653 2678 4653 2197 
Q 4653 1178 4275 578 
Q 3784 -191 2747 -191 
Q 2009 -191 1534 303 
Q 1088 769 1088 1519 
Q 1088 2653 2291 3884 
Q 1663 3597 763 3378 
L 550 3828 
z
" transform="scale(0.015625)"/>
      <path id="IPAexGothic-3052" d="M 5291 4213 
Q 5144 4731 4941 5113 
L 5297 5247 
Q 5528 4856 5669 4372 
L 5291 4213 
z
M 5925 4469 
Q 5778 4925 5541 5325 
L 5900 5478 
Q 6125 5125 6297 4634 
L 5925 4469 
z
M 2463 3481 
Q 2800 3463 3128 3463 
Q 3600 3463 4247 3506 
Q 4213 4434 4159 4897 
L 4672 4897 
Q 4678 4772 4734 3566 
Q 5228 3634 5619 3744 
L 5656 3291 
Q 5266 3159 4747 3109 
Q 4753 2875 4753 2606 
Q 4753 1434 4484 856 
Q 4159 138 3256 -313 
L 2847 56 
Q 3719 441 4003 1006 
Q 4272 1525 4272 2625 
Q 4272 2853 4269 3059 
Q 3631 3009 3084 3009 
Q 2700 3009 2500 3022 
L 2463 3481 
z
M 1834 2088 
L 2163 1881 
Q 1606 872 1588 166 
L 1169 72 
Q 850 1184 850 2272 
Q 850 3181 1253 4872 
L 1728 4750 
Q 1325 3166 1325 2163 
Q 1325 1722 1400 1222 
L 1834 2088 
z
" transform="scale(0.015625)"/>
      <path id="IPAexGothic-56f3" d="M 3375 1428 
Q 2606 747 1625 447 
L 1356 831 
Q 2297 1091 2966 1631 
L 2791 1709 
Q 2138 2022 1338 2328 
L 1575 2669 
Q 2356 2375 3297 1941 
Q 4069 2759 4422 4178 
L 4853 4013 
Q 4456 2588 3694 1747 
Q 4313 1434 5000 1050 
L 4706 666 
Q 4113 1041 3431 1394 
L 3375 1428 
z
M 2131 2681 
Q 1897 3466 1625 3903 
L 2038 4084 
Q 2331 3563 2559 2869 
L 2131 2681 
z
M 3169 2834 
Q 2934 3603 2663 4056 
L 3059 4225 
Q 3366 3728 3597 3022 
L 3169 2834 
z
M 5769 4984 
L 5769 -447 
L 5300 -447 
L 5300 -128 
L 1097 -128 
L 1097 -447 
L 628 -447 
L 628 4984 
L 5769 4984 
z
M 1097 4575 
L 1097 275 
L 5300 275 
L 5300 4575 
L 1097 4575 
z
" transform="scale(0.015625)"/>
      <path id="IPAexGothic-ff1a" d="M 2822 3366 
L 3578 3366 
L 3578 2609 
L 2822 2609 
L 2822 3366 
z
M 2822 1081 
L 3578 1081 
L 3578 325 
L 2822 325 
L 2822 1081 
z
" transform="scale(0.015625)"/>
      <path id="IPAexGothic-30b0" d="M 4769 4128 
L 5106 3878 
Q 4728 2272 3866 1238 
Q 3106 328 1863 -288 
L 1491 122 
Q 2709 628 3475 1563 
Q 4238 2491 4525 3669 
L 2738 3669 
Q 2022 2591 1191 1897 
L 813 2247 
Q 2163 3338 2766 4959 
L 3256 4819 
Q 3197 4609 2975 4128 
L 4769 4128 
z
M 6009 4422 
Q 5647 4966 5253 5294 
L 5556 5522 
Q 5941 5213 6328 4697 
L 6009 4422 
z
M 5416 3956 
Q 5125 4447 4678 4844 
L 4991 5088 
Q 5363 4781 5747 4231 
L 5416 3956 
z
" transform="scale(0.015625)"/>
      <path id="IPAexGothic-30eb" d="M 353 331 
Q 1313 994 1544 2022 
Q 1684 2650 1684 4397 
L 2203 4397 
L 2203 4153 
L 2203 4116 
Q 2203 2259 1934 1491 
Q 1619 588 744 -38 
L 353 331 
z
M 3125 4666 
L 3650 4666 
L 3650 769 
Q 4875 1488 5672 2734 
L 6000 2278 
Q 5075 966 3516 63 
L 3125 359 
L 3125 4666 
z
" transform="scale(0.015625)"/>
      <path id="IPAexGothic-30d7" d="M 4825 4275 
L 5125 4000 
Q 4884 2378 4081 1381 
Q 3294 413 1888 -116 
L 1522 331 
Q 4069 1113 4550 3803 
L 966 3738 
L 966 4225 
L 4825 4275 
z
M 5597 5509 
Q 5906 5509 6119 5275 
Q 6303 5075 6303 4806 
Q 6303 4494 6069 4281 
Q 5866 4097 5597 4097 
Q 5284 4097 5072 4331 
Q 4888 4534 4888 4806 
Q 4888 5116 5122 5328 
Q 5328 5509 5597 5509 
z
M 5597 5228 
Q 5409 5228 5278 5088 
Q 5169 4966 5169 4806 
Q 5169 4616 5309 4488 
Q 5434 4378 5597 4378 
Q 5784 4378 5913 4519 
Q 6022 4641 6022 4806 
Q 6022 4991 5881 5119 
Q 5759 5228 5597 5228 
z
" transform="scale(0.015625)"/>
      <path id="IPAexGothic-9593" d="M 4450 2566 
L 4450 353 
L 2375 353 
L 2375 -25 
L 1953 -25 
L 1953 2566 
L 4450 2566 
z
M 4028 2200 
L 2375 2200 
L 2375 1653 
L 4028 1653 
L 4028 2200 
z
M 4028 1300 
L 2375 1300 
L 2375 719 
L 4028 719 
L 4028 1300 
z
M 2913 5019 
L 2913 3059 
L 1056 3059 
L 1056 -447 
L 609 -447 
L 609 5019 
L 2913 5019 
z
M 1056 4659 
L 1056 4206 
L 2497 4206 
L 2497 4659 
L 1056 4659 
z
M 1056 3881 
L 1056 3413 
L 2497 3413 
L 2497 3881 
L 1056 3881 
z
M 5788 5019 
L 5788 91 
Q 5788 -225 5641 -331 
Q 5525 -409 5231 -409 
Q 4803 -409 4481 -366 
L 4419 97 
Q 4853 38 5128 38 
Q 5341 38 5341 244 
L 5341 3059 
L 3438 3059 
L 3438 5019 
L 5788 5019 
z
M 3853 4659 
L 3853 4206 
L 5341 4206 
L 5341 4659 
L 3853 4659 
z
M 3853 3881 
L 3853 3413 
L 5341 3413 
L 5341 3881 
L 3853 3881 
z
" transform="scale(0.015625)"/>
      <path id="IPAexGothic-306e" d="M 3119 469 
Q 5275 766 5275 2425 
Q 5275 3453 4413 3925 
Q 4041 4116 3547 4159 
Q 3394 2525 2850 1400 
Q 2322 306 1722 306 
Q 1384 306 1084 666 
Q 609 1244 609 2003 
Q 609 3025 1397 3794 
Q 2184 4563 3431 4563 
Q 4306 4563 4928 4122 
Q 5813 3506 5813 2425 
Q 5813 438 3431 6 
L 3119 469 
z
M 3053 4147 
Q 2378 4044 1891 3641 
Q 1097 2981 1097 1991 
Q 1097 1366 1434 978 
Q 1581 813 1719 813 
Q 2022 813 2416 1625 
Q 2909 2638 3053 4147 
z
" transform="scale(0.015625)"/>
      <path id="IPAexGothic-5206" d="M 3031 2431 
Q 2916 1378 2528 759 
Q 1991 -81 941 -469 
L 625 -53 
Q 2356 488 2541 2431 
L 1375 2431 
L 1375 2772 
Q 1044 2431 653 2156 
L 313 2534 
Q 1600 3425 2219 5056 
L 2688 4875 
Q 2200 3672 1453 2847 
L 4966 2847 
Q 4878 559 4741 94 
Q 4666 -163 4459 -250 
Q 4288 -322 3941 -322 
Q 3525 -322 2981 -263 
L 2884 256 
Q 3441 138 3844 138 
Q 4213 138 4281 438 
Q 4388 931 4472 2431 
L 3031 2431 
z
M 5747 2303 
Q 4416 3238 3506 4934 
L 3934 5113 
Q 4747 3572 6084 2747 
L 5747 2303 
z
" transform="scale(0.015625)"/>
      <path id="IPAexGothic-5e03" d="M 3228 2741 
L 3228 3584 
L 3688 3584 
L 3688 2741 
L 5500 2741 
L 5500 750 
Q 5500 475 5353 369 
Q 5228 272 4900 272 
Q 4625 272 4269 291 
L 4188 775 
Q 4600 713 4834 713 
Q 5047 713 5047 956 
L 5047 2325 
L 3688 2325 
L 3688 -447 
L 3228 -447 
L 3228 2325 
L 2056 2325 
L 2056 91 
L 1603 91 
L 1603 2228 
Q 1159 1747 622 1313 
L 303 1691 
Q 1544 2625 2144 3847 
L 516 3847 
L 516 4275 
L 2338 4275 
Q 2506 4684 2656 5228 
L 3150 5153 
Q 2988 4581 2856 4275 
L 5984 4275 
L 5984 3847 
L 2669 3847 
Q 2369 3231 2009 2741 
L 3228 2741 
z
" transform="scale(0.015625)"/>
      <path id="IPAexGothic-3092" d="M 1094 4263 
Q 1544 4222 2359 4222 
Q 2581 4734 2700 5163 
L 3175 5028 
Q 2997 4538 2859 4256 
Q 3516 4284 4294 4459 
L 4356 4019 
Q 3603 3869 2656 3819 
Q 2391 3284 2059 2797 
Q 2531 3200 2963 3200 
Q 3638 3200 3859 2378 
Q 4556 2681 5338 2950 
L 5575 2528 
Q 4641 2253 3941 1956 
Q 3981 1678 3994 1028 
L 3513 991 
Q 3513 1456 3494 1753 
Q 2388 1194 2388 716 
Q 2388 428 2753 328 
Q 3066 241 3806 241 
Q 4394 241 5178 344 
L 5216 -128 
Q 4434 -213 3653 -213 
Q 2656 -213 2244 41 
Q 1913 244 1913 631 
Q 1913 1094 2344 1497 
Q 2709 1841 3428 2181 
Q 3266 2797 2878 2797 
Q 2238 2797 1209 1419 
L 838 1694 
Q 1625 2716 2163 3800 
Q 1522 3800 1088 3825 
L 1094 4263 
z
" transform="scale(0.015625)"/>
      <path id="IPAexGothic-6bd4" d="M 1525 3250 
L 3003 3250 
L 3003 2822 
L 1525 2822 
L 1525 472 
Q 2469 747 3016 934 
L 3041 531 
Q 1813 59 459 -300 
L 294 159 
Q 694 250 1056 344 
L 1056 5081 
L 1525 5081 
L 1525 3250 
z
M 3794 3028 
Q 4691 3472 5341 4038 
L 5744 3706 
Q 4778 2969 3794 2572 
L 3794 556 
Q 3794 353 3978 313 
Q 4106 288 4472 288 
Q 5169 288 5328 378 
Q 5491 463 5522 1516 
L 5994 1356 
Q 5966 238 5772 34 
Q 5566 -172 4491 -172 
Q 3809 -172 3588 -75 
Q 3334 28 3334 397 
L 3334 5113 
L 3794 5113 
L 3794 3028 
z
" transform="scale(0.015625)"/>
      <path id="IPAexGothic-8f03" d="M 1413 3688 
L 1413 4153 
L 384 4153 
L 384 4538 
L 1413 4538 
L 1413 5313 
L 1816 5313 
L 1816 4538 
L 2875 4538 
L 2875 4153 
L 1816 4153 
L 1816 3688 
L 2734 3688 
L 2734 1516 
L 1816 1516 
L 1816 1013 
L 2931 1013 
L 2931 628 
L 1816 628 
L 1816 -447 
L 1413 -447 
L 1413 628 
L 294 628 
L 294 1013 
L 1413 1013 
L 1413 1516 
L 531 1516 
L 531 3688 
L 1413 3688 
z
M 1425 3353 
L 903 3353 
L 903 2778 
L 1425 2778 
L 1425 3353 
z
M 1803 3353 
L 1803 2778 
L 2363 2778 
L 2363 3353 
L 1803 3353 
z
M 1425 2456 
L 903 2456 
L 903 1856 
L 1425 1856 
L 1425 2456 
z
M 1803 2456 
L 1803 1856 
L 2363 1856 
L 2363 2456 
L 1803 2456 
z
M 4241 1013 
Q 3791 1606 3550 2338 
L 3916 2509 
Q 4091 1900 4478 1363 
Q 4825 1941 4978 2638 
L 5375 2491 
Q 5194 1719 4747 1031 
Q 5294 444 6144 44 
L 5859 -378 
Q 5069 50 4497 691 
Q 3853 -78 3050 -481 
L 2750 -128 
Q 3644 259 4241 1013 
z
M 4647 4263 
L 6059 4263 
L 6059 3853 
L 2963 3853 
L 2963 4263 
L 4206 4263 
L 4206 5313 
L 4647 5313 
L 4647 4263 
z
M 2847 2297 
Q 3406 2859 3738 3700 
L 4119 3541 
Q 3769 2644 3153 1991 
L 2847 2297 
z
M 5759 2106 
Q 5334 2863 4734 3541 
L 5075 3731 
Q 5731 3044 6097 2419 
L 5759 2106 
z
" transform="scale(0.015625)"/>
      <path id="IPAexGothic-3059" d="M 3322 5075 
L 3816 5075 
L 3816 4063 
Q 4131 4075 5756 4116 
L 5756 3669 
Q 5431 3672 3816 3653 
L 3816 2463 
Q 3956 2125 3956 1741 
Q 3956 922 3519 397 
Q 3128 -72 2309 -409 
L 1941 -31 
Q 3263 453 3488 1363 
Q 3250 1031 2809 1031 
Q 2441 1031 2150 1313 
Q 1875 1588 1875 2050 
Q 1875 2475 2166 2769 
Q 2431 3041 2822 3041 
Q 3088 3041 3322 2881 
L 3322 3641 
Q 3000 3634 609 3547 
L 609 3988 
Q 1197 4000 2106 4022 
Q 3066 4047 3322 4050 
L 3322 5075 
z
M 3372 2044 
Q 3372 2300 3194 2478 
Q 3050 2613 2869 2613 
Q 2622 2613 2463 2406 
Q 2344 2250 2344 2088 
Q 2344 1797 2484 1622 
Q 2625 1453 2859 1453 
Q 3372 1453 3372 2044 
z
" transform="scale(0.015625)"/>
      <path id="IPAexGothic-308b" d="M 4391 4397 
L 2613 2588 
Q 3225 2809 3759 2809 
Q 4263 2809 4659 2625 
Q 5391 2269 5391 1484 
Q 5391 756 4706 275 
Q 4072 -166 3053 -166 
Q 2559 -166 2247 19 
Q 1863 250 1863 666 
Q 1863 934 2069 1141 
Q 2331 1403 2741 1403 
Q 3509 1403 4019 428 
Q 4872 784 4872 1491 
Q 4872 1981 4469 2222 
Q 4166 2406 3681 2406 
Q 2425 2406 1238 1209 
L 891 1581 
Q 2438 2934 3578 4281 
Q 2594 4125 1588 4066 
L 1478 4550 
Q 2594 4581 4109 4763 
L 4391 4397 
z
M 3591 303 
Q 3244 1025 2731 1025 
Q 2553 1025 2434 934 
Q 2316 844 2316 700 
Q 2316 250 3034 250 
Q 3275 250 3591 303 
z
" transform="scale(0.015625)"/>
     </defs>
     <use xlink:href="#IPAexGothic-7bb1"/>
     <use xlink:href="#IPAexGothic-3072" x="100"/>
     <use xlink:href="#IPAexGothic-3052" x="200"/>
     <use xlink:href="#IPAexGothic-56f3" x="300"/>
     <use xlink:href="#IPAexGothic-ff1a" x="400"/>
     <use xlink:href="#IPAexGothic-30b0" x="500"/>
     <use xlink:href="#IPAexGothic-30eb" x="600"/>
     <use xlink:href="#IPAexGothic-30fc" x="700"/>
     <use xlink:href="#IPAexGothic-30d7" x="800"/>
     <use xlink:href="#IPAexGothic-9593" x="900"/>
     <use xlink:href="#IPAexGothic-306e" x="1000"/>
     <use xlink:href="#IPAexGothic-5206" x="1100"/>
     <use xlink:href="#IPAexGothic-5e03" x="1200"/>
     <use xlink:href="#IPAexGothic-3092" x="1300"/>
     <use xlink:href="#IPAexGothic-6bd4" x="1400"/>
     <use xlink:href="#IPAexGothic-8f03" x="1500"/>
     <use xlink:href="#IPAexGothic-3059" x="1600"/>
     <use xlink:href="#IPAexGothic-308b" x="1700"/>
    </g>
   </g>
   <g id="text_3">
    <!-- 要素 -->
    <g style="fill: #ffffff" transform="translate(38.88 88.454141) scale(0.125 -0.125)">
     <defs>
      <path id="IPAexGothic-8981" d="M 2278 4025 
L 2278 4581 
L 528 4581 
L 528 4978 
L 5856 4978 
L 5856 4581 
L 4081 4581 
L 4081 4025 
L 5522 4025 
L 5522 2547 
L 863 2547 
L 863 4025 
L 2278 4025 
z
M 2694 4025 
L 3659 4025 
L 3659 4581 
L 2694 4581 
L 2694 4025 
z
M 2278 3666 
L 1316 3666 
L 1316 2906 
L 2278 2906 
L 2278 3666 
z
M 2694 3666 
L 2694 2906 
L 3659 2906 
L 3659 3666 
L 2694 3666 
z
M 4081 3666 
L 4081 2906 
L 5075 2906 
L 5075 3666 
L 4081 3666 
z
M 3066 338 
Q 2547 503 1694 722 
L 1503 775 
Q 1816 1141 2066 1503 
L 447 1503 
L 447 1900 
L 2316 1900 
Q 2497 2225 2641 2516 
L 3084 2366 
Q 2984 2172 2834 1900 
L 5950 1900 
L 5950 1503 
L 4619 1503 
Q 4369 878 3988 484 
Q 4750 263 5797 -91 
L 5413 -488 
Q 4441 -100 3597 172 
Q 2706 -406 869 -531 
L 625 -97 
Q 2122 -28 3066 338 
z
M 3513 619 
Q 3934 1025 4134 1503 
L 2597 1503 
Q 2413 1213 2238 984 
L 2213 953 
Q 2656 853 3513 619 
z
" transform="scale(0.015625)"/>
      <path id="IPAexGothic-7d20" d="M 3419 1172 
L 3419 -450 
L 2931 -450 
L 2931 1144 
L 2553 1125 
Q 1875 1094 538 1063 
L 397 1497 
Q 1191 1497 2175 1509 
L 2350 1516 
Q 1784 2013 1350 2316 
L 1678 2584 
Q 2013 2347 2188 2206 
Q 2488 2456 2803 2841 
L 347 2841 
L 347 3213 
L 2944 3213 
L 2944 3603 
L 953 3603 
L 953 3956 
L 2944 3956 
L 2944 4313 
L 666 4313 
L 666 4678 
L 2944 4678 
L 2944 5313 
L 3413 5313 
L 3413 4678 
L 5728 4678 
L 5728 4313 
L 3413 4313 
L 3413 3956 
L 5441 3956 
L 5441 3603 
L 3413 3603 
L 3413 3213 
L 6050 3213 
L 6050 2841 
L 2931 2841 
L 3234 2656 
Q 2897 2309 2472 1963 
Q 2669 1800 2938 1541 
Q 3656 2131 4175 2669 
L 4591 2444 
Q 4069 1922 3541 1547 
Q 3719 1547 3809 1553 
L 4666 1588 
L 4781 1594 
L 5056 1606 
Q 4819 1819 4578 1997 
L 4916 2247 
Q 5531 1794 6056 1241 
L 5697 941 
Q 5506 1163 5378 1291 
Q 5319 1291 5275 1284 
Q 4719 1238 3663 1178 
L 3419 1172 
z
M 500 -13 
Q 1347 356 1947 966 
L 2375 750 
Q 1775 81 884 -384 
L 500 -13 
z
M 5581 -256 
Q 4844 369 4084 769 
L 4463 1044 
Q 5219 669 5991 109 
L 5581 -256 
z
" transform="scale(0.015625)"/>
     </defs>
     <use xlink:href="#IPAexGothic-8981"/>
     <use xlink:href="#IPAexGothic-7d20" x="100"/>
    </g>
   </g>
   <g id="text_4">
    <!-- 意味 -->
    <g style="fill: #ffffff" transform="translate(182.88 88.454141) scale(0.125 -0.125)">
     <defs>
      <path id="IPAexGothic-610f" d="M 3206 1394 
Q 3563 1097 3897 666 
L 3525 391 
Q 3166 878 2850 1175 
L 3188 1394 
L 1281 1394 
L 1281 3084 
L 5106 3084 
L 5106 1394 
L 3206 1394 
z
M 1747 2744 
L 1747 2419 
L 4647 2419 
L 4647 2744 
L 1747 2744 
z
M 1747 2088 
L 1747 1734 
L 4647 1734 
L 4647 2088 
L 1747 2088 
z
M 3419 4722 
L 5625 4722 
L 5625 4369 
L 4556 4369 
Q 4438 4066 4288 3809 
L 5978 3809 
L 5978 3444 
L 416 3444 
L 416 3809 
L 2081 3809 
Q 1981 4081 1819 4369 
L 769 4369 
L 769 4722 
L 2938 4722 
L 2938 5309 
L 3419 5309 
L 3419 4722 
z
M 2316 4369 
Q 2425 4169 2553 3809 
L 3828 3809 
Q 3969 4066 4072 4369 
L 2316 4369 
z
M 397 -25 
Q 869 419 1178 1044 
L 1581 863 
Q 1275 144 775 -347 
L 397 -25 
z
M 2009 1131 
L 2478 1131 
L 2478 319 
Q 2478 128 2581 100 
Q 2697 56 3284 56 
Q 4184 56 4275 141 
Q 4363 216 4391 703 
L 4834 581 
Q 4825 -34 4634 -206 
Q 4450 -372 3400 -372 
Q 2453 -372 2259 -288 
Q 2009 -194 2009 141 
L 2009 1131 
z
M 5728 -191 
Q 5306 447 4703 991 
L 5038 1234 
Q 5631 756 6125 141 
L 5728 -191 
z
" transform="scale(0.015625)"/>
      <path id="IPAexGothic-5473" d="M 4366 2413 
Q 4941 1313 6125 569 
L 5781 141 
Q 4756 934 4244 1991 
L 4244 -447 
L 3803 -447 
L 3803 1931 
Q 3331 747 2153 -59 
L 1825 319 
Q 3094 1072 3681 2413 
L 2294 2413 
L 2294 2822 
L 3803 2822 
L 3803 3775 
L 2422 3775 
L 2422 4178 
L 3803 4178 
L 3803 5272 
L 4244 5272 
L 4244 4178 
L 5747 4178 
L 5747 3775 
L 4244 3775 
L 4244 2822 
L 6003 2822 
L 6003 2413 
L 4366 2413 
z
M 2144 4634 
L 2144 1075 
L 966 1075 
L 966 575 
L 538 575 
L 538 4634 
L 2144 4634 
z
M 966 4225 
L 966 1478 
L 1709 1478 
L 1709 4225 
L 966 4225 
z
" transform="scale(0.015625)"/>
     </defs>
     <use xlink:href="#IPAexGothic-610f"/>
     <use xlink:href="#IPAexGothic-5473" x="100"/>
    </g>
   </g>
   <g id="text_5">
    <!-- 中央の線（赤） -->
    <g style="fill: #2c3e50" transform="translate(38.88 114.374141) scale(0.125 -0.125)">
     <defs>
      <path id="IPAexGothic-4e2d" d="M 2925 3950 
L 2925 5209 
L 3425 5209 
L 3425 3950 
L 5613 3950 
L 5613 1125 
L 5125 1125 
L 5125 1594 
L 3425 1594 
L 3425 -447 
L 2925 -447 
L 2925 1594 
L 1263 1594 
L 1263 1094 
L 775 1094 
L 775 3950 
L 2925 3950 
z
M 1263 3534 
L 1263 2009 
L 2925 2009 
L 2925 3534 
L 1263 3534 
z
M 5125 2009 
L 5125 3534 
L 3425 3534 
L 3425 2009 
L 5125 2009 
z
" transform="scale(0.015625)"/>
      <path id="IPAexGothic-592e" d="M 3578 1947 
Q 4238 694 5972 134 
L 5631 -294 
Q 3844 378 3250 1750 
Q 2916 216 806 -403 
L 506 16 
Q 2547 475 2894 1947 
L 353 1947 
L 353 2363 
L 1256 2363 
L 1256 4178 
L 2938 4178 
L 2938 5216 
L 3413 5216 
L 3413 4178 
L 5141 4178 
L 5141 2363 
L 6044 2363 
L 6044 1947 
L 3578 1947 
z
M 2938 3763 
L 1703 3763 
L 1703 2363 
L 2938 2363 
L 2938 3763 
z
M 3413 3763 
L 3413 2363 
L 4688 2363 
L 4688 3763 
L 3413 3763 
z
" transform="scale(0.015625)"/>
      <path id="IPAexGothic-7dda" d="M 1247 3078 
Q 838 3659 378 4122 
L 666 4428 
Q 788 4306 916 4153 
Q 1281 4681 1541 5331 
L 1956 5119 
Q 1553 4391 1156 3866 
Q 1394 3547 1478 3419 
Q 1863 3991 2156 4550 
L 2541 4313 
Q 1859 3213 1319 2572 
Q 1700 2581 2266 2631 
Q 2169 2872 2016 3150 
L 2366 3303 
Q 2675 2750 2884 2106 
L 2500 1919 
Q 2494 1947 2378 2322 
Q 2147 2281 1791 2234 
L 1791 -447 
L 1369 -447 
L 1369 2181 
Q 975 2134 428 2106 
L 281 2534 
Q 722 2544 863 2553 
Q 947 2666 1247 3078 
z
M 4678 1553 
L 4678 25 
Q 4678 -231 4569 -319 
Q 4472 -397 4225 -397 
Q 3991 -397 3725 -366 
L 3659 56 
Q 3891 13 4122 13 
Q 4275 13 4275 184 
L 4275 2444 
L 3116 2444 
L 3116 4691 
L 4019 4691 
Q 4091 4934 4178 5356 
L 4647 5278 
Q 4506 4884 4416 4691 
L 5772 4691 
L 5772 2444 
L 4697 2444 
Q 4803 1978 5025 1594 
Q 5416 1984 5644 2316 
L 6003 2047 
Q 5578 1584 5216 1288 
Q 5609 738 6213 269 
L 5938 -116 
Q 5056 606 4678 1553 
z
M 3531 4331 
L 3531 3756 
L 5356 3756 
L 5356 4331 
L 3531 4331 
z
M 3531 3403 
L 3531 2803 
L 5356 2803 
L 5356 3403 
L 3531 3403 
z
M 353 206 
Q 566 769 653 1759 
L 1063 1709 
Q 984 678 769 -13 
L 353 206 
z
M 2322 428 
Q 2222 1150 2009 1759 
L 2375 1869 
Q 2581 1366 2738 616 
L 2322 428 
z
M 2834 1925 
L 3950 1925 
L 4153 1747 
Q 3781 534 2878 -231 
L 2578 69 
Q 3359 666 3666 1541 
L 2834 1541 
L 2834 1925 
z
" transform="scale(0.015625)"/>
      <path id="IPAexGothic-ff08" d="M 5419 -434 
Q 4197 769 4197 2438 
Q 4197 4097 5419 5300 
L 5919 5300 
Q 4678 4078 4678 2425 
Q 4678 788 5919 -434 
L 5419 -434 
z
" transform="scale(0.015625)"/>
      <path id="IPAexGothic-8d64" d="M 4059 2803 
L 4059 97 
Q 4059 -184 3950 -313 
Q 3831 -441 3528 -441 
Q 3147 -441 2813 -391 
L 2734 97 
Q 3059 13 3388 13 
Q 3600 13 3600 197 
L 3600 2803 
L 2831 2803 
L 2831 2309 
Q 2831 1322 2563 697 
Q 2247 -53 1416 -519 
L 1097 -128 
Q 1844 231 2147 922 
Q 2363 1431 2363 2309 
L 2363 2803 
L 456 2803 
L 456 3213 
L 2941 3213 
L 2941 3988 
L 1025 3988 
L 1025 4384 
L 2941 4384 
L 2941 5313 
L 3422 5313 
L 3422 4384 
L 5363 4384 
L 5363 3988 
L 3422 3988 
L 3422 3213 
L 5941 3213 
L 5941 2803 
L 4059 2803 
z
M 531 716 
Q 1150 1366 1428 2350 
L 1875 2228 
Q 1553 1119 903 372 
L 531 716 
z
M 5356 372 
Q 4931 1381 4353 2175 
L 4756 2400 
Q 5381 1594 5831 672 
L 5356 372 
z
" transform="scale(0.015625)"/>
      <path id="IPAexGothic-ff09" d="M 481 -434 
Q 1722 788 1722 2431 
Q 1722 4066 481 5300 
L 981 5300 
Q 2203 4097 2203 2431 
Q 2203 769 981 -434 
L 481 -434 
z
" transform="scale(0.015625)"/>
     </defs>
     <use xlink:href="#IPAexGothic-4e2d"/>
     <use xlink:href="#IPAexGothic-592e" x="100"/>
     <use xlink:href="#IPAexGothic-306e" x="200"/>
     <use xlink:href="#IPAexGothic-7dda" x="300"/>
     <use xlink:href="#IPAexGothic-ff08" x="400"/>
     <use xlink:href="#IPAexGothic-8d64" x="500"/>
     <use xlink:href="#IPAexGothic-ff09" x="600"/>
    </g>
   </g>
   <g id="text_6">
    <!-- 中央値（Q2）：データを半分に分ける値 -->
    <g style="fill: #2c3e50" transform="translate(182.88 114.401484) scale(0.125 -0.125)">
     <defs>
      <path id="IPAexGothic-5024" d="M 4172 3675 
L 5453 3675 
L 5453 684 
L 3019 684 
L 3019 3675 
L 3750 3675 
Q 3788 3884 3825 4153 
L 2141 4153 
L 2141 4544 
L 3884 4544 
Q 3922 4844 3966 5325 
L 4434 5272 
L 4388 4953 
Q 4331 4578 4331 4544 
L 5863 4544 
L 5863 4153 
L 4269 4153 
Q 4200 3781 4172 3675 
z
M 5038 3316 
L 3434 3316 
L 3434 2803 
L 5038 2803 
L 5038 3316 
z
M 3434 2450 
L 3434 1941 
L 5038 1941 
L 5038 2450 
L 3434 2450 
z
M 3434 1588 
L 3434 1044 
L 5038 1044 
L 5038 1588 
L 3434 1588 
z
M 1509 3669 
L 1509 -447 
L 1069 -447 
L 1069 2725 
Q 856 2338 531 1875 
L 288 2266 
Q 1163 3531 1541 5325 
L 1975 5222 
Q 1791 4378 1509 3669 
z
M 2488 244 
L 6031 244 
L 6031 -153 
L 2488 -153 
L 2488 -447 
L 2059 -447 
L 2059 3213 
L 2488 3213 
L 2488 244 
z
" transform="scale(0.015625)"/>
      <path id="IPAexGothic-51" d="M 4800 88 
L 4494 -306 
Q 3991 38 3681 281 
Q 3181 -25 2528 -25 
Q 1634 -25 1050 556 
Q 378 1219 378 2350 
Q 378 3469 1044 4138 
Q 1631 4725 2541 4725 
Q 3456 4725 4044 4138 
Q 4709 3469 4709 2350 
Q 4709 1306 4059 588 
Q 4413 319 4800 88 
z
M 3669 900 
Q 4122 1403 4122 2338 
Q 4122 3291 3578 3838 
Q 3150 4266 2541 4266 
Q 1947 4266 1519 3838 
Q 981 3300 981 2350 
Q 981 1406 1513 875 
Q 1947 441 2575 441 
Q 3003 441 3297 619 
Q 2844 931 2381 1209 
L 2663 1594 
Q 3225 1222 3669 900 
z
" transform="scale(0.015625)"/>
      <path id="IPAexGothic-534a" d="M 2934 3053 
L 2934 5288 
L 3422 5288 
L 3422 3053 
L 5597 3053 
L 5597 2638 
L 3422 2638 
L 3422 1772 
L 5950 1772 
L 5950 1356 
L 3422 1356 
L 3422 -447 
L 2934 -447 
L 2934 1356 
L 450 1356 
L 450 1772 
L 2934 1772 
L 2934 2638 
L 803 2638 
L 803 3053 
L 2934 3053 
z
M 1819 3294 
Q 1456 4113 1056 4619 
L 1459 4869 
Q 1909 4288 2253 3531 
L 1819 3294 
z
M 4097 3469 
Q 4566 4197 4866 4947 
L 5325 4734 
Q 4959 3938 4494 3263 
L 4097 3469 
z
" transform="scale(0.015625)"/>
      <path id="IPAexGothic-306b" d="M 1088 -38 
Q 922 1003 922 2081 
Q 922 3222 1331 4794 
L 1813 4684 
Q 1391 3113 1391 2003 
Q 1391 1441 1422 1147 
Q 1434 1181 1813 2016 
L 2125 1797 
Q 1800 1081 1691 763 
Q 1581 453 1581 269 
Q 1581 78 1588 6 
L 1088 -38 
z
M 2834 4038 
Q 3969 4213 5313 4172 
L 5338 3681 
Q 3959 3728 2869 3547 
L 2834 4038 
z
M 5650 256 
Q 5044 172 4372 172 
Q 3463 172 3047 434 
Q 2784 594 2675 841 
Q 2572 1075 2572 1447 
Q 2572 1563 2578 1656 
L 3053 1684 
Q 3050 1613 3044 1528 
Q 3041 1481 3041 1466 
Q 3041 1200 3119 1053 
Q 3178 944 3309 850 
Q 3569 678 4275 678 
Q 4891 678 5588 763 
L 5650 256 
z
" transform="scale(0.015625)"/>
      <path id="IPAexGothic-3051" d="M 2553 3481 
Q 2891 3463 3219 3463 
Q 3691 3463 4338 3506 
Q 4303 4434 4250 4897 
L 4763 4897 
Q 4769 4772 4825 3566 
Q 5319 3634 5709 3744 
L 5747 3291 
Q 5356 3159 4838 3109 
Q 4844 2875 4844 2606 
Q 4844 1434 4575 856 
Q 4250 138 3347 -313 
L 2938 56 
Q 3809 441 4094 1006 
Q 4363 1525 4363 2625 
Q 4363 2853 4359 3059 
Q 3722 3009 3175 3009 
Q 2791 3009 2591 3022 
L 2553 3481 
z
M 1925 2088 
L 2253 1881 
Q 1697 872 1678 166 
L 1259 72 
Q 941 1184 941 2272 
Q 941 3181 1344 4872 
L 1819 4750 
Q 1416 3166 1416 2163 
Q 1416 1722 1491 1222 
L 1925 2088 
z
" transform="scale(0.015625)"/>
     </defs>
     <use xlink:href="#IPAexGothic-4e2d"/>
     <use xlink:href="#IPAexGothic-592e" x="100"/>
     <use xlink:href="#IPAexGothic-5024" x="200"/>
     <use xlink:href="#IPAexGothic-ff08" x="300"/>
     <use xlink:href="#IPAexGothic-51" x="400"/>
     <use xlink:href="#IPAexGothic-32" x="479.6875"/>
     <use xlink:href="#IPAexGothic-ff09" x="542.675781"/>
     <use xlink:href="#IPAexGothic-ff1a" x="642.675781"/>
     <use xlink:href="#IPAexGothic-30c7" x="742.675781"/>
     <use xlink:href="#IPAexGothic-30fc" x="842.675781"/>
     <use xlink:href="#IPAexGothic-30bf" x="942.675781"/>
     <use xlink:href="#IPAexGothic-3092" x="1042.675781"/>
     <use xlink:href="#IPAexGothic-534a" x="1142.675781"/>
     <use xlink:href="#IPAexGothic-5206" x="1242.675781"/>
     <use xlink:href="#IPAexGothic-306b" x="1342.675781"/>
     <use xlink:href="#IPAexGothic-5206" x="1442.675781"/>
     <use xlink:href="#IPAexGothic-3051" x="1542.675781"/>
     <use xlink:href="#IPAexGothic-308b" x="1642.675781"/>
     <use xlink:href="#IPAexGothic-5024" x="1742.675781"/>
    </g>
   </g>
   <g id="text_7">
    <!-- 箱の上端 -->
    <g style="fill: #2c3e50" transform="translate(38.88 140.294141) scale(0.125 -0.125)">
     <defs>
      <path id="IPAexGothic-4e0a" d="M 3259 3366 
L 5475 3366 
L 5475 2913 
L 3259 2913 
L 3259 556 
L 5991 556 
L 5991 103 
L 391 103 
L 391 556 
L 2772 556 
L 2772 5050 
L 3259 5050 
L 3259 3366 
z
" transform="scale(0.015625)"/>
      <path id="IPAexGothic-7aef" d="M 4034 2138 
L 5888 2138 
L 5888 19 
Q 5888 -225 5803 -306 
Q 5719 -403 5478 -403 
Q 5319 -403 5109 -384 
L 5056 44 
Q 5263 13 5331 13 
Q 5478 13 5478 178 
L 5478 1753 
L 4866 1753 
L 4866 -294 
L 4481 -294 
L 4481 1753 
L 3931 1753 
L 3931 -294 
L 3553 -294 
L 3553 1753 
L 3003 1753 
L 3003 -447 
L 2594 -447 
L 2594 2138 
L 3631 2138 
Q 3734 2413 3803 2747 
L 2300 2747 
L 2300 3144 
L 6113 3144 
L 6113 2747 
L 4231 2747 
Q 4153 2444 4034 2138 
z
M 1509 4072 
L 2297 4072 
L 2297 3675 
L 306 3675 
L 306 4072 
L 1094 4072 
L 1094 5184 
L 1509 5184 
L 1509 4072 
z
M 1306 838 
L 1313 878 
Q 1475 1713 1631 3122 
L 1672 3463 
L 2106 3366 
Q 1913 1934 1709 966 
Q 1966 1050 2325 1184 
L 2356 825 
Q 1306 397 403 147 
L 250 556 
Q 866 697 1306 838 
z
M 4391 4019 
L 5350 4019 
L 5350 4972 
L 5753 4972 
L 5753 3634 
L 2650 3634 
L 2650 4972 
L 3059 4972 
L 3059 4019 
L 3975 4019 
L 3975 5313 
L 4391 5313 
L 4391 4019 
z
M 775 1081 
Q 663 2231 475 3219 
L 866 3300 
Q 1025 2538 1166 1203 
L 775 1081 
z
" transform="scale(0.015625)"/>
     </defs>
     <use xlink:href="#IPAexGothic-7bb1"/>
     <use xlink:href="#IPAexGothic-306e" x="100"/>
     <use xlink:href="#IPAexGothic-4e0a" x="200"/>
     <use xlink:href="#IPAexGothic-7aef" x="300"/>
    </g>
   </g>
   <g id="text_8">
    <!-- 第3四分位数（Q3）：上位25%の境界 -->
    <g style="fill: #2c3e50" transform="translate(182.88 140.294141) scale(0.125 -0.125)">
     <defs>
      <path id="IPAexGothic-7b2c" d="M 2256 4416 
Q 2394 4172 2513 3841 
L 2084 3666 
Q 1953 4150 1822 4416 
L 1419 4416 
Q 1122 3888 784 3513 
L 459 3769 
Q 1066 4406 1381 5313 
L 1797 5203 
Q 1731 5044 1613 4788 
L 3178 4788 
L 3178 4416 
L 2256 4416 
z
M 3031 1153 
Q 2178 222 888 -288 
L 559 78 
Q 1819 509 2713 1363 
L 1381 1363 
Q 1294 1013 1272 941 
L 831 1038 
Q 1047 1803 1150 2688 
L 3031 2688 
L 3031 3231 
L 956 3231 
L 956 3603 
L 5444 3603 
L 5444 2072 
L 5009 2072 
L 5009 2328 
L 3478 2328 
L 3478 1734 
L 5834 1734 
Q 5794 675 5713 353 
Q 5606 -31 5119 -31 
Q 4684 -31 4247 19 
L 4156 472 
Q 4609 391 4963 391 
Q 5225 391 5284 594 
Q 5322 763 5359 1319 
L 5359 1363 
L 3478 1363 
L 3478 -447 
L 3031 -447 
L 3031 1153 
z
M 5009 2688 
L 5009 3231 
L 3478 3231 
L 3478 2688 
L 5009 2688 
z
M 1547 2328 
Q 1522 2066 1456 1734 
L 3031 1734 
L 3031 2328 
L 1547 2328 
z
M 3947 4788 
L 5863 4788 
L 5863 4416 
L 4672 4416 
Q 4813 4225 4991 3847 
L 4575 3672 
Q 4434 4094 4222 4416 
L 3775 4416 
Q 3553 3981 3281 3641 
L 2938 3884 
Q 3428 4472 3691 5319 
L 4106 5222 
Q 4028 4978 3947 4788 
z
" transform="scale(0.015625)"/>
      <path id="IPAexGothic-33" d="M 2381 2419 
Q 3506 2216 3506 1278 
Q 3506 716 3128 356 
Q 2709 -31 1944 -31 
Q 797 -31 288 881 
L 756 1131 
Q 1109 441 1938 441 
Q 2425 441 2694 691 
Q 2950 928 2950 1291 
Q 2950 1719 2566 1978 
Q 2216 2213 1644 2213 
L 1363 2213 
L 1363 2669 
L 1656 2669 
Q 2231 2669 2534 2888 
Q 2859 3119 2859 3509 
Q 2859 3934 2494 4138 
Q 2259 4278 1931 4278 
Q 1238 4278 903 3578 
L 434 3803 
Q 897 4725 1938 4725 
Q 2597 4725 3006 4394 
Q 3416 4069 3416 3534 
Q 3416 3028 3019 2706 
Q 2763 2500 2381 2444 
L 2381 2419 
z
" transform="scale(0.015625)"/>
      <path id="IPAexGothic-56db" d="M 5747 4659 
L 5747 -291 
L 5288 -291 
L 5288 191 
L 1109 191 
L 1109 -291 
L 641 -291 
L 641 4659 
L 5747 4659 
z
M 1109 4244 
L 1109 619 
L 5288 619 
L 5288 4244 
L 3969 4244 
L 3969 2206 
Q 3969 2056 4025 2025 
Q 4094 1988 4294 1988 
Q 4631 1988 4678 2122 
Q 4722 2238 4731 2591 
L 4738 2681 
L 5147 2528 
Q 5128 1931 5013 1759 
Q 4884 1572 4303 1572 
Q 3803 1572 3663 1675 
Q 3522 1769 3522 2028 
L 3522 4244 
L 2663 4244 
L 2663 3591 
Q 2663 2488 2284 1963 
Q 2050 1631 1506 1297 
L 1206 1656 
Q 1859 1997 2063 2541 
Q 2209 2922 2209 3541 
L 2209 4244 
L 1109 4244 
z
" transform="scale(0.015625)"/>
      <path id="IPAexGothic-4f4d" d="M 1566 3669 
L 1566 -447 
L 1113 -447 
L 1113 2725 
Q 856 2288 544 1863 
L 294 2253 
Q 1209 3525 1591 5241 
L 2034 5147 
Q 1838 4313 1566 3669 
z
M 4075 3944 
L 5791 3944 
L 5791 3528 
L 2044 3528 
L 2044 3944 
L 3600 3944 
L 3600 5109 
L 4075 5109 
L 4075 3944 
z
M 4025 225 
L 4031 256 
Q 4456 1591 4691 3213 
L 5184 3091 
Q 4878 1459 4484 225 
L 6009 225 
L 6009 -191 
L 1838 -191 
L 1838 225 
L 4025 225 
z
M 3000 556 
Q 2791 1869 2431 2988 
L 2891 3116 
Q 3225 2194 3506 709 
L 3000 556 
z
" transform="scale(0.015625)"/>
      <path id="IPAexGothic-6570" d="M 2847 1553 
Q 2741 1006 2425 534 
Q 2625 441 3091 203 
L 2809 -188 
Q 2541 0 2144 209 
Q 1569 -291 703 -500 
L 422 -125 
Q 1263 19 1747 406 
Q 1222 650 734 816 
Q 975 1172 1147 1503 
L 1172 1553 
L 359 1553 
L 359 1925 
L 1344 1925 
Q 1406 2066 1569 2475 
L 1691 2450 
L 1691 3372 
Q 1250 2738 550 2303 
L 275 2663 
Q 1019 3013 1528 3641 
L 378 3641 
L 378 4006 
L 1691 4006 
L 1691 5313 
L 2113 5313 
L 2113 4006 
L 3297 4006 
L 3297 3641 
L 2113 3641 
L 2113 3513 
Q 2659 3291 3175 2963 
L 2956 2584 
Q 2553 2922 2113 3159 
L 2113 2372 
L 1966 2372 
Q 1928 2288 1872 2141 
Q 1806 1975 1784 1925 
L 3378 1925 
L 3378 1553 
L 2847 1553 
z
M 2419 1553 
L 1613 1553 
Q 1478 1269 1313 997 
Q 1559 909 2047 703 
Q 2313 1047 2419 1553 
z
M 4363 1163 
Q 3953 1781 3738 2638 
Q 3575 2281 3428 2016 
L 3103 2406 
Q 3675 3444 3916 5291 
L 4363 5200 
Q 4284 4666 4197 4197 
L 6009 4197 
L 6009 3775 
L 5503 3775 
Q 5397 2275 4869 1191 
Q 5419 503 6144 75 
L 5822 -378 
Q 5188 106 4631 788 
Q 4113 34 3341 -463 
L 3031 -78 
Q 3888 406 4363 1163 
z
M 4588 1594 
Q 4938 2388 5059 3775 
L 4100 3775 
Q 4041 3519 3972 3288 
Q 3981 3250 3991 3194 
Q 4175 2256 4588 1594 
z
M 1003 4116 
Q 878 4544 638 4934 
L 1053 5094 
Q 1247 4788 1438 4269 
L 1003 4116 
z
M 2316 4269 
Q 2550 4688 2688 5131 
L 3128 4997 
Q 2966 4588 2675 4128 
L 2316 4269 
z
" transform="scale(0.015625)"/>
      <path id="IPAexGothic-35" d="M 1178 2603 
Q 1634 2963 2172 2963 
Q 2816 2963 3241 2528 
Q 3638 2113 3638 1497 
Q 3638 938 3297 513 
Q 2869 -31 2031 -31 
Q 959 -31 469 784 
L 938 1028 
Q 1309 434 2013 434 
Q 2466 434 2769 716 
Q 3081 1013 3081 1503 
Q 3081 1966 2806 2241 
Q 2519 2528 2056 2528 
Q 1406 2528 1072 2028 
L 591 2091 
L 884 4634 
L 3406 4634 
L 3406 4153 
L 1341 4153 
L 1134 2603 
L 1178 2603 
z
" transform="scale(0.015625)"/>
      <path id="IPAexGothic-25" d="M 4088 2481 
Q 4528 2481 4800 2181 
Q 5094 1847 5094 1203 
Q 5094 534 4728 197 
Q 4472 -38 4088 -38 
Q 3647 -38 3378 269 
Q 3084 600 3084 1222 
Q 3084 1906 3444 2244 
Q 3697 2481 4088 2481 
z
M 4081 2097 
Q 3566 2097 3566 1234 
Q 3566 356 4097 356 
Q 4613 356 4613 1241 
Q 4613 2097 4081 2097 
z
M 1331 4731 
Q 1769 4731 2041 4431 
Q 2334 4097 2334 3450 
Q 2334 2781 1969 2447 
Q 1713 2209 1331 2209 
Q 888 2209 619 2516 
Q 325 2850 325 3472 
Q 325 4156 684 4494 
Q 941 4731 1331 4731 
z
M 1322 4347 
Q 806 4347 806 3484 
Q 806 2606 1338 2606 
Q 1859 2606 1859 3484 
Q 1859 3859 1725 4091 
Q 1584 4347 1322 4347 
z
M 4569 4603 
L 1106 -134 
L 856 78 
L 4313 4813 
L 4569 4603 
z
" transform="scale(0.015625)"/>
      <path id="IPAexGothic-5883" d="M 4606 1153 
L 4606 256 
Q 4606 106 4684 75 
Q 4744 50 5009 50 
Q 5503 50 5563 216 
Q 5597 331 5606 794 
L 6041 666 
Q 6031 -41 5881 -200 
Q 5713 -378 4978 -378 
Q 4531 -378 4375 -322 
Q 4172 -231 4172 78 
L 4172 1153 
L 3647 1153 
Q 3619 394 3281 38 
Q 2884 -369 1919 -494 
L 1691 -91 
Q 2659 -3 2963 341 
Q 3184 591 3213 1153 
L 2541 1153 
L 2541 2938 
L 5459 2938 
L 5459 1153 
L 4606 1153 
z
M 2981 2597 
L 2981 2216 
L 5022 2216 
L 5022 2597 
L 2981 2597 
z
M 2981 1891 
L 2981 1494 
L 5022 1494 
L 5022 1891 
L 2981 1891 
z
M 1069 3731 
L 1069 5147 
L 1497 5147 
L 1497 3731 
L 2028 3731 
L 2028 3303 
L 1497 3303 
L 1497 1238 
L 1522 1244 
Q 1853 1359 2181 1491 
L 2213 1088 
Q 1397 706 447 403 
L 275 866 
Q 572 931 1025 1075 
Q 1031 1078 1050 1081 
Q 1063 1084 1069 1088 
L 1069 3303 
L 372 3303 
L 372 3731 
L 1069 3731 
z
M 4191 4659 
L 5747 4659 
L 5747 4313 
L 5059 4313 
Q 4963 4016 4791 3688 
L 6034 3688 
L 6034 3322 
L 2169 3322 
L 2169 3688 
L 3163 3688 
Q 3053 4031 2913 4313 
L 2334 4313 
L 2334 4659 
L 3744 4659 
L 3744 5313 
L 4191 5313 
L 4191 4659 
z
M 3372 4313 
Q 3506 4041 3603 3688 
L 4356 3688 
Q 4500 4000 4600 4313 
L 3372 4313 
z
" transform="scale(0.015625)"/>
      <path id="IPAexGothic-754c" d="M 4247 2559 
L 4288 2528 
Q 5050 1897 6122 1556 
L 5822 1138 
Q 4450 1706 3691 2559 
L 2706 2559 
Q 1947 1547 600 1044 
L 313 1441 
Q 1488 1788 2194 2559 
L 1094 2559 
L 1094 4978 
L 5297 4978 
L 5297 2559 
L 4247 2559 
z
M 1534 4606 
L 1534 3956 
L 2963 3956 
L 2963 4606 
L 1534 4606 
z
M 1534 3597 
L 1534 2919 
L 2963 2919 
L 2963 3597 
L 1534 3597 
z
M 4856 2919 
L 4856 3597 
L 3391 3597 
L 3391 2919 
L 4856 2919 
z
M 4856 3956 
L 4856 4606 
L 3391 4606 
L 3391 3956 
L 4856 3956 
z
M 2084 1844 
L 2559 1844 
L 2559 1550 
Q 2559 584 2128 72 
Q 1828 -291 1209 -556 
L 894 -206 
Q 1600 75 1869 506 
Q 2084 856 2084 1409 
L 2084 1844 
z
M 3947 1844 
L 4422 1844 
L 4422 -441 
L 3947 -441 
L 3947 1844 
z
" transform="scale(0.015625)"/>
     </defs>
     <use xlink:href="#IPAexGothic-7b2c"/>
     <use xlink:href="#IPAexGothic-33" x="100"/>
     <use xlink:href="#IPAexGothic-56db" x="162.988281"/>
     <use xlink:href="#IPAexGothic-5206" x="262.988281"/>
     <use xlink:href="#IPAexGothic-4f4d" x="362.988281"/>
     <use xlink:href="#IPAexGothic-6570" x="462.988281"/>
     <use xlink:href="#IPAexGothic-ff08" x="562.988281"/>
     <use xlink:href="#IPAexGothic-51" x="662.988281"/>
     <use xlink:href="#IPAexGothic-33" x="742.675781"/>
     <use xlink:href="#IPAexGothic-ff09" x="805.664062"/>
     <use xlink:href="#IPAexGothic-ff1a" x="905.664062"/>
     <use xlink:href="#IPAexGothic-4e0a" x="1005.664062"/>
     <use xlink:href="#IPAexGothic-4f4d" x="1105.664062"/>
     <use xlink:href="#IPAexGothic-32" x="1205.664062"/>
     <use xlink:href="#IPAexGothic-35" x="1268.652344"/>
     <use xlink:href="#IPAexGothic-25" x="1331.640625"/>
     <use xlink:href="#IPAexGothic-306e" x="1416.650391"/>
     <use xlink:href="#IPAexGothic-5883" x="1516.650391"/>
     <use xlink:href="#IPAexGothic-754c" x="1616.650391"/>
    </g>
   </g>
   <g id="text_9">
    <!-- 箱の下端 -->
    <g style="fill: #2c3e50" transform="translate(38.88 166.214141) scale(0.125 -0.125)">
     <defs>
      <path id="IPAexGothic-4e0b" d="M 3303 4316 
L 3303 3291 
Q 4381 2800 5666 1953 
L 5281 1550 
Q 4406 2213 3303 2819 
L 3303 -447 
L 2803 -447 
L 2803 4316 
L 513 4316 
L 513 4763 
L 5881 4763 
L 5881 4316 
L 3303 4316 
z
" transform="scale(0.015625)"/>
     </defs>
     <use xlink:href="#IPAexGothic-7bb1"/>
     <use xlink:href="#IPAexGothic-306e" x="100"/>
     <use xlink:href="#IPAexGothic-4e0b" x="200"/>
     <use xlink:href="#IPAexGothic-7aef" x="300"/>
    </g>
   </g>
   <g id="text_10">
    <!-- 第1四分位数（Q1）：下位25%の境界 -->
    <g style="fill: #2c3e50" transform="translate(182.88 166.214141) scale(0.125 -0.125)">
     <defs>
      <path id="IPAexGothic-31" d="M 2463 63 
L 1900 63 
L 1900 4103 
Q 1372 3922 788 3797 
L 684 4231 
Q 1519 4441 2106 4731 
L 2463 4731 
L 2463 63 
z
" transform="scale(0.015625)"/>
     </defs>
     <use xlink:href="#IPAexGothic-7b2c"/>
     <use xlink:href="#IPAexGothic-31" x="100"/>
     <use xlink:href="#IPAexGothic-56db" x="162.988281"/>
     <use xlink:href="#IPAexGothic-5206" x="262.988281"/>
     <use xlink:href="#IPAexGothic-4f4d" x="362.988281"/>
     <use xlink:href="#IPAexGothic-6570" x="462.988281"/>
     <use xlink:href="#IPAexGothic-ff08" x="562.988281"/>
     <use xlink:href="#IPAexGothic-51" x="662.988281"/>
     <use xlink:href="#IPAexGothic-31" x="742.675781"/>
     <use xlink:href="#IPAexGothic-ff09" x="805.664062"/>
     <use xlink:href="#IPAexGothic-ff1a" x="905.664062"/>
     <use xlink:href="#IPAexGothic-4e0b" x="1005.664062"/>
     <use xlink:href="#IPAexGothic-4f4d" x="1105.664062"/>
     <use xlink:href="#IPAexGothic-32" x="1205.664062"/>
     <use xlink:href="#IPAexGothic-35" x="1268.652344"/>
     <use xlink:href="#IPAexGothic-25" x="1331.640625"/>
     <use xlink:href="#IPAexGothic-306e" x="1416.650391"/>
     <use xlink:href="#IPAexGothic-5883" x="1516.650391"/>
     <use xlink:href="#IPAexGothic-754c" x="1616.650391"/>
    </g>
   </g>
   <g id="text_11">
    <!-- ひげの先 -->
    <g style="fill: #2c3e50" transform="translate(38.88 192.134141) scale(0.125 -0.125)">
     <defs>
      <path id="IPAexGothic-5148" d="M 1853 4097 
L 2994 4097 
L 2994 5306 
L 3481 5306 
L 3481 4097 
L 5534 4097 
L 5534 3681 
L 3481 3681 
L 3481 2584 
L 5950 2584 
L 5950 2169 
L 4153 2169 
L 4153 372 
Q 4153 213 4263 172 
Q 4378 134 4728 134 
Q 5175 134 5294 178 
Q 5447 238 5484 447 
Q 5541 747 5547 1131 
L 6016 966 
Q 5969 78 5803 -122 
Q 5622 -334 4697 -334 
Q 4106 -334 3897 -244 
Q 3694 -147 3694 153 
L 3694 2169 
L 2694 2169 
Q 2694 2131 2694 2113 
Q 2675 1094 2253 519 
Q 1781 -134 819 -481 
L 491 -78 
Q 1516 219 1900 825 
Q 2197 1294 2225 2169 
L 441 2169 
L 441 2584 
L 2994 2584 
L 2994 3681 
L 1688 3681 
Q 1450 3156 1131 2731 
L 753 3047 
Q 1366 3803 1619 4975 
L 2091 4866 
Q 1953 4378 1853 4097 
z
" transform="scale(0.015625)"/>
     </defs>
     <use xlink:href="#IPAexGothic-3072"/>
     <use xlink:href="#IPAexGothic-3052" x="100"/>
     <use xlink:href="#IPAexGothic-306e" x="200"/>
     <use xlink:href="#IPAexGothic-5148" x="300"/>
    </g>
   </g>
   <g id="text_12">
    <!-- 外れ値以外の最大・最小 -->
    <g style="fill: #2c3e50" transform="translate(182.88 192.134141) scale(0.125 -0.125)">
     <defs>
      <path id="IPAexGothic-5916" d="M 3306 3503 
Q 3647 3125 4075 2747 
L 4075 5088 
L 4563 5088 
L 4563 2369 
Q 4600 2344 4631 2325 
Q 5250 1891 6078 1594 
L 5791 1141 
Q 5144 1409 4563 1806 
L 4563 -397 
L 4075 -397 
L 4075 2178 
Q 3575 2609 3209 3053 
Q 2975 2078 2703 1550 
Q 2100 344 1022 -447 
L 644 -69 
Q 1581 519 2269 1747 
L 2281 1775 
Q 1903 2209 1394 2644 
Q 1109 2184 706 1734 
L 388 2081 
Q 1538 3406 1797 5184 
L 2269 5069 
Q 2197 4725 2141 4506 
L 3141 4506 
L 3422 4281 
Q 3372 3863 3306 3503 
z
M 2494 2234 
L 2513 2291 
Q 2806 3078 2922 4091 
L 2025 4091 
Q 1841 3500 1591 3009 
Q 2072 2653 2494 2234 
z
" transform="scale(0.015625)"/>
      <path id="IPAexGothic-308c" d="M 538 3694 
Q 1275 3791 1800 3903 
L 1838 5006 
L 2316 5006 
L 2253 4006 
L 2619 3675 
Q 2428 3425 2247 3144 
Q 2241 3084 2241 2869 
Q 3341 4031 4134 4031 
Q 4856 4031 4856 3309 
Q 4856 3047 4794 2491 
Q 4719 1747 4719 1044 
Q 4719 672 4922 672 
Q 5084 672 5263 788 
Q 5613 1034 5850 1491 
L 6131 1025 
Q 5856 641 5600 447 
Q 5238 166 4866 166 
Q 4244 166 4244 1100 
Q 4244 1519 4350 2956 
Q 4369 3181 4369 3238 
Q 4369 3434 4297 3513 
Q 4231 3584 4081 3584 
Q 3438 3584 2228 2291 
Q 2222 1931 2222 1478 
Q 2222 753 2241 -159 
L 1747 -159 
Q 1747 1241 1753 1734 
Q 1544 1466 928 647 
L 531 991 
Q 1603 2291 1772 2478 
Q 1772 3038 1791 3469 
Q 1128 3284 653 3194 
L 538 3694 
z
" transform="scale(0.015625)"/>
      <path id="IPAexGothic-4ee5" d="M 4509 1119 
Q 3834 188 2281 -378 
L 1981 38 
Q 3888 672 4359 1819 
Q 4700 2659 4700 4372 
L 4700 4978 
L 5181 4978 
L 5181 4459 
Q 5181 2416 4738 1503 
Q 5478 956 6141 256 
L 5763 -159 
Q 5191 556 4509 1119 
z
M 1581 1106 
Q 2331 1463 3175 2003 
L 3297 1600 
Q 2063 744 591 128 
L 341 581 
Q 863 784 1122 897 
L 1044 4922 
L 1519 4922 
L 1581 1106 
z
M 3344 3009 
Q 2856 3716 2259 4250 
L 2619 4563 
Q 3300 3972 3725 3353 
L 3344 3009 
z
" transform="scale(0.015625)"/>
      <path id="IPAexGothic-6700" d="M 5106 5050 
L 5106 3275 
L 1284 3275 
L 1284 5050 
L 5106 5050 
z
M 1741 4697 
L 1741 4331 
L 4656 4331 
L 4656 4697 
L 1741 4697 
z
M 1741 4000 
L 1741 3622 
L 4656 3622 
L 4656 4000 
L 1741 4000 
z
M 2925 2528 
L 2925 -450 
L 2503 -450 
L 2503 228 
Q 1869 94 525 -78 
L 409 356 
Q 491 363 609 372 
Q 725 381 756 381 
L 994 403 
L 994 2528 
L 384 2528 
L 384 2900 
L 6016 2900 
L 6016 2528 
L 2925 2528 
z
M 2503 2528 
L 1400 2528 
L 1400 2088 
L 2503 2088 
L 2503 2528 
z
M 2503 1763 
L 1400 1763 
L 1400 1309 
L 2503 1309 
L 2503 1763 
z
M 2503 984 
L 1400 984 
L 1400 434 
L 1759 472 
Q 2159 500 2503 550 
L 2503 984 
z
M 4844 588 
Q 5350 225 6047 -9 
L 5753 -419 
Q 5066 -128 4556 288 
Q 4000 -241 3281 -534 
L 3006 -163 
Q 3734 84 4263 563 
Q 3722 1141 3463 1803 
L 3084 1803 
L 3084 2169 
L 5425 2169 
L 5656 1963 
Q 5328 1178 4881 638 
L 4844 588 
z
M 4538 850 
Q 4884 1275 5119 1803 
L 3872 1803 
Q 4113 1275 4538 850 
z
" transform="scale(0.015625)"/>
      <path id="IPAexGothic-5927" d="M 3528 3181 
Q 4150 1197 6003 275 
L 5647 -184 
Q 3891 831 3259 2681 
Q 2894 644 872 -344 
L 513 97 
Q 1678 528 2344 1538 
Q 2784 2219 2900 3181 
L 481 3181 
L 481 3628 
L 2925 3628 
L 2925 5150 
L 3431 5150 
L 3431 3628 
L 5922 3628 
L 5922 3181 
L 3528 3181 
z
" transform="scale(0.015625)"/>
      <path id="IPAexGothic-5c0f" d="M 2944 5006 
L 3450 5006 
L 3450 359 
Q 3450 41 3322 -97 
Q 3181 -238 2759 -238 
Q 2388 -238 1931 -197 
L 1831 313 
Q 2244 231 2694 231 
Q 2944 231 2944 475 
L 2944 5006 
z
M 5453 1031 
Q 4928 2516 4172 3719 
L 4600 3916 
Q 5400 2650 5944 1281 
L 5453 1031 
z
M 434 1259 
Q 1238 2231 1553 3769 
L 2041 3641 
Q 1675 1938 825 897 
L 434 1259 
z
" transform="scale(0.015625)"/>
     </defs>
     <use xlink:href="#IPAexGothic-5916"/>
     <use xlink:href="#IPAexGothic-308c" x="100"/>
     <use xlink:href="#IPAexGothic-5024" x="200"/>
     <use xlink:href="#IPAexGothic-4ee5" x="300"/>
     <use xlink:href="#IPAexGothic-5916" x="400"/>
     <use xlink:href="#IPAexGothic-306e" x="500"/>
     <use xlink:href="#IPAexGothic-6700" x="600"/>
     <use xlink:href="#IPAexGothic-5927" x="700"/>
     <use xlink:href="#IPAexGothic-30fb" x="800"/>
     <use xlink:href="#IPAexGothic-6700" x="900"/>
     <use xlink:href="#IPAexGothic-5c0f" x="1000"/>
    </g>
   </g>
   <g id="text_13">
    <!-- 点（◆） -->
    <g style="fill: #2c3e50" transform="translate(38.88 218.054141) scale(0.125 -0.125)">
     <defs>
      <path id="IPAexGothic-70b9" d="M 3331 4372 
L 5728 4372 
L 5728 3944 
L 3331 3944 
L 3331 3231 
L 5288 3231 
L 5288 1338 
L 1122 1338 
L 1122 3231 
L 2850 3231 
L 2850 5197 
L 3331 5197 
L 3331 4372 
z
M 1563 2834 
L 1563 1734 
L 4847 1734 
L 4847 2834 
L 1563 2834 
z
M 494 -166 
Q 984 353 1288 1094 
L 1709 928 
Q 1378 81 897 -488 
L 494 -166 
z
M 2466 -434 
Q 2391 275 2216 884 
L 2650 984 
Q 2866 366 2966 -325 
L 2466 -434 
z
M 3866 -331 
Q 3681 384 3388 947 
L 3809 1088 
Q 4119 538 4341 -153 
L 3866 -331 
z
M 5569 -353 
Q 5088 466 4622 978 
L 5013 1191 
Q 5603 578 6009 -63 
L 5569 -353 
z
" transform="scale(0.015625)"/>
      <path id="IPAexGothic-25c6" d="M 3200 5300 
L 6063 2431 
L 3200 -434 
L 341 2431 
L 3200 5300 
z
" transform="scale(0.015625)"/>
     </defs>
     <use xlink:href="#IPAexGothic-70b9"/>
     <use xlink:href="#IPAexGothic-ff08" x="100"/>
     <use xlink:href="#IPAexGothic-25c6" x="200"/>
     <use xlink:href="#IPAexGothic-ff09" x="300"/>
    </g>
   </g>
   <g id="text_14">
    <!-- 外れ値 -->
    <g style="fill: #2c3e50" transform="translate(182.88 218.054141) scale(0.125 -0.125)">
     <use xlink:href="#IPAexGothic-5916"/>
     <use xlink:href="#IPAexGothic-308c" x="100"/>
     <use xlink:href="#IPAexGothic-5024" x="200"/>
    </g>
   </g>
   <g id="text_15">
    <!-- df.boxplot(column="color_intensity", by="品種", -->
    <g style="fill: #cdd6f4" transform="translate(40.32 254.635219) scale(0.105 -0.105)">
     <defs>
      <path id="DejaVuSansMono-64" d="M 2681 3053 
L 2681 4863 
L 3256 4863 
L 3256 0 
L 2681 0 
L 2681 441 
Q 2538 181 2298 45 
Q 2059 -91 1747 -91 
Q 1113 -91 748 401 
Q 384 894 384 1759 
Q 384 2613 750 3098 
Q 1116 3584 1747 3584 
Q 2063 3584 2303 3448 
Q 2544 3313 2681 3053 
z
M 991 1747 
Q 991 1078 1203 737 
Q 1416 397 1831 397 
Q 2247 397 2464 740 
Q 2681 1084 2681 1747 
Q 2681 2413 2464 2755 
Q 2247 3097 1831 3097 
Q 1416 3097 1203 2756 
Q 991 2416 991 1747 
z
" transform="scale(0.015625)"/>
      <path id="DejaVuSansMono-66" d="M 3322 4863 
L 3322 4384 
L 2669 4384 
Q 2359 4384 2239 4257 
Q 2119 4131 2119 3809 
L 2119 3500 
L 3322 3500 
L 3322 3053 
L 2119 3053 
L 2119 0 
L 1544 0 
L 1544 3053 
L 609 3053 
L 609 3500 
L 1544 3500 
L 1544 3744 
Q 1544 4319 1808 4591 
Q 2072 4863 2631 4863 
L 3322 4863 
z
" transform="scale(0.015625)"/>
      <path id="DejaVuSansMono-2e" d="M 1528 953 
L 2316 953 
L 2316 0 
L 1528 0 
L 1528 953 
z
" transform="scale(0.015625)"/>
      <path id="DejaVuSansMono-62" d="M 2869 1747 
Q 2869 2416 2656 2756 
Q 2444 3097 2028 3097 
Q 1609 3097 1393 2755 
Q 1178 2413 1178 1747 
Q 1178 1084 1393 740 
Q 1609 397 2028 397 
Q 2444 397 2656 737 
Q 2869 1078 2869 1747 
z
M 1178 3053 
Q 1316 3309 1558 3446 
Q 1800 3584 2119 3584 
Q 2750 3584 3112 3098 
Q 3475 2613 3475 1759 
Q 3475 894 3111 401 
Q 2747 -91 2113 -91 
Q 1800 -91 1561 45 
Q 1322 181 1178 441 
L 1178 0 
L 603 0 
L 603 4863 
L 1178 4863 
L 1178 3053 
z
" transform="scale(0.015625)"/>
      <path id="DejaVuSansMono-6f" d="M 1925 3097 
Q 1488 3097 1263 2756 
Q 1038 2416 1038 1747 
Q 1038 1081 1263 739 
Q 1488 397 1925 397 
Q 2366 397 2591 739 
Q 2816 1081 2816 1747 
Q 2816 2416 2591 2756 
Q 2366 3097 1925 3097 
z
M 1925 3584 
Q 2653 3584 3039 3112 
Q 3425 2641 3425 1747 
Q 3425 850 3040 379 
Q 2656 -91 1925 -91 
Q 1197 -91 812 379 
Q 428 850 428 1747 
Q 428 2641 812 3112 
Q 1197 3584 1925 3584 
z
" transform="scale(0.015625)"/>
      <path id="DejaVuSansMono-78" d="M 3494 3500 
L 2241 1825 
L 3616 0 
L 2950 0 
L 1925 1403 
L 903 0 
L 238 0 
L 1613 1825 
L 359 3500 
L 997 3500 
L 1925 2234 
L 2847 3500 
L 3494 3500 
z
" transform="scale(0.015625)"/>
      <path id="DejaVuSansMono-70" d="M 1172 441 
L 1172 -1331 
L 594 -1331 
L 594 3500 
L 1172 3500 
L 1172 3053 
Q 1316 3313 1555 3448 
Q 1794 3584 2106 3584 
Q 2741 3584 3102 3093 
Q 3463 2603 3463 1734 
Q 3463 881 3100 395 
Q 2738 -91 2106 -91 
Q 1788 -91 1548 45 
Q 1309 181 1172 441 
z
M 2859 1747 
Q 2859 2416 2648 2756 
Q 2438 3097 2022 3097 
Q 1603 3097 1387 2755 
Q 1172 2413 1172 1747 
Q 1172 1084 1387 740 
Q 1603 397 2022 397 
Q 2438 397 2648 737 
Q 2859 1078 2859 1747 
z
" transform="scale(0.015625)"/>
      <path id="DejaVuSansMono-6c" d="M 1997 1269 
Q 1997 881 2139 684 
Q 2281 488 2559 488 
L 3231 488 
L 3231 0 
L 2503 0 
Q 1988 0 1705 331 
Q 1422 663 1422 1269 
L 1422 4447 
L 500 4447 
L 500 4897 
L 1997 4897 
L 1997 1269 
z
" transform="scale(0.015625)"/>
      <path id="DejaVuSansMono-74" d="M 1919 4494 
L 1919 3500 
L 3225 3500 
L 3225 3053 
L 1919 3053 
L 1919 1153 
Q 1919 766 2066 612 
Q 2213 459 2578 459 
L 3225 459 
L 3225 0 
L 2522 0 
Q 1875 0 1609 259 
Q 1344 519 1344 1153 
L 1344 3053 
L 409 3053 
L 409 3500 
L 1344 3500 
L 1344 4494 
L 1919 4494 
z
" transform="scale(0.015625)"/>
      <path id="DejaVuSansMono-28" d="M 2766 4856 
Q 2350 4144 2145 3436 
Q 1941 2728 1941 2009 
Q 1941 1294 2145 584 
Q 2350 -125 2766 -844 
L 2266 -844 
Q 1794 -100 1562 604 
Q 1331 1309 1331 2009 
Q 1331 2706 1562 3412 
Q 1794 4119 2266 4856 
L 2766 4856 
z
" transform="scale(0.015625)"/>
      <path id="DejaVuSansMono-63" d="M 3316 178 
Q 3084 44 2839 -23 
Q 2594 -91 2338 -91 
Q 1525 -91 1067 396 
Q 609 884 609 1747 
Q 609 2609 1067 3096 
Q 1525 3584 2338 3584 
Q 2591 3584 2831 3518 
Q 3072 3453 3316 3316 
L 3316 2713 
Q 3088 2916 2858 3006 
Q 2628 3097 2338 3097 
Q 1797 3097 1506 2747 
Q 1216 2397 1216 1747 
Q 1216 1100 1508 748 
Q 1800 397 2338 397 
Q 2638 397 2875 489 
Q 3113 581 3316 775 
L 3316 178 
z
" transform="scale(0.015625)"/>
      <path id="DejaVuSansMono-75" d="M 609 1325 
L 609 3494 
L 1184 3494 
L 1184 1325 
Q 1184 853 1351 631 
Q 1519 409 1869 409 
Q 2275 409 2490 695 
Q 2706 981 2706 1516 
L 2706 3494 
L 3284 3494 
L 3284 0 
L 2706 0 
L 2706 525 
Q 2553 222 2289 65 
Q 2025 -91 1672 -91 
Q 1134 -91 871 261 
Q 609 613 609 1325 
z
" transform="scale(0.015625)"/>
      <path id="DejaVuSansMono-6d" d="M 2113 3144 
Q 2219 3369 2383 3476 
Q 2547 3584 2778 3584 
Q 3200 3584 3373 3257 
Q 3547 2931 3547 2028 
L 3547 0 
L 3022 0 
L 3022 2003 
Q 3022 2744 2939 2923 
Q 2856 3103 2638 3103 
Q 2388 3103 2295 2911 
Q 2203 2719 2203 2003 
L 2203 0 
L 1678 0 
L 1678 2003 
Q 1678 2753 1589 2928 
Q 1500 3103 1269 3103 
Q 1041 3103 952 2911 
Q 863 2719 863 2003 
L 863 0 
L 341 0 
L 341 3500 
L 863 3500 
L 863 3200 
Q 966 3388 1120 3486 
Q 1275 3584 1472 3584 
Q 1709 3584 1867 3475 
Q 2025 3366 2113 3144 
z
" transform="scale(0.015625)"/>
      <path id="DejaVuSansMono-6e" d="M 3284 2169 
L 3284 0 
L 2706 0 
L 2706 2169 
Q 2706 2641 2540 2862 
Q 2375 3084 2022 3084 
Q 1619 3084 1401 2798 
Q 1184 2513 1184 1978 
L 1184 0 
L 609 0 
L 609 3500 
L 1184 3500 
L 1184 2975 
Q 1338 3275 1600 3429 
Q 1863 3584 2222 3584 
Q 2756 3584 3020 3232 
Q 3284 2881 3284 2169 
z
" transform="scale(0.015625)"/>
      <path id="DejaVuSansMono-3d" d="M 275 1638 
L 3578 1638 
L 3578 1100 
L 275 1100 
L 275 1638 
z
M 275 2906 
L 3578 2906 
L 3578 2375 
L 275 2375 
L 275 2906 
z
" transform="scale(0.015625)"/>
      <path id="DejaVuSansMono-22" d="M 2797 4666 
L 2797 2931 
L 2253 2931 
L 2253 4666 
L 2797 4666 
z
M 1600 4666 
L 1600 2931 
L 1056 2931 
L 1056 4666 
L 1600 4666 
z
" transform="scale(0.015625)"/>
      <path id="DejaVuSansMono-72" d="M 3609 2778 
Q 3425 2922 3234 2987 
Q 3044 3053 2816 3053 
Q 2278 3053 1993 2715 
Q 1709 2378 1709 1741 
L 1709 0 
L 1131 0 
L 1131 3500 
L 1709 3500 
L 1709 2816 
Q 1853 3188 2151 3386 
Q 2450 3584 2859 3584 
Q 3072 3584 3256 3531 
Q 3441 3478 3609 3366 
L 3609 2778 
z
" transform="scale(0.015625)"/>
      <path id="DejaVuSansMono-5f" d="M 3853 -1259 
L 3853 -1509 
L 0 -1509 
L 0 -1259 
L 3853 -1259 
z
" transform="scale(0.015625)"/>
      <path id="DejaVuSansMono-69" d="M 800 3500 
L 2272 3500 
L 2272 447 
L 3413 447 
L 3413 0 
L 556 0 
L 556 447 
L 1697 447 
L 1697 3053 
L 800 3053 
L 800 3500 
z
M 1697 4863 
L 2272 4863 
L 2272 4134 
L 1697 4134 
L 1697 4863 
z
" transform="scale(0.015625)"/>
      <path id="DejaVuSansMono-65" d="M 3475 1894 
L 3475 1613 
L 984 1613 
L 984 1594 
Q 984 1022 1282 709 
Q 1581 397 2125 397 
Q 2400 397 2700 484 
Q 3000 572 3341 750 
L 3341 178 
Q 3013 44 2708 -23 
Q 2403 -91 2119 -91 
Q 1303 -91 843 398 
Q 384 888 384 1747 
Q 384 2584 834 3084 
Q 1284 3584 2034 3584 
Q 2703 3584 3089 3131 
Q 3475 2678 3475 1894 
z
M 2900 2063 
Q 2888 2569 2661 2833 
Q 2434 3097 2009 3097 
Q 1594 3097 1325 2822 
Q 1056 2547 1006 2059 
L 2900 2063 
z
" transform="scale(0.015625)"/>
      <path id="DejaVuSansMono-73" d="M 3041 3378 
L 3041 2816 
Q 2794 2959 2544 3031 
Q 2294 3103 2034 3103 
Q 1644 3103 1451 2976 
Q 1259 2850 1259 2591 
Q 1259 2356 1403 2240 
Q 1547 2125 2119 2016 
L 2350 1972 
Q 2778 1891 2998 1647 
Q 3219 1403 3219 1013 
Q 3219 494 2850 201 
Q 2481 -91 1825 -91 
Q 1566 -91 1281 -36 
Q 997 19 666 128 
L 666 722 
Q 988 556 1281 473 
Q 1575 391 1838 391 
Q 2219 391 2428 545 
Q 2638 700 2638 978 
Q 2638 1378 1872 1531 
L 1847 1538 
L 1631 1581 
Q 1134 1678 906 1908 
Q 678 2138 678 2534 
Q 678 3038 1018 3311 
Q 1359 3584 1991 3584 
Q 2272 3584 2531 3532 
Q 2791 3481 3041 3378 
z
" transform="scale(0.015625)"/>
      <path id="DejaVuSansMono-79" d="M 2681 1125 
Q 2538 759 2316 163 
Q 2006 -663 1900 -844 
Q 1756 -1088 1540 -1209 
Q 1325 -1331 1038 -1331 
L 575 -1331 
L 575 -850 
L 916 -850 
Q 1169 -850 1312 -703 
Q 1456 -556 1678 56 
L 325 3500 
L 934 3500 
L 1972 763 
L 2994 3500 
L 3603 3500 
L 2681 1125 
z
" transform="scale(0.015625)"/>
      <path id="DejaVuSansMono-2c" d="M 1569 947 
L 2356 947 
L 2356 300 
L 1741 -897 
L 1259 -897 
L 1569 300 
L 1569 947 
z
" transform="scale(0.015625)"/>
      <path id="DejaVuSansMono-20" transform="scale(0.015625)"/>
      <path id="DejaVuSansMono-54c1" d="M 325 -1131 
L 325 4513 
L 3525 4513 
L 3525 -1131 
L 325 -1131 
z
M 684 -775 
L 3169 -775 
L 3169 4153 
L 684 4153 
L 684 -775 
z
" transform="scale(0.015625)"/>
      <path id="DejaVuSansMono-7a2e" d="M 325 -1131 
L 325 4513 
L 3525 4513 
L 3525 -1131 
L 325 -1131 
z
M 684 -775 
L 3169 -775 
L 3169 4153 
L 684 4153 
L 684 -775 
z
" transform="scale(0.015625)"/>
     </defs>
     <use xlink:href="#DejaVuSansMono-64"/>
     <use xlink:href="#DejaVuSansMono-66" x="60.205078"/>
     <use xlink:href="#DejaVuSansMono-2e" x="120.410156"/>
     <use xlink:href="#DejaVuSansMono-62" x="180.615234"/>
     <use xlink:href="#DejaVuSansMono-6f" x="240.820312"/>
     <use xlink:href="#DejaVuSansMono-78" x="301.025391"/>
     <use xlink:href="#DejaVuSansMono-70" x="361.230469"/>
     <use xlink:href="#DejaVuSansMono-6c" x="421.435547"/>
     <use xlink:href="#DejaVuSansMono-6f" x="481.640625"/>
     <use xlink:href="#DejaVuSansMono-74" x="541.845703"/>
     <use xlink:href="#DejaVuSansMono-28" x="602.050781"/>
     <use xlink:href="#DejaVuSansMono-63" x="662.255859"/>
     <use xlink:href="#DejaVuSansMono-6f" x="722.460938"/>
     <use xlink:href="#DejaVuSansMono-6c" x="782.666016"/>
     <use xlink:href="#DejaVuSansMono-75" x="842.871094"/>
     <use xlink:href="#DejaVuSansMono-6d" x="903.076172"/>
     <use xlink:href="#DejaVuSansMono-6e" x="963.28125"/>
     <use xlink:href="#DejaVuSansMono-3d" x="1023.486328"/>
     <use xlink:href="#DejaVuSansMono-22" x="1083.691406"/>
     <use xlink:href="#DejaVuSansMono-63" x="1143.896484"/>
     <use xlink:href="#DejaVuSansMono-6f" x="1204.101562"/>
     <use xlink:href="#DejaVuSansMono-6c" x="1264.306641"/>
     <use xlink:href="#DejaVuSansMono-6f" x="1324.511719"/>
     <use xlink:href="#DejaVuSansMono-72" x="1384.716797"/>
     <use xlink:href="#DejaVuSansMono-5f" x="1444.921875"/>
     <use xlink:href="#DejaVuSansMono-69" x="1505.126953"/>
     <use xlink:href="#DejaVuSansMono-6e" x="1565.332031"/>
     <use xlink:href="#DejaVuSansMono-74" x="1625.537109"/>
     <use xlink:href="#DejaVuSansMono-65" x="1685.742188"/>
     <use xlink:href="#DejaVuSansMono-6e" x="1745.947266"/>
     <use xlink:href="#DejaVuSansMono-73" x="1806.152344"/>
     <use xlink:href="#DejaVuSansMono-69" x="1866.357422"/>
     <use xlink:href="#DejaVuSansMono-74" x="1926.5625"/>
     <use xlink:href="#DejaVuSansMono-79" x="1986.767578"/>
     <use xlink:href="#DejaVuSansMono-22" x="2046.972656"/>
     <use xlink:href="#DejaVuSansMono-2c" x="2107.177734"/>
     <use xlink:href="#DejaVuSansMono-20" x="2167.382812"/>
     <use xlink:href="#DejaVuSansMono-62" x="2227.587891"/>
     <use xlink:href="#DejaVuSansMono-79" x="2287.792969"/>
     <use xlink:href="#DejaVuSansMono-3d" x="2347.998047"/>
     <use xlink:href="#DejaVuSansMono-22" x="2408.203125"/>
     <use xlink:href="#DejaVuSansMono-54c1" x="2468.408203"/>
     <use xlink:href="#DejaVuSansMono-7a2e" x="2528.613281"/>
     <use xlink:href="#DejaVuSansMono-22" x="2588.818359"/>
     <use xlink:href="#DejaVuSansMono-2c" x="2649.023438"/>
    </g>
   </g>
   <g id="text_16">
    <!--            medianprops=dict(color="red", linewidth=2)) -->
    <g style="fill: #cdd6f4" transform="translate(40.32 267.261234) scale(0.105 -0.105)">
     <defs>
      <path id="DejaVuSansMono-61" d="M 2194 1759 
L 2003 1759 
Q 1500 1759 1245 1582 
Q 991 1406 991 1056 
Q 991 741 1181 566 
Q 1372 391 1709 391 
Q 2184 391 2456 720 
Q 2728 1050 2731 1631 
L 2731 1759 
L 2194 1759 
z
M 3309 1997 
L 3309 0 
L 2731 0 
L 2731 519 
Q 2547 206 2267 57 
Q 1988 -91 1588 -91 
Q 1053 -91 734 211 
Q 416 513 416 1019 
Q 416 1603 808 1906 
Q 1200 2209 1959 2209 
L 2731 2209 
L 2731 2300 
Q 2728 2719 2518 2908 
Q 2309 3097 1850 3097 
Q 1556 3097 1256 3012 
Q 956 2928 672 2766 
L 672 3341 
Q 991 3463 1283 3523 
Q 1575 3584 1850 3584 
Q 2284 3584 2592 3456 
Q 2900 3328 3091 3072 
Q 3209 2916 3259 2686 
Q 3309 2456 3309 1997 
z
" transform="scale(0.015625)"/>
      <path id="DejaVuSansMono-77" d="M 0 3500 
L 569 3500 
L 1178 672 
L 1678 2478 
L 2169 2478 
L 2675 672 
L 3284 3500 
L 3853 3500 
L 3034 0 
L 2484 0 
L 1925 1919 
L 1369 0 
L 819 0 
L 0 3500 
z
" transform="scale(0.015625)"/>
      <path id="DejaVuSansMono-68" d="M 3284 2169 
L 3284 0 
L 2706 0 
L 2706 2169 
Q 2706 2641 2540 2862 
Q 2375 3084 2022 3084 
Q 1619 3084 1401 2798 
Q 1184 2513 1184 1978 
L 1184 0 
L 609 0 
L 609 4863 
L 1184 4863 
L 1184 2975 
Q 1338 3275 1600 3429 
Q 1863 3584 2222 3584 
Q 2756 3584 3020 3232 
Q 3284 2881 3284 2169 
z
" transform="scale(0.015625)"/>
      <path id="DejaVuSansMono-32" d="M 1166 531 
L 3309 531 
L 3309 0 
L 475 0 
L 475 531 
Q 1059 1147 1496 1619 
Q 1934 2091 2100 2284 
Q 2413 2666 2522 2902 
Q 2631 3138 2631 3384 
Q 2631 3775 2401 3997 
Q 2172 4219 1772 4219 
Q 1488 4219 1175 4116 
Q 863 4013 513 3803 
L 513 4441 
Q 834 4594 1145 4672 
Q 1456 4750 1759 4750 
Q 2444 4750 2861 4386 
Q 3278 4022 3278 3431 
Q 3278 3131 3139 2831 
Q 3000 2531 2688 2169 
Q 2513 1966 2180 1606 
Q 1847 1247 1166 531 
z
" transform="scale(0.015625)"/>
      <path id="DejaVuSansMono-29" d="M 1088 4856 
L 1588 4856 
Q 2059 4119 2290 3412 
Q 2522 2706 2522 2009 
Q 2522 1306 2290 600 
Q 2059 -106 1588 -844 
L 1088 -844 
Q 1503 -119 1708 590 
Q 1913 1300 1913 2009 
Q 1913 2722 1708 3431 
Q 1503 4141 1088 4856 
z
" transform="scale(0.015625)"/>
     </defs>
     <use xlink:href="#DejaVuSansMono-20"/>
     <use xlink:href="#DejaVuSansMono-20" x="60.205078"/>
     <use xlink:href="#DejaVuSansMono-20" x="120.410156"/>
     <use xlink:href="#DejaVuSansMono-20" x="180.615234"/>
     <use xlink:href="#DejaVuSansMono-20" x="240.820312"/>
     <use xlink:href="#DejaVuSansMono-20" x="301.025391"/>
     <use xlink:href="#DejaVuSansMono-20" x="361.230469"/>
     <use xlink:href="#DejaVuSansMono-20" x="421.435547"/>
     <use xlink:href="#DejaVuSansMono-20" x="481.640625"/>
     <use xlink:href="#DejaVuSansMono-20" x="541.845703"/>
     <use xlink:href="#DejaVuSansMono-20" x="602.050781"/>
     <use xlink:href="#DejaVuSansMono-6d" x="662.255859"/>
     <use xlink:href="#DejaVuSansMono-65" x="722.460938"/>
     <use xlink:href="#DejaVuSansMono-64" x="782.666016"/>
     <use xlink:href="#DejaVuSansMono-69" x="842.871094"/>
     <use xlink:href="#DejaVuSansMono-61" x="903.076172"/>
     <use xlink:href="#DejaVuSansMono-6e" x="963.28125"/>
     <use xlink:href="#DejaVuSansMono-70" x="1023.486328"/>
     <use xlink:href="#DejaVuSansMono-72" x="1083.691406"/>
     <use xlink:href="#DejaVuSansMono-6f" x="1143.896484"/>
     <use xlink:href="#DejaVuSansMono-70" x="1204.101562"/>
     <use xlink:href="#DejaVuSansMono-73" x="1264.306641"/>
     <use xlink:href="#DejaVuSansMono-3d" x="1324.511719"/>
     <use xlink:href="#DejaVuSansMono-64" x="1384.716797"/>
     <use xlink:href="#DejaVuSansMono-69" x="1444.921875"/>
     <use xlink:href="#DejaVuSansMono-63" x="1505.126953"/>
     <use xlink:href="#DejaVuSansMono-74" x="1565.332031"/>
     <use xlink:href="#DejaVuSansMono-28" x="1625.537109"/>
     <use xlink:href="#DejaVuSansMono-63" x="1685.742188"/>
     <use xlink:href="#DejaVuSansMono-6f" x="1745.947266"/>
     <use xlink:href="#DejaVuSansMono-6c" x="1806.152344"/>
     <use xlink:href="#DejaVuSansMono-6f" x="1866.357422"/>
     <use xlink:href="#DejaVuSansMono-72" x="1926.5625"/>
     <use xlink:href="#DejaVuSansMono-3d" x="1986.767578"/>
     <use xlink:href="#DejaVuSansMono-22" x="2046.972656"/>
     <use xlink:href="#DejaVuSansMono-72" x="2107.177734"/>
     <use xlink:href="#DejaVuSansMono-65" x="2167.382812"/>
     <use xlink:href="#DejaVuSansMono-64" x="2227.587891"/>
     <use xlink:href="#DejaVuSansMono-22" x="2287.792969"/>
     <use xlink:href="#DejaVuSansMono-2c" x="2347.998047"/>
     <use xlink:href="#DejaVuSansMono-20" x="2408.203125"/>
     <use xlink:href="#DejaVuSansMono-6c" x="2468.408203"/>
     <use xlink:href="#DejaVuSansMono-69" x="2528.613281"/>
     <use xlink:href="#DejaVuSansMono-6e" x="2588.818359"/>
     <use xlink:href="#DejaVuSansMono-65" x="2649.023438"/>
     <use xlink:href="#DejaVuSansMono-77" x="2709.228516"/>
     <use xlink:href="#DejaVuSansMono-69" x="2769.433594"/>
     <use xlink:href="#DejaVuSansMono-64" x="2829.638672"/>
     <use xlink:href="#DejaVuSansMono-74" x="2889.84375"/>
     <use xlink:href="#DejaVuSansMono-68" x="2950.048828"/>
     <use xlink:href="#DejaVuSansMono-3d" x="3010.253906"/>
     <use xlink:href="#DejaVuSansMono-32" x="3070.458984"/>
     <use xlink:href="#DejaVuSansMono-29" x="3130.664062"/>
     <use xlink:href="#DejaVuSansMono-29" x="3190.869141"/>
    </g>
   </g>
   <g id="text_17">
    <!-- plt.show() -->
    <g style="fill: #cdd6f4" transform="translate(40.32 279.741234) scale(0.105 -0.105)">
     <use xlink:href="#DejaVuSansMono-70"/>
     <use xlink:href="#DejaVuSansMono-6c" x="60.205078"/>
     <use xlink:href="#DejaVuSansMono-74" x="120.410156"/>
     <use xlink:href="#DejaVuSansMono-2e" x="180.615234"/>
     <use xlink:href="#DejaVuSansMono-73" x="240.820312"/>
     <use xlink:href="#DejaVuSansMono-68" x="301.025391"/>
     <use xlink:href="#DejaVuSansMono-6f" x="361.230469"/>
     <use xlink:href="#DejaVuSansMono-77" x="421.435547"/>
     <use xlink:href="#DejaVuSansMono-28" x="481.640625"/>
     <use xlink:href="#DejaVuSansMono-29" x="541.845703"/>
    </g>
   </g>
   <g id="text_18">
    <!-- 🔍 観察：Barolo は色が特に濃く、Grignolino は淡い傾向がある -->
    <g style="fill: #1e8449" transform="translate(41.04 325.443431) scale(0.125 -0.125)">
     <defs>
      <path id="IPAexGothic-1f50d" d="M 5759 -641 
L 641 -641 
L 641 5503 
L 5759 5503 
L 5759 -641 
z
M 5216 5172 
L 1191 5172 
L 3206 2694 
L 5216 5172 
z
M 5428 -53 
L 5428 4903 
L 3419 2425 
L 5428 -53 
z
M 2988 2425 
L 972 4916 
L 972 -59 
L 2988 2425 
z
M 5209 -309 
L 3206 2163 
L 1197 -309 
L 5209 -309 
z
" transform="scale(0.015625)"/>
      <path id="IPAexGothic-89b3" d="M 1919 4369 
Q 1841 4025 1747 3725 
L 3150 3725 
L 3150 3372 
L 1619 3372 
Q 1459 2959 1294 2675 
L 1825 2675 
Q 1950 2972 2016 3250 
L 2406 3141 
Q 2294 2831 2203 2675 
L 3078 2675 
L 3078 2344 
L 2209 2344 
L 2209 1925 
L 2944 1925 
L 2944 1613 
L 2209 1613 
L 2209 1191 
L 2944 1191 
L 2944 878 
L 2209 878 
L 2209 422 
L 3109 422 
L 3109 91 
L 1191 91 
L 1191 -288 
L 806 -288 
L 806 1944 
Q 606 1666 441 1503 
L 213 1856 
Q 816 2478 1209 3372 
L 353 3372 
L 353 3725 
L 1350 3725 
Q 1453 4019 1538 4369 
L 1094 4369 
Q 916 4025 722 3794 
L 441 4081 
Q 863 4603 1044 5309 
L 1441 5241 
Q 1366 4997 1253 4722 
L 3053 4722 
L 3053 4369 
L 1919 4369 
z
M 1191 2344 
L 1191 1925 
L 1850 1925 
L 1850 2344 
L 1191 2344 
z
M 1191 1613 
L 1191 1191 
L 1850 1191 
L 1850 1613 
L 1191 1613 
z
M 1191 878 
L 1191 422 
L 1850 422 
L 1850 878 
L 1191 878 
z
M 5128 1638 
L 5128 238 
Q 5128 63 5397 63 
Q 5663 63 5709 216 
Q 5759 403 5778 966 
L 6163 806 
Q 6106 81 6028 -109 
Q 5925 -359 5363 -359 
Q 4719 -359 4719 6 
L 4719 1638 
L 4253 1638 
Q 4231 813 4003 372 
Q 3744 -113 3100 -441 
L 2813 -84 
Q 3444 184 3663 653 
Q 3834 1031 3841 1638 
L 3369 1638 
L 3369 5044 
L 5709 5044 
L 5709 1638 
L 5128 1638 
z
M 3778 4672 
L 3778 4031 
L 5306 4031 
L 5306 4672 
L 3778 4672 
z
M 3778 3672 
L 3778 3034 
L 5306 3034 
L 5306 3672 
L 3778 3672 
z
M 3778 2675 
L 3778 2009 
L 5306 2009 
L 5306 2675 
L 3778 2675 
z
" transform="scale(0.015625)"/>
      <path id="IPAexGothic-5bdf" d="M 4178 2456 
Q 3459 3041 3066 3916 
L 3431 4056 
Q 3791 3319 4300 2875 
Q 4581 3156 4844 3559 
L 3809 3559 
L 3809 3891 
L 5144 3891 
L 5341 3713 
L 5341 4313 
L 1041 4313 
L 1041 3566 
L 581 3566 
L 581 4684 
L 2938 4684 
L 2938 5313 
L 3413 5313 
L 3413 4684 
L 5809 4684 
L 5809 3566 
L 5341 3566 
Q 5006 3063 4600 2638 
Q 5244 2184 6041 1925 
L 5766 1528 
Q 4928 1866 4209 2431 
L 4209 2084 
L 2169 2084 
L 2169 2353 
Q 1569 1791 575 1363 
L 300 1700 
Q 928 1913 1425 2238 
Q 1297 2419 1028 2688 
Q 831 2522 631 2394 
L 350 2663 
Q 1263 3209 1694 4222 
L 2078 4094 
Q 2031 3991 1950 3847 
L 2888 3847 
L 3091 3669 
Q 2778 2947 2278 2456 
L 4178 2456 
z
M 1713 2444 
Q 1794 2513 2041 2759 
Q 1778 2963 1469 3131 
Q 1363 3003 1253 2894 
Q 1466 2713 1713 2444 
z
M 1753 3522 
Q 1741 3497 1650 3369 
Q 2006 3184 2266 3009 
Q 2453 3259 2578 3522 
L 1753 3522 
z
M 3434 1197 
L 3434 -13 
Q 3434 -459 2931 -459 
Q 2547 -459 2200 -422 
L 2125 6 
Q 2494 -63 2822 -63 
Q 2981 -63 2981 103 
L 2981 1197 
L 1216 1197 
L 1216 1594 
L 5219 1594 
L 5219 1197 
L 3434 1197 
z
M 544 -6 
Q 1297 350 1881 1013 
L 2247 788 
Q 1684 103 894 -366 
L 544 -6 
z
M 5291 -281 
Q 4566 434 3959 813 
L 4313 1081 
Q 4975 669 5675 63 
L 5291 -281 
z
" transform="scale(0.015625)"/>
      <path id="IPAexGothic-42" d="M 2688 2425 
Q 3816 2225 3816 1338 
Q 3816 556 3041 222 
Q 2672 63 2094 63 
L 609 63 
L 609 4634 
L 1916 4634 
Q 2494 4634 2869 4500 
Q 3644 4222 3644 3491 
Q 3644 2609 2688 2447 
L 2688 2425 
z
M 1159 2656 
L 1844 2656 
Q 3063 2656 3063 3431 
Q 3063 4181 1881 4181 
L 1159 4181 
L 1159 2656 
z
M 1159 522 
L 2016 522 
Q 3222 522 3222 1369 
Q 3222 1897 2625 2100 
Q 2278 2222 1875 2222 
L 1159 2222 
L 1159 522 
z
" transform="scale(0.015625)"/>
      <path id="IPAexGothic-61" d="M 3156 63 
L 2672 63 
Q 2559 303 2531 556 
L 2509 556 
Q 2147 -25 1428 -25 
Q 934 -25 622 288 
Q 347 563 347 959 
Q 347 1947 2050 1997 
L 2478 2009 
L 2478 2175 
Q 2478 2509 2288 2700 
Q 2088 2900 1775 2900 
Q 1238 2900 969 2378 
L 494 2597 
Q 938 3328 1788 3328 
Q 2375 3328 2691 3000 
Q 2984 2706 2984 2169 
L 2984 997 
Q 2984 400 3156 63 
z
M 2491 1625 
L 2141 1619 
Q 903 1591 903 953 
Q 903 728 1050 581 
Q 1231 403 1525 403 
Q 1934 403 2234 703 
Q 2491 969 2491 1344 
L 2491 1625 
z
" transform="scale(0.015625)"/>
      <path id="IPAexGothic-72" d="M 2309 3316 
L 2213 2769 
Q 2106 2791 2022 2791 
Q 1653 2791 1413 2444 
Q 1113 2006 1113 1675 
L 1113 63 
L 563 63 
L 563 3250 
L 1081 3250 
L 1056 2303 
L 1069 2303 
Q 1422 3341 2097 3341 
Q 2206 3341 2309 3316 
z
" transform="scale(0.015625)"/>
      <path id="IPAexGothic-6f" d="M 1919 3341 
Q 2594 3341 3056 2888 
Q 3531 2413 3531 1638 
Q 3531 888 3066 422 
Q 2609 -31 1919 -31 
Q 1228 -31 781 416 
Q 313 881 313 1656 
Q 313 2413 788 2888 
Q 1241 3341 1919 3341 
z
M 1919 2919 
Q 1519 2919 1241 2631 
Q 888 2278 888 1650 
Q 888 1031 1234 684 
Q 1516 403 1919 403 
Q 2331 403 2609 691 
Q 2956 1038 2956 1672 
Q 2956 2269 2603 2631 
Q 2316 2919 1919 2919 
z
" transform="scale(0.015625)"/>
      <path id="IPAexGothic-6c" d="M 1131 63 
L 581 63 
L 581 4794 
L 1131 4794 
L 1131 63 
z
" transform="scale(0.015625)"/>
      <path id="IPAexGothic-306f" d="M 4066 4875 
L 4538 4875 
L 4556 3769 
Q 5003 3816 5581 3941 
L 5619 3469 
Q 5256 3394 4563 3322 
L 4597 1441 
Q 5100 1284 5934 756 
L 5656 313 
Q 5066 772 4609 978 
Q 4609 441 4384 225 
Q 4128 -13 3634 -13 
Q 2991 -13 2669 231 
Q 2388 444 2388 831 
Q 2388 1225 2772 1484 
Q 3050 1669 3534 1669 
Q 3759 1669 4134 1594 
L 4097 3288 
Q 3697 3269 3359 3269 
Q 2925 3269 2484 3300 
L 2466 3763 
Q 2953 3716 3456 3716 
Q 3738 3716 4091 3738 
L 4066 4875 
z
M 4141 1153 
Q 3753 1259 3513 1259 
Q 2841 1259 2841 850 
Q 2841 422 3634 422 
Q 3888 422 4022 569 
Q 4141 700 4141 922 
Q 4141 1088 4141 1153 
z
M 1000 -50 
Q 794 1072 794 1931 
Q 794 3153 1247 4884 
L 1728 4763 
Q 1269 3044 1269 1900 
Q 1269 1569 1306 1106 
Q 1591 1706 1753 1997 
L 2075 1806 
Q 1484 716 1484 141 
Q 1484 72 1491 0 
L 1000 -50 
z
" transform="scale(0.015625)"/>
      <path id="IPAexGothic-8272" d="M 1672 1691 
L 1672 572 
Q 1672 309 1863 244 
Q 2056 178 3309 178 
Q 4959 178 5244 250 
Q 5444 306 5491 544 
Q 5534 788 5544 1147 
L 6016 988 
Q 5950 56 5703 -97 
Q 5447 -256 3413 -256 
Q 1725 -256 1466 -128 
Q 1231 -6 1231 372 
L 1231 3144 
Q 953 2866 622 2600 
L 328 2953 
Q 1509 3825 2131 5275 
L 2581 5172 
Q 2528 5056 2388 4756 
L 4150 4756 
L 4425 4544 
Q 3997 3894 3694 3541 
L 5422 3541 
L 5422 1391 
L 4981 1391 
L 4981 1691 
L 1672 1691 
z
M 1672 2088 
L 3075 2088 
L 3075 3150 
L 1672 3150 
L 1672 2088 
z
M 3503 3150 
L 3503 2088 
L 4981 2088 
L 4981 3150 
L 3503 3150 
z
M 3209 3541 
Q 3553 3938 3809 4372 
L 2178 4372 
Q 1925 3950 1588 3541 
L 3209 3541 
z
" transform="scale(0.015625)"/>
      <path id="IPAexGothic-304c" d="M 659 3384 
Q 1434 3503 2113 3581 
Q 2313 4341 2394 4972 
L 2900 4875 
Q 2759 4147 2619 3628 
L 2719 3634 
Q 2894 3641 3041 3641 
Q 4072 3641 4072 2369 
Q 4072 1128 3700 384 
Q 3478 -56 3003 -56 
Q 2591 -56 2113 231 
L 2138 775 
Q 2631 444 2925 444 
Q 3169 444 3297 706 
Q 3566 1294 3566 2388 
Q 3566 3219 3016 3219 
Q 2825 3219 2497 3194 
Q 2388 2763 2113 2047 
Q 1634 797 1119 -38 
L 678 244 
Q 1356 1238 1863 2750 
Q 1888 2819 1991 3128 
Q 1594 3081 769 2916 
L 659 3384 
z
M 5441 1838 
Q 4913 3038 4091 3916 
L 4475 4184 
Q 5350 3269 5888 2156 
L 5441 1838 
z
M 5913 4275 
Q 5553 4819 5159 5147 
L 5459 5375 
Q 5844 5066 6234 4550 
L 5913 4275 
z
M 5344 3788 
Q 5053 4278 4609 4678 
L 4922 4922 
Q 5294 4613 5678 4063 
L 5344 3788 
z
" transform="scale(0.015625)"/>
      <path id="IPAexGothic-7279" d="M 1025 3950 
L 1434 3950 
L 1434 5313 
L 1875 5313 
L 1875 3950 
L 2534 3950 
L 2534 3547 
L 1875 3547 
L 1875 2216 
Q 2084 2313 2494 2516 
L 2547 2106 
Q 2281 1963 1856 1750 
L 1856 -447 
L 1416 -447 
L 1416 1538 
Q 1028 1359 538 1153 
L 313 1581 
Q 778 1744 1434 2019 
L 1434 3547 
L 947 3547 
Q 828 3013 647 2556 
L 275 2803 
Q 584 3600 691 4744 
L 1131 4688 
Q 1091 4291 1025 3950 
z
M 3872 4372 
L 3872 5313 
L 4313 5313 
L 4313 4372 
L 5738 4372 
L 5738 3981 
L 4313 3981 
L 4313 3200 
L 6072 3200 
L 6072 2803 
L 5106 2803 
L 5106 2047 
L 5956 2047 
L 5956 1650 
L 5125 1650 
L 5125 38 
Q 5125 -447 4594 -447 
Q 4288 -447 3788 -391 
L 3691 78 
Q 4181 0 4491 0 
Q 4684 0 4684 172 
L 4684 1650 
L 2609 1650 
L 2609 2047 
L 4666 2047 
L 4666 2803 
L 2400 2803 
L 2400 3200 
L 3872 3200 
L 3872 3981 
L 2653 3981 
L 2653 4372 
L 3872 4372 
z
M 3550 384 
Q 3216 959 2834 1331 
L 3172 1575 
Q 3641 1116 3916 672 
L 3550 384 
z
" transform="scale(0.015625)"/>
      <path id="IPAexGothic-6fc3" d="M 5034 422 
Q 5384 141 6047 -31 
L 5734 -422 
Q 4369 88 4044 1216 
L 3403 1216 
L 3403 109 
Q 3909 203 4381 325 
L 4403 -6 
Q 3675 -269 2566 -469 
L 2406 -59 
Q 2491 -47 2975 25 
L 2975 1216 
L 2375 1216 
Q 2325 584 2222 250 
Q 2109 -113 1825 -506 
L 1484 -166 
Q 1966 456 1966 1813 
L 1966 2841 
L 5828 2841 
L 5828 2500 
L 2394 2500 
L 2394 1984 
Q 2394 1594 2388 1556 
L 5981 1556 
L 5981 1216 
L 5356 1216 
L 5719 966 
Q 5438 684 5034 422 
z
M 4778 659 
Q 5144 966 5350 1216 
L 4447 1216 
Q 4566 913 4778 659 
z
M 3153 4825 
L 3153 5313 
L 3544 5313 
L 3544 4825 
L 4147 4825 
L 4147 5313 
L 4538 5313 
L 4538 4825 
L 5534 4825 
L 5534 3150 
L 2150 3150 
L 2150 4825 
L 3153 4825 
z
M 2553 4513 
L 2553 4147 
L 3175 4147 
L 3175 4513 
L 2553 4513 
z
M 2553 3859 
L 2553 3463 
L 3175 3463 
L 3175 3859 
L 2553 3859 
z
M 5125 3463 
L 5125 3859 
L 4519 3859 
L 4519 3463 
L 5125 3463 
z
M 5125 4147 
L 5125 4513 
L 4519 4513 
L 4519 4147 
L 5125 4147 
z
M 3544 4513 
L 3544 4147 
L 4147 4147 
L 4147 4513 
L 3544 4513 
z
M 3544 3859 
L 3544 3463 
L 4147 3463 
L 4147 3859 
L 3544 3859 
z
M 1413 3884 
Q 909 4469 506 4781 
L 806 5113 
Q 1306 4744 1734 4256 
L 1413 3884 
z
M 1203 2381 
Q 741 2931 294 3272 
L 588 3609 
Q 1078 3244 1516 2766 
L 1203 2381 
z
M 331 -103 
Q 847 803 1172 1931 
L 1547 1650 
Q 1184 413 722 -441 
L 331 -103 
z
M 2669 2194 
L 5472 2194 
L 5472 1869 
L 2669 1869 
L 2669 2194 
z
" transform="scale(0.015625)"/>
      <path id="IPAexGothic-304f" d="M 4022 -300 
Q 3050 984 1863 2047 
Q 1538 2338 1538 2522 
Q 1538 2700 1953 3041 
Q 3144 4019 3816 5094 
L 4256 4769 
Q 3456 3659 2234 2694 
Q 2106 2588 2106 2528 
Q 2106 2466 2344 2247 
Q 3591 1113 4444 103 
L 4022 -300 
z
" transform="scale(0.015625)"/>
      <path id="IPAexGothic-3001" d="M 1325 -409 
Q 859 319 281 856 
L 691 1209 
Q 1225 734 1772 -25 
L 1325 -409 
z
" transform="scale(0.015625)"/>
      <path id="IPAexGothic-47" d="M 4403 781 
Q 4172 494 3731 250 
Q 3209 -31 2591 -31 
Q 1606 -31 988 628 
Q 378 1275 378 2325 
Q 378 3406 1013 4078 
Q 1619 4725 2534 4725 
Q 3800 4725 4325 3628 
L 3816 3391 
Q 3422 4238 2541 4238 
Q 1891 4238 1453 3744 
Q 994 3216 994 2328 
Q 994 1531 1397 1022 
Q 1844 459 2625 459 
Q 3459 459 3878 966 
L 3878 1856 
L 2859 1856 
L 2859 2291 
L 4403 2291 
L 4403 781 
z
" transform="scale(0.015625)"/>
      <path id="IPAexGothic-69" d="M 1178 3928 
L 550 3928 
L 550 4569 
L 1178 4569 
L 1178 3928 
z
M 1138 63 
L 588 63 
L 588 3250 
L 1138 3250 
L 1138 63 
z
" transform="scale(0.015625)"/>
      <path id="IPAexGothic-67" d="M 1331 1150 
Q 1006 1122 1006 900 
Q 1006 613 1763 575 
L 2131 556 
Q 3303 497 3303 -294 
Q 3303 -700 2925 -959 
Q 2519 -1253 1794 -1253 
Q 1138 -1253 738 -1028 
Q 353 -809 353 -428 
Q 353 84 1075 247 
L 1075 269 
Q 506 413 506 778 
Q 506 1116 994 1297 
Q 456 1575 456 2181 
Q 456 2650 769 2963 
Q 1128 3322 1738 3322 
Q 2125 3322 2422 3153 
Q 2650 3453 3259 3463 
L 3259 3013 
Q 2838 3003 2703 2938 
Q 3034 2613 3034 2169 
Q 3034 1728 2734 1425 
Q 2400 1094 1813 1094 
Q 1563 1094 1331 1150 
z
M 1734 2919 
Q 1409 2919 1197 2706 
Q 988 2497 988 2181 
Q 988 1872 1184 1684 
Q 1397 1472 1756 1472 
Q 2094 1472 2297 1678 
Q 2503 1881 2503 2203 
Q 2503 2497 2297 2700 
Q 2081 2919 1734 2919 
z
M 1753 159 
Q 903 159 903 -366 
Q 903 -875 1800 -875 
Q 2378 -875 2638 -606 
Q 2772 -481 2772 -313 
Q 2772 159 1753 159 
z
" transform="scale(0.015625)"/>
      <path id="IPAexGothic-6e" d="M 3328 63 
L 2778 63 
L 2778 2041 
Q 2778 2853 2106 2853 
Q 1428 2853 1113 2041 
L 1113 63 
L 563 63 
L 563 3250 
L 1075 3250 
L 1075 2675 
Q 1525 3316 2222 3316 
Q 3328 3316 3328 2072 
L 3328 63 
z
" transform="scale(0.015625)"/>
      <path id="IPAexGothic-6de1" d="M 4122 2259 
Q 4153 700 6050 38 
L 5709 -403 
Q 4353 172 3956 1259 
Q 3813 553 3375 153 
Q 2938 -253 2147 -506 
L 1863 -78 
Q 2788 122 3194 588 
Q 3669 1141 3669 2138 
L 3669 2766 
L 4122 2766 
L 4122 2259 
z
M 4013 3884 
Q 4994 3366 5959 2663 
L 5653 2247 
Q 4756 2988 3884 3506 
Q 3453 2516 2172 2088 
L 1863 2491 
Q 2841 2769 3259 3322 
Q 3669 3856 3669 4878 
L 3669 5313 
L 4122 5313 
L 4122 4903 
Q 4122 4391 4013 3884 
z
M 353 6 
Q 969 809 1459 1913 
L 1800 1563 
Q 1281 381 725 -397 
L 353 6 
z
M 2191 3634 
Q 2516 4141 2650 4794 
L 3066 4678 
Q 2903 3884 2569 3378 
L 2191 3634 
z
M 4513 3884 
Q 4959 4341 5263 4909 
L 5691 4647 
Q 5300 4081 4847 3634 
L 4513 3884 
z
M 2222 1031 
Q 2575 1538 2716 2113 
L 3131 1972 
Q 2916 1256 2606 788 
L 2222 1031 
z
M 4591 1281 
Q 4963 1691 5256 2228 
L 5672 2016 
Q 5325 1453 4922 1050 
L 4591 1281 
z
M 1519 3866 
Q 1134 4325 609 4722 
L 916 5069 
Q 1456 4694 1831 4250 
L 1519 3866 
z
M 1422 2394 
Q 953 2919 475 3250 
L 781 3603 
Q 1322 3225 1728 2766 
L 1422 2394 
z
" transform="scale(0.015625)"/>
      <path id="IPAexGothic-3044" d="M 3369 1447 
Q 2906 122 2278 122 
Q 1966 122 1647 481 
Q 1209 966 1044 1966 
Q 891 2888 891 4313 
L 1422 4313 
Q 1413 2444 1666 1550 
Q 1913 678 2278 678 
Q 2619 678 2925 1791 
L 3369 1447 
z
M 5378 1294 
Q 4928 2797 4034 3809 
L 4488 4031 
Q 5375 3000 5881 1563 
L 5378 1294 
z
" transform="scale(0.015625)"/>
      <path id="IPAexGothic-50be" d="M 4653 4025 
L 5741 4025 
L 5741 794 
L 3509 794 
L 3509 4025 
L 4263 4025 
L 4291 4122 
Q 4344 4366 4391 4659 
L 3100 4659 
L 3100 5056 
L 6047 5056 
L 6047 4659 
L 4838 4659 
Q 4831 4603 4800 4506 
Q 4691 4128 4653 4025 
z
M 5331 3653 
L 3913 3653 
L 3913 3078 
L 5331 3078 
L 5331 3653 
z
M 3913 2713 
L 3913 2138 
L 5331 2138 
L 5331 2713 
L 3913 2713 
z
M 3913 1778 
L 3913 1166 
L 5331 1166 
L 5331 1778 
L 3913 1778 
z
M 1400 3725 
L 1400 -447 
L 966 -447 
L 966 2694 
Q 759 2284 478 1863 
L 244 2259 
Q 1028 3500 1388 5306 
L 1816 5203 
Q 1622 4353 1400 3725 
z
M 2291 3059 
Q 2684 3319 3000 3656 
L 3269 3297 
Q 2838 2906 2291 2613 
L 2291 1044 
Q 2291 825 2534 825 
Q 2769 825 2797 1038 
Q 2831 1353 2841 1775 
L 3244 1647 
Q 3234 694 3066 544 
Q 2925 403 2450 403 
Q 2138 403 2009 494 
Q 1881 581 1881 841 
L 1881 4544 
L 2291 4544 
L 2291 3059 
z
M 2975 -191 
Q 3656 200 4097 756 
L 4450 538 
Q 3916 -128 3309 -506 
L 2975 -191 
z
M 5794 -428 
Q 5278 163 4806 525 
L 5134 769 
Q 5613 434 6150 -122 
L 5794 -428 
z
" transform="scale(0.015625)"/>
      <path id="IPAexGothic-5411" d="M 4409 3034 
L 4409 1044 
L 2378 1044 
L 2378 591 
L 1938 591 
L 1938 3034 
L 4409 3034 
z
M 3969 2638 
L 2378 2638 
L 2378 1441 
L 3969 1441 
L 3969 2638 
z
M 2559 4275 
Q 2731 4803 2803 5306 
L 3347 5197 
Q 3200 4681 3028 4275 
L 5709 4275 
L 5709 206 
Q 5709 -128 5538 -241 
Q 5388 -331 5028 -331 
Q 4484 -331 4038 -294 
L 3922 206 
Q 4491 128 4934 128 
Q 5234 128 5234 409 
L 5234 3872 
L 1159 3872 
L 1159 -453 
L 684 -453 
L 684 4275 
L 2559 4275 
z
" transform="scale(0.015625)"/>
      <path id="IPAexGothic-3042" d="M 966 4134 
Q 1228 4116 1550 4116 
Q 1934 4116 2284 4141 
Q 2297 4247 2319 4453 
Q 2369 4872 2381 5050 
L 2853 5019 
Q 2794 4547 2759 4178 
Q 3672 4275 4581 4525 
L 4634 4084 
Q 3750 3863 2713 3756 
Q 2675 3378 2663 2931 
Q 3088 3084 3669 3138 
Q 3738 3325 3763 3547 
L 4238 3438 
Q 4188 3219 4153 3128 
Q 4797 3041 5166 2741 
Q 5703 2297 5703 1581 
Q 5703 794 5056 300 
Q 4559 -84 3681 -213 
L 3406 213 
Q 4169 297 4622 594 
Q 5203 969 5203 1588 
Q 5203 2216 4672 2553 
Q 4413 2725 4025 2772 
Q 3550 1556 2747 800 
Q 2766 584 2847 275 
L 2388 103 
Q 2369 191 2316 525 
Q 1756 128 1300 128 
Q 666 128 666 794 
Q 666 1244 950 1691 
Q 1216 2100 1678 2425 
Q 1834 2541 2194 2731 
Q 2206 3159 2253 3719 
Q 1772 3681 1338 3681 
Q 1106 3681 1006 3688 
L 966 4134 
z
M 2188 2291 
Q 1966 2169 1703 1913 
Q 1431 1650 1272 1353 
Q 1144 1109 1134 922 
Q 1119 575 1384 575 
Q 1788 575 2247 997 
Q 2197 1497 2188 2291 
z
M 3553 2772 
Q 3038 2700 2638 2534 
Q 2638 1734 2663 1300 
Q 3231 1931 3553 2772 
z
" transform="scale(0.015625)"/>
     </defs>
     <use xlink:href="#IPAexGothic-1f50d"/>
     <use xlink:href="#IPAexGothic-20" x="100"/>
     <use xlink:href="#IPAexGothic-89b3" x="127.001953"/>
     <use xlink:href="#IPAexGothic-5bdf" x="227.001953"/>
     <use xlink:href="#IPAexGothic-ff1a" x="327.001953"/>
     <use xlink:href="#IPAexGothic-42" x="427.001953"/>
     <use xlink:href="#IPAexGothic-61" x="492.919922"/>
     <use xlink:href="#IPAexGothic-72" x="547.900391"/>
     <use xlink:href="#IPAexGothic-6f" x="584.912109"/>
     <use xlink:href="#IPAexGothic-6c" x="645.3125"/>
     <use xlink:href="#IPAexGothic-6f" x="672.314453"/>
     <use xlink:href="#IPAexGothic-20" x="732.714844"/>
     <use xlink:href="#IPAexGothic-306f" x="759.716797"/>
     <use xlink:href="#IPAexGothic-8272" x="859.716797"/>
     <use xlink:href="#IPAexGothic-304c" x="959.716797"/>
     <use xlink:href="#IPAexGothic-7279" x="1059.716797"/>
     <use xlink:href="#IPAexGothic-306b" x="1159.716797"/>
     <use xlink:href="#IPAexGothic-6fc3" x="1259.716797"/>
     <use xlink:href="#IPAexGothic-304f" x="1359.716797"/>
     <use xlink:href="#IPAexGothic-3001" x="1459.716797"/>
     <use xlink:href="#IPAexGothic-47" x="1559.716797"/>
     <use xlink:href="#IPAexGothic-72" x="1635.009766"/>
     <use xlink:href="#IPAexGothic-69" x="1672.021484"/>
     <use xlink:href="#IPAexGothic-67" x="1699.023438"/>
     <use xlink:href="#IPAexGothic-6e" x="1754.541016"/>
     <use xlink:href="#IPAexGothic-6f" x="1814.941406"/>
     <use xlink:href="#IPAexGothic-6c" x="1875.341797"/>
     <use xlink:href="#IPAexGothic-69" x="1902.34375"/>
     <use xlink:href="#IPAexGothic-6e" x="1929.345703"/>
     <use xlink:href="#IPAexGothic-6f" x="1989.746094"/>
     <use xlink:href="#IPAexGothic-20" x="2050.146484"/>
     <use xlink:href="#IPAexGothic-306f" x="2077.148438"/>
     <use xlink:href="#IPAexGothic-6de1" x="2177.148438"/>
     <use xlink:href="#IPAexGothic-3044" x="2277.148438"/>
     <use xlink:href="#IPAexGothic-50be" x="2377.148438"/>
     <use xlink:href="#IPAexGothic-5411" x="2477.148438"/>
     <use xlink:href="#IPAexGothic-304c" x="2577.148438"/>
     <use xlink:href="#IPAexGothic-3042" x="2677.148438"/>
     <use xlink:href="#IPAexGothic-308b" x="2777.148438"/>
    </g>
   </g>
  </g>
 </g>
 <defs>
  <clipPath id="p5b90656329">
   <rect x="0" y="-0" width="691.2" height="388.8"/>
  </clipPath>
 </defs>
</svg>
