<?xml version="1.0" encoding="utf-8" standalone="no"?>
<!DOCTYPE svg PUBLIC "-//W3C//DTD SVG 1.1//EN"
  "http://www.w3.org/Graphics/SVG/1.1/DTD/svg11.dtd">
<svg xmlns:xlink="http://www.w3.org/1999/xlink" width="691.2pt" height="388.8pt" viewBox="0 0 691.2 388.8" xmlns="http://www.w3.org/2000/svg" version="1.1">
 <metadata>
  <rdf:RDF xmlns:dc="http://purl.org/dc/elements/1.1/" xmlns:cc="http://creativecommons.org/ns#" xmlns:rdf="http://www.w3.org/1999/02/22-rdf-syntax-ns#">
   <cc:Work>
    <dc:type rdf:resource="http://purl.org/dc/dcmitype/StillImage"/>
    <dc:date>2026-04-09T02:37:45.700777</dc:date>
    <dc:format>image/svg+xml</dc:format>
    <dc:creator>
     <cc:Agent>
      <dc:title>Matplotlib v3.9.4, https://matplotlib.org/</dc:title>
     </cc:Agent>
    </dc:creator>
   </cc:Work>
  </rdf:RDF>
 </metadata>
 <defs>
  <style type="text/css">*{stroke-linejoin: round; stroke-linecap: butt}</style>
 </defs>
 <g id="figure_1">
  <g id="patch_1">
   <path d="M 0 388.8 
L 691.2 388.8 
L 691.2 0 
L 0 0 
z
" style="fill: #ffffff"/>
  </g>
  <g id="axes_1">
   <g id="patch_2">
    <path d="M 0 -0 
L 691.2 -0 
L 691.2 24.48 
L 0 24.48 
z
" clip-path="url(#p07be221d42)" style="fill: #5ba85a"/>
   </g>
   <g id="patch_3">
    <path d="M 31.68 59.04 
L 659.52 59.04 
L 659.52 60.48 
L 31.68 60.48 
z
" clip-path="url(#p07be221d42)" style="fill: #ecf0f1"/>
   </g>
   <g id="patch_4">
    <path d="M 31.68 305.28 
L 659.52 305.28 
L 659.52 336.96 
L 31.68 336.96 
z
" clip-path="url(#p07be221d42)" style="fill: #fef9e7"/>
   </g>
   <g id="patch_5">
    <path d="M 31.68 305.28 
L 33.84 305.28 
L 33.84 336.96 
L 31.68 336.96 
z
" clip-path="url(#p07be221d42)" style="fill: #e8a838"/>
   </g>
   <g id="patch_6">
    <path d="M 44.64 77.76 
C 48.077032 77.76 51.373755 79.125547 53.804104 81.555896 
C 56.234453 83.986245 57.6 87.282968 57.6 90.72 
C 57.6 94.157032 56.234453 97.453755 53.804104 99.884104 
C 51.373755 102.314453 48.077032 103.68 44.64 103.68 
C 41.202968 103.68 37.906245 102.314453 35.475896 99.884104 
C 33.045547 97.453755 31.68 94.157032 31.68 90.72 
C 31.68 87.282968 33.045547 83.986245 35.475896 81.555896 
C 37.906245 79.125547 41.202968 77.76 44.64 77.76 
z
" clip-path="url(#p07be221d42)" style="fill: #5ba85a; stroke: #5ba85a; stroke-linejoin: miter"/>
   </g>
   <g id="patch_7">
    <path d="M 44.64 119.52 
C 48.077032 119.52 51.373755 120.885547 53.804104 123.315896 
C 56.234453 125.746245 57.6 129.042968 57.6 132.48 
C 57.6 135.917032 56.234453 139.213755 53.804104 141.644104 
C 51.373755 144.074453 48.077032 145.44 44.64 145.44 
C 41.202968 145.44 37.906245 144.074453 35.475896 141.644104 
C 33.045547 139.213755 31.68 135.917032 31.68 132.48 
C 31.68 129.042968 33.045547 125.746245 35.475896 123.315896 
C 37.906245 120.885547 41.202968 119.52 44.64 119.52 
z
" clip-path="url(#p07be221d42)" style="fill: #5ba85a; stroke: #5ba85a; stroke-linejoin: miter"/>
   </g>
   <g id="patch_8">
    <path d="M 44.64 161.28 
C 48.077032 161.28 51.373755 162.645547 53.804104 165.075896 
C 56.234453 167.506245 57.6 170.802968 57.6 174.24 
C 57.6 177.677032 56.234453 180.973755 53.804104 183.404104 
C 51.373755 185.834453 48.077032 187.2 44.64 187.2 
C 41.202968 187.2 37.906245 185.834453 35.475896 183.404104 
C 33.045547 180.973755 31.68 177.677032 31.68 174.24 
C 31.68 170.802968 33.045547 167.506245 35.475896 165.075896 
C 37.906245 162.645547 41.202968 161.28 44.64 161.28 
z
" clip-path="url(#p07be221d42)" style="fill: #5ba85a; stroke: #5ba85a; stroke-linejoin: miter"/>
   </g>
   <g id="text_1">
    <!-- Ch.2 データ可視化・EDA -->
    <g style="fill: #ffffff" transform="translate(31.68 15.047031) scale(0.1 -0.1)">
     <defs>
      <path id="IPAexGothic-43" d="M 4353 1088 
Q 4181 694 3859 428 
Q 3313 -31 2559 -31 
Q 1588 -31 959 653 
Q 378 1294 378 2331 
Q 378 3406 1013 4078 
Q 1619 4725 2534 4725 
Q 3813 4725 4322 3628 
L 3809 3391 
Q 3425 4238 2541 4238 
Q 1891 4238 1453 3744 
Q 994 3216 994 2322 
Q 994 1550 1384 1056 
Q 1841 472 2563 472 
Q 3456 472 3878 1319 
L 4353 1088 
z
" transform="scale(0.015625)"/>
      <path id="IPAexGothic-68" d="M 3347 63 
L 2797 63 
L 2797 2041 
Q 2797 2853 2131 2853 
Q 1447 2853 1131 2041 
L 1131 63 
L 581 63 
L 581 4794 
L 1131 4794 
L 1131 2706 
Q 1566 3316 2247 3316 
Q 3347 3316 3347 2072 
L 3347 63 
z
" transform="scale(0.015625)"/>
      <path id="IPAexGothic-2e" d="M 1184 63 
L 494 63 
L 494 753 
L 1184 753 
L 1184 63 
z
" transform="scale(0.015625)"/>
      <path id="IPAexGothic-32" d="M 3659 63 
L 447 63 
L 447 594 
Q 825 1475 1894 2203 
L 2072 2322 
Q 2619 2697 2791 2906 
Q 2988 3153 2988 3444 
Q 2988 3772 2756 4003 
Q 2500 4259 2084 4259 
Q 1250 4259 991 3328 
L 497 3506 
Q 853 4725 2116 4725 
Q 2806 4725 3216 4316 
Q 3575 3947 3575 3425 
Q 3575 3038 3344 2722 
Q 3131 2416 2366 1938 
L 2231 1856 
Q 1256 1253 978 569 
L 3659 569 
L 3659 63 
z
" transform="scale(0.015625)"/>
      <path id="IPAexGothic-20" transform="scale(0.015625)"/>
      <path id="IPAexGothic-30c7" d="M 563 3072 
L 5741 3072 
L 5741 2613 
L 3578 2613 
Q 3538 1516 3134 872 
Q 2688 156 1663 -256 
L 1313 156 
Q 2338 538 2713 1166 
Q 3003 1644 3034 2613 
L 563 2613 
L 563 3072 
z
M 1406 4588 
L 4588 4588 
L 4588 4128 
L 1406 4128 
L 1406 4588 
z
M 6009 4469 
Q 5647 5009 5253 5338 
L 5553 5569 
Q 5938 5259 6328 4744 
L 6009 4469 
z
M 5413 4000 
Q 5125 4491 4678 4891 
L 4991 5131 
Q 5363 4825 5747 4275 
L 5413 4000 
z
" transform="scale(0.015625)"/>
      <path id="IPAexGothic-30fc" d="M 588 2688 
L 5809 2688 
L 5809 2175 
L 588 2175 
L 588 2688 
z
" transform="scale(0.015625)"/>
      <path id="IPAexGothic-30bf" d="M 4978 4263 
L 5313 3988 
Q 4797 2431 4056 1459 
Q 3191 325 1822 -300 
L 1466 109 
Q 2131 381 2613 738 
Q 3053 1066 3531 1600 
Q 2919 2225 2144 2791 
Q 1603 2203 1172 1875 
L 825 2234 
Q 2316 3328 2866 5031 
L 3359 4897 
Q 3325 4775 3109 4263 
L 4978 4263 
z
M 2894 3816 
Q 2709 3522 2438 3169 
Q 3194 2616 3841 2003 
Q 4366 2806 4747 3816 
L 2894 3816 
z
" transform="scale(0.015625)"/>
      <path id="IPAexGothic-53ef" d="M 5100 4313 
L 5100 288 
Q 5100 -63 4913 -200 
Q 4756 -322 4313 -322 
Q 3859 -322 3313 -263 
L 3231 263 
Q 3869 178 4294 178 
Q 4525 178 4575 275 
Q 4613 341 4613 497 
L 4613 4313 
L 416 4313 
L 416 4728 
L 5972 4728 
L 5972 4313 
L 5100 4313 
z
M 3666 3406 
L 3666 1259 
L 1713 1259 
L 1713 741 
L 1259 741 
L 1259 3406 
L 3666 3406 
z
M 1713 3003 
L 1713 1669 
L 3213 1669 
L 3213 3003 
L 1713 3003 
z
" transform="scale(0.015625)"/>
      <path id="IPAexGothic-8996" d="M 2953 1631 
L 2953 5050 
L 5622 5050 
L 5622 1631 
L 4916 1631 
L 4916 300 
Q 4916 138 5000 100 
Q 5050 75 5219 75 
Q 5584 75 5641 275 
Q 5678 419 5697 1003 
L 6116 825 
Q 6075 75 5981 -97 
Q 5875 -297 5622 -334 
Q 5478 -353 5159 -353 
Q 4797 -353 4659 -288 
Q 4488 -203 4488 91 
L 4488 1631 
L 4028 1631 
Q 3978 841 3675 378 
Q 3353 -119 2625 -453 
L 2319 -91 
Q 3003 175 3303 634 
Q 3547 1013 3603 1631 
L 2953 1631 
z
M 3375 2016 
L 5206 2016 
L 5206 2669 
L 3375 2669 
L 3375 2016 
z
M 3375 3041 
L 5206 3041 
L 5206 3666 
L 3375 3666 
L 3375 3041 
z
M 3375 4038 
L 5206 4038 
L 5206 4666 
L 3375 4666 
L 3375 4038 
z
M 1766 2547 
Q 2294 2244 2834 1797 
L 2541 1381 
Q 2181 1728 1791 2041 
L 1766 2059 
L 1766 -456 
L 1313 -456 
L 1313 2047 
Q 894 1559 463 1216 
L 206 1619 
Q 1319 2453 1981 3775 
L 391 3775 
L 391 4197 
L 1250 4197 
L 1250 5309 
L 1703 5309 
L 1703 4197 
L 2303 4197 
L 2541 3978 
Q 2234 3259 1766 2622 
L 1766 2547 
z
" transform="scale(0.015625)"/>
      <path id="IPAexGothic-5316" d="M 1831 3700 
L 1831 -341 
L 1356 -341 
L 1356 2772 
Q 1069 2275 678 1772 
L 378 2138 
Q 1319 3278 1856 5166 
L 2319 5013 
Q 2100 4319 1831 3700 
z
M 3425 2906 
Q 4528 3350 5306 3969 
L 5703 3616 
Q 4728 2919 3425 2444 
L 3425 575 
Q 3425 353 3584 306 
Q 3738 263 4334 263 
Q 5072 263 5250 347 
Q 5384 403 5422 594 
Q 5475 872 5506 1497 
L 5978 1331 
Q 5931 319 5775 106 
Q 5641 -75 5331 -141 
Q 5041 -206 4244 -206 
Q 3438 -206 3181 -78 
Q 2931 47 2931 384 
L 2931 5113 
L 3425 5113 
L 3425 2906 
z
" transform="scale(0.015625)"/>
      <path id="IPAexGothic-30fb" d="M 2772 2859 
L 3628 2859 
L 3628 2003 
L 2772 2003 
L 2772 2859 
z
" transform="scale(0.015625)"/>
      <path id="IPAexGothic-45" d="M 3547 63 
L 609 63 
L 609 4634 
L 3469 4634 
L 3469 4147 
L 1166 4147 
L 1166 2650 
L 3206 2650 
L 3206 2191 
L 1166 2191 
L 1166 556 
L 3547 556 
L 3547 63 
z
" transform="scale(0.015625)"/>
      <path id="IPAexGothic-44" d="M 609 4634 
L 1984 4634 
Q 3159 4634 3791 4050 
Q 4456 3444 4456 2356 
Q 4456 1047 3516 441 
Q 2925 63 1941 63 
L 609 63 
L 609 4634 
z
M 1172 556 
L 1894 556 
Q 3853 556 3853 2356 
Q 3853 4147 1928 4147 
L 1172 4147 
L 1172 556 
z
" transform="scale(0.015625)"/>
      <path id="IPAexGothic-41" d="M 4056 63 
L 3444 63 
L 2938 1409 
L 1100 1409 
L 603 63 
L -6 63 
L 1806 4666 
L 2259 4666 
L 4056 63 
z
M 2778 1863 
L 2316 3078 
Q 2125 3588 2028 4000 
L 2009 4000 
Q 1897 3563 1716 3078 
L 1263 1863 
L 2778 1863 
z
" transform="scale(0.015625)"/>
     </defs>
     <use xlink:href="#IPAexGothic-43"/>
     <use xlink:href="#IPAexGothic-68" x="72.509766"/>
     <use xlink:href="#IPAexGothic-2e" x="133.203125"/>
     <use xlink:href="#IPAexGothic-32" x="159.619141"/>
     <use xlink:href="#IPAexGothic-20" x="222.607422"/>
     <use xlink:href="#IPAexGothic-30c7" x="249.609375"/>
     <use xlink:href="#IPAexGothic-30fc" x="349.609375"/>
     <use xlink:href="#IPAexGothic-30bf" x="449.609375"/>
     <use xlink:href="#IPAexGothic-53ef" x="549.609375"/>
     <use xlink:href="#IPAexGothic-8996" x="649.609375"/>
     <use xlink:href="#IPAexGothic-5316" x="749.609375"/>
     <use xlink:href="#IPAexGothic-30fb" x="849.609375"/>
     <use xlink:href="#IPAexGothic-45" x="949.609375"/>
     <use xlink:href="#IPAexGothic-44" x="1009.130859"/>
     <use xlink:href="#IPAexGothic-41" x="1084.814453"/>
    </g>
   </g>
   <g id="text_2">
    <!-- 演習の進め方（40分） -->
    <g style="fill: #1a1a2e" transform="translate(31.68 55.4175) scale(0.24 -0.24)">
     <defs>
      <path id="IPAexGothic-6f14" d="M 4091 2869 
L 5600 2869 
L 5600 697 
L 2209 697 
L 2209 2869 
L 3675 2869 
L 3675 3353 
L 2522 3353 
L 2522 3725 
L 5356 3725 
L 5356 3353 
L 4091 3353 
L 4091 2869 
z
M 4091 2503 
L 4091 1972 
L 5172 1972 
L 5172 2503 
L 4091 2503 
z
M 4091 1625 
L 4091 1063 
L 5172 1063 
L 5172 1625 
L 4091 1625 
z
M 3675 1063 
L 3675 1625 
L 2638 1625 
L 2638 1063 
L 3675 1063 
z
M 3675 1972 
L 3675 2503 
L 2638 2503 
L 2638 1972 
L 3675 1972 
z
M 4109 4544 
L 5984 4544 
L 5984 3378 
L 5544 3378 
L 5544 4166 
L 2341 4166 
L 2341 3378 
L 1900 3378 
L 1900 4544 
L 3656 4544 
L 3656 5313 
L 4109 5313 
L 4109 4544 
z
M 1447 3878 
Q 1088 4347 556 4769 
L 859 5100 
Q 1366 4719 1766 4250 
L 1447 3878 
z
M 1288 2381 
Q 841 2906 378 3256 
L 678 3591 
Q 1113 3288 1606 2753 
L 1288 2381 
z
M 372 -72 
Q 934 834 1306 1906 
L 1672 1613 
Q 1306 519 750 -422 
L 372 -72 
z
M 5741 -441 
Q 5019 47 4225 397 
L 4578 684 
Q 5353 372 6100 -63 
L 5741 -441 
z
M 1653 -109 
Q 2553 178 3213 653 
L 3541 359 
Q 2819 -159 1984 -506 
L 1653 -109 
z
" transform="scale(0.015625)"/>
      <path id="IPAexGothic-7fd2" d="M 3006 5063 
L 3006 3047 
Q 3006 2781 2878 2675 
Q 2769 2584 2481 2584 
Q 2078 2584 1772 2631 
L 1716 3072 
Q 2159 2988 2347 2988 
Q 2566 2988 2566 3219 
L 2566 4678 
L 466 4678 
L 466 5063 
L 3006 5063 
z
M 5778 5063 
L 5778 3041 
Q 5778 2584 5288 2584 
Q 4916 2584 4519 2631 
L 4441 3066 
Q 4856 2988 5131 2988 
Q 5338 2988 5338 3206 
L 5338 4678 
L 3238 4678 
L 3238 5063 
L 5778 5063 
z
M 2866 2119 
Q 2950 2356 3013 2669 
L 3500 2572 
Q 3409 2322 3306 2119 
L 5325 2119 
L 5325 -447 
L 4856 -447 
L 4856 -172 
L 1619 -172 
L 1619 -447 
L 1150 -447 
L 1150 2119 
L 2866 2119 
z
M 1619 1747 
L 1619 1197 
L 4856 1197 
L 4856 1747 
L 1619 1747 
z
M 1619 831 
L 1619 206 
L 4856 206 
L 4856 831 
L 1619 831 
z
M 1594 3681 
Q 1219 4044 778 4341 
L 1056 4609 
Q 1525 4325 1869 3981 
L 1594 3681 
z
M 4269 3694 
Q 3816 4066 3403 4341 
L 3684 4622 
Q 4203 4294 4556 3994 
L 4269 3694 
z
M 447 2950 
Q 1328 3347 2225 3969 
L 2353 3622 
Q 1581 3056 691 2606 
L 447 2950 
z
M 3231 3059 
Q 4138 3444 4978 4031 
L 5113 3675 
Q 4281 3066 3463 2700 
L 3231 3059 
z
" transform="scale(0.015625)"/>
      <path id="IPAexGothic-306e" d="M 3119 469 
Q 5275 766 5275 2425 
Q 5275 3453 4413 3925 
Q 4041 4116 3547 4159 
Q 3394 2525 2850 1400 
Q 2322 306 1722 306 
Q 1384 306 1084 666 
Q 609 1244 609 2003 
Q 609 3025 1397 3794 
Q 2184 4563 3431 4563 
Q 4306 4563 4928 4122 
Q 5813 3506 5813 2425 
Q 5813 438 3431 6 
L 3119 469 
z
M 3053 4147 
Q 2378 4044 1891 3641 
Q 1097 2981 1097 1991 
Q 1097 1366 1434 978 
Q 1581 813 1719 813 
Q 2022 813 2416 1625 
Q 2909 2638 3053 4147 
z
" transform="scale(0.015625)"/>
      <path id="IPAexGothic-9032" d="M 4303 1119 
L 5922 1119 
L 5922 728 
L 2828 728 
L 2828 381 
L 2413 381 
L 2413 3431 
Q 2141 3059 1925 2834 
L 1625 3169 
Q 2488 4059 2909 5281 
L 3347 5141 
Q 3125 4613 2925 4238 
L 3875 4238 
Q 4134 4709 4316 5256 
L 4781 5122 
Q 4553 4616 4328 4238 
L 5806 4238 
L 5806 3866 
L 4303 3866 
L 4303 3200 
L 5544 3200 
L 5544 2841 
L 4303 2841 
L 4303 2175 
L 5544 2175 
L 5544 1809 
L 4303 1809 
L 4303 1119 
z
M 3894 1119 
L 3894 1809 
L 2828 1809 
L 2828 1119 
L 3894 1119 
z
M 2828 2175 
L 3894 2175 
L 3894 2841 
L 2828 2841 
L 2828 2175 
z
M 2828 3200 
L 3894 3200 
L 3894 3866 
L 2828 3866 
L 2828 3200 
z
M 1703 734 
Q 1894 484 2241 313 
Q 2675 94 3963 94 
Q 4863 94 6144 178 
Q 6025 -50 5978 -300 
Q 4931 -341 4378 -341 
Q 2803 -341 2228 -122 
Q 1756 50 1519 397 
Q 1106 -75 647 -447 
L 366 19 
Q 847 309 1263 678 
L 1263 2303 
L 378 2303 
L 378 2731 
L 1703 2731 
L 1703 734 
z
M 1516 3775 
Q 1053 4347 563 4738 
L 878 5056 
Q 1466 4597 1856 4128 
L 1516 3775 
z
" transform="scale(0.015625)"/>
      <path id="IPAexGothic-3081" d="M 1588 4550 
Q 1709 3969 1881 3431 
Q 2488 3791 3309 3891 
Q 3444 4513 3488 4972 
L 3994 4878 
Q 3922 4456 3800 3897 
Q 4666 3838 5169 3397 
Q 5513 3103 5650 2753 
Q 5784 2413 5784 1900 
Q 5784 1081 5106 550 
Q 4500 75 3397 -128 
L 3103 331 
Q 4238 484 4784 944 
Q 5253 1334 5253 1913 
Q 5253 2428 5100 2725 
Q 4981 2963 4716 3156 
Q 4331 3441 3694 3500 
Q 3363 2388 2766 1428 
Q 2872 1241 3084 966 
L 2725 647 
Q 2597 813 2475 1019 
Q 1834 231 1313 231 
Q 966 231 756 556 
Q 544 884 544 1338 
Q 544 2300 1484 3156 
Q 1250 3903 1153 4353 
L 1588 4550 
z
M 1631 2725 
Q 991 2069 991 1378 
Q 991 738 1344 738 
Q 1709 738 2228 1428 
Q 1894 2025 1631 2725 
z
M 3206 3488 
Q 2519 3381 2009 3028 
Q 2266 2306 2516 1863 
Q 3003 2763 3206 3488 
z
" transform="scale(0.015625)"/>
      <path id="IPAexGothic-65b9" d="M 2931 3750 
L 2925 3616 
Q 2916 3203 2872 2778 
L 5244 2778 
Q 5175 781 5000 156 
Q 4913 -144 4691 -247 
Q 4528 -325 4194 -325 
Q 3759 -325 3256 -263 
L 3144 269 
Q 3700 156 4141 156 
Q 4491 156 4556 463 
Q 4725 1197 4744 2350 
L 2822 2350 
Q 2822 2313 2816 2288 
Q 2538 428 916 -484 
L 563 -94 
Q 1859 491 2247 1869 
Q 2422 2488 2450 3750 
L 409 3750 
L 409 4178 
L 2931 4178 
L 2931 5175 
L 3431 5175 
L 3431 4178 
L 5984 4178 
L 5984 3750 
L 2931 3750 
z
" transform="scale(0.015625)"/>
      <path id="IPAexGothic-ff08" d="M 5419 -434 
Q 4197 769 4197 2438 
Q 4197 4097 5419 5300 
L 5919 5300 
Q 4678 4078 4678 2425 
Q 4678 788 5919 -434 
L 5419 -434 
z
" transform="scale(0.015625)"/>
      <path id="IPAexGothic-34" d="M 3813 1159 
L 3059 1159 
L 3059 63 
L 2547 63 
L 2547 1159 
L 197 1159 
L 197 1672 
L 2456 4678 
L 3059 4678 
L 3059 1634 
L 3813 1634 
L 3813 1159 
z
M 2578 4109 
L 2559 4109 
Q 2278 3656 2003 3284 
L 759 1634 
L 2547 1634 
L 2547 3144 
Q 2547 3481 2578 4109 
z
" transform="scale(0.015625)"/>
      <path id="IPAexGothic-30" d="M 2038 4725 
Q 2881 4725 3334 3944 
Q 3694 3325 3694 2344 
Q 3694 1372 3334 741 
Q 2888 -31 2016 -31 
Q 1147 -31 700 741 
Q 341 1372 341 2350 
Q 341 3713 1000 4334 
Q 1419 4725 2038 4725 
z
M 2016 4266 
Q 1516 4266 1228 3759 
Q 934 3247 934 2344 
Q 934 1456 1222 947 
Q 1513 447 2016 447 
Q 2619 447 2909 1153 
Q 3100 1622 3100 2375 
Q 3100 3256 2806 3759 
Q 2509 4266 2016 4266 
z
" transform="scale(0.015625)"/>
      <path id="IPAexGothic-5206" d="M 3031 2431 
Q 2916 1378 2528 759 
Q 1991 -81 941 -469 
L 625 -53 
Q 2356 488 2541 2431 
L 1375 2431 
L 1375 2772 
Q 1044 2431 653 2156 
L 313 2534 
Q 1600 3425 2219 5056 
L 2688 4875 
Q 2200 3672 1453 2847 
L 4966 2847 
Q 4878 559 4741 94 
Q 4666 -163 4459 -250 
Q 4288 -322 3941 -322 
Q 3525 -322 2981 -263 
L 2884 256 
Q 3441 138 3844 138 
Q 4213 138 4281 438 
Q 4388 931 4472 2431 
L 3031 2431 
z
M 5747 2303 
Q 4416 3238 3506 4934 
L 3934 5113 
Q 4747 3572 6084 2747 
L 5747 2303 
z
" transform="scale(0.015625)"/>
      <path id="IPAexGothic-ff09" d="M 481 -434 
Q 1722 788 1722 2431 
Q 1722 4066 481 5300 
L 981 5300 
Q 2203 4097 2203 2431 
Q 2203 769 981 -434 
L 481 -434 
z
" transform="scale(0.015625)"/>
     </defs>
     <use xlink:href="#IPAexGothic-6f14"/>
     <use xlink:href="#IPAexGothic-7fd2" x="100"/>
     <use xlink:href="#IPAexGothic-306e" x="200"/>
     <use xlink:href="#IPAexGothic-9032" x="300"/>
     <use xlink:href="#IPAexGothic-3081" x="400"/>
     <use xlink:href="#IPAexGothic-65b9" x="500"/>
     <use xlink:href="#IPAexGothic-ff08" x="600"/>
     <use xlink:href="#IPAexGothic-34" x="700"/>
     <use xlink:href="#IPAexGothic-30" x="762.988281"/>
     <use xlink:href="#IPAexGothic-5206" x="825.976562"/>
     <use xlink:href="#IPAexGothic-ff09" x="925.976562"/>
    </g>
   </g>
   <g id="text_3">
    <!-- notebooks/ch2_visualization.ipynb の演習セクション -->
    <g style="fill: #7f8c8d" transform="translate(31.68 73.321875) scale(0.12 -0.12)">
     <defs>
      <path id="IPAexGothic-6e" d="M 3328 63 
L 2778 63 
L 2778 2041 
Q 2778 2853 2106 2853 
Q 1428 2853 1113 2041 
L 1113 63 
L 563 63 
L 563 3250 
L 1075 3250 
L 1075 2675 
Q 1525 3316 2222 3316 
Q 3328 3316 3328 2072 
L 3328 63 
z
" transform="scale(0.015625)"/>
      <path id="IPAexGothic-6f" d="M 1919 3341 
Q 2594 3341 3056 2888 
Q 3531 2413 3531 1638 
Q 3531 888 3066 422 
Q 2609 -31 1919 -31 
Q 1228 -31 781 416 
Q 313 881 313 1656 
Q 313 2413 788 2888 
Q 1241 3341 1919 3341 
z
M 1919 2919 
Q 1519 2919 1241 2631 
Q 888 2278 888 1650 
Q 888 1031 1234 684 
Q 1516 403 1919 403 
Q 2331 403 2609 691 
Q 2956 1038 2956 1672 
Q 2956 2269 2603 2631 
Q 2316 2919 1919 2919 
z
" transform="scale(0.015625)"/>
      <path id="IPAexGothic-74" d="M 2125 241 
Q 1769 -6 1397 -6 
Q 653 -6 653 831 
L 653 2859 
L 219 2859 
L 219 3250 
L 653 3250 
L 653 3966 
L 1178 4228 
L 1178 3250 
L 2063 3250 
L 2063 2859 
L 1178 2859 
L 1178 906 
Q 1178 416 1513 416 
Q 1738 416 1941 588 
L 2125 241 
z
" transform="scale(0.015625)"/>
      <path id="IPAexGothic-65" d="M 863 1594 
Q 891 1041 1209 722 
Q 1534 397 1997 397 
Q 2606 397 2963 966 
L 3322 728 
Q 2869 -31 1931 -31 
Q 1222 -31 766 422 
Q 306 884 306 1641 
Q 306 2444 788 2925 
Q 1216 3353 1856 3353 
Q 2459 3353 2866 2956 
Q 3322 2494 3322 1722 
L 3322 1594 
L 863 1594 
z
M 2756 1997 
Q 2709 2431 2450 2681 
Q 2194 2938 1844 2938 
Q 1438 2938 1150 2591 
Q 953 2356 894 1997 
L 2756 1997 
z
" transform="scale(0.015625)"/>
      <path id="IPAexGothic-62" d="M 1125 2731 
Q 1550 3341 2219 3341 
Q 2788 3341 3191 2938 
Q 3659 2469 3659 1644 
Q 3659 838 3191 372 
Q 2788 -31 2206 -31 
Q 1559 -31 1088 516 
L 1009 44 
L 581 44 
L 581 4794 
L 1125 4794 
L 1125 2731 
z
M 1125 1997 
L 1125 1253 
Q 1125 888 1528 600 
Q 1803 403 2119 403 
Q 2488 403 2744 659 
Q 3084 1009 3084 1631 
Q 3084 2194 2803 2553 
Q 2525 2900 2125 2900 
Q 1759 2900 1438 2578 
Q 1125 2266 1125 1997 
z
" transform="scale(0.015625)"/>
      <path id="IPAexGothic-6b" d="M 3244 63 
L 2578 63 
L 1484 1613 
L 1119 1259 
L 1119 63 
L 581 63 
L 581 4794 
L 1119 4794 
L 1119 1766 
L 2463 3250 
L 3153 3250 
L 1828 1925 
L 3244 63 
z
" transform="scale(0.015625)"/>
      <path id="IPAexGothic-73" d="M 2234 2547 
Q 1938 2931 1484 2931 
Q 891 2931 891 2475 
Q 891 2153 1531 1944 
L 1741 1875 
Q 2650 1578 2650 894 
Q 2650 434 2272 172 
Q 1972 -31 1497 -31 
Q 766 -31 256 503 
L 603 819 
Q 997 397 1516 397 
Q 2131 397 2131 875 
Q 2131 1238 1453 1478 
L 1234 1553 
Q 378 1853 378 2431 
Q 378 2797 628 3047 
Q 928 3347 1453 3347 
Q 2156 3347 2606 2859 
L 2234 2547 
z
" transform="scale(0.015625)"/>
      <path id="IPAexGothic-2f" d="M 2719 4709 
L 600 -884 
L 300 -763 
L 2413 4831 
L 2719 4709 
z
" transform="scale(0.015625)"/>
      <path id="IPAexGothic-63" d="M 3269 784 
Q 2834 -31 1900 -31 
Q 1228 -31 788 409 
Q 313 891 313 1663 
Q 313 2428 788 2913 
Q 1222 3347 1881 3347 
Q 2813 3347 3206 2541 
L 2763 2309 
Q 2484 2900 1900 2900 
Q 1516 2900 1234 2619 
Q 881 2266 881 1650 
Q 881 1069 1222 728 
Q 1522 428 1956 428 
Q 2547 428 2847 1016 
L 3269 784 
z
" transform="scale(0.015625)"/>
      <path id="IPAexGothic-5f" d="M 3200 -750 
L 0 -750 
L 0 -431 
L 3200 -431 
L 3200 -750 
z
" transform="scale(0.015625)"/>
      <path id="IPAexGothic-76" d="M 3103 3250 
L 1747 6 
L 1375 6 
L 25 3250 
L 628 3250 
L 1338 1388 
L 1522 844 
L 1569 703 
L 1588 703 
Q 1641 884 1822 1388 
L 2516 3250 
L 3103 3250 
z
" transform="scale(0.015625)"/>
      <path id="IPAexGothic-69" d="M 1178 3928 
L 550 3928 
L 550 4569 
L 1178 4569 
L 1178 3928 
z
M 1138 63 
L 588 63 
L 588 3250 
L 1138 3250 
L 1138 63 
z
" transform="scale(0.015625)"/>
      <path id="IPAexGothic-75" d="M 3284 63 
L 2772 63 
L 2772 644 
Q 2300 0 1625 0 
Q 1072 0 763 375 
Q 519 678 519 1241 
L 519 3250 
L 1069 3250 
L 1069 1259 
Q 1069 466 1734 466 
Q 2406 466 2734 1291 
L 2734 3250 
L 3284 3250 
L 3284 63 
z
" transform="scale(0.015625)"/>
      <path id="IPAexGothic-61" d="M 3156 63 
L 2672 63 
Q 2559 303 2531 556 
L 2509 556 
Q 2147 -25 1428 -25 
Q 934 -25 622 288 
Q 347 563 347 959 
Q 347 1947 2050 1997 
L 2478 2009 
L 2478 2175 
Q 2478 2509 2288 2700 
Q 2088 2900 1775 2900 
Q 1238 2900 969 2378 
L 494 2597 
Q 938 3328 1788 3328 
Q 2375 3328 2691 3000 
Q 2984 2706 2984 2169 
L 2984 997 
Q 2984 400 3156 63 
z
M 2491 1625 
L 2141 1619 
Q 903 1591 903 953 
Q 903 728 1050 581 
Q 1231 403 1525 403 
Q 1934 403 2234 703 
Q 2491 969 2491 1344 
L 2491 1625 
z
" transform="scale(0.015625)"/>
      <path id="IPAexGothic-6c" d="M 1131 63 
L 581 63 
L 581 4794 
L 1131 4794 
L 1131 63 
z
" transform="scale(0.015625)"/>
      <path id="IPAexGothic-7a" d="M 2778 63 
L 206 63 
L 206 381 
L 1575 2175 
Q 1822 2500 2081 2797 
L 2081 2816 
L 366 2816 
L 366 3250 
L 2703 3250 
L 2703 2900 
L 1378 1138 
Q 1256 975 872 522 
L 872 503 
L 2778 503 
L 2778 63 
z
" transform="scale(0.015625)"/>
      <path id="IPAexGothic-70" d="M 1075 2688 
Q 1525 3341 2206 3341 
Q 2769 3341 3172 2938 
Q 3641 2469 3641 1644 
Q 3641 841 3178 372 
Q 2775 -31 2200 -31 
Q 1569 -31 1106 497 
L 1106 -1216 
L 563 -1216 
L 563 3250 
L 1075 3250 
L 1075 2688 
z
M 1106 1950 
L 1106 1291 
Q 1106 897 1516 600 
Q 1791 403 2106 403 
Q 2469 403 2725 659 
Q 3066 997 3066 1631 
Q 3066 2200 2784 2559 
Q 2503 2900 2100 2900 
Q 1656 2900 1338 2484 
Q 1106 2184 1106 1950 
z
" transform="scale(0.015625)"/>
      <path id="IPAexGothic-79" d="M 3122 3250 
L 1575 -488 
Q 1278 -1203 550 -1203 
L 478 -1203 
L 344 -703 
L 447 -703 
Q 969 -703 1150 -238 
L 1356 275 
L 38 3250 
L 659 3250 
L 1363 1459 
Q 1528 1025 1606 781 
L 1625 781 
Q 1750 1169 1863 1459 
L 2528 3250 
L 3122 3250 
z
" transform="scale(0.015625)"/>
      <path id="IPAexGothic-30bb" d="M 2059 4878 
L 2584 4878 
L 2584 3397 
L 5291 3731 
L 5606 3444 
Q 4838 2313 4006 1556 
L 3569 1875 
Q 4297 2459 4844 3231 
L 2584 2931 
L 2584 978 
Q 2584 734 2738 669 
Q 2922 584 3616 584 
Q 4419 584 5425 697 
L 5444 172 
Q 4563 103 3844 103 
Q 2678 103 2359 256 
Q 2059 403 2059 863 
L 2059 2859 
L 638 2675 
L 588 3150 
L 2059 3334 
L 2059 4878 
z
" transform="scale(0.015625)"/>
      <path id="IPAexGothic-30af" d="M 4934 4191 
L 5272 3941 
Q 4894 2334 4031 1300 
Q 3275 391 2028 -225 
L 1656 184 
Q 2875 691 3641 1625 
Q 4403 2553 4691 3731 
L 2903 3731 
Q 2188 2653 1356 1959 
L 978 2309 
Q 2328 3400 2931 5022 
L 3422 4881 
Q 3363 4672 3141 4191 
L 4934 4191 
z
" transform="scale(0.015625)"/>
      <path id="IPAexGothic-30b7" d="M 2828 3531 
Q 2219 4056 1613 4359 
L 1913 4781 
Q 2503 4491 3169 3981 
L 2828 3531 
z
M 1163 500 
Q 3944 1094 5338 3525 
L 5688 3128 
Q 4297 700 1484 0 
L 1163 500 
z
M 2072 2278 
Q 1466 2800 831 3109 
L 1131 3541 
Q 1806 3213 2406 2725 
L 2072 2278 
z
" transform="scale(0.015625)"/>
      <path id="IPAexGothic-30e7" d="M 1625 3469 
L 4653 3469 
L 4653 0 
L 4172 0 
L 4172 294 
L 1553 294 
L 1553 753 
L 4172 753 
L 4172 1734 
L 1766 1734 
L 1766 2169 
L 4172 2169 
L 4172 3028 
L 1625 3028 
L 1625 3469 
z
" transform="scale(0.015625)"/>
      <path id="IPAexGothic-30f3" d="M 2444 3084 
Q 1816 3656 1056 4084 
L 1381 4519 
Q 2063 4191 2816 3559 
L 2444 3084 
z
M 1100 609 
Q 3984 1106 5216 3828 
L 5619 3469 
Q 4413 794 1434 103 
L 1100 609 
z
" transform="scale(0.015625)"/>
     </defs>
     <use xlink:href="#IPAexGothic-6e"/>
     <use xlink:href="#IPAexGothic-6f" x="60.400391"/>
     <use xlink:href="#IPAexGothic-74" x="120.800781"/>
     <use xlink:href="#IPAexGothic-65" x="155.419922"/>
     <use xlink:href="#IPAexGothic-62" x="212.304688"/>
     <use xlink:href="#IPAexGothic-6f" x="274.707031"/>
     <use xlink:href="#IPAexGothic-6f" x="335.107422"/>
     <use xlink:href="#IPAexGothic-6b" x="395.507812"/>
     <use xlink:href="#IPAexGothic-73" x="447.314453"/>
     <use xlink:href="#IPAexGothic-2f" x="493.505859"/>
     <use xlink:href="#IPAexGothic-63" x="543.505859"/>
     <use xlink:href="#IPAexGothic-68" x="597.900391"/>
     <use xlink:href="#IPAexGothic-32" x="658.59375"/>
     <use xlink:href="#IPAexGothic-5f" x="721.582031"/>
     <use xlink:href="#IPAexGothic-76" x="771.582031"/>
     <use xlink:href="#IPAexGothic-69" x="820.166016"/>
     <use xlink:href="#IPAexGothic-73" x="847.167969"/>
     <use xlink:href="#IPAexGothic-75" x="893.359375"/>
     <use xlink:href="#IPAexGothic-61" x="953.759766"/>
     <use xlink:href="#IPAexGothic-6c" x="1008.740234"/>
     <use xlink:href="#IPAexGothic-69" x="1035.742188"/>
     <use xlink:href="#IPAexGothic-7a" x="1062.744141"/>
     <use xlink:href="#IPAexGothic-61" x="1110.058594"/>
     <use xlink:href="#IPAexGothic-74" x="1165.039062"/>
     <use xlink:href="#IPAexGothic-69" x="1199.658203"/>
     <use xlink:href="#IPAexGothic-6f" x="1226.660156"/>
     <use xlink:href="#IPAexGothic-6e" x="1287.060547"/>
     <use xlink:href="#IPAexGothic-2e" x="1347.460938"/>
     <use xlink:href="#IPAexGothic-69" x="1373.876953"/>
     <use xlink:href="#IPAexGothic-70" x="1400.878906"/>
     <use xlink:href="#IPAexGothic-79" x="1462.988281"/>
     <use xlink:href="#IPAexGothic-6e" x="1512.207031"/>
     <use xlink:href="#IPAexGothic-62" x="1572.607422"/>
     <use xlink:href="#IPAexGothic-20" x="1635.009766"/>
     <use xlink:href="#IPAexGothic-306e" x="1662.011719"/>
     <use xlink:href="#IPAexGothic-6f14" x="1762.011719"/>
     <use xlink:href="#IPAexGothic-7fd2" x="1862.011719"/>
     <use xlink:href="#IPAexGothic-30bb" x="1962.011719"/>
     <use xlink:href="#IPAexGothic-30af" x="2062.011719"/>
     <use xlink:href="#IPAexGothic-30b7" x="2162.011719"/>
     <use xlink:href="#IPAexGothic-30e7" x="2262.011719"/>
     <use xlink:href="#IPAexGothic-30f3" x="2362.011719"/>
    </g>
   </g>
   <g id="text_4">
    <!-- 問1 -->
    <g style="fill: #ffffff" transform="translate(34.860937 94.074375) scale(0.12 -0.12)">
     <defs>
      <path id="IPAexGothic-554f" d="M 4384 2291 
L 4384 525 
L 2400 525 
L 2400 172 
L 1972 172 
L 1972 2291 
L 4384 2291 
z
M 3956 1919 
L 2400 1919 
L 2400 897 
L 3956 897 
L 3956 1919 
z
M 2913 4984 
L 2913 2884 
L 1094 2884 
L 1094 -450 
L 641 -450 
L 641 4984 
L 2913 4984 
z
M 1094 4606 
L 1094 4109 
L 2497 4109 
L 2497 4606 
L 1094 4606 
z
M 1094 3769 
L 1094 3250 
L 2497 3250 
L 2497 3769 
L 1094 3769 
z
M 5753 4984 
L 5753 91 
Q 5753 -403 5244 -403 
Q 4875 -403 4444 -366 
L 4366 97 
Q 4750 38 5063 38 
Q 5300 38 5300 281 
L 5300 2884 
L 3444 2884 
L 3444 4984 
L 5753 4984 
z
M 3859 4606 
L 3859 4109 
L 5300 4109 
L 5300 4606 
L 3859 4606 
z
M 3859 3769 
L 3859 3250 
L 5300 3250 
L 5300 3769 
L 3859 3769 
z
" transform="scale(0.015625)"/>
      <path id="IPAexGothic-31" d="M 2463 63 
L 1900 63 
L 1900 4103 
Q 1372 3922 788 3797 
L 684 4231 
Q 1519 4441 2106 4731 
L 2463 4731 
L 2463 63 
z
" transform="scale(0.015625)"/>
     </defs>
     <use xlink:href="#IPAexGothic-554f"/>
     <use xlink:href="#IPAexGothic-31" x="100"/>
    </g>
   </g>
   <g id="text_5">
    <!-- 棒グラフで品種ごとの平均アルコール度数を比較する -->
    <g style="fill: #2c3e50" transform="translate(64.8 91.153125) scale(0.14 -0.14)">
     <defs>
      <path id="IPAexGothic-68d2" d="M 1200 2594 
Q 928 1569 450 794 
L 188 1256 
Q 850 2238 1147 3547 
L 322 3547 
L 322 3956 
L 1200 3956 
L 1200 5306 
L 1622 5306 
L 1622 3956 
L 2313 3956 
L 2313 3547 
L 1622 3547 
L 1622 2991 
Q 2072 2547 2356 2209 
L 2088 1781 
Q 1844 2197 1622 2478 
L 1622 -447 
L 1200 -447 
L 1200 2594 
z
M 2869 1741 
Q 2684 1513 2319 1156 
L 2019 1503 
Q 2566 1941 2978 2591 
L 2159 2591 
L 2159 2963 
L 3197 2963 
Q 3334 3219 3425 3488 
L 2538 3488 
L 2538 3841 
L 3528 3841 
Q 3603 4156 3631 4313 
L 2319 4313 
L 2319 4672 
L 3688 4672 
L 3700 4775 
Q 3725 4991 3759 5338 
L 4181 5281 
Q 4153 4966 4103 4672 
L 5891 4672 
L 5891 4313 
L 4047 4313 
Q 4013 4119 3938 3841 
L 5672 3841 
L 5672 3488 
L 4634 3488 
Q 4809 3125 4916 2963 
L 6075 2963 
L 6075 2591 
L 5184 2591 
Q 5584 2103 6147 1713 
L 5838 1325 
Q 5141 1931 4700 2591 
L 3453 2591 
Q 3216 2178 2900 1784 
L 3844 1784 
L 3844 2366 
L 4272 2366 
L 4272 1784 
L 5347 1784 
L 5347 1413 
L 4272 1413 
L 4272 916 
L 5769 916 
L 5769 531 
L 4272 531 
L 4272 -447 
L 3844 -447 
L 3844 531 
L 2497 531 
L 2497 916 
L 3844 916 
L 3844 1413 
L 2869 1413 
L 2869 1741 
z
M 4244 3488 
L 3834 3488 
Q 3719 3147 3638 2963 
L 4475 2963 
Q 4309 3275 4244 3488 
z
" transform="scale(0.015625)"/>
      <path id="IPAexGothic-30b0" d="M 4769 4128 
L 5106 3878 
Q 4728 2272 3866 1238 
Q 3106 328 1863 -288 
L 1491 122 
Q 2709 628 3475 1563 
Q 4238 2491 4525 3669 
L 2738 3669 
Q 2022 2591 1191 1897 
L 813 2247 
Q 2163 3338 2766 4959 
L 3256 4819 
Q 3197 4609 2975 4128 
L 4769 4128 
z
M 6009 4422 
Q 5647 4966 5253 5294 
L 5556 5522 
Q 5941 5213 6328 4697 
L 6009 4422 
z
M 5416 3956 
Q 5125 4447 4678 4844 
L 4991 5088 
Q 5363 4781 5747 4231 
L 5416 3956 
z
" transform="scale(0.015625)"/>
      <path id="IPAexGothic-30e9" d="M 1447 4709 
L 4922 4709 
L 4922 4234 
L 1447 4234 
L 1447 4709 
z
M 897 3303 
L 5172 3303 
L 5478 3013 
Q 5069 1669 4219 875 
Q 3475 181 2306 -181 
L 1972 294 
Q 4150 784 4834 2828 
L 897 2828 
L 897 3303 
z
" transform="scale(0.015625)"/>
      <path id="IPAexGothic-30d5" d="M 4966 4294 
L 5263 4019 
Q 4819 894 1966 -97 
L 1600 353 
Q 4234 1156 4684 3822 
L 1044 3756 
L 1044 4244 
L 4966 4294 
z
" transform="scale(0.015625)"/>
      <path id="IPAexGothic-3067" d="M 581 4034 
Q 2978 4363 5466 4556 
L 5509 4097 
Q 4388 4031 3750 3572 
Q 2797 2878 2797 1913 
Q 2797 1169 3291 819 
Q 3778 484 4869 416 
L 4906 -116 
Q 2278 0 2278 1850 
Q 2278 3125 3691 4000 
Q 2066 3784 684 3553 
L 581 4034 
z
M 5631 2522 
Q 5269 3063 4875 3391 
L 5175 3622 
Q 5559 3313 5950 2797 
L 5631 2522 
z
M 5034 2053 
Q 4747 2544 4300 2944 
L 4613 3184 
Q 4984 2878 5369 2328 
L 5034 2053 
z
" transform="scale(0.015625)"/>
      <path id="IPAexGothic-54c1" d="M 4781 4947 
L 4781 2872 
L 1613 2872 
L 1613 4947 
L 4781 4947 
z
M 2066 4556 
L 2066 3263 
L 4334 3263 
L 4334 4556 
L 2066 4556 
z
M 2841 2291 
L 2841 -325 
L 2400 -325 
L 2400 0 
L 1088 0 
L 1088 -384 
L 647 -384 
L 647 2291 
L 2841 2291 
z
M 1088 1900 
L 1088 397 
L 2400 397 
L 2400 1900 
L 1088 1900 
z
M 5747 2291 
L 5747 -384 
L 5306 -384 
L 5306 0 
L 3950 0 
L 3950 -384 
L 3509 -384 
L 3509 2291 
L 5747 2291 
z
M 3950 1900 
L 3950 397 
L 5306 397 
L 5306 1900 
L 3950 1900 
z
" transform="scale(0.015625)"/>
      <path id="IPAexGothic-7a2e" d="M 1269 2366 
Q 959 1388 456 659 
L 238 1100 
Q 878 2028 1203 3128 
L 328 3128 
L 328 3531 
L 1269 3531 
L 1269 4453 
Q 919 4388 525 4338 
L 347 4703 
Q 1372 4850 2144 5131 
L 2484 4766 
Q 2019 4622 1691 4544 
L 1691 3531 
L 2419 3531 
L 2419 3128 
L 1691 3128 
L 1691 2669 
Q 2081 2350 2478 1913 
L 2203 1509 
Q 1934 1897 1691 2169 
L 1691 -450 
L 1269 -450 
L 1269 2366 
z
M 3963 3297 
L 3963 3703 
L 2350 3703 
L 2350 4063 
L 3963 4063 
L 3963 4497 
L 3872 4491 
Q 3219 4431 2722 4409 
L 2541 4784 
Q 4100 4831 5350 5119 
L 5678 4741 
Q 5128 4634 4378 4544 
L 4378 4063 
L 6013 4063 
L 6013 3703 
L 4378 3703 
L 4378 3297 
L 5641 3297 
L 5641 1313 
L 4378 1313 
L 4378 872 
L 5750 872 
L 5750 525 
L 4378 525 
L 4378 78 
L 6069 78 
L 6069 -288 
L 2297 -288 
L 2297 78 
L 3963 78 
L 3963 525 
L 2613 525 
L 2613 872 
L 3963 872 
L 3963 1313 
L 2728 1313 
L 2728 3297 
L 3963 3297 
z
M 3975 2956 
L 3138 2956 
L 3138 2472 
L 3975 2472 
L 3975 2956 
z
M 4366 2956 
L 4366 2472 
L 5238 2472 
L 5238 2956 
L 4366 2956 
z
M 3975 2159 
L 3138 2159 
L 3138 1653 
L 3975 1653 
L 3975 2159 
z
M 4366 2159 
L 4366 1653 
L 5238 1653 
L 5238 2159 
L 4366 2159 
z
" transform="scale(0.015625)"/>
      <path id="IPAexGothic-3054" d="M 1525 4409 
Q 2284 4350 2881 4350 
Q 3778 4350 4481 4447 
L 4591 4019 
Q 3778 3791 2856 2981 
L 2497 3256 
Q 3028 3653 3488 3938 
Q 2969 3897 2497 3897 
Q 1975 3897 1544 3944 
L 1525 4409 
z
M 5122 178 
Q 4244 0 3181 0 
Q 2194 0 1594 331 
Q 1038 641 1038 1184 
Q 1038 1725 1538 2234 
L 1922 1991 
Q 1525 1631 1525 1247 
Q 1525 488 3169 488 
Q 4166 488 5069 709 
L 5122 178 
z
M 5959 4250 
Q 5597 4791 5203 5119 
L 5506 5350 
Q 5888 5041 6278 4525 
L 5959 4250 
z
M 5391 3763 
Q 5100 4253 4653 4653 
L 4966 4897 
Q 5338 4588 5722 4038 
L 5391 3763 
z
" transform="scale(0.015625)"/>
      <path id="IPAexGothic-3068" d="M 5222 56 
Q 4200 -72 3450 -72 
Q 2478 -72 1941 113 
Q 1184 372 1184 1038 
Q 1184 1584 1594 2009 
Q 1941 2369 2656 2725 
Q 2231 3734 1972 4878 
L 2491 4978 
Q 2706 3884 3078 2950 
Q 4250 3447 4756 3616 
L 4978 3150 
Q 3181 2575 2409 2078 
Q 1691 1613 1691 1113 
Q 1691 403 3322 403 
Q 4125 403 5134 563 
L 5222 56 
z
" transform="scale(0.015625)"/>
      <path id="IPAexGothic-5e73" d="M 3422 4428 
L 3422 1941 
L 6084 1941 
L 6084 1513 
L 3422 1513 
L 3422 -447 
L 2934 -447 
L 2934 1513 
L 322 1513 
L 322 1941 
L 2934 1941 
L 2934 4428 
L 641 4428 
L 641 4856 
L 5763 4856 
L 5763 4428 
L 3422 4428 
z
M 1728 2278 
Q 1488 3094 1081 3859 
L 1544 4038 
Q 1875 3422 2222 2472 
L 1728 2278 
z
M 4134 2425 
Q 4509 3138 4813 4128 
L 5306 3944 
Q 4984 3006 4569 2228 
L 4134 2425 
z
" transform="scale(0.015625)"/>
      <path id="IPAexGothic-5747" d="M 1206 3794 
L 1206 5144 
L 1659 5144 
L 1659 3794 
L 2369 3794 
L 2369 3372 
L 1659 3372 
L 1659 1325 
Q 2078 1513 2484 1722 
L 2566 1313 
Q 1556 775 559 397 
L 334 838 
Q 803 975 1206 1138 
L 1206 3372 
L 413 3372 
L 413 3794 
L 1206 3794 
z
M 3475 4244 
L 5844 4244 
Q 5834 1131 5619 184 
Q 5494 -366 4838 -366 
Q 4369 -366 3859 -306 
L 3769 184 
Q 4241 88 4731 88 
Q 5059 88 5147 306 
Q 5359 919 5369 3828 
L 3316 3828 
Q 3013 3119 2466 2472 
L 2150 2828 
Q 2944 3788 3259 5263 
L 3719 5147 
Q 3619 4663 3475 4244 
z
M 2975 2847 
L 4678 2847 
L 4678 2431 
L 2975 2431 
L 2975 2847 
z
M 2559 1044 
Q 3747 1338 4838 1797 
L 4891 1388 
Q 3831 891 2766 588 
L 2559 1044 
z
" transform="scale(0.015625)"/>
      <path id="IPAexGothic-30a2" d="M 5388 4556 
L 5747 4200 
Q 5081 3022 4019 2191 
L 3647 2547 
Q 4519 3178 5081 4091 
L 850 4013 
L 850 4500 
L 5388 4556 
z
M 1216 256 
Q 2319 813 2616 1691 
Q 2797 2200 2797 3628 
L 3313 3628 
Q 3303 1981 3059 1356 
Q 2697 431 1594 -153 
L 1216 256 
z
" transform="scale(0.015625)"/>
      <path id="IPAexGothic-30eb" d="M 353 331 
Q 1313 994 1544 2022 
Q 1684 2650 1684 4397 
L 2203 4397 
L 2203 4153 
L 2203 4116 
Q 2203 2259 1934 1491 
Q 1619 588 744 -38 
L 353 331 
z
M 3125 4666 
L 3650 4666 
L 3650 769 
Q 4875 1488 5672 2734 
L 6000 2278 
Q 5075 966 3516 63 
L 3125 359 
L 3125 4666 
z
" transform="scale(0.015625)"/>
      <path id="IPAexGothic-30b3" d="M 1134 4213 
L 5166 4213 
L 5166 153 
L 4653 153 
L 4653 594 
L 1063 594 
L 1063 1088 
L 4653 1088 
L 4653 3725 
L 1134 3725 
L 1134 4213 
z
" transform="scale(0.015625)"/>
      <path id="IPAexGothic-5ea6" d="M 3516 4622 
L 5794 4622 
L 5794 4231 
L 1278 4231 
L 1278 3547 
L 2328 3547 
L 2328 4041 
L 2759 4041 
L 2759 3547 
L 4097 3547 
L 4097 4041 
L 4525 4041 
L 4525 3547 
L 5825 3547 
L 5825 3163 
L 4525 3163 
L 4525 2266 
L 2328 2266 
L 2328 3163 
L 1278 3163 
L 1278 2747 
Q 1278 1434 1131 775 
Q 1006 203 606 -441 
L 269 -50 
Q 653 541 763 1381 
Q 825 1869 825 2747 
L 825 4622 
L 3034 4622 
L 3034 5313 
L 3516 5313 
L 3516 4622 
z
M 2759 3163 
L 2759 2619 
L 4097 2619 
L 4097 3163 
L 2759 3163 
z
M 3609 263 
Q 2784 -231 1472 -494 
L 1222 -97 
Q 2444 63 3213 491 
Q 2544 909 2119 1522 
L 1575 1522 
L 1575 1900 
L 4897 1900 
L 5125 1700 
Q 4628 994 3994 516 
Q 4769 200 5925 56 
L 5638 -397 
Q 4434 -163 3609 263 
z
M 2606 1522 
Q 2984 1044 3578 716 
Q 4163 1119 4422 1522 
L 2606 1522 
z
" transform="scale(0.015625)"/>
      <path id="IPAexGothic-6570" d="M 2847 1553 
Q 2741 1006 2425 534 
Q 2625 441 3091 203 
L 2809 -188 
Q 2541 0 2144 209 
Q 1569 -291 703 -500 
L 422 -125 
Q 1263 19 1747 406 
Q 1222 650 734 816 
Q 975 1172 1147 1503 
L 1172 1553 
L 359 1553 
L 359 1925 
L 1344 1925 
Q 1406 2066 1569 2475 
L 1691 2450 
L 1691 3372 
Q 1250 2738 550 2303 
L 275 2663 
Q 1019 3013 1528 3641 
L 378 3641 
L 378 4006 
L 1691 4006 
L 1691 5313 
L 2113 5313 
L 2113 4006 
L 3297 4006 
L 3297 3641 
L 2113 3641 
L 2113 3513 
Q 2659 3291 3175 2963 
L 2956 2584 
Q 2553 2922 2113 3159 
L 2113 2372 
L 1966 2372 
Q 1928 2288 1872 2141 
Q 1806 1975 1784 1925 
L 3378 1925 
L 3378 1553 
L 2847 1553 
z
M 2419 1553 
L 1613 1553 
Q 1478 1269 1313 997 
Q 1559 909 2047 703 
Q 2313 1047 2419 1553 
z
M 4363 1163 
Q 3953 1781 3738 2638 
Q 3575 2281 3428 2016 
L 3103 2406 
Q 3675 3444 3916 5291 
L 4363 5200 
Q 4284 4666 4197 4197 
L 6009 4197 
L 6009 3775 
L 5503 3775 
Q 5397 2275 4869 1191 
Q 5419 503 6144 75 
L 5822 -378 
Q 5188 106 4631 788 
Q 4113 34 3341 -463 
L 3031 -78 
Q 3888 406 4363 1163 
z
M 4588 1594 
Q 4938 2388 5059 3775 
L 4100 3775 
Q 4041 3519 3972 3288 
Q 3981 3250 3991 3194 
Q 4175 2256 4588 1594 
z
M 1003 4116 
Q 878 4544 638 4934 
L 1053 5094 
Q 1247 4788 1438 4269 
L 1003 4116 
z
M 2316 4269 
Q 2550 4688 2688 5131 
L 3128 4997 
Q 2966 4588 2675 4128 
L 2316 4269 
z
" transform="scale(0.015625)"/>
      <path id="IPAexGothic-3092" d="M 1094 4263 
Q 1544 4222 2359 4222 
Q 2581 4734 2700 5163 
L 3175 5028 
Q 2997 4538 2859 4256 
Q 3516 4284 4294 4459 
L 4356 4019 
Q 3603 3869 2656 3819 
Q 2391 3284 2059 2797 
Q 2531 3200 2963 3200 
Q 3638 3200 3859 2378 
Q 4556 2681 5338 2950 
L 5575 2528 
Q 4641 2253 3941 1956 
Q 3981 1678 3994 1028 
L 3513 991 
Q 3513 1456 3494 1753 
Q 2388 1194 2388 716 
Q 2388 428 2753 328 
Q 3066 241 3806 241 
Q 4394 241 5178 344 
L 5216 -128 
Q 4434 -213 3653 -213 
Q 2656 -213 2244 41 
Q 1913 244 1913 631 
Q 1913 1094 2344 1497 
Q 2709 1841 3428 2181 
Q 3266 2797 2878 2797 
Q 2238 2797 1209 1419 
L 838 1694 
Q 1625 2716 2163 3800 
Q 1522 3800 1088 3825 
L 1094 4263 
z
" transform="scale(0.015625)"/>
      <path id="IPAexGothic-6bd4" d="M 1525 3250 
L 3003 3250 
L 3003 2822 
L 1525 2822 
L 1525 472 
Q 2469 747 3016 934 
L 3041 531 
Q 1813 59 459 -300 
L 294 159 
Q 694 250 1056 344 
L 1056 5081 
L 1525 5081 
L 1525 3250 
z
M 3794 3028 
Q 4691 3472 5341 4038 
L 5744 3706 
Q 4778 2969 3794 2572 
L 3794 556 
Q 3794 353 3978 313 
Q 4106 288 4472 288 
Q 5169 288 5328 378 
Q 5491 463 5522 1516 
L 5994 1356 
Q 5966 238 5772 34 
Q 5566 -172 4491 -172 
Q 3809 -172 3588 -75 
Q 3334 28 3334 397 
L 3334 5113 
L 3794 5113 
L 3794 3028 
z
" transform="scale(0.015625)"/>
      <path id="IPAexGothic-8f03" d="M 1413 3688 
L 1413 4153 
L 384 4153 
L 384 4538 
L 1413 4538 
L 1413 5313 
L 1816 5313 
L 1816 4538 
L 2875 4538 
L 2875 4153 
L 1816 4153 
L 1816 3688 
L 2734 3688 
L 2734 1516 
L 1816 1516 
L 1816 1013 
L 2931 1013 
L 2931 628 
L 1816 628 
L 1816 -447 
L 1413 -447 
L 1413 628 
L 294 628 
L 294 1013 
L 1413 1013 
L 1413 1516 
L 531 1516 
L 531 3688 
L 1413 3688 
z
M 1425 3353 
L 903 3353 
L 903 2778 
L 1425 2778 
L 1425 3353 
z
M 1803 3353 
L 1803 2778 
L 2363 2778 
L 2363 3353 
L 1803 3353 
z
M 1425 2456 
L 903 2456 
L 903 1856 
L 1425 1856 
L 1425 2456 
z
M 1803 2456 
L 1803 1856 
L 2363 1856 
L 2363 2456 
L 1803 2456 
z
M 4241 1013 
Q 3791 1606 3550 2338 
L 3916 2509 
Q 4091 1900 4478 1363 
Q 4825 1941 4978 2638 
L 5375 2491 
Q 5194 1719 4747 1031 
Q 5294 444 6144 44 
L 5859 -378 
Q 5069 50 4497 691 
Q 3853 -78 3050 -481 
L 2750 -128 
Q 3644 259 4241 1013 
z
M 4647 4263 
L 6059 4263 
L 6059 3853 
L 2963 3853 
L 2963 4263 
L 4206 4263 
L 4206 5313 
L 4647 5313 
L 4647 4263 
z
M 2847 2297 
Q 3406 2859 3738 3700 
L 4119 3541 
Q 3769 2644 3153 1991 
L 2847 2297 
z
M 5759 2106 
Q 5334 2863 4734 3541 
L 5075 3731 
Q 5731 3044 6097 2419 
L 5759 2106 
z
" transform="scale(0.015625)"/>
      <path id="IPAexGothic-3059" d="M 3322 5075 
L 3816 5075 
L 3816 4063 
Q 4131 4075 5756 4116 
L 5756 3669 
Q 5431 3672 3816 3653 
L 3816 2463 
Q 3956 2125 3956 1741 
Q 3956 922 3519 397 
Q 3128 -72 2309 -409 
L 1941 -31 
Q 3263 453 3488 1363 
Q 3250 1031 2809 1031 
Q 2441 1031 2150 1313 
Q 1875 1588 1875 2050 
Q 1875 2475 2166 2769 
Q 2431 3041 2822 3041 
Q 3088 3041 3322 2881 
L 3322 3641 
Q 3000 3634 609 3547 
L 609 3988 
Q 1197 4000 2106 4022 
Q 3066 4047 3322 4050 
L 3322 5075 
z
M 3372 2044 
Q 3372 2300 3194 2478 
Q 3050 2613 2869 2613 
Q 2622 2613 2463 2406 
Q 2344 2250 2344 2088 
Q 2344 1797 2484 1622 
Q 2625 1453 2859 1453 
Q 3372 1453 3372 2044 
z
" transform="scale(0.015625)"/>
      <path id="IPAexGothic-308b" d="M 4391 4397 
L 2613 2588 
Q 3225 2809 3759 2809 
Q 4263 2809 4659 2625 
Q 5391 2269 5391 1484 
Q 5391 756 4706 275 
Q 4072 -166 3053 -166 
Q 2559 -166 2247 19 
Q 1863 250 1863 666 
Q 1863 934 2069 1141 
Q 2331 1403 2741 1403 
Q 3509 1403 4019 428 
Q 4872 784 4872 1491 
Q 4872 1981 4469 2222 
Q 4166 2406 3681 2406 
Q 2425 2406 1238 1209 
L 891 1581 
Q 2438 2934 3578 4281 
Q 2594 4125 1588 4066 
L 1478 4550 
Q 2594 4581 4109 4763 
L 4391 4397 
z
M 3591 303 
Q 3244 1025 2731 1025 
Q 2553 1025 2434 934 
Q 2316 844 2316 700 
Q 2316 250 3034 250 
Q 3275 250 3591 303 
z
" transform="scale(0.015625)"/>
     </defs>
     <use xlink:href="#IPAexGothic-68d2"/>
     <use xlink:href="#IPAexGothic-30b0" x="100"/>
     <use xlink:href="#IPAexGothic-30e9" x="200"/>
     <use xlink:href="#IPAexGothic-30d5" x="300"/>
     <use xlink:href="#IPAexGothic-3067" x="400"/>
     <use xlink:href="#IPAexGothic-54c1" x="500"/>
     <use xlink:href="#IPAexGothic-7a2e" x="600"/>
     <use xlink:href="#IPAexGothic-3054" x="700"/>
     <use xlink:href="#IPAexGothic-3068" x="800"/>
     <use xlink:href="#IPAexGothic-306e" x="900"/>
     <use xlink:href="#IPAexGothic-5e73" x="1000"/>
     <use xlink:href="#IPAexGothic-5747" x="1100"/>
     <use xlink:href="#IPAexGothic-30a2" x="1200"/>
     <use xlink:href="#IPAexGothic-30eb" x="1300"/>
     <use xlink:href="#IPAexGothic-30b3" x="1400"/>
     <use xlink:href="#IPAexGothic-30fc" x="1500"/>
     <use xlink:href="#IPAexGothic-30eb" x="1600"/>
     <use xlink:href="#IPAexGothic-5ea6" x="1700"/>
     <use xlink:href="#IPAexGothic-6570" x="1800"/>
     <use xlink:href="#IPAexGothic-3092" x="1900"/>
     <use xlink:href="#IPAexGothic-6bd4" x="2000"/>
     <use xlink:href="#IPAexGothic-8f03" x="2100"/>
     <use xlink:href="#IPAexGothic-3059" x="2200"/>
     <use xlink:href="#IPAexGothic-308b" x="2300"/>
    </g>
   </g>
   <g id="text_6">
    <!-- コードはAIで生成OK -->
    <g style="fill: #7f8c8d" transform="translate(66.24 102.530625) scale(0.1 -0.1)">
     <defs>
      <path id="IPAexGothic-30c9" d="M 2247 4959 
L 2766 4959 
L 2766 3169 
Q 4050 2581 5178 1850 
L 4841 1331 
Q 3781 2138 2766 2650 
L 2766 -225 
L 2247 -225 
L 2247 4959 
z
M 5263 3847 
Q 4900 4388 4506 4716 
L 4806 4947 
Q 5191 4638 5581 4122 
L 5263 3847 
z
M 4666 3378 
Q 4375 3869 3931 4269 
L 4244 4513 
Q 4616 4206 5000 3653 
L 4666 3378 
z
" transform="scale(0.015625)"/>
      <path id="IPAexGothic-306f" d="M 4066 4875 
L 4538 4875 
L 4556 3769 
Q 5003 3816 5581 3941 
L 5619 3469 
Q 5256 3394 4563 3322 
L 4597 1441 
Q 5100 1284 5934 756 
L 5656 313 
Q 5066 772 4609 978 
Q 4609 441 4384 225 
Q 4128 -13 3634 -13 
Q 2991 -13 2669 231 
Q 2388 444 2388 831 
Q 2388 1225 2772 1484 
Q 3050 1669 3534 1669 
Q 3759 1669 4134 1594 
L 4097 3288 
Q 3697 3269 3359 3269 
Q 2925 3269 2484 3300 
L 2466 3763 
Q 2953 3716 3456 3716 
Q 3738 3716 4091 3738 
L 4066 4875 
z
M 4141 1153 
Q 3753 1259 3513 1259 
Q 2841 1259 2841 850 
Q 2841 422 3634 422 
Q 3888 422 4022 569 
Q 4141 700 4141 922 
Q 4141 1088 4141 1153 
z
M 1000 -50 
Q 794 1072 794 1931 
Q 794 3153 1247 4884 
L 1728 4763 
Q 1269 3044 1269 1900 
Q 1269 1569 1306 1106 
Q 1591 1706 1753 1997 
L 2075 1806 
Q 1484 716 1484 141 
Q 1484 72 1491 0 
L 1000 -50 
z
" transform="scale(0.015625)"/>
      <path id="IPAexGothic-49" d="M 1203 63 
L 634 63 
L 634 4634 
L 1203 4634 
L 1203 63 
z
" transform="scale(0.015625)"/>
      <path id="IPAexGothic-751f" d="M 1741 3822 
L 3022 3822 
L 3022 5250 
L 3509 5250 
L 3509 3822 
L 5628 3822 
L 5628 3406 
L 3509 3406 
L 3509 2125 
L 5366 2125 
L 5366 1709 
L 3509 1709 
L 3509 250 
L 5978 250 
L 5978 -166 
L 513 -166 
L 513 250 
L 3022 250 
L 3022 1709 
L 1263 1709 
L 1263 2125 
L 3022 2125 
L 3022 3406 
L 1563 3406 
Q 1266 2813 872 2350 
L 513 2688 
Q 1238 3519 1556 4834 
L 2022 4719 
Q 1894 4216 1741 3822 
z
" transform="scale(0.015625)"/>
      <path id="IPAexGothic-6210" d="M 4322 1650 
Q 4809 2375 5153 3309 
L 5563 3116 
Q 5159 2053 4566 1200 
Q 4881 675 5250 384 
Q 5388 275 5441 275 
Q 5544 275 5641 1119 
L 6063 875 
Q 5919 -328 5550 -328 
Q 5397 -328 5141 -150 
Q 4644 203 4250 806 
Q 3659 97 2825 -431 
L 2497 -59 
Q 3341 434 4009 1228 
Q 3491 2244 3272 3738 
L 1347 3738 
L 1347 2847 
L 2947 2847 
Q 2897 1366 2813 953 
Q 2706 453 2191 453 
Q 1900 453 1563 509 
L 1513 978 
Q 1981 888 2153 888 
Q 2350 888 2391 1100 
Q 2453 1416 2491 2463 
L 1347 2463 
L 1347 2303 
Q 1347 606 609 -438 
L 256 -78 
Q 878 772 878 2316 
L 878 4153 
L 3216 4153 
Q 3159 4672 3119 5291 
L 3594 5291 
Q 3619 4716 3681 4184 
L 5959 4184 
L 5959 3769 
L 3741 3769 
L 3759 3641 
Q 3956 2413 4322 1650 
z
M 4934 4225 
Q 4597 4656 4300 4897 
L 4659 5172 
Q 5003 4916 5319 4506 
L 4934 4225 
z
" transform="scale(0.015625)"/>
      <path id="IPAexGothic-4f" d="M 2541 4725 
Q 3456 4725 4044 4138 
Q 4709 3472 4709 2331 
Q 4709 1219 4031 550 
Q 3450 -31 2541 -31 
Q 1638 -31 1056 550 
Q 378 1219 378 2356 
Q 378 3469 1044 4138 
Q 1631 4725 2541 4725 
z
M 2541 4266 
Q 1953 4266 1531 3844 
Q 994 3303 994 2350 
Q 994 1391 1531 863 
Q 1947 447 2541 447 
Q 3131 447 3556 863 
Q 4094 1400 4094 2375 
Q 4094 3297 3550 3844 
Q 3138 4266 2541 4266 
z
" transform="scale(0.015625)"/>
      <path id="IPAexGothic-4b" d="M 4141 63 
L 3413 63 
L 1678 2347 
L 1172 1856 
L 1172 63 
L 609 63 
L 609 4634 
L 1172 4634 
L 1172 2450 
L 3200 4634 
L 3956 4634 
L 2041 2694 
L 4141 63 
z
" transform="scale(0.015625)"/>
     </defs>
     <use xlink:href="#IPAexGothic-30b3"/>
     <use xlink:href="#IPAexGothic-30fc" x="100"/>
     <use xlink:href="#IPAexGothic-30c9" x="200"/>
     <use xlink:href="#IPAexGothic-306f" x="300"/>
     <use xlink:href="#IPAexGothic-41" x="400"/>
     <use xlink:href="#IPAexGothic-49" x="463.720703"/>
     <use xlink:href="#IPAexGothic-3067" x="492.626953"/>
     <use xlink:href="#IPAexGothic-751f" x="592.626953"/>
     <use xlink:href="#IPAexGothic-6210" x="692.626953"/>
     <use xlink:href="#IPAexGothic-4f" x="792.626953"/>
     <use xlink:href="#IPAexGothic-4b" x="872.314453"/>
    </g>
   </g>
   <g id="text_7">
    <!-- 問2 -->
    <g style="fill: #ffffff" transform="translate(34.860937 135.834375) scale(0.12 -0.12)">
     <use xlink:href="#IPAexGothic-554f"/>
     <use xlink:href="#IPAexGothic-32" x="100"/>
    </g>
   </g>
   <g id="text_8">
    <!-- 相関ヒートマップを参考に2変数を選んで散布図を作る -->
    <g style="fill: #2c3e50" transform="translate(64.8 132.967812) scale(0.14 -0.14)">
     <defs>
      <path id="IPAexGothic-76f8" d="M 1388 2691 
L 1369 2631 
Q 1075 1622 556 781 
L 275 1250 
Q 1006 2284 1316 3541 
L 409 3541 
L 409 3956 
L 1388 3956 
L 1388 5300 
L 1828 5300 
L 1828 3956 
L 2725 3956 
L 2725 3541 
L 1828 3541 
L 1828 2925 
Q 2456 2400 2819 1978 
L 2550 1519 
Q 2238 1963 1828 2422 
L 1828 -447 
L 1388 -447 
L 1388 2691 
z
M 5803 4884 
L 5803 -331 
L 5369 -331 
L 5369 116 
L 3409 116 
L 3409 -331 
L 2981 -331 
L 2981 4884 
L 5803 4884 
z
M 3409 4488 
L 3409 3450 
L 5369 3450 
L 5369 4488 
L 3409 4488 
z
M 3409 3066 
L 3409 2022 
L 5369 2022 
L 5369 3066 
L 3409 3066 
z
M 3409 1638 
L 3409 506 
L 5369 506 
L 5369 1638 
L 3409 1638 
z
" transform="scale(0.015625)"/>
      <path id="IPAexGothic-95a2" d="M 2919 5063 
L 2919 3288 
L 1016 3288 
L 1016 -450 
L 569 -450 
L 569 5063 
L 2919 5063 
z
M 1016 4709 
L 1016 4331 
L 2509 4331 
L 2509 4709 
L 1016 4709 
z
M 1016 4019 
L 1016 3628 
L 2509 3628 
L 2509 4019 
L 1016 4019 
z
M 5822 5063 
L 5822 44 
Q 5822 -409 5297 -409 
Q 4956 -409 4672 -366 
L 4594 97 
Q 4841 31 5156 31 
Q 5369 31 5369 244 
L 5369 3288 
L 3422 3288 
L 3422 5063 
L 5822 5063 
z
M 3831 4709 
L 3831 4331 
L 5369 4331 
L 5369 4709 
L 3831 4709 
z
M 3831 4019 
L 3831 3628 
L 5369 3628 
L 5369 4019 
L 3831 4019 
z
M 2425 2478 
Q 2328 2713 2150 2975 
L 2559 3122 
Q 2709 2866 2859 2478 
L 3525 2478 
Q 3716 2847 3806 3147 
L 4256 3022 
Q 4084 2669 3953 2478 
L 4766 2478 
L 4766 2113 
L 3391 2113 
L 3391 1672 
L 4928 1672 
L 4928 1300 
L 3366 1300 
Q 3363 1263 3334 1141 
Q 4016 863 4734 409 
L 4428 34 
Q 3888 441 3281 763 
Q 3278 766 3241 788 
Q 3225 797 3219 800 
Q 2881 100 1875 -256 
L 1588 122 
Q 2769 409 2931 1300 
L 1466 1300 
L 1466 1672 
L 2963 1672 
L 2963 2113 
L 1625 2113 
L 1625 2478 
L 2425 2478 
z
" transform="scale(0.015625)"/>
      <path id="IPAexGothic-30d2" d="M 1375 4806 
L 1900 4806 
L 1900 2809 
Q 3572 3188 4766 3922 
L 5150 3506 
Q 3663 2716 1900 2328 
L 1900 1094 
Q 1900 775 2091 700 
Q 2288 616 3181 616 
Q 4184 616 5413 750 
L 5413 238 
Q 4275 128 3281 128 
Q 1956 128 1663 325 
Q 1375 509 1375 997 
L 1375 4806 
z
" transform="scale(0.015625)"/>
      <path id="IPAexGothic-30c8" d="M 2284 4997 
L 2803 4997 
L 2803 3206 
Q 4088 2619 5216 1888 
L 4878 1369 
Q 3819 2175 2803 2688 
L 2803 -184 
L 2284 -184 
L 2284 4997 
z
" transform="scale(0.015625)"/>
      <path id="IPAexGothic-30de" d="M 5422 4122 
L 5703 3822 
Q 4659 2491 3388 1447 
Q 3816 994 4231 500 
L 3797 122 
Q 2866 1381 1691 2322 
L 2069 2644 
Q 2481 2322 3059 1772 
Q 4163 2703 4891 3641 
L 744 3603 
L 744 4084 
L 5422 4122 
z
" transform="scale(0.015625)"/>
      <path id="IPAexGothic-30c3" d="M 1775 1984 
Q 1553 2666 1275 3175 
L 1716 3391 
Q 2034 2866 2247 2209 
L 1775 1984 
z
M 3003 2297 
Q 2813 2978 2522 3469 
L 2978 3681 
Q 3291 3166 3484 2522 
L 3003 2297 
z
M 1928 372 
Q 3094 744 3731 1569 
Q 4275 2263 4469 3525 
L 4975 3406 
Q 4734 1975 4016 1119 
Q 3406 391 2266 -44 
L 1928 372 
z
" transform="scale(0.015625)"/>
      <path id="IPAexGothic-30d7" d="M 4825 4275 
L 5125 4000 
Q 4884 2378 4081 1381 
Q 3294 413 1888 -116 
L 1522 331 
Q 4069 1113 4550 3803 
L 966 3738 
L 966 4225 
L 4825 4275 
z
M 5597 5509 
Q 5906 5509 6119 5275 
Q 6303 5075 6303 4806 
Q 6303 4494 6069 4281 
Q 5866 4097 5597 4097 
Q 5284 4097 5072 4331 
Q 4888 4534 4888 4806 
Q 4888 5116 5122 5328 
Q 5328 5509 5597 5509 
z
M 5597 5228 
Q 5409 5228 5278 5088 
Q 5169 4966 5169 4806 
Q 5169 4616 5309 4488 
Q 5434 4378 5597 4378 
Q 5784 4378 5913 4519 
Q 6022 4641 6022 4806 
Q 6022 4991 5881 5119 
Q 5759 5228 5597 5228 
z
" transform="scale(0.015625)"/>
      <path id="IPAexGothic-53c2" d="M 2600 3738 
Q 2488 3734 2131 3713 
Q 1556 3684 941 3675 
L 744 4109 
Q 1147 4116 1556 4116 
L 1759 4122 
Q 2269 4691 2663 5331 
L 3150 5166 
Q 2781 4672 2284 4134 
L 2547 4141 
Q 3547 4163 4250 4206 
L 4409 4213 
Q 4028 4509 3713 4731 
L 4091 4922 
Q 4781 4491 5509 3847 
L 5106 3591 
Q 4931 3769 4788 3894 
Q 4769 3888 4722 3888 
Q 4003 3803 3072 3759 
Q 2969 3506 2834 3278 
L 6016 3278 
L 6016 2894 
L 4313 2894 
Q 5019 2178 6150 1759 
L 5869 1363 
Q 4531 1916 3803 2894 
L 2591 2894 
Q 1850 1863 531 1203 
L 263 1563 
Q 1450 2109 2081 2894 
L 384 2894 
L 384 3278 
L 2350 3278 
Q 2503 3528 2600 3738 
z
M 1247 1441 
Q 2497 1794 3250 2606 
L 3641 2388 
Q 2816 1484 1509 1088 
L 1247 1441 
z
M 1300 744 
Q 2969 981 3994 2053 
L 4378 1831 
Q 3294 650 1544 353 
L 1300 744 
z
M 1281 -56 
Q 3681 209 4788 1497 
L 5209 1247 
Q 3934 -103 1550 -469 
L 1281 -56 
z
" transform="scale(0.015625)"/>
      <path id="IPAexGothic-8003" d="M 3613 3378 
Q 4419 4028 5169 4922 
L 5566 4672 
Q 4963 3969 4316 3438 
L 6038 3438 
L 6038 3028 
L 3803 3028 
Q 3219 2597 2738 2291 
Q 2728 2247 2719 2188 
Q 4069 2347 4969 2622 
L 5341 2213 
Q 4141 1950 2641 1822 
L 2566 1491 
L 5372 1491 
Q 5269 372 5066 -69 
Q 4891 -447 4328 -447 
Q 3728 -447 3209 -403 
L 3100 97 
Q 3744 -6 4241 -6 
Q 4566 -6 4650 231 
Q 4756 519 4841 1100 
L 2463 1100 
Q 2384 834 2284 569 
L 1863 734 
Q 2091 1375 2225 1978 
Q 1334 1463 434 1075 
L 184 1484 
Q 1713 2050 3069 2975 
L 344 2975 
L 344 3378 
L 2713 3378 
L 2713 4116 
L 1125 4116 
L 1125 4513 
L 2750 4513 
L 2750 5313 
L 3203 5313 
L 3203 4513 
L 4350 4513 
L 4350 4116 
L 3166 4116 
L 3166 3378 
L 3613 3378 
z
" transform="scale(0.015625)"/>
      <path id="IPAexGothic-306b" d="M 1088 -38 
Q 922 1003 922 2081 
Q 922 3222 1331 4794 
L 1813 4684 
Q 1391 3113 1391 2003 
Q 1391 1441 1422 1147 
Q 1434 1181 1813 2016 
L 2125 1797 
Q 1800 1081 1691 763 
Q 1581 453 1581 269 
Q 1581 78 1588 6 
L 1088 -38 
z
M 2834 4038 
Q 3969 4213 5313 4172 
L 5338 3681 
Q 3959 3728 2869 3547 
L 2834 4038 
z
M 5650 256 
Q 5044 172 4372 172 
Q 3463 172 3047 434 
Q 2784 594 2675 841 
Q 2572 1075 2572 1447 
Q 2572 1563 2578 1656 
L 3053 1684 
Q 3050 1613 3044 1528 
Q 3041 1481 3041 1466 
Q 3041 1200 3119 1053 
Q 3178 944 3309 850 
Q 3569 678 4275 678 
Q 4891 678 5588 763 
L 5650 256 
z
" transform="scale(0.015625)"/>
      <path id="IPAexGothic-5909" d="M 2147 1253 
Q 1641 822 944 563 
L 672 900 
Q 1938 1391 2556 2394 
L 2972 2231 
Q 2847 2034 2747 1900 
L 4750 1900 
L 4969 1700 
Q 4422 984 3859 563 
Q 4650 241 6094 69 
L 5825 -366 
Q 4275 -125 3431 288 
Q 2441 -272 603 -538 
L 341 -134 
Q 2103 75 2997 538 
Q 2591 791 2184 1209 
L 2147 1253 
z
M 2434 1528 
L 2422 1516 
Q 2803 1106 3425 778 
Q 3888 1078 4269 1528 
L 2434 1528 
z
M 4059 4147 
L 4059 2650 
Q 4059 2272 3663 2272 
Q 3416 2272 3047 2309 
L 2963 2725 
Q 3241 2681 3431 2681 
Q 3631 2681 3631 2872 
L 3631 4147 
L 2822 4147 
Q 2766 3291 2503 2816 
Q 2191 2259 1503 1869 
L 1172 2156 
Q 1878 2572 2144 3066 
Q 2359 3456 2388 4147 
L 403 4147 
L 403 4544 
L 2938 4544 
L 2938 5294 
L 3419 5294 
L 3419 4544 
L 6000 4544 
L 6000 4147 
L 4059 4147 
z
M 5494 2363 
Q 4828 3150 4328 3584 
L 4672 3859 
Q 5266 3369 5878 2656 
L 5494 2363 
z
M 341 2528 
Q 1025 3022 1441 3775 
L 1844 3597 
Q 1406 2781 706 2241 
L 341 2528 
z
" transform="scale(0.015625)"/>
      <path id="IPAexGothic-9078" d="M 1547 653 
Q 1763 363 2041 241 
Q 2447 63 3606 63 
Q 4566 63 6128 159 
Q 6009 -113 5981 -306 
Q 4584 -366 3838 -366 
Q 2631 -366 2097 -206 
Q 1669 -81 1388 288 
Q 1069 -100 588 -494 
L 325 -44 
Q 728 191 1119 531 
L 1119 2309 
L 331 2309 
L 331 2725 
L 1547 2725 
L 1547 653 
z
M 2463 3988 
L 2463 3616 
Q 2463 3484 2531 3456 
Q 2644 3403 2916 3403 
Q 3419 3403 3500 3513 
Q 3538 3569 3556 3859 
L 3928 3781 
Q 3900 3288 3734 3181 
Q 3631 3106 3353 3097 
L 3353 2591 
L 4313 2591 
L 4313 3116 
Q 4063 3184 4063 3438 
L 4063 4306 
L 5278 4306 
L 5278 4716 
L 3897 4716 
L 3897 5063 
L 5675 5063 
L 5675 3988 
L 4453 3988 
L 4453 3634 
Q 4453 3500 4509 3463 
Q 4603 3409 4869 3409 
Q 5063 3409 5266 3428 
Q 5447 3438 5478 3544 
Q 5506 3631 5516 3834 
L 5888 3763 
Q 5875 3347 5753 3213 
Q 5625 3084 4881 3084 
L 4784 3084 
L 4728 3084 
L 4728 2591 
L 5719 2591 
L 5719 2244 
L 4728 2244 
L 4728 1691 
L 5969 1691 
L 5969 1325 
L 1809 1325 
L 1809 1691 
L 2934 1691 
L 2934 2244 
L 2006 2244 
L 2006 2591 
L 2934 2591 
L 2934 3078 
L 2916 3078 
L 2866 3078 
Q 2316 3078 2200 3153 
Q 2072 3244 2072 3456 
L 2072 4306 
L 3281 4306 
L 3281 4716 
L 1900 4716 
L 1900 5063 
L 3678 5063 
L 3678 3988 
L 2463 3988 
z
M 4313 2244 
L 3353 2244 
L 3353 1691 
L 4313 1691 
L 4313 2244 
z
M 1344 3775 
Q 916 4341 459 4750 
L 772 5038 
Q 1272 4619 1694 4091 
L 1344 3775 
z
M 1975 550 
Q 2728 844 3256 1269 
L 3603 1013 
Q 3022 544 2291 213 
L 1975 550 
z
M 5466 238 
Q 4816 706 4147 1019 
L 4453 1306 
Q 5303 916 5816 569 
L 5466 238 
z
" transform="scale(0.015625)"/>
      <path id="IPAexGothic-3093" d="M 659 31 
Q 1684 2316 3066 4934 
L 3559 4703 
Q 2781 3375 2156 2100 
Q 2659 2572 3109 2572 
Q 3619 2572 3781 2059 
Q 3863 1803 3872 1147 
Q 3881 328 4313 328 
Q 4928 328 5466 1663 
L 5875 1288 
Q 5175 -178 4300 -178 
Q 3400 -178 3400 1069 
L 3400 1119 
Q 3400 2125 3003 2125 
Q 2153 2125 1128 -178 
L 659 31 
z
" transform="scale(0.015625)"/>
      <path id="IPAexGothic-6563" d="M 4484 1197 
Q 4041 1978 3878 2719 
Q 3700 2313 3525 2016 
L 3256 2400 
Q 3816 3469 4056 5284 
L 4491 5197 
Q 4400 4594 4313 4191 
L 5991 4191 
L 5991 3769 
L 5541 3769 
Q 5534 3750 5534 3697 
Q 5459 2300 4966 1216 
Q 5478 475 6150 56 
L 5844 -391 
Q 5250 78 4741 794 
Q 4309 53 3550 -494 
L 3256 -103 
Q 3984 309 4484 1197 
z
M 4703 1644 
Q 5019 2469 5106 3769 
L 4209 3769 
Q 4194 3688 4109 3403 
Q 4241 2519 4703 1644 
z
M 1150 4513 
L 1150 5313 
L 1572 5313 
L 1572 4513 
L 2253 4513 
L 2253 5313 
L 2669 5313 
L 2669 4513 
L 3334 4513 
L 3334 4141 
L 2669 4141 
L 2669 3450 
L 3463 3450 
L 3463 3078 
L 306 3078 
L 306 3450 
L 1150 3450 
L 1150 4141 
L 484 4141 
L 484 4513 
L 1150 4513 
z
M 2253 4141 
L 1572 4141 
L 1572 3450 
L 2253 3450 
L 2253 4141 
z
M 3019 2669 
L 3019 63 
Q 3019 -194 2909 -281 
Q 2803 -378 2488 -378 
Q 2250 -378 1944 -347 
L 1863 97 
Q 2128 31 2394 31 
Q 2609 31 2609 238 
L 2609 744 
L 1203 744 
L 1203 -447 
L 800 -447 
L 800 2669 
L 3019 2669 
z
M 1203 2303 
L 1203 1881 
L 2609 1881 
L 2609 2303 
L 1203 2303 
z
M 1203 1528 
L 1203 1097 
L 2609 1097 
L 2609 1528 
L 1203 1528 
z
" transform="scale(0.015625)"/>
      <path id="IPAexGothic-5e03" d="M 3228 2741 
L 3228 3584 
L 3688 3584 
L 3688 2741 
L 5500 2741 
L 5500 750 
Q 5500 475 5353 369 
Q 5228 272 4900 272 
Q 4625 272 4269 291 
L 4188 775 
Q 4600 713 4834 713 
Q 5047 713 5047 956 
L 5047 2325 
L 3688 2325 
L 3688 -447 
L 3228 -447 
L 3228 2325 
L 2056 2325 
L 2056 91 
L 1603 91 
L 1603 2228 
Q 1159 1747 622 1313 
L 303 1691 
Q 1544 2625 2144 3847 
L 516 3847 
L 516 4275 
L 2338 4275 
Q 2506 4684 2656 5228 
L 3150 5153 
Q 2988 4581 2856 4275 
L 5984 4275 
L 5984 3847 
L 2669 3847 
Q 2369 3231 2009 2741 
L 3228 2741 
z
" transform="scale(0.015625)"/>
      <path id="IPAexGothic-56f3" d="M 3375 1428 
Q 2606 747 1625 447 
L 1356 831 
Q 2297 1091 2966 1631 
L 2791 1709 
Q 2138 2022 1338 2328 
L 1575 2669 
Q 2356 2375 3297 1941 
Q 4069 2759 4422 4178 
L 4853 4013 
Q 4456 2588 3694 1747 
Q 4313 1434 5000 1050 
L 4706 666 
Q 4113 1041 3431 1394 
L 3375 1428 
z
M 2131 2681 
Q 1897 3466 1625 3903 
L 2038 4084 
Q 2331 3563 2559 2869 
L 2131 2681 
z
M 3169 2834 
Q 2934 3603 2663 4056 
L 3059 4225 
Q 3366 3728 3597 3022 
L 3169 2834 
z
M 5769 4984 
L 5769 -447 
L 5300 -447 
L 5300 -128 
L 1097 -128 
L 1097 -447 
L 628 -447 
L 628 4984 
L 5769 4984 
z
M 1097 4575 
L 1097 275 
L 5300 275 
L 5300 4575 
L 1097 4575 
z
" transform="scale(0.015625)"/>
      <path id="IPAexGothic-4f5c" d="M 3609 3834 
L 3231 3834 
Q 2869 2822 2297 2038 
L 1963 2381 
Q 2797 3513 3153 5275 
L 3616 5184 
Q 3506 4656 3378 4256 
L 5984 4256 
L 5984 3834 
L 4078 3834 
L 4078 2906 
L 5678 2906 
L 5678 2484 
L 4078 2484 
L 4078 1563 
L 5775 1563 
L 5775 1147 
L 4078 1147 
L 4078 -447 
L 3609 -447 
L 3609 3834 
z
M 1734 3725 
L 1734 -447 
L 1275 -447 
L 1275 2797 
L 1250 2747 
Q 984 2284 647 1850 
L 372 2234 
Q 1309 3481 1747 5203 
L 2219 5081 
Q 2028 4406 1734 3725 
z
" transform="scale(0.015625)"/>
     </defs>
     <use xlink:href="#IPAexGothic-76f8"/>
     <use xlink:href="#IPAexGothic-95a2" x="100"/>
     <use xlink:href="#IPAexGothic-30d2" x="200"/>
     <use xlink:href="#IPAexGothic-30fc" x="300"/>
     <use xlink:href="#IPAexGothic-30c8" x="400"/>
     <use xlink:href="#IPAexGothic-30de" x="500"/>
     <use xlink:href="#IPAexGothic-30c3" x="600"/>
     <use xlink:href="#IPAexGothic-30d7" x="700"/>
     <use xlink:href="#IPAexGothic-3092" x="800"/>
     <use xlink:href="#IPAexGothic-53c2" x="900"/>
     <use xlink:href="#IPAexGothic-8003" x="1000"/>
     <use xlink:href="#IPAexGothic-306b" x="1100"/>
     <use xlink:href="#IPAexGothic-32" x="1200"/>
     <use xlink:href="#IPAexGothic-5909" x="1262.988281"/>
     <use xlink:href="#IPAexGothic-6570" x="1362.988281"/>
     <use xlink:href="#IPAexGothic-3092" x="1462.988281"/>
     <use xlink:href="#IPAexGothic-9078" x="1562.988281"/>
     <use xlink:href="#IPAexGothic-3093" x="1662.988281"/>
     <use xlink:href="#IPAexGothic-3067" x="1762.988281"/>
     <use xlink:href="#IPAexGothic-6563" x="1862.988281"/>
     <use xlink:href="#IPAexGothic-5e03" x="1962.988281"/>
     <use xlink:href="#IPAexGothic-56f3" x="2062.988281"/>
     <use xlink:href="#IPAexGothic-3092" x="2162.988281"/>
     <use xlink:href="#IPAexGothic-4f5c" x="2262.988281"/>
     <use xlink:href="#IPAexGothic-308b" x="2362.988281"/>
    </g>
   </g>
   <g id="text_9">
    <!-- 「なぜその変数を選んだか」を必ず記録する -->
    <g style="fill: #7f8c8d" transform="translate(66.24 144.36875) scale(0.1 -0.1)">
     <defs>
      <path id="IPAexGothic-300c" d="M 4134 5300 
L 5875 5300 
L 5875 4853 
L 4581 4853 
L 4581 656 
L 4134 656 
L 4134 5300 
z
" transform="scale(0.015625)"/>
      <path id="IPAexGothic-306a" d="M 3906 3147 
L 4372 3147 
Q 4381 2278 4444 1272 
Q 5244 1003 5838 631 
L 5556 222 
Q 4953 600 4463 813 
Q 4478 263 4234 22 
Q 3984 -225 3419 -225 
Q 2897 -225 2563 0 
Q 2216 231 2216 647 
Q 2216 1081 2656 1319 
Q 2959 1484 3297 1484 
Q 3638 1484 3969 1413 
Q 3916 2219 3906 3147 
z
M 3975 984 
Q 3631 1081 3297 1081 
Q 3031 1081 2856 978 
Q 2663 863 2663 653 
Q 2663 197 3400 197 
Q 3750 197 3875 378 
Q 3997 556 3975 984 
z
M 738 3928 
Q 1453 3884 1997 3938 
Q 2144 4381 2294 5125 
L 2784 5050 
Q 2684 4559 2516 3988 
Q 2969 4031 3559 4172 
L 3578 3713 
Q 2919 3575 2375 3531 
Q 1853 2028 1044 831 
L 603 1113 
Q 1325 2063 1856 3488 
Q 1063 3459 763 3475 
L 738 3928 
z
M 5538 2759 
Q 5000 3353 4263 3853 
L 4591 4191 
Q 5338 3728 5897 3128 
L 5538 2759 
z
" transform="scale(0.015625)"/>
      <path id="IPAexGothic-305c" d="M 3978 4897 
L 4466 4897 
L 4466 3450 
L 5847 3513 
L 5866 3091 
L 4466 3028 
L 4466 1838 
Q 4466 1338 3959 1338 
Q 3528 1338 3134 1491 
L 3134 1972 
Q 3541 1791 3781 1791 
Q 3978 1791 3978 2003 
L 3978 3003 
L 2156 2919 
L 2156 1019 
Q 2156 588 2516 500 
Q 2750 438 3575 438 
Q 4350 438 5138 519 
L 5156 19 
Q 4366 -44 3606 -44 
Q 2422 -44 2047 147 
Q 1663 350 1663 884 
L 1663 2894 
L 453 2834 
L 434 3263 
L 1663 3322 
L 1663 4581 
L 2156 4581 
L 2156 3341 
L 3978 3431 
L 3978 4897 
z
M 5259 3928 
Q 5041 4466 4775 4878 
L 5131 5075 
Q 5431 4616 5644 4141 
L 5259 3928 
z
M 5913 4281 
Q 5691 4778 5400 5184 
L 5741 5369 
Q 6053 4997 6272 4494 
L 5913 4281 
z
" transform="scale(0.015625)"/>
      <path id="IPAexGothic-305d" d="M 1503 4575 
Q 2897 4641 4378 4813 
L 4641 4488 
Q 3566 3469 2738 2809 
Q 4478 3072 5516 3200 
L 5581 2741 
Q 4425 2644 3884 2394 
Q 2978 1972 2978 1131 
Q 2978 659 3506 450 
Q 3953 272 4819 269 
L 4838 -250 
Q 3725 -241 3200 44 
Q 2497 431 2497 1113 
Q 2497 1916 3403 2534 
Q 1234 2188 781 2106 
L 691 2559 
Q 809 2575 2072 2747 
Q 3203 3694 3872 4378 
Q 2759 4184 1606 4091 
L 1503 4575 
z
" transform="scale(0.015625)"/>
      <path id="IPAexGothic-3060" d="M 684 3963 
Q 1138 3922 1556 3922 
Q 1800 3922 2106 3944 
Q 2266 4563 2369 5081 
L 2875 4991 
Q 2806 4700 2619 3981 
Q 3209 4050 3656 4159 
L 3688 3688 
Q 3109 3581 2497 3531 
Q 1822 1263 1153 -78 
L 653 141 
Q 1406 1469 1991 3500 
Q 1641 3481 1256 3481 
Q 1109 3481 697 3494 
L 684 3963 
z
M 5753 44 
Q 5053 -44 4597 -44 
Q 3619 -44 3206 303 
Q 2866 594 2766 1191 
L 3213 1356 
Q 3247 1038 3347 869 
Q 3425 741 3578 641 
Q 3866 450 4556 450 
Q 5009 450 5728 544 
L 5753 44 
z
M 3144 2828 
Q 4216 3113 5409 3041 
L 5381 2566 
L 5356 2566 
Q 4263 2631 3194 2388 
L 3144 2828 
z
M 5569 4103 
Q 5206 4644 4813 4972 
L 5113 5203 
Q 5497 4894 5888 4378 
L 5569 4103 
z
M 4972 3634 
Q 4684 4125 4238 4525 
L 4550 4769 
Q 4922 4459 5306 3909 
L 4972 3634 
z
" transform="scale(0.015625)"/>
      <path id="IPAexGothic-304b" d="M 659 3384 
Q 1434 3503 2113 3581 
Q 2313 4341 2394 4972 
L 2900 4875 
Q 2759 4147 2619 3628 
L 2719 3634 
Q 2894 3641 3041 3641 
Q 4072 3641 4072 2369 
Q 4072 1128 3700 384 
Q 3478 -56 3003 -56 
Q 2591 -56 2113 231 
L 2138 775 
Q 2631 444 2925 444 
Q 3169 444 3297 706 
Q 3566 1294 3566 2388 
Q 3566 3219 3016 3219 
Q 2825 3219 2497 3194 
Q 2388 2763 2113 2047 
Q 1634 797 1119 -38 
L 678 244 
Q 1356 1238 1863 2750 
Q 1888 2819 1991 3128 
Q 1594 3081 769 2916 
L 659 3384 
z
M 5644 1753 
Q 5072 3025 4238 3916 
L 4641 4184 
Q 5494 3275 6081 2094 
L 5644 1753 
z
" transform="scale(0.015625)"/>
      <path id="IPAexGothic-300d" d="M 1819 4209 
L 2266 4209 
L 2266 -434 
L 525 -434 
L 525 13 
L 1819 13 
L 1819 4209 
z
" transform="scale(0.015625)"/>
      <path id="IPAexGothic-5fc5" d="M 1984 922 
L 1984 3769 
L 2459 3769 
L 2459 1344 
Q 4031 2828 4719 4825 
L 5172 4634 
Q 4263 2306 2459 722 
L 2459 569 
Q 2459 316 2631 266 
Q 2775 222 3363 222 
Q 4100 222 4272 313 
Q 4463 419 4481 1459 
L 4969 1325 
Q 4919 244 4738 13 
Q 4547 -238 3406 -238 
Q 2456 -238 2234 -134 
Q 1994 -28 1984 341 
Q 1409 -97 709 -469 
L 403 -78 
Q 1197 284 1906 863 
L 1984 922 
z
M 3397 3700 
Q 2672 4338 1931 4722 
L 2241 5100 
Q 2972 4713 3731 4116 
L 3397 3700 
z
M 403 1106 
Q 788 1972 934 3263 
L 1416 3166 
Q 1244 1781 844 838 
L 403 1106 
z
M 5678 941 
Q 5266 2097 4781 2894 
L 5184 3097 
Q 5725 2294 6131 1216 
L 5678 941 
z
" transform="scale(0.015625)"/>
      <path id="IPAexGothic-305a" d="M 4922 4269 
Q 4694 4781 4391 5125 
L 4744 5325 
Q 5059 4928 5288 4494 
L 4922 4269 
z
M 5703 4441 
Q 5463 4934 5141 5306 
L 5481 5522 
Q 5781 5172 6056 4691 
L 5703 4441 
z
M 3322 5075 
L 3816 5075 
L 3816 4063 
Q 4131 4075 5756 4116 
L 5756 3669 
Q 5431 3672 3816 3653 
L 3816 2463 
Q 3956 2125 3956 1741 
Q 3956 922 3519 397 
Q 3128 -72 2309 -409 
L 1941 -31 
Q 3263 453 3488 1363 
Q 3250 1031 2809 1031 
Q 2441 1031 2150 1313 
Q 1875 1588 1875 2050 
Q 1875 2475 2166 2769 
Q 2431 3041 2822 3041 
Q 3088 3041 3322 2881 
L 3322 3641 
Q 3000 3634 609 3547 
L 609 3988 
Q 1197 4000 2106 4022 
Q 3066 4047 3322 4050 
L 3322 5075 
z
M 3372 2044 
Q 3372 2300 3194 2478 
Q 3050 2613 2869 2613 
Q 2622 2613 2463 2406 
Q 2344 2250 2344 2088 
Q 2344 1797 2484 1622 
Q 2625 1453 2859 1453 
Q 3372 1453 3372 2044 
z
" transform="scale(0.015625)"/>
      <path id="IPAexGothic-8a18" d="M 3603 2425 
L 3603 506 
Q 3603 284 3719 238 
Q 3853 188 4444 188 
Q 5363 188 5463 372 
Q 5553 550 5566 1319 
L 6038 1191 
Q 5991 188 5838 -31 
Q 5709 -200 5444 -238 
Q 5094 -288 4469 -288 
Q 3666 -288 3444 -209 
Q 3150 -106 3150 306 
L 3150 2834 
L 5200 2834 
L 5200 4372 
L 2919 4372 
L 2919 4781 
L 5641 4781 
L 5641 2078 
L 5200 2078 
L 5200 2425 
L 3603 2425 
z
M 2566 1684 
L 2566 -128 
L 991 -128 
L 991 -447 
L 563 -447 
L 563 1684 
L 2566 1684 
z
M 991 1313 
L 991 244 
L 2138 244 
L 2138 1313 
L 991 1313 
z
M 672 5044 
L 2459 5044 
L 2459 4659 
L 672 4659 
L 672 5044 
z
M 366 4206 
L 2734 4206 
L 2734 3816 
L 366 3816 
L 366 4206 
z
M 672 3359 
L 2459 3359 
L 2459 2975 
L 672 2975 
L 672 3359 
z
M 672 2522 
L 2459 2522 
L 2459 2138 
L 672 2138 
L 672 2522 
z
" transform="scale(0.015625)"/>
      <path id="IPAexGothic-9332" d="M 2706 500 
L 2759 525 
Q 3331 825 3944 1369 
L 4063 991 
Q 3641 569 2859 72 
L 2681 428 
Q 1697 -9 481 -378 
L 294 44 
Q 822 178 1422 366 
L 1422 2138 
L 409 2138 
L 409 2522 
L 1422 2522 
L 1422 3181 
L 794 3181 
Q 691 3056 475 2816 
L 256 3194 
Q 1047 4072 1478 5325 
L 1900 5222 
Q 1894 5209 1859 5116 
Q 1834 5056 1819 5013 
Q 2475 4491 2950 3925 
L 2663 3516 
Q 2206 4138 1716 4609 
L 1663 4653 
Q 1344 3963 1075 3566 
L 2503 3566 
L 2503 3181 
L 1838 3181 
L 1838 2522 
L 2700 2522 
L 2700 2138 
L 1838 2138 
L 1838 506 
Q 2125 606 2675 838 
L 2706 500 
z
M 4609 2706 
Q 4753 2106 4953 1716 
Q 5263 1997 5631 2494 
L 6003 2194 
Q 5622 1775 5141 1381 
Q 5513 809 6163 331 
L 5825 -31 
Q 5000 631 4597 1753 
L 4597 6 
Q 4597 -416 4128 -416 
Q 3909 -416 3534 -384 
L 3450 72 
Q 3706 6 4013 6 
Q 4181 6 4181 184 
L 4181 2706 
L 2697 2706 
L 2697 3091 
L 4878 3091 
L 4878 3706 
L 3150 3706 
L 3150 4078 
L 4878 4078 
L 4878 4672 
L 2978 4672 
L 2978 5050 
L 5300 5050 
L 5300 3091 
L 6094 3091 
L 6094 2706 
L 4609 2706 
z
M 775 544 
Q 672 1153 472 1722 
L 875 1838 
Q 1069 1259 1178 672 
L 775 544 
z
M 1991 903 
Q 2194 1388 2328 1966 
L 2750 1838 
Q 2569 1241 2341 813 
L 1991 903 
z
M 3641 1350 
Q 3322 1831 2944 2169 
L 3250 2425 
Q 3644 2078 3969 1656 
L 3641 1350 
z
" transform="scale(0.015625)"/>
     </defs>
     <use xlink:href="#IPAexGothic-300c"/>
     <use xlink:href="#IPAexGothic-306a" x="100"/>
     <use xlink:href="#IPAexGothic-305c" x="200"/>
     <use xlink:href="#IPAexGothic-305d" x="300"/>
     <use xlink:href="#IPAexGothic-306e" x="400"/>
     <use xlink:href="#IPAexGothic-5909" x="500"/>
     <use xlink:href="#IPAexGothic-6570" x="600"/>
     <use xlink:href="#IPAexGothic-3092" x="700"/>
     <use xlink:href="#IPAexGothic-9078" x="800"/>
     <use xlink:href="#IPAexGothic-3093" x="900"/>
     <use xlink:href="#IPAexGothic-3060" x="1000"/>
     <use xlink:href="#IPAexGothic-304b" x="1100"/>
     <use xlink:href="#IPAexGothic-300d" x="1200"/>
     <use xlink:href="#IPAexGothic-3092" x="1300"/>
     <use xlink:href="#IPAexGothic-5fc5" x="1400"/>
     <use xlink:href="#IPAexGothic-305a" x="1500"/>
     <use xlink:href="#IPAexGothic-8a18" x="1600"/>
     <use xlink:href="#IPAexGothic-9332" x="1700"/>
     <use xlink:href="#IPAexGothic-3059" x="1800"/>
     <use xlink:href="#IPAexGothic-308b" x="1900"/>
    </g>
   </g>
   <g id="text_10">
    <!-- 問3 -->
    <g style="fill: #ffffff" transform="translate(34.860937 177.594375) scale(0.12 -0.12)">
     <defs>
      <path id="IPAexGothic-33" d="M 2381 2419 
Q 3506 2216 3506 1278 
Q 3506 716 3128 356 
Q 2709 -31 1944 -31 
Q 797 -31 288 881 
L 756 1131 
Q 1109 441 1938 441 
Q 2425 441 2694 691 
Q 2950 928 2950 1291 
Q 2950 1719 2566 1978 
Q 2216 2213 1644 2213 
L 1363 2213 
L 1363 2669 
L 1656 2669 
Q 2231 2669 2534 2888 
Q 2859 3119 2859 3509 
Q 2859 3934 2494 4138 
Q 2259 4278 1931 4278 
Q 1238 4278 903 3578 
L 434 3803 
Q 897 4725 1938 4725 
Q 2597 4725 3006 4394 
Q 3416 4069 3416 3534 
Q 3416 3028 3019 2706 
Q 2763 2500 2381 2444 
L 2381 2419 
z
" transform="scale(0.015625)"/>
     </defs>
     <use xlink:href="#IPAexGothic-554f"/>
     <use xlink:href="#IPAexGothic-33" x="100"/>
    </g>
   </g>
   <g id="text_11">
    <!-- グラフから「仮説」を1つ言語化する -->
    <g style="fill: #2c3e50" transform="translate(64.8 174.646875) scale(0.14 -0.14)">
     <defs>
      <path id="IPAexGothic-3089" d="M 3700 3928 
Q 2897 4478 2156 4750 
L 2381 5166 
Q 3147 4891 3956 4384 
L 3700 3928 
z
M 1344 1281 
Q 1450 2544 1747 4038 
L 2234 3928 
Q 1994 2856 1888 1844 
Q 2897 2688 3963 2688 
Q 4531 2688 4909 2450 
Q 5441 2122 5441 1516 
Q 5441 669 4569 213 
Q 3856 -169 2584 -238 
L 2363 250 
Q 3484 250 4213 588 
Q 4909 922 4909 1509 
Q 4909 1856 4647 2059 
Q 4366 2266 3897 2266 
Q 2853 2266 1766 1141 
L 1344 1281 
z
" transform="scale(0.015625)"/>
      <path id="IPAexGothic-4eee" d="M 1644 3675 
L 1644 -447 
L 1175 -447 
L 1175 2747 
Q 925 2322 578 1863 
L 313 2253 
Q 1244 3463 1656 5178 
L 2131 5069 
Q 1919 4306 1644 3675 
z
M 2969 4481 
L 2969 3353 
L 5331 3353 
L 5600 3116 
Q 5275 1909 4722 1075 
Q 5275 494 6034 38 
L 5697 -384 
Q 4994 88 4434 684 
Q 3916 34 3091 -481 
L 2766 -72 
Q 3616 353 4141 1044 
Q 3463 1928 3194 2944 
L 2969 2944 
Q 2959 1709 2841 1056 
Q 2694 234 2216 -475 
L 1844 -134 
Q 2316 481 2438 1428 
Q 2516 2013 2516 2919 
L 2516 4897 
L 5869 4897 
L 5869 4481 
L 2969 4481 
z
M 4422 1441 
Q 4828 2069 5050 2944 
L 3647 2944 
Q 3863 2184 4422 1441 
z
" transform="scale(0.015625)"/>
      <path id="IPAexGothic-8aac" d="M 3541 1947 
L 2900 1947 
L 2900 3859 
L 4406 3859 
Q 4741 4516 4969 5241 
L 5438 5063 
Q 5166 4434 4847 3859 
L 5756 3859 
L 5756 1947 
L 4956 1947 
L 4956 281 
Q 4956 94 5213 94 
Q 5553 94 5603 241 
Q 5656 431 5666 1000 
L 6109 838 
Q 6100 9 5947 -181 
Q 5794 -353 5244 -353 
Q 4884 -353 4734 -303 
Q 4516 -225 4516 91 
L 4516 1947 
L 3981 1947 
Q 3981 1219 3816 709 
Q 3594 25 2875 -453 
L 2534 -116 
Q 3200 275 3406 897 
Q 3541 1291 3541 1934 
L 3541 1947 
z
M 5322 2338 
L 5322 3463 
L 3334 3463 
L 3334 2338 
L 5322 2338 
z
M 2394 1684 
L 2394 -128 
L 959 -128 
L 959 -447 
L 538 -447 
L 538 1684 
L 2394 1684 
z
M 959 1313 
L 959 244 
L 1978 244 
L 1978 1313 
L 959 1313 
z
M 634 5044 
L 2306 5044 
L 2306 4659 
L 634 4659 
L 634 5044 
z
M 353 4206 
L 2631 4206 
L 2631 3816 
L 353 3816 
L 353 4206 
z
M 634 3359 
L 2306 3359 
L 2306 2975 
L 634 2975 
L 634 3359 
z
M 634 2522 
L 2306 2522 
L 2306 2138 
L 634 2138 
L 634 2522 
z
M 3578 3988 
Q 3347 4569 3084 4966 
L 3481 5166 
Q 3769 4747 4000 4191 
L 3578 3988 
z
" transform="scale(0.015625)"/>
      <path id="IPAexGothic-3064" d="M 575 3541 
Q 2694 4116 3769 4116 
Q 4506 4116 4978 3750 
Q 5559 3303 5559 2497 
Q 5559 1481 4606 903 
Q 3750 388 2213 281 
L 1963 781 
Q 5022 916 5022 2497 
Q 5022 3053 4663 3375 
Q 4331 3669 3734 3669 
Q 2663 3669 800 3041 
L 575 3541 
z
" transform="scale(0.015625)"/>
      <path id="IPAexGothic-8a00" d="M 5272 1619 
L 5272 -447 
L 4797 -447 
L 4797 -116 
L 1594 -116 
L 1594 -447 
L 1119 -447 
L 1119 1619 
L 5272 1619 
z
M 1594 1234 
L 1594 269 
L 4797 269 
L 4797 1234 
L 1594 1234 
z
M 1344 4978 
L 5050 4978 
L 5050 4588 
L 1344 4588 
L 1344 4978 
z
M 447 4147 
L 5950 4147 
L 5950 3738 
L 447 3738 
L 447 4147 
z
M 1344 3297 
L 5050 3297 
L 5050 2900 
L 1344 2900 
L 1344 3297 
z
M 1344 2456 
L 5050 2456 
L 5050 2059 
L 1344 2059 
L 1344 2456 
z
" transform="scale(0.015625)"/>
      <path id="IPAexGothic-8a9e" d="M 2388 1684 
L 2388 -128 
L 959 -128 
L 959 -447 
L 538 -447 
L 538 1684 
L 2388 1684 
z
M 959 1313 
L 959 244 
L 1966 244 
L 1966 1313 
L 959 1313 
z
M 4306 4659 
Q 4244 4128 4206 3903 
L 5459 3903 
L 5459 2606 
L 6106 2606 
L 6106 2222 
L 2541 2222 
L 2541 2606 
L 3522 2606 
Q 3528 2641 3688 3416 
L 3706 3531 
L 2881 3531 
L 2881 3903 
L 3769 3903 
Q 3775 3916 3775 3947 
Q 3831 4259 3884 4659 
L 2753 4659 
L 2753 5044 
L 5791 5044 
L 5791 4659 
L 4306 4659 
z
M 5044 3531 
L 4141 3531 
Q 4013 2834 3963 2606 
L 5044 2606 
L 5044 3531 
z
M 5606 1625 
L 5606 -447 
L 5178 -447 
L 5178 -134 
L 3419 -134 
L 3419 -453 
L 2991 -453 
L 2991 1625 
L 5606 1625 
z
M 3419 1253 
L 3419 238 
L 5178 238 
L 5178 1253 
L 3419 1253 
z
M 634 5044 
L 2294 5044 
L 2294 4659 
L 634 4659 
L 634 5044 
z
M 347 4206 
L 2550 4206 
L 2550 3816 
L 347 3816 
L 347 4206 
z
M 634 3359 
L 2294 3359 
L 2294 2975 
L 634 2975 
L 634 3359 
z
M 634 2522 
L 2294 2522 
L 2294 2138 
L 634 2138 
L 634 2522 
z
" transform="scale(0.015625)"/>
     </defs>
     <use xlink:href="#IPAexGothic-30b0"/>
     <use xlink:href="#IPAexGothic-30e9" x="100"/>
     <use xlink:href="#IPAexGothic-30d5" x="200"/>
     <use xlink:href="#IPAexGothic-304b" x="300"/>
     <use xlink:href="#IPAexGothic-3089" x="400"/>
     <use xlink:href="#IPAexGothic-300c" x="500"/>
     <use xlink:href="#IPAexGothic-4eee" x="600"/>
     <use xlink:href="#IPAexGothic-8aac" x="700"/>
     <use xlink:href="#IPAexGothic-300d" x="800"/>
     <use xlink:href="#IPAexGothic-3092" x="900"/>
     <use xlink:href="#IPAexGothic-31" x="1000"/>
     <use xlink:href="#IPAexGothic-3064" x="1062.988281"/>
     <use xlink:href="#IPAexGothic-8a00" x="1162.988281"/>
     <use xlink:href="#IPAexGothic-8a9e" x="1262.988281"/>
     <use xlink:href="#IPAexGothic-5316" x="1362.988281"/>
     <use xlink:href="#IPAexGothic-3059" x="1462.988281"/>
     <use xlink:href="#IPAexGothic-308b" x="1562.988281"/>
    </g>
   </g>
   <g id="text_12">
    <!-- 「〇〇という特徴量が △△ という理由から品種の分類に効くと思う」 -->
    <g style="fill: #7f8c8d" transform="translate(66.24 186.050625) scale(0.1 -0.1)">
     <defs>
      <path id="IPAexGothic-3007" d="M 3206 5088 
Q 3928 5088 4550 4703 
Q 5113 4366 5447 3822 
Q 5856 3184 5856 2434 
Q 5856 1716 5472 1084 
Q 5131 522 4588 188 
Q 3950 -222 3194 -222 
Q 2484 -222 1850 163 
Q 1288 500 953 1044 
Q 544 1681 544 2441 
Q 544 3719 1613 4538 
Q 2338 5088 3206 5088 
z
M 3188 4641 
Q 2541 4641 1972 4263 
Q 991 3609 991 2425 
Q 991 1753 1381 1191 
Q 2041 225 3206 225 
Q 3859 225 4428 603 
Q 5409 1266 5409 2441 
Q 5409 2922 5178 3394 
Q 4725 4313 3756 4569 
Q 3466 4641 3188 4641 
z
" transform="scale(0.015625)"/>
      <path id="IPAexGothic-3044" d="M 3369 1447 
Q 2906 122 2278 122 
Q 1966 122 1647 481 
Q 1209 966 1044 1966 
Q 891 2888 891 4313 
L 1422 4313 
Q 1413 2444 1666 1550 
Q 1913 678 2278 678 
Q 2619 678 2925 1791 
L 3369 1447 
z
M 5378 1294 
Q 4928 2797 4034 3809 
L 4488 4031 
Q 5375 3000 5881 1563 
L 5378 1294 
z
" transform="scale(0.015625)"/>
      <path id="IPAexGothic-3046" d="M 3897 4025 
Q 3203 4456 2144 4728 
L 2381 5166 
Q 3353 4928 4166 4481 
L 3897 4025 
z
M 1172 3050 
Q 2872 3628 3566 3628 
Q 4269 3628 4603 3181 
Q 4847 2850 4847 2253 
Q 4847 372 2619 -275 
L 2278 159 
Q 3356 397 3881 994 
Q 4328 1503 4328 2228 
Q 4328 3181 3534 3181 
Q 2909 3181 1397 2553 
L 1172 3050 
z
" transform="scale(0.015625)"/>
      <path id="IPAexGothic-7279" d="M 1025 3950 
L 1434 3950 
L 1434 5313 
L 1875 5313 
L 1875 3950 
L 2534 3950 
L 2534 3547 
L 1875 3547 
L 1875 2216 
Q 2084 2313 2494 2516 
L 2547 2106 
Q 2281 1963 1856 1750 
L 1856 -447 
L 1416 -447 
L 1416 1538 
Q 1028 1359 538 1153 
L 313 1581 
Q 778 1744 1434 2019 
L 1434 3547 
L 947 3547 
Q 828 3013 647 2556 
L 275 2803 
Q 584 3600 691 4744 
L 1131 4688 
Q 1091 4291 1025 3950 
z
M 3872 4372 
L 3872 5313 
L 4313 5313 
L 4313 4372 
L 5738 4372 
L 5738 3981 
L 4313 3981 
L 4313 3200 
L 6072 3200 
L 6072 2803 
L 5106 2803 
L 5106 2047 
L 5956 2047 
L 5956 1650 
L 5125 1650 
L 5125 38 
Q 5125 -447 4594 -447 
Q 4288 -447 3788 -391 
L 3691 78 
Q 4181 0 4491 0 
Q 4684 0 4684 172 
L 4684 1650 
L 2609 1650 
L 2609 2047 
L 4666 2047 
L 4666 2803 
L 2400 2803 
L 2400 3200 
L 3872 3200 
L 3872 3981 
L 2653 3981 
L 2653 4372 
L 3872 4372 
z
M 3550 384 
Q 3216 959 2834 1331 
L 3172 1575 
Q 3641 1116 3916 672 
L 3550 384 
z
" transform="scale(0.015625)"/>
      <path id="IPAexGothic-5fb4" d="M 5656 3775 
L 5656 3697 
Q 5597 2178 5228 1188 
Q 5678 478 6181 31 
L 5900 -419 
Q 5375 125 5016 741 
Q 4591 -3 3941 -500 
L 3616 -138 
Q 4372 331 4788 1163 
Q 4441 1838 4269 2759 
Q 4131 2388 3953 2078 
L 3697 2413 
L 3072 2413 
L 3072 1784 
L 3788 1784 
L 3788 1425 
L 3072 1425 
L 3072 747 
Q 3600 866 4063 1003 
L 4081 625 
Q 3147 297 1784 25 
L 1631 459 
Q 2194 553 2656 650 
L 2656 1425 
L 1856 1425 
L 1856 1784 
L 2656 1784 
L 2656 2413 
L 1663 2413 
L 1663 2784 
L 3838 2784 
Q 4222 3697 4422 5259 
L 4844 5197 
Q 4775 4688 4672 4178 
L 6059 4178 
L 6059 3775 
L 5656 3775 
z
M 5253 3775 
L 4575 3775 
Q 4516 3525 4497 3463 
L 4509 3391 
Q 4638 2475 4966 1700 
Q 5188 2516 5253 3775 
z
M 1372 2950 
L 1372 -447 
L 950 -447 
L 950 2328 
Q 728 2038 419 1716 
L 194 2088 
Q 944 2819 1453 3981 
L 1825 3803 
Q 1631 3384 1372 2950 
z
M 3088 3700 
L 3484 3700 
L 3484 4819 
L 3875 4819 
L 3875 3334 
L 1916 3334 
L 1916 4819 
L 2306 4819 
L 2306 3700 
L 2684 3700 
L 2684 5313 
L 3088 5313 
L 3088 3700 
z
M 256 3884 
Q 916 4419 1350 5203 
L 1716 5013 
Q 1300 4234 513 3547 
L 256 3884 
z
" transform="scale(0.015625)"/>
      <path id="IPAexGothic-91cf" d="M 5081 5159 
L 5081 3497 
L 1275 3497 
L 1275 5159 
L 5081 5159 
z
M 1716 4819 
L 1716 4475 
L 4647 4475 
L 4647 4819 
L 1716 4819 
z
M 1716 4175 
L 1716 3816 
L 4647 3816 
L 4647 4175 
L 1716 4175 
z
M 5238 2625 
L 5238 997 
L 3388 997 
L 3388 694 
L 5428 694 
L 5428 353 
L 3388 353 
L 3388 34 
L 6044 34 
L 6044 -331 
L 353 -331 
L 353 34 
L 2972 34 
L 2972 353 
L 969 353 
L 969 694 
L 2972 694 
L 2972 997 
L 1159 997 
L 1159 2625 
L 5238 2625 
z
M 1588 2325 
L 1588 1972 
L 2972 1972 
L 2972 2325 
L 1588 2325 
z
M 1588 1672 
L 1588 1303 
L 2972 1303 
L 2972 1672 
L 1588 1672 
z
M 4809 1303 
L 4809 1672 
L 3388 1672 
L 3388 1303 
L 4809 1303 
z
M 4809 1972 
L 4809 2325 
L 3388 2325 
L 3388 1972 
L 4809 1972 
z
M 384 3231 
L 6009 3231 
L 6009 2884 
L 384 2884 
L 384 3231 
z
" transform="scale(0.015625)"/>
      <path id="IPAexGothic-304c" d="M 659 3384 
Q 1434 3503 2113 3581 
Q 2313 4341 2394 4972 
L 2900 4875 
Q 2759 4147 2619 3628 
L 2719 3634 
Q 2894 3641 3041 3641 
Q 4072 3641 4072 2369 
Q 4072 1128 3700 384 
Q 3478 -56 3003 -56 
Q 2591 -56 2113 231 
L 2138 775 
Q 2631 444 2925 444 
Q 3169 444 3297 706 
Q 3566 1294 3566 2388 
Q 3566 3219 3016 3219 
Q 2825 3219 2497 3194 
Q 2388 2763 2113 2047 
Q 1634 797 1119 -38 
L 678 244 
Q 1356 1238 1863 2750 
Q 1888 2819 1991 3128 
Q 1594 3081 769 2916 
L 659 3384 
z
M 5441 1838 
Q 4913 3038 4091 3916 
L 4475 4184 
Q 5350 3269 5888 2156 
L 5441 1838 
z
M 5913 4275 
Q 5553 4819 5159 5147 
L 5459 5375 
Q 5844 5066 6234 4550 
L 5913 4275 
z
M 5344 3788 
Q 5053 4278 4609 4678 
L 4922 4922 
Q 5294 4613 5678 4063 
L 5344 3788 
z
" transform="scale(0.015625)"/>
      <path id="IPAexGothic-25b3" d="M 3200 4997 
L 5766 56 
L 634 56 
L 3200 4997 
z
M 3200 4069 
L 1363 484 
L 5038 484 
L 3200 4069 
z
" transform="scale(0.015625)"/>
      <path id="IPAexGothic-7406" d="M 1541 4397 
L 1541 3084 
L 2219 3084 
L 2219 2688 
L 1541 2688 
L 1541 1247 
Q 1919 1356 2397 1522 
L 2431 1144 
Q 1353 713 434 472 
L 263 909 
Q 763 1025 1113 1119 
L 1113 2688 
L 441 2688 
L 441 3084 
L 1113 3084 
L 1113 4397 
L 369 4397 
L 369 4800 
L 2347 4800 
L 2347 4397 
L 1541 4397 
z
M 5691 4991 
L 5691 2106 
L 4378 2106 
L 4378 1375 
L 5825 1375 
L 5825 984 
L 4378 984 
L 4378 206 
L 6081 206 
L 6081 -191 
L 2150 -191 
L 2150 206 
L 3944 206 
L 3944 984 
L 2559 984 
L 2559 1375 
L 3944 1375 
L 3944 2106 
L 2675 2106 
L 2675 4991 
L 5691 4991 
z
M 3091 4606 
L 3091 3750 
L 3956 3750 
L 3956 4606 
L 3091 4606 
z
M 3091 3378 
L 3091 2491 
L 3956 2491 
L 3956 3378 
L 3091 3378 
z
M 5275 2491 
L 5275 3378 
L 4366 3378 
L 4366 2491 
L 5275 2491 
z
M 5275 3750 
L 5275 4606 
L 4366 4606 
L 4366 3750 
L 5275 3750 
z
" transform="scale(0.015625)"/>
      <path id="IPAexGothic-7531" d="M 2931 4091 
L 2931 5147 
L 3425 5147 
L 3425 4091 
L 5588 4091 
L 5588 -353 
L 5100 -353 
L 5100 31 
L 1294 31 
L 1294 -353 
L 806 -353 
L 806 4091 
L 2931 4091 
z
M 1294 3663 
L 1294 2328 
L 2938 2328 
L 2938 3663 
L 1294 3663 
z
M 1294 1913 
L 1294 459 
L 2938 459 
L 2938 1913 
L 1294 1913 
z
M 3419 3663 
L 3419 2328 
L 5100 2328 
L 5100 3663 
L 3419 3663 
z
M 3419 1913 
L 3419 459 
L 5100 459 
L 5100 1913 
L 3419 1913 
z
" transform="scale(0.015625)"/>
      <path id="IPAexGothic-985e" d="M 1575 3238 
Q 1153 2647 513 2213 
L 256 2547 
Q 953 2959 1416 3572 
L 1447 3609 
L 366 3609 
L 366 3981 
L 1575 3981 
L 1575 5313 
L 1978 5313 
L 1978 3981 
L 3109 3981 
L 3109 3609 
L 1978 3609 
L 1978 3425 
Q 2581 3147 3059 2791 
L 2809 2406 
Q 2469 2747 1978 3059 
L 1978 2388 
L 1575 2388 
L 1575 3238 
z
M 4616 4025 
L 5709 4025 
L 5709 794 
L 3400 794 
L 3400 4025 
L 4219 4025 
Q 4284 4284 4353 4659 
L 3094 4659 
L 3094 5056 
L 6022 5056 
L 6022 4659 
L 4800 4659 
Q 4797 4638 4769 4538 
Q 4719 4309 4616 4025 
z
M 5300 3653 
L 3809 3653 
L 3809 3078 
L 5300 3078 
L 5300 3653 
z
M 3809 2713 
L 3809 2138 
L 5300 2138 
L 5300 2713 
L 3809 2713 
z
M 3809 1778 
L 3809 1166 
L 5300 1166 
L 5300 1778 
L 3809 1778 
z
M 1569 1691 
L 1569 2197 
L 1991 2197 
L 1991 1691 
L 3072 1691 
L 3072 1306 
L 1978 1306 
Q 1969 1178 1938 1081 
Q 2447 744 2944 256 
L 2625 -88 
Q 2247 375 1825 719 
Q 1525 -28 678 -497 
L 384 -153 
Q 1416 338 1550 1306 
L 366 1306 
L 366 1691 
L 1569 1691 
z
M 897 4072 
Q 706 4600 500 4916 
L 884 5088 
Q 1091 4756 1300 4238 
L 897 4072 
z
M 2200 4219 
Q 2456 4659 2578 5100 
L 2994 4978 
Q 2819 4509 2541 4072 
L 2200 4219 
z
M 5753 -422 
Q 5344 47 4728 525 
L 5044 756 
Q 5566 413 6138 -116 
L 5753 -422 
z
M 2809 -178 
Q 3488 169 3981 750 
L 4338 506 
Q 3831 -88 3122 -500 
L 2809 -178 
z
" transform="scale(0.015625)"/>
      <path id="IPAexGothic-52b9" d="M 4078 3828 
L 4078 5203 
L 4525 5203 
L 4525 3884 
L 5894 3884 
Q 5884 1113 5728 238 
Q 5631 -331 5069 -331 
Q 4684 -331 4294 -275 
L 4219 231 
Q 4603 122 4922 122 
Q 5222 122 5281 434 
Q 5431 1328 5441 3194 
L 5447 3463 
L 4519 3463 
Q 4519 2075 4294 1288 
Q 3978 159 3034 -481 
L 2706 -141 
Q 3628 491 3906 1556 
Q 4050 2141 4078 3328 
L 4078 3413 
L 3266 3413 
L 3266 3816 
L 422 3816 
L 422 4219 
L 1716 4219 
L 1716 5313 
L 2156 5313 
L 2156 4219 
L 3316 4219 
L 3316 3828 
L 4078 3828 
z
M 1813 1216 
Q 1356 1728 972 2081 
L 1281 2350 
Q 1603 2059 1997 1644 
L 2022 1613 
Q 2197 1994 2309 2547 
L 2706 2406 
Q 2566 1769 2322 1288 
Q 2738 828 3000 500 
L 2681 147 
Q 2341 600 2100 884 
Q 1538 25 756 -447 
L 447 -91 
Q 1294 353 1813 1216 
z
M 269 2350 
Q 906 2888 1253 3622 
L 1631 3431 
Q 1203 2613 550 2016 
L 269 2350 
z
M 3144 2209 
Q 2694 2950 2156 3450 
L 2503 3659 
Q 3069 3153 3463 2547 
L 3144 2209 
z
" transform="scale(0.015625)"/>
      <path id="IPAexGothic-304f" d="M 4022 -300 
Q 3050 984 1863 2047 
Q 1538 2338 1538 2522 
Q 1538 2700 1953 3041 
Q 3144 4019 3816 5094 
L 4256 4769 
Q 3456 3659 2234 2694 
Q 2106 2588 2106 2528 
Q 2106 2466 2344 2247 
Q 3591 1113 4444 103 
L 4022 -300 
z
" transform="scale(0.015625)"/>
      <path id="IPAexGothic-601d" d="M 5356 4984 
L 5356 2291 
L 1038 2291 
L 1038 4984 
L 5356 4984 
z
M 1484 4600 
L 1484 3859 
L 2963 3859 
L 2963 4600 
L 1484 4600 
z
M 1484 3488 
L 1484 2675 
L 2963 2675 
L 2963 3488 
L 1484 3488 
z
M 4903 2675 
L 4903 3488 
L 3391 3488 
L 3391 2675 
L 4903 2675 
z
M 4903 3859 
L 4903 4600 
L 3391 4600 
L 3391 3859 
L 4903 3859 
z
M 403 97 
Q 916 813 1125 1672 
L 1594 1538 
Q 1316 491 806 -231 
L 403 97 
z
M 2009 1806 
L 2491 1806 
L 2491 416 
Q 2491 194 2613 166 
Q 2747 122 3334 122 
Q 4175 122 4263 306 
Q 4316 422 4347 966 
L 4813 825 
Q 4766 84 4616 -94 
Q 4494 -238 4200 -275 
Q 3863 -313 3181 -313 
Q 2381 -313 2197 -203 
Q 2009 -97 2009 238 
L 2009 1806 
z
M 3566 838 
Q 3231 1475 2778 1959 
L 3163 2188 
Q 3531 1809 3981 1100 
L 3566 838 
z
M 5663 6 
Q 5178 916 4575 1613 
L 4959 1863 
Q 5638 1119 6094 331 
L 5663 6 
z
" transform="scale(0.015625)"/>
     </defs>
     <use xlink:href="#IPAexGothic-300c"/>
     <use xlink:href="#IPAexGothic-3007" x="100"/>
     <use xlink:href="#IPAexGothic-3007" x="200"/>
     <use xlink:href="#IPAexGothic-3068" x="300"/>
     <use xlink:href="#IPAexGothic-3044" x="400"/>
     <use xlink:href="#IPAexGothic-3046" x="500"/>
     <use xlink:href="#IPAexGothic-7279" x="600"/>
     <use xlink:href="#IPAexGothic-5fb4" x="700"/>
     <use xlink:href="#IPAexGothic-91cf" x="800"/>
     <use xlink:href="#IPAexGothic-304c" x="900"/>
     <use xlink:href="#IPAexGothic-20" x="1000"/>
     <use xlink:href="#IPAexGothic-25b3" x="1027.001953"/>
     <use xlink:href="#IPAexGothic-25b3" x="1127.001953"/>
     <use xlink:href="#IPAexGothic-20" x="1227.001953"/>
     <use xlink:href="#IPAexGothic-3068" x="1254.003906"/>
     <use xlink:href="#IPAexGothic-3044" x="1354.003906"/>
     <use xlink:href="#IPAexGothic-3046" x="1454.003906"/>
     <use xlink:href="#IPAexGothic-7406" x="1554.003906"/>
     <use xlink:href="#IPAexGothic-7531" x="1654.003906"/>
     <use xlink:href="#IPAexGothic-304b" x="1754.003906"/>
     <use xlink:href="#IPAexGothic-3089" x="1854.003906"/>
     <use xlink:href="#IPAexGothic-54c1" x="1954.003906"/>
     <use xlink:href="#IPAexGothic-7a2e" x="2054.003906"/>
     <use xlink:href="#IPAexGothic-306e" x="2154.003906"/>
     <use xlink:href="#IPAexGothic-5206" x="2254.003906"/>
     <use xlink:href="#IPAexGothic-985e" x="2354.003906"/>
     <use xlink:href="#IPAexGothic-306b" x="2454.003906"/>
     <use xlink:href="#IPAexGothic-52b9" x="2554.003906"/>
     <use xlink:href="#IPAexGothic-304f" x="2654.003906"/>
     <use xlink:href="#IPAexGothic-3068" x="2754.003906"/>
     <use xlink:href="#IPAexGothic-601d" x="2854.003906"/>
     <use xlink:href="#IPAexGothic-3046" x="2954.003906"/>
     <use xlink:href="#IPAexGothic-300d" x="3054.003906"/>
    </g>
   </g>
   <g id="text_13">
    <!-- ⚡ 問3の「仮説の言語化」が最も重要です。グラフを作るだけで終わらないように！ -->
    <g style="fill: #7d6608" transform="translate(41.04 333.219032) scale(0.125 -0.125)">
     <defs>
      <path id="IPAexGothic-26a1" d="M 5759 -641 
L 641 -641 
L 641 5503 
L 5759 5503 
L 5759 -641 
z
M 5216 5172 
L 1191 5172 
L 3206 2694 
L 5216 5172 
z
M 5428 -53 
L 5428 4903 
L 3419 2425 
L 5428 -53 
z
M 2988 2425 
L 972 4916 
L 972 -59 
L 2988 2425 
z
M 5209 -309 
L 3206 2163 
L 1197 -309 
L 5209 -309 
z
" transform="scale(0.015625)"/>
      <path id="IPAexGothic-6700" d="M 5106 5050 
L 5106 3275 
L 1284 3275 
L 1284 5050 
L 5106 5050 
z
M 1741 4697 
L 1741 4331 
L 4656 4331 
L 4656 4697 
L 1741 4697 
z
M 1741 4000 
L 1741 3622 
L 4656 3622 
L 4656 4000 
L 1741 4000 
z
M 2925 2528 
L 2925 -450 
L 2503 -450 
L 2503 228 
Q 1869 94 525 -78 
L 409 356 
Q 491 363 609 372 
Q 725 381 756 381 
L 994 403 
L 994 2528 
L 384 2528 
L 384 2900 
L 6016 2900 
L 6016 2528 
L 2925 2528 
z
M 2503 2528 
L 1400 2528 
L 1400 2088 
L 2503 2088 
L 2503 2528 
z
M 2503 1763 
L 1400 1763 
L 1400 1309 
L 2503 1309 
L 2503 1763 
z
M 2503 984 
L 1400 984 
L 1400 434 
L 1759 472 
Q 2159 500 2503 550 
L 2503 984 
z
M 4844 588 
Q 5350 225 6047 -9 
L 5753 -419 
Q 5066 -128 4556 288 
Q 4000 -241 3281 -534 
L 3006 -163 
Q 3734 84 4263 563 
Q 3722 1141 3463 1803 
L 3084 1803 
L 3084 2169 
L 5425 2169 
L 5656 1963 
Q 5328 1178 4881 638 
L 4844 588 
z
M 4538 850 
Q 4884 1275 5119 1803 
L 3872 1803 
Q 4113 1275 4538 850 
z
" transform="scale(0.015625)"/>
      <path id="IPAexGothic-3082" d="M 997 3950 
Q 1622 3844 2303 3816 
L 2491 5056 
L 2988 4984 
Q 2872 4363 2797 3816 
Q 3475 3822 4244 3938 
L 4244 3494 
Q 3659 3394 2731 3372 
Q 2700 3131 2603 2381 
Q 3263 2381 4031 2509 
L 4031 2059 
Q 3359 1947 2534 1947 
Q 2472 1447 2472 1216 
Q 2472 191 3609 191 
Q 4831 191 4831 1163 
Q 4831 1597 4500 2131 
L 5003 2181 
Q 5338 1638 5338 1153 
Q 5338 472 4819 75 
Q 4372 -256 3609 -256 
Q 2003 -256 2003 1153 
Q 2003 1556 2059 1959 
Q 1372 2022 1013 2094 
L 1056 2541 
Q 1581 2431 2125 2400 
L 2247 3378 
Q 1550 3406 941 3519 
L 997 3950 
z
" transform="scale(0.015625)"/>
      <path id="IPAexGothic-91cd" d="M 2950 3284 
L 2950 3684 
L 481 3684 
L 481 4063 
L 2950 4063 
L 2950 4491 
L 2747 4478 
Q 2100 4431 1241 4400 
L 1038 4791 
Q 3488 4878 4903 5113 
L 5234 4734 
Q 4388 4600 3406 4522 
L 3406 4063 
L 5913 4063 
L 5913 3684 
L 3406 3684 
L 3406 3284 
L 5269 3284 
L 5269 1313 
L 3406 1313 
L 3406 884 
L 5594 884 
L 5594 519 
L 3406 519 
L 3406 84 
L 6009 84 
L 6009 -294 
L 384 -294 
L 384 84 
L 2950 84 
L 2950 519 
L 800 519 
L 800 884 
L 2950 884 
L 2950 1313 
L 1128 1313 
L 1128 3284 
L 2950 3284 
z
M 2963 2931 
L 1569 2931 
L 1569 2472 
L 2963 2472 
L 2963 2931 
z
M 3394 2931 
L 3394 2472 
L 4825 2472 
L 4825 2931 
L 3394 2931 
z
M 2963 2147 
L 1569 2147 
L 1569 1659 
L 2963 1659 
L 2963 2147 
z
M 3394 2147 
L 3394 1659 
L 4825 1659 
L 4825 2147 
L 3394 2147 
z
" transform="scale(0.015625)"/>
      <path id="IPAexGothic-8981" d="M 2278 4025 
L 2278 4581 
L 528 4581 
L 528 4978 
L 5856 4978 
L 5856 4581 
L 4081 4581 
L 4081 4025 
L 5522 4025 
L 5522 2547 
L 863 2547 
L 863 4025 
L 2278 4025 
z
M 2694 4025 
L 3659 4025 
L 3659 4581 
L 2694 4581 
L 2694 4025 
z
M 2278 3666 
L 1316 3666 
L 1316 2906 
L 2278 2906 
L 2278 3666 
z
M 2694 3666 
L 2694 2906 
L 3659 2906 
L 3659 3666 
L 2694 3666 
z
M 4081 3666 
L 4081 2906 
L 5075 2906 
L 5075 3666 
L 4081 3666 
z
M 3066 338 
Q 2547 503 1694 722 
L 1503 775 
Q 1816 1141 2066 1503 
L 447 1503 
L 447 1900 
L 2316 1900 
Q 2497 2225 2641 2516 
L 3084 2366 
Q 2984 2172 2834 1900 
L 5950 1900 
L 5950 1503 
L 4619 1503 
Q 4369 878 3988 484 
Q 4750 263 5797 -91 
L 5413 -488 
Q 4441 -100 3597 172 
Q 2706 -406 869 -531 
L 625 -97 
Q 2122 -28 3066 338 
z
M 3513 619 
Q 3934 1025 4134 1503 
L 2597 1503 
Q 2413 1213 2238 984 
L 2213 953 
Q 2656 853 3513 619 
z
" transform="scale(0.015625)"/>
      <path id="IPAexGothic-3002" d="M 1166 1241 
Q 1366 1241 1563 1138 
Q 2009 900 2009 391 
Q 2009 188 1913 6 
Q 1675 -459 1159 -459 
Q 941 -459 753 -356 
Q 306 -119 306 397 
Q 306 744 569 1003 
Q 806 1241 1166 1241 
z
M 1159 916 
Q 953 916 797 781 
Q 631 625 631 391 
Q 631 278 681 166 
Q 819 -134 1159 -134 
Q 1309 -134 1434 -56 
Q 1684 88 1684 391 
Q 1684 722 1397 866 
Q 1281 916 1159 916 
z
" transform="scale(0.015625)"/>
      <path id="IPAexGothic-3051" d="M 2553 3481 
Q 2891 3463 3219 3463 
Q 3691 3463 4338 3506 
Q 4303 4434 4250 4897 
L 4763 4897 
Q 4769 4772 4825 3566 
Q 5319 3634 5709 3744 
L 5747 3291 
Q 5356 3159 4838 3109 
Q 4844 2875 4844 2606 
Q 4844 1434 4575 856 
Q 4250 138 3347 -313 
L 2938 56 
Q 3809 441 4094 1006 
Q 4363 1525 4363 2625 
Q 4363 2853 4359 3059 
Q 3722 3009 3175 3009 
Q 2791 3009 2591 3022 
L 2553 3481 
z
M 1925 2088 
L 2253 1881 
Q 1697 872 1678 166 
L 1259 72 
Q 941 1184 941 2272 
Q 941 3181 1344 4872 
L 1819 4750 
Q 1416 3166 1416 2163 
Q 1416 1722 1491 1222 
L 1925 2088 
z
" transform="scale(0.015625)"/>
      <path id="IPAexGothic-7d42" d="M 1259 3066 
Q 825 3678 378 4128 
L 666 4422 
Q 828 4259 916 4153 
Q 1300 4750 1541 5331 
L 1956 5119 
Q 1547 4363 1150 3859 
Q 1338 3625 1491 3391 
Q 1900 3994 2200 4544 
L 2578 4300 
Q 1994 3347 1338 2572 
L 1638 2591 
Q 2006 2609 2200 2631 
Q 2075 2919 1950 3150 
L 2297 3297 
Q 2606 2763 2822 2106 
L 2444 1919 
Q 2403 2063 2316 2316 
Q 2228 2294 1778 2234 
L 1778 -447 
L 1363 -447 
L 1363 2181 
Q 972 2134 428 2106 
L 281 2534 
Q 619 2544 869 2553 
Q 1138 2900 1259 3066 
z
M 4709 2859 
Q 5281 2319 6144 1984 
L 5844 1575 
Q 5028 1969 4447 2547 
Q 3819 1869 2888 1388 
L 2603 1753 
Q 3584 2172 4172 2834 
Q 3800 3291 3553 3719 
Q 3284 3294 2866 2888 
L 2591 3206 
Q 3384 3944 3800 5288 
L 4219 5153 
Q 4066 4738 4031 4659 
L 5325 4659 
L 5556 4447 
Q 5234 3569 4709 2859 
z
M 4428 3150 
Q 4838 3706 5031 4269 
L 3859 4269 
Q 3813 4166 3769 4097 
Q 4028 3609 4428 3150 
z
M 359 197 
Q 588 863 653 1759 
L 1063 1709 
Q 994 684 769 -13 
L 359 197 
z
M 2253 306 
Q 2125 1138 1919 1759 
L 2278 1869 
Q 2525 1250 2681 481 
L 2253 306 
z
M 5003 831 
Q 4456 1244 3794 1563 
L 4056 1894 
Q 4644 1597 5278 1191 
L 5003 831 
z
M 5344 -422 
Q 4356 134 3175 594 
L 3397 947 
Q 4528 509 5600 -44 
L 5344 -422 
z
" transform="scale(0.015625)"/>
      <path id="IPAexGothic-308f" d="M 609 3672 
Q 1272 3750 1894 3884 
L 1934 4978 
L 2406 4972 
L 2369 3934 
L 2753 3634 
Q 2416 3238 2356 3153 
Q 2350 3078 2350 2853 
Q 3322 3616 4219 3616 
Q 4878 3616 5331 3200 
Q 5819 2750 5819 2028 
Q 5819 419 3584 -53 
L 3266 391 
Q 5294 766 5294 2034 
Q 5294 2534 5000 2847 
Q 4691 3175 4175 3175 
Q 3341 3175 2344 2303 
Q 2344 678 2369 -150 
L 1881 -150 
Q 1863 1200 1869 1888 
Q 1766 1781 866 716 
L 513 1081 
Q 1450 2088 1869 2469 
Q 1869 2500 1878 2947 
Q 1881 3225 1888 3456 
Q 1406 3319 744 3178 
L 609 3672 
z
" transform="scale(0.015625)"/>
      <path id="IPAexGothic-3088" d="M 2784 5019 
L 3272 5019 
Q 3247 4378 3272 3647 
Q 4184 3719 4850 3903 
L 4997 3431 
Q 4369 3291 3272 3200 
Q 3288 2366 3378 1550 
Q 4134 1353 5344 647 
L 5031 213 
Q 4244 759 3406 1044 
L 3413 891 
Q 3434 359 3122 84 
Q 2863 -141 2272 -141 
Q 1641 -141 1272 116 
Q 934 350 934 738 
Q 934 1294 1500 1534 
Q 1841 1678 2278 1678 
Q 2581 1678 2906 1631 
Q 2813 2559 2784 5019 
z
M 2931 1178 
Q 2613 1244 2369 1244 
Q 1422 1244 1422 794 
Q 1422 300 2278 300 
Q 2956 300 2938 934 
L 2931 1178 
z
" transform="scale(0.015625)"/>
      <path id="IPAexGothic-ff01" d="M 2828 5081 
L 3572 5081 
L 3456 1228 
L 2944 1228 
L 2828 5081 
z
M 2828 647 
L 3572 647 
L 3572 -97 
L 2828 -97 
L 2828 647 
z
" transform="scale(0.015625)"/>
     </defs>
     <use xlink:href="#IPAexGothic-26a1"/>
     <use xlink:href="#IPAexGothic-20" x="100"/>
     <use xlink:href="#IPAexGothic-554f" x="127.001953"/>
     <use xlink:href="#IPAexGothic-33" x="227.001953"/>
     <use xlink:href="#IPAexGothic-306e" x="289.990234"/>
     <use xlink:href="#IPAexGothic-300c" x="389.990234"/>
     <use xlink:href="#IPAexGothic-4eee" x="489.990234"/>
     <use xlink:href="#IPAexGothic-8aac" x="589.990234"/>
     <use xlink:href="#IPAexGothic-306e" x="689.990234"/>
     <use xlink:href="#IPAexGothic-8a00" x="789.990234"/>
     <use xlink:href="#IPAexGothic-8a9e" x="889.990234"/>
     <use xlink:href="#IPAexGothic-5316" x="989.990234"/>
     <use xlink:href="#IPAexGothic-300d" x="1089.990234"/>
     <use xlink:href="#IPAexGothic-304c" x="1189.990234"/>
     <use xlink:href="#IPAexGothic-6700" x="1289.990234"/>
     <use xlink:href="#IPAexGothic-3082" x="1389.990234"/>
     <use xlink:href="#IPAexGothic-91cd" x="1489.990234"/>
     <use xlink:href="#IPAexGothic-8981" x="1589.990234"/>
     <use xlink:href="#IPAexGothic-3067" x="1689.990234"/>
     <use xlink:href="#IPAexGothic-3059" x="1789.990234"/>
     <use xlink:href="#IPAexGothic-3002" x="1889.990234"/>
     <use xlink:href="#IPAexGothic-30b0" x="1989.990234"/>
     <use xlink:href="#IPAexGothic-30e9" x="2089.990234"/>
     <use xlink:href="#IPAexGothic-30d5" x="2189.990234"/>
     <use xlink:href="#IPAexGothic-3092" x="2289.990234"/>
     <use xlink:href="#IPAexGothic-4f5c" x="2389.990234"/>
     <use xlink:href="#IPAexGothic-308b" x="2489.990234"/>
     <use xlink:href="#IPAexGothic-3060" x="2589.990234"/>
     <use xlink:href="#IPAexGothic-3051" x="2689.990234"/>
     <use xlink:href="#IPAexGothic-3067" x="2789.990234"/>
     <use xlink:href="#IPAexGothic-7d42" x="2889.990234"/>
     <use xlink:href="#IPAexGothic-308f" x="2989.990234"/>
     <use xlink:href="#IPAexGothic-3089" x="3089.990234"/>
     <use xlink:href="#IPAexGothic-306a" x="3189.990234"/>
     <use xlink:href="#IPAexGothic-3044" x="3289.990234"/>
     <use xlink:href="#IPAexGothic-3088" x="3389.990234"/>
     <use xlink:href="#IPAexGothic-3046" x="3489.990234"/>
     <use xlink:href="#IPAexGothic-306b" x="3589.990234"/>
     <use xlink:href="#IPAexGothic-ff01" x="3689.990234"/>
    </g>
   </g>
  </g>
 </g>
 <defs>
  <clipPath id="p07be221d42">
   <rect x="0" y="-0" width="691.2" height="388.8"/>
  </clipPath>
 </defs>
</svg>
