<?xml version="1.0" encoding="utf-8" standalone="no"?>
<!DOCTYPE svg PUBLIC "-//W3C//DTD SVG 1.1//EN"
  "http://www.w3.org/Graphics/SVG/1.1/DTD/svg11.dtd">
<svg xmlns:xlink="http://www.w3.org/1999/xlink" width="691.2pt" height="388.8pt" viewBox="0 0 691.2 388.8" xmlns="http://www.w3.org/2000/svg" version="1.1">
 <metadata>
  <rdf:RDF xmlns:dc="http://purl.org/dc/elements/1.1/" xmlns:cc="http://creativecommons.org/ns#" xmlns:rdf="http://www.w3.org/1999/02/22-rdf-syntax-ns#">
   <cc:Work>
    <dc:type rdf:resource="http://purl.org/dc/dcmitype/StillImage"/>
    <dc:date>2026-04-09T02:37:45.924940</dc:date>
    <dc:format>image/svg+xml</dc:format>
    <dc:creator>
     <cc:Agent>
      <dc:title>Matplotlib v3.9.4, https://matplotlib.org/</dc:title>
     </cc:Agent>
    </dc:creator>
   </cc:Work>
  </rdf:RDF>
 </metadata>
 <defs>
  <style type="text/css">*{stroke-linejoin: round; stroke-linecap: butt}</style>
 </defs>
 <g id="figure_1">
  <g id="patch_1">
   <path d="M 0 388.8 
L 691.2 388.8 
L 691.2 0 
L 0 0 
z
" style="fill: #ffffff"/>
  </g>
  <g id="axes_1">
   <g id="patch_2">
    <path d="M 0 -0 
L 691.2 -0 
L 691.2 24.48 
L 0 24.48 
z
" clip-path="url(#pbef4c81909)" style="fill: #e8a838"/>
   </g>
   <g id="patch_3">
    <path d="M 31.68 59.04 
L 659.52 59.04 
L 659.52 60.48 
L 31.68 60.48 
z
" clip-path="url(#pbef4c81909)" style="fill: #ecf0f1"/>
   </g>
   <g id="patch_4">
    <path d="M 44.64 77.76 
C 48.077032 77.76 51.373755 79.125547 53.804104 81.555896 
C 56.234453 83.986245 57.6 87.282968 57.6 90.72 
C 57.6 94.157032 56.234453 97.453755 53.804104 99.884104 
C 51.373755 102.314453 48.077032 103.68 44.64 103.68 
C 41.202968 103.68 37.906245 102.314453 35.475896 99.884104 
C 33.045547 97.453755 31.68 94.157032 31.68 90.72 
C 31.68 87.282968 33.045547 83.986245 35.475896 81.555896 
C 37.906245 79.125547 41.202968 77.76 44.64 77.76 
z
" clip-path="url(#pbef4c81909)" style="fill: #e8a838; stroke: #e8a838; stroke-linejoin: miter"/>
   </g>
   <g id="patch_5">
    <path d="M 44.64 119.52 
C 48.077032 119.52 51.373755 120.885547 53.804104 123.315896 
C 56.234453 125.746245 57.6 129.042968 57.6 132.48 
C 57.6 135.917032 56.234453 139.213755 53.804104 141.644104 
C 51.373755 144.074453 48.077032 145.44 44.64 145.44 
C 41.202968 145.44 37.906245 144.074453 35.475896 141.644104 
C 33.045547 139.213755 31.68 135.917032 31.68 132.48 
C 31.68 129.042968 33.045547 125.746245 35.475896 123.315896 
C 37.906245 120.885547 41.202968 119.52 44.64 119.52 
z
" clip-path="url(#pbef4c81909)" style="fill: #e8a838; stroke: #e8a838; stroke-linejoin: miter"/>
   </g>
   <g id="patch_6">
    <path d="M 44.64 161.28 
C 48.077032 161.28 51.373755 162.645547 53.804104 165.075896 
C 56.234453 167.506245 57.6 170.802968 57.6 174.24 
C 57.6 177.677032 56.234453 180.973755 53.804104 183.404104 
C 51.373755 185.834453 48.077032 187.2 44.64 187.2 
C 41.202968 187.2 37.906245 185.834453 35.475896 183.404104 
C 33.045547 180.973755 31.68 177.677032 31.68 174.24 
C 31.68 170.802968 33.045547 167.506245 35.475896 165.075896 
C 37.906245 162.645547 41.202968 161.28 44.64 161.28 
z
" clip-path="url(#pbef4c81909)" style="fill: #e8a838; stroke: #e8a838; stroke-linejoin: miter"/>
   </g>
   <g id="patch_7">
    <path d="M 44.64 203.04 
C 48.077032 203.04 51.373755 204.405547 53.804104 206.835896 
C 56.234453 209.266245 57.6 212.562968 57.6 216 
C 57.6 219.437032 56.234453 222.733755 53.804104 225.164104 
C 51.373755 227.594453 48.077032 228.96 44.64 228.96 
C 41.202968 228.96 37.906245 227.594453 35.475896 225.164104 
C 33.045547 222.733755 31.68 219.437032 31.68 216 
C 31.68 212.562968 33.045547 209.266245 35.475896 206.835896 
C 37.906245 204.405547 41.202968 203.04 44.64 203.04 
z
" clip-path="url(#pbef4c81909)" style="fill: #e8a838; stroke: #e8a838; stroke-linejoin: miter"/>
   </g>
   <g id="text_1">
    <!-- Ch.3 画像処理入門 -->
    <g style="fill: #ffffff" transform="translate(31.68 15.035312) scale(0.1 -0.1)">
     <defs>
      <path id="IPAexGothic-43" d="M 4353 1088 
Q 4181 694 3859 428 
Q 3313 -31 2559 -31 
Q 1588 -31 959 653 
Q 378 1294 378 2331 
Q 378 3406 1013 4078 
Q 1619 4725 2534 4725 
Q 3813 4725 4322 3628 
L 3809 3391 
Q 3425 4238 2541 4238 
Q 1891 4238 1453 3744 
Q 994 3216 994 2322 
Q 994 1550 1384 1056 
Q 1841 472 2563 472 
Q 3456 472 3878 1319 
L 4353 1088 
z
" transform="scale(0.015625)"/>
      <path id="IPAexGothic-68" d="M 3347 63 
L 2797 63 
L 2797 2041 
Q 2797 2853 2131 2853 
Q 1447 2853 1131 2041 
L 1131 63 
L 581 63 
L 581 4794 
L 1131 4794 
L 1131 2706 
Q 1566 3316 2247 3316 
Q 3347 3316 3347 2072 
L 3347 63 
z
" transform="scale(0.015625)"/>
      <path id="IPAexGothic-2e" d="M 1184 63 
L 494 63 
L 494 753 
L 1184 753 
L 1184 63 
z
" transform="scale(0.015625)"/>
      <path id="IPAexGothic-33" d="M 2381 2419 
Q 3506 2216 3506 1278 
Q 3506 716 3128 356 
Q 2709 -31 1944 -31 
Q 797 -31 288 881 
L 756 1131 
Q 1109 441 1938 441 
Q 2425 441 2694 691 
Q 2950 928 2950 1291 
Q 2950 1719 2566 1978 
Q 2216 2213 1644 2213 
L 1363 2213 
L 1363 2669 
L 1656 2669 
Q 2231 2669 2534 2888 
Q 2859 3119 2859 3509 
Q 2859 3934 2494 4138 
Q 2259 4278 1931 4278 
Q 1238 4278 903 3578 
L 434 3803 
Q 897 4725 1938 4725 
Q 2597 4725 3006 4394 
Q 3416 4069 3416 3534 
Q 3416 3028 3019 2706 
Q 2763 2500 2381 2444 
L 2381 2419 
z
" transform="scale(0.015625)"/>
      <path id="IPAexGothic-20" transform="scale(0.015625)"/>
      <path id="IPAexGothic-753b" d="M 2966 3713 
L 2966 4447 
L 353 4447 
L 353 4856 
L 6041 4856 
L 6041 4447 
L 3406 4447 
L 3406 3713 
L 4769 3713 
L 4769 825 
L 1634 825 
L 1634 3713 
L 2966 3713 
z
M 2978 3334 
L 2050 3334 
L 2050 2484 
L 2978 2484 
L 2978 3334 
z
M 3394 3334 
L 3394 2484 
L 4347 2484 
L 4347 3334 
L 3394 3334 
z
M 2978 2119 
L 2050 2119 
L 2050 1197 
L 2978 1197 
L 2978 2119 
z
M 3394 2119 
L 3394 1197 
L 4347 1197 
L 4347 2119 
L 3394 2119 
z
M 1081 300 
L 5316 300 
L 5316 3603 
L 5756 3603 
L 5756 -450 
L 5316 -450 
L 5316 -97 
L 1081 -97 
L 1081 -450 
L 641 -450 
L 641 3603 
L 1081 3603 
L 1081 300 
z
" transform="scale(0.015625)"/>
      <path id="IPAexGothic-50cf" d="M 4000 2688 
L 3828 2688 
Q 3672 2513 3509 2369 
Q 4422 1550 4422 403 
Q 4422 -56 4263 -244 
Q 4119 -416 3744 -416 
Q 3369 -416 3053 -372 
L 2972 97 
Q 3334 -6 3681 -6 
Q 3913 -6 3963 147 
Q 3994 266 3994 453 
Q 3994 738 3919 1063 
Q 3194 234 2159 -238 
L 1859 116 
Q 2959 519 3778 1422 
Q 3716 1534 3638 1663 
Q 2925 953 2025 622 
L 1756 966 
Q 2638 1216 3438 1938 
Q 3350 2044 3247 2150 
Q 2759 1766 2031 1466 
L 1763 1791 
Q 2638 2094 3347 2688 
L 2197 2688 
L 2197 3488 
Q 2041 3344 1866 3200 
L 1641 3563 
Q 2566 4278 3053 5331 
L 3481 5222 
Q 3425 5113 3328 4922 
L 4550 4922 
L 4813 4722 
Q 4534 4325 4231 4013 
L 5619 4013 
L 5619 2688 
L 4384 2688 
Q 4525 2200 4744 1803 
Q 5209 2163 5581 2572 
L 5953 2291 
Q 5516 1872 4928 1491 
Q 5359 828 6059 300 
L 5728 -56 
Q 4450 1019 4000 2688 
z
M 2625 3034 
L 3694 3034 
L 3694 3659 
L 2625 3659 
L 2625 3034 
z
M 2703 4013 
L 3744 4013 
Q 4006 4275 4181 4550 
L 3106 4550 
Q 2903 4253 2703 4013 
z
M 4097 3034 
L 5184 3034 
L 5184 3659 
L 4097 3659 
L 4097 3034 
z
M 1394 3706 
L 1394 -447 
L 966 -447 
L 966 2694 
Q 750 2266 478 1863 
L 244 2259 
Q 1028 3500 1388 5306 
L 1816 5203 
Q 1634 4369 1394 3706 
z
" transform="scale(0.015625)"/>
      <path id="IPAexGothic-51e6" d="M 2144 1263 
Q 2538 638 3147 425 
Q 3628 253 4741 253 
Q 5266 253 6163 303 
Q 6038 63 6009 -216 
Q 5450 -234 5094 -234 
Q 3675 -234 3097 -38 
Q 2388 206 1919 884 
Q 1366 6 734 -478 
L 397 -106 
Q 1128 384 1675 1306 
Q 1341 1969 1138 2913 
Q 934 2309 606 1775 
L 306 2159 
Q 1069 3425 1319 5219 
L 1759 5116 
Q 1694 4763 1631 4481 
L 2650 4481 
L 2903 4275 
Q 2759 2447 2144 1263 
z
M 1900 1744 
Q 2356 2797 2469 4066 
L 1528 4066 
Q 1463 3822 1388 3625 
Q 1534 2575 1900 1744 
z
M 5056 4756 
L 5056 1466 
Q 5056 1263 5269 1263 
Q 5466 1263 5484 1475 
Q 5506 1600 5516 2081 
L 5525 2222 
L 5953 2069 
Q 5944 1234 5831 1038 
Q 5728 859 5216 859 
Q 4888 859 4750 950 
Q 4622 1038 4622 1294 
L 4622 4353 
L 3872 4353 
L 3872 3759 
Q 3872 2544 3744 1916 
Q 3600 1244 3141 706 
L 2813 1025 
Q 3256 1563 3372 2369 
Q 3428 2809 3428 3566 
L 3428 4756 
L 5056 4756 
z
" transform="scale(0.015625)"/>
      <path id="IPAexGothic-7406" d="M 1541 4397 
L 1541 3084 
L 2219 3084 
L 2219 2688 
L 1541 2688 
L 1541 1247 
Q 1919 1356 2397 1522 
L 2431 1144 
Q 1353 713 434 472 
L 263 909 
Q 763 1025 1113 1119 
L 1113 2688 
L 441 2688 
L 441 3084 
L 1113 3084 
L 1113 4397 
L 369 4397 
L 369 4800 
L 2347 4800 
L 2347 4397 
L 1541 4397 
z
M 5691 4991 
L 5691 2106 
L 4378 2106 
L 4378 1375 
L 5825 1375 
L 5825 984 
L 4378 984 
L 4378 206 
L 6081 206 
L 6081 -191 
L 2150 -191 
L 2150 206 
L 3944 206 
L 3944 984 
L 2559 984 
L 2559 1375 
L 3944 1375 
L 3944 2106 
L 2675 2106 
L 2675 4991 
L 5691 4991 
z
M 3091 4606 
L 3091 3750 
L 3956 3750 
L 3956 4606 
L 3091 4606 
z
M 3091 3378 
L 3091 2491 
L 3956 2491 
L 3956 3378 
L 3091 3378 
z
M 5275 2491 
L 5275 3378 
L 4366 3378 
L 4366 2491 
L 5275 2491 
z
M 5275 3750 
L 5275 4606 
L 4366 4606 
L 4366 3750 
L 5275 3750 
z
" transform="scale(0.015625)"/>
      <path id="IPAexGothic-5165" d="M 3275 3078 
Q 2806 619 819 -334 
L 447 91 
Q 2934 1156 3000 4550 
L 1472 4550 
L 1472 4984 
L 3525 4984 
L 3525 4728 
Q 3525 3053 4116 2041 
Q 4734 972 6022 275 
L 5650 -200 
Q 3697 1044 3275 3078 
z
" transform="scale(0.015625)"/>
      <path id="IPAexGothic-9580" d="M 2894 4984 
L 2894 2388 
L 2453 2388 
L 2453 2688 
L 1109 2688 
L 1109 -447 
L 641 -447 
L 641 4984 
L 2894 4984 
z
M 1109 4588 
L 1109 4019 
L 2453 4019 
L 2453 4588 
L 1109 4588 
z
M 1109 3659 
L 1109 3072 
L 2453 3072 
L 2453 3659 
L 1109 3659 
z
M 5747 4984 
L 5747 178 
Q 5747 -166 5581 -281 
Q 5441 -384 5075 -384 
Q 4575 -384 4153 -341 
L 4066 166 
Q 4616 97 5013 97 
Q 5288 97 5288 331 
L 5288 2688 
L 3903 2688 
L 3903 2388 
L 3463 2388 
L 3463 4984 
L 5747 4984 
z
M 3903 4588 
L 3903 4019 
L 5288 4019 
L 5288 4588 
L 3903 4588 
z
M 3903 3659 
L 3903 3072 
L 5288 3072 
L 5288 3659 
L 3903 3659 
z
" transform="scale(0.015625)"/>
     </defs>
     <use xlink:href="#IPAexGothic-43"/>
     <use xlink:href="#IPAexGothic-68" x="72.509766"/>
     <use xlink:href="#IPAexGothic-2e" x="133.203125"/>
     <use xlink:href="#IPAexGothic-33" x="159.619141"/>
     <use xlink:href="#IPAexGothic-20" x="222.607422"/>
     <use xlink:href="#IPAexGothic-753b" x="249.609375"/>
     <use xlink:href="#IPAexGothic-50cf" x="349.609375"/>
     <use xlink:href="#IPAexGothic-51e6" x="449.609375"/>
     <use xlink:href="#IPAexGothic-7406" x="549.609375"/>
     <use xlink:href="#IPAexGothic-5165" x="649.609375"/>
     <use xlink:href="#IPAexGothic-9580" x="749.609375"/>
    </g>
   </g>
   <g id="text_2">
    <!-- 演習の進め方（40分） -->
    <g style="fill: #1a1a2e" transform="translate(31.68 55.4175) scale(0.24 -0.24)">
     <defs>
      <path id="IPAexGothic-6f14" d="M 4091 2869 
L 5600 2869 
L 5600 697 
L 2209 697 
L 2209 2869 
L 3675 2869 
L 3675 3353 
L 2522 3353 
L 2522 3725 
L 5356 3725 
L 5356 3353 
L 4091 3353 
L 4091 2869 
z
M 4091 2503 
L 4091 1972 
L 5172 1972 
L 5172 2503 
L 4091 2503 
z
M 4091 1625 
L 4091 1063 
L 5172 1063 
L 5172 1625 
L 4091 1625 
z
M 3675 1063 
L 3675 1625 
L 2638 1625 
L 2638 1063 
L 3675 1063 
z
M 3675 1972 
L 3675 2503 
L 2638 2503 
L 2638 1972 
L 3675 1972 
z
M 4109 4544 
L 5984 4544 
L 5984 3378 
L 5544 3378 
L 5544 4166 
L 2341 4166 
L 2341 3378 
L 1900 3378 
L 1900 4544 
L 3656 4544 
L 3656 5313 
L 4109 5313 
L 4109 4544 
z
M 1447 3878 
Q 1088 4347 556 4769 
L 859 5100 
Q 1366 4719 1766 4250 
L 1447 3878 
z
M 1288 2381 
Q 841 2906 378 3256 
L 678 3591 
Q 1113 3288 1606 2753 
L 1288 2381 
z
M 372 -72 
Q 934 834 1306 1906 
L 1672 1613 
Q 1306 519 750 -422 
L 372 -72 
z
M 5741 -441 
Q 5019 47 4225 397 
L 4578 684 
Q 5353 372 6100 -63 
L 5741 -441 
z
M 1653 -109 
Q 2553 178 3213 653 
L 3541 359 
Q 2819 -159 1984 -506 
L 1653 -109 
z
" transform="scale(0.015625)"/>
      <path id="IPAexGothic-7fd2" d="M 3006 5063 
L 3006 3047 
Q 3006 2781 2878 2675 
Q 2769 2584 2481 2584 
Q 2078 2584 1772 2631 
L 1716 3072 
Q 2159 2988 2347 2988 
Q 2566 2988 2566 3219 
L 2566 4678 
L 466 4678 
L 466 5063 
L 3006 5063 
z
M 5778 5063 
L 5778 3041 
Q 5778 2584 5288 2584 
Q 4916 2584 4519 2631 
L 4441 3066 
Q 4856 2988 5131 2988 
Q 5338 2988 5338 3206 
L 5338 4678 
L 3238 4678 
L 3238 5063 
L 5778 5063 
z
M 2866 2119 
Q 2950 2356 3013 2669 
L 3500 2572 
Q 3409 2322 3306 2119 
L 5325 2119 
L 5325 -447 
L 4856 -447 
L 4856 -172 
L 1619 -172 
L 1619 -447 
L 1150 -447 
L 1150 2119 
L 2866 2119 
z
M 1619 1747 
L 1619 1197 
L 4856 1197 
L 4856 1747 
L 1619 1747 
z
M 1619 831 
L 1619 206 
L 4856 206 
L 4856 831 
L 1619 831 
z
M 1594 3681 
Q 1219 4044 778 4341 
L 1056 4609 
Q 1525 4325 1869 3981 
L 1594 3681 
z
M 4269 3694 
Q 3816 4066 3403 4341 
L 3684 4622 
Q 4203 4294 4556 3994 
L 4269 3694 
z
M 447 2950 
Q 1328 3347 2225 3969 
L 2353 3622 
Q 1581 3056 691 2606 
L 447 2950 
z
M 3231 3059 
Q 4138 3444 4978 4031 
L 5113 3675 
Q 4281 3066 3463 2700 
L 3231 3059 
z
" transform="scale(0.015625)"/>
      <path id="IPAexGothic-306e" d="M 3119 469 
Q 5275 766 5275 2425 
Q 5275 3453 4413 3925 
Q 4041 4116 3547 4159 
Q 3394 2525 2850 1400 
Q 2322 306 1722 306 
Q 1384 306 1084 666 
Q 609 1244 609 2003 
Q 609 3025 1397 3794 
Q 2184 4563 3431 4563 
Q 4306 4563 4928 4122 
Q 5813 3506 5813 2425 
Q 5813 438 3431 6 
L 3119 469 
z
M 3053 4147 
Q 2378 4044 1891 3641 
Q 1097 2981 1097 1991 
Q 1097 1366 1434 978 
Q 1581 813 1719 813 
Q 2022 813 2416 1625 
Q 2909 2638 3053 4147 
z
" transform="scale(0.015625)"/>
      <path id="IPAexGothic-9032" d="M 4303 1119 
L 5922 1119 
L 5922 728 
L 2828 728 
L 2828 381 
L 2413 381 
L 2413 3431 
Q 2141 3059 1925 2834 
L 1625 3169 
Q 2488 4059 2909 5281 
L 3347 5141 
Q 3125 4613 2925 4238 
L 3875 4238 
Q 4134 4709 4316 5256 
L 4781 5122 
Q 4553 4616 4328 4238 
L 5806 4238 
L 5806 3866 
L 4303 3866 
L 4303 3200 
L 5544 3200 
L 5544 2841 
L 4303 2841 
L 4303 2175 
L 5544 2175 
L 5544 1809 
L 4303 1809 
L 4303 1119 
z
M 3894 1119 
L 3894 1809 
L 2828 1809 
L 2828 1119 
L 3894 1119 
z
M 2828 2175 
L 3894 2175 
L 3894 2841 
L 2828 2841 
L 2828 2175 
z
M 2828 3200 
L 3894 3200 
L 3894 3866 
L 2828 3866 
L 2828 3200 
z
M 1703 734 
Q 1894 484 2241 313 
Q 2675 94 3963 94 
Q 4863 94 6144 178 
Q 6025 -50 5978 -300 
Q 4931 -341 4378 -341 
Q 2803 -341 2228 -122 
Q 1756 50 1519 397 
Q 1106 -75 647 -447 
L 366 19 
Q 847 309 1263 678 
L 1263 2303 
L 378 2303 
L 378 2731 
L 1703 2731 
L 1703 734 
z
M 1516 3775 
Q 1053 4347 563 4738 
L 878 5056 
Q 1466 4597 1856 4128 
L 1516 3775 
z
" transform="scale(0.015625)"/>
      <path id="IPAexGothic-3081" d="M 1588 4550 
Q 1709 3969 1881 3431 
Q 2488 3791 3309 3891 
Q 3444 4513 3488 4972 
L 3994 4878 
Q 3922 4456 3800 3897 
Q 4666 3838 5169 3397 
Q 5513 3103 5650 2753 
Q 5784 2413 5784 1900 
Q 5784 1081 5106 550 
Q 4500 75 3397 -128 
L 3103 331 
Q 4238 484 4784 944 
Q 5253 1334 5253 1913 
Q 5253 2428 5100 2725 
Q 4981 2963 4716 3156 
Q 4331 3441 3694 3500 
Q 3363 2388 2766 1428 
Q 2872 1241 3084 966 
L 2725 647 
Q 2597 813 2475 1019 
Q 1834 231 1313 231 
Q 966 231 756 556 
Q 544 884 544 1338 
Q 544 2300 1484 3156 
Q 1250 3903 1153 4353 
L 1588 4550 
z
M 1631 2725 
Q 991 2069 991 1378 
Q 991 738 1344 738 
Q 1709 738 2228 1428 
Q 1894 2025 1631 2725 
z
M 3206 3488 
Q 2519 3381 2009 3028 
Q 2266 2306 2516 1863 
Q 3003 2763 3206 3488 
z
" transform="scale(0.015625)"/>
      <path id="IPAexGothic-65b9" d="M 2931 3750 
L 2925 3616 
Q 2916 3203 2872 2778 
L 5244 2778 
Q 5175 781 5000 156 
Q 4913 -144 4691 -247 
Q 4528 -325 4194 -325 
Q 3759 -325 3256 -263 
L 3144 269 
Q 3700 156 4141 156 
Q 4491 156 4556 463 
Q 4725 1197 4744 2350 
L 2822 2350 
Q 2822 2313 2816 2288 
Q 2538 428 916 -484 
L 563 -94 
Q 1859 491 2247 1869 
Q 2422 2488 2450 3750 
L 409 3750 
L 409 4178 
L 2931 4178 
L 2931 5175 
L 3431 5175 
L 3431 4178 
L 5984 4178 
L 5984 3750 
L 2931 3750 
z
" transform="scale(0.015625)"/>
      <path id="IPAexGothic-ff08" d="M 5419 -434 
Q 4197 769 4197 2438 
Q 4197 4097 5419 5300 
L 5919 5300 
Q 4678 4078 4678 2425 
Q 4678 788 5919 -434 
L 5419 -434 
z
" transform="scale(0.015625)"/>
      <path id="IPAexGothic-34" d="M 3813 1159 
L 3059 1159 
L 3059 63 
L 2547 63 
L 2547 1159 
L 197 1159 
L 197 1672 
L 2456 4678 
L 3059 4678 
L 3059 1634 
L 3813 1634 
L 3813 1159 
z
M 2578 4109 
L 2559 4109 
Q 2278 3656 2003 3284 
L 759 1634 
L 2547 1634 
L 2547 3144 
Q 2547 3481 2578 4109 
z
" transform="scale(0.015625)"/>
      <path id="IPAexGothic-30" d="M 2038 4725 
Q 2881 4725 3334 3944 
Q 3694 3325 3694 2344 
Q 3694 1372 3334 741 
Q 2888 -31 2016 -31 
Q 1147 -31 700 741 
Q 341 1372 341 2350 
Q 341 3713 1000 4334 
Q 1419 4725 2038 4725 
z
M 2016 4266 
Q 1516 4266 1228 3759 
Q 934 3247 934 2344 
Q 934 1456 1222 947 
Q 1513 447 2016 447 
Q 2619 447 2909 1153 
Q 3100 1622 3100 2375 
Q 3100 3256 2806 3759 
Q 2509 4266 2016 4266 
z
" transform="scale(0.015625)"/>
      <path id="IPAexGothic-5206" d="M 3031 2431 
Q 2916 1378 2528 759 
Q 1991 -81 941 -469 
L 625 -53 
Q 2356 488 2541 2431 
L 1375 2431 
L 1375 2772 
Q 1044 2431 653 2156 
L 313 2534 
Q 1600 3425 2219 5056 
L 2688 4875 
Q 2200 3672 1453 2847 
L 4966 2847 
Q 4878 559 4741 94 
Q 4666 -163 4459 -250 
Q 4288 -322 3941 -322 
Q 3525 -322 2981 -263 
L 2884 256 
Q 3441 138 3844 138 
Q 4213 138 4281 438 
Q 4388 931 4472 2431 
L 3031 2431 
z
M 5747 2303 
Q 4416 3238 3506 4934 
L 3934 5113 
Q 4747 3572 6084 2747 
L 5747 2303 
z
" transform="scale(0.015625)"/>
      <path id="IPAexGothic-ff09" d="M 481 -434 
Q 1722 788 1722 2431 
Q 1722 4066 481 5300 
L 981 5300 
Q 2203 4097 2203 2431 
Q 2203 769 981 -434 
L 481 -434 
z
" transform="scale(0.015625)"/>
     </defs>
     <use xlink:href="#IPAexGothic-6f14"/>
     <use xlink:href="#IPAexGothic-7fd2" x="100"/>
     <use xlink:href="#IPAexGothic-306e" x="200"/>
     <use xlink:href="#IPAexGothic-9032" x="300"/>
     <use xlink:href="#IPAexGothic-3081" x="400"/>
     <use xlink:href="#IPAexGothic-65b9" x="500"/>
     <use xlink:href="#IPAexGothic-ff08" x="600"/>
     <use xlink:href="#IPAexGothic-34" x="700"/>
     <use xlink:href="#IPAexGothic-30" x="762.988281"/>
     <use xlink:href="#IPAexGothic-5206" x="825.976562"/>
     <use xlink:href="#IPAexGothic-ff09" x="925.976562"/>
    </g>
   </g>
   <g id="text_3">
    <!-- notebooks/ch3_image_processing.ipynb の演習セクション -->
    <g style="fill: #7f8c8d" transform="translate(31.68 73.321875) scale(0.12 -0.12)">
     <defs>
      <path id="IPAexGothic-6e" d="M 3328 63 
L 2778 63 
L 2778 2041 
Q 2778 2853 2106 2853 
Q 1428 2853 1113 2041 
L 1113 63 
L 563 63 
L 563 3250 
L 1075 3250 
L 1075 2675 
Q 1525 3316 2222 3316 
Q 3328 3316 3328 2072 
L 3328 63 
z
" transform="scale(0.015625)"/>
      <path id="IPAexGothic-6f" d="M 1919 3341 
Q 2594 3341 3056 2888 
Q 3531 2413 3531 1638 
Q 3531 888 3066 422 
Q 2609 -31 1919 -31 
Q 1228 -31 781 416 
Q 313 881 313 1656 
Q 313 2413 788 2888 
Q 1241 3341 1919 3341 
z
M 1919 2919 
Q 1519 2919 1241 2631 
Q 888 2278 888 1650 
Q 888 1031 1234 684 
Q 1516 403 1919 403 
Q 2331 403 2609 691 
Q 2956 1038 2956 1672 
Q 2956 2269 2603 2631 
Q 2316 2919 1919 2919 
z
" transform="scale(0.015625)"/>
      <path id="IPAexGothic-74" d="M 2125 241 
Q 1769 -6 1397 -6 
Q 653 -6 653 831 
L 653 2859 
L 219 2859 
L 219 3250 
L 653 3250 
L 653 3966 
L 1178 4228 
L 1178 3250 
L 2063 3250 
L 2063 2859 
L 1178 2859 
L 1178 906 
Q 1178 416 1513 416 
Q 1738 416 1941 588 
L 2125 241 
z
" transform="scale(0.015625)"/>
      <path id="IPAexGothic-65" d="M 863 1594 
Q 891 1041 1209 722 
Q 1534 397 1997 397 
Q 2606 397 2963 966 
L 3322 728 
Q 2869 -31 1931 -31 
Q 1222 -31 766 422 
Q 306 884 306 1641 
Q 306 2444 788 2925 
Q 1216 3353 1856 3353 
Q 2459 3353 2866 2956 
Q 3322 2494 3322 1722 
L 3322 1594 
L 863 1594 
z
M 2756 1997 
Q 2709 2431 2450 2681 
Q 2194 2938 1844 2938 
Q 1438 2938 1150 2591 
Q 953 2356 894 1997 
L 2756 1997 
z
" transform="scale(0.015625)"/>
      <path id="IPAexGothic-62" d="M 1125 2731 
Q 1550 3341 2219 3341 
Q 2788 3341 3191 2938 
Q 3659 2469 3659 1644 
Q 3659 838 3191 372 
Q 2788 -31 2206 -31 
Q 1559 -31 1088 516 
L 1009 44 
L 581 44 
L 581 4794 
L 1125 4794 
L 1125 2731 
z
M 1125 1997 
L 1125 1253 
Q 1125 888 1528 600 
Q 1803 403 2119 403 
Q 2488 403 2744 659 
Q 3084 1009 3084 1631 
Q 3084 2194 2803 2553 
Q 2525 2900 2125 2900 
Q 1759 2900 1438 2578 
Q 1125 2266 1125 1997 
z
" transform="scale(0.015625)"/>
      <path id="IPAexGothic-6b" d="M 3244 63 
L 2578 63 
L 1484 1613 
L 1119 1259 
L 1119 63 
L 581 63 
L 581 4794 
L 1119 4794 
L 1119 1766 
L 2463 3250 
L 3153 3250 
L 1828 1925 
L 3244 63 
z
" transform="scale(0.015625)"/>
      <path id="IPAexGothic-73" d="M 2234 2547 
Q 1938 2931 1484 2931 
Q 891 2931 891 2475 
Q 891 2153 1531 1944 
L 1741 1875 
Q 2650 1578 2650 894 
Q 2650 434 2272 172 
Q 1972 -31 1497 -31 
Q 766 -31 256 503 
L 603 819 
Q 997 397 1516 397 
Q 2131 397 2131 875 
Q 2131 1238 1453 1478 
L 1234 1553 
Q 378 1853 378 2431 
Q 378 2797 628 3047 
Q 928 3347 1453 3347 
Q 2156 3347 2606 2859 
L 2234 2547 
z
" transform="scale(0.015625)"/>
      <path id="IPAexGothic-2f" d="M 2719 4709 
L 600 -884 
L 300 -763 
L 2413 4831 
L 2719 4709 
z
" transform="scale(0.015625)"/>
      <path id="IPAexGothic-63" d="M 3269 784 
Q 2834 -31 1900 -31 
Q 1228 -31 788 409 
Q 313 891 313 1663 
Q 313 2428 788 2913 
Q 1222 3347 1881 3347 
Q 2813 3347 3206 2541 
L 2763 2309 
Q 2484 2900 1900 2900 
Q 1516 2900 1234 2619 
Q 881 2266 881 1650 
Q 881 1069 1222 728 
Q 1522 428 1956 428 
Q 2547 428 2847 1016 
L 3269 784 
z
" transform="scale(0.015625)"/>
      <path id="IPAexGothic-5f" d="M 3200 -750 
L 0 -750 
L 0 -431 
L 3200 -431 
L 3200 -750 
z
" transform="scale(0.015625)"/>
      <path id="IPAexGothic-69" d="M 1178 3928 
L 550 3928 
L 550 4569 
L 1178 4569 
L 1178 3928 
z
M 1138 63 
L 588 63 
L 588 3250 
L 1138 3250 
L 1138 63 
z
" transform="scale(0.015625)"/>
      <path id="IPAexGothic-6d" d="M 5022 63 
L 4472 63 
L 4472 2059 
Q 4472 2869 3847 2869 
Q 3550 2869 3303 2594 
Q 3128 2397 3059 2103 
L 3059 63 
L 2509 63 
L 2509 2066 
Q 2509 2869 1919 2869 
Q 1606 2869 1369 2594 
Q 1113 2306 1113 2041 
L 1113 63 
L 563 63 
L 563 3250 
L 1075 3250 
L 1075 2700 
Q 1391 3316 2028 3316 
Q 2725 3316 2956 2647 
Q 3303 3316 3953 3316 
Q 4478 3316 4772 2944 
Q 5022 2638 5022 2072 
L 5022 63 
z
" transform="scale(0.015625)"/>
      <path id="IPAexGothic-61" d="M 3156 63 
L 2672 63 
Q 2559 303 2531 556 
L 2509 556 
Q 2147 -25 1428 -25 
Q 934 -25 622 288 
Q 347 563 347 959 
Q 347 1947 2050 1997 
L 2478 2009 
L 2478 2175 
Q 2478 2509 2288 2700 
Q 2088 2900 1775 2900 
Q 1238 2900 969 2378 
L 494 2597 
Q 938 3328 1788 3328 
Q 2375 3328 2691 3000 
Q 2984 2706 2984 2169 
L 2984 997 
Q 2984 400 3156 63 
z
M 2491 1625 
L 2141 1619 
Q 903 1591 903 953 
Q 903 728 1050 581 
Q 1231 403 1525 403 
Q 1934 403 2234 703 
Q 2491 969 2491 1344 
L 2491 1625 
z
" transform="scale(0.015625)"/>
      <path id="IPAexGothic-67" d="M 1331 1150 
Q 1006 1122 1006 900 
Q 1006 613 1763 575 
L 2131 556 
Q 3303 497 3303 -294 
Q 3303 -700 2925 -959 
Q 2519 -1253 1794 -1253 
Q 1138 -1253 738 -1028 
Q 353 -809 353 -428 
Q 353 84 1075 247 
L 1075 269 
Q 506 413 506 778 
Q 506 1116 994 1297 
Q 456 1575 456 2181 
Q 456 2650 769 2963 
Q 1128 3322 1738 3322 
Q 2125 3322 2422 3153 
Q 2650 3453 3259 3463 
L 3259 3013 
Q 2838 3003 2703 2938 
Q 3034 2613 3034 2169 
Q 3034 1728 2734 1425 
Q 2400 1094 1813 1094 
Q 1563 1094 1331 1150 
z
M 1734 2919 
Q 1409 2919 1197 2706 
Q 988 2497 988 2181 
Q 988 1872 1184 1684 
Q 1397 1472 1756 1472 
Q 2094 1472 2297 1678 
Q 2503 1881 2503 2203 
Q 2503 2497 2297 2700 
Q 2081 2919 1734 2919 
z
M 1753 159 
Q 903 159 903 -366 
Q 903 -875 1800 -875 
Q 2378 -875 2638 -606 
Q 2772 -481 2772 -313 
Q 2772 159 1753 159 
z
" transform="scale(0.015625)"/>
      <path id="IPAexGothic-70" d="M 1075 2688 
Q 1525 3341 2206 3341 
Q 2769 3341 3172 2938 
Q 3641 2469 3641 1644 
Q 3641 841 3178 372 
Q 2775 -31 2200 -31 
Q 1569 -31 1106 497 
L 1106 -1216 
L 563 -1216 
L 563 3250 
L 1075 3250 
L 1075 2688 
z
M 1106 1950 
L 1106 1291 
Q 1106 897 1516 600 
Q 1791 403 2106 403 
Q 2469 403 2725 659 
Q 3066 997 3066 1631 
Q 3066 2200 2784 2559 
Q 2503 2900 2100 2900 
Q 1656 2900 1338 2484 
Q 1106 2184 1106 1950 
z
" transform="scale(0.015625)"/>
      <path id="IPAexGothic-72" d="M 2309 3316 
L 2213 2769 
Q 2106 2791 2022 2791 
Q 1653 2791 1413 2444 
Q 1113 2006 1113 1675 
L 1113 63 
L 563 63 
L 563 3250 
L 1081 3250 
L 1056 2303 
L 1069 2303 
Q 1422 3341 2097 3341 
Q 2206 3341 2309 3316 
z
" transform="scale(0.015625)"/>
      <path id="IPAexGothic-79" d="M 3122 3250 
L 1575 -488 
Q 1278 -1203 550 -1203 
L 478 -1203 
L 344 -703 
L 447 -703 
Q 969 -703 1150 -238 
L 1356 275 
L 38 3250 
L 659 3250 
L 1363 1459 
Q 1528 1025 1606 781 
L 1625 781 
Q 1750 1169 1863 1459 
L 2528 3250 
L 3122 3250 
z
" transform="scale(0.015625)"/>
      <path id="IPAexGothic-30bb" d="M 2059 4878 
L 2584 4878 
L 2584 3397 
L 5291 3731 
L 5606 3444 
Q 4838 2313 4006 1556 
L 3569 1875 
Q 4297 2459 4844 3231 
L 2584 2931 
L 2584 978 
Q 2584 734 2738 669 
Q 2922 584 3616 584 
Q 4419 584 5425 697 
L 5444 172 
Q 4563 103 3844 103 
Q 2678 103 2359 256 
Q 2059 403 2059 863 
L 2059 2859 
L 638 2675 
L 588 3150 
L 2059 3334 
L 2059 4878 
z
" transform="scale(0.015625)"/>
      <path id="IPAexGothic-30af" d="M 4934 4191 
L 5272 3941 
Q 4894 2334 4031 1300 
Q 3275 391 2028 -225 
L 1656 184 
Q 2875 691 3641 1625 
Q 4403 2553 4691 3731 
L 2903 3731 
Q 2188 2653 1356 1959 
L 978 2309 
Q 2328 3400 2931 5022 
L 3422 4881 
Q 3363 4672 3141 4191 
L 4934 4191 
z
" transform="scale(0.015625)"/>
      <path id="IPAexGothic-30b7" d="M 2828 3531 
Q 2219 4056 1613 4359 
L 1913 4781 
Q 2503 4491 3169 3981 
L 2828 3531 
z
M 1163 500 
Q 3944 1094 5338 3525 
L 5688 3128 
Q 4297 700 1484 0 
L 1163 500 
z
M 2072 2278 
Q 1466 2800 831 3109 
L 1131 3541 
Q 1806 3213 2406 2725 
L 2072 2278 
z
" transform="scale(0.015625)"/>
      <path id="IPAexGothic-30e7" d="M 1625 3469 
L 4653 3469 
L 4653 0 
L 4172 0 
L 4172 294 
L 1553 294 
L 1553 753 
L 4172 753 
L 4172 1734 
L 1766 1734 
L 1766 2169 
L 4172 2169 
L 4172 3028 
L 1625 3028 
L 1625 3469 
z
" transform="scale(0.015625)"/>
      <path id="IPAexGothic-30f3" d="M 2444 3084 
Q 1816 3656 1056 4084 
L 1381 4519 
Q 2063 4191 2816 3559 
L 2444 3084 
z
M 1100 609 
Q 3984 1106 5216 3828 
L 5619 3469 
Q 4413 794 1434 103 
L 1100 609 
z
" transform="scale(0.015625)"/>
     </defs>
     <use xlink:href="#IPAexGothic-6e"/>
     <use xlink:href="#IPAexGothic-6f" x="60.400391"/>
     <use xlink:href="#IPAexGothic-74" x="120.800781"/>
     <use xlink:href="#IPAexGothic-65" x="155.419922"/>
     <use xlink:href="#IPAexGothic-62" x="212.304688"/>
     <use xlink:href="#IPAexGothic-6f" x="274.707031"/>
     <use xlink:href="#IPAexGothic-6f" x="335.107422"/>
     <use xlink:href="#IPAexGothic-6b" x="395.507812"/>
     <use xlink:href="#IPAexGothic-73" x="447.314453"/>
     <use xlink:href="#IPAexGothic-2f" x="493.505859"/>
     <use xlink:href="#IPAexGothic-63" x="543.505859"/>
     <use xlink:href="#IPAexGothic-68" x="597.900391"/>
     <use xlink:href="#IPAexGothic-33" x="658.59375"/>
     <use xlink:href="#IPAexGothic-5f" x="721.582031"/>
     <use xlink:href="#IPAexGothic-69" x="771.582031"/>
     <use xlink:href="#IPAexGothic-6d" x="798.583984"/>
     <use xlink:href="#IPAexGothic-61" x="885.693359"/>
     <use xlink:href="#IPAexGothic-67" x="940.673828"/>
     <use xlink:href="#IPAexGothic-65" x="996.191406"/>
     <use xlink:href="#IPAexGothic-5f" x="1053.076172"/>
     <use xlink:href="#IPAexGothic-70" x="1103.076172"/>
     <use xlink:href="#IPAexGothic-72" x="1165.185547"/>
     <use xlink:href="#IPAexGothic-6f" x="1202.197266"/>
     <use xlink:href="#IPAexGothic-63" x="1262.597656"/>
     <use xlink:href="#IPAexGothic-65" x="1316.992188"/>
     <use xlink:href="#IPAexGothic-73" x="1373.876953"/>
     <use xlink:href="#IPAexGothic-73" x="1420.068359"/>
     <use xlink:href="#IPAexGothic-69" x="1466.259766"/>
     <use xlink:href="#IPAexGothic-6e" x="1493.261719"/>
     <use xlink:href="#IPAexGothic-67" x="1553.662109"/>
     <use xlink:href="#IPAexGothic-2e" x="1609.179688"/>
     <use xlink:href="#IPAexGothic-69" x="1635.595703"/>
     <use xlink:href="#IPAexGothic-70" x="1662.597656"/>
     <use xlink:href="#IPAexGothic-79" x="1724.707031"/>
     <use xlink:href="#IPAexGothic-6e" x="1773.925781"/>
     <use xlink:href="#IPAexGothic-62" x="1834.326172"/>
     <use xlink:href="#IPAexGothic-20" x="1896.728516"/>
     <use xlink:href="#IPAexGothic-306e" x="1923.730469"/>
     <use xlink:href="#IPAexGothic-6f14" x="2023.730469"/>
     <use xlink:href="#IPAexGothic-7fd2" x="2123.730469"/>
     <use xlink:href="#IPAexGothic-30bb" x="2223.730469"/>
     <use xlink:href="#IPAexGothic-30af" x="2323.730469"/>
     <use xlink:href="#IPAexGothic-30b7" x="2423.730469"/>
     <use xlink:href="#IPAexGothic-30e7" x="2523.730469"/>
     <use xlink:href="#IPAexGothic-30f3" x="2623.730469"/>
    </g>
   </g>
   <g id="text_4">
    <!-- 問1 -->
    <g style="fill: #ffffff" transform="translate(34.860937 94.074375) scale(0.12 -0.12)">
     <defs>
      <path id="IPAexGothic-554f" d="M 4384 2291 
L 4384 525 
L 2400 525 
L 2400 172 
L 1972 172 
L 1972 2291 
L 4384 2291 
z
M 3956 1919 
L 2400 1919 
L 2400 897 
L 3956 897 
L 3956 1919 
z
M 2913 4984 
L 2913 2884 
L 1094 2884 
L 1094 -450 
L 641 -450 
L 641 4984 
L 2913 4984 
z
M 1094 4606 
L 1094 4109 
L 2497 4109 
L 2497 4606 
L 1094 4606 
z
M 1094 3769 
L 1094 3250 
L 2497 3250 
L 2497 3769 
L 1094 3769 
z
M 5753 4984 
L 5753 91 
Q 5753 -403 5244 -403 
Q 4875 -403 4444 -366 
L 4366 97 
Q 4750 38 5063 38 
Q 5300 38 5300 281 
L 5300 2884 
L 3444 2884 
L 3444 4984 
L 5753 4984 
z
M 3859 4606 
L 3859 4109 
L 5300 4109 
L 5300 4606 
L 3859 4606 
z
M 3859 3769 
L 3859 3250 
L 5300 3250 
L 5300 3769 
L 3859 3769 
z
" transform="scale(0.015625)"/>
      <path id="IPAexGothic-31" d="M 2463 63 
L 1900 63 
L 1900 4103 
Q 1372 3922 788 3797 
L 684 4231 
Q 1519 4441 2106 4731 
L 2463 4731 
L 2463 63 
z
" transform="scale(0.015625)"/>
     </defs>
     <use xlink:href="#IPAexGothic-554f"/>
     <use xlink:href="#IPAexGothic-31" x="100"/>
    </g>
   </g>
   <g id="text_5">
    <!-- 好きな数字（0〜9）を選んで、フィルタ処理の前後を並べて表示する -->
    <g style="fill: #2c3e50" transform="translate(64.8 91.126875) scale(0.14 -0.14)">
     <defs>
      <path id="IPAexGothic-597d" d="M 2844 4025 
Q 2756 2238 2247 1172 
Q 2509 966 2991 544 
L 2716 141 
Q 2419 447 2044 775 
Q 1625 44 903 -488 
L 559 -122 
Q 1263 313 1709 1056 
Q 1363 1331 1056 1528 
Q 1000 1338 897 1031 
L 525 1266 
Q 909 2438 1128 3616 
L 481 3616 
L 481 4025 
L 1203 4025 
Q 1288 4516 1391 5253 
L 1825 5166 
L 1763 4756 
Q 1672 4191 1641 4025 
L 2844 4025 
z
M 2369 3616 
L 1563 3616 
Q 1450 2969 1172 1913 
Q 1528 1703 1903 1434 
Q 2266 2269 2369 3591 
L 2369 3616 
z
M 4706 3316 
L 4706 2553 
L 6119 2553 
L 6119 2131 
L 4744 2131 
L 4744 141 
Q 4744 -353 4181 -353 
Q 3788 -353 3416 -313 
L 3325 159 
Q 3756 100 4081 100 
Q 4291 100 4291 294 
L 4291 2131 
L 2838 2131 
L 2838 2553 
L 4253 2553 
L 4253 3456 
Q 4291 3494 4322 3513 
Q 4791 3894 5166 4366 
L 3050 4366 
L 3050 4781 
L 5653 4781 
L 5891 4525 
Q 5331 3844 4706 3316 
z
" transform="scale(0.015625)"/>
      <path id="IPAexGothic-304d" d="M 2944 1600 
Q 2369 1600 2053 1428 
Q 1772 1275 1772 1019 
Q 1772 666 2200 481 
Q 2600 309 3903 309 
Q 4138 309 4397 331 
L 4422 -147 
Q 4203 -166 3969 -166 
Q 2325 -166 1819 141 
Q 1313 444 1313 994 
Q 1313 1447 1791 1738 
Q 2219 1997 2859 1997 
Q 3319 1997 3606 1947 
Q 3894 1894 4216 1759 
Q 3953 2050 3506 2791 
Q 2263 2547 1191 2491 
L 1094 2956 
Q 2263 2966 3281 3175 
Q 3019 3647 2950 3794 
Q 2125 3641 1253 3622 
L 1166 4063 
Q 2013 4063 2750 4184 
Q 2478 4744 2381 4984 
L 2841 5131 
Q 2925 4916 3213 4281 
Q 3888 4438 4459 4709 
L 4672 4313 
Q 4119 4056 3409 3891 
Q 3638 3447 3738 3284 
Q 4528 3503 5113 3794 
L 5331 3366 
Q 4738 3094 3953 2900 
Q 4272 2366 4903 1484 
L 4575 1147 
Q 3888 1600 2944 1600 
z
" transform="scale(0.015625)"/>
      <path id="IPAexGothic-306a" d="M 3906 3147 
L 4372 3147 
Q 4381 2278 4444 1272 
Q 5244 1003 5838 631 
L 5556 222 
Q 4953 600 4463 813 
Q 4478 263 4234 22 
Q 3984 -225 3419 -225 
Q 2897 -225 2563 0 
Q 2216 231 2216 647 
Q 2216 1081 2656 1319 
Q 2959 1484 3297 1484 
Q 3638 1484 3969 1413 
Q 3916 2219 3906 3147 
z
M 3975 984 
Q 3631 1081 3297 1081 
Q 3031 1081 2856 978 
Q 2663 863 2663 653 
Q 2663 197 3400 197 
Q 3750 197 3875 378 
Q 3997 556 3975 984 
z
M 738 3928 
Q 1453 3884 1997 3938 
Q 2144 4381 2294 5125 
L 2784 5050 
Q 2684 4559 2516 3988 
Q 2969 4031 3559 4172 
L 3578 3713 
Q 2919 3575 2375 3531 
Q 1853 2028 1044 831 
L 603 1113 
Q 1325 2063 1856 3488 
Q 1063 3459 763 3475 
L 738 3928 
z
M 5538 2759 
Q 5000 3353 4263 3853 
L 4591 4191 
Q 5338 3728 5897 3128 
L 5538 2759 
z
" transform="scale(0.015625)"/>
      <path id="IPAexGothic-6570" d="M 2847 1553 
Q 2741 1006 2425 534 
Q 2625 441 3091 203 
L 2809 -188 
Q 2541 0 2144 209 
Q 1569 -291 703 -500 
L 422 -125 
Q 1263 19 1747 406 
Q 1222 650 734 816 
Q 975 1172 1147 1503 
L 1172 1553 
L 359 1553 
L 359 1925 
L 1344 1925 
Q 1406 2066 1569 2475 
L 1691 2450 
L 1691 3372 
Q 1250 2738 550 2303 
L 275 2663 
Q 1019 3013 1528 3641 
L 378 3641 
L 378 4006 
L 1691 4006 
L 1691 5313 
L 2113 5313 
L 2113 4006 
L 3297 4006 
L 3297 3641 
L 2113 3641 
L 2113 3513 
Q 2659 3291 3175 2963 
L 2956 2584 
Q 2553 2922 2113 3159 
L 2113 2372 
L 1966 2372 
Q 1928 2288 1872 2141 
Q 1806 1975 1784 1925 
L 3378 1925 
L 3378 1553 
L 2847 1553 
z
M 2419 1553 
L 1613 1553 
Q 1478 1269 1313 997 
Q 1559 909 2047 703 
Q 2313 1047 2419 1553 
z
M 4363 1163 
Q 3953 1781 3738 2638 
Q 3575 2281 3428 2016 
L 3103 2406 
Q 3675 3444 3916 5291 
L 4363 5200 
Q 4284 4666 4197 4197 
L 6009 4197 
L 6009 3775 
L 5503 3775 
Q 5397 2275 4869 1191 
Q 5419 503 6144 75 
L 5822 -378 
Q 5188 106 4631 788 
Q 4113 34 3341 -463 
L 3031 -78 
Q 3888 406 4363 1163 
z
M 4588 1594 
Q 4938 2388 5059 3775 
L 4100 3775 
Q 4041 3519 3972 3288 
Q 3981 3250 3991 3194 
Q 4175 2256 4588 1594 
z
M 1003 4116 
Q 878 4544 638 4934 
L 1053 5094 
Q 1247 4788 1438 4269 
L 1003 4116 
z
M 2316 4269 
Q 2550 4688 2688 5131 
L 3128 4997 
Q 2966 4588 2675 4128 
L 2316 4269 
z
" transform="scale(0.015625)"/>
      <path id="IPAexGothic-5b57" d="M 3419 4434 
L 5778 4434 
L 5778 3141 
L 5297 3141 
L 5297 4031 
L 1091 4031 
L 1091 3141 
L 616 3141 
L 616 4434 
L 2931 4434 
L 2931 5313 
L 3419 5313 
L 3419 4434 
z
M 3463 2197 
L 3463 1875 
L 6019 1875 
L 6019 1459 
L 3497 1459 
L 3497 0 
Q 3497 -272 3363 -375 
Q 3241 -459 2944 -459 
Q 2553 -459 2063 -409 
L 1984 63 
Q 2538 -13 2834 -13 
Q 3016 -13 3016 147 
L 3016 1459 
L 391 1459 
L 391 1875 
L 2988 1875 
L 2988 2406 
Q 3606 2650 4103 2991 
L 1416 2991 
L 1416 3413 
L 4816 3413 
L 5031 3181 
Q 4219 2547 3463 2197 
z
" transform="scale(0.015625)"/>
      <path id="IPAexGothic-301c" d="M 678 2591 
Q 1259 3116 2022 3116 
Q 2559 3116 3359 2603 
Q 4019 2188 4353 2188 
Q 5056 2188 5722 2853 
L 5722 2259 
Q 5141 1734 4378 1734 
Q 3806 1734 3041 2234 
Q 2381 2663 2041 2663 
Q 1344 2663 678 1997 
L 678 2591 
z
" transform="scale(0.015625)"/>
      <path id="IPAexGothic-39" d="M 2984 2356 
Q 2544 1716 1813 1716 
Q 1253 1716 847 2056 
Q 366 2459 366 3163 
Q 366 3813 769 4266 
Q 1181 4725 1869 4725 
Q 2800 4725 3241 3950 
Q 3559 3378 3559 2472 
Q 3559 1250 3041 588 
Q 2553 -31 1769 -31 
Q 859 -31 391 703 
L 853 953 
Q 1156 428 1753 428 
Q 2922 428 3009 2356 
L 2984 2356 
z
M 1888 4278 
Q 1450 4278 1172 3950 
Q 922 3653 922 3200 
Q 922 2741 1159 2478 
Q 1434 2163 1906 2163 
Q 2431 2163 2728 2572 
Q 2925 2847 2925 3169 
Q 2925 3553 2694 3863 
Q 2375 4278 1888 4278 
z
" transform="scale(0.015625)"/>
      <path id="IPAexGothic-3092" d="M 1094 4263 
Q 1544 4222 2359 4222 
Q 2581 4734 2700 5163 
L 3175 5028 
Q 2997 4538 2859 4256 
Q 3516 4284 4294 4459 
L 4356 4019 
Q 3603 3869 2656 3819 
Q 2391 3284 2059 2797 
Q 2531 3200 2963 3200 
Q 3638 3200 3859 2378 
Q 4556 2681 5338 2950 
L 5575 2528 
Q 4641 2253 3941 1956 
Q 3981 1678 3994 1028 
L 3513 991 
Q 3513 1456 3494 1753 
Q 2388 1194 2388 716 
Q 2388 428 2753 328 
Q 3066 241 3806 241 
Q 4394 241 5178 344 
L 5216 -128 
Q 4434 -213 3653 -213 
Q 2656 -213 2244 41 
Q 1913 244 1913 631 
Q 1913 1094 2344 1497 
Q 2709 1841 3428 2181 
Q 3266 2797 2878 2797 
Q 2238 2797 1209 1419 
L 838 1694 
Q 1625 2716 2163 3800 
Q 1522 3800 1088 3825 
L 1094 4263 
z
" transform="scale(0.015625)"/>
      <path id="IPAexGothic-9078" d="M 1547 653 
Q 1763 363 2041 241 
Q 2447 63 3606 63 
Q 4566 63 6128 159 
Q 6009 -113 5981 -306 
Q 4584 -366 3838 -366 
Q 2631 -366 2097 -206 
Q 1669 -81 1388 288 
Q 1069 -100 588 -494 
L 325 -44 
Q 728 191 1119 531 
L 1119 2309 
L 331 2309 
L 331 2725 
L 1547 2725 
L 1547 653 
z
M 2463 3988 
L 2463 3616 
Q 2463 3484 2531 3456 
Q 2644 3403 2916 3403 
Q 3419 3403 3500 3513 
Q 3538 3569 3556 3859 
L 3928 3781 
Q 3900 3288 3734 3181 
Q 3631 3106 3353 3097 
L 3353 2591 
L 4313 2591 
L 4313 3116 
Q 4063 3184 4063 3438 
L 4063 4306 
L 5278 4306 
L 5278 4716 
L 3897 4716 
L 3897 5063 
L 5675 5063 
L 5675 3988 
L 4453 3988 
L 4453 3634 
Q 4453 3500 4509 3463 
Q 4603 3409 4869 3409 
Q 5063 3409 5266 3428 
Q 5447 3438 5478 3544 
Q 5506 3631 5516 3834 
L 5888 3763 
Q 5875 3347 5753 3213 
Q 5625 3084 4881 3084 
L 4784 3084 
L 4728 3084 
L 4728 2591 
L 5719 2591 
L 5719 2244 
L 4728 2244 
L 4728 1691 
L 5969 1691 
L 5969 1325 
L 1809 1325 
L 1809 1691 
L 2934 1691 
L 2934 2244 
L 2006 2244 
L 2006 2591 
L 2934 2591 
L 2934 3078 
L 2916 3078 
L 2866 3078 
Q 2316 3078 2200 3153 
Q 2072 3244 2072 3456 
L 2072 4306 
L 3281 4306 
L 3281 4716 
L 1900 4716 
L 1900 5063 
L 3678 5063 
L 3678 3988 
L 2463 3988 
z
M 4313 2244 
L 3353 2244 
L 3353 1691 
L 4313 1691 
L 4313 2244 
z
M 1344 3775 
Q 916 4341 459 4750 
L 772 5038 
Q 1272 4619 1694 4091 
L 1344 3775 
z
M 1975 550 
Q 2728 844 3256 1269 
L 3603 1013 
Q 3022 544 2291 213 
L 1975 550 
z
M 5466 238 
Q 4816 706 4147 1019 
L 4453 1306 
Q 5303 916 5816 569 
L 5466 238 
z
" transform="scale(0.015625)"/>
      <path id="IPAexGothic-3093" d="M 659 31 
Q 1684 2316 3066 4934 
L 3559 4703 
Q 2781 3375 2156 2100 
Q 2659 2572 3109 2572 
Q 3619 2572 3781 2059 
Q 3863 1803 3872 1147 
Q 3881 328 4313 328 
Q 4928 328 5466 1663 
L 5875 1288 
Q 5175 -178 4300 -178 
Q 3400 -178 3400 1069 
L 3400 1119 
Q 3400 2125 3003 2125 
Q 2153 2125 1128 -178 
L 659 31 
z
" transform="scale(0.015625)"/>
      <path id="IPAexGothic-3067" d="M 581 4034 
Q 2978 4363 5466 4556 
L 5509 4097 
Q 4388 4031 3750 3572 
Q 2797 2878 2797 1913 
Q 2797 1169 3291 819 
Q 3778 484 4869 416 
L 4906 -116 
Q 2278 0 2278 1850 
Q 2278 3125 3691 4000 
Q 2066 3784 684 3553 
L 581 4034 
z
M 5631 2522 
Q 5269 3063 4875 3391 
L 5175 3622 
Q 5559 3313 5950 2797 
L 5631 2522 
z
M 5034 2053 
Q 4747 2544 4300 2944 
L 4613 3184 
Q 4984 2878 5369 2328 
L 5034 2053 
z
" transform="scale(0.015625)"/>
      <path id="IPAexGothic-3001" d="M 1325 -409 
Q 859 319 281 856 
L 691 1209 
Q 1225 734 1772 -25 
L 1325 -409 
z
" transform="scale(0.015625)"/>
      <path id="IPAexGothic-30d5" d="M 4966 4294 
L 5263 4019 
Q 4819 894 1966 -97 
L 1600 353 
Q 4234 1156 4684 3822 
L 1044 3756 
L 1044 4244 
L 4966 4294 
z
" transform="scale(0.015625)"/>
      <path id="IPAexGothic-30a3" d="M 3034 -231 
L 3034 2188 
Q 2344 1656 1516 1294 
L 1191 1672 
Q 2981 2431 4128 3922 
L 4519 3634 
Q 4138 3122 3534 2597 
L 3534 -231 
L 3034 -231 
z
" transform="scale(0.015625)"/>
      <path id="IPAexGothic-30eb" d="M 353 331 
Q 1313 994 1544 2022 
Q 1684 2650 1684 4397 
L 2203 4397 
L 2203 4153 
L 2203 4116 
Q 2203 2259 1934 1491 
Q 1619 588 744 -38 
L 353 331 
z
M 3125 4666 
L 3650 4666 
L 3650 769 
Q 4875 1488 5672 2734 
L 6000 2278 
Q 5075 966 3516 63 
L 3125 359 
L 3125 4666 
z
" transform="scale(0.015625)"/>
      <path id="IPAexGothic-30bf" d="M 4978 4263 
L 5313 3988 
Q 4797 2431 4056 1459 
Q 3191 325 1822 -300 
L 1466 109 
Q 2131 381 2613 738 
Q 3053 1066 3531 1600 
Q 2919 2225 2144 2791 
Q 1603 2203 1172 1875 
L 825 2234 
Q 2316 3328 2866 5031 
L 3359 4897 
Q 3325 4775 3109 4263 
L 4978 4263 
z
M 2894 3816 
Q 2709 3522 2438 3169 
Q 3194 2616 3841 2003 
Q 4366 2806 4747 3816 
L 2894 3816 
z
" transform="scale(0.015625)"/>
      <path id="IPAexGothic-524d" d="M 3653 4281 
Q 3913 4741 4134 5319 
L 4638 5184 
Q 4453 4769 4153 4281 
L 6078 4281 
L 6078 3872 
L 319 3872 
L 319 4281 
L 3653 4281 
z
M 3006 3366 
L 3006 25 
Q 3006 -219 2897 -306 
Q 2797 -391 2522 -391 
Q 2294 -391 1938 -359 
L 1881 84 
Q 2178 25 2413 25 
Q 2578 25 2578 172 
L 2578 1031 
L 1228 1031 
L 1228 -447 
L 794 -447 
L 794 3366 
L 3006 3366 
z
M 1228 2981 
L 1228 2394 
L 2578 2394 
L 2578 2981 
L 1228 2981 
z
M 1228 2022 
L 1228 1403 
L 2578 1403 
L 2578 2022 
L 1228 2022 
z
M 2131 4294 
Q 1934 4769 1656 5106 
L 2078 5300 
Q 2353 4959 2584 4500 
L 2131 4294 
z
M 3834 3238 
L 4275 3238 
L 4275 684 
L 3834 684 
L 3834 3238 
z
M 5147 3425 
L 5600 3425 
L 5600 97 
Q 5600 -172 5497 -275 
Q 5384 -409 5013 -409 
Q 4634 -409 4169 -359 
L 4109 97 
Q 4550 19 4934 19 
Q 5147 19 5147 231 
L 5147 3425 
z
" transform="scale(0.015625)"/>
      <path id="IPAexGothic-5f8c" d="M 3309 2475 
Q 3184 2469 2291 2425 
L 2125 2859 
Q 2625 2859 2822 2866 
L 3169 2878 
L 3488 3194 
Q 2891 3844 2375 4238 
L 2700 4563 
Q 2878 4409 3097 4191 
Q 3563 4781 3828 5297 
L 4263 5075 
Q 3853 4431 3366 3916 
Q 3538 3744 3769 3475 
Q 4366 4109 4756 4647 
L 5178 4391 
Q 4525 3594 3719 2891 
L 4519 2925 
Q 5022 2950 5197 2963 
Q 4978 3316 4741 3591 
L 5106 3794 
Q 5606 3197 5972 2516 
L 5569 2259 
Q 5494 2428 5381 2638 
Q 5363 2631 5309 2628 
Q 5259 2625 5234 2622 
Q 4741 2566 3806 2509 
Q 3728 2338 3550 2041 
L 5050 2041 
L 5319 1791 
Q 4978 1122 4441 631 
Q 5069 256 5984 25 
L 5663 -419 
Q 4734 -106 4109 338 
Q 3372 -225 2194 -531 
L 1900 -116 
Q 3009 66 3775 594 
Q 3331 969 3053 1356 
Q 2663 900 2259 625 
L 1959 941 
Q 2838 1559 3309 2475 
z
M 4109 863 
Q 4528 1244 4728 1656 
L 3322 1656 
Q 3613 1263 4109 863 
z
M 1588 2753 
L 1588 -447 
L 1147 -447 
L 1147 2209 
Q 869 1891 550 1613 
L 250 1947 
Q 1216 2806 1803 3938 
L 2206 3738 
Q 1906 3188 1588 2753 
z
M 294 3716 
Q 1213 4375 1663 5209 
L 2078 4997 
Q 1475 4016 588 3372 
L 294 3716 
z
" transform="scale(0.015625)"/>
      <path id="IPAexGothic-4e26" d="M 4025 269 
L 5944 269 
L 5944 -159 
L 447 -159 
L 447 269 
L 2328 269 
L 2328 3469 
L 672 3469 
L 672 3884 
L 3684 3884 
Q 3978 4366 4288 5178 
L 4800 5003 
Q 4509 4375 4203 3884 
L 5791 3884 
L 5791 3469 
L 4025 3469 
L 4025 269 
z
M 3556 269 
L 3556 3469 
L 2797 3469 
L 2797 269 
L 3556 269 
z
M 2163 3938 
Q 1941 4519 1631 4947 
L 2072 5153 
Q 2422 4681 2656 4134 
L 2163 3938 
z
M 1516 825 
Q 1263 1966 894 2822 
L 1356 3003 
Q 1734 2119 2009 1013 
L 1516 825 
z
M 4275 947 
Q 4794 1913 5144 3041 
L 5638 2853 
Q 5228 1672 4697 756 
L 4275 947 
z
" transform="scale(0.015625)"/>
      <path id="IPAexGothic-3079" d="M 416 1894 
Q 1328 2553 2194 3525 
Q 2394 3744 2578 3744 
Q 2766 3744 3022 3488 
Q 4488 2019 5991 1291 
L 5631 819 
Q 4103 1722 2872 2944 
Q 2675 3141 2572 3141 
Q 2478 3141 2297 2928 
Q 1503 2041 734 1431 
L 416 1894 
z
M 5288 3713 
Q 4925 4253 4531 4581 
L 4831 4813 
Q 5216 4503 5606 3988 
L 5288 3713 
z
M 4691 3244 
Q 4400 3734 3956 4134 
L 4269 4375 
Q 4641 4069 5025 3519 
L 4691 3244 
z
" transform="scale(0.015625)"/>
      <path id="IPAexGothic-3066" d="M 581 4034 
Q 2978 4363 5466 4556 
L 5509 4097 
Q 4388 4031 3750 3572 
Q 2797 2878 2797 1913 
Q 2797 1169 3291 819 
Q 3778 484 4869 416 
L 4906 -116 
Q 2278 0 2278 1850 
Q 2278 3125 3691 4000 
Q 2066 3784 684 3553 
L 581 4034 
z
" transform="scale(0.015625)"/>
      <path id="IPAexGothic-8868" d="M 3209 2350 
Q 2856 1944 2328 1563 
L 2328 288 
Q 2975 438 3756 691 
L 3763 275 
Q 2534 -163 1184 -447 
L 978 13 
Q 1566 119 1819 175 
L 1875 188 
L 1875 1275 
Q 1306 941 506 666 
L 219 1056 
Q 1813 1509 2675 2356 
L 384 2356 
L 384 2753 
L 2978 2753 
L 2978 3309 
L 959 3309 
L 959 3694 
L 2978 3694 
L 2978 4219 
L 641 4219 
L 641 4603 
L 2978 4603 
L 2978 5313 
L 3431 5313 
L 3431 4603 
L 5759 4603 
L 5759 4219 
L 3431 4219 
L 3431 3694 
L 5434 3694 
L 5434 3309 
L 3431 3309 
L 3431 2753 
L 6016 2753 
L 6016 2356 
L 3634 2356 
Q 3863 1838 4244 1356 
Q 4781 1756 5166 2191 
L 5588 1894 
Q 5084 1419 4525 1056 
Q 5150 459 6106 66 
L 5734 -356 
Q 3850 575 3209 2350 
z
" transform="scale(0.015625)"/>
      <path id="IPAexGothic-793a" d="M 3488 2822 
L 3488 153 
Q 3488 -144 3334 -247 
Q 3213 -331 2872 -331 
Q 2425 -331 1950 -294 
L 1859 213 
Q 2350 128 2775 128 
Q 3000 128 3000 353 
L 3000 2822 
L 447 2822 
L 447 3250 
L 5950 3250 
L 5950 2822 
L 3488 2822 
z
M 1125 4813 
L 5266 4813 
L 5266 4384 
L 1125 4384 
L 1125 4813 
z
M 5581 244 
Q 4966 1263 4206 2081 
L 4563 2369 
Q 5319 1575 6009 622 
L 5581 244 
z
M 403 616 
Q 1184 1238 1741 2259 
L 2163 2053 
Q 1631 975 763 238 
L 403 616 
z
" transform="scale(0.015625)"/>
      <path id="IPAexGothic-3059" d="M 3322 5075 
L 3816 5075 
L 3816 4063 
Q 4131 4075 5756 4116 
L 5756 3669 
Q 5431 3672 3816 3653 
L 3816 2463 
Q 3956 2125 3956 1741 
Q 3956 922 3519 397 
Q 3128 -72 2309 -409 
L 1941 -31 
Q 3263 453 3488 1363 
Q 3250 1031 2809 1031 
Q 2441 1031 2150 1313 
Q 1875 1588 1875 2050 
Q 1875 2475 2166 2769 
Q 2431 3041 2822 3041 
Q 3088 3041 3322 2881 
L 3322 3641 
Q 3000 3634 609 3547 
L 609 3988 
Q 1197 4000 2106 4022 
Q 3066 4047 3322 4050 
L 3322 5075 
z
M 3372 2044 
Q 3372 2300 3194 2478 
Q 3050 2613 2869 2613 
Q 2622 2613 2463 2406 
Q 2344 2250 2344 2088 
Q 2344 1797 2484 1622 
Q 2625 1453 2859 1453 
Q 3372 1453 3372 2044 
z
" transform="scale(0.015625)"/>
      <path id="IPAexGothic-308b" d="M 4391 4397 
L 2613 2588 
Q 3225 2809 3759 2809 
Q 4263 2809 4659 2625 
Q 5391 2269 5391 1484 
Q 5391 756 4706 275 
Q 4072 -166 3053 -166 
Q 2559 -166 2247 19 
Q 1863 250 1863 666 
Q 1863 934 2069 1141 
Q 2331 1403 2741 1403 
Q 3509 1403 4019 428 
Q 4872 784 4872 1491 
Q 4872 1981 4469 2222 
Q 4166 2406 3681 2406 
Q 2425 2406 1238 1209 
L 891 1581 
Q 2438 2934 3578 4281 
Q 2594 4125 1588 4066 
L 1478 4550 
Q 2594 4581 4109 4763 
L 4391 4397 
z
M 3591 303 
Q 3244 1025 2731 1025 
Q 2553 1025 2434 934 
Q 2316 844 2316 700 
Q 2316 250 3034 250 
Q 3275 250 3591 303 
z
" transform="scale(0.015625)"/>
     </defs>
     <use xlink:href="#IPAexGothic-597d"/>
     <use xlink:href="#IPAexGothic-304d" x="100"/>
     <use xlink:href="#IPAexGothic-306a" x="200"/>
     <use xlink:href="#IPAexGothic-6570" x="300"/>
     <use xlink:href="#IPAexGothic-5b57" x="400"/>
     <use xlink:href="#IPAexGothic-ff08" x="500"/>
     <use xlink:href="#IPAexGothic-30" x="600"/>
     <use xlink:href="#IPAexGothic-301c" x="662.988281"/>
     <use xlink:href="#IPAexGothic-39" x="762.988281"/>
     <use xlink:href="#IPAexGothic-ff09" x="825.976562"/>
     <use xlink:href="#IPAexGothic-3092" x="925.976562"/>
     <use xlink:href="#IPAexGothic-9078" x="1025.976562"/>
     <use xlink:href="#IPAexGothic-3093" x="1125.976562"/>
     <use xlink:href="#IPAexGothic-3067" x="1225.976562"/>
     <use xlink:href="#IPAexGothic-3001" x="1325.976562"/>
     <use xlink:href="#IPAexGothic-30d5" x="1425.976562"/>
     <use xlink:href="#IPAexGothic-30a3" x="1525.976562"/>
     <use xlink:href="#IPAexGothic-30eb" x="1625.976562"/>
     <use xlink:href="#IPAexGothic-30bf" x="1725.976562"/>
     <use xlink:href="#IPAexGothic-51e6" x="1825.976562"/>
     <use xlink:href="#IPAexGothic-7406" x="1925.976562"/>
     <use xlink:href="#IPAexGothic-306e" x="2025.976562"/>
     <use xlink:href="#IPAexGothic-524d" x="2125.976562"/>
     <use xlink:href="#IPAexGothic-5f8c" x="2225.976562"/>
     <use xlink:href="#IPAexGothic-3092" x="2325.976562"/>
     <use xlink:href="#IPAexGothic-4e26" x="2425.976562"/>
     <use xlink:href="#IPAexGothic-3079" x="2525.976562"/>
     <use xlink:href="#IPAexGothic-3066" x="2625.976562"/>
     <use xlink:href="#IPAexGothic-8868" x="2725.976562"/>
     <use xlink:href="#IPAexGothic-793a" x="2825.976562"/>
     <use xlink:href="#IPAexGothic-3059" x="2925.976562"/>
     <use xlink:href="#IPAexGothic-308b" x="3025.976562"/>
    </g>
   </g>
   <g id="text_6">
    <!-- 問2 -->
    <g style="fill: #ffffff" transform="translate(34.860937 135.834375) scale(0.12 -0.12)">
     <defs>
      <path id="IPAexGothic-32" d="M 3659 63 
L 447 63 
L 447 594 
Q 825 1475 1894 2203 
L 2072 2322 
Q 2619 2697 2791 2906 
Q 2988 3153 2988 3444 
Q 2988 3772 2756 4003 
Q 2500 4259 2084 4259 
Q 1250 4259 991 3328 
L 497 3506 
Q 853 4725 2116 4725 
Q 2806 4725 3216 4316 
Q 3575 3947 3575 3425 
Q 3575 3038 3344 2722 
Q 3131 2416 2366 1938 
L 2231 1856 
Q 1256 1253 978 569 
L 3659 569 
L 3659 63 
z
" transform="scale(0.015625)"/>
     </defs>
     <use xlink:href="#IPAexGothic-554f"/>
     <use xlink:href="#IPAexGothic-32" x="100"/>
    </g>
   </g>
   <g id="text_7">
    <!-- 同じ数字の複数枚を並べて表示し、手書きのばらつきを確認する -->
    <g style="fill: #2c3e50" transform="translate(64.8 132.913125) scale(0.14 -0.14)">
     <defs>
      <path id="IPAexGothic-540c" d="M 4409 2847 
L 4409 1038 
L 2378 1038 
L 2378 578 
L 1938 578 
L 1938 2847 
L 4409 2847 
z
M 3969 2463 
L 2378 2463 
L 2378 1422 
L 3969 1422 
L 3969 2463 
z
M 5675 4922 
L 5675 194 
Q 5675 -81 5547 -209 
Q 5416 -331 5003 -331 
Q 4509 -331 3984 -294 
L 3875 213 
Q 4506 138 4956 138 
Q 5194 138 5194 359 
L 5194 4506 
L 1197 4506 
L 1197 -447 
L 716 -447 
L 716 4922 
L 5675 4922 
z
M 1588 3841 
L 4806 3841 
L 4806 3438 
L 1588 3438 
L 1588 3841 
z
" transform="scale(0.015625)"/>
      <path id="IPAexGothic-3058" d="M 1697 4884 
L 2228 4884 
L 2184 1319 
Q 2175 809 2338 569 
Q 2541 281 3075 281 
Q 3719 281 4291 744 
Q 4769 1131 5103 1759 
L 5481 1369 
Q 5041 653 4481 263 
Q 3825 -206 3081 -206 
Q 2288 -206 1941 213 
Q 1644 575 1653 1269 
L 1697 4884 
z
M 5147 3834 
Q 4788 4375 4394 4703 
L 4694 4934 
Q 5078 4625 5469 4109 
L 5147 3834 
z
M 4553 3366 
Q 4263 3856 3816 4256 
L 4131 4497 
Q 4500 4191 4884 3641 
L 4553 3366 
z
" transform="scale(0.015625)"/>
      <path id="IPAexGothic-8907" d="M 4031 2103 
Q 3931 1894 3825 1741 
L 5381 1741 
L 5606 1566 
Q 5222 963 4709 516 
Q 5325 175 6150 -16 
L 5875 -419 
Q 5034 -169 4366 241 
Q 3609 -272 2547 -519 
L 2284 -141 
Q 3369 59 4019 484 
Q 3663 775 3359 1156 
Q 2984 784 2591 538 
L 2297 844 
Q 3131 1319 3575 2103 
L 2988 2103 
L 2988 3647 
Q 2819 3388 2647 3194 
L 2347 3500 
Q 2981 4281 3269 5313 
L 3691 5203 
Q 3606 4916 3519 4684 
L 5966 4684 
L 5966 4313 
L 3359 4313 
Q 3266 4119 3166 3944 
L 5588 3944 
L 5588 2103 
L 4031 2103 
z
M 3391 3597 
L 3391 3200 
L 5184 3200 
L 5184 3597 
L 3391 3597 
z
M 3391 2875 
L 3391 2456 
L 5184 2456 
L 5184 2875 
L 3391 2875 
z
M 4356 728 
Q 4709 1019 4959 1381 
L 3653 1381 
Q 3928 1041 4356 728 
z
M 1675 2466 
Q 1722 2434 1841 2350 
Q 2116 2666 2316 3009 
L 2653 2766 
Q 2416 2450 2116 2153 
Q 2388 1950 2681 1684 
L 2419 1325 
Q 2141 1622 1675 2025 
L 1675 -447 
L 1241 -447 
L 1241 2159 
Q 909 1772 506 1409 
L 275 1825 
Q 1366 2688 1853 3809 
L 416 3809 
L 416 4225 
L 1203 4225 
L 1203 5306 
L 1650 5306 
L 1650 4225 
L 2200 4225 
L 2425 4034 
Q 2103 3306 1675 2716 
L 1675 2466 
z
" transform="scale(0.015625)"/>
      <path id="IPAexGothic-679a" d="M 1369 2669 
Q 1059 1622 550 781 
L 269 1250 
Q 956 2253 1306 3541 
L 403 3541 
L 403 3956 
L 1369 3956 
L 1369 5300 
L 1816 5300 
L 1816 3956 
L 2706 3956 
L 2706 3541 
L 1816 3541 
L 1816 2825 
Q 2331 2369 2738 1909 
L 2456 1459 
Q 2106 1959 1816 2313 
L 1816 -447 
L 1369 -447 
L 1369 2669 
z
M 3272 2906 
Q 3066 2497 2803 2144 
L 2484 2500 
Q 3222 3509 3481 5284 
L 3963 5191 
Q 3866 4641 3750 4191 
L 5931 4191 
L 5931 3775 
L 5350 3775 
Q 5253 2334 4616 1247 
Q 5209 566 6075 94 
L 5747 -372 
Q 4944 128 4353 838 
Q 3700 -13 2841 -488 
L 2497 -72 
Q 3438 344 4056 1228 
Q 3519 2028 3272 2906 
z
M 3525 3494 
Q 3803 2375 4313 1644 
Q 4784 2528 4891 3775 
L 3622 3775 
Q 3572 3628 3525 3494 
z
" transform="scale(0.015625)"/>
      <path id="IPAexGothic-3057" d="M 1750 4884 
L 2281 4884 
L 2238 1319 
Q 2228 809 2391 569 
Q 2594 281 3128 281 
Q 3772 281 4344 744 
Q 4822 1131 5156 1759 
L 5534 1369 
Q 5094 653 4534 263 
Q 3878 -206 3134 -206 
Q 2341 -206 1994 213 
Q 1697 575 1706 1269 
L 1750 4884 
z
" transform="scale(0.015625)"/>
      <path id="IPAexGothic-624b" d="M 3519 4303 
L 3519 3284 
L 5594 3284 
L 5594 2875 
L 3519 2875 
L 3519 1906 
L 6078 1906 
L 6078 1491 
L 3519 1491 
L 3519 191 
Q 3519 -322 2841 -322 
Q 2322 -322 1803 -263 
L 1719 238 
Q 2306 131 2775 131 
Q 3038 131 3038 372 
L 3038 1491 
L 313 1491 
L 313 1906 
L 3038 1906 
L 3038 2875 
L 797 2875 
L 797 3284 
L 3038 3284 
L 3038 4238 
Q 2056 4119 1047 4059 
L 850 4463 
Q 3213 4588 4869 5013 
L 5266 4616 
Q 4481 4441 3569 4309 
L 3519 4303 
z
" transform="scale(0.015625)"/>
      <path id="IPAexGothic-66f8" d="M 2953 4891 
L 2953 5313 
L 3397 5313 
L 3397 4891 
L 5169 4891 
L 5169 4213 
L 6006 4213 
L 6006 3866 
L 5169 3866 
L 5169 3166 
L 3397 3166 
L 3397 2828 
L 5597 2828 
L 5597 2475 
L 3397 2475 
L 3397 2144 
L 6078 2144 
L 6078 1791 
L 319 1791 
L 319 2144 
L 2953 2144 
L 2953 2475 
L 797 2475 
L 797 2828 
L 2953 2828 
L 2953 3166 
L 1125 3166 
L 1125 3506 
L 2953 3506 
L 2953 3866 
L 381 3866 
L 381 4213 
L 2953 4213 
L 2953 4550 
L 1125 4550 
L 1125 4891 
L 2953 4891 
z
M 4728 4550 
L 3397 4550 
L 3397 4213 
L 4728 4213 
L 4728 4550 
z
M 4728 3866 
L 3397 3866 
L 3397 3506 
L 4728 3506 
L 4728 3866 
z
M 5253 1506 
L 5253 -450 
L 4800 -450 
L 4800 -225 
L 1572 -225 
L 1572 -450 
L 1119 -450 
L 1119 1506 
L 5253 1506 
z
M 1572 1166 
L 1572 825 
L 4800 825 
L 4800 1166 
L 1572 1166 
z
M 1572 500 
L 1572 134 
L 4800 134 
L 4800 500 
L 1572 500 
z
" transform="scale(0.015625)"/>
      <path id="IPAexGothic-3070" d="M 5294 4134 
Q 5066 4672 4775 5025 
L 5122 5203 
Q 5403 4881 5659 4341 
L 5294 4134 
z
M 5928 4481 
Q 5678 4991 5391 5313 
L 5722 5503 
Q 5978 5231 6278 4697 
L 5928 4481 
z
M 4028 4831 
L 4500 4831 
L 4519 3725 
Q 4966 3772 5544 3897 
L 5581 3422 
Q 5219 3350 4525 3275 
L 4559 1394 
Q 5063 1238 5897 709 
L 5619 269 
Q 5031 728 4572 934 
Q 4572 397 4347 181 
Q 4091 -56 3597 -56 
Q 2953 -56 2631 188 
Q 2350 400 2350 788 
Q 2350 1181 2734 1441 
Q 3013 1625 3497 1625 
Q 3722 1625 4097 1547 
L 4059 3244 
Q 3659 3225 3322 3225 
Q 2881 3225 2447 3256 
L 2428 3716 
Q 2909 3672 3419 3672 
Q 3709 3672 4053 3691 
L 4028 4831 
z
M 4103 1106 
Q 3716 1216 3475 1216 
Q 2803 1216 2803 806 
Q 2803 378 3597 378 
Q 3850 378 3984 525 
Q 4103 656 4103 878 
Q 4103 1044 4103 1106 
z
M 963 -97 
Q 756 1025 756 1888 
Q 756 3109 1209 4838 
L 1691 4716 
Q 1231 2997 1231 1856 
Q 1231 1522 1269 1063 
Q 1553 1663 1716 1953 
L 2038 1759 
Q 1447 669 1447 97 
Q 1447 25 1453 -44 
L 963 -97 
z
" transform="scale(0.015625)"/>
      <path id="IPAexGothic-3089" d="M 3700 3928 
Q 2897 4478 2156 4750 
L 2381 5166 
Q 3147 4891 3956 4384 
L 3700 3928 
z
M 1344 1281 
Q 1450 2544 1747 4038 
L 2234 3928 
Q 1994 2856 1888 1844 
Q 2897 2688 3963 2688 
Q 4531 2688 4909 2450 
Q 5441 2122 5441 1516 
Q 5441 669 4569 213 
Q 3856 -169 2584 -238 
L 2363 250 
Q 3484 250 4213 588 
Q 4909 922 4909 1509 
Q 4909 1856 4647 2059 
Q 4366 2266 3897 2266 
Q 2853 2266 1766 1141 
L 1344 1281 
z
" transform="scale(0.015625)"/>
      <path id="IPAexGothic-3064" d="M 575 3541 
Q 2694 4116 3769 4116 
Q 4506 4116 4978 3750 
Q 5559 3303 5559 2497 
Q 5559 1481 4606 903 
Q 3750 388 2213 281 
L 1963 781 
Q 5022 916 5022 2497 
Q 5022 3053 4663 3375 
Q 4331 3669 3734 3669 
Q 2663 3669 800 3041 
L 575 3541 
z
" transform="scale(0.015625)"/>
      <path id="IPAexGothic-78ba" d="M 4347 3219 
Q 4516 3538 4647 3956 
L 5075 3853 
Q 4875 3431 4750 3219 
L 5888 3219 
L 5888 2847 
L 4700 2847 
L 4700 2222 
L 5741 2222 
L 5741 1869 
L 4700 1869 
L 4700 1250 
L 5741 1250 
L 5741 897 
L 4700 897 
L 4700 231 
L 6034 231 
L 6034 -141 
L 3463 -141 
L 3463 -447 
L 3047 -447 
L 3047 2444 
Q 2756 2019 2484 1703 
L 2284 2100 
Q 3159 3197 3506 4147 
L 2913 4147 
L 2913 3425 
L 2509 3425 
L 2509 4519 
L 3634 4519 
Q 3750 4903 3847 5319 
L 4269 5241 
Q 4175 4834 4072 4519 
L 5934 4519 
L 5934 3425 
L 5525 3425 
L 5525 4147 
L 3938 4147 
Q 3747 3647 3513 3219 
L 4347 3219 
z
M 4297 2847 
L 3463 2847 
L 3463 2222 
L 4297 2222 
L 4297 2847 
z
M 4297 1869 
L 3463 1869 
L 3463 1250 
L 4297 1250 
L 4297 1869 
z
M 4297 897 
L 3463 897 
L 3463 231 
L 4297 231 
L 4297 897 
z
M 1159 2944 
L 2275 2944 
L 2275 197 
L 1213 197 
L 1213 -328 
L 816 -328 
L 816 2206 
Q 650 1903 394 1522 
L 188 1919 
Q 931 3013 1200 4416 
L 406 4416 
L 406 4819 
L 2409 4819 
L 2409 4416 
L 1616 4416 
L 1597 4353 
Q 1456 3663 1159 2944 
z
M 1213 2553 
L 1213 588 
L 1878 588 
L 1878 2553 
L 1213 2553 
z
" transform="scale(0.015625)"/>
      <path id="IPAexGothic-8a8d" d="M 4341 4556 
Q 4309 4069 4219 3694 
Q 4622 3497 4956 3309 
L 4731 2963 
Q 4463 3125 4141 3291 
L 4091 3322 
Q 3756 2566 2959 2088 
L 2663 2419 
Q 3456 2844 3713 3500 
Q 3213 3722 2906 3828 
L 3113 4141 
Q 3381 4050 3828 3866 
Q 3916 4231 3925 4556 
L 2816 4556 
L 2816 4947 
L 5775 4947 
Q 5766 3272 5653 2713 
Q 5606 2459 5453 2369 
Q 5334 2284 5025 2284 
Q 4684 2284 4366 2334 
L 4303 2784 
Q 4644 2713 4928 2713 
Q 5181 2713 5228 2906 
Q 5309 3234 5338 4513 
Q 5338 4544 5338 4556 
L 4341 4556 
z
M 2406 1684 
L 2406 -128 
L 959 -128 
L 959 -447 
L 544 -447 
L 544 1684 
L 2406 1684 
z
M 959 1313 
L 959 244 
L 1984 244 
L 1984 1313 
L 959 1313 
z
M 634 5044 
L 2313 5044 
L 2313 4659 
L 634 4659 
L 634 5044 
z
M 353 4206 
L 2638 4206 
L 2638 3816 
L 353 3816 
L 353 4206 
z
M 634 3359 
L 2313 3359 
L 2313 2975 
L 634 2975 
L 634 3359 
z
M 634 2522 
L 2313 2522 
L 2313 2138 
L 634 2138 
L 634 2522 
z
M 2528 31 
Q 2816 625 2919 1447 
L 3322 1375 
Q 3200 381 2900 -225 
L 2528 31 
z
M 3572 1556 
L 4000 1556 
L 4000 294 
Q 4000 128 4084 100 
Q 4144 75 4300 75 
Q 4728 75 4775 275 
Q 4806 394 4825 738 
L 5253 616 
Q 5206 -44 5081 -188 
Q 4941 -347 4359 -347 
Q 3900 -347 3738 -269 
Q 3572 -191 3572 91 
L 3572 1556 
z
M 5775 -25 
Q 5428 800 5006 1375 
L 5366 1588 
Q 5819 994 6166 244 
L 5775 -25 
z
M 4566 1294 
Q 4106 1772 3656 2075 
L 3938 2350 
Q 4331 2113 4872 1613 
L 4566 1294 
z
" transform="scale(0.015625)"/>
     </defs>
     <use xlink:href="#IPAexGothic-540c"/>
     <use xlink:href="#IPAexGothic-3058" x="100"/>
     <use xlink:href="#IPAexGothic-6570" x="200"/>
     <use xlink:href="#IPAexGothic-5b57" x="300"/>
     <use xlink:href="#IPAexGothic-306e" x="400"/>
     <use xlink:href="#IPAexGothic-8907" x="500"/>
     <use xlink:href="#IPAexGothic-6570" x="600"/>
     <use xlink:href="#IPAexGothic-679a" x="700"/>
     <use xlink:href="#IPAexGothic-3092" x="800"/>
     <use xlink:href="#IPAexGothic-4e26" x="900"/>
     <use xlink:href="#IPAexGothic-3079" x="1000"/>
     <use xlink:href="#IPAexGothic-3066" x="1100"/>
     <use xlink:href="#IPAexGothic-8868" x="1200"/>
     <use xlink:href="#IPAexGothic-793a" x="1300"/>
     <use xlink:href="#IPAexGothic-3057" x="1400"/>
     <use xlink:href="#IPAexGothic-3001" x="1500"/>
     <use xlink:href="#IPAexGothic-624b" x="1600"/>
     <use xlink:href="#IPAexGothic-66f8" x="1700"/>
     <use xlink:href="#IPAexGothic-304d" x="1800"/>
     <use xlink:href="#IPAexGothic-306e" x="1900"/>
     <use xlink:href="#IPAexGothic-3070" x="2000"/>
     <use xlink:href="#IPAexGothic-3089" x="2100"/>
     <use xlink:href="#IPAexGothic-3064" x="2200"/>
     <use xlink:href="#IPAexGothic-304d" x="2300"/>
     <use xlink:href="#IPAexGothic-3092" x="2400"/>
     <use xlink:href="#IPAexGothic-78ba" x="2500"/>
     <use xlink:href="#IPAexGothic-8a8d" x="2600"/>
     <use xlink:href="#IPAexGothic-3059" x="2700"/>
     <use xlink:href="#IPAexGothic-308b" x="2800"/>
    </g>
   </g>
   <g id="text_8">
    <!-- → AIにとって「なぜ難しいか」を体感する -->
    <g style="fill: #7f8c8d" transform="translate(66.24 144.290625) scale(0.1 -0.1)">
     <defs>
      <path id="IPAexGothic-2192" d="M 3947 3572 
L 4631 3572 
L 6072 2431 
L 4631 1294 
L 3947 1294 
L 5094 2194 
L 459 2194 
L 459 2669 
L 5094 2669 
L 3947 3572 
z
" transform="scale(0.015625)"/>
      <path id="IPAexGothic-41" d="M 4056 63 
L 3444 63 
L 2938 1409 
L 1100 1409 
L 603 63 
L -6 63 
L 1806 4666 
L 2259 4666 
L 4056 63 
z
M 2778 1863 
L 2316 3078 
Q 2125 3588 2028 4000 
L 2009 4000 
Q 1897 3563 1716 3078 
L 1263 1863 
L 2778 1863 
z
" transform="scale(0.015625)"/>
      <path id="IPAexGothic-49" d="M 1203 63 
L 634 63 
L 634 4634 
L 1203 4634 
L 1203 63 
z
" transform="scale(0.015625)"/>
      <path id="IPAexGothic-306b" d="M 1088 -38 
Q 922 1003 922 2081 
Q 922 3222 1331 4794 
L 1813 4684 
Q 1391 3113 1391 2003 
Q 1391 1441 1422 1147 
Q 1434 1181 1813 2016 
L 2125 1797 
Q 1800 1081 1691 763 
Q 1581 453 1581 269 
Q 1581 78 1588 6 
L 1088 -38 
z
M 2834 4038 
Q 3969 4213 5313 4172 
L 5338 3681 
Q 3959 3728 2869 3547 
L 2834 4038 
z
M 5650 256 
Q 5044 172 4372 172 
Q 3463 172 3047 434 
Q 2784 594 2675 841 
Q 2572 1075 2572 1447 
Q 2572 1563 2578 1656 
L 3053 1684 
Q 3050 1613 3044 1528 
Q 3041 1481 3041 1466 
Q 3041 1200 3119 1053 
Q 3178 944 3309 850 
Q 3569 678 4275 678 
Q 4891 678 5588 763 
L 5650 256 
z
" transform="scale(0.015625)"/>
      <path id="IPAexGothic-3068" d="M 5222 56 
Q 4200 -72 3450 -72 
Q 2478 -72 1941 113 
Q 1184 372 1184 1038 
Q 1184 1584 1594 2009 
Q 1941 2369 2656 2725 
Q 2231 3734 1972 4878 
L 2491 4978 
Q 2706 3884 3078 2950 
Q 4250 3447 4756 3616 
L 4978 3150 
Q 3181 2575 2409 2078 
Q 1691 1613 1691 1113 
Q 1691 403 3322 403 
Q 4125 403 5134 563 
L 5222 56 
z
" transform="scale(0.015625)"/>
      <path id="IPAexGothic-3063" d="M 1113 2656 
Q 2778 3103 3709 3103 
Q 4359 3103 4734 2778 
Q 5150 2409 5150 1803 
Q 5150 247 2456 25 
L 2231 494 
Q 3425 541 4028 878 
Q 4663 1231 4663 1806 
Q 4663 2681 3647 2681 
Q 2834 2681 1319 2203 
L 1113 2656 
z
" transform="scale(0.015625)"/>
      <path id="IPAexGothic-300c" d="M 4134 5300 
L 5875 5300 
L 5875 4853 
L 4581 4853 
L 4581 656 
L 4134 656 
L 4134 5300 
z
" transform="scale(0.015625)"/>
      <path id="IPAexGothic-305c" d="M 3978 4897 
L 4466 4897 
L 4466 3450 
L 5847 3513 
L 5866 3091 
L 4466 3028 
L 4466 1838 
Q 4466 1338 3959 1338 
Q 3528 1338 3134 1491 
L 3134 1972 
Q 3541 1791 3781 1791 
Q 3978 1791 3978 2003 
L 3978 3003 
L 2156 2919 
L 2156 1019 
Q 2156 588 2516 500 
Q 2750 438 3575 438 
Q 4350 438 5138 519 
L 5156 19 
Q 4366 -44 3606 -44 
Q 2422 -44 2047 147 
Q 1663 350 1663 884 
L 1663 2894 
L 453 2834 
L 434 3263 
L 1663 3322 
L 1663 4581 
L 2156 4581 
L 2156 3341 
L 3978 3431 
L 3978 4897 
z
M 5259 3928 
Q 5041 4466 4775 4878 
L 5131 5075 
Q 5431 4616 5644 4141 
L 5259 3928 
z
M 5913 4281 
Q 5691 4778 5400 5184 
L 5741 5369 
Q 6053 4997 6272 4494 
L 5913 4281 
z
" transform="scale(0.015625)"/>
      <path id="IPAexGothic-96e3" d="M 4025 4091 
L 4734 4091 
Q 4916 4597 5041 5294 
L 5472 5184 
Q 5303 4538 5131 4091 
L 6041 4091 
L 6041 3706 
L 5144 3706 
L 5144 2841 
L 5931 2841 
L 5931 2475 
L 5144 2475 
L 5144 1613 
L 5931 1613 
L 5931 1241 
L 5144 1241 
L 5144 334 
L 6097 334 
L 6097 -56 
L 4063 -56 
L 4063 -447 
L 3659 -447 
L 3659 3003 
Q 3466 2494 3256 2125 
L 3050 2447 
L 1994 2447 
L 1994 2053 
L 3075 2053 
L 3075 1706 
L 1994 1706 
L 1994 1325 
L 3331 1325 
L 3331 966 
L 1981 966 
Q 1975 928 1963 863 
Q 2600 534 3234 34 
L 2934 -338 
Q 2456 106 1847 506 
Q 1553 -128 641 -525 
L 372 -159 
Q 1438 159 1559 966 
L 319 966 
L 319 1325 
L 1578 1325 
L 1578 1706 
L 525 1706 
L 525 2053 
L 1578 2053 
L 1578 2447 
L 556 2447 
L 556 3706 
L 3050 3706 
L 3050 2572 
Q 3616 3669 3891 5294 
L 4294 5203 
Q 4188 4656 4025 4091 
z
M 4063 3706 
L 4063 2841 
L 4747 2841 
L 4747 3706 
L 4063 3706 
z
M 4063 2475 
L 4063 1613 
L 4747 1613 
L 4747 2475 
L 4063 2475 
z
M 4063 1241 
L 4063 334 
L 4747 334 
L 4747 1241 
L 4063 1241 
z
M 1591 3375 
L 953 3375 
L 953 2778 
L 1591 2778 
L 1591 3375 
z
M 1988 3375 
L 1988 2778 
L 2653 2778 
L 2653 3375 
L 1988 3375 
z
M 1022 4684 
L 1022 5313 
L 1425 5313 
L 1425 4684 
L 2144 4684 
L 2144 5313 
L 2553 5313 
L 2553 4684 
L 3281 4684 
L 3281 4325 
L 2553 4325 
L 2553 3872 
L 2144 3872 
L 2144 4325 
L 1425 4325 
L 1425 3872 
L 1022 3872 
L 1022 4325 
L 319 4325 
L 319 4684 
L 1022 4684 
z
" transform="scale(0.015625)"/>
      <path id="IPAexGothic-3044" d="M 3369 1447 
Q 2906 122 2278 122 
Q 1966 122 1647 481 
Q 1209 966 1044 1966 
Q 891 2888 891 4313 
L 1422 4313 
Q 1413 2444 1666 1550 
Q 1913 678 2278 678 
Q 2619 678 2925 1791 
L 3369 1447 
z
M 5378 1294 
Q 4928 2797 4034 3809 
L 4488 4031 
Q 5375 3000 5881 1563 
L 5378 1294 
z
" transform="scale(0.015625)"/>
      <path id="IPAexGothic-304b" d="M 659 3384 
Q 1434 3503 2113 3581 
Q 2313 4341 2394 4972 
L 2900 4875 
Q 2759 4147 2619 3628 
L 2719 3634 
Q 2894 3641 3041 3641 
Q 4072 3641 4072 2369 
Q 4072 1128 3700 384 
Q 3478 -56 3003 -56 
Q 2591 -56 2113 231 
L 2138 775 
Q 2631 444 2925 444 
Q 3169 444 3297 706 
Q 3566 1294 3566 2388 
Q 3566 3219 3016 3219 
Q 2825 3219 2497 3194 
Q 2388 2763 2113 2047 
Q 1634 797 1119 -38 
L 678 244 
Q 1356 1238 1863 2750 
Q 1888 2819 1991 3128 
Q 1594 3081 769 2916 
L 659 3384 
z
M 5644 1753 
Q 5072 3025 4238 3916 
L 4641 4184 
Q 5494 3275 6081 2094 
L 5644 1753 
z
" transform="scale(0.015625)"/>
      <path id="IPAexGothic-300d" d="M 1819 4209 
L 2266 4209 
L 2266 -434 
L 525 -434 
L 525 13 
L 1819 13 
L 1819 4209 
z
" transform="scale(0.015625)"/>
      <path id="IPAexGothic-4f53" d="M 4253 3481 
Q 4869 2069 6041 1138 
L 5688 703 
Q 4541 1841 4069 3122 
L 4069 1228 
L 4925 1228 
L 4925 831 
L 4081 831 
L 4081 -450 
L 3613 -450 
L 3613 831 
L 2781 831 
L 2781 1228 
L 3628 1228 
L 3628 3097 
Q 3216 1703 2063 556 
L 1706 928 
Q 2844 1875 3441 3481 
L 1969 3481 
L 1969 3897 
L 3613 3897 
L 3613 5209 
L 4081 5209 
L 4081 3897 
L 5872 3897 
L 5872 3481 
L 4253 3481 
z
M 1572 3700 
L 1572 -441 
L 1119 -441 
L 1119 2778 
Q 888 2363 550 1913 
L 300 2303 
Q 1219 3575 1591 5241 
L 2041 5125 
Q 1844 4356 1572 3700 
z
" transform="scale(0.015625)"/>
      <path id="IPAexGothic-611f" d="M 3575 4525 
Q 3519 4872 3478 5313 
L 3928 5313 
Q 3959 4891 4009 4538 
L 4869 4538 
Q 4697 4850 4453 5106 
L 4803 5294 
Q 5081 5025 5266 4703 
L 4956 4538 
L 5931 4538 
L 5931 4166 
L 4075 4166 
Q 4216 3400 4528 2872 
Q 4794 3322 5003 3934 
L 5394 3750 
Q 5153 3072 4784 2491 
Q 4809 2450 4828 2425 
Q 5203 1944 5394 1944 
Q 5534 1944 5609 2766 
L 6013 2481 
Q 5841 1400 5534 1400 
Q 5166 1400 4516 2119 
Q 4141 1647 3672 1294 
L 3350 1613 
Q 3850 1941 4253 2463 
Q 3859 3078 3641 4153 
L 1297 4153 
L 1297 3494 
Q 1297 2631 1169 2100 
Q 1056 1622 747 1209 
L 409 1547 
Q 744 1978 813 2631 
Q 844 2972 844 3403 
L 844 4525 
L 3575 4525 
z
M 3372 3097 
L 3372 1884 
L 2034 1884 
L 2034 1597 
L 1638 1597 
L 1638 3097 
L 3372 3097 
z
M 2034 2772 
L 2034 2209 
L 2975 2209 
L 2975 2772 
L 2034 2772 
z
M 1509 3775 
L 3525 3775 
L 3525 3428 
L 1509 3428 
L 1509 3775 
z
M 409 -25 
Q 909 466 1159 1131 
L 1581 991 
Q 1297 188 794 -347 
L 409 -25 
z
M 2009 1281 
L 2478 1281 
L 2478 359 
Q 2478 156 2606 106 
Q 2741 63 3334 63 
Q 4156 63 4278 172 
Q 4369 266 4378 738 
L 4822 603 
Q 4813 -38 4622 -200 
Q 4434 -359 3303 -359 
Q 2431 -359 2241 -269 
Q 2009 -163 2009 147 
L 2009 1281 
z
M 5734 -147 
Q 5250 569 4684 1056 
L 5044 1306 
Q 5650 813 6138 159 
L 5734 -147 
z
M 3444 481 
Q 3131 913 2713 1294 
L 3059 1563 
Q 3513 1188 3822 781 
L 3444 481 
z
" transform="scale(0.015625)"/>
     </defs>
     <use xlink:href="#IPAexGothic-2192"/>
     <use xlink:href="#IPAexGothic-20" x="100"/>
     <use xlink:href="#IPAexGothic-41" x="127.001953"/>
     <use xlink:href="#IPAexGothic-49" x="190.722656"/>
     <use xlink:href="#IPAexGothic-306b" x="219.628906"/>
     <use xlink:href="#IPAexGothic-3068" x="319.628906"/>
     <use xlink:href="#IPAexGothic-3063" x="419.628906"/>
     <use xlink:href="#IPAexGothic-3066" x="519.628906"/>
     <use xlink:href="#IPAexGothic-300c" x="619.628906"/>
     <use xlink:href="#IPAexGothic-306a" x="719.628906"/>
     <use xlink:href="#IPAexGothic-305c" x="819.628906"/>
     <use xlink:href="#IPAexGothic-96e3" x="919.628906"/>
     <use xlink:href="#IPAexGothic-3057" x="1019.628906"/>
     <use xlink:href="#IPAexGothic-3044" x="1119.628906"/>
     <use xlink:href="#IPAexGothic-304b" x="1219.628906"/>
     <use xlink:href="#IPAexGothic-300d" x="1319.628906"/>
     <use xlink:href="#IPAexGothic-3092" x="1419.628906"/>
     <use xlink:href="#IPAexGothic-4f53" x="1519.628906"/>
     <use xlink:href="#IPAexGothic-611f" x="1619.628906"/>
     <use xlink:href="#IPAexGothic-3059" x="1719.628906"/>
     <use xlink:href="#IPAexGothic-308b" x="1819.628906"/>
    </g>
   </g>
   <g id="text_9">
    <!-- 問3 -->
    <g style="fill: #ffffff" transform="translate(34.860937 177.594375) scale(0.12 -0.12)">
     <use xlink:href="#IPAexGothic-554f"/>
     <use xlink:href="#IPAexGothic-33" x="100"/>
    </g>
   </g>
   <g id="text_10">
    <!-- フィルタ前後でピクセル値の統計がどう変わるか確認する -->
    <g style="fill: #2c3e50" transform="translate(64.8 174.646875) scale(0.14 -0.14)">
     <defs>
      <path id="IPAexGothic-30d4" d="M 1331 4756 
L 1856 4756 
L 1856 2759 
Q 3528 3134 4722 3872 
L 5106 3456 
Q 3619 2663 1856 2278 
L 1856 1044 
Q 1856 725 2047 650 
Q 2241 566 3138 566 
Q 4141 566 5369 697 
L 5369 184 
Q 4231 78 3238 78 
Q 1913 78 1619 275 
Q 1331 459 1331 947 
L 1331 4756 
z
M 5478 5222 
Q 5788 5222 5997 4988 
Q 6181 4788 6181 4519 
Q 6181 4206 5947 3994 
Q 5747 3809 5478 3809 
Q 5166 3809 4953 4044 
Q 4769 4247 4769 4519 
Q 4769 4828 5003 5041 
Q 5206 5222 5478 5222 
z
M 5478 4941 
Q 5288 4941 5159 4800 
Q 5050 4678 5050 4519 
Q 5050 4328 5191 4200 
Q 5313 4091 5478 4091 
Q 5663 4091 5791 4231 
Q 5900 4353 5900 4519 
Q 5900 4703 5759 4831 
Q 5638 4941 5478 4941 
z
" transform="scale(0.015625)"/>
      <path id="IPAexGothic-5024" d="M 4172 3675 
L 5453 3675 
L 5453 684 
L 3019 684 
L 3019 3675 
L 3750 3675 
Q 3788 3884 3825 4153 
L 2141 4153 
L 2141 4544 
L 3884 4544 
Q 3922 4844 3966 5325 
L 4434 5272 
L 4388 4953 
Q 4331 4578 4331 4544 
L 5863 4544 
L 5863 4153 
L 4269 4153 
Q 4200 3781 4172 3675 
z
M 5038 3316 
L 3434 3316 
L 3434 2803 
L 5038 2803 
L 5038 3316 
z
M 3434 2450 
L 3434 1941 
L 5038 1941 
L 5038 2450 
L 3434 2450 
z
M 3434 1588 
L 3434 1044 
L 5038 1044 
L 5038 1588 
L 3434 1588 
z
M 1509 3669 
L 1509 -447 
L 1069 -447 
L 1069 2725 
Q 856 2338 531 1875 
L 288 2266 
Q 1163 3531 1541 5325 
L 1975 5222 
Q 1791 4378 1509 3669 
z
M 2488 244 
L 6031 244 
L 6031 -153 
L 2488 -153 
L 2488 -447 
L 2059 -447 
L 2059 3213 
L 2488 3213 
L 2488 244 
z
" transform="scale(0.015625)"/>
      <path id="IPAexGothic-7d71" d="M 1234 3078 
Q 869 3616 384 4128 
L 678 4428 
Q 688 4419 781 4309 
Q 853 4228 916 4159 
Q 1278 4722 1541 5331 
L 1975 5125 
Q 1613 4481 1156 3859 
Q 1284 3697 1472 3431 
Q 1844 3991 2150 4550 
L 2553 4313 
Q 1909 3266 1306 2566 
Q 1859 2594 2272 2638 
Q 2147 2931 2016 3156 
L 2366 3303 
Q 2631 2884 2897 2113 
L 2513 1925 
Q 2509 1941 2391 2309 
Q 2056 2244 1803 2222 
L 1803 -447 
L 1369 -447 
L 1369 2169 
L 1291 2156 
Q 988 2128 428 2094 
L 294 2528 
Q 359 2528 644 2534 
Q 784 2538 844 2541 
Q 1019 2763 1234 3078 
z
M 3791 2791 
Q 4350 2816 5159 2900 
Q 4888 3325 4703 3547 
L 5050 3738 
Q 5500 3231 6003 2369 
L 5613 2119 
Q 5409 2491 5356 2572 
Q 4438 2428 3003 2325 
L 2881 2747 
Q 2919 2747 3063 2753 
Q 3141 2756 3175 2759 
Q 3297 2759 3334 2766 
Q 3644 3391 3822 3975 
L 2753 3975 
L 2753 4372 
L 4116 4372 
L 4116 5313 
L 4544 5313 
L 4544 4372 
L 6016 4372 
L 6016 3975 
L 4281 3975 
Q 4056 3356 3791 2791 
z
M 356 256 
Q 569 891 647 1819 
L 1069 1759 
Q 1000 756 781 44 
L 356 256 
z
M 2341 441 
Q 2206 1225 2016 1759 
L 2375 1869 
Q 2600 1325 2750 622 
L 2341 441 
z
M 4550 2119 
L 4978 2119 
L 4978 372 
Q 4978 219 5034 178 
Q 5094 141 5291 141 
Q 5581 141 5619 281 
Q 5647 388 5675 941 
L 5681 1075 
L 6119 928 
Q 6088 97 5956 -100 
Q 5822 -306 5228 -306 
Q 4759 -306 4647 -184 
Q 4550 -91 4550 159 
L 4550 2119 
z
M 2431 -128 
Q 3181 228 3391 831 
Q 3503 1141 3513 1931 
L 3513 2094 
L 3941 2094 
Q 3941 1041 3794 628 
Q 3556 -47 2756 -481 
L 2431 -128 
z
" transform="scale(0.015625)"/>
      <path id="IPAexGothic-8a08" d="M 2853 1684 
L 2853 -416 
L 2413 -416 
L 2413 -128 
L 1088 -128 
L 1088 -447 
L 647 -447 
L 647 1684 
L 2853 1684 
z
M 1088 1300 
L 1088 256 
L 2413 256 
L 2413 1300 
L 1088 1300 
z
M 4322 3225 
L 4322 5178 
L 4781 5178 
L 4781 3225 
L 6063 3225 
L 6063 2797 
L 4781 2797 
L 4781 -447 
L 4322 -447 
L 4322 2797 
L 3063 2797 
L 3063 3225 
L 4322 3225 
z
M 781 5044 
L 2722 5044 
L 2722 4647 
L 781 4647 
L 781 5044 
z
M 384 4206 
L 3150 4206 
L 3150 3803 
L 384 3803 
L 384 4206 
z
M 781 3359 
L 2722 3359 
L 2722 2963 
L 781 2963 
L 781 3359 
z
M 781 2522 
L 2722 2522 
L 2722 2125 
L 781 2125 
L 781 2522 
z
" transform="scale(0.015625)"/>
      <path id="IPAexGothic-304c" d="M 659 3384 
Q 1434 3503 2113 3581 
Q 2313 4341 2394 4972 
L 2900 4875 
Q 2759 4147 2619 3628 
L 2719 3634 
Q 2894 3641 3041 3641 
Q 4072 3641 4072 2369 
Q 4072 1128 3700 384 
Q 3478 -56 3003 -56 
Q 2591 -56 2113 231 
L 2138 775 
Q 2631 444 2925 444 
Q 3169 444 3297 706 
Q 3566 1294 3566 2388 
Q 3566 3219 3016 3219 
Q 2825 3219 2497 3194 
Q 2388 2763 2113 2047 
Q 1634 797 1119 -38 
L 678 244 
Q 1356 1238 1863 2750 
Q 1888 2819 1991 3128 
Q 1594 3081 769 2916 
L 659 3384 
z
M 5441 1838 
Q 4913 3038 4091 3916 
L 4475 4184 
Q 5350 3269 5888 2156 
L 5441 1838 
z
M 5913 4275 
Q 5553 4819 5159 5147 
L 5459 5375 
Q 5844 5066 6234 4550 
L 5913 4275 
z
M 5344 3788 
Q 5053 4278 4609 4678 
L 4922 4922 
Q 5294 4613 5678 4063 
L 5344 3788 
z
" transform="scale(0.015625)"/>
      <path id="IPAexGothic-3069" d="M 5222 56 
Q 4200 -72 3450 -72 
Q 2478 -72 1941 113 
Q 1184 372 1184 1038 
Q 1184 1584 1594 2009 
Q 1941 2369 2656 2725 
Q 2231 3734 1972 4878 
L 2491 4978 
Q 2706 3884 3078 2950 
Q 4250 3447 4756 3616 
L 4978 3150 
Q 3181 2575 2409 2078 
Q 1691 1613 1691 1113 
Q 1691 403 3322 403 
Q 4125 403 5134 563 
L 5222 56 
z
M 5778 4153 
Q 5419 4697 5025 5025 
L 5325 5253 
Q 5709 4944 6100 4428 
L 5778 4153 
z
M 5184 3688 
Q 4894 4175 4447 4575 
L 4763 4819 
Q 5134 4513 5516 3963 
L 5184 3688 
z
" transform="scale(0.015625)"/>
      <path id="IPAexGothic-3046" d="M 3897 4025 
Q 3203 4456 2144 4728 
L 2381 5166 
Q 3353 4928 4166 4481 
L 3897 4025 
z
M 1172 3050 
Q 2872 3628 3566 3628 
Q 4269 3628 4603 3181 
Q 4847 2850 4847 2253 
Q 4847 372 2619 -275 
L 2278 159 
Q 3356 397 3881 994 
Q 4328 1503 4328 2228 
Q 4328 3181 3534 3181 
Q 2909 3181 1397 2553 
L 1172 3050 
z
" transform="scale(0.015625)"/>
      <path id="IPAexGothic-5909" d="M 2147 1253 
Q 1641 822 944 563 
L 672 900 
Q 1938 1391 2556 2394 
L 2972 2231 
Q 2847 2034 2747 1900 
L 4750 1900 
L 4969 1700 
Q 4422 984 3859 563 
Q 4650 241 6094 69 
L 5825 -366 
Q 4275 -125 3431 288 
Q 2441 -272 603 -538 
L 341 -134 
Q 2103 75 2997 538 
Q 2591 791 2184 1209 
L 2147 1253 
z
M 2434 1528 
L 2422 1516 
Q 2803 1106 3425 778 
Q 3888 1078 4269 1528 
L 2434 1528 
z
M 4059 4147 
L 4059 2650 
Q 4059 2272 3663 2272 
Q 3416 2272 3047 2309 
L 2963 2725 
Q 3241 2681 3431 2681 
Q 3631 2681 3631 2872 
L 3631 4147 
L 2822 4147 
Q 2766 3291 2503 2816 
Q 2191 2259 1503 1869 
L 1172 2156 
Q 1878 2572 2144 3066 
Q 2359 3456 2388 4147 
L 403 4147 
L 403 4544 
L 2938 4544 
L 2938 5294 
L 3419 5294 
L 3419 4544 
L 6000 4544 
L 6000 4147 
L 4059 4147 
z
M 5494 2363 
Q 4828 3150 4328 3584 
L 4672 3859 
Q 5266 3369 5878 2656 
L 5494 2363 
z
M 341 2528 
Q 1025 3022 1441 3775 
L 1844 3597 
Q 1406 2781 706 2241 
L 341 2528 
z
" transform="scale(0.015625)"/>
      <path id="IPAexGothic-308f" d="M 609 3672 
Q 1272 3750 1894 3884 
L 1934 4978 
L 2406 4972 
L 2369 3934 
L 2753 3634 
Q 2416 3238 2356 3153 
Q 2350 3078 2350 2853 
Q 3322 3616 4219 3616 
Q 4878 3616 5331 3200 
Q 5819 2750 5819 2028 
Q 5819 419 3584 -53 
L 3266 391 
Q 5294 766 5294 2034 
Q 5294 2534 5000 2847 
Q 4691 3175 4175 3175 
Q 3341 3175 2344 2303 
Q 2344 678 2369 -150 
L 1881 -150 
Q 1863 1200 1869 1888 
Q 1766 1781 866 716 
L 513 1081 
Q 1450 2088 1869 2469 
Q 1869 2500 1878 2947 
Q 1881 3225 1888 3456 
Q 1406 3319 744 3178 
L 609 3672 
z
" transform="scale(0.015625)"/>
     </defs>
     <use xlink:href="#IPAexGothic-30d5"/>
     <use xlink:href="#IPAexGothic-30a3" x="100"/>
     <use xlink:href="#IPAexGothic-30eb" x="200"/>
     <use xlink:href="#IPAexGothic-30bf" x="300"/>
     <use xlink:href="#IPAexGothic-524d" x="400"/>
     <use xlink:href="#IPAexGothic-5f8c" x="500"/>
     <use xlink:href="#IPAexGothic-3067" x="600"/>
     <use xlink:href="#IPAexGothic-30d4" x="700"/>
     <use xlink:href="#IPAexGothic-30af" x="800"/>
     <use xlink:href="#IPAexGothic-30bb" x="900"/>
     <use xlink:href="#IPAexGothic-30eb" x="1000"/>
     <use xlink:href="#IPAexGothic-5024" x="1100"/>
     <use xlink:href="#IPAexGothic-306e" x="1200"/>
     <use xlink:href="#IPAexGothic-7d71" x="1300"/>
     <use xlink:href="#IPAexGothic-8a08" x="1400"/>
     <use xlink:href="#IPAexGothic-304c" x="1500"/>
     <use xlink:href="#IPAexGothic-3069" x="1600"/>
     <use xlink:href="#IPAexGothic-3046" x="1700"/>
     <use xlink:href="#IPAexGothic-5909" x="1800"/>
     <use xlink:href="#IPAexGothic-308f" x="1900"/>
     <use xlink:href="#IPAexGothic-308b" x="2000"/>
     <use xlink:href="#IPAexGothic-304b" x="2100"/>
     <use xlink:href="#IPAexGothic-78ba" x="2200"/>
     <use xlink:href="#IPAexGothic-8a8d" x="2300"/>
     <use xlink:href="#IPAexGothic-3059" x="2400"/>
     <use xlink:href="#IPAexGothic-308b" x="2500"/>
    </g>
   </g>
   <g id="text_11">
    <!-- → なぜ変化するか理由を考えましょう -->
    <g style="fill: #7f8c8d" transform="translate(66.24 186.050625) scale(0.1 -0.1)">
     <defs>
      <path id="IPAexGothic-5316" d="M 1831 3700 
L 1831 -341 
L 1356 -341 
L 1356 2772 
Q 1069 2275 678 1772 
L 378 2138 
Q 1319 3278 1856 5166 
L 2319 5013 
Q 2100 4319 1831 3700 
z
M 3425 2906 
Q 4528 3350 5306 3969 
L 5703 3616 
Q 4728 2919 3425 2444 
L 3425 575 
Q 3425 353 3584 306 
Q 3738 263 4334 263 
Q 5072 263 5250 347 
Q 5384 403 5422 594 
Q 5475 872 5506 1497 
L 5978 1331 
Q 5931 319 5775 106 
Q 5641 -75 5331 -141 
Q 5041 -206 4244 -206 
Q 3438 -206 3181 -78 
Q 2931 47 2931 384 
L 2931 5113 
L 3425 5113 
L 3425 2906 
z
" transform="scale(0.015625)"/>
      <path id="IPAexGothic-7531" d="M 2931 4091 
L 2931 5147 
L 3425 5147 
L 3425 4091 
L 5588 4091 
L 5588 -353 
L 5100 -353 
L 5100 31 
L 1294 31 
L 1294 -353 
L 806 -353 
L 806 4091 
L 2931 4091 
z
M 1294 3663 
L 1294 2328 
L 2938 2328 
L 2938 3663 
L 1294 3663 
z
M 1294 1913 
L 1294 459 
L 2938 459 
L 2938 1913 
L 1294 1913 
z
M 3419 3663 
L 3419 2328 
L 5100 2328 
L 5100 3663 
L 3419 3663 
z
M 3419 1913 
L 3419 459 
L 5100 459 
L 5100 1913 
L 3419 1913 
z
" transform="scale(0.015625)"/>
      <path id="IPAexGothic-8003" d="M 3613 3378 
Q 4419 4028 5169 4922 
L 5566 4672 
Q 4963 3969 4316 3438 
L 6038 3438 
L 6038 3028 
L 3803 3028 
Q 3219 2597 2738 2291 
Q 2728 2247 2719 2188 
Q 4069 2347 4969 2622 
L 5341 2213 
Q 4141 1950 2641 1822 
L 2566 1491 
L 5372 1491 
Q 5269 372 5066 -69 
Q 4891 -447 4328 -447 
Q 3728 -447 3209 -403 
L 3100 97 
Q 3744 -6 4241 -6 
Q 4566 -6 4650 231 
Q 4756 519 4841 1100 
L 2463 1100 
Q 2384 834 2284 569 
L 1863 734 
Q 2091 1375 2225 1978 
Q 1334 1463 434 1075 
L 184 1484 
Q 1713 2050 3069 2975 
L 344 2975 
L 344 3378 
L 2713 3378 
L 2713 4116 
L 1125 4116 
L 1125 4513 
L 2750 4513 
L 2750 5313 
L 3203 5313 
L 3203 4513 
L 4350 4513 
L 4350 4116 
L 3166 4116 
L 3166 3378 
L 3613 3378 
z
" transform="scale(0.015625)"/>
      <path id="IPAexGothic-3048" d="M 3797 4038 
Q 3144 4428 2013 4709 
L 2266 5106 
Q 3388 4838 4078 4469 
L 3797 4038 
z
M 1263 3347 
Q 2566 3428 3956 3641 
L 4291 3263 
Q 3759 2741 2875 1778 
Q 3156 1881 3356 1881 
Q 3909 1881 3919 1253 
L 3931 709 
Q 3941 456 4116 409 
Q 4244 372 4519 372 
Q 4944 372 5538 481 
L 5581 -31 
Q 5097 -103 4675 -103 
Q 4047 -103 3791 25 
Q 3484 178 3463 594 
L 3444 1094 
Q 3434 1491 3150 1491 
Q 2800 1491 2322 1072 
Q 1950 747 1109 -184 
L 738 166 
Q 2053 1434 3597 3181 
Q 2600 2988 1391 2841 
L 1263 3347 
z
" transform="scale(0.015625)"/>
      <path id="IPAexGothic-307e" d="M 3538 5075 
L 3547 4141 
Q 4509 4203 5288 4341 
L 5325 3897 
Q 4744 3809 3553 3719 
L 3566 2925 
Q 4578 3022 5031 3103 
L 5063 2663 
Q 4519 2572 3578 2503 
L 3628 1403 
Q 4531 1128 5459 513 
L 5153 84 
Q 4656 456 3641 909 
Q 3669 331 3391 84 
Q 3116 -153 2559 -153 
Q 1900 -153 1522 72 
Q 1138 297 1138 719 
Q 1138 1163 1634 1413 
Q 1994 1594 2413 1594 
Q 2797 1594 3156 1538 
L 3109 2472 
Q 2641 2450 2413 2450 
Q 1931 2450 1422 2484 
L 1422 2919 
Q 1941 2872 2516 2872 
Q 2706 2872 3097 2894 
L 3072 3688 
Q 2381 3675 2344 3675 
Q 1794 3675 1075 3706 
L 1075 4141 
Q 1744 4097 2431 4097 
Q 2456 4097 3059 4109 
L 3041 5075 
L 3538 5075 
z
M 3163 1088 
Q 2713 1184 2394 1184 
Q 2094 1184 1875 1091 
Q 1606 975 1606 750 
Q 1606 484 1925 363 
Q 2156 275 2503 275 
Q 3163 275 3163 794 
L 3163 1088 
z
" transform="scale(0.015625)"/>
      <path id="IPAexGothic-3087" d="M 2900 3956 
L 3359 3956 
Q 3347 3244 3359 2888 
Q 4059 2950 4581 3097 
L 4731 2650 
Q 4178 2531 3359 2463 
Q 3381 1769 3444 1241 
Q 4044 1066 5006 519 
L 4709 109 
Q 4038 559 3469 763 
L 3475 691 
Q 3516 256 3238 31 
Q 3025 -153 2547 -153 
Q 2013 -147 1719 72 
Q 1463 263 1459 575 
Q 1453 950 1800 1166 
Q 2097 1350 2553 1350 
Q 2797 1350 2997 1325 
Q 2931 2072 2900 3956 
z
M 3022 884 
Q 2775 928 2578 928 
Q 1906 928 1906 622 
Q 1897 275 2553 275 
Q 2819 275 2928 394 
Q 3022 500 3022 728 
L 3022 884 
z
" transform="scale(0.015625)"/>
     </defs>
     <use xlink:href="#IPAexGothic-2192"/>
     <use xlink:href="#IPAexGothic-20" x="100"/>
     <use xlink:href="#IPAexGothic-306a" x="127.001953"/>
     <use xlink:href="#IPAexGothic-305c" x="227.001953"/>
     <use xlink:href="#IPAexGothic-5909" x="327.001953"/>
     <use xlink:href="#IPAexGothic-5316" x="427.001953"/>
     <use xlink:href="#IPAexGothic-3059" x="527.001953"/>
     <use xlink:href="#IPAexGothic-308b" x="627.001953"/>
     <use xlink:href="#IPAexGothic-304b" x="727.001953"/>
     <use xlink:href="#IPAexGothic-7406" x="827.001953"/>
     <use xlink:href="#IPAexGothic-7531" x="927.001953"/>
     <use xlink:href="#IPAexGothic-3092" x="1027.001953"/>
     <use xlink:href="#IPAexGothic-8003" x="1127.001953"/>
     <use xlink:href="#IPAexGothic-3048" x="1227.001953"/>
     <use xlink:href="#IPAexGothic-307e" x="1327.001953"/>
     <use xlink:href="#IPAexGothic-3057" x="1427.001953"/>
     <use xlink:href="#IPAexGothic-3087" x="1527.001953"/>
     <use xlink:href="#IPAexGothic-3046" x="1627.001953"/>
    </g>
   </g>
   <g id="text_12">
    <!-- 問4 -->
    <g style="fill: #ffffff" transform="translate(34.860937 219.354375) scale(0.12 -0.12)">
     <use xlink:href="#IPAexGothic-554f"/>
     <use xlink:href="#IPAexGothic-34" x="100"/>
    </g>
   </g>
   <g id="text_13">
    <!-- （発展）NumPyで2値化処理（閾値でモノクロに変換）を実装する -->
    <g style="fill: #2c3e50" transform="translate(64.8 217.54) scale(0.14 -0.14)">
     <defs>
      <path id="IPAexGothic-767a" d="M 4719 3638 
Q 5159 4016 5453 4391 
L 5831 4122 
Q 5406 3700 5038 3413 
Q 5500 3116 6106 2856 
L 5800 2456 
Q 5231 2738 4706 3113 
L 4706 2772 
L 4103 2772 
L 4103 1919 
L 5753 1919 
L 5753 1522 
L 4103 1522 
L 4103 359 
Q 4103 159 4206 131 
Q 4313 94 4678 94 
Q 5256 94 5350 191 
Q 5444 284 5472 766 
Q 5472 863 5478 900 
L 5928 741 
Q 5900 25 5741 -141 
Q 5572 -341 4647 -341 
Q 4084 -341 3900 -256 
Q 3650 -150 3650 213 
L 3650 1522 
L 2725 1522 
Q 2572 34 709 -475 
L 466 -63 
Q 2128 347 2272 1522 
L 641 1522 
L 641 1919 
L 2291 1919 
L 2291 2772 
L 1778 2772 
L 1778 3009 
Q 1263 2647 581 2316 
L 288 2700 
Q 1044 2991 1663 3444 
Q 1269 3850 863 4134 
L 1191 4425 
Q 1697 4006 1991 3713 
Q 2434 4100 2763 4616 
L 1284 4616 
L 1284 5006 
L 3456 5006 
Q 3725 4566 4025 4244 
Q 4422 4584 4738 4988 
L 5109 4719 
Q 4747 4328 4294 3981 
Q 4506 3781 4719 3638 
z
M 3650 2772 
L 2738 2772 
L 2738 1919 
L 3650 1919 
L 3650 2772 
z
M 1978 3156 
L 4641 3156 
Q 3756 3794 3238 4544 
Q 2766 3769 1978 3156 
z
" transform="scale(0.015625)"/>
      <path id="IPAexGothic-5c55" d="M 3731 1600 
Q 3925 1181 4294 850 
Q 4678 1134 5038 1550 
L 5441 1294 
Q 5047 928 4591 622 
Q 5147 234 5944 38 
L 5663 -391 
Q 3803 263 3303 1600 
L 2541 1600 
L 2541 172 
Q 3159 288 3791 428 
L 3822 50 
Q 2572 -278 1522 -447 
L 1356 -6 
Q 1763 44 2100 103 
L 2100 1600 
L 1350 1600 
Q 1272 422 750 -453 
L 384 -103 
Q 928 813 928 2184 
L 928 4978 
L 5509 4978 
L 5509 3572 
L 4378 3572 
L 4378 3016 
L 5688 3016 
L 5688 2638 
L 4378 2638 
L 4378 1984 
L 5938 1984 
L 5938 1600 
L 3731 1600 
z
M 5069 4594 
L 1363 4594 
L 1363 3944 
L 5069 3944 
L 5069 4594 
z
M 3963 3572 
L 2853 3572 
L 2853 3016 
L 3963 3016 
L 3963 3572 
z
M 2438 3572 
L 1363 3572 
L 1363 3016 
L 2438 3016 
L 2438 3572 
z
M 3963 2638 
L 2853 2638 
L 2853 1984 
L 3963 1984 
L 3963 2638 
z
M 2438 2638 
L 1363 2638 
L 1363 1984 
L 2438 1984 
L 2438 2638 
z
" transform="scale(0.015625)"/>
      <path id="IPAexGothic-4e" d="M 4244 63 
L 3731 63 
L 1697 3150 
Q 1466 3500 1141 4097 
L 1116 4097 
L 1128 3797 
Q 1159 2803 1159 2469 
L 1159 63 
L 609 63 
L 609 4634 
L 1366 4634 
L 3113 1978 
Q 3453 1447 3713 966 
L 3738 966 
Q 3694 1897 3694 2469 
L 3694 4634 
L 4244 4634 
L 4244 63 
z
" transform="scale(0.015625)"/>
      <path id="IPAexGothic-75" d="M 3284 63 
L 2772 63 
L 2772 644 
Q 2300 0 1625 0 
Q 1072 0 763 375 
Q 519 678 519 1241 
L 519 3250 
L 1069 3250 
L 1069 1259 
Q 1069 466 1734 466 
Q 2406 466 2734 1291 
L 2734 3250 
L 3284 3250 
L 3284 63 
z
" transform="scale(0.015625)"/>
      <path id="IPAexGothic-50" d="M 609 4634 
L 1941 4634 
Q 3688 4634 3688 3322 
Q 3688 1934 1906 1934 
L 1172 1934 
L 1172 63 
L 609 63 
L 609 4634 
z
M 1172 2381 
L 1800 2381 
Q 3100 2381 3100 3316 
Q 3100 4181 1894 4181 
L 1172 4181 
L 1172 2381 
z
" transform="scale(0.015625)"/>
      <path id="IPAexGothic-95be" d="M 3647 831 
Q 3288 1563 3194 2331 
L 1306 2331 
L 1306 2663 
L 3163 2663 
L 3156 2713 
Q 3144 2906 3134 3153 
L 3525 3153 
Q 3525 2944 3553 2681 
L 4391 2681 
Q 4138 2891 3866 3019 
L 4116 3250 
Q 4422 3122 4722 2884 
L 4472 2681 
L 5025 2681 
L 5025 2341 
L 3584 2341 
Q 3641 1803 3909 1178 
Q 4175 1606 4372 2172 
L 4741 2019 
Q 4459 1319 4109 813 
Q 4356 425 4453 425 
Q 4566 425 4691 1075 
L 5038 878 
Q 4834 -63 4544 -63 
Q 4209 -63 3847 481 
Q 3478 47 2919 -288 
L 2638 38 
Q 3213 331 3647 831 
z
M 5850 5056 
L 5850 13 
Q 5850 -247 5734 -331 
Q 5631 -409 5372 -409 
Q 5078 -409 4847 -378 
L 4781 38 
Q 5016 -13 5256 -13 
Q 5397 -13 5397 134 
L 5397 3275 
L 3431 3275 
L 3431 5056 
L 5850 5056 
z
M 5397 4709 
L 3841 4709 
L 3841 4325 
L 5397 4325 
L 5397 4709 
z
M 5397 4013 
L 3841 4013 
L 3841 3616 
L 5397 3616 
L 5397 4013 
z
M 3016 2009 
L 3016 1056 
L 1541 1056 
L 1541 2009 
L 3016 2009 
z
M 1913 1709 
L 1913 1350 
L 2644 1350 
L 2644 1709 
L 1913 1709 
z
M 2919 5056 
L 2919 3275 
L 997 3275 
L 997 -450 
L 544 -450 
L 544 5056 
L 2919 5056 
z
M 997 4709 
L 997 4325 
L 2509 4325 
L 2509 4709 
L 997 4709 
z
M 997 4013 
L 997 3616 
L 2509 3616 
L 2509 4013 
L 997 4013 
z
M 1247 641 
Q 2316 719 3175 878 
L 3188 556 
Q 2391 369 1338 256 
L 1247 641 
z
" transform="scale(0.015625)"/>
      <path id="IPAexGothic-30e2" d="M 1216 4409 
L 5147 4409 
L 5147 3950 
L 3053 3950 
L 3053 2797 
L 5644 2797 
L 5644 2328 
L 3053 2328 
L 3053 972 
Q 3053 669 3272 600 
Q 3453 544 4013 544 
Q 4556 544 5269 600 
L 5269 97 
Q 4684 50 4147 50 
Q 3025 50 2753 250 
Q 2541 403 2541 825 
L 2541 2328 
L 744 2328 
L 744 2797 
L 2541 2797 
L 2541 3950 
L 1216 3950 
L 1216 4409 
z
" transform="scale(0.015625)"/>
      <path id="IPAexGothic-30ce" d="M 1159 500 
Q 3694 1525 4269 4591 
L 4828 4438 
Q 4106 1244 1550 78 
L 1159 500 
z
" transform="scale(0.015625)"/>
      <path id="IPAexGothic-30ed" d="M 1147 4269 
L 5250 4269 
L 5250 172 
L 4725 172 
L 4725 569 
L 1672 569 
L 1672 172 
L 1147 172 
L 1147 4269 
z
M 1672 3781 
L 1672 1063 
L 4725 1063 
L 4725 3781 
L 1672 3781 
z
" transform="scale(0.015625)"/>
      <path id="IPAexGothic-63db" d="M 3872 3591 
Q 3850 3047 3722 2722 
Q 3588 2403 3225 2144 
L 2981 2434 
L 2981 1775 
L 2578 1775 
L 2578 3259 
Q 2428 3078 2219 2869 
L 1981 3206 
Q 2853 4097 3219 5306 
L 3634 5219 
Q 3591 5084 3513 4878 
L 4606 4878 
L 4844 4691 
Q 4647 4288 4428 3950 
L 5644 3950 
L 5644 1775 
L 5234 1775 
L 5234 2331 
L 4709 2331 
Q 4313 2331 4313 2663 
L 4313 3591 
L 3872 3591 
z
M 3494 3591 
L 2981 3591 
L 2981 2453 
Q 3300 2644 3403 2959 
Q 3475 3191 3494 3591 
z
M 3063 3950 
L 3991 3950 
Q 4200 4278 4300 4519 
L 3366 4519 
Q 3225 4222 3063 3950 
z
M 4697 3591 
L 4697 2831 
Q 4697 2691 4888 2691 
L 5234 2691 
L 5234 3591 
L 4697 3591 
z
M 4416 1191 
Q 4916 394 6106 59 
L 5803 -378 
Q 4528 150 4097 1038 
Q 3738 -91 2363 -472 
L 2078 -69 
Q 3422 150 3750 1191 
L 2113 1191 
L 2113 1563 
L 3828 1563 
L 3828 2119 
L 4256 2119 
L 4256 1563 
L 6041 1563 
L 6041 1191 
L 4416 1191 
z
M 1184 4019 
L 1184 5313 
L 1613 5313 
L 1613 4019 
L 2266 4019 
L 2266 3603 
L 1613 3603 
L 1613 2394 
Q 1903 2472 2266 2597 
L 2303 2241 
Q 2038 2119 1613 1978 
L 1613 6 
Q 1613 -272 1491 -363 
Q 1391 -447 1088 -447 
Q 759 -447 519 -403 
L 441 56 
Q 716 -6 972 -6 
Q 1184 -6 1184 172 
L 1184 1844 
L 1125 1825 
Q 691 1697 409 1625 
L 275 2059 
Q 769 2163 1184 2272 
L 1184 3603 
L 372 3603 
L 372 4019 
L 1184 4019 
z
" transform="scale(0.015625)"/>
      <path id="IPAexGothic-5b9f" d="M 3525 1275 
Q 4288 350 6022 91 
L 5738 -375 
Q 3953 -41 3219 1050 
Q 2731 -144 728 -472 
L 466 -44 
Q 2422 150 2872 1275 
L 384 1275 
L 384 1659 
L 2950 1659 
L 2950 2144 
L 966 2144 
L 966 2509 
L 2950 2509 
L 2950 2969 
L 1266 2969 
L 1266 3341 
L 2950 3341 
L 2950 3988 
L 3403 3988 
L 3403 3341 
L 5125 3341 
L 5125 2969 
L 3403 2969 
L 3403 2509 
L 5444 2509 
L 5444 2144 
L 3403 2144 
L 3403 1659 
L 6016 1659 
L 6016 1275 
L 3525 1275 
z
M 3413 4544 
L 5778 4544 
L 5778 3269 
L 5309 3269 
L 5309 4147 
L 1084 4147 
L 1084 3269 
L 616 3269 
L 616 4544 
L 2938 4544 
L 2938 5313 
L 3413 5313 
L 3413 4544 
z
" transform="scale(0.015625)"/>
      <path id="IPAexGothic-88c5" d="M 3588 1709 
Q 3831 1291 4234 916 
Q 4722 1234 5134 1638 
L 5572 1391 
Q 5041 944 4559 659 
Q 5131 263 6069 -50 
L 5763 -447 
Q 3756 350 3178 1709 
Q 2775 1338 2275 1050 
L 2275 153 
Q 3034 278 3722 447 
L 3741 66 
Q 2363 -281 1175 -466 
L 1003 -31 
Q 1078 -22 1834 78 
L 1834 825 
Q 1244 566 472 334 
L 191 719 
Q 1719 1091 2647 1709 
L 344 1709 
L 344 2094 
L 2941 2094 
L 2941 2594 
L 3394 2594 
L 3394 2094 
L 6038 2094 
L 6038 1709 
L 3588 1709 
z
M 1728 3334 
Q 1716 3322 1638 3272 
Q 1234 2978 666 2694 
L 416 3097 
Q 1050 3359 1728 3794 
L 1728 5313 
L 2169 5313 
L 2169 2463 
L 1728 2463 
L 1728 3334 
z
M 3909 4525 
L 3909 5313 
L 4356 5313 
L 4356 4525 
L 5956 4525 
L 5956 4116 
L 4356 4116 
L 4356 3103 
L 5738 3103 
L 5738 2719 
L 2609 2719 
L 2609 3103 
L 3909 3103 
L 3909 4116 
L 2431 4116 
L 2431 4525 
L 3909 4525 
z
M 1100 3853 
Q 853 4472 581 4800 
L 953 5025 
Q 1259 4631 1491 4103 
L 1100 3853 
z
" transform="scale(0.015625)"/>
     </defs>
     <use xlink:href="#IPAexGothic-ff08"/>
     <use xlink:href="#IPAexGothic-767a" x="100"/>
     <use xlink:href="#IPAexGothic-5c55" x="200"/>
     <use xlink:href="#IPAexGothic-ff09" x="300"/>
     <use xlink:href="#IPAexGothic-4e" x="400"/>
     <use xlink:href="#IPAexGothic-75" x="475.976562"/>
     <use xlink:href="#IPAexGothic-6d" x="536.376953"/>
     <use xlink:href="#IPAexGothic-50" x="623.486328"/>
     <use xlink:href="#IPAexGothic-79" x="685.595703"/>
     <use xlink:href="#IPAexGothic-3067" x="734.814453"/>
     <use xlink:href="#IPAexGothic-32" x="834.814453"/>
     <use xlink:href="#IPAexGothic-5024" x="897.802734"/>
     <use xlink:href="#IPAexGothic-5316" x="997.802734"/>
     <use xlink:href="#IPAexGothic-51e6" x="1097.802734"/>
     <use xlink:href="#IPAexGothic-7406" x="1197.802734"/>
     <use xlink:href="#IPAexGothic-ff08" x="1297.802734"/>
     <use xlink:href="#IPAexGothic-95be" x="1397.802734"/>
     <use xlink:href="#IPAexGothic-5024" x="1497.802734"/>
     <use xlink:href="#IPAexGothic-3067" x="1597.802734"/>
     <use xlink:href="#IPAexGothic-30e2" x="1697.802734"/>
     <use xlink:href="#IPAexGothic-30ce" x="1797.802734"/>
     <use xlink:href="#IPAexGothic-30af" x="1897.802734"/>
     <use xlink:href="#IPAexGothic-30ed" x="1997.802734"/>
     <use xlink:href="#IPAexGothic-306b" x="2097.802734"/>
     <use xlink:href="#IPAexGothic-5909" x="2197.802734"/>
     <use xlink:href="#IPAexGothic-63db" x="2297.802734"/>
     <use xlink:href="#IPAexGothic-ff09" x="2397.802734"/>
     <use xlink:href="#IPAexGothic-3092" x="2497.802734"/>
     <use xlink:href="#IPAexGothic-5b9f" x="2597.802734"/>
     <use xlink:href="#IPAexGothic-88c5" x="2697.802734"/>
     <use xlink:href="#IPAexGothic-3059" x="2797.802734"/>
     <use xlink:href="#IPAexGothic-308b" x="2897.802734"/>
    </g>
   </g>
   <g id="text_14">
    <!-- ヒント：np.where(条件, 255, 0) -->
    <g style="fill: #7f8c8d" transform="translate(66.24 228.610625) scale(0.1 -0.1)">
     <defs>
      <path id="IPAexGothic-30d2" d="M 1375 4806 
L 1900 4806 
L 1900 2809 
Q 3572 3188 4766 3922 
L 5150 3506 
Q 3663 2716 1900 2328 
L 1900 1094 
Q 1900 775 2091 700 
Q 2288 616 3181 616 
Q 4184 616 5413 750 
L 5413 238 
Q 4275 128 3281 128 
Q 1956 128 1663 325 
Q 1375 509 1375 997 
L 1375 4806 
z
" transform="scale(0.015625)"/>
      <path id="IPAexGothic-30c8" d="M 2284 4997 
L 2803 4997 
L 2803 3206 
Q 4088 2619 5216 1888 
L 4878 1369 
Q 3819 2175 2803 2688 
L 2803 -184 
L 2284 -184 
L 2284 4997 
z
" transform="scale(0.015625)"/>
      <path id="IPAexGothic-ff1a" d="M 2822 3366 
L 3578 3366 
L 3578 2609 
L 2822 2609 
L 2822 3366 
z
M 2822 1081 
L 3578 1081 
L 3578 325 
L 2822 325 
L 2822 1081 
z
" transform="scale(0.015625)"/>
      <path id="IPAexGothic-77" d="M 4772 3250 
L 3666 6 
L 3281 6 
L 2609 1919 
Q 2509 2203 2413 2622 
L 2394 2622 
Q 2322 2319 2188 1919 
L 1534 6 
L 1150 6 
L 44 3250 
L 619 3250 
L 1156 1491 
Q 1206 1331 1363 753 
L 1381 753 
Q 1475 1125 1594 1491 
L 2169 3250 
L 2656 3250 
L 3256 1491 
Q 3347 1244 3469 753 
L 3488 753 
Q 3591 1184 3684 1491 
L 4216 3250 
L 4772 3250 
z
" transform="scale(0.015625)"/>
      <path id="IPAexGothic-28" d="M 1928 -1016 
L 1653 -1166 
Q 488 69 488 1875 
Q 488 3678 1653 4909 
L 1928 4763 
Q 1006 3522 1006 1881 
Q 1006 203 1928 -1016 
z
" transform="scale(0.015625)"/>
      <path id="IPAexGothic-6761" d="M 3406 1475 
L 3406 -447 
L 2953 -447 
L 2953 1422 
Q 2147 306 641 -331 
L 334 59 
Q 1738 569 2563 1538 
L 488 1538 
L 488 1941 
L 2953 1941 
L 2953 2691 
L 3406 2691 
L 3406 1941 
L 5928 1941 
L 5928 1538 
L 3847 1538 
Q 4597 769 6063 238 
L 5759 -203 
Q 4256 400 3406 1475 
z
M 3738 3419 
Q 4619 2991 5959 2772 
L 5684 2356 
Q 4216 2631 3353 3150 
Q 2350 2494 813 2175 
L 531 2566 
Q 2063 2825 2997 3391 
Q 2494 3763 2163 4219 
Q 1694 3747 1038 3359 
L 725 3688 
Q 1897 4319 2466 5306 
L 2900 5203 
Q 2784 5003 2713 4903 
L 4641 4903 
L 4872 4691 
Q 4384 3938 3738 3419 
z
M 3353 3634 
Q 3919 4075 4219 4531 
L 2438 4531 
L 2425 4513 
Q 2838 3956 3353 3634 
z
" transform="scale(0.015625)"/>
      <path id="IPAexGothic-4ef6" d="M 3903 3425 
L 2906 3425 
Q 2697 2825 2309 2247 
L 1991 2572 
Q 2588 3497 2803 4788 
L 3256 4713 
Q 3175 4313 3041 3834 
L 3903 3834 
L 3903 5250 
L 4356 5250 
L 4356 3834 
L 5731 3834 
L 5731 3425 
L 4356 3425 
L 4356 2009 
L 6041 2009 
L 6041 1594 
L 4356 1594 
L 4356 -447 
L 3903 -447 
L 3903 1594 
L 2078 1594 
L 2078 2009 
L 3903 2009 
L 3903 3425 
z
M 1638 3681 
L 1638 -447 
L 1169 -447 
L 1169 2753 
Q 881 2272 575 1863 
L 313 2253 
Q 1238 3463 1650 5184 
L 2125 5069 
Q 1909 4316 1638 3681 
z
" transform="scale(0.015625)"/>
      <path id="IPAexGothic-2c" d="M 1150 728 
Q 1028 -159 563 -1006 
L 153 -897 
Q 494 -100 569 728 
L 1150 728 
z
" transform="scale(0.015625)"/>
      <path id="IPAexGothic-35" d="M 1178 2603 
Q 1634 2963 2172 2963 
Q 2816 2963 3241 2528 
Q 3638 2113 3638 1497 
Q 3638 938 3297 513 
Q 2869 -31 2031 -31 
Q 959 -31 469 784 
L 938 1028 
Q 1309 434 2013 434 
Q 2466 434 2769 716 
Q 3081 1013 3081 1503 
Q 3081 1966 2806 2241 
Q 2519 2528 2056 2528 
Q 1406 2528 1072 2028 
L 591 2091 
L 884 4634 
L 3406 4634 
L 3406 4153 
L 1341 4153 
L 1134 2603 
L 1178 2603 
z
" transform="scale(0.015625)"/>
      <path id="IPAexGothic-29" d="M 466 4909 
Q 1638 3672 1638 1875 
Q 1638 75 466 -1166 
L 191 -1016 
Q 1119 216 1119 1881 
Q 1119 3509 191 4763 
L 466 4909 
z
" transform="scale(0.015625)"/>
     </defs>
     <use xlink:href="#IPAexGothic-30d2"/>
     <use xlink:href="#IPAexGothic-30f3" x="100"/>
     <use xlink:href="#IPAexGothic-30c8" x="200"/>
     <use xlink:href="#IPAexGothic-ff1a" x="300"/>
     <use xlink:href="#IPAexGothic-6e" x="400"/>
     <use xlink:href="#IPAexGothic-70" x="460.400391"/>
     <use xlink:href="#IPAexGothic-2e" x="522.509766"/>
     <use xlink:href="#IPAexGothic-77" x="548.925781"/>
     <use xlink:href="#IPAexGothic-68" x="624.121094"/>
     <use xlink:href="#IPAexGothic-65" x="684.814453"/>
     <use xlink:href="#IPAexGothic-72" x="741.699219"/>
     <use xlink:href="#IPAexGothic-65" x="778.710938"/>
     <use xlink:href="#IPAexGothic-28" x="835.595703"/>
     <use xlink:href="#IPAexGothic-6761" x="868.896484"/>
     <use xlink:href="#IPAexGothic-4ef6" x="968.896484"/>
     <use xlink:href="#IPAexGothic-2c" x="1068.896484"/>
     <use xlink:href="#IPAexGothic-20" x="1095.3125"/>
     <use xlink:href="#IPAexGothic-32" x="1122.314453"/>
     <use xlink:href="#IPAexGothic-35" x="1185.302734"/>
     <use xlink:href="#IPAexGothic-35" x="1248.291016"/>
     <use xlink:href="#IPAexGothic-2c" x="1311.279297"/>
     <use xlink:href="#IPAexGothic-20" x="1337.695312"/>
     <use xlink:href="#IPAexGothic-30" x="1364.697266"/>
     <use xlink:href="#IPAexGothic-29" x="1427.685547"/>
    </g>
   </g>
  </g>
 </g>
 <defs>
  <clipPath id="pbef4c81909">
   <rect x="0" y="-0" width="691.2" height="388.8"/>
  </clipPath>
 </defs>
</svg>
