<?xml version="1.0" encoding="utf-8" standalone="no"?>
<!DOCTYPE svg PUBLIC "-//W3C//DTD SVG 1.1//EN"
  "http://www.w3.org/Graphics/SVG/1.1/DTD/svg11.dtd">
<svg xmlns:xlink="http://www.w3.org/1999/xlink" width="691.2pt" height="388.8pt" viewBox="0 0 691.2 388.8" xmlns="http://www.w3.org/2000/svg" version="1.1">
 <metadata>
  <rdf:RDF xmlns:dc="http://purl.org/dc/elements/1.1/" xmlns:cc="http://creativecommons.org/ns#" xmlns:rdf="http://www.w3.org/1999/02/22-rdf-syntax-ns#">
   <cc:Work>
    <dc:type rdf:resource="http://purl.org/dc/dcmitype/StillImage"/>
    <dc:date>2026-04-09T02:37:45.829135</dc:date>
    <dc:format>image/svg+xml</dc:format>
    <dc:creator>
     <cc:Agent>
      <dc:title>Matplotlib v3.9.4, https://matplotlib.org/</dc:title>
     </cc:Agent>
    </dc:creator>
   </cc:Work>
  </rdf:RDF>
 </metadata>
 <defs>
  <style type="text/css">*{stroke-linejoin: round; stroke-linecap: butt}</style>
 </defs>
 <g id="figure_1">
  <g id="patch_1">
   <path d="M 0 388.8 
L 691.2 388.8 
L 691.2 0 
L 0 0 
z
" style="fill: #ffffff"/>
  </g>
  <g id="axes_1">
   <g id="patch_2">
    <path d="M 0 -0 
L 691.2 -0 
L 691.2 24.48 
L 0 24.48 
z
" clip-path="url(#p99d832c0bb)" style="fill: #e8a838"/>
   </g>
   <g id="patch_3">
    <path d="M 31.68 59.04 
L 659.52 59.04 
L 659.52 60.48 
L 31.68 60.48 
z
" clip-path="url(#p99d832c0bb)" style="fill: #ecf0f1"/>
   </g>
   <g id="patch_4">
    <path d="M 31.68 59.04 
L 659.52 59.04 
L 659.52 87.84 
L 31.68 87.84 
z
" clip-path="url(#p99d832c0bb)" style="fill: #fef9e7"/>
   </g>
   <g id="patch_5">
    <path d="M 31.68 59.04 
L 33.84 59.04 
L 33.84 87.84 
L 31.68 87.84 
z
" clip-path="url(#p99d832c0bb)" style="fill: #e8a838"/>
   </g>
   <g id="patch_6">
    <path d="M 31.68 97.92 
L 56.88 97.92 
L 56.88 123.12 
L 31.68 123.12 
z
" clip-path="url(#p99d832c0bb)" style="fill: #ffffff; stroke: #dddddd; stroke-width: 0.5; stroke-linejoin: miter"/>
   </g>
   <g id="patch_7">
    <path d="M 57.6 97.92 
L 82.8 97.92 
L 82.8 123.12 
L 57.6 123.12 
z
" clip-path="url(#p99d832c0bb)" style="fill: #ffffff; stroke: #dddddd; stroke-width: 0.5; stroke-linejoin: miter"/>
   </g>
   <g id="patch_8">
    <path d="M 83.52 97.92 
L 108.72 97.92 
L 108.72 123.12 
L 83.52 123.12 
z
" clip-path="url(#p99d832c0bb)" style="fill: #afafaf; stroke: #dddddd; stroke-width: 0.5; stroke-linejoin: miter"/>
   </g>
   <g id="patch_9">
    <path d="M 109.44 97.92 
L 134.64 97.92 
L 134.64 123.12 
L 109.44 123.12 
z
" clip-path="url(#p99d832c0bb)" style="fill: #2f2f2f; stroke: #dddddd; stroke-width: 0.5; stroke-linejoin: miter"/>
   </g>
   <g id="patch_10">
    <path d="M 135.36 97.92 
L 160.56 97.92 
L 160.56 123.12 
L 135.36 123.12 
z
" clip-path="url(#p99d832c0bb)" style="fill: #6f6f6f; stroke: #dddddd; stroke-width: 0.5; stroke-linejoin: miter"/>
   </g>
   <g id="patch_11">
    <path d="M 161.28 97.92 
L 186.48 97.92 
L 186.48 123.12 
L 161.28 123.12 
z
" clip-path="url(#p99d832c0bb)" style="fill: #efefef; stroke: #dddddd; stroke-width: 0.5; stroke-linejoin: miter"/>
   </g>
   <g id="patch_12">
    <path d="M 187.2 97.92 
L 212.4 97.92 
L 212.4 123.12 
L 187.2 123.12 
z
" clip-path="url(#p99d832c0bb)" style="fill: #ffffff; stroke: #dddddd; stroke-width: 0.5; stroke-linejoin: miter"/>
   </g>
   <g id="patch_13">
    <path d="M 213.12 97.92 
L 238.32 97.92 
L 238.32 123.12 
L 213.12 123.12 
z
" clip-path="url(#p99d832c0bb)" style="fill: #ffffff; stroke: #dddddd; stroke-width: 0.5; stroke-linejoin: miter"/>
   </g>
   <g id="patch_14">
    <path d="M 31.68 123.84 
L 56.88 123.84 
L 56.88 149.04 
L 31.68 149.04 
z
" clip-path="url(#p99d832c0bb)" style="fill: #ffffff; stroke: #dddddd; stroke-width: 0.5; stroke-linejoin: miter"/>
   </g>
   <g id="patch_15">
    <path d="M 57.6 123.84 
L 82.8 123.84 
L 82.8 149.04 
L 57.6 149.04 
z
" clip-path="url(#p99d832c0bb)" style="fill: #ffffff; stroke: #dddddd; stroke-width: 0.5; stroke-linejoin: miter"/>
   </g>
   <g id="patch_16">
    <path d="M 83.52 123.84 
L 108.72 123.84 
L 108.72 149.04 
L 83.52 149.04 
z
" clip-path="url(#p99d832c0bb)" style="fill: #2f2f2f; stroke: #dddddd; stroke-width: 0.5; stroke-linejoin: miter"/>
   </g>
   <g id="patch_17">
    <path d="M 109.44 123.84 
L 134.64 123.84 
L 134.64 149.04 
L 109.44 149.04 
z
" clip-path="url(#p99d832c0bb)" style="fill: #0f0f0f; stroke: #dddddd; stroke-width: 0.5; stroke-linejoin: miter"/>
   </g>
   <g id="patch_18">
    <path d="M 135.36 123.84 
L 160.56 123.84 
L 160.56 149.04 
L 135.36 149.04 
z
" clip-path="url(#p99d832c0bb)" style="fill: #5f5f5f; stroke: #dddddd; stroke-width: 0.5; stroke-linejoin: miter"/>
   </g>
   <g id="patch_19">
    <path d="M 161.28 123.84 
L 186.48 123.84 
L 186.48 149.04 
L 161.28 149.04 
z
" clip-path="url(#p99d832c0bb)" style="fill: #0f0f0f; stroke: #dddddd; stroke-width: 0.5; stroke-linejoin: miter"/>
   </g>
   <g id="patch_20">
    <path d="M 187.2 123.84 
L 212.4 123.84 
L 212.4 149.04 
L 187.2 149.04 
z
" clip-path="url(#p99d832c0bb)" style="fill: #afafaf; stroke: #dddddd; stroke-width: 0.5; stroke-linejoin: miter"/>
   </g>
   <g id="patch_21">
    <path d="M 213.12 123.84 
L 238.32 123.84 
L 238.32 149.04 
L 213.12 149.04 
z
" clip-path="url(#p99d832c0bb)" style="fill: #ffffff; stroke: #dddddd; stroke-width: 0.5; stroke-linejoin: miter"/>
   </g>
   <g id="patch_22">
    <path d="M 31.68 149.76 
L 56.88 149.76 
L 56.88 174.96 
L 31.68 174.96 
z
" clip-path="url(#p99d832c0bb)" style="fill: #ffffff; stroke: #dddddd; stroke-width: 0.5; stroke-linejoin: miter"/>
   </g>
   <g id="patch_23">
    <path d="M 57.6 149.76 
L 82.8 149.76 
L 82.8 174.96 
L 57.6 174.96 
z
" clip-path="url(#p99d832c0bb)" style="fill: #cfcfcf; stroke: #dddddd; stroke-width: 0.5; stroke-linejoin: miter"/>
   </g>
   <g id="patch_24">
    <path d="M 83.52 149.76 
L 108.72 149.76 
L 108.72 174.96 
L 83.52 174.96 
z
" clip-path="url(#p99d832c0bb)" style="fill: #0f0f0f; stroke: #dddddd; stroke-width: 0.5; stroke-linejoin: miter"/>
   </g>
   <g id="patch_25">
    <path d="M 109.44 149.76 
L 134.64 149.76 
L 134.64 174.96 
L 109.44 174.96 
z
" clip-path="url(#p99d832c0bb)" style="fill: #dfdfdf; stroke: #dddddd; stroke-width: 0.5; stroke-linejoin: miter"/>
   </g>
   <g id="patch_26">
    <path d="M 135.36 149.76 
L 160.56 149.76 
L 160.56 174.96 
L 135.36 174.96 
z
" clip-path="url(#p99d832c0bb)" style="fill: #ffffff; stroke: #dddddd; stroke-width: 0.5; stroke-linejoin: miter"/>
   </g>
   <g id="patch_27">
    <path d="M 161.28 149.76 
L 186.48 149.76 
L 186.48 174.96 
L 161.28 174.96 
z
" clip-path="url(#p99d832c0bb)" style="fill: #4f4f4f; stroke: #dddddd; stroke-width: 0.5; stroke-linejoin: miter"/>
   </g>
   <g id="patch_28">
    <path d="M 187.2 149.76 
L 212.4 149.76 
L 212.4 174.96 
L 187.2 174.96 
z
" clip-path="url(#p99d832c0bb)" style="fill: #7f7f7f; stroke: #dddddd; stroke-width: 0.5; stroke-linejoin: miter"/>
   </g>
   <g id="patch_29">
    <path d="M 213.12 149.76 
L 238.32 149.76 
L 238.32 174.96 
L 213.12 174.96 
z
" clip-path="url(#p99d832c0bb)" style="fill: #ffffff; stroke: #dddddd; stroke-width: 0.5; stroke-linejoin: miter"/>
   </g>
   <g id="patch_30">
    <path d="M 31.68 175.68 
L 56.88 175.68 
L 56.88 200.88 
L 31.68 200.88 
z
" clip-path="url(#p99d832c0bb)" style="fill: #ffffff; stroke: #dddddd; stroke-width: 0.5; stroke-linejoin: miter"/>
   </g>
   <g id="patch_31">
    <path d="M 57.6 175.68 
L 82.8 175.68 
L 82.8 200.88 
L 57.6 200.88 
z
" clip-path="url(#p99d832c0bb)" style="fill: #bfbfbf; stroke: #dddddd; stroke-width: 0.5; stroke-linejoin: miter"/>
   </g>
   <g id="patch_32">
    <path d="M 83.52 175.68 
L 108.72 175.68 
L 108.72 200.88 
L 83.52 200.88 
z
" clip-path="url(#p99d832c0bb)" style="fill: #3f3f3f; stroke: #dddddd; stroke-width: 0.5; stroke-linejoin: miter"/>
   </g>
   <g id="patch_33">
    <path d="M 109.44 175.68 
L 134.64 175.68 
L 134.64 200.88 
L 109.44 200.88 
z
" clip-path="url(#p99d832c0bb)" style="fill: #ffffff; stroke: #dddddd; stroke-width: 0.5; stroke-linejoin: miter"/>
   </g>
   <g id="patch_34">
    <path d="M 135.36 175.68 
L 160.56 175.68 
L 160.56 200.88 
L 135.36 200.88 
z
" clip-path="url(#p99d832c0bb)" style="fill: #ffffff; stroke: #dddddd; stroke-width: 0.5; stroke-linejoin: miter"/>
   </g>
   <g id="patch_35">
    <path d="M 161.28 175.68 
L 186.48 175.68 
L 186.48 200.88 
L 161.28 200.88 
z
" clip-path="url(#p99d832c0bb)" style="fill: #7f7f7f; stroke: #dddddd; stroke-width: 0.5; stroke-linejoin: miter"/>
   </g>
   <g id="patch_36">
    <path d="M 187.2 175.68 
L 212.4 175.68 
L 212.4 200.88 
L 187.2 200.88 
z
" clip-path="url(#p99d832c0bb)" style="fill: #7f7f7f; stroke: #dddddd; stroke-width: 0.5; stroke-linejoin: miter"/>
   </g>
   <g id="patch_37">
    <path d="M 213.12 175.68 
L 238.32 175.68 
L 238.32 200.88 
L 213.12 200.88 
z
" clip-path="url(#p99d832c0bb)" style="fill: #ffffff; stroke: #dddddd; stroke-width: 0.5; stroke-linejoin: miter"/>
   </g>
   <g id="patch_38">
    <path d="M 31.68 201.6 
L 56.88 201.6 
L 56.88 226.8 
L 31.68 226.8 
z
" clip-path="url(#p99d832c0bb)" style="fill: #ffffff; stroke: #dddddd; stroke-width: 0.5; stroke-linejoin: miter"/>
   </g>
   <g id="patch_39">
    <path d="M 57.6 201.6 
L 82.8 201.6 
L 82.8 226.8 
L 57.6 226.8 
z
" clip-path="url(#p99d832c0bb)" style="fill: #afafaf; stroke: #dddddd; stroke-width: 0.5; stroke-linejoin: miter"/>
   </g>
   <g id="patch_40">
    <path d="M 83.52 201.6 
L 108.72 201.6 
L 108.72 226.8 
L 83.52 226.8 
z
" clip-path="url(#p99d832c0bb)" style="fill: #7f7f7f; stroke: #dddddd; stroke-width: 0.5; stroke-linejoin: miter"/>
   </g>
   <g id="patch_41">
    <path d="M 109.44 201.6 
L 134.64 201.6 
L 134.64 226.8 
L 109.44 226.8 
z
" clip-path="url(#p99d832c0bb)" style="fill: #ffffff; stroke: #dddddd; stroke-width: 0.5; stroke-linejoin: miter"/>
   </g>
   <g id="patch_42">
    <path d="M 135.36 201.6 
L 160.56 201.6 
L 160.56 226.8 
L 135.36 226.8 
z
" clip-path="url(#p99d832c0bb)" style="fill: #ffffff; stroke: #dddddd; stroke-width: 0.5; stroke-linejoin: miter"/>
   </g>
   <g id="patch_43">
    <path d="M 161.28 201.6 
L 186.48 201.6 
L 186.48 226.8 
L 161.28 226.8 
z
" clip-path="url(#p99d832c0bb)" style="fill: #6f6f6f; stroke: #dddddd; stroke-width: 0.5; stroke-linejoin: miter"/>
   </g>
   <g id="patch_44">
    <path d="M 187.2 201.6 
L 212.4 201.6 
L 212.4 226.8 
L 187.2 226.8 
z
" clip-path="url(#p99d832c0bb)" style="fill: #7f7f7f; stroke: #dddddd; stroke-width: 0.5; stroke-linejoin: miter"/>
   </g>
   <g id="patch_45">
    <path d="M 213.12 201.6 
L 238.32 201.6 
L 238.32 226.8 
L 213.12 226.8 
z
" clip-path="url(#p99d832c0bb)" style="fill: #ffffff; stroke: #dddddd; stroke-width: 0.5; stroke-linejoin: miter"/>
   </g>
   <g id="patch_46">
    <path d="M 31.68 227.52 
L 56.88 227.52 
L 56.88 252.72 
L 31.68 252.72 
z
" clip-path="url(#p99d832c0bb)" style="fill: #ffffff; stroke: #dddddd; stroke-width: 0.5; stroke-linejoin: miter"/>
   </g>
   <g id="patch_47">
    <path d="M 57.6 227.52 
L 82.8 227.52 
L 82.8 252.72 
L 57.6 252.72 
z
" clip-path="url(#p99d832c0bb)" style="fill: #bfbfbf; stroke: #dddddd; stroke-width: 0.5; stroke-linejoin: miter"/>
   </g>
   <g id="patch_48">
    <path d="M 83.52 227.52 
L 108.72 227.52 
L 108.72 252.72 
L 83.52 252.72 
z
" clip-path="url(#p99d832c0bb)" style="fill: #4f4f4f; stroke: #dddddd; stroke-width: 0.5; stroke-linejoin: miter"/>
   </g>
   <g id="patch_49">
    <path d="M 109.44 227.52 
L 134.64 227.52 
L 134.64 252.72 
L 109.44 252.72 
z
" clip-path="url(#p99d832c0bb)" style="fill: #ffffff; stroke: #dddddd; stroke-width: 0.5; stroke-linejoin: miter"/>
   </g>
   <g id="patch_50">
    <path d="M 135.36 227.52 
L 160.56 227.52 
L 160.56 252.72 
L 135.36 252.72 
z
" clip-path="url(#p99d832c0bb)" style="fill: #efefef; stroke: #dddddd; stroke-width: 0.5; stroke-linejoin: miter"/>
   </g>
   <g id="patch_51">
    <path d="M 161.28 227.52 
L 186.48 227.52 
L 186.48 252.72 
L 161.28 252.72 
z
" clip-path="url(#p99d832c0bb)" style="fill: #3f3f3f; stroke: #dddddd; stroke-width: 0.5; stroke-linejoin: miter"/>
   </g>
   <g id="patch_52">
    <path d="M 187.2 227.52 
L 212.4 227.52 
L 212.4 252.72 
L 187.2 252.72 
z
" clip-path="url(#p99d832c0bb)" style="fill: #8f8f8f; stroke: #dddddd; stroke-width: 0.5; stroke-linejoin: miter"/>
   </g>
   <g id="patch_53">
    <path d="M 213.12 227.52 
L 238.32 227.52 
L 238.32 252.72 
L 213.12 252.72 
z
" clip-path="url(#p99d832c0bb)" style="fill: #ffffff; stroke: #dddddd; stroke-width: 0.5; stroke-linejoin: miter"/>
   </g>
   <g id="patch_54">
    <path d="M 31.68 253.44 
L 56.88 253.44 
L 56.88 278.64 
L 31.68 278.64 
z
" clip-path="url(#p99d832c0bb)" style="fill: #ffffff; stroke: #dddddd; stroke-width: 0.5; stroke-linejoin: miter"/>
   </g>
   <g id="patch_55">
    <path d="M 57.6 253.44 
L 82.8 253.44 
L 82.8 278.64 
L 57.6 278.64 
z
" clip-path="url(#p99d832c0bb)" style="fill: #dfdfdf; stroke: #dddddd; stroke-width: 0.5; stroke-linejoin: miter"/>
   </g>
   <g id="patch_56">
    <path d="M 83.52 253.44 
L 108.72 253.44 
L 108.72 278.64 
L 83.52 278.64 
z
" clip-path="url(#p99d832c0bb)" style="fill: #1f1f1f; stroke: #dddddd; stroke-width: 0.5; stroke-linejoin: miter"/>
   </g>
   <g id="patch_57">
    <path d="M 109.44 253.44 
L 134.64 253.44 
L 134.64 278.64 
L 109.44 278.64 
z
" clip-path="url(#p99d832c0bb)" style="fill: #afafaf; stroke: #dddddd; stroke-width: 0.5; stroke-linejoin: miter"/>
   </g>
   <g id="patch_58">
    <path d="M 135.36 253.44 
L 160.56 253.44 
L 160.56 278.64 
L 135.36 278.64 
z
" clip-path="url(#p99d832c0bb)" style="fill: #5f5f5f; stroke: #dddddd; stroke-width: 0.5; stroke-linejoin: miter"/>
   </g>
   <g id="patch_59">
    <path d="M 161.28 253.44 
L 186.48 253.44 
L 186.48 278.64 
L 161.28 278.64 
z
" clip-path="url(#p99d832c0bb)" style="fill: #3f3f3f; stroke: #dddddd; stroke-width: 0.5; stroke-linejoin: miter"/>
   </g>
   <g id="patch_60">
    <path d="M 187.2 253.44 
L 212.4 253.44 
L 212.4 278.64 
L 187.2 278.64 
z
" clip-path="url(#p99d832c0bb)" style="fill: #ffffff; stroke: #dddddd; stroke-width: 0.5; stroke-linejoin: miter"/>
   </g>
   <g id="patch_61">
    <path d="M 213.12 253.44 
L 238.32 253.44 
L 238.32 278.64 
L 213.12 278.64 
z
" clip-path="url(#p99d832c0bb)" style="fill: #ffffff; stroke: #dddddd; stroke-width: 0.5; stroke-linejoin: miter"/>
   </g>
   <g id="patch_62">
    <path d="M 31.68 279.36 
L 56.88 279.36 
L 56.88 304.56 
L 31.68 304.56 
z
" clip-path="url(#p99d832c0bb)" style="fill: #ffffff; stroke: #dddddd; stroke-width: 0.5; stroke-linejoin: miter"/>
   </g>
   <g id="patch_63">
    <path d="M 57.6 279.36 
L 82.8 279.36 
L 82.8 304.56 
L 57.6 304.56 
z
" clip-path="url(#p99d832c0bb)" style="fill: #ffffff; stroke: #dddddd; stroke-width: 0.5; stroke-linejoin: miter"/>
   </g>
   <g id="patch_64">
    <path d="M 83.52 279.36 
L 108.72 279.36 
L 108.72 304.56 
L 83.52 304.56 
z
" clip-path="url(#p99d832c0bb)" style="fill: #9f9f9f; stroke: #dddddd; stroke-width: 0.5; stroke-linejoin: miter"/>
   </g>
   <g id="patch_65">
    <path d="M 109.44 279.36 
L 134.64 279.36 
L 134.64 304.56 
L 109.44 304.56 
z
" clip-path="url(#p99d832c0bb)" style="fill: #2f2f2f; stroke: #dddddd; stroke-width: 0.5; stroke-linejoin: miter"/>
   </g>
   <g id="patch_66">
    <path d="M 135.36 279.36 
L 160.56 279.36 
L 160.56 304.56 
L 135.36 304.56 
z
" clip-path="url(#p99d832c0bb)" style="fill: #5f5f5f; stroke: #dddddd; stroke-width: 0.5; stroke-linejoin: miter"/>
   </g>
   <g id="patch_67">
    <path d="M 161.28 279.36 
L 186.48 279.36 
L 186.48 304.56 
L 161.28 304.56 
z
" clip-path="url(#p99d832c0bb)" style="fill: #ffffff; stroke: #dddddd; stroke-width: 0.5; stroke-linejoin: miter"/>
   </g>
   <g id="patch_68">
    <path d="M 187.2 279.36 
L 212.4 279.36 
L 212.4 304.56 
L 187.2 304.56 
z
" clip-path="url(#p99d832c0bb)" style="fill: #ffffff; stroke: #dddddd; stroke-width: 0.5; stroke-linejoin: miter"/>
   </g>
   <g id="patch_69">
    <path d="M 213.12 279.36 
L 238.32 279.36 
L 238.32 304.56 
L 213.12 304.56 
z
" clip-path="url(#p99d832c0bb)" style="fill: #ffffff; stroke: #dddddd; stroke-width: 0.5; stroke-linejoin: miter"/>
   </g>
   <g id="patch_70">
    <path d="M 273.6 97.92 
L 298.8 97.92 
L 298.8 123.12 
L 273.6 123.12 
z
" clip-path="url(#p99d832c0bb)" style="fill: #ffffff"/>
   </g>
   <g id="patch_71">
    <path d="M 299.52 97.92 
L 324.72 97.92 
L 324.72 123.12 
L 299.52 123.12 
z
" clip-path="url(#p99d832c0bb)" style="fill: #ffffff"/>
   </g>
   <g id="patch_72">
    <path d="M 325.44 97.92 
L 350.64 97.92 
L 350.64 123.12 
L 325.44 123.12 
z
" clip-path="url(#p99d832c0bb)" style="fill: #afafaf"/>
   </g>
   <g id="patch_73">
    <path d="M 351.36 97.92 
L 376.56 97.92 
L 376.56 123.12 
L 351.36 123.12 
z
" clip-path="url(#p99d832c0bb)" style="fill: #2f2f2f"/>
   </g>
   <g id="patch_74">
    <path d="M 377.28 97.92 
L 402.48 97.92 
L 402.48 123.12 
L 377.28 123.12 
z
" clip-path="url(#p99d832c0bb)" style="fill: #6f6f6f"/>
   </g>
   <g id="patch_75">
    <path d="M 403.2 97.92 
L 428.4 97.92 
L 428.4 123.12 
L 403.2 123.12 
z
" clip-path="url(#p99d832c0bb)" style="fill: #efefef"/>
   </g>
   <g id="patch_76">
    <path d="M 429.12 97.92 
L 454.32 97.92 
L 454.32 123.12 
L 429.12 123.12 
z
" clip-path="url(#p99d832c0bb)" style="fill: #ffffff"/>
   </g>
   <g id="patch_77">
    <path d="M 455.04 97.92 
L 480.24 97.92 
L 480.24 123.12 
L 455.04 123.12 
z
" clip-path="url(#p99d832c0bb)" style="fill: #ffffff"/>
   </g>
   <g id="patch_78">
    <path d="M 273.6 123.84 
L 298.8 123.84 
L 298.8 149.04 
L 273.6 149.04 
z
" clip-path="url(#p99d832c0bb)" style="fill: #ffffff"/>
   </g>
   <g id="patch_79">
    <path d="M 299.52 123.84 
L 324.72 123.84 
L 324.72 149.04 
L 299.52 149.04 
z
" clip-path="url(#p99d832c0bb)" style="fill: #ffffff"/>
   </g>
   <g id="patch_80">
    <path d="M 325.44 123.84 
L 350.64 123.84 
L 350.64 149.04 
L 325.44 149.04 
z
" clip-path="url(#p99d832c0bb)" style="fill: #2f2f2f"/>
   </g>
   <g id="patch_81">
    <path d="M 351.36 123.84 
L 376.56 123.84 
L 376.56 149.04 
L 351.36 149.04 
z
" clip-path="url(#p99d832c0bb)" style="fill: #0f0f0f"/>
   </g>
   <g id="patch_82">
    <path d="M 377.28 123.84 
L 402.48 123.84 
L 402.48 149.04 
L 377.28 149.04 
z
" clip-path="url(#p99d832c0bb)" style="fill: #5f5f5f"/>
   </g>
   <g id="patch_83">
    <path d="M 403.2 123.84 
L 428.4 123.84 
L 428.4 149.04 
L 403.2 149.04 
z
" clip-path="url(#p99d832c0bb)" style="fill: #0f0f0f"/>
   </g>
   <g id="patch_84">
    <path d="M 429.12 123.84 
L 454.32 123.84 
L 454.32 149.04 
L 429.12 149.04 
z
" clip-path="url(#p99d832c0bb)" style="fill: #afafaf"/>
   </g>
   <g id="patch_85">
    <path d="M 455.04 123.84 
L 480.24 123.84 
L 480.24 149.04 
L 455.04 149.04 
z
" clip-path="url(#p99d832c0bb)" style="fill: #ffffff"/>
   </g>
   <g id="patch_86">
    <path d="M 273.6 149.76 
L 298.8 149.76 
L 298.8 174.96 
L 273.6 174.96 
z
" clip-path="url(#p99d832c0bb)" style="fill: #ffffff"/>
   </g>
   <g id="patch_87">
    <path d="M 299.52 149.76 
L 324.72 149.76 
L 324.72 174.96 
L 299.52 174.96 
z
" clip-path="url(#p99d832c0bb)" style="fill: #cfcfcf"/>
   </g>
   <g id="patch_88">
    <path d="M 325.44 149.76 
L 350.64 149.76 
L 350.64 174.96 
L 325.44 174.96 
z
" clip-path="url(#p99d832c0bb)" style="fill: #0f0f0f"/>
   </g>
   <g id="patch_89">
    <path d="M 351.36 149.76 
L 376.56 149.76 
L 376.56 174.96 
L 351.36 174.96 
z
" clip-path="url(#p99d832c0bb)" style="fill: #dfdfdf"/>
   </g>
   <g id="patch_90">
    <path d="M 377.28 149.76 
L 402.48 149.76 
L 402.48 174.96 
L 377.28 174.96 
z
" clip-path="url(#p99d832c0bb)" style="fill: #ffffff"/>
   </g>
   <g id="patch_91">
    <path d="M 403.2 149.76 
L 428.4 149.76 
L 428.4 174.96 
L 403.2 174.96 
z
" clip-path="url(#p99d832c0bb)" style="fill: #4f4f4f"/>
   </g>
   <g id="patch_92">
    <path d="M 429.12 149.76 
L 454.32 149.76 
L 454.32 174.96 
L 429.12 174.96 
z
" clip-path="url(#p99d832c0bb)" style="fill: #7f7f7f"/>
   </g>
   <g id="patch_93">
    <path d="M 455.04 149.76 
L 480.24 149.76 
L 480.24 174.96 
L 455.04 174.96 
z
" clip-path="url(#p99d832c0bb)" style="fill: #ffffff"/>
   </g>
   <g id="patch_94">
    <path d="M 273.6 175.68 
L 298.8 175.68 
L 298.8 200.88 
L 273.6 200.88 
z
" clip-path="url(#p99d832c0bb)" style="fill: #ffffff"/>
   </g>
   <g id="patch_95">
    <path d="M 299.52 175.68 
L 324.72 175.68 
L 324.72 200.88 
L 299.52 200.88 
z
" clip-path="url(#p99d832c0bb)" style="fill: #bfbfbf"/>
   </g>
   <g id="patch_96">
    <path d="M 325.44 175.68 
L 350.64 175.68 
L 350.64 200.88 
L 325.44 200.88 
z
" clip-path="url(#p99d832c0bb)" style="fill: #3f3f3f"/>
   </g>
   <g id="patch_97">
    <path d="M 351.36 175.68 
L 376.56 175.68 
L 376.56 200.88 
L 351.36 200.88 
z
" clip-path="url(#p99d832c0bb)" style="fill: #ffffff"/>
   </g>
   <g id="patch_98">
    <path d="M 377.28 175.68 
L 402.48 175.68 
L 402.48 200.88 
L 377.28 200.88 
z
" clip-path="url(#p99d832c0bb)" style="fill: #ffffff"/>
   </g>
   <g id="patch_99">
    <path d="M 403.2 175.68 
L 428.4 175.68 
L 428.4 200.88 
L 403.2 200.88 
z
" clip-path="url(#p99d832c0bb)" style="fill: #7f7f7f"/>
   </g>
   <g id="patch_100">
    <path d="M 429.12 175.68 
L 454.32 175.68 
L 454.32 200.88 
L 429.12 200.88 
z
" clip-path="url(#p99d832c0bb)" style="fill: #7f7f7f"/>
   </g>
   <g id="patch_101">
    <path d="M 455.04 175.68 
L 480.24 175.68 
L 480.24 200.88 
L 455.04 200.88 
z
" clip-path="url(#p99d832c0bb)" style="fill: #ffffff"/>
   </g>
   <g id="patch_102">
    <path d="M 273.6 201.6 
L 298.8 201.6 
L 298.8 226.8 
L 273.6 226.8 
z
" clip-path="url(#p99d832c0bb)" style="fill: #ffffff"/>
   </g>
   <g id="patch_103">
    <path d="M 299.52 201.6 
L 324.72 201.6 
L 324.72 226.8 
L 299.52 226.8 
z
" clip-path="url(#p99d832c0bb)" style="fill: #afafaf"/>
   </g>
   <g id="patch_104">
    <path d="M 325.44 201.6 
L 350.64 201.6 
L 350.64 226.8 
L 325.44 226.8 
z
" clip-path="url(#p99d832c0bb)" style="fill: #7f7f7f"/>
   </g>
   <g id="patch_105">
    <path d="M 351.36 201.6 
L 376.56 201.6 
L 376.56 226.8 
L 351.36 226.8 
z
" clip-path="url(#p99d832c0bb)" style="fill: #ffffff"/>
   </g>
   <g id="patch_106">
    <path d="M 377.28 201.6 
L 402.48 201.6 
L 402.48 226.8 
L 377.28 226.8 
z
" clip-path="url(#p99d832c0bb)" style="fill: #ffffff"/>
   </g>
   <g id="patch_107">
    <path d="M 403.2 201.6 
L 428.4 201.6 
L 428.4 226.8 
L 403.2 226.8 
z
" clip-path="url(#p99d832c0bb)" style="fill: #6f6f6f"/>
   </g>
   <g id="patch_108">
    <path d="M 429.12 201.6 
L 454.32 201.6 
L 454.32 226.8 
L 429.12 226.8 
z
" clip-path="url(#p99d832c0bb)" style="fill: #7f7f7f"/>
   </g>
   <g id="patch_109">
    <path d="M 455.04 201.6 
L 480.24 201.6 
L 480.24 226.8 
L 455.04 226.8 
z
" clip-path="url(#p99d832c0bb)" style="fill: #ffffff"/>
   </g>
   <g id="patch_110">
    <path d="M 273.6 227.52 
L 298.8 227.52 
L 298.8 252.72 
L 273.6 252.72 
z
" clip-path="url(#p99d832c0bb)" style="fill: #ffffff"/>
   </g>
   <g id="patch_111">
    <path d="M 299.52 227.52 
L 324.72 227.52 
L 324.72 252.72 
L 299.52 252.72 
z
" clip-path="url(#p99d832c0bb)" style="fill: #bfbfbf"/>
   </g>
   <g id="patch_112">
    <path d="M 325.44 227.52 
L 350.64 227.52 
L 350.64 252.72 
L 325.44 252.72 
z
" clip-path="url(#p99d832c0bb)" style="fill: #4f4f4f"/>
   </g>
   <g id="patch_113">
    <path d="M 351.36 227.52 
L 376.56 227.52 
L 376.56 252.72 
L 351.36 252.72 
z
" clip-path="url(#p99d832c0bb)" style="fill: #ffffff"/>
   </g>
   <g id="patch_114">
    <path d="M 377.28 227.52 
L 402.48 227.52 
L 402.48 252.72 
L 377.28 252.72 
z
" clip-path="url(#p99d832c0bb)" style="fill: #efefef"/>
   </g>
   <g id="patch_115">
    <path d="M 403.2 227.52 
L 428.4 227.52 
L 428.4 252.72 
L 403.2 252.72 
z
" clip-path="url(#p99d832c0bb)" style="fill: #3f3f3f"/>
   </g>
   <g id="patch_116">
    <path d="M 429.12 227.52 
L 454.32 227.52 
L 454.32 252.72 
L 429.12 252.72 
z
" clip-path="url(#p99d832c0bb)" style="fill: #8f8f8f"/>
   </g>
   <g id="patch_117">
    <path d="M 455.04 227.52 
L 480.24 227.52 
L 480.24 252.72 
L 455.04 252.72 
z
" clip-path="url(#p99d832c0bb)" style="fill: #ffffff"/>
   </g>
   <g id="patch_118">
    <path d="M 273.6 253.44 
L 298.8 253.44 
L 298.8 278.64 
L 273.6 278.64 
z
" clip-path="url(#p99d832c0bb)" style="fill: #ffffff"/>
   </g>
   <g id="patch_119">
    <path d="M 299.52 253.44 
L 324.72 253.44 
L 324.72 278.64 
L 299.52 278.64 
z
" clip-path="url(#p99d832c0bb)" style="fill: #dfdfdf"/>
   </g>
   <g id="patch_120">
    <path d="M 325.44 253.44 
L 350.64 253.44 
L 350.64 278.64 
L 325.44 278.64 
z
" clip-path="url(#p99d832c0bb)" style="fill: #1f1f1f"/>
   </g>
   <g id="patch_121">
    <path d="M 351.36 253.44 
L 376.56 253.44 
L 376.56 278.64 
L 351.36 278.64 
z
" clip-path="url(#p99d832c0bb)" style="fill: #afafaf"/>
   </g>
   <g id="patch_122">
    <path d="M 377.28 253.44 
L 402.48 253.44 
L 402.48 278.64 
L 377.28 278.64 
z
" clip-path="url(#p99d832c0bb)" style="fill: #5f5f5f"/>
   </g>
   <g id="patch_123">
    <path d="M 403.2 253.44 
L 428.4 253.44 
L 428.4 278.64 
L 403.2 278.64 
z
" clip-path="url(#p99d832c0bb)" style="fill: #3f3f3f"/>
   </g>
   <g id="patch_124">
    <path d="M 429.12 253.44 
L 454.32 253.44 
L 454.32 278.64 
L 429.12 278.64 
z
" clip-path="url(#p99d832c0bb)" style="fill: #ffffff"/>
   </g>
   <g id="patch_125">
    <path d="M 455.04 253.44 
L 480.24 253.44 
L 480.24 278.64 
L 455.04 278.64 
z
" clip-path="url(#p99d832c0bb)" style="fill: #ffffff"/>
   </g>
   <g id="patch_126">
    <path d="M 273.6 279.36 
L 298.8 279.36 
L 298.8 304.56 
L 273.6 304.56 
z
" clip-path="url(#p99d832c0bb)" style="fill: #ffffff"/>
   </g>
   <g id="patch_127">
    <path d="M 299.52 279.36 
L 324.72 279.36 
L 324.72 304.56 
L 299.52 304.56 
z
" clip-path="url(#p99d832c0bb)" style="fill: #ffffff"/>
   </g>
   <g id="patch_128">
    <path d="M 325.44 279.36 
L 350.64 279.36 
L 350.64 304.56 
L 325.44 304.56 
z
" clip-path="url(#p99d832c0bb)" style="fill: #9f9f9f"/>
   </g>
   <g id="patch_129">
    <path d="M 351.36 279.36 
L 376.56 279.36 
L 376.56 304.56 
L 351.36 304.56 
z
" clip-path="url(#p99d832c0bb)" style="fill: #2f2f2f"/>
   </g>
   <g id="patch_130">
    <path d="M 377.28 279.36 
L 402.48 279.36 
L 402.48 304.56 
L 377.28 304.56 
z
" clip-path="url(#p99d832c0bb)" style="fill: #5f5f5f"/>
   </g>
   <g id="patch_131">
    <path d="M 403.2 279.36 
L 428.4 279.36 
L 428.4 304.56 
L 403.2 304.56 
z
" clip-path="url(#p99d832c0bb)" style="fill: #ffffff"/>
   </g>
   <g id="patch_132">
    <path d="M 429.12 279.36 
L 454.32 279.36 
L 454.32 304.56 
L 429.12 304.56 
z
" clip-path="url(#p99d832c0bb)" style="fill: #ffffff"/>
   </g>
   <g id="patch_133">
    <path d="M 455.04 279.36 
L 480.24 279.36 
L 480.24 304.56 
L 455.04 304.56 
z
" clip-path="url(#p99d832c0bb)" style="fill: #ffffff"/>
   </g>
   <g id="patch_134">
    <path d="M 432 97.92 
L 659.52 97.92 
L 659.52 285.12 
L 432 285.12 
z
" clip-path="url(#p99d832c0bb)" style="fill: #eafaf1"/>
   </g>
   <g id="patch_135">
    <path d="M 432 97.92 
L 434.16 97.92 
L 434.16 285.12 
L 432 285.12 
z
" clip-path="url(#p99d832c0bb)" style="fill: #5ba85a"/>
   </g>
   <g id="text_1">
    <!-- Ch.3 画像処理入門 -->
    <g style="fill: #ffffff" transform="translate(31.68 15.035312) scale(0.1 -0.1)">
     <defs>
      <path id="IPAexGothic-43" d="M 4353 1088 
Q 4181 694 3859 428 
Q 3313 -31 2559 -31 
Q 1588 -31 959 653 
Q 378 1294 378 2331 
Q 378 3406 1013 4078 
Q 1619 4725 2534 4725 
Q 3813 4725 4322 3628 
L 3809 3391 
Q 3425 4238 2541 4238 
Q 1891 4238 1453 3744 
Q 994 3216 994 2322 
Q 994 1550 1384 1056 
Q 1841 472 2563 472 
Q 3456 472 3878 1319 
L 4353 1088 
z
" transform="scale(0.015625)"/>
      <path id="IPAexGothic-68" d="M 3347 63 
L 2797 63 
L 2797 2041 
Q 2797 2853 2131 2853 
Q 1447 2853 1131 2041 
L 1131 63 
L 581 63 
L 581 4794 
L 1131 4794 
L 1131 2706 
Q 1566 3316 2247 3316 
Q 3347 3316 3347 2072 
L 3347 63 
z
" transform="scale(0.015625)"/>
      <path id="IPAexGothic-2e" d="M 1184 63 
L 494 63 
L 494 753 
L 1184 753 
L 1184 63 
z
" transform="scale(0.015625)"/>
      <path id="IPAexGothic-33" d="M 2381 2419 
Q 3506 2216 3506 1278 
Q 3506 716 3128 356 
Q 2709 -31 1944 -31 
Q 797 -31 288 881 
L 756 1131 
Q 1109 441 1938 441 
Q 2425 441 2694 691 
Q 2950 928 2950 1291 
Q 2950 1719 2566 1978 
Q 2216 2213 1644 2213 
L 1363 2213 
L 1363 2669 
L 1656 2669 
Q 2231 2669 2534 2888 
Q 2859 3119 2859 3509 
Q 2859 3934 2494 4138 
Q 2259 4278 1931 4278 
Q 1238 4278 903 3578 
L 434 3803 
Q 897 4725 1938 4725 
Q 2597 4725 3006 4394 
Q 3416 4069 3416 3534 
Q 3416 3028 3019 2706 
Q 2763 2500 2381 2444 
L 2381 2419 
z
" transform="scale(0.015625)"/>
      <path id="IPAexGothic-20" transform="scale(0.015625)"/>
      <path id="IPAexGothic-753b" d="M 2966 3713 
L 2966 4447 
L 353 4447 
L 353 4856 
L 6041 4856 
L 6041 4447 
L 3406 4447 
L 3406 3713 
L 4769 3713 
L 4769 825 
L 1634 825 
L 1634 3713 
L 2966 3713 
z
M 2978 3334 
L 2050 3334 
L 2050 2484 
L 2978 2484 
L 2978 3334 
z
M 3394 3334 
L 3394 2484 
L 4347 2484 
L 4347 3334 
L 3394 3334 
z
M 2978 2119 
L 2050 2119 
L 2050 1197 
L 2978 1197 
L 2978 2119 
z
M 3394 2119 
L 3394 1197 
L 4347 1197 
L 4347 2119 
L 3394 2119 
z
M 1081 300 
L 5316 300 
L 5316 3603 
L 5756 3603 
L 5756 -450 
L 5316 -450 
L 5316 -97 
L 1081 -97 
L 1081 -450 
L 641 -450 
L 641 3603 
L 1081 3603 
L 1081 300 
z
" transform="scale(0.015625)"/>
      <path id="IPAexGothic-50cf" d="M 4000 2688 
L 3828 2688 
Q 3672 2513 3509 2369 
Q 4422 1550 4422 403 
Q 4422 -56 4263 -244 
Q 4119 -416 3744 -416 
Q 3369 -416 3053 -372 
L 2972 97 
Q 3334 -6 3681 -6 
Q 3913 -6 3963 147 
Q 3994 266 3994 453 
Q 3994 738 3919 1063 
Q 3194 234 2159 -238 
L 1859 116 
Q 2959 519 3778 1422 
Q 3716 1534 3638 1663 
Q 2925 953 2025 622 
L 1756 966 
Q 2638 1216 3438 1938 
Q 3350 2044 3247 2150 
Q 2759 1766 2031 1466 
L 1763 1791 
Q 2638 2094 3347 2688 
L 2197 2688 
L 2197 3488 
Q 2041 3344 1866 3200 
L 1641 3563 
Q 2566 4278 3053 5331 
L 3481 5222 
Q 3425 5113 3328 4922 
L 4550 4922 
L 4813 4722 
Q 4534 4325 4231 4013 
L 5619 4013 
L 5619 2688 
L 4384 2688 
Q 4525 2200 4744 1803 
Q 5209 2163 5581 2572 
L 5953 2291 
Q 5516 1872 4928 1491 
Q 5359 828 6059 300 
L 5728 -56 
Q 4450 1019 4000 2688 
z
M 2625 3034 
L 3694 3034 
L 3694 3659 
L 2625 3659 
L 2625 3034 
z
M 2703 4013 
L 3744 4013 
Q 4006 4275 4181 4550 
L 3106 4550 
Q 2903 4253 2703 4013 
z
M 4097 3034 
L 5184 3034 
L 5184 3659 
L 4097 3659 
L 4097 3034 
z
M 1394 3706 
L 1394 -447 
L 966 -447 
L 966 2694 
Q 750 2266 478 1863 
L 244 2259 
Q 1028 3500 1388 5306 
L 1816 5203 
Q 1634 4369 1394 3706 
z
" transform="scale(0.015625)"/>
      <path id="IPAexGothic-51e6" d="M 2144 1263 
Q 2538 638 3147 425 
Q 3628 253 4741 253 
Q 5266 253 6163 303 
Q 6038 63 6009 -216 
Q 5450 -234 5094 -234 
Q 3675 -234 3097 -38 
Q 2388 206 1919 884 
Q 1366 6 734 -478 
L 397 -106 
Q 1128 384 1675 1306 
Q 1341 1969 1138 2913 
Q 934 2309 606 1775 
L 306 2159 
Q 1069 3425 1319 5219 
L 1759 5116 
Q 1694 4763 1631 4481 
L 2650 4481 
L 2903 4275 
Q 2759 2447 2144 1263 
z
M 1900 1744 
Q 2356 2797 2469 4066 
L 1528 4066 
Q 1463 3822 1388 3625 
Q 1534 2575 1900 1744 
z
M 5056 4756 
L 5056 1466 
Q 5056 1263 5269 1263 
Q 5466 1263 5484 1475 
Q 5506 1600 5516 2081 
L 5525 2222 
L 5953 2069 
Q 5944 1234 5831 1038 
Q 5728 859 5216 859 
Q 4888 859 4750 950 
Q 4622 1038 4622 1294 
L 4622 4353 
L 3872 4353 
L 3872 3759 
Q 3872 2544 3744 1916 
Q 3600 1244 3141 706 
L 2813 1025 
Q 3256 1563 3372 2369 
Q 3428 2809 3428 3566 
L 3428 4756 
L 5056 4756 
z
" transform="scale(0.015625)"/>
      <path id="IPAexGothic-7406" d="M 1541 4397 
L 1541 3084 
L 2219 3084 
L 2219 2688 
L 1541 2688 
L 1541 1247 
Q 1919 1356 2397 1522 
L 2431 1144 
Q 1353 713 434 472 
L 263 909 
Q 763 1025 1113 1119 
L 1113 2688 
L 441 2688 
L 441 3084 
L 1113 3084 
L 1113 4397 
L 369 4397 
L 369 4800 
L 2347 4800 
L 2347 4397 
L 1541 4397 
z
M 5691 4991 
L 5691 2106 
L 4378 2106 
L 4378 1375 
L 5825 1375 
L 5825 984 
L 4378 984 
L 4378 206 
L 6081 206 
L 6081 -191 
L 2150 -191 
L 2150 206 
L 3944 206 
L 3944 984 
L 2559 984 
L 2559 1375 
L 3944 1375 
L 3944 2106 
L 2675 2106 
L 2675 4991 
L 5691 4991 
z
M 3091 4606 
L 3091 3750 
L 3956 3750 
L 3956 4606 
L 3091 4606 
z
M 3091 3378 
L 3091 2491 
L 3956 2491 
L 3956 3378 
L 3091 3378 
z
M 5275 2491 
L 5275 3378 
L 4366 3378 
L 4366 2491 
L 5275 2491 
z
M 5275 3750 
L 5275 4606 
L 4366 4606 
L 4366 3750 
L 5275 3750 
z
" transform="scale(0.015625)"/>
      <path id="IPAexGothic-5165" d="M 3275 3078 
Q 2806 619 819 -334 
L 447 91 
Q 2934 1156 3000 4550 
L 1472 4550 
L 1472 4984 
L 3525 4984 
L 3525 4728 
Q 3525 3053 4116 2041 
Q 4734 972 6022 275 
L 5650 -200 
Q 3697 1044 3275 3078 
z
" transform="scale(0.015625)"/>
      <path id="IPAexGothic-9580" d="M 2894 4984 
L 2894 2388 
L 2453 2388 
L 2453 2688 
L 1109 2688 
L 1109 -447 
L 641 -447 
L 641 4984 
L 2894 4984 
z
M 1109 4588 
L 1109 4019 
L 2453 4019 
L 2453 4588 
L 1109 4588 
z
M 1109 3659 
L 1109 3072 
L 2453 3072 
L 2453 3659 
L 1109 3659 
z
M 5747 4984 
L 5747 178 
Q 5747 -166 5581 -281 
Q 5441 -384 5075 -384 
Q 4575 -384 4153 -341 
L 4066 166 
Q 4616 97 5013 97 
Q 5288 97 5288 331 
L 5288 2688 
L 3903 2688 
L 3903 2388 
L 3463 2388 
L 3463 4984 
L 5747 4984 
z
M 3903 4588 
L 3903 4019 
L 5288 4019 
L 5288 4588 
L 3903 4588 
z
M 3903 3659 
L 3903 3072 
L 5288 3072 
L 5288 3659 
L 3903 3659 
z
" transform="scale(0.015625)"/>
     </defs>
     <use xlink:href="#IPAexGothic-43"/>
     <use xlink:href="#IPAexGothic-68" x="72.509766"/>
     <use xlink:href="#IPAexGothic-2e" x="133.203125"/>
     <use xlink:href="#IPAexGothic-33" x="159.619141"/>
     <use xlink:href="#IPAexGothic-20" x="222.607422"/>
     <use xlink:href="#IPAexGothic-753b" x="249.609375"/>
     <use xlink:href="#IPAexGothic-50cf" x="349.609375"/>
     <use xlink:href="#IPAexGothic-51e6" x="449.609375"/>
     <use xlink:href="#IPAexGothic-7406" x="549.609375"/>
     <use xlink:href="#IPAexGothic-5165" x="649.609375"/>
     <use xlink:href="#IPAexGothic-9580" x="749.609375"/>
    </g>
   </g>
   <g id="text_2">
    <!-- 画像の正体：数値の2次元配列 -->
    <g style="fill: #1a1a2e" transform="translate(31.68 55.4175) scale(0.24 -0.24)">
     <defs>
      <path id="IPAexGothic-306e" d="M 3119 469 
Q 5275 766 5275 2425 
Q 5275 3453 4413 3925 
Q 4041 4116 3547 4159 
Q 3394 2525 2850 1400 
Q 2322 306 1722 306 
Q 1384 306 1084 666 
Q 609 1244 609 2003 
Q 609 3025 1397 3794 
Q 2184 4563 3431 4563 
Q 4306 4563 4928 4122 
Q 5813 3506 5813 2425 
Q 5813 438 3431 6 
L 3119 469 
z
M 3053 4147 
Q 2378 4044 1891 3641 
Q 1097 2981 1097 1991 
Q 1097 1366 1434 978 
Q 1581 813 1719 813 
Q 2022 813 2416 1625 
Q 2909 2638 3053 4147 
z
" transform="scale(0.015625)"/>
      <path id="IPAexGothic-6b63" d="M 3547 409 
L 5916 409 
L 5916 -31 
L 481 -31 
L 481 409 
L 1441 409 
L 1441 3231 
L 1934 3231 
L 1934 409 
L 3059 409 
L 3059 4288 
L 750 4288 
L 750 4728 
L 5659 4728 
L 5659 4288 
L 3547 4288 
L 3547 2669 
L 5353 2669 
L 5353 2241 
L 3547 2241 
L 3547 409 
z
" transform="scale(0.015625)"/>
      <path id="IPAexGothic-4f53" d="M 4253 3481 
Q 4869 2069 6041 1138 
L 5688 703 
Q 4541 1841 4069 3122 
L 4069 1228 
L 4925 1228 
L 4925 831 
L 4081 831 
L 4081 -450 
L 3613 -450 
L 3613 831 
L 2781 831 
L 2781 1228 
L 3628 1228 
L 3628 3097 
Q 3216 1703 2063 556 
L 1706 928 
Q 2844 1875 3441 3481 
L 1969 3481 
L 1969 3897 
L 3613 3897 
L 3613 5209 
L 4081 5209 
L 4081 3897 
L 5872 3897 
L 5872 3481 
L 4253 3481 
z
M 1572 3700 
L 1572 -441 
L 1119 -441 
L 1119 2778 
Q 888 2363 550 1913 
L 300 2303 
Q 1219 3575 1591 5241 
L 2041 5125 
Q 1844 4356 1572 3700 
z
" transform="scale(0.015625)"/>
      <path id="IPAexGothic-ff1a" d="M 2822 3366 
L 3578 3366 
L 3578 2609 
L 2822 2609 
L 2822 3366 
z
M 2822 1081 
L 3578 1081 
L 3578 325 
L 2822 325 
L 2822 1081 
z
" transform="scale(0.015625)"/>
      <path id="IPAexGothic-6570" d="M 2847 1553 
Q 2741 1006 2425 534 
Q 2625 441 3091 203 
L 2809 -188 
Q 2541 0 2144 209 
Q 1569 -291 703 -500 
L 422 -125 
Q 1263 19 1747 406 
Q 1222 650 734 816 
Q 975 1172 1147 1503 
L 1172 1553 
L 359 1553 
L 359 1925 
L 1344 1925 
Q 1406 2066 1569 2475 
L 1691 2450 
L 1691 3372 
Q 1250 2738 550 2303 
L 275 2663 
Q 1019 3013 1528 3641 
L 378 3641 
L 378 4006 
L 1691 4006 
L 1691 5313 
L 2113 5313 
L 2113 4006 
L 3297 4006 
L 3297 3641 
L 2113 3641 
L 2113 3513 
Q 2659 3291 3175 2963 
L 2956 2584 
Q 2553 2922 2113 3159 
L 2113 2372 
L 1966 2372 
Q 1928 2288 1872 2141 
Q 1806 1975 1784 1925 
L 3378 1925 
L 3378 1553 
L 2847 1553 
z
M 2419 1553 
L 1613 1553 
Q 1478 1269 1313 997 
Q 1559 909 2047 703 
Q 2313 1047 2419 1553 
z
M 4363 1163 
Q 3953 1781 3738 2638 
Q 3575 2281 3428 2016 
L 3103 2406 
Q 3675 3444 3916 5291 
L 4363 5200 
Q 4284 4666 4197 4197 
L 6009 4197 
L 6009 3775 
L 5503 3775 
Q 5397 2275 4869 1191 
Q 5419 503 6144 75 
L 5822 -378 
Q 5188 106 4631 788 
Q 4113 34 3341 -463 
L 3031 -78 
Q 3888 406 4363 1163 
z
M 4588 1594 
Q 4938 2388 5059 3775 
L 4100 3775 
Q 4041 3519 3972 3288 
Q 3981 3250 3991 3194 
Q 4175 2256 4588 1594 
z
M 1003 4116 
Q 878 4544 638 4934 
L 1053 5094 
Q 1247 4788 1438 4269 
L 1003 4116 
z
M 2316 4269 
Q 2550 4688 2688 5131 
L 3128 4997 
Q 2966 4588 2675 4128 
L 2316 4269 
z
" transform="scale(0.015625)"/>
      <path id="IPAexGothic-5024" d="M 4172 3675 
L 5453 3675 
L 5453 684 
L 3019 684 
L 3019 3675 
L 3750 3675 
Q 3788 3884 3825 4153 
L 2141 4153 
L 2141 4544 
L 3884 4544 
Q 3922 4844 3966 5325 
L 4434 5272 
L 4388 4953 
Q 4331 4578 4331 4544 
L 5863 4544 
L 5863 4153 
L 4269 4153 
Q 4200 3781 4172 3675 
z
M 5038 3316 
L 3434 3316 
L 3434 2803 
L 5038 2803 
L 5038 3316 
z
M 3434 2450 
L 3434 1941 
L 5038 1941 
L 5038 2450 
L 3434 2450 
z
M 3434 1588 
L 3434 1044 
L 5038 1044 
L 5038 1588 
L 3434 1588 
z
M 1509 3669 
L 1509 -447 
L 1069 -447 
L 1069 2725 
Q 856 2338 531 1875 
L 288 2266 
Q 1163 3531 1541 5325 
L 1975 5222 
Q 1791 4378 1509 3669 
z
M 2488 244 
L 6031 244 
L 6031 -153 
L 2488 -153 
L 2488 -447 
L 2059 -447 
L 2059 3213 
L 2488 3213 
L 2488 244 
z
" transform="scale(0.015625)"/>
      <path id="IPAexGothic-32" d="M 3659 63 
L 447 63 
L 447 594 
Q 825 1475 1894 2203 
L 2072 2322 
Q 2619 2697 2791 2906 
Q 2988 3153 2988 3444 
Q 2988 3772 2756 4003 
Q 2500 4259 2084 4259 
Q 1250 4259 991 3328 
L 497 3506 
Q 853 4725 2116 4725 
Q 2806 4725 3216 4316 
Q 3575 3947 3575 3425 
Q 3575 3038 3344 2722 
Q 3131 2416 2366 1938 
L 2231 1856 
Q 1256 1253 978 569 
L 3659 569 
L 3659 63 
z
" transform="scale(0.015625)"/>
      <path id="IPAexGothic-6b21" d="M 3519 3750 
L 2950 3750 
Q 2678 3041 2231 2444 
L 1853 2772 
Q 2600 3756 2878 5184 
L 3353 5094 
Q 3241 4603 3103 4166 
L 5541 4166 
L 5841 3928 
Q 5406 2903 4906 2222 
L 4484 2481 
Q 4963 3072 5247 3750 
L 3994 3750 
L 3994 3263 
Q 3994 1384 6028 91 
L 5681 -353 
Q 4166 622 3794 2194 
Q 3669 1413 3391 922 
Q 2903 72 1931 -488 
L 1613 -72 
Q 3519 888 3519 3359 
L 3519 3750 
z
M 1438 3200 
Q 959 3884 509 4294 
L 881 4628 
Q 1413 4153 1841 3597 
L 1438 3200 
z
M 325 250 
Q 984 938 1600 2003 
L 1950 1656 
Q 1319 538 697 -184 
L 325 250 
z
" transform="scale(0.015625)"/>
      <path id="IPAexGothic-5143" d="M 4128 2650 
L 4128 422 
Q 4128 253 4219 206 
Q 4331 147 4703 147 
Q 5163 147 5288 191 
Q 5450 250 5478 481 
Q 5516 731 5550 1269 
L 6022 1106 
Q 5994 188 5838 -56 
Q 5666 -313 4653 -313 
Q 3978 -313 3800 -172 
Q 3647 -66 3647 213 
L 3647 2650 
L 2634 2650 
L 2634 2547 
Q 2634 1225 2303 672 
Q 1872 -53 747 -447 
L 409 -31 
Q 1484 244 1863 884 
Q 2156 1378 2156 2547 
L 2156 2650 
L 447 2650 
L 447 3091 
L 5953 3091 
L 5953 2650 
L 4128 2650 
z
M 1088 4850 
L 5306 4850 
L 5306 4409 
L 1088 4409 
L 1088 4850 
z
" transform="scale(0.015625)"/>
      <path id="IPAexGothic-914d" d="M 1294 3731 
L 1294 4513 
L 372 4513 
L 372 4903 
L 3341 4903 
L 3341 4513 
L 2400 4513 
L 2400 3731 
L 3200 3731 
L 3200 -416 
L 2791 -416 
L 2791 -159 
L 953 -159 
L 953 -447 
L 544 -447 
L 544 3731 
L 1294 3731 
z
M 1672 3731 
L 2028 3731 
L 2028 4513 
L 1672 4513 
L 1672 3731 
z
M 2028 3372 
L 1659 3372 
Q 1659 3316 1659 3291 
Q 1650 2203 1250 1509 
L 966 1794 
Q 1272 2316 1319 3372 
L 953 3372 
L 953 1313 
L 2791 1313 
L 2791 1894 
L 2394 1894 
Q 2028 1894 2028 2247 
L 2028 3372 
z
M 2381 3372 
L 2381 2375 
Q 2381 2234 2522 2234 
L 2791 2234 
L 2791 3372 
L 2381 3372 
z
M 953 941 
L 953 219 
L 2791 219 
L 2791 941 
L 953 941 
z
M 4072 2497 
L 4072 409 
Q 4072 250 4163 197 
Q 4281 134 4756 134 
Q 5334 134 5475 206 
Q 5653 291 5672 1300 
L 6122 1184 
Q 6063 106 5891 -94 
Q 5769 -253 5463 -275 
Q 5172 -300 4725 -300 
Q 4056 -300 3856 -203 
Q 3644 -109 3644 263 
L 3644 2900 
L 5372 2900 
L 5372 4500 
L 3534 4500 
L 3534 4903 
L 5788 4903 
L 5788 2144 
L 5372 2144 
L 5372 2497 
L 4072 2497 
z
" transform="scale(0.015625)"/>
      <path id="IPAexGothic-5217" d="M 2334 1600 
Q 1944 1966 1306 2378 
Q 1038 1938 709 1541 
L 434 1906 
Q 1325 2934 1663 4550 
L 606 4550 
L 606 4953 
L 3781 4953 
L 3781 4550 
L 2097 4550 
Q 2091 4531 2078 4466 
Q 2000 4100 1900 3781 
L 3141 3781 
L 3409 3575 
Q 3156 2138 2656 1247 
Q 2097 269 1003 -500 
L 684 -128 
Q 1769 563 2334 1600 
z
M 2534 2009 
Q 2794 2656 2919 3384 
L 1766 3384 
Q 1638 3034 1478 2706 
Q 2181 2294 2534 2009 
z
M 3956 4416 
L 4409 4416 
L 4409 966 
L 3956 966 
L 3956 4416 
z
M 5306 5056 
L 5759 5056 
L 5759 197 
Q 5759 -138 5569 -263 
Q 5419 -353 5094 -353 
Q 4547 -353 3963 -294 
L 3878 191 
Q 4600 116 5038 116 
Q 5306 116 5306 359 
L 5306 5056 
z
" transform="scale(0.015625)"/>
     </defs>
     <use xlink:href="#IPAexGothic-753b"/>
     <use xlink:href="#IPAexGothic-50cf" x="100"/>
     <use xlink:href="#IPAexGothic-306e" x="200"/>
     <use xlink:href="#IPAexGothic-6b63" x="300"/>
     <use xlink:href="#IPAexGothic-4f53" x="400"/>
     <use xlink:href="#IPAexGothic-ff1a" x="500"/>
     <use xlink:href="#IPAexGothic-6570" x="600"/>
     <use xlink:href="#IPAexGothic-5024" x="700"/>
     <use xlink:href="#IPAexGothic-306e" x="800"/>
     <use xlink:href="#IPAexGothic-32" x="900"/>
     <use xlink:href="#IPAexGothic-6b21" x="962.988281"/>
     <use xlink:href="#IPAexGothic-5143" x="1062.988281"/>
     <use xlink:href="#IPAexGothic-914d" x="1162.988281"/>
     <use xlink:href="#IPAexGothic-5217" x="1262.988281"/>
    </g>
   </g>
   <g id="text_3">
    <!-- 「画像を見る」＝「数値の表を見る」（8×8ピクセルの手書き数字「0」の場合） -->
    <g style="fill: #7d6608" transform="translate(41.04 85.018666) scale(0.125 -0.125)">
     <defs>
      <path id="IPAexGothic-300c" d="M 4134 5300 
L 5875 5300 
L 5875 4853 
L 4581 4853 
L 4581 656 
L 4134 656 
L 4134 5300 
z
" transform="scale(0.015625)"/>
      <path id="IPAexGothic-3092" d="M 1094 4263 
Q 1544 4222 2359 4222 
Q 2581 4734 2700 5163 
L 3175 5028 
Q 2997 4538 2859 4256 
Q 3516 4284 4294 4459 
L 4356 4019 
Q 3603 3869 2656 3819 
Q 2391 3284 2059 2797 
Q 2531 3200 2963 3200 
Q 3638 3200 3859 2378 
Q 4556 2681 5338 2950 
L 5575 2528 
Q 4641 2253 3941 1956 
Q 3981 1678 3994 1028 
L 3513 991 
Q 3513 1456 3494 1753 
Q 2388 1194 2388 716 
Q 2388 428 2753 328 
Q 3066 241 3806 241 
Q 4394 241 5178 344 
L 5216 -128 
Q 4434 -213 3653 -213 
Q 2656 -213 2244 41 
Q 1913 244 1913 631 
Q 1913 1094 2344 1497 
Q 2709 1841 3428 2181 
Q 3266 2797 2878 2797 
Q 2238 2797 1209 1419 
L 838 1694 
Q 1625 2716 2163 3800 
Q 1522 3800 1088 3825 
L 1094 4263 
z
" transform="scale(0.015625)"/>
      <path id="IPAexGothic-898b" d="M 4053 1631 
L 4053 403 
Q 4053 194 4159 144 
Q 4259 100 4594 100 
Q 5206 100 5303 272 
Q 5369 394 5406 1031 
L 5413 1138 
L 5881 966 
Q 5831 75 5656 -128 
Q 5475 -341 4566 -341 
Q 4041 -341 3859 -269 
Q 3584 -166 3584 184 
L 3584 1631 
L 2719 1631 
Q 2663 631 2219 197 
Q 1744 -256 756 -469 
L 513 -38 
Q 1500 134 1888 513 
Q 2216 831 2247 1631 
L 1288 1631 
L 1288 5050 
L 5106 5050 
L 5106 1631 
L 4053 1631 
z
M 1747 4653 
L 1747 4044 
L 4638 4044 
L 4638 4653 
L 1747 4653 
z
M 1747 3653 
L 1747 3047 
L 4638 3047 
L 4638 3653 
L 1747 3653 
z
M 1747 2663 
L 1747 2028 
L 4638 2028 
L 4638 2663 
L 1747 2663 
z
" transform="scale(0.015625)"/>
      <path id="IPAexGothic-308b" d="M 4391 4397 
L 2613 2588 
Q 3225 2809 3759 2809 
Q 4263 2809 4659 2625 
Q 5391 2269 5391 1484 
Q 5391 756 4706 275 
Q 4072 -166 3053 -166 
Q 2559 -166 2247 19 
Q 1863 250 1863 666 
Q 1863 934 2069 1141 
Q 2331 1403 2741 1403 
Q 3509 1403 4019 428 
Q 4872 784 4872 1491 
Q 4872 1981 4469 2222 
Q 4166 2406 3681 2406 
Q 2425 2406 1238 1209 
L 891 1581 
Q 2438 2934 3578 4281 
Q 2594 4125 1588 4066 
L 1478 4550 
Q 2594 4581 4109 4763 
L 4391 4397 
z
M 3591 303 
Q 3244 1025 2731 1025 
Q 2553 1025 2434 934 
Q 2316 844 2316 700 
Q 2316 250 3034 250 
Q 3275 250 3591 303 
z
" transform="scale(0.015625)"/>
      <path id="IPAexGothic-300d" d="M 1819 4209 
L 2266 4209 
L 2266 -434 
L 525 -434 
L 525 13 
L 1819 13 
L 1819 4209 
z
" transform="scale(0.015625)"/>
      <path id="IPAexGothic-ff1d" d="M 1006 3347 
L 5397 3347 
L 5397 2888 
L 1006 2888 
L 1006 3347 
z
M 1006 1978 
L 5397 1978 
L 5397 1519 
L 1006 1519 
L 1006 1978 
z
" transform="scale(0.015625)"/>
      <path id="IPAexGothic-8868" d="M 3209 2350 
Q 2856 1944 2328 1563 
L 2328 288 
Q 2975 438 3756 691 
L 3763 275 
Q 2534 -163 1184 -447 
L 978 13 
Q 1566 119 1819 175 
L 1875 188 
L 1875 1275 
Q 1306 941 506 666 
L 219 1056 
Q 1813 1509 2675 2356 
L 384 2356 
L 384 2753 
L 2978 2753 
L 2978 3309 
L 959 3309 
L 959 3694 
L 2978 3694 
L 2978 4219 
L 641 4219 
L 641 4603 
L 2978 4603 
L 2978 5313 
L 3431 5313 
L 3431 4603 
L 5759 4603 
L 5759 4219 
L 3431 4219 
L 3431 3694 
L 5434 3694 
L 5434 3309 
L 3431 3309 
L 3431 2753 
L 6016 2753 
L 6016 2356 
L 3634 2356 
Q 3863 1838 4244 1356 
Q 4781 1756 5166 2191 
L 5588 1894 
Q 5084 1419 4525 1056 
Q 5150 459 6106 66 
L 5734 -356 
Q 3850 575 3209 2350 
z
" transform="scale(0.015625)"/>
      <path id="IPAexGothic-ff08" d="M 5419 -434 
Q 4197 769 4197 2438 
Q 4197 4097 5419 5300 
L 5919 5300 
Q 4678 4078 4678 2425 
Q 4678 788 5919 -434 
L 5419 -434 
z
" transform="scale(0.015625)"/>
      <path id="IPAexGothic-38" d="M 2541 2425 
Q 3700 2031 3700 1197 
Q 3700 541 3100 197 
Q 2663 -56 2016 -56 
Q 1366 -56 928 197 
Q 347 531 347 1178 
Q 347 1988 1409 2381 
L 1409 2400 
Q 481 2734 481 3509 
Q 481 4100 981 4456 
Q 1406 4756 2019 4756 
Q 2703 4756 3131 4403 
Q 3553 4069 3553 3566 
Q 3553 2706 2541 2444 
L 2541 2425 
z
M 2022 2625 
Q 2997 2856 2997 3528 
Q 2997 3916 2675 4150 
Q 2413 4347 2016 4347 
Q 1606 4347 1331 4128 
Q 1050 3897 1050 3522 
Q 1050 3150 1350 2925 
Q 1494 2809 1722 2722 
Q 1984 2616 2022 2625 
z
M 1978 2209 
Q 922 1931 922 1216 
Q 922 775 1313 556 
Q 1606 391 2009 391 
Q 2575 391 2881 697 
Q 3106 922 3106 1250 
Q 3106 1594 2794 1850 
Q 2609 1994 2350 2100 
Q 2047 2222 1978 2209 
z
" transform="scale(0.015625)"/>
      <path id="IPAexGothic-d7" d="M 2169 1772 
L 1063 666 
L 800 928 
L 1906 2041 
L 794 3153 
L 1056 3416 
L 2169 2303 
L 3284 3409 
L 3547 3147 
L 2438 2041 
L 3541 941 
L 3272 672 
L 2169 1772 
z
" transform="scale(0.015625)"/>
      <path id="IPAexGothic-30d4" d="M 1331 4756 
L 1856 4756 
L 1856 2759 
Q 3528 3134 4722 3872 
L 5106 3456 
Q 3619 2663 1856 2278 
L 1856 1044 
Q 1856 725 2047 650 
Q 2241 566 3138 566 
Q 4141 566 5369 697 
L 5369 184 
Q 4231 78 3238 78 
Q 1913 78 1619 275 
Q 1331 459 1331 947 
L 1331 4756 
z
M 5478 5222 
Q 5788 5222 5997 4988 
Q 6181 4788 6181 4519 
Q 6181 4206 5947 3994 
Q 5747 3809 5478 3809 
Q 5166 3809 4953 4044 
Q 4769 4247 4769 4519 
Q 4769 4828 5003 5041 
Q 5206 5222 5478 5222 
z
M 5478 4941 
Q 5288 4941 5159 4800 
Q 5050 4678 5050 4519 
Q 5050 4328 5191 4200 
Q 5313 4091 5478 4091 
Q 5663 4091 5791 4231 
Q 5900 4353 5900 4519 
Q 5900 4703 5759 4831 
Q 5638 4941 5478 4941 
z
" transform="scale(0.015625)"/>
      <path id="IPAexGothic-30af" d="M 4934 4191 
L 5272 3941 
Q 4894 2334 4031 1300 
Q 3275 391 2028 -225 
L 1656 184 
Q 2875 691 3641 1625 
Q 4403 2553 4691 3731 
L 2903 3731 
Q 2188 2653 1356 1959 
L 978 2309 
Q 2328 3400 2931 5022 
L 3422 4881 
Q 3363 4672 3141 4191 
L 4934 4191 
z
" transform="scale(0.015625)"/>
      <path id="IPAexGothic-30bb" d="M 2059 4878 
L 2584 4878 
L 2584 3397 
L 5291 3731 
L 5606 3444 
Q 4838 2313 4006 1556 
L 3569 1875 
Q 4297 2459 4844 3231 
L 2584 2931 
L 2584 978 
Q 2584 734 2738 669 
Q 2922 584 3616 584 
Q 4419 584 5425 697 
L 5444 172 
Q 4563 103 3844 103 
Q 2678 103 2359 256 
Q 2059 403 2059 863 
L 2059 2859 
L 638 2675 
L 588 3150 
L 2059 3334 
L 2059 4878 
z
" transform="scale(0.015625)"/>
      <path id="IPAexGothic-30eb" d="M 353 331 
Q 1313 994 1544 2022 
Q 1684 2650 1684 4397 
L 2203 4397 
L 2203 4153 
L 2203 4116 
Q 2203 2259 1934 1491 
Q 1619 588 744 -38 
L 353 331 
z
M 3125 4666 
L 3650 4666 
L 3650 769 
Q 4875 1488 5672 2734 
L 6000 2278 
Q 5075 966 3516 63 
L 3125 359 
L 3125 4666 
z
" transform="scale(0.015625)"/>
      <path id="IPAexGothic-624b" d="M 3519 4303 
L 3519 3284 
L 5594 3284 
L 5594 2875 
L 3519 2875 
L 3519 1906 
L 6078 1906 
L 6078 1491 
L 3519 1491 
L 3519 191 
Q 3519 -322 2841 -322 
Q 2322 -322 1803 -263 
L 1719 238 
Q 2306 131 2775 131 
Q 3038 131 3038 372 
L 3038 1491 
L 313 1491 
L 313 1906 
L 3038 1906 
L 3038 2875 
L 797 2875 
L 797 3284 
L 3038 3284 
L 3038 4238 
Q 2056 4119 1047 4059 
L 850 4463 
Q 3213 4588 4869 5013 
L 5266 4616 
Q 4481 4441 3569 4309 
L 3519 4303 
z
" transform="scale(0.015625)"/>
      <path id="IPAexGothic-66f8" d="M 2953 4891 
L 2953 5313 
L 3397 5313 
L 3397 4891 
L 5169 4891 
L 5169 4213 
L 6006 4213 
L 6006 3866 
L 5169 3866 
L 5169 3166 
L 3397 3166 
L 3397 2828 
L 5597 2828 
L 5597 2475 
L 3397 2475 
L 3397 2144 
L 6078 2144 
L 6078 1791 
L 319 1791 
L 319 2144 
L 2953 2144 
L 2953 2475 
L 797 2475 
L 797 2828 
L 2953 2828 
L 2953 3166 
L 1125 3166 
L 1125 3506 
L 2953 3506 
L 2953 3866 
L 381 3866 
L 381 4213 
L 2953 4213 
L 2953 4550 
L 1125 4550 
L 1125 4891 
L 2953 4891 
z
M 4728 4550 
L 3397 4550 
L 3397 4213 
L 4728 4213 
L 4728 4550 
z
M 4728 3866 
L 3397 3866 
L 3397 3506 
L 4728 3506 
L 4728 3866 
z
M 5253 1506 
L 5253 -450 
L 4800 -450 
L 4800 -225 
L 1572 -225 
L 1572 -450 
L 1119 -450 
L 1119 1506 
L 5253 1506 
z
M 1572 1166 
L 1572 825 
L 4800 825 
L 4800 1166 
L 1572 1166 
z
M 1572 500 
L 1572 134 
L 4800 134 
L 4800 500 
L 1572 500 
z
" transform="scale(0.015625)"/>
      <path id="IPAexGothic-304d" d="M 2944 1600 
Q 2369 1600 2053 1428 
Q 1772 1275 1772 1019 
Q 1772 666 2200 481 
Q 2600 309 3903 309 
Q 4138 309 4397 331 
L 4422 -147 
Q 4203 -166 3969 -166 
Q 2325 -166 1819 141 
Q 1313 444 1313 994 
Q 1313 1447 1791 1738 
Q 2219 1997 2859 1997 
Q 3319 1997 3606 1947 
Q 3894 1894 4216 1759 
Q 3953 2050 3506 2791 
Q 2263 2547 1191 2491 
L 1094 2956 
Q 2263 2966 3281 3175 
Q 3019 3647 2950 3794 
Q 2125 3641 1253 3622 
L 1166 4063 
Q 2013 4063 2750 4184 
Q 2478 4744 2381 4984 
L 2841 5131 
Q 2925 4916 3213 4281 
Q 3888 4438 4459 4709 
L 4672 4313 
Q 4119 4056 3409 3891 
Q 3638 3447 3738 3284 
Q 4528 3503 5113 3794 
L 5331 3366 
Q 4738 3094 3953 2900 
Q 4272 2366 4903 1484 
L 4575 1147 
Q 3888 1600 2944 1600 
z
" transform="scale(0.015625)"/>
      <path id="IPAexGothic-5b57" d="M 3419 4434 
L 5778 4434 
L 5778 3141 
L 5297 3141 
L 5297 4031 
L 1091 4031 
L 1091 3141 
L 616 3141 
L 616 4434 
L 2931 4434 
L 2931 5313 
L 3419 5313 
L 3419 4434 
z
M 3463 2197 
L 3463 1875 
L 6019 1875 
L 6019 1459 
L 3497 1459 
L 3497 0 
Q 3497 -272 3363 -375 
Q 3241 -459 2944 -459 
Q 2553 -459 2063 -409 
L 1984 63 
Q 2538 -13 2834 -13 
Q 3016 -13 3016 147 
L 3016 1459 
L 391 1459 
L 391 1875 
L 2988 1875 
L 2988 2406 
Q 3606 2650 4103 2991 
L 1416 2991 
L 1416 3413 
L 4816 3413 
L 5031 3181 
Q 4219 2547 3463 2197 
z
" transform="scale(0.015625)"/>
      <path id="IPAexGothic-30" d="M 2038 4725 
Q 2881 4725 3334 3944 
Q 3694 3325 3694 2344 
Q 3694 1372 3334 741 
Q 2888 -31 2016 -31 
Q 1147 -31 700 741 
Q 341 1372 341 2350 
Q 341 3713 1000 4334 
Q 1419 4725 2038 4725 
z
M 2016 4266 
Q 1516 4266 1228 3759 
Q 934 3247 934 2344 
Q 934 1456 1222 947 
Q 1513 447 2016 447 
Q 2619 447 2909 1153 
Q 3100 1622 3100 2375 
Q 3100 3256 2806 3759 
Q 2509 4266 2016 4266 
z
" transform="scale(0.015625)"/>
      <path id="IPAexGothic-5834" d="M 5028 1588 
Q 4619 319 3603 -506 
L 3250 -213 
Q 4253 513 4606 1588 
L 4147 1588 
Q 3678 622 2675 -97 
L 2347 219 
Q 3244 778 3713 1588 
L 3219 1588 
Q 2806 1041 2181 628 
L 1869 953 
Q 2769 1500 3238 2363 
L 2247 2363 
L 2247 2741 
L 6078 2741 
L 6078 2363 
L 3691 2363 
Q 3572 2109 3475 1953 
L 5863 1953 
Q 5813 400 5650 -69 
Q 5516 -453 4997 -453 
Q 4709 -453 4409 -422 
L 4306 38 
Q 4678 -31 4928 -31 
Q 5200 -31 5266 269 
Q 5356 703 5413 1588 
L 5028 1588 
z
M 1138 3859 
L 1138 5209 
L 1584 5209 
L 1584 3859 
L 2372 3859 
L 2372 3431 
L 1584 3431 
L 1584 1672 
Q 1953 1866 2347 2106 
L 2441 1722 
Q 1403 1047 509 628 
L 300 1063 
Q 741 1247 1059 1403 
L 1138 1441 
L 1138 3431 
L 363 3431 
L 363 3859 
L 1138 3859 
z
M 5441 5088 
L 5441 3097 
L 2797 3097 
L 2797 5088 
L 5441 5088 
z
M 3219 4728 
L 3219 4281 
L 5019 4281 
L 5019 4728 
L 3219 4728 
z
M 3219 3928 
L 3219 3456 
L 5019 3456 
L 5019 3928 
L 3219 3928 
z
" transform="scale(0.015625)"/>
      <path id="IPAexGothic-5408" d="M 1831 3188 
L 4653 3188 
L 4653 2778 
L 1747 2778 
L 1747 3125 
Q 1275 2778 594 2453 
L 294 2828 
Q 2006 3509 2891 5147 
L 3431 5147 
Q 4331 3806 6125 3003 
L 5831 2588 
Q 4119 3416 3175 4731 
Q 2650 3806 1831 3188 
z
M 5113 2088 
L 5113 -450 
L 4638 -450 
L 4638 -97 
L 1766 -97 
L 1766 -450 
L 1284 -450 
L 1284 2088 
L 5113 2088 
z
M 1766 1691 
L 1766 300 
L 4638 300 
L 4638 1691 
L 1766 1691 
z
" transform="scale(0.015625)"/>
      <path id="IPAexGothic-ff09" d="M 481 -434 
Q 1722 788 1722 2431 
Q 1722 4066 481 5300 
L 981 5300 
Q 2203 4097 2203 2431 
Q 2203 769 981 -434 
L 481 -434 
z
" transform="scale(0.015625)"/>
     </defs>
     <use xlink:href="#IPAexGothic-300c"/>
     <use xlink:href="#IPAexGothic-753b" x="100"/>
     <use xlink:href="#IPAexGothic-50cf" x="200"/>
     <use xlink:href="#IPAexGothic-3092" x="300"/>
     <use xlink:href="#IPAexGothic-898b" x="400"/>
     <use xlink:href="#IPAexGothic-308b" x="500"/>
     <use xlink:href="#IPAexGothic-300d" x="600"/>
     <use xlink:href="#IPAexGothic-ff1d" x="700"/>
     <use xlink:href="#IPAexGothic-300c" x="800"/>
     <use xlink:href="#IPAexGothic-6570" x="900"/>
     <use xlink:href="#IPAexGothic-5024" x="1000"/>
     <use xlink:href="#IPAexGothic-306e" x="1100"/>
     <use xlink:href="#IPAexGothic-8868" x="1200"/>
     <use xlink:href="#IPAexGothic-3092" x="1300"/>
     <use xlink:href="#IPAexGothic-898b" x="1400"/>
     <use xlink:href="#IPAexGothic-308b" x="1500"/>
     <use xlink:href="#IPAexGothic-300d" x="1600"/>
     <use xlink:href="#IPAexGothic-ff08" x="1700"/>
     <use xlink:href="#IPAexGothic-38" x="1800"/>
     <use xlink:href="#IPAexGothic-d7" x="1862.988281"/>
     <use xlink:href="#IPAexGothic-38" x="1930.810547"/>
     <use xlink:href="#IPAexGothic-30d4" x="1993.798828"/>
     <use xlink:href="#IPAexGothic-30af" x="2093.798828"/>
     <use xlink:href="#IPAexGothic-30bb" x="2193.798828"/>
     <use xlink:href="#IPAexGothic-30eb" x="2293.798828"/>
     <use xlink:href="#IPAexGothic-306e" x="2393.798828"/>
     <use xlink:href="#IPAexGothic-624b" x="2493.798828"/>
     <use xlink:href="#IPAexGothic-66f8" x="2593.798828"/>
     <use xlink:href="#IPAexGothic-304d" x="2693.798828"/>
     <use xlink:href="#IPAexGothic-6570" x="2793.798828"/>
     <use xlink:href="#IPAexGothic-5b57" x="2893.798828"/>
     <use xlink:href="#IPAexGothic-300c" x="2993.798828"/>
     <use xlink:href="#IPAexGothic-30" x="3093.798828"/>
     <use xlink:href="#IPAexGothic-300d" x="3156.787109"/>
     <use xlink:href="#IPAexGothic-306e" x="3256.787109"/>
     <use xlink:href="#IPAexGothic-5834" x="3356.787109"/>
     <use xlink:href="#IPAexGothic-5408" x="3456.787109"/>
     <use xlink:href="#IPAexGothic-ff09" x="3556.787109"/>
    </g>
   </g>
   <g id="text_4">
    <!-- 0 -->
    <g transform="translate(41.805703 113.395781) scale(0.09 -0.09)">
     <use xlink:href="#IPAexGothic-30"/>
    </g>
   </g>
   <g id="text_5">
    <!-- 0 -->
    <g transform="translate(67.725703 113.395781) scale(0.09 -0.09)">
     <use xlink:href="#IPAexGothic-30"/>
    </g>
   </g>
   <g id="text_6">
    <!-- 5 -->
    <g transform="translate(93.645703 113.395781) scale(0.09 -0.09)">
     <defs>
      <path id="IPAexGothic-35" d="M 1178 2603 
Q 1634 2963 2172 2963 
Q 2816 2963 3241 2528 
Q 3638 2113 3638 1497 
Q 3638 938 3297 513 
Q 2869 -31 2031 -31 
Q 959 -31 469 784 
L 938 1028 
Q 1309 434 2013 434 
Q 2466 434 2769 716 
Q 3081 1013 3081 1503 
Q 3081 1966 2806 2241 
Q 2519 2528 2056 2528 
Q 1406 2528 1072 2028 
L 591 2091 
L 884 4634 
L 3406 4634 
L 3406 4153 
L 1341 4153 
L 1134 2603 
L 1178 2603 
z
" transform="scale(0.015625)"/>
     </defs>
     <use xlink:href="#IPAexGothic-35"/>
    </g>
   </g>
   <g id="text_7">
    <!-- 13 -->
    <g style="fill: #ffffff" transform="translate(116.731406 113.395781) scale(0.09 -0.09)">
     <defs>
      <path id="IPAexGothic-31" d="M 2463 63 
L 1900 63 
L 1900 4103 
Q 1372 3922 788 3797 
L 684 4231 
Q 1519 4441 2106 4731 
L 2463 4731 
L 2463 63 
z
" transform="scale(0.015625)"/>
     </defs>
     <use xlink:href="#IPAexGothic-31"/>
     <use xlink:href="#IPAexGothic-33" x="62.988281"/>
    </g>
   </g>
   <g id="text_8">
    <!-- 9 -->
    <g transform="translate(145.485703 113.395781) scale(0.09 -0.09)">
     <defs>
      <path id="IPAexGothic-39" d="M 2984 2356 
Q 2544 1716 1813 1716 
Q 1253 1716 847 2056 
Q 366 2459 366 3163 
Q 366 3813 769 4266 
Q 1181 4725 1869 4725 
Q 2800 4725 3241 3950 
Q 3559 3378 3559 2472 
Q 3559 1250 3041 588 
Q 2553 -31 1769 -31 
Q 859 -31 391 703 
L 853 953 
Q 1156 428 1753 428 
Q 2922 428 3009 2356 
L 2984 2356 
z
M 1888 4278 
Q 1450 4278 1172 3950 
Q 922 3653 922 3200 
Q 922 2741 1159 2478 
Q 1434 2163 1906 2163 
Q 2431 2163 2728 2572 
Q 2925 2847 2925 3169 
Q 2925 3553 2694 3863 
Q 2375 4278 1888 4278 
z
" transform="scale(0.015625)"/>
     </defs>
     <use xlink:href="#IPAexGothic-39"/>
    </g>
   </g>
   <g id="text_9">
    <!-- 1 -->
    <g transform="translate(171.405703 113.395781) scale(0.09 -0.09)">
     <use xlink:href="#IPAexGothic-31"/>
    </g>
   </g>
   <g id="text_10">
    <!-- 0 -->
    <g transform="translate(197.325703 113.395781) scale(0.09 -0.09)">
     <use xlink:href="#IPAexGothic-30"/>
    </g>
   </g>
   <g id="text_11">
    <!-- 0 -->
    <g transform="translate(223.245703 113.395781) scale(0.09 -0.09)">
     <use xlink:href="#IPAexGothic-30"/>
    </g>
   </g>
   <g id="text_12">
    <!-- 0 -->
    <g transform="translate(41.805703 139.315781) scale(0.09 -0.09)">
     <use xlink:href="#IPAexGothic-30"/>
    </g>
   </g>
   <g id="text_13">
    <!-- 0 -->
    <g transform="translate(67.725703 139.315781) scale(0.09 -0.09)">
     <use xlink:href="#IPAexGothic-30"/>
    </g>
   </g>
   <g id="text_14">
    <!-- 13 -->
    <g style="fill: #ffffff" transform="translate(90.811406 139.315781) scale(0.09 -0.09)">
     <use xlink:href="#IPAexGothic-31"/>
     <use xlink:href="#IPAexGothic-33" x="62.988281"/>
    </g>
   </g>
   <g id="text_15">
    <!-- 15 -->
    <g style="fill: #ffffff" transform="translate(116.731406 139.315781) scale(0.09 -0.09)">
     <use xlink:href="#IPAexGothic-31"/>
     <use xlink:href="#IPAexGothic-35" x="62.988281"/>
    </g>
   </g>
   <g id="text_16">
    <!-- 10 -->
    <g style="fill: #ffffff" transform="translate(142.651406 139.315781) scale(0.09 -0.09)">
     <use xlink:href="#IPAexGothic-31"/>
     <use xlink:href="#IPAexGothic-30" x="62.988281"/>
    </g>
   </g>
   <g id="text_17">
    <!-- 15 -->
    <g style="fill: #ffffff" transform="translate(168.571406 139.315781) scale(0.09 -0.09)">
     <use xlink:href="#IPAexGothic-31"/>
     <use xlink:href="#IPAexGothic-35" x="62.988281"/>
    </g>
   </g>
   <g id="text_18">
    <!-- 5 -->
    <g transform="translate(197.325703 139.315781) scale(0.09 -0.09)">
     <use xlink:href="#IPAexGothic-35"/>
    </g>
   </g>
   <g id="text_19">
    <!-- 0 -->
    <g transform="translate(223.245703 139.315781) scale(0.09 -0.09)">
     <use xlink:href="#IPAexGothic-30"/>
    </g>
   </g>
   <g id="text_20">
    <!-- 0 -->
    <g transform="translate(41.805703 165.235781) scale(0.09 -0.09)">
     <use xlink:href="#IPAexGothic-30"/>
    </g>
   </g>
   <g id="text_21">
    <!-- 3 -->
    <g transform="translate(67.725703 165.235781) scale(0.09 -0.09)">
     <use xlink:href="#IPAexGothic-33"/>
    </g>
   </g>
   <g id="text_22">
    <!-- 15 -->
    <g style="fill: #ffffff" transform="translate(90.811406 165.235781) scale(0.09 -0.09)">
     <use xlink:href="#IPAexGothic-31"/>
     <use xlink:href="#IPAexGothic-35" x="62.988281"/>
    </g>
   </g>
   <g id="text_23">
    <!-- 2 -->
    <g transform="translate(119.565703 165.235781) scale(0.09 -0.09)">
     <use xlink:href="#IPAexGothic-32"/>
    </g>
   </g>
   <g id="text_24">
    <!-- 0 -->
    <g transform="translate(145.485703 165.235781) scale(0.09 -0.09)">
     <use xlink:href="#IPAexGothic-30"/>
    </g>
   </g>
   <g id="text_25">
    <!-- 11 -->
    <g style="fill: #ffffff" transform="translate(168.571406 165.235781) scale(0.09 -0.09)">
     <use xlink:href="#IPAexGothic-31"/>
     <use xlink:href="#IPAexGothic-31" x="62.988281"/>
    </g>
   </g>
   <g id="text_26">
    <!-- 8 -->
    <g transform="translate(197.325703 165.235781) scale(0.09 -0.09)">
     <use xlink:href="#IPAexGothic-38"/>
    </g>
   </g>
   <g id="text_27">
    <!-- 0 -->
    <g transform="translate(223.245703 165.235781) scale(0.09 -0.09)">
     <use xlink:href="#IPAexGothic-30"/>
    </g>
   </g>
   <g id="text_28">
    <!-- 0 -->
    <g transform="translate(41.805703 191.155781) scale(0.09 -0.09)">
     <use xlink:href="#IPAexGothic-30"/>
    </g>
   </g>
   <g id="text_29">
    <!-- 4 -->
    <g transform="translate(67.725703 191.155781) scale(0.09 -0.09)">
     <defs>
      <path id="IPAexGothic-34" d="M 3813 1159 
L 3059 1159 
L 3059 63 
L 2547 63 
L 2547 1159 
L 197 1159 
L 197 1672 
L 2456 4678 
L 3059 4678 
L 3059 1634 
L 3813 1634 
L 3813 1159 
z
M 2578 4109 
L 2559 4109 
Q 2278 3656 2003 3284 
L 759 1634 
L 2547 1634 
L 2547 3144 
Q 2547 3481 2578 4109 
z
" transform="scale(0.015625)"/>
     </defs>
     <use xlink:href="#IPAexGothic-34"/>
    </g>
   </g>
   <g id="text_30">
    <!-- 12 -->
    <g style="fill: #ffffff" transform="translate(90.811406 191.155781) scale(0.09 -0.09)">
     <use xlink:href="#IPAexGothic-31"/>
     <use xlink:href="#IPAexGothic-32" x="62.988281"/>
    </g>
   </g>
   <g id="text_31">
    <!-- 0 -->
    <g transform="translate(119.565703 191.155781) scale(0.09 -0.09)">
     <use xlink:href="#IPAexGothic-30"/>
    </g>
   </g>
   <g id="text_32">
    <!-- 0 -->
    <g transform="translate(145.485703 191.155781) scale(0.09 -0.09)">
     <use xlink:href="#IPAexGothic-30"/>
    </g>
   </g>
   <g id="text_33">
    <!-- 8 -->
    <g transform="translate(171.405703 191.155781) scale(0.09 -0.09)">
     <use xlink:href="#IPAexGothic-38"/>
    </g>
   </g>
   <g id="text_34">
    <!-- 8 -->
    <g transform="translate(197.325703 191.155781) scale(0.09 -0.09)">
     <use xlink:href="#IPAexGothic-38"/>
    </g>
   </g>
   <g id="text_35">
    <!-- 0 -->
    <g transform="translate(223.245703 191.155781) scale(0.09 -0.09)">
     <use xlink:href="#IPAexGothic-30"/>
    </g>
   </g>
   <g id="text_36">
    <!-- 0 -->
    <g transform="translate(41.805703 217.075781) scale(0.09 -0.09)">
     <use xlink:href="#IPAexGothic-30"/>
    </g>
   </g>
   <g id="text_37">
    <!-- 5 -->
    <g transform="translate(67.725703 217.075781) scale(0.09 -0.09)">
     <use xlink:href="#IPAexGothic-35"/>
    </g>
   </g>
   <g id="text_38">
    <!-- 8 -->
    <g transform="translate(93.645703 217.075781) scale(0.09 -0.09)">
     <use xlink:href="#IPAexGothic-38"/>
    </g>
   </g>
   <g id="text_39">
    <!-- 0 -->
    <g transform="translate(119.565703 217.075781) scale(0.09 -0.09)">
     <use xlink:href="#IPAexGothic-30"/>
    </g>
   </g>
   <g id="text_40">
    <!-- 0 -->
    <g transform="translate(145.485703 217.075781) scale(0.09 -0.09)">
     <use xlink:href="#IPAexGothic-30"/>
    </g>
   </g>
   <g id="text_41">
    <!-- 9 -->
    <g transform="translate(171.405703 217.075781) scale(0.09 -0.09)">
     <use xlink:href="#IPAexGothic-39"/>
    </g>
   </g>
   <g id="text_42">
    <!-- 8 -->
    <g transform="translate(197.325703 217.075781) scale(0.09 -0.09)">
     <use xlink:href="#IPAexGothic-38"/>
    </g>
   </g>
   <g id="text_43">
    <!-- 0 -->
    <g transform="translate(223.245703 217.075781) scale(0.09 -0.09)">
     <use xlink:href="#IPAexGothic-30"/>
    </g>
   </g>
   <g id="text_44">
    <!-- 0 -->
    <g transform="translate(41.805703 242.995781) scale(0.09 -0.09)">
     <use xlink:href="#IPAexGothic-30"/>
    </g>
   </g>
   <g id="text_45">
    <!-- 4 -->
    <g transform="translate(67.725703 242.995781) scale(0.09 -0.09)">
     <use xlink:href="#IPAexGothic-34"/>
    </g>
   </g>
   <g id="text_46">
    <!-- 11 -->
    <g style="fill: #ffffff" transform="translate(90.811406 242.995781) scale(0.09 -0.09)">
     <use xlink:href="#IPAexGothic-31"/>
     <use xlink:href="#IPAexGothic-31" x="62.988281"/>
    </g>
   </g>
   <g id="text_47">
    <!-- 0 -->
    <g transform="translate(119.565703 242.995781) scale(0.09 -0.09)">
     <use xlink:href="#IPAexGothic-30"/>
    </g>
   </g>
   <g id="text_48">
    <!-- 1 -->
    <g transform="translate(145.485703 242.995781) scale(0.09 -0.09)">
     <use xlink:href="#IPAexGothic-31"/>
    </g>
   </g>
   <g id="text_49">
    <!-- 12 -->
    <g style="fill: #ffffff" transform="translate(168.571406 242.995781) scale(0.09 -0.09)">
     <use xlink:href="#IPAexGothic-31"/>
     <use xlink:href="#IPAexGothic-32" x="62.988281"/>
    </g>
   </g>
   <g id="text_50">
    <!-- 7 -->
    <g transform="translate(197.325703 242.995781) scale(0.09 -0.09)">
     <defs>
      <path id="IPAexGothic-37" d="M 3597 4263 
Q 2238 2106 1778 63 
L 1131 63 
Q 1581 1834 2950 4128 
L 428 4128 
L 428 4634 
L 3597 4634 
L 3597 4263 
z
" transform="scale(0.015625)"/>
     </defs>
     <use xlink:href="#IPAexGothic-37"/>
    </g>
   </g>
   <g id="text_51">
    <!-- 0 -->
    <g transform="translate(223.245703 242.995781) scale(0.09 -0.09)">
     <use xlink:href="#IPAexGothic-30"/>
    </g>
   </g>
   <g id="text_52">
    <!-- 0 -->
    <g transform="translate(41.805703 268.915781) scale(0.09 -0.09)">
     <use xlink:href="#IPAexGothic-30"/>
    </g>
   </g>
   <g id="text_53">
    <!-- 2 -->
    <g transform="translate(67.725703 268.915781) scale(0.09 -0.09)">
     <use xlink:href="#IPAexGothic-32"/>
    </g>
   </g>
   <g id="text_54">
    <!-- 14 -->
    <g style="fill: #ffffff" transform="translate(90.811406 268.915781) scale(0.09 -0.09)">
     <use xlink:href="#IPAexGothic-31"/>
     <use xlink:href="#IPAexGothic-34" x="62.988281"/>
    </g>
   </g>
   <g id="text_55">
    <!-- 5 -->
    <g transform="translate(119.565703 268.915781) scale(0.09 -0.09)">
     <use xlink:href="#IPAexGothic-35"/>
    </g>
   </g>
   <g id="text_56">
    <!-- 10 -->
    <g style="fill: #ffffff" transform="translate(142.651406 268.915781) scale(0.09 -0.09)">
     <use xlink:href="#IPAexGothic-31"/>
     <use xlink:href="#IPAexGothic-30" x="62.988281"/>
    </g>
   </g>
   <g id="text_57">
    <!-- 12 -->
    <g style="fill: #ffffff" transform="translate(168.571406 268.915781) scale(0.09 -0.09)">
     <use xlink:href="#IPAexGothic-31"/>
     <use xlink:href="#IPAexGothic-32" x="62.988281"/>
    </g>
   </g>
   <g id="text_58">
    <!-- 0 -->
    <g transform="translate(197.325703 268.915781) scale(0.09 -0.09)">
     <use xlink:href="#IPAexGothic-30"/>
    </g>
   </g>
   <g id="text_59">
    <!-- 0 -->
    <g transform="translate(223.245703 268.915781) scale(0.09 -0.09)">
     <use xlink:href="#IPAexGothic-30"/>
    </g>
   </g>
   <g id="text_60">
    <!-- 0 -->
    <g transform="translate(41.805703 294.835781) scale(0.09 -0.09)">
     <use xlink:href="#IPAexGothic-30"/>
    </g>
   </g>
   <g id="text_61">
    <!-- 0 -->
    <g transform="translate(67.725703 294.835781) scale(0.09 -0.09)">
     <use xlink:href="#IPAexGothic-30"/>
    </g>
   </g>
   <g id="text_62">
    <!-- 6 -->
    <g transform="translate(93.645703 294.835781) scale(0.09 -0.09)">
     <defs>
      <path id="IPAexGothic-36" d="M 1056 2328 
Q 1509 2981 2234 2981 
Q 2906 2981 3316 2513 
Q 3675 2106 3675 1522 
Q 3675 884 3272 434 
Q 2853 -31 2178 -31 
Q 1375 -31 922 581 
Q 481 1178 481 2228 
Q 481 3425 1013 4109 
Q 1494 4725 2272 4725 
Q 3191 4725 3609 4025 
L 3150 3775 
Q 2894 4266 2300 4266 
Q 1119 4266 1031 2328 
L 1056 2328 
z
M 2141 2547 
Q 1684 2547 1384 2206 
Q 1116 1900 1116 1541 
Q 1116 1156 1353 844 
Q 1672 428 2159 428 
Q 2669 428 2941 844 
Q 3125 1128 3125 1503 
Q 3125 1944 2881 2228 
Q 2600 2547 2141 2547 
z
" transform="scale(0.015625)"/>
     </defs>
     <use xlink:href="#IPAexGothic-36"/>
    </g>
   </g>
   <g id="text_63">
    <!-- 13 -->
    <g style="fill: #ffffff" transform="translate(116.731406 294.835781) scale(0.09 -0.09)">
     <use xlink:href="#IPAexGothic-31"/>
     <use xlink:href="#IPAexGothic-33" x="62.988281"/>
    </g>
   </g>
   <g id="text_64">
    <!-- 10 -->
    <g style="fill: #ffffff" transform="translate(142.651406 294.835781) scale(0.09 -0.09)">
     <use xlink:href="#IPAexGothic-31"/>
     <use xlink:href="#IPAexGothic-30" x="62.988281"/>
    </g>
   </g>
   <g id="text_65">
    <!-- 0 -->
    <g transform="translate(171.405703 294.835781) scale(0.09 -0.09)">
     <use xlink:href="#IPAexGothic-30"/>
    </g>
   </g>
   <g id="text_66">
    <!-- 0 -->
    <g transform="translate(197.325703 294.835781) scale(0.09 -0.09)">
     <use xlink:href="#IPAexGothic-30"/>
    </g>
   </g>
   <g id="text_67">
    <!-- 0 -->
    <g transform="translate(223.245703 294.835781) scale(0.09 -0.09)">
     <use xlink:href="#IPAexGothic-30"/>
    </g>
   </g>
   <g id="text_68">
    <!-- 数値配列（0〜16） -->
    <g style="fill: #7f8c8d" transform="translate(31.68 322.159687) scale(0.11 -0.11)">
     <defs>
      <path id="IPAexGothic-301c" d="M 678 2591 
Q 1259 3116 2022 3116 
Q 2559 3116 3359 2603 
Q 4019 2188 4353 2188 
Q 5056 2188 5722 2853 
L 5722 2259 
Q 5141 1734 4378 1734 
Q 3806 1734 3041 2234 
Q 2381 2663 2041 2663 
Q 1344 2663 678 1997 
L 678 2591 
z
" transform="scale(0.015625)"/>
     </defs>
     <use xlink:href="#IPAexGothic-6570"/>
     <use xlink:href="#IPAexGothic-5024" x="100"/>
     <use xlink:href="#IPAexGothic-914d" x="200"/>
     <use xlink:href="#IPAexGothic-5217" x="300"/>
     <use xlink:href="#IPAexGothic-ff08" x="400"/>
     <use xlink:href="#IPAexGothic-30" x="500"/>
     <use xlink:href="#IPAexGothic-301c" x="562.988281"/>
     <use xlink:href="#IPAexGothic-31" x="662.988281"/>
     <use xlink:href="#IPAexGothic-36" x="725.976562"/>
     <use xlink:href="#IPAexGothic-ff09" x="788.964844"/>
    </g>
   </g>
   <g id="text_69">
    <!-- 画像として表示 -->
    <g style="fill: #7f8c8d" transform="translate(273.6 322.159687) scale(0.11 -0.11)">
     <defs>
      <path id="IPAexGothic-3068" d="M 5222 56 
Q 4200 -72 3450 -72 
Q 2478 -72 1941 113 
Q 1184 372 1184 1038 
Q 1184 1584 1594 2009 
Q 1941 2369 2656 2725 
Q 2231 3734 1972 4878 
L 2491 4978 
Q 2706 3884 3078 2950 
Q 4250 3447 4756 3616 
L 4978 3150 
Q 3181 2575 2409 2078 
Q 1691 1613 1691 1113 
Q 1691 403 3322 403 
Q 4125 403 5134 563 
L 5222 56 
z
" transform="scale(0.015625)"/>
      <path id="IPAexGothic-3057" d="M 1750 4884 
L 2281 4884 
L 2238 1319 
Q 2228 809 2391 569 
Q 2594 281 3128 281 
Q 3772 281 4344 744 
Q 4822 1131 5156 1759 
L 5534 1369 
Q 5094 653 4534 263 
Q 3878 -206 3134 -206 
Q 2341 -206 1994 213 
Q 1697 575 1706 1269 
L 1750 4884 
z
" transform="scale(0.015625)"/>
      <path id="IPAexGothic-3066" d="M 581 4034 
Q 2978 4363 5466 4556 
L 5509 4097 
Q 4388 4031 3750 3572 
Q 2797 2878 2797 1913 
Q 2797 1169 3291 819 
Q 3778 484 4869 416 
L 4906 -116 
Q 2278 0 2278 1850 
Q 2278 3125 3691 4000 
Q 2066 3784 684 3553 
L 581 4034 
z
" transform="scale(0.015625)"/>
      <path id="IPAexGothic-793a" d="M 3488 2822 
L 3488 153 
Q 3488 -144 3334 -247 
Q 3213 -331 2872 -331 
Q 2425 -331 1950 -294 
L 1859 213 
Q 2350 128 2775 128 
Q 3000 128 3000 353 
L 3000 2822 
L 447 2822 
L 447 3250 
L 5950 3250 
L 5950 2822 
L 3488 2822 
z
M 1125 4813 
L 5266 4813 
L 5266 4384 
L 1125 4384 
L 1125 4813 
z
M 5581 244 
Q 4966 1263 4206 2081 
L 4563 2369 
Q 5319 1575 6009 622 
L 5581 244 
z
M 403 616 
Q 1184 1238 1741 2259 
L 2163 2053 
Q 1631 975 763 238 
L 403 616 
z
" transform="scale(0.015625)"/>
     </defs>
     <use xlink:href="#IPAexGothic-753b"/>
     <use xlink:href="#IPAexGothic-50cf" x="100"/>
     <use xlink:href="#IPAexGothic-3068" x="200"/>
     <use xlink:href="#IPAexGothic-3057" x="300"/>
     <use xlink:href="#IPAexGothic-3066" x="400"/>
     <use xlink:href="#IPAexGothic-8868" x="500"/>
     <use xlink:href="#IPAexGothic-793a" x="600"/>
    </g>
   </g>
   <g id="text_70">
    <!-- 値が大きい（16） -->
    <g style="fill: #1e8449" transform="translate(441.36 122.005524) scale(0.12 -0.12)">
     <defs>
      <path id="IPAexGothic-304c" d="M 659 3384 
Q 1434 3503 2113 3581 
Q 2313 4341 2394 4972 
L 2900 4875 
Q 2759 4147 2619 3628 
L 2719 3634 
Q 2894 3641 3041 3641 
Q 4072 3641 4072 2369 
Q 4072 1128 3700 384 
Q 3478 -56 3003 -56 
Q 2591 -56 2113 231 
L 2138 775 
Q 2631 444 2925 444 
Q 3169 444 3297 706 
Q 3566 1294 3566 2388 
Q 3566 3219 3016 3219 
Q 2825 3219 2497 3194 
Q 2388 2763 2113 2047 
Q 1634 797 1119 -38 
L 678 244 
Q 1356 1238 1863 2750 
Q 1888 2819 1991 3128 
Q 1594 3081 769 2916 
L 659 3384 
z
M 5441 1838 
Q 4913 3038 4091 3916 
L 4475 4184 
Q 5350 3269 5888 2156 
L 5441 1838 
z
M 5913 4275 
Q 5553 4819 5159 5147 
L 5459 5375 
Q 5844 5066 6234 4550 
L 5913 4275 
z
M 5344 3788 
Q 5053 4278 4609 4678 
L 4922 4922 
Q 5294 4613 5678 4063 
L 5344 3788 
z
" transform="scale(0.015625)"/>
      <path id="IPAexGothic-5927" d="M 3528 3181 
Q 4150 1197 6003 275 
L 5647 -184 
Q 3891 831 3259 2681 
Q 2894 644 872 -344 
L 513 97 
Q 1678 528 2344 1538 
Q 2784 2219 2900 3181 
L 481 3181 
L 481 3628 
L 2925 3628 
L 2925 5150 
L 3431 5150 
L 3431 3628 
L 5922 3628 
L 5922 3181 
L 3528 3181 
z
" transform="scale(0.015625)"/>
      <path id="IPAexGothic-3044" d="M 3369 1447 
Q 2906 122 2278 122 
Q 1966 122 1647 481 
Q 1209 966 1044 1966 
Q 891 2888 891 4313 
L 1422 4313 
Q 1413 2444 1666 1550 
Q 1913 678 2278 678 
Q 2619 678 2925 1791 
L 3369 1447 
z
M 5378 1294 
Q 4928 2797 4034 3809 
L 4488 4031 
Q 5375 3000 5881 1563 
L 5378 1294 
z
" transform="scale(0.015625)"/>
     </defs>
     <use xlink:href="#IPAexGothic-5024"/>
     <use xlink:href="#IPAexGothic-304c" x="100"/>
     <use xlink:href="#IPAexGothic-5927" x="200"/>
     <use xlink:href="#IPAexGothic-304d" x="300"/>
     <use xlink:href="#IPAexGothic-3044" x="400"/>
     <use xlink:href="#IPAexGothic-ff08" x="500"/>
     <use xlink:href="#IPAexGothic-31" x="600"/>
     <use xlink:href="#IPAexGothic-36" x="662.988281"/>
     <use xlink:href="#IPAexGothic-ff09" x="725.976562"/>
    </g>
   </g>
   <g id="text_71">
    <!-- → 明るい（白） -->
    <g style="fill: #1e8449" transform="translate(441.36 142.134556) scale(0.12 -0.12)">
     <defs>
      <path id="IPAexGothic-2192" d="M 3947 3572 
L 4631 3572 
L 6072 2431 
L 4631 1294 
L 3947 1294 
L 5094 2194 
L 459 2194 
L 459 2669 
L 5094 2669 
L 3947 3572 
z
" transform="scale(0.015625)"/>
      <path id="IPAexGothic-660e" d="M 3753 1684 
Q 3675 378 2716 -488 
L 2359 -147 
Q 3325 609 3325 2031 
L 3325 4984 
L 5722 4984 
L 5722 103 
Q 5722 -391 5172 -391 
Q 4753 -391 4328 -347 
L 4266 141 
Q 4700 69 5031 69 
Q 5281 69 5281 322 
L 5281 1684 
L 3753 1684 
z
M 3766 2075 
L 5281 2075 
L 5281 3150 
L 3766 3150 
L 3766 2075 
z
M 3766 3547 
L 5281 3547 
L 5281 4575 
L 3766 4575 
L 3766 3547 
z
M 2681 4813 
L 2681 1063 
L 1050 1063 
L 1050 634 
L 609 634 
L 609 4813 
L 2681 4813 
z
M 1050 4422 
L 1050 3181 
L 2241 3181 
L 2241 4422 
L 1050 4422 
z
M 1050 2797 
L 1050 1459 
L 2241 1459 
L 2241 2797 
L 1050 2797 
z
" transform="scale(0.015625)"/>
      <path id="IPAexGothic-767d" d="M 2541 4244 
Q 2706 4734 2809 5241 
L 3378 5113 
Q 3234 4644 3041 4244 
L 5363 4244 
L 5363 -353 
L 4869 -353 
L 4869 44 
L 1519 44 
L 1519 -353 
L 1031 -353 
L 1031 4244 
L 2541 4244 
z
M 1519 3816 
L 1519 2419 
L 4869 2419 
L 4869 3816 
L 1519 3816 
z
M 1519 1984 
L 1519 478 
L 4869 478 
L 4869 1984 
L 1519 1984 
z
" transform="scale(0.015625)"/>
     </defs>
     <use xlink:href="#IPAexGothic-2192"/>
     <use xlink:href="#IPAexGothic-20" x="100"/>
     <use xlink:href="#IPAexGothic-660e" x="127.001953"/>
     <use xlink:href="#IPAexGothic-308b" x="227.001953"/>
     <use xlink:href="#IPAexGothic-3044" x="327.001953"/>
     <use xlink:href="#IPAexGothic-ff08" x="427.001953"/>
     <use xlink:href="#IPAexGothic-767d" x="527.001953"/>
     <use xlink:href="#IPAexGothic-ff09" x="627.001953"/>
    </g>
   </g>
   <g id="text_72">
    <!-- 値が小さい（0） -->
    <g style="fill: #1e8449" transform="translate(441.36 182.392621) scale(0.12 -0.12)">
     <defs>
      <path id="IPAexGothic-5c0f" d="M 2944 5006 
L 3450 5006 
L 3450 359 
Q 3450 41 3322 -97 
Q 3181 -238 2759 -238 
Q 2388 -238 1931 -197 
L 1831 313 
Q 2244 231 2694 231 
Q 2944 231 2944 475 
L 2944 5006 
z
M 5453 1031 
Q 4928 2516 4172 3719 
L 4600 3916 
Q 5400 2650 5944 1281 
L 5453 1031 
z
M 434 1259 
Q 1238 2231 1553 3769 
L 2041 3641 
Q 1675 1938 825 897 
L 434 1259 
z
" transform="scale(0.015625)"/>
      <path id="IPAexGothic-3055" d="M 1747 1184 
Q 1747 834 2094 609 
Q 2422 391 3706 391 
Q 4088 391 4422 434 
L 4478 -50 
Q 4116 -84 3853 -84 
Q 3000 -84 2544 -13 
Q 2044 69 1759 263 
Q 1272 597 1272 1125 
Q 1272 1638 1728 1953 
Q 2163 2253 2884 2253 
Q 3741 2253 4300 2003 
Q 3797 2556 3322 3438 
Q 2128 3219 1113 3219 
L 966 3694 
Q 1150 3688 1388 3688 
Q 2291 3688 3128 3847 
Q 2919 4253 2597 4953 
L 3059 5081 
Q 3347 4384 3591 3950 
Q 4375 4147 5028 4481 
L 5297 4056 
Q 4653 3763 3775 3547 
Q 4309 2597 5069 1703 
L 4672 1363 
Q 3994 1838 2872 1838 
Q 2278 1838 1984 1628 
Q 1747 1459 1747 1184 
z
" transform="scale(0.015625)"/>
     </defs>
     <use xlink:href="#IPAexGothic-5024"/>
     <use xlink:href="#IPAexGothic-304c" x="100"/>
     <use xlink:href="#IPAexGothic-5c0f" x="200"/>
     <use xlink:href="#IPAexGothic-3055" x="300"/>
     <use xlink:href="#IPAexGothic-3044" x="400"/>
     <use xlink:href="#IPAexGothic-ff08" x="500"/>
     <use xlink:href="#IPAexGothic-30" x="600"/>
     <use xlink:href="#IPAexGothic-ff09" x="662.988281"/>
    </g>
   </g>
   <g id="text_73">
    <!-- → 暗い（黒） -->
    <g style="fill: #1e8449" transform="translate(441.36 202.521653) scale(0.12 -0.12)">
     <defs>
      <path id="IPAexGothic-6697" d="M 2166 4728 
L 2166 544 
L 891 544 
L 891 31 
L 488 31 
L 488 4728 
L 2166 4728 
z
M 891 4331 
L 891 2875 
L 1756 2875 
L 1756 4331 
L 891 4331 
z
M 891 2491 
L 891 934 
L 1756 934 
L 1756 2491 
L 891 2491 
z
M 4341 4500 
L 5794 4500 
L 5794 4128 
L 5184 4128 
Q 5053 3584 4866 3138 
L 6044 3138 
L 6044 2759 
L 2319 2759 
L 2319 3138 
L 3369 3138 
Q 3244 3719 3081 4128 
L 2538 4128 
L 2538 4500 
L 3894 4500 
L 3894 5313 
L 4341 5313 
L 4341 4500 
z
M 3522 4128 
Q 3666 3738 3803 3138 
L 4444 3138 
Q 4597 3541 4738 4128 
L 3522 4128 
z
M 5466 2284 
L 5466 -447 
L 5038 -447 
L 5038 -153 
L 3284 -153 
L 3284 -459 
L 2856 -459 
L 2856 2284 
L 5466 2284 
z
M 3284 1913 
L 3284 1281 
L 5038 1281 
L 5038 1913 
L 3284 1913 
z
M 3284 922 
L 3284 219 
L 5038 219 
L 5038 922 
L 3284 922 
z
" transform="scale(0.015625)"/>
      <path id="IPAexGothic-9ed2" d="M 5266 5013 
L 5266 2828 
L 3403 2828 
L 3403 2388 
L 5663 2388 
L 5663 2003 
L 3403 2003 
L 3403 1544 
L 6078 1544 
L 6078 1141 
L 319 1141 
L 319 1544 
L 2950 1544 
L 2950 2003 
L 722 2003 
L 722 2388 
L 2950 2388 
L 2950 2828 
L 1138 2828 
L 1138 5013 
L 5266 5013 
z
M 1578 4641 
L 1578 4103 
L 2950 4103 
L 2950 4641 
L 1578 4641 
z
M 1578 3744 
L 1578 3200 
L 2950 3200 
L 2950 3744 
L 1578 3744 
z
M 4813 3200 
L 4813 3744 
L 3403 3744 
L 3403 3200 
L 4813 3200 
z
M 4813 4103 
L 4813 4641 
L 3403 4641 
L 3403 4103 
L 4813 4103 
z
M 491 -166 
Q 953 316 1247 984 
L 1663 806 
Q 1325 41 894 -494 
L 491 -166 
z
M 2450 -441 
Q 2381 216 2219 819 
L 2647 922 
Q 2847 384 2963 -319 
L 2450 -441 
z
M 3831 -341 
Q 3638 394 3409 856 
L 3825 984 
Q 4125 450 4313 -184 
L 3831 -341 
z
M 5572 -366 
Q 5175 334 4709 878 
L 5088 1069 
Q 5616 569 6009 -84 
L 5572 -366 
z
" transform="scale(0.015625)"/>
     </defs>
     <use xlink:href="#IPAexGothic-2192"/>
     <use xlink:href="#IPAexGothic-20" x="100"/>
     <use xlink:href="#IPAexGothic-6697" x="127.001953"/>
     <use xlink:href="#IPAexGothic-3044" x="227.001953"/>
     <use xlink:href="#IPAexGothic-ff08" x="327.001953"/>
     <use xlink:href="#IPAexGothic-9ed2" x="427.001953"/>
     <use xlink:href="#IPAexGothic-ff09" x="527.001953"/>
    </g>
   </g>
   <g id="text_74">
    <!-- 画像 ＝ 数値配列 -->
    <g style="fill: #1e8449" transform="translate(441.36 242.779718) scale(0.12 -0.12)">
     <use xlink:href="#IPAexGothic-753b"/>
     <use xlink:href="#IPAexGothic-50cf" x="100"/>
     <use xlink:href="#IPAexGothic-20" x="200"/>
     <use xlink:href="#IPAexGothic-ff1d" x="227.001953"/>
     <use xlink:href="#IPAexGothic-20" x="327.001953"/>
     <use xlink:href="#IPAexGothic-6570" x="354.003906"/>
     <use xlink:href="#IPAexGothic-5024" x="454.003906"/>
     <use xlink:href="#IPAexGothic-914d" x="554.003906"/>
     <use xlink:href="#IPAexGothic-5217" x="654.003906"/>
    </g>
   </g>
   <g id="text_75">
    <!-- だから NumPy で -->
    <g style="fill: #1e8449" transform="translate(441.36 263.65125) scale(0.12 -0.12)">
     <defs>
      <path id="IPAexGothic-3060" d="M 684 3963 
Q 1138 3922 1556 3922 
Q 1800 3922 2106 3944 
Q 2266 4563 2369 5081 
L 2875 4991 
Q 2806 4700 2619 3981 
Q 3209 4050 3656 4159 
L 3688 3688 
Q 3109 3581 2497 3531 
Q 1822 1263 1153 -78 
L 653 141 
Q 1406 1469 1991 3500 
Q 1641 3481 1256 3481 
Q 1109 3481 697 3494 
L 684 3963 
z
M 5753 44 
Q 5053 -44 4597 -44 
Q 3619 -44 3206 303 
Q 2866 594 2766 1191 
L 3213 1356 
Q 3247 1038 3347 869 
Q 3425 741 3578 641 
Q 3866 450 4556 450 
Q 5009 450 5728 544 
L 5753 44 
z
M 3144 2828 
Q 4216 3113 5409 3041 
L 5381 2566 
L 5356 2566 
Q 4263 2631 3194 2388 
L 3144 2828 
z
M 5569 4103 
Q 5206 4644 4813 4972 
L 5113 5203 
Q 5497 4894 5888 4378 
L 5569 4103 
z
M 4972 3634 
Q 4684 4125 4238 4525 
L 4550 4769 
Q 4922 4459 5306 3909 
L 4972 3634 
z
" transform="scale(0.015625)"/>
      <path id="IPAexGothic-304b" d="M 659 3384 
Q 1434 3503 2113 3581 
Q 2313 4341 2394 4972 
L 2900 4875 
Q 2759 4147 2619 3628 
L 2719 3634 
Q 2894 3641 3041 3641 
Q 4072 3641 4072 2369 
Q 4072 1128 3700 384 
Q 3478 -56 3003 -56 
Q 2591 -56 2113 231 
L 2138 775 
Q 2631 444 2925 444 
Q 3169 444 3297 706 
Q 3566 1294 3566 2388 
Q 3566 3219 3016 3219 
Q 2825 3219 2497 3194 
Q 2388 2763 2113 2047 
Q 1634 797 1119 -38 
L 678 244 
Q 1356 1238 1863 2750 
Q 1888 2819 1991 3128 
Q 1594 3081 769 2916 
L 659 3384 
z
M 5644 1753 
Q 5072 3025 4238 3916 
L 4641 4184 
Q 5494 3275 6081 2094 
L 5644 1753 
z
" transform="scale(0.015625)"/>
      <path id="IPAexGothic-3089" d="M 3700 3928 
Q 2897 4478 2156 4750 
L 2381 5166 
Q 3147 4891 3956 4384 
L 3700 3928 
z
M 1344 1281 
Q 1450 2544 1747 4038 
L 2234 3928 
Q 1994 2856 1888 1844 
Q 2897 2688 3963 2688 
Q 4531 2688 4909 2450 
Q 5441 2122 5441 1516 
Q 5441 669 4569 213 
Q 3856 -169 2584 -238 
L 2363 250 
Q 3484 250 4213 588 
Q 4909 922 4909 1509 
Q 4909 1856 4647 2059 
Q 4366 2266 3897 2266 
Q 2853 2266 1766 1141 
L 1344 1281 
z
" transform="scale(0.015625)"/>
      <path id="IPAexGothic-4e" d="M 4244 63 
L 3731 63 
L 1697 3150 
Q 1466 3500 1141 4097 
L 1116 4097 
L 1128 3797 
Q 1159 2803 1159 2469 
L 1159 63 
L 609 63 
L 609 4634 
L 1366 4634 
L 3113 1978 
Q 3453 1447 3713 966 
L 3738 966 
Q 3694 1897 3694 2469 
L 3694 4634 
L 4244 4634 
L 4244 63 
z
" transform="scale(0.015625)"/>
      <path id="IPAexGothic-75" d="M 3284 63 
L 2772 63 
L 2772 644 
Q 2300 0 1625 0 
Q 1072 0 763 375 
Q 519 678 519 1241 
L 519 3250 
L 1069 3250 
L 1069 1259 
Q 1069 466 1734 466 
Q 2406 466 2734 1291 
L 2734 3250 
L 3284 3250 
L 3284 63 
z
" transform="scale(0.015625)"/>
      <path id="IPAexGothic-6d" d="M 5022 63 
L 4472 63 
L 4472 2059 
Q 4472 2869 3847 2869 
Q 3550 2869 3303 2594 
Q 3128 2397 3059 2103 
L 3059 63 
L 2509 63 
L 2509 2066 
Q 2509 2869 1919 2869 
Q 1606 2869 1369 2594 
Q 1113 2306 1113 2041 
L 1113 63 
L 563 63 
L 563 3250 
L 1075 3250 
L 1075 2700 
Q 1391 3316 2028 3316 
Q 2725 3316 2956 2647 
Q 3303 3316 3953 3316 
Q 4478 3316 4772 2944 
Q 5022 2638 5022 2072 
L 5022 63 
z
" transform="scale(0.015625)"/>
      <path id="IPAexGothic-50" d="M 609 4634 
L 1941 4634 
Q 3688 4634 3688 3322 
Q 3688 1934 1906 1934 
L 1172 1934 
L 1172 63 
L 609 63 
L 609 4634 
z
M 1172 2381 
L 1800 2381 
Q 3100 2381 3100 3316 
Q 3100 4181 1894 4181 
L 1172 4181 
L 1172 2381 
z
" transform="scale(0.015625)"/>
      <path id="IPAexGothic-79" d="M 3122 3250 
L 1575 -488 
Q 1278 -1203 550 -1203 
L 478 -1203 
L 344 -703 
L 447 -703 
Q 969 -703 1150 -238 
L 1356 275 
L 38 3250 
L 659 3250 
L 1363 1459 
Q 1528 1025 1606 781 
L 1625 781 
Q 1750 1169 1863 1459 
L 2528 3250 
L 3122 3250 
z
" transform="scale(0.015625)"/>
      <path id="IPAexGothic-3067" d="M 581 4034 
Q 2978 4363 5466 4556 
L 5509 4097 
Q 4388 4031 3750 3572 
Q 2797 2878 2797 1913 
Q 2797 1169 3291 819 
Q 3778 484 4869 416 
L 4906 -116 
Q 2278 0 2278 1850 
Q 2278 3125 3691 4000 
Q 2066 3784 684 3553 
L 581 4034 
z
M 5631 2522 
Q 5269 3063 4875 3391 
L 5175 3622 
Q 5559 3313 5950 2797 
L 5631 2522 
z
M 5034 2053 
Q 4747 2544 4300 2944 
L 4613 3184 
Q 4984 2878 5369 2328 
L 5034 2053 
z
" transform="scale(0.015625)"/>
     </defs>
     <use xlink:href="#IPAexGothic-3060"/>
     <use xlink:href="#IPAexGothic-304b" x="100"/>
     <use xlink:href="#IPAexGothic-3089" x="200"/>
     <use xlink:href="#IPAexGothic-20" x="300"/>
     <use xlink:href="#IPAexGothic-4e" x="327.001953"/>
     <use xlink:href="#IPAexGothic-75" x="402.978516"/>
     <use xlink:href="#IPAexGothic-6d" x="463.378906"/>
     <use xlink:href="#IPAexGothic-50" x="550.488281"/>
     <use xlink:href="#IPAexGothic-79" x="612.597656"/>
     <use xlink:href="#IPAexGothic-20" x="661.816406"/>
     <use xlink:href="#IPAexGothic-3067" x="688.818359"/>
    </g>
   </g>
   <g id="text_76">
    <!-- 計算・統計処理できる！ -->
    <g style="fill: #1e8449" transform="translate(441.36 283.037782) scale(0.12 -0.12)">
     <defs>
      <path id="IPAexGothic-8a08" d="M 2853 1684 
L 2853 -416 
L 2413 -416 
L 2413 -128 
L 1088 -128 
L 1088 -447 
L 647 -447 
L 647 1684 
L 2853 1684 
z
M 1088 1300 
L 1088 256 
L 2413 256 
L 2413 1300 
L 1088 1300 
z
M 4322 3225 
L 4322 5178 
L 4781 5178 
L 4781 3225 
L 6063 3225 
L 6063 2797 
L 4781 2797 
L 4781 -447 
L 4322 -447 
L 4322 2797 
L 3063 2797 
L 3063 3225 
L 4322 3225 
z
M 781 5044 
L 2722 5044 
L 2722 4647 
L 781 4647 
L 781 5044 
z
M 384 4206 
L 3150 4206 
L 3150 3803 
L 384 3803 
L 384 4206 
z
M 781 3359 
L 2722 3359 
L 2722 2963 
L 781 2963 
L 781 3359 
z
M 781 2522 
L 2722 2522 
L 2722 2125 
L 781 2125 
L 781 2522 
z
" transform="scale(0.015625)"/>
      <path id="IPAexGothic-7b97" d="M 2466 672 
Q 2322 -228 1031 -525 
L 756 -166 
Q 1419 -22 1731 213 
Q 1944 369 2013 672 
L 328 672 
L 328 1056 
L 2038 1056 
L 2038 1466 
L 1206 1466 
L 1206 3803 
L 3319 3803 
L 3022 4019 
Q 3444 4525 3694 5319 
L 4122 5222 
Q 4081 5094 3963 4794 
L 5991 4794 
L 5991 4422 
L 4691 4422 
Q 4788 4281 4956 3988 
L 4556 3809 
Q 4397 4153 4225 4422 
L 3791 4422 
Q 3609 4075 3375 3803 
L 5213 3803 
L 5213 1466 
L 4422 1466 
L 4422 1056 
L 6088 1056 
L 6088 672 
L 4444 672 
L 4444 -441 
L 3991 -441 
L 3991 672 
L 2466 672 
z
M 2491 1056 
L 3969 1056 
L 3969 1466 
L 2491 1466 
L 2491 1056 
z
M 4769 1797 
L 4769 2172 
L 1647 2172 
L 1647 1797 
L 4769 1797 
z
M 4769 2497 
L 4769 2819 
L 1647 2819 
L 1647 2497 
L 4769 2497 
z
M 4769 3144 
L 4769 3463 
L 1647 3463 
L 1647 3144 
L 4769 3144 
z
M 1472 4794 
L 3206 4794 
L 3206 4422 
L 2272 4422 
L 2478 3994 
L 2088 3806 
Q 1934 4200 1819 4422 
L 1281 4422 
Q 1025 3969 691 3616 
L 384 3878 
Q 941 4494 1241 5313 
L 1659 5203 
Q 1594 5053 1472 4794 
z
" transform="scale(0.015625)"/>
      <path id="IPAexGothic-30fb" d="M 2772 2859 
L 3628 2859 
L 3628 2003 
L 2772 2003 
L 2772 2859 
z
" transform="scale(0.015625)"/>
      <path id="IPAexGothic-7d71" d="M 1234 3078 
Q 869 3616 384 4128 
L 678 4428 
Q 688 4419 781 4309 
Q 853 4228 916 4159 
Q 1278 4722 1541 5331 
L 1975 5125 
Q 1613 4481 1156 3859 
Q 1284 3697 1472 3431 
Q 1844 3991 2150 4550 
L 2553 4313 
Q 1909 3266 1306 2566 
Q 1859 2594 2272 2638 
Q 2147 2931 2016 3156 
L 2366 3303 
Q 2631 2884 2897 2113 
L 2513 1925 
Q 2509 1941 2391 2309 
Q 2056 2244 1803 2222 
L 1803 -447 
L 1369 -447 
L 1369 2169 
L 1291 2156 
Q 988 2128 428 2094 
L 294 2528 
Q 359 2528 644 2534 
Q 784 2538 844 2541 
Q 1019 2763 1234 3078 
z
M 3791 2791 
Q 4350 2816 5159 2900 
Q 4888 3325 4703 3547 
L 5050 3738 
Q 5500 3231 6003 2369 
L 5613 2119 
Q 5409 2491 5356 2572 
Q 4438 2428 3003 2325 
L 2881 2747 
Q 2919 2747 3063 2753 
Q 3141 2756 3175 2759 
Q 3297 2759 3334 2766 
Q 3644 3391 3822 3975 
L 2753 3975 
L 2753 4372 
L 4116 4372 
L 4116 5313 
L 4544 5313 
L 4544 4372 
L 6016 4372 
L 6016 3975 
L 4281 3975 
Q 4056 3356 3791 2791 
z
M 356 256 
Q 569 891 647 1819 
L 1069 1759 
Q 1000 756 781 44 
L 356 256 
z
M 2341 441 
Q 2206 1225 2016 1759 
L 2375 1869 
Q 2600 1325 2750 622 
L 2341 441 
z
M 4550 2119 
L 4978 2119 
L 4978 372 
Q 4978 219 5034 178 
Q 5094 141 5291 141 
Q 5581 141 5619 281 
Q 5647 388 5675 941 
L 5681 1075 
L 6119 928 
Q 6088 97 5956 -100 
Q 5822 -306 5228 -306 
Q 4759 -306 4647 -184 
Q 4550 -91 4550 159 
L 4550 2119 
z
M 2431 -128 
Q 3181 228 3391 831 
Q 3503 1141 3513 1931 
L 3513 2094 
L 3941 2094 
Q 3941 1041 3794 628 
Q 3556 -47 2756 -481 
L 2431 -128 
z
" transform="scale(0.015625)"/>
      <path id="IPAexGothic-ff01" d="M 2828 5081 
L 3572 5081 
L 3456 1228 
L 2944 1228 
L 2828 5081 
z
M 2828 647 
L 3572 647 
L 3572 -97 
L 2828 -97 
L 2828 647 
z
" transform="scale(0.015625)"/>
     </defs>
     <use xlink:href="#IPAexGothic-8a08"/>
     <use xlink:href="#IPAexGothic-7b97" x="100"/>
     <use xlink:href="#IPAexGothic-30fb" x="200"/>
     <use xlink:href="#IPAexGothic-7d71" x="300"/>
     <use xlink:href="#IPAexGothic-8a08" x="400"/>
     <use xlink:href="#IPAexGothic-51e6" x="500"/>
     <use xlink:href="#IPAexGothic-7406" x="600"/>
     <use xlink:href="#IPAexGothic-3067" x="700"/>
     <use xlink:href="#IPAexGothic-304d" x="800"/>
     <use xlink:href="#IPAexGothic-308b" x="900"/>
     <use xlink:href="#IPAexGothic-ff01" x="1000"/>
    </g>
   </g>
  </g>
 </g>
 <defs>
  <clipPath id="p99d832c0bb">
   <rect x="0" y="-0" width="691.2" height="388.8"/>
  </clipPath>
 </defs>
</svg>
