<?xml version="1.0" encoding="utf-8" standalone="no"?>
<!DOCTYPE svg PUBLIC "-//W3C//DTD SVG 1.1//EN"
  "http://www.w3.org/Graphics/SVG/1.1/DTD/svg11.dtd">
<svg xmlns:xlink="http://www.w3.org/1999/xlink" width="691.2pt" height="388.8pt" viewBox="0 0 691.2 388.8" xmlns="http://www.w3.org/2000/svg" version="1.1">
 <metadata>
  <rdf:RDF xmlns:dc="http://purl.org/dc/elements/1.1/" xmlns:cc="http://creativecommons.org/ns#" xmlns:rdf="http://www.w3.org/1999/02/22-rdf-syntax-ns#">
   <cc:Work>
    <dc:type rdf:resource="http://purl.org/dc/dcmitype/StillImage"/>
    <dc:date>2026-04-09T02:37:45.910755</dc:date>
    <dc:format>image/svg+xml</dc:format>
    <dc:creator>
     <cc:Agent>
      <dc:title>Matplotlib v3.9.4, https://matplotlib.org/</dc:title>
     </cc:Agent>
    </dc:creator>
   </cc:Work>
  </rdf:RDF>
 </metadata>
 <defs>
  <style type="text/css">*{stroke-linejoin: round; stroke-linecap: butt}</style>
 </defs>
 <g id="figure_1">
  <g id="patch_1">
   <path d="M 0 388.8 
L 691.2 388.8 
L 691.2 0 
L 0 0 
z
" style="fill: #ffffff"/>
  </g>
  <g id="axes_1">
   <g id="patch_2">
    <path d="M 0 -0 
L 691.2 -0 
L 691.2 24.48 
L 0 24.48 
z
" clip-path="url(#p8e47de4c1e)" style="fill: #e8a838"/>
   </g>
   <g id="patch_3">
    <path d="M 31.68 59.04 
L 659.52 59.04 
L 659.52 60.48 
L 31.68 60.48 
z
" clip-path="url(#p8e47de4c1e)" style="fill: #ecf0f1"/>
   </g>
   <g id="patch_4">
    <path d="M 31.68 59.04 
L 659.52 59.04 
L 659.52 90.72 
L 31.68 90.72 
z
" clip-path="url(#p8e47de4c1e)" style="fill: #eafaf1"/>
   </g>
   <g id="patch_5">
    <path d="M 31.68 59.04 
L 33.84 59.04 
L 33.84 90.72 
L 31.68 90.72 
z
" clip-path="url(#p8e47de4c1e)" style="fill: #5ba85a"/>
   </g>
   <g id="patch_6">
    <path d="M 31.68 234.72 
L 659.52 234.72 
Q 662.4 234.72 662.4 237.6 
L 662.4 324 
Q 662.4 326.88 659.52 326.88 
L 31.68 326.88 
Q 28.8 326.88 28.8 324 
L 28.8 237.6 
Q 28.8 234.72 31.68 234.72 
z
" clip-path="url(#p8e47de4c1e)" style="fill: #1e1e2e; stroke: #555555; stroke-linejoin: miter"/>
   </g>
   <g id="text_1">
    <!-- Ch.3 画像処理入門 -->
    <g style="fill: #ffffff" transform="translate(31.68 15.035312) scale(0.1 -0.1)">
     <defs>
      <path id="IPAexGothic-43" d="M 4353 1088 
Q 4181 694 3859 428 
Q 3313 -31 2559 -31 
Q 1588 -31 959 653 
Q 378 1294 378 2331 
Q 378 3406 1013 4078 
Q 1619 4725 2534 4725 
Q 3813 4725 4322 3628 
L 3809 3391 
Q 3425 4238 2541 4238 
Q 1891 4238 1453 3744 
Q 994 3216 994 2322 
Q 994 1550 1384 1056 
Q 1841 472 2563 472 
Q 3456 472 3878 1319 
L 4353 1088 
z
" transform="scale(0.015625)"/>
      <path id="IPAexGothic-68" d="M 3347 63 
L 2797 63 
L 2797 2041 
Q 2797 2853 2131 2853 
Q 1447 2853 1131 2041 
L 1131 63 
L 581 63 
L 581 4794 
L 1131 4794 
L 1131 2706 
Q 1566 3316 2247 3316 
Q 3347 3316 3347 2072 
L 3347 63 
z
" transform="scale(0.015625)"/>
      <path id="IPAexGothic-2e" d="M 1184 63 
L 494 63 
L 494 753 
L 1184 753 
L 1184 63 
z
" transform="scale(0.015625)"/>
      <path id="IPAexGothic-33" d="M 2381 2419 
Q 3506 2216 3506 1278 
Q 3506 716 3128 356 
Q 2709 -31 1944 -31 
Q 797 -31 288 881 
L 756 1131 
Q 1109 441 1938 441 
Q 2425 441 2694 691 
Q 2950 928 2950 1291 
Q 2950 1719 2566 1978 
Q 2216 2213 1644 2213 
L 1363 2213 
L 1363 2669 
L 1656 2669 
Q 2231 2669 2534 2888 
Q 2859 3119 2859 3509 
Q 2859 3934 2494 4138 
Q 2259 4278 1931 4278 
Q 1238 4278 903 3578 
L 434 3803 
Q 897 4725 1938 4725 
Q 2597 4725 3006 4394 
Q 3416 4069 3416 3534 
Q 3416 3028 3019 2706 
Q 2763 2500 2381 2444 
L 2381 2419 
z
" transform="scale(0.015625)"/>
      <path id="IPAexGothic-20" transform="scale(0.015625)"/>
      <path id="IPAexGothic-753b" d="M 2966 3713 
L 2966 4447 
L 353 4447 
L 353 4856 
L 6041 4856 
L 6041 4447 
L 3406 4447 
L 3406 3713 
L 4769 3713 
L 4769 825 
L 1634 825 
L 1634 3713 
L 2966 3713 
z
M 2978 3334 
L 2050 3334 
L 2050 2484 
L 2978 2484 
L 2978 3334 
z
M 3394 3334 
L 3394 2484 
L 4347 2484 
L 4347 3334 
L 3394 3334 
z
M 2978 2119 
L 2050 2119 
L 2050 1197 
L 2978 1197 
L 2978 2119 
z
M 3394 2119 
L 3394 1197 
L 4347 1197 
L 4347 2119 
L 3394 2119 
z
M 1081 300 
L 5316 300 
L 5316 3603 
L 5756 3603 
L 5756 -450 
L 5316 -450 
L 5316 -97 
L 1081 -97 
L 1081 -450 
L 641 -450 
L 641 3603 
L 1081 3603 
L 1081 300 
z
" transform="scale(0.015625)"/>
      <path id="IPAexGothic-50cf" d="M 4000 2688 
L 3828 2688 
Q 3672 2513 3509 2369 
Q 4422 1550 4422 403 
Q 4422 -56 4263 -244 
Q 4119 -416 3744 -416 
Q 3369 -416 3053 -372 
L 2972 97 
Q 3334 -6 3681 -6 
Q 3913 -6 3963 147 
Q 3994 266 3994 453 
Q 3994 738 3919 1063 
Q 3194 234 2159 -238 
L 1859 116 
Q 2959 519 3778 1422 
Q 3716 1534 3638 1663 
Q 2925 953 2025 622 
L 1756 966 
Q 2638 1216 3438 1938 
Q 3350 2044 3247 2150 
Q 2759 1766 2031 1466 
L 1763 1791 
Q 2638 2094 3347 2688 
L 2197 2688 
L 2197 3488 
Q 2041 3344 1866 3200 
L 1641 3563 
Q 2566 4278 3053 5331 
L 3481 5222 
Q 3425 5113 3328 4922 
L 4550 4922 
L 4813 4722 
Q 4534 4325 4231 4013 
L 5619 4013 
L 5619 2688 
L 4384 2688 
Q 4525 2200 4744 1803 
Q 5209 2163 5581 2572 
L 5953 2291 
Q 5516 1872 4928 1491 
Q 5359 828 6059 300 
L 5728 -56 
Q 4450 1019 4000 2688 
z
M 2625 3034 
L 3694 3034 
L 3694 3659 
L 2625 3659 
L 2625 3034 
z
M 2703 4013 
L 3744 4013 
Q 4006 4275 4181 4550 
L 3106 4550 
Q 2903 4253 2703 4013 
z
M 4097 3034 
L 5184 3034 
L 5184 3659 
L 4097 3659 
L 4097 3034 
z
M 1394 3706 
L 1394 -447 
L 966 -447 
L 966 2694 
Q 750 2266 478 1863 
L 244 2259 
Q 1028 3500 1388 5306 
L 1816 5203 
Q 1634 4369 1394 3706 
z
" transform="scale(0.015625)"/>
      <path id="IPAexGothic-51e6" d="M 2144 1263 
Q 2538 638 3147 425 
Q 3628 253 4741 253 
Q 5266 253 6163 303 
Q 6038 63 6009 -216 
Q 5450 -234 5094 -234 
Q 3675 -234 3097 -38 
Q 2388 206 1919 884 
Q 1366 6 734 -478 
L 397 -106 
Q 1128 384 1675 1306 
Q 1341 1969 1138 2913 
Q 934 2309 606 1775 
L 306 2159 
Q 1069 3425 1319 5219 
L 1759 5116 
Q 1694 4763 1631 4481 
L 2650 4481 
L 2903 4275 
Q 2759 2447 2144 1263 
z
M 1900 1744 
Q 2356 2797 2469 4066 
L 1528 4066 
Q 1463 3822 1388 3625 
Q 1534 2575 1900 1744 
z
M 5056 4756 
L 5056 1466 
Q 5056 1263 5269 1263 
Q 5466 1263 5484 1475 
Q 5506 1600 5516 2081 
L 5525 2222 
L 5953 2069 
Q 5944 1234 5831 1038 
Q 5728 859 5216 859 
Q 4888 859 4750 950 
Q 4622 1038 4622 1294 
L 4622 4353 
L 3872 4353 
L 3872 3759 
Q 3872 2544 3744 1916 
Q 3600 1244 3141 706 
L 2813 1025 
Q 3256 1563 3372 2369 
Q 3428 2809 3428 3566 
L 3428 4756 
L 5056 4756 
z
" transform="scale(0.015625)"/>
      <path id="IPAexGothic-7406" d="M 1541 4397 
L 1541 3084 
L 2219 3084 
L 2219 2688 
L 1541 2688 
L 1541 1247 
Q 1919 1356 2397 1522 
L 2431 1144 
Q 1353 713 434 472 
L 263 909 
Q 763 1025 1113 1119 
L 1113 2688 
L 441 2688 
L 441 3084 
L 1113 3084 
L 1113 4397 
L 369 4397 
L 369 4800 
L 2347 4800 
L 2347 4397 
L 1541 4397 
z
M 5691 4991 
L 5691 2106 
L 4378 2106 
L 4378 1375 
L 5825 1375 
L 5825 984 
L 4378 984 
L 4378 206 
L 6081 206 
L 6081 -191 
L 2150 -191 
L 2150 206 
L 3944 206 
L 3944 984 
L 2559 984 
L 2559 1375 
L 3944 1375 
L 3944 2106 
L 2675 2106 
L 2675 4991 
L 5691 4991 
z
M 3091 4606 
L 3091 3750 
L 3956 3750 
L 3956 4606 
L 3091 4606 
z
M 3091 3378 
L 3091 2491 
L 3956 2491 
L 3956 3378 
L 3091 3378 
z
M 5275 2491 
L 5275 3378 
L 4366 3378 
L 4366 2491 
L 5275 2491 
z
M 5275 3750 
L 5275 4606 
L 4366 4606 
L 4366 3750 
L 5275 3750 
z
" transform="scale(0.015625)"/>
      <path id="IPAexGothic-5165" d="M 3275 3078 
Q 2806 619 819 -334 
L 447 91 
Q 2934 1156 3000 4550 
L 1472 4550 
L 1472 4984 
L 3525 4984 
L 3525 4728 
Q 3525 3053 4116 2041 
Q 4734 972 6022 275 
L 5650 -200 
Q 3697 1044 3275 3078 
z
" transform="scale(0.015625)"/>
      <path id="IPAexGothic-9580" d="M 2894 4984 
L 2894 2388 
L 2453 2388 
L 2453 2688 
L 1109 2688 
L 1109 -447 
L 641 -447 
L 641 4984 
L 2894 4984 
z
M 1109 4588 
L 1109 4019 
L 2453 4019 
L 2453 4588 
L 1109 4588 
z
M 1109 3659 
L 1109 3072 
L 2453 3072 
L 2453 3659 
L 1109 3659 
z
M 5747 4984 
L 5747 178 
Q 5747 -166 5581 -281 
Q 5441 -384 5075 -384 
Q 4575 -384 4153 -341 
L 4066 166 
Q 4616 97 5013 97 
Q 5288 97 5288 331 
L 5288 2688 
L 3903 2688 
L 3903 2388 
L 3463 2388 
L 3463 4984 
L 5747 4984 
z
M 3903 4588 
L 3903 4019 
L 5288 4019 
L 5288 4588 
L 3903 4588 
z
M 3903 3659 
L 3903 3072 
L 5288 3072 
L 5288 3659 
L 3903 3659 
z
" transform="scale(0.015625)"/>
     </defs>
     <use xlink:href="#IPAexGothic-43"/>
     <use xlink:href="#IPAexGothic-68" x="72.509766"/>
     <use xlink:href="#IPAexGothic-2e" x="133.203125"/>
     <use xlink:href="#IPAexGothic-33" x="159.619141"/>
     <use xlink:href="#IPAexGothic-20" x="222.607422"/>
     <use xlink:href="#IPAexGothic-753b" x="249.609375"/>
     <use xlink:href="#IPAexGothic-50cf" x="349.609375"/>
     <use xlink:href="#IPAexGothic-51e6" x="449.609375"/>
     <use xlink:href="#IPAexGothic-7406" x="549.609375"/>
     <use xlink:href="#IPAexGothic-5165" x="649.609375"/>
     <use xlink:href="#IPAexGothic-9580" x="749.609375"/>
    </g>
   </g>
   <g id="text_2">
    <!-- 画像データの統計分析 -->
    <g style="fill: #1a1a2e" transform="translate(31.68 55.7325) scale(0.24 -0.24)">
     <defs>
      <path id="IPAexGothic-30c7" d="M 563 3072 
L 5741 3072 
L 5741 2613 
L 3578 2613 
Q 3538 1516 3134 872 
Q 2688 156 1663 -256 
L 1313 156 
Q 2338 538 2713 1166 
Q 3003 1644 3034 2613 
L 563 2613 
L 563 3072 
z
M 1406 4588 
L 4588 4588 
L 4588 4128 
L 1406 4128 
L 1406 4588 
z
M 6009 4469 
Q 5647 5009 5253 5338 
L 5553 5569 
Q 5938 5259 6328 4744 
L 6009 4469 
z
M 5413 4000 
Q 5125 4491 4678 4891 
L 4991 5131 
Q 5363 4825 5747 4275 
L 5413 4000 
z
" transform="scale(0.015625)"/>
      <path id="IPAexGothic-30fc" d="M 588 2688 
L 5809 2688 
L 5809 2175 
L 588 2175 
L 588 2688 
z
" transform="scale(0.015625)"/>
      <path id="IPAexGothic-30bf" d="M 4978 4263 
L 5313 3988 
Q 4797 2431 4056 1459 
Q 3191 325 1822 -300 
L 1466 109 
Q 2131 381 2613 738 
Q 3053 1066 3531 1600 
Q 2919 2225 2144 2791 
Q 1603 2203 1172 1875 
L 825 2234 
Q 2316 3328 2866 5031 
L 3359 4897 
Q 3325 4775 3109 4263 
L 4978 4263 
z
M 2894 3816 
Q 2709 3522 2438 3169 
Q 3194 2616 3841 2003 
Q 4366 2806 4747 3816 
L 2894 3816 
z
" transform="scale(0.015625)"/>
      <path id="IPAexGothic-306e" d="M 3119 469 
Q 5275 766 5275 2425 
Q 5275 3453 4413 3925 
Q 4041 4116 3547 4159 
Q 3394 2525 2850 1400 
Q 2322 306 1722 306 
Q 1384 306 1084 666 
Q 609 1244 609 2003 
Q 609 3025 1397 3794 
Q 2184 4563 3431 4563 
Q 4306 4563 4928 4122 
Q 5813 3506 5813 2425 
Q 5813 438 3431 6 
L 3119 469 
z
M 3053 4147 
Q 2378 4044 1891 3641 
Q 1097 2981 1097 1991 
Q 1097 1366 1434 978 
Q 1581 813 1719 813 
Q 2022 813 2416 1625 
Q 2909 2638 3053 4147 
z
" transform="scale(0.015625)"/>
      <path id="IPAexGothic-7d71" d="M 1234 3078 
Q 869 3616 384 4128 
L 678 4428 
Q 688 4419 781 4309 
Q 853 4228 916 4159 
Q 1278 4722 1541 5331 
L 1975 5125 
Q 1613 4481 1156 3859 
Q 1284 3697 1472 3431 
Q 1844 3991 2150 4550 
L 2553 4313 
Q 1909 3266 1306 2566 
Q 1859 2594 2272 2638 
Q 2147 2931 2016 3156 
L 2366 3303 
Q 2631 2884 2897 2113 
L 2513 1925 
Q 2509 1941 2391 2309 
Q 2056 2244 1803 2222 
L 1803 -447 
L 1369 -447 
L 1369 2169 
L 1291 2156 
Q 988 2128 428 2094 
L 294 2528 
Q 359 2528 644 2534 
Q 784 2538 844 2541 
Q 1019 2763 1234 3078 
z
M 3791 2791 
Q 4350 2816 5159 2900 
Q 4888 3325 4703 3547 
L 5050 3738 
Q 5500 3231 6003 2369 
L 5613 2119 
Q 5409 2491 5356 2572 
Q 4438 2428 3003 2325 
L 2881 2747 
Q 2919 2747 3063 2753 
Q 3141 2756 3175 2759 
Q 3297 2759 3334 2766 
Q 3644 3391 3822 3975 
L 2753 3975 
L 2753 4372 
L 4116 4372 
L 4116 5313 
L 4544 5313 
L 4544 4372 
L 6016 4372 
L 6016 3975 
L 4281 3975 
Q 4056 3356 3791 2791 
z
M 356 256 
Q 569 891 647 1819 
L 1069 1759 
Q 1000 756 781 44 
L 356 256 
z
M 2341 441 
Q 2206 1225 2016 1759 
L 2375 1869 
Q 2600 1325 2750 622 
L 2341 441 
z
M 4550 2119 
L 4978 2119 
L 4978 372 
Q 4978 219 5034 178 
Q 5094 141 5291 141 
Q 5581 141 5619 281 
Q 5647 388 5675 941 
L 5681 1075 
L 6119 928 
Q 6088 97 5956 -100 
Q 5822 -306 5228 -306 
Q 4759 -306 4647 -184 
Q 4550 -91 4550 159 
L 4550 2119 
z
M 2431 -128 
Q 3181 228 3391 831 
Q 3503 1141 3513 1931 
L 3513 2094 
L 3941 2094 
Q 3941 1041 3794 628 
Q 3556 -47 2756 -481 
L 2431 -128 
z
" transform="scale(0.015625)"/>
      <path id="IPAexGothic-8a08" d="M 2853 1684 
L 2853 -416 
L 2413 -416 
L 2413 -128 
L 1088 -128 
L 1088 -447 
L 647 -447 
L 647 1684 
L 2853 1684 
z
M 1088 1300 
L 1088 256 
L 2413 256 
L 2413 1300 
L 1088 1300 
z
M 4322 3225 
L 4322 5178 
L 4781 5178 
L 4781 3225 
L 6063 3225 
L 6063 2797 
L 4781 2797 
L 4781 -447 
L 4322 -447 
L 4322 2797 
L 3063 2797 
L 3063 3225 
L 4322 3225 
z
M 781 5044 
L 2722 5044 
L 2722 4647 
L 781 4647 
L 781 5044 
z
M 384 4206 
L 3150 4206 
L 3150 3803 
L 384 3803 
L 384 4206 
z
M 781 3359 
L 2722 3359 
L 2722 2963 
L 781 2963 
L 781 3359 
z
M 781 2522 
L 2722 2522 
L 2722 2125 
L 781 2125 
L 781 2522 
z
" transform="scale(0.015625)"/>
      <path id="IPAexGothic-5206" d="M 3031 2431 
Q 2916 1378 2528 759 
Q 1991 -81 941 -469 
L 625 -53 
Q 2356 488 2541 2431 
L 1375 2431 
L 1375 2772 
Q 1044 2431 653 2156 
L 313 2534 
Q 1600 3425 2219 5056 
L 2688 4875 
Q 2200 3672 1453 2847 
L 4966 2847 
Q 4878 559 4741 94 
Q 4666 -163 4459 -250 
Q 4288 -322 3941 -322 
Q 3525 -322 2981 -263 
L 2884 256 
Q 3441 138 3844 138 
Q 4213 138 4281 438 
Q 4388 931 4472 2431 
L 3031 2431 
z
M 5747 2303 
Q 4416 3238 3506 4934 
L 3934 5113 
Q 4747 3572 6084 2747 
L 5747 2303 
z
" transform="scale(0.015625)"/>
      <path id="IPAexGothic-6790" d="M 1363 2669 
L 1350 2625 
Q 1066 1647 550 781 
L 263 1256 
Q 953 2256 1300 3541 
L 397 3541 
L 397 3956 
L 1363 3956 
L 1363 5300 
L 1803 5300 
L 1803 3956 
L 2700 3956 
L 2700 3541 
L 1803 3541 
L 1803 2931 
Q 2375 2453 2788 1991 
L 2519 1531 
Q 2156 2053 1803 2434 
L 1803 -447 
L 1363 -447 
L 1363 2669 
z
M 3016 4634 
L 3156 4647 
Q 4450 4763 5319 5075 
L 5709 4678 
Q 4731 4363 3469 4256 
L 3469 3213 
L 6088 3213 
L 6088 2797 
L 5134 2797 
L 5134 -441 
L 4681 -441 
L 4681 2797 
L 3469 2797 
Q 3469 1600 3347 972 
Q 3184 100 2663 -525 
L 2331 -225 
Q 2850 488 2953 1325 
Q 3016 1772 3016 2584 
L 3016 4634 
z
" transform="scale(0.015625)"/>
     </defs>
     <use xlink:href="#IPAexGothic-753b"/>
     <use xlink:href="#IPAexGothic-50cf" x="100"/>
     <use xlink:href="#IPAexGothic-30c7" x="200"/>
     <use xlink:href="#IPAexGothic-30fc" x="300"/>
     <use xlink:href="#IPAexGothic-30bf" x="400"/>
     <use xlink:href="#IPAexGothic-306e" x="500"/>
     <use xlink:href="#IPAexGothic-7d71" x="600"/>
     <use xlink:href="#IPAexGothic-8a08" x="700"/>
     <use xlink:href="#IPAexGothic-5206" x="800"/>
     <use xlink:href="#IPAexGothic-6790" x="900"/>
    </g>
   </g>
   <g id="text_3">
    <!-- 画像 ＝ 数値 → 統計量を計算できる → 機械学習の特徴量として使える！ -->
    <g style="fill: #1e8449" transform="translate(41.04 87.429267) scale(0.135 -0.135)">
     <defs>
      <path id="IPAexGothic-ff1d" d="M 1006 3347 
L 5397 3347 
L 5397 2888 
L 1006 2888 
L 1006 3347 
z
M 1006 1978 
L 5397 1978 
L 5397 1519 
L 1006 1519 
L 1006 1978 
z
" transform="scale(0.015625)"/>
      <path id="IPAexGothic-6570" d="M 2847 1553 
Q 2741 1006 2425 534 
Q 2625 441 3091 203 
L 2809 -188 
Q 2541 0 2144 209 
Q 1569 -291 703 -500 
L 422 -125 
Q 1263 19 1747 406 
Q 1222 650 734 816 
Q 975 1172 1147 1503 
L 1172 1553 
L 359 1553 
L 359 1925 
L 1344 1925 
Q 1406 2066 1569 2475 
L 1691 2450 
L 1691 3372 
Q 1250 2738 550 2303 
L 275 2663 
Q 1019 3013 1528 3641 
L 378 3641 
L 378 4006 
L 1691 4006 
L 1691 5313 
L 2113 5313 
L 2113 4006 
L 3297 4006 
L 3297 3641 
L 2113 3641 
L 2113 3513 
Q 2659 3291 3175 2963 
L 2956 2584 
Q 2553 2922 2113 3159 
L 2113 2372 
L 1966 2372 
Q 1928 2288 1872 2141 
Q 1806 1975 1784 1925 
L 3378 1925 
L 3378 1553 
L 2847 1553 
z
M 2419 1553 
L 1613 1553 
Q 1478 1269 1313 997 
Q 1559 909 2047 703 
Q 2313 1047 2419 1553 
z
M 4363 1163 
Q 3953 1781 3738 2638 
Q 3575 2281 3428 2016 
L 3103 2406 
Q 3675 3444 3916 5291 
L 4363 5200 
Q 4284 4666 4197 4197 
L 6009 4197 
L 6009 3775 
L 5503 3775 
Q 5397 2275 4869 1191 
Q 5419 503 6144 75 
L 5822 -378 
Q 5188 106 4631 788 
Q 4113 34 3341 -463 
L 3031 -78 
Q 3888 406 4363 1163 
z
M 4588 1594 
Q 4938 2388 5059 3775 
L 4100 3775 
Q 4041 3519 3972 3288 
Q 3981 3250 3991 3194 
Q 4175 2256 4588 1594 
z
M 1003 4116 
Q 878 4544 638 4934 
L 1053 5094 
Q 1247 4788 1438 4269 
L 1003 4116 
z
M 2316 4269 
Q 2550 4688 2688 5131 
L 3128 4997 
Q 2966 4588 2675 4128 
L 2316 4269 
z
" transform="scale(0.015625)"/>
      <path id="IPAexGothic-5024" d="M 4172 3675 
L 5453 3675 
L 5453 684 
L 3019 684 
L 3019 3675 
L 3750 3675 
Q 3788 3884 3825 4153 
L 2141 4153 
L 2141 4544 
L 3884 4544 
Q 3922 4844 3966 5325 
L 4434 5272 
L 4388 4953 
Q 4331 4578 4331 4544 
L 5863 4544 
L 5863 4153 
L 4269 4153 
Q 4200 3781 4172 3675 
z
M 5038 3316 
L 3434 3316 
L 3434 2803 
L 5038 2803 
L 5038 3316 
z
M 3434 2450 
L 3434 1941 
L 5038 1941 
L 5038 2450 
L 3434 2450 
z
M 3434 1588 
L 3434 1044 
L 5038 1044 
L 5038 1588 
L 3434 1588 
z
M 1509 3669 
L 1509 -447 
L 1069 -447 
L 1069 2725 
Q 856 2338 531 1875 
L 288 2266 
Q 1163 3531 1541 5325 
L 1975 5222 
Q 1791 4378 1509 3669 
z
M 2488 244 
L 6031 244 
L 6031 -153 
L 2488 -153 
L 2488 -447 
L 2059 -447 
L 2059 3213 
L 2488 3213 
L 2488 244 
z
" transform="scale(0.015625)"/>
      <path id="IPAexGothic-2192" d="M 3947 3572 
L 4631 3572 
L 6072 2431 
L 4631 1294 
L 3947 1294 
L 5094 2194 
L 459 2194 
L 459 2669 
L 5094 2669 
L 3947 3572 
z
" transform="scale(0.015625)"/>
      <path id="IPAexGothic-91cf" d="M 5081 5159 
L 5081 3497 
L 1275 3497 
L 1275 5159 
L 5081 5159 
z
M 1716 4819 
L 1716 4475 
L 4647 4475 
L 4647 4819 
L 1716 4819 
z
M 1716 4175 
L 1716 3816 
L 4647 3816 
L 4647 4175 
L 1716 4175 
z
M 5238 2625 
L 5238 997 
L 3388 997 
L 3388 694 
L 5428 694 
L 5428 353 
L 3388 353 
L 3388 34 
L 6044 34 
L 6044 -331 
L 353 -331 
L 353 34 
L 2972 34 
L 2972 353 
L 969 353 
L 969 694 
L 2972 694 
L 2972 997 
L 1159 997 
L 1159 2625 
L 5238 2625 
z
M 1588 2325 
L 1588 1972 
L 2972 1972 
L 2972 2325 
L 1588 2325 
z
M 1588 1672 
L 1588 1303 
L 2972 1303 
L 2972 1672 
L 1588 1672 
z
M 4809 1303 
L 4809 1672 
L 3388 1672 
L 3388 1303 
L 4809 1303 
z
M 4809 1972 
L 4809 2325 
L 3388 2325 
L 3388 1972 
L 4809 1972 
z
M 384 3231 
L 6009 3231 
L 6009 2884 
L 384 2884 
L 384 3231 
z
" transform="scale(0.015625)"/>
      <path id="IPAexGothic-3092" d="M 1094 4263 
Q 1544 4222 2359 4222 
Q 2581 4734 2700 5163 
L 3175 5028 
Q 2997 4538 2859 4256 
Q 3516 4284 4294 4459 
L 4356 4019 
Q 3603 3869 2656 3819 
Q 2391 3284 2059 2797 
Q 2531 3200 2963 3200 
Q 3638 3200 3859 2378 
Q 4556 2681 5338 2950 
L 5575 2528 
Q 4641 2253 3941 1956 
Q 3981 1678 3994 1028 
L 3513 991 
Q 3513 1456 3494 1753 
Q 2388 1194 2388 716 
Q 2388 428 2753 328 
Q 3066 241 3806 241 
Q 4394 241 5178 344 
L 5216 -128 
Q 4434 -213 3653 -213 
Q 2656 -213 2244 41 
Q 1913 244 1913 631 
Q 1913 1094 2344 1497 
Q 2709 1841 3428 2181 
Q 3266 2797 2878 2797 
Q 2238 2797 1209 1419 
L 838 1694 
Q 1625 2716 2163 3800 
Q 1522 3800 1088 3825 
L 1094 4263 
z
" transform="scale(0.015625)"/>
      <path id="IPAexGothic-7b97" d="M 2466 672 
Q 2322 -228 1031 -525 
L 756 -166 
Q 1419 -22 1731 213 
Q 1944 369 2013 672 
L 328 672 
L 328 1056 
L 2038 1056 
L 2038 1466 
L 1206 1466 
L 1206 3803 
L 3319 3803 
L 3022 4019 
Q 3444 4525 3694 5319 
L 4122 5222 
Q 4081 5094 3963 4794 
L 5991 4794 
L 5991 4422 
L 4691 4422 
Q 4788 4281 4956 3988 
L 4556 3809 
Q 4397 4153 4225 4422 
L 3791 4422 
Q 3609 4075 3375 3803 
L 5213 3803 
L 5213 1466 
L 4422 1466 
L 4422 1056 
L 6088 1056 
L 6088 672 
L 4444 672 
L 4444 -441 
L 3991 -441 
L 3991 672 
L 2466 672 
z
M 2491 1056 
L 3969 1056 
L 3969 1466 
L 2491 1466 
L 2491 1056 
z
M 4769 1797 
L 4769 2172 
L 1647 2172 
L 1647 1797 
L 4769 1797 
z
M 4769 2497 
L 4769 2819 
L 1647 2819 
L 1647 2497 
L 4769 2497 
z
M 4769 3144 
L 4769 3463 
L 1647 3463 
L 1647 3144 
L 4769 3144 
z
M 1472 4794 
L 3206 4794 
L 3206 4422 
L 2272 4422 
L 2478 3994 
L 2088 3806 
Q 1934 4200 1819 4422 
L 1281 4422 
Q 1025 3969 691 3616 
L 384 3878 
Q 941 4494 1241 5313 
L 1659 5203 
Q 1594 5053 1472 4794 
z
" transform="scale(0.015625)"/>
      <path id="IPAexGothic-3067" d="M 581 4034 
Q 2978 4363 5466 4556 
L 5509 4097 
Q 4388 4031 3750 3572 
Q 2797 2878 2797 1913 
Q 2797 1169 3291 819 
Q 3778 484 4869 416 
L 4906 -116 
Q 2278 0 2278 1850 
Q 2278 3125 3691 4000 
Q 2066 3784 684 3553 
L 581 4034 
z
M 5631 2522 
Q 5269 3063 4875 3391 
L 5175 3622 
Q 5559 3313 5950 2797 
L 5631 2522 
z
M 5034 2053 
Q 4747 2544 4300 2944 
L 4613 3184 
Q 4984 2878 5369 2328 
L 5034 2053 
z
" transform="scale(0.015625)"/>
      <path id="IPAexGothic-304d" d="M 2944 1600 
Q 2369 1600 2053 1428 
Q 1772 1275 1772 1019 
Q 1772 666 2200 481 
Q 2600 309 3903 309 
Q 4138 309 4397 331 
L 4422 -147 
Q 4203 -166 3969 -166 
Q 2325 -166 1819 141 
Q 1313 444 1313 994 
Q 1313 1447 1791 1738 
Q 2219 1997 2859 1997 
Q 3319 1997 3606 1947 
Q 3894 1894 4216 1759 
Q 3953 2050 3506 2791 
Q 2263 2547 1191 2491 
L 1094 2956 
Q 2263 2966 3281 3175 
Q 3019 3647 2950 3794 
Q 2125 3641 1253 3622 
L 1166 4063 
Q 2013 4063 2750 4184 
Q 2478 4744 2381 4984 
L 2841 5131 
Q 2925 4916 3213 4281 
Q 3888 4438 4459 4709 
L 4672 4313 
Q 4119 4056 3409 3891 
Q 3638 3447 3738 3284 
Q 4528 3503 5113 3794 
L 5331 3366 
Q 4738 3094 3953 2900 
Q 4272 2366 4903 1484 
L 4575 1147 
Q 3888 1600 2944 1600 
z
" transform="scale(0.015625)"/>
      <path id="IPAexGothic-308b" d="M 4391 4397 
L 2613 2588 
Q 3225 2809 3759 2809 
Q 4263 2809 4659 2625 
Q 5391 2269 5391 1484 
Q 5391 756 4706 275 
Q 4072 -166 3053 -166 
Q 2559 -166 2247 19 
Q 1863 250 1863 666 
Q 1863 934 2069 1141 
Q 2331 1403 2741 1403 
Q 3509 1403 4019 428 
Q 4872 784 4872 1491 
Q 4872 1981 4469 2222 
Q 4166 2406 3681 2406 
Q 2425 2406 1238 1209 
L 891 1581 
Q 2438 2934 3578 4281 
Q 2594 4125 1588 4066 
L 1478 4550 
Q 2594 4581 4109 4763 
L 4391 4397 
z
M 3591 303 
Q 3244 1025 2731 1025 
Q 2553 1025 2434 934 
Q 2316 844 2316 700 
Q 2316 250 3034 250 
Q 3275 250 3591 303 
z
" transform="scale(0.015625)"/>
      <path id="IPAexGothic-6a5f" d="M 3916 2125 
Q 3806 2984 3806 4238 
L 3806 5313 
L 4216 5313 
L 4216 4300 
Q 4216 3081 4300 2278 
L 4313 2150 
L 5175 2150 
Q 4984 2350 4822 2469 
L 5144 2669 
Q 5325 2541 5547 2309 
L 5309 2150 
L 6006 2150 
L 6006 1797 
L 4363 1797 
Q 4450 1278 4688 869 
Q 4931 1150 5194 1631 
L 5553 1431 
Q 5284 953 4913 531 
Q 4941 491 4959 475 
Q 5278 78 5438 78 
Q 5581 78 5669 844 
L 6066 628 
Q 5881 -422 5559 -422 
Q 5163 -422 4631 244 
Q 4069 -275 3384 -519 
L 3116 -191 
Q 3881 88 4406 569 
Q 4072 1116 3966 1772 
L 3084 1772 
Q 3078 1747 3078 1675 
Q 3078 1650 3063 1431 
Q 3534 1153 3934 781 
L 3684 441 
Q 3328 816 3031 1056 
Q 2906 91 2238 -494 
L 1950 -172 
Q 2478 241 2603 891 
Q 2659 1197 2681 1772 
L 2116 1772 
L 2116 2125 
L 3916 2125 
z
M 1113 2534 
Q 813 1522 384 794 
L 153 1250 
Q 763 2228 1063 3547 
L 294 3547 
L 294 3956 
L 1113 3956 
L 1113 5306 
L 1522 5306 
L 1522 3956 
L 2138 3956 
L 2138 3547 
L 1522 3547 
L 1522 2881 
Q 1875 2588 2150 2228 
L 1888 1884 
Q 1753 2144 1522 2434 
L 1522 -447 
L 1113 -447 
L 1113 2534 
z
M 2750 3334 
Q 2441 3850 2131 4159 
L 2347 4469 
Q 2384 4425 2509 4275 
Q 2734 4703 2913 5228 
L 3263 5025 
Q 3028 4447 2719 3988 
Q 2766 3919 2838 3803 
Q 2913 3684 2938 3647 
Q 3175 4066 3347 4434 
L 3666 4244 
Q 3263 3431 2809 2841 
Q 3097 2872 3347 2900 
Q 3347 2913 3334 2950 
Q 3313 3063 3231 3303 
L 3519 3372 
Q 3716 2891 3781 2413 
L 3456 2297 
Q 3453 2316 3428 2484 
Q 3416 2575 3403 2631 
Q 2906 2506 2175 2438 
L 2072 2797 
Q 2109 2800 2194 2803 
Q 2263 2806 2297 2809 
Q 2369 2809 2413 2816 
L 2438 2853 
Q 2538 2994 2750 3334 
z
M 4875 3413 
Q 4559 3916 4263 4206 
L 4478 4506 
Q 4494 4488 4559 4406 
Q 4609 4350 4641 4306 
Q 4891 4769 5038 5216 
L 5394 5013 
Q 5147 4466 4838 4025 
Q 4963 3844 5050 3700 
Q 5241 4019 5466 4469 
L 5784 4256 
Q 5497 3725 4991 3009 
Q 5356 3031 5547 3053 
Q 5466 3281 5381 3450 
L 5681 3553 
Q 5872 3181 6022 2669 
L 5709 2503 
Q 5697 2550 5663 2678 
Q 5641 2759 5631 2797 
Q 5019 2669 4434 2619 
L 4338 2975 
Q 4513 2975 4594 2981 
Q 4778 3256 4875 3413 
z
" transform="scale(0.015625)"/>
      <path id="IPAexGothic-68b0" d="M 4678 1275 
Q 4447 2122 4334 3547 
L 2344 3547 
L 2344 3956 
L 4300 3956 
Q 4247 4656 4231 5306 
L 4659 5306 
Q 4669 4741 4719 3981 
L 6044 3981 
L 6044 3572 
L 4750 3572 
L 4781 3284 
Q 4875 2322 4988 1806 
Q 5303 2409 5497 3100 
L 5894 2938 
Q 5572 1963 5134 1231 
Q 5247 834 5397 547 
Q 5513 322 5556 322 
Q 5656 322 5759 1225 
L 6131 941 
Q 5959 -350 5638 -350 
Q 5475 -350 5222 9 
Q 5006 319 4831 781 
Q 4278 41 3438 -478 
L 3150 -134 
Q 4069 381 4678 1275 
z
M 2778 2344 
L 2778 3216 
L 3169 3216 
L 3169 2344 
L 3572 2344 
L 3572 3216 
L 3963 3216 
L 3963 2344 
L 4384 2344 
L 4384 1966 
L 3963 1966 
L 3963 647 
L 3572 647 
L 3572 1966 
L 3169 1966 
Q 3156 1372 3097 1044 
Q 2991 463 2603 0 
L 2297 309 
Q 2778 856 2778 1966 
L 2344 1966 
L 2125 1634 
Q 1813 2106 1622 2338 
L 1622 -447 
L 1200 -447 
L 1200 2594 
Q 928 1569 450 794 
L 188 1256 
Q 850 2238 1147 3547 
L 322 3547 
L 322 3956 
L 1200 3956 
L 1200 5306 
L 1622 5306 
L 1622 3956 
L 2222 3956 
L 2222 3547 
L 1622 3547 
L 1622 2831 
Q 2053 2453 2344 2063 
L 2344 2344 
L 2778 2344 
z
M 5491 4141 
Q 5256 4613 4953 4991 
L 5319 5172 
Q 5603 4850 5869 4359 
L 5491 4141 
z
" transform="scale(0.015625)"/>
      <path id="IPAexGothic-5b66" d="M 1706 4050 
L 1688 4088 
Q 1525 4513 1244 4959 
L 1681 5150 
Q 1947 4791 2200 4216 
L 1763 4050 
L 3941 4050 
Q 4359 4628 4653 5234 
L 5138 5016 
Q 4822 4488 4472 4050 
L 5797 4050 
L 5797 2675 
L 5338 2675 
L 5338 3653 
L 1072 3653 
L 1072 2675 
L 613 2675 
L 613 4050 
L 1706 4050 
z
M 3444 1888 
L 3444 1650 
L 6078 1650 
L 6078 1241 
L 3475 1241 
L 3475 91 
Q 3475 -428 2834 -428 
Q 2319 -428 1875 -366 
L 1784 128 
Q 2278 25 2744 25 
Q 2994 25 2994 263 
L 2994 1241 
L 319 1241 
L 319 1650 
L 2969 1650 
L 2969 2113 
L 3000 2125 
Q 3559 2338 4116 2675 
L 1466 2675 
L 1466 3078 
L 4756 3078 
L 5019 2822 
Q 4338 2309 3444 1888 
z
M 3019 4072 
Q 2831 4609 2572 5044 
L 3006 5228 
Q 3275 4822 3500 4250 
L 3019 4072 
z
" transform="scale(0.015625)"/>
      <path id="IPAexGothic-7fd2" d="M 3006 5063 
L 3006 3047 
Q 3006 2781 2878 2675 
Q 2769 2584 2481 2584 
Q 2078 2584 1772 2631 
L 1716 3072 
Q 2159 2988 2347 2988 
Q 2566 2988 2566 3219 
L 2566 4678 
L 466 4678 
L 466 5063 
L 3006 5063 
z
M 5778 5063 
L 5778 3041 
Q 5778 2584 5288 2584 
Q 4916 2584 4519 2631 
L 4441 3066 
Q 4856 2988 5131 2988 
Q 5338 2988 5338 3206 
L 5338 4678 
L 3238 4678 
L 3238 5063 
L 5778 5063 
z
M 2866 2119 
Q 2950 2356 3013 2669 
L 3500 2572 
Q 3409 2322 3306 2119 
L 5325 2119 
L 5325 -447 
L 4856 -447 
L 4856 -172 
L 1619 -172 
L 1619 -447 
L 1150 -447 
L 1150 2119 
L 2866 2119 
z
M 1619 1747 
L 1619 1197 
L 4856 1197 
L 4856 1747 
L 1619 1747 
z
M 1619 831 
L 1619 206 
L 4856 206 
L 4856 831 
L 1619 831 
z
M 1594 3681 
Q 1219 4044 778 4341 
L 1056 4609 
Q 1525 4325 1869 3981 
L 1594 3681 
z
M 4269 3694 
Q 3816 4066 3403 4341 
L 3684 4622 
Q 4203 4294 4556 3994 
L 4269 3694 
z
M 447 2950 
Q 1328 3347 2225 3969 
L 2353 3622 
Q 1581 3056 691 2606 
L 447 2950 
z
M 3231 3059 
Q 4138 3444 4978 4031 
L 5113 3675 
Q 4281 3066 3463 2700 
L 3231 3059 
z
" transform="scale(0.015625)"/>
      <path id="IPAexGothic-7279" d="M 1025 3950 
L 1434 3950 
L 1434 5313 
L 1875 5313 
L 1875 3950 
L 2534 3950 
L 2534 3547 
L 1875 3547 
L 1875 2216 
Q 2084 2313 2494 2516 
L 2547 2106 
Q 2281 1963 1856 1750 
L 1856 -447 
L 1416 -447 
L 1416 1538 
Q 1028 1359 538 1153 
L 313 1581 
Q 778 1744 1434 2019 
L 1434 3547 
L 947 3547 
Q 828 3013 647 2556 
L 275 2803 
Q 584 3600 691 4744 
L 1131 4688 
Q 1091 4291 1025 3950 
z
M 3872 4372 
L 3872 5313 
L 4313 5313 
L 4313 4372 
L 5738 4372 
L 5738 3981 
L 4313 3981 
L 4313 3200 
L 6072 3200 
L 6072 2803 
L 5106 2803 
L 5106 2047 
L 5956 2047 
L 5956 1650 
L 5125 1650 
L 5125 38 
Q 5125 -447 4594 -447 
Q 4288 -447 3788 -391 
L 3691 78 
Q 4181 0 4491 0 
Q 4684 0 4684 172 
L 4684 1650 
L 2609 1650 
L 2609 2047 
L 4666 2047 
L 4666 2803 
L 2400 2803 
L 2400 3200 
L 3872 3200 
L 3872 3981 
L 2653 3981 
L 2653 4372 
L 3872 4372 
z
M 3550 384 
Q 3216 959 2834 1331 
L 3172 1575 
Q 3641 1116 3916 672 
L 3550 384 
z
" transform="scale(0.015625)"/>
      <path id="IPAexGothic-5fb4" d="M 5656 3775 
L 5656 3697 
Q 5597 2178 5228 1188 
Q 5678 478 6181 31 
L 5900 -419 
Q 5375 125 5016 741 
Q 4591 -3 3941 -500 
L 3616 -138 
Q 4372 331 4788 1163 
Q 4441 1838 4269 2759 
Q 4131 2388 3953 2078 
L 3697 2413 
L 3072 2413 
L 3072 1784 
L 3788 1784 
L 3788 1425 
L 3072 1425 
L 3072 747 
Q 3600 866 4063 1003 
L 4081 625 
Q 3147 297 1784 25 
L 1631 459 
Q 2194 553 2656 650 
L 2656 1425 
L 1856 1425 
L 1856 1784 
L 2656 1784 
L 2656 2413 
L 1663 2413 
L 1663 2784 
L 3838 2784 
Q 4222 3697 4422 5259 
L 4844 5197 
Q 4775 4688 4672 4178 
L 6059 4178 
L 6059 3775 
L 5656 3775 
z
M 5253 3775 
L 4575 3775 
Q 4516 3525 4497 3463 
L 4509 3391 
Q 4638 2475 4966 1700 
Q 5188 2516 5253 3775 
z
M 1372 2950 
L 1372 -447 
L 950 -447 
L 950 2328 
Q 728 2038 419 1716 
L 194 2088 
Q 944 2819 1453 3981 
L 1825 3803 
Q 1631 3384 1372 2950 
z
M 3088 3700 
L 3484 3700 
L 3484 4819 
L 3875 4819 
L 3875 3334 
L 1916 3334 
L 1916 4819 
L 2306 4819 
L 2306 3700 
L 2684 3700 
L 2684 5313 
L 3088 5313 
L 3088 3700 
z
M 256 3884 
Q 916 4419 1350 5203 
L 1716 5013 
Q 1300 4234 513 3547 
L 256 3884 
z
" transform="scale(0.015625)"/>
      <path id="IPAexGothic-3068" d="M 5222 56 
Q 4200 -72 3450 -72 
Q 2478 -72 1941 113 
Q 1184 372 1184 1038 
Q 1184 1584 1594 2009 
Q 1941 2369 2656 2725 
Q 2231 3734 1972 4878 
L 2491 4978 
Q 2706 3884 3078 2950 
Q 4250 3447 4756 3616 
L 4978 3150 
Q 3181 2575 2409 2078 
Q 1691 1613 1691 1113 
Q 1691 403 3322 403 
Q 4125 403 5134 563 
L 5222 56 
z
" transform="scale(0.015625)"/>
      <path id="IPAexGothic-3057" d="M 1750 4884 
L 2281 4884 
L 2238 1319 
Q 2228 809 2391 569 
Q 2594 281 3128 281 
Q 3772 281 4344 744 
Q 4822 1131 5156 1759 
L 5534 1369 
Q 5094 653 4534 263 
Q 3878 -206 3134 -206 
Q 2341 -206 1994 213 
Q 1697 575 1706 1269 
L 1750 4884 
z
" transform="scale(0.015625)"/>
      <path id="IPAexGothic-3066" d="M 581 4034 
Q 2978 4363 5466 4556 
L 5509 4097 
Q 4388 4031 3750 3572 
Q 2797 2878 2797 1913 
Q 2797 1169 3291 819 
Q 3778 484 4869 416 
L 4906 -116 
Q 2278 0 2278 1850 
Q 2278 3125 3691 4000 
Q 2066 3784 684 3553 
L 581 4034 
z
" transform="scale(0.015625)"/>
      <path id="IPAexGothic-4f7f" d="M 3700 3547 
L 3700 4103 
L 1894 4103 
L 1894 4500 
L 3700 4500 
L 3700 5306 
L 4141 5306 
L 4141 4500 
L 5981 4500 
L 5981 4103 
L 4141 4103 
L 4141 3547 
L 5638 3547 
L 5638 1484 
L 5209 1484 
L 5209 1809 
L 4134 1809 
Q 4106 1163 3922 741 
Q 4784 241 6103 19 
L 5816 -419 
Q 4619 -150 3713 394 
Q 3238 -234 2059 -541 
L 1772 -138 
Q 2941 75 3366 625 
Q 2925 963 2563 1322 
L 2884 1566 
Q 3213 1228 3553 978 
Q 3684 1363 3694 1809 
L 2634 1809 
L 2634 1484 
L 2206 1484 
L 2206 3547 
L 3700 3547 
z
M 3700 3163 
L 2634 3163 
L 2634 2194 
L 3700 2194 
L 3700 3163 
z
M 4141 3163 
L 4141 2194 
L 5209 2194 
L 5209 3163 
L 4141 3163 
z
M 1509 3769 
L 1509 -447 
L 1069 -447 
L 1069 2822 
Q 813 2363 531 1972 
L 288 2363 
Q 1147 3628 1528 5331 
L 1975 5222 
Q 1747 4356 1509 3769 
z
" transform="scale(0.015625)"/>
      <path id="IPAexGothic-3048" d="M 3797 4038 
Q 3144 4428 2013 4709 
L 2266 5106 
Q 3388 4838 4078 4469 
L 3797 4038 
z
M 1263 3347 
Q 2566 3428 3956 3641 
L 4291 3263 
Q 3759 2741 2875 1778 
Q 3156 1881 3356 1881 
Q 3909 1881 3919 1253 
L 3931 709 
Q 3941 456 4116 409 
Q 4244 372 4519 372 
Q 4944 372 5538 481 
L 5581 -31 
Q 5097 -103 4675 -103 
Q 4047 -103 3791 25 
Q 3484 178 3463 594 
L 3444 1094 
Q 3434 1491 3150 1491 
Q 2800 1491 2322 1072 
Q 1950 747 1109 -184 
L 738 166 
Q 2053 1434 3597 3181 
Q 2600 2988 1391 2841 
L 1263 3347 
z
" transform="scale(0.015625)"/>
      <path id="IPAexGothic-ff01" d="M 2828 5081 
L 3572 5081 
L 3456 1228 
L 2944 1228 
L 2828 5081 
z
M 2828 647 
L 3572 647 
L 3572 -97 
L 2828 -97 
L 2828 647 
z
" transform="scale(0.015625)"/>
     </defs>
     <use xlink:href="#IPAexGothic-753b"/>
     <use xlink:href="#IPAexGothic-50cf" x="100"/>
     <use xlink:href="#IPAexGothic-20" x="200"/>
     <use xlink:href="#IPAexGothic-ff1d" x="227.001953"/>
     <use xlink:href="#IPAexGothic-20" x="327.001953"/>
     <use xlink:href="#IPAexGothic-6570" x="354.003906"/>
     <use xlink:href="#IPAexGothic-5024" x="454.003906"/>
     <use xlink:href="#IPAexGothic-20" x="554.003906"/>
     <use xlink:href="#IPAexGothic-2192" x="581.005859"/>
     <use xlink:href="#IPAexGothic-20" x="681.005859"/>
     <use xlink:href="#IPAexGothic-7d71" x="708.007812"/>
     <use xlink:href="#IPAexGothic-8a08" x="808.007812"/>
     <use xlink:href="#IPAexGothic-91cf" x="908.007812"/>
     <use xlink:href="#IPAexGothic-3092" x="1008.007812"/>
     <use xlink:href="#IPAexGothic-8a08" x="1108.007812"/>
     <use xlink:href="#IPAexGothic-7b97" x="1208.007812"/>
     <use xlink:href="#IPAexGothic-3067" x="1308.007812"/>
     <use xlink:href="#IPAexGothic-304d" x="1408.007812"/>
     <use xlink:href="#IPAexGothic-308b" x="1508.007812"/>
     <use xlink:href="#IPAexGothic-20" x="1608.007812"/>
     <use xlink:href="#IPAexGothic-2192" x="1635.009766"/>
     <use xlink:href="#IPAexGothic-20" x="1735.009766"/>
     <use xlink:href="#IPAexGothic-6a5f" x="1762.011719"/>
     <use xlink:href="#IPAexGothic-68b0" x="1862.011719"/>
     <use xlink:href="#IPAexGothic-5b66" x="1962.011719"/>
     <use xlink:href="#IPAexGothic-7fd2" x="2062.011719"/>
     <use xlink:href="#IPAexGothic-306e" x="2162.011719"/>
     <use xlink:href="#IPAexGothic-7279" x="2262.011719"/>
     <use xlink:href="#IPAexGothic-5fb4" x="2362.011719"/>
     <use xlink:href="#IPAexGothic-91cf" x="2462.011719"/>
     <use xlink:href="#IPAexGothic-3068" x="2562.011719"/>
     <use xlink:href="#IPAexGothic-3057" x="2662.011719"/>
     <use xlink:href="#IPAexGothic-3066" x="2762.011719"/>
     <use xlink:href="#IPAexGothic-4f7f" x="2862.011719"/>
     <use xlink:href="#IPAexGothic-3048" x="2962.011719"/>
     <use xlink:href="#IPAexGothic-308b" x="3062.011719"/>
     <use xlink:href="#IPAexGothic-ff01" x="3162.011719"/>
    </g>
   </g>
   <g id="text_4">
    <!-- ▸ -->
    <g style="fill: #e8a838" transform="translate(33.12 110.995) scale(0.095 -0.095)">
     <defs>
      <path id="IPAexGothic-25b8" d="M 5759 -641 
L 641 -641 
L 641 5503 
L 5759 5503 
L 5759 -641 
z
M 5216 5172 
L 1191 5172 
L 3206 2694 
L 5216 5172 
z
M 5428 -53 
L 5428 4903 
L 3419 2425 
L 5428 -53 
z
M 2988 2425 
L 972 4916 
L 972 -59 
L 2988 2425 
z
M 5209 -309 
L 3206 2163 
L 1197 -309 
L 5209 -309 
z
" transform="scale(0.015625)"/>
     </defs>
     <use xlink:href="#IPAexGothic-25b8"/>
    </g>
   </g>
   <g id="text_5">
    <!-- 平均ピクセル値 → 画像の「明るさ」を数値化 -->
    <g style="fill: #2c3e50" transform="translate(46.08 112.726875) scale(0.14 -0.14)">
     <defs>
      <path id="IPAexGothic-5e73" d="M 3422 4428 
L 3422 1941 
L 6084 1941 
L 6084 1513 
L 3422 1513 
L 3422 -447 
L 2934 -447 
L 2934 1513 
L 322 1513 
L 322 1941 
L 2934 1941 
L 2934 4428 
L 641 4428 
L 641 4856 
L 5763 4856 
L 5763 4428 
L 3422 4428 
z
M 1728 2278 
Q 1488 3094 1081 3859 
L 1544 4038 
Q 1875 3422 2222 2472 
L 1728 2278 
z
M 4134 2425 
Q 4509 3138 4813 4128 
L 5306 3944 
Q 4984 3006 4569 2228 
L 4134 2425 
z
" transform="scale(0.015625)"/>
      <path id="IPAexGothic-5747" d="M 1206 3794 
L 1206 5144 
L 1659 5144 
L 1659 3794 
L 2369 3794 
L 2369 3372 
L 1659 3372 
L 1659 1325 
Q 2078 1513 2484 1722 
L 2566 1313 
Q 1556 775 559 397 
L 334 838 
Q 803 975 1206 1138 
L 1206 3372 
L 413 3372 
L 413 3794 
L 1206 3794 
z
M 3475 4244 
L 5844 4244 
Q 5834 1131 5619 184 
Q 5494 -366 4838 -366 
Q 4369 -366 3859 -306 
L 3769 184 
Q 4241 88 4731 88 
Q 5059 88 5147 306 
Q 5359 919 5369 3828 
L 3316 3828 
Q 3013 3119 2466 2472 
L 2150 2828 
Q 2944 3788 3259 5263 
L 3719 5147 
Q 3619 4663 3475 4244 
z
M 2975 2847 
L 4678 2847 
L 4678 2431 
L 2975 2431 
L 2975 2847 
z
M 2559 1044 
Q 3747 1338 4838 1797 
L 4891 1388 
Q 3831 891 2766 588 
L 2559 1044 
z
" transform="scale(0.015625)"/>
      <path id="IPAexGothic-30d4" d="M 1331 4756 
L 1856 4756 
L 1856 2759 
Q 3528 3134 4722 3872 
L 5106 3456 
Q 3619 2663 1856 2278 
L 1856 1044 
Q 1856 725 2047 650 
Q 2241 566 3138 566 
Q 4141 566 5369 697 
L 5369 184 
Q 4231 78 3238 78 
Q 1913 78 1619 275 
Q 1331 459 1331 947 
L 1331 4756 
z
M 5478 5222 
Q 5788 5222 5997 4988 
Q 6181 4788 6181 4519 
Q 6181 4206 5947 3994 
Q 5747 3809 5478 3809 
Q 5166 3809 4953 4044 
Q 4769 4247 4769 4519 
Q 4769 4828 5003 5041 
Q 5206 5222 5478 5222 
z
M 5478 4941 
Q 5288 4941 5159 4800 
Q 5050 4678 5050 4519 
Q 5050 4328 5191 4200 
Q 5313 4091 5478 4091 
Q 5663 4091 5791 4231 
Q 5900 4353 5900 4519 
Q 5900 4703 5759 4831 
Q 5638 4941 5478 4941 
z
" transform="scale(0.015625)"/>
      <path id="IPAexGothic-30af" d="M 4934 4191 
L 5272 3941 
Q 4894 2334 4031 1300 
Q 3275 391 2028 -225 
L 1656 184 
Q 2875 691 3641 1625 
Q 4403 2553 4691 3731 
L 2903 3731 
Q 2188 2653 1356 1959 
L 978 2309 
Q 2328 3400 2931 5022 
L 3422 4881 
Q 3363 4672 3141 4191 
L 4934 4191 
z
" transform="scale(0.015625)"/>
      <path id="IPAexGothic-30bb" d="M 2059 4878 
L 2584 4878 
L 2584 3397 
L 5291 3731 
L 5606 3444 
Q 4838 2313 4006 1556 
L 3569 1875 
Q 4297 2459 4844 3231 
L 2584 2931 
L 2584 978 
Q 2584 734 2738 669 
Q 2922 584 3616 584 
Q 4419 584 5425 697 
L 5444 172 
Q 4563 103 3844 103 
Q 2678 103 2359 256 
Q 2059 403 2059 863 
L 2059 2859 
L 638 2675 
L 588 3150 
L 2059 3334 
L 2059 4878 
z
" transform="scale(0.015625)"/>
      <path id="IPAexGothic-30eb" d="M 353 331 
Q 1313 994 1544 2022 
Q 1684 2650 1684 4397 
L 2203 4397 
L 2203 4153 
L 2203 4116 
Q 2203 2259 1934 1491 
Q 1619 588 744 -38 
L 353 331 
z
M 3125 4666 
L 3650 4666 
L 3650 769 
Q 4875 1488 5672 2734 
L 6000 2278 
Q 5075 966 3516 63 
L 3125 359 
L 3125 4666 
z
" transform="scale(0.015625)"/>
      <path id="IPAexGothic-300c" d="M 4134 5300 
L 5875 5300 
L 5875 4853 
L 4581 4853 
L 4581 656 
L 4134 656 
L 4134 5300 
z
" transform="scale(0.015625)"/>
      <path id="IPAexGothic-660e" d="M 3753 1684 
Q 3675 378 2716 -488 
L 2359 -147 
Q 3325 609 3325 2031 
L 3325 4984 
L 5722 4984 
L 5722 103 
Q 5722 -391 5172 -391 
Q 4753 -391 4328 -347 
L 4266 141 
Q 4700 69 5031 69 
Q 5281 69 5281 322 
L 5281 1684 
L 3753 1684 
z
M 3766 2075 
L 5281 2075 
L 5281 3150 
L 3766 3150 
L 3766 2075 
z
M 3766 3547 
L 5281 3547 
L 5281 4575 
L 3766 4575 
L 3766 3547 
z
M 2681 4813 
L 2681 1063 
L 1050 1063 
L 1050 634 
L 609 634 
L 609 4813 
L 2681 4813 
z
M 1050 4422 
L 1050 3181 
L 2241 3181 
L 2241 4422 
L 1050 4422 
z
M 1050 2797 
L 1050 1459 
L 2241 1459 
L 2241 2797 
L 1050 2797 
z
" transform="scale(0.015625)"/>
      <path id="IPAexGothic-3055" d="M 1747 1184 
Q 1747 834 2094 609 
Q 2422 391 3706 391 
Q 4088 391 4422 434 
L 4478 -50 
Q 4116 -84 3853 -84 
Q 3000 -84 2544 -13 
Q 2044 69 1759 263 
Q 1272 597 1272 1125 
Q 1272 1638 1728 1953 
Q 2163 2253 2884 2253 
Q 3741 2253 4300 2003 
Q 3797 2556 3322 3438 
Q 2128 3219 1113 3219 
L 966 3694 
Q 1150 3688 1388 3688 
Q 2291 3688 3128 3847 
Q 2919 4253 2597 4953 
L 3059 5081 
Q 3347 4384 3591 3950 
Q 4375 4147 5028 4481 
L 5297 4056 
Q 4653 3763 3775 3547 
Q 4309 2597 5069 1703 
L 4672 1363 
Q 3994 1838 2872 1838 
Q 2278 1838 1984 1628 
Q 1747 1459 1747 1184 
z
" transform="scale(0.015625)"/>
      <path id="IPAexGothic-300d" d="M 1819 4209 
L 2266 4209 
L 2266 -434 
L 525 -434 
L 525 13 
L 1819 13 
L 1819 4209 
z
" transform="scale(0.015625)"/>
      <path id="IPAexGothic-5316" d="M 1831 3700 
L 1831 -341 
L 1356 -341 
L 1356 2772 
Q 1069 2275 678 1772 
L 378 2138 
Q 1319 3278 1856 5166 
L 2319 5013 
Q 2100 4319 1831 3700 
z
M 3425 2906 
Q 4528 3350 5306 3969 
L 5703 3616 
Q 4728 2919 3425 2444 
L 3425 575 
Q 3425 353 3584 306 
Q 3738 263 4334 263 
Q 5072 263 5250 347 
Q 5384 403 5422 594 
Q 5475 872 5506 1497 
L 5978 1331 
Q 5931 319 5775 106 
Q 5641 -75 5331 -141 
Q 5041 -206 4244 -206 
Q 3438 -206 3181 -78 
Q 2931 47 2931 384 
L 2931 5113 
L 3425 5113 
L 3425 2906 
z
" transform="scale(0.015625)"/>
     </defs>
     <use xlink:href="#IPAexGothic-5e73"/>
     <use xlink:href="#IPAexGothic-5747" x="100"/>
     <use xlink:href="#IPAexGothic-30d4" x="200"/>
     <use xlink:href="#IPAexGothic-30af" x="300"/>
     <use xlink:href="#IPAexGothic-30bb" x="400"/>
     <use xlink:href="#IPAexGothic-30eb" x="500"/>
     <use xlink:href="#IPAexGothic-5024" x="600"/>
     <use xlink:href="#IPAexGothic-20" x="700"/>
     <use xlink:href="#IPAexGothic-2192" x="727.001953"/>
     <use xlink:href="#IPAexGothic-20" x="827.001953"/>
     <use xlink:href="#IPAexGothic-753b" x="854.003906"/>
     <use xlink:href="#IPAexGothic-50cf" x="954.003906"/>
     <use xlink:href="#IPAexGothic-306e" x="1054.003906"/>
     <use xlink:href="#IPAexGothic-300c" x="1154.003906"/>
     <use xlink:href="#IPAexGothic-660e" x="1254.003906"/>
     <use xlink:href="#IPAexGothic-308b" x="1354.003906"/>
     <use xlink:href="#IPAexGothic-3055" x="1454.003906"/>
     <use xlink:href="#IPAexGothic-300d" x="1554.003906"/>
     <use xlink:href="#IPAexGothic-3092" x="1654.003906"/>
     <use xlink:href="#IPAexGothic-6570" x="1754.003906"/>
     <use xlink:href="#IPAexGothic-5024" x="1854.003906"/>
     <use xlink:href="#IPAexGothic-5316" x="1954.003906"/>
    </g>
   </g>
   <g id="text_6">
    <!-- ▸ -->
    <g style="fill: #e8a838" transform="translate(33.12 135.475) scale(0.095 -0.095)">
     <use xlink:href="#IPAexGothic-25b8"/>
    </g>
   </g>
   <g id="text_7">
    <!-- 標準偏差 → 明暗のばらつき（コントラスト） -->
    <g style="fill: #2c3e50" transform="translate(46.08 137.206875) scale(0.14 -0.14)">
     <defs>
      <path id="IPAexGothic-6a19" d="M 1113 2534 
Q 813 1522 384 794 
L 153 1250 
Q 763 2228 1063 3547 
L 294 3547 
L 294 3956 
L 1113 3956 
L 1113 5306 
L 1522 5306 
L 1522 3956 
L 2144 3956 
L 2144 3547 
L 1522 3547 
L 1522 3009 
Q 1991 2634 2309 2288 
L 2059 1844 
Q 1813 2222 1522 2550 
L 1522 -447 
L 1113 -447 
L 1113 2534 
z
M 3353 4109 
L 3353 4641 
L 2100 4641 
L 2100 5019 
L 5997 5019 
L 5997 4641 
L 4753 4641 
L 4753 4109 
L 5778 4109 
L 5778 2769 
L 2356 2769 
L 2356 4109 
L 3353 4109 
z
M 3756 4109 
L 4350 4109 
L 4350 4641 
L 3756 4641 
L 3756 4109 
z
M 3359 3756 
L 2772 3756 
L 2772 3122 
L 3359 3122 
L 3359 3756 
z
M 3756 3756 
L 3756 3122 
L 4350 3122 
L 4350 3756 
L 3756 3756 
z
M 4741 3756 
L 4741 3122 
L 5363 3122 
L 5363 3756 
L 4741 3756 
z
M 4300 1191 
L 4300 19 
Q 4300 -409 3809 -409 
Q 3469 -409 3175 -372 
L 3097 78 
Q 3416 0 3675 0 
Q 3866 0 3866 184 
L 3866 1191 
L 2100 1191 
L 2100 1563 
L 6072 1563 
L 6072 1191 
L 4300 1191 
z
M 2481 2350 
L 5669 2350 
L 5669 1984 
L 2481 1984 
L 2481 2350 
z
M 1938 13 
Q 2534 406 2938 1069 
L 3322 891 
Q 2903 150 2272 -306 
L 1938 13 
z
M 5722 -191 
Q 5166 459 4666 838 
L 4978 1088 
Q 5572 681 6094 134 
L 5722 -191 
z
" transform="scale(0.015625)"/>
      <path id="IPAexGothic-6e96" d="M 4341 4141 
L 4341 3694 
L 5506 3694 
L 5506 3353 
L 4341 3353 
L 4341 2906 
L 5506 2906 
L 5506 2566 
L 4341 2566 
L 4341 2088 
L 5922 2088 
L 5922 1722 
L 3413 1722 
L 3413 1100 
L 6081 1100 
L 6081 703 
L 3413 703 
L 3413 -450 
L 2938 -450 
L 2938 703 
L 319 703 
L 319 1100 
L 2938 1100 
L 2938 1722 
L 2450 1722 
L 2450 3644 
Q 2288 3441 2047 3188 
L 1759 3528 
Q 2531 4259 2841 5288 
L 3297 5166 
Q 3156 4800 3003 4500 
L 3969 4500 
Q 4163 4869 4284 5269 
L 4756 5159 
Q 4572 4759 4409 4500 
L 5794 4500 
L 5794 4141 
L 4341 4141 
z
M 3931 4141 
L 2878 4141 
L 2878 3694 
L 3931 3694 
L 3931 4141 
z
M 2878 2088 
L 3931 2088 
L 3931 2566 
L 2878 2566 
L 2878 2088 
z
M 2878 2906 
L 3931 2906 
L 3931 3353 
L 2878 3353 
L 2878 2906 
z
M 497 1778 
Q 1053 2316 1625 3178 
L 1913 2897 
Q 1484 2128 875 1431 
L 497 1778 
z
M 1559 4134 
Q 1109 4519 678 4769 
L 941 5131 
Q 1494 4831 1834 4519 
L 1559 4134 
z
M 1297 3141 
Q 997 3388 397 3763 
L 631 4122 
Q 1153 3847 1547 3538 
L 1297 3141 
z
" transform="scale(0.015625)"/>
      <path id="IPAexGothic-504f" d="M 1503 3653 
L 1503 -447 
L 1063 -447 
L 1063 2700 
Q 816 2247 538 1863 
L 288 2253 
Q 1175 3556 1528 5325 
L 1963 5222 
Q 1800 4438 1503 3653 
z
M 5681 4116 
L 5681 2859 
L 2616 2859 
L 2616 2769 
Q 2616 2603 2609 2406 
L 5863 2406 
L 5863 13 
Q 5863 -213 5772 -300 
Q 5688 -384 5466 -384 
Q 5281 -384 5138 -359 
L 5081 72 
Q 5216 31 5338 31 
Q 5447 31 5447 191 
L 5447 916 
L 4856 916 
L 4856 -281 
L 4459 -281 
L 4459 916 
L 3922 916 
L 3922 -281 
L 3525 -281 
L 3525 916 
L 2988 916 
L 2988 -447 
L 2578 -447 
L 2578 1997 
L 2566 1997 
Q 2441 594 1881 -347 
L 1591 31 
Q 1981 672 2097 1466 
Q 2188 2072 2188 2950 
L 2188 4116 
L 5681 4116 
z
M 5253 3763 
L 2616 3763 
L 2616 3213 
L 5253 3213 
L 5253 3763 
z
M 2988 2053 
L 2988 1253 
L 3525 1253 
L 3525 2053 
L 2988 2053 
z
M 5447 1253 
L 5447 2053 
L 4856 2053 
L 4856 1253 
L 5447 1253 
z
M 3922 2053 
L 3922 1253 
L 4459 1253 
L 4459 2053 
L 3922 2053 
z
M 1997 4966 
L 5978 4966 
L 5978 4594 
L 1997 4594 
L 1997 4966 
z
" transform="scale(0.015625)"/>
      <path id="IPAexGothic-5dee" d="M 2188 4481 
Q 2013 4781 1766 5084 
L 2194 5275 
Q 2459 4913 2669 4481 
L 3659 4481 
Q 3931 4881 4100 5294 
L 4575 5122 
Q 4353 4766 4150 4481 
L 5725 4481 
L 5725 4103 
L 3403 4103 
L 3403 3519 
L 5431 3519 
L 5431 3147 
L 3403 3147 
L 3403 2534 
L 5975 2534 
L 5975 2138 
L 2341 2138 
Q 2225 1813 2041 1466 
L 5431 1466 
L 5431 1081 
L 3813 1081 
L 3813 103 
L 5913 103 
L 5913 -294 
L 1338 -294 
L 1338 103 
L 3344 103 
L 3344 1081 
L 1803 1081 
Q 1331 400 588 -172 
L 281 200 
Q 1394 966 1875 2138 
L 416 2138 
L 416 2534 
L 2950 2534 
L 2950 3147 
L 959 3147 
L 959 3519 
L 2950 3519 
L 2950 4103 
L 666 4103 
L 666 4481 
L 2188 4481 
z
" transform="scale(0.015625)"/>
      <path id="IPAexGothic-6697" d="M 2166 4728 
L 2166 544 
L 891 544 
L 891 31 
L 488 31 
L 488 4728 
L 2166 4728 
z
M 891 4331 
L 891 2875 
L 1756 2875 
L 1756 4331 
L 891 4331 
z
M 891 2491 
L 891 934 
L 1756 934 
L 1756 2491 
L 891 2491 
z
M 4341 4500 
L 5794 4500 
L 5794 4128 
L 5184 4128 
Q 5053 3584 4866 3138 
L 6044 3138 
L 6044 2759 
L 2319 2759 
L 2319 3138 
L 3369 3138 
Q 3244 3719 3081 4128 
L 2538 4128 
L 2538 4500 
L 3894 4500 
L 3894 5313 
L 4341 5313 
L 4341 4500 
z
M 3522 4128 
Q 3666 3738 3803 3138 
L 4444 3138 
Q 4597 3541 4738 4128 
L 3522 4128 
z
M 5466 2284 
L 5466 -447 
L 5038 -447 
L 5038 -153 
L 3284 -153 
L 3284 -459 
L 2856 -459 
L 2856 2284 
L 5466 2284 
z
M 3284 1913 
L 3284 1281 
L 5038 1281 
L 5038 1913 
L 3284 1913 
z
M 3284 922 
L 3284 219 
L 5038 219 
L 5038 922 
L 3284 922 
z
" transform="scale(0.015625)"/>
      <path id="IPAexGothic-3070" d="M 5294 4134 
Q 5066 4672 4775 5025 
L 5122 5203 
Q 5403 4881 5659 4341 
L 5294 4134 
z
M 5928 4481 
Q 5678 4991 5391 5313 
L 5722 5503 
Q 5978 5231 6278 4697 
L 5928 4481 
z
M 4028 4831 
L 4500 4831 
L 4519 3725 
Q 4966 3772 5544 3897 
L 5581 3422 
Q 5219 3350 4525 3275 
L 4559 1394 
Q 5063 1238 5897 709 
L 5619 269 
Q 5031 728 4572 934 
Q 4572 397 4347 181 
Q 4091 -56 3597 -56 
Q 2953 -56 2631 188 
Q 2350 400 2350 788 
Q 2350 1181 2734 1441 
Q 3013 1625 3497 1625 
Q 3722 1625 4097 1547 
L 4059 3244 
Q 3659 3225 3322 3225 
Q 2881 3225 2447 3256 
L 2428 3716 
Q 2909 3672 3419 3672 
Q 3709 3672 4053 3691 
L 4028 4831 
z
M 4103 1106 
Q 3716 1216 3475 1216 
Q 2803 1216 2803 806 
Q 2803 378 3597 378 
Q 3850 378 3984 525 
Q 4103 656 4103 878 
Q 4103 1044 4103 1106 
z
M 963 -97 
Q 756 1025 756 1888 
Q 756 3109 1209 4838 
L 1691 4716 
Q 1231 2997 1231 1856 
Q 1231 1522 1269 1063 
Q 1553 1663 1716 1953 
L 2038 1759 
Q 1447 669 1447 97 
Q 1447 25 1453 -44 
L 963 -97 
z
" transform="scale(0.015625)"/>
      <path id="IPAexGothic-3089" d="M 3700 3928 
Q 2897 4478 2156 4750 
L 2381 5166 
Q 3147 4891 3956 4384 
L 3700 3928 
z
M 1344 1281 
Q 1450 2544 1747 4038 
L 2234 3928 
Q 1994 2856 1888 1844 
Q 2897 2688 3963 2688 
Q 4531 2688 4909 2450 
Q 5441 2122 5441 1516 
Q 5441 669 4569 213 
Q 3856 -169 2584 -238 
L 2363 250 
Q 3484 250 4213 588 
Q 4909 922 4909 1509 
Q 4909 1856 4647 2059 
Q 4366 2266 3897 2266 
Q 2853 2266 1766 1141 
L 1344 1281 
z
" transform="scale(0.015625)"/>
      <path id="IPAexGothic-3064" d="M 575 3541 
Q 2694 4116 3769 4116 
Q 4506 4116 4978 3750 
Q 5559 3303 5559 2497 
Q 5559 1481 4606 903 
Q 3750 388 2213 281 
L 1963 781 
Q 5022 916 5022 2497 
Q 5022 3053 4663 3375 
Q 4331 3669 3734 3669 
Q 2663 3669 800 3041 
L 575 3541 
z
" transform="scale(0.015625)"/>
      <path id="IPAexGothic-ff08" d="M 5419 -434 
Q 4197 769 4197 2438 
Q 4197 4097 5419 5300 
L 5919 5300 
Q 4678 4078 4678 2425 
Q 4678 788 5919 -434 
L 5419 -434 
z
" transform="scale(0.015625)"/>
      <path id="IPAexGothic-30b3" d="M 1134 4213 
L 5166 4213 
L 5166 153 
L 4653 153 
L 4653 594 
L 1063 594 
L 1063 1088 
L 4653 1088 
L 4653 3725 
L 1134 3725 
L 1134 4213 
z
" transform="scale(0.015625)"/>
      <path id="IPAexGothic-30f3" d="M 2444 3084 
Q 1816 3656 1056 4084 
L 1381 4519 
Q 2063 4191 2816 3559 
L 2444 3084 
z
M 1100 609 
Q 3984 1106 5216 3828 
L 5619 3469 
Q 4413 794 1434 103 
L 1100 609 
z
" transform="scale(0.015625)"/>
      <path id="IPAexGothic-30c8" d="M 2284 4997 
L 2803 4997 
L 2803 3206 
Q 4088 2619 5216 1888 
L 4878 1369 
Q 3819 2175 2803 2688 
L 2803 -184 
L 2284 -184 
L 2284 4997 
z
" transform="scale(0.015625)"/>
      <path id="IPAexGothic-30e9" d="M 1447 4709 
L 4922 4709 
L 4922 4234 
L 1447 4234 
L 1447 4709 
z
M 897 3303 
L 5172 3303 
L 5478 3013 
Q 5069 1669 4219 875 
Q 3475 181 2306 -181 
L 1972 294 
Q 4150 784 4834 2828 
L 897 2828 
L 897 3303 
z
" transform="scale(0.015625)"/>
      <path id="IPAexGothic-30b9" d="M 4359 4481 
L 4716 4147 
Q 4328 3072 3647 2150 
Q 4659 1434 5659 453 
L 5234 19 
Q 4256 1088 3353 1778 
Q 2372 597 1044 -31 
L 653 403 
Q 3128 1453 4097 4000 
L 1241 3963 
L 1228 4453 
L 4359 4481 
z
" transform="scale(0.015625)"/>
      <path id="IPAexGothic-ff09" d="M 481 -434 
Q 1722 788 1722 2431 
Q 1722 4066 481 5300 
L 981 5300 
Q 2203 4097 2203 2431 
Q 2203 769 981 -434 
L 481 -434 
z
" transform="scale(0.015625)"/>
     </defs>
     <use xlink:href="#IPAexGothic-6a19"/>
     <use xlink:href="#IPAexGothic-6e96" x="100"/>
     <use xlink:href="#IPAexGothic-504f" x="200"/>
     <use xlink:href="#IPAexGothic-5dee" x="300"/>
     <use xlink:href="#IPAexGothic-20" x="400"/>
     <use xlink:href="#IPAexGothic-2192" x="427.001953"/>
     <use xlink:href="#IPAexGothic-20" x="527.001953"/>
     <use xlink:href="#IPAexGothic-660e" x="554.003906"/>
     <use xlink:href="#IPAexGothic-6697" x="654.003906"/>
     <use xlink:href="#IPAexGothic-306e" x="754.003906"/>
     <use xlink:href="#IPAexGothic-3070" x="854.003906"/>
     <use xlink:href="#IPAexGothic-3089" x="954.003906"/>
     <use xlink:href="#IPAexGothic-3064" x="1054.003906"/>
     <use xlink:href="#IPAexGothic-304d" x="1154.003906"/>
     <use xlink:href="#IPAexGothic-ff08" x="1254.003906"/>
     <use xlink:href="#IPAexGothic-30b3" x="1354.003906"/>
     <use xlink:href="#IPAexGothic-30f3" x="1454.003906"/>
     <use xlink:href="#IPAexGothic-30c8" x="1554.003906"/>
     <use xlink:href="#IPAexGothic-30e9" x="1654.003906"/>
     <use xlink:href="#IPAexGothic-30b9" x="1754.003906"/>
     <use xlink:href="#IPAexGothic-30c8" x="1854.003906"/>
     <use xlink:href="#IPAexGothic-ff09" x="1954.003906"/>
    </g>
   </g>
   <g id="text_8">
    <!-- ▸ -->
    <g style="fill: #e8a838" transform="translate(33.12 159.955) scale(0.095 -0.095)">
     <use xlink:href="#IPAexGothic-25b8"/>
    </g>
   </g>
   <g id="text_9">
    <!-- 最大・最小 → 最も明るい/暗い箇所 -->
    <g style="fill: #2c3e50" transform="translate(46.08 162.19) scale(0.14 -0.14)">
     <defs>
      <path id="IPAexGothic-6700" d="M 5106 5050 
L 5106 3275 
L 1284 3275 
L 1284 5050 
L 5106 5050 
z
M 1741 4697 
L 1741 4331 
L 4656 4331 
L 4656 4697 
L 1741 4697 
z
M 1741 4000 
L 1741 3622 
L 4656 3622 
L 4656 4000 
L 1741 4000 
z
M 2925 2528 
L 2925 -450 
L 2503 -450 
L 2503 228 
Q 1869 94 525 -78 
L 409 356 
Q 491 363 609 372 
Q 725 381 756 381 
L 994 403 
L 994 2528 
L 384 2528 
L 384 2900 
L 6016 2900 
L 6016 2528 
L 2925 2528 
z
M 2503 2528 
L 1400 2528 
L 1400 2088 
L 2503 2088 
L 2503 2528 
z
M 2503 1763 
L 1400 1763 
L 1400 1309 
L 2503 1309 
L 2503 1763 
z
M 2503 984 
L 1400 984 
L 1400 434 
L 1759 472 
Q 2159 500 2503 550 
L 2503 984 
z
M 4844 588 
Q 5350 225 6047 -9 
L 5753 -419 
Q 5066 -128 4556 288 
Q 4000 -241 3281 -534 
L 3006 -163 
Q 3734 84 4263 563 
Q 3722 1141 3463 1803 
L 3084 1803 
L 3084 2169 
L 5425 2169 
L 5656 1963 
Q 5328 1178 4881 638 
L 4844 588 
z
M 4538 850 
Q 4884 1275 5119 1803 
L 3872 1803 
Q 4113 1275 4538 850 
z
" transform="scale(0.015625)"/>
      <path id="IPAexGothic-5927" d="M 3528 3181 
Q 4150 1197 6003 275 
L 5647 -184 
Q 3891 831 3259 2681 
Q 2894 644 872 -344 
L 513 97 
Q 1678 528 2344 1538 
Q 2784 2219 2900 3181 
L 481 3181 
L 481 3628 
L 2925 3628 
L 2925 5150 
L 3431 5150 
L 3431 3628 
L 5922 3628 
L 5922 3181 
L 3528 3181 
z
" transform="scale(0.015625)"/>
      <path id="IPAexGothic-30fb" d="M 2772 2859 
L 3628 2859 
L 3628 2003 
L 2772 2003 
L 2772 2859 
z
" transform="scale(0.015625)"/>
      <path id="IPAexGothic-5c0f" d="M 2944 5006 
L 3450 5006 
L 3450 359 
Q 3450 41 3322 -97 
Q 3181 -238 2759 -238 
Q 2388 -238 1931 -197 
L 1831 313 
Q 2244 231 2694 231 
Q 2944 231 2944 475 
L 2944 5006 
z
M 5453 1031 
Q 4928 2516 4172 3719 
L 4600 3916 
Q 5400 2650 5944 1281 
L 5453 1031 
z
M 434 1259 
Q 1238 2231 1553 3769 
L 2041 3641 
Q 1675 1938 825 897 
L 434 1259 
z
" transform="scale(0.015625)"/>
      <path id="IPAexGothic-3082" d="M 997 3950 
Q 1622 3844 2303 3816 
L 2491 5056 
L 2988 4984 
Q 2872 4363 2797 3816 
Q 3475 3822 4244 3938 
L 4244 3494 
Q 3659 3394 2731 3372 
Q 2700 3131 2603 2381 
Q 3263 2381 4031 2509 
L 4031 2059 
Q 3359 1947 2534 1947 
Q 2472 1447 2472 1216 
Q 2472 191 3609 191 
Q 4831 191 4831 1163 
Q 4831 1597 4500 2131 
L 5003 2181 
Q 5338 1638 5338 1153 
Q 5338 472 4819 75 
Q 4372 -256 3609 -256 
Q 2003 -256 2003 1153 
Q 2003 1556 2059 1959 
Q 1372 2022 1013 2094 
L 1056 2541 
Q 1581 2431 2125 2400 
L 2247 3378 
Q 1550 3406 941 3519 
L 997 3950 
z
" transform="scale(0.015625)"/>
      <path id="IPAexGothic-3044" d="M 3369 1447 
Q 2906 122 2278 122 
Q 1966 122 1647 481 
Q 1209 966 1044 1966 
Q 891 2888 891 4313 
L 1422 4313 
Q 1413 2444 1666 1550 
Q 1913 678 2278 678 
Q 2619 678 2925 1791 
L 3369 1447 
z
M 5378 1294 
Q 4928 2797 4034 3809 
L 4488 4031 
Q 5375 3000 5881 1563 
L 5378 1294 
z
" transform="scale(0.015625)"/>
      <path id="IPAexGothic-2f" d="M 2719 4709 
L 600 -884 
L 300 -763 
L 2413 4831 
L 2719 4709 
z
" transform="scale(0.015625)"/>
      <path id="IPAexGothic-7b87" d="M 5178 -197 
L 1216 -197 
L 1216 -447 
L 775 -447 
L 775 3506 
L 5619 3506 
L 5619 -447 
L 5178 -447 
L 5178 -197 
z
M 2963 3122 
L 1216 3122 
L 1216 181 
L 5178 181 
L 5178 3122 
L 3394 3122 
L 3394 2631 
L 4972 2631 
L 4972 2266 
L 3394 2266 
L 3394 1797 
L 4531 1797 
L 4531 538 
L 1856 538 
L 1856 1797 
L 2963 1797 
L 2963 2266 
L 1434 2266 
L 1434 2631 
L 2963 2631 
L 2963 3122 
z
M 4103 1456 
L 2291 1456 
L 2291 878 
L 4103 878 
L 4103 1456 
z
M 1509 4788 
L 3188 4788 
L 3188 4422 
L 2216 4422 
Q 2359 4153 2478 3828 
L 2063 3659 
Q 1947 4094 1784 4422 
L 1338 4422 
Q 1044 3841 556 3384 
L 256 3700 
Q 963 4378 1241 5356 
L 1678 5269 
Q 1600 5013 1509 4788 
z
M 3975 4788 
L 6003 4788 
L 6003 4422 
L 4666 4422 
Q 4806 4206 5000 3834 
L 4581 3659 
Q 4438 4072 4219 4422 
L 3816 4422 
Q 3588 3956 3250 3572 
L 2925 3841 
Q 3425 4409 3706 5344 
L 4141 5263 
Q 4081 5066 3975 4788 
z
" transform="scale(0.015625)"/>
      <path id="IPAexGothic-6240" d="M 3866 2803 
Q 3856 1597 3769 1031 
Q 3628 116 3053 -556 
L 2703 -244 
Q 3219 341 3341 1153 
Q 3425 1641 3425 2613 
L 3425 4634 
Q 3491 4644 3597 4653 
Q 4669 4769 5444 5063 
L 5797 4672 
Q 4863 4397 3866 4275 
L 3866 3219 
L 6116 3219 
L 6116 2803 
L 5272 2803 
L 5272 -441 
L 4831 -441 
L 4831 2803 
L 3866 2803 
z
M 2841 3634 
L 2841 1325 
L 2413 1325 
L 2413 1697 
L 1188 1697 
Q 1156 834 1059 416 
Q 956 -100 644 -556 
L 300 -244 
Q 663 338 728 1103 
Q 759 1497 759 2003 
L 759 3634 
L 2841 3634 
z
M 2413 3244 
L 1194 3244 
L 1194 2228 
L 1194 2138 
L 1194 2088 
L 2413 2088 
L 2413 3244 
z
M 453 4863 
L 3134 4863 
L 3134 4441 
L 453 4441 
L 453 4863 
z
" transform="scale(0.015625)"/>
     </defs>
     <use xlink:href="#IPAexGothic-6700"/>
     <use xlink:href="#IPAexGothic-5927" x="100"/>
     <use xlink:href="#IPAexGothic-30fb" x="200"/>
     <use xlink:href="#IPAexGothic-6700" x="300"/>
     <use xlink:href="#IPAexGothic-5c0f" x="400"/>
     <use xlink:href="#IPAexGothic-20" x="500"/>
     <use xlink:href="#IPAexGothic-2192" x="527.001953"/>
     <use xlink:href="#IPAexGothic-20" x="627.001953"/>
     <use xlink:href="#IPAexGothic-6700" x="654.003906"/>
     <use xlink:href="#IPAexGothic-3082" x="754.003906"/>
     <use xlink:href="#IPAexGothic-660e" x="854.003906"/>
     <use xlink:href="#IPAexGothic-308b" x="954.003906"/>
     <use xlink:href="#IPAexGothic-3044" x="1054.003906"/>
     <use xlink:href="#IPAexGothic-2f" x="1154.003906"/>
     <use xlink:href="#IPAexGothic-6697" x="1204.003906"/>
     <use xlink:href="#IPAexGothic-3044" x="1304.003906"/>
     <use xlink:href="#IPAexGothic-7b87" x="1404.003906"/>
     <use xlink:href="#IPAexGothic-6240" x="1504.003906"/>
    </g>
   </g>
   <g id="text_10">
    <!-- ▸ -->
    <g style="fill: #e8a838" transform="translate(33.12 184.435) scale(0.095 -0.095)">
     <use xlink:href="#IPAexGothic-25b8"/>
    </g>
   </g>
   <g id="text_11">
    <!-- 0超のピクセル数 → 「描かれている量」 -->
    <g style="fill: #2c3e50" transform="translate(46.08 186.166875) scale(0.14 -0.14)">
     <defs>
      <path id="IPAexGothic-30" d="M 2038 4725 
Q 2881 4725 3334 3944 
Q 3694 3325 3694 2344 
Q 3694 1372 3334 741 
Q 2888 -31 2016 -31 
Q 1147 -31 700 741 
Q 341 1372 341 2350 
Q 341 3713 1000 4334 
Q 1419 4725 2038 4725 
z
M 2016 4266 
Q 1516 4266 1228 3759 
Q 934 3247 934 2344 
Q 934 1456 1222 947 
Q 1513 447 2016 447 
Q 2619 447 2909 1153 
Q 3100 1622 3100 2375 
Q 3100 3256 2806 3759 
Q 2509 4266 2016 4266 
z
" transform="scale(0.015625)"/>
      <path id="IPAexGothic-8d85" d="M 1966 447 
Q 2297 234 2784 166 
Q 3153 116 4019 116 
Q 4791 116 6156 206 
Q 6034 -34 6003 -281 
Q 4950 -325 4122 -325 
Q 2463 -325 1900 6 
Q 1353 319 1041 841 
Q 897 50 600 -494 
L 256 -153 
Q 681 631 747 2300 
L 1178 2241 
Q 1159 1869 1125 1472 
Q 1119 1434 1119 1384 
Q 1297 1084 1544 819 
L 1544 2809 
L 344 2809 
L 344 3200 
L 1516 3200 
L 1516 4019 
L 531 4019 
L 531 4416 
L 1516 4416 
L 1516 5313 
L 1931 5313 
L 1931 4416 
L 2931 4416 
L 2931 4019 
L 1931 4019 
L 1931 3200 
L 3072 3200 
L 3072 2809 
L 1966 2809 
L 1966 1941 
L 2900 1941 
L 2900 1550 
L 1966 1550 
L 1966 447 
z
M 4422 4588 
Q 4338 3228 3394 2663 
L 3103 2969 
Q 3922 3478 4006 4588 
L 3144 4588 
L 3144 4978 
L 5850 4978 
Q 5841 3622 5722 3213 
Q 5638 2878 5113 2878 
Q 4788 2878 4494 2897 
L 4416 3328 
Q 4756 3263 5063 3263 
Q 5284 3263 5331 3475 
Q 5400 3809 5409 4588 
L 4422 4588 
z
M 5766 2606 
L 5766 403 
L 5331 403 
L 5331 728 
L 3713 728 
L 3713 403 
L 3278 403 
L 3278 2606 
L 5766 2606 
z
M 3713 2222 
L 3713 1106 
L 5331 1106 
L 5331 2222 
L 3713 2222 
z
" transform="scale(0.015625)"/>
      <path id="IPAexGothic-63cf" d="M 1191 4013 
L 1191 5306 
L 1619 5306 
L 1619 4013 
L 2334 4013 
L 2334 3597 
L 1619 3597 
L 1619 2381 
Q 2066 2522 2291 2597 
L 2316 2228 
Q 2028 2116 1619 1978 
L 1619 56 
Q 1619 -222 1497 -313 
Q 1394 -397 1094 -397 
Q 766 -397 525 -353 
L 447 109 
Q 728 44 984 44 
Q 1191 44 1191 231 
L 1191 1838 
Q 881 1741 409 1619 
L 275 2047 
Q 750 2147 1191 2259 
L 1191 3597 
L 378 3597 
L 378 4013 
L 1191 4013 
z
M 3241 4306 
L 3241 5306 
L 3681 5306 
L 3681 4306 
L 4653 4306 
L 4653 5306 
L 5094 5306 
L 5094 4306 
L 6047 4306 
L 6047 3916 
L 5094 3916 
L 5094 3184 
L 4653 3184 
L 4653 3916 
L 3681 3916 
L 3681 3184 
L 3241 3184 
L 3241 3916 
L 2344 3916 
L 2344 4306 
L 3241 4306 
z
M 5856 2853 
L 5856 -447 
L 5422 -447 
L 5422 -134 
L 3000 -134 
L 3000 -447 
L 2566 -447 
L 2566 2853 
L 5856 2853 
z
M 3000 2469 
L 3000 1569 
L 3988 1569 
L 3988 2469 
L 3000 2469 
z
M 3000 1203 
L 3000 250 
L 3988 250 
L 3988 1203 
L 3000 1203 
z
M 5422 250 
L 5422 1203 
L 4409 1203 
L 4409 250 
L 5422 250 
z
M 5422 1569 
L 5422 2469 
L 4409 2469 
L 4409 1569 
L 5422 1569 
z
" transform="scale(0.015625)"/>
      <path id="IPAexGothic-304b" d="M 659 3384 
Q 1434 3503 2113 3581 
Q 2313 4341 2394 4972 
L 2900 4875 
Q 2759 4147 2619 3628 
L 2719 3634 
Q 2894 3641 3041 3641 
Q 4072 3641 4072 2369 
Q 4072 1128 3700 384 
Q 3478 -56 3003 -56 
Q 2591 -56 2113 231 
L 2138 775 
Q 2631 444 2925 444 
Q 3169 444 3297 706 
Q 3566 1294 3566 2388 
Q 3566 3219 3016 3219 
Q 2825 3219 2497 3194 
Q 2388 2763 2113 2047 
Q 1634 797 1119 -38 
L 678 244 
Q 1356 1238 1863 2750 
Q 1888 2819 1991 3128 
Q 1594 3081 769 2916 
L 659 3384 
z
M 5644 1753 
Q 5072 3025 4238 3916 
L 4641 4184 
Q 5494 3275 6081 2094 
L 5644 1753 
z
" transform="scale(0.015625)"/>
      <path id="IPAexGothic-308c" d="M 538 3694 
Q 1275 3791 1800 3903 
L 1838 5006 
L 2316 5006 
L 2253 4006 
L 2619 3675 
Q 2428 3425 2247 3144 
Q 2241 3084 2241 2869 
Q 3341 4031 4134 4031 
Q 4856 4031 4856 3309 
Q 4856 3047 4794 2491 
Q 4719 1747 4719 1044 
Q 4719 672 4922 672 
Q 5084 672 5263 788 
Q 5613 1034 5850 1491 
L 6131 1025 
Q 5856 641 5600 447 
Q 5238 166 4866 166 
Q 4244 166 4244 1100 
Q 4244 1519 4350 2956 
Q 4369 3181 4369 3238 
Q 4369 3434 4297 3513 
Q 4231 3584 4081 3584 
Q 3438 3584 2228 2291 
Q 2222 1931 2222 1478 
Q 2222 753 2241 -159 
L 1747 -159 
Q 1747 1241 1753 1734 
Q 1544 1466 928 647 
L 531 991 
Q 1603 2291 1772 2478 
Q 1772 3038 1791 3469 
Q 1128 3284 653 3194 
L 538 3694 
z
" transform="scale(0.015625)"/>
     </defs>
     <use xlink:href="#IPAexGothic-30"/>
     <use xlink:href="#IPAexGothic-8d85" x="62.988281"/>
     <use xlink:href="#IPAexGothic-306e" x="162.988281"/>
     <use xlink:href="#IPAexGothic-30d4" x="262.988281"/>
     <use xlink:href="#IPAexGothic-30af" x="362.988281"/>
     <use xlink:href="#IPAexGothic-30bb" x="462.988281"/>
     <use xlink:href="#IPAexGothic-30eb" x="562.988281"/>
     <use xlink:href="#IPAexGothic-6570" x="662.988281"/>
     <use xlink:href="#IPAexGothic-20" x="762.988281"/>
     <use xlink:href="#IPAexGothic-2192" x="789.990234"/>
     <use xlink:href="#IPAexGothic-20" x="889.990234"/>
     <use xlink:href="#IPAexGothic-300c" x="916.992188"/>
     <use xlink:href="#IPAexGothic-63cf" x="1016.992188"/>
     <use xlink:href="#IPAexGothic-304b" x="1116.992188"/>
     <use xlink:href="#IPAexGothic-308c" x="1216.992188"/>
     <use xlink:href="#IPAexGothic-3066" x="1316.992188"/>
     <use xlink:href="#IPAexGothic-3044" x="1416.992188"/>
     <use xlink:href="#IPAexGothic-308b" x="1516.992188"/>
     <use xlink:href="#IPAexGothic-91cf" x="1616.992188"/>
     <use xlink:href="#IPAexGothic-300d" x="1716.992188"/>
    </g>
   </g>
   <g id="text_12">
    <!-- arr = np.array(img_large) -->
    <g style="fill: #cdd6f4" transform="translate(40.32 254.318419) scale(0.105 -0.105)">
     <defs>
      <path id="DejaVuSansMono-61" d="M 2194 1759 
L 2003 1759 
Q 1500 1759 1245 1582 
Q 991 1406 991 1056 
Q 991 741 1181 566 
Q 1372 391 1709 391 
Q 2184 391 2456 720 
Q 2728 1050 2731 1631 
L 2731 1759 
L 2194 1759 
z
M 3309 1997 
L 3309 0 
L 2731 0 
L 2731 519 
Q 2547 206 2267 57 
Q 1988 -91 1588 -91 
Q 1053 -91 734 211 
Q 416 513 416 1019 
Q 416 1603 808 1906 
Q 1200 2209 1959 2209 
L 2731 2209 
L 2731 2300 
Q 2728 2719 2518 2908 
Q 2309 3097 1850 3097 
Q 1556 3097 1256 3012 
Q 956 2928 672 2766 
L 672 3341 
Q 991 3463 1283 3523 
Q 1575 3584 1850 3584 
Q 2284 3584 2592 3456 
Q 2900 3328 3091 3072 
Q 3209 2916 3259 2686 
Q 3309 2456 3309 1997 
z
" transform="scale(0.015625)"/>
      <path id="DejaVuSansMono-72" d="M 3609 2778 
Q 3425 2922 3234 2987 
Q 3044 3053 2816 3053 
Q 2278 3053 1993 2715 
Q 1709 2378 1709 1741 
L 1709 0 
L 1131 0 
L 1131 3500 
L 1709 3500 
L 1709 2816 
Q 1853 3188 2151 3386 
Q 2450 3584 2859 3584 
Q 3072 3584 3256 3531 
Q 3441 3478 3609 3366 
L 3609 2778 
z
" transform="scale(0.015625)"/>
      <path id="DejaVuSansMono-20" transform="scale(0.015625)"/>
      <path id="DejaVuSansMono-3d" d="M 275 1638 
L 3578 1638 
L 3578 1100 
L 275 1100 
L 275 1638 
z
M 275 2906 
L 3578 2906 
L 3578 2375 
L 275 2375 
L 275 2906 
z
" transform="scale(0.015625)"/>
      <path id="DejaVuSansMono-6e" d="M 3284 2169 
L 3284 0 
L 2706 0 
L 2706 2169 
Q 2706 2641 2540 2862 
Q 2375 3084 2022 3084 
Q 1619 3084 1401 2798 
Q 1184 2513 1184 1978 
L 1184 0 
L 609 0 
L 609 3500 
L 1184 3500 
L 1184 2975 
Q 1338 3275 1600 3429 
Q 1863 3584 2222 3584 
Q 2756 3584 3020 3232 
Q 3284 2881 3284 2169 
z
" transform="scale(0.015625)"/>
      <path id="DejaVuSansMono-70" d="M 1172 441 
L 1172 -1331 
L 594 -1331 
L 594 3500 
L 1172 3500 
L 1172 3053 
Q 1316 3313 1555 3448 
Q 1794 3584 2106 3584 
Q 2741 3584 3102 3093 
Q 3463 2603 3463 1734 
Q 3463 881 3100 395 
Q 2738 -91 2106 -91 
Q 1788 -91 1548 45 
Q 1309 181 1172 441 
z
M 2859 1747 
Q 2859 2416 2648 2756 
Q 2438 3097 2022 3097 
Q 1603 3097 1387 2755 
Q 1172 2413 1172 1747 
Q 1172 1084 1387 740 
Q 1603 397 2022 397 
Q 2438 397 2648 737 
Q 2859 1078 2859 1747 
z
" transform="scale(0.015625)"/>
      <path id="DejaVuSansMono-2e" d="M 1528 953 
L 2316 953 
L 2316 0 
L 1528 0 
L 1528 953 
z
" transform="scale(0.015625)"/>
      <path id="DejaVuSansMono-79" d="M 2681 1125 
Q 2538 759 2316 163 
Q 2006 -663 1900 -844 
Q 1756 -1088 1540 -1209 
Q 1325 -1331 1038 -1331 
L 575 -1331 
L 575 -850 
L 916 -850 
Q 1169 -850 1312 -703 
Q 1456 -556 1678 56 
L 325 3500 
L 934 3500 
L 1972 763 
L 2994 3500 
L 3603 3500 
L 2681 1125 
z
" transform="scale(0.015625)"/>
      <path id="DejaVuSansMono-28" d="M 2766 4856 
Q 2350 4144 2145 3436 
Q 1941 2728 1941 2009 
Q 1941 1294 2145 584 
Q 2350 -125 2766 -844 
L 2266 -844 
Q 1794 -100 1562 604 
Q 1331 1309 1331 2009 
Q 1331 2706 1562 3412 
Q 1794 4119 2266 4856 
L 2766 4856 
z
" transform="scale(0.015625)"/>
      <path id="DejaVuSansMono-69" d="M 800 3500 
L 2272 3500 
L 2272 447 
L 3413 447 
L 3413 0 
L 556 0 
L 556 447 
L 1697 447 
L 1697 3053 
L 800 3053 
L 800 3500 
z
M 1697 4863 
L 2272 4863 
L 2272 4134 
L 1697 4134 
L 1697 4863 
z
" transform="scale(0.015625)"/>
      <path id="DejaVuSansMono-6d" d="M 2113 3144 
Q 2219 3369 2383 3476 
Q 2547 3584 2778 3584 
Q 3200 3584 3373 3257 
Q 3547 2931 3547 2028 
L 3547 0 
L 3022 0 
L 3022 2003 
Q 3022 2744 2939 2923 
Q 2856 3103 2638 3103 
Q 2388 3103 2295 2911 
Q 2203 2719 2203 2003 
L 2203 0 
L 1678 0 
L 1678 2003 
Q 1678 2753 1589 2928 
Q 1500 3103 1269 3103 
Q 1041 3103 952 2911 
Q 863 2719 863 2003 
L 863 0 
L 341 0 
L 341 3500 
L 863 3500 
L 863 3200 
Q 966 3388 1120 3486 
Q 1275 3584 1472 3584 
Q 1709 3584 1867 3475 
Q 2025 3366 2113 3144 
z
" transform="scale(0.015625)"/>
      <path id="DejaVuSansMono-67" d="M 2681 1778 
Q 2681 2425 2470 2761 
Q 2259 3097 1856 3097 
Q 1434 3097 1212 2761 
Q 991 2425 991 1778 
Q 991 1131 1214 792 
Q 1438 453 1863 453 
Q 2259 453 2470 793 
Q 2681 1134 2681 1778 
z
M 3256 225 
Q 3256 -563 2884 -969 
Q 2513 -1375 1791 -1375 
Q 1553 -1375 1293 -1331 
Q 1034 -1288 775 -1203 
L 775 -634 
Q 1081 -778 1331 -847 
Q 1581 -916 1791 -916 
Q 2256 -916 2468 -662 
Q 2681 -409 2681 141 
L 2681 166 
L 2681 556 
Q 2544 263 2306 119 
Q 2069 -25 1728 -25 
Q 1116 -25 750 465 
Q 384 956 384 1778 
Q 384 2603 750 3093 
Q 1116 3584 1728 3584 
Q 2066 3584 2300 3450 
Q 2534 3316 2681 3034 
L 2681 3488 
L 3256 3488 
L 3256 225 
z
" transform="scale(0.015625)"/>
      <path id="DejaVuSansMono-5f" d="M 3853 -1259 
L 3853 -1509 
L 0 -1509 
L 0 -1259 
L 3853 -1259 
z
" transform="scale(0.015625)"/>
      <path id="DejaVuSansMono-6c" d="M 1997 1269 
Q 1997 881 2139 684 
Q 2281 488 2559 488 
L 3231 488 
L 3231 0 
L 2503 0 
Q 1988 0 1705 331 
Q 1422 663 1422 1269 
L 1422 4447 
L 500 4447 
L 500 4897 
L 1997 4897 
L 1997 1269 
z
" transform="scale(0.015625)"/>
      <path id="DejaVuSansMono-65" d="M 3475 1894 
L 3475 1613 
L 984 1613 
L 984 1594 
Q 984 1022 1282 709 
Q 1581 397 2125 397 
Q 2400 397 2700 484 
Q 3000 572 3341 750 
L 3341 178 
Q 3013 44 2708 -23 
Q 2403 -91 2119 -91 
Q 1303 -91 843 398 
Q 384 888 384 1747 
Q 384 2584 834 3084 
Q 1284 3584 2034 3584 
Q 2703 3584 3089 3131 
Q 3475 2678 3475 1894 
z
M 2900 2063 
Q 2888 2569 2661 2833 
Q 2434 3097 2009 3097 
Q 1594 3097 1325 2822 
Q 1056 2547 1006 2059 
L 2900 2063 
z
" transform="scale(0.015625)"/>
      <path id="DejaVuSansMono-29" d="M 1088 4856 
L 1588 4856 
Q 2059 4119 2290 3412 
Q 2522 2706 2522 2009 
Q 2522 1306 2290 600 
Q 2059 -106 1588 -844 
L 1088 -844 
Q 1503 -119 1708 590 
Q 1913 1300 1913 2009 
Q 1913 2722 1708 3431 
Q 1503 4141 1088 4856 
z
" transform="scale(0.015625)"/>
     </defs>
     <use xlink:href="#DejaVuSansMono-61"/>
     <use xlink:href="#DejaVuSansMono-72" x="60.205078"/>
     <use xlink:href="#DejaVuSansMono-72" x="120.410156"/>
     <use xlink:href="#DejaVuSansMono-20" x="180.615234"/>
     <use xlink:href="#DejaVuSansMono-3d" x="240.820312"/>
     <use xlink:href="#DejaVuSansMono-20" x="301.025391"/>
     <use xlink:href="#DejaVuSansMono-6e" x="361.230469"/>
     <use xlink:href="#DejaVuSansMono-70" x="421.435547"/>
     <use xlink:href="#DejaVuSansMono-2e" x="481.640625"/>
     <use xlink:href="#DejaVuSansMono-61" x="541.845703"/>
     <use xlink:href="#DejaVuSansMono-72" x="602.050781"/>
     <use xlink:href="#DejaVuSansMono-72" x="662.255859"/>
     <use xlink:href="#DejaVuSansMono-61" x="722.460938"/>
     <use xlink:href="#DejaVuSansMono-79" x="782.666016"/>
     <use xlink:href="#DejaVuSansMono-28" x="842.871094"/>
     <use xlink:href="#DejaVuSansMono-69" x="903.076172"/>
     <use xlink:href="#DejaVuSansMono-6d" x="963.28125"/>
     <use xlink:href="#DejaVuSansMono-67" x="1023.486328"/>
     <use xlink:href="#DejaVuSansMono-5f" x="1083.691406"/>
     <use xlink:href="#DejaVuSansMono-6c" x="1143.896484"/>
     <use xlink:href="#DejaVuSansMono-61" x="1204.101562"/>
     <use xlink:href="#DejaVuSansMono-72" x="1264.306641"/>
     <use xlink:href="#DejaVuSansMono-67" x="1324.511719"/>
     <use xlink:href="#DejaVuSansMono-65" x="1384.716797"/>
     <use xlink:href="#DejaVuSansMono-29" x="1444.921875"/>
    </g>
   </g>
   <g id="text_13">
    <!-- print("明るさ（平均）:", arr.mean()) -->
    <g style="fill: #cdd6f4" transform="translate(40.32 284.416434) scale(0.105 -0.105)">
     <defs>
      <path id="DejaVuSansMono-74" d="M 1919 4494 
L 1919 3500 
L 3225 3500 
L 3225 3053 
L 1919 3053 
L 1919 1153 
Q 1919 766 2066 612 
Q 2213 459 2578 459 
L 3225 459 
L 3225 0 
L 2522 0 
Q 1875 0 1609 259 
Q 1344 519 1344 1153 
L 1344 3053 
L 409 3053 
L 409 3500 
L 1344 3500 
L 1344 4494 
L 1919 4494 
z
" transform="scale(0.015625)"/>
      <path id="DejaVuSansMono-22" d="M 2797 4666 
L 2797 2931 
L 2253 2931 
L 2253 4666 
L 2797 4666 
z
M 1600 4666 
L 1600 2931 
L 1056 2931 
L 1056 4666 
L 1600 4666 
z
" transform="scale(0.015625)"/>
      <path id="DejaVuSansMono-660e" d="M 325 -1131 
L 325 4513 
L 3525 4513 
L 3525 -1131 
L 325 -1131 
z
M 684 -775 
L 3169 -775 
L 3169 4153 
L 684 4153 
L 684 -775 
z
" transform="scale(0.015625)"/>
      <path id="DejaVuSansMono-308b" d="M 325 -1131 
L 325 4513 
L 3525 4513 
L 3525 -1131 
L 325 -1131 
z
M 684 -775 
L 3169 -775 
L 3169 4153 
L 684 4153 
L 684 -775 
z
" transform="scale(0.015625)"/>
      <path id="DejaVuSansMono-3055" d="M 325 -1131 
L 325 4513 
L 3525 4513 
L 3525 -1131 
L 325 -1131 
z
M 684 -775 
L 3169 -775 
L 3169 4153 
L 684 4153 
L 684 -775 
z
" transform="scale(0.015625)"/>
      <path id="DejaVuSansMono-ff08" d="M 325 -1131 
L 325 4513 
L 3525 4513 
L 3525 -1131 
L 325 -1131 
z
M 684 -775 
L 3169 -775 
L 3169 4153 
L 684 4153 
L 684 -775 
z
" transform="scale(0.015625)"/>
      <path id="DejaVuSansMono-5e73" d="M 325 -1131 
L 325 4513 
L 3525 4513 
L 3525 -1131 
L 325 -1131 
z
M 684 -775 
L 3169 -775 
L 3169 4153 
L 684 4153 
L 684 -775 
z
" transform="scale(0.015625)"/>
      <path id="DejaVuSansMono-5747" d="M 325 -1131 
L 325 4513 
L 3525 4513 
L 3525 -1131 
L 325 -1131 
z
M 684 -775 
L 3169 -775 
L 3169 4153 
L 684 4153 
L 684 -775 
z
" transform="scale(0.015625)"/>
      <path id="DejaVuSansMono-ff09" d="M 325 -1131 
L 325 4513 
L 3525 4513 
L 3525 -1131 
L 325 -1131 
z
M 684 -775 
L 3169 -775 
L 3169 4153 
L 684 4153 
L 684 -775 
z
" transform="scale(0.015625)"/>
      <path id="DejaVuSansMono-3a" d="M 1528 3322 
L 2316 3322 
L 2316 2375 
L 1528 2375 
L 1528 3322 
z
M 1528 953 
L 2316 953 
L 2316 0 
L 1528 0 
L 1528 953 
z
" transform="scale(0.015625)"/>
      <path id="DejaVuSansMono-2c" d="M 1569 947 
L 2356 947 
L 2356 300 
L 1741 -897 
L 1259 -897 
L 1569 300 
L 1569 947 
z
" transform="scale(0.015625)"/>
     </defs>
     <use xlink:href="#DejaVuSansMono-70"/>
     <use xlink:href="#DejaVuSansMono-72" x="60.205078"/>
     <use xlink:href="#DejaVuSansMono-69" x="120.410156"/>
     <use xlink:href="#DejaVuSansMono-6e" x="180.615234"/>
     <use xlink:href="#DejaVuSansMono-74" x="240.820312"/>
     <use xlink:href="#DejaVuSansMono-28" x="301.025391"/>
     <use xlink:href="#DejaVuSansMono-22" x="361.230469"/>
     <use xlink:href="#DejaVuSansMono-660e" x="421.435547"/>
     <use xlink:href="#DejaVuSansMono-308b" x="481.640625"/>
     <use xlink:href="#DejaVuSansMono-3055" x="541.845703"/>
     <use xlink:href="#DejaVuSansMono-ff08" x="602.050781"/>
     <use xlink:href="#DejaVuSansMono-5e73" x="662.255859"/>
     <use xlink:href="#DejaVuSansMono-5747" x="722.460938"/>
     <use xlink:href="#DejaVuSansMono-ff09" x="782.666016"/>
     <use xlink:href="#DejaVuSansMono-3a" x="842.871094"/>
     <use xlink:href="#DejaVuSansMono-22" x="903.076172"/>
     <use xlink:href="#DejaVuSansMono-2c" x="963.28125"/>
     <use xlink:href="#DejaVuSansMono-20" x="1023.486328"/>
     <use xlink:href="#DejaVuSansMono-61" x="1083.691406"/>
     <use xlink:href="#DejaVuSansMono-72" x="1143.896484"/>
     <use xlink:href="#DejaVuSansMono-72" x="1204.101562"/>
     <use xlink:href="#DejaVuSansMono-2e" x="1264.306641"/>
     <use xlink:href="#DejaVuSansMono-6d" x="1324.511719"/>
     <use xlink:href="#DejaVuSansMono-65" x="1384.716797"/>
     <use xlink:href="#DejaVuSansMono-61" x="1444.921875"/>
     <use xlink:href="#DejaVuSansMono-6e" x="1505.126953"/>
     <use xlink:href="#DejaVuSansMono-28" x="1565.332031"/>
     <use xlink:href="#DejaVuSansMono-29" x="1625.537109"/>
     <use xlink:href="#DejaVuSansMono-29" x="1685.742188"/>
    </g>
   </g>
   <g id="text_14">
    <!-- print("コントラスト:", arr.std()) -->
    <g style="fill: #cdd6f4" transform="translate(40.32 299.392434) scale(0.105 -0.105)">
     <defs>
      <path id="DejaVuSansMono-30b3" d="M 325 -1131 
L 325 4513 
L 3525 4513 
L 3525 -1131 
L 325 -1131 
z
M 684 -775 
L 3169 -775 
L 3169 4153 
L 684 4153 
L 684 -775 
z
" transform="scale(0.015625)"/>
      <path id="DejaVuSansMono-30f3" d="M 325 -1131 
L 325 4513 
L 3525 4513 
L 3525 -1131 
L 325 -1131 
z
M 684 -775 
L 3169 -775 
L 3169 4153 
L 684 4153 
L 684 -775 
z
" transform="scale(0.015625)"/>
      <path id="DejaVuSansMono-30c8" d="M 325 -1131 
L 325 4513 
L 3525 4513 
L 3525 -1131 
L 325 -1131 
z
M 684 -775 
L 3169 -775 
L 3169 4153 
L 684 4153 
L 684 -775 
z
" transform="scale(0.015625)"/>
      <path id="DejaVuSansMono-30e9" d="M 325 -1131 
L 325 4513 
L 3525 4513 
L 3525 -1131 
L 325 -1131 
z
M 684 -775 
L 3169 -775 
L 3169 4153 
L 684 4153 
L 684 -775 
z
" transform="scale(0.015625)"/>
      <path id="DejaVuSansMono-30b9" d="M 325 -1131 
L 325 4513 
L 3525 4513 
L 3525 -1131 
L 325 -1131 
z
M 684 -775 
L 3169 -775 
L 3169 4153 
L 684 4153 
L 684 -775 
z
" transform="scale(0.015625)"/>
      <path id="DejaVuSansMono-73" d="M 3041 3378 
L 3041 2816 
Q 2794 2959 2544 3031 
Q 2294 3103 2034 3103 
Q 1644 3103 1451 2976 
Q 1259 2850 1259 2591 
Q 1259 2356 1403 2240 
Q 1547 2125 2119 2016 
L 2350 1972 
Q 2778 1891 2998 1647 
Q 3219 1403 3219 1013 
Q 3219 494 2850 201 
Q 2481 -91 1825 -91 
Q 1566 -91 1281 -36 
Q 997 19 666 128 
L 666 722 
Q 988 556 1281 473 
Q 1575 391 1838 391 
Q 2219 391 2428 545 
Q 2638 700 2638 978 
Q 2638 1378 1872 1531 
L 1847 1538 
L 1631 1581 
Q 1134 1678 906 1908 
Q 678 2138 678 2534 
Q 678 3038 1018 3311 
Q 1359 3584 1991 3584 
Q 2272 3584 2531 3532 
Q 2791 3481 3041 3378 
z
" transform="scale(0.015625)"/>
      <path id="DejaVuSansMono-64" d="M 2681 3053 
L 2681 4863 
L 3256 4863 
L 3256 0 
L 2681 0 
L 2681 441 
Q 2538 181 2298 45 
Q 2059 -91 1747 -91 
Q 1113 -91 748 401 
Q 384 894 384 1759 
Q 384 2613 750 3098 
Q 1116 3584 1747 3584 
Q 2063 3584 2303 3448 
Q 2544 3313 2681 3053 
z
M 991 1747 
Q 991 1078 1203 737 
Q 1416 397 1831 397 
Q 2247 397 2464 740 
Q 2681 1084 2681 1747 
Q 2681 2413 2464 2755 
Q 2247 3097 1831 3097 
Q 1416 3097 1203 2756 
Q 991 2416 991 1747 
z
" transform="scale(0.015625)"/>
     </defs>
     <use xlink:href="#DejaVuSansMono-70"/>
     <use xlink:href="#DejaVuSansMono-72" x="60.205078"/>
     <use xlink:href="#DejaVuSansMono-69" x="120.410156"/>
     <use xlink:href="#DejaVuSansMono-6e" x="180.615234"/>
     <use xlink:href="#DejaVuSansMono-74" x="240.820312"/>
     <use xlink:href="#DejaVuSansMono-28" x="301.025391"/>
     <use xlink:href="#DejaVuSansMono-22" x="361.230469"/>
     <use xlink:href="#DejaVuSansMono-30b3" x="421.435547"/>
     <use xlink:href="#DejaVuSansMono-30f3" x="481.640625"/>
     <use xlink:href="#DejaVuSansMono-30c8" x="541.845703"/>
     <use xlink:href="#DejaVuSansMono-30e9" x="602.050781"/>
     <use xlink:href="#DejaVuSansMono-30b9" x="662.255859"/>
     <use xlink:href="#DejaVuSansMono-30c8" x="722.460938"/>
     <use xlink:href="#DejaVuSansMono-3a" x="782.666016"/>
     <use xlink:href="#DejaVuSansMono-22" x="842.871094"/>
     <use xlink:href="#DejaVuSansMono-2c" x="903.076172"/>
     <use xlink:href="#DejaVuSansMono-20" x="963.28125"/>
     <use xlink:href="#DejaVuSansMono-61" x="1023.486328"/>
     <use xlink:href="#DejaVuSansMono-72" x="1083.691406"/>
     <use xlink:href="#DejaVuSansMono-72" x="1143.896484"/>
     <use xlink:href="#DejaVuSansMono-2e" x="1204.101562"/>
     <use xlink:href="#DejaVuSansMono-73" x="1264.306641"/>
     <use xlink:href="#DejaVuSansMono-74" x="1324.511719"/>
     <use xlink:href="#DejaVuSansMono-64" x="1384.716797"/>
     <use xlink:href="#DejaVuSansMono-28" x="1444.921875"/>
     <use xlink:href="#DejaVuSansMono-29" x="1505.126953"/>
     <use xlink:href="#DejaVuSansMono-29" x="1565.332031"/>
    </g>
   </g>
   <g id="text_15">
    <!-- print("描画率:", (arr &gt; 0).mean() * 100, "%") -->
    <g style="fill: #cdd6f4" transform="translate(40.32 314.368434) scale(0.105 -0.105)">
     <defs>
      <path id="DejaVuSansMono-63cf" d="M 325 -1131 
L 325 4513 
L 3525 4513 
L 3525 -1131 
L 325 -1131 
z
M 684 -775 
L 3169 -775 
L 3169 4153 
L 684 4153 
L 684 -775 
z
" transform="scale(0.015625)"/>
      <path id="DejaVuSansMono-753b" d="M 325 -1131 
L 325 4513 
L 3525 4513 
L 3525 -1131 
L 325 -1131 
z
M 684 -775 
L 3169 -775 
L 3169 4153 
L 684 4153 
L 684 -775 
z
" transform="scale(0.015625)"/>
      <path id="DejaVuSansMono-7387" d="M 325 -1131 
L 325 4513 
L 3525 4513 
L 3525 -1131 
L 325 -1131 
z
M 684 -775 
L 3169 -775 
L 3169 4153 
L 684 4153 
L 684 -775 
z
" transform="scale(0.015625)"/>
      <path id="DejaVuSansMono-3e" d="M 275 3003 
L 275 3572 
L 3578 2266 
L 3578 1747 
L 275 441 
L 275 1013 
L 2931 2003 
L 275 3003 
z
" transform="scale(0.015625)"/>
      <path id="DejaVuSansMono-30" d="M 1509 2344 
Q 1509 2516 1629 2641 
Q 1750 2766 1919 2766 
Q 2094 2766 2219 2641 
Q 2344 2516 2344 2344 
Q 2344 2169 2220 2047 
Q 2097 1925 1919 1925 
Q 1744 1925 1626 2044 
Q 1509 2163 1509 2344 
z
M 1925 4250 
Q 1484 4250 1267 3775 
Q 1050 3300 1050 2328 
Q 1050 1359 1267 884 
Q 1484 409 1925 409 
Q 2369 409 2586 884 
Q 2803 1359 2803 2328 
Q 2803 3300 2586 3775 
Q 2369 4250 1925 4250 
z
M 1925 4750 
Q 2672 4750 3055 4137 
Q 3438 3525 3438 2328 
Q 3438 1134 3055 521 
Q 2672 -91 1925 -91 
Q 1178 -91 797 521 
Q 416 1134 416 2328 
Q 416 3525 797 4137 
Q 1178 4750 1925 4750 
z
" transform="scale(0.015625)"/>
      <path id="DejaVuSansMono-2a" d="M 3334 3897 
L 2216 3291 
L 3334 2681 
L 3156 2375 
L 2106 3009 
L 2106 1831 
L 1747 1831 
L 1747 3009 
L 697 2375 
L 519 2681 
L 1638 3291 
L 519 3897 
L 697 4206 
L 1747 3572 
L 1747 4750 
L 2106 4750 
L 2106 3572 
L 3156 4206 
L 3334 3897 
z
" transform="scale(0.015625)"/>
      <path id="DejaVuSansMono-31" d="M 844 531 
L 1825 531 
L 1825 4097 
L 769 3859 
L 769 4434 
L 1819 4666 
L 2450 4666 
L 2450 531 
L 3419 531 
L 3419 0 
L 844 0 
L 844 531 
z
" transform="scale(0.015625)"/>
      <path id="DejaVuSansMono-25" d="M 2175 997 
Q 2175 753 2339 587 
Q 2503 422 2747 422 
Q 2988 422 3155 589 
Q 3322 756 3322 997 
Q 3322 1238 3153 1406 
Q 2984 1575 2747 1575 
Q 2503 1575 2339 1409 
Q 2175 1244 2175 997 
z
M 1753 997 
Q 1753 1419 2040 1708 
Q 2328 1997 2747 1997 
Q 2947 1997 3126 1922 
Q 3306 1847 3450 1703 
Q 3594 1556 3672 1375 
Q 3750 1194 3750 997 
Q 3750 581 3459 290 
Q 3169 0 2747 0 
Q 2322 0 2037 286 
Q 1753 572 1753 997 
z
M 378 1453 
L 269 1753 
L 3525 3059 
L 3653 2759 
L 378 1453 
z
M 525 3475 
Q 525 3228 689 3064 
Q 853 2900 1100 2900 
Q 1341 2900 1509 3067 
Q 1678 3234 1678 3475 
Q 1678 3716 1509 3883 
Q 1341 4050 1100 4050 
Q 859 4050 692 3884 
Q 525 3719 525 3475 
z
M 103 3475 
Q 103 3897 390 4186 
Q 678 4475 1100 4475 
Q 1300 4475 1483 4400 
Q 1666 4325 1806 4184 
Q 1947 4044 2023 3861 
Q 2100 3678 2100 3475 
Q 2100 3056 1809 2767 
Q 1519 2478 1100 2478 
Q 678 2478 390 2765 
Q 103 3053 103 3475 
z
" transform="scale(0.015625)"/>
     </defs>
     <use xlink:href="#DejaVuSansMono-70"/>
     <use xlink:href="#DejaVuSansMono-72" x="60.205078"/>
     <use xlink:href="#DejaVuSansMono-69" x="120.410156"/>
     <use xlink:href="#DejaVuSansMono-6e" x="180.615234"/>
     <use xlink:href="#DejaVuSansMono-74" x="240.820312"/>
     <use xlink:href="#DejaVuSansMono-28" x="301.025391"/>
     <use xlink:href="#DejaVuSansMono-22" x="361.230469"/>
     <use xlink:href="#DejaVuSansMono-63cf" x="421.435547"/>
     <use xlink:href="#DejaVuSansMono-753b" x="481.640625"/>
     <use xlink:href="#DejaVuSansMono-7387" x="541.845703"/>
     <use xlink:href="#DejaVuSansMono-3a" x="602.050781"/>
     <use xlink:href="#DejaVuSansMono-22" x="662.255859"/>
     <use xlink:href="#DejaVuSansMono-2c" x="722.460938"/>
     <use xlink:href="#DejaVuSansMono-20" x="782.666016"/>
     <use xlink:href="#DejaVuSansMono-28" x="842.871094"/>
     <use xlink:href="#DejaVuSansMono-61" x="903.076172"/>
     <use xlink:href="#DejaVuSansMono-72" x="963.28125"/>
     <use xlink:href="#DejaVuSansMono-72" x="1023.486328"/>
     <use xlink:href="#DejaVuSansMono-20" x="1083.691406"/>
     <use xlink:href="#DejaVuSansMono-3e" x="1143.896484"/>
     <use xlink:href="#DejaVuSansMono-20" x="1204.101562"/>
     <use xlink:href="#DejaVuSansMono-30" x="1264.306641"/>
     <use xlink:href="#DejaVuSansMono-29" x="1324.511719"/>
     <use xlink:href="#DejaVuSansMono-2e" x="1384.716797"/>
     <use xlink:href="#DejaVuSansMono-6d" x="1444.921875"/>
     <use xlink:href="#DejaVuSansMono-65" x="1505.126953"/>
     <use xlink:href="#DejaVuSansMono-61" x="1565.332031"/>
     <use xlink:href="#DejaVuSansMono-6e" x="1625.537109"/>
     <use xlink:href="#DejaVuSansMono-28" x="1685.742188"/>
     <use xlink:href="#DejaVuSansMono-29" x="1745.947266"/>
     <use xlink:href="#DejaVuSansMono-20" x="1806.152344"/>
     <use xlink:href="#DejaVuSansMono-2a" x="1866.357422"/>
     <use xlink:href="#DejaVuSansMono-20" x="1926.5625"/>
     <use xlink:href="#DejaVuSansMono-31" x="1986.767578"/>
     <use xlink:href="#DejaVuSansMono-30" x="2046.972656"/>
     <use xlink:href="#DejaVuSansMono-30" x="2107.177734"/>
     <use xlink:href="#DejaVuSansMono-2c" x="2167.382812"/>
     <use xlink:href="#DejaVuSansMono-20" x="2227.587891"/>
     <use xlink:href="#DejaVuSansMono-22" x="2287.792969"/>
     <use xlink:href="#DejaVuSansMono-25" x="2347.998047"/>
     <use xlink:href="#DejaVuSansMono-22" x="2408.203125"/>
     <use xlink:href="#DejaVuSansMono-29" x="2468.408203"/>
    </g>
   </g>
  </g>
 </g>
 <defs>
  <clipPath id="p8e47de4c1e">
   <rect x="0" y="-0" width="691.2" height="388.8"/>
  </clipPath>
 </defs>
</svg>
