<?xml version="1.0" encoding="utf-8" standalone="no"?>
<!DOCTYPE svg PUBLIC "-//W3C//DTD SVG 1.1//EN"
  "http://www.w3.org/Graphics/SVG/1.1/DTD/svg11.dtd">
<svg xmlns:xlink="http://www.w3.org/1999/xlink" width="691.2pt" height="388.8pt" viewBox="0 0 691.2 388.8" xmlns="http://www.w3.org/2000/svg" version="1.1">
 <metadata>
  <rdf:RDF xmlns:dc="http://purl.org/dc/elements/1.1/" xmlns:cc="http://creativecommons.org/ns#" xmlns:rdf="http://www.w3.org/1999/02/22-rdf-syntax-ns#">
   <cc:Work>
    <dc:type rdf:resource="http://purl.org/dc/dcmitype/StillImage"/>
    <dc:date>2026-04-09T02:37:45.800702</dc:date>
    <dc:format>image/svg+xml</dc:format>
    <dc:creator>
     <cc:Agent>
      <dc:title>Matplotlib v3.9.4, https://matplotlib.org/</dc:title>
     </cc:Agent>
    </dc:creator>
   </cc:Work>
  </rdf:RDF>
 </metadata>
 <defs>
  <style type="text/css">*{stroke-linejoin: round; stroke-linecap: butt}</style>
 </defs>
 <g id="figure_1">
  <g id="patch_1">
   <path d="M 0 388.8 
L 691.2 388.8 
L 691.2 0 
L 0 0 
z
" style="fill: #ffffff"/>
  </g>
  <g id="axes_1">
   <g id="patch_2">
    <path d="M 0 -0 
L 691.2 -0 
L 691.2 24.48 
L 0 24.48 
z
" clip-path="url(#p1ecda475c8)" style="fill: #e8a838"/>
   </g>
   <g id="patch_3">
    <path d="M 31.68 59.04 
L 659.52 59.04 
L 659.52 60.48 
L 31.68 60.48 
z
" clip-path="url(#p1ecda475c8)" style="fill: #ecf0f1"/>
   </g>
   <g id="patch_4">
    <path d="M 31.68 76.32 
L 147.6 76.32 
Q 151.92 76.32 151.92 80.64 
L 151.92 195.84 
Q 151.92 200.16 147.6 200.16 
L 31.68 200.16 
Q 27.36 200.16 27.36 195.84 
L 27.36 80.64 
Q 27.36 76.32 31.68 76.32 
z
" clip-path="url(#p1ecda475c8)" style="fill: #4a90d9"/>
   </g>
   <g id="patch_5">
    <path d="M 159.12 76.32 
L 275.04 76.32 
Q 279.36 76.32 279.36 80.64 
L 279.36 195.84 
Q 279.36 200.16 275.04 200.16 
L 159.12 200.16 
Q 154.8 200.16 154.8 195.84 
L 154.8 80.64 
Q 154.8 76.32 159.12 76.32 
z
" clip-path="url(#p1ecda475c8)" style="fill: #5ba85a"/>
   </g>
   <g id="patch_6">
    <path d="M 286.56 76.32 
L 402.48 76.32 
Q 406.8 76.32 406.8 80.64 
L 406.8 195.84 
Q 406.8 200.16 402.48 200.16 
L 286.56 200.16 
Q 282.24 200.16 282.24 195.84 
L 282.24 80.64 
Q 282.24 76.32 286.56 76.32 
z
" clip-path="url(#p1ecda475c8)" style="fill: #e8a838"/>
   </g>
   <g id="patch_7">
    <path d="M 414 76.32 
L 529.92 76.32 
Q 534.24 76.32 534.24 80.64 
L 534.24 195.84 
Q 534.24 200.16 529.92 200.16 
L 414 200.16 
Q 409.68 200.16 409.68 195.84 
L 409.68 80.64 
Q 409.68 76.32 414 76.32 
z
" clip-path="url(#p1ecda475c8)" style="fill: #c0392b"/>
   </g>
   <g id="patch_8">
    <path d="M 541.44 76.32 
L 657.36 76.32 
Q 661.68 76.32 661.68 80.64 
L 661.68 195.84 
Q 661.68 200.16 657.36 200.16 
L 541.44 200.16 
Q 537.12 200.16 537.12 195.84 
L 537.12 80.64 
Q 537.12 76.32 541.44 76.32 
z
" clip-path="url(#p1ecda475c8)" style="fill: #8e44ad"/>
   </g>
   <g id="patch_9">
    <path d="M 31.68 211.68 
L 659.52 211.68 
L 659.52 243.36 
L 31.68 243.36 
z
" clip-path="url(#p1ecda475c8)" style="fill: #fef9e7"/>
   </g>
   <g id="patch_10">
    <path d="M 31.68 211.68 
L 33.84 211.68 
L 33.84 243.36 
L 31.68 243.36 
z
" clip-path="url(#p1ecda475c8)" style="fill: #e8a838"/>
   </g>
   <g id="text_1">
    <!-- Ch.3 画像処理入門 -->
    <g style="fill: #ffffff" transform="translate(31.68 15.035312) scale(0.1 -0.1)">
     <defs>
      <path id="IPAexGothic-43" d="M 4353 1088 
Q 4181 694 3859 428 
Q 3313 -31 2559 -31 
Q 1588 -31 959 653 
Q 378 1294 378 2331 
Q 378 3406 1013 4078 
Q 1619 4725 2534 4725 
Q 3813 4725 4322 3628 
L 3809 3391 
Q 3425 4238 2541 4238 
Q 1891 4238 1453 3744 
Q 994 3216 994 2322 
Q 994 1550 1384 1056 
Q 1841 472 2563 472 
Q 3456 472 3878 1319 
L 4353 1088 
z
" transform="scale(0.015625)"/>
      <path id="IPAexGothic-68" d="M 3347 63 
L 2797 63 
L 2797 2041 
Q 2797 2853 2131 2853 
Q 1447 2853 1131 2041 
L 1131 63 
L 581 63 
L 581 4794 
L 1131 4794 
L 1131 2706 
Q 1566 3316 2247 3316 
Q 3347 3316 3347 2072 
L 3347 63 
z
" transform="scale(0.015625)"/>
      <path id="IPAexGothic-2e" d="M 1184 63 
L 494 63 
L 494 753 
L 1184 753 
L 1184 63 
z
" transform="scale(0.015625)"/>
      <path id="IPAexGothic-33" d="M 2381 2419 
Q 3506 2216 3506 1278 
Q 3506 716 3128 356 
Q 2709 -31 1944 -31 
Q 797 -31 288 881 
L 756 1131 
Q 1109 441 1938 441 
Q 2425 441 2694 691 
Q 2950 928 2950 1291 
Q 2950 1719 2566 1978 
Q 2216 2213 1644 2213 
L 1363 2213 
L 1363 2669 
L 1656 2669 
Q 2231 2669 2534 2888 
Q 2859 3119 2859 3509 
Q 2859 3934 2494 4138 
Q 2259 4278 1931 4278 
Q 1238 4278 903 3578 
L 434 3803 
Q 897 4725 1938 4725 
Q 2597 4725 3006 4394 
Q 3416 4069 3416 3534 
Q 3416 3028 3019 2706 
Q 2763 2500 2381 2444 
L 2381 2419 
z
" transform="scale(0.015625)"/>
      <path id="IPAexGothic-20" transform="scale(0.015625)"/>
      <path id="IPAexGothic-753b" d="M 2966 3713 
L 2966 4447 
L 353 4447 
L 353 4856 
L 6041 4856 
L 6041 4447 
L 3406 4447 
L 3406 3713 
L 4769 3713 
L 4769 825 
L 1634 825 
L 1634 3713 
L 2966 3713 
z
M 2978 3334 
L 2050 3334 
L 2050 2484 
L 2978 2484 
L 2978 3334 
z
M 3394 3334 
L 3394 2484 
L 4347 2484 
L 4347 3334 
L 3394 3334 
z
M 2978 2119 
L 2050 2119 
L 2050 1197 
L 2978 1197 
L 2978 2119 
z
M 3394 2119 
L 3394 1197 
L 4347 1197 
L 4347 2119 
L 3394 2119 
z
M 1081 300 
L 5316 300 
L 5316 3603 
L 5756 3603 
L 5756 -450 
L 5316 -450 
L 5316 -97 
L 1081 -97 
L 1081 -450 
L 641 -450 
L 641 3603 
L 1081 3603 
L 1081 300 
z
" transform="scale(0.015625)"/>
      <path id="IPAexGothic-50cf" d="M 4000 2688 
L 3828 2688 
Q 3672 2513 3509 2369 
Q 4422 1550 4422 403 
Q 4422 -56 4263 -244 
Q 4119 -416 3744 -416 
Q 3369 -416 3053 -372 
L 2972 97 
Q 3334 -6 3681 -6 
Q 3913 -6 3963 147 
Q 3994 266 3994 453 
Q 3994 738 3919 1063 
Q 3194 234 2159 -238 
L 1859 116 
Q 2959 519 3778 1422 
Q 3716 1534 3638 1663 
Q 2925 953 2025 622 
L 1756 966 
Q 2638 1216 3438 1938 
Q 3350 2044 3247 2150 
Q 2759 1766 2031 1466 
L 1763 1791 
Q 2638 2094 3347 2688 
L 2197 2688 
L 2197 3488 
Q 2041 3344 1866 3200 
L 1641 3563 
Q 2566 4278 3053 5331 
L 3481 5222 
Q 3425 5113 3328 4922 
L 4550 4922 
L 4813 4722 
Q 4534 4325 4231 4013 
L 5619 4013 
L 5619 2688 
L 4384 2688 
Q 4525 2200 4744 1803 
Q 5209 2163 5581 2572 
L 5953 2291 
Q 5516 1872 4928 1491 
Q 5359 828 6059 300 
L 5728 -56 
Q 4450 1019 4000 2688 
z
M 2625 3034 
L 3694 3034 
L 3694 3659 
L 2625 3659 
L 2625 3034 
z
M 2703 4013 
L 3744 4013 
Q 4006 4275 4181 4550 
L 3106 4550 
Q 2903 4253 2703 4013 
z
M 4097 3034 
L 5184 3034 
L 5184 3659 
L 4097 3659 
L 4097 3034 
z
M 1394 3706 
L 1394 -447 
L 966 -447 
L 966 2694 
Q 750 2266 478 1863 
L 244 2259 
Q 1028 3500 1388 5306 
L 1816 5203 
Q 1634 4369 1394 3706 
z
" transform="scale(0.015625)"/>
      <path id="IPAexGothic-51e6" d="M 2144 1263 
Q 2538 638 3147 425 
Q 3628 253 4741 253 
Q 5266 253 6163 303 
Q 6038 63 6009 -216 
Q 5450 -234 5094 -234 
Q 3675 -234 3097 -38 
Q 2388 206 1919 884 
Q 1366 6 734 -478 
L 397 -106 
Q 1128 384 1675 1306 
Q 1341 1969 1138 2913 
Q 934 2309 606 1775 
L 306 2159 
Q 1069 3425 1319 5219 
L 1759 5116 
Q 1694 4763 1631 4481 
L 2650 4481 
L 2903 4275 
Q 2759 2447 2144 1263 
z
M 1900 1744 
Q 2356 2797 2469 4066 
L 1528 4066 
Q 1463 3822 1388 3625 
Q 1534 2575 1900 1744 
z
M 5056 4756 
L 5056 1466 
Q 5056 1263 5269 1263 
Q 5466 1263 5484 1475 
Q 5506 1600 5516 2081 
L 5525 2222 
L 5953 2069 
Q 5944 1234 5831 1038 
Q 5728 859 5216 859 
Q 4888 859 4750 950 
Q 4622 1038 4622 1294 
L 4622 4353 
L 3872 4353 
L 3872 3759 
Q 3872 2544 3744 1916 
Q 3600 1244 3141 706 
L 2813 1025 
Q 3256 1563 3372 2369 
Q 3428 2809 3428 3566 
L 3428 4756 
L 5056 4756 
z
" transform="scale(0.015625)"/>
      <path id="IPAexGothic-7406" d="M 1541 4397 
L 1541 3084 
L 2219 3084 
L 2219 2688 
L 1541 2688 
L 1541 1247 
Q 1919 1356 2397 1522 
L 2431 1144 
Q 1353 713 434 472 
L 263 909 
Q 763 1025 1113 1119 
L 1113 2688 
L 441 2688 
L 441 3084 
L 1113 3084 
L 1113 4397 
L 369 4397 
L 369 4800 
L 2347 4800 
L 2347 4397 
L 1541 4397 
z
M 5691 4991 
L 5691 2106 
L 4378 2106 
L 4378 1375 
L 5825 1375 
L 5825 984 
L 4378 984 
L 4378 206 
L 6081 206 
L 6081 -191 
L 2150 -191 
L 2150 206 
L 3944 206 
L 3944 984 
L 2559 984 
L 2559 1375 
L 3944 1375 
L 3944 2106 
L 2675 2106 
L 2675 4991 
L 5691 4991 
z
M 3091 4606 
L 3091 3750 
L 3956 3750 
L 3956 4606 
L 3091 4606 
z
M 3091 3378 
L 3091 2491 
L 3956 2491 
L 3956 3378 
L 3091 3378 
z
M 5275 2491 
L 5275 3378 
L 4366 3378 
L 4366 2491 
L 5275 2491 
z
M 5275 3750 
L 5275 4606 
L 4366 4606 
L 4366 3750 
L 5275 3750 
z
" transform="scale(0.015625)"/>
      <path id="IPAexGothic-5165" d="M 3275 3078 
Q 2806 619 819 -334 
L 447 91 
Q 2934 1156 3000 4550 
L 1472 4550 
L 1472 4984 
L 3525 4984 
L 3525 4728 
Q 3525 3053 4116 2041 
Q 4734 972 6022 275 
L 5650 -200 
Q 3697 1044 3275 3078 
z
" transform="scale(0.015625)"/>
      <path id="IPAexGothic-9580" d="M 2894 4984 
L 2894 2388 
L 2453 2388 
L 2453 2688 
L 1109 2688 
L 1109 -447 
L 641 -447 
L 641 4984 
L 2894 4984 
z
M 1109 4588 
L 1109 4019 
L 2453 4019 
L 2453 4588 
L 1109 4588 
z
M 1109 3659 
L 1109 3072 
L 2453 3072 
L 2453 3659 
L 1109 3659 
z
M 5747 4984 
L 5747 178 
Q 5747 -166 5581 -281 
Q 5441 -384 5075 -384 
Q 4575 -384 4153 -341 
L 4066 166 
Q 4616 97 5013 97 
Q 5288 97 5288 331 
L 5288 2688 
L 3903 2688 
L 3903 2388 
L 3463 2388 
L 3463 4984 
L 5747 4984 
z
M 3903 4588 
L 3903 4019 
L 5288 4019 
L 5288 4588 
L 3903 4588 
z
M 3903 3659 
L 3903 3072 
L 5288 3072 
L 5288 3659 
L 3903 3659 
z
" transform="scale(0.015625)"/>
     </defs>
     <use xlink:href="#IPAexGothic-43"/>
     <use xlink:href="#IPAexGothic-68" x="72.509766"/>
     <use xlink:href="#IPAexGothic-2e" x="133.203125"/>
     <use xlink:href="#IPAexGothic-33" x="159.619141"/>
     <use xlink:href="#IPAexGothic-20" x="222.607422"/>
     <use xlink:href="#IPAexGothic-753b" x="249.609375"/>
     <use xlink:href="#IPAexGothic-50cf" x="349.609375"/>
     <use xlink:href="#IPAexGothic-51e6" x="449.609375"/>
     <use xlink:href="#IPAexGothic-7406" x="549.609375"/>
     <use xlink:href="#IPAexGothic-5165" x="649.609375"/>
     <use xlink:href="#IPAexGothic-9580" x="749.609375"/>
    </g>
   </g>
   <g id="text_2">
    <!-- なぜ画像処理を学ぶのか -->
    <g style="fill: #1a1a2e" transform="translate(31.68 55.4175) scale(0.24 -0.24)">
     <defs>
      <path id="IPAexGothic-306a" d="M 3906 3147 
L 4372 3147 
Q 4381 2278 4444 1272 
Q 5244 1003 5838 631 
L 5556 222 
Q 4953 600 4463 813 
Q 4478 263 4234 22 
Q 3984 -225 3419 -225 
Q 2897 -225 2563 0 
Q 2216 231 2216 647 
Q 2216 1081 2656 1319 
Q 2959 1484 3297 1484 
Q 3638 1484 3969 1413 
Q 3916 2219 3906 3147 
z
M 3975 984 
Q 3631 1081 3297 1081 
Q 3031 1081 2856 978 
Q 2663 863 2663 653 
Q 2663 197 3400 197 
Q 3750 197 3875 378 
Q 3997 556 3975 984 
z
M 738 3928 
Q 1453 3884 1997 3938 
Q 2144 4381 2294 5125 
L 2784 5050 
Q 2684 4559 2516 3988 
Q 2969 4031 3559 4172 
L 3578 3713 
Q 2919 3575 2375 3531 
Q 1853 2028 1044 831 
L 603 1113 
Q 1325 2063 1856 3488 
Q 1063 3459 763 3475 
L 738 3928 
z
M 5538 2759 
Q 5000 3353 4263 3853 
L 4591 4191 
Q 5338 3728 5897 3128 
L 5538 2759 
z
" transform="scale(0.015625)"/>
      <path id="IPAexGothic-305c" d="M 3978 4897 
L 4466 4897 
L 4466 3450 
L 5847 3513 
L 5866 3091 
L 4466 3028 
L 4466 1838 
Q 4466 1338 3959 1338 
Q 3528 1338 3134 1491 
L 3134 1972 
Q 3541 1791 3781 1791 
Q 3978 1791 3978 2003 
L 3978 3003 
L 2156 2919 
L 2156 1019 
Q 2156 588 2516 500 
Q 2750 438 3575 438 
Q 4350 438 5138 519 
L 5156 19 
Q 4366 -44 3606 -44 
Q 2422 -44 2047 147 
Q 1663 350 1663 884 
L 1663 2894 
L 453 2834 
L 434 3263 
L 1663 3322 
L 1663 4581 
L 2156 4581 
L 2156 3341 
L 3978 3431 
L 3978 4897 
z
M 5259 3928 
Q 5041 4466 4775 4878 
L 5131 5075 
Q 5431 4616 5644 4141 
L 5259 3928 
z
M 5913 4281 
Q 5691 4778 5400 5184 
L 5741 5369 
Q 6053 4997 6272 4494 
L 5913 4281 
z
" transform="scale(0.015625)"/>
      <path id="IPAexGothic-3092" d="M 1094 4263 
Q 1544 4222 2359 4222 
Q 2581 4734 2700 5163 
L 3175 5028 
Q 2997 4538 2859 4256 
Q 3516 4284 4294 4459 
L 4356 4019 
Q 3603 3869 2656 3819 
Q 2391 3284 2059 2797 
Q 2531 3200 2963 3200 
Q 3638 3200 3859 2378 
Q 4556 2681 5338 2950 
L 5575 2528 
Q 4641 2253 3941 1956 
Q 3981 1678 3994 1028 
L 3513 991 
Q 3513 1456 3494 1753 
Q 2388 1194 2388 716 
Q 2388 428 2753 328 
Q 3066 241 3806 241 
Q 4394 241 5178 344 
L 5216 -128 
Q 4434 -213 3653 -213 
Q 2656 -213 2244 41 
Q 1913 244 1913 631 
Q 1913 1094 2344 1497 
Q 2709 1841 3428 2181 
Q 3266 2797 2878 2797 
Q 2238 2797 1209 1419 
L 838 1694 
Q 1625 2716 2163 3800 
Q 1522 3800 1088 3825 
L 1094 4263 
z
" transform="scale(0.015625)"/>
      <path id="IPAexGothic-5b66" d="M 1706 4050 
L 1688 4088 
Q 1525 4513 1244 4959 
L 1681 5150 
Q 1947 4791 2200 4216 
L 1763 4050 
L 3941 4050 
Q 4359 4628 4653 5234 
L 5138 5016 
Q 4822 4488 4472 4050 
L 5797 4050 
L 5797 2675 
L 5338 2675 
L 5338 3653 
L 1072 3653 
L 1072 2675 
L 613 2675 
L 613 4050 
L 1706 4050 
z
M 3444 1888 
L 3444 1650 
L 6078 1650 
L 6078 1241 
L 3475 1241 
L 3475 91 
Q 3475 -428 2834 -428 
Q 2319 -428 1875 -366 
L 1784 128 
Q 2278 25 2744 25 
Q 2994 25 2994 263 
L 2994 1241 
L 319 1241 
L 319 1650 
L 2969 1650 
L 2969 2113 
L 3000 2125 
Q 3559 2338 4116 2675 
L 1466 2675 
L 1466 3078 
L 4756 3078 
L 5019 2822 
Q 4338 2309 3444 1888 
z
M 3019 4072 
Q 2831 4609 2572 5044 
L 3006 5228 
Q 3275 4822 3500 4250 
L 3019 4072 
z
" transform="scale(0.015625)"/>
      <path id="IPAexGothic-3076" d="M 5819 4031 
Q 5456 4575 5063 4903 
L 5363 5131 
Q 5747 4825 6138 4306 
L 5819 4031 
z
M 5222 3566 
Q 4931 4056 4488 4456 
L 4800 4700 
Q 5172 4391 5556 3841 
L 5222 3566 
z
M 2009 997 
Q 2222 709 2531 525 
Q 2828 347 3103 347 
Q 3659 347 3659 878 
Q 3659 1244 3269 1625 
Q 2878 2003 2775 2256 
Q 2631 2603 2650 3263 
L 3116 3263 
Q 3072 2688 3213 2406 
Q 3278 2269 3453 2084 
Q 3497 2038 3619 1913 
Q 3703 1828 3756 1772 
Q 4153 1356 4153 850 
Q 4153 447 3928 184 
Q 3663 -128 3122 -128 
Q 2372 -128 1722 594 
L 2009 997 
z
M 5541 616 
Q 5031 1697 4325 2456 
L 4691 2766 
Q 5497 1941 5991 934 
L 5541 616 
z
M 3916 3706 
Q 3091 4259 2247 4581 
L 2491 4972 
Q 3334 4659 4184 4128 
L 3916 3706 
z
M 281 703 
Q 944 1434 1313 2503 
L 1778 2303 
Q 1369 1169 697 353 
L 281 703 
z
" transform="scale(0.015625)"/>
      <path id="IPAexGothic-306e" d="M 3119 469 
Q 5275 766 5275 2425 
Q 5275 3453 4413 3925 
Q 4041 4116 3547 4159 
Q 3394 2525 2850 1400 
Q 2322 306 1722 306 
Q 1384 306 1084 666 
Q 609 1244 609 2003 
Q 609 3025 1397 3794 
Q 2184 4563 3431 4563 
Q 4306 4563 4928 4122 
Q 5813 3506 5813 2425 
Q 5813 438 3431 6 
L 3119 469 
z
M 3053 4147 
Q 2378 4044 1891 3641 
Q 1097 2981 1097 1991 
Q 1097 1366 1434 978 
Q 1581 813 1719 813 
Q 2022 813 2416 1625 
Q 2909 2638 3053 4147 
z
" transform="scale(0.015625)"/>
      <path id="IPAexGothic-304b" d="M 659 3384 
Q 1434 3503 2113 3581 
Q 2313 4341 2394 4972 
L 2900 4875 
Q 2759 4147 2619 3628 
L 2719 3634 
Q 2894 3641 3041 3641 
Q 4072 3641 4072 2369 
Q 4072 1128 3700 384 
Q 3478 -56 3003 -56 
Q 2591 -56 2113 231 
L 2138 775 
Q 2631 444 2925 444 
Q 3169 444 3297 706 
Q 3566 1294 3566 2388 
Q 3566 3219 3016 3219 
Q 2825 3219 2497 3194 
Q 2388 2763 2113 2047 
Q 1634 797 1119 -38 
L 678 244 
Q 1356 1238 1863 2750 
Q 1888 2819 1991 3128 
Q 1594 3081 769 2916 
L 659 3384 
z
M 5644 1753 
Q 5072 3025 4238 3916 
L 4641 4184 
Q 5494 3275 6081 2094 
L 5644 1753 
z
" transform="scale(0.015625)"/>
     </defs>
     <use xlink:href="#IPAexGothic-306a"/>
     <use xlink:href="#IPAexGothic-305c" x="100"/>
     <use xlink:href="#IPAexGothic-753b" x="200"/>
     <use xlink:href="#IPAexGothic-50cf" x="300"/>
     <use xlink:href="#IPAexGothic-51e6" x="400"/>
     <use xlink:href="#IPAexGothic-7406" x="500"/>
     <use xlink:href="#IPAexGothic-3092" x="600"/>
     <use xlink:href="#IPAexGothic-5b66" x="700"/>
     <use xlink:href="#IPAexGothic-3076" x="800"/>
     <use xlink:href="#IPAexGothic-306e" x="900"/>
     <use xlink:href="#IPAexGothic-304b" x="1000"/>
    </g>
   </g>
   <g id="text_3">
    <!-- 画像はデータの一種 → Python で扱える → 実務で広く使われている -->
    <g style="fill: #7f8c8d" transform="translate(31.68 73.205625) scale(0.13 -0.13)">
     <defs>
      <path id="IPAexGothic-306f" d="M 4066 4875 
L 4538 4875 
L 4556 3769 
Q 5003 3816 5581 3941 
L 5619 3469 
Q 5256 3394 4563 3322 
L 4597 1441 
Q 5100 1284 5934 756 
L 5656 313 
Q 5066 772 4609 978 
Q 4609 441 4384 225 
Q 4128 -13 3634 -13 
Q 2991 -13 2669 231 
Q 2388 444 2388 831 
Q 2388 1225 2772 1484 
Q 3050 1669 3534 1669 
Q 3759 1669 4134 1594 
L 4097 3288 
Q 3697 3269 3359 3269 
Q 2925 3269 2484 3300 
L 2466 3763 
Q 2953 3716 3456 3716 
Q 3738 3716 4091 3738 
L 4066 4875 
z
M 4141 1153 
Q 3753 1259 3513 1259 
Q 2841 1259 2841 850 
Q 2841 422 3634 422 
Q 3888 422 4022 569 
Q 4141 700 4141 922 
Q 4141 1088 4141 1153 
z
M 1000 -50 
Q 794 1072 794 1931 
Q 794 3153 1247 4884 
L 1728 4763 
Q 1269 3044 1269 1900 
Q 1269 1569 1306 1106 
Q 1591 1706 1753 1997 
L 2075 1806 
Q 1484 716 1484 141 
Q 1484 72 1491 0 
L 1000 -50 
z
" transform="scale(0.015625)"/>
      <path id="IPAexGothic-30c7" d="M 563 3072 
L 5741 3072 
L 5741 2613 
L 3578 2613 
Q 3538 1516 3134 872 
Q 2688 156 1663 -256 
L 1313 156 
Q 2338 538 2713 1166 
Q 3003 1644 3034 2613 
L 563 2613 
L 563 3072 
z
M 1406 4588 
L 4588 4588 
L 4588 4128 
L 1406 4128 
L 1406 4588 
z
M 6009 4469 
Q 5647 5009 5253 5338 
L 5553 5569 
Q 5938 5259 6328 4744 
L 6009 4469 
z
M 5413 4000 
Q 5125 4491 4678 4891 
L 4991 5131 
Q 5363 4825 5747 4275 
L 5413 4000 
z
" transform="scale(0.015625)"/>
      <path id="IPAexGothic-30fc" d="M 588 2688 
L 5809 2688 
L 5809 2175 
L 588 2175 
L 588 2688 
z
" transform="scale(0.015625)"/>
      <path id="IPAexGothic-30bf" d="M 4978 4263 
L 5313 3988 
Q 4797 2431 4056 1459 
Q 3191 325 1822 -300 
L 1466 109 
Q 2131 381 2613 738 
Q 3053 1066 3531 1600 
Q 2919 2225 2144 2791 
Q 1603 2203 1172 1875 
L 825 2234 
Q 2316 3328 2866 5031 
L 3359 4897 
Q 3325 4775 3109 4263 
L 4978 4263 
z
M 2894 3816 
Q 2709 3522 2438 3169 
Q 3194 2616 3841 2003 
Q 4366 2806 4747 3816 
L 2894 3816 
z
" transform="scale(0.015625)"/>
      <path id="IPAexGothic-4e00" d="M 513 2847 
L 5881 2847 
L 5881 2328 
L 513 2328 
L 513 2847 
z
" transform="scale(0.015625)"/>
      <path id="IPAexGothic-7a2e" d="M 1269 2366 
Q 959 1388 456 659 
L 238 1100 
Q 878 2028 1203 3128 
L 328 3128 
L 328 3531 
L 1269 3531 
L 1269 4453 
Q 919 4388 525 4338 
L 347 4703 
Q 1372 4850 2144 5131 
L 2484 4766 
Q 2019 4622 1691 4544 
L 1691 3531 
L 2419 3531 
L 2419 3128 
L 1691 3128 
L 1691 2669 
Q 2081 2350 2478 1913 
L 2203 1509 
Q 1934 1897 1691 2169 
L 1691 -450 
L 1269 -450 
L 1269 2366 
z
M 3963 3297 
L 3963 3703 
L 2350 3703 
L 2350 4063 
L 3963 4063 
L 3963 4497 
L 3872 4491 
Q 3219 4431 2722 4409 
L 2541 4784 
Q 4100 4831 5350 5119 
L 5678 4741 
Q 5128 4634 4378 4544 
L 4378 4063 
L 6013 4063 
L 6013 3703 
L 4378 3703 
L 4378 3297 
L 5641 3297 
L 5641 1313 
L 4378 1313 
L 4378 872 
L 5750 872 
L 5750 525 
L 4378 525 
L 4378 78 
L 6069 78 
L 6069 -288 
L 2297 -288 
L 2297 78 
L 3963 78 
L 3963 525 
L 2613 525 
L 2613 872 
L 3963 872 
L 3963 1313 
L 2728 1313 
L 2728 3297 
L 3963 3297 
z
M 3975 2956 
L 3138 2956 
L 3138 2472 
L 3975 2472 
L 3975 2956 
z
M 4366 2956 
L 4366 2472 
L 5238 2472 
L 5238 2956 
L 4366 2956 
z
M 3975 2159 
L 3138 2159 
L 3138 1653 
L 3975 1653 
L 3975 2159 
z
M 4366 2159 
L 4366 1653 
L 5238 1653 
L 5238 2159 
L 4366 2159 
z
" transform="scale(0.015625)"/>
      <path id="IPAexGothic-2192" d="M 3947 3572 
L 4631 3572 
L 6072 2431 
L 4631 1294 
L 3947 1294 
L 5094 2194 
L 459 2194 
L 459 2669 
L 5094 2669 
L 3947 3572 
z
" transform="scale(0.015625)"/>
      <path id="IPAexGothic-50" d="M 609 4634 
L 1941 4634 
Q 3688 4634 3688 3322 
Q 3688 1934 1906 1934 
L 1172 1934 
L 1172 63 
L 609 63 
L 609 4634 
z
M 1172 2381 
L 1800 2381 
Q 3100 2381 3100 3316 
Q 3100 4181 1894 4181 
L 1172 4181 
L 1172 2381 
z
" transform="scale(0.015625)"/>
      <path id="IPAexGothic-79" d="M 3122 3250 
L 1575 -488 
Q 1278 -1203 550 -1203 
L 478 -1203 
L 344 -703 
L 447 -703 
Q 969 -703 1150 -238 
L 1356 275 
L 38 3250 
L 659 3250 
L 1363 1459 
Q 1528 1025 1606 781 
L 1625 781 
Q 1750 1169 1863 1459 
L 2528 3250 
L 3122 3250 
z
" transform="scale(0.015625)"/>
      <path id="IPAexGothic-74" d="M 2125 241 
Q 1769 -6 1397 -6 
Q 653 -6 653 831 
L 653 2859 
L 219 2859 
L 219 3250 
L 653 3250 
L 653 3966 
L 1178 4228 
L 1178 3250 
L 2063 3250 
L 2063 2859 
L 1178 2859 
L 1178 906 
Q 1178 416 1513 416 
Q 1738 416 1941 588 
L 2125 241 
z
" transform="scale(0.015625)"/>
      <path id="IPAexGothic-6f" d="M 1919 3341 
Q 2594 3341 3056 2888 
Q 3531 2413 3531 1638 
Q 3531 888 3066 422 
Q 2609 -31 1919 -31 
Q 1228 -31 781 416 
Q 313 881 313 1656 
Q 313 2413 788 2888 
Q 1241 3341 1919 3341 
z
M 1919 2919 
Q 1519 2919 1241 2631 
Q 888 2278 888 1650 
Q 888 1031 1234 684 
Q 1516 403 1919 403 
Q 2331 403 2609 691 
Q 2956 1038 2956 1672 
Q 2956 2269 2603 2631 
Q 2316 2919 1919 2919 
z
" transform="scale(0.015625)"/>
      <path id="IPAexGothic-6e" d="M 3328 63 
L 2778 63 
L 2778 2041 
Q 2778 2853 2106 2853 
Q 1428 2853 1113 2041 
L 1113 63 
L 563 63 
L 563 3250 
L 1075 3250 
L 1075 2675 
Q 1525 3316 2222 3316 
Q 3328 3316 3328 2072 
L 3328 63 
z
" transform="scale(0.015625)"/>
      <path id="IPAexGothic-3067" d="M 581 4034 
Q 2978 4363 5466 4556 
L 5509 4097 
Q 4388 4031 3750 3572 
Q 2797 2878 2797 1913 
Q 2797 1169 3291 819 
Q 3778 484 4869 416 
L 4906 -116 
Q 2278 0 2278 1850 
Q 2278 3125 3691 4000 
Q 2066 3784 684 3553 
L 581 4034 
z
M 5631 2522 
Q 5269 3063 4875 3391 
L 5175 3622 
Q 5559 3313 5950 2797 
L 5631 2522 
z
M 5034 2053 
Q 4747 2544 4300 2944 
L 4613 3184 
Q 4984 2878 5369 2328 
L 5034 2053 
z
" transform="scale(0.015625)"/>
      <path id="IPAexGothic-6271" d="M 3441 2641 
Q 3359 1775 3225 1247 
Q 2969 272 2328 -475 
L 1997 -131 
Q 2775 700 2969 2091 
Q 3103 3053 3103 4519 
L 2481 4519 
L 2481 4928 
L 4959 4928 
L 5175 4731 
Q 4897 3616 4722 3128 
L 5650 3128 
Q 5438 1872 4863 978 
Q 5409 403 6078 25 
L 5759 -413 
Q 5109 13 4588 594 
Q 4022 -59 3256 -494 
L 2994 -91 
Q 3794 281 4306 925 
Q 3681 1734 3441 2641 
z
M 3519 4141 
Q 3522 4119 3525 4069 
Q 3528 4016 3531 3988 
Q 3713 2388 4569 1309 
Q 4969 1972 5119 2738 
L 4119 2738 
Q 4475 3647 4666 4519 
L 3525 4519 
Q 3519 4441 3519 4256 
L 3519 4141 
z
M 1297 4019 
L 1297 5313 
L 1750 5313 
L 1750 4019 
L 2488 4019 
L 2488 3603 
L 1750 3603 
L 1750 2406 
Q 1991 2475 2538 2638 
L 2575 2259 
Q 2269 2150 1828 2003 
L 1750 1978 
L 1750 -13 
Q 1750 -291 1609 -378 
Q 1500 -447 1219 -447 
Q 959 -447 606 -416 
L 522 56 
Q 859 0 1119 0 
Q 1297 0 1297 191 
L 1297 1838 
Q 894 1719 472 1619 
L 325 2053 
Q 894 2172 1297 2284 
L 1297 3603 
L 406 3603 
L 406 4019 
L 1297 4019 
z
" transform="scale(0.015625)"/>
      <path id="IPAexGothic-3048" d="M 3797 4038 
Q 3144 4428 2013 4709 
L 2266 5106 
Q 3388 4838 4078 4469 
L 3797 4038 
z
M 1263 3347 
Q 2566 3428 3956 3641 
L 4291 3263 
Q 3759 2741 2875 1778 
Q 3156 1881 3356 1881 
Q 3909 1881 3919 1253 
L 3931 709 
Q 3941 456 4116 409 
Q 4244 372 4519 372 
Q 4944 372 5538 481 
L 5581 -31 
Q 5097 -103 4675 -103 
Q 4047 -103 3791 25 
Q 3484 178 3463 594 
L 3444 1094 
Q 3434 1491 3150 1491 
Q 2800 1491 2322 1072 
Q 1950 747 1109 -184 
L 738 166 
Q 2053 1434 3597 3181 
Q 2600 2988 1391 2841 
L 1263 3347 
z
" transform="scale(0.015625)"/>
      <path id="IPAexGothic-308b" d="M 4391 4397 
L 2613 2588 
Q 3225 2809 3759 2809 
Q 4263 2809 4659 2625 
Q 5391 2269 5391 1484 
Q 5391 756 4706 275 
Q 4072 -166 3053 -166 
Q 2559 -166 2247 19 
Q 1863 250 1863 666 
Q 1863 934 2069 1141 
Q 2331 1403 2741 1403 
Q 3509 1403 4019 428 
Q 4872 784 4872 1491 
Q 4872 1981 4469 2222 
Q 4166 2406 3681 2406 
Q 2425 2406 1238 1209 
L 891 1581 
Q 2438 2934 3578 4281 
Q 2594 4125 1588 4066 
L 1478 4550 
Q 2594 4581 4109 4763 
L 4391 4397 
z
M 3591 303 
Q 3244 1025 2731 1025 
Q 2553 1025 2434 934 
Q 2316 844 2316 700 
Q 2316 250 3034 250 
Q 3275 250 3591 303 
z
" transform="scale(0.015625)"/>
      <path id="IPAexGothic-5b9f" d="M 3525 1275 
Q 4288 350 6022 91 
L 5738 -375 
Q 3953 -41 3219 1050 
Q 2731 -144 728 -472 
L 466 -44 
Q 2422 150 2872 1275 
L 384 1275 
L 384 1659 
L 2950 1659 
L 2950 2144 
L 966 2144 
L 966 2509 
L 2950 2509 
L 2950 2969 
L 1266 2969 
L 1266 3341 
L 2950 3341 
L 2950 3988 
L 3403 3988 
L 3403 3341 
L 5125 3341 
L 5125 2969 
L 3403 2969 
L 3403 2509 
L 5444 2509 
L 5444 2144 
L 3403 2144 
L 3403 1659 
L 6016 1659 
L 6016 1275 
L 3525 1275 
z
M 3413 4544 
L 5778 4544 
L 5778 3269 
L 5309 3269 
L 5309 4147 
L 1084 4147 
L 1084 3269 
L 616 3269 
L 616 4544 
L 2938 4544 
L 2938 5313 
L 3413 5313 
L 3413 4544 
z
" transform="scale(0.015625)"/>
      <path id="IPAexGothic-52d9" d="M 4500 1497 
Q 4394 150 2881 -475 
L 2569 -103 
Q 3894 350 4066 1466 
L 2888 1466 
L 2888 1856 
L 4084 1856 
L 4084 2522 
L 4513 2522 
L 4513 1881 
L 5806 1881 
Q 5788 431 5666 13 
Q 5559 -359 5069 -359 
Q 4772 -359 4353 -313 
L 4281 141 
Q 4597 56 4947 56 
Q 5225 56 5275 325 
Q 5347 653 5378 1497 
L 4500 1497 
z
M 4200 3206 
Q 3825 3531 3584 3891 
Q 3381 3553 3125 3269 
L 2841 3578 
Q 3497 4338 3725 5319 
L 4134 5209 
Q 4050 4903 3963 4666 
L 5928 4666 
L 5928 4281 
L 5434 4281 
Q 5256 3725 4819 3231 
Q 5353 2906 6100 2725 
L 5856 2347 
Q 5078 2616 4531 2963 
Q 3975 2506 3144 2241 
L 2913 2597 
Q 3722 2828 4200 3206 
z
M 4481 3469 
Q 4838 3866 5000 4281 
L 3797 4281 
L 3788 4263 
L 3775 4244 
Q 4056 3806 4481 3469 
z
M 1503 1856 
Q 1119 972 491 366 
L 256 750 
Q 1081 1516 1453 2559 
L 378 2559 
L 378 2950 
L 2719 2950 
L 2922 2759 
Q 2741 2003 2456 1428 
L 2091 1619 
Q 2294 2041 2456 2559 
L 1919 2559 
L 1919 -13 
Q 1919 -459 1425 -459 
Q 1178 -459 831 -403 
L 772 38 
Q 1069 -38 1303 -38 
Q 1503 -38 1503 191 
L 1503 1856 
z
M 1856 3638 
Q 1928 3559 2150 3284 
L 1806 3003 
Q 1397 3597 884 4034 
L 1197 4263 
Q 1400 4100 1600 3900 
Q 2013 4281 2278 4628 
L 563 4628 
L 563 5019 
L 2663 5019 
L 2906 4763 
Q 2463 4184 1856 3638 
z
" transform="scale(0.015625)"/>
      <path id="IPAexGothic-5e83" d="M 3522 4313 
L 5744 4313 
L 5744 3884 
L 1434 3884 
L 1434 2925 
Q 1434 1584 1256 813 
Q 1109 150 769 -378 
L 403 19 
Q 772 622 875 1428 
Q 959 1991 959 2925 
L 959 4313 
L 3034 4313 
L 3034 5209 
L 3522 5209 
L 3522 4313 
z
M 2125 434 
Q 2738 1709 3194 3628 
L 3681 3500 
Q 3231 1713 2631 475 
L 3066 500 
Q 3813 553 4856 678 
Q 4459 1344 3969 2003 
L 4331 2247 
Q 5209 1131 5838 38 
L 5409 -294 
Q 5266 -25 5075 313 
Q 3734 63 1684 -109 
L 1497 403 
Q 1816 413 2125 434 
z
" transform="scale(0.015625)"/>
      <path id="IPAexGothic-304f" d="M 4022 -300 
Q 3050 984 1863 2047 
Q 1538 2338 1538 2522 
Q 1538 2700 1953 3041 
Q 3144 4019 3816 5094 
L 4256 4769 
Q 3456 3659 2234 2694 
Q 2106 2588 2106 2528 
Q 2106 2466 2344 2247 
Q 3591 1113 4444 103 
L 4022 -300 
z
" transform="scale(0.015625)"/>
      <path id="IPAexGothic-4f7f" d="M 3700 3547 
L 3700 4103 
L 1894 4103 
L 1894 4500 
L 3700 4500 
L 3700 5306 
L 4141 5306 
L 4141 4500 
L 5981 4500 
L 5981 4103 
L 4141 4103 
L 4141 3547 
L 5638 3547 
L 5638 1484 
L 5209 1484 
L 5209 1809 
L 4134 1809 
Q 4106 1163 3922 741 
Q 4784 241 6103 19 
L 5816 -419 
Q 4619 -150 3713 394 
Q 3238 -234 2059 -541 
L 1772 -138 
Q 2941 75 3366 625 
Q 2925 963 2563 1322 
L 2884 1566 
Q 3213 1228 3553 978 
Q 3684 1363 3694 1809 
L 2634 1809 
L 2634 1484 
L 2206 1484 
L 2206 3547 
L 3700 3547 
z
M 3700 3163 
L 2634 3163 
L 2634 2194 
L 3700 2194 
L 3700 3163 
z
M 4141 3163 
L 4141 2194 
L 5209 2194 
L 5209 3163 
L 4141 3163 
z
M 1509 3769 
L 1509 -447 
L 1069 -447 
L 1069 2822 
Q 813 2363 531 1972 
L 288 2363 
Q 1147 3628 1528 5331 
L 1975 5222 
Q 1747 4356 1509 3769 
z
" transform="scale(0.015625)"/>
      <path id="IPAexGothic-308f" d="M 609 3672 
Q 1272 3750 1894 3884 
L 1934 4978 
L 2406 4972 
L 2369 3934 
L 2753 3634 
Q 2416 3238 2356 3153 
Q 2350 3078 2350 2853 
Q 3322 3616 4219 3616 
Q 4878 3616 5331 3200 
Q 5819 2750 5819 2028 
Q 5819 419 3584 -53 
L 3266 391 
Q 5294 766 5294 2034 
Q 5294 2534 5000 2847 
Q 4691 3175 4175 3175 
Q 3341 3175 2344 2303 
Q 2344 678 2369 -150 
L 1881 -150 
Q 1863 1200 1869 1888 
Q 1766 1781 866 716 
L 513 1081 
Q 1450 2088 1869 2469 
Q 1869 2500 1878 2947 
Q 1881 3225 1888 3456 
Q 1406 3319 744 3178 
L 609 3672 
z
" transform="scale(0.015625)"/>
      <path id="IPAexGothic-308c" d="M 538 3694 
Q 1275 3791 1800 3903 
L 1838 5006 
L 2316 5006 
L 2253 4006 
L 2619 3675 
Q 2428 3425 2247 3144 
Q 2241 3084 2241 2869 
Q 3341 4031 4134 4031 
Q 4856 4031 4856 3309 
Q 4856 3047 4794 2491 
Q 4719 1747 4719 1044 
Q 4719 672 4922 672 
Q 5084 672 5263 788 
Q 5613 1034 5850 1491 
L 6131 1025 
Q 5856 641 5600 447 
Q 5238 166 4866 166 
Q 4244 166 4244 1100 
Q 4244 1519 4350 2956 
Q 4369 3181 4369 3238 
Q 4369 3434 4297 3513 
Q 4231 3584 4081 3584 
Q 3438 3584 2228 2291 
Q 2222 1931 2222 1478 
Q 2222 753 2241 -159 
L 1747 -159 
Q 1747 1241 1753 1734 
Q 1544 1466 928 647 
L 531 991 
Q 1603 2291 1772 2478 
Q 1772 3038 1791 3469 
Q 1128 3284 653 3194 
L 538 3694 
z
" transform="scale(0.015625)"/>
      <path id="IPAexGothic-3066" d="M 581 4034 
Q 2978 4363 5466 4556 
L 5509 4097 
Q 4388 4031 3750 3572 
Q 2797 2878 2797 1913 
Q 2797 1169 3291 819 
Q 3778 484 4869 416 
L 4906 -116 
Q 2278 0 2278 1850 
Q 2278 3125 3691 4000 
Q 2066 3784 684 3553 
L 581 4034 
z
" transform="scale(0.015625)"/>
      <path id="IPAexGothic-3044" d="M 3369 1447 
Q 2906 122 2278 122 
Q 1966 122 1647 481 
Q 1209 966 1044 1966 
Q 891 2888 891 4313 
L 1422 4313 
Q 1413 2444 1666 1550 
Q 1913 678 2278 678 
Q 2619 678 2925 1791 
L 3369 1447 
z
M 5378 1294 
Q 4928 2797 4034 3809 
L 4488 4031 
Q 5375 3000 5881 1563 
L 5378 1294 
z
" transform="scale(0.015625)"/>
     </defs>
     <use xlink:href="#IPAexGothic-753b"/>
     <use xlink:href="#IPAexGothic-50cf" x="100"/>
     <use xlink:href="#IPAexGothic-306f" x="200"/>
     <use xlink:href="#IPAexGothic-30c7" x="300"/>
     <use xlink:href="#IPAexGothic-30fc" x="400"/>
     <use xlink:href="#IPAexGothic-30bf" x="500"/>
     <use xlink:href="#IPAexGothic-306e" x="600"/>
     <use xlink:href="#IPAexGothic-4e00" x="700"/>
     <use xlink:href="#IPAexGothic-7a2e" x="800"/>
     <use xlink:href="#IPAexGothic-20" x="900"/>
     <use xlink:href="#IPAexGothic-2192" x="927.001953"/>
     <use xlink:href="#IPAexGothic-20" x="1027.001953"/>
     <use xlink:href="#IPAexGothic-50" x="1054.003906"/>
     <use xlink:href="#IPAexGothic-79" x="1116.113281"/>
     <use xlink:href="#IPAexGothic-74" x="1165.332031"/>
     <use xlink:href="#IPAexGothic-68" x="1199.951172"/>
     <use xlink:href="#IPAexGothic-6f" x="1260.644531"/>
     <use xlink:href="#IPAexGothic-6e" x="1321.044922"/>
     <use xlink:href="#IPAexGothic-20" x="1381.445312"/>
     <use xlink:href="#IPAexGothic-3067" x="1408.447266"/>
     <use xlink:href="#IPAexGothic-6271" x="1508.447266"/>
     <use xlink:href="#IPAexGothic-3048" x="1608.447266"/>
     <use xlink:href="#IPAexGothic-308b" x="1708.447266"/>
     <use xlink:href="#IPAexGothic-20" x="1808.447266"/>
     <use xlink:href="#IPAexGothic-2192" x="1835.449219"/>
     <use xlink:href="#IPAexGothic-20" x="1935.449219"/>
     <use xlink:href="#IPAexGothic-5b9f" x="1962.451172"/>
     <use xlink:href="#IPAexGothic-52d9" x="2062.451172"/>
     <use xlink:href="#IPAexGothic-3067" x="2162.451172"/>
     <use xlink:href="#IPAexGothic-5e83" x="2262.451172"/>
     <use xlink:href="#IPAexGothic-304f" x="2362.451172"/>
     <use xlink:href="#IPAexGothic-4f7f" x="2462.451172"/>
     <use xlink:href="#IPAexGothic-308f" x="2562.451172"/>
     <use xlink:href="#IPAexGothic-308c" x="2662.451172"/>
     <use xlink:href="#IPAexGothic-3066" x="2762.451172"/>
     <use xlink:href="#IPAexGothic-3044" x="2862.451172"/>
     <use xlink:href="#IPAexGothic-308b" x="2962.451172"/>
    </g>
   </g>
   <g id="text_4">
    <!-- 🏭 製造業 -->
    <g style="fill: #ffffff" transform="translate(63.66 101.4) scale(0.12 -0.12)">
     <defs>
      <path id="IPAexGothic-1f3ed" d="M 5759 -641 
L 641 -641 
L 641 5503 
L 5759 5503 
L 5759 -641 
z
M 5216 5172 
L 1191 5172 
L 3206 2694 
L 5216 5172 
z
M 5428 -53 
L 5428 4903 
L 3419 2425 
L 5428 -53 
z
M 2988 2425 
L 972 4916 
L 972 -59 
L 2988 2425 
z
M 5209 -309 
L 3206 2163 
L 1197 -309 
L 5209 -309 
z
" transform="scale(0.015625)"/>
      <path id="IPAexGothic-88fd" d="M 3631 1484 
Q 3878 1044 4303 716 
Q 4828 1047 5263 1441 
L 5684 1222 
Q 5103 778 4641 494 
Q 5184 188 6094 -38 
L 5756 -434 
Q 3894 94 3206 1459 
Q 2853 1200 2334 928 
L 2334 147 
Q 3094 281 3731 428 
L 3759 63 
Q 2363 -281 1191 -469 
L 1025 -59 
Q 1666 31 1891 69 
L 1891 703 
Q 1266 406 506 166 
L 219 531 
Q 1606 872 2644 1484 
L 316 1484 
L 316 1850 
L 3084 1850 
L 3084 2216 
Q 2809 2225 2700 2241 
L 2625 2613 
Q 2819 2578 2956 2578 
Q 3091 2578 3091 2706 
L 3091 3072 
L 2313 3072 
L 2313 2131 
L 1909 2131 
L 1909 3072 
L 1213 3072 
L 1213 2175 
L 822 2175 
L 822 3391 
L 1909 3391 
L 1909 3722 
L 403 3722 
L 403 4063 
L 725 4063 
L 456 4306 
Q 850 4681 1081 5238 
L 1472 5122 
Q 1384 4934 1288 4763 
L 1909 4763 
L 1909 5313 
L 2313 5313 
L 2313 4763 
L 3597 4763 
L 3597 4422 
L 2313 4422 
L 2313 4063 
L 3828 4063 
L 3828 3722 
L 2313 3722 
L 2313 3391 
L 3491 3391 
L 3491 2541 
Q 3491 2325 3291 2241 
L 3534 2241 
L 3534 1850 
L 6081 1850 
L 6081 1484 
L 3631 1484 
z
M 1063 4422 
Q 900 4200 763 4063 
L 1909 4063 
L 1909 4422 
L 1063 4422 
z
M 4078 4978 
L 4503 4978 
L 4503 3003 
L 4078 3003 
L 4078 4978 
z
M 5263 5241 
L 5688 5241 
L 5688 2597 
Q 5688 2291 5556 2197 
Q 5450 2119 5172 2119 
Q 4863 2119 4469 2156 
L 4391 2591 
Q 4841 2522 5094 2522 
Q 5263 2522 5263 2706 
L 5263 5241 
z
" transform="scale(0.015625)"/>
      <path id="IPAexGothic-9020" d="M 1703 728 
Q 1884 472 2216 306 
Q 2647 94 3891 94 
Q 4778 94 6144 172 
Q 6025 -34 5978 -300 
Q 4853 -341 4263 -341 
Q 2941 -341 2425 -200 
Q 1844 -47 1525 391 
Q 1166 -31 647 -453 
L 366 13 
Q 916 350 1263 659 
L 1263 2303 
L 378 2303 
L 378 2731 
L 1703 2731 
L 1703 728 
z
M 2997 4409 
L 3747 4409 
L 3747 5338 
L 4188 5338 
L 4188 4409 
L 5594 4409 
L 5594 4038 
L 4188 4038 
L 4188 3238 
L 5953 3238 
L 5953 2853 
L 1909 2853 
L 1909 3238 
L 3747 3238 
L 3747 4038 
L 2850 4038 
Q 2681 3656 2453 3341 
L 2094 3616 
Q 2516 4200 2747 5131 
L 3184 5016 
Q 3078 4625 2997 4409 
z
M 5422 2363 
L 5422 622 
L 2503 622 
L 2503 2363 
L 5422 2363 
z
M 2944 1984 
L 2944 1000 
L 4981 1000 
L 4981 1984 
L 2944 1984 
z
M 1522 3775 
Q 1091 4313 556 4728 
L 872 5050 
Q 1475 4581 1863 4128 
L 1522 3775 
z
" transform="scale(0.015625)"/>
      <path id="IPAexGothic-696d" d="M 3397 2738 
L 3397 2350 
L 5328 2350 
L 5328 1984 
L 3397 1984 
L 3397 1594 
L 6016 1594 
L 6016 1209 
L 3831 1209 
Q 4706 509 6078 134 
L 5759 -288 
Q 4253 222 3397 1125 
L 3397 -447 
L 2956 -447 
L 2956 1106 
Q 2038 31 594 -416 
L 281 -38 
Q 1663 334 2566 1209 
L 384 1209 
L 384 1594 
L 2956 1594 
L 2956 1984 
L 1063 1984 
L 1063 2350 
L 2956 2350 
L 2956 2738 
L 769 2738 
L 769 3109 
L 2228 3109 
Q 2069 3519 1900 3769 
L 441 3769 
L 441 4141 
L 2413 4141 
L 2413 5313 
L 2853 5313 
L 2853 4141 
L 3500 4141 
L 3500 5313 
L 3941 5313 
L 3941 4141 
L 5950 4141 
L 5950 3769 
L 4447 3769 
Q 4294 3413 4106 3109 
L 5625 3109 
L 5625 2738 
L 3397 2738 
z
M 2406 3769 
Q 2581 3447 2694 3109 
L 3653 3109 
Q 3856 3463 3953 3769 
L 2406 3769 
z
M 1528 4166 
Q 1334 4656 1056 4984 
L 1484 5166 
Q 1728 4856 1966 4353 
L 1528 4166 
z
M 4366 4306 
Q 4678 4828 4819 5228 
L 5288 5069 
Q 5066 4606 4775 4166 
L 4366 4306 
z
" transform="scale(0.015625)"/>
     </defs>
     <use xlink:href="#IPAexGothic-1f3ed"/>
     <use xlink:href="#IPAexGothic-20" x="100"/>
     <use xlink:href="#IPAexGothic-88fd" x="127.001953"/>
     <use xlink:href="#IPAexGothic-9020" x="227.001953"/>
     <use xlink:href="#IPAexGothic-696d" x="327.001953"/>
    </g>
   </g>
   <g id="text_5">
    <!-- 製品の傷・欠陥を -->
    <g style="fill: #ffffff" transform="translate(43.28 123.814219) scale(0.115 -0.115)">
     <defs>
      <path id="IPAexGothic-54c1" d="M 4781 4947 
L 4781 2872 
L 1613 2872 
L 1613 4947 
L 4781 4947 
z
M 2066 4556 
L 2066 3263 
L 4334 3263 
L 4334 4556 
L 2066 4556 
z
M 2841 2291 
L 2841 -325 
L 2400 -325 
L 2400 0 
L 1088 0 
L 1088 -384 
L 647 -384 
L 647 2291 
L 2841 2291 
z
M 1088 1900 
L 1088 397 
L 2400 397 
L 2400 1900 
L 1088 1900 
z
M 5747 2291 
L 5747 -384 
L 5306 -384 
L 5306 0 
L 3950 0 
L 3950 -384 
L 3509 -384 
L 3509 2291 
L 5747 2291 
z
M 3950 1900 
L 3950 397 
L 5306 397 
L 5306 1900 
L 3950 1900 
z
" transform="scale(0.015625)"/>
      <path id="IPAexGothic-50b7" d="M 4838 1234 
Q 4409 106 3200 -494 
L 2881 -197 
Q 3972 294 4403 1234 
L 3803 1234 
Q 3294 344 2138 -184 
L 1850 134 
Q 2813 491 3366 1234 
L 2706 1234 
Q 2378 903 1966 678 
L 1659 966 
Q 2350 1313 2747 1863 
L 1709 1863 
L 1709 2216 
L 6034 2216 
L 6034 1863 
L 3206 1863 
Q 3125 1734 2997 1559 
L 5819 1559 
Q 5791 578 5684 72 
Q 5578 -422 5000 -422 
Q 4644 -422 4403 -384 
L 4334 72 
Q 4650 -6 4934 -6 
Q 5203 -6 5263 206 
Q 5347 503 5375 1234 
L 4838 1234 
z
M 2613 4084 
L 5256 4084 
L 5256 2522 
L 2516 2522 
L 2516 3944 
Q 2328 3638 2050 3347 
L 1741 3656 
Q 2406 4347 2681 5331 
L 3125 5250 
Q 3041 5000 2950 4756 
L 5756 4756 
L 5756 4403 
L 2791 4403 
Q 2728 4275 2613 4084 
z
M 4828 3759 
L 2938 3759 
L 2938 3469 
L 4828 3469 
L 4828 3759 
z
M 4828 3150 
L 2938 3150 
L 2938 2847 
L 4828 2847 
L 4828 3150 
z
M 1388 3713 
L 1388 -447 
L 953 -447 
L 953 2681 
Q 741 2253 481 1869 
L 244 2266 
Q 1034 3528 1381 5306 
L 1803 5203 
Q 1634 4422 1388 3713 
z
" transform="scale(0.015625)"/>
      <path id="IPAexGothic-30fb" d="M 2772 2859 
L 3628 2859 
L 3628 2003 
L 2772 2003 
L 2772 2859 
z
" transform="scale(0.015625)"/>
      <path id="IPAexGothic-6b20" d="M 3241 2347 
Q 2847 388 822 -372 
L 481 63 
Q 2931 784 2931 3403 
L 2931 3744 
L 1997 3744 
Q 1613 2813 1013 2125 
L 647 2491 
Q 1578 3516 1953 5241 
L 2441 5125 
Q 2322 4650 2159 4172 
L 5422 4172 
L 5769 3916 
Q 5253 2869 4725 2188 
L 4309 2481 
Q 4781 3025 5128 3744 
L 3419 3744 
L 3419 3384 
Q 3419 2472 4150 1522 
Q 4778 697 5972 209 
L 5600 -256 
Q 3700 741 3241 2347 
z
" transform="scale(0.015625)"/>
      <path id="IPAexGothic-9665" d="M 4659 2938 
L 5791 2938 
L 5791 -447 
L 5363 -447 
L 5363 -63 
L 3934 -63 
L 3934 -447 
L 3506 -447 
L 3506 2938 
L 4166 2938 
Q 4609 3572 4978 4366 
L 3800 4366 
Q 3450 3594 2950 3066 
L 2656 3391 
Q 3316 4081 3659 5300 
L 4113 5203 
Q 4019 4916 3959 4763 
L 5313 4763 
L 5572 4550 
Q 5109 3575 4659 2938 
z
M 5363 2553 
L 3934 2553 
L 3934 1647 
L 5363 1647 
L 5363 2553 
z
M 3934 1275 
L 3934 322 
L 5363 322 
L 5363 1275 
L 3934 1275 
z
M 1728 3059 
Q 2297 2363 2297 1478 
Q 2297 800 1706 800 
Q 1463 800 1197 844 
L 1125 1278 
Q 1378 1209 1606 1209 
Q 1875 1209 1875 1569 
Q 1875 2325 1278 3044 
Q 1575 3650 1856 4581 
L 978 4581 
L 978 -450 
L 544 -450 
L 544 4984 
L 2144 4984 
L 2366 4784 
Q 2063 3778 1728 3059 
z
M 2547 2938 
L 2988 2938 
L 2988 -447 
L 2547 -447 
L 2547 2938 
z
" transform="scale(0.015625)"/>
     </defs>
     <use xlink:href="#IPAexGothic-88fd"/>
     <use xlink:href="#IPAexGothic-54c1" x="100"/>
     <use xlink:href="#IPAexGothic-306e" x="200"/>
     <use xlink:href="#IPAexGothic-50b7" x="300"/>
     <use xlink:href="#IPAexGothic-30fb" x="400"/>
     <use xlink:href="#IPAexGothic-6b20" x="500"/>
     <use xlink:href="#IPAexGothic-9665" x="600"/>
     <use xlink:href="#IPAexGothic-3092" x="700"/>
    </g>
   </g>
   <g id="text_6">
    <!-- 自動検出 -->
    <g style="fill: #ffffff" transform="translate(66.28 139.654219) scale(0.115 -0.115)">
     <defs>
      <path id="IPAexGothic-81ea" d="M 2591 4353 
Q 2719 4766 2816 5294 
L 3359 5191 
Q 3250 4809 3072 4353 
L 5291 4353 
L 5291 -450 
L 4822 -450 
L 4822 -72 
L 1569 -72 
L 1569 -450 
L 1100 -450 
L 1100 4353 
L 2591 4353 
z
M 1569 3956 
L 1569 3028 
L 4822 3028 
L 4822 3956 
L 1569 3956 
z
M 1569 2644 
L 1569 1716 
L 4822 1716 
L 4822 2644 
L 1569 2644 
z
M 1569 1331 
L 1569 325 
L 4822 325 
L 4822 1331 
L 1569 1331 
z
" transform="scale(0.015625)"/>
      <path id="IPAexGothic-52d5" d="M 1803 3425 
L 1803 3794 
L 372 3794 
L 372 4147 
L 1803 4147 
L 1803 4556 
Q 1250 4500 634 4466 
L 506 4819 
Q 1997 4903 3091 5159 
L 3378 4794 
Q 2803 4678 2219 4606 
L 2219 4147 
L 3538 4147 
L 3538 3794 
L 2219 3794 
L 2219 3425 
L 3378 3425 
L 3378 1569 
L 2219 1569 
L 2219 1178 
L 3447 1178 
L 3447 825 
L 2219 825 
L 2219 384 
Q 2934 459 3544 569 
L 3544 231 
Q 2569 22 416 -206 
L 294 197 
Q 791 238 1284 288 
L 1803 338 
L 1803 825 
L 581 825 
L 581 1178 
L 1803 1178 
L 1803 1569 
L 678 1569 
L 678 3425 
L 1803 3425 
z
M 1816 3100 
L 1075 3100 
L 1075 2669 
L 1816 2669 
L 1816 3100 
z
M 2206 3100 
L 2206 2669 
L 2981 2669 
L 2981 3100 
L 2206 3100 
z
M 1816 2350 
L 1075 2350 
L 1075 1894 
L 1816 1894 
L 1816 2350 
z
M 2206 2350 
L 2206 1894 
L 2981 1894 
L 2981 2350 
L 2206 2350 
z
M 4806 3469 
Q 4797 2084 4628 1338 
Q 4375 250 3572 -459 
L 3238 -141 
Q 3975 481 4225 1550 
Q 4378 2213 4378 3413 
L 3559 3413 
L 3559 3828 
L 4384 3828 
L 4384 5209 
L 4813 5209 
L 4813 3878 
L 5931 3878 
Q 5931 941 5766 128 
Q 5669 -347 5144 -347 
Q 4838 -347 4500 -294 
L 4422 197 
Q 4797 100 5069 100 
Q 5294 100 5344 369 
Q 5484 1053 5503 3200 
L 5503 3469 
L 4806 3469 
z
" transform="scale(0.015625)"/>
      <path id="IPAexGothic-691c" d="M 4125 1119 
Q 3803 -72 2459 -481 
L 2178 -106 
Q 3588 250 3828 1438 
L 2997 1438 
L 2997 1113 
L 2581 1113 
L 2581 2869 
L 3850 2869 
L 3850 3353 
L 3188 3353 
L 3188 3566 
Q 2788 3166 2375 2888 
L 2094 3238 
Q 3263 3956 3753 5241 
L 4225 5241 
Q 4891 4109 6125 3403 
L 5816 3028 
Q 5425 3288 5013 3647 
L 5013 3353 
L 4266 3353 
L 4266 2869 
L 5575 2869 
L 5575 1150 
L 5159 1150 
L 5159 1438 
L 4359 1438 
Q 4781 466 6016 16 
L 5681 -394 
Q 4497 197 4125 1119 
z
M 3856 2516 
L 2997 2516 
L 2997 1784 
L 3856 1784 
L 3856 2516 
z
M 4259 2516 
L 4259 1784 
L 5159 1784 
L 5159 2516 
L 4259 2516 
z
M 3334 3725 
L 4928 3725 
Q 4363 4263 4016 4831 
Q 3759 4225 3334 3725 
z
M 1200 2594 
Q 928 1569 450 794 
L 188 1256 
Q 850 2238 1147 3547 
L 322 3547 
L 322 3956 
L 1200 3956 
L 1200 5306 
L 1622 5306 
L 1622 3956 
L 2325 3956 
L 2325 3547 
L 1622 3547 
L 1622 2900 
Q 2088 2484 2394 2119 
L 2141 1666 
Q 1897 2078 1622 2400 
L 1622 -447 
L 1200 -447 
L 1200 2594 
z
" transform="scale(0.015625)"/>
      <path id="IPAexGothic-51fa" d="M 3419 2956 
L 4928 2956 
L 4928 4500 
L 5397 4500 
L 5397 2203 
L 4928 2203 
L 4928 2541 
L 3419 2541 
L 3419 384 
L 5194 384 
L 5194 1813 
L 5653 1813 
L 5653 -447 
L 5194 -447 
L 5194 -31 
L 1203 -31 
L 1203 -447 
L 744 -447 
L 744 1813 
L 1203 1813 
L 1203 384 
L 2938 384 
L 2938 2541 
L 1459 2541 
L 1459 2203 
L 1000 2203 
L 1000 4500 
L 1459 4500 
L 1459 2956 
L 2938 2956 
L 2938 5144 
L 3419 5144 
L 3419 2956 
z
" transform="scale(0.015625)"/>
     </defs>
     <use xlink:href="#IPAexGothic-81ea"/>
     <use xlink:href="#IPAexGothic-52d5" x="100"/>
     <use xlink:href="#IPAexGothic-691c" x="200"/>
     <use xlink:href="#IPAexGothic-51fa" x="300"/>
    </g>
   </g>
   <g id="text_7">
    <!-- 🏥 医療 -->
    <g style="fill: #ffffff" transform="translate(197.1 101.4) scale(0.12 -0.12)">
     <defs>
      <path id="IPAexGothic-1f3e5" d="M 5759 -641 
L 641 -641 
L 641 5503 
L 5759 5503 
L 5759 -641 
z
M 5216 5172 
L 1191 5172 
L 3206 2694 
L 5216 5172 
z
M 5428 -53 
L 5428 4903 
L 3419 2425 
L 5428 -53 
z
M 2988 2425 
L 972 4916 
L 972 -59 
L 2988 2425 
z
M 5209 -309 
L 3206 2163 
L 1197 -309 
L 5209 -309 
z
" transform="scale(0.015625)"/>
      <path id="IPAexGothic-533b" d="M 3666 3463 
L 3666 2675 
L 5613 2675 
L 5613 2291 
L 3634 2291 
Q 3628 2213 3588 2059 
Q 4456 1641 5425 972 
L 5088 575 
Q 4375 1169 3469 1697 
Q 3094 878 1863 416 
L 1594 800 
Q 3013 1241 3188 2291 
L 1434 2291 
L 1434 2675 
L 3213 2675 
L 3213 3463 
L 2491 3463 
Q 2244 3041 1972 2759 
L 1656 3041 
Q 2163 3584 2419 4409 
L 2847 4288 
Q 2781 4078 2681 3847 
L 5034 3847 
L 5034 3463 
L 3666 3463 
z
M 1172 4513 
L 1172 281 
L 5922 281 
L 5922 -122 
L 1172 -122 
L 1172 -447 
L 691 -447 
L 691 4922 
L 5759 4922 
L 5759 4513 
L 1172 4513 
z
" transform="scale(0.015625)"/>
      <path id="IPAexGothic-7642" d="M 5141 2328 
L 5141 1056 
L 3994 1056 
L 3994 -50 
Q 3994 -278 3897 -363 
Q 3816 -447 3534 -447 
Q 3169 -447 2944 -403 
L 2844 19 
Q 3175 -50 3406 -50 
Q 3578 -50 3578 122 
L 3578 1056 
L 2375 1056 
L 2375 2150 
Q 2119 1903 1813 1694 
L 1606 1931 
Q 1559 500 844 -494 
L 488 -166 
Q 959 478 1081 1075 
Q 1141 1319 1172 1822 
L 1119 1784 
Q 847 1563 422 1313 
L 206 1709 
Q 709 1938 1184 2272 
L 1184 2388 
L 1184 4709 
L 3334 4709 
L 3334 5306 
L 3803 5306 
L 3803 4709 
L 6075 4709 
L 6075 4331 
L 1619 4331 
L 1619 2594 
Q 1619 2194 1613 2059 
Q 1969 2263 2344 2638 
Q 2044 2897 1791 3059 
L 2075 3328 
Q 2306 3163 2588 2894 
Q 2822 3166 3034 3513 
L 1716 3513 
L 1716 3878 
L 3231 3878 
Q 3331 4084 3400 4288 
L 3809 4159 
Q 3747 4013 3681 3878 
L 5916 3878 
L 5916 3513 
L 4469 3513 
Q 4716 3184 5013 2919 
Q 5297 3113 5538 3409 
L 5891 3138 
Q 5647 2903 5306 2675 
Q 5694 2400 6166 2175 
L 5903 1797 
Q 5475 2059 5141 2328 
z
M 4744 2522 
L 2772 2522 
L 2772 2138 
L 4744 2138 
L 4744 2522 
z
M 3034 2869 
L 4556 2869 
Q 4272 3172 4031 3513 
L 3481 3513 
Q 3294 3191 3034 2869 
z
M 2772 1409 
L 4744 1409 
L 4744 1797 
L 2772 1797 
L 2772 1409 
z
M 5703 -250 
Q 5116 300 4463 703 
L 4794 953 
Q 5438 584 6050 116 
L 5703 -250 
z
M 675 2644 
Q 519 3363 328 3853 
L 719 4000 
Q 938 3494 1084 2816 
L 675 2644 
z
M 1506 -25 
Q 2128 391 2528 922 
L 2888 703 
Q 2466 113 1831 -347 
L 1506 -25 
z
" transform="scale(0.015625)"/>
     </defs>
     <use xlink:href="#IPAexGothic-1f3e5"/>
     <use xlink:href="#IPAexGothic-20" x="100"/>
     <use xlink:href="#IPAexGothic-533b" x="127.001953"/>
     <use xlink:href="#IPAexGothic-7642" x="227.001953"/>
    </g>
   </g>
   <g id="text_8">
    <!-- レントゲン・MRI -->
    <g style="fill: #ffffff" transform="translate(171.646289 123.814219) scale(0.115 -0.115)">
     <defs>
      <path id="IPAexGothic-30ec" d="M 1538 4706 
L 2075 4706 
L 2075 622 
Q 4059 1375 5172 2894 
L 5481 2431 
Q 4922 1678 3931 1019 
Q 2919 334 1928 -31 
L 1538 269 
L 1538 4706 
z
" transform="scale(0.015625)"/>
      <path id="IPAexGothic-30f3" d="M 2444 3084 
Q 1816 3656 1056 4084 
L 1381 4519 
Q 2063 4191 2816 3559 
L 2444 3084 
z
M 1100 609 
Q 3984 1106 5216 3828 
L 5619 3469 
Q 4413 794 1434 103 
L 1100 609 
z
" transform="scale(0.015625)"/>
      <path id="IPAexGothic-30c8" d="M 2284 4997 
L 2803 4997 
L 2803 3206 
Q 4088 2619 5216 1888 
L 4878 1369 
Q 3819 2175 2803 2688 
L 2803 -184 
L 2284 -184 
L 2284 4997 
z
" transform="scale(0.015625)"/>
      <path id="IPAexGothic-30b2" d="M 5653 3269 
L 4194 3269 
Q 4156 1966 3753 1228 
Q 3256 316 2166 -266 
L 1781 131 
Q 2947 672 3369 1638 
Q 3634 2256 3663 3269 
L 2113 3269 
Q 1709 2450 988 1778 
L 609 2122 
Q 1797 3197 2153 4959 
L 2644 4850 
Q 2519 4275 2319 3738 
L 5653 3738 
L 5653 3269 
z
M 5838 4366 
Q 5478 4906 5084 5234 
L 5384 5466 
Q 5769 5156 6159 4641 
L 5838 4366 
z
M 5191 3950 
Q 4903 4438 4456 4838 
L 4769 5081 
Q 5141 4775 5525 4225 
L 5191 3950 
z
" transform="scale(0.015625)"/>
      <path id="IPAexGothic-4d" d="M 5147 63 
L 4597 63 
L 4597 2534 
Q 4597 3281 4634 4134 
L 4609 4134 
Q 4356 3409 4066 2675 
L 3066 209 
L 2650 209 
L 1641 2725 
Q 1328 3506 1128 4141 
L 1103 4141 
Q 1141 3131 1141 2553 
L 1141 63 
L 609 63 
L 609 4634 
L 1416 4634 
L 2503 1944 
Q 2697 1472 2869 906 
L 2888 906 
Q 3028 1416 3234 1931 
L 4316 4634 
L 5147 4634 
L 5147 63 
z
" transform="scale(0.015625)"/>
      <path id="IPAexGothic-52" d="M 4072 63 
L 3394 63 
Q 3138 641 2828 1197 
Q 2584 1641 2344 1825 
Q 2050 2044 1625 2044 
L 1172 2044 
L 1172 63 
L 609 63 
L 609 4634 
L 2009 4634 
Q 2713 4634 3131 4378 
Q 3688 4044 3688 3381 
Q 3688 2784 3181 2459 
Q 2906 2272 2522 2216 
L 2522 2197 
Q 2941 2050 3247 1581 
Q 3516 1166 4072 63 
z
M 1172 2478 
L 1869 2478 
Q 3106 2478 3106 3369 
Q 3106 4181 1928 4181 
L 1172 4181 
L 1172 2478 
z
" transform="scale(0.015625)"/>
      <path id="IPAexGothic-49" d="M 1203 63 
L 634 63 
L 634 4634 
L 1203 4634 
L 1203 63 
z
" transform="scale(0.015625)"/>
     </defs>
     <use xlink:href="#IPAexGothic-30ec"/>
     <use xlink:href="#IPAexGothic-30f3" x="100"/>
     <use xlink:href="#IPAexGothic-30c8" x="200"/>
     <use xlink:href="#IPAexGothic-30b2" x="300"/>
     <use xlink:href="#IPAexGothic-30f3" x="400"/>
     <use xlink:href="#IPAexGothic-30fb" x="500"/>
     <use xlink:href="#IPAexGothic-4d" x="600"/>
     <use xlink:href="#IPAexGothic-52" x="690.185547"/>
     <use xlink:href="#IPAexGothic-49" x="754.980469"/>
    </g>
   </g>
   <g id="text_9">
    <!-- 画像の解析 -->
    <g style="fill: #ffffff" transform="translate(187.97 139.654219) scale(0.115 -0.115)">
     <defs>
      <path id="IPAexGothic-89e3" d="M 4538 2222 
L 4538 2906 
L 4953 2906 
L 4953 2222 
L 5850 2222 
L 5850 1850 
L 4953 1850 
L 4953 1159 
L 6072 1159 
L 6072 775 
L 4953 775 
L 4953 -447 
L 4538 -447 
L 4538 775 
L 3303 775 
L 3303 1159 
L 4538 1159 
L 4538 1850 
L 3897 1850 
Q 3781 1528 3622 1269 
L 3303 1544 
Q 3600 2072 3706 2734 
L 4103 2663 
Q 4053 2416 4006 2222 
L 4538 2222 
z
M 2394 3803 
L 3141 3803 
L 3141 63 
Q 3141 -213 3006 -306 
Q 2900 -384 2622 -384 
Q 2250 -384 1919 -341 
L 1853 103 
Q 2278 31 2547 31 
Q 2744 31 2744 213 
L 2744 1319 
L 1241 1319 
Q 1191 303 722 -513 
L 394 -178 
Q 863 566 863 1869 
L 863 3181 
Q 738 3000 516 2741 
L 281 3094 
Q 1106 4053 1363 5319 
L 1797 5238 
Q 1747 5044 1719 4959 
L 1700 4891 
L 2653 4891 
L 2853 4684 
Q 2653 4238 2394 3803 
z
M 1809 3450 
L 1259 3450 
L 1259 2747 
L 1809 2747 
L 1809 3450 
z
M 2175 3450 
L 2175 2747 
L 2744 2747 
L 2744 3450 
L 2175 3450 
z
M 1809 2406 
L 1259 2406 
L 1259 1672 
L 1809 1672 
L 1809 2406 
z
M 2175 2406 
L 2175 1672 
L 2744 1672 
L 2744 2406 
L 2175 2406 
z
M 1969 3803 
Q 2172 4141 2322 4531 
L 1572 4531 
Q 1409 4100 1247 3803 
L 1969 3803 
z
M 4622 4594 
Q 4534 3469 3597 2897 
L 3297 3225 
Q 4088 3625 4191 4594 
L 3316 4594 
L 3316 4978 
L 5844 4978 
Q 5813 3791 5734 3422 
Q 5688 3194 5556 3103 
Q 5444 3031 5184 3031 
Q 4863 3031 4556 3078 
L 4500 3475 
Q 4819 3422 5044 3422 
Q 5266 3422 5313 3600 
Q 5372 3831 5400 4594 
L 4622 4594 
z
" transform="scale(0.015625)"/>
      <path id="IPAexGothic-6790" d="M 1363 2669 
L 1350 2625 
Q 1066 1647 550 781 
L 263 1256 
Q 953 2256 1300 3541 
L 397 3541 
L 397 3956 
L 1363 3956 
L 1363 5300 
L 1803 5300 
L 1803 3956 
L 2700 3956 
L 2700 3541 
L 1803 3541 
L 1803 2931 
Q 2375 2453 2788 1991 
L 2519 1531 
Q 2156 2053 1803 2434 
L 1803 -447 
L 1363 -447 
L 1363 2669 
z
M 3016 4634 
L 3156 4647 
Q 4450 4763 5319 5075 
L 5709 4678 
Q 4731 4363 3469 4256 
L 3469 3213 
L 6088 3213 
L 6088 2797 
L 5134 2797 
L 5134 -441 
L 4681 -441 
L 4681 2797 
L 3469 2797 
Q 3469 1600 3347 972 
Q 3184 100 2663 -525 
L 2331 -225 
Q 2850 488 2953 1325 
Q 3016 1772 3016 2584 
L 3016 4634 
z
" transform="scale(0.015625)"/>
     </defs>
     <use xlink:href="#IPAexGothic-753b"/>
     <use xlink:href="#IPAexGothic-50cf" x="100"/>
     <use xlink:href="#IPAexGothic-306e" x="200"/>
     <use xlink:href="#IPAexGothic-89e3" x="300"/>
     <use xlink:href="#IPAexGothic-6790" x="400"/>
    </g>
   </g>
   <g id="text_10">
    <!-- 🏪 小売・物流 -->
    <g style="fill: #ffffff" transform="translate(306.54 101.4) scale(0.12 -0.12)">
     <defs>
      <path id="IPAexGothic-1f3ea" d="M 5759 -641 
L 641 -641 
L 641 5503 
L 5759 5503 
L 5759 -641 
z
M 5216 5172 
L 1191 5172 
L 3206 2694 
L 5216 5172 
z
M 5428 -53 
L 5428 4903 
L 3419 2425 
L 5428 -53 
z
M 2988 2425 
L 972 4916 
L 972 -59 
L 2988 2425 
z
M 5209 -309 
L 3206 2163 
L 1197 -309 
L 5209 -309 
z
" transform="scale(0.015625)"/>
      <path id="IPAexGothic-5c0f" d="M 2944 5006 
L 3450 5006 
L 3450 359 
Q 3450 41 3322 -97 
Q 3181 -238 2759 -238 
Q 2388 -238 1931 -197 
L 1831 313 
Q 2244 231 2694 231 
Q 2944 231 2944 475 
L 2944 5006 
z
M 5453 1031 
Q 4928 2516 4172 3719 
L 4600 3916 
Q 5400 2650 5944 1281 
L 5453 1031 
z
M 434 1259 
Q 1238 2231 1553 3769 
L 2041 3641 
Q 1675 1938 825 897 
L 434 1259 
z
" transform="scale(0.015625)"/>
      <path id="IPAexGothic-58f2" d="M 2938 4544 
L 2938 5313 
L 3419 5313 
L 3419 4544 
L 5781 4544 
L 5781 4147 
L 3419 4147 
L 3419 3559 
L 5306 3559 
L 5306 3163 
L 1088 3163 
L 1088 3559 
L 2938 3559 
L 2938 4147 
L 609 4147 
L 609 4544 
L 2938 4544 
z
M 5684 2706 
L 5684 1522 
L 5216 1522 
L 5216 2316 
L 1178 2316 
L 1178 1478 
L 709 1478 
L 709 2706 
L 5684 2706 
z
M 531 -84 
Q 1494 91 1894 556 
Q 2213 913 2222 1972 
L 2688 1972 
Q 2678 756 2216 225 
Q 1794 -256 819 -506 
L 531 -84 
z
M 3622 1972 
L 4091 1972 
L 4091 353 
Q 4091 191 4181 153 
Q 4313 100 4684 100 
Q 5169 100 5294 159 
Q 5503 256 5513 1006 
L 5972 863 
Q 5944 -22 5691 -206 
Q 5503 -347 4659 -347 
Q 3981 -347 3809 -250 
Q 3622 -144 3622 178 
L 3622 1972 
z
" transform="scale(0.015625)"/>
      <path id="IPAexGothic-7269" d="M 4650 3763 
L 4178 3763 
L 4166 3697 
Q 3809 1916 2663 922 
L 2334 1228 
Q 3216 2034 3563 3084 
Q 3647 3328 3744 3763 
L 3300 3763 
Q 2991 3081 2634 2616 
L 2297 2919 
Q 3013 3872 3319 5319 
L 3775 5209 
Q 3631 4603 3469 4166 
L 5900 4166 
Q 5891 1056 5734 225 
Q 5628 -331 4959 -331 
Q 4553 -331 4166 -294 
L 4069 197 
Q 4594 122 4881 122 
Q 5172 122 5241 275 
Q 5422 669 5450 3438 
L 5459 3763 
L 5081 3763 
Q 4925 2650 4581 1797 
Q 4091 603 3066 -325 
L 2725 0 
Q 4281 1309 4638 3697 
L 4650 3763 
z
M 1025 3950 
L 1434 3950 
L 1434 5313 
L 1875 5313 
L 1875 3950 
L 2566 3950 
L 2566 3547 
L 1875 3547 
L 1875 2131 
Q 2359 2341 2572 2441 
L 2616 2031 
Q 2184 1809 1856 1672 
L 1856 -447 
L 1416 -447 
L 1416 1478 
Q 1028 1313 506 1122 
L 300 1563 
Q 903 1747 1434 1953 
L 1434 3547 
L 947 3547 
Q 831 2994 641 2556 
L 269 2803 
Q 600 3669 684 4744 
L 1125 4688 
Q 1066 4222 1025 3950 
z
" transform="scale(0.015625)"/>
      <path id="IPAexGothic-6d41" d="M 4128 4416 
L 5931 4416 
L 5931 4019 
L 3794 4019 
Q 3591 3531 3275 2988 
Q 3328 2988 3353 2988 
Q 3756 2997 4441 3047 
L 4909 3072 
Q 4684 3328 4341 3688 
L 4678 3903 
Q 5231 3397 5838 2644 
L 5472 2341 
Q 5322 2566 5178 2753 
Q 4053 2597 2188 2528 
L 2053 2956 
Q 2138 2959 2331 2963 
Q 2469 2966 2547 2969 
L 2797 2975 
Q 3094 3503 3281 4019 
L 2078 4019 
L 2078 4416 
L 3659 4416 
L 3659 5313 
L 4128 5313 
L 4128 4416 
z
M 1622 3853 
Q 1150 4372 700 4709 
L 1006 5069 
Q 1553 4684 1947 4244 
L 1622 3853 
z
M 1428 2388 
Q 988 2897 469 3250 
L 775 3609 
Q 1288 3266 1756 2759 
L 1428 2388 
z
M 347 13 
Q 972 800 1466 1931 
L 1806 1575 
Q 1294 403 725 -384 
L 347 13 
z
M 3559 2156 
L 4000 2156 
L 4000 -172 
L 3559 -172 
L 3559 2156 
z
M 4609 2266 
L 5050 2266 
L 5050 288 
Q 5050 116 5300 116 
Q 5544 116 5581 328 
Q 5622 538 5631 984 
L 6069 819 
Q 6028 106 5953 -75 
Q 5866 -256 5672 -294 
Q 5478 -325 5191 -325 
Q 4881 -325 4756 -247 
Q 4609 -150 4609 97 
L 4609 2266 
z
M 2563 2241 
L 3003 2241 
L 3003 1941 
Q 3003 856 2766 347 
Q 2541 -144 1966 -513 
L 1659 -147 
Q 2291 250 2453 863 
Q 2563 1291 2563 1953 
L 2563 2241 
z
" transform="scale(0.015625)"/>
     </defs>
     <use xlink:href="#IPAexGothic-1f3ea"/>
     <use xlink:href="#IPAexGothic-20" x="100"/>
     <use xlink:href="#IPAexGothic-5c0f" x="127.001953"/>
     <use xlink:href="#IPAexGothic-58f2" x="227.001953"/>
     <use xlink:href="#IPAexGothic-30fb" x="327.001953"/>
     <use xlink:href="#IPAexGothic-7269" x="427.001953"/>
     <use xlink:href="#IPAexGothic-6d41" x="527.001953"/>
    </g>
   </g>
   <g id="text_11">
    <!-- 商品の棚卸し -->
    <g style="fill: #ffffff" transform="translate(309.66 123.814219) scale(0.115 -0.115)">
     <defs>
      <path id="IPAexGothic-5546" d="M 3956 3019 
L 3956 2531 
Q 3956 2400 4019 2372 
Q 4081 2347 4294 2347 
Q 4656 2347 4703 2444 
Q 4741 2522 4769 2794 
L 5166 2659 
Q 5119 2281 5031 2153 
Q 4903 1988 4269 1988 
Q 3744 1988 3622 2091 
Q 3528 2156 3528 2384 
L 3528 3019 
L 2734 3019 
Q 2688 1994 1484 1638 
L 1234 2003 
Q 2316 2203 2306 3019 
L 1128 3019 
L 1128 -447 
L 675 -447 
L 675 3397 
L 2119 3397 
Q 1953 3875 1800 4184 
L 322 4184 
L 322 4581 
L 2941 4581 
L 2941 5309 
L 3416 5309 
L 3416 4581 
L 6078 4581 
L 6078 4184 
L 4609 4184 
Q 4463 3822 4231 3397 
L 5716 3397 
L 5716 63 
Q 5716 -397 5166 -397 
Q 4834 -397 4306 -359 
L 4213 109 
Q 4684 44 5056 44 
Q 5269 44 5269 288 
L 5269 3019 
L 3956 3019 
z
M 2281 4184 
Q 2459 3794 2594 3397 
L 3763 3397 
Q 3947 3725 4116 4184 
L 2281 4184 
z
M 2491 397 
L 2491 63 
L 2075 63 
L 2075 1797 
L 4334 1797 
L 4334 397 
L 2491 397 
z
M 3919 750 
L 3919 1444 
L 2491 1444 
L 2491 750 
L 3919 750 
z
" transform="scale(0.015625)"/>
      <path id="IPAexGothic-68da" d="M 1119 2550 
Q 806 1497 384 794 
L 159 1244 
Q 778 2244 1069 3547 
L 300 3547 
L 300 3956 
L 1119 3956 
L 1119 5306 
L 1528 5306 
L 1528 3956 
L 2097 3956 
L 2097 3547 
L 1528 3547 
L 1528 2791 
Q 1919 2475 2238 2125 
L 1988 1672 
Q 1788 1988 1528 2306 
L 1528 -447 
L 1119 -447 
L 1119 2550 
z
M 5844 4984 
L 5844 72 
Q 5844 -231 5709 -325 
Q 5603 -403 5338 -403 
Q 5047 -403 4831 -378 
L 4769 84 
Q 5034 31 5281 31 
Q 5441 31 5441 184 
L 5441 1703 
L 4672 1703 
Q 4644 272 4206 -519 
L 3884 -116 
Q 4263 594 4263 2022 
L 4263 4984 
L 5844 4984 
z
M 4672 4594 
L 4672 3547 
L 5441 3547 
L 5441 4594 
L 4672 4594 
z
M 4672 3163 
L 4672 2088 
L 5441 2088 
L 5441 3163 
L 4672 3163 
z
M 3841 4984 
L 3841 97 
Q 3841 -194 3725 -288 
Q 3616 -378 3334 -378 
Q 3053 -378 2891 -359 
L 2822 103 
Q 3000 56 3272 56 
Q 3444 56 3444 219 
L 3444 1703 
L 2719 1703 
Q 2650 200 2156 -525 
L 1828 -166 
Q 2322 616 2322 2044 
L 2322 4984 
L 3841 4984 
z
M 3444 4594 
L 2719 4594 
L 2719 3547 
L 3444 3547 
L 3444 4594 
z
M 3444 3163 
L 2719 3163 
L 2719 2088 
L 3444 2088 
L 3444 3163 
z
" transform="scale(0.015625)"/>
      <path id="IPAexGothic-5378" d="M 2341 4166 
L 2341 3238 
L 3563 3238 
L 3563 2841 
L 2341 2841 
L 2341 2100 
L 3372 2100 
L 3372 1703 
L 2341 1703 
L 2341 725 
L 2475 750 
Q 2938 834 3575 988 
L 3594 609 
Q 1953 191 538 -38 
L 391 416 
Q 828 475 850 481 
L 922 488 
L 922 2388 
L 1350 2388 
L 1350 550 
Q 1641 597 1753 622 
L 1913 647 
L 1913 2841 
L 469 2841 
L 469 3238 
L 1913 3238 
L 1913 4166 
L 1388 4166 
Q 1184 3681 916 3281 
L 556 3572 
Q 1050 4288 1300 5278 
L 1734 5184 
Q 1644 4853 1541 4556 
L 3372 4556 
L 3372 4166 
L 2341 4166 
z
M 5800 4750 
L 5800 897 
Q 5800 378 5256 378 
Q 4988 378 4641 419 
L 4563 878 
Q 4859 831 5147 831 
Q 5359 831 5359 1056 
L 5359 4334 
L 4288 4334 
L 4288 -447 
L 3834 -447 
L 3834 4750 
L 5800 4750 
z
" transform="scale(0.015625)"/>
      <path id="IPAexGothic-3057" d="M 1750 4884 
L 2281 4884 
L 2238 1319 
Q 2228 809 2391 569 
Q 2594 281 3128 281 
Q 3772 281 4344 744 
Q 4822 1131 5156 1759 
L 5534 1369 
Q 5094 653 4534 263 
Q 3878 -206 3134 -206 
Q 2341 -206 1994 213 
Q 1697 575 1706 1269 
L 1750 4884 
z
" transform="scale(0.015625)"/>
     </defs>
     <use xlink:href="#IPAexGothic-5546"/>
     <use xlink:href="#IPAexGothic-54c1" x="100"/>
     <use xlink:href="#IPAexGothic-306e" x="200"/>
     <use xlink:href="#IPAexGothic-68da" x="300"/>
     <use xlink:href="#IPAexGothic-5378" x="400"/>
     <use xlink:href="#IPAexGothic-3057" x="500"/>
    </g>
   </g>
   <g id="text_12">
    <!-- 在庫確認 -->
    <g style="fill: #ffffff" transform="translate(321.16 139.654219) scale(0.115 -0.115)">
     <defs>
      <path id="IPAexGothic-5728" d="M 2200 4372 
Q 2322 4719 2456 5269 
L 2938 5159 
Q 2781 4625 2694 4372 
L 5913 4372 
L 5913 3963 
L 2541 3963 
Q 2528 3938 2522 3919 
Q 2266 3272 1900 2709 
L 1900 -447 
L 1447 -447 
L 1447 2081 
Q 1028 1581 538 1184 
L 256 1538 
Q 972 2109 1447 2816 
L 1447 3253 
L 1663 3163 
Q 1859 3519 2047 3963 
L 575 3963 
L 575 4372 
L 2200 4372 
z
M 3803 2431 
L 3803 3609 
L 4244 3609 
L 4244 2431 
L 5619 2431 
L 5619 2034 
L 4244 2034 
L 4244 263 
L 5997 263 
L 5997 -153 
L 2216 -153 
L 2216 263 
L 3803 263 
L 3803 2034 
L 2491 2034 
L 2491 2431 
L 3803 2431 
z
" transform="scale(0.015625)"/>
      <path id="IPAexGothic-5eab" d="M 3788 4225 
L 3788 3744 
L 5825 3744 
L 5825 3378 
L 3788 3378 
L 3788 2963 
L 5447 2963 
L 5447 1113 
L 3788 1113 
L 3788 672 
L 6009 672 
L 6009 300 
L 3788 300 
L 3788 -450 
L 3359 -450 
L 3359 300 
L 1241 300 
L 1241 672 
L 3359 672 
L 3359 1113 
L 1722 1113 
L 1722 2963 
L 3359 2963 
L 3359 3378 
L 1425 3378 
L 1425 3744 
L 3359 3744 
L 3359 4225 
L 1272 4225 
L 1272 2738 
Q 1272 1619 1125 881 
Q 981 163 606 -444 
L 269 -97 
Q 819 763 819 2597 
L 819 4622 
L 3166 4622 
L 3166 5300 
L 3641 5300 
L 3641 4622 
L 6009 4622 
L 6009 4225 
L 3788 4225 
z
M 3372 2622 
L 2144 2622 
L 2144 2209 
L 3372 2209 
L 3372 2622 
z
M 3775 2622 
L 3775 2209 
L 5031 2209 
L 5031 2622 
L 3775 2622 
z
M 3372 1884 
L 2144 1884 
L 2144 1453 
L 3372 1453 
L 3372 1884 
z
M 3775 1884 
L 3775 1453 
L 5031 1453 
L 5031 1884 
L 3775 1884 
z
" transform="scale(0.015625)"/>
      <path id="IPAexGothic-78ba" d="M 4347 3219 
Q 4516 3538 4647 3956 
L 5075 3853 
Q 4875 3431 4750 3219 
L 5888 3219 
L 5888 2847 
L 4700 2847 
L 4700 2222 
L 5741 2222 
L 5741 1869 
L 4700 1869 
L 4700 1250 
L 5741 1250 
L 5741 897 
L 4700 897 
L 4700 231 
L 6034 231 
L 6034 -141 
L 3463 -141 
L 3463 -447 
L 3047 -447 
L 3047 2444 
Q 2756 2019 2484 1703 
L 2284 2100 
Q 3159 3197 3506 4147 
L 2913 4147 
L 2913 3425 
L 2509 3425 
L 2509 4519 
L 3634 4519 
Q 3750 4903 3847 5319 
L 4269 5241 
Q 4175 4834 4072 4519 
L 5934 4519 
L 5934 3425 
L 5525 3425 
L 5525 4147 
L 3938 4147 
Q 3747 3647 3513 3219 
L 4347 3219 
z
M 4297 2847 
L 3463 2847 
L 3463 2222 
L 4297 2222 
L 4297 2847 
z
M 4297 1869 
L 3463 1869 
L 3463 1250 
L 4297 1250 
L 4297 1869 
z
M 4297 897 
L 3463 897 
L 3463 231 
L 4297 231 
L 4297 897 
z
M 1159 2944 
L 2275 2944 
L 2275 197 
L 1213 197 
L 1213 -328 
L 816 -328 
L 816 2206 
Q 650 1903 394 1522 
L 188 1919 
Q 931 3013 1200 4416 
L 406 4416 
L 406 4819 
L 2409 4819 
L 2409 4416 
L 1616 4416 
L 1597 4353 
Q 1456 3663 1159 2944 
z
M 1213 2553 
L 1213 588 
L 1878 588 
L 1878 2553 
L 1213 2553 
z
" transform="scale(0.015625)"/>
      <path id="IPAexGothic-8a8d" d="M 4341 4556 
Q 4309 4069 4219 3694 
Q 4622 3497 4956 3309 
L 4731 2963 
Q 4463 3125 4141 3291 
L 4091 3322 
Q 3756 2566 2959 2088 
L 2663 2419 
Q 3456 2844 3713 3500 
Q 3213 3722 2906 3828 
L 3113 4141 
Q 3381 4050 3828 3866 
Q 3916 4231 3925 4556 
L 2816 4556 
L 2816 4947 
L 5775 4947 
Q 5766 3272 5653 2713 
Q 5606 2459 5453 2369 
Q 5334 2284 5025 2284 
Q 4684 2284 4366 2334 
L 4303 2784 
Q 4644 2713 4928 2713 
Q 5181 2713 5228 2906 
Q 5309 3234 5338 4513 
Q 5338 4544 5338 4556 
L 4341 4556 
z
M 2406 1684 
L 2406 -128 
L 959 -128 
L 959 -447 
L 544 -447 
L 544 1684 
L 2406 1684 
z
M 959 1313 
L 959 244 
L 1984 244 
L 1984 1313 
L 959 1313 
z
M 634 5044 
L 2313 5044 
L 2313 4659 
L 634 4659 
L 634 5044 
z
M 353 4206 
L 2638 4206 
L 2638 3816 
L 353 3816 
L 353 4206 
z
M 634 3359 
L 2313 3359 
L 2313 2975 
L 634 2975 
L 634 3359 
z
M 634 2522 
L 2313 2522 
L 2313 2138 
L 634 2138 
L 634 2522 
z
M 2528 31 
Q 2816 625 2919 1447 
L 3322 1375 
Q 3200 381 2900 -225 
L 2528 31 
z
M 3572 1556 
L 4000 1556 
L 4000 294 
Q 4000 128 4084 100 
Q 4144 75 4300 75 
Q 4728 75 4775 275 
Q 4806 394 4825 738 
L 5253 616 
Q 5206 -44 5081 -188 
Q 4941 -347 4359 -347 
Q 3900 -347 3738 -269 
Q 3572 -191 3572 91 
L 3572 1556 
z
M 5775 -25 
Q 5428 800 5006 1375 
L 5366 1588 
Q 5819 994 6166 244 
L 5775 -25 
z
M 4566 1294 
Q 4106 1772 3656 2075 
L 3938 2350 
Q 4331 2113 4872 1613 
L 4566 1294 
z
" transform="scale(0.015625)"/>
     </defs>
     <use xlink:href="#IPAexGothic-5728"/>
     <use xlink:href="#IPAexGothic-5eab" x="100"/>
     <use xlink:href="#IPAexGothic-78ba" x="200"/>
     <use xlink:href="#IPAexGothic-8a8d" x="300"/>
    </g>
   </g>
   <g id="text_13">
    <!-- 🏦 金融 -->
    <g style="fill: #ffffff" transform="translate(451.98 101.4) scale(0.12 -0.12)">
     <defs>
      <path id="IPAexGothic-1f3e6" d="M 5759 -641 
L 641 -641 
L 641 5503 
L 5759 5503 
L 5759 -641 
z
M 5216 5172 
L 1191 5172 
L 3206 2694 
L 5216 5172 
z
M 5428 -53 
L 5428 4903 
L 3419 2425 
L 5428 -53 
z
M 2988 2425 
L 972 4916 
L 972 -59 
L 2988 2425 
z
M 5209 -309 
L 3206 2163 
L 1197 -309 
L 5209 -309 
z
" transform="scale(0.015625)"/>
      <path id="IPAexGothic-91d1" d="M 3422 2969 
L 3422 2209 
L 5603 2209 
L 5603 1800 
L 3422 1800 
L 3422 191 
L 5922 191 
L 5922 -225 
L 481 -225 
L 481 191 
L 2947 191 
L 2947 1800 
L 803 1800 
L 803 2209 
L 2947 2209 
L 2947 2969 
L 1819 2969 
L 1819 3244 
Q 1263 2809 634 2466 
L 334 2853 
Q 2006 3647 2881 5234 
L 3441 5234 
Q 4503 3791 6109 3059 
L 5775 2613 
Q 5219 2934 4713 3294 
L 4713 2969 
L 3422 2969 
z
M 4609 3372 
Q 3781 3994 3172 4806 
Q 2741 4041 1972 3372 
L 4609 3372 
z
M 1838 300 
Q 1669 878 1344 1459 
L 1784 1644 
Q 2044 1228 2338 481 
L 1838 300 
z
M 4044 441 
Q 4403 1050 4622 1697 
L 5113 1509 
Q 4859 906 4488 288 
L 4044 441 
z
" transform="scale(0.015625)"/>
      <path id="IPAexGothic-878d" d="M 2969 1403 
L 2425 1403 
Q 2119 1403 2119 1703 
L 2119 2297 
L 1722 2297 
Q 1713 1441 1081 1178 
L 863 1472 
Q 1172 1584 1278 1800 
Q 1356 1972 1356 2297 
L 831 2297 
L 831 -447 
L 422 -447 
L 422 2650 
L 3378 2650 
L 3378 31 
Q 3378 -241 3263 -325 
Q 3172 -397 2925 -397 
Q 2691 -397 2444 -366 
L 2394 31 
Q 2600 -13 2809 -13 
Q 2969 -13 2969 153 
L 2969 1403 
z
M 2969 1716 
L 2969 2297 
L 2469 2297 
L 2469 1850 
Q 2469 1716 2578 1716 
L 2969 1716 
z
M 3066 4269 
L 3066 3025 
L 741 3025 
L 741 4269 
L 3066 4269 
z
M 1156 3916 
L 1156 3372 
L 2644 3372 
L 2644 3916 
L 1156 3916 
z
M 2059 728 
L 2059 -309 
L 1675 -309 
L 1675 728 
L 1094 728 
L 1094 1053 
L 2713 1053 
L 2713 728 
L 2059 728 
z
M 4588 4091 
L 4588 5250 
L 4997 5250 
L 4997 4091 
L 5900 4091 
L 5900 1894 
L 4997 1894 
L 4997 434 
Q 5494 525 5566 544 
Q 5441 1003 5259 1425 
L 5619 1575 
Q 5963 800 6188 -244 
L 5766 -416 
Q 5738 -172 5650 203 
Q 4675 -59 3678 -231 
L 3538 228 
Q 3997 281 4588 372 
L 4588 1894 
L 4094 1894 
L 4094 1491 
L 3703 1491 
L 3703 4091 
L 4588 4091 
z
M 4094 3706 
L 4094 2272 
L 4600 2272 
L 4600 3706 
L 4094 3706 
z
M 5516 2272 
L 5516 3706 
L 4984 3706 
L 4984 2272 
L 5516 2272 
z
M 319 5019 
L 3488 5019 
L 3488 4641 
L 319 4641 
L 319 5019 
z
" transform="scale(0.015625)"/>
     </defs>
     <use xlink:href="#IPAexGothic-1f3e6"/>
     <use xlink:href="#IPAexGothic-20" x="100"/>
     <use xlink:href="#IPAexGothic-91d1" x="127.001953"/>
     <use xlink:href="#IPAexGothic-878d" x="227.001953"/>
    </g>
   </g>
   <g id="text_14">
    <!-- 書類・帳票の -->
    <g style="fill: #ffffff" transform="translate(437.1 123.814219) scale(0.115 -0.115)">
     <defs>
      <path id="IPAexGothic-66f8" d="M 2953 4891 
L 2953 5313 
L 3397 5313 
L 3397 4891 
L 5169 4891 
L 5169 4213 
L 6006 4213 
L 6006 3866 
L 5169 3866 
L 5169 3166 
L 3397 3166 
L 3397 2828 
L 5597 2828 
L 5597 2475 
L 3397 2475 
L 3397 2144 
L 6078 2144 
L 6078 1791 
L 319 1791 
L 319 2144 
L 2953 2144 
L 2953 2475 
L 797 2475 
L 797 2828 
L 2953 2828 
L 2953 3166 
L 1125 3166 
L 1125 3506 
L 2953 3506 
L 2953 3866 
L 381 3866 
L 381 4213 
L 2953 4213 
L 2953 4550 
L 1125 4550 
L 1125 4891 
L 2953 4891 
z
M 4728 4550 
L 3397 4550 
L 3397 4213 
L 4728 4213 
L 4728 4550 
z
M 4728 3866 
L 3397 3866 
L 3397 3506 
L 4728 3506 
L 4728 3866 
z
M 5253 1506 
L 5253 -450 
L 4800 -450 
L 4800 -225 
L 1572 -225 
L 1572 -450 
L 1119 -450 
L 1119 1506 
L 5253 1506 
z
M 1572 1166 
L 1572 825 
L 4800 825 
L 4800 1166 
L 1572 1166 
z
M 1572 500 
L 1572 134 
L 4800 134 
L 4800 500 
L 1572 500 
z
" transform="scale(0.015625)"/>
      <path id="IPAexGothic-985e" d="M 1575 3238 
Q 1153 2647 513 2213 
L 256 2547 
Q 953 2959 1416 3572 
L 1447 3609 
L 366 3609 
L 366 3981 
L 1575 3981 
L 1575 5313 
L 1978 5313 
L 1978 3981 
L 3109 3981 
L 3109 3609 
L 1978 3609 
L 1978 3425 
Q 2581 3147 3059 2791 
L 2809 2406 
Q 2469 2747 1978 3059 
L 1978 2388 
L 1575 2388 
L 1575 3238 
z
M 4616 4025 
L 5709 4025 
L 5709 794 
L 3400 794 
L 3400 4025 
L 4219 4025 
Q 4284 4284 4353 4659 
L 3094 4659 
L 3094 5056 
L 6022 5056 
L 6022 4659 
L 4800 4659 
Q 4797 4638 4769 4538 
Q 4719 4309 4616 4025 
z
M 5300 3653 
L 3809 3653 
L 3809 3078 
L 5300 3078 
L 5300 3653 
z
M 3809 2713 
L 3809 2138 
L 5300 2138 
L 5300 2713 
L 3809 2713 
z
M 3809 1778 
L 3809 1166 
L 5300 1166 
L 5300 1778 
L 3809 1778 
z
M 1569 1691 
L 1569 2197 
L 1991 2197 
L 1991 1691 
L 3072 1691 
L 3072 1306 
L 1978 1306 
Q 1969 1178 1938 1081 
Q 2447 744 2944 256 
L 2625 -88 
Q 2247 375 1825 719 
Q 1525 -28 678 -497 
L 384 -153 
Q 1416 338 1550 1306 
L 366 1306 
L 366 1691 
L 1569 1691 
z
M 897 4072 
Q 706 4600 500 4916 
L 884 5088 
Q 1091 4756 1300 4238 
L 897 4072 
z
M 2200 4219 
Q 2456 4659 2578 5100 
L 2994 4978 
Q 2819 4509 2541 4072 
L 2200 4219 
z
M 5753 -422 
Q 5344 47 4728 525 
L 5044 756 
Q 5566 413 6138 -116 
L 5753 -422 
z
M 2809 -178 
Q 3488 169 3981 750 
L 4338 506 
Q 3831 -88 3122 -500 
L 2809 -178 
z
" transform="scale(0.015625)"/>
      <path id="IPAexGothic-5e33" d="M 4356 2034 
Q 4478 1581 4734 1191 
Q 5156 1538 5463 1913 
L 5841 1631 
Q 5359 1169 4950 894 
Q 5403 378 6141 50 
L 5841 -353 
Q 4719 263 4247 1184 
Q 4050 1591 3934 2034 
L 3453 2034 
L 3453 228 
Q 3913 328 4541 513 
L 4588 134 
Q 3575 -219 2581 -422 
L 2419 25 
Q 2775 84 3025 141 
L 3025 2034 
L 2497 2034 
L 2497 1253 
Q 2497 875 2138 875 
Q 1956 875 1772 916 
L 1709 1331 
Q 1853 1291 1978 1291 
Q 2100 1291 2100 1425 
L 2100 3678 
L 1638 3678 
L 1638 -450 
L 1228 -450 
L 1228 3678 
L 825 3678 
L 825 806 
L 428 806 
L 428 4084 
L 1228 4084 
L 1228 5309 
L 1638 5309 
L 1638 4084 
L 2497 4084 
L 2497 2419 
L 3025 2419 
L 3025 4978 
L 5731 4978 
L 5731 4594 
L 3453 4594 
L 3453 4128 
L 5488 4128 
L 5488 3756 
L 3453 3756 
L 3453 3291 
L 5488 3291 
L 5488 2919 
L 3453 2919 
L 3453 2419 
L 6059 2419 
L 6059 2034 
L 4356 2034 
z
" transform="scale(0.015625)"/>
      <path id="IPAexGothic-7968" d="M 2272 4116 
L 2272 4628 
L 488 4628 
L 488 5013 
L 5906 5013 
L 5906 4628 
L 4084 4628 
L 4084 4116 
L 5516 4116 
L 5516 2756 
L 872 2756 
L 872 4116 
L 2272 4116 
z
M 2706 4116 
L 3656 4116 
L 3656 4628 
L 2706 4628 
L 2706 4116 
z
M 2272 3750 
L 1325 3750 
L 1325 3122 
L 2272 3122 
L 2272 3750 
z
M 2706 3750 
L 2706 3122 
L 3656 3122 
L 3656 3750 
L 2706 3750 
z
M 4084 3750 
L 4084 3122 
L 5069 3122 
L 5069 3750 
L 4084 3750 
z
M 3463 1178 
L 3463 19 
Q 3463 -291 3303 -378 
Q 3181 -447 2891 -447 
Q 2522 -447 2163 -397 
L 2084 44 
Q 2459 -31 2756 -31 
Q 2981 -31 2981 172 
L 2981 1178 
L 384 1178 
L 384 1563 
L 6016 1563 
L 6016 1178 
L 3463 1178 
z
M 1088 2356 
L 5313 2356 
L 5313 1978 
L 1088 1978 
L 1088 2356 
z
M 481 -38 
Q 1297 394 1747 959 
L 2156 763 
Q 1563 56 806 -378 
L 481 -38 
z
M 5478 -231 
Q 4859 294 4031 750 
L 4378 1025 
Q 5047 703 5850 128 
L 5478 -231 
z
" transform="scale(0.015625)"/>
     </defs>
     <use xlink:href="#IPAexGothic-66f8"/>
     <use xlink:href="#IPAexGothic-985e" x="100"/>
     <use xlink:href="#IPAexGothic-30fb" x="200"/>
     <use xlink:href="#IPAexGothic-5e33" x="300"/>
     <use xlink:href="#IPAexGothic-7968" x="400"/>
     <use xlink:href="#IPAexGothic-306e" x="500"/>
    </g>
   </g>
   <g id="text_15">
    <!-- 文字認識（OCR） -->
    <g style="fill: #ffffff" transform="translate(424.6225 139.654219) scale(0.115 -0.115)">
     <defs>
      <path id="IPAexGothic-6587" d="M 1563 3609 
L 456 3609 
L 456 4025 
L 2934 4025 
L 2934 5172 
L 3422 5172 
L 3422 4025 
L 5950 4025 
L 5950 3609 
L 4747 3609 
Q 4378 2169 3588 1272 
Q 4491 584 5922 203 
L 5566 -275 
Q 4147 181 3247 947 
Q 2222 56 797 -384 
L 456 91 
Q 2013 466 2913 1253 
Q 2031 2166 1563 3609 
z
M 2044 3609 
Q 2469 2347 3234 1581 
Q 3928 2388 4228 3609 
L 2044 3609 
z
" transform="scale(0.015625)"/>
      <path id="IPAexGothic-5b57" d="M 3419 4434 
L 5778 4434 
L 5778 3141 
L 5297 3141 
L 5297 4031 
L 1091 4031 
L 1091 3141 
L 616 3141 
L 616 4434 
L 2931 4434 
L 2931 5313 
L 3419 5313 
L 3419 4434 
z
M 3463 2197 
L 3463 1875 
L 6019 1875 
L 6019 1459 
L 3497 1459 
L 3497 0 
Q 3497 -272 3363 -375 
Q 3241 -459 2944 -459 
Q 2553 -459 2063 -409 
L 1984 63 
Q 2538 -13 2834 -13 
Q 3016 -13 3016 147 
L 3016 1459 
L 391 1459 
L 391 1875 
L 2988 1875 
L 2988 2406 
Q 3606 2650 4103 2991 
L 1416 2991 
L 1416 3413 
L 4816 3413 
L 5031 3181 
Q 4219 2547 3463 2197 
z
" transform="scale(0.015625)"/>
      <path id="IPAexGothic-8b58" d="M 5063 1656 
Q 5294 2131 5466 2700 
L 5838 2519 
Q 5506 1619 5191 1088 
Q 5322 644 5528 350 
Q 5616 216 5656 216 
Q 5750 216 5816 1150 
L 6175 906 
Q 6069 -372 5741 -372 
Q 5569 -372 5313 -59 
Q 5063 250 4916 663 
Q 4444 0 3763 -506 
L 3481 -194 
Q 4297 394 4775 1144 
Q 4625 1763 4575 2878 
L 1956 2878 
L 1956 2975 
L 497 2975 
L 497 3359 
L 1963 3359 
L 1963 3250 
L 2756 3250 
Q 2697 3678 2559 4178 
L 2238 4178 
L 2238 4538 
L 3122 4538 
L 3122 5319 
L 3531 5319 
L 3531 4538 
L 4363 4538 
L 4363 4178 
L 4088 4178 
Q 3966 3613 3838 3250 
L 4563 3250 
L 4563 3359 
Q 4556 3578 4556 4069 
L 4556 5281 
L 4959 5281 
L 4959 4116 
Q 4959 3769 4966 3506 
L 4966 3291 
L 6113 3291 
L 6113 2919 
L 4972 2919 
Q 4991 2156 5063 1656 
z
M 2938 4178 
Q 3072 3684 3134 3250 
L 3453 3250 
Q 3616 3738 3697 4178 
L 2938 4178 
z
M 2028 1684 
L 2028 -128 
L 831 -128 
L 831 -447 
L 434 -447 
L 434 1684 
L 2028 1684 
z
M 831 1313 
L 831 244 
L 1631 244 
L 1631 1313 
L 831 1313 
z
M 4159 2478 
L 4159 428 
L 2822 428 
L 2822 109 
L 2444 109 
L 2444 2478 
L 4159 2478 
z
M 2822 2138 
L 2822 1638 
L 3788 1638 
L 3788 2138 
L 2822 2138 
z
M 2822 1306 
L 2822 769 
L 3788 769 
L 3788 1306 
L 2822 1306 
z
M 500 5044 
L 1966 5044 
L 1966 4659 
L 500 4659 
L 500 5044 
z
M 288 4206 
L 2113 4206 
L 2113 3816 
L 288 3816 
L 288 4206 
z
M 500 2522 
L 1966 2522 
L 1966 2138 
L 500 2138 
L 500 2522 
z
M 5631 3694 
Q 5406 4366 5166 4769 
L 5516 4941 
Q 5834 4388 5997 3916 
L 5631 3694 
z
" transform="scale(0.015625)"/>
      <path id="IPAexGothic-ff08" d="M 5419 -434 
Q 4197 769 4197 2438 
Q 4197 4097 5419 5300 
L 5919 5300 
Q 4678 4078 4678 2425 
Q 4678 788 5919 -434 
L 5419 -434 
z
" transform="scale(0.015625)"/>
      <path id="IPAexGothic-4f" d="M 2541 4725 
Q 3456 4725 4044 4138 
Q 4709 3472 4709 2331 
Q 4709 1219 4031 550 
Q 3450 -31 2541 -31 
Q 1638 -31 1056 550 
Q 378 1219 378 2356 
Q 378 3469 1044 4138 
Q 1631 4725 2541 4725 
z
M 2541 4266 
Q 1953 4266 1531 3844 
Q 994 3303 994 2350 
Q 994 1391 1531 863 
Q 1947 447 2541 447 
Q 3131 447 3556 863 
Q 4094 1400 4094 2375 
Q 4094 3297 3550 3844 
Q 3138 4266 2541 4266 
z
" transform="scale(0.015625)"/>
      <path id="IPAexGothic-ff09" d="M 481 -434 
Q 1722 788 1722 2431 
Q 1722 4066 481 5300 
L 981 5300 
Q 2203 4097 2203 2431 
Q 2203 769 981 -434 
L 481 -434 
z
" transform="scale(0.015625)"/>
     </defs>
     <use xlink:href="#IPAexGothic-6587"/>
     <use xlink:href="#IPAexGothic-5b57" x="100"/>
     <use xlink:href="#IPAexGothic-8a8d" x="200"/>
     <use xlink:href="#IPAexGothic-8b58" x="300"/>
     <use xlink:href="#IPAexGothic-ff08" x="400"/>
     <use xlink:href="#IPAexGothic-4f" x="500"/>
     <use xlink:href="#IPAexGothic-43" x="579.6875"/>
     <use xlink:href="#IPAexGothic-52" x="652.197266"/>
     <use xlink:href="#IPAexGothic-ff09" x="716.992188"/>
    </g>
   </g>
   <g id="text_16">
    <!-- 🌾 農業 -->
    <g style="fill: #ffffff" transform="translate(579.42 101.4) scale(0.12 -0.12)">
     <defs>
      <path id="IPAexGothic-1f33e" d="M 5759 -641 
L 641 -641 
L 641 5503 
L 5759 5503 
L 5759 -641 
z
M 5216 5172 
L 1191 5172 
L 3206 2694 
L 5216 5172 
z
M 5428 -53 
L 5428 4903 
L 3419 2425 
L 5428 -53 
z
M 2988 2425 
L 972 4916 
L 972 -59 
L 2988 2425 
z
M 5209 -309 
L 3206 2163 
L 1197 -309 
L 5209 -309 
z
" transform="scale(0.015625)"/>
      <path id="IPAexGothic-8fb2" d="M 2369 4825 
L 2369 5313 
L 2772 5313 
L 2772 4825 
L 3628 4825 
L 3628 5313 
L 4031 5313 
L 4031 4825 
L 5344 4825 
L 5344 3150 
L 1094 3150 
L 1094 4825 
L 2369 4825 
z
M 1509 4500 
L 1509 4147 
L 2369 4147 
L 2369 4500 
L 1509 4500 
z
M 1509 3847 
L 1509 3475 
L 2369 3475 
L 2369 3847 
L 1509 3847 
z
M 4928 3475 
L 4928 3847 
L 4031 3847 
L 4031 3475 
L 4928 3475 
z
M 4928 4147 
L 4928 4500 
L 4031 4500 
L 4031 4147 
L 4928 4147 
z
M 2772 4500 
L 2772 4147 
L 3628 4147 
L 3628 4500 
L 2772 4500 
z
M 2772 3847 
L 2772 3475 
L 3628 3475 
L 3628 3847 
L 2772 3847 
z
M 1309 2488 
L 1309 1766 
L 1309 1550 
L 5938 1550 
L 5938 1203 
L 3722 1203 
Q 3950 834 4356 544 
Q 4375 556 4441 594 
Q 4747 800 5084 1159 
L 5463 916 
Q 5097 584 4703 341 
Q 5241 75 5969 -78 
L 5694 -453 
Q 3881 -3 3294 1203 
L 2500 1203 
L 2500 116 
Q 3206 219 3775 325 
L 3800 -31 
Q 2541 -306 1438 -441 
L 1284 -19 
Q 1791 25 2059 63 
L 2059 1203 
L 1297 1203 
L 1297 1178 
Q 1250 122 734 -500 
L 409 -159 
Q 719 200 806 728 
Q 869 1103 869 1788 
L 869 2834 
L 5809 2834 
L 5809 2488 
L 1309 2488 
z
M 1625 2188 
L 5306 2188 
L 5306 1847 
L 1625 1847 
L 1625 2188 
z
" transform="scale(0.015625)"/>
     </defs>
     <use xlink:href="#IPAexGothic-1f33e"/>
     <use xlink:href="#IPAexGothic-20" x="100"/>
     <use xlink:href="#IPAexGothic-8fb2" x="127.001953"/>
     <use xlink:href="#IPAexGothic-696d" x="227.001953"/>
    </g>
   </g>
   <g id="text_17">
    <!-- 衛星画像で -->
    <g style="fill: #ffffff" transform="translate(570.29 123.814219) scale(0.115 -0.115)">
     <defs>
      <path id="IPAexGothic-885b" d="M 3534 2094 
L 3534 1663 
L 4391 1663 
L 4391 1331 
L 3534 1331 
L 3534 763 
L 4616 763 
L 4616 409 
L 3534 409 
L 3534 -359 
L 3144 -359 
L 3144 409 
L 1659 409 
L 1659 763 
L 2234 763 
L 2234 1331 
L 1909 1331 
L 1909 1663 
L 3144 1663 
L 3144 2094 
L 2063 2094 
L 2063 3175 
L 4244 3175 
L 4244 2094 
L 3534 2094 
z
M 3144 763 
L 3144 1331 
L 2613 1331 
L 2613 763 
L 3144 763 
z
M 2453 2863 
L 2453 2406 
L 3853 2406 
L 3853 2863 
L 2453 2863 
z
M 1428 2894 
L 1428 -447 
L 1019 -447 
L 1019 2322 
Q 797 2038 450 1709 
L 213 2069 
Q 1091 2859 1466 3816 
L 1831 3634 
Q 1641 3228 1428 2894 
z
M 3188 4697 
L 4134 4697 
L 4134 3859 
L 4569 3859 
L 4569 3528 
L 1888 3528 
L 1888 3859 
L 2656 3859 
L 2734 4372 
L 2163 4372 
L 2163 4697 
L 2784 4697 
L 2881 5338 
L 3272 5313 
L 3188 4697 
z
M 3138 4372 
L 3047 3859 
L 3750 3859 
L 3750 4372 
L 3138 4372 
z
M 5525 2944 
L 5525 63 
Q 5525 -197 5403 -300 
Q 5297 -397 4994 -397 
Q 4628 -397 4406 -372 
L 4328 78 
Q 4653 25 4913 25 
Q 5103 25 5103 219 
L 5103 2944 
L 4419 2944 
L 4419 3347 
L 6094 3347 
L 6094 2944 
L 5525 2944 
z
M 263 3822 
Q 1025 4381 1459 5197 
L 1838 5006 
Q 1309 4072 538 3494 
L 263 3822 
z
M 4544 4838 
L 5966 4838 
L 5966 4434 
L 4544 4434 
L 4544 4838 
z
" transform="scale(0.015625)"/>
      <path id="IPAexGothic-661f" d="M 5272 5025 
L 5272 2847 
L 3484 2847 
L 3484 2194 
L 5619 2194 
L 5619 1803 
L 3484 1803 
L 3484 1203 
L 5303 1203 
L 5303 819 
L 3484 819 
L 3484 134 
L 6016 134 
L 6016 -263 
L 447 -263 
L 447 134 
L 3025 134 
L 3025 819 
L 1303 819 
L 1303 1203 
L 3025 1203 
L 3025 1803 
L 1484 1803 
Q 1191 1303 788 881 
L 453 1234 
Q 1100 1841 1431 2781 
L 1869 2641 
Q 1750 2338 1688 2194 
L 3025 2194 
L 3025 2847 
L 1119 2847 
L 1119 5025 
L 5272 5025 
z
M 1572 4647 
L 1572 4128 
L 4816 4128 
L 4816 4647 
L 1572 4647 
z
M 1572 3769 
L 1572 3225 
L 4816 3225 
L 4816 3769 
L 1572 3769 
z
" transform="scale(0.015625)"/>
     </defs>
     <use xlink:href="#IPAexGothic-885b"/>
     <use xlink:href="#IPAexGothic-661f" x="100"/>
     <use xlink:href="#IPAexGothic-753b" x="200"/>
     <use xlink:href="#IPAexGothic-50cf" x="300"/>
     <use xlink:href="#IPAexGothic-3067" x="400"/>
    </g>
   </g>
   <g id="text_18">
    <!-- 生育状況を分析 -->
    <g style="fill: #ffffff" transform="translate(558.79 139.654219) scale(0.115 -0.115)">
     <defs>
      <path id="IPAexGothic-751f" d="M 1741 3822 
L 3022 3822 
L 3022 5250 
L 3509 5250 
L 3509 3822 
L 5628 3822 
L 5628 3406 
L 3509 3406 
L 3509 2125 
L 5366 2125 
L 5366 1709 
L 3509 1709 
L 3509 250 
L 5978 250 
L 5978 -166 
L 513 -166 
L 513 250 
L 3022 250 
L 3022 1709 
L 1263 1709 
L 1263 2125 
L 3022 2125 
L 3022 3406 
L 1563 3406 
Q 1266 2813 872 2350 
L 513 2688 
Q 1238 3519 1556 4834 
L 2022 4719 
Q 1894 4216 1741 3822 
z
" transform="scale(0.015625)"/>
      <path id="IPAexGothic-80b2" d="M 3419 4588 
L 5984 4588 
L 5984 4203 
L 2784 4203 
Q 2544 3788 2253 3416 
L 2419 3416 
Q 3250 3438 3963 3481 
L 4578 3519 
Q 4309 3734 3975 3953 
L 4353 4159 
Q 5069 3725 5800 3097 
L 5397 2794 
Q 5184 3025 4969 3213 
Q 2991 3025 806 2969 
L 666 3391 
Q 722 3391 1772 3403 
Q 2044 3766 2266 4203 
L 416 4203 
L 416 4588 
L 2938 4588 
L 2938 5309 
L 3419 5309 
L 3419 4588 
z
M 5106 2644 
L 5106 84 
Q 5106 -191 4966 -294 
Q 4834 -384 4531 -384 
Q 4131 -384 3622 -331 
L 3556 128 
Q 4097 38 4434 38 
Q 4653 38 4653 244 
L 4653 678 
L 1734 678 
L 1734 -447 
L 1288 -447 
L 1288 2644 
L 5106 2644 
z
M 1734 2272 
L 1734 1844 
L 4653 1844 
L 4653 2272 
L 1734 2272 
z
M 1734 1484 
L 1734 1038 
L 4653 1038 
L 4653 1484 
L 1734 1484 
z
" transform="scale(0.015625)"/>
      <path id="IPAexGothic-72b6" d="M 4281 3066 
Q 4638 1166 6088 122 
L 5722 -331 
Q 4469 769 4066 2456 
Q 3853 650 2453 -494 
L 2125 -109 
Q 3550 941 3731 3066 
L 2241 3066 
L 2241 3481 
L 3753 3481 
L 3753 5144 
L 4206 5144 
L 4206 3481 
L 5984 3481 
L 5984 3066 
L 4281 3066 
z
M 1591 1600 
Q 1144 1238 528 856 
L 309 1344 
Q 875 1594 1591 2053 
L 1591 5172 
L 2044 5172 
L 2044 -447 
L 1591 -447 
L 1591 1600 
z
M 1006 2572 
Q 791 3384 444 4031 
L 834 4244 
Q 1194 3563 1422 2809 
L 1006 2572 
z
M 5178 3731 
Q 4947 4263 4591 4716 
L 4953 4953 
Q 5284 4553 5581 4019 
L 5178 3731 
z
" transform="scale(0.015625)"/>
      <path id="IPAexGothic-6cc1" d="M 4622 2394 
L 4622 300 
Q 4622 169 4700 138 
Q 4794 106 5000 106 
Q 5356 106 5416 253 
Q 5494 466 5503 1019 
L 5972 863 
Q 5934 169 5825 -91 
Q 5697 -353 4994 -353 
Q 4481 -353 4322 -244 
Q 4169 -138 4169 116 
L 4169 2394 
L 3513 2394 
L 3513 2163 
Q 3513 959 3038 300 
Q 2716 -138 2028 -525 
L 1703 -134 
Q 3059 509 3059 2041 
L 3059 2394 
L 2425 2394 
L 2425 4909 
L 5472 4909 
L 5472 2394 
L 4622 2394 
z
M 2878 4506 
L 2878 2797 
L 5019 2797 
L 5019 4506 
L 2878 4506 
z
M 384 13 
Q 1163 897 1697 1978 
L 2028 1638 
Q 1422 416 750 -391 
L 384 13 
z
M 1466 2284 
Q 994 2834 463 3200 
L 781 3559 
Q 1319 3194 1806 2669 
L 1466 2284 
z
M 1697 3775 
Q 1197 4363 716 4697 
L 1050 5050 
Q 1641 4619 2041 4153 
L 1697 3775 
z
" transform="scale(0.015625)"/>
      <path id="IPAexGothic-5206" d="M 3031 2431 
Q 2916 1378 2528 759 
Q 1991 -81 941 -469 
L 625 -53 
Q 2356 488 2541 2431 
L 1375 2431 
L 1375 2772 
Q 1044 2431 653 2156 
L 313 2534 
Q 1600 3425 2219 5056 
L 2688 4875 
Q 2200 3672 1453 2847 
L 4966 2847 
Q 4878 559 4741 94 
Q 4666 -163 4459 -250 
Q 4288 -322 3941 -322 
Q 3525 -322 2981 -263 
L 2884 256 
Q 3441 138 3844 138 
Q 4213 138 4281 438 
Q 4388 931 4472 2431 
L 3031 2431 
z
M 5747 2303 
Q 4416 3238 3506 4934 
L 3934 5113 
Q 4747 3572 6084 2747 
L 5747 2303 
z
" transform="scale(0.015625)"/>
     </defs>
     <use xlink:href="#IPAexGothic-751f"/>
     <use xlink:href="#IPAexGothic-80b2" x="100"/>
     <use xlink:href="#IPAexGothic-72b6" x="200"/>
     <use xlink:href="#IPAexGothic-6cc1" x="300"/>
     <use xlink:href="#IPAexGothic-3092" x="400"/>
     <use xlink:href="#IPAexGothic-5206" x="500"/>
     <use xlink:href="#IPAexGothic-6790" x="600"/>
    </g>
   </g>
   <g id="text_19">
    <!-- 今日学ぶこと：画像の正体（数値配列）、Pillowでの基本操作、フィルタ処理 -->
    <g style="fill: #7d6608" transform="translate(41.04 239.694736) scale(0.13 -0.13)">
     <defs>
      <path id="IPAexGothic-4eca" d="M 1938 3263 
L 4575 3263 
L 4575 2847 
L 1913 2847 
L 1913 3244 
Q 1328 2763 581 2384 
L 281 2769 
Q 2006 3609 2888 5156 
L 3438 5156 
Q 4353 3778 6131 2944 
L 5825 2534 
Q 4125 3406 3175 4741 
Q 2681 3881 1938 3263 
z
M 1144 2222 
L 5009 2222 
L 5306 1903 
Q 4416 441 3391 -478 
L 2969 -184 
Q 3978 672 4666 1806 
L 1144 1806 
L 1144 2222 
z
" transform="scale(0.015625)"/>
      <path id="IPAexGothic-65e5" d="M 5231 4800 
L 5231 -288 
L 4744 -288 
L 4744 128 
L 1647 128 
L 1647 -288 
L 1159 -288 
L 1159 4800 
L 5231 4800 
z
M 1647 4372 
L 1647 2731 
L 4744 2731 
L 4744 4372 
L 1647 4372 
z
M 1647 2297 
L 1647 556 
L 4744 556 
L 4744 2297 
L 1647 2297 
z
" transform="scale(0.015625)"/>
      <path id="IPAexGothic-3053" d="M 1647 4422 
Q 2400 4363 3003 4363 
Q 3803 4363 4653 4459 
L 4763 4031 
Q 4319 3906 3788 3588 
Q 3347 3322 2978 2994 
L 2619 3272 
Q 3150 3666 3609 3950 
Q 3097 3909 2619 3909 
Q 2091 3909 1666 3956 
L 1647 4422 
z
M 5244 191 
Q 4363 13 3303 13 
Q 2316 13 1716 344 
Q 1159 653 1159 1197 
Q 1159 1738 1659 2247 
L 2044 2003 
Q 1647 1644 1647 1263 
Q 1647 500 3291 500 
Q 4288 500 5191 722 
L 5244 191 
z
" transform="scale(0.015625)"/>
      <path id="IPAexGothic-3068" d="M 5222 56 
Q 4200 -72 3450 -72 
Q 2478 -72 1941 113 
Q 1184 372 1184 1038 
Q 1184 1584 1594 2009 
Q 1941 2369 2656 2725 
Q 2231 3734 1972 4878 
L 2491 4978 
Q 2706 3884 3078 2950 
Q 4250 3447 4756 3616 
L 4978 3150 
Q 3181 2575 2409 2078 
Q 1691 1613 1691 1113 
Q 1691 403 3322 403 
Q 4125 403 5134 563 
L 5222 56 
z
" transform="scale(0.015625)"/>
      <path id="IPAexGothic-ff1a" d="M 2822 3366 
L 3578 3366 
L 3578 2609 
L 2822 2609 
L 2822 3366 
z
M 2822 1081 
L 3578 1081 
L 3578 325 
L 2822 325 
L 2822 1081 
z
" transform="scale(0.015625)"/>
      <path id="IPAexGothic-6b63" d="M 3547 409 
L 5916 409 
L 5916 -31 
L 481 -31 
L 481 409 
L 1441 409 
L 1441 3231 
L 1934 3231 
L 1934 409 
L 3059 409 
L 3059 4288 
L 750 4288 
L 750 4728 
L 5659 4728 
L 5659 4288 
L 3547 4288 
L 3547 2669 
L 5353 2669 
L 5353 2241 
L 3547 2241 
L 3547 409 
z
" transform="scale(0.015625)"/>
      <path id="IPAexGothic-4f53" d="M 4253 3481 
Q 4869 2069 6041 1138 
L 5688 703 
Q 4541 1841 4069 3122 
L 4069 1228 
L 4925 1228 
L 4925 831 
L 4081 831 
L 4081 -450 
L 3613 -450 
L 3613 831 
L 2781 831 
L 2781 1228 
L 3628 1228 
L 3628 3097 
Q 3216 1703 2063 556 
L 1706 928 
Q 2844 1875 3441 3481 
L 1969 3481 
L 1969 3897 
L 3613 3897 
L 3613 5209 
L 4081 5209 
L 4081 3897 
L 5872 3897 
L 5872 3481 
L 4253 3481 
z
M 1572 3700 
L 1572 -441 
L 1119 -441 
L 1119 2778 
Q 888 2363 550 1913 
L 300 2303 
Q 1219 3575 1591 5241 
L 2041 5125 
Q 1844 4356 1572 3700 
z
" transform="scale(0.015625)"/>
      <path id="IPAexGothic-6570" d="M 2847 1553 
Q 2741 1006 2425 534 
Q 2625 441 3091 203 
L 2809 -188 
Q 2541 0 2144 209 
Q 1569 -291 703 -500 
L 422 -125 
Q 1263 19 1747 406 
Q 1222 650 734 816 
Q 975 1172 1147 1503 
L 1172 1553 
L 359 1553 
L 359 1925 
L 1344 1925 
Q 1406 2066 1569 2475 
L 1691 2450 
L 1691 3372 
Q 1250 2738 550 2303 
L 275 2663 
Q 1019 3013 1528 3641 
L 378 3641 
L 378 4006 
L 1691 4006 
L 1691 5313 
L 2113 5313 
L 2113 4006 
L 3297 4006 
L 3297 3641 
L 2113 3641 
L 2113 3513 
Q 2659 3291 3175 2963 
L 2956 2584 
Q 2553 2922 2113 3159 
L 2113 2372 
L 1966 2372 
Q 1928 2288 1872 2141 
Q 1806 1975 1784 1925 
L 3378 1925 
L 3378 1553 
L 2847 1553 
z
M 2419 1553 
L 1613 1553 
Q 1478 1269 1313 997 
Q 1559 909 2047 703 
Q 2313 1047 2419 1553 
z
M 4363 1163 
Q 3953 1781 3738 2638 
Q 3575 2281 3428 2016 
L 3103 2406 
Q 3675 3444 3916 5291 
L 4363 5200 
Q 4284 4666 4197 4197 
L 6009 4197 
L 6009 3775 
L 5503 3775 
Q 5397 2275 4869 1191 
Q 5419 503 6144 75 
L 5822 -378 
Q 5188 106 4631 788 
Q 4113 34 3341 -463 
L 3031 -78 
Q 3888 406 4363 1163 
z
M 4588 1594 
Q 4938 2388 5059 3775 
L 4100 3775 
Q 4041 3519 3972 3288 
Q 3981 3250 3991 3194 
Q 4175 2256 4588 1594 
z
M 1003 4116 
Q 878 4544 638 4934 
L 1053 5094 
Q 1247 4788 1438 4269 
L 1003 4116 
z
M 2316 4269 
Q 2550 4688 2688 5131 
L 3128 4997 
Q 2966 4588 2675 4128 
L 2316 4269 
z
" transform="scale(0.015625)"/>
      <path id="IPAexGothic-5024" d="M 4172 3675 
L 5453 3675 
L 5453 684 
L 3019 684 
L 3019 3675 
L 3750 3675 
Q 3788 3884 3825 4153 
L 2141 4153 
L 2141 4544 
L 3884 4544 
Q 3922 4844 3966 5325 
L 4434 5272 
L 4388 4953 
Q 4331 4578 4331 4544 
L 5863 4544 
L 5863 4153 
L 4269 4153 
Q 4200 3781 4172 3675 
z
M 5038 3316 
L 3434 3316 
L 3434 2803 
L 5038 2803 
L 5038 3316 
z
M 3434 2450 
L 3434 1941 
L 5038 1941 
L 5038 2450 
L 3434 2450 
z
M 3434 1588 
L 3434 1044 
L 5038 1044 
L 5038 1588 
L 3434 1588 
z
M 1509 3669 
L 1509 -447 
L 1069 -447 
L 1069 2725 
Q 856 2338 531 1875 
L 288 2266 
Q 1163 3531 1541 5325 
L 1975 5222 
Q 1791 4378 1509 3669 
z
M 2488 244 
L 6031 244 
L 6031 -153 
L 2488 -153 
L 2488 -447 
L 2059 -447 
L 2059 3213 
L 2488 3213 
L 2488 244 
z
" transform="scale(0.015625)"/>
      <path id="IPAexGothic-914d" d="M 1294 3731 
L 1294 4513 
L 372 4513 
L 372 4903 
L 3341 4903 
L 3341 4513 
L 2400 4513 
L 2400 3731 
L 3200 3731 
L 3200 -416 
L 2791 -416 
L 2791 -159 
L 953 -159 
L 953 -447 
L 544 -447 
L 544 3731 
L 1294 3731 
z
M 1672 3731 
L 2028 3731 
L 2028 4513 
L 1672 4513 
L 1672 3731 
z
M 2028 3372 
L 1659 3372 
Q 1659 3316 1659 3291 
Q 1650 2203 1250 1509 
L 966 1794 
Q 1272 2316 1319 3372 
L 953 3372 
L 953 1313 
L 2791 1313 
L 2791 1894 
L 2394 1894 
Q 2028 1894 2028 2247 
L 2028 3372 
z
M 2381 3372 
L 2381 2375 
Q 2381 2234 2522 2234 
L 2791 2234 
L 2791 3372 
L 2381 3372 
z
M 953 941 
L 953 219 
L 2791 219 
L 2791 941 
L 953 941 
z
M 4072 2497 
L 4072 409 
Q 4072 250 4163 197 
Q 4281 134 4756 134 
Q 5334 134 5475 206 
Q 5653 291 5672 1300 
L 6122 1184 
Q 6063 106 5891 -94 
Q 5769 -253 5463 -275 
Q 5172 -300 4725 -300 
Q 4056 -300 3856 -203 
Q 3644 -109 3644 263 
L 3644 2900 
L 5372 2900 
L 5372 4500 
L 3534 4500 
L 3534 4903 
L 5788 4903 
L 5788 2144 
L 5372 2144 
L 5372 2497 
L 4072 2497 
z
" transform="scale(0.015625)"/>
      <path id="IPAexGothic-5217" d="M 2334 1600 
Q 1944 1966 1306 2378 
Q 1038 1938 709 1541 
L 434 1906 
Q 1325 2934 1663 4550 
L 606 4550 
L 606 4953 
L 3781 4953 
L 3781 4550 
L 2097 4550 
Q 2091 4531 2078 4466 
Q 2000 4100 1900 3781 
L 3141 3781 
L 3409 3575 
Q 3156 2138 2656 1247 
Q 2097 269 1003 -500 
L 684 -128 
Q 1769 563 2334 1600 
z
M 2534 2009 
Q 2794 2656 2919 3384 
L 1766 3384 
Q 1638 3034 1478 2706 
Q 2181 2294 2534 2009 
z
M 3956 4416 
L 4409 4416 
L 4409 966 
L 3956 966 
L 3956 4416 
z
M 5306 5056 
L 5759 5056 
L 5759 197 
Q 5759 -138 5569 -263 
Q 5419 -353 5094 -353 
Q 4547 -353 3963 -294 
L 3878 191 
Q 4600 116 5038 116 
Q 5306 116 5306 359 
L 5306 5056 
z
" transform="scale(0.015625)"/>
      <path id="IPAexGothic-3001" d="M 1325 -409 
Q 859 319 281 856 
L 691 1209 
Q 1225 734 1772 -25 
L 1325 -409 
z
" transform="scale(0.015625)"/>
      <path id="IPAexGothic-69" d="M 1178 3928 
L 550 3928 
L 550 4569 
L 1178 4569 
L 1178 3928 
z
M 1138 63 
L 588 63 
L 588 3250 
L 1138 3250 
L 1138 63 
z
" transform="scale(0.015625)"/>
      <path id="IPAexGothic-6c" d="M 1131 63 
L 581 63 
L 581 4794 
L 1131 4794 
L 1131 63 
z
" transform="scale(0.015625)"/>
      <path id="IPAexGothic-77" d="M 4772 3250 
L 3666 6 
L 3281 6 
L 2609 1919 
Q 2509 2203 2413 2622 
L 2394 2622 
Q 2322 2319 2188 1919 
L 1534 6 
L 1150 6 
L 44 3250 
L 619 3250 
L 1156 1491 
Q 1206 1331 1363 753 
L 1381 753 
Q 1475 1125 1594 1491 
L 2169 3250 
L 2656 3250 
L 3256 1491 
Q 3347 1244 3469 753 
L 3488 753 
Q 3591 1184 3684 1491 
L 4216 3250 
L 4772 3250 
z
" transform="scale(0.015625)"/>
      <path id="IPAexGothic-57fa" d="M 4638 1816 
Q 5156 1250 6091 897 
L 5772 513 
Q 4716 1006 4153 1816 
L 2244 1816 
Q 2009 1413 1606 1056 
L 2944 1056 
L 2944 1559 
L 3403 1559 
L 3403 1056 
L 4800 1056 
L 4800 697 
L 3403 697 
L 3403 84 
L 5759 84 
L 5759 -294 
L 691 -294 
L 691 84 
L 2944 84 
L 2944 697 
L 1594 697 
L 1594 1044 
Q 1184 694 619 416 
L 300 756 
Q 1278 1131 1772 1816 
L 384 1816 
L 384 2181 
L 1772 2181 
L 1772 4269 
L 641 4269 
L 641 4628 
L 1772 4628 
L 1772 5313 
L 2225 5313 
L 2225 4628 
L 4128 4628 
L 4128 5313 
L 4581 5313 
L 4581 4628 
L 5759 4628 
L 5759 4269 
L 4581 4269 
L 4581 2181 
L 6016 2181 
L 6016 1816 
L 4638 1816 
z
M 4128 4269 
L 2225 4269 
L 2225 3809 
L 4128 3809 
L 4128 4269 
z
M 4128 3463 
L 2225 3463 
L 2225 3003 
L 4128 3003 
L 4128 3463 
z
M 4128 2656 
L 2225 2656 
L 2225 2181 
L 4128 2181 
L 4128 2656 
z
" transform="scale(0.015625)"/>
      <path id="IPAexGothic-672c" d="M 3578 3463 
Q 4494 1903 6056 1050 
L 5697 600 
Q 4147 1619 3409 3084 
L 3409 1241 
L 4469 1241 
L 4469 825 
L 3425 825 
L 3425 -409 
L 2938 -409 
L 2938 825 
L 1900 825 
L 1900 1241 
L 2950 1241 
L 2950 3034 
Q 2288 1513 756 403 
L 378 794 
Q 1919 1703 2784 3463 
L 481 3463 
L 481 3903 
L 2938 3903 
L 2938 5209 
L 3425 5209 
L 3425 3903 
L 5922 3903 
L 5922 3463 
L 3578 3463 
z
" transform="scale(0.015625)"/>
      <path id="IPAexGothic-64cd" d="M 4381 1306 
Q 5084 588 6109 213 
L 5816 -203 
Q 4803 297 4197 1050 
L 4197 -447 
L 3769 -447 
L 3769 1019 
Q 3203 203 2194 -288 
L 1900 84 
Q 2900 466 3597 1306 
L 2047 1306 
L 2047 1678 
L 3769 1678 
L 3769 2113 
L 4197 2113 
L 4197 1678 
L 5944 1678 
L 5944 1306 
L 4381 1306 
z
M 1119 4013 
L 1119 5313 
L 1534 5313 
L 1534 4013 
L 2150 4013 
L 2150 3609 
L 1534 3609 
L 1534 2375 
Q 1644 2406 2066 2547 
L 2097 2175 
Q 1784 2044 1534 1953 
L 1534 0 
Q 1534 -263 1419 -356 
Q 1309 -447 1034 -447 
Q 763 -447 484 -409 
L 416 44 
Q 681 -6 934 -6 
Q 1119 -6 1119 172 
L 1119 1806 
Q 894 1722 422 1581 
L 269 2016 
Q 734 2128 1119 2247 
L 1119 3609 
L 344 3609 
L 344 4013 
L 1119 4013 
z
M 5106 5081 
L 5106 3800 
L 2809 3800 
L 2809 5081 
L 5106 5081 
z
M 3225 4728 
L 3225 4141 
L 4691 4141 
L 4691 4728 
L 3225 4728 
z
M 3794 3488 
L 3794 2213 
L 2228 2213 
L 2228 3488 
L 3794 3488 
z
M 2631 3147 
L 2631 2553 
L 3391 2553 
L 3391 3147 
L 2631 3147 
z
M 5759 3488 
L 5759 2213 
L 4172 2213 
L 4172 3488 
L 5759 3488 
z
M 4575 3147 
L 4575 2553 
L 5356 2553 
L 5356 3147 
L 4575 3147 
z
" transform="scale(0.015625)"/>
      <path id="IPAexGothic-4f5c" d="M 3609 3834 
L 3231 3834 
Q 2869 2822 2297 2038 
L 1963 2381 
Q 2797 3513 3153 5275 
L 3616 5184 
Q 3506 4656 3378 4256 
L 5984 4256 
L 5984 3834 
L 4078 3834 
L 4078 2906 
L 5678 2906 
L 5678 2484 
L 4078 2484 
L 4078 1563 
L 5775 1563 
L 5775 1147 
L 4078 1147 
L 4078 -447 
L 3609 -447 
L 3609 3834 
z
M 1734 3725 
L 1734 -447 
L 1275 -447 
L 1275 2797 
L 1250 2747 
Q 984 2284 647 1850 
L 372 2234 
Q 1309 3481 1747 5203 
L 2219 5081 
Q 2028 4406 1734 3725 
z
" transform="scale(0.015625)"/>
      <path id="IPAexGothic-30d5" d="M 4966 4294 
L 5263 4019 
Q 4819 894 1966 -97 
L 1600 353 
Q 4234 1156 4684 3822 
L 1044 3756 
L 1044 4244 
L 4966 4294 
z
" transform="scale(0.015625)"/>
      <path id="IPAexGothic-30a3" d="M 3034 -231 
L 3034 2188 
Q 2344 1656 1516 1294 
L 1191 1672 
Q 2981 2431 4128 3922 
L 4519 3634 
Q 4138 3122 3534 2597 
L 3534 -231 
L 3034 -231 
z
" transform="scale(0.015625)"/>
      <path id="IPAexGothic-30eb" d="M 353 331 
Q 1313 994 1544 2022 
Q 1684 2650 1684 4397 
L 2203 4397 
L 2203 4153 
L 2203 4116 
Q 2203 2259 1934 1491 
Q 1619 588 744 -38 
L 353 331 
z
M 3125 4666 
L 3650 4666 
L 3650 769 
Q 4875 1488 5672 2734 
L 6000 2278 
Q 5075 966 3516 63 
L 3125 359 
L 3125 4666 
z
" transform="scale(0.015625)"/>
     </defs>
     <use xlink:href="#IPAexGothic-4eca"/>
     <use xlink:href="#IPAexGothic-65e5" x="100"/>
     <use xlink:href="#IPAexGothic-5b66" x="200"/>
     <use xlink:href="#IPAexGothic-3076" x="300"/>
     <use xlink:href="#IPAexGothic-3053" x="400"/>
     <use xlink:href="#IPAexGothic-3068" x="500"/>
     <use xlink:href="#IPAexGothic-ff1a" x="600"/>
     <use xlink:href="#IPAexGothic-753b" x="700"/>
     <use xlink:href="#IPAexGothic-50cf" x="800"/>
     <use xlink:href="#IPAexGothic-306e" x="900"/>
     <use xlink:href="#IPAexGothic-6b63" x="1000"/>
     <use xlink:href="#IPAexGothic-4f53" x="1100"/>
     <use xlink:href="#IPAexGothic-ff08" x="1200"/>
     <use xlink:href="#IPAexGothic-6570" x="1300"/>
     <use xlink:href="#IPAexGothic-5024" x="1400"/>
     <use xlink:href="#IPAexGothic-914d" x="1500"/>
     <use xlink:href="#IPAexGothic-5217" x="1600"/>
     <use xlink:href="#IPAexGothic-ff09" x="1700"/>
     <use xlink:href="#IPAexGothic-3001" x="1800"/>
     <use xlink:href="#IPAexGothic-50" x="1900"/>
     <use xlink:href="#IPAexGothic-69" x="1962.109375"/>
     <use xlink:href="#IPAexGothic-6c" x="1989.111328"/>
     <use xlink:href="#IPAexGothic-6c" x="2016.113281"/>
     <use xlink:href="#IPAexGothic-6f" x="2043.115234"/>
     <use xlink:href="#IPAexGothic-77" x="2103.515625"/>
     <use xlink:href="#IPAexGothic-3067" x="2178.710938"/>
     <use xlink:href="#IPAexGothic-306e" x="2278.710938"/>
     <use xlink:href="#IPAexGothic-57fa" x="2378.710938"/>
     <use xlink:href="#IPAexGothic-672c" x="2478.710938"/>
     <use xlink:href="#IPAexGothic-64cd" x="2578.710938"/>
     <use xlink:href="#IPAexGothic-4f5c" x="2678.710938"/>
     <use xlink:href="#IPAexGothic-3001" x="2778.710938"/>
     <use xlink:href="#IPAexGothic-30d5" x="2878.710938"/>
     <use xlink:href="#IPAexGothic-30a3" x="2978.710938"/>
     <use xlink:href="#IPAexGothic-30eb" x="3078.710938"/>
     <use xlink:href="#IPAexGothic-30bf" x="3178.710938"/>
     <use xlink:href="#IPAexGothic-51e6" x="3278.710938"/>
     <use xlink:href="#IPAexGothic-7406" x="3378.710938"/>
    </g>
   </g>
  </g>
 </g>
 <defs>
  <clipPath id="p1ecda475c8">
   <rect x="0" y="-0" width="691.2" height="388.8"/>
  </clipPath>
 </defs>
</svg>
