<?xml version="1.0" encoding="utf-8" standalone="no"?>
<!DOCTYPE svg PUBLIC "-//W3C//DTD SVG 1.1//EN"
  "http://www.w3.org/Graphics/SVG/1.1/DTD/svg11.dtd">
<svg xmlns:xlink="http://www.w3.org/1999/xlink" width="691.2pt" height="388.8pt" viewBox="0 0 691.2 388.8" xmlns="http://www.w3.org/2000/svg" version="1.1">
 <metadata>
  <rdf:RDF xmlns:dc="http://purl.org/dc/elements/1.1/" xmlns:cc="http://creativecommons.org/ns#" xmlns:rdf="http://www.w3.org/1999/02/22-rdf-syntax-ns#">
   <cc:Work>
    <dc:type rdf:resource="http://purl.org/dc/dcmitype/StillImage"/>
    <dc:date>2026-04-09T02:37:45.858668</dc:date>
    <dc:format>image/svg+xml</dc:format>
    <dc:creator>
     <cc:Agent>
      <dc:title>Matplotlib v3.9.4, https://matplotlib.org/</dc:title>
     </cc:Agent>
    </dc:creator>
   </cc:Work>
  </rdf:RDF>
 </metadata>
 <defs>
  <style type="text/css">*{stroke-linejoin: round; stroke-linecap: butt}</style>
 </defs>
 <g id="figure_1">
  <g id="patch_1">
   <path d="M 0 388.8 
L 691.2 388.8 
L 691.2 0 
L 0 0 
z
" style="fill: #ffffff"/>
  </g>
  <g id="axes_1">
   <g id="patch_2">
    <path d="M 0 -0 
L 691.2 -0 
L 691.2 24.48 
L 0 24.48 
z
" clip-path="url(#pf8adf68a30)" style="fill: #e8a838"/>
   </g>
   <g id="patch_3">
    <path d="M 31.68 59.04 
L 659.52 59.04 
L 659.52 60.48 
L 31.68 60.48 
z
" clip-path="url(#pf8adf68a30)" style="fill: #ecf0f1"/>
   </g>
   <g id="patch_4">
    <path d="M 31.68 67.68 
L 339.84 67.68 
Q 344.16 67.68 344.16 72 
L 344.16 201.6 
Q 344.16 205.92 339.84 205.92 
L 31.68 205.92 
Q 27.36 205.92 27.36 201.6 
L 27.36 72 
Q 27.36 67.68 31.68 67.68 
z
" clip-path="url(#pf8adf68a30)" style="fill: #f8f8f8; stroke: #bdc3c7; stroke-width: 2; stroke-linejoin: miter"/>
   </g>
   <g id="patch_5">
    <path d="M 351.36 67.68 
L 659.52 67.68 
Q 663.84 67.68 663.84 72 
L 663.84 201.6 
Q 663.84 205.92 659.52 205.92 
L 351.36 205.92 
Q 347.04 205.92 347.04 201.6 
L 347.04 72 
Q 347.04 67.68 351.36 67.68 
z
" clip-path="url(#pf8adf68a30)" style="fill: #fff3e0; stroke: #e8a838; stroke-width: 2; stroke-linejoin: miter"/>
   </g>
   <g id="patch_6">
    <path d="M 31.68 214.56 
L 659.52 214.56 
L 659.52 252 
L 31.68 252 
z
" clip-path="url(#pf8adf68a30)" style="fill: #fdedec"/>
   </g>
   <g id="patch_7">
    <path d="M 31.68 214.56 
L 33.84 214.56 
L 33.84 252 
L 31.68 252 
z
" clip-path="url(#pf8adf68a30)" style="fill: #c0392b"/>
   </g>
   <g id="patch_8">
    <path d="M 31.68 260.64 
L 659.52 260.64 
Q 662.4 260.64 662.4 263.52 
L 662.4 318.24 
Q 662.4 321.12 659.52 321.12 
L 31.68 321.12 
Q 28.8 321.12 28.8 318.24 
L 28.8 263.52 
Q 28.8 260.64 31.68 260.64 
z
" clip-path="url(#pf8adf68a30)" style="fill: #1e1e2e; stroke: #555555; stroke-linejoin: miter"/>
   </g>
   <g id="patch_9">
    <path d="M 31.68 328.32 
L 659.52 328.32 
L 659.52 357.12 
L 31.68 357.12 
z
" clip-path="url(#pf8adf68a30)" style="fill: #fef9e7"/>
   </g>
   <g id="patch_10">
    <path d="M 31.68 328.32 
L 33.84 328.32 
L 33.84 357.12 
L 31.68 357.12 
z
" clip-path="url(#pf8adf68a30)" style="fill: #e8a838"/>
   </g>
   <g id="text_1">
    <!-- Ch.3 画像処理入門 -->
    <g style="fill: #ffffff" transform="translate(31.68 15.035312) scale(0.1 -0.1)">
     <defs>
      <path id="IPAexGothic-43" d="M 4353 1088 
Q 4181 694 3859 428 
Q 3313 -31 2559 -31 
Q 1588 -31 959 653 
Q 378 1294 378 2331 
Q 378 3406 1013 4078 
Q 1619 4725 2534 4725 
Q 3813 4725 4322 3628 
L 3809 3391 
Q 3425 4238 2541 4238 
Q 1891 4238 1453 3744 
Q 994 3216 994 2322 
Q 994 1550 1384 1056 
Q 1841 472 2563 472 
Q 3456 472 3878 1319 
L 4353 1088 
z
" transform="scale(0.015625)"/>
      <path id="IPAexGothic-68" d="M 3347 63 
L 2797 63 
L 2797 2041 
Q 2797 2853 2131 2853 
Q 1447 2853 1131 2041 
L 1131 63 
L 581 63 
L 581 4794 
L 1131 4794 
L 1131 2706 
Q 1566 3316 2247 3316 
Q 3347 3316 3347 2072 
L 3347 63 
z
" transform="scale(0.015625)"/>
      <path id="IPAexGothic-2e" d="M 1184 63 
L 494 63 
L 494 753 
L 1184 753 
L 1184 63 
z
" transform="scale(0.015625)"/>
      <path id="IPAexGothic-33" d="M 2381 2419 
Q 3506 2216 3506 1278 
Q 3506 716 3128 356 
Q 2709 -31 1944 -31 
Q 797 -31 288 881 
L 756 1131 
Q 1109 441 1938 441 
Q 2425 441 2694 691 
Q 2950 928 2950 1291 
Q 2950 1719 2566 1978 
Q 2216 2213 1644 2213 
L 1363 2213 
L 1363 2669 
L 1656 2669 
Q 2231 2669 2534 2888 
Q 2859 3119 2859 3509 
Q 2859 3934 2494 4138 
Q 2259 4278 1931 4278 
Q 1238 4278 903 3578 
L 434 3803 
Q 897 4725 1938 4725 
Q 2597 4725 3006 4394 
Q 3416 4069 3416 3534 
Q 3416 3028 3019 2706 
Q 2763 2500 2381 2444 
L 2381 2419 
z
" transform="scale(0.015625)"/>
      <path id="IPAexGothic-20" transform="scale(0.015625)"/>
      <path id="IPAexGothic-753b" d="M 2966 3713 
L 2966 4447 
L 353 4447 
L 353 4856 
L 6041 4856 
L 6041 4447 
L 3406 4447 
L 3406 3713 
L 4769 3713 
L 4769 825 
L 1634 825 
L 1634 3713 
L 2966 3713 
z
M 2978 3334 
L 2050 3334 
L 2050 2484 
L 2978 2484 
L 2978 3334 
z
M 3394 3334 
L 3394 2484 
L 4347 2484 
L 4347 3334 
L 3394 3334 
z
M 2978 2119 
L 2050 2119 
L 2050 1197 
L 2978 1197 
L 2978 2119 
z
M 3394 2119 
L 3394 1197 
L 4347 1197 
L 4347 2119 
L 3394 2119 
z
M 1081 300 
L 5316 300 
L 5316 3603 
L 5756 3603 
L 5756 -450 
L 5316 -450 
L 5316 -97 
L 1081 -97 
L 1081 -450 
L 641 -450 
L 641 3603 
L 1081 3603 
L 1081 300 
z
" transform="scale(0.015625)"/>
      <path id="IPAexGothic-50cf" d="M 4000 2688 
L 3828 2688 
Q 3672 2513 3509 2369 
Q 4422 1550 4422 403 
Q 4422 -56 4263 -244 
Q 4119 -416 3744 -416 
Q 3369 -416 3053 -372 
L 2972 97 
Q 3334 -6 3681 -6 
Q 3913 -6 3963 147 
Q 3994 266 3994 453 
Q 3994 738 3919 1063 
Q 3194 234 2159 -238 
L 1859 116 
Q 2959 519 3778 1422 
Q 3716 1534 3638 1663 
Q 2925 953 2025 622 
L 1756 966 
Q 2638 1216 3438 1938 
Q 3350 2044 3247 2150 
Q 2759 1766 2031 1466 
L 1763 1791 
Q 2638 2094 3347 2688 
L 2197 2688 
L 2197 3488 
Q 2041 3344 1866 3200 
L 1641 3563 
Q 2566 4278 3053 5331 
L 3481 5222 
Q 3425 5113 3328 4922 
L 4550 4922 
L 4813 4722 
Q 4534 4325 4231 4013 
L 5619 4013 
L 5619 2688 
L 4384 2688 
Q 4525 2200 4744 1803 
Q 5209 2163 5581 2572 
L 5953 2291 
Q 5516 1872 4928 1491 
Q 5359 828 6059 300 
L 5728 -56 
Q 4450 1019 4000 2688 
z
M 2625 3034 
L 3694 3034 
L 3694 3659 
L 2625 3659 
L 2625 3034 
z
M 2703 4013 
L 3744 4013 
Q 4006 4275 4181 4550 
L 3106 4550 
Q 2903 4253 2703 4013 
z
M 4097 3034 
L 5184 3034 
L 5184 3659 
L 4097 3659 
L 4097 3034 
z
M 1394 3706 
L 1394 -447 
L 966 -447 
L 966 2694 
Q 750 2266 478 1863 
L 244 2259 
Q 1028 3500 1388 5306 
L 1816 5203 
Q 1634 4369 1394 3706 
z
" transform="scale(0.015625)"/>
      <path id="IPAexGothic-51e6" d="M 2144 1263 
Q 2538 638 3147 425 
Q 3628 253 4741 253 
Q 5266 253 6163 303 
Q 6038 63 6009 -216 
Q 5450 -234 5094 -234 
Q 3675 -234 3097 -38 
Q 2388 206 1919 884 
Q 1366 6 734 -478 
L 397 -106 
Q 1128 384 1675 1306 
Q 1341 1969 1138 2913 
Q 934 2309 606 1775 
L 306 2159 
Q 1069 3425 1319 5219 
L 1759 5116 
Q 1694 4763 1631 4481 
L 2650 4481 
L 2903 4275 
Q 2759 2447 2144 1263 
z
M 1900 1744 
Q 2356 2797 2469 4066 
L 1528 4066 
Q 1463 3822 1388 3625 
Q 1534 2575 1900 1744 
z
M 5056 4756 
L 5056 1466 
Q 5056 1263 5269 1263 
Q 5466 1263 5484 1475 
Q 5506 1600 5516 2081 
L 5525 2222 
L 5953 2069 
Q 5944 1234 5831 1038 
Q 5728 859 5216 859 
Q 4888 859 4750 950 
Q 4622 1038 4622 1294 
L 4622 4353 
L 3872 4353 
L 3872 3759 
Q 3872 2544 3744 1916 
Q 3600 1244 3141 706 
L 2813 1025 
Q 3256 1563 3372 2369 
Q 3428 2809 3428 3566 
L 3428 4756 
L 5056 4756 
z
" transform="scale(0.015625)"/>
      <path id="IPAexGothic-7406" d="M 1541 4397 
L 1541 3084 
L 2219 3084 
L 2219 2688 
L 1541 2688 
L 1541 1247 
Q 1919 1356 2397 1522 
L 2431 1144 
Q 1353 713 434 472 
L 263 909 
Q 763 1025 1113 1119 
L 1113 2688 
L 441 2688 
L 441 3084 
L 1113 3084 
L 1113 4397 
L 369 4397 
L 369 4800 
L 2347 4800 
L 2347 4397 
L 1541 4397 
z
M 5691 4991 
L 5691 2106 
L 4378 2106 
L 4378 1375 
L 5825 1375 
L 5825 984 
L 4378 984 
L 4378 206 
L 6081 206 
L 6081 -191 
L 2150 -191 
L 2150 206 
L 3944 206 
L 3944 984 
L 2559 984 
L 2559 1375 
L 3944 1375 
L 3944 2106 
L 2675 2106 
L 2675 4991 
L 5691 4991 
z
M 3091 4606 
L 3091 3750 
L 3956 3750 
L 3956 4606 
L 3091 4606 
z
M 3091 3378 
L 3091 2491 
L 3956 2491 
L 3956 3378 
L 3091 3378 
z
M 5275 2491 
L 5275 3378 
L 4366 3378 
L 4366 2491 
L 5275 2491 
z
M 5275 3750 
L 5275 4606 
L 4366 4606 
L 4366 3750 
L 5275 3750 
z
" transform="scale(0.015625)"/>
      <path id="IPAexGothic-5165" d="M 3275 3078 
Q 2806 619 819 -334 
L 447 91 
Q 2934 1156 3000 4550 
L 1472 4550 
L 1472 4984 
L 3525 4984 
L 3525 4728 
Q 3525 3053 4116 2041 
Q 4734 972 6022 275 
L 5650 -200 
Q 3697 1044 3275 3078 
z
" transform="scale(0.015625)"/>
      <path id="IPAexGothic-9580" d="M 2894 4984 
L 2894 2388 
L 2453 2388 
L 2453 2688 
L 1109 2688 
L 1109 -447 
L 641 -447 
L 641 4984 
L 2894 4984 
z
M 1109 4588 
L 1109 4019 
L 2453 4019 
L 2453 4588 
L 1109 4588 
z
M 1109 3659 
L 1109 3072 
L 2453 3072 
L 2453 3659 
L 1109 3659 
z
M 5747 4984 
L 5747 178 
Q 5747 -166 5581 -281 
Q 5441 -384 5075 -384 
Q 4575 -384 4153 -341 
L 4066 166 
Q 4616 97 5013 97 
Q 5288 97 5288 331 
L 5288 2688 
L 3903 2688 
L 3903 2388 
L 3463 2388 
L 3463 4984 
L 5747 4984 
z
M 3903 4588 
L 3903 4019 
L 5288 4019 
L 5288 4588 
L 3903 4588 
z
M 3903 3659 
L 3903 3072 
L 5288 3072 
L 5288 3659 
L 3903 3659 
z
" transform="scale(0.015625)"/>
     </defs>
     <use xlink:href="#IPAexGothic-43"/>
     <use xlink:href="#IPAexGothic-68" x="72.509766"/>
     <use xlink:href="#IPAexGothic-2e" x="133.203125"/>
     <use xlink:href="#IPAexGothic-33" x="159.619141"/>
     <use xlink:href="#IPAexGothic-20" x="222.607422"/>
     <use xlink:href="#IPAexGothic-753b" x="249.609375"/>
     <use xlink:href="#IPAexGothic-50cf" x="349.609375"/>
     <use xlink:href="#IPAexGothic-51e6" x="449.609375"/>
     <use xlink:href="#IPAexGothic-7406" x="549.609375"/>
     <use xlink:href="#IPAexGothic-5165" x="649.609375"/>
     <use xlink:href="#IPAexGothic-9580" x="749.609375"/>
    </g>
   </g>
   <g id="text_2">
    <!-- グレースケールとカラー（RGB）の違い -->
    <g style="fill: #1a1a2e" transform="translate(31.68 55.4175) scale(0.24 -0.24)">
     <defs>
      <path id="IPAexGothic-30b0" d="M 4769 4128 
L 5106 3878 
Q 4728 2272 3866 1238 
Q 3106 328 1863 -288 
L 1491 122 
Q 2709 628 3475 1563 
Q 4238 2491 4525 3669 
L 2738 3669 
Q 2022 2591 1191 1897 
L 813 2247 
Q 2163 3338 2766 4959 
L 3256 4819 
Q 3197 4609 2975 4128 
L 4769 4128 
z
M 6009 4422 
Q 5647 4966 5253 5294 
L 5556 5522 
Q 5941 5213 6328 4697 
L 6009 4422 
z
M 5416 3956 
Q 5125 4447 4678 4844 
L 4991 5088 
Q 5363 4781 5747 4231 
L 5416 3956 
z
" transform="scale(0.015625)"/>
      <path id="IPAexGothic-30ec" d="M 1538 4706 
L 2075 4706 
L 2075 622 
Q 4059 1375 5172 2894 
L 5481 2431 
Q 4922 1678 3931 1019 
Q 2919 334 1928 -31 
L 1538 269 
L 1538 4706 
z
" transform="scale(0.015625)"/>
      <path id="IPAexGothic-30fc" d="M 588 2688 
L 5809 2688 
L 5809 2175 
L 588 2175 
L 588 2688 
z
" transform="scale(0.015625)"/>
      <path id="IPAexGothic-30b9" d="M 4359 4481 
L 4716 4147 
Q 4328 3072 3647 2150 
Q 4659 1434 5659 453 
L 5234 19 
Q 4256 1088 3353 1778 
Q 2372 597 1044 -31 
L 653 403 
Q 3128 1453 4097 4000 
L 1241 3963 
L 1228 4453 
L 4359 4481 
z
" transform="scale(0.015625)"/>
      <path id="IPAexGothic-30b1" d="M 5638 3275 
L 4178 3275 
Q 4141 1972 3738 1234 
Q 3241 322 2150 -256 
L 1766 141 
Q 2931 678 3353 1644 
Q 3619 2263 3647 3275 
L 2097 3275 
Q 1694 2456 972 1784 
L 594 2128 
Q 1781 3203 2138 4966 
L 2628 4856 
Q 2503 4281 2303 3744 
L 5638 3744 
L 5638 3275 
z
" transform="scale(0.015625)"/>
      <path id="IPAexGothic-30eb" d="M 353 331 
Q 1313 994 1544 2022 
Q 1684 2650 1684 4397 
L 2203 4397 
L 2203 4153 
L 2203 4116 
Q 2203 2259 1934 1491 
Q 1619 588 744 -38 
L 353 331 
z
M 3125 4666 
L 3650 4666 
L 3650 769 
Q 4875 1488 5672 2734 
L 6000 2278 
Q 5075 966 3516 63 
L 3125 359 
L 3125 4666 
z
" transform="scale(0.015625)"/>
      <path id="IPAexGothic-3068" d="M 5222 56 
Q 4200 -72 3450 -72 
Q 2478 -72 1941 113 
Q 1184 372 1184 1038 
Q 1184 1584 1594 2009 
Q 1941 2369 2656 2725 
Q 2231 3734 1972 4878 
L 2491 4978 
Q 2706 3884 3078 2950 
Q 4250 3447 4756 3616 
L 4978 3150 
Q 3181 2575 2409 2078 
Q 1691 1613 1691 1113 
Q 1691 403 3322 403 
Q 4125 403 5134 563 
L 5222 56 
z
" transform="scale(0.015625)"/>
      <path id="IPAexGothic-30ab" d="M 2734 4981 
L 3247 4981 
L 3247 3694 
L 5250 3694 
L 5250 3491 
L 5250 3425 
Q 5250 1334 5019 500 
Q 4856 -84 4297 -84 
Q 3788 -84 3247 172 
L 3228 731 
Q 3859 441 4200 441 
Q 4484 441 4553 763 
Q 4706 1478 4738 3234 
L 3206 3234 
Q 3025 906 1159 -134 
L 769 263 
Q 2519 1134 2700 3209 
L 916 3209 
L 916 3669 
L 2734 3669 
L 2734 4981 
z
" transform="scale(0.015625)"/>
      <path id="IPAexGothic-30e9" d="M 1447 4709 
L 4922 4709 
L 4922 4234 
L 1447 4234 
L 1447 4709 
z
M 897 3303 
L 5172 3303 
L 5478 3013 
Q 5069 1669 4219 875 
Q 3475 181 2306 -181 
L 1972 294 
Q 4150 784 4834 2828 
L 897 2828 
L 897 3303 
z
" transform="scale(0.015625)"/>
      <path id="IPAexGothic-ff08" d="M 5419 -434 
Q 4197 769 4197 2438 
Q 4197 4097 5419 5300 
L 5919 5300 
Q 4678 4078 4678 2425 
Q 4678 788 5919 -434 
L 5419 -434 
z
" transform="scale(0.015625)"/>
      <path id="IPAexGothic-52" d="M 4072 63 
L 3394 63 
Q 3138 641 2828 1197 
Q 2584 1641 2344 1825 
Q 2050 2044 1625 2044 
L 1172 2044 
L 1172 63 
L 609 63 
L 609 4634 
L 2009 4634 
Q 2713 4634 3131 4378 
Q 3688 4044 3688 3381 
Q 3688 2784 3181 2459 
Q 2906 2272 2522 2216 
L 2522 2197 
Q 2941 2050 3247 1581 
Q 3516 1166 4072 63 
z
M 1172 2478 
L 1869 2478 
Q 3106 2478 3106 3369 
Q 3106 4181 1928 4181 
L 1172 4181 
L 1172 2478 
z
" transform="scale(0.015625)"/>
      <path id="IPAexGothic-47" d="M 4403 781 
Q 4172 494 3731 250 
Q 3209 -31 2591 -31 
Q 1606 -31 988 628 
Q 378 1275 378 2325 
Q 378 3406 1013 4078 
Q 1619 4725 2534 4725 
Q 3800 4725 4325 3628 
L 3816 3391 
Q 3422 4238 2541 4238 
Q 1891 4238 1453 3744 
Q 994 3216 994 2328 
Q 994 1531 1397 1022 
Q 1844 459 2625 459 
Q 3459 459 3878 966 
L 3878 1856 
L 2859 1856 
L 2859 2291 
L 4403 2291 
L 4403 781 
z
" transform="scale(0.015625)"/>
      <path id="IPAexGothic-42" d="M 2688 2425 
Q 3816 2225 3816 1338 
Q 3816 556 3041 222 
Q 2672 63 2094 63 
L 609 63 
L 609 4634 
L 1916 4634 
Q 2494 4634 2869 4500 
Q 3644 4222 3644 3491 
Q 3644 2609 2688 2447 
L 2688 2425 
z
M 1159 2656 
L 1844 2656 
Q 3063 2656 3063 3431 
Q 3063 4181 1881 4181 
L 1159 4181 
L 1159 2656 
z
M 1159 522 
L 2016 522 
Q 3222 522 3222 1369 
Q 3222 1897 2625 2100 
Q 2278 2222 1875 2222 
L 1159 2222 
L 1159 522 
z
" transform="scale(0.015625)"/>
      <path id="IPAexGothic-ff09" d="M 481 -434 
Q 1722 788 1722 2431 
Q 1722 4066 481 5300 
L 981 5300 
Q 2203 4097 2203 2431 
Q 2203 769 981 -434 
L 481 -434 
z
" transform="scale(0.015625)"/>
      <path id="IPAexGothic-306e" d="M 3119 469 
Q 5275 766 5275 2425 
Q 5275 3453 4413 3925 
Q 4041 4116 3547 4159 
Q 3394 2525 2850 1400 
Q 2322 306 1722 306 
Q 1384 306 1084 666 
Q 609 1244 609 2003 
Q 609 3025 1397 3794 
Q 2184 4563 3431 4563 
Q 4306 4563 4928 4122 
Q 5813 3506 5813 2425 
Q 5813 438 3431 6 
L 3119 469 
z
M 3053 4147 
Q 2378 4044 1891 3641 
Q 1097 2981 1097 1991 
Q 1097 1366 1434 978 
Q 1581 813 1719 813 
Q 2022 813 2416 1625 
Q 2909 2638 3053 4147 
z
" transform="scale(0.015625)"/>
      <path id="IPAexGothic-9055" d="M 4494 2319 
L 4494 1947 
L 5728 1947 
L 5728 1606 
L 4494 1606 
L 4494 1184 
L 6009 1184 
L 6009 838 
L 4494 838 
L 4494 222 
L 4078 222 
L 4078 838 
L 1919 838 
L 1919 1184 
L 2719 1184 
L 2719 1606 
L 2206 1606 
L 2206 1947 
L 4078 1947 
L 4078 2319 
L 2534 2319 
L 2534 3359 
L 5331 3359 
L 5331 2319 
L 4494 2319 
z
M 4078 1184 
L 4078 1606 
L 3122 1606 
L 3122 1184 
L 4078 1184 
z
M 2938 3041 
L 2938 2638 
L 4928 2638 
L 4928 3041 
L 2938 3041 
z
M 1709 741 
Q 1938 444 2222 306 
Q 2653 94 3934 94 
Q 4900 94 6144 178 
Q 6025 -50 5978 -300 
Q 4969 -341 4359 -341 
Q 2788 -341 2222 -128 
Q 1781 34 1531 391 
Q 1125 -72 653 -453 
L 372 13 
Q 909 338 1275 666 
L 1275 2303 
L 378 2303 
L 378 2731 
L 1709 2731 
L 1709 741 
z
M 3113 4019 
Q 3141 4078 3259 4384 
L 2528 4384 
L 2528 4703 
L 3369 4703 
L 3388 4759 
Q 3478 5056 3534 5284 
L 3950 5222 
Q 3906 5025 3822 4781 
L 3803 4703 
L 5109 4703 
L 5109 4019 
L 5978 4019 
L 5978 3678 
L 1953 3678 
L 1953 4019 
L 3113 4019 
z
M 3688 4384 
L 3675 4341 
Q 3653 4278 3547 4019 
L 4706 4019 
L 4706 4384 
L 3688 4384 
z
M 1484 3775 
Q 1016 4344 525 4738 
L 838 5056 
Q 1413 4594 1825 4122 
L 1484 3775 
z
" transform="scale(0.015625)"/>
      <path id="IPAexGothic-3044" d="M 3369 1447 
Q 2906 122 2278 122 
Q 1966 122 1647 481 
Q 1209 966 1044 1966 
Q 891 2888 891 4313 
L 1422 4313 
Q 1413 2444 1666 1550 
Q 1913 678 2278 678 
Q 2619 678 2925 1791 
L 3369 1447 
z
M 5378 1294 
Q 4928 2797 4034 3809 
L 4488 4031 
Q 5375 3000 5881 1563 
L 5378 1294 
z
" transform="scale(0.015625)"/>
     </defs>
     <use xlink:href="#IPAexGothic-30b0"/>
     <use xlink:href="#IPAexGothic-30ec" x="100"/>
     <use xlink:href="#IPAexGothic-30fc" x="200"/>
     <use xlink:href="#IPAexGothic-30b9" x="300"/>
     <use xlink:href="#IPAexGothic-30b1" x="400"/>
     <use xlink:href="#IPAexGothic-30fc" x="500"/>
     <use xlink:href="#IPAexGothic-30eb" x="600"/>
     <use xlink:href="#IPAexGothic-3068" x="700"/>
     <use xlink:href="#IPAexGothic-30ab" x="800"/>
     <use xlink:href="#IPAexGothic-30e9" x="900"/>
     <use xlink:href="#IPAexGothic-30fc" x="1000"/>
     <use xlink:href="#IPAexGothic-ff08" x="1100"/>
     <use xlink:href="#IPAexGothic-52" x="1200"/>
     <use xlink:href="#IPAexGothic-47" x="1264.794922"/>
     <use xlink:href="#IPAexGothic-42" x="1340.087891"/>
     <use xlink:href="#IPAexGothic-ff09" x="1406.005859"/>
     <use xlink:href="#IPAexGothic-306e" x="1506.005859"/>
     <use xlink:href="#IPAexGothic-9055" x="1606.005859"/>
     <use xlink:href="#IPAexGothic-3044" x="1706.005859"/>
    </g>
   </g>
   <g id="text_3">
    <!-- 🔲 グレースケール -->
    <g style="fill: #bdc3c7" transform="translate(43.2 92.128594) scale(0.13 -0.13)">
     <defs>
      <path id="IPAexGothic-1f532" d="M 5759 -641 
L 641 -641 
L 641 5503 
L 5759 5503 
L 5759 -641 
z
M 5216 5172 
L 1191 5172 
L 3206 2694 
L 5216 5172 
z
M 5428 -53 
L 5428 4903 
L 3419 2425 
L 5428 -53 
z
M 2988 2425 
L 972 4916 
L 972 -59 
L 2988 2425 
z
M 5209 -309 
L 3206 2163 
L 1197 -309 
L 5209 -309 
z
" transform="scale(0.015625)"/>
     </defs>
     <use xlink:href="#IPAexGothic-1f532"/>
     <use xlink:href="#IPAexGothic-20" x="100"/>
     <use xlink:href="#IPAexGothic-30b0" x="127.001953"/>
     <use xlink:href="#IPAexGothic-30ec" x="227.001953"/>
     <use xlink:href="#IPAexGothic-30fc" x="327.001953"/>
     <use xlink:href="#IPAexGothic-30b9" x="427.001953"/>
     <use xlink:href="#IPAexGothic-30b1" x="527.001953"/>
     <use xlink:href="#IPAexGothic-30fc" x="627.001953"/>
     <use xlink:href="#IPAexGothic-30eb" x="727.001953"/>
    </g>
   </g>
   <g id="text_4">
    <!-- ・1チャンネル（明るさのみ） -->
    <g style="fill: #2c3e50" transform="translate(47.52 109.414219) scale(0.115 -0.115)">
     <defs>
      <path id="IPAexGothic-30fb" d="M 2772 2859 
L 3628 2859 
L 3628 2003 
L 2772 2003 
L 2772 2859 
z
" transform="scale(0.015625)"/>
      <path id="IPAexGothic-31" d="M 2463 63 
L 1900 63 
L 1900 4103 
Q 1372 3922 788 3797 
L 684 4231 
Q 1519 4441 2106 4731 
L 2463 4731 
L 2463 63 
z
" transform="scale(0.015625)"/>
      <path id="IPAexGothic-30c1" d="M 3088 2853 
L 3088 3981 
Q 2359 3847 1531 3797 
L 1288 4238 
Q 3200 4344 4553 4872 
L 4909 4456 
Q 4244 4216 3606 4078 
L 3606 2913 
L 5806 2913 
L 5806 2459 
L 3600 2459 
Q 3559 1422 3188 850 
Q 2722 138 1738 -256 
L 1347 153 
Q 2319 500 2709 1081 
Q 3031 1563 3081 2400 
L 597 2400 
L 597 2853 
L 3088 2853 
z
" transform="scale(0.015625)"/>
      <path id="IPAexGothic-30e3" d="M 2559 3903 
L 2803 2816 
L 4863 3169 
L 5191 2894 
Q 4672 1875 4103 1203 
L 3666 1447 
Q 4175 2013 4525 2688 
L 2900 2388 
L 3450 -116 
L 2969 -231 
L 2419 2297 
L 1172 2069 
L 1075 2516 
L 2328 2731 
L 2094 3809 
L 2559 3903 
z
" transform="scale(0.015625)"/>
      <path id="IPAexGothic-30f3" d="M 2444 3084 
Q 1816 3656 1056 4084 
L 1381 4519 
Q 2063 4191 2816 3559 
L 2444 3084 
z
M 1100 609 
Q 3984 1106 5216 3828 
L 5619 3469 
Q 4413 794 1434 103 
L 1100 609 
z
" transform="scale(0.015625)"/>
      <path id="IPAexGothic-30cd" d="M 1288 3834 
L 4803 3834 
L 5066 3559 
Q 4419 2813 3466 2134 
L 3466 -294 
L 2953 -294 
L 2953 1800 
Q 1963 1203 1056 891 
L 731 1328 
Q 1797 1631 2844 2281 
Q 3675 2794 4253 3381 
L 1288 3381 
L 1288 3834 
z
M 3669 4031 
Q 3094 4459 2291 4850 
L 2572 5222 
Q 3334 4884 4000 4428 
L 3669 4031 
z
M 5441 838 
Q 4781 1413 3859 1966 
L 4159 2316 
Q 5078 1819 5825 1247 
L 5441 838 
z
" transform="scale(0.015625)"/>
      <path id="IPAexGothic-660e" d="M 3753 1684 
Q 3675 378 2716 -488 
L 2359 -147 
Q 3325 609 3325 2031 
L 3325 4984 
L 5722 4984 
L 5722 103 
Q 5722 -391 5172 -391 
Q 4753 -391 4328 -347 
L 4266 141 
Q 4700 69 5031 69 
Q 5281 69 5281 322 
L 5281 1684 
L 3753 1684 
z
M 3766 2075 
L 5281 2075 
L 5281 3150 
L 3766 3150 
L 3766 2075 
z
M 3766 3547 
L 5281 3547 
L 5281 4575 
L 3766 4575 
L 3766 3547 
z
M 2681 4813 
L 2681 1063 
L 1050 1063 
L 1050 634 
L 609 634 
L 609 4813 
L 2681 4813 
z
M 1050 4422 
L 1050 3181 
L 2241 3181 
L 2241 4422 
L 1050 4422 
z
M 1050 2797 
L 1050 1459 
L 2241 1459 
L 2241 2797 
L 1050 2797 
z
" transform="scale(0.015625)"/>
      <path id="IPAexGothic-308b" d="M 4391 4397 
L 2613 2588 
Q 3225 2809 3759 2809 
Q 4263 2809 4659 2625 
Q 5391 2269 5391 1484 
Q 5391 756 4706 275 
Q 4072 -166 3053 -166 
Q 2559 -166 2247 19 
Q 1863 250 1863 666 
Q 1863 934 2069 1141 
Q 2331 1403 2741 1403 
Q 3509 1403 4019 428 
Q 4872 784 4872 1491 
Q 4872 1981 4469 2222 
Q 4166 2406 3681 2406 
Q 2425 2406 1238 1209 
L 891 1581 
Q 2438 2934 3578 4281 
Q 2594 4125 1588 4066 
L 1478 4550 
Q 2594 4581 4109 4763 
L 4391 4397 
z
M 3591 303 
Q 3244 1025 2731 1025 
Q 2553 1025 2434 934 
Q 2316 844 2316 700 
Q 2316 250 3034 250 
Q 3275 250 3591 303 
z
" transform="scale(0.015625)"/>
      <path id="IPAexGothic-3055" d="M 1747 1184 
Q 1747 834 2094 609 
Q 2422 391 3706 391 
Q 4088 391 4422 434 
L 4478 -50 
Q 4116 -84 3853 -84 
Q 3000 -84 2544 -13 
Q 2044 69 1759 263 
Q 1272 597 1272 1125 
Q 1272 1638 1728 1953 
Q 2163 2253 2884 2253 
Q 3741 2253 4300 2003 
Q 3797 2556 3322 3438 
Q 2128 3219 1113 3219 
L 966 3694 
Q 1150 3688 1388 3688 
Q 2291 3688 3128 3847 
Q 2919 4253 2597 4953 
L 3059 5081 
Q 3347 4384 3591 3950 
Q 4375 4147 5028 4481 
L 5297 4056 
Q 4653 3763 3775 3547 
Q 4309 2597 5069 1703 
L 4672 1363 
Q 3994 1838 2872 1838 
Q 2278 1838 1984 1628 
Q 1747 1459 1747 1184 
z
" transform="scale(0.015625)"/>
      <path id="IPAexGothic-307f" d="M 1291 4416 
Q 2209 4456 3341 4647 
L 3666 4409 
Q 3478 3597 3134 2703 
Q 3959 2575 4581 2300 
Q 4669 2759 4678 3488 
L 5163 3381 
Q 5134 2672 5016 2106 
Q 5519 1856 6016 1519 
L 5722 1081 
Q 5184 1459 4888 1613 
Q 4572 441 3456 -238 
L 3072 109 
Q 4150 678 4472 1831 
Q 3706 2200 2969 2284 
Q 2038 200 1319 200 
Q 1013 200 775 525 
Q 569 819 569 1197 
Q 569 1756 1081 2172 
Q 1681 2647 2663 2716 
Q 2900 3313 3084 4159 
Q 2278 4022 1447 3956 
L 1291 4416 
z
M 2481 2291 
Q 1644 2206 1241 1734 
Q 1038 1494 1038 1178 
Q 1038 1019 1100 897 
Q 1188 706 1338 706 
Q 1513 706 1797 1097 
Q 2131 1534 2481 2291 
z
" transform="scale(0.015625)"/>
     </defs>
     <use xlink:href="#IPAexGothic-30fb"/>
     <use xlink:href="#IPAexGothic-31" x="100"/>
     <use xlink:href="#IPAexGothic-30c1" x="162.988281"/>
     <use xlink:href="#IPAexGothic-30e3" x="262.988281"/>
     <use xlink:href="#IPAexGothic-30f3" x="362.988281"/>
     <use xlink:href="#IPAexGothic-30cd" x="462.988281"/>
     <use xlink:href="#IPAexGothic-30eb" x="562.988281"/>
     <use xlink:href="#IPAexGothic-ff08" x="662.988281"/>
     <use xlink:href="#IPAexGothic-660e" x="762.988281"/>
     <use xlink:href="#IPAexGothic-308b" x="862.988281"/>
     <use xlink:href="#IPAexGothic-3055" x="962.988281"/>
     <use xlink:href="#IPAexGothic-306e" x="1062.988281"/>
     <use xlink:href="#IPAexGothic-307f" x="1162.988281"/>
     <use xlink:href="#IPAexGothic-ff09" x="1262.988281"/>
    </g>
   </g>
   <g id="text_5">
    <!-- ・配列の形：(縦, 横) -->
    <g style="fill: #2c3e50" transform="translate(47.52 129.021875) scale(0.115 -0.115)">
     <defs>
      <path id="IPAexGothic-914d" d="M 1294 3731 
L 1294 4513 
L 372 4513 
L 372 4903 
L 3341 4903 
L 3341 4513 
L 2400 4513 
L 2400 3731 
L 3200 3731 
L 3200 -416 
L 2791 -416 
L 2791 -159 
L 953 -159 
L 953 -447 
L 544 -447 
L 544 3731 
L 1294 3731 
z
M 1672 3731 
L 2028 3731 
L 2028 4513 
L 1672 4513 
L 1672 3731 
z
M 2028 3372 
L 1659 3372 
Q 1659 3316 1659 3291 
Q 1650 2203 1250 1509 
L 966 1794 
Q 1272 2316 1319 3372 
L 953 3372 
L 953 1313 
L 2791 1313 
L 2791 1894 
L 2394 1894 
Q 2028 1894 2028 2247 
L 2028 3372 
z
M 2381 3372 
L 2381 2375 
Q 2381 2234 2522 2234 
L 2791 2234 
L 2791 3372 
L 2381 3372 
z
M 953 941 
L 953 219 
L 2791 219 
L 2791 941 
L 953 941 
z
M 4072 2497 
L 4072 409 
Q 4072 250 4163 197 
Q 4281 134 4756 134 
Q 5334 134 5475 206 
Q 5653 291 5672 1300 
L 6122 1184 
Q 6063 106 5891 -94 
Q 5769 -253 5463 -275 
Q 5172 -300 4725 -300 
Q 4056 -300 3856 -203 
Q 3644 -109 3644 263 
L 3644 2900 
L 5372 2900 
L 5372 4500 
L 3534 4500 
L 3534 4903 
L 5788 4903 
L 5788 2144 
L 5372 2144 
L 5372 2497 
L 4072 2497 
z
" transform="scale(0.015625)"/>
      <path id="IPAexGothic-5217" d="M 2334 1600 
Q 1944 1966 1306 2378 
Q 1038 1938 709 1541 
L 434 1906 
Q 1325 2934 1663 4550 
L 606 4550 
L 606 4953 
L 3781 4953 
L 3781 4550 
L 2097 4550 
Q 2091 4531 2078 4466 
Q 2000 4100 1900 3781 
L 3141 3781 
L 3409 3575 
Q 3156 2138 2656 1247 
Q 2097 269 1003 -500 
L 684 -128 
Q 1769 563 2334 1600 
z
M 2534 2009 
Q 2794 2656 2919 3384 
L 1766 3384 
Q 1638 3034 1478 2706 
Q 2181 2294 2534 2009 
z
M 3956 4416 
L 4409 4416 
L 4409 966 
L 3956 966 
L 3956 4416 
z
M 5306 5056 
L 5759 5056 
L 5759 197 
Q 5759 -138 5569 -263 
Q 5419 -353 5094 -353 
Q 4547 -353 3963 -294 
L 3878 191 
Q 4600 116 5038 116 
Q 5306 116 5306 359 
L 5306 5056 
z
" transform="scale(0.015625)"/>
      <path id="IPAexGothic-5f62" d="M 2856 4488 
L 2856 2859 
L 3744 2859 
L 3744 2456 
L 2875 2456 
L 2875 -384 
L 2434 -384 
L 2434 2456 
L 1653 2456 
L 1653 2394 
Q 1653 1425 1466 759 
Q 1266 59 756 -525 
L 425 -181 
Q 1213 666 1213 2341 
L 1213 2456 
L 322 2456 
L 322 2859 
L 1213 2859 
L 1213 4488 
L 481 4488 
L 481 4891 
L 3609 4891 
L 3609 4488 
L 2856 4488 
z
M 2416 4488 
L 1653 4488 
L 1653 2859 
L 2416 2859 
L 2416 4488 
z
M 3369 6 
Q 4859 738 5728 2203 
L 6144 1966 
Q 5216 403 3688 -384 
L 3369 6 
z
M 3334 3425 
Q 4566 4031 5197 5141 
L 5634 4909 
Q 4872 3697 3650 3066 
L 3334 3425 
z
M 3303 1728 
Q 4684 2331 5472 3706 
L 5888 3481 
Q 5025 2031 3609 1338 
L 3303 1728 
z
" transform="scale(0.015625)"/>
      <path id="IPAexGothic-ff1a" d="M 2822 3366 
L 3578 3366 
L 3578 2609 
L 2822 2609 
L 2822 3366 
z
M 2822 1081 
L 3578 1081 
L 3578 325 
L 2822 325 
L 2822 1081 
z
" transform="scale(0.015625)"/>
      <path id="IPAexGothic-28" d="M 1928 -1016 
L 1653 -1166 
Q 488 69 488 1875 
Q 488 3678 1653 4909 
L 1928 4763 
Q 1006 3522 1006 1881 
Q 1006 203 1928 -1016 
z
" transform="scale(0.015625)"/>
      <path id="IPAexGothic-7e26" d="M 3225 2663 
L 3225 -447 
L 2816 -447 
L 2816 1997 
Q 2684 1800 2469 1522 
L 2303 1966 
Q 2925 2772 3297 3794 
L 3659 3622 
Q 3513 3197 3225 2663 
z
M 1147 3072 
Q 741 3678 313 4134 
L 569 4441 
Q 731 4259 819 4153 
Q 1178 4691 1416 5338 
L 1813 5141 
Q 1472 4456 1050 3859 
Q 1163 3716 1350 3419 
Q 1597 3834 1953 4544 
L 2322 4341 
Q 1816 3372 1228 2578 
Q 1756 2609 1978 2638 
Q 1875 2966 1778 3175 
L 2088 3303 
Q 2331 2822 2463 2247 
L 2131 2059 
L 2081 2272 
L 2066 2338 
L 1606 2259 
L 1606 -447 
L 1209 -447 
L 1209 2209 
Q 834 2159 366 2131 
L 256 2541 
Q 322 2544 466 2547 
Q 600 2550 672 2553 
L 806 2559 
Q 847 2616 1147 3072 
z
M 4641 3431 
L 3731 3431 
L 3731 3834 
L 4853 3834 
L 4866 3878 
Q 5163 4628 5306 5281 
L 5747 5141 
Q 5516 4381 5247 3834 
L 6022 3834 
L 6022 3431 
L 5050 3431 
L 5050 2259 
L 5913 2259 
L 5913 1856 
L 5050 1856 
L 5050 250 
Q 5453 103 5972 103 
Q 6100 103 6209 109 
Q 6106 -88 6069 -347 
Q 5109 -347 4609 0 
Q 4253 247 4019 763 
Q 3872 -22 3669 -494 
L 3353 -147 
Q 3766 1119 3816 2753 
L 4225 2688 
Q 4197 1931 4109 1306 
Q 4300 772 4641 481 
L 4641 3431 
z
M 294 213 
Q 491 809 556 1806 
L 941 1753 
Q 894 728 697 13 
L 294 213 
z
M 2041 366 
Q 1934 1172 1766 1797 
L 2106 1894 
Q 2278 1344 2444 506 
L 2041 366 
z
M 2297 3750 
Q 2834 4381 3156 5234 
L 3534 5044 
Q 3159 4094 2553 3413 
L 2297 3750 
z
M 4225 3916 
Q 4103 4541 3872 5131 
L 4269 5241 
Q 4531 4631 4634 4038 
L 4225 3916 
z
" transform="scale(0.015625)"/>
      <path id="IPAexGothic-2c" d="M 1150 728 
Q 1028 -159 563 -1006 
L 153 -897 
Q 494 -100 569 728 
L 1150 728 
z
" transform="scale(0.015625)"/>
      <path id="IPAexGothic-6a2a" d="M 2363 3616 
L 3259 3616 
L 3259 4263 
L 2388 4263 
L 2388 4622 
L 3259 4622 
L 3259 5313 
L 3675 5313 
L 3675 4622 
L 4584 4622 
L 4584 5313 
L 5006 5313 
L 5006 4622 
L 5903 4622 
L 5903 4263 
L 5006 4263 
L 5006 3616 
L 6088 3616 
L 6088 3238 
L 4341 3238 
L 4341 2822 
L 5756 2822 
L 5756 647 
L 4850 647 
Q 5500 359 6153 -91 
L 5806 -453 
Q 5247 6 4500 384 
L 4844 647 
L 2563 647 
L 2563 2822 
L 3938 2822 
L 3938 3238 
L 2228 3238 
L 2228 3609 
L 1622 3609 
L 1622 2925 
Q 2184 2425 2441 2131 
L 2184 1663 
Q 1872 2125 1622 2431 
L 1622 -447 
L 1200 -447 
L 1200 2584 
Q 916 1609 450 847 
L 188 1306 
Q 897 2366 1134 3609 
L 322 3609 
L 322 4013 
L 1200 4013 
L 1200 5306 
L 1622 5306 
L 1622 4013 
L 2363 4013 
L 2363 3616 
z
M 4584 3616 
L 4584 4263 
L 3675 4263 
L 3675 3616 
L 4584 3616 
z
M 2978 2463 
L 2978 1925 
L 3938 1925 
L 3938 2463 
L 2978 2463 
z
M 2978 1578 
L 2978 1006 
L 3938 1006 
L 3938 1578 
L 2978 1578 
z
M 5331 1006 
L 5331 1578 
L 4341 1578 
L 4341 1006 
L 5331 1006 
z
M 5331 1925 
L 5331 2463 
L 4341 2463 
L 4341 1925 
L 5331 1925 
z
M 2125 -197 
Q 2969 147 3509 628 
L 3872 366 
Q 3253 -191 2459 -538 
L 2125 -197 
z
" transform="scale(0.015625)"/>
      <path id="IPAexGothic-29" d="M 466 4909 
Q 1638 3672 1638 1875 
Q 1638 75 466 -1166 
L 191 -1016 
Q 1119 216 1119 1881 
Q 1119 3509 191 4763 
L 466 4909 
z
" transform="scale(0.015625)"/>
     </defs>
     <use xlink:href="#IPAexGothic-30fb"/>
     <use xlink:href="#IPAexGothic-914d" x="100"/>
     <use xlink:href="#IPAexGothic-5217" x="200"/>
     <use xlink:href="#IPAexGothic-306e" x="300"/>
     <use xlink:href="#IPAexGothic-5f62" x="400"/>
     <use xlink:href="#IPAexGothic-ff1a" x="500"/>
     <use xlink:href="#IPAexGothic-28" x="600"/>
     <use xlink:href="#IPAexGothic-7e26" x="633.300781"/>
     <use xlink:href="#IPAexGothic-2c" x="733.300781"/>
     <use xlink:href="#IPAexGothic-20" x="759.716797"/>
     <use xlink:href="#IPAexGothic-6a2a" x="786.71875"/>
     <use xlink:href="#IPAexGothic-29" x="886.71875"/>
    </g>
   </g>
   <g id="text_6">
    <!-- ・値の範囲：0〜255 -->
    <g style="fill: #2c3e50" transform="translate(47.52 146.854219) scale(0.115 -0.115)">
     <defs>
      <path id="IPAexGothic-5024" d="M 4172 3675 
L 5453 3675 
L 5453 684 
L 3019 684 
L 3019 3675 
L 3750 3675 
Q 3788 3884 3825 4153 
L 2141 4153 
L 2141 4544 
L 3884 4544 
Q 3922 4844 3966 5325 
L 4434 5272 
L 4388 4953 
Q 4331 4578 4331 4544 
L 5863 4544 
L 5863 4153 
L 4269 4153 
Q 4200 3781 4172 3675 
z
M 5038 3316 
L 3434 3316 
L 3434 2803 
L 5038 2803 
L 5038 3316 
z
M 3434 2450 
L 3434 1941 
L 5038 1941 
L 5038 2450 
L 3434 2450 
z
M 3434 1588 
L 3434 1044 
L 5038 1044 
L 5038 1588 
L 3434 1588 
z
M 1509 3669 
L 1509 -447 
L 1069 -447 
L 1069 2725 
Q 856 2338 531 1875 
L 288 2266 
Q 1163 3531 1541 5325 
L 1975 5222 
Q 1791 4378 1509 3669 
z
M 2488 244 
L 6031 244 
L 6031 -153 
L 2488 -153 
L 2488 -447 
L 2059 -447 
L 2059 3213 
L 2488 3213 
L 2488 244 
z
" transform="scale(0.015625)"/>
      <path id="IPAexGothic-7bc4" d="M 1613 2631 
L 1613 2938 
L 397 2938 
L 397 3291 
L 1613 3291 
L 1613 3731 
L 2003 3731 
L 2003 3291 
L 3238 3291 
L 3238 2938 
L 2003 2938 
L 2003 2631 
L 3013 2631 
L 3013 978 
L 2003 978 
L 2003 628 
L 3300 628 
L 3300 275 
L 2003 275 
L 2003 -447 
L 1613 -447 
L 1613 275 
L 328 275 
L 328 628 
L 1613 628 
L 1613 978 
L 634 978 
L 634 2631 
L 1613 2631 
z
M 1619 2319 
L 1019 2319 
L 1019 1966 
L 1619 1966 
L 1619 2319 
z
M 1997 2319 
L 1997 1966 
L 2622 1966 
L 2622 2319 
L 1997 2319 
z
M 1619 1666 
L 1019 1666 
L 1019 1291 
L 1619 1291 
L 1619 1666 
z
M 1997 1666 
L 1997 1291 
L 2622 1291 
L 2622 1666 
L 1997 1666 
z
M 3941 3072 
L 3941 288 
Q 3941 103 4038 63 
Q 4134 19 4672 19 
Q 5447 19 5553 116 
Q 5659 222 5669 872 
L 6103 750 
Q 6094 53 5944 -166 
Q 5778 -391 4800 -391 
Q 3944 -391 3744 -313 
Q 3513 -219 3513 178 
L 3513 3463 
L 5681 3463 
L 5681 1350 
Q 5681 922 5209 922 
Q 4778 922 4459 966 
L 4381 1381 
Q 4797 1313 5075 1313 
Q 5253 1313 5253 1509 
L 5253 3072 
L 3941 3072 
z
M 1413 4788 
L 3200 4788 
L 3200 4416 
L 2228 4416 
Q 2350 4184 2497 3800 
L 2066 3672 
Q 1959 4031 1791 4416 
L 1253 4416 
L 1241 4384 
Q 1006 3903 600 3469 
L 288 3744 
Q 884 4350 1150 5350 
L 1569 5275 
Q 1503 5038 1413 4788 
z
M 3963 4788 
L 6034 4788 
L 6034 4416 
L 4678 4416 
Q 4863 4141 5025 3806 
L 4594 3659 
Q 4406 4113 4225 4416 
L 3800 4416 
Q 3569 3934 3256 3584 
L 2925 3841 
Q 3434 4416 3694 5356 
L 4116 5263 
Q 4022 4956 3963 4788 
z
" transform="scale(0.015625)"/>
      <path id="IPAexGothic-56f2" d="M 2291 3494 
L 2291 4384 
L 2731 4384 
L 2731 3494 
L 3700 3494 
L 3700 4384 
L 4141 4384 
L 4141 3494 
L 4997 3494 
L 4997 3122 
L 4141 3122 
L 4141 2156 
L 5100 2156 
L 5100 1772 
L 4159 1772 
L 4159 447 
L 3719 447 
L 3719 1772 
L 2688 1772 
Q 2541 853 1766 344 
L 1441 666 
Q 2119 1069 2247 1772 
L 1291 1772 
L 1291 2156 
L 2284 2156 
Q 2291 2228 2291 2375 
L 2291 3122 
L 1388 3122 
L 1388 3494 
L 2291 3494 
z
M 3700 3122 
L 2731 3122 
L 2731 2475 
Q 2731 2272 2725 2156 
L 3700 2156 
L 3700 3122 
z
M 5759 4984 
L 5759 -447 
L 5300 -447 
L 5300 -172 
L 1097 -172 
L 1097 -447 
L 628 -447 
L 628 4984 
L 5759 4984 
z
M 1097 4575 
L 1097 244 
L 5300 244 
L 5300 4575 
L 1097 4575 
z
" transform="scale(0.015625)"/>
      <path id="IPAexGothic-30" d="M 2038 4725 
Q 2881 4725 3334 3944 
Q 3694 3325 3694 2344 
Q 3694 1372 3334 741 
Q 2888 -31 2016 -31 
Q 1147 -31 700 741 
Q 341 1372 341 2350 
Q 341 3713 1000 4334 
Q 1419 4725 2038 4725 
z
M 2016 4266 
Q 1516 4266 1228 3759 
Q 934 3247 934 2344 
Q 934 1456 1222 947 
Q 1513 447 2016 447 
Q 2619 447 2909 1153 
Q 3100 1622 3100 2375 
Q 3100 3256 2806 3759 
Q 2509 4266 2016 4266 
z
" transform="scale(0.015625)"/>
      <path id="IPAexGothic-301c" d="M 678 2591 
Q 1259 3116 2022 3116 
Q 2559 3116 3359 2603 
Q 4019 2188 4353 2188 
Q 5056 2188 5722 2853 
L 5722 2259 
Q 5141 1734 4378 1734 
Q 3806 1734 3041 2234 
Q 2381 2663 2041 2663 
Q 1344 2663 678 1997 
L 678 2591 
z
" transform="scale(0.015625)"/>
      <path id="IPAexGothic-32" d="M 3659 63 
L 447 63 
L 447 594 
Q 825 1475 1894 2203 
L 2072 2322 
Q 2619 2697 2791 2906 
Q 2988 3153 2988 3444 
Q 2988 3772 2756 4003 
Q 2500 4259 2084 4259 
Q 1250 4259 991 3328 
L 497 3506 
Q 853 4725 2116 4725 
Q 2806 4725 3216 4316 
Q 3575 3947 3575 3425 
Q 3575 3038 3344 2722 
Q 3131 2416 2366 1938 
L 2231 1856 
Q 1256 1253 978 569 
L 3659 569 
L 3659 63 
z
" transform="scale(0.015625)"/>
      <path id="IPAexGothic-35" d="M 1178 2603 
Q 1634 2963 2172 2963 
Q 2816 2963 3241 2528 
Q 3638 2113 3638 1497 
Q 3638 938 3297 513 
Q 2869 -31 2031 -31 
Q 959 -31 469 784 
L 938 1028 
Q 1309 434 2013 434 
Q 2466 434 2769 716 
Q 3081 1013 3081 1503 
Q 3081 1966 2806 2241 
Q 2519 2528 2056 2528 
Q 1406 2528 1072 2028 
L 591 2091 
L 884 4634 
L 3406 4634 
L 3406 4153 
L 1341 4153 
L 1134 2603 
L 1178 2603 
z
" transform="scale(0.015625)"/>
     </defs>
     <use xlink:href="#IPAexGothic-30fb"/>
     <use xlink:href="#IPAexGothic-5024" x="100"/>
     <use xlink:href="#IPAexGothic-306e" x="200"/>
     <use xlink:href="#IPAexGothic-7bc4" x="300"/>
     <use xlink:href="#IPAexGothic-56f2" x="400"/>
     <use xlink:href="#IPAexGothic-ff1a" x="500"/>
     <use xlink:href="#IPAexGothic-30" x="600"/>
     <use xlink:href="#IPAexGothic-301c" x="662.988281"/>
     <use xlink:href="#IPAexGothic-32" x="762.988281"/>
     <use xlink:href="#IPAexGothic-35" x="825.976562"/>
     <use xlink:href="#IPAexGothic-35" x="888.964844"/>
    </g>
   </g>
   <g id="text_7">
    <!-- ・色情報なし -->
    <g style="fill: #2c3e50" transform="translate(47.52 165.574219) scale(0.115 -0.115)">
     <defs>
      <path id="IPAexGothic-8272" d="M 1672 1691 
L 1672 572 
Q 1672 309 1863 244 
Q 2056 178 3309 178 
Q 4959 178 5244 250 
Q 5444 306 5491 544 
Q 5534 788 5544 1147 
L 6016 988 
Q 5950 56 5703 -97 
Q 5447 -256 3413 -256 
Q 1725 -256 1466 -128 
Q 1231 -6 1231 372 
L 1231 3144 
Q 953 2866 622 2600 
L 328 2953 
Q 1509 3825 2131 5275 
L 2581 5172 
Q 2528 5056 2388 4756 
L 4150 4756 
L 4425 4544 
Q 3997 3894 3694 3541 
L 5422 3541 
L 5422 1391 
L 4981 1391 
L 4981 1691 
L 1672 1691 
z
M 1672 2088 
L 3075 2088 
L 3075 3150 
L 1672 3150 
L 1672 2088 
z
M 3503 3150 
L 3503 2088 
L 4981 2088 
L 4981 3150 
L 3503 3150 
z
M 3209 3541 
Q 3553 3938 3809 4372 
L 2178 4372 
Q 1925 3950 1588 3541 
L 3209 3541 
z
" transform="scale(0.015625)"/>
      <path id="IPAexGothic-60c5" d="M 3791 4672 
L 3791 5313 
L 4219 5313 
L 4219 4672 
L 5844 4672 
L 5844 4325 
L 4219 4325 
L 4219 3944 
L 5659 3944 
L 5659 3603 
L 4219 3603 
L 4219 3200 
L 6050 3200 
L 6050 2841 
L 2038 2841 
L 2038 3200 
L 3791 3200 
L 3791 3603 
L 2447 3603 
L 2447 3944 
L 3791 3944 
L 3791 4325 
L 2228 4325 
L 2228 4672 
L 3791 4672 
z
M 5491 2478 
L 5491 38 
Q 5491 -403 4966 -403 
Q 4741 -403 4134 -372 
L 4063 84 
Q 4484 19 4863 19 
Q 5063 19 5063 206 
L 5063 634 
L 3066 634 
L 3066 -447 
L 2638 -447 
L 2638 2478 
L 5491 2478 
z
M 3066 2131 
L 3066 1725 
L 5063 1725 
L 5063 2131 
L 3066 2131 
z
M 3066 1394 
L 3066 975 
L 5063 975 
L 5063 1394 
L 3066 1394 
z
M 244 2291 
Q 438 2947 488 4013 
L 878 3928 
Q 838 2825 641 2081 
L 244 2291 
z
M 1941 3213 
Q 1797 3722 1613 4100 
L 1953 4263 
Q 2172 3891 2319 3422 
L 1941 3213 
z
M 1106 5313 
L 1547 5313 
L 1547 -447 
L 1106 -447 
L 1106 5313 
z
" transform="scale(0.015625)"/>
      <path id="IPAexGothic-5831" d="M 2741 3084 
Q 2600 2594 2428 2203 
L 3175 2203 
L 3175 1819 
L 2013 1819 
L 2013 1134 
L 3100 1134 
L 3100 750 
L 2013 750 
L 2013 -447 
L 1572 -447 
L 1572 750 
L 522 750 
L 522 1134 
L 1572 1134 
L 1572 1819 
L 438 1819 
L 438 2203 
L 1128 2203 
Q 994 2800 884 3084 
L 297 3084 
L 297 3469 
L 1572 3469 
L 1572 4134 
L 578 4134 
L 578 4519 
L 1572 4519 
L 1572 5313 
L 2013 5313 
L 2013 4519 
L 3028 4519 
L 3028 4134 
L 2013 4134 
L 2013 3469 
L 3169 3469 
L 3169 3084 
L 2741 3084 
z
M 2300 3084 
L 1309 3084 
Q 1469 2606 1544 2203 
L 2013 2203 
Q 2194 2606 2300 3084 
z
M 5684 4991 
L 5684 3591 
Q 5684 3316 5575 3219 
Q 5466 3128 5159 3128 
Q 4834 3128 4441 3166 
L 4391 3597 
Q 4763 3538 5019 3538 
Q 5256 3538 5256 3769 
L 5256 4594 
L 3800 4594 
L 3800 2741 
L 5594 2741 
L 5831 2550 
Q 5659 1603 5203 806 
Q 5544 331 6131 -6 
L 5856 -416 
Q 5319 -22 4959 425 
Q 4588 -94 4116 -497 
L 3828 -147 
Q 4319 231 4697 775 
Q 4169 1516 3969 2350 
L 3800 2350 
L 3800 -447 
L 3375 -447 
L 3375 4991 
L 5684 4991 
z
M 4353 2350 
Q 4503 1794 4922 1153 
Q 5228 1716 5350 2350 
L 4353 2350 
z
" transform="scale(0.015625)"/>
      <path id="IPAexGothic-306a" d="M 3906 3147 
L 4372 3147 
Q 4381 2278 4444 1272 
Q 5244 1003 5838 631 
L 5556 222 
Q 4953 600 4463 813 
Q 4478 263 4234 22 
Q 3984 -225 3419 -225 
Q 2897 -225 2563 0 
Q 2216 231 2216 647 
Q 2216 1081 2656 1319 
Q 2959 1484 3297 1484 
Q 3638 1484 3969 1413 
Q 3916 2219 3906 3147 
z
M 3975 984 
Q 3631 1081 3297 1081 
Q 3031 1081 2856 978 
Q 2663 863 2663 653 
Q 2663 197 3400 197 
Q 3750 197 3875 378 
Q 3997 556 3975 984 
z
M 738 3928 
Q 1453 3884 1997 3938 
Q 2144 4381 2294 5125 
L 2784 5050 
Q 2684 4559 2516 3988 
Q 2969 4031 3559 4172 
L 3578 3713 
Q 2919 3575 2375 3531 
Q 1853 2028 1044 831 
L 603 1113 
Q 1325 2063 1856 3488 
Q 1063 3459 763 3475 
L 738 3928 
z
M 5538 2759 
Q 5000 3353 4263 3853 
L 4591 4191 
Q 5338 3728 5897 3128 
L 5538 2759 
z
" transform="scale(0.015625)"/>
      <path id="IPAexGothic-3057" d="M 1750 4884 
L 2281 4884 
L 2238 1319 
Q 2228 809 2391 569 
Q 2594 281 3128 281 
Q 3772 281 4344 744 
Q 4822 1131 5156 1759 
L 5534 1369 
Q 5094 653 4534 263 
Q 3878 -206 3134 -206 
Q 2341 -206 1994 213 
Q 1697 575 1706 1269 
L 1750 4884 
z
" transform="scale(0.015625)"/>
     </defs>
     <use xlink:href="#IPAexGothic-30fb"/>
     <use xlink:href="#IPAexGothic-8272" x="100"/>
     <use xlink:href="#IPAexGothic-60c5" x="200"/>
     <use xlink:href="#IPAexGothic-5831" x="300"/>
     <use xlink:href="#IPAexGothic-306a" x="400"/>
     <use xlink:href="#IPAexGothic-3057" x="500"/>
    </g>
   </g>
   <g id="text_8">
    <!-- 🌈 カラー（RGB） -->
    <g style="fill: #e8a838" transform="translate(362.88 92.09) scale(0.13 -0.13)">
     <defs>
      <path id="IPAexGothic-1f308" d="M 5759 -641 
L 641 -641 
L 641 5503 
L 5759 5503 
L 5759 -641 
z
M 5216 5172 
L 1191 5172 
L 3206 2694 
L 5216 5172 
z
M 5428 -53 
L 5428 4903 
L 3419 2425 
L 5428 -53 
z
M 2988 2425 
L 972 4916 
L 972 -59 
L 2988 2425 
z
M 5209 -309 
L 3206 2163 
L 1197 -309 
L 5209 -309 
z
" transform="scale(0.015625)"/>
     </defs>
     <use xlink:href="#IPAexGothic-1f308"/>
     <use xlink:href="#IPAexGothic-20" x="100"/>
     <use xlink:href="#IPAexGothic-30ab" x="127.001953"/>
     <use xlink:href="#IPAexGothic-30e9" x="227.001953"/>
     <use xlink:href="#IPAexGothic-30fc" x="327.001953"/>
     <use xlink:href="#IPAexGothic-ff08" x="427.001953"/>
     <use xlink:href="#IPAexGothic-52" x="527.001953"/>
     <use xlink:href="#IPAexGothic-47" x="591.796875"/>
     <use xlink:href="#IPAexGothic-42" x="667.089844"/>
     <use xlink:href="#IPAexGothic-ff09" x="733.007812"/>
    </g>
   </g>
   <g id="text_9">
    <!-- ・3チャンネル（赤・緑・青） -->
    <g style="fill: #2c3e50" transform="translate(367.2 109.414219) scale(0.115 -0.115)">
     <defs>
      <path id="IPAexGothic-8d64" d="M 4059 2803 
L 4059 97 
Q 4059 -184 3950 -313 
Q 3831 -441 3528 -441 
Q 3147 -441 2813 -391 
L 2734 97 
Q 3059 13 3388 13 
Q 3600 13 3600 197 
L 3600 2803 
L 2831 2803 
L 2831 2309 
Q 2831 1322 2563 697 
Q 2247 -53 1416 -519 
L 1097 -128 
Q 1844 231 2147 922 
Q 2363 1431 2363 2309 
L 2363 2803 
L 456 2803 
L 456 3213 
L 2941 3213 
L 2941 3988 
L 1025 3988 
L 1025 4384 
L 2941 4384 
L 2941 5313 
L 3422 5313 
L 3422 4384 
L 5363 4384 
L 5363 3988 
L 3422 3988 
L 3422 3213 
L 5941 3213 
L 5941 2803 
L 4059 2803 
z
M 531 716 
Q 1150 1366 1428 2350 
L 1875 2228 
Q 1553 1119 903 372 
L 531 716 
z
M 5356 372 
Q 4931 1381 4353 2175 
L 4756 2400 
Q 5381 1594 5831 672 
L 5356 372 
z
" transform="scale(0.015625)"/>
      <path id="IPAexGothic-7dd1" d="M 1253 3084 
Q 825 3691 391 4128 
L 672 4428 
Q 903 4184 928 4153 
Q 1297 4694 1547 5331 
L 1963 5119 
Q 1550 4353 1163 3859 
Q 1363 3600 1478 3425 
Q 1872 4034 2150 4550 
L 2534 4313 
Q 1866 3213 1319 2572 
L 1516 2578 
Q 1572 2584 1919 2606 
Q 2119 2619 2238 2631 
Q 2113 2928 1988 3150 
L 2334 3297 
Q 2641 2753 2866 2106 
L 2481 1919 
Q 2384 2241 2353 2322 
Q 2016 2256 1791 2234 
L 1791 -447 
L 1375 -447 
L 1375 2188 
Q 891 2128 434 2106 
L 288 2534 
Q 728 2544 875 2553 
Q 956 2666 1097 2863 
Q 1194 3003 1234 3059 
L 1253 3084 
z
M 4606 2706 
Q 4753 2103 4956 1716 
Q 5263 1994 5631 2494 
L 6003 2194 
Q 5625 1778 5141 1381 
Q 5513 809 6163 331 
L 5825 -31 
Q 4997 631 4594 1753 
L 4594 6 
Q 4594 -416 4128 -416 
Q 3909 -416 3531 -384 
L 3450 72 
Q 3703 6 4013 6 
Q 4178 6 4178 184 
L 4178 2706 
L 2694 2706 
L 2694 3091 
L 4878 3091 
L 4878 3706 
L 3147 3706 
L 3147 4078 
L 4878 4078 
L 4878 4672 
L 2975 4672 
L 2975 5050 
L 5300 5050 
L 5300 3091 
L 6094 3091 
L 6094 2706 
L 4606 2706 
z
M 359 206 
Q 594 841 659 1759 
L 1069 1709 
Q 991 678 775 -13 
L 359 206 
z
M 2272 634 
Q 2178 1288 2009 1759 
L 2375 1869 
Q 2541 1463 2675 838 
L 2272 634 
z
M 3641 1350 
Q 3322 1831 2944 2169 
L 3250 2425 
Q 3644 2078 3969 1656 
L 3641 1350 
z
M 2491 434 
Q 3203 778 3941 1381 
L 4063 997 
Q 3438 466 2731 63 
L 2491 434 
z
" transform="scale(0.015625)"/>
      <path id="IPAexGothic-9752" d="M 2944 4678 
L 2944 5313 
L 3413 5313 
L 3413 4678 
L 5728 4678 
L 5728 4313 
L 3413 4313 
L 3413 3950 
L 5441 3950 
L 5441 3597 
L 3413 3597 
L 3413 3206 
L 6050 3206 
L 6050 2834 
L 347 2834 
L 347 3206 
L 2944 3206 
L 2944 3597 
L 953 3597 
L 953 3950 
L 2944 3950 
L 2944 4313 
L 666 4313 
L 666 4678 
L 2944 4678 
z
M 5116 2484 
L 5116 91 
Q 5116 -153 5013 -256 
Q 4884 -384 4506 -384 
Q 4078 -384 3609 -347 
L 3534 116 
Q 4025 31 4409 31 
Q 4659 31 4659 275 
L 4659 622 
L 1772 622 
L 1772 -447 
L 1319 -447 
L 1319 2484 
L 5116 2484 
z
M 1772 2119 
L 1772 1734 
L 4659 1734 
L 4659 2119 
L 1772 2119 
z
M 1772 1381 
L 1772 975 
L 4659 975 
L 4659 1381 
L 1772 1381 
z
" transform="scale(0.015625)"/>
     </defs>
     <use xlink:href="#IPAexGothic-30fb"/>
     <use xlink:href="#IPAexGothic-33" x="100"/>
     <use xlink:href="#IPAexGothic-30c1" x="162.988281"/>
     <use xlink:href="#IPAexGothic-30e3" x="262.988281"/>
     <use xlink:href="#IPAexGothic-30f3" x="362.988281"/>
     <use xlink:href="#IPAexGothic-30cd" x="462.988281"/>
     <use xlink:href="#IPAexGothic-30eb" x="562.988281"/>
     <use xlink:href="#IPAexGothic-ff08" x="662.988281"/>
     <use xlink:href="#IPAexGothic-8d64" x="762.988281"/>
     <use xlink:href="#IPAexGothic-30fb" x="862.988281"/>
     <use xlink:href="#IPAexGothic-7dd1" x="962.988281"/>
     <use xlink:href="#IPAexGothic-30fb" x="1062.988281"/>
     <use xlink:href="#IPAexGothic-9752" x="1162.988281"/>
     <use xlink:href="#IPAexGothic-ff09" x="1262.988281"/>
    </g>
   </g>
   <g id="text_10">
    <!-- ・配列の形：(縦, 横, 3) -->
    <g style="fill: #2c3e50" transform="translate(367.2 129.021875) scale(0.115 -0.115)">
     <use xlink:href="#IPAexGothic-30fb"/>
     <use xlink:href="#IPAexGothic-914d" x="100"/>
     <use xlink:href="#IPAexGothic-5217" x="200"/>
     <use xlink:href="#IPAexGothic-306e" x="300"/>
     <use xlink:href="#IPAexGothic-5f62" x="400"/>
     <use xlink:href="#IPAexGothic-ff1a" x="500"/>
     <use xlink:href="#IPAexGothic-28" x="600"/>
     <use xlink:href="#IPAexGothic-7e26" x="633.300781"/>
     <use xlink:href="#IPAexGothic-2c" x="733.300781"/>
     <use xlink:href="#IPAexGothic-20" x="759.716797"/>
     <use xlink:href="#IPAexGothic-6a2a" x="786.71875"/>
     <use xlink:href="#IPAexGothic-2c" x="886.71875"/>
     <use xlink:href="#IPAexGothic-20" x="913.134766"/>
     <use xlink:href="#IPAexGothic-33" x="940.136719"/>
     <use xlink:href="#IPAexGothic-29" x="1003.125"/>
    </g>
   </g>
   <g id="text_11">
    <!-- ・各チャンネルの値：0〜255 -->
    <g style="fill: #2c3e50" transform="translate(367.2 146.854219) scale(0.115 -0.115)">
     <defs>
      <path id="IPAexGothic-5404" d="M 4991 1906 
L 4991 -447 
L 4522 -447 
L 4522 -122 
L 1925 -122 
L 1925 -447 
L 1456 -447 
L 1456 1778 
Q 1116 1631 619 1453 
L 325 1850 
Q 1703 2213 2903 3078 
Q 2422 3500 2047 3969 
Q 1594 3431 906 2956 
L 619 3309 
Q 1734 4053 2450 5338 
L 2922 5228 
Q 2734 4913 2666 4813 
L 4663 4813 
L 4900 4581 
Q 4313 3738 3588 3091 
Q 4509 2459 6034 2144 
L 5753 1709 
Q 4188 2138 3244 2809 
Q 2572 2300 1747 1906 
L 4991 1906 
z
M 1925 1509 
L 1925 269 
L 4522 269 
L 4522 1509 
L 1925 1509 
z
M 3244 3347 
Q 3809 3813 4253 4422 
L 2403 4422 
Q 2328 4319 2297 4275 
Q 2759 3722 3244 3347 
z
" transform="scale(0.015625)"/>
     </defs>
     <use xlink:href="#IPAexGothic-30fb"/>
     <use xlink:href="#IPAexGothic-5404" x="100"/>
     <use xlink:href="#IPAexGothic-30c1" x="200"/>
     <use xlink:href="#IPAexGothic-30e3" x="300"/>
     <use xlink:href="#IPAexGothic-30f3" x="400"/>
     <use xlink:href="#IPAexGothic-30cd" x="500"/>
     <use xlink:href="#IPAexGothic-30eb" x="600"/>
     <use xlink:href="#IPAexGothic-306e" x="700"/>
     <use xlink:href="#IPAexGothic-5024" x="800"/>
     <use xlink:href="#IPAexGothic-ff1a" x="900"/>
     <use xlink:href="#IPAexGothic-30" x="1000"/>
     <use xlink:href="#IPAexGothic-301c" x="1062.988281"/>
     <use xlink:href="#IPAexGothic-32" x="1162.988281"/>
     <use xlink:href="#IPAexGothic-35" x="1225.976562"/>
     <use xlink:href="#IPAexGothic-35" x="1288.964844"/>
    </g>
   </g>
   <g id="text_12">
    <!-- ・3つの数値の組み合わせで色を表現 -->
    <g style="fill: #2c3e50" transform="translate(367.2 165.574219) scale(0.115 -0.115)">
     <defs>
      <path id="IPAexGothic-3064" d="M 575 3541 
Q 2694 4116 3769 4116 
Q 4506 4116 4978 3750 
Q 5559 3303 5559 2497 
Q 5559 1481 4606 903 
Q 3750 388 2213 281 
L 1963 781 
Q 5022 916 5022 2497 
Q 5022 3053 4663 3375 
Q 4331 3669 3734 3669 
Q 2663 3669 800 3041 
L 575 3541 
z
" transform="scale(0.015625)"/>
      <path id="IPAexGothic-6570" d="M 2847 1553 
Q 2741 1006 2425 534 
Q 2625 441 3091 203 
L 2809 -188 
Q 2541 0 2144 209 
Q 1569 -291 703 -500 
L 422 -125 
Q 1263 19 1747 406 
Q 1222 650 734 816 
Q 975 1172 1147 1503 
L 1172 1553 
L 359 1553 
L 359 1925 
L 1344 1925 
Q 1406 2066 1569 2475 
L 1691 2450 
L 1691 3372 
Q 1250 2738 550 2303 
L 275 2663 
Q 1019 3013 1528 3641 
L 378 3641 
L 378 4006 
L 1691 4006 
L 1691 5313 
L 2113 5313 
L 2113 4006 
L 3297 4006 
L 3297 3641 
L 2113 3641 
L 2113 3513 
Q 2659 3291 3175 2963 
L 2956 2584 
Q 2553 2922 2113 3159 
L 2113 2372 
L 1966 2372 
Q 1928 2288 1872 2141 
Q 1806 1975 1784 1925 
L 3378 1925 
L 3378 1553 
L 2847 1553 
z
M 2419 1553 
L 1613 1553 
Q 1478 1269 1313 997 
Q 1559 909 2047 703 
Q 2313 1047 2419 1553 
z
M 4363 1163 
Q 3953 1781 3738 2638 
Q 3575 2281 3428 2016 
L 3103 2406 
Q 3675 3444 3916 5291 
L 4363 5200 
Q 4284 4666 4197 4197 
L 6009 4197 
L 6009 3775 
L 5503 3775 
Q 5397 2275 4869 1191 
Q 5419 503 6144 75 
L 5822 -378 
Q 5188 106 4631 788 
Q 4113 34 3341 -463 
L 3031 -78 
Q 3888 406 4363 1163 
z
M 4588 1594 
Q 4938 2388 5059 3775 
L 4100 3775 
Q 4041 3519 3972 3288 
Q 3981 3250 3991 3194 
Q 4175 2256 4588 1594 
z
M 1003 4116 
Q 878 4544 638 4934 
L 1053 5094 
Q 1247 4788 1438 4269 
L 1003 4116 
z
M 2316 4269 
Q 2550 4688 2688 5131 
L 3128 4997 
Q 2966 4588 2675 4128 
L 2316 4269 
z
" transform="scale(0.015625)"/>
      <path id="IPAexGothic-7d44" d="M 1319 3072 
Q 916 3666 438 4134 
L 744 4447 
Q 844 4341 981 4178 
Q 1356 4688 1672 5331 
L 2088 5100 
Q 1669 4413 1225 3884 
L 1281 3809 
Q 1466 3572 1569 3419 
Q 1947 3959 2319 4581 
L 2697 4347 
Q 2078 3359 1422 2613 
L 1397 2584 
L 1597 2597 
Q 1984 2619 2416 2656 
Q 2316 2884 2159 3175 
L 2503 3334 
Q 2791 2875 3059 2163 
L 2663 1947 
Q 2603 2141 2528 2356 
Q 2256 2297 1884 2253 
L 1884 -447 
L 1469 -447 
L 1469 2203 
Q 1063 2153 456 2106 
L 322 2547 
Q 678 2556 938 2566 
Q 966 2606 1056 2722 
Q 1184 2888 1231 2950 
L 1319 3072 
z
M 5481 4928 
L 5481 141 
L 6119 141 
L 6119 -250 
L 2600 -250 
L 2600 141 
L 3266 141 
L 3266 4928 
L 5481 4928 
z
M 3694 4538 
L 3694 3347 
L 5053 3347 
L 5053 4538 
L 3694 4538 
z
M 3694 2963 
L 3694 1778 
L 5053 1778 
L 5053 2963 
L 3694 2963 
z
M 3694 1394 
L 3694 141 
L 5053 141 
L 5053 1394 
L 3694 1394 
z
M 403 238 
Q 634 838 725 1778 
L 1134 1722 
Q 1050 728 819 0 
L 403 238 
z
M 2453 459 
Q 2328 1200 2106 1766 
L 2472 1888 
Q 2722 1359 2875 659 
L 2453 459 
z
" transform="scale(0.015625)"/>
      <path id="IPAexGothic-5408" d="M 1831 3188 
L 4653 3188 
L 4653 2778 
L 1747 2778 
L 1747 3125 
Q 1275 2778 594 2453 
L 294 2828 
Q 2006 3509 2891 5147 
L 3431 5147 
Q 4331 3806 6125 3003 
L 5831 2588 
Q 4119 3416 3175 4731 
Q 2650 3806 1831 3188 
z
M 5113 2088 
L 5113 -450 
L 4638 -450 
L 4638 -97 
L 1766 -97 
L 1766 -450 
L 1284 -450 
L 1284 2088 
L 5113 2088 
z
M 1766 1691 
L 1766 300 
L 4638 300 
L 4638 1691 
L 1766 1691 
z
" transform="scale(0.015625)"/>
      <path id="IPAexGothic-308f" d="M 609 3672 
Q 1272 3750 1894 3884 
L 1934 4978 
L 2406 4972 
L 2369 3934 
L 2753 3634 
Q 2416 3238 2356 3153 
Q 2350 3078 2350 2853 
Q 3322 3616 4219 3616 
Q 4878 3616 5331 3200 
Q 5819 2750 5819 2028 
Q 5819 419 3584 -53 
L 3266 391 
Q 5294 766 5294 2034 
Q 5294 2534 5000 2847 
Q 4691 3175 4175 3175 
Q 3341 3175 2344 2303 
Q 2344 678 2369 -150 
L 1881 -150 
Q 1863 1200 1869 1888 
Q 1766 1781 866 716 
L 513 1081 
Q 1450 2088 1869 2469 
Q 1869 2500 1878 2947 
Q 1881 3225 1888 3456 
Q 1406 3319 744 3178 
L 609 3672 
z
" transform="scale(0.015625)"/>
      <path id="IPAexGothic-305b" d="M 4013 4922 
L 4500 4922 
L 4500 3475 
L 5881 3541 
L 5900 3116 
L 4500 3053 
L 4500 1863 
Q 4500 1363 3994 1363 
Q 3563 1363 3169 1516 
L 3169 1997 
Q 3575 1816 3816 1816 
Q 4013 1816 4013 2028 
L 4013 3028 
L 2191 2944 
L 2191 1044 
Q 2191 613 2550 525 
Q 2784 463 3609 463 
Q 4384 463 5172 544 
L 5191 44 
Q 4403 -19 3641 -19 
Q 2456 -19 2081 172 
Q 1697 375 1697 909 
L 1697 2919 
L 488 2859 
L 469 3291 
L 1697 3347 
L 1697 4609 
L 2191 4609 
L 2191 3366 
L 4013 3456 
L 4013 4922 
z
" transform="scale(0.015625)"/>
      <path id="IPAexGothic-3067" d="M 581 4034 
Q 2978 4363 5466 4556 
L 5509 4097 
Q 4388 4031 3750 3572 
Q 2797 2878 2797 1913 
Q 2797 1169 3291 819 
Q 3778 484 4869 416 
L 4906 -116 
Q 2278 0 2278 1850 
Q 2278 3125 3691 4000 
Q 2066 3784 684 3553 
L 581 4034 
z
M 5631 2522 
Q 5269 3063 4875 3391 
L 5175 3622 
Q 5559 3313 5950 2797 
L 5631 2522 
z
M 5034 2053 
Q 4747 2544 4300 2944 
L 4613 3184 
Q 4984 2878 5369 2328 
L 5034 2053 
z
" transform="scale(0.015625)"/>
      <path id="IPAexGothic-3092" d="M 1094 4263 
Q 1544 4222 2359 4222 
Q 2581 4734 2700 5163 
L 3175 5028 
Q 2997 4538 2859 4256 
Q 3516 4284 4294 4459 
L 4356 4019 
Q 3603 3869 2656 3819 
Q 2391 3284 2059 2797 
Q 2531 3200 2963 3200 
Q 3638 3200 3859 2378 
Q 4556 2681 5338 2950 
L 5575 2528 
Q 4641 2253 3941 1956 
Q 3981 1678 3994 1028 
L 3513 991 
Q 3513 1456 3494 1753 
Q 2388 1194 2388 716 
Q 2388 428 2753 328 
Q 3066 241 3806 241 
Q 4394 241 5178 344 
L 5216 -128 
Q 4434 -213 3653 -213 
Q 2656 -213 2244 41 
Q 1913 244 1913 631 
Q 1913 1094 2344 1497 
Q 2709 1841 3428 2181 
Q 3266 2797 2878 2797 
Q 2238 2797 1209 1419 
L 838 1694 
Q 1625 2716 2163 3800 
Q 1522 3800 1088 3825 
L 1094 4263 
z
" transform="scale(0.015625)"/>
      <path id="IPAexGothic-8868" d="M 3209 2350 
Q 2856 1944 2328 1563 
L 2328 288 
Q 2975 438 3756 691 
L 3763 275 
Q 2534 -163 1184 -447 
L 978 13 
Q 1566 119 1819 175 
L 1875 188 
L 1875 1275 
Q 1306 941 506 666 
L 219 1056 
Q 1813 1509 2675 2356 
L 384 2356 
L 384 2753 
L 2978 2753 
L 2978 3309 
L 959 3309 
L 959 3694 
L 2978 3694 
L 2978 4219 
L 641 4219 
L 641 4603 
L 2978 4603 
L 2978 5313 
L 3431 5313 
L 3431 4603 
L 5759 4603 
L 5759 4219 
L 3431 4219 
L 3431 3694 
L 5434 3694 
L 5434 3309 
L 3431 3309 
L 3431 2753 
L 6016 2753 
L 6016 2356 
L 3634 2356 
Q 3863 1838 4244 1356 
Q 4781 1756 5166 2191 
L 5588 1894 
Q 5084 1419 4525 1056 
Q 5150 459 6106 66 
L 5734 -356 
Q 3850 575 3209 2350 
z
" transform="scale(0.015625)"/>
      <path id="IPAexGothic-73fe" d="M 4788 1638 
L 4788 313 
Q 4788 153 4866 113 
Q 4941 81 5203 81 
Q 5522 81 5581 266 
Q 5625 400 5644 1009 
L 6081 831 
Q 6041 38 5919 -141 
Q 5769 -359 5116 -359 
Q 4566 -359 4444 -219 
Q 4347 -122 4347 97 
L 4347 1638 
L 3847 1638 
Q 3819 794 3469 313 
Q 3134 -144 2331 -441 
L 2028 -56 
Q 2841 184 3134 622 
Q 3378 981 3419 1638 
L 2791 1638 
L 2791 5050 
L 5588 5050 
L 5588 1638 
L 4788 1638 
z
M 3219 4666 
L 3219 4044 
L 5159 4044 
L 5159 4666 
L 3219 4666 
z
M 3219 3666 
L 3219 3047 
L 5159 3047 
L 5159 3666 
L 3219 3666 
z
M 3219 2675 
L 3219 2022 
L 5159 2022 
L 5159 2675 
L 3219 2675 
z
M 1631 4391 
L 1631 3028 
L 2363 3028 
L 2363 2631 
L 1631 2631 
L 1631 1166 
Q 2131 1316 2553 1459 
L 2584 1063 
Q 1581 675 422 359 
L 256 806 
Q 669 897 1203 1044 
L 1203 2631 
L 459 2631 
L 459 3028 
L 1203 3028 
L 1203 4391 
L 384 4391 
L 384 4794 
L 2516 4794 
L 2516 4391 
L 1631 4391 
z
" transform="scale(0.015625)"/>
     </defs>
     <use xlink:href="#IPAexGothic-30fb"/>
     <use xlink:href="#IPAexGothic-33" x="100"/>
     <use xlink:href="#IPAexGothic-3064" x="162.988281"/>
     <use xlink:href="#IPAexGothic-306e" x="262.988281"/>
     <use xlink:href="#IPAexGothic-6570" x="362.988281"/>
     <use xlink:href="#IPAexGothic-5024" x="462.988281"/>
     <use xlink:href="#IPAexGothic-306e" x="562.988281"/>
     <use xlink:href="#IPAexGothic-7d44" x="662.988281"/>
     <use xlink:href="#IPAexGothic-307f" x="762.988281"/>
     <use xlink:href="#IPAexGothic-5408" x="862.988281"/>
     <use xlink:href="#IPAexGothic-308f" x="962.988281"/>
     <use xlink:href="#IPAexGothic-305b" x="1062.988281"/>
     <use xlink:href="#IPAexGothic-3067" x="1162.988281"/>
     <use xlink:href="#IPAexGothic-8272" x="1262.988281"/>
     <use xlink:href="#IPAexGothic-3092" x="1362.988281"/>
     <use xlink:href="#IPAexGothic-8868" x="1462.988281"/>
     <use xlink:href="#IPAexGothic-73fe" x="1562.988281"/>
    </g>
   </g>
   <g id="text_13">
    <!-- グレースケール変換とは？ -->
    <g style="fill: #922b21" transform="translate(41.04 236.229633) scale(0.125 -0.125)">
     <defs>
      <path id="IPAexGothic-5909" d="M 2147 1253 
Q 1641 822 944 563 
L 672 900 
Q 1938 1391 2556 2394 
L 2972 2231 
Q 2847 2034 2747 1900 
L 4750 1900 
L 4969 1700 
Q 4422 984 3859 563 
Q 4650 241 6094 69 
L 5825 -366 
Q 4275 -125 3431 288 
Q 2441 -272 603 -538 
L 341 -134 
Q 2103 75 2997 538 
Q 2591 791 2184 1209 
L 2147 1253 
z
M 2434 1528 
L 2422 1516 
Q 2803 1106 3425 778 
Q 3888 1078 4269 1528 
L 2434 1528 
z
M 4059 4147 
L 4059 2650 
Q 4059 2272 3663 2272 
Q 3416 2272 3047 2309 
L 2963 2725 
Q 3241 2681 3431 2681 
Q 3631 2681 3631 2872 
L 3631 4147 
L 2822 4147 
Q 2766 3291 2503 2816 
Q 2191 2259 1503 1869 
L 1172 2156 
Q 1878 2572 2144 3066 
Q 2359 3456 2388 4147 
L 403 4147 
L 403 4544 
L 2938 4544 
L 2938 5294 
L 3419 5294 
L 3419 4544 
L 6000 4544 
L 6000 4147 
L 4059 4147 
z
M 5494 2363 
Q 4828 3150 4328 3584 
L 4672 3859 
Q 5266 3369 5878 2656 
L 5494 2363 
z
M 341 2528 
Q 1025 3022 1441 3775 
L 1844 3597 
Q 1406 2781 706 2241 
L 341 2528 
z
" transform="scale(0.015625)"/>
      <path id="IPAexGothic-63db" d="M 3872 3591 
Q 3850 3047 3722 2722 
Q 3588 2403 3225 2144 
L 2981 2434 
L 2981 1775 
L 2578 1775 
L 2578 3259 
Q 2428 3078 2219 2869 
L 1981 3206 
Q 2853 4097 3219 5306 
L 3634 5219 
Q 3591 5084 3513 4878 
L 4606 4878 
L 4844 4691 
Q 4647 4288 4428 3950 
L 5644 3950 
L 5644 1775 
L 5234 1775 
L 5234 2331 
L 4709 2331 
Q 4313 2331 4313 2663 
L 4313 3591 
L 3872 3591 
z
M 3494 3591 
L 2981 3591 
L 2981 2453 
Q 3300 2644 3403 2959 
Q 3475 3191 3494 3591 
z
M 3063 3950 
L 3991 3950 
Q 4200 4278 4300 4519 
L 3366 4519 
Q 3225 4222 3063 3950 
z
M 4697 3591 
L 4697 2831 
Q 4697 2691 4888 2691 
L 5234 2691 
L 5234 3591 
L 4697 3591 
z
M 4416 1191 
Q 4916 394 6106 59 
L 5803 -378 
Q 4528 150 4097 1038 
Q 3738 -91 2363 -472 
L 2078 -69 
Q 3422 150 3750 1191 
L 2113 1191 
L 2113 1563 
L 3828 1563 
L 3828 2119 
L 4256 2119 
L 4256 1563 
L 6041 1563 
L 6041 1191 
L 4416 1191 
z
M 1184 4019 
L 1184 5313 
L 1613 5313 
L 1613 4019 
L 2266 4019 
L 2266 3603 
L 1613 3603 
L 1613 2394 
Q 1903 2472 2266 2597 
L 2303 2241 
Q 2038 2119 1613 1978 
L 1613 6 
Q 1613 -272 1491 -363 
Q 1391 -447 1088 -447 
Q 759 -447 519 -403 
L 441 56 
Q 716 -6 972 -6 
Q 1184 -6 1184 172 
L 1184 1844 
L 1125 1825 
Q 691 1697 409 1625 
L 275 2059 
Q 769 2163 1184 2272 
L 1184 3603 
L 372 3603 
L 372 4019 
L 1184 4019 
z
" transform="scale(0.015625)"/>
      <path id="IPAexGothic-306f" d="M 4066 4875 
L 4538 4875 
L 4556 3769 
Q 5003 3816 5581 3941 
L 5619 3469 
Q 5256 3394 4563 3322 
L 4597 1441 
Q 5100 1284 5934 756 
L 5656 313 
Q 5066 772 4609 978 
Q 4609 441 4384 225 
Q 4128 -13 3634 -13 
Q 2991 -13 2669 231 
Q 2388 444 2388 831 
Q 2388 1225 2772 1484 
Q 3050 1669 3534 1669 
Q 3759 1669 4134 1594 
L 4097 3288 
Q 3697 3269 3359 3269 
Q 2925 3269 2484 3300 
L 2466 3763 
Q 2953 3716 3456 3716 
Q 3738 3716 4091 3738 
L 4066 4875 
z
M 4141 1153 
Q 3753 1259 3513 1259 
Q 2841 1259 2841 850 
Q 2841 422 3634 422 
Q 3888 422 4022 569 
Q 4141 700 4141 922 
Q 4141 1088 4141 1153 
z
M 1000 -50 
Q 794 1072 794 1931 
Q 794 3153 1247 4884 
L 1728 4763 
Q 1269 3044 1269 1900 
Q 1269 1569 1306 1106 
Q 1591 1706 1753 1997 
L 2075 1806 
Q 1484 716 1484 141 
Q 1484 72 1491 0 
L 1000 -50 
z
" transform="scale(0.015625)"/>
      <path id="IPAexGothic-ff1f" d="M 1503 3444 
Q 1550 4184 1963 4616 
Q 2466 5128 3272 5128 
Q 3888 5128 4313 4853 
Q 4909 4469 4909 3778 
Q 4909 3059 4116 2563 
Q 3628 2250 3506 1881 
Q 3422 1650 3422 1228 
L 2853 1228 
Q 2863 1869 3053 2197 
Q 3281 2588 3847 2950 
Q 4341 3269 4341 3778 
Q 4341 4231 3975 4463 
Q 3697 4634 3266 4634 
Q 2656 4634 2341 4225 
Q 2109 3928 2091 3444 
L 1503 3444 
z
M 2763 647 
L 3506 647 
L 3506 -97 
L 2763 -97 
L 2763 647 
z
" transform="scale(0.015625)"/>
     </defs>
     <use xlink:href="#IPAexGothic-30b0"/>
     <use xlink:href="#IPAexGothic-30ec" x="100"/>
     <use xlink:href="#IPAexGothic-30fc" x="200"/>
     <use xlink:href="#IPAexGothic-30b9" x="300"/>
     <use xlink:href="#IPAexGothic-30b1" x="400"/>
     <use xlink:href="#IPAexGothic-30fc" x="500"/>
     <use xlink:href="#IPAexGothic-30eb" x="600"/>
     <use xlink:href="#IPAexGothic-5909" x="700"/>
     <use xlink:href="#IPAexGothic-63db" x="800"/>
     <use xlink:href="#IPAexGothic-3068" x="900"/>
     <use xlink:href="#IPAexGothic-306f" x="1000"/>
     <use xlink:href="#IPAexGothic-ff1f" x="1100"/>
    </g>
   </g>
   <g id="text_14">
    <!-- 色情報（RGB）を捨てて、明るさだけを残す処理 -->
    <g style="fill: #922b21" transform="translate(41.04 252.410238) scale(0.125 -0.125)">
     <defs>
      <path id="IPAexGothic-6368" d="M 3859 2963 
L 2919 2963 
L 2919 3256 
Q 2647 3019 2425 2859 
L 2144 3206 
Q 3281 4000 3781 5241 
L 4288 5241 
Q 4900 4153 6103 3328 
L 5797 2956 
Q 4684 3847 4063 4794 
Q 3638 3941 3000 3334 
L 3859 3334 
L 3859 4097 
L 4288 4097 
L 4288 3334 
L 5291 3334 
L 5291 2963 
L 4288 2963 
L 4288 2363 
L 5944 2363 
L 5944 1978 
L 2266 1978 
L 2266 2363 
L 3859 2363 
L 3859 2963 
z
M 1184 4019 
L 1184 5313 
L 1613 5313 
L 1613 4019 
L 2328 4019 
L 2328 3603 
L 1613 3603 
L 1613 2400 
Q 1925 2497 2175 2591 
L 2188 2209 
Q 1956 2109 1613 1991 
L 1613 31 
Q 1613 -247 1491 -338 
Q 1388 -422 1088 -422 
Q 763 -422 519 -378 
L 441 84 
Q 725 19 972 19 
Q 1184 19 1184 197 
L 1184 1850 
L 1147 1838 
Q 700 1706 403 1631 
L 275 2059 
Q 728 2150 1184 2278 
L 1184 3603 
L 372 3603 
L 372 4019 
L 1184 4019 
z
M 5528 1478 
L 5528 -447 
L 5088 -447 
L 5088 -166 
L 3147 -166 
L 3147 -447 
L 2706 -447 
L 2706 1478 
L 5528 1478 
z
M 3147 1106 
L 3147 219 
L 5088 219 
L 5088 1106 
L 3147 1106 
z
" transform="scale(0.015625)"/>
      <path id="IPAexGothic-3066" d="M 581 4034 
Q 2978 4363 5466 4556 
L 5509 4097 
Q 4388 4031 3750 3572 
Q 2797 2878 2797 1913 
Q 2797 1169 3291 819 
Q 3778 484 4869 416 
L 4906 -116 
Q 2278 0 2278 1850 
Q 2278 3125 3691 4000 
Q 2066 3784 684 3553 
L 581 4034 
z
" transform="scale(0.015625)"/>
      <path id="IPAexGothic-3001" d="M 1325 -409 
Q 859 319 281 856 
L 691 1209 
Q 1225 734 1772 -25 
L 1325 -409 
z
" transform="scale(0.015625)"/>
      <path id="IPAexGothic-3060" d="M 684 3963 
Q 1138 3922 1556 3922 
Q 1800 3922 2106 3944 
Q 2266 4563 2369 5081 
L 2875 4991 
Q 2806 4700 2619 3981 
Q 3209 4050 3656 4159 
L 3688 3688 
Q 3109 3581 2497 3531 
Q 1822 1263 1153 -78 
L 653 141 
Q 1406 1469 1991 3500 
Q 1641 3481 1256 3481 
Q 1109 3481 697 3494 
L 684 3963 
z
M 5753 44 
Q 5053 -44 4597 -44 
Q 3619 -44 3206 303 
Q 2866 594 2766 1191 
L 3213 1356 
Q 3247 1038 3347 869 
Q 3425 741 3578 641 
Q 3866 450 4556 450 
Q 5009 450 5728 544 
L 5753 44 
z
M 3144 2828 
Q 4216 3113 5409 3041 
L 5381 2566 
L 5356 2566 
Q 4263 2631 3194 2388 
L 3144 2828 
z
M 5569 4103 
Q 5206 4644 4813 4972 
L 5113 5203 
Q 5497 4894 5888 4378 
L 5569 4103 
z
M 4972 3634 
Q 4684 4125 4238 4525 
L 4550 4769 
Q 4922 4459 5306 3909 
L 4972 3634 
z
" transform="scale(0.015625)"/>
      <path id="IPAexGothic-3051" d="M 2553 3481 
Q 2891 3463 3219 3463 
Q 3691 3463 4338 3506 
Q 4303 4434 4250 4897 
L 4763 4897 
Q 4769 4772 4825 3566 
Q 5319 3634 5709 3744 
L 5747 3291 
Q 5356 3159 4838 3109 
Q 4844 2875 4844 2606 
Q 4844 1434 4575 856 
Q 4250 138 3347 -313 
L 2938 56 
Q 3809 441 4094 1006 
Q 4363 1525 4363 2625 
Q 4363 2853 4359 3059 
Q 3722 3009 3175 3009 
Q 2791 3009 2591 3022 
L 2553 3481 
z
M 1925 2088 
L 2253 1881 
Q 1697 872 1678 166 
L 1259 72 
Q 941 1184 941 2272 
Q 941 3181 1344 4872 
L 1819 4750 
Q 1416 3166 1416 2163 
Q 1416 1722 1491 1222 
L 1925 2088 
z
" transform="scale(0.015625)"/>
      <path id="IPAexGothic-6b8b" d="M 4575 1106 
Q 4906 1394 5338 1913 
L 5681 1691 
Q 5219 1122 4766 728 
Q 4947 434 5181 219 
Q 5366 66 5425 66 
Q 5584 66 5706 1013 
L 6097 769 
Q 5916 -453 5528 -453 
Q 5350 -453 5028 -209 
Q 4722 31 4434 459 
Q 3672 -113 2603 -525 
L 2316 -153 
Q 3413 219 4241 825 
Q 4025 1284 3928 1919 
L 2669 1825 
L 2641 2194 
L 3878 2291 
Q 3838 2688 3831 2881 
L 2909 2816 
L 2891 3181 
L 3806 3238 
L 3806 3309 
Q 3797 3606 3788 3822 
L 2725 3756 
L 2700 4128 
L 3769 4191 
L 3756 4500 
L 3750 4634 
L 3744 4934 
L 3728 5313 
L 4172 5313 
Q 4172 5088 4178 4978 
Q 4188 4547 4197 4219 
L 5853 4319 
L 5888 3956 
L 4216 3853 
L 4241 3272 
L 5700 3366 
L 5725 3009 
L 4259 2906 
Q 4278 2694 4313 2322 
L 6041 2456 
L 6059 2088 
L 4363 1953 
Q 4450 1406 4575 1106 
z
M 1853 1638 
Q 1463 2009 1047 2297 
Q 850 1900 588 1516 
L 331 1881 
Q 1050 2928 1291 4544 
L 484 4544 
L 484 4953 
L 3050 4953 
L 3050 4544 
L 1694 4544 
Q 1694 4500 1688 4472 
Q 1628 4078 1559 3775 
L 2488 3775 
L 2738 3575 
Q 2556 2156 2175 1284 
Q 1744 316 869 -519 
L 556 -169 
Q 1416 584 1853 1638 
z
M 2003 2053 
Q 2172 2578 2284 3384 
L 1456 3384 
Q 1319 2894 1203 2634 
Q 1638 2366 2003 2053 
z
M 5272 4300 
Q 4950 4622 4569 4863 
L 4869 5147 
Q 5225 4934 5584 4594 
L 5272 4300 
z
" transform="scale(0.015625)"/>
      <path id="IPAexGothic-3059" d="M 3322 5075 
L 3816 5075 
L 3816 4063 
Q 4131 4075 5756 4116 
L 5756 3669 
Q 5431 3672 3816 3653 
L 3816 2463 
Q 3956 2125 3956 1741 
Q 3956 922 3519 397 
Q 3128 -72 2309 -409 
L 1941 -31 
Q 3263 453 3488 1363 
Q 3250 1031 2809 1031 
Q 2441 1031 2150 1313 
Q 1875 1588 1875 2050 
Q 1875 2475 2166 2769 
Q 2431 3041 2822 3041 
Q 3088 3041 3322 2881 
L 3322 3641 
Q 3000 3634 609 3547 
L 609 3988 
Q 1197 4000 2106 4022 
Q 3066 4047 3322 4050 
L 3322 5075 
z
M 3372 2044 
Q 3372 2300 3194 2478 
Q 3050 2613 2869 2613 
Q 2622 2613 2463 2406 
Q 2344 2250 2344 2088 
Q 2344 1797 2484 1622 
Q 2625 1453 2859 1453 
Q 3372 1453 3372 2044 
z
" transform="scale(0.015625)"/>
     </defs>
     <use xlink:href="#IPAexGothic-8272"/>
     <use xlink:href="#IPAexGothic-60c5" x="100"/>
     <use xlink:href="#IPAexGothic-5831" x="200"/>
     <use xlink:href="#IPAexGothic-ff08" x="300"/>
     <use xlink:href="#IPAexGothic-52" x="400"/>
     <use xlink:href="#IPAexGothic-47" x="464.794922"/>
     <use xlink:href="#IPAexGothic-42" x="540.087891"/>
     <use xlink:href="#IPAexGothic-ff09" x="606.005859"/>
     <use xlink:href="#IPAexGothic-3092" x="706.005859"/>
     <use xlink:href="#IPAexGothic-6368" x="806.005859"/>
     <use xlink:href="#IPAexGothic-3066" x="906.005859"/>
     <use xlink:href="#IPAexGothic-3066" x="1006.005859"/>
     <use xlink:href="#IPAexGothic-3001" x="1106.005859"/>
     <use xlink:href="#IPAexGothic-660e" x="1206.005859"/>
     <use xlink:href="#IPAexGothic-308b" x="1306.005859"/>
     <use xlink:href="#IPAexGothic-3055" x="1406.005859"/>
     <use xlink:href="#IPAexGothic-3060" x="1506.005859"/>
     <use xlink:href="#IPAexGothic-3051" x="1606.005859"/>
     <use xlink:href="#IPAexGothic-3092" x="1706.005859"/>
     <use xlink:href="#IPAexGothic-6b8b" x="1806.005859"/>
     <use xlink:href="#IPAexGothic-3059" x="1906.005859"/>
     <use xlink:href="#IPAexGothic-51e6" x="2006.005859"/>
     <use xlink:href="#IPAexGothic-7406" x="2106.005859"/>
    </g>
   </g>
   <g id="text_15">
    <!-- # カラー画像をグレースケールに変換 -->
    <g style="fill: #cdd6f4" transform="translate(40.32 280.125234) scale(0.105 -0.105)">
     <defs>
      <path id="DejaVuSansMono-23" d="M 2138 4594 
L 1813 3297 
L 2578 3297 
L 2906 4594 
L 3406 4594 
L 3078 3297 
L 3841 3297 
L 3841 2816 
L 2963 2816 
L 2700 1772 
L 3481 1772 
L 3481 1294 
L 2578 1294 
L 2253 0 
L 1753 0 
L 2081 1294 
L 1313 1294 
L 984 0 
L 488 0 
L 813 1294 
L 6 1294 
L 6 1772 
L 934 1772 
L 1197 2816 
L 366 2816 
L 366 3297 
L 1313 3297 
L 1638 4594 
L 2138 4594 
z
M 2463 2816 
L 1697 2816 
L 1434 1772 
L 2203 1772 
L 2463 2816 
z
" transform="scale(0.015625)"/>
      <path id="DejaVuSansMono-20" transform="scale(0.015625)"/>
      <path id="DejaVuSansMono-30ab" d="M 325 -1131 
L 325 4513 
L 3525 4513 
L 3525 -1131 
L 325 -1131 
z
M 684 -775 
L 3169 -775 
L 3169 4153 
L 684 4153 
L 684 -775 
z
" transform="scale(0.015625)"/>
      <path id="DejaVuSansMono-30e9" d="M 325 -1131 
L 325 4513 
L 3525 4513 
L 3525 -1131 
L 325 -1131 
z
M 684 -775 
L 3169 -775 
L 3169 4153 
L 684 4153 
L 684 -775 
z
" transform="scale(0.015625)"/>
      <path id="DejaVuSansMono-30fc" d="M 325 -1131 
L 325 4513 
L 3525 4513 
L 3525 -1131 
L 325 -1131 
z
M 684 -775 
L 3169 -775 
L 3169 4153 
L 684 4153 
L 684 -775 
z
" transform="scale(0.015625)"/>
      <path id="DejaVuSansMono-753b" d="M 325 -1131 
L 325 4513 
L 3525 4513 
L 3525 -1131 
L 325 -1131 
z
M 684 -775 
L 3169 -775 
L 3169 4153 
L 684 4153 
L 684 -775 
z
" transform="scale(0.015625)"/>
      <path id="DejaVuSansMono-50cf" d="M 325 -1131 
L 325 4513 
L 3525 4513 
L 3525 -1131 
L 325 -1131 
z
M 684 -775 
L 3169 -775 
L 3169 4153 
L 684 4153 
L 684 -775 
z
" transform="scale(0.015625)"/>
      <path id="DejaVuSansMono-3092" d="M 325 -1131 
L 325 4513 
L 3525 4513 
L 3525 -1131 
L 325 -1131 
z
M 684 -775 
L 3169 -775 
L 3169 4153 
L 684 4153 
L 684 -775 
z
" transform="scale(0.015625)"/>
      <path id="DejaVuSansMono-30b0" d="M 325 -1131 
L 325 4513 
L 3525 4513 
L 3525 -1131 
L 325 -1131 
z
M 684 -775 
L 3169 -775 
L 3169 4153 
L 684 4153 
L 684 -775 
z
" transform="scale(0.015625)"/>
      <path id="DejaVuSansMono-30ec" d="M 325 -1131 
L 325 4513 
L 3525 4513 
L 3525 -1131 
L 325 -1131 
z
M 684 -775 
L 3169 -775 
L 3169 4153 
L 684 4153 
L 684 -775 
z
" transform="scale(0.015625)"/>
      <path id="DejaVuSansMono-30b9" d="M 325 -1131 
L 325 4513 
L 3525 4513 
L 3525 -1131 
L 325 -1131 
z
M 684 -775 
L 3169 -775 
L 3169 4153 
L 684 4153 
L 684 -775 
z
" transform="scale(0.015625)"/>
      <path id="DejaVuSansMono-30b1" d="M 325 -1131 
L 325 4513 
L 3525 4513 
L 3525 -1131 
L 325 -1131 
z
M 684 -775 
L 3169 -775 
L 3169 4153 
L 684 4153 
L 684 -775 
z
" transform="scale(0.015625)"/>
      <path id="DejaVuSansMono-30eb" d="M 325 -1131 
L 325 4513 
L 3525 4513 
L 3525 -1131 
L 325 -1131 
z
M 684 -775 
L 3169 -775 
L 3169 4153 
L 684 4153 
L 684 -775 
z
" transform="scale(0.015625)"/>
      <path id="DejaVuSansMono-306b" d="M 325 -1131 
L 325 4513 
L 3525 4513 
L 3525 -1131 
L 325 -1131 
z
M 684 -775 
L 3169 -775 
L 3169 4153 
L 684 4153 
L 684 -775 
z
" transform="scale(0.015625)"/>
      <path id="DejaVuSansMono-5909" d="M 325 -1131 
L 325 4513 
L 3525 4513 
L 3525 -1131 
L 325 -1131 
z
M 684 -775 
L 3169 -775 
L 3169 4153 
L 684 4153 
L 684 -775 
z
" transform="scale(0.015625)"/>
      <path id="DejaVuSansMono-63db" d="M 325 -1131 
L 325 4513 
L 3525 4513 
L 3525 -1131 
L 325 -1131 
z
M 684 -775 
L 3169 -775 
L 3169 4153 
L 684 4153 
L 684 -775 
z
" transform="scale(0.015625)"/>
     </defs>
     <use xlink:href="#DejaVuSansMono-23"/>
     <use xlink:href="#DejaVuSansMono-20" x="60.205078"/>
     <use xlink:href="#DejaVuSansMono-30ab" x="120.410156"/>
     <use xlink:href="#DejaVuSansMono-30e9" x="180.615234"/>
     <use xlink:href="#DejaVuSansMono-30fc" x="240.820312"/>
     <use xlink:href="#DejaVuSansMono-753b" x="301.025391"/>
     <use xlink:href="#DejaVuSansMono-50cf" x="361.230469"/>
     <use xlink:href="#DejaVuSansMono-3092" x="421.435547"/>
     <use xlink:href="#DejaVuSansMono-30b0" x="481.640625"/>
     <use xlink:href="#DejaVuSansMono-30ec" x="541.845703"/>
     <use xlink:href="#DejaVuSansMono-30fc" x="602.050781"/>
     <use xlink:href="#DejaVuSansMono-30b9" x="662.255859"/>
     <use xlink:href="#DejaVuSansMono-30b1" x="722.460938"/>
     <use xlink:href="#DejaVuSansMono-30fc" x="782.666016"/>
     <use xlink:href="#DejaVuSansMono-30eb" x="842.871094"/>
     <use xlink:href="#DejaVuSansMono-306b" x="903.076172"/>
     <use xlink:href="#DejaVuSansMono-5909" x="963.28125"/>
     <use xlink:href="#DejaVuSansMono-63db" x="1023.486328"/>
    </g>
   </g>
   <g id="text_16">
    <!-- img = Image.open("photo.jpg")  # mode = "RGB" -->
    <g style="fill: #cdd6f4" transform="translate(40.32 294.46125) scale(0.105 -0.105)">
     <defs>
      <path id="DejaVuSansMono-69" d="M 800 3500 
L 2272 3500 
L 2272 447 
L 3413 447 
L 3413 0 
L 556 0 
L 556 447 
L 1697 447 
L 1697 3053 
L 800 3053 
L 800 3500 
z
M 1697 4863 
L 2272 4863 
L 2272 4134 
L 1697 4134 
L 1697 4863 
z
" transform="scale(0.015625)"/>
      <path id="DejaVuSansMono-6d" d="M 2113 3144 
Q 2219 3369 2383 3476 
Q 2547 3584 2778 3584 
Q 3200 3584 3373 3257 
Q 3547 2931 3547 2028 
L 3547 0 
L 3022 0 
L 3022 2003 
Q 3022 2744 2939 2923 
Q 2856 3103 2638 3103 
Q 2388 3103 2295 2911 
Q 2203 2719 2203 2003 
L 2203 0 
L 1678 0 
L 1678 2003 
Q 1678 2753 1589 2928 
Q 1500 3103 1269 3103 
Q 1041 3103 952 2911 
Q 863 2719 863 2003 
L 863 0 
L 341 0 
L 341 3500 
L 863 3500 
L 863 3200 
Q 966 3388 1120 3486 
Q 1275 3584 1472 3584 
Q 1709 3584 1867 3475 
Q 2025 3366 2113 3144 
z
" transform="scale(0.015625)"/>
      <path id="DejaVuSansMono-67" d="M 2681 1778 
Q 2681 2425 2470 2761 
Q 2259 3097 1856 3097 
Q 1434 3097 1212 2761 
Q 991 2425 991 1778 
Q 991 1131 1214 792 
Q 1438 453 1863 453 
Q 2259 453 2470 793 
Q 2681 1134 2681 1778 
z
M 3256 225 
Q 3256 -563 2884 -969 
Q 2513 -1375 1791 -1375 
Q 1553 -1375 1293 -1331 
Q 1034 -1288 775 -1203 
L 775 -634 
Q 1081 -778 1331 -847 
Q 1581 -916 1791 -916 
Q 2256 -916 2468 -662 
Q 2681 -409 2681 141 
L 2681 166 
L 2681 556 
Q 2544 263 2306 119 
Q 2069 -25 1728 -25 
Q 1116 -25 750 465 
Q 384 956 384 1778 
Q 384 2603 750 3093 
Q 1116 3584 1728 3584 
Q 2066 3584 2300 3450 
Q 2534 3316 2681 3034 
L 2681 3488 
L 3256 3488 
L 3256 225 
z
" transform="scale(0.015625)"/>
      <path id="DejaVuSansMono-3d" d="M 275 1638 
L 3578 1638 
L 3578 1100 
L 275 1100 
L 275 1638 
z
M 275 2906 
L 3578 2906 
L 3578 2375 
L 275 2375 
L 275 2906 
z
" transform="scale(0.015625)"/>
      <path id="DejaVuSansMono-49" d="M 628 4666 
L 3219 4666 
L 3219 4134 
L 2241 4134 
L 2241 531 
L 3219 531 
L 3219 0 
L 628 0 
L 628 531 
L 1606 531 
L 1606 4134 
L 628 4134 
L 628 4666 
z
" transform="scale(0.015625)"/>
      <path id="DejaVuSansMono-61" d="M 2194 1759 
L 2003 1759 
Q 1500 1759 1245 1582 
Q 991 1406 991 1056 
Q 991 741 1181 566 
Q 1372 391 1709 391 
Q 2184 391 2456 720 
Q 2728 1050 2731 1631 
L 2731 1759 
L 2194 1759 
z
M 3309 1997 
L 3309 0 
L 2731 0 
L 2731 519 
Q 2547 206 2267 57 
Q 1988 -91 1588 -91 
Q 1053 -91 734 211 
Q 416 513 416 1019 
Q 416 1603 808 1906 
Q 1200 2209 1959 2209 
L 2731 2209 
L 2731 2300 
Q 2728 2719 2518 2908 
Q 2309 3097 1850 3097 
Q 1556 3097 1256 3012 
Q 956 2928 672 2766 
L 672 3341 
Q 991 3463 1283 3523 
Q 1575 3584 1850 3584 
Q 2284 3584 2592 3456 
Q 2900 3328 3091 3072 
Q 3209 2916 3259 2686 
Q 3309 2456 3309 1997 
z
" transform="scale(0.015625)"/>
      <path id="DejaVuSansMono-65" d="M 3475 1894 
L 3475 1613 
L 984 1613 
L 984 1594 
Q 984 1022 1282 709 
Q 1581 397 2125 397 
Q 2400 397 2700 484 
Q 3000 572 3341 750 
L 3341 178 
Q 3013 44 2708 -23 
Q 2403 -91 2119 -91 
Q 1303 -91 843 398 
Q 384 888 384 1747 
Q 384 2584 834 3084 
Q 1284 3584 2034 3584 
Q 2703 3584 3089 3131 
Q 3475 2678 3475 1894 
z
M 2900 2063 
Q 2888 2569 2661 2833 
Q 2434 3097 2009 3097 
Q 1594 3097 1325 2822 
Q 1056 2547 1006 2059 
L 2900 2063 
z
" transform="scale(0.015625)"/>
      <path id="DejaVuSansMono-2e" d="M 1528 953 
L 2316 953 
L 2316 0 
L 1528 0 
L 1528 953 
z
" transform="scale(0.015625)"/>
      <path id="DejaVuSansMono-6f" d="M 1925 3097 
Q 1488 3097 1263 2756 
Q 1038 2416 1038 1747 
Q 1038 1081 1263 739 
Q 1488 397 1925 397 
Q 2366 397 2591 739 
Q 2816 1081 2816 1747 
Q 2816 2416 2591 2756 
Q 2366 3097 1925 3097 
z
M 1925 3584 
Q 2653 3584 3039 3112 
Q 3425 2641 3425 1747 
Q 3425 850 3040 379 
Q 2656 -91 1925 -91 
Q 1197 -91 812 379 
Q 428 850 428 1747 
Q 428 2641 812 3112 
Q 1197 3584 1925 3584 
z
" transform="scale(0.015625)"/>
      <path id="DejaVuSansMono-70" d="M 1172 441 
L 1172 -1331 
L 594 -1331 
L 594 3500 
L 1172 3500 
L 1172 3053 
Q 1316 3313 1555 3448 
Q 1794 3584 2106 3584 
Q 2741 3584 3102 3093 
Q 3463 2603 3463 1734 
Q 3463 881 3100 395 
Q 2738 -91 2106 -91 
Q 1788 -91 1548 45 
Q 1309 181 1172 441 
z
M 2859 1747 
Q 2859 2416 2648 2756 
Q 2438 3097 2022 3097 
Q 1603 3097 1387 2755 
Q 1172 2413 1172 1747 
Q 1172 1084 1387 740 
Q 1603 397 2022 397 
Q 2438 397 2648 737 
Q 2859 1078 2859 1747 
z
" transform="scale(0.015625)"/>
      <path id="DejaVuSansMono-6e" d="M 3284 2169 
L 3284 0 
L 2706 0 
L 2706 2169 
Q 2706 2641 2540 2862 
Q 2375 3084 2022 3084 
Q 1619 3084 1401 2798 
Q 1184 2513 1184 1978 
L 1184 0 
L 609 0 
L 609 3500 
L 1184 3500 
L 1184 2975 
Q 1338 3275 1600 3429 
Q 1863 3584 2222 3584 
Q 2756 3584 3020 3232 
Q 3284 2881 3284 2169 
z
" transform="scale(0.015625)"/>
      <path id="DejaVuSansMono-28" d="M 2766 4856 
Q 2350 4144 2145 3436 
Q 1941 2728 1941 2009 
Q 1941 1294 2145 584 
Q 2350 -125 2766 -844 
L 2266 -844 
Q 1794 -100 1562 604 
Q 1331 1309 1331 2009 
Q 1331 2706 1562 3412 
Q 1794 4119 2266 4856 
L 2766 4856 
z
" transform="scale(0.015625)"/>
      <path id="DejaVuSansMono-22" d="M 2797 4666 
L 2797 2931 
L 2253 2931 
L 2253 4666 
L 2797 4666 
z
M 1600 4666 
L 1600 2931 
L 1056 2931 
L 1056 4666 
L 1600 4666 
z
" transform="scale(0.015625)"/>
      <path id="DejaVuSansMono-68" d="M 3284 2169 
L 3284 0 
L 2706 0 
L 2706 2169 
Q 2706 2641 2540 2862 
Q 2375 3084 2022 3084 
Q 1619 3084 1401 2798 
Q 1184 2513 1184 1978 
L 1184 0 
L 609 0 
L 609 4863 
L 1184 4863 
L 1184 2975 
Q 1338 3275 1600 3429 
Q 1863 3584 2222 3584 
Q 2756 3584 3020 3232 
Q 3284 2881 3284 2169 
z
" transform="scale(0.015625)"/>
      <path id="DejaVuSansMono-74" d="M 1919 4494 
L 1919 3500 
L 3225 3500 
L 3225 3053 
L 1919 3053 
L 1919 1153 
Q 1919 766 2066 612 
Q 2213 459 2578 459 
L 3225 459 
L 3225 0 
L 2522 0 
Q 1875 0 1609 259 
Q 1344 519 1344 1153 
L 1344 3053 
L 409 3053 
L 409 3500 
L 1344 3500 
L 1344 4494 
L 1919 4494 
z
" transform="scale(0.015625)"/>
      <path id="DejaVuSansMono-6a" d="M 1875 -63 
L 1875 3053 
L 884 3053 
L 884 3500 
L 2450 3500 
L 2450 -63 
Q 2450 -672 2170 -1001 
Q 1891 -1331 1375 -1331 
L 581 -1331 
L 581 -844 
L 1313 -844 
Q 1594 -844 1734 -648 
Q 1875 -453 1875 -63 
z
M 1875 4863 
L 2450 4863 
L 2450 4134 
L 1875 4134 
L 1875 4863 
z
" transform="scale(0.015625)"/>
      <path id="DejaVuSansMono-29" d="M 1088 4856 
L 1588 4856 
Q 2059 4119 2290 3412 
Q 2522 2706 2522 2009 
Q 2522 1306 2290 600 
Q 2059 -106 1588 -844 
L 1088 -844 
Q 1503 -119 1708 590 
Q 1913 1300 1913 2009 
Q 1913 2722 1708 3431 
Q 1503 4141 1088 4856 
z
" transform="scale(0.015625)"/>
      <path id="DejaVuSansMono-64" d="M 2681 3053 
L 2681 4863 
L 3256 4863 
L 3256 0 
L 2681 0 
L 2681 441 
Q 2538 181 2298 45 
Q 2059 -91 1747 -91 
Q 1113 -91 748 401 
Q 384 894 384 1759 
Q 384 2613 750 3098 
Q 1116 3584 1747 3584 
Q 2063 3584 2303 3448 
Q 2544 3313 2681 3053 
z
M 991 1747 
Q 991 1078 1203 737 
Q 1416 397 1831 397 
Q 2247 397 2464 740 
Q 2681 1084 2681 1747 
Q 2681 2413 2464 2755 
Q 2247 3097 1831 3097 
Q 1416 3097 1203 2756 
Q 991 2416 991 1747 
z
" transform="scale(0.015625)"/>
      <path id="DejaVuSansMono-52" d="M 2375 2203 
Q 2619 2141 2791 1967 
Q 2963 1794 3219 1275 
L 3853 0 
L 3175 0 
L 2619 1178 
Q 2378 1681 2186 1826 
Q 1994 1972 1684 1972 
L 1081 1972 
L 1081 0 
L 447 0 
L 447 4666 
L 1747 4666 
Q 2516 4666 2925 4319 
Q 3334 3972 3334 3316 
Q 3334 2853 3082 2561 
Q 2831 2269 2375 2203 
z
M 1081 4147 
L 1081 2491 
L 1772 2491 
Q 2225 2491 2447 2694 
Q 2669 2897 2669 3316 
Q 2669 3719 2433 3933 
Q 2197 4147 1747 4147 
L 1081 4147 
z
" transform="scale(0.015625)"/>
      <path id="DejaVuSansMono-47" d="M 3450 384 
Q 3197 150 2880 29 
Q 2563 -91 2194 -91 
Q 1306 -91 812 545 
Q 319 1181 319 2328 
Q 319 3472 819 4111 
Q 1319 4750 2209 4750 
Q 2503 4750 2772 4667 
Q 3041 4584 3291 4416 
L 3291 3769 
Q 3038 4009 2772 4123 
Q 2506 4238 2209 4238 
Q 1594 4238 1286 3761 
Q 978 3284 978 2328 
Q 978 1356 1276 889 
Q 1575 422 2194 422 
Q 2403 422 2561 470 
Q 2719 519 2847 622 
L 2847 1875 
L 2169 1875 
L 2169 2394 
L 3450 2394 
L 3450 384 
z
" transform="scale(0.015625)"/>
      <path id="DejaVuSansMono-42" d="M 1153 2228 
L 1153 519 
L 1900 519 
Q 2450 519 2684 711 
Q 2919 903 2919 1344 
Q 2919 1800 2672 2014 
Q 2425 2228 1900 2228 
L 1153 2228 
z
M 1153 4147 
L 1153 2741 
L 1888 2741 
Q 2344 2741 2548 2916 
Q 2753 3091 2753 3481 
Q 2753 3834 2551 3990 
Q 2350 4147 1888 4147 
L 1153 4147 
z
M 519 4666 
L 1900 4666 
Q 2616 4666 3003 4356 
Q 3391 4047 3391 3481 
Q 3391 3053 3186 2806 
Q 2981 2559 2572 2497 
Q 3031 2428 3292 2104 
Q 3553 1781 3553 1281 
Q 3553 647 3137 323 
Q 2722 0 1900 0 
L 519 0 
L 519 4666 
z
" transform="scale(0.015625)"/>
     </defs>
     <use xlink:href="#DejaVuSansMono-69"/>
     <use xlink:href="#DejaVuSansMono-6d" x="60.205078"/>
     <use xlink:href="#DejaVuSansMono-67" x="120.410156"/>
     <use xlink:href="#DejaVuSansMono-20" x="180.615234"/>
     <use xlink:href="#DejaVuSansMono-3d" x="240.820312"/>
     <use xlink:href="#DejaVuSansMono-20" x="301.025391"/>
     <use xlink:href="#DejaVuSansMono-49" x="361.230469"/>
     <use xlink:href="#DejaVuSansMono-6d" x="421.435547"/>
     <use xlink:href="#DejaVuSansMono-61" x="481.640625"/>
     <use xlink:href="#DejaVuSansMono-67" x="541.845703"/>
     <use xlink:href="#DejaVuSansMono-65" x="602.050781"/>
     <use xlink:href="#DejaVuSansMono-2e" x="662.255859"/>
     <use xlink:href="#DejaVuSansMono-6f" x="722.460938"/>
     <use xlink:href="#DejaVuSansMono-70" x="782.666016"/>
     <use xlink:href="#DejaVuSansMono-65" x="842.871094"/>
     <use xlink:href="#DejaVuSansMono-6e" x="903.076172"/>
     <use xlink:href="#DejaVuSansMono-28" x="963.28125"/>
     <use xlink:href="#DejaVuSansMono-22" x="1023.486328"/>
     <use xlink:href="#DejaVuSansMono-70" x="1083.691406"/>
     <use xlink:href="#DejaVuSansMono-68" x="1143.896484"/>
     <use xlink:href="#DejaVuSansMono-6f" x="1204.101562"/>
     <use xlink:href="#DejaVuSansMono-74" x="1264.306641"/>
     <use xlink:href="#DejaVuSansMono-6f" x="1324.511719"/>
     <use xlink:href="#DejaVuSansMono-2e" x="1384.716797"/>
     <use xlink:href="#DejaVuSansMono-6a" x="1444.921875"/>
     <use xlink:href="#DejaVuSansMono-70" x="1505.126953"/>
     <use xlink:href="#DejaVuSansMono-67" x="1565.332031"/>
     <use xlink:href="#DejaVuSansMono-22" x="1625.537109"/>
     <use xlink:href="#DejaVuSansMono-29" x="1685.742188"/>
     <use xlink:href="#DejaVuSansMono-20" x="1745.947266"/>
     <use xlink:href="#DejaVuSansMono-20" x="1806.152344"/>
     <use xlink:href="#DejaVuSansMono-23" x="1866.357422"/>
     <use xlink:href="#DejaVuSansMono-20" x="1926.5625"/>
     <use xlink:href="#DejaVuSansMono-6d" x="1986.767578"/>
     <use xlink:href="#DejaVuSansMono-6f" x="2046.972656"/>
     <use xlink:href="#DejaVuSansMono-64" x="2107.177734"/>
     <use xlink:href="#DejaVuSansMono-65" x="2167.382812"/>
     <use xlink:href="#DejaVuSansMono-20" x="2227.587891"/>
     <use xlink:href="#DejaVuSansMono-3d" x="2287.792969"/>
     <use xlink:href="#DejaVuSansMono-20" x="2347.998047"/>
     <use xlink:href="#DejaVuSansMono-22" x="2408.203125"/>
     <use xlink:href="#DejaVuSansMono-52" x="2468.408203"/>
     <use xlink:href="#DejaVuSansMono-47" x="2528.613281"/>
     <use xlink:href="#DejaVuSansMono-42" x="2588.818359"/>
     <use xlink:href="#DejaVuSansMono-22" x="2649.023438"/>
    </g>
   </g>
   <g id="text_17">
    <!-- img_gray = img.convert("L")       # mode = "L"（グレースケール） -->
    <g style="fill: #cdd6f4" transform="translate(40.32 308.751328) scale(0.105 -0.105)">
     <defs>
      <path id="DejaVuSansMono-5f" d="M 3853 -1259 
L 3853 -1509 
L 0 -1509 
L 0 -1259 
L 3853 -1259 
z
" transform="scale(0.015625)"/>
      <path id="DejaVuSansMono-72" d="M 3609 2778 
Q 3425 2922 3234 2987 
Q 3044 3053 2816 3053 
Q 2278 3053 1993 2715 
Q 1709 2378 1709 1741 
L 1709 0 
L 1131 0 
L 1131 3500 
L 1709 3500 
L 1709 2816 
Q 1853 3188 2151 3386 
Q 2450 3584 2859 3584 
Q 3072 3584 3256 3531 
Q 3441 3478 3609 3366 
L 3609 2778 
z
" transform="scale(0.015625)"/>
      <path id="DejaVuSansMono-79" d="M 2681 1125 
Q 2538 759 2316 163 
Q 2006 -663 1900 -844 
Q 1756 -1088 1540 -1209 
Q 1325 -1331 1038 -1331 
L 575 -1331 
L 575 -850 
L 916 -850 
Q 1169 -850 1312 -703 
Q 1456 -556 1678 56 
L 325 3500 
L 934 3500 
L 1972 763 
L 2994 3500 
L 3603 3500 
L 2681 1125 
z
" transform="scale(0.015625)"/>
      <path id="DejaVuSansMono-63" d="M 3316 178 
Q 3084 44 2839 -23 
Q 2594 -91 2338 -91 
Q 1525 -91 1067 396 
Q 609 884 609 1747 
Q 609 2609 1067 3096 
Q 1525 3584 2338 3584 
Q 2591 3584 2831 3518 
Q 3072 3453 3316 3316 
L 3316 2713 
Q 3088 2916 2858 3006 
Q 2628 3097 2338 3097 
Q 1797 3097 1506 2747 
Q 1216 2397 1216 1747 
Q 1216 1100 1508 748 
Q 1800 397 2338 397 
Q 2638 397 2875 489 
Q 3113 581 3316 775 
L 3316 178 
z
" transform="scale(0.015625)"/>
      <path id="DejaVuSansMono-76" d="M 313 3500 
L 909 3500 
L 1925 563 
L 2944 3500 
L 3541 3500 
L 2297 0 
L 1556 0 
L 313 3500 
z
" transform="scale(0.015625)"/>
      <path id="DejaVuSansMono-4c" d="M 672 4666 
L 1306 4666 
L 1306 531 
L 3559 531 
L 3559 0 
L 672 0 
L 672 4666 
z
" transform="scale(0.015625)"/>
      <path id="DejaVuSansMono-ff08" d="M 325 -1131 
L 325 4513 
L 3525 4513 
L 3525 -1131 
L 325 -1131 
z
M 684 -775 
L 3169 -775 
L 3169 4153 
L 684 4153 
L 684 -775 
z
" transform="scale(0.015625)"/>
      <path id="DejaVuSansMono-ff09" d="M 325 -1131 
L 325 4513 
L 3525 4513 
L 3525 -1131 
L 325 -1131 
z
M 684 -775 
L 3169 -775 
L 3169 4153 
L 684 4153 
L 684 -775 
z
" transform="scale(0.015625)"/>
     </defs>
     <use xlink:href="#DejaVuSansMono-69"/>
     <use xlink:href="#DejaVuSansMono-6d" x="60.205078"/>
     <use xlink:href="#DejaVuSansMono-67" x="120.410156"/>
     <use xlink:href="#DejaVuSansMono-5f" x="180.615234"/>
     <use xlink:href="#DejaVuSansMono-67" x="240.820312"/>
     <use xlink:href="#DejaVuSansMono-72" x="301.025391"/>
     <use xlink:href="#DejaVuSansMono-61" x="361.230469"/>
     <use xlink:href="#DejaVuSansMono-79" x="421.435547"/>
     <use xlink:href="#DejaVuSansMono-20" x="481.640625"/>
     <use xlink:href="#DejaVuSansMono-3d" x="541.845703"/>
     <use xlink:href="#DejaVuSansMono-20" x="602.050781"/>
     <use xlink:href="#DejaVuSansMono-69" x="662.255859"/>
     <use xlink:href="#DejaVuSansMono-6d" x="722.460938"/>
     <use xlink:href="#DejaVuSansMono-67" x="782.666016"/>
     <use xlink:href="#DejaVuSansMono-2e" x="842.871094"/>
     <use xlink:href="#DejaVuSansMono-63" x="903.076172"/>
     <use xlink:href="#DejaVuSansMono-6f" x="963.28125"/>
     <use xlink:href="#DejaVuSansMono-6e" x="1023.486328"/>
     <use xlink:href="#DejaVuSansMono-76" x="1083.691406"/>
     <use xlink:href="#DejaVuSansMono-65" x="1143.896484"/>
     <use xlink:href="#DejaVuSansMono-72" x="1204.101562"/>
     <use xlink:href="#DejaVuSansMono-74" x="1264.306641"/>
     <use xlink:href="#DejaVuSansMono-28" x="1324.511719"/>
     <use xlink:href="#DejaVuSansMono-22" x="1384.716797"/>
     <use xlink:href="#DejaVuSansMono-4c" x="1444.921875"/>
     <use xlink:href="#DejaVuSansMono-22" x="1505.126953"/>
     <use xlink:href="#DejaVuSansMono-29" x="1565.332031"/>
     <use xlink:href="#DejaVuSansMono-20" x="1625.537109"/>
     <use xlink:href="#DejaVuSansMono-20" x="1685.742188"/>
     <use xlink:href="#DejaVuSansMono-20" x="1745.947266"/>
     <use xlink:href="#DejaVuSansMono-20" x="1806.152344"/>
     <use xlink:href="#DejaVuSansMono-20" x="1866.357422"/>
     <use xlink:href="#DejaVuSansMono-20" x="1926.5625"/>
     <use xlink:href="#DejaVuSansMono-20" x="1986.767578"/>
     <use xlink:href="#DejaVuSansMono-23" x="2046.972656"/>
     <use xlink:href="#DejaVuSansMono-20" x="2107.177734"/>
     <use xlink:href="#DejaVuSansMono-6d" x="2167.382812"/>
     <use xlink:href="#DejaVuSansMono-6f" x="2227.587891"/>
     <use xlink:href="#DejaVuSansMono-64" x="2287.792969"/>
     <use xlink:href="#DejaVuSansMono-65" x="2347.998047"/>
     <use xlink:href="#DejaVuSansMono-20" x="2408.203125"/>
     <use xlink:href="#DejaVuSansMono-3d" x="2468.408203"/>
     <use xlink:href="#DejaVuSansMono-20" x="2528.613281"/>
     <use xlink:href="#DejaVuSansMono-22" x="2588.818359"/>
     <use xlink:href="#DejaVuSansMono-4c" x="2649.023438"/>
     <use xlink:href="#DejaVuSansMono-22" x="2709.228516"/>
     <use xlink:href="#DejaVuSansMono-ff08" x="2769.433594"/>
     <use xlink:href="#DejaVuSansMono-30b0" x="2829.638672"/>
     <use xlink:href="#DejaVuSansMono-30ec" x="2889.84375"/>
     <use xlink:href="#DejaVuSansMono-30fc" x="2950.048828"/>
     <use xlink:href="#DejaVuSansMono-30b9" x="3010.253906"/>
     <use xlink:href="#DejaVuSansMono-30b1" x="3070.458984"/>
     <use xlink:href="#DejaVuSansMono-30fc" x="3130.664062"/>
     <use xlink:href="#DejaVuSansMono-30eb" x="3190.869141"/>
     <use xlink:href="#DejaVuSansMono-ff09" x="3251.074219"/>
    </g>
   </g>
   <g id="text_18">
    <!-- 💡 グレースケール変換後は「赤と緑の区別」ができなくなる（色情報の喪失） -->
    <g style="fill: #7d6608" transform="translate(41.04 354.597494) scale(0.125 -0.125)">
     <defs>
      <path id="IPAexGothic-1f4a1" d="M 5759 -641 
L 641 -641 
L 641 5503 
L 5759 5503 
L 5759 -641 
z
M 5216 5172 
L 1191 5172 
L 3206 2694 
L 5216 5172 
z
M 5428 -53 
L 5428 4903 
L 3419 2425 
L 5428 -53 
z
M 2988 2425 
L 972 4916 
L 972 -59 
L 2988 2425 
z
M 5209 -309 
L 3206 2163 
L 1197 -309 
L 5209 -309 
z
" transform="scale(0.015625)"/>
      <path id="IPAexGothic-5f8c" d="M 3309 2475 
Q 3184 2469 2291 2425 
L 2125 2859 
Q 2625 2859 2822 2866 
L 3169 2878 
L 3488 3194 
Q 2891 3844 2375 4238 
L 2700 4563 
Q 2878 4409 3097 4191 
Q 3563 4781 3828 5297 
L 4263 5075 
Q 3853 4431 3366 3916 
Q 3538 3744 3769 3475 
Q 4366 4109 4756 4647 
L 5178 4391 
Q 4525 3594 3719 2891 
L 4519 2925 
Q 5022 2950 5197 2963 
Q 4978 3316 4741 3591 
L 5106 3794 
Q 5606 3197 5972 2516 
L 5569 2259 
Q 5494 2428 5381 2638 
Q 5363 2631 5309 2628 
Q 5259 2625 5234 2622 
Q 4741 2566 3806 2509 
Q 3728 2338 3550 2041 
L 5050 2041 
L 5319 1791 
Q 4978 1122 4441 631 
Q 5069 256 5984 25 
L 5663 -419 
Q 4734 -106 4109 338 
Q 3372 -225 2194 -531 
L 1900 -116 
Q 3009 66 3775 594 
Q 3331 969 3053 1356 
Q 2663 900 2259 625 
L 1959 941 
Q 2838 1559 3309 2475 
z
M 4109 863 
Q 4528 1244 4728 1656 
L 3322 1656 
Q 3613 1263 4109 863 
z
M 1588 2753 
L 1588 -447 
L 1147 -447 
L 1147 2209 
Q 869 1891 550 1613 
L 250 1947 
Q 1216 2806 1803 3938 
L 2206 3738 
Q 1906 3188 1588 2753 
z
M 294 3716 
Q 1213 4375 1663 5209 
L 2078 4997 
Q 1475 4016 588 3372 
L 294 3716 
z
" transform="scale(0.015625)"/>
      <path id="IPAexGothic-300c" d="M 4134 5300 
L 5875 5300 
L 5875 4853 
L 4581 4853 
L 4581 656 
L 4134 656 
L 4134 5300 
z
" transform="scale(0.015625)"/>
      <path id="IPAexGothic-533a" d="M 1294 4391 
L 1294 403 
L 5838 403 
L 5838 -25 
L 1294 -25 
L 1294 -447 
L 806 -447 
L 806 4819 
L 5678 4819 
L 5678 4391 
L 1294 4391 
z
M 3278 2375 
Q 2669 2909 1819 3500 
L 2125 3794 
Q 2881 3281 3547 2725 
Q 3959 3319 4306 4172 
L 4744 4000 
Q 4322 3038 3891 2431 
Q 4438 1959 5203 1216 
L 4850 856 
Q 4206 1534 3616 2075 
Q 2963 1284 1856 659 
L 1534 1013 
Q 2569 1553 3278 2375 
z
" transform="scale(0.015625)"/>
      <path id="IPAexGothic-5225" d="M 1922 2963 
Q 1906 2453 1894 2209 
L 3341 2209 
Q 3313 550 3175 63 
Q 3059 -366 2413 -366 
Q 2072 -366 1753 -313 
L 1691 134 
Q 2084 63 2413 63 
Q 2694 63 2759 319 
Q 2856 722 2888 1753 
Q 2888 1800 2894 1819 
L 1863 1819 
Q 1709 350 700 -481 
L 353 -147 
Q 1075 403 1306 1256 
Q 1450 1822 1478 2963 
L 700 2963 
L 700 4984 
L 3278 4984 
L 3278 2963 
L 1922 2963 
z
M 1141 4588 
L 1141 3353 
L 2838 3353 
L 2838 4588 
L 1141 4588 
z
M 3972 4597 
L 4425 4597 
L 4425 1159 
L 3972 1159 
L 3972 4597 
z
M 5309 5044 
L 5763 5044 
L 5763 191 
Q 5763 -141 5581 -263 
Q 5438 -359 5116 -359 
Q 4688 -359 4253 -313 
L 4156 178 
Q 4625 116 5072 116 
Q 5309 116 5309 353 
L 5309 5044 
z
" transform="scale(0.015625)"/>
      <path id="IPAexGothic-300d" d="M 1819 4209 
L 2266 4209 
L 2266 -434 
L 525 -434 
L 525 13 
L 1819 13 
L 1819 4209 
z
" transform="scale(0.015625)"/>
      <path id="IPAexGothic-304c" d="M 659 3384 
Q 1434 3503 2113 3581 
Q 2313 4341 2394 4972 
L 2900 4875 
Q 2759 4147 2619 3628 
L 2719 3634 
Q 2894 3641 3041 3641 
Q 4072 3641 4072 2369 
Q 4072 1128 3700 384 
Q 3478 -56 3003 -56 
Q 2591 -56 2113 231 
L 2138 775 
Q 2631 444 2925 444 
Q 3169 444 3297 706 
Q 3566 1294 3566 2388 
Q 3566 3219 3016 3219 
Q 2825 3219 2497 3194 
Q 2388 2763 2113 2047 
Q 1634 797 1119 -38 
L 678 244 
Q 1356 1238 1863 2750 
Q 1888 2819 1991 3128 
Q 1594 3081 769 2916 
L 659 3384 
z
M 5441 1838 
Q 4913 3038 4091 3916 
L 4475 4184 
Q 5350 3269 5888 2156 
L 5441 1838 
z
M 5913 4275 
Q 5553 4819 5159 5147 
L 5459 5375 
Q 5844 5066 6234 4550 
L 5913 4275 
z
M 5344 3788 
Q 5053 4278 4609 4678 
L 4922 4922 
Q 5294 4613 5678 4063 
L 5344 3788 
z
" transform="scale(0.015625)"/>
      <path id="IPAexGothic-304d" d="M 2944 1600 
Q 2369 1600 2053 1428 
Q 1772 1275 1772 1019 
Q 1772 666 2200 481 
Q 2600 309 3903 309 
Q 4138 309 4397 331 
L 4422 -147 
Q 4203 -166 3969 -166 
Q 2325 -166 1819 141 
Q 1313 444 1313 994 
Q 1313 1447 1791 1738 
Q 2219 1997 2859 1997 
Q 3319 1997 3606 1947 
Q 3894 1894 4216 1759 
Q 3953 2050 3506 2791 
Q 2263 2547 1191 2491 
L 1094 2956 
Q 2263 2966 3281 3175 
Q 3019 3647 2950 3794 
Q 2125 3641 1253 3622 
L 1166 4063 
Q 2013 4063 2750 4184 
Q 2478 4744 2381 4984 
L 2841 5131 
Q 2925 4916 3213 4281 
Q 3888 4438 4459 4709 
L 4672 4313 
Q 4119 4056 3409 3891 
Q 3638 3447 3738 3284 
Q 4528 3503 5113 3794 
L 5331 3366 
Q 4738 3094 3953 2900 
Q 4272 2366 4903 1484 
L 4575 1147 
Q 3888 1600 2944 1600 
z
" transform="scale(0.015625)"/>
      <path id="IPAexGothic-304f" d="M 4022 -300 
Q 3050 984 1863 2047 
Q 1538 2338 1538 2522 
Q 1538 2700 1953 3041 
Q 3144 4019 3816 5094 
L 4256 4769 
Q 3456 3659 2234 2694 
Q 2106 2588 2106 2528 
Q 2106 2466 2344 2247 
Q 3591 1113 4444 103 
L 4022 -300 
z
" transform="scale(0.015625)"/>
      <path id="IPAexGothic-55aa" d="M 3409 1844 
Q 3625 1350 4072 941 
Q 4669 1291 5238 1753 
L 5606 1472 
Q 4997 1019 4378 691 
Q 5019 263 5941 0 
L 5647 -397 
Q 3538 225 2969 1844 
L 1991 1844 
L 1991 238 
Q 2628 369 3438 584 
L 3456 200 
Q 2094 -234 672 -472 
L 497 -31 
Q 906 31 1406 122 
L 1522 141 
L 1522 1844 
L 319 1844 
L 319 2228 
L 2963 2228 
L 2963 4184 
L 575 4184 
L 575 4563 
L 2950 4563 
L 2950 5313 
L 3419 5313 
L 3419 4563 
L 5819 4563 
L 5819 4184 
L 3403 4184 
L 3403 2228 
L 6081 2228 
L 6081 1844 
L 3409 1844 
z
M 2559 3822 
L 2559 2584 
L 1028 2584 
L 1028 3822 
L 2559 3822 
z
M 1419 3481 
L 1419 2925 
L 2175 2925 
L 2175 3481 
L 1419 3481 
z
M 5363 3822 
L 5363 2584 
L 3813 2584 
L 3813 3822 
L 5363 3822 
z
M 4203 3481 
L 4203 2925 
L 4978 2925 
L 4978 3481 
L 4203 3481 
z
" transform="scale(0.015625)"/>
      <path id="IPAexGothic-5931" d="M 3000 4109 
L 3000 5294 
L 3481 5294 
L 3481 4109 
L 5534 4109 
L 5534 3694 
L 3481 3694 
L 3481 2606 
L 5919 2606 
L 5919 2184 
L 3603 2184 
Q 4241 744 6009 194 
L 5663 -272 
Q 3900 466 3316 1953 
Q 3131 1175 2547 572 
Q 1928 -66 881 -363 
L 588 72 
Q 2550 525 2944 2184 
L 544 2184 
L 544 2606 
L 3000 2606 
L 3000 3694 
L 1741 3694 
Q 1519 3194 1175 2747 
L 806 3059 
Q 1409 3800 1669 4972 
L 2138 4866 
Q 2034 4453 1906 4109 
L 3000 4109 
z
" transform="scale(0.015625)"/>
     </defs>
     <use xlink:href="#IPAexGothic-1f4a1"/>
     <use xlink:href="#IPAexGothic-20" x="100"/>
     <use xlink:href="#IPAexGothic-30b0" x="127.001953"/>
     <use xlink:href="#IPAexGothic-30ec" x="227.001953"/>
     <use xlink:href="#IPAexGothic-30fc" x="327.001953"/>
     <use xlink:href="#IPAexGothic-30b9" x="427.001953"/>
     <use xlink:href="#IPAexGothic-30b1" x="527.001953"/>
     <use xlink:href="#IPAexGothic-30fc" x="627.001953"/>
     <use xlink:href="#IPAexGothic-30eb" x="727.001953"/>
     <use xlink:href="#IPAexGothic-5909" x="827.001953"/>
     <use xlink:href="#IPAexGothic-63db" x="927.001953"/>
     <use xlink:href="#IPAexGothic-5f8c" x="1027.001953"/>
     <use xlink:href="#IPAexGothic-306f" x="1127.001953"/>
     <use xlink:href="#IPAexGothic-300c" x="1227.001953"/>
     <use xlink:href="#IPAexGothic-8d64" x="1327.001953"/>
     <use xlink:href="#IPAexGothic-3068" x="1427.001953"/>
     <use xlink:href="#IPAexGothic-7dd1" x="1527.001953"/>
     <use xlink:href="#IPAexGothic-306e" x="1627.001953"/>
     <use xlink:href="#IPAexGothic-533a" x="1727.001953"/>
     <use xlink:href="#IPAexGothic-5225" x="1827.001953"/>
     <use xlink:href="#IPAexGothic-300d" x="1927.001953"/>
     <use xlink:href="#IPAexGothic-304c" x="2027.001953"/>
     <use xlink:href="#IPAexGothic-3067" x="2127.001953"/>
     <use xlink:href="#IPAexGothic-304d" x="2227.001953"/>
     <use xlink:href="#IPAexGothic-306a" x="2327.001953"/>
     <use xlink:href="#IPAexGothic-304f" x="2427.001953"/>
     <use xlink:href="#IPAexGothic-306a" x="2527.001953"/>
     <use xlink:href="#IPAexGothic-308b" x="2627.001953"/>
     <use xlink:href="#IPAexGothic-ff08" x="2727.001953"/>
     <use xlink:href="#IPAexGothic-8272" x="2827.001953"/>
     <use xlink:href="#IPAexGothic-60c5" x="2927.001953"/>
     <use xlink:href="#IPAexGothic-5831" x="3027.001953"/>
     <use xlink:href="#IPAexGothic-306e" x="3127.001953"/>
     <use xlink:href="#IPAexGothic-55aa" x="3227.001953"/>
     <use xlink:href="#IPAexGothic-5931" x="3327.001953"/>
     <use xlink:href="#IPAexGothic-ff09" x="3427.001953"/>
    </g>
   </g>
  </g>
 </g>
 <defs>
  <clipPath id="pf8adf68a30">
   <rect x="0" y="-0" width="691.2" height="388.8"/>
  </clipPath>
 </defs>
</svg>
