<?xml version="1.0" encoding="utf-8" standalone="no"?>
<!DOCTYPE svg PUBLIC "-//W3C//DTD SVG 1.1//EN"
  "http://www.w3.org/Graphics/SVG/1.1/DTD/svg11.dtd">
<svg xmlns:xlink="http://www.w3.org/1999/xlink" width="691.2pt" height="388.8pt" viewBox="0 0 691.2 388.8" xmlns="http://www.w3.org/2000/svg" version="1.1">
 <metadata>
  <rdf:RDF xmlns:dc="http://purl.org/dc/elements/1.1/" xmlns:cc="http://creativecommons.org/ns#" xmlns:rdf="http://www.w3.org/1999/02/22-rdf-syntax-ns#">
   <cc:Work>
    <dc:type rdf:resource="http://purl.org/dc/dcmitype/StillImage"/>
    <dc:date>2026-04-09T02:37:46.046751</dc:date>
    <dc:format>image/svg+xml</dc:format>
    <dc:creator>
     <cc:Agent>
      <dc:title>Matplotlib v3.9.4, https://matplotlib.org/</dc:title>
     </cc:Agent>
    </dc:creator>
   </cc:Work>
  </rdf:RDF>
 </metadata>
 <defs>
  <style type="text/css">*{stroke-linejoin: round; stroke-linecap: butt}</style>
 </defs>
 <g id="figure_1">
  <g id="patch_1">
   <path d="M 0 388.8 
L 691.2 388.8 
L 691.2 0 
L 0 0 
z
" style="fill: #ffffff"/>
  </g>
  <g id="axes_1">
   <g id="patch_2">
    <path d="M 0 -0 
L 691.2 -0 
L 691.2 24.48 
L 0 24.48 
z
" clip-path="url(#p62fb58c074)" style="fill: #c0392b"/>
   </g>
   <g id="patch_3">
    <path d="M 31.68 59.04 
L 659.52 59.04 
L 659.52 60.48 
L 31.68 60.48 
z
" clip-path="url(#p62fb58c074)" style="fill: #ecf0f1"/>
   </g>
   <g id="patch_4">
    <path d="M 31.68 61.92 
L 593.28 61.92 
Q 596.16 61.92 596.16 64.8 
L 596.16 102.24 
Q 596.16 105.12 593.28 105.12 
L 31.68 105.12 
Q 28.8 105.12 28.8 102.24 
L 28.8 64.8 
Q 28.8 61.92 31.68 61.92 
z
" clip-path="url(#p62fb58c074)" style="fill: #4a90d9"/>
   </g>
   <g id="patch_5">
    <path d="M 601.92 61.92 
L 671.04 61.92 
Q 673.92 61.92 673.92 64.8 
L 673.92 102.24 
Q 673.92 105.12 671.04 105.12 
L 601.92 105.12 
Q 599.04 105.12 599.04 102.24 
L 599.04 64.8 
Q 599.04 61.92 601.92 61.92 
z
" clip-path="url(#p62fb58c074)" style="fill: #e8a838"/>
   </g>
   <g id="patch_6">
    <path d="M 31.68 109.44 
L 339.84 109.44 
Q 344.16 109.44 344.16 113.76 
L 344.16 243.36 
Q 344.16 247.68 339.84 247.68 
L 31.68 247.68 
Q 27.36 247.68 27.36 243.36 
L 27.36 113.76 
Q 27.36 109.44 31.68 109.44 
z
" clip-path="url(#p62fb58c074)" style="fill: #fdedec; stroke: #c0392b; stroke-width: 2; stroke-linejoin: miter"/>
   </g>
   <g id="patch_7">
    <path d="M 351.36 109.44 
L 659.52 109.44 
Q 663.84 109.44 663.84 113.76 
L 663.84 243.36 
Q 663.84 247.68 659.52 247.68 
L 351.36 247.68 
Q 347.04 247.68 347.04 243.36 
L 347.04 113.76 
Q 347.04 109.44 351.36 109.44 
z
" clip-path="url(#p62fb58c074)" style="fill: #eafaf1; stroke: #5ba85a; stroke-width: 2; stroke-linejoin: miter"/>
   </g>
   <g id="patch_8">
    <path d="M 31.68 253.44 
L 659.52 253.44 
Q 662.4 253.44 662.4 256.32 
L 662.4 308.16 
Q 662.4 311.04 659.52 311.04 
L 31.68 311.04 
Q 28.8 311.04 28.8 308.16 
L 28.8 256.32 
Q 28.8 253.44 31.68 253.44 
z
" clip-path="url(#p62fb58c074)" style="fill: #1e1e2e; stroke: #555555; stroke-linejoin: miter"/>
   </g>
   <g id="text_1">
    <!-- Ch.4 機械学習モデル構築 -->
    <g style="fill: #ffffff" transform="translate(31.68 15.09625) scale(0.1 -0.1)">
     <defs>
      <path id="IPAexGothic-43" d="M 4353 1088 
Q 4181 694 3859 428 
Q 3313 -31 2559 -31 
Q 1588 -31 959 653 
Q 378 1294 378 2331 
Q 378 3406 1013 4078 
Q 1619 4725 2534 4725 
Q 3813 4725 4322 3628 
L 3809 3391 
Q 3425 4238 2541 4238 
Q 1891 4238 1453 3744 
Q 994 3216 994 2322 
Q 994 1550 1384 1056 
Q 1841 472 2563 472 
Q 3456 472 3878 1319 
L 4353 1088 
z
" transform="scale(0.015625)"/>
      <path id="IPAexGothic-68" d="M 3347 63 
L 2797 63 
L 2797 2041 
Q 2797 2853 2131 2853 
Q 1447 2853 1131 2041 
L 1131 63 
L 581 63 
L 581 4794 
L 1131 4794 
L 1131 2706 
Q 1566 3316 2247 3316 
Q 3347 3316 3347 2072 
L 3347 63 
z
" transform="scale(0.015625)"/>
      <path id="IPAexGothic-2e" d="M 1184 63 
L 494 63 
L 494 753 
L 1184 753 
L 1184 63 
z
" transform="scale(0.015625)"/>
      <path id="IPAexGothic-34" d="M 3813 1159 
L 3059 1159 
L 3059 63 
L 2547 63 
L 2547 1159 
L 197 1159 
L 197 1672 
L 2456 4678 
L 3059 4678 
L 3059 1634 
L 3813 1634 
L 3813 1159 
z
M 2578 4109 
L 2559 4109 
Q 2278 3656 2003 3284 
L 759 1634 
L 2547 1634 
L 2547 3144 
Q 2547 3481 2578 4109 
z
" transform="scale(0.015625)"/>
      <path id="IPAexGothic-20" transform="scale(0.015625)"/>
      <path id="IPAexGothic-6a5f" d="M 3916 2125 
Q 3806 2984 3806 4238 
L 3806 5313 
L 4216 5313 
L 4216 4300 
Q 4216 3081 4300 2278 
L 4313 2150 
L 5175 2150 
Q 4984 2350 4822 2469 
L 5144 2669 
Q 5325 2541 5547 2309 
L 5309 2150 
L 6006 2150 
L 6006 1797 
L 4363 1797 
Q 4450 1278 4688 869 
Q 4931 1150 5194 1631 
L 5553 1431 
Q 5284 953 4913 531 
Q 4941 491 4959 475 
Q 5278 78 5438 78 
Q 5581 78 5669 844 
L 6066 628 
Q 5881 -422 5559 -422 
Q 5163 -422 4631 244 
Q 4069 -275 3384 -519 
L 3116 -191 
Q 3881 88 4406 569 
Q 4072 1116 3966 1772 
L 3084 1772 
Q 3078 1747 3078 1675 
Q 3078 1650 3063 1431 
Q 3534 1153 3934 781 
L 3684 441 
Q 3328 816 3031 1056 
Q 2906 91 2238 -494 
L 1950 -172 
Q 2478 241 2603 891 
Q 2659 1197 2681 1772 
L 2116 1772 
L 2116 2125 
L 3916 2125 
z
M 1113 2534 
Q 813 1522 384 794 
L 153 1250 
Q 763 2228 1063 3547 
L 294 3547 
L 294 3956 
L 1113 3956 
L 1113 5306 
L 1522 5306 
L 1522 3956 
L 2138 3956 
L 2138 3547 
L 1522 3547 
L 1522 2881 
Q 1875 2588 2150 2228 
L 1888 1884 
Q 1753 2144 1522 2434 
L 1522 -447 
L 1113 -447 
L 1113 2534 
z
M 2750 3334 
Q 2441 3850 2131 4159 
L 2347 4469 
Q 2384 4425 2509 4275 
Q 2734 4703 2913 5228 
L 3263 5025 
Q 3028 4447 2719 3988 
Q 2766 3919 2838 3803 
Q 2913 3684 2938 3647 
Q 3175 4066 3347 4434 
L 3666 4244 
Q 3263 3431 2809 2841 
Q 3097 2872 3347 2900 
Q 3347 2913 3334 2950 
Q 3313 3063 3231 3303 
L 3519 3372 
Q 3716 2891 3781 2413 
L 3456 2297 
Q 3453 2316 3428 2484 
Q 3416 2575 3403 2631 
Q 2906 2506 2175 2438 
L 2072 2797 
Q 2109 2800 2194 2803 
Q 2263 2806 2297 2809 
Q 2369 2809 2413 2816 
L 2438 2853 
Q 2538 2994 2750 3334 
z
M 4875 3413 
Q 4559 3916 4263 4206 
L 4478 4506 
Q 4494 4488 4559 4406 
Q 4609 4350 4641 4306 
Q 4891 4769 5038 5216 
L 5394 5013 
Q 5147 4466 4838 4025 
Q 4963 3844 5050 3700 
Q 5241 4019 5466 4469 
L 5784 4256 
Q 5497 3725 4991 3009 
Q 5356 3031 5547 3053 
Q 5466 3281 5381 3450 
L 5681 3553 
Q 5872 3181 6022 2669 
L 5709 2503 
Q 5697 2550 5663 2678 
Q 5641 2759 5631 2797 
Q 5019 2669 4434 2619 
L 4338 2975 
Q 4513 2975 4594 2981 
Q 4778 3256 4875 3413 
z
" transform="scale(0.015625)"/>
      <path id="IPAexGothic-68b0" d="M 4678 1275 
Q 4447 2122 4334 3547 
L 2344 3547 
L 2344 3956 
L 4300 3956 
Q 4247 4656 4231 5306 
L 4659 5306 
Q 4669 4741 4719 3981 
L 6044 3981 
L 6044 3572 
L 4750 3572 
L 4781 3284 
Q 4875 2322 4988 1806 
Q 5303 2409 5497 3100 
L 5894 2938 
Q 5572 1963 5134 1231 
Q 5247 834 5397 547 
Q 5513 322 5556 322 
Q 5656 322 5759 1225 
L 6131 941 
Q 5959 -350 5638 -350 
Q 5475 -350 5222 9 
Q 5006 319 4831 781 
Q 4278 41 3438 -478 
L 3150 -134 
Q 4069 381 4678 1275 
z
M 2778 2344 
L 2778 3216 
L 3169 3216 
L 3169 2344 
L 3572 2344 
L 3572 3216 
L 3963 3216 
L 3963 2344 
L 4384 2344 
L 4384 1966 
L 3963 1966 
L 3963 647 
L 3572 647 
L 3572 1966 
L 3169 1966 
Q 3156 1372 3097 1044 
Q 2991 463 2603 0 
L 2297 309 
Q 2778 856 2778 1966 
L 2344 1966 
L 2125 1634 
Q 1813 2106 1622 2338 
L 1622 -447 
L 1200 -447 
L 1200 2594 
Q 928 1569 450 794 
L 188 1256 
Q 850 2238 1147 3547 
L 322 3547 
L 322 3956 
L 1200 3956 
L 1200 5306 
L 1622 5306 
L 1622 3956 
L 2222 3956 
L 2222 3547 
L 1622 3547 
L 1622 2831 
Q 2053 2453 2344 2063 
L 2344 2344 
L 2778 2344 
z
M 5491 4141 
Q 5256 4613 4953 4991 
L 5319 5172 
Q 5603 4850 5869 4359 
L 5491 4141 
z
" transform="scale(0.015625)"/>
      <path id="IPAexGothic-5b66" d="M 1706 4050 
L 1688 4088 
Q 1525 4513 1244 4959 
L 1681 5150 
Q 1947 4791 2200 4216 
L 1763 4050 
L 3941 4050 
Q 4359 4628 4653 5234 
L 5138 5016 
Q 4822 4488 4472 4050 
L 5797 4050 
L 5797 2675 
L 5338 2675 
L 5338 3653 
L 1072 3653 
L 1072 2675 
L 613 2675 
L 613 4050 
L 1706 4050 
z
M 3444 1888 
L 3444 1650 
L 6078 1650 
L 6078 1241 
L 3475 1241 
L 3475 91 
Q 3475 -428 2834 -428 
Q 2319 -428 1875 -366 
L 1784 128 
Q 2278 25 2744 25 
Q 2994 25 2994 263 
L 2994 1241 
L 319 1241 
L 319 1650 
L 2969 1650 
L 2969 2113 
L 3000 2125 
Q 3559 2338 4116 2675 
L 1466 2675 
L 1466 3078 
L 4756 3078 
L 5019 2822 
Q 4338 2309 3444 1888 
z
M 3019 4072 
Q 2831 4609 2572 5044 
L 3006 5228 
Q 3275 4822 3500 4250 
L 3019 4072 
z
" transform="scale(0.015625)"/>
      <path id="IPAexGothic-7fd2" d="M 3006 5063 
L 3006 3047 
Q 3006 2781 2878 2675 
Q 2769 2584 2481 2584 
Q 2078 2584 1772 2631 
L 1716 3072 
Q 2159 2988 2347 2988 
Q 2566 2988 2566 3219 
L 2566 4678 
L 466 4678 
L 466 5063 
L 3006 5063 
z
M 5778 5063 
L 5778 3041 
Q 5778 2584 5288 2584 
Q 4916 2584 4519 2631 
L 4441 3066 
Q 4856 2988 5131 2988 
Q 5338 2988 5338 3206 
L 5338 4678 
L 3238 4678 
L 3238 5063 
L 5778 5063 
z
M 2866 2119 
Q 2950 2356 3013 2669 
L 3500 2572 
Q 3409 2322 3306 2119 
L 5325 2119 
L 5325 -447 
L 4856 -447 
L 4856 -172 
L 1619 -172 
L 1619 -447 
L 1150 -447 
L 1150 2119 
L 2866 2119 
z
M 1619 1747 
L 1619 1197 
L 4856 1197 
L 4856 1747 
L 1619 1747 
z
M 1619 831 
L 1619 206 
L 4856 206 
L 4856 831 
L 1619 831 
z
M 1594 3681 
Q 1219 4044 778 4341 
L 1056 4609 
Q 1525 4325 1869 3981 
L 1594 3681 
z
M 4269 3694 
Q 3816 4066 3403 4341 
L 3684 4622 
Q 4203 4294 4556 3994 
L 4269 3694 
z
M 447 2950 
Q 1328 3347 2225 3969 
L 2353 3622 
Q 1581 3056 691 2606 
L 447 2950 
z
M 3231 3059 
Q 4138 3444 4978 4031 
L 5113 3675 
Q 4281 3066 3463 2700 
L 3231 3059 
z
" transform="scale(0.015625)"/>
      <path id="IPAexGothic-30e2" d="M 1216 4409 
L 5147 4409 
L 5147 3950 
L 3053 3950 
L 3053 2797 
L 5644 2797 
L 5644 2328 
L 3053 2328 
L 3053 972 
Q 3053 669 3272 600 
Q 3453 544 4013 544 
Q 4556 544 5269 600 
L 5269 97 
Q 4684 50 4147 50 
Q 3025 50 2753 250 
Q 2541 403 2541 825 
L 2541 2328 
L 744 2328 
L 744 2797 
L 2541 2797 
L 2541 3950 
L 1216 3950 
L 1216 4409 
z
" transform="scale(0.015625)"/>
      <path id="IPAexGothic-30c7" d="M 563 3072 
L 5741 3072 
L 5741 2613 
L 3578 2613 
Q 3538 1516 3134 872 
Q 2688 156 1663 -256 
L 1313 156 
Q 2338 538 2713 1166 
Q 3003 1644 3034 2613 
L 563 2613 
L 563 3072 
z
M 1406 4588 
L 4588 4588 
L 4588 4128 
L 1406 4128 
L 1406 4588 
z
M 6009 4469 
Q 5647 5009 5253 5338 
L 5553 5569 
Q 5938 5259 6328 4744 
L 6009 4469 
z
M 5413 4000 
Q 5125 4491 4678 4891 
L 4991 5131 
Q 5363 4825 5747 4275 
L 5413 4000 
z
" transform="scale(0.015625)"/>
      <path id="IPAexGothic-30eb" d="M 353 331 
Q 1313 994 1544 2022 
Q 1684 2650 1684 4397 
L 2203 4397 
L 2203 4153 
L 2203 4116 
Q 2203 2259 1934 1491 
Q 1619 588 744 -38 
L 353 331 
z
M 3125 4666 
L 3650 4666 
L 3650 769 
Q 4875 1488 5672 2734 
L 6000 2278 
Q 5075 966 3516 63 
L 3125 359 
L 3125 4666 
z
" transform="scale(0.015625)"/>
      <path id="IPAexGothic-69cb" d="M 1206 2594 
Q 925 1575 456 788 
L 194 1250 
Q 856 2238 1153 3547 
L 328 3547 
L 328 3956 
L 1206 3956 
L 1206 5306 
L 1628 5306 
L 1628 3956 
L 2306 3956 
L 2306 3547 
L 1628 3547 
L 1628 2906 
Q 2213 2391 2447 2106 
L 2191 1647 
Q 1931 2031 1628 2406 
L 1628 -447 
L 1206 -447 
L 1206 2594 
z
M 5006 3194 
L 6100 3194 
L 6100 2841 
L 4328 2841 
L 4328 2509 
L 5647 2509 
L 5647 1025 
L 6131 1025 
L 6131 672 
L 5647 672 
L 5647 78 
Q 5647 -191 5525 -294 
Q 5413 -397 5106 -397 
Q 4716 -397 4409 -353 
L 4347 84 
Q 4759 13 5069 13 
Q 5228 13 5228 197 
L 5228 672 
L 3047 672 
L 3047 -447 
L 2631 -447 
L 2631 672 
L 1978 672 
L 1978 1025 
L 2631 1025 
L 2631 2509 
L 3913 2509 
L 3913 2841 
L 2175 2841 
L 2175 3194 
L 3222 3194 
L 3222 3631 
L 2522 3631 
L 2522 3956 
L 3222 3956 
L 3222 4369 
L 2291 4369 
L 2291 4709 
L 3222 4709 
L 3222 5313 
L 3644 5313 
L 3644 4709 
L 4591 4709 
L 4591 5313 
L 5006 5313 
L 5006 4709 
L 5953 4709 
L 5953 4369 
L 5006 4369 
L 5006 3956 
L 5759 3956 
L 5759 3631 
L 5006 3631 
L 5006 3194 
z
M 4591 3194 
L 4591 3631 
L 3644 3631 
L 3644 3194 
L 4591 3194 
z
M 4591 4369 
L 3644 4369 
L 3644 3956 
L 4591 3956 
L 4591 4369 
z
M 3047 2169 
L 3047 1759 
L 3925 1759 
L 3925 2169 
L 3047 2169 
z
M 3047 1434 
L 3047 1025 
L 3925 1025 
L 3925 1434 
L 3047 1434 
z
M 4316 2169 
L 4316 1759 
L 5228 1759 
L 5228 2169 
L 4316 2169 
z
M 4316 1434 
L 4316 1025 
L 5228 1025 
L 5228 1434 
L 4316 1434 
z
" transform="scale(0.015625)"/>
      <path id="IPAexGothic-7bc9" d="M 3397 1075 
L 3397 -447 
L 2956 -447 
L 2956 1031 
Q 2113 150 575 -319 
L 306 53 
Q 1706 406 2584 1159 
L 319 1159 
L 319 1544 
L 2956 1544 
L 2956 1922 
L 3397 1922 
L 3397 1544 
L 6078 1544 
L 6078 1159 
L 3859 1159 
Q 4634 591 6078 153 
L 5803 -238 
Q 4281 259 3397 1075 
z
M 1491 4878 
L 3175 4878 
L 3175 4506 
L 2163 4506 
L 2194 4450 
Q 2309 4231 2438 3919 
L 2034 3750 
Q 1866 4238 1709 4506 
L 1306 4506 
Q 1303 4503 1259 4428 
Q 997 3950 575 3597 
L 269 3872 
Q 900 4447 1203 5325 
L 1638 5244 
Q 1519 4938 1491 4878 
z
M 3944 4878 
L 6003 4878 
L 6003 4506 
L 4634 4506 
Q 4788 4300 4966 3950 
L 4563 3784 
Q 4350 4234 4159 4506 
L 3763 4506 
Q 3503 4047 3169 3719 
L 2853 4000 
Q 3369 4488 3659 5331 
L 4078 5250 
Q 4003 5009 3944 4878 
z
M 1931 3159 
L 1931 2550 
Q 2200 2622 2884 2813 
L 2909 2488 
Q 1816 2075 619 1841 
L 434 2238 
Q 947 2322 1431 2438 
L 1516 2456 
L 1516 3159 
L 556 3159 
L 556 3525 
L 2909 3525 
L 2909 3159 
L 1931 3159 
z
M 5094 3628 
L 5094 2475 
Q 5094 2316 5344 2316 
Q 5603 2316 5631 2450 
Q 5650 2534 5656 2872 
L 5663 2956 
L 6059 2834 
Q 6059 2709 6041 2525 
Q 6041 2509 6034 2447 
Q 6031 2413 6028 2397 
Q 6019 2150 5881 2022 
Q 5769 1919 5319 1919 
Q 4997 1919 4863 1969 
Q 4697 2038 4697 2269 
L 4697 3269 
L 3622 3269 
L 3622 3103 
Q 3622 2488 3300 2169 
Q 3125 1994 2784 1834 
L 2488 2128 
Q 2859 2294 3000 2438 
Q 3225 2659 3225 3091 
L 3225 3628 
L 5094 3628 
z
M 4359 2169 
Q 3953 2584 3666 2797 
L 3909 3072 
Q 4256 2822 4622 2478 
L 4359 2169 
z
" transform="scale(0.015625)"/>
     </defs>
     <use xlink:href="#IPAexGothic-43"/>
     <use xlink:href="#IPAexGothic-68" x="72.509766"/>
     <use xlink:href="#IPAexGothic-2e" x="133.203125"/>
     <use xlink:href="#IPAexGothic-34" x="159.619141"/>
     <use xlink:href="#IPAexGothic-20" x="222.607422"/>
     <use xlink:href="#IPAexGothic-6a5f" x="249.609375"/>
     <use xlink:href="#IPAexGothic-68b0" x="349.609375"/>
     <use xlink:href="#IPAexGothic-5b66" x="449.609375"/>
     <use xlink:href="#IPAexGothic-7fd2" x="549.609375"/>
     <use xlink:href="#IPAexGothic-30e2" x="649.609375"/>
     <use xlink:href="#IPAexGothic-30c7" x="749.609375"/>
     <use xlink:href="#IPAexGothic-30eb" x="849.609375"/>
     <use xlink:href="#IPAexGothic-69cb" x="949.609375"/>
     <use xlink:href="#IPAexGothic-7bc9" x="1049.609375"/>
    </g>
   </g>
   <g id="text_2">
    <!-- なぜデータを「分割」するのか -->
    <g style="fill: #1a1a2e" transform="translate(31.68 55.5225) scale(0.24 -0.24)">
     <defs>
      <path id="IPAexGothic-306a" d="M 3906 3147 
L 4372 3147 
Q 4381 2278 4444 1272 
Q 5244 1003 5838 631 
L 5556 222 
Q 4953 600 4463 813 
Q 4478 263 4234 22 
Q 3984 -225 3419 -225 
Q 2897 -225 2563 0 
Q 2216 231 2216 647 
Q 2216 1081 2656 1319 
Q 2959 1484 3297 1484 
Q 3638 1484 3969 1413 
Q 3916 2219 3906 3147 
z
M 3975 984 
Q 3631 1081 3297 1081 
Q 3031 1081 2856 978 
Q 2663 863 2663 653 
Q 2663 197 3400 197 
Q 3750 197 3875 378 
Q 3997 556 3975 984 
z
M 738 3928 
Q 1453 3884 1997 3938 
Q 2144 4381 2294 5125 
L 2784 5050 
Q 2684 4559 2516 3988 
Q 2969 4031 3559 4172 
L 3578 3713 
Q 2919 3575 2375 3531 
Q 1853 2028 1044 831 
L 603 1113 
Q 1325 2063 1856 3488 
Q 1063 3459 763 3475 
L 738 3928 
z
M 5538 2759 
Q 5000 3353 4263 3853 
L 4591 4191 
Q 5338 3728 5897 3128 
L 5538 2759 
z
" transform="scale(0.015625)"/>
      <path id="IPAexGothic-305c" d="M 3978 4897 
L 4466 4897 
L 4466 3450 
L 5847 3513 
L 5866 3091 
L 4466 3028 
L 4466 1838 
Q 4466 1338 3959 1338 
Q 3528 1338 3134 1491 
L 3134 1972 
Q 3541 1791 3781 1791 
Q 3978 1791 3978 2003 
L 3978 3003 
L 2156 2919 
L 2156 1019 
Q 2156 588 2516 500 
Q 2750 438 3575 438 
Q 4350 438 5138 519 
L 5156 19 
Q 4366 -44 3606 -44 
Q 2422 -44 2047 147 
Q 1663 350 1663 884 
L 1663 2894 
L 453 2834 
L 434 3263 
L 1663 3322 
L 1663 4581 
L 2156 4581 
L 2156 3341 
L 3978 3431 
L 3978 4897 
z
M 5259 3928 
Q 5041 4466 4775 4878 
L 5131 5075 
Q 5431 4616 5644 4141 
L 5259 3928 
z
M 5913 4281 
Q 5691 4778 5400 5184 
L 5741 5369 
Q 6053 4997 6272 4494 
L 5913 4281 
z
" transform="scale(0.015625)"/>
      <path id="IPAexGothic-30fc" d="M 588 2688 
L 5809 2688 
L 5809 2175 
L 588 2175 
L 588 2688 
z
" transform="scale(0.015625)"/>
      <path id="IPAexGothic-30bf" d="M 4978 4263 
L 5313 3988 
Q 4797 2431 4056 1459 
Q 3191 325 1822 -300 
L 1466 109 
Q 2131 381 2613 738 
Q 3053 1066 3531 1600 
Q 2919 2225 2144 2791 
Q 1603 2203 1172 1875 
L 825 2234 
Q 2316 3328 2866 5031 
L 3359 4897 
Q 3325 4775 3109 4263 
L 4978 4263 
z
M 2894 3816 
Q 2709 3522 2438 3169 
Q 3194 2616 3841 2003 
Q 4366 2806 4747 3816 
L 2894 3816 
z
" transform="scale(0.015625)"/>
      <path id="IPAexGothic-3092" d="M 1094 4263 
Q 1544 4222 2359 4222 
Q 2581 4734 2700 5163 
L 3175 5028 
Q 2997 4538 2859 4256 
Q 3516 4284 4294 4459 
L 4356 4019 
Q 3603 3869 2656 3819 
Q 2391 3284 2059 2797 
Q 2531 3200 2963 3200 
Q 3638 3200 3859 2378 
Q 4556 2681 5338 2950 
L 5575 2528 
Q 4641 2253 3941 1956 
Q 3981 1678 3994 1028 
L 3513 991 
Q 3513 1456 3494 1753 
Q 2388 1194 2388 716 
Q 2388 428 2753 328 
Q 3066 241 3806 241 
Q 4394 241 5178 344 
L 5216 -128 
Q 4434 -213 3653 -213 
Q 2656 -213 2244 41 
Q 1913 244 1913 631 
Q 1913 1094 2344 1497 
Q 2709 1841 3428 2181 
Q 3266 2797 2878 2797 
Q 2238 2797 1209 1419 
L 838 1694 
Q 1625 2716 2163 3800 
Q 1522 3800 1088 3825 
L 1094 4263 
z
" transform="scale(0.015625)"/>
      <path id="IPAexGothic-300c" d="M 4134 5300 
L 5875 5300 
L 5875 4853 
L 4581 4853 
L 4581 656 
L 4134 656 
L 4134 5300 
z
" transform="scale(0.015625)"/>
      <path id="IPAexGothic-5206" d="M 3031 2431 
Q 2916 1378 2528 759 
Q 1991 -81 941 -469 
L 625 -53 
Q 2356 488 2541 2431 
L 1375 2431 
L 1375 2772 
Q 1044 2431 653 2156 
L 313 2534 
Q 1600 3425 2219 5056 
L 2688 4875 
Q 2200 3672 1453 2847 
L 4966 2847 
Q 4878 559 4741 94 
Q 4666 -163 4459 -250 
Q 4288 -322 3941 -322 
Q 3525 -322 2981 -263 
L 2884 256 
Q 3441 138 3844 138 
Q 4213 138 4281 438 
Q 4388 931 4472 2431 
L 3031 2431 
z
M 5747 2303 
Q 4416 3238 3506 4934 
L 3934 5113 
Q 4747 3572 6084 2747 
L 5747 2303 
z
" transform="scale(0.015625)"/>
      <path id="IPAexGothic-5272" d="M 2325 4209 
L 2325 3713 
L 3272 3713 
L 3272 3381 
L 2325 3381 
L 2325 2950 
L 3494 2950 
L 3494 2619 
L 2325 2619 
L 2325 2175 
L 3956 2175 
L 3956 1809 
L 353 1809 
L 353 2175 
L 1909 2175 
L 1909 2619 
L 753 2619 
L 753 2950 
L 1909 2950 
L 1909 3381 
L 984 3381 
L 984 3713 
L 1909 3713 
L 1909 4209 
L 838 4209 
L 838 3609 
L 409 3609 
L 409 4569 
L 1903 4569 
L 1903 5313 
L 2338 5313 
L 2338 4569 
L 3872 4569 
L 3872 3609 
L 3444 3609 
L 3444 4209 
L 2325 4209 
z
M 3388 1397 
L 3388 -384 
L 2966 -384 
L 2966 -122 
L 1269 -122 
L 1269 -447 
L 847 -447 
L 847 1397 
L 3388 1397 
z
M 1269 1038 
L 1269 238 
L 2966 238 
L 2966 1038 
L 1269 1038 
z
M 4259 4550 
L 4700 4550 
L 4700 953 
L 4259 953 
L 4259 4550 
z
M 5403 5081 
L 5844 5081 
L 5844 159 
Q 5844 -106 5747 -231 
Q 5634 -372 5263 -372 
Q 4763 -372 4391 -325 
L 4303 141 
Q 4803 75 5206 75 
Q 5403 75 5403 300 
L 5403 5081 
z
" transform="scale(0.015625)"/>
      <path id="IPAexGothic-300d" d="M 1819 4209 
L 2266 4209 
L 2266 -434 
L 525 -434 
L 525 13 
L 1819 13 
L 1819 4209 
z
" transform="scale(0.015625)"/>
      <path id="IPAexGothic-3059" d="M 3322 5075 
L 3816 5075 
L 3816 4063 
Q 4131 4075 5756 4116 
L 5756 3669 
Q 5431 3672 3816 3653 
L 3816 2463 
Q 3956 2125 3956 1741 
Q 3956 922 3519 397 
Q 3128 -72 2309 -409 
L 1941 -31 
Q 3263 453 3488 1363 
Q 3250 1031 2809 1031 
Q 2441 1031 2150 1313 
Q 1875 1588 1875 2050 
Q 1875 2475 2166 2769 
Q 2431 3041 2822 3041 
Q 3088 3041 3322 2881 
L 3322 3641 
Q 3000 3634 609 3547 
L 609 3988 
Q 1197 4000 2106 4022 
Q 3066 4047 3322 4050 
L 3322 5075 
z
M 3372 2044 
Q 3372 2300 3194 2478 
Q 3050 2613 2869 2613 
Q 2622 2613 2463 2406 
Q 2344 2250 2344 2088 
Q 2344 1797 2484 1622 
Q 2625 1453 2859 1453 
Q 3372 1453 3372 2044 
z
" transform="scale(0.015625)"/>
      <path id="IPAexGothic-308b" d="M 4391 4397 
L 2613 2588 
Q 3225 2809 3759 2809 
Q 4263 2809 4659 2625 
Q 5391 2269 5391 1484 
Q 5391 756 4706 275 
Q 4072 -166 3053 -166 
Q 2559 -166 2247 19 
Q 1863 250 1863 666 
Q 1863 934 2069 1141 
Q 2331 1403 2741 1403 
Q 3509 1403 4019 428 
Q 4872 784 4872 1491 
Q 4872 1981 4469 2222 
Q 4166 2406 3681 2406 
Q 2425 2406 1238 1209 
L 891 1581 
Q 2438 2934 3578 4281 
Q 2594 4125 1588 4066 
L 1478 4550 
Q 2594 4581 4109 4763 
L 4391 4397 
z
M 3591 303 
Q 3244 1025 2731 1025 
Q 2553 1025 2434 934 
Q 2316 844 2316 700 
Q 2316 250 3034 250 
Q 3275 250 3591 303 
z
" transform="scale(0.015625)"/>
      <path id="IPAexGothic-306e" d="M 3119 469 
Q 5275 766 5275 2425 
Q 5275 3453 4413 3925 
Q 4041 4116 3547 4159 
Q 3394 2525 2850 1400 
Q 2322 306 1722 306 
Q 1384 306 1084 666 
Q 609 1244 609 2003 
Q 609 3025 1397 3794 
Q 2184 4563 3431 4563 
Q 4306 4563 4928 4122 
Q 5813 3506 5813 2425 
Q 5813 438 3431 6 
L 3119 469 
z
M 3053 4147 
Q 2378 4044 1891 3641 
Q 1097 2981 1097 1991 
Q 1097 1366 1434 978 
Q 1581 813 1719 813 
Q 2022 813 2416 1625 
Q 2909 2638 3053 4147 
z
" transform="scale(0.015625)"/>
      <path id="IPAexGothic-304b" d="M 659 3384 
Q 1434 3503 2113 3581 
Q 2313 4341 2394 4972 
L 2900 4875 
Q 2759 4147 2619 3628 
L 2719 3634 
Q 2894 3641 3041 3641 
Q 4072 3641 4072 2369 
Q 4072 1128 3700 384 
Q 3478 -56 3003 -56 
Q 2591 -56 2113 231 
L 2138 775 
Q 2631 444 2925 444 
Q 3169 444 3297 706 
Q 3566 1294 3566 2388 
Q 3566 3219 3016 3219 
Q 2825 3219 2497 3194 
Q 2388 2763 2113 2047 
Q 1634 797 1119 -38 
L 678 244 
Q 1356 1238 1863 2750 
Q 1888 2819 1991 3128 
Q 1594 3081 769 2916 
L 659 3384 
z
M 5644 1753 
Q 5072 3025 4238 3916 
L 4641 4184 
Q 5494 3275 6081 2094 
L 5644 1753 
z
" transform="scale(0.015625)"/>
     </defs>
     <use xlink:href="#IPAexGothic-306a"/>
     <use xlink:href="#IPAexGothic-305c" x="100"/>
     <use xlink:href="#IPAexGothic-30c7" x="200"/>
     <use xlink:href="#IPAexGothic-30fc" x="300"/>
     <use xlink:href="#IPAexGothic-30bf" x="400"/>
     <use xlink:href="#IPAexGothic-3092" x="500"/>
     <use xlink:href="#IPAexGothic-300c" x="600"/>
     <use xlink:href="#IPAexGothic-5206" x="700"/>
     <use xlink:href="#IPAexGothic-5272" x="800"/>
     <use xlink:href="#IPAexGothic-300d" x="900"/>
     <use xlink:href="#IPAexGothic-3059" x="1000"/>
     <use xlink:href="#IPAexGothic-308b" x="1100"/>
     <use xlink:href="#IPAexGothic-306e" x="1200"/>
     <use xlink:href="#IPAexGothic-304b" x="1300"/>
    </g>
   </g>
   <g id="text_3">
    <!-- 訓練データ（80% = 142件） -->
    <g style="fill: #ffffff" transform="translate(226.565234 87.233125) scale(0.13 -0.13)">
     <defs>
      <path id="IPAexGothic-8a13" d="M 2572 1684 
L 2572 -50 
L 991 -50 
L 991 -391 
L 563 -391 
L 563 1684 
L 2572 1684 
z
M 991 1313 
L 991 328 
L 2144 328 
L 2144 1313 
L 991 1313 
z
M 672 5044 
L 2466 5044 
L 2466 4659 
L 672 4659 
L 672 5044 
z
M 372 4206 
L 2803 4206 
L 2803 3816 
L 372 3816 
L 372 4206 
z
M 672 3359 
L 2466 3359 
L 2466 2975 
L 672 2975 
L 672 3359 
z
M 672 2522 
L 2466 2522 
L 2466 2138 
L 672 2138 
L 672 2522 
z
M 4188 4750 
L 4628 4750 
L 4628 84 
L 4188 84 
L 4188 4750 
z
M 5334 5063 
L 5781 5063 
L 5781 -378 
L 5334 -378 
L 5334 5063 
z
M 3113 4997 
L 3553 4997 
L 3553 2509 
Q 3553 428 2947 -519 
L 2575 -178 
Q 3113 638 3113 2413 
L 3113 4997 
z
" transform="scale(0.015625)"/>
      <path id="IPAexGothic-7df4" d="M 4597 1663 
Q 5172 844 6181 288 
L 5894 -103 
Q 5009 456 4506 1234 
L 4506 -450 
L 4084 -450 
L 4084 1188 
Q 3619 397 2738 -225 
L 2431 147 
Q 3416 672 3994 1663 
L 2816 1663 
L 2816 3706 
L 4084 3706 
L 4084 4159 
L 2572 4159 
L 2572 4544 
L 4084 4544 
L 4084 5313 
L 4506 5313 
L 4506 4544 
L 6041 4544 
L 6041 4159 
L 4506 4159 
L 4506 3706 
L 5791 3706 
L 5791 1663 
L 4597 1663 
z
M 4091 3353 
L 3219 3353 
L 3219 2869 
L 4091 2869 
L 4091 3353 
z
M 4494 3353 
L 4494 2869 
L 5381 2869 
L 5381 3353 
L 4494 3353 
z
M 4091 2528 
L 3219 2528 
L 3219 2016 
L 4091 2016 
L 4091 2528 
z
M 4494 2528 
L 4494 2016 
L 5381 2016 
L 5381 2528 
L 4494 2528 
z
M 1194 3084 
L 1150 3144 
Q 691 3791 319 4128 
L 575 4441 
Q 709 4306 850 4153 
Q 1197 4659 1491 5325 
L 1906 5125 
Q 1447 4325 1100 3866 
Q 1288 3638 1425 3438 
Q 1769 4003 2047 4531 
L 2431 4319 
Q 1909 3381 1278 2584 
L 1559 2597 
Q 1666 2606 1881 2625 
Q 2031 2638 2103 2644 
Q 2000 2894 1881 3122 
L 2194 3263 
Q 2497 2775 2725 2100 
L 2341 1919 
Q 2247 2241 2219 2328 
Q 2156 2319 1669 2247 
L 1669 -447 
L 1266 -447 
L 1266 2194 
Q 1203 2194 1156 2188 
Q 731 2144 409 2119 
L 281 2547 
Q 819 2559 831 2559 
Q 834 2569 850 2588 
Q 859 2597 863 2606 
Q 872 2616 972 2759 
Q 1094 2938 1194 3084 
z
M 325 191 
Q 534 850 600 1778 
L 991 1734 
Q 925 738 722 -13 
L 325 191 
z
M 2119 416 
Q 2059 1056 1863 1741 
L 2206 1838 
Q 2416 1303 2528 603 
L 2119 416 
z
" transform="scale(0.015625)"/>
      <path id="IPAexGothic-ff08" d="M 5419 -434 
Q 4197 769 4197 2438 
Q 4197 4097 5419 5300 
L 5919 5300 
Q 4678 4078 4678 2425 
Q 4678 788 5919 -434 
L 5419 -434 
z
" transform="scale(0.015625)"/>
      <path id="IPAexGothic-38" d="M 2541 2425 
Q 3700 2031 3700 1197 
Q 3700 541 3100 197 
Q 2663 -56 2016 -56 
Q 1366 -56 928 197 
Q 347 531 347 1178 
Q 347 1988 1409 2381 
L 1409 2400 
Q 481 2734 481 3509 
Q 481 4100 981 4456 
Q 1406 4756 2019 4756 
Q 2703 4756 3131 4403 
Q 3553 4069 3553 3566 
Q 3553 2706 2541 2444 
L 2541 2425 
z
M 2022 2625 
Q 2997 2856 2997 3528 
Q 2997 3916 2675 4150 
Q 2413 4347 2016 4347 
Q 1606 4347 1331 4128 
Q 1050 3897 1050 3522 
Q 1050 3150 1350 2925 
Q 1494 2809 1722 2722 
Q 1984 2616 2022 2625 
z
M 1978 2209 
Q 922 1931 922 1216 
Q 922 775 1313 556 
Q 1606 391 2009 391 
Q 2575 391 2881 697 
Q 3106 922 3106 1250 
Q 3106 1594 2794 1850 
Q 2609 1994 2350 2100 
Q 2047 2222 1978 2209 
z
" transform="scale(0.015625)"/>
      <path id="IPAexGothic-30" d="M 2038 4725 
Q 2881 4725 3334 3944 
Q 3694 3325 3694 2344 
Q 3694 1372 3334 741 
Q 2888 -31 2016 -31 
Q 1147 -31 700 741 
Q 341 1372 341 2350 
Q 341 3713 1000 4334 
Q 1419 4725 2038 4725 
z
M 2016 4266 
Q 1516 4266 1228 3759 
Q 934 3247 934 2344 
Q 934 1456 1222 947 
Q 1513 447 2016 447 
Q 2619 447 2909 1153 
Q 3100 1622 3100 2375 
Q 3100 3256 2806 3759 
Q 2509 4266 2016 4266 
z
" transform="scale(0.015625)"/>
      <path id="IPAexGothic-25" d="M 4088 2481 
Q 4528 2481 4800 2181 
Q 5094 1847 5094 1203 
Q 5094 534 4728 197 
Q 4472 -38 4088 -38 
Q 3647 -38 3378 269 
Q 3084 600 3084 1222 
Q 3084 1906 3444 2244 
Q 3697 2481 4088 2481 
z
M 4081 2097 
Q 3566 2097 3566 1234 
Q 3566 356 4097 356 
Q 4613 356 4613 1241 
Q 4613 2097 4081 2097 
z
M 1331 4731 
Q 1769 4731 2041 4431 
Q 2334 4097 2334 3450 
Q 2334 2781 1969 2447 
Q 1713 2209 1331 2209 
Q 888 2209 619 2516 
Q 325 2850 325 3472 
Q 325 4156 684 4494 
Q 941 4731 1331 4731 
z
M 1322 4347 
Q 806 4347 806 3484 
Q 806 2606 1338 2606 
Q 1859 2606 1859 3484 
Q 1859 3859 1725 4091 
Q 1584 4347 1322 4347 
z
M 4569 4603 
L 1106 -134 
L 856 78 
L 4313 4813 
L 4569 4603 
z
" transform="scale(0.015625)"/>
      <path id="IPAexGothic-3d" d="M 416 2803 
L 3922 2803 
L 3922 2438 
L 416 2438 
L 416 2803 
z
M 416 1625 
L 3922 1625 
L 3922 1259 
L 416 1259 
L 416 1625 
z
" transform="scale(0.015625)"/>
      <path id="IPAexGothic-31" d="M 2463 63 
L 1900 63 
L 1900 4103 
Q 1372 3922 788 3797 
L 684 4231 
Q 1519 4441 2106 4731 
L 2463 4731 
L 2463 63 
z
" transform="scale(0.015625)"/>
      <path id="IPAexGothic-32" d="M 3659 63 
L 447 63 
L 447 594 
Q 825 1475 1894 2203 
L 2072 2322 
Q 2619 2697 2791 2906 
Q 2988 3153 2988 3444 
Q 2988 3772 2756 4003 
Q 2500 4259 2084 4259 
Q 1250 4259 991 3328 
L 497 3506 
Q 853 4725 2116 4725 
Q 2806 4725 3216 4316 
Q 3575 3947 3575 3425 
Q 3575 3038 3344 2722 
Q 3131 2416 2366 1938 
L 2231 1856 
Q 1256 1253 978 569 
L 3659 569 
L 3659 63 
z
" transform="scale(0.015625)"/>
      <path id="IPAexGothic-4ef6" d="M 3903 3425 
L 2906 3425 
Q 2697 2825 2309 2247 
L 1991 2572 
Q 2588 3497 2803 4788 
L 3256 4713 
Q 3175 4313 3041 3834 
L 3903 3834 
L 3903 5250 
L 4356 5250 
L 4356 3834 
L 5731 3834 
L 5731 3425 
L 4356 3425 
L 4356 2009 
L 6041 2009 
L 6041 1594 
L 4356 1594 
L 4356 -447 
L 3903 -447 
L 3903 1594 
L 2078 1594 
L 2078 2009 
L 3903 2009 
L 3903 3425 
z
M 1638 3681 
L 1638 -447 
L 1169 -447 
L 1169 2753 
Q 881 2272 575 1863 
L 313 2253 
Q 1238 3463 1650 5184 
L 2125 5069 
Q 1909 4316 1638 3681 
z
" transform="scale(0.015625)"/>
      <path id="IPAexGothic-ff09" d="M 481 -434 
Q 1722 788 1722 2431 
Q 1722 4066 481 5300 
L 981 5300 
Q 2203 4097 2203 2431 
Q 2203 769 981 -434 
L 481 -434 
z
" transform="scale(0.015625)"/>
     </defs>
     <use xlink:href="#IPAexGothic-8a13"/>
     <use xlink:href="#IPAexGothic-7df4" x="100"/>
     <use xlink:href="#IPAexGothic-30c7" x="200"/>
     <use xlink:href="#IPAexGothic-30fc" x="300"/>
     <use xlink:href="#IPAexGothic-30bf" x="400"/>
     <use xlink:href="#IPAexGothic-ff08" x="500"/>
     <use xlink:href="#IPAexGothic-38" x="600"/>
     <use xlink:href="#IPAexGothic-30" x="662.988281"/>
     <use xlink:href="#IPAexGothic-25" x="725.976562"/>
     <use xlink:href="#IPAexGothic-20" x="810.986328"/>
     <use xlink:href="#IPAexGothic-3d" x="837.988281"/>
     <use xlink:href="#IPAexGothic-20" x="905.810547"/>
     <use xlink:href="#IPAexGothic-31" x="932.8125"/>
     <use xlink:href="#IPAexGothic-34" x="995.800781"/>
     <use xlink:href="#IPAexGothic-32" x="1058.789062"/>
     <use xlink:href="#IPAexGothic-4ef6" x="1121.777344"/>
     <use xlink:href="#IPAexGothic-ff09" x="1221.777344"/>
    </g>
   </g>
   <g id="text_4">
    <!-- テスト -->
    <g style="fill: #ffffff" transform="translate(619.98 80.606031) scale(0.11 -0.11)">
     <defs>
      <path id="IPAexGothic-30c6" d="M 563 3072 
L 5741 3072 
L 5741 2613 
L 3578 2613 
Q 3538 1516 3134 872 
Q 2688 156 1663 -256 
L 1313 156 
Q 2338 538 2713 1166 
Q 3003 1644 3034 2613 
L 563 2613 
L 563 3072 
z
M 1406 4588 
L 4941 4588 
L 4941 4128 
L 1406 4128 
L 1406 4588 
z
" transform="scale(0.015625)"/>
      <path id="IPAexGothic-30b9" d="M 4359 4481 
L 4716 4147 
Q 4328 3072 3647 2150 
Q 4659 1434 5659 453 
L 5234 19 
Q 4256 1088 3353 1778 
Q 2372 597 1044 -31 
L 653 403 
Q 3128 1453 4097 4000 
L 1241 3963 
L 1228 4453 
L 4359 4481 
z
" transform="scale(0.015625)"/>
      <path id="IPAexGothic-30c8" d="M 2284 4997 
L 2803 4997 
L 2803 3206 
Q 4088 2619 5216 1888 
L 4878 1369 
Q 3819 2175 2803 2688 
L 2803 -184 
L 2284 -184 
L 2284 4997 
z
" transform="scale(0.015625)"/>
     </defs>
     <use xlink:href="#IPAexGothic-30c6"/>
     <use xlink:href="#IPAexGothic-30b9" x="100"/>
     <use xlink:href="#IPAexGothic-30c8" x="200"/>
    </g>
    <!-- （20%） -->
    <g style="fill: #ffffff" transform="translate(613.875859 92.583656) scale(0.11 -0.11)">
     <use xlink:href="#IPAexGothic-ff08"/>
     <use xlink:href="#IPAexGothic-32" x="100"/>
     <use xlink:href="#IPAexGothic-30" x="162.988281"/>
     <use xlink:href="#IPAexGothic-25" x="225.976562"/>
     <use xlink:href="#IPAexGothic-ff09" x="310.986328"/>
    </g>
   </g>
   <g id="text_5">
    <!-- ❌ なぜ「覚えたデータで答え合わせ」はダメか？ -->
    <g style="fill: #c0392b" transform="translate(43.2 133.984062) scale(0.13 -0.13)">
     <defs>
      <path id="IPAexGothic-274c" d="M 5759 -641 
L 641 -641 
L 641 5503 
L 5759 5503 
L 5759 -641 
z
M 5216 5172 
L 1191 5172 
L 3206 2694 
L 5216 5172 
z
M 5428 -53 
L 5428 4903 
L 3419 2425 
L 5428 -53 
z
M 2988 2425 
L 972 4916 
L 972 -59 
L 2988 2425 
z
M 5209 -309 
L 3206 2163 
L 1197 -309 
L 5209 -309 
z
" transform="scale(0.015625)"/>
      <path id="IPAexGothic-899a" d="M 4038 991 
L 4038 250 
Q 4038 91 4134 50 
Q 4250 19 4709 19 
Q 5472 19 5541 203 
Q 5581 291 5619 819 
L 6059 666 
Q 5994 -81 5816 -219 
Q 5619 -378 4606 -378 
Q 3869 -378 3719 -256 
Q 3591 -169 3591 109 
L 3591 991 
L 2778 991 
Q 2538 -341 541 -488 
L 313 -72 
Q 1184 -22 1656 172 
Q 2172 388 2316 991 
L 1431 991 
L 1431 3431 
L 4966 3431 
L 4966 991 
L 4038 991 
z
M 1859 3084 
L 1859 2731 
L 4538 2731 
L 4538 3084 
L 1859 3084 
z
M 1859 2400 
L 1859 2047 
L 4538 2047 
L 4538 2400 
L 1859 2400 
z
M 1859 1716 
L 1859 1338 
L 4538 1338 
L 4538 1716 
L 1859 1716 
z
M 1825 4238 
Q 1566 4725 1325 5013 
L 1747 5228 
Q 2038 4884 2297 4409 
L 1894 4238 
L 3078 4238 
Q 2934 4659 2638 5122 
L 3072 5306 
Q 3344 4925 3559 4422 
L 3084 4238 
L 4031 4238 
Q 4394 4734 4647 5306 
L 5125 5103 
Q 4809 4559 4556 4238 
L 5828 4238 
L 5828 3009 
L 5369 3009 
L 5369 3859 
L 1025 3859 
L 1025 3009 
L 556 3009 
L 556 4238 
L 1825 4238 
z
" transform="scale(0.015625)"/>
      <path id="IPAexGothic-3048" d="M 3797 4038 
Q 3144 4428 2013 4709 
L 2266 5106 
Q 3388 4838 4078 4469 
L 3797 4038 
z
M 1263 3347 
Q 2566 3428 3956 3641 
L 4291 3263 
Q 3759 2741 2875 1778 
Q 3156 1881 3356 1881 
Q 3909 1881 3919 1253 
L 3931 709 
Q 3941 456 4116 409 
Q 4244 372 4519 372 
Q 4944 372 5538 481 
L 5581 -31 
Q 5097 -103 4675 -103 
Q 4047 -103 3791 25 
Q 3484 178 3463 594 
L 3444 1094 
Q 3434 1491 3150 1491 
Q 2800 1491 2322 1072 
Q 1950 747 1109 -184 
L 738 166 
Q 2053 1434 3597 3181 
Q 2600 2988 1391 2841 
L 1263 3347 
z
" transform="scale(0.015625)"/>
      <path id="IPAexGothic-305f" d="M 684 3994 
Q 1138 3953 1556 3953 
Q 1797 3953 2106 3975 
Q 2266 4594 2369 5113 
L 2875 5025 
Q 2806 4731 2619 4013 
Q 3209 4084 3656 4191 
L 3688 3719 
Q 3109 3613 2497 3566 
Q 1822 1294 1153 -44 
L 653 172 
Q 1406 1500 1991 3531 
Q 1634 3513 1256 3513 
Q 1106 3513 697 3525 
L 684 3994 
z
M 5753 78 
Q 5059 -13 4597 -13 
Q 3619 -13 3206 334 
Q 2866 625 2766 1222 
L 3213 1388 
Q 3247 1069 3347 903 
Q 3425 775 3578 672 
Q 3866 481 4556 481 
Q 5009 481 5728 575 
L 5753 78 
z
M 3144 2859 
Q 4216 3147 5409 3072 
L 5381 2597 
L 5356 2597 
Q 4263 2663 3194 2419 
L 3144 2859 
z
" transform="scale(0.015625)"/>
      <path id="IPAexGothic-3067" d="M 581 4034 
Q 2978 4363 5466 4556 
L 5509 4097 
Q 4388 4031 3750 3572 
Q 2797 2878 2797 1913 
Q 2797 1169 3291 819 
Q 3778 484 4869 416 
L 4906 -116 
Q 2278 0 2278 1850 
Q 2278 3125 3691 4000 
Q 2066 3784 684 3553 
L 581 4034 
z
M 5631 2522 
Q 5269 3063 4875 3391 
L 5175 3622 
Q 5559 3313 5950 2797 
L 5631 2522 
z
M 5034 2053 
Q 4747 2544 4300 2944 
L 4613 3184 
Q 4984 2878 5369 2328 
L 5034 2053 
z
" transform="scale(0.015625)"/>
      <path id="IPAexGothic-7b54" d="M 2241 4197 
Q 2406 3875 2566 3403 
L 2119 3250 
Q 1963 3806 1766 4197 
L 1422 4197 
Q 1113 3603 678 3128 
L 325 3416 
Q 994 4131 1331 5241 
L 1784 5138 
Q 1653 4722 1600 4588 
L 3169 4588 
L 3169 4197 
L 2241 4197 
z
M 4697 4197 
Q 4928 3863 5144 3434 
L 4684 3263 
Q 4472 3759 4197 4197 
L 3756 4197 
L 3731 4153 
Q 3603 3931 3378 3653 
L 3000 3884 
Q 3459 4447 3725 5247 
L 4166 5150 
Q 4063 4831 3956 4588 
L 5972 4588 
L 5972 4197 
L 4697 4197 
z
M 1319 1575 
L 5075 1575 
L 5075 -450 
L 4622 -450 
L 4622 -103 
L 1772 -103 
L 1772 -450 
L 1319 -450 
L 1319 1575 
z
M 4622 1191 
L 1772 1191 
L 1772 281 
L 4622 281 
L 4622 1191 
z
M 4478 2291 
L 4478 2016 
L 2022 2016 
L 2022 2253 
Q 1350 1828 550 1534 
L 281 1925 
Q 1997 2475 2888 3622 
L 3347 3622 
Q 4416 2638 6150 2078 
L 5894 1669 
Q 5131 1941 4478 2291 
z
M 2253 2413 
L 4269 2413 
Q 3628 2775 3141 3250 
Q 2775 2809 2253 2413 
z
" transform="scale(0.015625)"/>
      <path id="IPAexGothic-5408" d="M 1831 3188 
L 4653 3188 
L 4653 2778 
L 1747 2778 
L 1747 3125 
Q 1275 2778 594 2453 
L 294 2828 
Q 2006 3509 2891 5147 
L 3431 5147 
Q 4331 3806 6125 3003 
L 5831 2588 
Q 4119 3416 3175 4731 
Q 2650 3806 1831 3188 
z
M 5113 2088 
L 5113 -450 
L 4638 -450 
L 4638 -97 
L 1766 -97 
L 1766 -450 
L 1284 -450 
L 1284 2088 
L 5113 2088 
z
M 1766 1691 
L 1766 300 
L 4638 300 
L 4638 1691 
L 1766 1691 
z
" transform="scale(0.015625)"/>
      <path id="IPAexGothic-308f" d="M 609 3672 
Q 1272 3750 1894 3884 
L 1934 4978 
L 2406 4972 
L 2369 3934 
L 2753 3634 
Q 2416 3238 2356 3153 
Q 2350 3078 2350 2853 
Q 3322 3616 4219 3616 
Q 4878 3616 5331 3200 
Q 5819 2750 5819 2028 
Q 5819 419 3584 -53 
L 3266 391 
Q 5294 766 5294 2034 
Q 5294 2534 5000 2847 
Q 4691 3175 4175 3175 
Q 3341 3175 2344 2303 
Q 2344 678 2369 -150 
L 1881 -150 
Q 1863 1200 1869 1888 
Q 1766 1781 866 716 
L 513 1081 
Q 1450 2088 1869 2469 
Q 1869 2500 1878 2947 
Q 1881 3225 1888 3456 
Q 1406 3319 744 3178 
L 609 3672 
z
" transform="scale(0.015625)"/>
      <path id="IPAexGothic-305b" d="M 4013 4922 
L 4500 4922 
L 4500 3475 
L 5881 3541 
L 5900 3116 
L 4500 3053 
L 4500 1863 
Q 4500 1363 3994 1363 
Q 3563 1363 3169 1516 
L 3169 1997 
Q 3575 1816 3816 1816 
Q 4013 1816 4013 2028 
L 4013 3028 
L 2191 2944 
L 2191 1044 
Q 2191 613 2550 525 
Q 2784 463 3609 463 
Q 4384 463 5172 544 
L 5191 44 
Q 4403 -19 3641 -19 
Q 2456 -19 2081 172 
Q 1697 375 1697 909 
L 1697 2919 
L 488 2859 
L 469 3291 
L 1697 3347 
L 1697 4609 
L 2191 4609 
L 2191 3366 
L 4013 3456 
L 4013 4922 
z
" transform="scale(0.015625)"/>
      <path id="IPAexGothic-306f" d="M 4066 4875 
L 4538 4875 
L 4556 3769 
Q 5003 3816 5581 3941 
L 5619 3469 
Q 5256 3394 4563 3322 
L 4597 1441 
Q 5100 1284 5934 756 
L 5656 313 
Q 5066 772 4609 978 
Q 4609 441 4384 225 
Q 4128 -13 3634 -13 
Q 2991 -13 2669 231 
Q 2388 444 2388 831 
Q 2388 1225 2772 1484 
Q 3050 1669 3534 1669 
Q 3759 1669 4134 1594 
L 4097 3288 
Q 3697 3269 3359 3269 
Q 2925 3269 2484 3300 
L 2466 3763 
Q 2953 3716 3456 3716 
Q 3738 3716 4091 3738 
L 4066 4875 
z
M 4141 1153 
Q 3753 1259 3513 1259 
Q 2841 1259 2841 850 
Q 2841 422 3634 422 
Q 3888 422 4022 569 
Q 4141 700 4141 922 
Q 4141 1088 4141 1153 
z
M 1000 -50 
Q 794 1072 794 1931 
Q 794 3153 1247 4884 
L 1728 4763 
Q 1269 3044 1269 1900 
Q 1269 1569 1306 1106 
Q 1591 1706 1753 1997 
L 2075 1806 
Q 1484 716 1484 141 
Q 1484 72 1491 0 
L 1000 -50 
z
" transform="scale(0.015625)"/>
      <path id="IPAexGothic-30c0" d="M 4806 4219 
L 5141 3944 
Q 4625 2388 3884 1416 
Q 3019 281 1650 -344 
L 1294 66 
Q 1959 338 2441 694 
Q 2881 1022 3359 1556 
Q 2747 2181 1972 2747 
Q 1431 2159 1000 1831 
L 653 2191 
Q 2144 3284 2694 4988 
L 3188 4853 
Q 3153 4731 2938 4219 
L 4806 4219 
z
M 2722 3772 
Q 2538 3478 2266 3125 
Q 3022 2572 3669 1959 
Q 4194 2763 4575 3772 
L 2722 3772 
z
M 6009 4469 
Q 5647 5009 5256 5338 
L 5556 5569 
Q 5941 5259 6331 4744 
L 6009 4469 
z
M 5397 4031 
Q 5106 4522 4659 4922 
L 4972 5166 
Q 5344 4856 5728 4306 
L 5397 4031 
z
" transform="scale(0.015625)"/>
      <path id="IPAexGothic-30e1" d="M 2041 3641 
Q 2678 3259 3359 2747 
Q 3906 3678 4281 4819 
L 4784 4609 
Q 4347 3384 3756 2425 
Q 4225 2031 4925 1369 
L 4544 972 
Q 4031 1519 3475 1997 
Q 2522 650 1259 -172 
L 863 206 
Q 2197 1006 3091 2328 
Q 2456 2844 1700 3263 
L 2041 3641 
z
" transform="scale(0.015625)"/>
      <path id="IPAexGothic-ff1f" d="M 1503 3444 
Q 1550 4184 1963 4616 
Q 2466 5128 3272 5128 
Q 3888 5128 4313 4853 
Q 4909 4469 4909 3778 
Q 4909 3059 4116 2563 
Q 3628 2250 3506 1881 
Q 3422 1650 3422 1228 
L 2853 1228 
Q 2863 1869 3053 2197 
Q 3281 2588 3847 2950 
Q 4341 3269 4341 3778 
Q 4341 4231 3975 4463 
Q 3697 4634 3266 4634 
Q 2656 4634 2341 4225 
Q 2109 3928 2091 3444 
L 1503 3444 
z
M 2763 647 
L 3506 647 
L 3506 -97 
L 2763 -97 
L 2763 647 
z
" transform="scale(0.015625)"/>
     </defs>
     <use xlink:href="#IPAexGothic-274c"/>
     <use xlink:href="#IPAexGothic-20" x="100"/>
     <use xlink:href="#IPAexGothic-306a" x="127.001953"/>
     <use xlink:href="#IPAexGothic-305c" x="227.001953"/>
     <use xlink:href="#IPAexGothic-300c" x="327.001953"/>
     <use xlink:href="#IPAexGothic-899a" x="427.001953"/>
     <use xlink:href="#IPAexGothic-3048" x="527.001953"/>
     <use xlink:href="#IPAexGothic-305f" x="627.001953"/>
     <use xlink:href="#IPAexGothic-30c7" x="727.001953"/>
     <use xlink:href="#IPAexGothic-30fc" x="827.001953"/>
     <use xlink:href="#IPAexGothic-30bf" x="927.001953"/>
     <use xlink:href="#IPAexGothic-3067" x="1027.001953"/>
     <use xlink:href="#IPAexGothic-7b54" x="1127.001953"/>
     <use xlink:href="#IPAexGothic-3048" x="1227.001953"/>
     <use xlink:href="#IPAexGothic-5408" x="1327.001953"/>
     <use xlink:href="#IPAexGothic-308f" x="1427.001953"/>
     <use xlink:href="#IPAexGothic-305b" x="1527.001953"/>
     <use xlink:href="#IPAexGothic-300d" x="1627.001953"/>
     <use xlink:href="#IPAexGothic-306f" x="1727.001953"/>
     <use xlink:href="#IPAexGothic-30c0" x="1827.001953"/>
     <use xlink:href="#IPAexGothic-30e1" x="1927.001953"/>
     <use xlink:href="#IPAexGothic-304b" x="2027.001953"/>
     <use xlink:href="#IPAexGothic-ff1f" x="2127.001953"/>
    </g>
   </g>
   <g id="text_6">
    <!-- ・丸暗記のように見えて実力がわからない（過学習） -->
    <g style="fill: #2c3e50" transform="translate(47.52 151.174219) scale(0.115 -0.115)">
     <defs>
      <path id="IPAexGothic-30fb" d="M 2772 2859 
L 3628 2859 
L 3628 2003 
L 2772 2003 
L 2772 2859 
z
" transform="scale(0.015625)"/>
      <path id="IPAexGothic-4e38" d="M 3019 4031 
L 4656 4031 
L 4656 538 
Q 4656 306 4866 297 
Q 5028 284 5053 284 
Q 5394 284 5441 463 
Q 5494 669 5513 1403 
L 6000 1244 
Q 5969 169 5781 -31 
Q 5619 -203 5006 -203 
Q 4475 -203 4322 -106 
Q 4150 0 4150 291 
L 4150 3591 
L 3003 3591 
Q 2984 2653 2813 1972 
Q 3509 1447 3888 1128 
L 3581 725 
Q 3213 1059 2666 1500 
Q 2166 288 772 -434 
L 431 -13 
Q 1803 581 2244 1819 
Q 1706 2209 1097 2556 
L 1366 2900 
Q 1872 2622 2372 2288 
Q 2494 2909 2506 3541 
L 650 3541 
L 650 3975 
L 2513 3975 
L 2513 5150 
L 3019 5150 
L 3019 4031 
z
" transform="scale(0.015625)"/>
      <path id="IPAexGothic-6697" d="M 2166 4728 
L 2166 544 
L 891 544 
L 891 31 
L 488 31 
L 488 4728 
L 2166 4728 
z
M 891 4331 
L 891 2875 
L 1756 2875 
L 1756 4331 
L 891 4331 
z
M 891 2491 
L 891 934 
L 1756 934 
L 1756 2491 
L 891 2491 
z
M 4341 4500 
L 5794 4500 
L 5794 4128 
L 5184 4128 
Q 5053 3584 4866 3138 
L 6044 3138 
L 6044 2759 
L 2319 2759 
L 2319 3138 
L 3369 3138 
Q 3244 3719 3081 4128 
L 2538 4128 
L 2538 4500 
L 3894 4500 
L 3894 5313 
L 4341 5313 
L 4341 4500 
z
M 3522 4128 
Q 3666 3738 3803 3138 
L 4444 3138 
Q 4597 3541 4738 4128 
L 3522 4128 
z
M 5466 2284 
L 5466 -447 
L 5038 -447 
L 5038 -153 
L 3284 -153 
L 3284 -459 
L 2856 -459 
L 2856 2284 
L 5466 2284 
z
M 3284 1913 
L 3284 1281 
L 5038 1281 
L 5038 1913 
L 3284 1913 
z
M 3284 922 
L 3284 219 
L 5038 219 
L 5038 922 
L 3284 922 
z
" transform="scale(0.015625)"/>
      <path id="IPAexGothic-8a18" d="M 3603 2425 
L 3603 506 
Q 3603 284 3719 238 
Q 3853 188 4444 188 
Q 5363 188 5463 372 
Q 5553 550 5566 1319 
L 6038 1191 
Q 5991 188 5838 -31 
Q 5709 -200 5444 -238 
Q 5094 -288 4469 -288 
Q 3666 -288 3444 -209 
Q 3150 -106 3150 306 
L 3150 2834 
L 5200 2834 
L 5200 4372 
L 2919 4372 
L 2919 4781 
L 5641 4781 
L 5641 2078 
L 5200 2078 
L 5200 2425 
L 3603 2425 
z
M 2566 1684 
L 2566 -128 
L 991 -128 
L 991 -447 
L 563 -447 
L 563 1684 
L 2566 1684 
z
M 991 1313 
L 991 244 
L 2138 244 
L 2138 1313 
L 991 1313 
z
M 672 5044 
L 2459 5044 
L 2459 4659 
L 672 4659 
L 672 5044 
z
M 366 4206 
L 2734 4206 
L 2734 3816 
L 366 3816 
L 366 4206 
z
M 672 3359 
L 2459 3359 
L 2459 2975 
L 672 2975 
L 672 3359 
z
M 672 2522 
L 2459 2522 
L 2459 2138 
L 672 2138 
L 672 2522 
z
" transform="scale(0.015625)"/>
      <path id="IPAexGothic-3088" d="M 2784 5019 
L 3272 5019 
Q 3247 4378 3272 3647 
Q 4184 3719 4850 3903 
L 4997 3431 
Q 4369 3291 3272 3200 
Q 3288 2366 3378 1550 
Q 4134 1353 5344 647 
L 5031 213 
Q 4244 759 3406 1044 
L 3413 891 
Q 3434 359 3122 84 
Q 2863 -141 2272 -141 
Q 1641 -141 1272 116 
Q 934 350 934 738 
Q 934 1294 1500 1534 
Q 1841 1678 2278 1678 
Q 2581 1678 2906 1631 
Q 2813 2559 2784 5019 
z
M 2931 1178 
Q 2613 1244 2369 1244 
Q 1422 1244 1422 794 
Q 1422 300 2278 300 
Q 2956 300 2938 934 
L 2931 1178 
z
" transform="scale(0.015625)"/>
      <path id="IPAexGothic-3046" d="M 3897 4025 
Q 3203 4456 2144 4728 
L 2381 5166 
Q 3353 4928 4166 4481 
L 3897 4025 
z
M 1172 3050 
Q 2872 3628 3566 3628 
Q 4269 3628 4603 3181 
Q 4847 2850 4847 2253 
Q 4847 372 2619 -275 
L 2278 159 
Q 3356 397 3881 994 
Q 4328 1503 4328 2228 
Q 4328 3181 3534 3181 
Q 2909 3181 1397 2553 
L 1172 3050 
z
" transform="scale(0.015625)"/>
      <path id="IPAexGothic-306b" d="M 1088 -38 
Q 922 1003 922 2081 
Q 922 3222 1331 4794 
L 1813 4684 
Q 1391 3113 1391 2003 
Q 1391 1441 1422 1147 
Q 1434 1181 1813 2016 
L 2125 1797 
Q 1800 1081 1691 763 
Q 1581 453 1581 269 
Q 1581 78 1588 6 
L 1088 -38 
z
M 2834 4038 
Q 3969 4213 5313 4172 
L 5338 3681 
Q 3959 3728 2869 3547 
L 2834 4038 
z
M 5650 256 
Q 5044 172 4372 172 
Q 3463 172 3047 434 
Q 2784 594 2675 841 
Q 2572 1075 2572 1447 
Q 2572 1563 2578 1656 
L 3053 1684 
Q 3050 1613 3044 1528 
Q 3041 1481 3041 1466 
Q 3041 1200 3119 1053 
Q 3178 944 3309 850 
Q 3569 678 4275 678 
Q 4891 678 5588 763 
L 5650 256 
z
" transform="scale(0.015625)"/>
      <path id="IPAexGothic-898b" d="M 4053 1631 
L 4053 403 
Q 4053 194 4159 144 
Q 4259 100 4594 100 
Q 5206 100 5303 272 
Q 5369 394 5406 1031 
L 5413 1138 
L 5881 966 
Q 5831 75 5656 -128 
Q 5475 -341 4566 -341 
Q 4041 -341 3859 -269 
Q 3584 -166 3584 184 
L 3584 1631 
L 2719 1631 
Q 2663 631 2219 197 
Q 1744 -256 756 -469 
L 513 -38 
Q 1500 134 1888 513 
Q 2216 831 2247 1631 
L 1288 1631 
L 1288 5050 
L 5106 5050 
L 5106 1631 
L 4053 1631 
z
M 1747 4653 
L 1747 4044 
L 4638 4044 
L 4638 4653 
L 1747 4653 
z
M 1747 3653 
L 1747 3047 
L 4638 3047 
L 4638 3653 
L 1747 3653 
z
M 1747 2663 
L 1747 2028 
L 4638 2028 
L 4638 2663 
L 1747 2663 
z
" transform="scale(0.015625)"/>
      <path id="IPAexGothic-3066" d="M 581 4034 
Q 2978 4363 5466 4556 
L 5509 4097 
Q 4388 4031 3750 3572 
Q 2797 2878 2797 1913 
Q 2797 1169 3291 819 
Q 3778 484 4869 416 
L 4906 -116 
Q 2278 0 2278 1850 
Q 2278 3125 3691 4000 
Q 2066 3784 684 3553 
L 581 4034 
z
" transform="scale(0.015625)"/>
      <path id="IPAexGothic-5b9f" d="M 3525 1275 
Q 4288 350 6022 91 
L 5738 -375 
Q 3953 -41 3219 1050 
Q 2731 -144 728 -472 
L 466 -44 
Q 2422 150 2872 1275 
L 384 1275 
L 384 1659 
L 2950 1659 
L 2950 2144 
L 966 2144 
L 966 2509 
L 2950 2509 
L 2950 2969 
L 1266 2969 
L 1266 3341 
L 2950 3341 
L 2950 3988 
L 3403 3988 
L 3403 3341 
L 5125 3341 
L 5125 2969 
L 3403 2969 
L 3403 2509 
L 5444 2509 
L 5444 2144 
L 3403 2144 
L 3403 1659 
L 6016 1659 
L 6016 1275 
L 3525 1275 
z
M 3413 4544 
L 5778 4544 
L 5778 3269 
L 5309 3269 
L 5309 4147 
L 1084 4147 
L 1084 3269 
L 616 3269 
L 616 4544 
L 2938 4544 
L 2938 5313 
L 3413 5313 
L 3413 4544 
z
" transform="scale(0.015625)"/>
      <path id="IPAexGothic-529b" d="M 3303 3944 
L 5653 3944 
Q 5622 1247 5428 356 
Q 5303 -231 4647 -231 
Q 4159 -231 3456 -147 
L 3381 416 
Q 4022 263 4456 263 
Q 4881 263 4947 616 
Q 5106 1509 5134 3303 
L 5141 3509 
L 3291 3509 
Q 3234 2200 2741 1281 
Q 2194 297 878 -416 
L 525 -6 
Q 2709 963 2778 3450 
L 641 3450 
L 641 3891 
L 2784 3891 
L 2784 5147 
L 3303 5147 
L 3303 3944 
z
" transform="scale(0.015625)"/>
      <path id="IPAexGothic-304c" d="M 659 3384 
Q 1434 3503 2113 3581 
Q 2313 4341 2394 4972 
L 2900 4875 
Q 2759 4147 2619 3628 
L 2719 3634 
Q 2894 3641 3041 3641 
Q 4072 3641 4072 2369 
Q 4072 1128 3700 384 
Q 3478 -56 3003 -56 
Q 2591 -56 2113 231 
L 2138 775 
Q 2631 444 2925 444 
Q 3169 444 3297 706 
Q 3566 1294 3566 2388 
Q 3566 3219 3016 3219 
Q 2825 3219 2497 3194 
Q 2388 2763 2113 2047 
Q 1634 797 1119 -38 
L 678 244 
Q 1356 1238 1863 2750 
Q 1888 2819 1991 3128 
Q 1594 3081 769 2916 
L 659 3384 
z
M 5441 1838 
Q 4913 3038 4091 3916 
L 4475 4184 
Q 5350 3269 5888 2156 
L 5441 1838 
z
M 5913 4275 
Q 5553 4819 5159 5147 
L 5459 5375 
Q 5844 5066 6234 4550 
L 5913 4275 
z
M 5344 3788 
Q 5053 4278 4609 4678 
L 4922 4922 
Q 5294 4613 5678 4063 
L 5344 3788 
z
" transform="scale(0.015625)"/>
      <path id="IPAexGothic-3089" d="M 3700 3928 
Q 2897 4478 2156 4750 
L 2381 5166 
Q 3147 4891 3956 4384 
L 3700 3928 
z
M 1344 1281 
Q 1450 2544 1747 4038 
L 2234 3928 
Q 1994 2856 1888 1844 
Q 2897 2688 3963 2688 
Q 4531 2688 4909 2450 
Q 5441 2122 5441 1516 
Q 5441 669 4569 213 
Q 3856 -169 2584 -238 
L 2363 250 
Q 3484 250 4213 588 
Q 4909 922 4909 1509 
Q 4909 1856 4647 2059 
Q 4366 2266 3897 2266 
Q 2853 2266 1766 1141 
L 1344 1281 
z
" transform="scale(0.015625)"/>
      <path id="IPAexGothic-3044" d="M 3369 1447 
Q 2906 122 2278 122 
Q 1966 122 1647 481 
Q 1209 966 1044 1966 
Q 891 2888 891 4313 
L 1422 4313 
Q 1413 2444 1666 1550 
Q 1913 678 2278 678 
Q 2619 678 2925 1791 
L 3369 1447 
z
M 5378 1294 
Q 4928 2797 4034 3809 
L 4488 4031 
Q 5375 3000 5881 1563 
L 5378 1294 
z
" transform="scale(0.015625)"/>
      <path id="IPAexGothic-904e" d="M 1703 741 
Q 1975 363 2503 209 
Q 2903 94 3928 94 
Q 4897 94 6131 178 
Q 6025 -59 5978 -300 
Q 4931 -341 4384 -341 
Q 2819 -341 2234 -128 
Q 1759 44 1525 397 
Q 1113 -81 653 -447 
L 372 19 
Q 900 341 1269 672 
L 1269 2303 
L 378 2303 
L 378 2731 
L 1703 2731 
L 1703 741 
z
M 5338 2778 
L 2594 2778 
L 2594 428 
L 2178 428 
L 2178 3138 
L 2594 3138 
L 2594 5025 
L 5338 5025 
L 5338 3138 
L 5753 3138 
L 5753 878 
Q 5753 597 5638 513 
Q 5547 441 5313 441 
Q 5016 441 4709 481 
L 4659 903 
Q 4956 850 5184 850 
Q 5338 850 5338 1019 
L 5338 2778 
z
M 4934 3138 
L 4934 3784 
L 4041 3784 
L 4041 3138 
L 4934 3138 
z
M 3663 3138 
L 3663 4116 
L 4934 4116 
L 4934 4666 
L 3003 4666 
L 3003 3138 
L 3663 3138 
z
M 4750 2350 
L 4750 1113 
L 3469 1113 
L 3469 778 
L 3091 778 
L 3091 2350 
L 4750 2350 
z
M 3469 2019 
L 3469 1453 
L 4372 1453 
L 4372 2019 
L 3469 2019 
z
M 1522 3775 
Q 1053 4353 563 4738 
L 878 5056 
Q 1497 4566 1869 4122 
L 1522 3775 
z
" transform="scale(0.015625)"/>
     </defs>
     <use xlink:href="#IPAexGothic-30fb"/>
     <use xlink:href="#IPAexGothic-4e38" x="100"/>
     <use xlink:href="#IPAexGothic-6697" x="200"/>
     <use xlink:href="#IPAexGothic-8a18" x="300"/>
     <use xlink:href="#IPAexGothic-306e" x="400"/>
     <use xlink:href="#IPAexGothic-3088" x="500"/>
     <use xlink:href="#IPAexGothic-3046" x="600"/>
     <use xlink:href="#IPAexGothic-306b" x="700"/>
     <use xlink:href="#IPAexGothic-898b" x="800"/>
     <use xlink:href="#IPAexGothic-3048" x="900"/>
     <use xlink:href="#IPAexGothic-3066" x="1000"/>
     <use xlink:href="#IPAexGothic-5b9f" x="1100"/>
     <use xlink:href="#IPAexGothic-529b" x="1200"/>
     <use xlink:href="#IPAexGothic-304c" x="1300"/>
     <use xlink:href="#IPAexGothic-308f" x="1400"/>
     <use xlink:href="#IPAexGothic-304b" x="1500"/>
     <use xlink:href="#IPAexGothic-3089" x="1600"/>
     <use xlink:href="#IPAexGothic-306a" x="1700"/>
     <use xlink:href="#IPAexGothic-3044" x="1800"/>
     <use xlink:href="#IPAexGothic-ff08" x="1900"/>
     <use xlink:href="#IPAexGothic-904e" x="2000"/>
     <use xlink:href="#IPAexGothic-5b66" x="2100"/>
     <use xlink:href="#IPAexGothic-7fd2" x="2200"/>
     <use xlink:href="#IPAexGothic-ff09" x="2300"/>
    </g>
   </g>
   <g id="text_7">
    <!-- ・本番環境での性能が予測できない -->
    <g style="fill: #2c3e50" transform="translate(47.52 169.894219) scale(0.115 -0.115)">
     <defs>
      <path id="IPAexGothic-672c" d="M 3578 3463 
Q 4494 1903 6056 1050 
L 5697 600 
Q 4147 1619 3409 3084 
L 3409 1241 
L 4469 1241 
L 4469 825 
L 3425 825 
L 3425 -409 
L 2938 -409 
L 2938 825 
L 1900 825 
L 1900 1241 
L 2950 1241 
L 2950 3034 
Q 2288 1513 756 403 
L 378 794 
Q 1919 1703 2784 3463 
L 481 3463 
L 481 3903 
L 2938 3903 
L 2938 5209 
L 3425 5209 
L 3425 3903 
L 5922 3903 
L 5922 3463 
L 3578 3463 
z
" transform="scale(0.015625)"/>
      <path id="IPAexGothic-756a" d="M 1253 1753 
Q 941 1581 619 1428 
L 313 1791 
Q 1613 2275 2572 3188 
L 509 3188 
L 509 3559 
L 1791 3559 
Q 1663 3897 1450 4200 
L 1900 4294 
Q 2122 3972 2284 3559 
L 2956 3559 
L 2956 4506 
Q 2700 4488 2438 4469 
Q 1634 4406 1028 4384 
L 819 4775 
Q 3234 4853 4894 5153 
L 5284 4775 
Q 4138 4600 3569 4556 
L 3397 4544 
L 3397 3559 
L 4006 3559 
Q 4319 4088 4491 4538 
L 4953 4378 
Q 4716 3934 4453 3559 
L 5881 3559 
L 5881 3188 
L 3819 3188 
Q 4588 2484 6091 1919 
L 5797 1538 
Q 5600 1616 5138 1838 
L 5138 -450 
L 4697 -450 
L 4697 -213 
L 1694 -213 
L 1694 -450 
L 1253 -450 
L 1253 1753 
z
M 1834 2113 
L 2956 2113 
L 2956 3103 
Q 2494 2553 1834 2113 
z
M 4697 153 
L 4697 813 
L 3384 813 
L 3384 153 
L 4697 153 
z
M 4697 1166 
L 4697 1753 
L 3384 1753 
L 3384 1166 
L 4697 1166 
z
M 4647 2113 
Q 3888 2575 3397 3131 
L 3397 2113 
L 4647 2113 
z
M 1694 1753 
L 1694 1166 
L 2969 1166 
L 2969 1753 
L 1694 1753 
z
M 1694 813 
L 1694 153 
L 2969 153 
L 2969 813 
L 1694 813 
z
" transform="scale(0.015625)"/>
      <path id="IPAexGothic-74b0" d="M 5113 650 
Q 5600 344 6072 153 
L 5778 -250 
Q 4803 269 4178 931 
L 4178 -450 
L 3750 -450 
L 3750 850 
Q 2950 188 2106 -175 
L 1816 172 
Q 2963 634 3819 1413 
L 2541 1413 
L 2541 2669 
L 5522 2669 
L 5522 1444 
L 5859 1241 
Q 5472 888 5113 650 
z
M 4825 863 
Q 5153 1122 5413 1413 
L 4319 1413 
L 4269 1356 
Q 4469 1138 4825 863 
z
M 2956 2316 
L 2956 1753 
L 5094 1753 
L 5094 2316 
L 2956 2316 
z
M 1453 4384 
L 1453 3009 
L 2059 3009 
L 2059 2613 
L 1453 2613 
L 1453 1128 
Q 1472 1131 1506 1144 
Q 1547 1156 1563 1159 
Q 1866 1250 2216 1378 
L 2241 1000 
Q 1550 725 403 378 
L 263 806 
Q 763 931 1038 1006 
L 1038 2613 
L 397 2613 
L 397 3009 
L 1038 3009 
L 1038 4384 
L 325 4384 
L 325 4788 
L 2125 4788 
L 2125 4384 
L 1453 4384 
z
M 5631 5075 
L 5631 3694 
L 2406 3694 
L 2406 5075 
L 5631 5075 
z
M 2816 4728 
L 2816 4034 
L 3359 4034 
L 3359 4728 
L 2816 4728 
z
M 5228 4034 
L 5228 4728 
L 4672 4728 
L 4672 4034 
L 5228 4034 
z
M 3744 4728 
L 3744 4034 
L 4288 4034 
L 4288 4728 
L 3744 4728 
z
M 2094 3347 
L 6016 3347 
L 6016 2981 
L 2094 2981 
L 2094 3347 
z
" transform="scale(0.015625)"/>
      <path id="IPAexGothic-5883" d="M 4606 1153 
L 4606 256 
Q 4606 106 4684 75 
Q 4744 50 5009 50 
Q 5503 50 5563 216 
Q 5597 331 5606 794 
L 6041 666 
Q 6031 -41 5881 -200 
Q 5713 -378 4978 -378 
Q 4531 -378 4375 -322 
Q 4172 -231 4172 78 
L 4172 1153 
L 3647 1153 
Q 3619 394 3281 38 
Q 2884 -369 1919 -494 
L 1691 -91 
Q 2659 -3 2963 341 
Q 3184 591 3213 1153 
L 2541 1153 
L 2541 2938 
L 5459 2938 
L 5459 1153 
L 4606 1153 
z
M 2981 2597 
L 2981 2216 
L 5022 2216 
L 5022 2597 
L 2981 2597 
z
M 2981 1891 
L 2981 1494 
L 5022 1494 
L 5022 1891 
L 2981 1891 
z
M 1069 3731 
L 1069 5147 
L 1497 5147 
L 1497 3731 
L 2028 3731 
L 2028 3303 
L 1497 3303 
L 1497 1238 
L 1522 1244 
Q 1853 1359 2181 1491 
L 2213 1088 
Q 1397 706 447 403 
L 275 866 
Q 572 931 1025 1075 
Q 1031 1078 1050 1081 
Q 1063 1084 1069 1088 
L 1069 3303 
L 372 3303 
L 372 3731 
L 1069 3731 
z
M 4191 4659 
L 5747 4659 
L 5747 4313 
L 5059 4313 
Q 4963 4016 4791 3688 
L 6034 3688 
L 6034 3322 
L 2169 3322 
L 2169 3688 
L 3163 3688 
Q 3053 4031 2913 4313 
L 2334 4313 
L 2334 4659 
L 3744 4659 
L 3744 5313 
L 4191 5313 
L 4191 4659 
z
M 3372 4313 
Q 3506 4041 3603 3688 
L 4356 3688 
Q 4500 4000 4600 4313 
L 3372 4313 
z
" transform="scale(0.015625)"/>
      <path id="IPAexGothic-6027" d="M 3106 3788 
L 3900 3788 
L 3900 5216 
L 4353 5216 
L 4353 3788 
L 5884 3788 
L 5884 3372 
L 4353 3372 
L 4353 2069 
L 5756 2069 
L 5756 1653 
L 4353 1653 
L 4353 153 
L 6081 153 
L 6081 -269 
L 2231 -269 
L 2231 153 
L 3900 153 
L 3900 1653 
L 2606 1653 
L 2606 2069 
L 3900 2069 
L 3900 3372 
L 2984 3372 
Q 2806 2803 2544 2325 
L 2147 2613 
Q 2638 3428 2875 4875 
L 3313 4778 
Q 3234 4309 3106 3788 
z
M 269 2188 
Q 459 2891 525 3950 
L 934 3884 
Q 884 2694 672 1931 
L 269 2188 
z
M 1997 3047 
Q 1872 3591 1650 4078 
L 1984 4256 
Q 2216 3844 2394 3291 
L 1997 3047 
z
M 1159 5313 
L 1613 5313 
L 1613 -447 
L 1159 -447 
L 1159 5313 
z
" transform="scale(0.015625)"/>
      <path id="IPAexGothic-80fd" d="M 888 3903 
Q 1228 4475 1509 5325 
L 1991 5203 
Q 1684 4497 1344 3941 
L 1325 3916 
L 1406 3916 
Q 1972 3928 2522 3966 
L 2584 3966 
Q 2438 4216 2181 4556 
L 2541 4753 
Q 3025 4141 3372 3475 
L 2988 3213 
Q 2909 3375 2775 3634 
Q 1938 3513 447 3456 
L 319 3897 
Q 613 3897 734 3903 
L 888 3903 
z
M 2963 3072 
L 2963 50 
Q 2963 -384 2413 -384 
Q 2100 -384 1822 -347 
L 1753 97 
Q 2091 38 2328 38 
Q 2534 38 2534 225 
L 2534 934 
L 1150 934 
L 1150 -447 
L 722 -447 
L 722 3072 
L 2963 3072 
z
M 1150 2688 
L 1150 2194 
L 2534 2194 
L 2534 2688 
L 1150 2688 
z
M 1150 1822 
L 1150 1306 
L 2534 1306 
L 2534 1822 
L 1150 1822 
z
M 3934 4153 
Q 4806 4444 5431 4872 
L 5803 4525 
Q 4866 4013 3934 3763 
L 3934 3206 
Q 3934 3022 4069 2981 
Q 4188 2950 4550 2950 
Q 5344 2950 5431 3116 
Q 5497 3234 5516 3828 
L 5963 3706 
Q 5934 2825 5719 2675 
Q 5522 2534 4594 2534 
Q 3897 2534 3678 2644 
Q 3494 2741 3494 3034 
L 3494 5209 
L 3934 5209 
L 3934 4153 
z
M 3934 1338 
Q 3947 1344 3984 1356 
Q 4816 1628 5472 2041 
L 5841 1684 
Q 4884 1203 3934 959 
L 3934 353 
Q 3934 131 4088 81 
Q 4203 38 4625 38 
Q 5228 38 5375 100 
Q 5556 188 5584 991 
L 6053 872 
Q 6025 203 5919 -44 
Q 5816 -281 5478 -341 
Q 5253 -384 4722 -384 
Q 3966 -384 3738 -294 
Q 3494 -197 3494 116 
L 3494 2338 
L 3934 2338 
L 3934 1338 
z
" transform="scale(0.015625)"/>
      <path id="IPAexGothic-4e88" d="M 3541 3491 
Q 3644 3419 3816 3300 
Q 3944 3213 3997 3175 
L 3663 2894 
L 5603 2894 
L 5872 2625 
Q 5181 1709 4463 1069 
L 4066 1378 
Q 4722 1878 5153 2466 
L 3509 2466 
L 3509 147 
Q 3509 -150 3388 -263 
Q 3266 -384 2822 -384 
Q 2341 -384 1863 -331 
L 1766 172 
Q 2416 84 2766 84 
Q 3022 84 3022 334 
L 3022 2466 
L 513 2466 
L 513 2894 
L 3553 2894 
Q 2809 3488 1947 3963 
L 2247 4291 
Q 2741 4009 3181 3725 
Q 3941 4191 4400 4591 
L 1159 4591 
L 1159 5006 
L 4975 5006 
L 5250 4725 
Q 4428 4044 3541 3491 
z
" transform="scale(0.015625)"/>
      <path id="IPAexGothic-6e2c" d="M 3856 4884 
L 3856 1081 
L 2059 1081 
L 2059 4884 
L 3856 4884 
z
M 2456 4494 
L 2456 3756 
L 3459 3756 
L 3459 4494 
L 2456 4494 
z
M 2456 3384 
L 2456 2656 
L 3459 2656 
L 3459 3384 
L 2456 3384 
z
M 2456 2284 
L 2456 1478 
L 3459 1478 
L 3459 2284 
L 2456 2284 
z
M 1413 3891 
Q 1000 4428 556 4763 
L 856 5100 
Q 1309 4753 1734 4269 
L 1413 3891 
z
M 1222 2394 
Q 816 2878 325 3256 
L 625 3591 
Q 1141 3231 1528 2778 
L 1222 2394 
z
M 375 -78 
Q 916 800 1297 1906 
L 1669 1619 
Q 1284 478 759 -428 
L 375 -78 
z
M 3819 -256 
Q 3478 319 3128 716 
L 3469 966 
Q 3834 581 4172 63 
L 3819 -256 
z
M 4378 4513 
L 4806 4513 
L 4806 959 
L 4378 959 
L 4378 4513 
z
M 1638 -109 
Q 2103 300 2450 984 
L 2828 763 
Q 2425 -6 1944 -488 
L 1638 -109 
z
M 5419 5081 
L 5853 5081 
L 5853 109 
Q 5853 -391 5297 -391 
Q 4919 -391 4541 -359 
L 4441 109 
Q 4928 50 5219 50 
Q 5419 50 5419 244 
L 5419 5081 
z
" transform="scale(0.015625)"/>
      <path id="IPAexGothic-304d" d="M 2944 1600 
Q 2369 1600 2053 1428 
Q 1772 1275 1772 1019 
Q 1772 666 2200 481 
Q 2600 309 3903 309 
Q 4138 309 4397 331 
L 4422 -147 
Q 4203 -166 3969 -166 
Q 2325 -166 1819 141 
Q 1313 444 1313 994 
Q 1313 1447 1791 1738 
Q 2219 1997 2859 1997 
Q 3319 1997 3606 1947 
Q 3894 1894 4216 1759 
Q 3953 2050 3506 2791 
Q 2263 2547 1191 2491 
L 1094 2956 
Q 2263 2966 3281 3175 
Q 3019 3647 2950 3794 
Q 2125 3641 1253 3622 
L 1166 4063 
Q 2013 4063 2750 4184 
Q 2478 4744 2381 4984 
L 2841 5131 
Q 2925 4916 3213 4281 
Q 3888 4438 4459 4709 
L 4672 4313 
Q 4119 4056 3409 3891 
Q 3638 3447 3738 3284 
Q 4528 3503 5113 3794 
L 5331 3366 
Q 4738 3094 3953 2900 
Q 4272 2366 4903 1484 
L 4575 1147 
Q 3888 1600 2944 1600 
z
" transform="scale(0.015625)"/>
     </defs>
     <use xlink:href="#IPAexGothic-30fb"/>
     <use xlink:href="#IPAexGothic-672c" x="100"/>
     <use xlink:href="#IPAexGothic-756a" x="200"/>
     <use xlink:href="#IPAexGothic-74b0" x="300"/>
     <use xlink:href="#IPAexGothic-5883" x="400"/>
     <use xlink:href="#IPAexGothic-3067" x="500"/>
     <use xlink:href="#IPAexGothic-306e" x="600"/>
     <use xlink:href="#IPAexGothic-6027" x="700"/>
     <use xlink:href="#IPAexGothic-80fd" x="800"/>
     <use xlink:href="#IPAexGothic-304c" x="900"/>
     <use xlink:href="#IPAexGothic-4e88" x="1000"/>
     <use xlink:href="#IPAexGothic-6e2c" x="1100"/>
     <use xlink:href="#IPAexGothic-3067" x="1200"/>
     <use xlink:href="#IPAexGothic-304d" x="1300"/>
     <use xlink:href="#IPAexGothic-306a" x="1400"/>
     <use xlink:href="#IPAexGothic-3044" x="1500"/>
    </g>
   </g>
   <g id="text_8">
    <!-- ✅ テストデータ ＝「未知のデータ」 -->
    <g style="fill: #5ba85a" transform="translate(362.88 133.984062) scale(0.13 -0.13)">
     <defs>
      <path id="IPAexGothic-2705" d="M 5759 -641 
L 641 -641 
L 641 5503 
L 5759 5503 
L 5759 -641 
z
M 5216 5172 
L 1191 5172 
L 3206 2694 
L 5216 5172 
z
M 5428 -53 
L 5428 4903 
L 3419 2425 
L 5428 -53 
z
M 2988 2425 
L 972 4916 
L 972 -59 
L 2988 2425 
z
M 5209 -309 
L 3206 2163 
L 1197 -309 
L 5209 -309 
z
" transform="scale(0.015625)"/>
      <path id="IPAexGothic-ff1d" d="M 1006 3347 
L 5397 3347 
L 5397 2888 
L 1006 2888 
L 1006 3347 
z
M 1006 1978 
L 5397 1978 
L 5397 1519 
L 1006 1519 
L 1006 1978 
z
" transform="scale(0.015625)"/>
      <path id="IPAexGothic-672a" d="M 3656 2438 
Q 4506 1213 6094 378 
L 5744 -91 
Q 4197 894 3413 2131 
L 3413 -450 
L 2938 -450 
L 2938 2078 
Q 2191 694 684 -213 
L 341 203 
Q 1834 981 2725 2438 
L 447 2438 
L 447 2853 
L 2938 2853 
L 2938 3903 
L 959 3903 
L 959 4319 
L 2938 4319 
L 2938 5309 
L 3413 5309 
L 3413 4319 
L 5434 4319 
L 5434 3903 
L 3413 3903 
L 3413 2853 
L 5947 2853 
L 5947 2438 
L 3656 2438 
z
" transform="scale(0.015625)"/>
      <path id="IPAexGothic-77e5" d="M 2219 3988 
L 2219 2778 
L 3372 2778 
L 3372 2375 
L 2213 2375 
Q 2203 2078 2163 1813 
L 2194 1788 
Q 2884 1163 3403 531 
L 3075 116 
Q 2625 738 2066 1319 
Q 1766 159 753 -478 
L 428 -109 
Q 1231 359 1528 1147 
Q 1713 1634 1759 2375 
L 409 2375 
L 409 2778 
L 1766 2778 
L 1766 3988 
L 1344 3988 
Q 1106 3409 806 3003 
L 466 3316 
Q 1016 4103 1234 5281 
L 1688 5216 
Q 1591 4731 1484 4391 
L 3219 4391 
L 3219 3988 
L 2219 3988 
z
M 5791 4469 
L 5791 -194 
L 5338 -194 
L 5338 197 
L 3981 197 
L 3981 -272 
L 3528 -272 
L 3528 4469 
L 5791 4469 
z
M 3981 4053 
L 3981 613 
L 5338 613 
L 5338 4053 
L 3981 4053 
z
" transform="scale(0.015625)"/>
     </defs>
     <use xlink:href="#IPAexGothic-2705"/>
     <use xlink:href="#IPAexGothic-20" x="100"/>
     <use xlink:href="#IPAexGothic-30c6" x="127.001953"/>
     <use xlink:href="#IPAexGothic-30b9" x="227.001953"/>
     <use xlink:href="#IPAexGothic-30c8" x="327.001953"/>
     <use xlink:href="#IPAexGothic-30c7" x="427.001953"/>
     <use xlink:href="#IPAexGothic-30fc" x="527.001953"/>
     <use xlink:href="#IPAexGothic-30bf" x="627.001953"/>
     <use xlink:href="#IPAexGothic-20" x="727.001953"/>
     <use xlink:href="#IPAexGothic-ff1d" x="754.003906"/>
     <use xlink:href="#IPAexGothic-300c" x="854.003906"/>
     <use xlink:href="#IPAexGothic-672a" x="954.003906"/>
     <use xlink:href="#IPAexGothic-77e5" x="1054.003906"/>
     <use xlink:href="#IPAexGothic-306e" x="1154.003906"/>
     <use xlink:href="#IPAexGothic-30c7" x="1254.003906"/>
     <use xlink:href="#IPAexGothic-30fc" x="1354.003906"/>
     <use xlink:href="#IPAexGothic-30bf" x="1454.003906"/>
     <use xlink:href="#IPAexGothic-300d" x="1554.003906"/>
    </g>
   </g>
   <g id="text_9">
    <!-- ・本番環境での性能を事前に確認できる -->
    <g style="fill: #2c3e50" transform="translate(367.2 151.174219) scale(0.115 -0.115)">
     <defs>
      <path id="IPAexGothic-4e8b" d="M 2950 3922 
L 2950 4294 
L 478 4294 
L 478 4659 
L 2950 4659 
L 2950 5313 
L 3403 5313 
L 3403 4659 
L 5919 4659 
L 5919 4294 
L 3403 4294 
L 3403 3922 
L 5234 3922 
L 5234 2822 
L 3403 2822 
L 3403 2450 
L 5325 2450 
L 5325 1759 
L 6081 1759 
L 6081 1381 
L 5325 1381 
L 5325 397 
L 4881 397 
L 4881 672 
L 3403 672 
L 3403 6 
Q 3403 -263 3269 -356 
Q 3150 -441 2841 -441 
Q 2497 -441 2116 -403 
L 2041 56 
Q 2450 -25 2731 -25 
Q 2950 -25 2950 159 
L 2950 672 
L 844 672 
L 844 1025 
L 2950 1025 
L 2950 1394 
L 319 1394 
L 319 1747 
L 2950 1747 
L 2950 2097 
L 838 2097 
L 838 2450 
L 2950 2450 
L 2950 2822 
L 1156 2822 
L 1156 3922 
L 2950 3922 
z
M 2950 3591 
L 1584 3591 
L 1584 3163 
L 2950 3163 
L 2950 3591 
z
M 3403 3591 
L 3403 3163 
L 4806 3163 
L 4806 3591 
L 3403 3591 
z
M 3403 1025 
L 4881 1025 
L 4881 1394 
L 3403 1394 
L 3403 1025 
z
M 3403 1747 
L 4881 1747 
L 4881 2097 
L 3403 2097 
L 3403 1747 
z
" transform="scale(0.015625)"/>
      <path id="IPAexGothic-524d" d="M 3653 4281 
Q 3913 4741 4134 5319 
L 4638 5184 
Q 4453 4769 4153 4281 
L 6078 4281 
L 6078 3872 
L 319 3872 
L 319 4281 
L 3653 4281 
z
M 3006 3366 
L 3006 25 
Q 3006 -219 2897 -306 
Q 2797 -391 2522 -391 
Q 2294 -391 1938 -359 
L 1881 84 
Q 2178 25 2413 25 
Q 2578 25 2578 172 
L 2578 1031 
L 1228 1031 
L 1228 -447 
L 794 -447 
L 794 3366 
L 3006 3366 
z
M 1228 2981 
L 1228 2394 
L 2578 2394 
L 2578 2981 
L 1228 2981 
z
M 1228 2022 
L 1228 1403 
L 2578 1403 
L 2578 2022 
L 1228 2022 
z
M 2131 4294 
Q 1934 4769 1656 5106 
L 2078 5300 
Q 2353 4959 2584 4500 
L 2131 4294 
z
M 3834 3238 
L 4275 3238 
L 4275 684 
L 3834 684 
L 3834 3238 
z
M 5147 3425 
L 5600 3425 
L 5600 97 
Q 5600 -172 5497 -275 
Q 5384 -409 5013 -409 
Q 4634 -409 4169 -359 
L 4109 97 
Q 4550 19 4934 19 
Q 5147 19 5147 231 
L 5147 3425 
z
" transform="scale(0.015625)"/>
      <path id="IPAexGothic-78ba" d="M 4347 3219 
Q 4516 3538 4647 3956 
L 5075 3853 
Q 4875 3431 4750 3219 
L 5888 3219 
L 5888 2847 
L 4700 2847 
L 4700 2222 
L 5741 2222 
L 5741 1869 
L 4700 1869 
L 4700 1250 
L 5741 1250 
L 5741 897 
L 4700 897 
L 4700 231 
L 6034 231 
L 6034 -141 
L 3463 -141 
L 3463 -447 
L 3047 -447 
L 3047 2444 
Q 2756 2019 2484 1703 
L 2284 2100 
Q 3159 3197 3506 4147 
L 2913 4147 
L 2913 3425 
L 2509 3425 
L 2509 4519 
L 3634 4519 
Q 3750 4903 3847 5319 
L 4269 5241 
Q 4175 4834 4072 4519 
L 5934 4519 
L 5934 3425 
L 5525 3425 
L 5525 4147 
L 3938 4147 
Q 3747 3647 3513 3219 
L 4347 3219 
z
M 4297 2847 
L 3463 2847 
L 3463 2222 
L 4297 2222 
L 4297 2847 
z
M 4297 1869 
L 3463 1869 
L 3463 1250 
L 4297 1250 
L 4297 1869 
z
M 4297 897 
L 3463 897 
L 3463 231 
L 4297 231 
L 4297 897 
z
M 1159 2944 
L 2275 2944 
L 2275 197 
L 1213 197 
L 1213 -328 
L 816 -328 
L 816 2206 
Q 650 1903 394 1522 
L 188 1919 
Q 931 3013 1200 4416 
L 406 4416 
L 406 4819 
L 2409 4819 
L 2409 4416 
L 1616 4416 
L 1597 4353 
Q 1456 3663 1159 2944 
z
M 1213 2553 
L 1213 588 
L 1878 588 
L 1878 2553 
L 1213 2553 
z
" transform="scale(0.015625)"/>
      <path id="IPAexGothic-8a8d" d="M 4341 4556 
Q 4309 4069 4219 3694 
Q 4622 3497 4956 3309 
L 4731 2963 
Q 4463 3125 4141 3291 
L 4091 3322 
Q 3756 2566 2959 2088 
L 2663 2419 
Q 3456 2844 3713 3500 
Q 3213 3722 2906 3828 
L 3113 4141 
Q 3381 4050 3828 3866 
Q 3916 4231 3925 4556 
L 2816 4556 
L 2816 4947 
L 5775 4947 
Q 5766 3272 5653 2713 
Q 5606 2459 5453 2369 
Q 5334 2284 5025 2284 
Q 4684 2284 4366 2334 
L 4303 2784 
Q 4644 2713 4928 2713 
Q 5181 2713 5228 2906 
Q 5309 3234 5338 4513 
Q 5338 4544 5338 4556 
L 4341 4556 
z
M 2406 1684 
L 2406 -128 
L 959 -128 
L 959 -447 
L 544 -447 
L 544 1684 
L 2406 1684 
z
M 959 1313 
L 959 244 
L 1984 244 
L 1984 1313 
L 959 1313 
z
M 634 5044 
L 2313 5044 
L 2313 4659 
L 634 4659 
L 634 5044 
z
M 353 4206 
L 2638 4206 
L 2638 3816 
L 353 3816 
L 353 4206 
z
M 634 3359 
L 2313 3359 
L 2313 2975 
L 634 2975 
L 634 3359 
z
M 634 2522 
L 2313 2522 
L 2313 2138 
L 634 2138 
L 634 2522 
z
M 2528 31 
Q 2816 625 2919 1447 
L 3322 1375 
Q 3200 381 2900 -225 
L 2528 31 
z
M 3572 1556 
L 4000 1556 
L 4000 294 
Q 4000 128 4084 100 
Q 4144 75 4300 75 
Q 4728 75 4775 275 
Q 4806 394 4825 738 
L 5253 616 
Q 5206 -44 5081 -188 
Q 4941 -347 4359 -347 
Q 3900 -347 3738 -269 
Q 3572 -191 3572 91 
L 3572 1556 
z
M 5775 -25 
Q 5428 800 5006 1375 
L 5366 1588 
Q 5819 994 6166 244 
L 5775 -25 
z
M 4566 1294 
Q 4106 1772 3656 2075 
L 3938 2350 
Q 4331 2113 4872 1613 
L 4566 1294 
z
" transform="scale(0.015625)"/>
     </defs>
     <use xlink:href="#IPAexGothic-30fb"/>
     <use xlink:href="#IPAexGothic-672c" x="100"/>
     <use xlink:href="#IPAexGothic-756a" x="200"/>
     <use xlink:href="#IPAexGothic-74b0" x="300"/>
     <use xlink:href="#IPAexGothic-5883" x="400"/>
     <use xlink:href="#IPAexGothic-3067" x="500"/>
     <use xlink:href="#IPAexGothic-306e" x="600"/>
     <use xlink:href="#IPAexGothic-6027" x="700"/>
     <use xlink:href="#IPAexGothic-80fd" x="800"/>
     <use xlink:href="#IPAexGothic-3092" x="900"/>
     <use xlink:href="#IPAexGothic-4e8b" x="1000"/>
     <use xlink:href="#IPAexGothic-524d" x="1100"/>
     <use xlink:href="#IPAexGothic-306b" x="1200"/>
     <use xlink:href="#IPAexGothic-78ba" x="1300"/>
     <use xlink:href="#IPAexGothic-8a8d" x="1400"/>
     <use xlink:href="#IPAexGothic-3067" x="1500"/>
     <use xlink:href="#IPAexGothic-304d" x="1600"/>
     <use xlink:href="#IPAexGothic-308b" x="1700"/>
    </g>
   </g>
   <g id="text_10">
    <!-- ・「試験で練習問題 ≠ 本番問題」にする -->
    <g style="fill: #2c3e50" transform="translate(367.2 169.894219) scale(0.115 -0.115)">
     <defs>
      <path id="IPAexGothic-8a66" d="M 4384 3969 
Q 4369 4425 4353 5300 
L 4781 5300 
Q 4791 4594 4813 4134 
L 4822 4000 
L 6075 4000 
L 6075 3591 
L 4834 3591 
L 4847 3394 
Q 4903 1969 5203 1000 
Q 5447 256 5563 256 
Q 5669 256 5716 1222 
L 6113 959 
Q 5969 -378 5641 -378 
Q 5369 -378 5069 191 
Q 4541 1191 4416 3341 
L 4397 3566 
L 2547 3566 
L 2547 3816 
L 353 3816 
L 353 4206 
L 2581 4206 
L 2581 3969 
L 4384 3969 
z
M 2406 1684 
L 2406 -128 
L 966 -128 
L 966 -447 
L 544 -447 
L 544 1684 
L 2406 1684 
z
M 966 1313 
L 966 244 
L 1984 244 
L 1984 1313 
L 966 1313 
z
M 3750 2303 
L 3750 831 
Q 4016 903 4581 1088 
L 4606 722 
Q 3750 369 2759 134 
L 2578 556 
Q 2903 619 3334 722 
L 3334 2303 
L 2731 2303 
L 2731 2694 
L 4319 2694 
L 4319 2303 
L 3750 2303 
z
M 641 5044 
L 2313 5044 
L 2313 4659 
L 641 4659 
L 641 5044 
z
M 641 3359 
L 2313 3359 
L 2313 2975 
L 641 2975 
L 641 3359 
z
M 641 2522 
L 2313 2522 
L 2313 2138 
L 641 2138 
L 641 2522 
z
M 5513 4191 
Q 5331 4659 5063 5031 
L 5422 5222 
Q 5716 4806 5897 4403 
L 5513 4191 
z
" transform="scale(0.015625)"/>
      <path id="IPAexGothic-9a13" d="M 4481 1156 
Q 4203 56 3050 -488 
L 2788 -113 
Q 3934 322 4156 1431 
L 3509 1431 
L 3509 1181 
L 3113 1181 
L 3113 2869 
L 4225 2869 
L 4225 3347 
L 3619 3347 
L 3619 3597 
Q 3316 3269 2972 3016 
L 2697 3359 
Q 3647 4022 4116 5241 
L 4616 5241 
Q 5138 4184 6163 3506 
L 5900 3109 
Q 5503 3419 5272 3656 
L 5272 3347 
L 4616 3347 
L 4616 2869 
L 5753 2869 
L 5753 1181 
L 5363 1181 
L 5363 1431 
L 4744 1431 
Q 5119 519 6144 50 
L 5844 -381 
Q 4866 156 4481 1156 
z
M 4225 2516 
L 3509 2516 
L 3509 1784 
L 4225 1784 
L 4225 2516 
z
M 4616 2516 
L 4616 1784 
L 5363 1784 
L 5363 2516 
L 4616 2516 
z
M 5209 3719 
Q 4709 4238 4384 4831 
Q 4147 4244 3719 3719 
L 5209 3719 
z
M 2797 2322 
Q 2778 372 2631 -128 
Q 2525 -453 2094 -453 
Q 1806 -453 1516 -422 
L 1447 13 
Q 1722 -38 2009 -38 
Q 2238 -38 2278 166 
Q 2359 659 2388 1866 
L 2388 1963 
L 550 1963 
L 550 5044 
L 2847 5044 
L 2847 4672 
L 1959 4672 
L 1959 4134 
L 2688 4134 
L 2688 3781 
L 1959 3781 
L 1959 3244 
L 2688 3244 
L 2688 2891 
L 1959 2891 
L 1959 2322 
L 2797 2322 
z
M 947 4672 
L 947 4134 
L 1575 4134 
L 1575 4672 
L 947 4672 
z
M 947 3781 
L 947 3244 
L 1575 3244 
L 1575 3781 
L 947 3781 
z
M 947 2891 
L 947 2322 
L 1575 2322 
L 1575 2891 
L 947 2891 
z
M 231 147 
Q 422 744 481 1588 
L 775 1522 
Q 747 538 550 -63 
L 231 147 
z
M 975 197 
Q 966 1031 916 1528 
L 1178 1563 
Q 1275 1031 1306 306 
L 975 197 
z
M 1538 397 
Q 1447 1206 1350 1569 
L 1606 1631 
Q 1741 1175 1838 506 
L 1538 397 
z
M 2038 594 
Q 1969 1041 1788 1656 
L 2022 1734 
Q 2191 1353 2325 709 
L 2038 594 
z
" transform="scale(0.015625)"/>
      <path id="IPAexGothic-554f" d="M 4384 2291 
L 4384 525 
L 2400 525 
L 2400 172 
L 1972 172 
L 1972 2291 
L 4384 2291 
z
M 3956 1919 
L 2400 1919 
L 2400 897 
L 3956 897 
L 3956 1919 
z
M 2913 4984 
L 2913 2884 
L 1094 2884 
L 1094 -450 
L 641 -450 
L 641 4984 
L 2913 4984 
z
M 1094 4606 
L 1094 4109 
L 2497 4109 
L 2497 4606 
L 1094 4606 
z
M 1094 3769 
L 1094 3250 
L 2497 3250 
L 2497 3769 
L 1094 3769 
z
M 5753 4984 
L 5753 91 
Q 5753 -403 5244 -403 
Q 4875 -403 4444 -366 
L 4366 97 
Q 4750 38 5063 38 
Q 5300 38 5300 281 
L 5300 2884 
L 3444 2884 
L 3444 4984 
L 5753 4984 
z
M 3859 4606 
L 3859 4109 
L 5300 4109 
L 5300 4606 
L 3859 4606 
z
M 3859 3769 
L 3859 3250 
L 5300 3250 
L 5300 3769 
L 3859 3769 
z
" transform="scale(0.015625)"/>
      <path id="IPAexGothic-984c" d="M 2056 300 
Q 2556 63 3925 63 
Q 4719 63 6159 141 
Q 6063 -128 6038 -325 
Q 4956 -366 4322 -366 
Q 2675 -366 2100 -169 
Q 1500 34 1038 697 
Q 850 -3 547 -494 
L 206 -153 
Q 734 700 841 1963 
L 1244 1881 
Q 1203 1506 1147 1150 
Q 1350 809 1647 563 
L 1647 2309 
L 322 2309 
L 322 2688 
L 3219 2688 
L 3219 2309 
L 2056 2309 
L 2056 1619 
L 3053 1619 
L 3053 1234 
L 2056 1234 
L 2056 300 
z
M 4575 4122 
L 5734 4122 
L 5734 1269 
L 3431 1269 
L 3431 4122 
L 4184 4122 
Q 4269 4400 4313 4716 
L 3122 4716 
L 3122 5088 
L 5984 5088 
L 5984 4716 
L 4756 4716 
Q 4659 4356 4575 4122 
z
M 5331 3769 
L 3834 3769 
L 3834 3284 
L 5331 3284 
L 5331 3769 
z
M 3834 2959 
L 3834 2472 
L 5331 2472 
L 5331 2959 
L 3834 2959 
z
M 3834 2147 
L 3834 1628 
L 5331 1628 
L 5331 2147 
L 3834 2147 
z
M 2894 5088 
L 2894 3103 
L 653 3103 
L 653 5088 
L 2894 5088 
z
M 1056 4728 
L 1056 4269 
L 2491 4269 
L 2491 4728 
L 1056 4728 
z
M 1056 3928 
L 1056 3450 
L 2491 3450 
L 2491 3928 
L 1056 3928 
z
M 2925 481 
Q 3553 809 3931 1222 
L 4275 997 
Q 3825 481 3241 159 
L 2925 481 
z
M 5734 225 
Q 5366 594 4781 978 
L 5050 1241 
Q 5641 891 6056 550 
L 5734 225 
z
" transform="scale(0.015625)"/>
      <path id="IPAexGothic-2260" d="M 2119 2444 
L 416 2444 
L 416 2803 
L 2241 2803 
L 2644 3956 
L 2988 3841 
L 2638 2803 
L 3922 2803 
L 3922 2444 
L 2509 2444 
L 2222 1619 
L 3922 1619 
L 3922 1259 
L 2100 1259 
L 1697 106 
L 1350 222 
L 1703 1259 
L 416 1259 
L 416 1619 
L 1831 1619 
L 2119 2444 
z
" transform="scale(0.015625)"/>
     </defs>
     <use xlink:href="#IPAexGothic-30fb"/>
     <use xlink:href="#IPAexGothic-300c" x="100"/>
     <use xlink:href="#IPAexGothic-8a66" x="200"/>
     <use xlink:href="#IPAexGothic-9a13" x="300"/>
     <use xlink:href="#IPAexGothic-3067" x="400"/>
     <use xlink:href="#IPAexGothic-7df4" x="500"/>
     <use xlink:href="#IPAexGothic-7fd2" x="600"/>
     <use xlink:href="#IPAexGothic-554f" x="700"/>
     <use xlink:href="#IPAexGothic-984c" x="800"/>
     <use xlink:href="#IPAexGothic-20" x="900"/>
     <use xlink:href="#IPAexGothic-2260" x="927.001953"/>
     <use xlink:href="#IPAexGothic-20" x="994.824219"/>
     <use xlink:href="#IPAexGothic-672c" x="1021.826172"/>
     <use xlink:href="#IPAexGothic-756a" x="1121.826172"/>
     <use xlink:href="#IPAexGothic-554f" x="1221.826172"/>
     <use xlink:href="#IPAexGothic-984c" x="1321.826172"/>
     <use xlink:href="#IPAexGothic-300d" x="1421.826172"/>
     <use xlink:href="#IPAexGothic-306b" x="1521.826172"/>
     <use xlink:href="#IPAexGothic-3059" x="1621.826172"/>
     <use xlink:href="#IPAexGothic-308b" x="1721.826172"/>
    </g>
   </g>
   <g id="text_11">
    <!-- X_train, X_test, y_train, y_test = train_test_split( -->
    <g style="fill: #cdd6f4" transform="translate(40.32 272.347219) scale(0.105 -0.105)">
     <defs>
      <path id="DejaVuSansMono-58" d="M 269 4666 
L 947 4666 
L 1972 2906 
L 3016 4666 
L 3694 4666 
L 2297 2472 
L 3794 0 
L 3116 0 
L 1972 2009 
L 738 0 
L 56 0 
L 1619 2472 
L 269 4666 
z
" transform="scale(0.015625)"/>
      <path id="DejaVuSansMono-5f" d="M 3853 -1259 
L 3853 -1509 
L 0 -1509 
L 0 -1259 
L 3853 -1259 
z
" transform="scale(0.015625)"/>
      <path id="DejaVuSansMono-74" d="M 1919 4494 
L 1919 3500 
L 3225 3500 
L 3225 3053 
L 1919 3053 
L 1919 1153 
Q 1919 766 2066 612 
Q 2213 459 2578 459 
L 3225 459 
L 3225 0 
L 2522 0 
Q 1875 0 1609 259 
Q 1344 519 1344 1153 
L 1344 3053 
L 409 3053 
L 409 3500 
L 1344 3500 
L 1344 4494 
L 1919 4494 
z
" transform="scale(0.015625)"/>
      <path id="DejaVuSansMono-72" d="M 3609 2778 
Q 3425 2922 3234 2987 
Q 3044 3053 2816 3053 
Q 2278 3053 1993 2715 
Q 1709 2378 1709 1741 
L 1709 0 
L 1131 0 
L 1131 3500 
L 1709 3500 
L 1709 2816 
Q 1853 3188 2151 3386 
Q 2450 3584 2859 3584 
Q 3072 3584 3256 3531 
Q 3441 3478 3609 3366 
L 3609 2778 
z
" transform="scale(0.015625)"/>
      <path id="DejaVuSansMono-61" d="M 2194 1759 
L 2003 1759 
Q 1500 1759 1245 1582 
Q 991 1406 991 1056 
Q 991 741 1181 566 
Q 1372 391 1709 391 
Q 2184 391 2456 720 
Q 2728 1050 2731 1631 
L 2731 1759 
L 2194 1759 
z
M 3309 1997 
L 3309 0 
L 2731 0 
L 2731 519 
Q 2547 206 2267 57 
Q 1988 -91 1588 -91 
Q 1053 -91 734 211 
Q 416 513 416 1019 
Q 416 1603 808 1906 
Q 1200 2209 1959 2209 
L 2731 2209 
L 2731 2300 
Q 2728 2719 2518 2908 
Q 2309 3097 1850 3097 
Q 1556 3097 1256 3012 
Q 956 2928 672 2766 
L 672 3341 
Q 991 3463 1283 3523 
Q 1575 3584 1850 3584 
Q 2284 3584 2592 3456 
Q 2900 3328 3091 3072 
Q 3209 2916 3259 2686 
Q 3309 2456 3309 1997 
z
" transform="scale(0.015625)"/>
      <path id="DejaVuSansMono-69" d="M 800 3500 
L 2272 3500 
L 2272 447 
L 3413 447 
L 3413 0 
L 556 0 
L 556 447 
L 1697 447 
L 1697 3053 
L 800 3053 
L 800 3500 
z
M 1697 4863 
L 2272 4863 
L 2272 4134 
L 1697 4134 
L 1697 4863 
z
" transform="scale(0.015625)"/>
      <path id="DejaVuSansMono-6e" d="M 3284 2169 
L 3284 0 
L 2706 0 
L 2706 2169 
Q 2706 2641 2540 2862 
Q 2375 3084 2022 3084 
Q 1619 3084 1401 2798 
Q 1184 2513 1184 1978 
L 1184 0 
L 609 0 
L 609 3500 
L 1184 3500 
L 1184 2975 
Q 1338 3275 1600 3429 
Q 1863 3584 2222 3584 
Q 2756 3584 3020 3232 
Q 3284 2881 3284 2169 
z
" transform="scale(0.015625)"/>
      <path id="DejaVuSansMono-2c" d="M 1569 947 
L 2356 947 
L 2356 300 
L 1741 -897 
L 1259 -897 
L 1569 300 
L 1569 947 
z
" transform="scale(0.015625)"/>
      <path id="DejaVuSansMono-20" transform="scale(0.015625)"/>
      <path id="DejaVuSansMono-65" d="M 3475 1894 
L 3475 1613 
L 984 1613 
L 984 1594 
Q 984 1022 1282 709 
Q 1581 397 2125 397 
Q 2400 397 2700 484 
Q 3000 572 3341 750 
L 3341 178 
Q 3013 44 2708 -23 
Q 2403 -91 2119 -91 
Q 1303 -91 843 398 
Q 384 888 384 1747 
Q 384 2584 834 3084 
Q 1284 3584 2034 3584 
Q 2703 3584 3089 3131 
Q 3475 2678 3475 1894 
z
M 2900 2063 
Q 2888 2569 2661 2833 
Q 2434 3097 2009 3097 
Q 1594 3097 1325 2822 
Q 1056 2547 1006 2059 
L 2900 2063 
z
" transform="scale(0.015625)"/>
      <path id="DejaVuSansMono-73" d="M 3041 3378 
L 3041 2816 
Q 2794 2959 2544 3031 
Q 2294 3103 2034 3103 
Q 1644 3103 1451 2976 
Q 1259 2850 1259 2591 
Q 1259 2356 1403 2240 
Q 1547 2125 2119 2016 
L 2350 1972 
Q 2778 1891 2998 1647 
Q 3219 1403 3219 1013 
Q 3219 494 2850 201 
Q 2481 -91 1825 -91 
Q 1566 -91 1281 -36 
Q 997 19 666 128 
L 666 722 
Q 988 556 1281 473 
Q 1575 391 1838 391 
Q 2219 391 2428 545 
Q 2638 700 2638 978 
Q 2638 1378 1872 1531 
L 1847 1538 
L 1631 1581 
Q 1134 1678 906 1908 
Q 678 2138 678 2534 
Q 678 3038 1018 3311 
Q 1359 3584 1991 3584 
Q 2272 3584 2531 3532 
Q 2791 3481 3041 3378 
z
" transform="scale(0.015625)"/>
      <path id="DejaVuSansMono-79" d="M 2681 1125 
Q 2538 759 2316 163 
Q 2006 -663 1900 -844 
Q 1756 -1088 1540 -1209 
Q 1325 -1331 1038 -1331 
L 575 -1331 
L 575 -850 
L 916 -850 
Q 1169 -850 1312 -703 
Q 1456 -556 1678 56 
L 325 3500 
L 934 3500 
L 1972 763 
L 2994 3500 
L 3603 3500 
L 2681 1125 
z
" transform="scale(0.015625)"/>
      <path id="DejaVuSansMono-3d" d="M 275 1638 
L 3578 1638 
L 3578 1100 
L 275 1100 
L 275 1638 
z
M 275 2906 
L 3578 2906 
L 3578 2375 
L 275 2375 
L 275 2906 
z
" transform="scale(0.015625)"/>
      <path id="DejaVuSansMono-70" d="M 1172 441 
L 1172 -1331 
L 594 -1331 
L 594 3500 
L 1172 3500 
L 1172 3053 
Q 1316 3313 1555 3448 
Q 1794 3584 2106 3584 
Q 2741 3584 3102 3093 
Q 3463 2603 3463 1734 
Q 3463 881 3100 395 
Q 2738 -91 2106 -91 
Q 1788 -91 1548 45 
Q 1309 181 1172 441 
z
M 2859 1747 
Q 2859 2416 2648 2756 
Q 2438 3097 2022 3097 
Q 1603 3097 1387 2755 
Q 1172 2413 1172 1747 
Q 1172 1084 1387 740 
Q 1603 397 2022 397 
Q 2438 397 2648 737 
Q 2859 1078 2859 1747 
z
" transform="scale(0.015625)"/>
      <path id="DejaVuSansMono-6c" d="M 1997 1269 
Q 1997 881 2139 684 
Q 2281 488 2559 488 
L 3231 488 
L 3231 0 
L 2503 0 
Q 1988 0 1705 331 
Q 1422 663 1422 1269 
L 1422 4447 
L 500 4447 
L 500 4897 
L 1997 4897 
L 1997 1269 
z
" transform="scale(0.015625)"/>
      <path id="DejaVuSansMono-28" d="M 2766 4856 
Q 2350 4144 2145 3436 
Q 1941 2728 1941 2009 
Q 1941 1294 2145 584 
Q 2350 -125 2766 -844 
L 2266 -844 
Q 1794 -100 1562 604 
Q 1331 1309 1331 2009 
Q 1331 2706 1562 3412 
Q 1794 4119 2266 4856 
L 2766 4856 
z
" transform="scale(0.015625)"/>
     </defs>
     <use xlink:href="#DejaVuSansMono-58"/>
     <use xlink:href="#DejaVuSansMono-5f" x="60.205078"/>
     <use xlink:href="#DejaVuSansMono-74" x="120.410156"/>
     <use xlink:href="#DejaVuSansMono-72" x="180.615234"/>
     <use xlink:href="#DejaVuSansMono-61" x="240.820312"/>
     <use xlink:href="#DejaVuSansMono-69" x="301.025391"/>
     <use xlink:href="#DejaVuSansMono-6e" x="361.230469"/>
     <use xlink:href="#DejaVuSansMono-2c" x="421.435547"/>
     <use xlink:href="#DejaVuSansMono-20" x="481.640625"/>
     <use xlink:href="#DejaVuSansMono-58" x="541.845703"/>
     <use xlink:href="#DejaVuSansMono-5f" x="602.050781"/>
     <use xlink:href="#DejaVuSansMono-74" x="662.255859"/>
     <use xlink:href="#DejaVuSansMono-65" x="722.460938"/>
     <use xlink:href="#DejaVuSansMono-73" x="782.666016"/>
     <use xlink:href="#DejaVuSansMono-74" x="842.871094"/>
     <use xlink:href="#DejaVuSansMono-2c" x="903.076172"/>
     <use xlink:href="#DejaVuSansMono-20" x="963.28125"/>
     <use xlink:href="#DejaVuSansMono-79" x="1023.486328"/>
     <use xlink:href="#DejaVuSansMono-5f" x="1083.691406"/>
     <use xlink:href="#DejaVuSansMono-74" x="1143.896484"/>
     <use xlink:href="#DejaVuSansMono-72" x="1204.101562"/>
     <use xlink:href="#DejaVuSansMono-61" x="1264.306641"/>
     <use xlink:href="#DejaVuSansMono-69" x="1324.511719"/>
     <use xlink:href="#DejaVuSansMono-6e" x="1384.716797"/>
     <use xlink:href="#DejaVuSansMono-2c" x="1444.921875"/>
     <use xlink:href="#DejaVuSansMono-20" x="1505.126953"/>
     <use xlink:href="#DejaVuSansMono-79" x="1565.332031"/>
     <use xlink:href="#DejaVuSansMono-5f" x="1625.537109"/>
     <use xlink:href="#DejaVuSansMono-74" x="1685.742188"/>
     <use xlink:href="#DejaVuSansMono-65" x="1745.947266"/>
     <use xlink:href="#DejaVuSansMono-73" x="1806.152344"/>
     <use xlink:href="#DejaVuSansMono-74" x="1866.357422"/>
     <use xlink:href="#DejaVuSansMono-20" x="1926.5625"/>
     <use xlink:href="#DejaVuSansMono-3d" x="1986.767578"/>
     <use xlink:href="#DejaVuSansMono-20" x="2046.972656"/>
     <use xlink:href="#DejaVuSansMono-74" x="2107.177734"/>
     <use xlink:href="#DejaVuSansMono-72" x="2167.382812"/>
     <use xlink:href="#DejaVuSansMono-61" x="2227.587891"/>
     <use xlink:href="#DejaVuSansMono-69" x="2287.792969"/>
     <use xlink:href="#DejaVuSansMono-6e" x="2347.998047"/>
     <use xlink:href="#DejaVuSansMono-5f" x="2408.203125"/>
     <use xlink:href="#DejaVuSansMono-74" x="2468.408203"/>
     <use xlink:href="#DejaVuSansMono-65" x="2528.613281"/>
     <use xlink:href="#DejaVuSansMono-73" x="2588.818359"/>
     <use xlink:href="#DejaVuSansMono-74" x="2649.023438"/>
     <use xlink:href="#DejaVuSansMono-5f" x="2709.228516"/>
     <use xlink:href="#DejaVuSansMono-73" x="2769.433594"/>
     <use xlink:href="#DejaVuSansMono-70" x="2829.638672"/>
     <use xlink:href="#DejaVuSansMono-6c" x="2889.84375"/>
     <use xlink:href="#DejaVuSansMono-69" x="2950.048828"/>
     <use xlink:href="#DejaVuSansMono-74" x="3010.253906"/>
     <use xlink:href="#DejaVuSansMono-28" x="3070.458984"/>
    </g>
   </g>
   <g id="text_12">
    <!--     X, y, test_size=0.2, random_state=42, stratify=y  # stratify: 品種比率を保つ -->
    <g style="fill: #cdd6f4" transform="translate(40.32 285.759328) scale(0.105 -0.105)">
     <defs>
      <path id="DejaVuSansMono-7a" d="M 709 3506 
L 3250 3506 
L 3250 2981 
L 1241 469 
L 3250 469 
L 3250 0 
L 634 0 
L 634 531 
L 2644 3047 
L 709 3047 
L 709 3506 
z
" transform="scale(0.015625)"/>
      <path id="DejaVuSansMono-30" d="M 1509 2344 
Q 1509 2516 1629 2641 
Q 1750 2766 1919 2766 
Q 2094 2766 2219 2641 
Q 2344 2516 2344 2344 
Q 2344 2169 2220 2047 
Q 2097 1925 1919 1925 
Q 1744 1925 1626 2044 
Q 1509 2163 1509 2344 
z
M 1925 4250 
Q 1484 4250 1267 3775 
Q 1050 3300 1050 2328 
Q 1050 1359 1267 884 
Q 1484 409 1925 409 
Q 2369 409 2586 884 
Q 2803 1359 2803 2328 
Q 2803 3300 2586 3775 
Q 2369 4250 1925 4250 
z
M 1925 4750 
Q 2672 4750 3055 4137 
Q 3438 3525 3438 2328 
Q 3438 1134 3055 521 
Q 2672 -91 1925 -91 
Q 1178 -91 797 521 
Q 416 1134 416 2328 
Q 416 3525 797 4137 
Q 1178 4750 1925 4750 
z
" transform="scale(0.015625)"/>
      <path id="DejaVuSansMono-2e" d="M 1528 953 
L 2316 953 
L 2316 0 
L 1528 0 
L 1528 953 
z
" transform="scale(0.015625)"/>
      <path id="DejaVuSansMono-32" d="M 1166 531 
L 3309 531 
L 3309 0 
L 475 0 
L 475 531 
Q 1059 1147 1496 1619 
Q 1934 2091 2100 2284 
Q 2413 2666 2522 2902 
Q 2631 3138 2631 3384 
Q 2631 3775 2401 3997 
Q 2172 4219 1772 4219 
Q 1488 4219 1175 4116 
Q 863 4013 513 3803 
L 513 4441 
Q 834 4594 1145 4672 
Q 1456 4750 1759 4750 
Q 2444 4750 2861 4386 
Q 3278 4022 3278 3431 
Q 3278 3131 3139 2831 
Q 3000 2531 2688 2169 
Q 2513 1966 2180 1606 
Q 1847 1247 1166 531 
z
" transform="scale(0.015625)"/>
      <path id="DejaVuSansMono-64" d="M 2681 3053 
L 2681 4863 
L 3256 4863 
L 3256 0 
L 2681 0 
L 2681 441 
Q 2538 181 2298 45 
Q 2059 -91 1747 -91 
Q 1113 -91 748 401 
Q 384 894 384 1759 
Q 384 2613 750 3098 
Q 1116 3584 1747 3584 
Q 2063 3584 2303 3448 
Q 2544 3313 2681 3053 
z
M 991 1747 
Q 991 1078 1203 737 
Q 1416 397 1831 397 
Q 2247 397 2464 740 
Q 2681 1084 2681 1747 
Q 2681 2413 2464 2755 
Q 2247 3097 1831 3097 
Q 1416 3097 1203 2756 
Q 991 2416 991 1747 
z
" transform="scale(0.015625)"/>
      <path id="DejaVuSansMono-6f" d="M 1925 3097 
Q 1488 3097 1263 2756 
Q 1038 2416 1038 1747 
Q 1038 1081 1263 739 
Q 1488 397 1925 397 
Q 2366 397 2591 739 
Q 2816 1081 2816 1747 
Q 2816 2416 2591 2756 
Q 2366 3097 1925 3097 
z
M 1925 3584 
Q 2653 3584 3039 3112 
Q 3425 2641 3425 1747 
Q 3425 850 3040 379 
Q 2656 -91 1925 -91 
Q 1197 -91 812 379 
Q 428 850 428 1747 
Q 428 2641 812 3112 
Q 1197 3584 1925 3584 
z
" transform="scale(0.015625)"/>
      <path id="DejaVuSansMono-6d" d="M 2113 3144 
Q 2219 3369 2383 3476 
Q 2547 3584 2778 3584 
Q 3200 3584 3373 3257 
Q 3547 2931 3547 2028 
L 3547 0 
L 3022 0 
L 3022 2003 
Q 3022 2744 2939 2923 
Q 2856 3103 2638 3103 
Q 2388 3103 2295 2911 
Q 2203 2719 2203 2003 
L 2203 0 
L 1678 0 
L 1678 2003 
Q 1678 2753 1589 2928 
Q 1500 3103 1269 3103 
Q 1041 3103 952 2911 
Q 863 2719 863 2003 
L 863 0 
L 341 0 
L 341 3500 
L 863 3500 
L 863 3200 
Q 966 3388 1120 3486 
Q 1275 3584 1472 3584 
Q 1709 3584 1867 3475 
Q 2025 3366 2113 3144 
z
" transform="scale(0.015625)"/>
      <path id="DejaVuSansMono-34" d="M 2297 4091 
L 825 1625 
L 2297 1625 
L 2297 4091 
z
M 2194 4666 
L 2925 4666 
L 2925 1625 
L 3547 1625 
L 3547 1113 
L 2925 1113 
L 2925 0 
L 2297 0 
L 2297 1113 
L 319 1113 
L 319 1709 
L 2194 4666 
z
" transform="scale(0.015625)"/>
      <path id="DejaVuSansMono-66" d="M 3322 4863 
L 3322 4384 
L 2669 4384 
Q 2359 4384 2239 4257 
Q 2119 4131 2119 3809 
L 2119 3500 
L 3322 3500 
L 3322 3053 
L 2119 3053 
L 2119 0 
L 1544 0 
L 1544 3053 
L 609 3053 
L 609 3500 
L 1544 3500 
L 1544 3744 
Q 1544 4319 1808 4591 
Q 2072 4863 2631 4863 
L 3322 4863 
z
" transform="scale(0.015625)"/>
      <path id="DejaVuSansMono-23" d="M 2138 4594 
L 1813 3297 
L 2578 3297 
L 2906 4594 
L 3406 4594 
L 3078 3297 
L 3841 3297 
L 3841 2816 
L 2963 2816 
L 2700 1772 
L 3481 1772 
L 3481 1294 
L 2578 1294 
L 2253 0 
L 1753 0 
L 2081 1294 
L 1313 1294 
L 984 0 
L 488 0 
L 813 1294 
L 6 1294 
L 6 1772 
L 934 1772 
L 1197 2816 
L 366 2816 
L 366 3297 
L 1313 3297 
L 1638 4594 
L 2138 4594 
z
M 2463 2816 
L 1697 2816 
L 1434 1772 
L 2203 1772 
L 2463 2816 
z
" transform="scale(0.015625)"/>
      <path id="DejaVuSansMono-3a" d="M 1528 3322 
L 2316 3322 
L 2316 2375 
L 1528 2375 
L 1528 3322 
z
M 1528 953 
L 2316 953 
L 2316 0 
L 1528 0 
L 1528 953 
z
" transform="scale(0.015625)"/>
      <path id="DejaVuSansMono-54c1" d="M 325 -1131 
L 325 4513 
L 3525 4513 
L 3525 -1131 
L 325 -1131 
z
M 684 -775 
L 3169 -775 
L 3169 4153 
L 684 4153 
L 684 -775 
z
" transform="scale(0.015625)"/>
      <path id="DejaVuSansMono-7a2e" d="M 325 -1131 
L 325 4513 
L 3525 4513 
L 3525 -1131 
L 325 -1131 
z
M 684 -775 
L 3169 -775 
L 3169 4153 
L 684 4153 
L 684 -775 
z
" transform="scale(0.015625)"/>
      <path id="DejaVuSansMono-6bd4" d="M 325 -1131 
L 325 4513 
L 3525 4513 
L 3525 -1131 
L 325 -1131 
z
M 684 -775 
L 3169 -775 
L 3169 4153 
L 684 4153 
L 684 -775 
z
" transform="scale(0.015625)"/>
      <path id="DejaVuSansMono-7387" d="M 325 -1131 
L 325 4513 
L 3525 4513 
L 3525 -1131 
L 325 -1131 
z
M 684 -775 
L 3169 -775 
L 3169 4153 
L 684 4153 
L 684 -775 
z
" transform="scale(0.015625)"/>
      <path id="DejaVuSansMono-3092" d="M 325 -1131 
L 325 4513 
L 3525 4513 
L 3525 -1131 
L 325 -1131 
z
M 684 -775 
L 3169 -775 
L 3169 4153 
L 684 4153 
L 684 -775 
z
" transform="scale(0.015625)"/>
      <path id="DejaVuSansMono-4fdd" d="M 325 -1131 
L 325 4513 
L 3525 4513 
L 3525 -1131 
L 325 -1131 
z
M 684 -775 
L 3169 -775 
L 3169 4153 
L 684 4153 
L 684 -775 
z
" transform="scale(0.015625)"/>
      <path id="DejaVuSansMono-3064" d="M 325 -1131 
L 325 4513 
L 3525 4513 
L 3525 -1131 
L 325 -1131 
z
M 684 -775 
L 3169 -775 
L 3169 4153 
L 684 4153 
L 684 -775 
z
" transform="scale(0.015625)"/>
     </defs>
     <use xlink:href="#DejaVuSansMono-20"/>
     <use xlink:href="#DejaVuSansMono-20" x="60.205078"/>
     <use xlink:href="#DejaVuSansMono-20" x="120.410156"/>
     <use xlink:href="#DejaVuSansMono-20" x="180.615234"/>
     <use xlink:href="#DejaVuSansMono-58" x="240.820312"/>
     <use xlink:href="#DejaVuSansMono-2c" x="301.025391"/>
     <use xlink:href="#DejaVuSansMono-20" x="361.230469"/>
     <use xlink:href="#DejaVuSansMono-79" x="421.435547"/>
     <use xlink:href="#DejaVuSansMono-2c" x="481.640625"/>
     <use xlink:href="#DejaVuSansMono-20" x="541.845703"/>
     <use xlink:href="#DejaVuSansMono-74" x="602.050781"/>
     <use xlink:href="#DejaVuSansMono-65" x="662.255859"/>
     <use xlink:href="#DejaVuSansMono-73" x="722.460938"/>
     <use xlink:href="#DejaVuSansMono-74" x="782.666016"/>
     <use xlink:href="#DejaVuSansMono-5f" x="842.871094"/>
     <use xlink:href="#DejaVuSansMono-73" x="903.076172"/>
     <use xlink:href="#DejaVuSansMono-69" x="963.28125"/>
     <use xlink:href="#DejaVuSansMono-7a" x="1023.486328"/>
     <use xlink:href="#DejaVuSansMono-65" x="1083.691406"/>
     <use xlink:href="#DejaVuSansMono-3d" x="1143.896484"/>
     <use xlink:href="#DejaVuSansMono-30" x="1204.101562"/>
     <use xlink:href="#DejaVuSansMono-2e" x="1264.306641"/>
     <use xlink:href="#DejaVuSansMono-32" x="1324.511719"/>
     <use xlink:href="#DejaVuSansMono-2c" x="1384.716797"/>
     <use xlink:href="#DejaVuSansMono-20" x="1444.921875"/>
     <use xlink:href="#DejaVuSansMono-72" x="1505.126953"/>
     <use xlink:href="#DejaVuSansMono-61" x="1565.332031"/>
     <use xlink:href="#DejaVuSansMono-6e" x="1625.537109"/>
     <use xlink:href="#DejaVuSansMono-64" x="1685.742188"/>
     <use xlink:href="#DejaVuSansMono-6f" x="1745.947266"/>
     <use xlink:href="#DejaVuSansMono-6d" x="1806.152344"/>
     <use xlink:href="#DejaVuSansMono-5f" x="1866.357422"/>
     <use xlink:href="#DejaVuSansMono-73" x="1926.5625"/>
     <use xlink:href="#DejaVuSansMono-74" x="1986.767578"/>
     <use xlink:href="#DejaVuSansMono-61" x="2046.972656"/>
     <use xlink:href="#DejaVuSansMono-74" x="2107.177734"/>
     <use xlink:href="#DejaVuSansMono-65" x="2167.382812"/>
     <use xlink:href="#DejaVuSansMono-3d" x="2227.587891"/>
     <use xlink:href="#DejaVuSansMono-34" x="2287.792969"/>
     <use xlink:href="#DejaVuSansMono-32" x="2347.998047"/>
     <use xlink:href="#DejaVuSansMono-2c" x="2408.203125"/>
     <use xlink:href="#DejaVuSansMono-20" x="2468.408203"/>
     <use xlink:href="#DejaVuSansMono-73" x="2528.613281"/>
     <use xlink:href="#DejaVuSansMono-74" x="2588.818359"/>
     <use xlink:href="#DejaVuSansMono-72" x="2649.023438"/>
     <use xlink:href="#DejaVuSansMono-61" x="2709.228516"/>
     <use xlink:href="#DejaVuSansMono-74" x="2769.433594"/>
     <use xlink:href="#DejaVuSansMono-69" x="2829.638672"/>
     <use xlink:href="#DejaVuSansMono-66" x="2889.84375"/>
     <use xlink:href="#DejaVuSansMono-79" x="2950.048828"/>
     <use xlink:href="#DejaVuSansMono-3d" x="3010.253906"/>
     <use xlink:href="#DejaVuSansMono-79" x="3070.458984"/>
     <use xlink:href="#DejaVuSansMono-20" x="3130.664062"/>
     <use xlink:href="#DejaVuSansMono-20" x="3190.869141"/>
     <use xlink:href="#DejaVuSansMono-23" x="3251.074219"/>
     <use xlink:href="#DejaVuSansMono-20" x="3311.279297"/>
     <use xlink:href="#DejaVuSansMono-73" x="3371.484375"/>
     <use xlink:href="#DejaVuSansMono-74" x="3431.689453"/>
     <use xlink:href="#DejaVuSansMono-72" x="3491.894531"/>
     <use xlink:href="#DejaVuSansMono-61" x="3552.099609"/>
     <use xlink:href="#DejaVuSansMono-74" x="3612.304688"/>
     <use xlink:href="#DejaVuSansMono-69" x="3672.509766"/>
     <use xlink:href="#DejaVuSansMono-66" x="3732.714844"/>
     <use xlink:href="#DejaVuSansMono-79" x="3792.919922"/>
     <use xlink:href="#DejaVuSansMono-3a" x="3853.125"/>
     <use xlink:href="#DejaVuSansMono-20" x="3913.330078"/>
     <use xlink:href="#DejaVuSansMono-54c1" x="3973.535156"/>
     <use xlink:href="#DejaVuSansMono-7a2e" x="4033.740234"/>
     <use xlink:href="#DejaVuSansMono-6bd4" x="4093.945312"/>
     <use xlink:href="#DejaVuSansMono-7387" x="4154.150391"/>
     <use xlink:href="#DejaVuSansMono-3092" x="4214.355469"/>
     <use xlink:href="#DejaVuSansMono-4fdd" x="4274.560547"/>
     <use xlink:href="#DejaVuSansMono-3064" x="4334.765625"/>
    </g>
   </g>
   <g id="text_13">
    <!-- ) -->
    <g style="fill: #cdd6f4" transform="translate(40.32 299.373234) scale(0.105 -0.105)">
     <defs>
      <path id="DejaVuSansMono-29" d="M 1088 4856 
L 1588 4856 
Q 2059 4119 2290 3412 
Q 2522 2706 2522 2009 
Q 2522 1306 2290 600 
Q 2059 -106 1588 -844 
L 1088 -844 
Q 1503 -119 1708 590 
Q 1913 1300 1913 2009 
Q 1913 2722 1708 3431 
Q 1503 4141 1088 4856 
z
" transform="scale(0.015625)"/>
     </defs>
     <use xlink:href="#DejaVuSansMono-29"/>
    </g>
   </g>
  </g>
 </g>
 <defs>
  <clipPath id="p62fb58c074">
   <rect x="0" y="-0" width="691.2" height="388.8"/>
  </clipPath>
 </defs>
</svg>
