<?xml version="1.0" encoding="utf-8" standalone="no"?>
<!DOCTYPE svg PUBLIC "-//W3C//DTD SVG 1.1//EN"
  "http://www.w3.org/Graphics/SVG/1.1/DTD/svg11.dtd">
<svg xmlns:xlink="http://www.w3.org/1999/xlink" width="691.2pt" height="388.8pt" viewBox="0 0 691.2 388.8" xmlns="http://www.w3.org/2000/svg" version="1.1">
 <metadata>
  <rdf:RDF xmlns:dc="http://purl.org/dc/elements/1.1/" xmlns:cc="http://creativecommons.org/ns#" xmlns:rdf="http://www.w3.org/1999/02/22-rdf-syntax-ns#">
   <cc:Work>
    <dc:type rdf:resource="http://purl.org/dc/dcmitype/StillImage"/>
    <dc:date>2026-04-09T02:37:46.029385</dc:date>
    <dc:format>image/svg+xml</dc:format>
    <dc:creator>
     <cc:Agent>
      <dc:title>Matplotlib v3.9.4, https://matplotlib.org/</dc:title>
     </cc:Agent>
    </dc:creator>
   </cc:Work>
  </rdf:RDF>
 </metadata>
 <defs>
  <style type="text/css">*{stroke-linejoin: round; stroke-linecap: butt}</style>
 </defs>
 <g id="figure_1">
  <g id="patch_1">
   <path d="M 0 388.8 
L 691.2 388.8 
L 691.2 0 
L 0 0 
z
" style="fill: #ffffff"/>
  </g>
  <g id="axes_1">
   <g id="patch_2">
    <path d="M 0 -0 
L 691.2 -0 
L 691.2 24.48 
L 0 24.48 
z
" clip-path="url(#p28093f8374)" style="fill: #c0392b"/>
   </g>
   <g id="patch_3">
    <path d="M 31.68 59.04 
L 659.52 59.04 
L 659.52 60.48 
L 31.68 60.48 
z
" clip-path="url(#p28093f8374)" style="fill: #ecf0f1"/>
   </g>
   <g id="patch_4">
    <path d="M 31.68 73.44 
L 143.28 73.44 
Q 147.6 73.44 147.6 77.76 
L 147.6 129.6 
Q 147.6 133.92 143.28 133.92 
L 31.68 133.92 
Q 27.36 133.92 27.36 129.6 
L 27.36 77.76 
Q 27.36 73.44 31.68 73.44 
z
" clip-path="url(#p28093f8374)" style="fill: #4a90d9"/>
   </g>
   <g id="patch_5">
    <path d="M 160.56 73.44 
L 272.16 73.44 
Q 276.48 73.44 276.48 77.76 
L 276.48 129.6 
Q 276.48 133.92 272.16 133.92 
L 160.56 133.92 
Q 156.24 133.92 156.24 129.6 
L 156.24 77.76 
Q 156.24 73.44 160.56 73.44 
z
" clip-path="url(#p28093f8374)" style="fill: #5ba85a"/>
   </g>
   <g id="patch_6">
    <path d="M 289.44 73.44 
L 401.04 73.44 
Q 405.36 73.44 405.36 77.76 
L 405.36 129.6 
Q 405.36 133.92 401.04 133.92 
L 289.44 133.92 
Q 285.12 133.92 285.12 129.6 
L 285.12 77.76 
Q 285.12 73.44 289.44 73.44 
z
" clip-path="url(#p28093f8374)" style="fill: #e8a838"/>
   </g>
   <g id="patch_7">
    <path d="M 418.32 73.44 
L 529.92 73.44 
Q 534.24 73.44 534.24 77.76 
L 534.24 129.6 
Q 534.24 133.92 529.92 133.92 
L 418.32 133.92 
Q 414 133.92 414 129.6 
L 414 77.76 
Q 414 73.44 418.32 73.44 
z
" clip-path="url(#p28093f8374)" style="fill: #c0392b"/>
   </g>
   <g id="patch_8">
    <path d="M 547.2 73.44 
L 658.8 73.44 
Q 663.12 73.44 663.12 77.76 
L 663.12 129.6 
Q 663.12 133.92 658.8 133.92 
L 547.2 133.92 
Q 542.88 133.92 542.88 129.6 
L 542.88 77.76 
Q 542.88 73.44 547.2 73.44 
z
" clip-path="url(#p28093f8374)" style="fill: #8e44ad"/>
   </g>
   <g id="patch_9">
    <path d="M 31.68 142.56 
L 74.88 142.56 
L 74.88 167.04 
L 31.68 167.04 
z
" clip-path="url(#p28093f8374)" style="fill: #c0392b; stroke: #ffffff; stroke-linejoin: miter"/>
   </g>
   <g id="patch_10">
    <path d="M 74.88 142.56 
L 290.88 142.56 
L 290.88 167.04 
L 74.88 167.04 
z
" clip-path="url(#p28093f8374)" style="fill: #c0392b; stroke: #ffffff; stroke-linejoin: miter"/>
   </g>
   <g id="patch_11">
    <path d="M 290.88 142.56 
L 659.52 142.56 
L 659.52 167.04 
L 290.88 167.04 
z
" clip-path="url(#p28093f8374)" style="fill: #c0392b; stroke: #ffffff; stroke-linejoin: miter"/>
   </g>
   <g id="patch_12">
    <path d="M 31.68 167.04 
L 74.88 167.04 
L 74.88 191.52 
L 31.68 191.52 
z
" clip-path="url(#p28093f8374)" style="fill: #ffffff; stroke: #ecf0f1; stroke-width: 0.5; stroke-linejoin: miter"/>
   </g>
   <g id="patch_13">
    <path d="M 74.88 167.04 
L 290.88 167.04 
L 290.88 191.52 
L 74.88 191.52 
z
" clip-path="url(#p28093f8374)" style="fill: #ffffff; stroke: #ecf0f1; stroke-width: 0.5; stroke-linejoin: miter"/>
   </g>
   <g id="patch_14">
    <path d="M 290.88 167.04 
L 659.52 167.04 
L 659.52 191.52 
L 290.88 191.52 
z
" clip-path="url(#p28093f8374)" style="fill: #ffffff; stroke: #ecf0f1; stroke-width: 0.5; stroke-linejoin: miter"/>
   </g>
   <g id="patch_15">
    <path d="M 31.68 191.52 
L 74.88 191.52 
L 74.88 216 
L 31.68 216 
z
" clip-path="url(#p28093f8374)" style="fill: #f8f9fa; stroke: #ecf0f1; stroke-width: 0.5; stroke-linejoin: miter"/>
   </g>
   <g id="patch_16">
    <path d="M 74.88 191.52 
L 290.88 191.52 
L 290.88 216 
L 74.88 216 
z
" clip-path="url(#p28093f8374)" style="fill: #f8f9fa; stroke: #ecf0f1; stroke-width: 0.5; stroke-linejoin: miter"/>
   </g>
   <g id="patch_17">
    <path d="M 290.88 191.52 
L 659.52 191.52 
L 659.52 216 
L 290.88 216 
z
" clip-path="url(#p28093f8374)" style="fill: #f8f9fa; stroke: #ecf0f1; stroke-width: 0.5; stroke-linejoin: miter"/>
   </g>
   <g id="patch_18">
    <path d="M 31.68 216 
L 74.88 216 
L 74.88 240.48 
L 31.68 240.48 
z
" clip-path="url(#p28093f8374)" style="fill: #ffffff; stroke: #ecf0f1; stroke-width: 0.5; stroke-linejoin: miter"/>
   </g>
   <g id="patch_19">
    <path d="M 74.88 216 
L 290.88 216 
L 290.88 240.48 
L 74.88 240.48 
z
" clip-path="url(#p28093f8374)" style="fill: #ffffff; stroke: #ecf0f1; stroke-width: 0.5; stroke-linejoin: miter"/>
   </g>
   <g id="patch_20">
    <path d="M 290.88 216 
L 659.52 216 
L 659.52 240.48 
L 290.88 240.48 
z
" clip-path="url(#p28093f8374)" style="fill: #ffffff; stroke: #ecf0f1; stroke-width: 0.5; stroke-linejoin: miter"/>
   </g>
   <g id="patch_21">
    <path d="M 31.68 240.48 
L 74.88 240.48 
L 74.88 264.96 
L 31.68 264.96 
z
" clip-path="url(#p28093f8374)" style="fill: #f8f9fa; stroke: #ecf0f1; stroke-width: 0.5; stroke-linejoin: miter"/>
   </g>
   <g id="patch_22">
    <path d="M 74.88 240.48 
L 290.88 240.48 
L 290.88 264.96 
L 74.88 264.96 
z
" clip-path="url(#p28093f8374)" style="fill: #f8f9fa; stroke: #ecf0f1; stroke-width: 0.5; stroke-linejoin: miter"/>
   </g>
   <g id="patch_23">
    <path d="M 290.88 240.48 
L 659.52 240.48 
L 659.52 264.96 
L 290.88 264.96 
z
" clip-path="url(#p28093f8374)" style="fill: #f8f9fa; stroke: #ecf0f1; stroke-width: 0.5; stroke-linejoin: miter"/>
   </g>
   <g id="patch_24">
    <path d="M 31.68 264.96 
L 74.88 264.96 
L 74.88 289.44 
L 31.68 289.44 
z
" clip-path="url(#p28093f8374)" style="fill: #ffffff; stroke: #ecf0f1; stroke-width: 0.5; stroke-linejoin: miter"/>
   </g>
   <g id="patch_25">
    <path d="M 74.88 264.96 
L 290.88 264.96 
L 290.88 289.44 
L 74.88 289.44 
z
" clip-path="url(#p28093f8374)" style="fill: #ffffff; stroke: #ecf0f1; stroke-width: 0.5; stroke-linejoin: miter"/>
   </g>
   <g id="patch_26">
    <path d="M 290.88 264.96 
L 659.52 264.96 
L 659.52 289.44 
L 290.88 289.44 
z
" clip-path="url(#p28093f8374)" style="fill: #ffffff; stroke: #ecf0f1; stroke-width: 0.5; stroke-linejoin: miter"/>
   </g>
   <g id="text_1">
    <!-- Ch.4 機械学習モデル構築 -->
    <g style="fill: #ffffff" transform="translate(31.68 15.09625) scale(0.1 -0.1)">
     <defs>
      <path id="IPAexGothic-43" d="M 4353 1088 
Q 4181 694 3859 428 
Q 3313 -31 2559 -31 
Q 1588 -31 959 653 
Q 378 1294 378 2331 
Q 378 3406 1013 4078 
Q 1619 4725 2534 4725 
Q 3813 4725 4322 3628 
L 3809 3391 
Q 3425 4238 2541 4238 
Q 1891 4238 1453 3744 
Q 994 3216 994 2322 
Q 994 1550 1384 1056 
Q 1841 472 2563 472 
Q 3456 472 3878 1319 
L 4353 1088 
z
" transform="scale(0.015625)"/>
      <path id="IPAexGothic-68" d="M 3347 63 
L 2797 63 
L 2797 2041 
Q 2797 2853 2131 2853 
Q 1447 2853 1131 2041 
L 1131 63 
L 581 63 
L 581 4794 
L 1131 4794 
L 1131 2706 
Q 1566 3316 2247 3316 
Q 3347 3316 3347 2072 
L 3347 63 
z
" transform="scale(0.015625)"/>
      <path id="IPAexGothic-2e" d="M 1184 63 
L 494 63 
L 494 753 
L 1184 753 
L 1184 63 
z
" transform="scale(0.015625)"/>
      <path id="IPAexGothic-34" d="M 3813 1159 
L 3059 1159 
L 3059 63 
L 2547 63 
L 2547 1159 
L 197 1159 
L 197 1672 
L 2456 4678 
L 3059 4678 
L 3059 1634 
L 3813 1634 
L 3813 1159 
z
M 2578 4109 
L 2559 4109 
Q 2278 3656 2003 3284 
L 759 1634 
L 2547 1634 
L 2547 3144 
Q 2547 3481 2578 4109 
z
" transform="scale(0.015625)"/>
      <path id="IPAexGothic-20" transform="scale(0.015625)"/>
      <path id="IPAexGothic-6a5f" d="M 3916 2125 
Q 3806 2984 3806 4238 
L 3806 5313 
L 4216 5313 
L 4216 4300 
Q 4216 3081 4300 2278 
L 4313 2150 
L 5175 2150 
Q 4984 2350 4822 2469 
L 5144 2669 
Q 5325 2541 5547 2309 
L 5309 2150 
L 6006 2150 
L 6006 1797 
L 4363 1797 
Q 4450 1278 4688 869 
Q 4931 1150 5194 1631 
L 5553 1431 
Q 5284 953 4913 531 
Q 4941 491 4959 475 
Q 5278 78 5438 78 
Q 5581 78 5669 844 
L 6066 628 
Q 5881 -422 5559 -422 
Q 5163 -422 4631 244 
Q 4069 -275 3384 -519 
L 3116 -191 
Q 3881 88 4406 569 
Q 4072 1116 3966 1772 
L 3084 1772 
Q 3078 1747 3078 1675 
Q 3078 1650 3063 1431 
Q 3534 1153 3934 781 
L 3684 441 
Q 3328 816 3031 1056 
Q 2906 91 2238 -494 
L 1950 -172 
Q 2478 241 2603 891 
Q 2659 1197 2681 1772 
L 2116 1772 
L 2116 2125 
L 3916 2125 
z
M 1113 2534 
Q 813 1522 384 794 
L 153 1250 
Q 763 2228 1063 3547 
L 294 3547 
L 294 3956 
L 1113 3956 
L 1113 5306 
L 1522 5306 
L 1522 3956 
L 2138 3956 
L 2138 3547 
L 1522 3547 
L 1522 2881 
Q 1875 2588 2150 2228 
L 1888 1884 
Q 1753 2144 1522 2434 
L 1522 -447 
L 1113 -447 
L 1113 2534 
z
M 2750 3334 
Q 2441 3850 2131 4159 
L 2347 4469 
Q 2384 4425 2509 4275 
Q 2734 4703 2913 5228 
L 3263 5025 
Q 3028 4447 2719 3988 
Q 2766 3919 2838 3803 
Q 2913 3684 2938 3647 
Q 3175 4066 3347 4434 
L 3666 4244 
Q 3263 3431 2809 2841 
Q 3097 2872 3347 2900 
Q 3347 2913 3334 2950 
Q 3313 3063 3231 3303 
L 3519 3372 
Q 3716 2891 3781 2413 
L 3456 2297 
Q 3453 2316 3428 2484 
Q 3416 2575 3403 2631 
Q 2906 2506 2175 2438 
L 2072 2797 
Q 2109 2800 2194 2803 
Q 2263 2806 2297 2809 
Q 2369 2809 2413 2816 
L 2438 2853 
Q 2538 2994 2750 3334 
z
M 4875 3413 
Q 4559 3916 4263 4206 
L 4478 4506 
Q 4494 4488 4559 4406 
Q 4609 4350 4641 4306 
Q 4891 4769 5038 5216 
L 5394 5013 
Q 5147 4466 4838 4025 
Q 4963 3844 5050 3700 
Q 5241 4019 5466 4469 
L 5784 4256 
Q 5497 3725 4991 3009 
Q 5356 3031 5547 3053 
Q 5466 3281 5381 3450 
L 5681 3553 
Q 5872 3181 6022 2669 
L 5709 2503 
Q 5697 2550 5663 2678 
Q 5641 2759 5631 2797 
Q 5019 2669 4434 2619 
L 4338 2975 
Q 4513 2975 4594 2981 
Q 4778 3256 4875 3413 
z
" transform="scale(0.015625)"/>
      <path id="IPAexGothic-68b0" d="M 4678 1275 
Q 4447 2122 4334 3547 
L 2344 3547 
L 2344 3956 
L 4300 3956 
Q 4247 4656 4231 5306 
L 4659 5306 
Q 4669 4741 4719 3981 
L 6044 3981 
L 6044 3572 
L 4750 3572 
L 4781 3284 
Q 4875 2322 4988 1806 
Q 5303 2409 5497 3100 
L 5894 2938 
Q 5572 1963 5134 1231 
Q 5247 834 5397 547 
Q 5513 322 5556 322 
Q 5656 322 5759 1225 
L 6131 941 
Q 5959 -350 5638 -350 
Q 5475 -350 5222 9 
Q 5006 319 4831 781 
Q 4278 41 3438 -478 
L 3150 -134 
Q 4069 381 4678 1275 
z
M 2778 2344 
L 2778 3216 
L 3169 3216 
L 3169 2344 
L 3572 2344 
L 3572 3216 
L 3963 3216 
L 3963 2344 
L 4384 2344 
L 4384 1966 
L 3963 1966 
L 3963 647 
L 3572 647 
L 3572 1966 
L 3169 1966 
Q 3156 1372 3097 1044 
Q 2991 463 2603 0 
L 2297 309 
Q 2778 856 2778 1966 
L 2344 1966 
L 2125 1634 
Q 1813 2106 1622 2338 
L 1622 -447 
L 1200 -447 
L 1200 2594 
Q 928 1569 450 794 
L 188 1256 
Q 850 2238 1147 3547 
L 322 3547 
L 322 3956 
L 1200 3956 
L 1200 5306 
L 1622 5306 
L 1622 3956 
L 2222 3956 
L 2222 3547 
L 1622 3547 
L 1622 2831 
Q 2053 2453 2344 2063 
L 2344 2344 
L 2778 2344 
z
M 5491 4141 
Q 5256 4613 4953 4991 
L 5319 5172 
Q 5603 4850 5869 4359 
L 5491 4141 
z
" transform="scale(0.015625)"/>
      <path id="IPAexGothic-5b66" d="M 1706 4050 
L 1688 4088 
Q 1525 4513 1244 4959 
L 1681 5150 
Q 1947 4791 2200 4216 
L 1763 4050 
L 3941 4050 
Q 4359 4628 4653 5234 
L 5138 5016 
Q 4822 4488 4472 4050 
L 5797 4050 
L 5797 2675 
L 5338 2675 
L 5338 3653 
L 1072 3653 
L 1072 2675 
L 613 2675 
L 613 4050 
L 1706 4050 
z
M 3444 1888 
L 3444 1650 
L 6078 1650 
L 6078 1241 
L 3475 1241 
L 3475 91 
Q 3475 -428 2834 -428 
Q 2319 -428 1875 -366 
L 1784 128 
Q 2278 25 2744 25 
Q 2994 25 2994 263 
L 2994 1241 
L 319 1241 
L 319 1650 
L 2969 1650 
L 2969 2113 
L 3000 2125 
Q 3559 2338 4116 2675 
L 1466 2675 
L 1466 3078 
L 4756 3078 
L 5019 2822 
Q 4338 2309 3444 1888 
z
M 3019 4072 
Q 2831 4609 2572 5044 
L 3006 5228 
Q 3275 4822 3500 4250 
L 3019 4072 
z
" transform="scale(0.015625)"/>
      <path id="IPAexGothic-7fd2" d="M 3006 5063 
L 3006 3047 
Q 3006 2781 2878 2675 
Q 2769 2584 2481 2584 
Q 2078 2584 1772 2631 
L 1716 3072 
Q 2159 2988 2347 2988 
Q 2566 2988 2566 3219 
L 2566 4678 
L 466 4678 
L 466 5063 
L 3006 5063 
z
M 5778 5063 
L 5778 3041 
Q 5778 2584 5288 2584 
Q 4916 2584 4519 2631 
L 4441 3066 
Q 4856 2988 5131 2988 
Q 5338 2988 5338 3206 
L 5338 4678 
L 3238 4678 
L 3238 5063 
L 5778 5063 
z
M 2866 2119 
Q 2950 2356 3013 2669 
L 3500 2572 
Q 3409 2322 3306 2119 
L 5325 2119 
L 5325 -447 
L 4856 -447 
L 4856 -172 
L 1619 -172 
L 1619 -447 
L 1150 -447 
L 1150 2119 
L 2866 2119 
z
M 1619 1747 
L 1619 1197 
L 4856 1197 
L 4856 1747 
L 1619 1747 
z
M 1619 831 
L 1619 206 
L 4856 206 
L 4856 831 
L 1619 831 
z
M 1594 3681 
Q 1219 4044 778 4341 
L 1056 4609 
Q 1525 4325 1869 3981 
L 1594 3681 
z
M 4269 3694 
Q 3816 4066 3403 4341 
L 3684 4622 
Q 4203 4294 4556 3994 
L 4269 3694 
z
M 447 2950 
Q 1328 3347 2225 3969 
L 2353 3622 
Q 1581 3056 691 2606 
L 447 2950 
z
M 3231 3059 
Q 4138 3444 4978 4031 
L 5113 3675 
Q 4281 3066 3463 2700 
L 3231 3059 
z
" transform="scale(0.015625)"/>
      <path id="IPAexGothic-30e2" d="M 1216 4409 
L 5147 4409 
L 5147 3950 
L 3053 3950 
L 3053 2797 
L 5644 2797 
L 5644 2328 
L 3053 2328 
L 3053 972 
Q 3053 669 3272 600 
Q 3453 544 4013 544 
Q 4556 544 5269 600 
L 5269 97 
Q 4684 50 4147 50 
Q 3025 50 2753 250 
Q 2541 403 2541 825 
L 2541 2328 
L 744 2328 
L 744 2797 
L 2541 2797 
L 2541 3950 
L 1216 3950 
L 1216 4409 
z
" transform="scale(0.015625)"/>
      <path id="IPAexGothic-30c7" d="M 563 3072 
L 5741 3072 
L 5741 2613 
L 3578 2613 
Q 3538 1516 3134 872 
Q 2688 156 1663 -256 
L 1313 156 
Q 2338 538 2713 1166 
Q 3003 1644 3034 2613 
L 563 2613 
L 563 3072 
z
M 1406 4588 
L 4588 4588 
L 4588 4128 
L 1406 4128 
L 1406 4588 
z
M 6009 4469 
Q 5647 5009 5253 5338 
L 5553 5569 
Q 5938 5259 6328 4744 
L 6009 4469 
z
M 5413 4000 
Q 5125 4491 4678 4891 
L 4991 5131 
Q 5363 4825 5747 4275 
L 5413 4000 
z
" transform="scale(0.015625)"/>
      <path id="IPAexGothic-30eb" d="M 353 331 
Q 1313 994 1544 2022 
Q 1684 2650 1684 4397 
L 2203 4397 
L 2203 4153 
L 2203 4116 
Q 2203 2259 1934 1491 
Q 1619 588 744 -38 
L 353 331 
z
M 3125 4666 
L 3650 4666 
L 3650 769 
Q 4875 1488 5672 2734 
L 6000 2278 
Q 5075 966 3516 63 
L 3125 359 
L 3125 4666 
z
" transform="scale(0.015625)"/>
      <path id="IPAexGothic-69cb" d="M 1206 2594 
Q 925 1575 456 788 
L 194 1250 
Q 856 2238 1153 3547 
L 328 3547 
L 328 3956 
L 1206 3956 
L 1206 5306 
L 1628 5306 
L 1628 3956 
L 2306 3956 
L 2306 3547 
L 1628 3547 
L 1628 2906 
Q 2213 2391 2447 2106 
L 2191 1647 
Q 1931 2031 1628 2406 
L 1628 -447 
L 1206 -447 
L 1206 2594 
z
M 5006 3194 
L 6100 3194 
L 6100 2841 
L 4328 2841 
L 4328 2509 
L 5647 2509 
L 5647 1025 
L 6131 1025 
L 6131 672 
L 5647 672 
L 5647 78 
Q 5647 -191 5525 -294 
Q 5413 -397 5106 -397 
Q 4716 -397 4409 -353 
L 4347 84 
Q 4759 13 5069 13 
Q 5228 13 5228 197 
L 5228 672 
L 3047 672 
L 3047 -447 
L 2631 -447 
L 2631 672 
L 1978 672 
L 1978 1025 
L 2631 1025 
L 2631 2509 
L 3913 2509 
L 3913 2841 
L 2175 2841 
L 2175 3194 
L 3222 3194 
L 3222 3631 
L 2522 3631 
L 2522 3956 
L 3222 3956 
L 3222 4369 
L 2291 4369 
L 2291 4709 
L 3222 4709 
L 3222 5313 
L 3644 5313 
L 3644 4709 
L 4591 4709 
L 4591 5313 
L 5006 5313 
L 5006 4709 
L 5953 4709 
L 5953 4369 
L 5006 4369 
L 5006 3956 
L 5759 3956 
L 5759 3631 
L 5006 3631 
L 5006 3194 
z
M 4591 3194 
L 4591 3631 
L 3644 3631 
L 3644 3194 
L 4591 3194 
z
M 4591 4369 
L 3644 4369 
L 3644 3956 
L 4591 3956 
L 4591 4369 
z
M 3047 2169 
L 3047 1759 
L 3925 1759 
L 3925 2169 
L 3047 2169 
z
M 3047 1434 
L 3047 1025 
L 3925 1025 
L 3925 1434 
L 3047 1434 
z
M 4316 2169 
L 4316 1759 
L 5228 1759 
L 5228 2169 
L 4316 2169 
z
M 4316 1434 
L 4316 1025 
L 5228 1025 
L 5228 1434 
L 4316 1434 
z
" transform="scale(0.015625)"/>
      <path id="IPAexGothic-7bc9" d="M 3397 1075 
L 3397 -447 
L 2956 -447 
L 2956 1031 
Q 2113 150 575 -319 
L 306 53 
Q 1706 406 2584 1159 
L 319 1159 
L 319 1544 
L 2956 1544 
L 2956 1922 
L 3397 1922 
L 3397 1544 
L 6078 1544 
L 6078 1159 
L 3859 1159 
Q 4634 591 6078 153 
L 5803 -238 
Q 4281 259 3397 1075 
z
M 1491 4878 
L 3175 4878 
L 3175 4506 
L 2163 4506 
L 2194 4450 
Q 2309 4231 2438 3919 
L 2034 3750 
Q 1866 4238 1709 4506 
L 1306 4506 
Q 1303 4503 1259 4428 
Q 997 3950 575 3597 
L 269 3872 
Q 900 4447 1203 5325 
L 1638 5244 
Q 1519 4938 1491 4878 
z
M 3944 4878 
L 6003 4878 
L 6003 4506 
L 4634 4506 
Q 4788 4300 4966 3950 
L 4563 3784 
Q 4350 4234 4159 4506 
L 3763 4506 
Q 3503 4047 3169 3719 
L 2853 4000 
Q 3369 4488 3659 5331 
L 4078 5250 
Q 4003 5009 3944 4878 
z
M 1931 3159 
L 1931 2550 
Q 2200 2622 2884 2813 
L 2909 2488 
Q 1816 2075 619 1841 
L 434 2238 
Q 947 2322 1431 2438 
L 1516 2456 
L 1516 3159 
L 556 3159 
L 556 3525 
L 2909 3525 
L 2909 3159 
L 1931 3159 
z
M 5094 3628 
L 5094 2475 
Q 5094 2316 5344 2316 
Q 5603 2316 5631 2450 
Q 5650 2534 5656 2872 
L 5663 2956 
L 6059 2834 
Q 6059 2709 6041 2525 
Q 6041 2509 6034 2447 
Q 6031 2413 6028 2397 
Q 6019 2150 5881 2022 
Q 5769 1919 5319 1919 
Q 4997 1919 4863 1969 
Q 4697 2038 4697 2269 
L 4697 3269 
L 3622 3269 
L 3622 3103 
Q 3622 2488 3300 2169 
Q 3125 1994 2784 1834 
L 2488 2128 
Q 2859 2294 3000 2438 
Q 3225 2659 3225 3091 
L 3225 3628 
L 5094 3628 
z
M 4359 2169 
Q 3953 2584 3666 2797 
L 3909 3072 
Q 4256 2822 4622 2478 
L 4359 2169 
z
" transform="scale(0.015625)"/>
     </defs>
     <use xlink:href="#IPAexGothic-43"/>
     <use xlink:href="#IPAexGothic-68" x="72.509766"/>
     <use xlink:href="#IPAexGothic-2e" x="133.203125"/>
     <use xlink:href="#IPAexGothic-34" x="159.619141"/>
     <use xlink:href="#IPAexGothic-20" x="222.607422"/>
     <use xlink:href="#IPAexGothic-6a5f" x="249.609375"/>
     <use xlink:href="#IPAexGothic-68b0" x="349.609375"/>
     <use xlink:href="#IPAexGothic-5b66" x="449.609375"/>
     <use xlink:href="#IPAexGothic-7fd2" x="549.609375"/>
     <use xlink:href="#IPAexGothic-30e2" x="649.609375"/>
     <use xlink:href="#IPAexGothic-30c7" x="749.609375"/>
     <use xlink:href="#IPAexGothic-30eb" x="849.609375"/>
     <use xlink:href="#IPAexGothic-69cb" x="949.609375"/>
     <use xlink:href="#IPAexGothic-7bc9" x="1049.609375"/>
    </g>
   </g>
   <g id="text_2">
    <!-- 機械学習の全体ワークフロー -->
    <g style="fill: #1a1a2e" transform="translate(31.68 55.4175) scale(0.24 -0.24)">
     <defs>
      <path id="IPAexGothic-306e" d="M 3119 469 
Q 5275 766 5275 2425 
Q 5275 3453 4413 3925 
Q 4041 4116 3547 4159 
Q 3394 2525 2850 1400 
Q 2322 306 1722 306 
Q 1384 306 1084 666 
Q 609 1244 609 2003 
Q 609 3025 1397 3794 
Q 2184 4563 3431 4563 
Q 4306 4563 4928 4122 
Q 5813 3506 5813 2425 
Q 5813 438 3431 6 
L 3119 469 
z
M 3053 4147 
Q 2378 4044 1891 3641 
Q 1097 2981 1097 1991 
Q 1097 1366 1434 978 
Q 1581 813 1719 813 
Q 2022 813 2416 1625 
Q 2909 2638 3053 4147 
z
" transform="scale(0.015625)"/>
      <path id="IPAexGothic-5168" d="M 3416 2778 
L 3416 1747 
L 5284 1747 
L 5284 1338 
L 3416 1338 
L 3416 184 
L 5859 184 
L 5859 -231 
L 547 -231 
L 547 184 
L 2941 184 
L 2941 1338 
L 1116 1338 
L 1116 1747 
L 2941 1747 
L 2941 2778 
L 1666 2778 
L 1666 3091 
Q 1188 2744 597 2472 
L 316 2847 
Q 2006 3569 2888 5197 
L 3441 5197 
Q 4491 3763 6116 3041 
L 5816 2619 
Q 4231 3413 3172 4775 
Q 2603 3834 1788 3181 
L 4803 3181 
L 4803 2778 
L 3416 2778 
z
" transform="scale(0.015625)"/>
      <path id="IPAexGothic-4f53" d="M 4253 3481 
Q 4869 2069 6041 1138 
L 5688 703 
Q 4541 1841 4069 3122 
L 4069 1228 
L 4925 1228 
L 4925 831 
L 4081 831 
L 4081 -450 
L 3613 -450 
L 3613 831 
L 2781 831 
L 2781 1228 
L 3628 1228 
L 3628 3097 
Q 3216 1703 2063 556 
L 1706 928 
Q 2844 1875 3441 3481 
L 1969 3481 
L 1969 3897 
L 3613 3897 
L 3613 5209 
L 4081 5209 
L 4081 3897 
L 5872 3897 
L 5872 3481 
L 4253 3481 
z
M 1572 3700 
L 1572 -441 
L 1119 -441 
L 1119 2778 
Q 888 2363 550 1913 
L 300 2303 
Q 1219 3575 1591 5241 
L 2041 5125 
Q 1844 4356 1572 3700 
z
" transform="scale(0.015625)"/>
      <path id="IPAexGothic-30ef" d="M 1031 4391 
L 5025 4391 
L 5350 4097 
Q 5131 2372 4456 1375 
Q 3800 400 2509 -116 
L 2131 325 
Q 3478 775 4078 1753 
Q 4625 2647 4769 3903 
L 1575 3903 
L 1575 2363 
L 1031 2363 
L 1031 4391 
z
" transform="scale(0.015625)"/>
      <path id="IPAexGothic-30fc" d="M 588 2688 
L 5809 2688 
L 5809 2175 
L 588 2175 
L 588 2688 
z
" transform="scale(0.015625)"/>
      <path id="IPAexGothic-30af" d="M 4934 4191 
L 5272 3941 
Q 4894 2334 4031 1300 
Q 3275 391 2028 -225 
L 1656 184 
Q 2875 691 3641 1625 
Q 4403 2553 4691 3731 
L 2903 3731 
Q 2188 2653 1356 1959 
L 978 2309 
Q 2328 3400 2931 5022 
L 3422 4881 
Q 3363 4672 3141 4191 
L 4934 4191 
z
" transform="scale(0.015625)"/>
      <path id="IPAexGothic-30d5" d="M 4966 4294 
L 5263 4019 
Q 4819 894 1966 -97 
L 1600 353 
Q 4234 1156 4684 3822 
L 1044 3756 
L 1044 4244 
L 4966 4294 
z
" transform="scale(0.015625)"/>
      <path id="IPAexGothic-30ed" d="M 1147 4269 
L 5250 4269 
L 5250 172 
L 4725 172 
L 4725 569 
L 1672 569 
L 1672 172 
L 1147 172 
L 1147 4269 
z
M 1672 3781 
L 1672 1063 
L 4725 1063 
L 4725 3781 
L 1672 3781 
z
" transform="scale(0.015625)"/>
     </defs>
     <use xlink:href="#IPAexGothic-6a5f"/>
     <use xlink:href="#IPAexGothic-68b0" x="100"/>
     <use xlink:href="#IPAexGothic-5b66" x="200"/>
     <use xlink:href="#IPAexGothic-7fd2" x="300"/>
     <use xlink:href="#IPAexGothic-306e" x="400"/>
     <use xlink:href="#IPAexGothic-5168" x="500"/>
     <use xlink:href="#IPAexGothic-4f53" x="600"/>
     <use xlink:href="#IPAexGothic-30ef" x="700"/>
     <use xlink:href="#IPAexGothic-30fc" x="800"/>
     <use xlink:href="#IPAexGothic-30af" x="900"/>
     <use xlink:href="#IPAexGothic-30d5" x="1000"/>
     <use xlink:href="#IPAexGothic-30ed" x="1100"/>
     <use xlink:href="#IPAexGothic-30fc" x="1200"/>
    </g>
   </g>
   <g id="text_3">
    <!-- ① データ準備 -->
    <g style="fill: #ffffff" transform="translate(52.995 98.639055) scale(0.11 -0.11)">
     <defs>
      <path id="IPAexGothic-2460" d="M 3013 391 
L 3013 3847 
Q 2625 3653 2291 3572 
L 2291 4050 
Q 2731 4156 3147 4475 
L 3563 4475 
L 3563 391 
L 3013 391 
z
M 3213 5459 
Q 3938 5459 4606 5100 
Q 5203 4778 5616 4231 
Q 6225 3409 6225 2425 
Q 6225 1694 5866 1025 
Q 5534 413 4997 16 
Q 4175 -594 3194 -594 
Q 2431 -594 1766 -222 
Q 1166 109 759 659 
Q 172 1463 172 2441 
Q 172 3878 1344 4800 
Q 2163 5459 3213 5459 
z
M 3184 5166 
Q 2550 5166 1963 4859 
Q 1416 4581 1041 4091 
Q 466 3350 466 2425 
Q 466 1784 772 1197 
Q 1050 650 1541 275 
Q 2281 -300 3206 -300 
Q 3847 -300 4434 6 
Q 4981 284 5356 775 
Q 5931 1516 5931 2434 
Q 5931 3719 4900 4556 
Q 4138 5166 3184 5166 
z
" transform="scale(0.015625)"/>
      <path id="IPAexGothic-30bf" d="M 4978 4263 
L 5313 3988 
Q 4797 2431 4056 1459 
Q 3191 325 1822 -300 
L 1466 109 
Q 2131 381 2613 738 
Q 3053 1066 3531 1600 
Q 2919 2225 2144 2791 
Q 1603 2203 1172 1875 
L 825 2234 
Q 2316 3328 2866 5031 
L 3359 4897 
Q 3325 4775 3109 4263 
L 4978 4263 
z
M 2894 3816 
Q 2709 3522 2438 3169 
Q 3194 2616 3841 2003 
Q 4366 2806 4747 3816 
L 2894 3816 
z
" transform="scale(0.015625)"/>
      <path id="IPAexGothic-6e96" d="M 4341 4141 
L 4341 3694 
L 5506 3694 
L 5506 3353 
L 4341 3353 
L 4341 2906 
L 5506 2906 
L 5506 2566 
L 4341 2566 
L 4341 2088 
L 5922 2088 
L 5922 1722 
L 3413 1722 
L 3413 1100 
L 6081 1100 
L 6081 703 
L 3413 703 
L 3413 -450 
L 2938 -450 
L 2938 703 
L 319 703 
L 319 1100 
L 2938 1100 
L 2938 1722 
L 2450 1722 
L 2450 3644 
Q 2288 3441 2047 3188 
L 1759 3528 
Q 2531 4259 2841 5288 
L 3297 5166 
Q 3156 4800 3003 4500 
L 3969 4500 
Q 4163 4869 4284 5269 
L 4756 5159 
Q 4572 4759 4409 4500 
L 5794 4500 
L 5794 4141 
L 4341 4141 
z
M 3931 4141 
L 2878 4141 
L 2878 3694 
L 3931 3694 
L 3931 4141 
z
M 2878 2088 
L 3931 2088 
L 3931 2566 
L 2878 2566 
L 2878 2088 
z
M 2878 2906 
L 3931 2906 
L 3931 3353 
L 2878 3353 
L 2878 2906 
z
M 497 1778 
Q 1053 2316 1625 3178 
L 1913 2897 
Q 1484 2128 875 1431 
L 497 1778 
z
M 1559 4134 
Q 1109 4519 678 4769 
L 941 5131 
Q 1494 4831 1834 4519 
L 1559 4134 
z
M 1297 3141 
Q 997 3388 397 3763 
L 631 4122 
Q 1153 3847 1547 3538 
L 1297 3141 
z
" transform="scale(0.015625)"/>
      <path id="IPAexGothic-5099" d="M 1394 3719 
L 1394 -447 
L 966 -447 
L 966 2700 
Q 750 2272 478 1869 
L 244 2272 
Q 1044 3534 1388 5319 
L 1816 5209 
Q 1638 4391 1394 3719 
z
M 2991 4538 
L 2991 5313 
L 3419 5313 
L 3419 4538 
L 4384 4538 
L 4384 5313 
L 4813 5313 
L 4813 4538 
L 5819 4538 
L 5819 4178 
L 4813 4178 
L 4813 3541 
L 6047 3541 
L 6047 3181 
L 2369 3181 
L 2369 2528 
Q 2369 1313 2228 666 
Q 2097 75 1794 -397 
L 1447 -81 
Q 1775 428 1869 1153 
Q 1941 1706 1941 2553 
L 1941 3541 
L 2991 3541 
L 2991 4178 
L 2038 4178 
L 2038 4538 
L 2991 4538 
z
M 4384 4178 
L 3419 4178 
L 3419 3541 
L 4384 3541 
L 4384 4178 
z
M 5653 2731 
L 5653 -19 
Q 5653 -409 5238 -409 
Q 4950 -409 4731 -384 
L 4666 31 
Q 4856 -13 5066 -13 
Q 5238 -13 5238 172 
L 5238 738 
L 4347 738 
L 4347 -288 
L 3944 -288 
L 3944 738 
L 3103 738 
L 3103 -447 
L 2681 -447 
L 2681 2731 
L 5653 2731 
z
M 3103 2378 
L 3103 1906 
L 3944 1906 
L 3944 2378 
L 3103 2378 
z
M 3103 1566 
L 3103 1078 
L 3944 1078 
L 3944 1566 
L 3103 1566 
z
M 5238 1078 
L 5238 1566 
L 4347 1566 
L 4347 1078 
L 5238 1078 
z
M 5238 1906 
L 5238 2378 
L 4347 2378 
L 4347 1906 
L 5238 1906 
z
" transform="scale(0.015625)"/>
     </defs>
     <use xlink:href="#IPAexGothic-2460"/>
     <use xlink:href="#IPAexGothic-20" x="100"/>
     <use xlink:href="#IPAexGothic-30c7" x="127.001953"/>
     <use xlink:href="#IPAexGothic-30fc" x="227.001953"/>
     <use xlink:href="#IPAexGothic-30bf" x="327.001953"/>
     <use xlink:href="#IPAexGothic-6e96" x="427.001953"/>
     <use xlink:href="#IPAexGothic-5099" x="527.001953"/>
    </g>
   </g>
   <g id="text_4">
    <!-- ・分割 -->
    <g style="fill: #ffffff" transform="translate(70.98 122.071207) scale(0.11 -0.11)">
     <defs>
      <path id="IPAexGothic-30fb" d="M 2772 2859 
L 3628 2859 
L 3628 2003 
L 2772 2003 
L 2772 2859 
z
" transform="scale(0.015625)"/>
      <path id="IPAexGothic-5206" d="M 3031 2431 
Q 2916 1378 2528 759 
Q 1991 -81 941 -469 
L 625 -53 
Q 2356 488 2541 2431 
L 1375 2431 
L 1375 2772 
Q 1044 2431 653 2156 
L 313 2534 
Q 1600 3425 2219 5056 
L 2688 4875 
Q 2200 3672 1453 2847 
L 4966 2847 
Q 4878 559 4741 94 
Q 4666 -163 4459 -250 
Q 4288 -322 3941 -322 
Q 3525 -322 2981 -263 
L 2884 256 
Q 3441 138 3844 138 
Q 4213 138 4281 438 
Q 4388 931 4472 2431 
L 3031 2431 
z
M 5747 2303 
Q 4416 3238 3506 4934 
L 3934 5113 
Q 4747 3572 6084 2747 
L 5747 2303 
z
" transform="scale(0.015625)"/>
      <path id="IPAexGothic-5272" d="M 2325 4209 
L 2325 3713 
L 3272 3713 
L 3272 3381 
L 2325 3381 
L 2325 2950 
L 3494 2950 
L 3494 2619 
L 2325 2619 
L 2325 2175 
L 3956 2175 
L 3956 1809 
L 353 1809 
L 353 2175 
L 1909 2175 
L 1909 2619 
L 753 2619 
L 753 2950 
L 1909 2950 
L 1909 3381 
L 984 3381 
L 984 3713 
L 1909 3713 
L 1909 4209 
L 838 4209 
L 838 3609 
L 409 3609 
L 409 4569 
L 1903 4569 
L 1903 5313 
L 2338 5313 
L 2338 4569 
L 3872 4569 
L 3872 3609 
L 3444 3609 
L 3444 4209 
L 2325 4209 
z
M 3388 1397 
L 3388 -384 
L 2966 -384 
L 2966 -122 
L 1269 -122 
L 1269 -447 
L 847 -447 
L 847 1397 
L 3388 1397 
z
M 1269 1038 
L 1269 238 
L 2966 238 
L 2966 1038 
L 1269 1038 
z
M 4259 4550 
L 4700 4550 
L 4700 953 
L 4259 953 
L 4259 4550 
z
M 5403 5081 
L 5844 5081 
L 5844 159 
Q 5844 -106 5747 -231 
Q 5634 -372 5263 -372 
Q 4763 -372 4391 -325 
L 4303 141 
Q 4803 75 5206 75 
Q 5403 75 5403 300 
L 5403 5081 
z
" transform="scale(0.015625)"/>
     </defs>
     <use xlink:href="#IPAexGothic-30fb"/>
     <use xlink:href="#IPAexGothic-5206" x="100"/>
     <use xlink:href="#IPAexGothic-5272" x="200"/>
    </g>
   </g>
   <g id="text_5">
    <!-- → -->
    <g style="fill: #95a5a6" transform="translate(144.72 107.872969) scale(0.15 -0.15)">
     <defs>
      <path id="IPAexGothic-2192" d="M 3947 3572 
L 4631 3572 
L 6072 2431 
L 4631 1294 
L 3947 1294 
L 5094 2194 
L 459 2194 
L 459 2669 
L 5094 2669 
L 3947 3572 
z
" transform="scale(0.015625)"/>
     </defs>
     <use xlink:href="#IPAexGothic-2192"/>
    </g>
   </g>
   <g id="text_6">
    <!-- ② 前処理 -->
    <g style="fill: #ffffff" transform="translate(192.875 98.544524) scale(0.11 -0.11)">
     <defs>
      <path id="IPAexGothic-2461" d="M 4659 519 
L 1797 519 
Q 2019 1709 3275 2478 
Q 3694 2731 3859 2916 
Q 4038 3113 4038 3419 
Q 4038 3728 3831 3931 
Q 3609 4156 3275 4156 
Q 2869 4156 2609 3791 
Q 2434 3547 2425 3175 
L 1863 3175 
Q 1919 3772 2213 4122 
Q 2616 4603 3275 4603 
Q 3713 4603 4044 4384 
Q 4575 4038 4575 3419 
Q 4575 2663 3653 2166 
Q 2691 1634 2481 1006 
L 4659 1006 
L 4659 519 
z
M 3213 5459 
Q 3938 5459 4606 5100 
Q 5203 4778 5616 4231 
Q 6225 3409 6225 2425 
Q 6225 1694 5866 1025 
Q 5534 413 4997 16 
Q 4175 -594 3194 -594 
Q 2431 -594 1766 -222 
Q 1166 109 759 659 
Q 172 1463 172 2441 
Q 172 3878 1344 4800 
Q 2163 5459 3213 5459 
z
M 3184 5166 
Q 2550 5166 1963 4859 
Q 1416 4581 1041 4091 
Q 466 3350 466 2425 
Q 466 1784 772 1197 
Q 1050 650 1541 275 
Q 2281 -300 3206 -300 
Q 3847 -300 4434 6 
Q 4981 284 5356 775 
Q 5931 1516 5931 2434 
Q 5931 3719 4900 4556 
Q 4138 5166 3184 5166 
z
" transform="scale(0.015625)"/>
      <path id="IPAexGothic-524d" d="M 3653 4281 
Q 3913 4741 4134 5319 
L 4638 5184 
Q 4453 4769 4153 4281 
L 6078 4281 
L 6078 3872 
L 319 3872 
L 319 4281 
L 3653 4281 
z
M 3006 3366 
L 3006 25 
Q 3006 -219 2897 -306 
Q 2797 -391 2522 -391 
Q 2294 -391 1938 -359 
L 1881 84 
Q 2178 25 2413 25 
Q 2578 25 2578 172 
L 2578 1031 
L 1228 1031 
L 1228 -447 
L 794 -447 
L 794 3366 
L 3006 3366 
z
M 1228 2981 
L 1228 2394 
L 2578 2394 
L 2578 2981 
L 1228 2981 
z
M 1228 2022 
L 1228 1403 
L 2578 1403 
L 2578 2022 
L 1228 2022 
z
M 2131 4294 
Q 1934 4769 1656 5106 
L 2078 5300 
Q 2353 4959 2584 4500 
L 2131 4294 
z
M 3834 3238 
L 4275 3238 
L 4275 684 
L 3834 684 
L 3834 3238 
z
M 5147 3425 
L 5600 3425 
L 5600 97 
Q 5600 -172 5497 -275 
Q 5384 -409 5013 -409 
Q 4634 -409 4169 -359 
L 4109 97 
Q 4550 19 4934 19 
Q 5147 19 5147 231 
L 5147 3425 
z
" transform="scale(0.015625)"/>
      <path id="IPAexGothic-51e6" d="M 2144 1263 
Q 2538 638 3147 425 
Q 3628 253 4741 253 
Q 5266 253 6163 303 
Q 6038 63 6009 -216 
Q 5450 -234 5094 -234 
Q 3675 -234 3097 -38 
Q 2388 206 1919 884 
Q 1366 6 734 -478 
L 397 -106 
Q 1128 384 1675 1306 
Q 1341 1969 1138 2913 
Q 934 2309 606 1775 
L 306 2159 
Q 1069 3425 1319 5219 
L 1759 5116 
Q 1694 4763 1631 4481 
L 2650 4481 
L 2903 4275 
Q 2759 2447 2144 1263 
z
M 1900 1744 
Q 2356 2797 2469 4066 
L 1528 4066 
Q 1463 3822 1388 3625 
Q 1534 2575 1900 1744 
z
M 5056 4756 
L 5056 1466 
Q 5056 1263 5269 1263 
Q 5466 1263 5484 1475 
Q 5506 1600 5516 2081 
L 5525 2222 
L 5953 2069 
Q 5944 1234 5831 1038 
Q 5728 859 5216 859 
Q 4888 859 4750 950 
Q 4622 1038 4622 1294 
L 4622 4353 
L 3872 4353 
L 3872 3759 
Q 3872 2544 3744 1916 
Q 3600 1244 3141 706 
L 2813 1025 
Q 3256 1563 3372 2369 
Q 3428 2809 3428 3566 
L 3428 4756 
L 5056 4756 
z
" transform="scale(0.015625)"/>
      <path id="IPAexGothic-7406" d="M 1541 4397 
L 1541 3084 
L 2219 3084 
L 2219 2688 
L 1541 2688 
L 1541 1247 
Q 1919 1356 2397 1522 
L 2431 1144 
Q 1353 713 434 472 
L 263 909 
Q 763 1025 1113 1119 
L 1113 2688 
L 441 2688 
L 441 3084 
L 1113 3084 
L 1113 4397 
L 369 4397 
L 369 4800 
L 2347 4800 
L 2347 4397 
L 1541 4397 
z
M 5691 4991 
L 5691 2106 
L 4378 2106 
L 4378 1375 
L 5825 1375 
L 5825 984 
L 4378 984 
L 4378 206 
L 6081 206 
L 6081 -191 
L 2150 -191 
L 2150 206 
L 3944 206 
L 3944 984 
L 2559 984 
L 2559 1375 
L 3944 1375 
L 3944 2106 
L 2675 2106 
L 2675 4991 
L 5691 4991 
z
M 3091 4606 
L 3091 3750 
L 3956 3750 
L 3956 4606 
L 3091 4606 
z
M 3091 3378 
L 3091 2491 
L 3956 2491 
L 3956 3378 
L 3091 3378 
z
M 5275 2491 
L 5275 3378 
L 4366 3378 
L 4366 2491 
L 5275 2491 
z
M 5275 3750 
L 5275 4606 
L 4366 4606 
L 4366 3750 
L 5275 3750 
z
" transform="scale(0.015625)"/>
     </defs>
     <use xlink:href="#IPAexGothic-2461"/>
     <use xlink:href="#IPAexGothic-20" x="100"/>
     <use xlink:href="#IPAexGothic-524d" x="127.001953"/>
     <use xlink:href="#IPAexGothic-51e6" x="227.001953"/>
     <use xlink:href="#IPAexGothic-7406" x="327.001953"/>
    </g>
   </g>
   <g id="text_7">
    <!-- スケーリング -->
    <g style="fill: #ffffff" transform="translate(183.36 122.071207) scale(0.11 -0.11)">
     <defs>
      <path id="IPAexGothic-30b9" d="M 4359 4481 
L 4716 4147 
Q 4328 3072 3647 2150 
Q 4659 1434 5659 453 
L 5234 19 
Q 4256 1088 3353 1778 
Q 2372 597 1044 -31 
L 653 403 
Q 3128 1453 4097 4000 
L 1241 3963 
L 1228 4453 
L 4359 4481 
z
" transform="scale(0.015625)"/>
      <path id="IPAexGothic-30b1" d="M 5638 3275 
L 4178 3275 
Q 4141 1972 3738 1234 
Q 3241 322 2150 -256 
L 1766 141 
Q 2931 678 3353 1644 
Q 3619 2263 3647 3275 
L 2097 3275 
Q 1694 2456 972 1784 
L 594 2128 
Q 1781 3203 2138 4966 
L 2628 4856 
Q 2503 4281 2303 3744 
L 5638 3744 
L 5638 3275 
z
" transform="scale(0.015625)"/>
      <path id="IPAexGothic-30ea" d="M 1678 4788 
L 2222 4788 
L 2222 1900 
L 1678 1900 
L 1678 4788 
z
M 4084 4909 
L 4628 4909 
L 4628 2753 
Q 4628 1563 4150 794 
Q 3725 119 2772 -353 
L 2394 78 
Q 3334 494 3706 1094 
Q 4084 1703 4084 2725 
L 4084 4909 
z
" transform="scale(0.015625)"/>
      <path id="IPAexGothic-30f3" d="M 2444 3084 
Q 1816 3656 1056 4084 
L 1381 4519 
Q 2063 4191 2816 3559 
L 2444 3084 
z
M 1100 609 
Q 3984 1106 5216 3828 
L 5619 3469 
Q 4413 794 1434 103 
L 1100 609 
z
" transform="scale(0.015625)"/>
      <path id="IPAexGothic-30b0" d="M 4769 4128 
L 5106 3878 
Q 4728 2272 3866 1238 
Q 3106 328 1863 -288 
L 1491 122 
Q 2709 628 3475 1563 
Q 4238 2491 4525 3669 
L 2738 3669 
Q 2022 2591 1191 1897 
L 813 2247 
Q 2163 3338 2766 4959 
L 3256 4819 
Q 3197 4609 2975 4128 
L 4769 4128 
z
M 6009 4422 
Q 5647 4966 5253 5294 
L 5556 5522 
Q 5941 5213 6328 4697 
L 6009 4422 
z
M 5416 3956 
Q 5125 4447 4678 4844 
L 4991 5088 
Q 5363 4781 5747 4231 
L 5416 3956 
z
" transform="scale(0.015625)"/>
     </defs>
     <use xlink:href="#IPAexGothic-30b9"/>
     <use xlink:href="#IPAexGothic-30b1" x="100"/>
     <use xlink:href="#IPAexGothic-30fc" x="200"/>
     <use xlink:href="#IPAexGothic-30ea" x="300"/>
     <use xlink:href="#IPAexGothic-30f3" x="400"/>
     <use xlink:href="#IPAexGothic-30b0" x="500"/>
    </g>
   </g>
   <g id="text_8">
    <!-- → -->
    <g style="fill: #95a5a6" transform="translate(273.6 107.872969) scale(0.15 -0.15)">
     <use xlink:href="#IPAexGothic-2192"/>
    </g>
   </g>
   <g id="text_9">
    <!-- ③ モデル -->
    <g style="fill: #ffffff" transform="translate(321.755 98.639055) scale(0.11 -0.11)">
     <defs>
      <path id="IPAexGothic-2462" d="M 2628 2778 
L 3116 2778 
Q 3984 2778 3984 3450 
Q 3984 3775 3716 3956 
Q 3516 4091 3203 4091 
Q 2491 4091 2388 3438 
L 1816 3438 
Q 1931 3981 2334 4269 
Q 2709 4538 3203 4538 
Q 3681 4538 4031 4319 
Q 4497 4025 4497 3494 
Q 4497 2825 3769 2588 
Q 4697 2309 4697 1544 
Q 4697 975 4244 634 
Q 3828 328 3231 328 
Q 2706 328 2297 591 
Q 1791 916 1716 1538 
L 2284 1538 
Q 2322 1166 2622 959 
Q 2881 788 3231 788 
Q 3534 788 3775 922 
Q 4159 1144 4159 1556 
Q 4159 1991 3763 2203 
Q 3509 2344 3116 2344 
L 2628 2344 
L 2628 2778 
z
M 3213 5459 
Q 3938 5459 4606 5100 
Q 5203 4778 5616 4231 
Q 6225 3409 6225 2425 
Q 6225 1694 5866 1025 
Q 5534 413 4997 16 
Q 4175 -594 3194 -594 
Q 2431 -594 1766 -222 
Q 1166 109 759 659 
Q 172 1463 172 2441 
Q 172 3878 1344 4800 
Q 2163 5459 3213 5459 
z
M 3184 5166 
Q 2550 5166 1963 4859 
Q 1416 4581 1041 4091 
Q 466 3350 466 2425 
Q 466 1784 772 1197 
Q 1050 650 1541 275 
Q 2281 -300 3206 -300 
Q 3847 -300 4434 6 
Q 4981 284 5356 775 
Q 5931 1516 5931 2434 
Q 5931 3719 4900 4556 
Q 4138 5166 3184 5166 
z
" transform="scale(0.015625)"/>
     </defs>
     <use xlink:href="#IPAexGothic-2462"/>
     <use xlink:href="#IPAexGothic-20" x="100"/>
     <use xlink:href="#IPAexGothic-30e2" x="127.001953"/>
     <use xlink:href="#IPAexGothic-30c7" x="227.001953"/>
     <use xlink:href="#IPAexGothic-30eb" x="327.001953"/>
    </g>
   </g>
   <g id="text_10">
    <!-- 学習 -->
    <g style="fill: #ffffff" transform="translate(334.24 122.071207) scale(0.11 -0.11)">
     <use xlink:href="#IPAexGothic-5b66"/>
     <use xlink:href="#IPAexGothic-7fd2" x="100"/>
    </g>
   </g>
   <g id="text_11">
    <!-- → -->
    <g style="fill: #95a5a6" transform="translate(402.48 107.872969) scale(0.15 -0.15)">
     <use xlink:href="#IPAexGothic-2192"/>
    </g>
   </g>
   <g id="text_12">
    <!-- ④ 予測 -->
    <g style="fill: #ffffff" transform="translate(456.135 113.271797) scale(0.11 -0.11)">
     <defs>
      <path id="IPAexGothic-2463" d="M 3391 4472 
L 3928 4472 
L 3928 1803 
L 4716 1803 
L 4716 1356 
L 3928 1356 
L 3928 391 
L 3428 391 
L 3428 1356 
L 1488 1356 
L 1488 1809 
L 3391 4472 
z
M 3428 3703 
L 2047 1803 
L 3428 1803 
L 3428 3703 
z
M 3213 5459 
Q 3938 5459 4606 5100 
Q 5203 4778 5616 4231 
Q 6225 3409 6225 2425 
Q 6225 1694 5866 1025 
Q 5534 413 4997 16 
Q 4175 -594 3194 -594 
Q 2431 -594 1766 -222 
Q 1166 109 759 659 
Q 172 1463 172 2441 
Q 172 3878 1344 4800 
Q 2163 5459 3213 5459 
z
M 3184 5166 
Q 2550 5166 1963 4859 
Q 1416 4581 1041 4091 
Q 466 3350 466 2425 
Q 466 1784 772 1197 
Q 1050 650 1541 275 
Q 2281 -300 3206 -300 
Q 3847 -300 4434 6 
Q 4981 284 5356 775 
Q 5931 1516 5931 2434 
Q 5931 3719 4900 4556 
Q 4138 5166 3184 5166 
z
" transform="scale(0.015625)"/>
      <path id="IPAexGothic-4e88" d="M 3541 3491 
Q 3644 3419 3816 3300 
Q 3944 3213 3997 3175 
L 3663 2894 
L 5603 2894 
L 5872 2625 
Q 5181 1709 4463 1069 
L 4066 1378 
Q 4722 1878 5153 2466 
L 3509 2466 
L 3509 147 
Q 3509 -150 3388 -263 
Q 3266 -384 2822 -384 
Q 2341 -384 1863 -331 
L 1766 172 
Q 2416 84 2766 84 
Q 3022 84 3022 334 
L 3022 2466 
L 513 2466 
L 513 2894 
L 3553 2894 
Q 2809 3488 1947 3963 
L 2247 4291 
Q 2741 4009 3181 3725 
Q 3941 4191 4400 4591 
L 1159 4591 
L 1159 5006 
L 4975 5006 
L 5250 4725 
Q 4428 4044 3541 3491 
z
" transform="scale(0.015625)"/>
      <path id="IPAexGothic-6e2c" d="M 3856 4884 
L 3856 1081 
L 2059 1081 
L 2059 4884 
L 3856 4884 
z
M 2456 4494 
L 2456 3756 
L 3459 3756 
L 3459 4494 
L 2456 4494 
z
M 2456 3384 
L 2456 2656 
L 3459 2656 
L 3459 3384 
L 2456 3384 
z
M 2456 2284 
L 2456 1478 
L 3459 1478 
L 3459 2284 
L 2456 2284 
z
M 1413 3891 
Q 1000 4428 556 4763 
L 856 5100 
Q 1309 4753 1734 4269 
L 1413 3891 
z
M 1222 2394 
Q 816 2878 325 3256 
L 625 3591 
Q 1141 3231 1528 2778 
L 1222 2394 
z
M 375 -78 
Q 916 800 1297 1906 
L 1669 1619 
Q 1284 478 759 -428 
L 375 -78 
z
M 3819 -256 
Q 3478 319 3128 716 
L 3469 966 
Q 3834 581 4172 63 
L 3819 -256 
z
M 4378 4513 
L 4806 4513 
L 4806 959 
L 4378 959 
L 4378 4513 
z
M 1638 -109 
Q 2103 300 2450 984 
L 2828 763 
Q 2425 -6 1944 -488 
L 1638 -109 
z
M 5419 5081 
L 5853 5081 
L 5853 109 
Q 5853 -391 5297 -391 
Q 4919 -391 4541 -359 
L 4441 109 
Q 4928 50 5219 50 
Q 5419 50 5419 244 
L 5419 5081 
z
" transform="scale(0.015625)"/>
     </defs>
     <use xlink:href="#IPAexGothic-2463"/>
     <use xlink:href="#IPAexGothic-20" x="100"/>
     <use xlink:href="#IPAexGothic-4e88" x="127.001953"/>
     <use xlink:href="#IPAexGothic-6e2c" x="227.001953"/>
    </g>
   </g>
   <g id="text_13">
    <!-- → -->
    <g style="fill: #95a5a6" transform="translate(531.36 107.872969) scale(0.15 -0.15)">
     <use xlink:href="#IPAexGothic-2192"/>
    </g>
   </g>
   <g id="text_14">
    <!-- ⑤ 評価 -->
    <g style="fill: #ffffff" transform="translate(585.015 113.271797) scale(0.11 -0.11)">
     <defs>
      <path id="IPAexGothic-2464" d="M 2119 4409 
L 4409 4409 
L 4409 3934 
L 2578 3934 
L 2516 2803 
Q 2903 3134 3353 3134 
Q 3813 3134 4172 2853 
Q 4647 2466 4647 1784 
Q 4647 1300 4416 947 
Q 4025 344 3256 344 
Q 2656 344 2231 728 
Q 1984 969 1869 1344 
L 2419 1344 
Q 2563 803 3250 803 
Q 3691 803 3928 1131 
Q 4122 1391 4122 1772 
Q 4122 2172 3897 2425 
Q 3659 2681 3263 2681 
Q 2722 2681 2400 2156 
L 1997 2244 
L 2119 4409 
z
M 3213 5459 
Q 3938 5459 4606 5100 
Q 5203 4778 5616 4231 
Q 6225 3409 6225 2425 
Q 6225 1694 5866 1025 
Q 5534 413 4997 16 
Q 4175 -594 3194 -594 
Q 2431 -594 1766 -222 
Q 1166 109 759 659 
Q 172 1463 172 2441 
Q 172 3878 1344 4800 
Q 2163 5459 3213 5459 
z
M 3184 5166 
Q 2550 5166 1963 4859 
Q 1416 4581 1041 4091 
Q 466 3350 466 2425 
Q 466 1784 772 1197 
Q 1050 650 1541 275 
Q 2281 -300 3206 -300 
Q 3847 -300 4434 6 
Q 4981 284 5356 775 
Q 5931 1516 5931 2434 
Q 5931 3719 4900 4556 
Q 4138 5166 3184 5166 
z
" transform="scale(0.015625)"/>
      <path id="IPAexGothic-8a55" d="M 2272 1684 
L 2272 -416 
L 1863 -416 
L 1863 -128 
L 919 -128 
L 919 -447 
L 509 -447 
L 509 1684 
L 2272 1684 
z
M 919 1313 
L 919 244 
L 1863 244 
L 1863 1313 
L 919 1313 
z
M 4466 4434 
L 4466 1931 
L 6097 1931 
L 6097 1516 
L 4466 1516 
L 4466 -450 
L 4013 -450 
L 4013 1516 
L 2419 1516 
L 2419 1931 
L 4013 1931 
L 4013 4434 
L 2553 4434 
L 2553 4856 
L 5931 4856 
L 5931 4434 
L 4466 4434 
z
M 594 5044 
L 2188 5044 
L 2188 4659 
L 594 4659 
L 594 5044 
z
M 325 4206 
L 2413 4206 
L 2413 3816 
L 325 3816 
L 325 4206 
z
M 594 3359 
L 2188 3359 
L 2188 2975 
L 594 2975 
L 594 3359 
z
M 594 2522 
L 2188 2522 
L 2188 2138 
L 594 2138 
L 594 2522 
z
M 3184 2253 
Q 3031 3206 2775 3988 
L 3200 4122 
Q 3463 3331 3634 2381 
L 3184 2253 
z
M 4825 2356 
Q 5097 3272 5253 4184 
L 5700 4050 
Q 5491 2994 5228 2247 
L 4825 2356 
z
" transform="scale(0.015625)"/>
      <path id="IPAexGothic-4fa1" d="M 3144 3397 
L 3144 4416 
L 1828 4416 
L 1828 4825 
L 6081 4825 
L 6081 4416 
L 4713 4416 
L 4713 3397 
L 5850 3397 
L 5850 -384 
L 5416 -384 
L 5416 0 
L 2463 0 
L 2463 -384 
L 2034 -384 
L 2034 3397 
L 3144 3397 
z
M 3572 3397 
L 4281 3397 
L 4281 4416 
L 3572 4416 
L 3572 3397 
z
M 3169 3013 
L 2463 3013 
L 2463 391 
L 3169 391 
L 3169 3013 
z
M 3572 3013 
L 3572 391 
L 4281 391 
L 4281 3013 
L 3572 3013 
z
M 4684 3013 
L 4684 391 
L 5416 391 
L 5416 3013 
L 4684 3013 
z
M 1394 3816 
L 1394 -447 
L 966 -447 
L 966 2797 
Q 756 2369 478 1972 
L 244 2369 
Q 950 3469 1375 5313 
L 1809 5203 
Q 1588 4344 1394 3816 
z
" transform="scale(0.015625)"/>
     </defs>
     <use xlink:href="#IPAexGothic-2464"/>
     <use xlink:href="#IPAexGothic-20" x="100"/>
     <use xlink:href="#IPAexGothic-8a55" x="127.001953"/>
     <use xlink:href="#IPAexGothic-4fa1" x="227.001953"/>
    </g>
   </g>
   <g id="text_15">
    <!-- ステップ -->
    <g style="fill: #ffffff" transform="translate(38.88 158.154375) scale(0.12 -0.12)">
     <defs>
      <path id="IPAexGothic-30c6" d="M 563 3072 
L 5741 3072 
L 5741 2613 
L 3578 2613 
Q 3538 1516 3134 872 
Q 2688 156 1663 -256 
L 1313 156 
Q 2338 538 2713 1166 
Q 3003 1644 3034 2613 
L 563 2613 
L 563 3072 
z
M 1406 4588 
L 4941 4588 
L 4941 4128 
L 1406 4128 
L 1406 4588 
z
" transform="scale(0.015625)"/>
      <path id="IPAexGothic-30c3" d="M 1775 1984 
Q 1553 2666 1275 3175 
L 1716 3391 
Q 2034 2866 2247 2209 
L 1775 1984 
z
M 3003 2297 
Q 2813 2978 2522 3469 
L 2978 3681 
Q 3291 3166 3484 2522 
L 3003 2297 
z
M 1928 372 
Q 3094 744 3731 1569 
Q 4275 2263 4469 3525 
L 4975 3406 
Q 4734 1975 4016 1119 
Q 3406 391 2266 -44 
L 1928 372 
z
" transform="scale(0.015625)"/>
      <path id="IPAexGothic-30d7" d="M 4825 4275 
L 5125 4000 
Q 4884 2378 4081 1381 
Q 3294 413 1888 -116 
L 1522 331 
Q 4069 1113 4550 3803 
L 966 3738 
L 966 4225 
L 4825 4275 
z
M 5597 5509 
Q 5906 5509 6119 5275 
Q 6303 5075 6303 4806 
Q 6303 4494 6069 4281 
Q 5866 4097 5597 4097 
Q 5284 4097 5072 4331 
Q 4888 4534 4888 4806 
Q 4888 5116 5122 5328 
Q 5328 5509 5597 5509 
z
M 5597 5228 
Q 5409 5228 5278 5088 
Q 5169 4966 5169 4806 
Q 5169 4616 5309 4488 
Q 5434 4378 5597 4378 
Q 5784 4378 5913 4519 
Q 6022 4641 6022 4806 
Q 6022 4991 5881 5119 
Q 5759 5228 5597 5228 
z
" transform="scale(0.015625)"/>
     </defs>
     <use xlink:href="#IPAexGothic-30b9"/>
     <use xlink:href="#IPAexGothic-30c6" x="100"/>
     <use xlink:href="#IPAexGothic-30c3" x="200"/>
     <use xlink:href="#IPAexGothic-30d7" x="300"/>
    </g>
   </g>
   <g id="text_16">
    <!-- コード -->
    <g style="fill: #ffffff" transform="translate(82.08 158.154375) scale(0.12 -0.12)">
     <defs>
      <path id="IPAexGothic-30b3" d="M 1134 4213 
L 5166 4213 
L 5166 153 
L 4653 153 
L 4653 594 
L 1063 594 
L 1063 1088 
L 4653 1088 
L 4653 3725 
L 1134 3725 
L 1134 4213 
z
" transform="scale(0.015625)"/>
      <path id="IPAexGothic-30c9" d="M 2247 4959 
L 2766 4959 
L 2766 3169 
Q 4050 2581 5178 1850 
L 4841 1331 
Q 3781 2138 2766 2650 
L 2766 -225 
L 2247 -225 
L 2247 4959 
z
M 5263 3847 
Q 4900 4388 4506 4716 
L 4806 4947 
Q 5191 4638 5581 4122 
L 5263 3847 
z
M 4666 3378 
Q 4375 3869 3931 4269 
L 4244 4513 
Q 4616 4206 5000 3653 
L 4666 3378 
z
" transform="scale(0.015625)"/>
     </defs>
     <use xlink:href="#IPAexGothic-30b3"/>
     <use xlink:href="#IPAexGothic-30fc" x="100"/>
     <use xlink:href="#IPAexGothic-30c9" x="200"/>
    </g>
   </g>
   <g id="text_17">
    <!-- 目的 -->
    <g style="fill: #ffffff" transform="translate(298.08 158.154375) scale(0.12 -0.12)">
     <defs>
      <path id="IPAexGothic-76ee" d="M 5266 4819 
L 5266 -384 
L 4791 -384 
L 4791 38 
L 1600 38 
L 1600 -384 
L 1125 -384 
L 1125 4819 
L 5266 4819 
z
M 1600 4416 
L 1600 3384 
L 4791 3384 
L 4791 4416 
L 1600 4416 
z
M 1600 2988 
L 1600 1966 
L 4791 1966 
L 4791 2988 
L 1600 2988 
z
M 1600 1563 
L 1600 447 
L 4791 447 
L 4791 1563 
L 1600 1563 
z
" transform="scale(0.015625)"/>
      <path id="IPAexGothic-7684" d="M 5925 4141 
Q 5859 888 5656 91 
Q 5581 -219 5350 -325 
Q 5178 -397 4856 -397 
Q 4428 -397 4044 -353 
L 3953 134 
Q 4444 56 4838 56 
Q 5128 56 5203 234 
Q 5400 706 5459 3438 
L 5466 3719 
L 3838 3719 
Q 3550 3031 3116 2503 
L 2809 2856 
Q 3469 3659 3788 5172 
L 4250 5050 
Q 4144 4559 4000 4141 
L 5925 4141 
z
M 1316 4244 
L 1394 4475 
Q 1500 4806 1566 5209 
L 2053 5141 
Q 1872 4525 1753 4244 
L 2756 4244 
L 2756 366 
L 1022 366 
L 1022 -91 
L 581 -91 
L 581 4244 
L 1316 4244 
z
M 1022 3847 
L 1022 2553 
L 2316 2553 
L 2316 3847 
L 1022 3847 
z
M 1022 2169 
L 1022 763 
L 2316 763 
L 2316 2169 
L 1022 2169 
z
M 4384 1288 
Q 3975 2069 3531 2578 
L 3859 2834 
Q 4375 2259 4753 1569 
L 4384 1288 
z
" transform="scale(0.015625)"/>
     </defs>
     <use xlink:href="#IPAexGothic-76ee"/>
     <use xlink:href="#IPAexGothic-7684" x="100"/>
    </g>
   </g>
   <g id="text_18">
    <!-- ① -->
    <g style="fill: #2c3e50" transform="translate(38.88 182.674687) scale(0.12 -0.12)">
     <use xlink:href="#IPAexGothic-2460"/>
    </g>
   </g>
   <g id="text_19">
    <!-- train_test_split() -->
    <g style="fill: #2c3e50" transform="translate(82.08 182.742187) scale(0.12 -0.12)">
     <defs>
      <path id="IPAexGothic-74" d="M 2125 241 
Q 1769 -6 1397 -6 
Q 653 -6 653 831 
L 653 2859 
L 219 2859 
L 219 3250 
L 653 3250 
L 653 3966 
L 1178 4228 
L 1178 3250 
L 2063 3250 
L 2063 2859 
L 1178 2859 
L 1178 906 
Q 1178 416 1513 416 
Q 1738 416 1941 588 
L 2125 241 
z
" transform="scale(0.015625)"/>
      <path id="IPAexGothic-72" d="M 2309 3316 
L 2213 2769 
Q 2106 2791 2022 2791 
Q 1653 2791 1413 2444 
Q 1113 2006 1113 1675 
L 1113 63 
L 563 63 
L 563 3250 
L 1081 3250 
L 1056 2303 
L 1069 2303 
Q 1422 3341 2097 3341 
Q 2206 3341 2309 3316 
z
" transform="scale(0.015625)"/>
      <path id="IPAexGothic-61" d="M 3156 63 
L 2672 63 
Q 2559 303 2531 556 
L 2509 556 
Q 2147 -25 1428 -25 
Q 934 -25 622 288 
Q 347 563 347 959 
Q 347 1947 2050 1997 
L 2478 2009 
L 2478 2175 
Q 2478 2509 2288 2700 
Q 2088 2900 1775 2900 
Q 1238 2900 969 2378 
L 494 2597 
Q 938 3328 1788 3328 
Q 2375 3328 2691 3000 
Q 2984 2706 2984 2169 
L 2984 997 
Q 2984 400 3156 63 
z
M 2491 1625 
L 2141 1619 
Q 903 1591 903 953 
Q 903 728 1050 581 
Q 1231 403 1525 403 
Q 1934 403 2234 703 
Q 2491 969 2491 1344 
L 2491 1625 
z
" transform="scale(0.015625)"/>
      <path id="IPAexGothic-69" d="M 1178 3928 
L 550 3928 
L 550 4569 
L 1178 4569 
L 1178 3928 
z
M 1138 63 
L 588 63 
L 588 3250 
L 1138 3250 
L 1138 63 
z
" transform="scale(0.015625)"/>
      <path id="IPAexGothic-6e" d="M 3328 63 
L 2778 63 
L 2778 2041 
Q 2778 2853 2106 2853 
Q 1428 2853 1113 2041 
L 1113 63 
L 563 63 
L 563 3250 
L 1075 3250 
L 1075 2675 
Q 1525 3316 2222 3316 
Q 3328 3316 3328 2072 
L 3328 63 
z
" transform="scale(0.015625)"/>
      <path id="IPAexGothic-5f" d="M 3200 -750 
L 0 -750 
L 0 -431 
L 3200 -431 
L 3200 -750 
z
" transform="scale(0.015625)"/>
      <path id="IPAexGothic-65" d="M 863 1594 
Q 891 1041 1209 722 
Q 1534 397 1997 397 
Q 2606 397 2963 966 
L 3322 728 
Q 2869 -31 1931 -31 
Q 1222 -31 766 422 
Q 306 884 306 1641 
Q 306 2444 788 2925 
Q 1216 3353 1856 3353 
Q 2459 3353 2866 2956 
Q 3322 2494 3322 1722 
L 3322 1594 
L 863 1594 
z
M 2756 1997 
Q 2709 2431 2450 2681 
Q 2194 2938 1844 2938 
Q 1438 2938 1150 2591 
Q 953 2356 894 1997 
L 2756 1997 
z
" transform="scale(0.015625)"/>
      <path id="IPAexGothic-73" d="M 2234 2547 
Q 1938 2931 1484 2931 
Q 891 2931 891 2475 
Q 891 2153 1531 1944 
L 1741 1875 
Q 2650 1578 2650 894 
Q 2650 434 2272 172 
Q 1972 -31 1497 -31 
Q 766 -31 256 503 
L 603 819 
Q 997 397 1516 397 
Q 2131 397 2131 875 
Q 2131 1238 1453 1478 
L 1234 1553 
Q 378 1853 378 2431 
Q 378 2797 628 3047 
Q 928 3347 1453 3347 
Q 2156 3347 2606 2859 
L 2234 2547 
z
" transform="scale(0.015625)"/>
      <path id="IPAexGothic-70" d="M 1075 2688 
Q 1525 3341 2206 3341 
Q 2769 3341 3172 2938 
Q 3641 2469 3641 1644 
Q 3641 841 3178 372 
Q 2775 -31 2200 -31 
Q 1569 -31 1106 497 
L 1106 -1216 
L 563 -1216 
L 563 3250 
L 1075 3250 
L 1075 2688 
z
M 1106 1950 
L 1106 1291 
Q 1106 897 1516 600 
Q 1791 403 2106 403 
Q 2469 403 2725 659 
Q 3066 997 3066 1631 
Q 3066 2200 2784 2559 
Q 2503 2900 2100 2900 
Q 1656 2900 1338 2484 
Q 1106 2184 1106 1950 
z
" transform="scale(0.015625)"/>
      <path id="IPAexGothic-6c" d="M 1131 63 
L 581 63 
L 581 4794 
L 1131 4794 
L 1131 63 
z
" transform="scale(0.015625)"/>
      <path id="IPAexGothic-28" d="M 1928 -1016 
L 1653 -1166 
Q 488 69 488 1875 
Q 488 3678 1653 4909 
L 1928 4763 
Q 1006 3522 1006 1881 
Q 1006 203 1928 -1016 
z
" transform="scale(0.015625)"/>
      <path id="IPAexGothic-29" d="M 466 4909 
Q 1638 3672 1638 1875 
Q 1638 75 466 -1166 
L 191 -1016 
Q 1119 216 1119 1881 
Q 1119 3509 191 4763 
L 466 4909 
z
" transform="scale(0.015625)"/>
     </defs>
     <use xlink:href="#IPAexGothic-74"/>
     <use xlink:href="#IPAexGothic-72" x="34.619141"/>
     <use xlink:href="#IPAexGothic-61" x="71.630859"/>
     <use xlink:href="#IPAexGothic-69" x="126.611328"/>
     <use xlink:href="#IPAexGothic-6e" x="153.613281"/>
     <use xlink:href="#IPAexGothic-5f" x="214.013672"/>
     <use xlink:href="#IPAexGothic-74" x="264.013672"/>
     <use xlink:href="#IPAexGothic-65" x="298.632812"/>
     <use xlink:href="#IPAexGothic-73" x="355.517578"/>
     <use xlink:href="#IPAexGothic-74" x="401.708984"/>
     <use xlink:href="#IPAexGothic-5f" x="436.328125"/>
     <use xlink:href="#IPAexGothic-73" x="486.328125"/>
     <use xlink:href="#IPAexGothic-70" x="532.519531"/>
     <use xlink:href="#IPAexGothic-6c" x="594.628906"/>
     <use xlink:href="#IPAexGothic-69" x="621.630859"/>
     <use xlink:href="#IPAexGothic-74" x="648.632812"/>
     <use xlink:href="#IPAexGothic-28" x="683.251953"/>
     <use xlink:href="#IPAexGothic-29" x="716.552734"/>
    </g>
   </g>
   <g id="text_20">
    <!-- 学習用データとテスト用データを分ける -->
    <g style="fill: #2c3e50" transform="translate(298.08 182.678437) scale(0.12 -0.12)">
     <defs>
      <path id="IPAexGothic-7528" d="M 5553 4891 
L 5553 203 
Q 5553 -53 5456 -169 
Q 5328 -316 4941 -316 
Q 4544 -316 4191 -275 
L 4113 203 
Q 4516 131 4875 131 
Q 5106 131 5106 372 
L 5106 1625 
L 3441 1625 
L 3441 -103 
L 3000 -103 
L 3000 1625 
L 1469 1625 
Q 1441 234 816 -488 
L 459 -134 
Q 1022 466 1022 1831 
L 1022 4891 
L 5553 4891 
z
M 1475 4500 
L 1475 3469 
L 3000 3469 
L 3000 4500 
L 1475 4500 
z
M 1475 3084 
L 1475 2009 
L 3000 2009 
L 3000 3084 
L 1475 3084 
z
M 5106 2009 
L 5106 3084 
L 3441 3084 
L 3441 2009 
L 5106 2009 
z
M 5106 3469 
L 5106 4500 
L 3441 4500 
L 3441 3469 
L 5106 3469 
z
" transform="scale(0.015625)"/>
      <path id="IPAexGothic-3068" d="M 5222 56 
Q 4200 -72 3450 -72 
Q 2478 -72 1941 113 
Q 1184 372 1184 1038 
Q 1184 1584 1594 2009 
Q 1941 2369 2656 2725 
Q 2231 3734 1972 4878 
L 2491 4978 
Q 2706 3884 3078 2950 
Q 4250 3447 4756 3616 
L 4978 3150 
Q 3181 2575 2409 2078 
Q 1691 1613 1691 1113 
Q 1691 403 3322 403 
Q 4125 403 5134 563 
L 5222 56 
z
" transform="scale(0.015625)"/>
      <path id="IPAexGothic-30c8" d="M 2284 4997 
L 2803 4997 
L 2803 3206 
Q 4088 2619 5216 1888 
L 4878 1369 
Q 3819 2175 2803 2688 
L 2803 -184 
L 2284 -184 
L 2284 4997 
z
" transform="scale(0.015625)"/>
      <path id="IPAexGothic-3092" d="M 1094 4263 
Q 1544 4222 2359 4222 
Q 2581 4734 2700 5163 
L 3175 5028 
Q 2997 4538 2859 4256 
Q 3516 4284 4294 4459 
L 4356 4019 
Q 3603 3869 2656 3819 
Q 2391 3284 2059 2797 
Q 2531 3200 2963 3200 
Q 3638 3200 3859 2378 
Q 4556 2681 5338 2950 
L 5575 2528 
Q 4641 2253 3941 1956 
Q 3981 1678 3994 1028 
L 3513 991 
Q 3513 1456 3494 1753 
Q 2388 1194 2388 716 
Q 2388 428 2753 328 
Q 3066 241 3806 241 
Q 4394 241 5178 344 
L 5216 -128 
Q 4434 -213 3653 -213 
Q 2656 -213 2244 41 
Q 1913 244 1913 631 
Q 1913 1094 2344 1497 
Q 2709 1841 3428 2181 
Q 3266 2797 2878 2797 
Q 2238 2797 1209 1419 
L 838 1694 
Q 1625 2716 2163 3800 
Q 1522 3800 1088 3825 
L 1094 4263 
z
" transform="scale(0.015625)"/>
      <path id="IPAexGothic-3051" d="M 2553 3481 
Q 2891 3463 3219 3463 
Q 3691 3463 4338 3506 
Q 4303 4434 4250 4897 
L 4763 4897 
Q 4769 4772 4825 3566 
Q 5319 3634 5709 3744 
L 5747 3291 
Q 5356 3159 4838 3109 
Q 4844 2875 4844 2606 
Q 4844 1434 4575 856 
Q 4250 138 3347 -313 
L 2938 56 
Q 3809 441 4094 1006 
Q 4363 1525 4363 2625 
Q 4363 2853 4359 3059 
Q 3722 3009 3175 3009 
Q 2791 3009 2591 3022 
L 2553 3481 
z
M 1925 2088 
L 2253 1881 
Q 1697 872 1678 166 
L 1259 72 
Q 941 1184 941 2272 
Q 941 3181 1344 4872 
L 1819 4750 
Q 1416 3166 1416 2163 
Q 1416 1722 1491 1222 
L 1925 2088 
z
" transform="scale(0.015625)"/>
      <path id="IPAexGothic-308b" d="M 4391 4397 
L 2613 2588 
Q 3225 2809 3759 2809 
Q 4263 2809 4659 2625 
Q 5391 2269 5391 1484 
Q 5391 756 4706 275 
Q 4072 -166 3053 -166 
Q 2559 -166 2247 19 
Q 1863 250 1863 666 
Q 1863 934 2069 1141 
Q 2331 1403 2741 1403 
Q 3509 1403 4019 428 
Q 4872 784 4872 1491 
Q 4872 1981 4469 2222 
Q 4166 2406 3681 2406 
Q 2425 2406 1238 1209 
L 891 1581 
Q 2438 2934 3578 4281 
Q 2594 4125 1588 4066 
L 1478 4550 
Q 2594 4581 4109 4763 
L 4391 4397 
z
M 3591 303 
Q 3244 1025 2731 1025 
Q 2553 1025 2434 934 
Q 2316 844 2316 700 
Q 2316 250 3034 250 
Q 3275 250 3591 303 
z
" transform="scale(0.015625)"/>
     </defs>
     <use xlink:href="#IPAexGothic-5b66"/>
     <use xlink:href="#IPAexGothic-7fd2" x="100"/>
     <use xlink:href="#IPAexGothic-7528" x="200"/>
     <use xlink:href="#IPAexGothic-30c7" x="300"/>
     <use xlink:href="#IPAexGothic-30fc" x="400"/>
     <use xlink:href="#IPAexGothic-30bf" x="500"/>
     <use xlink:href="#IPAexGothic-3068" x="600"/>
     <use xlink:href="#IPAexGothic-30c6" x="700"/>
     <use xlink:href="#IPAexGothic-30b9" x="800"/>
     <use xlink:href="#IPAexGothic-30c8" x="900"/>
     <use xlink:href="#IPAexGothic-7528" x="1000"/>
     <use xlink:href="#IPAexGothic-30c7" x="1100"/>
     <use xlink:href="#IPAexGothic-30fc" x="1200"/>
     <use xlink:href="#IPAexGothic-30bf" x="1300"/>
     <use xlink:href="#IPAexGothic-3092" x="1400"/>
     <use xlink:href="#IPAexGothic-5206" x="1500"/>
     <use xlink:href="#IPAexGothic-3051" x="1600"/>
     <use xlink:href="#IPAexGothic-308b" x="1700"/>
    </g>
   </g>
   <g id="text_21">
    <!-- ② -->
    <g style="fill: #2c3e50" transform="translate(38.88 207.154687) scale(0.12 -0.12)">
     <use xlink:href="#IPAexGothic-2461"/>
    </g>
   </g>
   <g id="text_22">
    <!-- StandardScaler() -->
    <g style="fill: #2c3e50" transform="translate(82.08 207.175312) scale(0.12 -0.12)">
     <defs>
      <path id="IPAexGothic-53" d="M 2919 3641 
Q 2563 4259 1853 4259 
Q 1453 4259 1213 4009 
Q 1028 3803 1028 3534 
Q 1028 3238 1266 3047 
Q 1444 2913 1984 2688 
L 2200 2597 
Q 2925 2306 3191 1953 
Q 3422 1644 3422 1259 
Q 3422 644 2969 288 
Q 2559 -31 1931 -31 
Q 881 -31 313 766 
L 753 1100 
Q 1203 459 1938 459 
Q 2288 459 2534 625 
Q 2841 847 2841 1216 
Q 2841 1503 2616 1728 
Q 2375 1959 1728 2206 
L 1541 2278 
Q 453 2694 453 3481 
Q 453 4006 806 4347 
Q 1203 4725 1863 4725 
Q 2841 4725 3359 3956 
L 2919 3641 
z
" transform="scale(0.015625)"/>
      <path id="IPAexGothic-64" d="M 3391 63 
L 2891 63 
L 2891 619 
Q 2441 -31 1753 -31 
Q 1181 -31 788 372 
Q 313 844 313 1663 
Q 313 2466 772 2938 
Q 1169 3341 1753 3341 
Q 2384 3341 2847 2809 
L 2847 4794 
L 3391 4794 
L 3391 63 
z
M 2847 1303 
L 2847 2097 
Q 2847 2413 2456 2706 
Q 2181 2906 1853 2906 
Q 1484 2906 1228 2650 
Q 888 2309 888 1678 
Q 888 1109 1169 750 
Q 1441 409 1847 409 
Q 2322 409 2656 875 
Q 2847 1134 2847 1303 
z
" transform="scale(0.015625)"/>
      <path id="IPAexGothic-63" d="M 3269 784 
Q 2834 -31 1900 -31 
Q 1228 -31 788 409 
Q 313 891 313 1663 
Q 313 2428 788 2913 
Q 1222 3347 1881 3347 
Q 2813 3347 3206 2541 
L 2763 2309 
Q 2484 2900 1900 2900 
Q 1516 2900 1234 2619 
Q 881 2266 881 1650 
Q 881 1069 1222 728 
Q 1522 428 1956 428 
Q 2547 428 2847 1016 
L 3269 784 
z
" transform="scale(0.015625)"/>
     </defs>
     <use xlink:href="#IPAexGothic-53"/>
     <use xlink:href="#IPAexGothic-74" x="58.496094"/>
     <use xlink:href="#IPAexGothic-61" x="93.115234"/>
     <use xlink:href="#IPAexGothic-6e" x="148.095703"/>
     <use xlink:href="#IPAexGothic-64" x="208.496094"/>
     <use xlink:href="#IPAexGothic-61" x="270.898438"/>
     <use xlink:href="#IPAexGothic-72" x="325.878906"/>
     <use xlink:href="#IPAexGothic-64" x="362.890625"/>
     <use xlink:href="#IPAexGothic-53" x="425.292969"/>
     <use xlink:href="#IPAexGothic-63" x="483.789062"/>
     <use xlink:href="#IPAexGothic-61" x="538.183594"/>
     <use xlink:href="#IPAexGothic-6c" x="593.164062"/>
     <use xlink:href="#IPAexGothic-65" x="620.166016"/>
     <use xlink:href="#IPAexGothic-72" x="677.050781"/>
     <use xlink:href="#IPAexGothic-28" x="714.0625"/>
     <use xlink:href="#IPAexGothic-29" x="747.363281"/>
    </g>
   </g>
   <g id="text_23">
    <!-- 変数のスケール（大きさ）を揃える -->
    <g style="fill: #2c3e50" transform="translate(298.08 207.114375) scale(0.12 -0.12)">
     <defs>
      <path id="IPAexGothic-5909" d="M 2147 1253 
Q 1641 822 944 563 
L 672 900 
Q 1938 1391 2556 2394 
L 2972 2231 
Q 2847 2034 2747 1900 
L 4750 1900 
L 4969 1700 
Q 4422 984 3859 563 
Q 4650 241 6094 69 
L 5825 -366 
Q 4275 -125 3431 288 
Q 2441 -272 603 -538 
L 341 -134 
Q 2103 75 2997 538 
Q 2591 791 2184 1209 
L 2147 1253 
z
M 2434 1528 
L 2422 1516 
Q 2803 1106 3425 778 
Q 3888 1078 4269 1528 
L 2434 1528 
z
M 4059 4147 
L 4059 2650 
Q 4059 2272 3663 2272 
Q 3416 2272 3047 2309 
L 2963 2725 
Q 3241 2681 3431 2681 
Q 3631 2681 3631 2872 
L 3631 4147 
L 2822 4147 
Q 2766 3291 2503 2816 
Q 2191 2259 1503 1869 
L 1172 2156 
Q 1878 2572 2144 3066 
Q 2359 3456 2388 4147 
L 403 4147 
L 403 4544 
L 2938 4544 
L 2938 5294 
L 3419 5294 
L 3419 4544 
L 6000 4544 
L 6000 4147 
L 4059 4147 
z
M 5494 2363 
Q 4828 3150 4328 3584 
L 4672 3859 
Q 5266 3369 5878 2656 
L 5494 2363 
z
M 341 2528 
Q 1025 3022 1441 3775 
L 1844 3597 
Q 1406 2781 706 2241 
L 341 2528 
z
" transform="scale(0.015625)"/>
      <path id="IPAexGothic-6570" d="M 2847 1553 
Q 2741 1006 2425 534 
Q 2625 441 3091 203 
L 2809 -188 
Q 2541 0 2144 209 
Q 1569 -291 703 -500 
L 422 -125 
Q 1263 19 1747 406 
Q 1222 650 734 816 
Q 975 1172 1147 1503 
L 1172 1553 
L 359 1553 
L 359 1925 
L 1344 1925 
Q 1406 2066 1569 2475 
L 1691 2450 
L 1691 3372 
Q 1250 2738 550 2303 
L 275 2663 
Q 1019 3013 1528 3641 
L 378 3641 
L 378 4006 
L 1691 4006 
L 1691 5313 
L 2113 5313 
L 2113 4006 
L 3297 4006 
L 3297 3641 
L 2113 3641 
L 2113 3513 
Q 2659 3291 3175 2963 
L 2956 2584 
Q 2553 2922 2113 3159 
L 2113 2372 
L 1966 2372 
Q 1928 2288 1872 2141 
Q 1806 1975 1784 1925 
L 3378 1925 
L 3378 1553 
L 2847 1553 
z
M 2419 1553 
L 1613 1553 
Q 1478 1269 1313 997 
Q 1559 909 2047 703 
Q 2313 1047 2419 1553 
z
M 4363 1163 
Q 3953 1781 3738 2638 
Q 3575 2281 3428 2016 
L 3103 2406 
Q 3675 3444 3916 5291 
L 4363 5200 
Q 4284 4666 4197 4197 
L 6009 4197 
L 6009 3775 
L 5503 3775 
Q 5397 2275 4869 1191 
Q 5419 503 6144 75 
L 5822 -378 
Q 5188 106 4631 788 
Q 4113 34 3341 -463 
L 3031 -78 
Q 3888 406 4363 1163 
z
M 4588 1594 
Q 4938 2388 5059 3775 
L 4100 3775 
Q 4041 3519 3972 3288 
Q 3981 3250 3991 3194 
Q 4175 2256 4588 1594 
z
M 1003 4116 
Q 878 4544 638 4934 
L 1053 5094 
Q 1247 4788 1438 4269 
L 1003 4116 
z
M 2316 4269 
Q 2550 4688 2688 5131 
L 3128 4997 
Q 2966 4588 2675 4128 
L 2316 4269 
z
" transform="scale(0.015625)"/>
      <path id="IPAexGothic-ff08" d="M 5419 -434 
Q 4197 769 4197 2438 
Q 4197 4097 5419 5300 
L 5919 5300 
Q 4678 4078 4678 2425 
Q 4678 788 5919 -434 
L 5419 -434 
z
" transform="scale(0.015625)"/>
      <path id="IPAexGothic-5927" d="M 3528 3181 
Q 4150 1197 6003 275 
L 5647 -184 
Q 3891 831 3259 2681 
Q 2894 644 872 -344 
L 513 97 
Q 1678 528 2344 1538 
Q 2784 2219 2900 3181 
L 481 3181 
L 481 3628 
L 2925 3628 
L 2925 5150 
L 3431 5150 
L 3431 3628 
L 5922 3628 
L 5922 3181 
L 3528 3181 
z
" transform="scale(0.015625)"/>
      <path id="IPAexGothic-304d" d="M 2944 1600 
Q 2369 1600 2053 1428 
Q 1772 1275 1772 1019 
Q 1772 666 2200 481 
Q 2600 309 3903 309 
Q 4138 309 4397 331 
L 4422 -147 
Q 4203 -166 3969 -166 
Q 2325 -166 1819 141 
Q 1313 444 1313 994 
Q 1313 1447 1791 1738 
Q 2219 1997 2859 1997 
Q 3319 1997 3606 1947 
Q 3894 1894 4216 1759 
Q 3953 2050 3506 2791 
Q 2263 2547 1191 2491 
L 1094 2956 
Q 2263 2966 3281 3175 
Q 3019 3647 2950 3794 
Q 2125 3641 1253 3622 
L 1166 4063 
Q 2013 4063 2750 4184 
Q 2478 4744 2381 4984 
L 2841 5131 
Q 2925 4916 3213 4281 
Q 3888 4438 4459 4709 
L 4672 4313 
Q 4119 4056 3409 3891 
Q 3638 3447 3738 3284 
Q 4528 3503 5113 3794 
L 5331 3366 
Q 4738 3094 3953 2900 
Q 4272 2366 4903 1484 
L 4575 1147 
Q 3888 1600 2944 1600 
z
" transform="scale(0.015625)"/>
      <path id="IPAexGothic-3055" d="M 1747 1184 
Q 1747 834 2094 609 
Q 2422 391 3706 391 
Q 4088 391 4422 434 
L 4478 -50 
Q 4116 -84 3853 -84 
Q 3000 -84 2544 -13 
Q 2044 69 1759 263 
Q 1272 597 1272 1125 
Q 1272 1638 1728 1953 
Q 2163 2253 2884 2253 
Q 3741 2253 4300 2003 
Q 3797 2556 3322 3438 
Q 2128 3219 1113 3219 
L 966 3694 
Q 1150 3688 1388 3688 
Q 2291 3688 3128 3847 
Q 2919 4253 2597 4953 
L 3059 5081 
Q 3347 4384 3591 3950 
Q 4375 4147 5028 4481 
L 5297 4056 
Q 4653 3763 3775 3547 
Q 4309 2597 5069 1703 
L 4672 1363 
Q 3994 1838 2872 1838 
Q 2278 1838 1984 1628 
Q 1747 1459 1747 1184 
z
" transform="scale(0.015625)"/>
      <path id="IPAexGothic-ff09" d="M 481 -434 
Q 1722 788 1722 2431 
Q 1722 4066 481 5300 
L 981 5300 
Q 2203 4097 2203 2431 
Q 2203 769 981 -434 
L 481 -434 
z
" transform="scale(0.015625)"/>
      <path id="IPAexGothic-63c3" d="M 1125 4025 
L 1125 5313 
L 1541 5313 
L 1541 4025 
L 2078 4025 
L 2078 4275 
L 3172 4275 
Q 2981 4791 2775 5113 
L 3178 5259 
Q 3434 4844 3600 4422 
L 3191 4275 
L 4350 4275 
Q 4597 4741 4797 5306 
L 5253 5153 
Q 4997 4594 4791 4275 
L 6078 4275 
L 6078 3878 
L 2188 3878 
L 2188 3616 
L 1541 3616 
L 1541 2369 
Q 1966 2506 2141 2566 
L 2175 2200 
Q 1847 2063 1591 1972 
Q 1578 1966 1563 1956 
Q 1559 1956 1556 1953 
Q 1544 1947 1541 1947 
L 1541 6 
Q 1541 -263 1419 -356 
Q 1309 -447 1047 -447 
Q 750 -447 491 -403 
L 422 50 
Q 709 -6 934 -6 
Q 1125 -6 1125 178 
L 1125 1806 
Q 859 1709 428 1588 
L 275 2022 
L 453 2066 
Q 706 2128 1125 2247 
L 1125 3616 
L 344 3616 
L 344 4025 
L 1125 4025 
z
M 3975 3366 
L 3975 56 
Q 3975 -347 3553 -347 
Q 3372 -347 3150 -313 
L 3084 97 
Q 3256 50 3406 50 
Q 3578 50 3578 219 
L 3578 1241 
L 3375 881 
Q 3178 1078 2784 1300 
L 2784 -447 
L 2388 -447 
L 2388 3366 
L 3975 3366 
z
M 2784 2981 
L 2784 1325 
L 2975 1638 
Q 3281 1491 3578 1259 
L 3578 2225 
L 3400 1894 
Q 3116 2109 2791 2272 
L 2981 2591 
Q 3291 2466 3578 2247 
L 3578 2981 
L 2784 2981 
z
M 4441 3238 
L 4863 3238 
L 4863 691 
L 4441 691 
L 4441 3238 
z
M 5344 3425 
L 5759 3425 
L 5759 56 
Q 5759 -384 5294 -384 
Q 4966 -384 4659 -353 
L 4600 91 
Q 4909 38 5147 38 
Q 5344 38 5344 256 
L 5344 3425 
z
" transform="scale(0.015625)"/>
      <path id="IPAexGothic-3048" d="M 3797 4038 
Q 3144 4428 2013 4709 
L 2266 5106 
Q 3388 4838 4078 4469 
L 3797 4038 
z
M 1263 3347 
Q 2566 3428 3956 3641 
L 4291 3263 
Q 3759 2741 2875 1778 
Q 3156 1881 3356 1881 
Q 3909 1881 3919 1253 
L 3931 709 
Q 3941 456 4116 409 
Q 4244 372 4519 372 
Q 4944 372 5538 481 
L 5581 -31 
Q 5097 -103 4675 -103 
Q 4047 -103 3791 25 
Q 3484 178 3463 594 
L 3444 1094 
Q 3434 1491 3150 1491 
Q 2800 1491 2322 1072 
Q 1950 747 1109 -184 
L 738 166 
Q 2053 1434 3597 3181 
Q 2600 2988 1391 2841 
L 1263 3347 
z
" transform="scale(0.015625)"/>
     </defs>
     <use xlink:href="#IPAexGothic-5909"/>
     <use xlink:href="#IPAexGothic-6570" x="100"/>
     <use xlink:href="#IPAexGothic-306e" x="200"/>
     <use xlink:href="#IPAexGothic-30b9" x="300"/>
     <use xlink:href="#IPAexGothic-30b1" x="400"/>
     <use xlink:href="#IPAexGothic-30fc" x="500"/>
     <use xlink:href="#IPAexGothic-30eb" x="600"/>
     <use xlink:href="#IPAexGothic-ff08" x="700"/>
     <use xlink:href="#IPAexGothic-5927" x="800"/>
     <use xlink:href="#IPAexGothic-304d" x="900"/>
     <use xlink:href="#IPAexGothic-3055" x="1000"/>
     <use xlink:href="#IPAexGothic-ff09" x="1100"/>
     <use xlink:href="#IPAexGothic-3092" x="1200"/>
     <use xlink:href="#IPAexGothic-63c3" x="1300"/>
     <use xlink:href="#IPAexGothic-3048" x="1400"/>
     <use xlink:href="#IPAexGothic-308b" x="1500"/>
    </g>
   </g>
   <g id="text_24">
    <!-- ③ -->
    <g style="fill: #2c3e50" transform="translate(38.88 231.634687) scale(0.12 -0.12)">
     <use xlink:href="#IPAexGothic-2462"/>
    </g>
   </g>
   <g id="text_25">
    <!-- model.fit(X_train, y_train) -->
    <g style="fill: #2c3e50" transform="translate(82.08 231.69) scale(0.12 -0.12)">
     <defs>
      <path id="IPAexGothic-6d" d="M 5022 63 
L 4472 63 
L 4472 2059 
Q 4472 2869 3847 2869 
Q 3550 2869 3303 2594 
Q 3128 2397 3059 2103 
L 3059 63 
L 2509 63 
L 2509 2066 
Q 2509 2869 1919 2869 
Q 1606 2869 1369 2594 
Q 1113 2306 1113 2041 
L 1113 63 
L 563 63 
L 563 3250 
L 1075 3250 
L 1075 2700 
Q 1391 3316 2028 3316 
Q 2725 3316 2956 2647 
Q 3303 3316 3953 3316 
Q 4478 3316 4772 2944 
Q 5022 2638 5022 2072 
L 5022 63 
z
" transform="scale(0.015625)"/>
      <path id="IPAexGothic-6f" d="M 1919 3341 
Q 2594 3341 3056 2888 
Q 3531 2413 3531 1638 
Q 3531 888 3066 422 
Q 2609 -31 1919 -31 
Q 1228 -31 781 416 
Q 313 881 313 1656 
Q 313 2413 788 2888 
Q 1241 3341 1919 3341 
z
M 1919 2919 
Q 1519 2919 1241 2631 
Q 888 2278 888 1650 
Q 888 1031 1234 684 
Q 1516 403 1919 403 
Q 2331 403 2609 691 
Q 2956 1038 2956 1672 
Q 2956 2269 2603 2631 
Q 2316 2919 1919 2919 
z
" transform="scale(0.015625)"/>
      <path id="IPAexGothic-66" d="M 2456 4622 
L 2228 4244 
Q 1991 4422 1741 4422 
Q 1184 4422 1184 3672 
L 1184 3250 
L 2053 3250 
L 2053 2859 
L 1184 2859 
L 1184 63 
L 641 63 
L 641 2859 
L 122 2859 
L 122 3250 
L 641 3250 
L 641 3659 
Q 641 4188 891 4484 
Q 1200 4844 1709 4844 
Q 2116 4844 2456 4622 
z
" transform="scale(0.015625)"/>
      <path id="IPAexGothic-58" d="M 4203 63 
L 3469 63 
L 2163 1972 
L 881 63 
L 159 63 
L 1822 2369 
L 203 4634 
L 922 4634 
L 2181 2753 
L 3450 4634 
L 4166 4634 
L 2528 2375 
L 4203 63 
z
" transform="scale(0.015625)"/>
      <path id="IPAexGothic-2c" d="M 1150 728 
Q 1028 -159 563 -1006 
L 153 -897 
Q 494 -100 569 728 
L 1150 728 
z
" transform="scale(0.015625)"/>
      <path id="IPAexGothic-79" d="M 3122 3250 
L 1575 -488 
Q 1278 -1203 550 -1203 
L 478 -1203 
L 344 -703 
L 447 -703 
Q 969 -703 1150 -238 
L 1356 275 
L 38 3250 
L 659 3250 
L 1363 1459 
Q 1528 1025 1606 781 
L 1625 781 
Q 1750 1169 1863 1459 
L 2528 3250 
L 3122 3250 
z
" transform="scale(0.015625)"/>
     </defs>
     <use xlink:href="#IPAexGothic-6d"/>
     <use xlink:href="#IPAexGothic-6f" x="87.109375"/>
     <use xlink:href="#IPAexGothic-64" x="147.509766"/>
     <use xlink:href="#IPAexGothic-65" x="209.912109"/>
     <use xlink:href="#IPAexGothic-6c" x="266.796875"/>
     <use xlink:href="#IPAexGothic-2e" x="293.798828"/>
     <use xlink:href="#IPAexGothic-66" x="320.214844"/>
     <use xlink:href="#IPAexGothic-69" x="350.830078"/>
     <use xlink:href="#IPAexGothic-74" x="377.832031"/>
     <use xlink:href="#IPAexGothic-28" x="412.451172"/>
     <use xlink:href="#IPAexGothic-58" x="445.751953"/>
     <use xlink:href="#IPAexGothic-5f" x="514.355469"/>
     <use xlink:href="#IPAexGothic-74" x="564.355469"/>
     <use xlink:href="#IPAexGothic-72" x="598.974609"/>
     <use xlink:href="#IPAexGothic-61" x="635.986328"/>
     <use xlink:href="#IPAexGothic-69" x="690.966797"/>
     <use xlink:href="#IPAexGothic-6e" x="717.96875"/>
     <use xlink:href="#IPAexGothic-2c" x="778.369141"/>
     <use xlink:href="#IPAexGothic-20" x="804.785156"/>
     <use xlink:href="#IPAexGothic-79" x="831.787109"/>
     <use xlink:href="#IPAexGothic-5f" x="881.005859"/>
     <use xlink:href="#IPAexGothic-74" x="931.005859"/>
     <use xlink:href="#IPAexGothic-72" x="965.625"/>
     <use xlink:href="#IPAexGothic-61" x="1002.636719"/>
     <use xlink:href="#IPAexGothic-69" x="1057.617188"/>
     <use xlink:href="#IPAexGothic-6e" x="1084.619141"/>
     <use xlink:href="#IPAexGothic-29" x="1145.019531"/>
    </g>
   </g>
   <g id="text_26">
    <!-- 訓練データでモデルを学習する -->
    <g style="fill: #2c3e50" transform="translate(298.08 231.6675) scale(0.12 -0.12)">
     <defs>
      <path id="IPAexGothic-8a13" d="M 2572 1684 
L 2572 -50 
L 991 -50 
L 991 -391 
L 563 -391 
L 563 1684 
L 2572 1684 
z
M 991 1313 
L 991 328 
L 2144 328 
L 2144 1313 
L 991 1313 
z
M 672 5044 
L 2466 5044 
L 2466 4659 
L 672 4659 
L 672 5044 
z
M 372 4206 
L 2803 4206 
L 2803 3816 
L 372 3816 
L 372 4206 
z
M 672 3359 
L 2466 3359 
L 2466 2975 
L 672 2975 
L 672 3359 
z
M 672 2522 
L 2466 2522 
L 2466 2138 
L 672 2138 
L 672 2522 
z
M 4188 4750 
L 4628 4750 
L 4628 84 
L 4188 84 
L 4188 4750 
z
M 5334 5063 
L 5781 5063 
L 5781 -378 
L 5334 -378 
L 5334 5063 
z
M 3113 4997 
L 3553 4997 
L 3553 2509 
Q 3553 428 2947 -519 
L 2575 -178 
Q 3113 638 3113 2413 
L 3113 4997 
z
" transform="scale(0.015625)"/>
      <path id="IPAexGothic-7df4" d="M 4597 1663 
Q 5172 844 6181 288 
L 5894 -103 
Q 5009 456 4506 1234 
L 4506 -450 
L 4084 -450 
L 4084 1188 
Q 3619 397 2738 -225 
L 2431 147 
Q 3416 672 3994 1663 
L 2816 1663 
L 2816 3706 
L 4084 3706 
L 4084 4159 
L 2572 4159 
L 2572 4544 
L 4084 4544 
L 4084 5313 
L 4506 5313 
L 4506 4544 
L 6041 4544 
L 6041 4159 
L 4506 4159 
L 4506 3706 
L 5791 3706 
L 5791 1663 
L 4597 1663 
z
M 4091 3353 
L 3219 3353 
L 3219 2869 
L 4091 2869 
L 4091 3353 
z
M 4494 3353 
L 4494 2869 
L 5381 2869 
L 5381 3353 
L 4494 3353 
z
M 4091 2528 
L 3219 2528 
L 3219 2016 
L 4091 2016 
L 4091 2528 
z
M 4494 2528 
L 4494 2016 
L 5381 2016 
L 5381 2528 
L 4494 2528 
z
M 1194 3084 
L 1150 3144 
Q 691 3791 319 4128 
L 575 4441 
Q 709 4306 850 4153 
Q 1197 4659 1491 5325 
L 1906 5125 
Q 1447 4325 1100 3866 
Q 1288 3638 1425 3438 
Q 1769 4003 2047 4531 
L 2431 4319 
Q 1909 3381 1278 2584 
L 1559 2597 
Q 1666 2606 1881 2625 
Q 2031 2638 2103 2644 
Q 2000 2894 1881 3122 
L 2194 3263 
Q 2497 2775 2725 2100 
L 2341 1919 
Q 2247 2241 2219 2328 
Q 2156 2319 1669 2247 
L 1669 -447 
L 1266 -447 
L 1266 2194 
Q 1203 2194 1156 2188 
Q 731 2144 409 2119 
L 281 2547 
Q 819 2559 831 2559 
Q 834 2569 850 2588 
Q 859 2597 863 2606 
Q 872 2616 972 2759 
Q 1094 2938 1194 3084 
z
M 325 191 
Q 534 850 600 1778 
L 991 1734 
Q 925 738 722 -13 
L 325 191 
z
M 2119 416 
Q 2059 1056 1863 1741 
L 2206 1838 
Q 2416 1303 2528 603 
L 2119 416 
z
" transform="scale(0.015625)"/>
      <path id="IPAexGothic-3067" d="M 581 4034 
Q 2978 4363 5466 4556 
L 5509 4097 
Q 4388 4031 3750 3572 
Q 2797 2878 2797 1913 
Q 2797 1169 3291 819 
Q 3778 484 4869 416 
L 4906 -116 
Q 2278 0 2278 1850 
Q 2278 3125 3691 4000 
Q 2066 3784 684 3553 
L 581 4034 
z
M 5631 2522 
Q 5269 3063 4875 3391 
L 5175 3622 
Q 5559 3313 5950 2797 
L 5631 2522 
z
M 5034 2053 
Q 4747 2544 4300 2944 
L 4613 3184 
Q 4984 2878 5369 2328 
L 5034 2053 
z
" transform="scale(0.015625)"/>
      <path id="IPAexGothic-3059" d="M 3322 5075 
L 3816 5075 
L 3816 4063 
Q 4131 4075 5756 4116 
L 5756 3669 
Q 5431 3672 3816 3653 
L 3816 2463 
Q 3956 2125 3956 1741 
Q 3956 922 3519 397 
Q 3128 -72 2309 -409 
L 1941 -31 
Q 3263 453 3488 1363 
Q 3250 1031 2809 1031 
Q 2441 1031 2150 1313 
Q 1875 1588 1875 2050 
Q 1875 2475 2166 2769 
Q 2431 3041 2822 3041 
Q 3088 3041 3322 2881 
L 3322 3641 
Q 3000 3634 609 3547 
L 609 3988 
Q 1197 4000 2106 4022 
Q 3066 4047 3322 4050 
L 3322 5075 
z
M 3372 2044 
Q 3372 2300 3194 2478 
Q 3050 2613 2869 2613 
Q 2622 2613 2463 2406 
Q 2344 2250 2344 2088 
Q 2344 1797 2484 1622 
Q 2625 1453 2859 1453 
Q 3372 1453 3372 2044 
z
" transform="scale(0.015625)"/>
     </defs>
     <use xlink:href="#IPAexGothic-8a13"/>
     <use xlink:href="#IPAexGothic-7df4" x="100"/>
     <use xlink:href="#IPAexGothic-30c7" x="200"/>
     <use xlink:href="#IPAexGothic-30fc" x="300"/>
     <use xlink:href="#IPAexGothic-30bf" x="400"/>
     <use xlink:href="#IPAexGothic-3067" x="500"/>
     <use xlink:href="#IPAexGothic-30e2" x="600"/>
     <use xlink:href="#IPAexGothic-30c7" x="700"/>
     <use xlink:href="#IPAexGothic-30eb" x="800"/>
     <use xlink:href="#IPAexGothic-3092" x="900"/>
     <use xlink:href="#IPAexGothic-5b66" x="1000"/>
     <use xlink:href="#IPAexGothic-7fd2" x="1100"/>
     <use xlink:href="#IPAexGothic-3059" x="1200"/>
     <use xlink:href="#IPAexGothic-308b" x="1300"/>
    </g>
   </g>
   <g id="text_27">
    <!-- ④ -->
    <g style="fill: #2c3e50" transform="translate(38.88 256.114687) scale(0.12 -0.12)">
     <use xlink:href="#IPAexGothic-2463"/>
    </g>
   </g>
   <g id="text_28">
    <!-- model.predict(X_test) -->
    <g style="fill: #2c3e50" transform="translate(82.08 256.182187) scale(0.12 -0.12)">
     <use xlink:href="#IPAexGothic-6d"/>
     <use xlink:href="#IPAexGothic-6f" x="87.109375"/>
     <use xlink:href="#IPAexGothic-64" x="147.509766"/>
     <use xlink:href="#IPAexGothic-65" x="209.912109"/>
     <use xlink:href="#IPAexGothic-6c" x="266.796875"/>
     <use xlink:href="#IPAexGothic-2e" x="293.798828"/>
     <use xlink:href="#IPAexGothic-70" x="320.214844"/>
     <use xlink:href="#IPAexGothic-72" x="382.324219"/>
     <use xlink:href="#IPAexGothic-65" x="419.335938"/>
     <use xlink:href="#IPAexGothic-64" x="476.220703"/>
     <use xlink:href="#IPAexGothic-69" x="538.623047"/>
     <use xlink:href="#IPAexGothic-63" x="565.625"/>
     <use xlink:href="#IPAexGothic-74" x="620.019531"/>
     <use xlink:href="#IPAexGothic-28" x="654.638672"/>
     <use xlink:href="#IPAexGothic-58" x="687.939453"/>
     <use xlink:href="#IPAexGothic-5f" x="756.542969"/>
     <use xlink:href="#IPAexGothic-74" x="806.542969"/>
     <use xlink:href="#IPAexGothic-65" x="841.162109"/>
     <use xlink:href="#IPAexGothic-73" x="898.046875"/>
     <use xlink:href="#IPAexGothic-74" x="944.238281"/>
     <use xlink:href="#IPAexGothic-29" x="978.857422"/>
    </g>
   </g>
   <g id="text_29">
    <!-- テストデータで予測値を出力する -->
    <g style="fill: #2c3e50" transform="translate(298.08 256.118437) scale(0.12 -0.12)">
     <defs>
      <path id="IPAexGothic-5024" d="M 4172 3675 
L 5453 3675 
L 5453 684 
L 3019 684 
L 3019 3675 
L 3750 3675 
Q 3788 3884 3825 4153 
L 2141 4153 
L 2141 4544 
L 3884 4544 
Q 3922 4844 3966 5325 
L 4434 5272 
L 4388 4953 
Q 4331 4578 4331 4544 
L 5863 4544 
L 5863 4153 
L 4269 4153 
Q 4200 3781 4172 3675 
z
M 5038 3316 
L 3434 3316 
L 3434 2803 
L 5038 2803 
L 5038 3316 
z
M 3434 2450 
L 3434 1941 
L 5038 1941 
L 5038 2450 
L 3434 2450 
z
M 3434 1588 
L 3434 1044 
L 5038 1044 
L 5038 1588 
L 3434 1588 
z
M 1509 3669 
L 1509 -447 
L 1069 -447 
L 1069 2725 
Q 856 2338 531 1875 
L 288 2266 
Q 1163 3531 1541 5325 
L 1975 5222 
Q 1791 4378 1509 3669 
z
M 2488 244 
L 6031 244 
L 6031 -153 
L 2488 -153 
L 2488 -447 
L 2059 -447 
L 2059 3213 
L 2488 3213 
L 2488 244 
z
" transform="scale(0.015625)"/>
      <path id="IPAexGothic-51fa" d="M 3419 2956 
L 4928 2956 
L 4928 4500 
L 5397 4500 
L 5397 2203 
L 4928 2203 
L 4928 2541 
L 3419 2541 
L 3419 384 
L 5194 384 
L 5194 1813 
L 5653 1813 
L 5653 -447 
L 5194 -447 
L 5194 -31 
L 1203 -31 
L 1203 -447 
L 744 -447 
L 744 1813 
L 1203 1813 
L 1203 384 
L 2938 384 
L 2938 2541 
L 1459 2541 
L 1459 2203 
L 1000 2203 
L 1000 4500 
L 1459 4500 
L 1459 2956 
L 2938 2956 
L 2938 5144 
L 3419 5144 
L 3419 2956 
z
" transform="scale(0.015625)"/>
      <path id="IPAexGothic-529b" d="M 3303 3944 
L 5653 3944 
Q 5622 1247 5428 356 
Q 5303 -231 4647 -231 
Q 4159 -231 3456 -147 
L 3381 416 
Q 4022 263 4456 263 
Q 4881 263 4947 616 
Q 5106 1509 5134 3303 
L 5141 3509 
L 3291 3509 
Q 3234 2200 2741 1281 
Q 2194 297 878 -416 
L 525 -6 
Q 2709 963 2778 3450 
L 641 3450 
L 641 3891 
L 2784 3891 
L 2784 5147 
L 3303 5147 
L 3303 3944 
z
" transform="scale(0.015625)"/>
     </defs>
     <use xlink:href="#IPAexGothic-30c6"/>
     <use xlink:href="#IPAexGothic-30b9" x="100"/>
     <use xlink:href="#IPAexGothic-30c8" x="200"/>
     <use xlink:href="#IPAexGothic-30c7" x="300"/>
     <use xlink:href="#IPAexGothic-30fc" x="400"/>
     <use xlink:href="#IPAexGothic-30bf" x="500"/>
     <use xlink:href="#IPAexGothic-3067" x="600"/>
     <use xlink:href="#IPAexGothic-4e88" x="700"/>
     <use xlink:href="#IPAexGothic-6e2c" x="800"/>
     <use xlink:href="#IPAexGothic-5024" x="900"/>
     <use xlink:href="#IPAexGothic-3092" x="1000"/>
     <use xlink:href="#IPAexGothic-51fa" x="1100"/>
     <use xlink:href="#IPAexGothic-529b" x="1200"/>
     <use xlink:href="#IPAexGothic-3059" x="1300"/>
     <use xlink:href="#IPAexGothic-308b" x="1400"/>
    </g>
   </g>
   <g id="text_30">
    <!-- ⑤ -->
    <g style="fill: #2c3e50" transform="translate(38.88 280.594687) scale(0.12 -0.12)">
     <use xlink:href="#IPAexGothic-2464"/>
    </g>
   </g>
   <g id="text_31">
    <!-- accuracy_score() / confusion_matrix() -->
    <g style="fill: #2c3e50" transform="translate(82.08 280.65) scale(0.12 -0.12)">
     <defs>
      <path id="IPAexGothic-75" d="M 3284 63 
L 2772 63 
L 2772 644 
Q 2300 0 1625 0 
Q 1072 0 763 375 
Q 519 678 519 1241 
L 519 3250 
L 1069 3250 
L 1069 1259 
Q 1069 466 1734 466 
Q 2406 466 2734 1291 
L 2734 3250 
L 3284 3250 
L 3284 63 
z
" transform="scale(0.015625)"/>
      <path id="IPAexGothic-2f" d="M 2719 4709 
L 600 -884 
L 300 -763 
L 2413 4831 
L 2719 4709 
z
" transform="scale(0.015625)"/>
      <path id="IPAexGothic-78" d="M 3050 63 
L 2419 63 
L 1547 1338 
L 691 63 
L 56 63 
L 1247 1675 
L 106 3250 
L 747 3250 
L 1578 2016 
L 2413 3250 
L 3019 3250 
L 1875 1681 
L 3050 63 
z
" transform="scale(0.015625)"/>
     </defs>
     <use xlink:href="#IPAexGothic-61"/>
     <use xlink:href="#IPAexGothic-63" x="54.980469"/>
     <use xlink:href="#IPAexGothic-63" x="109.375"/>
     <use xlink:href="#IPAexGothic-75" x="163.769531"/>
     <use xlink:href="#IPAexGothic-72" x="224.169922"/>
     <use xlink:href="#IPAexGothic-61" x="261.181641"/>
     <use xlink:href="#IPAexGothic-63" x="316.162109"/>
     <use xlink:href="#IPAexGothic-79" x="370.556641"/>
     <use xlink:href="#IPAexGothic-5f" x="419.775391"/>
     <use xlink:href="#IPAexGothic-73" x="469.775391"/>
     <use xlink:href="#IPAexGothic-63" x="515.966797"/>
     <use xlink:href="#IPAexGothic-6f" x="570.361328"/>
     <use xlink:href="#IPAexGothic-72" x="630.761719"/>
     <use xlink:href="#IPAexGothic-65" x="667.773438"/>
     <use xlink:href="#IPAexGothic-28" x="724.658203"/>
     <use xlink:href="#IPAexGothic-29" x="757.958984"/>
     <use xlink:href="#IPAexGothic-20" x="791.259766"/>
     <use xlink:href="#IPAexGothic-2f" x="818.261719"/>
     <use xlink:href="#IPAexGothic-20" x="868.261719"/>
     <use xlink:href="#IPAexGothic-63" x="895.263672"/>
     <use xlink:href="#IPAexGothic-6f" x="949.658203"/>
     <use xlink:href="#IPAexGothic-6e" x="1010.058594"/>
     <use xlink:href="#IPAexGothic-66" x="1070.458984"/>
     <use xlink:href="#IPAexGothic-75" x="1101.074219"/>
     <use xlink:href="#IPAexGothic-73" x="1161.474609"/>
     <use xlink:href="#IPAexGothic-69" x="1207.666016"/>
     <use xlink:href="#IPAexGothic-6f" x="1234.667969"/>
     <use xlink:href="#IPAexGothic-6e" x="1295.068359"/>
     <use xlink:href="#IPAexGothic-5f" x="1355.46875"/>
     <use xlink:href="#IPAexGothic-6d" x="1405.46875"/>
     <use xlink:href="#IPAexGothic-61" x="1492.578125"/>
     <use xlink:href="#IPAexGothic-74" x="1547.558594"/>
     <use xlink:href="#IPAexGothic-72" x="1582.177734"/>
     <use xlink:href="#IPAexGothic-69" x="1619.189453"/>
     <use xlink:href="#IPAexGothic-78" x="1646.191406"/>
     <use xlink:href="#IPAexGothic-28" x="1695.068359"/>
     <use xlink:href="#IPAexGothic-29" x="1728.369141"/>
    </g>
   </g>
   <g id="text_32">
    <!-- 予測の正確さを測る -->
    <g style="fill: #2c3e50" transform="translate(298.08 280.554375) scale(0.12 -0.12)">
     <defs>
      <path id="IPAexGothic-6b63" d="M 3547 409 
L 5916 409 
L 5916 -31 
L 481 -31 
L 481 409 
L 1441 409 
L 1441 3231 
L 1934 3231 
L 1934 409 
L 3059 409 
L 3059 4288 
L 750 4288 
L 750 4728 
L 5659 4728 
L 5659 4288 
L 3547 4288 
L 3547 2669 
L 5353 2669 
L 5353 2241 
L 3547 2241 
L 3547 409 
z
" transform="scale(0.015625)"/>
      <path id="IPAexGothic-78ba" d="M 4347 3219 
Q 4516 3538 4647 3956 
L 5075 3853 
Q 4875 3431 4750 3219 
L 5888 3219 
L 5888 2847 
L 4700 2847 
L 4700 2222 
L 5741 2222 
L 5741 1869 
L 4700 1869 
L 4700 1250 
L 5741 1250 
L 5741 897 
L 4700 897 
L 4700 231 
L 6034 231 
L 6034 -141 
L 3463 -141 
L 3463 -447 
L 3047 -447 
L 3047 2444 
Q 2756 2019 2484 1703 
L 2284 2100 
Q 3159 3197 3506 4147 
L 2913 4147 
L 2913 3425 
L 2509 3425 
L 2509 4519 
L 3634 4519 
Q 3750 4903 3847 5319 
L 4269 5241 
Q 4175 4834 4072 4519 
L 5934 4519 
L 5934 3425 
L 5525 3425 
L 5525 4147 
L 3938 4147 
Q 3747 3647 3513 3219 
L 4347 3219 
z
M 4297 2847 
L 3463 2847 
L 3463 2222 
L 4297 2222 
L 4297 2847 
z
M 4297 1869 
L 3463 1869 
L 3463 1250 
L 4297 1250 
L 4297 1869 
z
M 4297 897 
L 3463 897 
L 3463 231 
L 4297 231 
L 4297 897 
z
M 1159 2944 
L 2275 2944 
L 2275 197 
L 1213 197 
L 1213 -328 
L 816 -328 
L 816 2206 
Q 650 1903 394 1522 
L 188 1919 
Q 931 3013 1200 4416 
L 406 4416 
L 406 4819 
L 2409 4819 
L 2409 4416 
L 1616 4416 
L 1597 4353 
Q 1456 3663 1159 2944 
z
M 1213 2553 
L 1213 588 
L 1878 588 
L 1878 2553 
L 1213 2553 
z
" transform="scale(0.015625)"/>
     </defs>
     <use xlink:href="#IPAexGothic-4e88"/>
     <use xlink:href="#IPAexGothic-6e2c" x="100"/>
     <use xlink:href="#IPAexGothic-306e" x="200"/>
     <use xlink:href="#IPAexGothic-6b63" x="300"/>
     <use xlink:href="#IPAexGothic-78ba" x="400"/>
     <use xlink:href="#IPAexGothic-3055" x="500"/>
     <use xlink:href="#IPAexGothic-3092" x="600"/>
     <use xlink:href="#IPAexGothic-6e2c" x="700"/>
     <use xlink:href="#IPAexGothic-308b" x="800"/>
    </g>
   </g>
  </g>
 </g>
 <defs>
  <clipPath id="p28093f8374">
   <rect x="0" y="-0" width="691.2" height="388.8"/>
  </clipPath>
 </defs>
</svg>
