<?xml version="1.0" encoding="utf-8" standalone="no"?>
<!DOCTYPE svg PUBLIC "-//W3C//DTD SVG 1.1//EN"
  "http://www.w3.org/Graphics/SVG/1.1/DTD/svg11.dtd">
<svg xmlns:xlink="http://www.w3.org/1999/xlink" width="691.2pt" height="388.8pt" viewBox="0 0 691.2 388.8" xmlns="http://www.w3.org/2000/svg" version="1.1">
 <metadata>
  <rdf:RDF xmlns:dc="http://purl.org/dc/elements/1.1/" xmlns:cc="http://creativecommons.org/ns#" xmlns:rdf="http://www.w3.org/1999/02/22-rdf-syntax-ns#">
   <cc:Work>
    <dc:type rdf:resource="http://purl.org/dc/dcmitype/StillImage"/>
    <dc:date>2026-04-09T02:37:46.082863</dc:date>
    <dc:format>image/svg+xml</dc:format>
    <dc:creator>
     <cc:Agent>
      <dc:title>Matplotlib v3.9.4, https://matplotlib.org/</dc:title>
     </cc:Agent>
    </dc:creator>
   </cc:Work>
  </rdf:RDF>
 </metadata>
 <defs>
  <style type="text/css">*{stroke-linejoin: round; stroke-linecap: butt}</style>
 </defs>
 <g id="figure_1">
  <g id="patch_1">
   <path d="M 0 388.8 
L 691.2 388.8 
L 691.2 0 
L 0 0 
z
" style="fill: #ffffff"/>
  </g>
  <g id="axes_1">
   <g id="patch_2">
    <path d="M 0 -0 
L 691.2 -0 
L 691.2 24.48 
L 0 24.48 
z
" clip-path="url(#pc0607c94d3)" style="fill: #c0392b"/>
   </g>
   <g id="patch_3">
    <path d="M 31.68 59.04 
L 659.52 59.04 
L 659.52 60.48 
L 31.68 60.48 
z
" clip-path="url(#pc0607c94d3)" style="fill: #ecf0f1"/>
   </g>
   <g id="patch_4">
    <path d="M 50.4 74.88 
L 151.2 74.88 
Q 155.52 74.88 155.52 79.2 
L 155.52 165.6 
Q 155.52 169.92 151.2 169.92 
L 50.4 169.92 
Q 46.08 169.92 46.08 165.6 
L 46.08 79.2 
Q 46.08 74.88 50.4 74.88 
z
" clip-path="url(#pc0607c94d3)" style="fill: #4a90d9"/>
   </g>
   <g id="patch_5">
    <path d="M 194.4 74.88 
L 295.2 74.88 
Q 299.52 74.88 299.52 79.2 
L 299.52 165.6 
Q 299.52 169.92 295.2 169.92 
L 194.4 169.92 
Q 190.08 169.92 190.08 165.6 
L 190.08 79.2 
Q 190.08 74.88 194.4 74.88 
z
" clip-path="url(#pc0607c94d3)" style="fill: #5ba85a"/>
   </g>
   <g id="patch_6">
    <path d="M 338.4 74.88 
L 439.2 74.88 
Q 443.52 74.88 443.52 79.2 
L 443.52 165.6 
Q 443.52 169.92 439.2 169.92 
L 338.4 169.92 
Q 334.08 169.92 334.08 165.6 
L 334.08 79.2 
Q 334.08 74.88 338.4 74.88 
z
" clip-path="url(#pc0607c94d3)" style="fill: #e8a838"/>
   </g>
   <g id="patch_7">
    <path d="M 475.2 74.88 
L 583.2 74.88 
Q 587.52 74.88 587.52 79.2 
L 587.52 165.6 
Q 587.52 169.92 583.2 169.92 
L 475.2 169.92 
Q 470.88 169.92 470.88 165.6 
L 470.88 79.2 
Q 470.88 74.88 475.2 74.88 
z
" clip-path="url(#pc0607c94d3)" style="fill: #8e44ad"/>
   </g>
   <g id="patch_8">
    <path d="M 31.68 184.32 
L 659.52 184.32 
Q 662.4 184.32 662.4 187.2 
L 662.4 244.8 
Q 662.4 247.68 659.52 247.68 
L 31.68 247.68 
Q 28.8 247.68 28.8 244.8 
L 28.8 187.2 
Q 28.8 184.32 31.68 184.32 
z
" clip-path="url(#pc0607c94d3)" style="fill: #1e1e2e; stroke: #555555; stroke-linejoin: miter"/>
   </g>
   <g id="text_1">
    <!-- Ch.4 機械学習モデル構築 -->
    <g style="fill: #ffffff" transform="translate(31.68 15.09625) scale(0.1 -0.1)">
     <defs>
      <path id="IPAexGothic-43" d="M 4353 1088 
Q 4181 694 3859 428 
Q 3313 -31 2559 -31 
Q 1588 -31 959 653 
Q 378 1294 378 2331 
Q 378 3406 1013 4078 
Q 1619 4725 2534 4725 
Q 3813 4725 4322 3628 
L 3809 3391 
Q 3425 4238 2541 4238 
Q 1891 4238 1453 3744 
Q 994 3216 994 2322 
Q 994 1550 1384 1056 
Q 1841 472 2563 472 
Q 3456 472 3878 1319 
L 4353 1088 
z
" transform="scale(0.015625)"/>
      <path id="IPAexGothic-68" d="M 3347 63 
L 2797 63 
L 2797 2041 
Q 2797 2853 2131 2853 
Q 1447 2853 1131 2041 
L 1131 63 
L 581 63 
L 581 4794 
L 1131 4794 
L 1131 2706 
Q 1566 3316 2247 3316 
Q 3347 3316 3347 2072 
L 3347 63 
z
" transform="scale(0.015625)"/>
      <path id="IPAexGothic-2e" d="M 1184 63 
L 494 63 
L 494 753 
L 1184 753 
L 1184 63 
z
" transform="scale(0.015625)"/>
      <path id="IPAexGothic-34" d="M 3813 1159 
L 3059 1159 
L 3059 63 
L 2547 63 
L 2547 1159 
L 197 1159 
L 197 1672 
L 2456 4678 
L 3059 4678 
L 3059 1634 
L 3813 1634 
L 3813 1159 
z
M 2578 4109 
L 2559 4109 
Q 2278 3656 2003 3284 
L 759 1634 
L 2547 1634 
L 2547 3144 
Q 2547 3481 2578 4109 
z
" transform="scale(0.015625)"/>
      <path id="IPAexGothic-20" transform="scale(0.015625)"/>
      <path id="IPAexGothic-6a5f" d="M 3916 2125 
Q 3806 2984 3806 4238 
L 3806 5313 
L 4216 5313 
L 4216 4300 
Q 4216 3081 4300 2278 
L 4313 2150 
L 5175 2150 
Q 4984 2350 4822 2469 
L 5144 2669 
Q 5325 2541 5547 2309 
L 5309 2150 
L 6006 2150 
L 6006 1797 
L 4363 1797 
Q 4450 1278 4688 869 
Q 4931 1150 5194 1631 
L 5553 1431 
Q 5284 953 4913 531 
Q 4941 491 4959 475 
Q 5278 78 5438 78 
Q 5581 78 5669 844 
L 6066 628 
Q 5881 -422 5559 -422 
Q 5163 -422 4631 244 
Q 4069 -275 3384 -519 
L 3116 -191 
Q 3881 88 4406 569 
Q 4072 1116 3966 1772 
L 3084 1772 
Q 3078 1747 3078 1675 
Q 3078 1650 3063 1431 
Q 3534 1153 3934 781 
L 3684 441 
Q 3328 816 3031 1056 
Q 2906 91 2238 -494 
L 1950 -172 
Q 2478 241 2603 891 
Q 2659 1197 2681 1772 
L 2116 1772 
L 2116 2125 
L 3916 2125 
z
M 1113 2534 
Q 813 1522 384 794 
L 153 1250 
Q 763 2228 1063 3547 
L 294 3547 
L 294 3956 
L 1113 3956 
L 1113 5306 
L 1522 5306 
L 1522 3956 
L 2138 3956 
L 2138 3547 
L 1522 3547 
L 1522 2881 
Q 1875 2588 2150 2228 
L 1888 1884 
Q 1753 2144 1522 2434 
L 1522 -447 
L 1113 -447 
L 1113 2534 
z
M 2750 3334 
Q 2441 3850 2131 4159 
L 2347 4469 
Q 2384 4425 2509 4275 
Q 2734 4703 2913 5228 
L 3263 5025 
Q 3028 4447 2719 3988 
Q 2766 3919 2838 3803 
Q 2913 3684 2938 3647 
Q 3175 4066 3347 4434 
L 3666 4244 
Q 3263 3431 2809 2841 
Q 3097 2872 3347 2900 
Q 3347 2913 3334 2950 
Q 3313 3063 3231 3303 
L 3519 3372 
Q 3716 2891 3781 2413 
L 3456 2297 
Q 3453 2316 3428 2484 
Q 3416 2575 3403 2631 
Q 2906 2506 2175 2438 
L 2072 2797 
Q 2109 2800 2194 2803 
Q 2263 2806 2297 2809 
Q 2369 2809 2413 2816 
L 2438 2853 
Q 2538 2994 2750 3334 
z
M 4875 3413 
Q 4559 3916 4263 4206 
L 4478 4506 
Q 4494 4488 4559 4406 
Q 4609 4350 4641 4306 
Q 4891 4769 5038 5216 
L 5394 5013 
Q 5147 4466 4838 4025 
Q 4963 3844 5050 3700 
Q 5241 4019 5466 4469 
L 5784 4256 
Q 5497 3725 4991 3009 
Q 5356 3031 5547 3053 
Q 5466 3281 5381 3450 
L 5681 3553 
Q 5872 3181 6022 2669 
L 5709 2503 
Q 5697 2550 5663 2678 
Q 5641 2759 5631 2797 
Q 5019 2669 4434 2619 
L 4338 2975 
Q 4513 2975 4594 2981 
Q 4778 3256 4875 3413 
z
" transform="scale(0.015625)"/>
      <path id="IPAexGothic-68b0" d="M 4678 1275 
Q 4447 2122 4334 3547 
L 2344 3547 
L 2344 3956 
L 4300 3956 
Q 4247 4656 4231 5306 
L 4659 5306 
Q 4669 4741 4719 3981 
L 6044 3981 
L 6044 3572 
L 4750 3572 
L 4781 3284 
Q 4875 2322 4988 1806 
Q 5303 2409 5497 3100 
L 5894 2938 
Q 5572 1963 5134 1231 
Q 5247 834 5397 547 
Q 5513 322 5556 322 
Q 5656 322 5759 1225 
L 6131 941 
Q 5959 -350 5638 -350 
Q 5475 -350 5222 9 
Q 5006 319 4831 781 
Q 4278 41 3438 -478 
L 3150 -134 
Q 4069 381 4678 1275 
z
M 2778 2344 
L 2778 3216 
L 3169 3216 
L 3169 2344 
L 3572 2344 
L 3572 3216 
L 3963 3216 
L 3963 2344 
L 4384 2344 
L 4384 1966 
L 3963 1966 
L 3963 647 
L 3572 647 
L 3572 1966 
L 3169 1966 
Q 3156 1372 3097 1044 
Q 2991 463 2603 0 
L 2297 309 
Q 2778 856 2778 1966 
L 2344 1966 
L 2125 1634 
Q 1813 2106 1622 2338 
L 1622 -447 
L 1200 -447 
L 1200 2594 
Q 928 1569 450 794 
L 188 1256 
Q 850 2238 1147 3547 
L 322 3547 
L 322 3956 
L 1200 3956 
L 1200 5306 
L 1622 5306 
L 1622 3956 
L 2222 3956 
L 2222 3547 
L 1622 3547 
L 1622 2831 
Q 2053 2453 2344 2063 
L 2344 2344 
L 2778 2344 
z
M 5491 4141 
Q 5256 4613 4953 4991 
L 5319 5172 
Q 5603 4850 5869 4359 
L 5491 4141 
z
" transform="scale(0.015625)"/>
      <path id="IPAexGothic-5b66" d="M 1706 4050 
L 1688 4088 
Q 1525 4513 1244 4959 
L 1681 5150 
Q 1947 4791 2200 4216 
L 1763 4050 
L 3941 4050 
Q 4359 4628 4653 5234 
L 5138 5016 
Q 4822 4488 4472 4050 
L 5797 4050 
L 5797 2675 
L 5338 2675 
L 5338 3653 
L 1072 3653 
L 1072 2675 
L 613 2675 
L 613 4050 
L 1706 4050 
z
M 3444 1888 
L 3444 1650 
L 6078 1650 
L 6078 1241 
L 3475 1241 
L 3475 91 
Q 3475 -428 2834 -428 
Q 2319 -428 1875 -366 
L 1784 128 
Q 2278 25 2744 25 
Q 2994 25 2994 263 
L 2994 1241 
L 319 1241 
L 319 1650 
L 2969 1650 
L 2969 2113 
L 3000 2125 
Q 3559 2338 4116 2675 
L 1466 2675 
L 1466 3078 
L 4756 3078 
L 5019 2822 
Q 4338 2309 3444 1888 
z
M 3019 4072 
Q 2831 4609 2572 5044 
L 3006 5228 
Q 3275 4822 3500 4250 
L 3019 4072 
z
" transform="scale(0.015625)"/>
      <path id="IPAexGothic-7fd2" d="M 3006 5063 
L 3006 3047 
Q 3006 2781 2878 2675 
Q 2769 2584 2481 2584 
Q 2078 2584 1772 2631 
L 1716 3072 
Q 2159 2988 2347 2988 
Q 2566 2988 2566 3219 
L 2566 4678 
L 466 4678 
L 466 5063 
L 3006 5063 
z
M 5778 5063 
L 5778 3041 
Q 5778 2584 5288 2584 
Q 4916 2584 4519 2631 
L 4441 3066 
Q 4856 2988 5131 2988 
Q 5338 2988 5338 3206 
L 5338 4678 
L 3238 4678 
L 3238 5063 
L 5778 5063 
z
M 2866 2119 
Q 2950 2356 3013 2669 
L 3500 2572 
Q 3409 2322 3306 2119 
L 5325 2119 
L 5325 -447 
L 4856 -447 
L 4856 -172 
L 1619 -172 
L 1619 -447 
L 1150 -447 
L 1150 2119 
L 2866 2119 
z
M 1619 1747 
L 1619 1197 
L 4856 1197 
L 4856 1747 
L 1619 1747 
z
M 1619 831 
L 1619 206 
L 4856 206 
L 4856 831 
L 1619 831 
z
M 1594 3681 
Q 1219 4044 778 4341 
L 1056 4609 
Q 1525 4325 1869 3981 
L 1594 3681 
z
M 4269 3694 
Q 3816 4066 3403 4341 
L 3684 4622 
Q 4203 4294 4556 3994 
L 4269 3694 
z
M 447 2950 
Q 1328 3347 2225 3969 
L 2353 3622 
Q 1581 3056 691 2606 
L 447 2950 
z
M 3231 3059 
Q 4138 3444 4978 4031 
L 5113 3675 
Q 4281 3066 3463 2700 
L 3231 3059 
z
" transform="scale(0.015625)"/>
      <path id="IPAexGothic-30e2" d="M 1216 4409 
L 5147 4409 
L 5147 3950 
L 3053 3950 
L 3053 2797 
L 5644 2797 
L 5644 2328 
L 3053 2328 
L 3053 972 
Q 3053 669 3272 600 
Q 3453 544 4013 544 
Q 4556 544 5269 600 
L 5269 97 
Q 4684 50 4147 50 
Q 3025 50 2753 250 
Q 2541 403 2541 825 
L 2541 2328 
L 744 2328 
L 744 2797 
L 2541 2797 
L 2541 3950 
L 1216 3950 
L 1216 4409 
z
" transform="scale(0.015625)"/>
      <path id="IPAexGothic-30c7" d="M 563 3072 
L 5741 3072 
L 5741 2613 
L 3578 2613 
Q 3538 1516 3134 872 
Q 2688 156 1663 -256 
L 1313 156 
Q 2338 538 2713 1166 
Q 3003 1644 3034 2613 
L 563 2613 
L 563 3072 
z
M 1406 4588 
L 4588 4588 
L 4588 4128 
L 1406 4128 
L 1406 4588 
z
M 6009 4469 
Q 5647 5009 5253 5338 
L 5553 5569 
Q 5938 5259 6328 4744 
L 6009 4469 
z
M 5413 4000 
Q 5125 4491 4678 4891 
L 4991 5131 
Q 5363 4825 5747 4275 
L 5413 4000 
z
" transform="scale(0.015625)"/>
      <path id="IPAexGothic-30eb" d="M 353 331 
Q 1313 994 1544 2022 
Q 1684 2650 1684 4397 
L 2203 4397 
L 2203 4153 
L 2203 4116 
Q 2203 2259 1934 1491 
Q 1619 588 744 -38 
L 353 331 
z
M 3125 4666 
L 3650 4666 
L 3650 769 
Q 4875 1488 5672 2734 
L 6000 2278 
Q 5075 966 3516 63 
L 3125 359 
L 3125 4666 
z
" transform="scale(0.015625)"/>
      <path id="IPAexGothic-69cb" d="M 1206 2594 
Q 925 1575 456 788 
L 194 1250 
Q 856 2238 1153 3547 
L 328 3547 
L 328 3956 
L 1206 3956 
L 1206 5306 
L 1628 5306 
L 1628 3956 
L 2306 3956 
L 2306 3547 
L 1628 3547 
L 1628 2906 
Q 2213 2391 2447 2106 
L 2191 1647 
Q 1931 2031 1628 2406 
L 1628 -447 
L 1206 -447 
L 1206 2594 
z
M 5006 3194 
L 6100 3194 
L 6100 2841 
L 4328 2841 
L 4328 2509 
L 5647 2509 
L 5647 1025 
L 6131 1025 
L 6131 672 
L 5647 672 
L 5647 78 
Q 5647 -191 5525 -294 
Q 5413 -397 5106 -397 
Q 4716 -397 4409 -353 
L 4347 84 
Q 4759 13 5069 13 
Q 5228 13 5228 197 
L 5228 672 
L 3047 672 
L 3047 -447 
L 2631 -447 
L 2631 672 
L 1978 672 
L 1978 1025 
L 2631 1025 
L 2631 2509 
L 3913 2509 
L 3913 2841 
L 2175 2841 
L 2175 3194 
L 3222 3194 
L 3222 3631 
L 2522 3631 
L 2522 3956 
L 3222 3956 
L 3222 4369 
L 2291 4369 
L 2291 4709 
L 3222 4709 
L 3222 5313 
L 3644 5313 
L 3644 4709 
L 4591 4709 
L 4591 5313 
L 5006 5313 
L 5006 4709 
L 5953 4709 
L 5953 4369 
L 5006 4369 
L 5006 3956 
L 5759 3956 
L 5759 3631 
L 5006 3631 
L 5006 3194 
z
M 4591 3194 
L 4591 3631 
L 3644 3631 
L 3644 3194 
L 4591 3194 
z
M 4591 4369 
L 3644 4369 
L 3644 3956 
L 4591 3956 
L 4591 4369 
z
M 3047 2169 
L 3047 1759 
L 3925 1759 
L 3925 2169 
L 3047 2169 
z
M 3047 1434 
L 3047 1025 
L 3925 1025 
L 3925 1434 
L 3047 1434 
z
M 4316 2169 
L 4316 1759 
L 5228 1759 
L 5228 2169 
L 4316 2169 
z
M 4316 1434 
L 4316 1025 
L 5228 1025 
L 5228 1434 
L 4316 1434 
z
" transform="scale(0.015625)"/>
      <path id="IPAexGothic-7bc9" d="M 3397 1075 
L 3397 -447 
L 2956 -447 
L 2956 1031 
Q 2113 150 575 -319 
L 306 53 
Q 1706 406 2584 1159 
L 319 1159 
L 319 1544 
L 2956 1544 
L 2956 1922 
L 3397 1922 
L 3397 1544 
L 6078 1544 
L 6078 1159 
L 3859 1159 
Q 4634 591 6078 153 
L 5803 -238 
Q 4281 259 3397 1075 
z
M 1491 4878 
L 3175 4878 
L 3175 4506 
L 2163 4506 
L 2194 4450 
Q 2309 4231 2438 3919 
L 2034 3750 
Q 1866 4238 1709 4506 
L 1306 4506 
Q 1303 4503 1259 4428 
Q 997 3950 575 3597 
L 269 3872 
Q 900 4447 1203 5325 
L 1638 5244 
Q 1519 4938 1491 4878 
z
M 3944 4878 
L 6003 4878 
L 6003 4506 
L 4634 4506 
Q 4788 4300 4966 3950 
L 4563 3784 
Q 4350 4234 4159 4506 
L 3763 4506 
Q 3503 4047 3169 3719 
L 2853 4000 
Q 3369 4488 3659 5331 
L 4078 5250 
Q 4003 5009 3944 4878 
z
M 1931 3159 
L 1931 2550 
Q 2200 2622 2884 2813 
L 2909 2488 
Q 1816 2075 619 1841 
L 434 2238 
Q 947 2322 1431 2438 
L 1516 2456 
L 1516 3159 
L 556 3159 
L 556 3525 
L 2909 3525 
L 2909 3159 
L 1931 3159 
z
M 5094 3628 
L 5094 2475 
Q 5094 2316 5344 2316 
Q 5603 2316 5631 2450 
Q 5650 2534 5656 2872 
L 5663 2956 
L 6059 2834 
Q 6059 2709 6041 2525 
Q 6041 2509 6034 2447 
Q 6031 2413 6028 2397 
Q 6019 2150 5881 2022 
Q 5769 1919 5319 1919 
Q 4997 1919 4863 1969 
Q 4697 2038 4697 2269 
L 4697 3269 
L 3622 3269 
L 3622 3103 
Q 3622 2488 3300 2169 
Q 3125 1994 2784 1834 
L 2488 2128 
Q 2859 2294 3000 2438 
Q 3225 2659 3225 3091 
L 3225 3628 
L 5094 3628 
z
M 4359 2169 
Q 3953 2584 3666 2797 
L 3909 3072 
Q 4256 2822 4622 2478 
L 4359 2169 
z
" transform="scale(0.015625)"/>
     </defs>
     <use xlink:href="#IPAexGothic-43"/>
     <use xlink:href="#IPAexGothic-68" x="72.509766"/>
     <use xlink:href="#IPAexGothic-2e" x="133.203125"/>
     <use xlink:href="#IPAexGothic-34" x="159.619141"/>
     <use xlink:href="#IPAexGothic-20" x="222.607422"/>
     <use xlink:href="#IPAexGothic-6a5f" x="249.609375"/>
     <use xlink:href="#IPAexGothic-68b0" x="349.609375"/>
     <use xlink:href="#IPAexGothic-5b66" x="449.609375"/>
     <use xlink:href="#IPAexGothic-7fd2" x="549.609375"/>
     <use xlink:href="#IPAexGothic-30e2" x="649.609375"/>
     <use xlink:href="#IPAexGothic-30c7" x="749.609375"/>
     <use xlink:href="#IPAexGothic-30eb" x="849.609375"/>
     <use xlink:href="#IPAexGothic-69cb" x="949.609375"/>
     <use xlink:href="#IPAexGothic-7bc9" x="1049.609375"/>
    </g>
   </g>
   <g id="text_2">
    <!-- ランダムフォレストとは -->
    <g style="fill: #1a1a2e" transform="translate(31.68 55.4175) scale(0.24 -0.24)">
     <defs>
      <path id="IPAexGothic-30e9" d="M 1447 4709 
L 4922 4709 
L 4922 4234 
L 1447 4234 
L 1447 4709 
z
M 897 3303 
L 5172 3303 
L 5478 3013 
Q 5069 1669 4219 875 
Q 3475 181 2306 -181 
L 1972 294 
Q 4150 784 4834 2828 
L 897 2828 
L 897 3303 
z
" transform="scale(0.015625)"/>
      <path id="IPAexGothic-30f3" d="M 2444 3084 
Q 1816 3656 1056 4084 
L 1381 4519 
Q 2063 4191 2816 3559 
L 2444 3084 
z
M 1100 609 
Q 3984 1106 5216 3828 
L 5619 3469 
Q 4413 794 1434 103 
L 1100 609 
z
" transform="scale(0.015625)"/>
      <path id="IPAexGothic-30c0" d="M 4806 4219 
L 5141 3944 
Q 4625 2388 3884 1416 
Q 3019 281 1650 -344 
L 1294 66 
Q 1959 338 2441 694 
Q 2881 1022 3359 1556 
Q 2747 2181 1972 2747 
Q 1431 2159 1000 1831 
L 653 2191 
Q 2144 3284 2694 4988 
L 3188 4853 
Q 3153 4731 2938 4219 
L 4806 4219 
z
M 2722 3772 
Q 2538 3478 2266 3125 
Q 3022 2572 3669 1959 
Q 4194 2763 4575 3772 
L 2722 3772 
z
M 6009 4469 
Q 5647 5009 5256 5338 
L 5556 5569 
Q 5941 5259 6331 4744 
L 6009 4469 
z
M 5397 4031 
Q 5106 4522 4659 4922 
L 4972 5166 
Q 5344 4856 5728 4306 
L 5397 4031 
z
" transform="scale(0.015625)"/>
      <path id="IPAexGothic-30e0" d="M 609 891 
L 719 897 
L 884 903 
Q 1053 916 1263 925 
Q 1413 931 1447 934 
Q 2291 2888 2856 4706 
L 3394 4525 
Q 2841 2859 2019 981 
Q 3553 1109 4659 1275 
Q 4200 1950 3669 2588 
L 4122 2838 
Q 5075 1700 5788 513 
L 5319 194 
Q 5038 691 4922 866 
Q 2919 509 822 328 
L 609 891 
z
" transform="scale(0.015625)"/>
      <path id="IPAexGothic-30d5" d="M 4966 4294 
L 5263 4019 
Q 4819 894 1966 -97 
L 1600 353 
Q 4234 1156 4684 3822 
L 1044 3756 
L 1044 4244 
L 4966 4294 
z
" transform="scale(0.015625)"/>
      <path id="IPAexGothic-30a9" d="M 3506 3975 
L 3975 3975 
L 3975 3016 
L 5113 3016 
L 5113 2588 
L 3994 2588 
L 3994 378 
Q 3994 -128 3409 -128 
Q 3075 -128 2738 -72 
L 2641 409 
Q 3069 325 3334 325 
Q 3525 325 3525 531 
L 3525 2259 
Q 2753 1003 1425 288 
L 1075 647 
Q 2481 1350 3263 2553 
L 1325 2553 
L 1325 2981 
L 3506 2981 
L 3506 3975 
z
" transform="scale(0.015625)"/>
      <path id="IPAexGothic-30ec" d="M 1538 4706 
L 2075 4706 
L 2075 622 
Q 4059 1375 5172 2894 
L 5481 2431 
Q 4922 1678 3931 1019 
Q 2919 334 1928 -31 
L 1538 269 
L 1538 4706 
z
" transform="scale(0.015625)"/>
      <path id="IPAexGothic-30b9" d="M 4359 4481 
L 4716 4147 
Q 4328 3072 3647 2150 
Q 4659 1434 5659 453 
L 5234 19 
Q 4256 1088 3353 1778 
Q 2372 597 1044 -31 
L 653 403 
Q 3128 1453 4097 4000 
L 1241 3963 
L 1228 4453 
L 4359 4481 
z
" transform="scale(0.015625)"/>
      <path id="IPAexGothic-30c8" d="M 2284 4997 
L 2803 4997 
L 2803 3206 
Q 4088 2619 5216 1888 
L 4878 1369 
Q 3819 2175 2803 2688 
L 2803 -184 
L 2284 -184 
L 2284 4997 
z
" transform="scale(0.015625)"/>
      <path id="IPAexGothic-3068" d="M 5222 56 
Q 4200 -72 3450 -72 
Q 2478 -72 1941 113 
Q 1184 372 1184 1038 
Q 1184 1584 1594 2009 
Q 1941 2369 2656 2725 
Q 2231 3734 1972 4878 
L 2491 4978 
Q 2706 3884 3078 2950 
Q 4250 3447 4756 3616 
L 4978 3150 
Q 3181 2575 2409 2078 
Q 1691 1613 1691 1113 
Q 1691 403 3322 403 
Q 4125 403 5134 563 
L 5222 56 
z
" transform="scale(0.015625)"/>
      <path id="IPAexGothic-306f" d="M 4066 4875 
L 4538 4875 
L 4556 3769 
Q 5003 3816 5581 3941 
L 5619 3469 
Q 5256 3394 4563 3322 
L 4597 1441 
Q 5100 1284 5934 756 
L 5656 313 
Q 5066 772 4609 978 
Q 4609 441 4384 225 
Q 4128 -13 3634 -13 
Q 2991 -13 2669 231 
Q 2388 444 2388 831 
Q 2388 1225 2772 1484 
Q 3050 1669 3534 1669 
Q 3759 1669 4134 1594 
L 4097 3288 
Q 3697 3269 3359 3269 
Q 2925 3269 2484 3300 
L 2466 3763 
Q 2953 3716 3456 3716 
Q 3738 3716 4091 3738 
L 4066 4875 
z
M 4141 1153 
Q 3753 1259 3513 1259 
Q 2841 1259 2841 850 
Q 2841 422 3634 422 
Q 3888 422 4022 569 
Q 4141 700 4141 922 
Q 4141 1088 4141 1153 
z
M 1000 -50 
Q 794 1072 794 1931 
Q 794 3153 1247 4884 
L 1728 4763 
Q 1269 3044 1269 1900 
Q 1269 1569 1306 1106 
Q 1591 1706 1753 1997 
L 2075 1806 
Q 1484 716 1484 141 
Q 1484 72 1491 0 
L 1000 -50 
z
" transform="scale(0.015625)"/>
     </defs>
     <use xlink:href="#IPAexGothic-30e9"/>
     <use xlink:href="#IPAexGothic-30f3" x="100"/>
     <use xlink:href="#IPAexGothic-30c0" x="200"/>
     <use xlink:href="#IPAexGothic-30e0" x="300"/>
     <use xlink:href="#IPAexGothic-30d5" x="400"/>
     <use xlink:href="#IPAexGothic-30a9" x="500"/>
     <use xlink:href="#IPAexGothic-30ec" x="600"/>
     <use xlink:href="#IPAexGothic-30b9" x="700"/>
     <use xlink:href="#IPAexGothic-30c8" x="800"/>
     <use xlink:href="#IPAexGothic-3068" x="900"/>
     <use xlink:href="#IPAexGothic-306f" x="1000"/>
    </g>
   </g>
   <g id="text_3">
    <!-- 「たくさんの決定木の多数決」 -->
    <g style="fill: #c0392b" transform="translate(233.6 72.465) scale(0.16 -0.16)">
     <defs>
      <path id="IPAexGothic-300c" d="M 4134 5300 
L 5875 5300 
L 5875 4853 
L 4581 4853 
L 4581 656 
L 4134 656 
L 4134 5300 
z
" transform="scale(0.015625)"/>
      <path id="IPAexGothic-305f" d="M 684 3994 
Q 1138 3953 1556 3953 
Q 1797 3953 2106 3975 
Q 2266 4594 2369 5113 
L 2875 5025 
Q 2806 4731 2619 4013 
Q 3209 4084 3656 4191 
L 3688 3719 
Q 3109 3613 2497 3566 
Q 1822 1294 1153 -44 
L 653 172 
Q 1406 1500 1991 3531 
Q 1634 3513 1256 3513 
Q 1106 3513 697 3525 
L 684 3994 
z
M 5753 78 
Q 5059 -13 4597 -13 
Q 3619 -13 3206 334 
Q 2866 625 2766 1222 
L 3213 1388 
Q 3247 1069 3347 903 
Q 3425 775 3578 672 
Q 3866 481 4556 481 
Q 5009 481 5728 575 
L 5753 78 
z
M 3144 2859 
Q 4216 3147 5409 3072 
L 5381 2597 
L 5356 2597 
Q 4263 2663 3194 2419 
L 3144 2859 
z
" transform="scale(0.015625)"/>
      <path id="IPAexGothic-304f" d="M 4022 -300 
Q 3050 984 1863 2047 
Q 1538 2338 1538 2522 
Q 1538 2700 1953 3041 
Q 3144 4019 3816 5094 
L 4256 4769 
Q 3456 3659 2234 2694 
Q 2106 2588 2106 2528 
Q 2106 2466 2344 2247 
Q 3591 1113 4444 103 
L 4022 -300 
z
" transform="scale(0.015625)"/>
      <path id="IPAexGothic-3055" d="M 1747 1184 
Q 1747 834 2094 609 
Q 2422 391 3706 391 
Q 4088 391 4422 434 
L 4478 -50 
Q 4116 -84 3853 -84 
Q 3000 -84 2544 -13 
Q 2044 69 1759 263 
Q 1272 597 1272 1125 
Q 1272 1638 1728 1953 
Q 2163 2253 2884 2253 
Q 3741 2253 4300 2003 
Q 3797 2556 3322 3438 
Q 2128 3219 1113 3219 
L 966 3694 
Q 1150 3688 1388 3688 
Q 2291 3688 3128 3847 
Q 2919 4253 2597 4953 
L 3059 5081 
Q 3347 4384 3591 3950 
Q 4375 4147 5028 4481 
L 5297 4056 
Q 4653 3763 3775 3547 
Q 4309 2597 5069 1703 
L 4672 1363 
Q 3994 1838 2872 1838 
Q 2278 1838 1984 1628 
Q 1747 1459 1747 1184 
z
" transform="scale(0.015625)"/>
      <path id="IPAexGothic-3093" d="M 659 31 
Q 1684 2316 3066 4934 
L 3559 4703 
Q 2781 3375 2156 2100 
Q 2659 2572 3109 2572 
Q 3619 2572 3781 2059 
Q 3863 1803 3872 1147 
Q 3881 328 4313 328 
Q 4928 328 5466 1663 
L 5875 1288 
Q 5175 -178 4300 -178 
Q 3400 -178 3400 1069 
L 3400 1119 
Q 3400 2125 3003 2125 
Q 2153 2125 1128 -178 
L 659 31 
z
" transform="scale(0.015625)"/>
      <path id="IPAexGothic-306e" d="M 3119 469 
Q 5275 766 5275 2425 
Q 5275 3453 4413 3925 
Q 4041 4116 3547 4159 
Q 3394 2525 2850 1400 
Q 2322 306 1722 306 
Q 1384 306 1084 666 
Q 609 1244 609 2003 
Q 609 3025 1397 3794 
Q 2184 4563 3431 4563 
Q 4306 4563 4928 4122 
Q 5813 3506 5813 2425 
Q 5813 438 3431 6 
L 3119 469 
z
M 3053 4147 
Q 2378 4044 1891 3641 
Q 1097 2981 1097 1991 
Q 1097 1366 1434 978 
Q 1581 813 1719 813 
Q 2022 813 2416 1625 
Q 2909 2638 3053 4147 
z
" transform="scale(0.015625)"/>
      <path id="IPAexGothic-6c7a" d="M 4116 2081 
Q 4659 809 6003 84 
L 5656 -338 
Q 4281 500 3775 1884 
Q 3766 1853 3756 1806 
Q 3497 394 2078 -441 
L 1738 -38 
Q 3138 625 3391 2081 
L 1969 2081 
L 1969 2497 
L 3422 2497 
L 3422 3750 
L 2322 3750 
L 2322 4153 
L 3422 4153 
L 3422 5313 
L 3891 5313 
L 3891 4153 
L 5234 4153 
L 5234 2497 
L 6003 2497 
L 6003 2081 
L 4116 2081 
z
M 4788 3750 
L 3891 3750 
L 3891 2497 
L 4788 2497 
L 4788 3750 
z
M 1691 3769 
Q 1203 4344 703 4709 
L 1025 5044 
Q 1544 4675 2022 4147 
L 1691 3769 
z
M 1453 2278 
Q 1016 2772 441 3206 
L 756 3547 
Q 1278 3188 1778 2656 
L 1453 2278 
z
M 391 19 
Q 1063 800 1613 1966 
L 1966 1656 
Q 1394 428 750 -397 
L 391 19 
z
" transform="scale(0.015625)"/>
      <path id="IPAexGothic-5b9a" d="M 3431 303 
Q 3931 225 4709 225 
Q 5191 225 6053 263 
Q 5963 59 5888 -228 
Q 5234 -250 4844 -250 
Q 3569 -250 3003 -78 
Q 2259 153 1750 903 
Q 1441 163 806 -459 
L 475 -75 
Q 1416 759 1684 2419 
L 2125 2303 
Q 2031 1756 1909 1356 
Q 2338 678 2972 416 
L 2972 2944 
L 1434 2944 
L 1434 3353 
L 4959 3353 
L 4959 2944 
L 3431 2944 
L 3431 1984 
L 5397 1984 
L 5397 1569 
L 3431 1569 
L 3431 303 
z
M 3419 4428 
L 5750 4428 
L 5750 3166 
L 5275 3166 
L 5275 4025 
L 1122 4025 
L 1122 3166 
L 647 3166 
L 647 4428 
L 2938 4428 
L 2938 5313 
L 3419 5313 
L 3419 4428 
z
" transform="scale(0.015625)"/>
      <path id="IPAexGothic-6728" d="M 3547 3328 
Q 4384 1728 6088 838 
L 5728 353 
Q 4134 1459 3425 2797 
L 3425 -384 
L 2931 -384 
L 2931 2731 
Q 2272 1253 731 191 
L 372 594 
Q 2013 1584 2803 3328 
L 481 3328 
L 481 3769 
L 2931 3769 
L 2931 5150 
L 3425 5150 
L 3425 3769 
L 5922 3769 
L 5922 3328 
L 3547 3328 
z
" transform="scale(0.015625)"/>
      <path id="IPAexGothic-591a" d="M 3719 794 
Q 3313 1209 2834 1550 
Q 2309 1216 1638 984 
L 1350 1350 
Q 2997 1878 3969 3134 
L 4397 3022 
Q 4206 2759 4116 2656 
L 5563 2656 
L 5803 2425 
Q 4853 913 3700 281 
Q 2784 -209 1331 -447 
L 1025 0 
Q 2738 163 3719 794 
z
M 4097 1063 
L 4128 1088 
Q 4831 1650 5150 2259 
L 3744 2259 
Q 3447 1981 3181 1784 
Q 3625 1481 4097 1063 
z
M 2681 3072 
Q 2297 3456 1881 3763 
Q 1547 3528 1044 3269 
L 747 3622 
Q 2097 4191 2872 5313 
L 3309 5153 
Q 3116 4903 3028 4800 
L 4588 4800 
L 4813 4581 
Q 3981 3331 2791 2650 
Q 1925 2153 728 1856 
L 422 2259 
Q 1844 2541 2681 3072 
z
M 3059 3341 
Q 3747 3850 4141 4409 
L 2669 4409 
Q 2425 4178 2206 4000 
Q 2641 3709 3059 3341 
z
" transform="scale(0.015625)"/>
      <path id="IPAexGothic-6570" d="M 2847 1553 
Q 2741 1006 2425 534 
Q 2625 441 3091 203 
L 2809 -188 
Q 2541 0 2144 209 
Q 1569 -291 703 -500 
L 422 -125 
Q 1263 19 1747 406 
Q 1222 650 734 816 
Q 975 1172 1147 1503 
L 1172 1553 
L 359 1553 
L 359 1925 
L 1344 1925 
Q 1406 2066 1569 2475 
L 1691 2450 
L 1691 3372 
Q 1250 2738 550 2303 
L 275 2663 
Q 1019 3013 1528 3641 
L 378 3641 
L 378 4006 
L 1691 4006 
L 1691 5313 
L 2113 5313 
L 2113 4006 
L 3297 4006 
L 3297 3641 
L 2113 3641 
L 2113 3513 
Q 2659 3291 3175 2963 
L 2956 2584 
Q 2553 2922 2113 3159 
L 2113 2372 
L 1966 2372 
Q 1928 2288 1872 2141 
Q 1806 1975 1784 1925 
L 3378 1925 
L 3378 1553 
L 2847 1553 
z
M 2419 1553 
L 1613 1553 
Q 1478 1269 1313 997 
Q 1559 909 2047 703 
Q 2313 1047 2419 1553 
z
M 4363 1163 
Q 3953 1781 3738 2638 
Q 3575 2281 3428 2016 
L 3103 2406 
Q 3675 3444 3916 5291 
L 4363 5200 
Q 4284 4666 4197 4197 
L 6009 4197 
L 6009 3775 
L 5503 3775 
Q 5397 2275 4869 1191 
Q 5419 503 6144 75 
L 5822 -378 
Q 5188 106 4631 788 
Q 4113 34 3341 -463 
L 3031 -78 
Q 3888 406 4363 1163 
z
M 4588 1594 
Q 4938 2388 5059 3775 
L 4100 3775 
Q 4041 3519 3972 3288 
Q 3981 3250 3991 3194 
Q 4175 2256 4588 1594 
z
M 1003 4116 
Q 878 4544 638 4934 
L 1053 5094 
Q 1247 4788 1438 4269 
L 1003 4116 
z
M 2316 4269 
Q 2550 4688 2688 5131 
L 3128 4997 
Q 2966 4588 2675 4128 
L 2316 4269 
z
" transform="scale(0.015625)"/>
      <path id="IPAexGothic-300d" d="M 1819 4209 
L 2266 4209 
L 2266 -434 
L 525 -434 
L 525 13 
L 1819 13 
L 1819 4209 
z
" transform="scale(0.015625)"/>
     </defs>
     <use xlink:href="#IPAexGothic-300c"/>
     <use xlink:href="#IPAexGothic-305f" x="100"/>
     <use xlink:href="#IPAexGothic-304f" x="200"/>
     <use xlink:href="#IPAexGothic-3055" x="300"/>
     <use xlink:href="#IPAexGothic-3093" x="400"/>
     <use xlink:href="#IPAexGothic-306e" x="500"/>
     <use xlink:href="#IPAexGothic-6c7a" x="600"/>
     <use xlink:href="#IPAexGothic-5b9a" x="700"/>
     <use xlink:href="#IPAexGothic-6728" x="800"/>
     <use xlink:href="#IPAexGothic-306e" x="900"/>
     <use xlink:href="#IPAexGothic-591a" x="1000"/>
     <use xlink:href="#IPAexGothic-6570" x="1100"/>
     <use xlink:href="#IPAexGothic-6c7a" x="1200"/>
     <use xlink:href="#IPAexGothic-300d" x="1300"/>
    </g>
   </g>
   <g id="text_4">
    <!-- 決定木 1 -->
    <g style="fill: #ffffff" transform="translate(77.400937 102.58875) scale(0.12 -0.12)">
     <defs>
      <path id="IPAexGothic-31" d="M 2463 63 
L 1900 63 
L 1900 4103 
Q 1372 3922 788 3797 
L 684 4231 
Q 1519 4441 2106 4731 
L 2463 4731 
L 2463 63 
z
" transform="scale(0.015625)"/>
     </defs>
     <use xlink:href="#IPAexGothic-6c7a"/>
     <use xlink:href="#IPAexGothic-5b9a" x="100"/>
     <use xlink:href="#IPAexGothic-6728" x="200"/>
     <use xlink:href="#IPAexGothic-20" x="300"/>
     <use xlink:href="#IPAexGothic-31" x="327.001953"/>
    </g>
   </g>
   <g id="text_5">
    <!-- 予測: Barolo -->
    <g style="fill: #ffffff" transform="translate(68.328672 127.414219) scale(0.115 -0.115)">
     <defs>
      <path id="IPAexGothic-4e88" d="M 3541 3491 
Q 3644 3419 3816 3300 
Q 3944 3213 3997 3175 
L 3663 2894 
L 5603 2894 
L 5872 2625 
Q 5181 1709 4463 1069 
L 4066 1378 
Q 4722 1878 5153 2466 
L 3509 2466 
L 3509 147 
Q 3509 -150 3388 -263 
Q 3266 -384 2822 -384 
Q 2341 -384 1863 -331 
L 1766 172 
Q 2416 84 2766 84 
Q 3022 84 3022 334 
L 3022 2466 
L 513 2466 
L 513 2894 
L 3553 2894 
Q 2809 3488 1947 3963 
L 2247 4291 
Q 2741 4009 3181 3725 
Q 3941 4191 4400 4591 
L 1159 4591 
L 1159 5006 
L 4975 5006 
L 5250 4725 
Q 4428 4044 3541 3491 
z
" transform="scale(0.015625)"/>
      <path id="IPAexGothic-6e2c" d="M 3856 4884 
L 3856 1081 
L 2059 1081 
L 2059 4884 
L 3856 4884 
z
M 2456 4494 
L 2456 3756 
L 3459 3756 
L 3459 4494 
L 2456 4494 
z
M 2456 3384 
L 2456 2656 
L 3459 2656 
L 3459 3384 
L 2456 3384 
z
M 2456 2284 
L 2456 1478 
L 3459 1478 
L 3459 2284 
L 2456 2284 
z
M 1413 3891 
Q 1000 4428 556 4763 
L 856 5100 
Q 1309 4753 1734 4269 
L 1413 3891 
z
M 1222 2394 
Q 816 2878 325 3256 
L 625 3591 
Q 1141 3231 1528 2778 
L 1222 2394 
z
M 375 -78 
Q 916 800 1297 1906 
L 1669 1619 
Q 1284 478 759 -428 
L 375 -78 
z
M 3819 -256 
Q 3478 319 3128 716 
L 3469 966 
Q 3834 581 4172 63 
L 3819 -256 
z
M 4378 4513 
L 4806 4513 
L 4806 959 
L 4378 959 
L 4378 4513 
z
M 1638 -109 
Q 2103 300 2450 984 
L 2828 763 
Q 2425 -6 1944 -488 
L 1638 -109 
z
M 5419 5081 
L 5853 5081 
L 5853 109 
Q 5853 -391 5297 -391 
Q 4919 -391 4541 -359 
L 4441 109 
Q 4928 50 5219 50 
Q 5419 50 5419 244 
L 5419 5081 
z
" transform="scale(0.015625)"/>
      <path id="IPAexGothic-3a" d="M 1369 2559 
L 672 2559 
L 672 3250 
L 1369 3250 
L 1369 2559 
z
M 1369 63 
L 672 63 
L 672 753 
L 1369 753 
L 1369 63 
z
" transform="scale(0.015625)"/>
      <path id="IPAexGothic-42" d="M 2688 2425 
Q 3816 2225 3816 1338 
Q 3816 556 3041 222 
Q 2672 63 2094 63 
L 609 63 
L 609 4634 
L 1916 4634 
Q 2494 4634 2869 4500 
Q 3644 4222 3644 3491 
Q 3644 2609 2688 2447 
L 2688 2425 
z
M 1159 2656 
L 1844 2656 
Q 3063 2656 3063 3431 
Q 3063 4181 1881 4181 
L 1159 4181 
L 1159 2656 
z
M 1159 522 
L 2016 522 
Q 3222 522 3222 1369 
Q 3222 1897 2625 2100 
Q 2278 2222 1875 2222 
L 1159 2222 
L 1159 522 
z
" transform="scale(0.015625)"/>
      <path id="IPAexGothic-61" d="M 3156 63 
L 2672 63 
Q 2559 303 2531 556 
L 2509 556 
Q 2147 -25 1428 -25 
Q 934 -25 622 288 
Q 347 563 347 959 
Q 347 1947 2050 1997 
L 2478 2009 
L 2478 2175 
Q 2478 2509 2288 2700 
Q 2088 2900 1775 2900 
Q 1238 2900 969 2378 
L 494 2597 
Q 938 3328 1788 3328 
Q 2375 3328 2691 3000 
Q 2984 2706 2984 2169 
L 2984 997 
Q 2984 400 3156 63 
z
M 2491 1625 
L 2141 1619 
Q 903 1591 903 953 
Q 903 728 1050 581 
Q 1231 403 1525 403 
Q 1934 403 2234 703 
Q 2491 969 2491 1344 
L 2491 1625 
z
" transform="scale(0.015625)"/>
      <path id="IPAexGothic-72" d="M 2309 3316 
L 2213 2769 
Q 2106 2791 2022 2791 
Q 1653 2791 1413 2444 
Q 1113 2006 1113 1675 
L 1113 63 
L 563 63 
L 563 3250 
L 1081 3250 
L 1056 2303 
L 1069 2303 
Q 1422 3341 2097 3341 
Q 2206 3341 2309 3316 
z
" transform="scale(0.015625)"/>
      <path id="IPAexGothic-6f" d="M 1919 3341 
Q 2594 3341 3056 2888 
Q 3531 2413 3531 1638 
Q 3531 888 3066 422 
Q 2609 -31 1919 -31 
Q 1228 -31 781 416 
Q 313 881 313 1656 
Q 313 2413 788 2888 
Q 1241 3341 1919 3341 
z
M 1919 2919 
Q 1519 2919 1241 2631 
Q 888 2278 888 1650 
Q 888 1031 1234 684 
Q 1516 403 1919 403 
Q 2331 403 2609 691 
Q 2956 1038 2956 1672 
Q 2956 2269 2603 2631 
Q 2316 2919 1919 2919 
z
" transform="scale(0.015625)"/>
      <path id="IPAexGothic-6c" d="M 1131 63 
L 581 63 
L 581 4794 
L 1131 4794 
L 1131 63 
z
" transform="scale(0.015625)"/>
     </defs>
     <use xlink:href="#IPAexGothic-4e88"/>
     <use xlink:href="#IPAexGothic-6e2c" x="100"/>
     <use xlink:href="#IPAexGothic-3a" x="200"/>
     <use xlink:href="#IPAexGothic-20" x="231.982422"/>
     <use xlink:href="#IPAexGothic-42" x="258.984375"/>
     <use xlink:href="#IPAexGothic-61" x="324.902344"/>
     <use xlink:href="#IPAexGothic-72" x="379.882812"/>
     <use xlink:href="#IPAexGothic-6f" x="416.894531"/>
     <use xlink:href="#IPAexGothic-6c" x="477.294922"/>
     <use xlink:href="#IPAexGothic-6f" x="504.296875"/>
    </g>
   </g>
   <g id="text_6">
    <!-- ↓ -->
    <g style="fill: #95a5a6" transform="translate(93.8 181.846875) scale(0.14 -0.14)">
     <defs>
      <path id="IPAexGothic-2193" d="M 2963 5172 
L 3438 5172 
L 3438 544 
L 4338 1684 
L 4338 997 
L 3200 -447 
L 2059 997 
L 2059 1684 
L 2963 544 
L 2963 5172 
z
" transform="scale(0.015625)"/>
     </defs>
     <use xlink:href="#IPAexGothic-2193"/>
    </g>
   </g>
   <g id="text_7">
    <!-- 決定木 2 -->
    <g style="fill: #ffffff" transform="translate(221.400937 102.58875) scale(0.12 -0.12)">
     <defs>
      <path id="IPAexGothic-32" d="M 3659 63 
L 447 63 
L 447 594 
Q 825 1475 1894 2203 
L 2072 2322 
Q 2619 2697 2791 2906 
Q 2988 3153 2988 3444 
Q 2988 3772 2756 4003 
Q 2500 4259 2084 4259 
Q 1250 4259 991 3328 
L 497 3506 
Q 853 4725 2116 4725 
Q 2806 4725 3216 4316 
Q 3575 3947 3575 3425 
Q 3575 3038 3344 2722 
Q 3131 2416 2366 1938 
L 2231 1856 
Q 1256 1253 978 569 
L 3659 569 
L 3659 63 
z
" transform="scale(0.015625)"/>
     </defs>
     <use xlink:href="#IPAexGothic-6c7a"/>
     <use xlink:href="#IPAexGothic-5b9a" x="100"/>
     <use xlink:href="#IPAexGothic-6728" x="200"/>
     <use xlink:href="#IPAexGothic-20" x="300"/>
     <use xlink:href="#IPAexGothic-32" x="327.001953"/>
    </g>
   </g>
   <g id="text_8">
    <!-- 予測: Barolo -->
    <g style="fill: #ffffff" transform="translate(212.328672 127.414219) scale(0.115 -0.115)">
     <use xlink:href="#IPAexGothic-4e88"/>
     <use xlink:href="#IPAexGothic-6e2c" x="100"/>
     <use xlink:href="#IPAexGothic-3a" x="200"/>
     <use xlink:href="#IPAexGothic-20" x="231.982422"/>
     <use xlink:href="#IPAexGothic-42" x="258.984375"/>
     <use xlink:href="#IPAexGothic-61" x="324.902344"/>
     <use xlink:href="#IPAexGothic-72" x="379.882812"/>
     <use xlink:href="#IPAexGothic-6f" x="416.894531"/>
     <use xlink:href="#IPAexGothic-6c" x="477.294922"/>
     <use xlink:href="#IPAexGothic-6f" x="504.296875"/>
    </g>
   </g>
   <g id="text_9">
    <!-- ↓ -->
    <g style="fill: #95a5a6" transform="translate(237.8 181.846875) scale(0.14 -0.14)">
     <use xlink:href="#IPAexGothic-2193"/>
    </g>
   </g>
   <g id="text_10">
    <!-- 決定木 3 -->
    <g style="fill: #ffffff" transform="translate(365.400937 102.58875) scale(0.12 -0.12)">
     <defs>
      <path id="IPAexGothic-33" d="M 2381 2419 
Q 3506 2216 3506 1278 
Q 3506 716 3128 356 
Q 2709 -31 1944 -31 
Q 797 -31 288 881 
L 756 1131 
Q 1109 441 1938 441 
Q 2425 441 2694 691 
Q 2950 928 2950 1291 
Q 2950 1719 2566 1978 
Q 2216 2213 1644 2213 
L 1363 2213 
L 1363 2669 
L 1656 2669 
Q 2231 2669 2534 2888 
Q 2859 3119 2859 3509 
Q 2859 3934 2494 4138 
Q 2259 4278 1931 4278 
Q 1238 4278 903 3578 
L 434 3803 
Q 897 4725 1938 4725 
Q 2597 4725 3006 4394 
Q 3416 4069 3416 3534 
Q 3416 3028 3019 2706 
Q 2763 2500 2381 2444 
L 2381 2419 
z
" transform="scale(0.015625)"/>
     </defs>
     <use xlink:href="#IPAexGothic-6c7a"/>
     <use xlink:href="#IPAexGothic-5b9a" x="100"/>
     <use xlink:href="#IPAexGothic-6728" x="200"/>
     <use xlink:href="#IPAexGothic-20" x="300"/>
     <use xlink:href="#IPAexGothic-33" x="327.001953"/>
    </g>
   </g>
   <g id="text_11">
    <!-- 予測: Grignolino -->
    <g style="fill: #ffffff" transform="translate(345.707344 127.964062) scale(0.115 -0.115)">
     <defs>
      <path id="IPAexGothic-47" d="M 4403 781 
Q 4172 494 3731 250 
Q 3209 -31 2591 -31 
Q 1606 -31 988 628 
Q 378 1275 378 2325 
Q 378 3406 1013 4078 
Q 1619 4725 2534 4725 
Q 3800 4725 4325 3628 
L 3816 3391 
Q 3422 4238 2541 4238 
Q 1891 4238 1453 3744 
Q 994 3216 994 2328 
Q 994 1531 1397 1022 
Q 1844 459 2625 459 
Q 3459 459 3878 966 
L 3878 1856 
L 2859 1856 
L 2859 2291 
L 4403 2291 
L 4403 781 
z
" transform="scale(0.015625)"/>
      <path id="IPAexGothic-69" d="M 1178 3928 
L 550 3928 
L 550 4569 
L 1178 4569 
L 1178 3928 
z
M 1138 63 
L 588 63 
L 588 3250 
L 1138 3250 
L 1138 63 
z
" transform="scale(0.015625)"/>
      <path id="IPAexGothic-67" d="M 1331 1150 
Q 1006 1122 1006 900 
Q 1006 613 1763 575 
L 2131 556 
Q 3303 497 3303 -294 
Q 3303 -700 2925 -959 
Q 2519 -1253 1794 -1253 
Q 1138 -1253 738 -1028 
Q 353 -809 353 -428 
Q 353 84 1075 247 
L 1075 269 
Q 506 413 506 778 
Q 506 1116 994 1297 
Q 456 1575 456 2181 
Q 456 2650 769 2963 
Q 1128 3322 1738 3322 
Q 2125 3322 2422 3153 
Q 2650 3453 3259 3463 
L 3259 3013 
Q 2838 3003 2703 2938 
Q 3034 2613 3034 2169 
Q 3034 1728 2734 1425 
Q 2400 1094 1813 1094 
Q 1563 1094 1331 1150 
z
M 1734 2919 
Q 1409 2919 1197 2706 
Q 988 2497 988 2181 
Q 988 1872 1184 1684 
Q 1397 1472 1756 1472 
Q 2094 1472 2297 1678 
Q 2503 1881 2503 2203 
Q 2503 2497 2297 2700 
Q 2081 2919 1734 2919 
z
M 1753 159 
Q 903 159 903 -366 
Q 903 -875 1800 -875 
Q 2378 -875 2638 -606 
Q 2772 -481 2772 -313 
Q 2772 159 1753 159 
z
" transform="scale(0.015625)"/>
      <path id="IPAexGothic-6e" d="M 3328 63 
L 2778 63 
L 2778 2041 
Q 2778 2853 2106 2853 
Q 1428 2853 1113 2041 
L 1113 63 
L 563 63 
L 563 3250 
L 1075 3250 
L 1075 2675 
Q 1525 3316 2222 3316 
Q 3328 3316 3328 2072 
L 3328 63 
z
" transform="scale(0.015625)"/>
     </defs>
     <use xlink:href="#IPAexGothic-4e88"/>
     <use xlink:href="#IPAexGothic-6e2c" x="100"/>
     <use xlink:href="#IPAexGothic-3a" x="200"/>
     <use xlink:href="#IPAexGothic-20" x="231.982422"/>
     <use xlink:href="#IPAexGothic-47" x="258.984375"/>
     <use xlink:href="#IPAexGothic-72" x="334.277344"/>
     <use xlink:href="#IPAexGothic-69" x="371.289062"/>
     <use xlink:href="#IPAexGothic-67" x="398.291016"/>
     <use xlink:href="#IPAexGothic-6e" x="453.808594"/>
     <use xlink:href="#IPAexGothic-6f" x="514.208984"/>
     <use xlink:href="#IPAexGothic-6c" x="574.609375"/>
     <use xlink:href="#IPAexGothic-69" x="601.611328"/>
     <use xlink:href="#IPAexGothic-6e" x="628.613281"/>
     <use xlink:href="#IPAexGothic-6f" x="689.013672"/>
    </g>
   </g>
   <g id="text_12">
    <!-- ↓ -->
    <g style="fill: #95a5a6" transform="translate(381.8 181.846875) scale(0.14 -0.14)">
     <use xlink:href="#IPAexGothic-2193"/>
    </g>
   </g>
   <g id="text_13">
    <!-- 多数決 -->
    <g style="fill: #ffffff" transform="translate(511.2 106.18875) scale(0.12 -0.12)">
     <use xlink:href="#IPAexGothic-591a"/>
     <use xlink:href="#IPAexGothic-6570" x="100"/>
     <use xlink:href="#IPAexGothic-6c7a" x="200"/>
    </g>
   </g>
   <g id="text_14">
    <!-- 最終予測: -->
    <g style="fill: #ffffff" transform="translate(505.440859 123.439687) scale(0.11 -0.11)">
     <defs>
      <path id="IPAexGothic-6700" d="M 5106 5050 
L 5106 3275 
L 1284 3275 
L 1284 5050 
L 5106 5050 
z
M 1741 4697 
L 1741 4331 
L 4656 4331 
L 4656 4697 
L 1741 4697 
z
M 1741 4000 
L 1741 3622 
L 4656 3622 
L 4656 4000 
L 1741 4000 
z
M 2925 2528 
L 2925 -450 
L 2503 -450 
L 2503 228 
Q 1869 94 525 -78 
L 409 356 
Q 491 363 609 372 
Q 725 381 756 381 
L 994 403 
L 994 2528 
L 384 2528 
L 384 2900 
L 6016 2900 
L 6016 2528 
L 2925 2528 
z
M 2503 2528 
L 1400 2528 
L 1400 2088 
L 2503 2088 
L 2503 2528 
z
M 2503 1763 
L 1400 1763 
L 1400 1309 
L 2503 1309 
L 2503 1763 
z
M 2503 984 
L 1400 984 
L 1400 434 
L 1759 472 
Q 2159 500 2503 550 
L 2503 984 
z
M 4844 588 
Q 5350 225 6047 -9 
L 5753 -419 
Q 5066 -128 4556 288 
Q 4000 -241 3281 -534 
L 3006 -163 
Q 3734 84 4263 563 
Q 3722 1141 3463 1803 
L 3084 1803 
L 3084 2169 
L 5425 2169 
L 5656 1963 
Q 5328 1178 4881 638 
L 4844 588 
z
M 4538 850 
Q 4884 1275 5119 1803 
L 3872 1803 
Q 4113 1275 4538 850 
z
" transform="scale(0.015625)"/>
      <path id="IPAexGothic-7d42" d="M 1259 3066 
Q 825 3678 378 4128 
L 666 4422 
Q 828 4259 916 4153 
Q 1300 4750 1541 5331 
L 1956 5119 
Q 1547 4363 1150 3859 
Q 1338 3625 1491 3391 
Q 1900 3994 2200 4544 
L 2578 4300 
Q 1994 3347 1338 2572 
L 1638 2591 
Q 2006 2609 2200 2631 
Q 2075 2919 1950 3150 
L 2297 3297 
Q 2606 2763 2822 2106 
L 2444 1919 
Q 2403 2063 2316 2316 
Q 2228 2294 1778 2234 
L 1778 -447 
L 1363 -447 
L 1363 2181 
Q 972 2134 428 2106 
L 281 2534 
Q 619 2544 869 2553 
Q 1138 2900 1259 3066 
z
M 4709 2859 
Q 5281 2319 6144 1984 
L 5844 1575 
Q 5028 1969 4447 2547 
Q 3819 1869 2888 1388 
L 2603 1753 
Q 3584 2172 4172 2834 
Q 3800 3291 3553 3719 
Q 3284 3294 2866 2888 
L 2591 3206 
Q 3384 3944 3800 5288 
L 4219 5153 
Q 4066 4738 4031 4659 
L 5325 4659 
L 5556 4447 
Q 5234 3569 4709 2859 
z
M 4428 3150 
Q 4838 3706 5031 4269 
L 3859 4269 
Q 3813 4166 3769 4097 
Q 4028 3609 4428 3150 
z
M 359 197 
Q 588 863 653 1759 
L 1063 1709 
Q 994 684 769 -13 
L 359 197 
z
M 2253 306 
Q 2125 1138 1919 1759 
L 2278 1869 
Q 2525 1250 2681 481 
L 2253 306 
z
M 5003 831 
Q 4456 1244 3794 1563 
L 4056 1894 
Q 4644 1597 5278 1191 
L 5003 831 
z
M 5344 -422 
Q 4356 134 3175 594 
L 3397 947 
Q 4528 509 5600 -44 
L 5344 -422 
z
" transform="scale(0.015625)"/>
     </defs>
     <use xlink:href="#IPAexGothic-6700"/>
     <use xlink:href="#IPAexGothic-7d42" x="100"/>
     <use xlink:href="#IPAexGothic-4e88" x="200"/>
     <use xlink:href="#IPAexGothic-6e2c" x="300"/>
     <use xlink:href="#IPAexGothic-3a" x="400"/>
    </g>
   </g>
   <g id="text_15">
    <!-- Barolo (2:1) -->
    <g style="fill: #ffffff" transform="translate(495.763125 140.150625) scale(0.12 -0.12)">
     <defs>
      <path id="IPAexGothic-28" d="M 1928 -1016 
L 1653 -1166 
Q 488 69 488 1875 
Q 488 3678 1653 4909 
L 1928 4763 
Q 1006 3522 1006 1881 
Q 1006 203 1928 -1016 
z
" transform="scale(0.015625)"/>
      <path id="IPAexGothic-29" d="M 466 4909 
Q 1638 3672 1638 1875 
Q 1638 75 466 -1166 
L 191 -1016 
Q 1119 216 1119 1881 
Q 1119 3509 191 4763 
L 466 4909 
z
" transform="scale(0.015625)"/>
     </defs>
     <use xlink:href="#IPAexGothic-42"/>
     <use xlink:href="#IPAexGothic-61" x="65.917969"/>
     <use xlink:href="#IPAexGothic-72" x="120.898438"/>
     <use xlink:href="#IPAexGothic-6f" x="157.910156"/>
     <use xlink:href="#IPAexGothic-6c" x="218.310547"/>
     <use xlink:href="#IPAexGothic-6f" x="245.3125"/>
     <use xlink:href="#IPAexGothic-20" x="305.712891"/>
     <use xlink:href="#IPAexGothic-28" x="332.714844"/>
     <use xlink:href="#IPAexGothic-32" x="366.015625"/>
     <use xlink:href="#IPAexGothic-3a" x="429.003906"/>
     <use xlink:href="#IPAexGothic-31" x="460.986328"/>
     <use xlink:href="#IPAexGothic-29" x="523.974609"/>
    </g>
   </g>
   <g id="text_16">
    <!-- model = RandomForestClassifier(n_estimators=100, random_state=42) -->
    <g style="fill: #cdd6f4" transform="translate(40.32 204.091219) scale(0.105 -0.105)">
     <defs>
      <path id="DejaVuSansMono-6d" d="M 2113 3144 
Q 2219 3369 2383 3476 
Q 2547 3584 2778 3584 
Q 3200 3584 3373 3257 
Q 3547 2931 3547 2028 
L 3547 0 
L 3022 0 
L 3022 2003 
Q 3022 2744 2939 2923 
Q 2856 3103 2638 3103 
Q 2388 3103 2295 2911 
Q 2203 2719 2203 2003 
L 2203 0 
L 1678 0 
L 1678 2003 
Q 1678 2753 1589 2928 
Q 1500 3103 1269 3103 
Q 1041 3103 952 2911 
Q 863 2719 863 2003 
L 863 0 
L 341 0 
L 341 3500 
L 863 3500 
L 863 3200 
Q 966 3388 1120 3486 
Q 1275 3584 1472 3584 
Q 1709 3584 1867 3475 
Q 2025 3366 2113 3144 
z
" transform="scale(0.015625)"/>
      <path id="DejaVuSansMono-6f" d="M 1925 3097 
Q 1488 3097 1263 2756 
Q 1038 2416 1038 1747 
Q 1038 1081 1263 739 
Q 1488 397 1925 397 
Q 2366 397 2591 739 
Q 2816 1081 2816 1747 
Q 2816 2416 2591 2756 
Q 2366 3097 1925 3097 
z
M 1925 3584 
Q 2653 3584 3039 3112 
Q 3425 2641 3425 1747 
Q 3425 850 3040 379 
Q 2656 -91 1925 -91 
Q 1197 -91 812 379 
Q 428 850 428 1747 
Q 428 2641 812 3112 
Q 1197 3584 1925 3584 
z
" transform="scale(0.015625)"/>
      <path id="DejaVuSansMono-64" d="M 2681 3053 
L 2681 4863 
L 3256 4863 
L 3256 0 
L 2681 0 
L 2681 441 
Q 2538 181 2298 45 
Q 2059 -91 1747 -91 
Q 1113 -91 748 401 
Q 384 894 384 1759 
Q 384 2613 750 3098 
Q 1116 3584 1747 3584 
Q 2063 3584 2303 3448 
Q 2544 3313 2681 3053 
z
M 991 1747 
Q 991 1078 1203 737 
Q 1416 397 1831 397 
Q 2247 397 2464 740 
Q 2681 1084 2681 1747 
Q 2681 2413 2464 2755 
Q 2247 3097 1831 3097 
Q 1416 3097 1203 2756 
Q 991 2416 991 1747 
z
" transform="scale(0.015625)"/>
      <path id="DejaVuSansMono-65" d="M 3475 1894 
L 3475 1613 
L 984 1613 
L 984 1594 
Q 984 1022 1282 709 
Q 1581 397 2125 397 
Q 2400 397 2700 484 
Q 3000 572 3341 750 
L 3341 178 
Q 3013 44 2708 -23 
Q 2403 -91 2119 -91 
Q 1303 -91 843 398 
Q 384 888 384 1747 
Q 384 2584 834 3084 
Q 1284 3584 2034 3584 
Q 2703 3584 3089 3131 
Q 3475 2678 3475 1894 
z
M 2900 2063 
Q 2888 2569 2661 2833 
Q 2434 3097 2009 3097 
Q 1594 3097 1325 2822 
Q 1056 2547 1006 2059 
L 2900 2063 
z
" transform="scale(0.015625)"/>
      <path id="DejaVuSansMono-6c" d="M 1997 1269 
Q 1997 881 2139 684 
Q 2281 488 2559 488 
L 3231 488 
L 3231 0 
L 2503 0 
Q 1988 0 1705 331 
Q 1422 663 1422 1269 
L 1422 4447 
L 500 4447 
L 500 4897 
L 1997 4897 
L 1997 1269 
z
" transform="scale(0.015625)"/>
      <path id="DejaVuSansMono-20" transform="scale(0.015625)"/>
      <path id="DejaVuSansMono-3d" d="M 275 1638 
L 3578 1638 
L 3578 1100 
L 275 1100 
L 275 1638 
z
M 275 2906 
L 3578 2906 
L 3578 2375 
L 275 2375 
L 275 2906 
z
" transform="scale(0.015625)"/>
      <path id="DejaVuSansMono-52" d="M 2375 2203 
Q 2619 2141 2791 1967 
Q 2963 1794 3219 1275 
L 3853 0 
L 3175 0 
L 2619 1178 
Q 2378 1681 2186 1826 
Q 1994 1972 1684 1972 
L 1081 1972 
L 1081 0 
L 447 0 
L 447 4666 
L 1747 4666 
Q 2516 4666 2925 4319 
Q 3334 3972 3334 3316 
Q 3334 2853 3082 2561 
Q 2831 2269 2375 2203 
z
M 1081 4147 
L 1081 2491 
L 1772 2491 
Q 2225 2491 2447 2694 
Q 2669 2897 2669 3316 
Q 2669 3719 2433 3933 
Q 2197 4147 1747 4147 
L 1081 4147 
z
" transform="scale(0.015625)"/>
      <path id="DejaVuSansMono-61" d="M 2194 1759 
L 2003 1759 
Q 1500 1759 1245 1582 
Q 991 1406 991 1056 
Q 991 741 1181 566 
Q 1372 391 1709 391 
Q 2184 391 2456 720 
Q 2728 1050 2731 1631 
L 2731 1759 
L 2194 1759 
z
M 3309 1997 
L 3309 0 
L 2731 0 
L 2731 519 
Q 2547 206 2267 57 
Q 1988 -91 1588 -91 
Q 1053 -91 734 211 
Q 416 513 416 1019 
Q 416 1603 808 1906 
Q 1200 2209 1959 2209 
L 2731 2209 
L 2731 2300 
Q 2728 2719 2518 2908 
Q 2309 3097 1850 3097 
Q 1556 3097 1256 3012 
Q 956 2928 672 2766 
L 672 3341 
Q 991 3463 1283 3523 
Q 1575 3584 1850 3584 
Q 2284 3584 2592 3456 
Q 2900 3328 3091 3072 
Q 3209 2916 3259 2686 
Q 3309 2456 3309 1997 
z
" transform="scale(0.015625)"/>
      <path id="DejaVuSansMono-6e" d="M 3284 2169 
L 3284 0 
L 2706 0 
L 2706 2169 
Q 2706 2641 2540 2862 
Q 2375 3084 2022 3084 
Q 1619 3084 1401 2798 
Q 1184 2513 1184 1978 
L 1184 0 
L 609 0 
L 609 3500 
L 1184 3500 
L 1184 2975 
Q 1338 3275 1600 3429 
Q 1863 3584 2222 3584 
Q 2756 3584 3020 3232 
Q 3284 2881 3284 2169 
z
" transform="scale(0.015625)"/>
      <path id="DejaVuSansMono-46" d="M 728 4666 
L 3475 4666 
L 3475 4134 
L 1363 4134 
L 1363 2759 
L 3278 2759 
L 3278 2228 
L 1363 2228 
L 1363 0 
L 728 0 
L 728 4666 
z
" transform="scale(0.015625)"/>
      <path id="DejaVuSansMono-72" d="M 3609 2778 
Q 3425 2922 3234 2987 
Q 3044 3053 2816 3053 
Q 2278 3053 1993 2715 
Q 1709 2378 1709 1741 
L 1709 0 
L 1131 0 
L 1131 3500 
L 1709 3500 
L 1709 2816 
Q 1853 3188 2151 3386 
Q 2450 3584 2859 3584 
Q 3072 3584 3256 3531 
Q 3441 3478 3609 3366 
L 3609 2778 
z
" transform="scale(0.015625)"/>
      <path id="DejaVuSansMono-73" d="M 3041 3378 
L 3041 2816 
Q 2794 2959 2544 3031 
Q 2294 3103 2034 3103 
Q 1644 3103 1451 2976 
Q 1259 2850 1259 2591 
Q 1259 2356 1403 2240 
Q 1547 2125 2119 2016 
L 2350 1972 
Q 2778 1891 2998 1647 
Q 3219 1403 3219 1013 
Q 3219 494 2850 201 
Q 2481 -91 1825 -91 
Q 1566 -91 1281 -36 
Q 997 19 666 128 
L 666 722 
Q 988 556 1281 473 
Q 1575 391 1838 391 
Q 2219 391 2428 545 
Q 2638 700 2638 978 
Q 2638 1378 1872 1531 
L 1847 1538 
L 1631 1581 
Q 1134 1678 906 1908 
Q 678 2138 678 2534 
Q 678 3038 1018 3311 
Q 1359 3584 1991 3584 
Q 2272 3584 2531 3532 
Q 2791 3481 3041 3378 
z
" transform="scale(0.015625)"/>
      <path id="DejaVuSansMono-74" d="M 1919 4494 
L 1919 3500 
L 3225 3500 
L 3225 3053 
L 1919 3053 
L 1919 1153 
Q 1919 766 2066 612 
Q 2213 459 2578 459 
L 3225 459 
L 3225 0 
L 2522 0 
Q 1875 0 1609 259 
Q 1344 519 1344 1153 
L 1344 3053 
L 409 3053 
L 409 3500 
L 1344 3500 
L 1344 4494 
L 1919 4494 
z
" transform="scale(0.015625)"/>
      <path id="DejaVuSansMono-43" d="M 3353 166 
Q 3113 38 2859 -26 
Q 2606 -91 2322 -91 
Q 1425 -91 929 543 
Q 434 1178 434 2328 
Q 434 3472 932 4111 
Q 1431 4750 2322 4750 
Q 2606 4750 2859 4686 
Q 3113 4622 3353 4494 
L 3353 3847 
Q 3122 4038 2856 4138 
Q 2591 4238 2322 4238 
Q 1706 4238 1400 3763 
Q 1094 3288 1094 2328 
Q 1094 1372 1400 897 
Q 1706 422 2322 422 
Q 2597 422 2861 522 
Q 3125 622 3353 813 
L 3353 166 
z
" transform="scale(0.015625)"/>
      <path id="DejaVuSansMono-69" d="M 800 3500 
L 2272 3500 
L 2272 447 
L 3413 447 
L 3413 0 
L 556 0 
L 556 447 
L 1697 447 
L 1697 3053 
L 800 3053 
L 800 3500 
z
M 1697 4863 
L 2272 4863 
L 2272 4134 
L 1697 4134 
L 1697 4863 
z
" transform="scale(0.015625)"/>
      <path id="DejaVuSansMono-66" d="M 3322 4863 
L 3322 4384 
L 2669 4384 
Q 2359 4384 2239 4257 
Q 2119 4131 2119 3809 
L 2119 3500 
L 3322 3500 
L 3322 3053 
L 2119 3053 
L 2119 0 
L 1544 0 
L 1544 3053 
L 609 3053 
L 609 3500 
L 1544 3500 
L 1544 3744 
Q 1544 4319 1808 4591 
Q 2072 4863 2631 4863 
L 3322 4863 
z
" transform="scale(0.015625)"/>
      <path id="DejaVuSansMono-28" d="M 2766 4856 
Q 2350 4144 2145 3436 
Q 1941 2728 1941 2009 
Q 1941 1294 2145 584 
Q 2350 -125 2766 -844 
L 2266 -844 
Q 1794 -100 1562 604 
Q 1331 1309 1331 2009 
Q 1331 2706 1562 3412 
Q 1794 4119 2266 4856 
L 2766 4856 
z
" transform="scale(0.015625)"/>
      <path id="DejaVuSansMono-5f" d="M 3853 -1259 
L 3853 -1509 
L 0 -1509 
L 0 -1259 
L 3853 -1259 
z
" transform="scale(0.015625)"/>
      <path id="DejaVuSansMono-31" d="M 844 531 
L 1825 531 
L 1825 4097 
L 769 3859 
L 769 4434 
L 1819 4666 
L 2450 4666 
L 2450 531 
L 3419 531 
L 3419 0 
L 844 0 
L 844 531 
z
" transform="scale(0.015625)"/>
      <path id="DejaVuSansMono-30" d="M 1509 2344 
Q 1509 2516 1629 2641 
Q 1750 2766 1919 2766 
Q 2094 2766 2219 2641 
Q 2344 2516 2344 2344 
Q 2344 2169 2220 2047 
Q 2097 1925 1919 1925 
Q 1744 1925 1626 2044 
Q 1509 2163 1509 2344 
z
M 1925 4250 
Q 1484 4250 1267 3775 
Q 1050 3300 1050 2328 
Q 1050 1359 1267 884 
Q 1484 409 1925 409 
Q 2369 409 2586 884 
Q 2803 1359 2803 2328 
Q 2803 3300 2586 3775 
Q 2369 4250 1925 4250 
z
M 1925 4750 
Q 2672 4750 3055 4137 
Q 3438 3525 3438 2328 
Q 3438 1134 3055 521 
Q 2672 -91 1925 -91 
Q 1178 -91 797 521 
Q 416 1134 416 2328 
Q 416 3525 797 4137 
Q 1178 4750 1925 4750 
z
" transform="scale(0.015625)"/>
      <path id="DejaVuSansMono-2c" d="M 1569 947 
L 2356 947 
L 2356 300 
L 1741 -897 
L 1259 -897 
L 1569 300 
L 1569 947 
z
" transform="scale(0.015625)"/>
      <path id="DejaVuSansMono-34" d="M 2297 4091 
L 825 1625 
L 2297 1625 
L 2297 4091 
z
M 2194 4666 
L 2925 4666 
L 2925 1625 
L 3547 1625 
L 3547 1113 
L 2925 1113 
L 2925 0 
L 2297 0 
L 2297 1113 
L 319 1113 
L 319 1709 
L 2194 4666 
z
" transform="scale(0.015625)"/>
      <path id="DejaVuSansMono-32" d="M 1166 531 
L 3309 531 
L 3309 0 
L 475 0 
L 475 531 
Q 1059 1147 1496 1619 
Q 1934 2091 2100 2284 
Q 2413 2666 2522 2902 
Q 2631 3138 2631 3384 
Q 2631 3775 2401 3997 
Q 2172 4219 1772 4219 
Q 1488 4219 1175 4116 
Q 863 4013 513 3803 
L 513 4441 
Q 834 4594 1145 4672 
Q 1456 4750 1759 4750 
Q 2444 4750 2861 4386 
Q 3278 4022 3278 3431 
Q 3278 3131 3139 2831 
Q 3000 2531 2688 2169 
Q 2513 1966 2180 1606 
Q 1847 1247 1166 531 
z
" transform="scale(0.015625)"/>
      <path id="DejaVuSansMono-29" d="M 1088 4856 
L 1588 4856 
Q 2059 4119 2290 3412 
Q 2522 2706 2522 2009 
Q 2522 1306 2290 600 
Q 2059 -106 1588 -844 
L 1088 -844 
Q 1503 -119 1708 590 
Q 1913 1300 1913 2009 
Q 1913 2722 1708 3431 
Q 1503 4141 1088 4856 
z
" transform="scale(0.015625)"/>
     </defs>
     <use xlink:href="#DejaVuSansMono-6d"/>
     <use xlink:href="#DejaVuSansMono-6f" x="60.205078"/>
     <use xlink:href="#DejaVuSansMono-64" x="120.410156"/>
     <use xlink:href="#DejaVuSansMono-65" x="180.615234"/>
     <use xlink:href="#DejaVuSansMono-6c" x="240.820312"/>
     <use xlink:href="#DejaVuSansMono-20" x="301.025391"/>
     <use xlink:href="#DejaVuSansMono-3d" x="361.230469"/>
     <use xlink:href="#DejaVuSansMono-20" x="421.435547"/>
     <use xlink:href="#DejaVuSansMono-52" x="481.640625"/>
     <use xlink:href="#DejaVuSansMono-61" x="541.845703"/>
     <use xlink:href="#DejaVuSansMono-6e" x="602.050781"/>
     <use xlink:href="#DejaVuSansMono-64" x="662.255859"/>
     <use xlink:href="#DejaVuSansMono-6f" x="722.460938"/>
     <use xlink:href="#DejaVuSansMono-6d" x="782.666016"/>
     <use xlink:href="#DejaVuSansMono-46" x="842.871094"/>
     <use xlink:href="#DejaVuSansMono-6f" x="903.076172"/>
     <use xlink:href="#DejaVuSansMono-72" x="963.28125"/>
     <use xlink:href="#DejaVuSansMono-65" x="1023.486328"/>
     <use xlink:href="#DejaVuSansMono-73" x="1083.691406"/>
     <use xlink:href="#DejaVuSansMono-74" x="1143.896484"/>
     <use xlink:href="#DejaVuSansMono-43" x="1204.101562"/>
     <use xlink:href="#DejaVuSansMono-6c" x="1264.306641"/>
     <use xlink:href="#DejaVuSansMono-61" x="1324.511719"/>
     <use xlink:href="#DejaVuSansMono-73" x="1384.716797"/>
     <use xlink:href="#DejaVuSansMono-73" x="1444.921875"/>
     <use xlink:href="#DejaVuSansMono-69" x="1505.126953"/>
     <use xlink:href="#DejaVuSansMono-66" x="1565.332031"/>
     <use xlink:href="#DejaVuSansMono-69" x="1625.537109"/>
     <use xlink:href="#DejaVuSansMono-65" x="1685.742188"/>
     <use xlink:href="#DejaVuSansMono-72" x="1745.947266"/>
     <use xlink:href="#DejaVuSansMono-28" x="1806.152344"/>
     <use xlink:href="#DejaVuSansMono-6e" x="1866.357422"/>
     <use xlink:href="#DejaVuSansMono-5f" x="1926.5625"/>
     <use xlink:href="#DejaVuSansMono-65" x="1986.767578"/>
     <use xlink:href="#DejaVuSansMono-73" x="2046.972656"/>
     <use xlink:href="#DejaVuSansMono-74" x="2107.177734"/>
     <use xlink:href="#DejaVuSansMono-69" x="2167.382812"/>
     <use xlink:href="#DejaVuSansMono-6d" x="2227.587891"/>
     <use xlink:href="#DejaVuSansMono-61" x="2287.792969"/>
     <use xlink:href="#DejaVuSansMono-74" x="2347.998047"/>
     <use xlink:href="#DejaVuSansMono-6f" x="2408.203125"/>
     <use xlink:href="#DejaVuSansMono-72" x="2468.408203"/>
     <use xlink:href="#DejaVuSansMono-73" x="2528.613281"/>
     <use xlink:href="#DejaVuSansMono-3d" x="2588.818359"/>
     <use xlink:href="#DejaVuSansMono-31" x="2649.023438"/>
     <use xlink:href="#DejaVuSansMono-30" x="2709.228516"/>
     <use xlink:href="#DejaVuSansMono-30" x="2769.433594"/>
     <use xlink:href="#DejaVuSansMono-2c" x="2829.638672"/>
     <use xlink:href="#DejaVuSansMono-20" x="2889.84375"/>
     <use xlink:href="#DejaVuSansMono-72" x="2950.048828"/>
     <use xlink:href="#DejaVuSansMono-61" x="3010.253906"/>
     <use xlink:href="#DejaVuSansMono-6e" x="3070.458984"/>
     <use xlink:href="#DejaVuSansMono-64" x="3130.664062"/>
     <use xlink:href="#DejaVuSansMono-6f" x="3190.869141"/>
     <use xlink:href="#DejaVuSansMono-6d" x="3251.074219"/>
     <use xlink:href="#DejaVuSansMono-5f" x="3311.279297"/>
     <use xlink:href="#DejaVuSansMono-73" x="3371.484375"/>
     <use xlink:href="#DejaVuSansMono-74" x="3431.689453"/>
     <use xlink:href="#DejaVuSansMono-61" x="3491.894531"/>
     <use xlink:href="#DejaVuSansMono-74" x="3552.099609"/>
     <use xlink:href="#DejaVuSansMono-65" x="3612.304688"/>
     <use xlink:href="#DejaVuSansMono-3d" x="3672.509766"/>
     <use xlink:href="#DejaVuSansMono-34" x="3732.714844"/>
     <use xlink:href="#DejaVuSansMono-32" x="3792.919922"/>
     <use xlink:href="#DejaVuSansMono-29" x="3853.125"/>
    </g>
   </g>
   <g id="text_17">
    <!-- model.fit(X_train_scaled, y_train) -->
    <g style="fill: #cdd6f4" transform="translate(40.32 219.451219) scale(0.105 -0.105)">
     <defs>
      <path id="DejaVuSansMono-2e" d="M 1528 953 
L 2316 953 
L 2316 0 
L 1528 0 
L 1528 953 
z
" transform="scale(0.015625)"/>
      <path id="DejaVuSansMono-58" d="M 269 4666 
L 947 4666 
L 1972 2906 
L 3016 4666 
L 3694 4666 
L 2297 2472 
L 3794 0 
L 3116 0 
L 1972 2009 
L 738 0 
L 56 0 
L 1619 2472 
L 269 4666 
z
" transform="scale(0.015625)"/>
      <path id="DejaVuSansMono-63" d="M 3316 178 
Q 3084 44 2839 -23 
Q 2594 -91 2338 -91 
Q 1525 -91 1067 396 
Q 609 884 609 1747 
Q 609 2609 1067 3096 
Q 1525 3584 2338 3584 
Q 2591 3584 2831 3518 
Q 3072 3453 3316 3316 
L 3316 2713 
Q 3088 2916 2858 3006 
Q 2628 3097 2338 3097 
Q 1797 3097 1506 2747 
Q 1216 2397 1216 1747 
Q 1216 1100 1508 748 
Q 1800 397 2338 397 
Q 2638 397 2875 489 
Q 3113 581 3316 775 
L 3316 178 
z
" transform="scale(0.015625)"/>
      <path id="DejaVuSansMono-79" d="M 2681 1125 
Q 2538 759 2316 163 
Q 2006 -663 1900 -844 
Q 1756 -1088 1540 -1209 
Q 1325 -1331 1038 -1331 
L 575 -1331 
L 575 -850 
L 916 -850 
Q 1169 -850 1312 -703 
Q 1456 -556 1678 56 
L 325 3500 
L 934 3500 
L 1972 763 
L 2994 3500 
L 3603 3500 
L 2681 1125 
z
" transform="scale(0.015625)"/>
     </defs>
     <use xlink:href="#DejaVuSansMono-6d"/>
     <use xlink:href="#DejaVuSansMono-6f" x="60.205078"/>
     <use xlink:href="#DejaVuSansMono-64" x="120.410156"/>
     <use xlink:href="#DejaVuSansMono-65" x="180.615234"/>
     <use xlink:href="#DejaVuSansMono-6c" x="240.820312"/>
     <use xlink:href="#DejaVuSansMono-2e" x="301.025391"/>
     <use xlink:href="#DejaVuSansMono-66" x="361.230469"/>
     <use xlink:href="#DejaVuSansMono-69" x="421.435547"/>
     <use xlink:href="#DejaVuSansMono-74" x="481.640625"/>
     <use xlink:href="#DejaVuSansMono-28" x="541.845703"/>
     <use xlink:href="#DejaVuSansMono-58" x="602.050781"/>
     <use xlink:href="#DejaVuSansMono-5f" x="662.255859"/>
     <use xlink:href="#DejaVuSansMono-74" x="722.460938"/>
     <use xlink:href="#DejaVuSansMono-72" x="782.666016"/>
     <use xlink:href="#DejaVuSansMono-61" x="842.871094"/>
     <use xlink:href="#DejaVuSansMono-69" x="903.076172"/>
     <use xlink:href="#DejaVuSansMono-6e" x="963.28125"/>
     <use xlink:href="#DejaVuSansMono-5f" x="1023.486328"/>
     <use xlink:href="#DejaVuSansMono-73" x="1083.691406"/>
     <use xlink:href="#DejaVuSansMono-63" x="1143.896484"/>
     <use xlink:href="#DejaVuSansMono-61" x="1204.101562"/>
     <use xlink:href="#DejaVuSansMono-6c" x="1264.306641"/>
     <use xlink:href="#DejaVuSansMono-65" x="1324.511719"/>
     <use xlink:href="#DejaVuSansMono-64" x="1384.716797"/>
     <use xlink:href="#DejaVuSansMono-2c" x="1444.921875"/>
     <use xlink:href="#DejaVuSansMono-20" x="1505.126953"/>
     <use xlink:href="#DejaVuSansMono-79" x="1565.332031"/>
     <use xlink:href="#DejaVuSansMono-5f" x="1625.537109"/>
     <use xlink:href="#DejaVuSansMono-74" x="1685.742188"/>
     <use xlink:href="#DejaVuSansMono-72" x="1745.947266"/>
     <use xlink:href="#DejaVuSansMono-61" x="1806.152344"/>
     <use xlink:href="#DejaVuSansMono-69" x="1866.357422"/>
     <use xlink:href="#DejaVuSansMono-6e" x="1926.5625"/>
     <use xlink:href="#DejaVuSansMono-29" x="1986.767578"/>
    </g>
   </g>
   <g id="text_18">
    <!-- y_pred = model.predict(X_test_scaled) -->
    <g style="fill: #cdd6f4" transform="translate(40.32 234.811219) scale(0.105 -0.105)">
     <defs>
      <path id="DejaVuSansMono-70" d="M 1172 441 
L 1172 -1331 
L 594 -1331 
L 594 3500 
L 1172 3500 
L 1172 3053 
Q 1316 3313 1555 3448 
Q 1794 3584 2106 3584 
Q 2741 3584 3102 3093 
Q 3463 2603 3463 1734 
Q 3463 881 3100 395 
Q 2738 -91 2106 -91 
Q 1788 -91 1548 45 
Q 1309 181 1172 441 
z
M 2859 1747 
Q 2859 2416 2648 2756 
Q 2438 3097 2022 3097 
Q 1603 3097 1387 2755 
Q 1172 2413 1172 1747 
Q 1172 1084 1387 740 
Q 1603 397 2022 397 
Q 2438 397 2648 737 
Q 2859 1078 2859 1747 
z
" transform="scale(0.015625)"/>
     </defs>
     <use xlink:href="#DejaVuSansMono-79"/>
     <use xlink:href="#DejaVuSansMono-5f" x="60.205078"/>
     <use xlink:href="#DejaVuSansMono-70" x="120.410156"/>
     <use xlink:href="#DejaVuSansMono-72" x="180.615234"/>
     <use xlink:href="#DejaVuSansMono-65" x="240.820312"/>
     <use xlink:href="#DejaVuSansMono-64" x="301.025391"/>
     <use xlink:href="#DejaVuSansMono-20" x="361.230469"/>
     <use xlink:href="#DejaVuSansMono-3d" x="421.435547"/>
     <use xlink:href="#DejaVuSansMono-20" x="481.640625"/>
     <use xlink:href="#DejaVuSansMono-6d" x="541.845703"/>
     <use xlink:href="#DejaVuSansMono-6f" x="602.050781"/>
     <use xlink:href="#DejaVuSansMono-64" x="662.255859"/>
     <use xlink:href="#DejaVuSansMono-65" x="722.460938"/>
     <use xlink:href="#DejaVuSansMono-6c" x="782.666016"/>
     <use xlink:href="#DejaVuSansMono-2e" x="842.871094"/>
     <use xlink:href="#DejaVuSansMono-70" x="903.076172"/>
     <use xlink:href="#DejaVuSansMono-72" x="963.28125"/>
     <use xlink:href="#DejaVuSansMono-65" x="1023.486328"/>
     <use xlink:href="#DejaVuSansMono-64" x="1083.691406"/>
     <use xlink:href="#DejaVuSansMono-69" x="1143.896484"/>
     <use xlink:href="#DejaVuSansMono-63" x="1204.101562"/>
     <use xlink:href="#DejaVuSansMono-74" x="1264.306641"/>
     <use xlink:href="#DejaVuSansMono-28" x="1324.511719"/>
     <use xlink:href="#DejaVuSansMono-58" x="1384.716797"/>
     <use xlink:href="#DejaVuSansMono-5f" x="1444.921875"/>
     <use xlink:href="#DejaVuSansMono-74" x="1505.126953"/>
     <use xlink:href="#DejaVuSansMono-65" x="1565.332031"/>
     <use xlink:href="#DejaVuSansMono-73" x="1625.537109"/>
     <use xlink:href="#DejaVuSansMono-74" x="1685.742188"/>
     <use xlink:href="#DejaVuSansMono-5f" x="1745.947266"/>
     <use xlink:href="#DejaVuSansMono-73" x="1806.152344"/>
     <use xlink:href="#DejaVuSansMono-63" x="1866.357422"/>
     <use xlink:href="#DejaVuSansMono-61" x="1926.5625"/>
     <use xlink:href="#DejaVuSansMono-6c" x="1986.767578"/>
     <use xlink:href="#DejaVuSansMono-65" x="2046.972656"/>
     <use xlink:href="#DejaVuSansMono-64" x="2107.177734"/>
     <use xlink:href="#DejaVuSansMono-29" x="2167.382812"/>
    </g>
   </g>
   <g id="text_19">
    <!-- ▸ -->
    <g style="fill: #c0392b" transform="translate(33.12 265.075) scale(0.095 -0.095)">
     <defs>
      <path id="IPAexGothic-25b8" d="M 5759 -641 
L 641 -641 
L 641 5503 
L 5759 5503 
L 5759 -641 
z
M 5216 5172 
L 1191 5172 
L 3206 2694 
L 5216 5172 
z
M 5428 -53 
L 5428 4903 
L 3419 2425 
L 5428 -53 
z
M 2988 2425 
L 972 4916 
L 972 -59 
L 2988 2425 
z
M 5209 -309 
L 3206 2163 
L 1197 -309 
L 5209 -309 
z
" transform="scale(0.015625)"/>
     </defs>
     <use xlink:href="#IPAexGothic-25b8"/>
    </g>
   </g>
   <g id="text_20">
    <!-- 各決定木がバラバラなデータ・特徴量で学習する → 多様性が生まれる -->
    <g style="fill: #2c3e50" transform="translate(46.08 266.935938) scale(0.14 -0.14)">
     <defs>
      <path id="IPAexGothic-5404" d="M 4991 1906 
L 4991 -447 
L 4522 -447 
L 4522 -122 
L 1925 -122 
L 1925 -447 
L 1456 -447 
L 1456 1778 
Q 1116 1631 619 1453 
L 325 1850 
Q 1703 2213 2903 3078 
Q 2422 3500 2047 3969 
Q 1594 3431 906 2956 
L 619 3309 
Q 1734 4053 2450 5338 
L 2922 5228 
Q 2734 4913 2666 4813 
L 4663 4813 
L 4900 4581 
Q 4313 3738 3588 3091 
Q 4509 2459 6034 2144 
L 5753 1709 
Q 4188 2138 3244 2809 
Q 2572 2300 1747 1906 
L 4991 1906 
z
M 1925 1509 
L 1925 269 
L 4522 269 
L 4522 1509 
L 1925 1509 
z
M 3244 3347 
Q 3809 3813 4253 4422 
L 2403 4422 
Q 2328 4319 2297 4275 
Q 2759 3722 3244 3347 
z
" transform="scale(0.015625)"/>
      <path id="IPAexGothic-304c" d="M 659 3384 
Q 1434 3503 2113 3581 
Q 2313 4341 2394 4972 
L 2900 4875 
Q 2759 4147 2619 3628 
L 2719 3634 
Q 2894 3641 3041 3641 
Q 4072 3641 4072 2369 
Q 4072 1128 3700 384 
Q 3478 -56 3003 -56 
Q 2591 -56 2113 231 
L 2138 775 
Q 2631 444 2925 444 
Q 3169 444 3297 706 
Q 3566 1294 3566 2388 
Q 3566 3219 3016 3219 
Q 2825 3219 2497 3194 
Q 2388 2763 2113 2047 
Q 1634 797 1119 -38 
L 678 244 
Q 1356 1238 1863 2750 
Q 1888 2819 1991 3128 
Q 1594 3081 769 2916 
L 659 3384 
z
M 5441 1838 
Q 4913 3038 4091 3916 
L 4475 4184 
Q 5350 3269 5888 2156 
L 5441 1838 
z
M 5913 4275 
Q 5553 4819 5159 5147 
L 5459 5375 
Q 5844 5066 6234 4550 
L 5913 4275 
z
M 5344 3788 
Q 5053 4278 4609 4678 
L 4922 4922 
Q 5294 4613 5678 4063 
L 5344 3788 
z
" transform="scale(0.015625)"/>
      <path id="IPAexGothic-30d0" d="M 428 903 
Q 1472 2069 1972 3884 
L 2497 3700 
Q 1938 1778 897 544 
L 428 903 
z
M 5441 678 
Q 4694 2275 3684 3725 
L 4147 3969 
Q 5050 2734 5956 1025 
L 5441 678 
z
M 5697 4116 
Q 5334 4656 4941 4984 
L 5241 5216 
Q 5625 4906 6016 4391 
L 5697 4116 
z
M 5094 3641 
Q 4803 4131 4356 4531 
L 4678 4781 
Q 5050 4472 5434 3922 
L 5094 3641 
z
" transform="scale(0.015625)"/>
      <path id="IPAexGothic-306a" d="M 3906 3147 
L 4372 3147 
Q 4381 2278 4444 1272 
Q 5244 1003 5838 631 
L 5556 222 
Q 4953 600 4463 813 
Q 4478 263 4234 22 
Q 3984 -225 3419 -225 
Q 2897 -225 2563 0 
Q 2216 231 2216 647 
Q 2216 1081 2656 1319 
Q 2959 1484 3297 1484 
Q 3638 1484 3969 1413 
Q 3916 2219 3906 3147 
z
M 3975 984 
Q 3631 1081 3297 1081 
Q 3031 1081 2856 978 
Q 2663 863 2663 653 
Q 2663 197 3400 197 
Q 3750 197 3875 378 
Q 3997 556 3975 984 
z
M 738 3928 
Q 1453 3884 1997 3938 
Q 2144 4381 2294 5125 
L 2784 5050 
Q 2684 4559 2516 3988 
Q 2969 4031 3559 4172 
L 3578 3713 
Q 2919 3575 2375 3531 
Q 1853 2028 1044 831 
L 603 1113 
Q 1325 2063 1856 3488 
Q 1063 3459 763 3475 
L 738 3928 
z
M 5538 2759 
Q 5000 3353 4263 3853 
L 4591 4191 
Q 5338 3728 5897 3128 
L 5538 2759 
z
" transform="scale(0.015625)"/>
      <path id="IPAexGothic-30fc" d="M 588 2688 
L 5809 2688 
L 5809 2175 
L 588 2175 
L 588 2688 
z
" transform="scale(0.015625)"/>
      <path id="IPAexGothic-30bf" d="M 4978 4263 
L 5313 3988 
Q 4797 2431 4056 1459 
Q 3191 325 1822 -300 
L 1466 109 
Q 2131 381 2613 738 
Q 3053 1066 3531 1600 
Q 2919 2225 2144 2791 
Q 1603 2203 1172 1875 
L 825 2234 
Q 2316 3328 2866 5031 
L 3359 4897 
Q 3325 4775 3109 4263 
L 4978 4263 
z
M 2894 3816 
Q 2709 3522 2438 3169 
Q 3194 2616 3841 2003 
Q 4366 2806 4747 3816 
L 2894 3816 
z
" transform="scale(0.015625)"/>
      <path id="IPAexGothic-30fb" d="M 2772 2859 
L 3628 2859 
L 3628 2003 
L 2772 2003 
L 2772 2859 
z
" transform="scale(0.015625)"/>
      <path id="IPAexGothic-7279" d="M 1025 3950 
L 1434 3950 
L 1434 5313 
L 1875 5313 
L 1875 3950 
L 2534 3950 
L 2534 3547 
L 1875 3547 
L 1875 2216 
Q 2084 2313 2494 2516 
L 2547 2106 
Q 2281 1963 1856 1750 
L 1856 -447 
L 1416 -447 
L 1416 1538 
Q 1028 1359 538 1153 
L 313 1581 
Q 778 1744 1434 2019 
L 1434 3547 
L 947 3547 
Q 828 3013 647 2556 
L 275 2803 
Q 584 3600 691 4744 
L 1131 4688 
Q 1091 4291 1025 3950 
z
M 3872 4372 
L 3872 5313 
L 4313 5313 
L 4313 4372 
L 5738 4372 
L 5738 3981 
L 4313 3981 
L 4313 3200 
L 6072 3200 
L 6072 2803 
L 5106 2803 
L 5106 2047 
L 5956 2047 
L 5956 1650 
L 5125 1650 
L 5125 38 
Q 5125 -447 4594 -447 
Q 4288 -447 3788 -391 
L 3691 78 
Q 4181 0 4491 0 
Q 4684 0 4684 172 
L 4684 1650 
L 2609 1650 
L 2609 2047 
L 4666 2047 
L 4666 2803 
L 2400 2803 
L 2400 3200 
L 3872 3200 
L 3872 3981 
L 2653 3981 
L 2653 4372 
L 3872 4372 
z
M 3550 384 
Q 3216 959 2834 1331 
L 3172 1575 
Q 3641 1116 3916 672 
L 3550 384 
z
" transform="scale(0.015625)"/>
      <path id="IPAexGothic-5fb4" d="M 5656 3775 
L 5656 3697 
Q 5597 2178 5228 1188 
Q 5678 478 6181 31 
L 5900 -419 
Q 5375 125 5016 741 
Q 4591 -3 3941 -500 
L 3616 -138 
Q 4372 331 4788 1163 
Q 4441 1838 4269 2759 
Q 4131 2388 3953 2078 
L 3697 2413 
L 3072 2413 
L 3072 1784 
L 3788 1784 
L 3788 1425 
L 3072 1425 
L 3072 747 
Q 3600 866 4063 1003 
L 4081 625 
Q 3147 297 1784 25 
L 1631 459 
Q 2194 553 2656 650 
L 2656 1425 
L 1856 1425 
L 1856 1784 
L 2656 1784 
L 2656 2413 
L 1663 2413 
L 1663 2784 
L 3838 2784 
Q 4222 3697 4422 5259 
L 4844 5197 
Q 4775 4688 4672 4178 
L 6059 4178 
L 6059 3775 
L 5656 3775 
z
M 5253 3775 
L 4575 3775 
Q 4516 3525 4497 3463 
L 4509 3391 
Q 4638 2475 4966 1700 
Q 5188 2516 5253 3775 
z
M 1372 2950 
L 1372 -447 
L 950 -447 
L 950 2328 
Q 728 2038 419 1716 
L 194 2088 
Q 944 2819 1453 3981 
L 1825 3803 
Q 1631 3384 1372 2950 
z
M 3088 3700 
L 3484 3700 
L 3484 4819 
L 3875 4819 
L 3875 3334 
L 1916 3334 
L 1916 4819 
L 2306 4819 
L 2306 3700 
L 2684 3700 
L 2684 5313 
L 3088 5313 
L 3088 3700 
z
M 256 3884 
Q 916 4419 1350 5203 
L 1716 5013 
Q 1300 4234 513 3547 
L 256 3884 
z
" transform="scale(0.015625)"/>
      <path id="IPAexGothic-91cf" d="M 5081 5159 
L 5081 3497 
L 1275 3497 
L 1275 5159 
L 5081 5159 
z
M 1716 4819 
L 1716 4475 
L 4647 4475 
L 4647 4819 
L 1716 4819 
z
M 1716 4175 
L 1716 3816 
L 4647 3816 
L 4647 4175 
L 1716 4175 
z
M 5238 2625 
L 5238 997 
L 3388 997 
L 3388 694 
L 5428 694 
L 5428 353 
L 3388 353 
L 3388 34 
L 6044 34 
L 6044 -331 
L 353 -331 
L 353 34 
L 2972 34 
L 2972 353 
L 969 353 
L 969 694 
L 2972 694 
L 2972 997 
L 1159 997 
L 1159 2625 
L 5238 2625 
z
M 1588 2325 
L 1588 1972 
L 2972 1972 
L 2972 2325 
L 1588 2325 
z
M 1588 1672 
L 1588 1303 
L 2972 1303 
L 2972 1672 
L 1588 1672 
z
M 4809 1303 
L 4809 1672 
L 3388 1672 
L 3388 1303 
L 4809 1303 
z
M 4809 1972 
L 4809 2325 
L 3388 2325 
L 3388 1972 
L 4809 1972 
z
M 384 3231 
L 6009 3231 
L 6009 2884 
L 384 2884 
L 384 3231 
z
" transform="scale(0.015625)"/>
      <path id="IPAexGothic-3067" d="M 581 4034 
Q 2978 4363 5466 4556 
L 5509 4097 
Q 4388 4031 3750 3572 
Q 2797 2878 2797 1913 
Q 2797 1169 3291 819 
Q 3778 484 4869 416 
L 4906 -116 
Q 2278 0 2278 1850 
Q 2278 3125 3691 4000 
Q 2066 3784 684 3553 
L 581 4034 
z
M 5631 2522 
Q 5269 3063 4875 3391 
L 5175 3622 
Q 5559 3313 5950 2797 
L 5631 2522 
z
M 5034 2053 
Q 4747 2544 4300 2944 
L 4613 3184 
Q 4984 2878 5369 2328 
L 5034 2053 
z
" transform="scale(0.015625)"/>
      <path id="IPAexGothic-3059" d="M 3322 5075 
L 3816 5075 
L 3816 4063 
Q 4131 4075 5756 4116 
L 5756 3669 
Q 5431 3672 3816 3653 
L 3816 2463 
Q 3956 2125 3956 1741 
Q 3956 922 3519 397 
Q 3128 -72 2309 -409 
L 1941 -31 
Q 3263 453 3488 1363 
Q 3250 1031 2809 1031 
Q 2441 1031 2150 1313 
Q 1875 1588 1875 2050 
Q 1875 2475 2166 2769 
Q 2431 3041 2822 3041 
Q 3088 3041 3322 2881 
L 3322 3641 
Q 3000 3634 609 3547 
L 609 3988 
Q 1197 4000 2106 4022 
Q 3066 4047 3322 4050 
L 3322 5075 
z
M 3372 2044 
Q 3372 2300 3194 2478 
Q 3050 2613 2869 2613 
Q 2622 2613 2463 2406 
Q 2344 2250 2344 2088 
Q 2344 1797 2484 1622 
Q 2625 1453 2859 1453 
Q 3372 1453 3372 2044 
z
" transform="scale(0.015625)"/>
      <path id="IPAexGothic-308b" d="M 4391 4397 
L 2613 2588 
Q 3225 2809 3759 2809 
Q 4263 2809 4659 2625 
Q 5391 2269 5391 1484 
Q 5391 756 4706 275 
Q 4072 -166 3053 -166 
Q 2559 -166 2247 19 
Q 1863 250 1863 666 
Q 1863 934 2069 1141 
Q 2331 1403 2741 1403 
Q 3509 1403 4019 428 
Q 4872 784 4872 1491 
Q 4872 1981 4469 2222 
Q 4166 2406 3681 2406 
Q 2425 2406 1238 1209 
L 891 1581 
Q 2438 2934 3578 4281 
Q 2594 4125 1588 4066 
L 1478 4550 
Q 2594 4581 4109 4763 
L 4391 4397 
z
M 3591 303 
Q 3244 1025 2731 1025 
Q 2553 1025 2434 934 
Q 2316 844 2316 700 
Q 2316 250 3034 250 
Q 3275 250 3591 303 
z
" transform="scale(0.015625)"/>
      <path id="IPAexGothic-2192" d="M 3947 3572 
L 4631 3572 
L 6072 2431 
L 4631 1294 
L 3947 1294 
L 5094 2194 
L 459 2194 
L 459 2669 
L 5094 2669 
L 3947 3572 
z
" transform="scale(0.015625)"/>
      <path id="IPAexGothic-69d8" d="M 4384 1675 
L 4384 0 
Q 4384 -284 4263 -378 
Q 4156 -453 3891 -453 
Q 3622 -453 3200 -403 
L 3138 50 
Q 3531 -19 3738 -19 
Q 3956 -19 3956 159 
L 3956 2353 
L 2394 2353 
L 2394 2725 
L 3956 2725 
L 3956 3172 
L 2728 3172 
L 2728 3531 
L 3956 3531 
L 3956 3969 
L 2497 3969 
L 2497 4341 
L 4434 4341 
Q 4691 4809 4863 5294 
L 5344 5141 
Q 5138 4719 4897 4341 
L 5906 4341 
L 5906 3969 
L 4384 3969 
L 4384 3531 
L 5656 3531 
L 5656 3172 
L 4384 3172 
L 4384 2725 
L 6059 2725 
L 6059 2353 
L 4447 2353 
Q 4606 1909 4903 1466 
Q 5281 1844 5497 2206 
L 5894 1950 
Q 5513 1497 5131 1172 
Q 5588 641 6156 306 
L 5856 -103 
Q 4841 644 4384 1675 
z
M 1288 2638 
Q 953 1522 500 788 
L 231 1250 
Q 903 2206 1228 3547 
L 366 3547 
L 366 3950 
L 1288 3950 
L 1288 5300 
L 1722 5300 
L 1722 3950 
L 2431 3950 
L 2431 3547 
L 1722 3547 
L 1722 2803 
Q 2147 2416 2553 1928 
L 2291 1488 
Q 2016 1919 1722 2288 
L 1722 -447 
L 1288 -447 
L 1288 2638 
z
M 3406 4353 
Q 3197 4816 2963 5106 
L 3366 5288 
Q 3622 4975 3816 4569 
L 3406 4353 
z
M 3359 1209 
Q 3044 1591 2681 1869 
L 2984 2138 
Q 3384 1853 3681 1509 
L 3359 1209 
z
M 2228 428 
Q 3016 766 3763 1294 
L 3847 903 
Q 3256 419 2453 6 
L 2228 428 
z
" transform="scale(0.015625)"/>
      <path id="IPAexGothic-6027" d="M 3106 3788 
L 3900 3788 
L 3900 5216 
L 4353 5216 
L 4353 3788 
L 5884 3788 
L 5884 3372 
L 4353 3372 
L 4353 2069 
L 5756 2069 
L 5756 1653 
L 4353 1653 
L 4353 153 
L 6081 153 
L 6081 -269 
L 2231 -269 
L 2231 153 
L 3900 153 
L 3900 1653 
L 2606 1653 
L 2606 2069 
L 3900 2069 
L 3900 3372 
L 2984 3372 
Q 2806 2803 2544 2325 
L 2147 2613 
Q 2638 3428 2875 4875 
L 3313 4778 
Q 3234 4309 3106 3788 
z
M 269 2188 
Q 459 2891 525 3950 
L 934 3884 
Q 884 2694 672 1931 
L 269 2188 
z
M 1997 3047 
Q 1872 3591 1650 4078 
L 1984 4256 
Q 2216 3844 2394 3291 
L 1997 3047 
z
M 1159 5313 
L 1613 5313 
L 1613 -447 
L 1159 -447 
L 1159 5313 
z
" transform="scale(0.015625)"/>
      <path id="IPAexGothic-751f" d="M 1741 3822 
L 3022 3822 
L 3022 5250 
L 3509 5250 
L 3509 3822 
L 5628 3822 
L 5628 3406 
L 3509 3406 
L 3509 2125 
L 5366 2125 
L 5366 1709 
L 3509 1709 
L 3509 250 
L 5978 250 
L 5978 -166 
L 513 -166 
L 513 250 
L 3022 250 
L 3022 1709 
L 1263 1709 
L 1263 2125 
L 3022 2125 
L 3022 3406 
L 1563 3406 
Q 1266 2813 872 2350 
L 513 2688 
Q 1238 3519 1556 4834 
L 2022 4719 
Q 1894 4216 1741 3822 
z
" transform="scale(0.015625)"/>
      <path id="IPAexGothic-307e" d="M 3538 5075 
L 3547 4141 
Q 4509 4203 5288 4341 
L 5325 3897 
Q 4744 3809 3553 3719 
L 3566 2925 
Q 4578 3022 5031 3103 
L 5063 2663 
Q 4519 2572 3578 2503 
L 3628 1403 
Q 4531 1128 5459 513 
L 5153 84 
Q 4656 456 3641 909 
Q 3669 331 3391 84 
Q 3116 -153 2559 -153 
Q 1900 -153 1522 72 
Q 1138 297 1138 719 
Q 1138 1163 1634 1413 
Q 1994 1594 2413 1594 
Q 2797 1594 3156 1538 
L 3109 2472 
Q 2641 2450 2413 2450 
Q 1931 2450 1422 2484 
L 1422 2919 
Q 1941 2872 2516 2872 
Q 2706 2872 3097 2894 
L 3072 3688 
Q 2381 3675 2344 3675 
Q 1794 3675 1075 3706 
L 1075 4141 
Q 1744 4097 2431 4097 
Q 2456 4097 3059 4109 
L 3041 5075 
L 3538 5075 
z
M 3163 1088 
Q 2713 1184 2394 1184 
Q 2094 1184 1875 1091 
Q 1606 975 1606 750 
Q 1606 484 1925 363 
Q 2156 275 2503 275 
Q 3163 275 3163 794 
L 3163 1088 
z
" transform="scale(0.015625)"/>
      <path id="IPAexGothic-308c" d="M 538 3694 
Q 1275 3791 1800 3903 
L 1838 5006 
L 2316 5006 
L 2253 4006 
L 2619 3675 
Q 2428 3425 2247 3144 
Q 2241 3084 2241 2869 
Q 3341 4031 4134 4031 
Q 4856 4031 4856 3309 
Q 4856 3047 4794 2491 
Q 4719 1747 4719 1044 
Q 4719 672 4922 672 
Q 5084 672 5263 788 
Q 5613 1034 5850 1491 
L 6131 1025 
Q 5856 641 5600 447 
Q 5238 166 4866 166 
Q 4244 166 4244 1100 
Q 4244 1519 4350 2956 
Q 4369 3181 4369 3238 
Q 4369 3434 4297 3513 
Q 4231 3584 4081 3584 
Q 3438 3584 2228 2291 
Q 2222 1931 2222 1478 
Q 2222 753 2241 -159 
L 1747 -159 
Q 1747 1241 1753 1734 
Q 1544 1466 928 647 
L 531 991 
Q 1603 2291 1772 2478 
Q 1772 3038 1791 3469 
Q 1128 3284 653 3194 
L 538 3694 
z
" transform="scale(0.015625)"/>
     </defs>
     <use xlink:href="#IPAexGothic-5404"/>
     <use xlink:href="#IPAexGothic-6c7a" x="100"/>
     <use xlink:href="#IPAexGothic-5b9a" x="200"/>
     <use xlink:href="#IPAexGothic-6728" x="300"/>
     <use xlink:href="#IPAexGothic-304c" x="400"/>
     <use xlink:href="#IPAexGothic-30d0" x="500"/>
     <use xlink:href="#IPAexGothic-30e9" x="600"/>
     <use xlink:href="#IPAexGothic-30d0" x="700"/>
     <use xlink:href="#IPAexGothic-30e9" x="800"/>
     <use xlink:href="#IPAexGothic-306a" x="900"/>
     <use xlink:href="#IPAexGothic-30c7" x="1000"/>
     <use xlink:href="#IPAexGothic-30fc" x="1100"/>
     <use xlink:href="#IPAexGothic-30bf" x="1200"/>
     <use xlink:href="#IPAexGothic-30fb" x="1300"/>
     <use xlink:href="#IPAexGothic-7279" x="1400"/>
     <use xlink:href="#IPAexGothic-5fb4" x="1500"/>
     <use xlink:href="#IPAexGothic-91cf" x="1600"/>
     <use xlink:href="#IPAexGothic-3067" x="1700"/>
     <use xlink:href="#IPAexGothic-5b66" x="1800"/>
     <use xlink:href="#IPAexGothic-7fd2" x="1900"/>
     <use xlink:href="#IPAexGothic-3059" x="2000"/>
     <use xlink:href="#IPAexGothic-308b" x="2100"/>
     <use xlink:href="#IPAexGothic-20" x="2200"/>
     <use xlink:href="#IPAexGothic-2192" x="2227.001953"/>
     <use xlink:href="#IPAexGothic-20" x="2327.001953"/>
     <use xlink:href="#IPAexGothic-591a" x="2354.003906"/>
     <use xlink:href="#IPAexGothic-69d8" x="2454.003906"/>
     <use xlink:href="#IPAexGothic-6027" x="2554.003906"/>
     <use xlink:href="#IPAexGothic-304c" x="2654.003906"/>
     <use xlink:href="#IPAexGothic-751f" x="2754.003906"/>
     <use xlink:href="#IPAexGothic-307e" x="2854.003906"/>
     <use xlink:href="#IPAexGothic-308c" x="2954.003906"/>
     <use xlink:href="#IPAexGothic-308b" x="3054.003906"/>
    </g>
   </g>
   <g id="text_21">
    <!-- ▸ -->
    <g style="fill: #c0392b" transform="translate(33.12 289.555) scale(0.095 -0.095)">
     <use xlink:href="#IPAexGothic-25b8"/>
    </g>
   </g>
   <g id="text_22">
    <!-- 多数決で最終結果 → 一つの木のミスをカバー（過学習しにくい） -->
    <g style="fill: #2c3e50" transform="translate(46.08 291.286875) scale(0.14 -0.14)">
     <defs>
      <path id="IPAexGothic-7d50" d="M 1241 3084 
Q 794 3713 378 4128 
L 666 4422 
Q 828 4259 916 4153 
Q 1300 4750 1541 5331 
L 1956 5119 
Q 1547 4363 1150 3859 
Q 1228 3759 1466 3425 
Q 1844 4016 2138 4550 
L 2522 4313 
Q 1853 3213 1313 2572 
Q 1647 2581 2253 2631 
Q 2134 2909 2009 3156 
L 2353 3303 
Q 2656 2775 2878 2106 
L 2494 1925 
Q 2469 2022 2425 2156 
Q 2384 2284 2372 2322 
Q 2334 2319 2222 2300 
Q 1966 2259 1778 2234 
L 1778 -447 
L 1363 -447 
L 1363 2181 
L 1291 2175 
Q 1000 2144 428 2106 
L 281 2534 
Q 672 2547 863 2553 
Q 909 2613 972 2700 
Q 1059 2816 1241 3084 
z
M 4134 4325 
L 4134 5309 
L 4563 5309 
L 4563 4325 
L 6113 4325 
L 6113 3934 
L 4563 3934 
L 4563 3034 
L 5906 3034 
L 5906 2650 
L 2859 2650 
L 2859 3034 
L 4134 3034 
L 4134 3934 
L 2719 3934 
L 2719 4325 
L 4134 4325 
z
M 5631 1997 
L 5631 -450 
L 5203 -450 
L 5203 -103 
L 3550 -103 
L 3550 -450 
L 3122 -450 
L 3122 1997 
L 5631 1997 
z
M 3550 1613 
L 3550 281 
L 5203 281 
L 5203 1613 
L 3550 1613 
z
M 353 197 
Q 581 863 647 1759 
L 1056 1709 
Q 988 709 769 -13 
L 353 197 
z
M 2334 313 
Q 2206 1147 1997 1759 
L 2363 1869 
Q 2609 1253 2766 488 
L 2334 313 
z
" transform="scale(0.015625)"/>
      <path id="IPAexGothic-679c" d="M 3809 1666 
Q 4656 800 6088 297 
L 5784 -131 
Q 4256 494 3406 1563 
L 3406 -447 
L 2947 -447 
L 2947 1519 
Q 2203 425 647 -281 
L 334 109 
Q 1769 697 2575 1666 
L 378 1666 
L 378 2075 
L 2947 2075 
L 2947 2625 
L 1109 2625 
L 1109 5013 
L 5288 5013 
L 5288 2625 
L 3406 2625 
L 3406 2075 
L 6016 2075 
L 6016 1666 
L 3809 1666 
z
M 1556 4628 
L 1556 3994 
L 2959 3994 
L 2959 4628 
L 1556 4628 
z
M 1556 3628 
L 1556 3009 
L 2959 3009 
L 2959 3628 
L 1556 3628 
z
M 4834 3009 
L 4834 3628 
L 3394 3628 
L 3394 3009 
L 4834 3009 
z
M 4834 3994 
L 4834 4628 
L 3394 4628 
L 3394 3994 
L 4834 3994 
z
" transform="scale(0.015625)"/>
      <path id="IPAexGothic-4e00" d="M 513 2847 
L 5881 2847 
L 5881 2328 
L 513 2328 
L 513 2847 
z
" transform="scale(0.015625)"/>
      <path id="IPAexGothic-3064" d="M 575 3541 
Q 2694 4116 3769 4116 
Q 4506 4116 4978 3750 
Q 5559 3303 5559 2497 
Q 5559 1481 4606 903 
Q 3750 388 2213 281 
L 1963 781 
Q 5022 916 5022 2497 
Q 5022 3053 4663 3375 
Q 4331 3669 3734 3669 
Q 2663 3669 800 3041 
L 575 3541 
z
" transform="scale(0.015625)"/>
      <path id="IPAexGothic-30df" d="M 4606 3353 
Q 3022 4028 1600 4375 
L 1888 4806 
Q 3403 4425 4881 3813 
L 4606 3353 
z
M 4184 1863 
Q 2906 2466 1747 2763 
L 2028 3213 
Q 3169 2903 4466 2328 
L 4184 1863 
z
M 4631 -159 
Q 3119 638 1125 1234 
L 1413 1678 
Q 3228 1169 4953 319 
L 4631 -159 
z
" transform="scale(0.015625)"/>
      <path id="IPAexGothic-3092" d="M 1094 4263 
Q 1544 4222 2359 4222 
Q 2581 4734 2700 5163 
L 3175 5028 
Q 2997 4538 2859 4256 
Q 3516 4284 4294 4459 
L 4356 4019 
Q 3603 3869 2656 3819 
Q 2391 3284 2059 2797 
Q 2531 3200 2963 3200 
Q 3638 3200 3859 2378 
Q 4556 2681 5338 2950 
L 5575 2528 
Q 4641 2253 3941 1956 
Q 3981 1678 3994 1028 
L 3513 991 
Q 3513 1456 3494 1753 
Q 2388 1194 2388 716 
Q 2388 428 2753 328 
Q 3066 241 3806 241 
Q 4394 241 5178 344 
L 5216 -128 
Q 4434 -213 3653 -213 
Q 2656 -213 2244 41 
Q 1913 244 1913 631 
Q 1913 1094 2344 1497 
Q 2709 1841 3428 2181 
Q 3266 2797 2878 2797 
Q 2238 2797 1209 1419 
L 838 1694 
Q 1625 2716 2163 3800 
Q 1522 3800 1088 3825 
L 1094 4263 
z
" transform="scale(0.015625)"/>
      <path id="IPAexGothic-30ab" d="M 2734 4981 
L 3247 4981 
L 3247 3694 
L 5250 3694 
L 5250 3491 
L 5250 3425 
Q 5250 1334 5019 500 
Q 4856 -84 4297 -84 
Q 3788 -84 3247 172 
L 3228 731 
Q 3859 441 4200 441 
Q 4484 441 4553 763 
Q 4706 1478 4738 3234 
L 3206 3234 
Q 3025 906 1159 -134 
L 769 263 
Q 2519 1134 2700 3209 
L 916 3209 
L 916 3669 
L 2734 3669 
L 2734 4981 
z
" transform="scale(0.015625)"/>
      <path id="IPAexGothic-ff08" d="M 5419 -434 
Q 4197 769 4197 2438 
Q 4197 4097 5419 5300 
L 5919 5300 
Q 4678 4078 4678 2425 
Q 4678 788 5919 -434 
L 5419 -434 
z
" transform="scale(0.015625)"/>
      <path id="IPAexGothic-904e" d="M 1703 741 
Q 1975 363 2503 209 
Q 2903 94 3928 94 
Q 4897 94 6131 178 
Q 6025 -59 5978 -300 
Q 4931 -341 4384 -341 
Q 2819 -341 2234 -128 
Q 1759 44 1525 397 
Q 1113 -81 653 -447 
L 372 19 
Q 900 341 1269 672 
L 1269 2303 
L 378 2303 
L 378 2731 
L 1703 2731 
L 1703 741 
z
M 5338 2778 
L 2594 2778 
L 2594 428 
L 2178 428 
L 2178 3138 
L 2594 3138 
L 2594 5025 
L 5338 5025 
L 5338 3138 
L 5753 3138 
L 5753 878 
Q 5753 597 5638 513 
Q 5547 441 5313 441 
Q 5016 441 4709 481 
L 4659 903 
Q 4956 850 5184 850 
Q 5338 850 5338 1019 
L 5338 2778 
z
M 4934 3138 
L 4934 3784 
L 4041 3784 
L 4041 3138 
L 4934 3138 
z
M 3663 3138 
L 3663 4116 
L 4934 4116 
L 4934 4666 
L 3003 4666 
L 3003 3138 
L 3663 3138 
z
M 4750 2350 
L 4750 1113 
L 3469 1113 
L 3469 778 
L 3091 778 
L 3091 2350 
L 4750 2350 
z
M 3469 2019 
L 3469 1453 
L 4372 1453 
L 4372 2019 
L 3469 2019 
z
M 1522 3775 
Q 1053 4353 563 4738 
L 878 5056 
Q 1497 4566 1869 4122 
L 1522 3775 
z
" transform="scale(0.015625)"/>
      <path id="IPAexGothic-3057" d="M 1750 4884 
L 2281 4884 
L 2238 1319 
Q 2228 809 2391 569 
Q 2594 281 3128 281 
Q 3772 281 4344 744 
Q 4822 1131 5156 1759 
L 5534 1369 
Q 5094 653 4534 263 
Q 3878 -206 3134 -206 
Q 2341 -206 1994 213 
Q 1697 575 1706 1269 
L 1750 4884 
z
" transform="scale(0.015625)"/>
      <path id="IPAexGothic-306b" d="M 1088 -38 
Q 922 1003 922 2081 
Q 922 3222 1331 4794 
L 1813 4684 
Q 1391 3113 1391 2003 
Q 1391 1441 1422 1147 
Q 1434 1181 1813 2016 
L 2125 1797 
Q 1800 1081 1691 763 
Q 1581 453 1581 269 
Q 1581 78 1588 6 
L 1088 -38 
z
M 2834 4038 
Q 3969 4213 5313 4172 
L 5338 3681 
Q 3959 3728 2869 3547 
L 2834 4038 
z
M 5650 256 
Q 5044 172 4372 172 
Q 3463 172 3047 434 
Q 2784 594 2675 841 
Q 2572 1075 2572 1447 
Q 2572 1563 2578 1656 
L 3053 1684 
Q 3050 1613 3044 1528 
Q 3041 1481 3041 1466 
Q 3041 1200 3119 1053 
Q 3178 944 3309 850 
Q 3569 678 4275 678 
Q 4891 678 5588 763 
L 5650 256 
z
" transform="scale(0.015625)"/>
      <path id="IPAexGothic-3044" d="M 3369 1447 
Q 2906 122 2278 122 
Q 1966 122 1647 481 
Q 1209 966 1044 1966 
Q 891 2888 891 4313 
L 1422 4313 
Q 1413 2444 1666 1550 
Q 1913 678 2278 678 
Q 2619 678 2925 1791 
L 3369 1447 
z
M 5378 1294 
Q 4928 2797 4034 3809 
L 4488 4031 
Q 5375 3000 5881 1563 
L 5378 1294 
z
" transform="scale(0.015625)"/>
      <path id="IPAexGothic-ff09" d="M 481 -434 
Q 1722 788 1722 2431 
Q 1722 4066 481 5300 
L 981 5300 
Q 2203 4097 2203 2431 
Q 2203 769 981 -434 
L 481 -434 
z
" transform="scale(0.015625)"/>
     </defs>
     <use xlink:href="#IPAexGothic-591a"/>
     <use xlink:href="#IPAexGothic-6570" x="100"/>
     <use xlink:href="#IPAexGothic-6c7a" x="200"/>
     <use xlink:href="#IPAexGothic-3067" x="300"/>
     <use xlink:href="#IPAexGothic-6700" x="400"/>
     <use xlink:href="#IPAexGothic-7d42" x="500"/>
     <use xlink:href="#IPAexGothic-7d50" x="600"/>
     <use xlink:href="#IPAexGothic-679c" x="700"/>
     <use xlink:href="#IPAexGothic-20" x="800"/>
     <use xlink:href="#IPAexGothic-2192" x="827.001953"/>
     <use xlink:href="#IPAexGothic-20" x="927.001953"/>
     <use xlink:href="#IPAexGothic-4e00" x="954.003906"/>
     <use xlink:href="#IPAexGothic-3064" x="1054.003906"/>
     <use xlink:href="#IPAexGothic-306e" x="1154.003906"/>
     <use xlink:href="#IPAexGothic-6728" x="1254.003906"/>
     <use xlink:href="#IPAexGothic-306e" x="1354.003906"/>
     <use xlink:href="#IPAexGothic-30df" x="1454.003906"/>
     <use xlink:href="#IPAexGothic-30b9" x="1554.003906"/>
     <use xlink:href="#IPAexGothic-3092" x="1654.003906"/>
     <use xlink:href="#IPAexGothic-30ab" x="1754.003906"/>
     <use xlink:href="#IPAexGothic-30d0" x="1854.003906"/>
     <use xlink:href="#IPAexGothic-30fc" x="1954.003906"/>
     <use xlink:href="#IPAexGothic-ff08" x="2054.003906"/>
     <use xlink:href="#IPAexGothic-904e" x="2154.003906"/>
     <use xlink:href="#IPAexGothic-5b66" x="2254.003906"/>
     <use xlink:href="#IPAexGothic-7fd2" x="2354.003906"/>
     <use xlink:href="#IPAexGothic-3057" x="2454.003906"/>
     <use xlink:href="#IPAexGothic-306b" x="2554.003906"/>
     <use xlink:href="#IPAexGothic-304f" x="2654.003906"/>
     <use xlink:href="#IPAexGothic-3044" x="2754.003906"/>
     <use xlink:href="#IPAexGothic-ff09" x="2854.003906"/>
    </g>
   </g>
  </g>
 </g>
 <defs>
  <clipPath id="pc0607c94d3">
   <rect x="0" y="-0" width="691.2" height="388.8"/>
  </clipPath>
 </defs>
</svg>
