<?xml version="1.0" encoding="utf-8" standalone="no"?>
<!DOCTYPE svg PUBLIC "-//W3C//DTD SVG 1.1//EN"
  "http://www.w3.org/Graphics/SVG/1.1/DTD/svg11.dtd">
<svg xmlns:xlink="http://www.w3.org/1999/xlink" width="691.2pt" height="388.8pt" viewBox="0 0 691.2 388.8" xmlns="http://www.w3.org/2000/svg" version="1.1">
 <metadata>
  <rdf:RDF xmlns:dc="http://purl.org/dc/elements/1.1/" xmlns:cc="http://creativecommons.org/ns#" xmlns:rdf="http://www.w3.org/1999/02/22-rdf-syntax-ns#">
   <cc:Work>
    <dc:type rdf:resource="http://purl.org/dc/dcmitype/StillImage"/>
    <dc:date>2026-04-09T02:37:46.101825</dc:date>
    <dc:format>image/svg+xml</dc:format>
    <dc:creator>
     <cc:Agent>
      <dc:title>Matplotlib v3.9.4, https://matplotlib.org/</dc:title>
     </cc:Agent>
    </dc:creator>
   </cc:Work>
  </rdf:RDF>
 </metadata>
 <defs>
  <style type="text/css">*{stroke-linejoin: round; stroke-linecap: butt}</style>
 </defs>
 <g id="figure_1">
  <g id="patch_1">
   <path d="M 0 388.8 
L 691.2 388.8 
L 691.2 0 
L 0 0 
z
" style="fill: #ffffff"/>
  </g>
  <g id="axes_1">
   <g id="patch_2">
    <path d="M 0 -0 
L 691.2 -0 
L 691.2 24.48 
L 0 24.48 
z
" clip-path="url(#p22dc4f15b5)" style="fill: #c0392b"/>
   </g>
   <g id="patch_3">
    <path d="M 31.68 59.04 
L 659.52 59.04 
L 659.52 60.48 
L 31.68 60.48 
z
" clip-path="url(#p22dc4f15b5)" style="fill: #ecf0f1"/>
   </g>
   <g id="patch_4">
    <path d="M 43.2 72 
L 167.76 72 
L 167.76 171.36 
L 43.2 171.36 
z
" clip-path="url(#p22dc4f15b5)" style="fill: #d5f5e3; stroke: #ffffff; stroke-width: 2; stroke-linejoin: miter"/>
   </g>
   <g id="patch_5">
    <path d="M 169.2 72 
L 293.76 72 
L 293.76 171.36 
L 169.2 171.36 
z
" clip-path="url(#p22dc4f15b5)" style="fill: #fdedec; stroke: #ffffff; stroke-width: 2; stroke-linejoin: miter"/>
   </g>
   <g id="patch_6">
    <path d="M 43.2 172.8 
L 167.76 172.8 
L 167.76 272.16 
L 43.2 272.16 
z
" clip-path="url(#p22dc4f15b5)" style="fill: #fef9e7; stroke: #ffffff; stroke-width: 2; stroke-linejoin: miter"/>
   </g>
   <g id="patch_7">
    <path d="M 169.2 172.8 
L 293.76 172.8 
L 293.76 272.16 
L 169.2 272.16 
z
" clip-path="url(#p22dc4f15b5)" style="fill: #d5f5e3; stroke: #ffffff; stroke-width: 2; stroke-linejoin: miter"/>
   </g>
   <g id="patch_8">
    <path d="M 316.8 77.76 
L 403.2 77.76 
L 403.2 109.44 
L 316.8 109.44 
z
" clip-path="url(#p22dc4f15b5)" style="fill: #c0392b; stroke: #ffffff; stroke-linejoin: miter"/>
   </g>
   <g id="patch_9">
    <path d="M 403.2 77.76 
L 525.6 77.76 
L 525.6 109.44 
L 403.2 109.44 
z
" clip-path="url(#p22dc4f15b5)" style="fill: #c0392b; stroke: #ffffff; stroke-linejoin: miter"/>
   </g>
   <g id="patch_10">
    <path d="M 525.6 77.76 
L 649.44 77.76 
L 649.44 109.44 
L 525.6 109.44 
z
" clip-path="url(#p22dc4f15b5)" style="fill: #c0392b; stroke: #ffffff; stroke-linejoin: miter"/>
   </g>
   <g id="patch_11">
    <path d="M 316.8 109.44 
L 403.2 109.44 
L 403.2 141.12 
L 316.8 141.12 
z
" clip-path="url(#p22dc4f15b5)" style="fill: #ffffff; stroke: #ecf0f1; stroke-width: 0.5; stroke-linejoin: miter"/>
   </g>
   <g id="patch_12">
    <path d="M 403.2 109.44 
L 525.6 109.44 
L 525.6 141.12 
L 403.2 141.12 
z
" clip-path="url(#p22dc4f15b5)" style="fill: #ffffff; stroke: #ecf0f1; stroke-width: 0.5; stroke-linejoin: miter"/>
   </g>
   <g id="patch_13">
    <path d="M 525.6 109.44 
L 649.44 109.44 
L 649.44 141.12 
L 525.6 141.12 
z
" clip-path="url(#p22dc4f15b5)" style="fill: #ffffff; stroke: #ecf0f1; stroke-width: 0.5; stroke-linejoin: miter"/>
   </g>
   <g id="patch_14">
    <path d="M 316.8 141.12 
L 403.2 141.12 
L 403.2 172.8 
L 316.8 172.8 
z
" clip-path="url(#p22dc4f15b5)" style="fill: #f8f9fa; stroke: #ecf0f1; stroke-width: 0.5; stroke-linejoin: miter"/>
   </g>
   <g id="patch_15">
    <path d="M 403.2 141.12 
L 525.6 141.12 
L 525.6 172.8 
L 403.2 172.8 
z
" clip-path="url(#p22dc4f15b5)" style="fill: #f8f9fa; stroke: #ecf0f1; stroke-width: 0.5; stroke-linejoin: miter"/>
   </g>
   <g id="patch_16">
    <path d="M 525.6 141.12 
L 649.44 141.12 
L 649.44 172.8 
L 525.6 172.8 
z
" clip-path="url(#p22dc4f15b5)" style="fill: #f8f9fa; stroke: #ecf0f1; stroke-width: 0.5; stroke-linejoin: miter"/>
   </g>
   <g id="patch_17">
    <path d="M 316.8 172.8 
L 403.2 172.8 
L 403.2 204.48 
L 316.8 204.48 
z
" clip-path="url(#p22dc4f15b5)" style="fill: #ffffff; stroke: #ecf0f1; stroke-width: 0.5; stroke-linejoin: miter"/>
   </g>
   <g id="patch_18">
    <path d="M 403.2 172.8 
L 525.6 172.8 
L 525.6 204.48 
L 403.2 204.48 
z
" clip-path="url(#p22dc4f15b5)" style="fill: #ffffff; stroke: #ecf0f1; stroke-width: 0.5; stroke-linejoin: miter"/>
   </g>
   <g id="patch_19">
    <path d="M 525.6 172.8 
L 649.44 172.8 
L 649.44 204.48 
L 525.6 204.48 
z
" clip-path="url(#p22dc4f15b5)" style="fill: #ffffff; stroke: #ecf0f1; stroke-width: 0.5; stroke-linejoin: miter"/>
   </g>
   <g id="patch_20">
    <path d="M 31.68 290.88 
L 659.52 290.88 
L 659.52 322.56 
L 31.68 322.56 
z
" clip-path="url(#p22dc4f15b5)" style="fill: #fef9e7"/>
   </g>
   <g id="patch_21">
    <path d="M 31.68 290.88 
L 33.84 290.88 
L 33.84 322.56 
L 31.68 322.56 
z
" clip-path="url(#p22dc4f15b5)" style="fill: #e8a838"/>
   </g>
   <g id="text_1">
    <!-- Ch.4 機械学習モデル構築 -->
    <g style="fill: #ffffff" transform="translate(31.68 15.09625) scale(0.1 -0.1)">
     <defs>
      <path id="IPAexGothic-43" d="M 4353 1088 
Q 4181 694 3859 428 
Q 3313 -31 2559 -31 
Q 1588 -31 959 653 
Q 378 1294 378 2331 
Q 378 3406 1013 4078 
Q 1619 4725 2534 4725 
Q 3813 4725 4322 3628 
L 3809 3391 
Q 3425 4238 2541 4238 
Q 1891 4238 1453 3744 
Q 994 3216 994 2322 
Q 994 1550 1384 1056 
Q 1841 472 2563 472 
Q 3456 472 3878 1319 
L 4353 1088 
z
" transform="scale(0.015625)"/>
      <path id="IPAexGothic-68" d="M 3347 63 
L 2797 63 
L 2797 2041 
Q 2797 2853 2131 2853 
Q 1447 2853 1131 2041 
L 1131 63 
L 581 63 
L 581 4794 
L 1131 4794 
L 1131 2706 
Q 1566 3316 2247 3316 
Q 3347 3316 3347 2072 
L 3347 63 
z
" transform="scale(0.015625)"/>
      <path id="IPAexGothic-2e" d="M 1184 63 
L 494 63 
L 494 753 
L 1184 753 
L 1184 63 
z
" transform="scale(0.015625)"/>
      <path id="IPAexGothic-34" d="M 3813 1159 
L 3059 1159 
L 3059 63 
L 2547 63 
L 2547 1159 
L 197 1159 
L 197 1672 
L 2456 4678 
L 3059 4678 
L 3059 1634 
L 3813 1634 
L 3813 1159 
z
M 2578 4109 
L 2559 4109 
Q 2278 3656 2003 3284 
L 759 1634 
L 2547 1634 
L 2547 3144 
Q 2547 3481 2578 4109 
z
" transform="scale(0.015625)"/>
      <path id="IPAexGothic-20" transform="scale(0.015625)"/>
      <path id="IPAexGothic-6a5f" d="M 3916 2125 
Q 3806 2984 3806 4238 
L 3806 5313 
L 4216 5313 
L 4216 4300 
Q 4216 3081 4300 2278 
L 4313 2150 
L 5175 2150 
Q 4984 2350 4822 2469 
L 5144 2669 
Q 5325 2541 5547 2309 
L 5309 2150 
L 6006 2150 
L 6006 1797 
L 4363 1797 
Q 4450 1278 4688 869 
Q 4931 1150 5194 1631 
L 5553 1431 
Q 5284 953 4913 531 
Q 4941 491 4959 475 
Q 5278 78 5438 78 
Q 5581 78 5669 844 
L 6066 628 
Q 5881 -422 5559 -422 
Q 5163 -422 4631 244 
Q 4069 -275 3384 -519 
L 3116 -191 
Q 3881 88 4406 569 
Q 4072 1116 3966 1772 
L 3084 1772 
Q 3078 1747 3078 1675 
Q 3078 1650 3063 1431 
Q 3534 1153 3934 781 
L 3684 441 
Q 3328 816 3031 1056 
Q 2906 91 2238 -494 
L 1950 -172 
Q 2478 241 2603 891 
Q 2659 1197 2681 1772 
L 2116 1772 
L 2116 2125 
L 3916 2125 
z
M 1113 2534 
Q 813 1522 384 794 
L 153 1250 
Q 763 2228 1063 3547 
L 294 3547 
L 294 3956 
L 1113 3956 
L 1113 5306 
L 1522 5306 
L 1522 3956 
L 2138 3956 
L 2138 3547 
L 1522 3547 
L 1522 2881 
Q 1875 2588 2150 2228 
L 1888 1884 
Q 1753 2144 1522 2434 
L 1522 -447 
L 1113 -447 
L 1113 2534 
z
M 2750 3334 
Q 2441 3850 2131 4159 
L 2347 4469 
Q 2384 4425 2509 4275 
Q 2734 4703 2913 5228 
L 3263 5025 
Q 3028 4447 2719 3988 
Q 2766 3919 2838 3803 
Q 2913 3684 2938 3647 
Q 3175 4066 3347 4434 
L 3666 4244 
Q 3263 3431 2809 2841 
Q 3097 2872 3347 2900 
Q 3347 2913 3334 2950 
Q 3313 3063 3231 3303 
L 3519 3372 
Q 3716 2891 3781 2413 
L 3456 2297 
Q 3453 2316 3428 2484 
Q 3416 2575 3403 2631 
Q 2906 2506 2175 2438 
L 2072 2797 
Q 2109 2800 2194 2803 
Q 2263 2806 2297 2809 
Q 2369 2809 2413 2816 
L 2438 2853 
Q 2538 2994 2750 3334 
z
M 4875 3413 
Q 4559 3916 4263 4206 
L 4478 4506 
Q 4494 4488 4559 4406 
Q 4609 4350 4641 4306 
Q 4891 4769 5038 5216 
L 5394 5013 
Q 5147 4466 4838 4025 
Q 4963 3844 5050 3700 
Q 5241 4019 5466 4469 
L 5784 4256 
Q 5497 3725 4991 3009 
Q 5356 3031 5547 3053 
Q 5466 3281 5381 3450 
L 5681 3553 
Q 5872 3181 6022 2669 
L 5709 2503 
Q 5697 2550 5663 2678 
Q 5641 2759 5631 2797 
Q 5019 2669 4434 2619 
L 4338 2975 
Q 4513 2975 4594 2981 
Q 4778 3256 4875 3413 
z
" transform="scale(0.015625)"/>
      <path id="IPAexGothic-68b0" d="M 4678 1275 
Q 4447 2122 4334 3547 
L 2344 3547 
L 2344 3956 
L 4300 3956 
Q 4247 4656 4231 5306 
L 4659 5306 
Q 4669 4741 4719 3981 
L 6044 3981 
L 6044 3572 
L 4750 3572 
L 4781 3284 
Q 4875 2322 4988 1806 
Q 5303 2409 5497 3100 
L 5894 2938 
Q 5572 1963 5134 1231 
Q 5247 834 5397 547 
Q 5513 322 5556 322 
Q 5656 322 5759 1225 
L 6131 941 
Q 5959 -350 5638 -350 
Q 5475 -350 5222 9 
Q 5006 319 4831 781 
Q 4278 41 3438 -478 
L 3150 -134 
Q 4069 381 4678 1275 
z
M 2778 2344 
L 2778 3216 
L 3169 3216 
L 3169 2344 
L 3572 2344 
L 3572 3216 
L 3963 3216 
L 3963 2344 
L 4384 2344 
L 4384 1966 
L 3963 1966 
L 3963 647 
L 3572 647 
L 3572 1966 
L 3169 1966 
Q 3156 1372 3097 1044 
Q 2991 463 2603 0 
L 2297 309 
Q 2778 856 2778 1966 
L 2344 1966 
L 2125 1634 
Q 1813 2106 1622 2338 
L 1622 -447 
L 1200 -447 
L 1200 2594 
Q 928 1569 450 794 
L 188 1256 
Q 850 2238 1147 3547 
L 322 3547 
L 322 3956 
L 1200 3956 
L 1200 5306 
L 1622 5306 
L 1622 3956 
L 2222 3956 
L 2222 3547 
L 1622 3547 
L 1622 2831 
Q 2053 2453 2344 2063 
L 2344 2344 
L 2778 2344 
z
M 5491 4141 
Q 5256 4613 4953 4991 
L 5319 5172 
Q 5603 4850 5869 4359 
L 5491 4141 
z
" transform="scale(0.015625)"/>
      <path id="IPAexGothic-5b66" d="M 1706 4050 
L 1688 4088 
Q 1525 4513 1244 4959 
L 1681 5150 
Q 1947 4791 2200 4216 
L 1763 4050 
L 3941 4050 
Q 4359 4628 4653 5234 
L 5138 5016 
Q 4822 4488 4472 4050 
L 5797 4050 
L 5797 2675 
L 5338 2675 
L 5338 3653 
L 1072 3653 
L 1072 2675 
L 613 2675 
L 613 4050 
L 1706 4050 
z
M 3444 1888 
L 3444 1650 
L 6078 1650 
L 6078 1241 
L 3475 1241 
L 3475 91 
Q 3475 -428 2834 -428 
Q 2319 -428 1875 -366 
L 1784 128 
Q 2278 25 2744 25 
Q 2994 25 2994 263 
L 2994 1241 
L 319 1241 
L 319 1650 
L 2969 1650 
L 2969 2113 
L 3000 2125 
Q 3559 2338 4116 2675 
L 1466 2675 
L 1466 3078 
L 4756 3078 
L 5019 2822 
Q 4338 2309 3444 1888 
z
M 3019 4072 
Q 2831 4609 2572 5044 
L 3006 5228 
Q 3275 4822 3500 4250 
L 3019 4072 
z
" transform="scale(0.015625)"/>
      <path id="IPAexGothic-7fd2" d="M 3006 5063 
L 3006 3047 
Q 3006 2781 2878 2675 
Q 2769 2584 2481 2584 
Q 2078 2584 1772 2631 
L 1716 3072 
Q 2159 2988 2347 2988 
Q 2566 2988 2566 3219 
L 2566 4678 
L 466 4678 
L 466 5063 
L 3006 5063 
z
M 5778 5063 
L 5778 3041 
Q 5778 2584 5288 2584 
Q 4916 2584 4519 2631 
L 4441 3066 
Q 4856 2988 5131 2988 
Q 5338 2988 5338 3206 
L 5338 4678 
L 3238 4678 
L 3238 5063 
L 5778 5063 
z
M 2866 2119 
Q 2950 2356 3013 2669 
L 3500 2572 
Q 3409 2322 3306 2119 
L 5325 2119 
L 5325 -447 
L 4856 -447 
L 4856 -172 
L 1619 -172 
L 1619 -447 
L 1150 -447 
L 1150 2119 
L 2866 2119 
z
M 1619 1747 
L 1619 1197 
L 4856 1197 
L 4856 1747 
L 1619 1747 
z
M 1619 831 
L 1619 206 
L 4856 206 
L 4856 831 
L 1619 831 
z
M 1594 3681 
Q 1219 4044 778 4341 
L 1056 4609 
Q 1525 4325 1869 3981 
L 1594 3681 
z
M 4269 3694 
Q 3816 4066 3403 4341 
L 3684 4622 
Q 4203 4294 4556 3994 
L 4269 3694 
z
M 447 2950 
Q 1328 3347 2225 3969 
L 2353 3622 
Q 1581 3056 691 2606 
L 447 2950 
z
M 3231 3059 
Q 4138 3444 4978 4031 
L 5113 3675 
Q 4281 3066 3463 2700 
L 3231 3059 
z
" transform="scale(0.015625)"/>
      <path id="IPAexGothic-30e2" d="M 1216 4409 
L 5147 4409 
L 5147 3950 
L 3053 3950 
L 3053 2797 
L 5644 2797 
L 5644 2328 
L 3053 2328 
L 3053 972 
Q 3053 669 3272 600 
Q 3453 544 4013 544 
Q 4556 544 5269 600 
L 5269 97 
Q 4684 50 4147 50 
Q 3025 50 2753 250 
Q 2541 403 2541 825 
L 2541 2328 
L 744 2328 
L 744 2797 
L 2541 2797 
L 2541 3950 
L 1216 3950 
L 1216 4409 
z
" transform="scale(0.015625)"/>
      <path id="IPAexGothic-30c7" d="M 563 3072 
L 5741 3072 
L 5741 2613 
L 3578 2613 
Q 3538 1516 3134 872 
Q 2688 156 1663 -256 
L 1313 156 
Q 2338 538 2713 1166 
Q 3003 1644 3034 2613 
L 563 2613 
L 563 3072 
z
M 1406 4588 
L 4588 4588 
L 4588 4128 
L 1406 4128 
L 1406 4588 
z
M 6009 4469 
Q 5647 5009 5253 5338 
L 5553 5569 
Q 5938 5259 6328 4744 
L 6009 4469 
z
M 5413 4000 
Q 5125 4491 4678 4891 
L 4991 5131 
Q 5363 4825 5747 4275 
L 5413 4000 
z
" transform="scale(0.015625)"/>
      <path id="IPAexGothic-30eb" d="M 353 331 
Q 1313 994 1544 2022 
Q 1684 2650 1684 4397 
L 2203 4397 
L 2203 4153 
L 2203 4116 
Q 2203 2259 1934 1491 
Q 1619 588 744 -38 
L 353 331 
z
M 3125 4666 
L 3650 4666 
L 3650 769 
Q 4875 1488 5672 2734 
L 6000 2278 
Q 5075 966 3516 63 
L 3125 359 
L 3125 4666 
z
" transform="scale(0.015625)"/>
      <path id="IPAexGothic-69cb" d="M 1206 2594 
Q 925 1575 456 788 
L 194 1250 
Q 856 2238 1153 3547 
L 328 3547 
L 328 3956 
L 1206 3956 
L 1206 5306 
L 1628 5306 
L 1628 3956 
L 2306 3956 
L 2306 3547 
L 1628 3547 
L 1628 2906 
Q 2213 2391 2447 2106 
L 2191 1647 
Q 1931 2031 1628 2406 
L 1628 -447 
L 1206 -447 
L 1206 2594 
z
M 5006 3194 
L 6100 3194 
L 6100 2841 
L 4328 2841 
L 4328 2509 
L 5647 2509 
L 5647 1025 
L 6131 1025 
L 6131 672 
L 5647 672 
L 5647 78 
Q 5647 -191 5525 -294 
Q 5413 -397 5106 -397 
Q 4716 -397 4409 -353 
L 4347 84 
Q 4759 13 5069 13 
Q 5228 13 5228 197 
L 5228 672 
L 3047 672 
L 3047 -447 
L 2631 -447 
L 2631 672 
L 1978 672 
L 1978 1025 
L 2631 1025 
L 2631 2509 
L 3913 2509 
L 3913 2841 
L 2175 2841 
L 2175 3194 
L 3222 3194 
L 3222 3631 
L 2522 3631 
L 2522 3956 
L 3222 3956 
L 3222 4369 
L 2291 4369 
L 2291 4709 
L 3222 4709 
L 3222 5313 
L 3644 5313 
L 3644 4709 
L 4591 4709 
L 4591 5313 
L 5006 5313 
L 5006 4709 
L 5953 4709 
L 5953 4369 
L 5006 4369 
L 5006 3956 
L 5759 3956 
L 5759 3631 
L 5006 3631 
L 5006 3194 
z
M 4591 3194 
L 4591 3631 
L 3644 3631 
L 3644 3194 
L 4591 3194 
z
M 4591 4369 
L 3644 4369 
L 3644 3956 
L 4591 3956 
L 4591 4369 
z
M 3047 2169 
L 3047 1759 
L 3925 1759 
L 3925 2169 
L 3047 2169 
z
M 3047 1434 
L 3047 1025 
L 3925 1025 
L 3925 1434 
L 3047 1434 
z
M 4316 2169 
L 4316 1759 
L 5228 1759 
L 5228 2169 
L 4316 2169 
z
M 4316 1434 
L 4316 1025 
L 5228 1025 
L 5228 1434 
L 4316 1434 
z
" transform="scale(0.015625)"/>
      <path id="IPAexGothic-7bc9" d="M 3397 1075 
L 3397 -447 
L 2956 -447 
L 2956 1031 
Q 2113 150 575 -319 
L 306 53 
Q 1706 406 2584 1159 
L 319 1159 
L 319 1544 
L 2956 1544 
L 2956 1922 
L 3397 1922 
L 3397 1544 
L 6078 1544 
L 6078 1159 
L 3859 1159 
Q 4634 591 6078 153 
L 5803 -238 
Q 4281 259 3397 1075 
z
M 1491 4878 
L 3175 4878 
L 3175 4506 
L 2163 4506 
L 2194 4450 
Q 2309 4231 2438 3919 
L 2034 3750 
Q 1866 4238 1709 4506 
L 1306 4506 
Q 1303 4503 1259 4428 
Q 997 3950 575 3597 
L 269 3872 
Q 900 4447 1203 5325 
L 1638 5244 
Q 1519 4938 1491 4878 
z
M 3944 4878 
L 6003 4878 
L 6003 4506 
L 4634 4506 
Q 4788 4300 4966 3950 
L 4563 3784 
Q 4350 4234 4159 4506 
L 3763 4506 
Q 3503 4047 3169 3719 
L 2853 4000 
Q 3369 4488 3659 5331 
L 4078 5250 
Q 4003 5009 3944 4878 
z
M 1931 3159 
L 1931 2550 
Q 2200 2622 2884 2813 
L 2909 2488 
Q 1816 2075 619 1841 
L 434 2238 
Q 947 2322 1431 2438 
L 1516 2456 
L 1516 3159 
L 556 3159 
L 556 3525 
L 2909 3525 
L 2909 3159 
L 1931 3159 
z
M 5094 3628 
L 5094 2475 
Q 5094 2316 5344 2316 
Q 5603 2316 5631 2450 
Q 5650 2534 5656 2872 
L 5663 2956 
L 6059 2834 
Q 6059 2709 6041 2525 
Q 6041 2509 6034 2447 
Q 6031 2413 6028 2397 
Q 6019 2150 5881 2022 
Q 5769 1919 5319 1919 
Q 4997 1919 4863 1969 
Q 4697 2038 4697 2269 
L 4697 3269 
L 3622 3269 
L 3622 3103 
Q 3622 2488 3300 2169 
Q 3125 1994 2784 1834 
L 2488 2128 
Q 2859 2294 3000 2438 
Q 3225 2659 3225 3091 
L 3225 3628 
L 5094 3628 
z
M 4359 2169 
Q 3953 2584 3666 2797 
L 3909 3072 
Q 4256 2822 4622 2478 
L 4359 2169 
z
" transform="scale(0.015625)"/>
     </defs>
     <use xlink:href="#IPAexGothic-43"/>
     <use xlink:href="#IPAexGothic-68" x="72.509766"/>
     <use xlink:href="#IPAexGothic-2e" x="133.203125"/>
     <use xlink:href="#IPAexGothic-34" x="159.619141"/>
     <use xlink:href="#IPAexGothic-20" x="222.607422"/>
     <use xlink:href="#IPAexGothic-6a5f" x="249.609375"/>
     <use xlink:href="#IPAexGothic-68b0" x="349.609375"/>
     <use xlink:href="#IPAexGothic-5b66" x="449.609375"/>
     <use xlink:href="#IPAexGothic-7fd2" x="549.609375"/>
     <use xlink:href="#IPAexGothic-30e2" x="649.609375"/>
     <use xlink:href="#IPAexGothic-30c7" x="749.609375"/>
     <use xlink:href="#IPAexGothic-30eb" x="849.609375"/>
     <use xlink:href="#IPAexGothic-69cb" x="949.609375"/>
     <use xlink:href="#IPAexGothic-7bc9" x="1049.609375"/>
    </g>
   </g>
   <g id="text_2">
    <!-- 混同行列（Confusion Matrix）の読み方 -->
    <g style="fill: #1a1a2e" transform="translate(31.68 55.4175) scale(0.24 -0.24)">
     <defs>
      <path id="IPAexGothic-6df7" d="M 2272 206 
L 2272 2425 
L 2713 2425 
L 2713 1722 
L 3844 1722 
L 3844 1338 
L 2713 1338 
L 2713 300 
Q 3363 447 3825 581 
L 3844 197 
Q 2866 -144 1803 -353 
L 1638 84 
Q 2041 153 2272 206 
z
M 5441 4984 
L 5441 2663 
L 2209 2663 
L 2209 4984 
L 5441 4984 
z
M 2656 4606 
L 2656 4019 
L 4994 4019 
L 4994 4606 
L 2656 4606 
z
M 2656 3659 
L 2656 3041 
L 4994 3041 
L 4994 3659 
L 2656 3659 
z
M 4506 1600 
Q 5128 1806 5575 2106 
L 5906 1759 
Q 5325 1438 4506 1209 
L 4506 391 
Q 4506 219 4628 172 
Q 4734 134 5013 134 
Q 5463 134 5531 263 
Q 5609 431 5619 1038 
L 6069 884 
Q 6019 63 5900 -97 
Q 5756 -281 4994 -281 
Q 4444 -281 4288 -216 
Q 4072 -131 4072 191 
L 4072 2425 
L 4506 2425 
L 4506 1600 
z
M 1500 3866 
Q 1131 4303 591 4722 
L 897 5063 
Q 1359 4759 1813 4250 
L 1500 3866 
z
M 1403 2394 
Q 966 2906 463 3250 
L 769 3603 
Q 1334 3209 1728 2759 
L 1403 2394 
z
M 341 6 
Q 956 800 1441 1919 
L 1781 1563 
Q 1269 391 725 -391 
L 341 6 
z
" transform="scale(0.015625)"/>
      <path id="IPAexGothic-540c" d="M 4409 2847 
L 4409 1038 
L 2378 1038 
L 2378 578 
L 1938 578 
L 1938 2847 
L 4409 2847 
z
M 3969 2463 
L 2378 2463 
L 2378 1422 
L 3969 1422 
L 3969 2463 
z
M 5675 4922 
L 5675 194 
Q 5675 -81 5547 -209 
Q 5416 -331 5003 -331 
Q 4509 -331 3984 -294 
L 3875 213 
Q 4506 138 4956 138 
Q 5194 138 5194 359 
L 5194 4506 
L 1197 4506 
L 1197 -447 
L 716 -447 
L 716 4922 
L 5675 4922 
z
M 1588 3841 
L 4806 3841 
L 4806 3438 
L 1588 3438 
L 1588 3841 
z
" transform="scale(0.015625)"/>
      <path id="IPAexGothic-884c" d="M 1822 2753 
L 1822 -447 
L 1353 -447 
L 1353 2169 
Q 966 1744 622 1466 
L 316 1791 
Q 1294 2559 1969 3822 
L 2397 3634 
Q 2109 3138 1822 2753 
z
M 4975 2803 
L 4975 103 
Q 4975 -391 4369 -391 
Q 3925 -391 3356 -341 
L 3288 159 
Q 3775 78 4259 78 
Q 4516 78 4516 319 
L 4516 2803 
L 2384 2803 
L 2384 3225 
L 6013 3225 
L 6013 2803 
L 4975 2803 
z
M 384 3691 
Q 1231 4256 1756 5075 
L 2144 4850 
Q 1541 3947 666 3347 
L 384 3691 
z
M 2709 4794 
L 5659 4794 
L 5659 4378 
L 2709 4378 
L 2709 4794 
z
" transform="scale(0.015625)"/>
      <path id="IPAexGothic-5217" d="M 2334 1600 
Q 1944 1966 1306 2378 
Q 1038 1938 709 1541 
L 434 1906 
Q 1325 2934 1663 4550 
L 606 4550 
L 606 4953 
L 3781 4953 
L 3781 4550 
L 2097 4550 
Q 2091 4531 2078 4466 
Q 2000 4100 1900 3781 
L 3141 3781 
L 3409 3575 
Q 3156 2138 2656 1247 
Q 2097 269 1003 -500 
L 684 -128 
Q 1769 563 2334 1600 
z
M 2534 2009 
Q 2794 2656 2919 3384 
L 1766 3384 
Q 1638 3034 1478 2706 
Q 2181 2294 2534 2009 
z
M 3956 4416 
L 4409 4416 
L 4409 966 
L 3956 966 
L 3956 4416 
z
M 5306 5056 
L 5759 5056 
L 5759 197 
Q 5759 -138 5569 -263 
Q 5419 -353 5094 -353 
Q 4547 -353 3963 -294 
L 3878 191 
Q 4600 116 5038 116 
Q 5306 116 5306 359 
L 5306 5056 
z
" transform="scale(0.015625)"/>
      <path id="IPAexGothic-ff08" d="M 5419 -434 
Q 4197 769 4197 2438 
Q 4197 4097 5419 5300 
L 5919 5300 
Q 4678 4078 4678 2425 
Q 4678 788 5919 -434 
L 5419 -434 
z
" transform="scale(0.015625)"/>
      <path id="IPAexGothic-6f" d="M 1919 3341 
Q 2594 3341 3056 2888 
Q 3531 2413 3531 1638 
Q 3531 888 3066 422 
Q 2609 -31 1919 -31 
Q 1228 -31 781 416 
Q 313 881 313 1656 
Q 313 2413 788 2888 
Q 1241 3341 1919 3341 
z
M 1919 2919 
Q 1519 2919 1241 2631 
Q 888 2278 888 1650 
Q 888 1031 1234 684 
Q 1516 403 1919 403 
Q 2331 403 2609 691 
Q 2956 1038 2956 1672 
Q 2956 2269 2603 2631 
Q 2316 2919 1919 2919 
z
" transform="scale(0.015625)"/>
      <path id="IPAexGothic-6e" d="M 3328 63 
L 2778 63 
L 2778 2041 
Q 2778 2853 2106 2853 
Q 1428 2853 1113 2041 
L 1113 63 
L 563 63 
L 563 3250 
L 1075 3250 
L 1075 2675 
Q 1525 3316 2222 3316 
Q 3328 3316 3328 2072 
L 3328 63 
z
" transform="scale(0.015625)"/>
      <path id="IPAexGothic-66" d="M 2456 4622 
L 2228 4244 
Q 1991 4422 1741 4422 
Q 1184 4422 1184 3672 
L 1184 3250 
L 2053 3250 
L 2053 2859 
L 1184 2859 
L 1184 63 
L 641 63 
L 641 2859 
L 122 2859 
L 122 3250 
L 641 3250 
L 641 3659 
Q 641 4188 891 4484 
Q 1200 4844 1709 4844 
Q 2116 4844 2456 4622 
z
" transform="scale(0.015625)"/>
      <path id="IPAexGothic-75" d="M 3284 63 
L 2772 63 
L 2772 644 
Q 2300 0 1625 0 
Q 1072 0 763 375 
Q 519 678 519 1241 
L 519 3250 
L 1069 3250 
L 1069 1259 
Q 1069 466 1734 466 
Q 2406 466 2734 1291 
L 2734 3250 
L 3284 3250 
L 3284 63 
z
" transform="scale(0.015625)"/>
      <path id="IPAexGothic-73" d="M 2234 2547 
Q 1938 2931 1484 2931 
Q 891 2931 891 2475 
Q 891 2153 1531 1944 
L 1741 1875 
Q 2650 1578 2650 894 
Q 2650 434 2272 172 
Q 1972 -31 1497 -31 
Q 766 -31 256 503 
L 603 819 
Q 997 397 1516 397 
Q 2131 397 2131 875 
Q 2131 1238 1453 1478 
L 1234 1553 
Q 378 1853 378 2431 
Q 378 2797 628 3047 
Q 928 3347 1453 3347 
Q 2156 3347 2606 2859 
L 2234 2547 
z
" transform="scale(0.015625)"/>
      <path id="IPAexGothic-69" d="M 1178 3928 
L 550 3928 
L 550 4569 
L 1178 4569 
L 1178 3928 
z
M 1138 63 
L 588 63 
L 588 3250 
L 1138 3250 
L 1138 63 
z
" transform="scale(0.015625)"/>
      <path id="IPAexGothic-4d" d="M 5147 63 
L 4597 63 
L 4597 2534 
Q 4597 3281 4634 4134 
L 4609 4134 
Q 4356 3409 4066 2675 
L 3066 209 
L 2650 209 
L 1641 2725 
Q 1328 3506 1128 4141 
L 1103 4141 
Q 1141 3131 1141 2553 
L 1141 63 
L 609 63 
L 609 4634 
L 1416 4634 
L 2503 1944 
Q 2697 1472 2869 906 
L 2888 906 
Q 3028 1416 3234 1931 
L 4316 4634 
L 5147 4634 
L 5147 63 
z
" transform="scale(0.015625)"/>
      <path id="IPAexGothic-61" d="M 3156 63 
L 2672 63 
Q 2559 303 2531 556 
L 2509 556 
Q 2147 -25 1428 -25 
Q 934 -25 622 288 
Q 347 563 347 959 
Q 347 1947 2050 1997 
L 2478 2009 
L 2478 2175 
Q 2478 2509 2288 2700 
Q 2088 2900 1775 2900 
Q 1238 2900 969 2378 
L 494 2597 
Q 938 3328 1788 3328 
Q 2375 3328 2691 3000 
Q 2984 2706 2984 2169 
L 2984 997 
Q 2984 400 3156 63 
z
M 2491 1625 
L 2141 1619 
Q 903 1591 903 953 
Q 903 728 1050 581 
Q 1231 403 1525 403 
Q 1934 403 2234 703 
Q 2491 969 2491 1344 
L 2491 1625 
z
" transform="scale(0.015625)"/>
      <path id="IPAexGothic-74" d="M 2125 241 
Q 1769 -6 1397 -6 
Q 653 -6 653 831 
L 653 2859 
L 219 2859 
L 219 3250 
L 653 3250 
L 653 3966 
L 1178 4228 
L 1178 3250 
L 2063 3250 
L 2063 2859 
L 1178 2859 
L 1178 906 
Q 1178 416 1513 416 
Q 1738 416 1941 588 
L 2125 241 
z
" transform="scale(0.015625)"/>
      <path id="IPAexGothic-72" d="M 2309 3316 
L 2213 2769 
Q 2106 2791 2022 2791 
Q 1653 2791 1413 2444 
Q 1113 2006 1113 1675 
L 1113 63 
L 563 63 
L 563 3250 
L 1081 3250 
L 1056 2303 
L 1069 2303 
Q 1422 3341 2097 3341 
Q 2206 3341 2309 3316 
z
" transform="scale(0.015625)"/>
      <path id="IPAexGothic-78" d="M 3050 63 
L 2419 63 
L 1547 1338 
L 691 63 
L 56 63 
L 1247 1675 
L 106 3250 
L 747 3250 
L 1578 2016 
L 2413 3250 
L 3019 3250 
L 1875 1681 
L 3050 63 
z
" transform="scale(0.015625)"/>
      <path id="IPAexGothic-ff09" d="M 481 -434 
Q 1722 788 1722 2431 
Q 1722 4066 481 5300 
L 981 5300 
Q 2203 4097 2203 2431 
Q 2203 769 981 -434 
L 481 -434 
z
" transform="scale(0.015625)"/>
      <path id="IPAexGothic-306e" d="M 3119 469 
Q 5275 766 5275 2425 
Q 5275 3453 4413 3925 
Q 4041 4116 3547 4159 
Q 3394 2525 2850 1400 
Q 2322 306 1722 306 
Q 1384 306 1084 666 
Q 609 1244 609 2003 
Q 609 3025 1397 3794 
Q 2184 4563 3431 4563 
Q 4306 4563 4928 4122 
Q 5813 3506 5813 2425 
Q 5813 438 3431 6 
L 3119 469 
z
M 3053 4147 
Q 2378 4044 1891 3641 
Q 1097 2981 1097 1991 
Q 1097 1366 1434 978 
Q 1581 813 1719 813 
Q 2022 813 2416 1625 
Q 2909 2638 3053 4147 
z
" transform="scale(0.015625)"/>
      <path id="IPAexGothic-8aad" d="M 2284 1684 
L 2284 -128 
L 919 -128 
L 919 -447 
L 509 -447 
L 509 1684 
L 2284 1684 
z
M 919 1313 
L 919 244 
L 1875 244 
L 1875 1313 
L 919 1313 
z
M 3953 4538 
L 3953 5313 
L 4394 5313 
L 4394 4538 
L 5994 4538 
L 5994 4153 
L 4394 4153 
L 4394 3572 
L 5822 3572 
L 5822 3194 
L 2653 3194 
L 2653 3572 
L 3953 3572 
L 3953 4153 
L 2506 4153 
L 2506 4538 
L 3953 4538 
z
M 5950 2725 
L 5950 1559 
L 5522 1559 
L 5522 2341 
L 2928 2341 
L 2928 1516 
L 2500 1516 
L 2500 2725 
L 5950 2725 
z
M 600 5044 
L 2194 5044 
L 2194 4659 
L 600 4659 
L 600 5044 
z
M 331 4206 
L 2384 4206 
L 2384 3816 
L 331 3816 
L 331 4206 
z
M 600 3359 
L 2194 3359 
L 2194 2975 
L 600 2975 
L 600 3359 
z
M 600 2522 
L 2194 2522 
L 2194 2138 
L 600 2138 
L 600 2522 
z
M 2353 -91 
Q 3025 194 3244 647 
Q 3431 1044 3441 2069 
L 3872 2069 
Q 3859 869 3634 441 
Q 3334 -109 2616 -475 
L 2353 -91 
z
M 4428 2069 
L 4856 2069 
L 4856 275 
Q 4856 128 4934 88 
Q 4994 63 5175 63 
Q 5500 63 5547 263 
Q 5584 425 5606 984 
L 6034 856 
Q 5994 153 5931 -38 
Q 5825 -372 5144 -372 
Q 4688 -372 4544 -275 
Q 4428 -191 4428 44 
L 4428 2069 
z
" transform="scale(0.015625)"/>
      <path id="IPAexGothic-307f" d="M 1291 4416 
Q 2209 4456 3341 4647 
L 3666 4409 
Q 3478 3597 3134 2703 
Q 3959 2575 4581 2300 
Q 4669 2759 4678 3488 
L 5163 3381 
Q 5134 2672 5016 2106 
Q 5519 1856 6016 1519 
L 5722 1081 
Q 5184 1459 4888 1613 
Q 4572 441 3456 -238 
L 3072 109 
Q 4150 678 4472 1831 
Q 3706 2200 2969 2284 
Q 2038 200 1319 200 
Q 1013 200 775 525 
Q 569 819 569 1197 
Q 569 1756 1081 2172 
Q 1681 2647 2663 2716 
Q 2900 3313 3084 4159 
Q 2278 4022 1447 3956 
L 1291 4416 
z
M 2481 2291 
Q 1644 2206 1241 1734 
Q 1038 1494 1038 1178 
Q 1038 1019 1100 897 
Q 1188 706 1338 706 
Q 1513 706 1797 1097 
Q 2131 1534 2481 2291 
z
" transform="scale(0.015625)"/>
      <path id="IPAexGothic-65b9" d="M 2931 3750 
L 2925 3616 
Q 2916 3203 2872 2778 
L 5244 2778 
Q 5175 781 5000 156 
Q 4913 -144 4691 -247 
Q 4528 -325 4194 -325 
Q 3759 -325 3256 -263 
L 3144 269 
Q 3700 156 4141 156 
Q 4491 156 4556 463 
Q 4725 1197 4744 2350 
L 2822 2350 
Q 2822 2313 2816 2288 
Q 2538 428 916 -484 
L 563 -94 
Q 1859 491 2247 1869 
Q 2422 2488 2450 3750 
L 409 3750 
L 409 4178 
L 2931 4178 
L 2931 5175 
L 3431 5175 
L 3431 4178 
L 5984 4178 
L 5984 3750 
L 2931 3750 
z
" transform="scale(0.015625)"/>
     </defs>
     <use xlink:href="#IPAexGothic-6df7"/>
     <use xlink:href="#IPAexGothic-540c" x="100"/>
     <use xlink:href="#IPAexGothic-884c" x="200"/>
     <use xlink:href="#IPAexGothic-5217" x="300"/>
     <use xlink:href="#IPAexGothic-ff08" x="400"/>
     <use xlink:href="#IPAexGothic-43" x="500"/>
     <use xlink:href="#IPAexGothic-6f" x="572.509766"/>
     <use xlink:href="#IPAexGothic-6e" x="632.910156"/>
     <use xlink:href="#IPAexGothic-66" x="693.310547"/>
     <use xlink:href="#IPAexGothic-75" x="723.925781"/>
     <use xlink:href="#IPAexGothic-73" x="784.326172"/>
     <use xlink:href="#IPAexGothic-69" x="830.517578"/>
     <use xlink:href="#IPAexGothic-6f" x="857.519531"/>
     <use xlink:href="#IPAexGothic-6e" x="917.919922"/>
     <use xlink:href="#IPAexGothic-20" x="978.320312"/>
     <use xlink:href="#IPAexGothic-4d" x="1005.322266"/>
     <use xlink:href="#IPAexGothic-61" x="1095.507812"/>
     <use xlink:href="#IPAexGothic-74" x="1150.488281"/>
     <use xlink:href="#IPAexGothic-72" x="1185.107422"/>
     <use xlink:href="#IPAexGothic-69" x="1222.119141"/>
     <use xlink:href="#IPAexGothic-78" x="1249.121094"/>
     <use xlink:href="#IPAexGothic-ff09" x="1297.998047"/>
     <use xlink:href="#IPAexGothic-306e" x="1397.998047"/>
     <use xlink:href="#IPAexGothic-8aad" x="1497.998047"/>
     <use xlink:href="#IPAexGothic-307f" x="1597.998047"/>
     <use xlink:href="#IPAexGothic-65b9" x="1697.998047"/>
    </g>
   </g>
   <g id="text_3">
    <!-- 予測: 陽性 -->
    <g style="fill: #555555" transform="translate(80.595859 68.719687) scale(0.11 -0.11)">
     <defs>
      <path id="IPAexGothic-4e88" d="M 3541 3491 
Q 3644 3419 3816 3300 
Q 3944 3213 3997 3175 
L 3663 2894 
L 5603 2894 
L 5872 2625 
Q 5181 1709 4463 1069 
L 4066 1378 
Q 4722 1878 5153 2466 
L 3509 2466 
L 3509 147 
Q 3509 -150 3388 -263 
Q 3266 -384 2822 -384 
Q 2341 -384 1863 -331 
L 1766 172 
Q 2416 84 2766 84 
Q 3022 84 3022 334 
L 3022 2466 
L 513 2466 
L 513 2894 
L 3553 2894 
Q 2809 3488 1947 3963 
L 2247 4291 
Q 2741 4009 3181 3725 
Q 3941 4191 4400 4591 
L 1159 4591 
L 1159 5006 
L 4975 5006 
L 5250 4725 
Q 4428 4044 3541 3491 
z
" transform="scale(0.015625)"/>
      <path id="IPAexGothic-6e2c" d="M 3856 4884 
L 3856 1081 
L 2059 1081 
L 2059 4884 
L 3856 4884 
z
M 2456 4494 
L 2456 3756 
L 3459 3756 
L 3459 4494 
L 2456 4494 
z
M 2456 3384 
L 2456 2656 
L 3459 2656 
L 3459 3384 
L 2456 3384 
z
M 2456 2284 
L 2456 1478 
L 3459 1478 
L 3459 2284 
L 2456 2284 
z
M 1413 3891 
Q 1000 4428 556 4763 
L 856 5100 
Q 1309 4753 1734 4269 
L 1413 3891 
z
M 1222 2394 
Q 816 2878 325 3256 
L 625 3591 
Q 1141 3231 1528 2778 
L 1222 2394 
z
M 375 -78 
Q 916 800 1297 1906 
L 1669 1619 
Q 1284 478 759 -428 
L 375 -78 
z
M 3819 -256 
Q 3478 319 3128 716 
L 3469 966 
Q 3834 581 4172 63 
L 3819 -256 
z
M 4378 4513 
L 4806 4513 
L 4806 959 
L 4378 959 
L 4378 4513 
z
M 1638 -109 
Q 2103 300 2450 984 
L 2828 763 
Q 2425 -6 1944 -488 
L 1638 -109 
z
M 5419 5081 
L 5853 5081 
L 5853 109 
Q 5853 -391 5297 -391 
Q 4919 -391 4541 -359 
L 4441 109 
Q 4928 50 5219 50 
Q 5419 50 5419 244 
L 5419 5081 
z
" transform="scale(0.015625)"/>
      <path id="IPAexGothic-3a" d="M 1369 2559 
L 672 2559 
L 672 3250 
L 1369 3250 
L 1369 2559 
z
M 1369 63 
L 672 63 
L 672 753 
L 1369 753 
L 1369 63 
z
" transform="scale(0.015625)"/>
      <path id="IPAexGothic-967d" d="M 5000 1581 
Q 4644 241 3566 -494 
L 3206 -197 
Q 4256 428 4572 1581 
L 4091 1581 
Q 3678 500 2675 -128 
L 2325 166 
Q 3288 716 3663 1581 
L 3181 1581 
Q 2775 969 2209 556 
L 1875 859 
Q 2753 1416 3125 2341 
L 2234 2341 
L 2234 2713 
L 6075 2713 
L 6075 2341 
L 3572 2341 
Q 3491 2116 3394 1941 
L 5863 1941 
Q 5806 406 5641 -75 
Q 5513 -453 5000 -453 
Q 4738 -453 4419 -422 
L 4322 38 
Q 4669 -25 4922 -25 
Q 5194 -25 5263 225 
Q 5353 575 5409 1466 
Q 5409 1550 5416 1581 
L 5000 1581 
z
M 1594 3200 
Q 2197 2591 2197 1741 
Q 2197 1450 2134 1294 
Q 2019 1019 1606 1019 
Q 1378 1019 1134 1050 
L 1056 1506 
Q 1288 1441 1531 1441 
Q 1775 1441 1775 1831 
Q 1775 2656 1128 3175 
L 1153 3228 
Q 1500 3831 1678 4609 
L 897 4609 
L 897 -447 
L 481 -447 
L 481 5013 
L 1984 5013 
L 2203 4822 
Q 1950 3922 1594 3200 
z
M 5428 5031 
L 5428 3066 
L 2778 3066 
L 2778 5031 
L 5428 5031 
z
M 3194 4666 
L 3194 4238 
L 5013 4238 
L 5013 4666 
L 3194 4666 
z
M 3194 3891 
L 3194 3425 
L 5013 3425 
L 5013 3891 
L 3194 3891 
z
" transform="scale(0.015625)"/>
      <path id="IPAexGothic-6027" d="M 3106 3788 
L 3900 3788 
L 3900 5216 
L 4353 5216 
L 4353 3788 
L 5884 3788 
L 5884 3372 
L 4353 3372 
L 4353 2069 
L 5756 2069 
L 5756 1653 
L 4353 1653 
L 4353 153 
L 6081 153 
L 6081 -269 
L 2231 -269 
L 2231 153 
L 3900 153 
L 3900 1653 
L 2606 1653 
L 2606 2069 
L 3900 2069 
L 3900 3372 
L 2984 3372 
Q 2806 2803 2544 2325 
L 2147 2613 
Q 2638 3428 2875 4875 
L 3313 4778 
Q 3234 4309 3106 3788 
z
M 269 2188 
Q 459 2891 525 3950 
L 934 3884 
Q 884 2694 672 1931 
L 269 2188 
z
M 1997 3047 
Q 1872 3591 1650 4078 
L 1984 4256 
Q 2216 3844 2394 3291 
L 1997 3047 
z
M 1159 5313 
L 1613 5313 
L 1613 -447 
L 1159 -447 
L 1159 5313 
z
" transform="scale(0.015625)"/>
     </defs>
     <use xlink:href="#IPAexGothic-4e88"/>
     <use xlink:href="#IPAexGothic-6e2c" x="100"/>
     <use xlink:href="#IPAexGothic-3a" x="200"/>
     <use xlink:href="#IPAexGothic-20" x="231.982422"/>
     <use xlink:href="#IPAexGothic-967d" x="258.984375"/>
     <use xlink:href="#IPAexGothic-6027" x="358.984375"/>
    </g>
   </g>
   <g id="text_4">
    <!-- 予測: 陰性 -->
    <g style="fill: #555555" transform="translate(206.595859 68.719687) scale(0.11 -0.11)">
     <defs>
      <path id="IPAexGothic-9670" d="M 1588 3072 
Q 2138 2328 2138 1444 
Q 2138 1113 2066 931 
Q 1959 650 1563 650 
Q 1338 650 1075 691 
L 1000 1144 
Q 1228 1078 1472 1078 
Q 1716 1078 1716 1475 
Q 1716 2306 1147 3038 
Q 1531 3859 1684 4588 
L 909 4588 
L 909 -450 
L 488 -450 
L 488 4991 
L 1984 4991 
L 2209 4800 
Q 1925 3819 1588 3072 
z
M 5000 3931 
L 5000 3616 
L 3078 3616 
L 3078 3884 
Q 2675 3528 2222 3269 
L 1953 3609 
Q 3088 4188 3713 5313 
L 4175 5313 
Q 5003 4272 6119 3763 
L 5875 3384 
Q 5453 3597 5000 3931 
z
M 3181 3981 
L 4928 3981 
Q 4366 4416 3963 4922 
Q 3641 4409 3181 3981 
z
M 4800 2194 
L 5666 2194 
L 5666 1834 
L 2556 1834 
L 2556 2194 
L 4328 2194 
Q 4525 2453 4756 2847 
L 2722 2847 
L 2722 3206 
L 5081 3206 
L 5319 3013 
Q 5053 2525 4800 2194 
z
M 3816 991 
Q 3600 525 3303 88 
Q 4019 106 4941 184 
L 5050 191 
Q 4794 478 4559 716 
L 4922 906 
Q 5588 303 5984 -225 
L 5634 -531 
Q 5588 -472 5453 -294 
Q 5369 -178 5319 -116 
L 5216 -128 
Q 3906 -316 2228 -391 
L 2094 50 
Q 2181 53 2394 56 
Q 2541 59 2619 63 
L 2850 69 
Q 3116 500 3334 991 
L 2259 991 
L 2259 1363 
L 6044 1363 
L 6044 991 
L 3816 991 
z
" transform="scale(0.015625)"/>
     </defs>
     <use xlink:href="#IPAexGothic-4e88"/>
     <use xlink:href="#IPAexGothic-6e2c" x="100"/>
     <use xlink:href="#IPAexGothic-3a" x="200"/>
     <use xlink:href="#IPAexGothic-20" x="231.982422"/>
     <use xlink:href="#IPAexGothic-9670" x="258.984375"/>
     <use xlink:href="#IPAexGothic-6027" x="358.984375"/>
    </g>
   </g>
   <g id="text_5">
    <!-- 実際 -->
    <g style="fill: #555555" transform="translate(19.24 119.486031) scale(0.11 -0.11)">
     <defs>
      <path id="IPAexGothic-5b9f" d="M 3525 1275 
Q 4288 350 6022 91 
L 5738 -375 
Q 3953 -41 3219 1050 
Q 2731 -144 728 -472 
L 466 -44 
Q 2422 150 2872 1275 
L 384 1275 
L 384 1659 
L 2950 1659 
L 2950 2144 
L 966 2144 
L 966 2509 
L 2950 2509 
L 2950 2969 
L 1266 2969 
L 1266 3341 
L 2950 3341 
L 2950 3988 
L 3403 3988 
L 3403 3341 
L 5125 3341 
L 5125 2969 
L 3403 2969 
L 3403 2509 
L 5444 2509 
L 5444 2144 
L 3403 2144 
L 3403 1659 
L 6016 1659 
L 6016 1275 
L 3525 1275 
z
M 3413 4544 
L 5778 4544 
L 5778 3269 
L 5309 3269 
L 5309 4147 
L 1084 4147 
L 1084 3269 
L 616 3269 
L 616 4544 
L 2938 4544 
L 2938 5313 
L 3413 5313 
L 3413 4544 
z
" transform="scale(0.015625)"/>
      <path id="IPAexGothic-969b" d="M 2797 3134 
Q 2584 3369 2363 3531 
Q 2247 3381 2063 3200 
L 1825 3481 
Q 2544 4209 2863 5278 
L 3241 5191 
Q 3172 4975 3125 4856 
L 3809 4856 
L 4006 4659 
Q 3728 3719 3163 2969 
L 4975 2969 
L 4975 2584 
L 3156 2584 
L 3156 2963 
Q 2766 2475 2294 2144 
L 2031 2456 
Q 2450 2725 2797 3134 
z
M 2997 3397 
Q 3100 3541 3200 3719 
Q 2906 3938 2722 4031 
Q 2628 3875 2534 3756 
Q 2794 3591 2997 3397 
z
M 2978 4509 
Q 2916 4375 2856 4275 
Q 3103 4169 3350 3994 
Q 3453 4203 3559 4509 
L 2978 4509 
z
M 1550 3128 
Q 2131 2347 2131 1534 
Q 2131 819 1544 819 
Q 1284 819 1134 863 
L 1069 1291 
Q 1272 1234 1466 1234 
Q 1647 1234 1678 1344 
Q 1703 1413 1703 1581 
Q 1703 2397 1134 3103 
Q 1497 3841 1666 4588 
L 903 4588 
L 903 -450 
L 481 -450 
L 481 4991 
L 1972 4991 
L 2191 4806 
Q 1872 3825 1569 3166 
L 1550 3128 
z
M 5097 3541 
Q 5506 3003 6119 2613 
L 5844 2272 
Q 4966 2931 4513 3713 
Q 4181 4291 3963 5134 
L 4328 5238 
Q 4516 4431 4878 3847 
Q 5256 4238 5441 4525 
L 4744 4525 
L 4744 4884 
L 5788 4884 
L 5997 4647 
Q 5588 4022 5097 3541 
z
M 4263 1619 
L 4263 50 
Q 4263 -409 3772 -409 
Q 3481 -409 3150 -372 
L 3034 91 
Q 3447 19 3669 19 
Q 3834 19 3834 178 
L 3834 1619 
L 2369 1619 
L 2369 2003 
L 5838 2003 
L 5838 1619 
L 4263 1619 
z
M 1997 97 
Q 2516 575 2831 1281 
L 3253 1125 
Q 2922 381 2363 -197 
L 1997 97 
z
M 5659 -56 
Q 5188 644 4672 1119 
L 5044 1331 
Q 5566 866 6038 244 
L 5659 -56 
z
" transform="scale(0.015625)"/>
     </defs>
     <use xlink:href="#IPAexGothic-5b9f"/>
     <use xlink:href="#IPAexGothic-969b" x="100"/>
    </g>
    <!-- : 陽性 -->
    <g style="fill: #555555" transform="translate(15.995859 131.463656) scale(0.11 -0.11)">
     <use xlink:href="#IPAexGothic-3a"/>
     <use xlink:href="#IPAexGothic-20" x="31.982422"/>
     <use xlink:href="#IPAexGothic-967d" x="58.984375"/>
     <use xlink:href="#IPAexGothic-6027" x="158.984375"/>
    </g>
   </g>
   <g id="text_6">
    <!-- 実際 -->
    <g style="fill: #555555" transform="translate(19.24 220.286031) scale(0.11 -0.11)">
     <use xlink:href="#IPAexGothic-5b9f"/>
     <use xlink:href="#IPAexGothic-969b" x="100"/>
    </g>
    <!-- : 陰性 -->
    <g style="fill: #555555" transform="translate(15.995859 232.263656) scale(0.11 -0.11)">
     <use xlink:href="#IPAexGothic-3a"/>
     <use xlink:href="#IPAexGothic-20" x="31.982422"/>
     <use xlink:href="#IPAexGothic-9670" x="58.984375"/>
     <use xlink:href="#IPAexGothic-6027" x="158.984375"/>
    </g>
   </g>
   <g id="text_7">
    <!-- ✅ -->
    <g style="fill: #1e8449" transform="translate(98.34 93.63) scale(0.15 -0.15)">
     <defs>
      <path id="IPAexGothic-2705" d="M 5759 -641 
L 641 -641 
L 641 5503 
L 5759 5503 
L 5759 -641 
z
M 5216 5172 
L 1191 5172 
L 3206 2694 
L 5216 5172 
z
M 5428 -53 
L 5428 4903 
L 3419 2425 
L 5428 -53 
z
M 2988 2425 
L 972 4916 
L 972 -59 
L 2988 2425 
z
M 5209 -309 
L 3206 2163 
L 1197 -309 
L 5209 -309 
z
" transform="scale(0.015625)"/>
     </defs>
     <use xlink:href="#IPAexGothic-2705"/>
    </g>
   </g>
   <g id="text_8">
    <!-- TP（正解） -->
    <g style="fill: #1e8449" transform="translate(74.519062 108.34875) scale(0.12 -0.12)">
     <defs>
      <path id="IPAexGothic-54" d="M 3866 4141 
L 2175 4141 
L 2175 63 
L 1606 63 
L 1606 4141 
L -31 4141 
L -31 4634 
L 3866 4634 
L 3866 4141 
z
" transform="scale(0.015625)"/>
      <path id="IPAexGothic-50" d="M 609 4634 
L 1941 4634 
Q 3688 4634 3688 3322 
Q 3688 1934 1906 1934 
L 1172 1934 
L 1172 63 
L 609 63 
L 609 4634 
z
M 1172 2381 
L 1800 2381 
Q 3100 2381 3100 3316 
Q 3100 4181 1894 4181 
L 1172 4181 
L 1172 2381 
z
" transform="scale(0.015625)"/>
      <path id="IPAexGothic-6b63" d="M 3547 409 
L 5916 409 
L 5916 -31 
L 481 -31 
L 481 409 
L 1441 409 
L 1441 3231 
L 1934 3231 
L 1934 409 
L 3059 409 
L 3059 4288 
L 750 4288 
L 750 4728 
L 5659 4728 
L 5659 4288 
L 3547 4288 
L 3547 2669 
L 5353 2669 
L 5353 2241 
L 3547 2241 
L 3547 409 
z
" transform="scale(0.015625)"/>
      <path id="IPAexGothic-89e3" d="M 4538 2222 
L 4538 2906 
L 4953 2906 
L 4953 2222 
L 5850 2222 
L 5850 1850 
L 4953 1850 
L 4953 1159 
L 6072 1159 
L 6072 775 
L 4953 775 
L 4953 -447 
L 4538 -447 
L 4538 775 
L 3303 775 
L 3303 1159 
L 4538 1159 
L 4538 1850 
L 3897 1850 
Q 3781 1528 3622 1269 
L 3303 1544 
Q 3600 2072 3706 2734 
L 4103 2663 
Q 4053 2416 4006 2222 
L 4538 2222 
z
M 2394 3803 
L 3141 3803 
L 3141 63 
Q 3141 -213 3006 -306 
Q 2900 -384 2622 -384 
Q 2250 -384 1919 -341 
L 1853 103 
Q 2278 31 2547 31 
Q 2744 31 2744 213 
L 2744 1319 
L 1241 1319 
Q 1191 303 722 -513 
L 394 -178 
Q 863 566 863 1869 
L 863 3181 
Q 738 3000 516 2741 
L 281 3094 
Q 1106 4053 1363 5319 
L 1797 5238 
Q 1747 5044 1719 4959 
L 1700 4891 
L 2653 4891 
L 2853 4684 
Q 2653 4238 2394 3803 
z
M 1809 3450 
L 1259 3450 
L 1259 2747 
L 1809 2747 
L 1809 3450 
z
M 2175 3450 
L 2175 2747 
L 2744 2747 
L 2744 3450 
L 2175 3450 
z
M 1809 2406 
L 1259 2406 
L 1259 1672 
L 1809 1672 
L 1809 2406 
z
M 2175 2406 
L 2175 1672 
L 2744 1672 
L 2744 2406 
L 2175 2406 
z
M 1969 3803 
Q 2172 4141 2322 4531 
L 1572 4531 
Q 1409 4100 1247 3803 
L 1969 3803 
z
M 4622 4594 
Q 4534 3469 3597 2897 
L 3297 3225 
Q 4088 3625 4191 4594 
L 3316 4594 
L 3316 4978 
L 5844 4978 
Q 5813 3791 5734 3422 
Q 5688 3194 5556 3103 
Q 5444 3031 5184 3031 
Q 4863 3031 4556 3078 
L 4500 3475 
Q 4819 3422 5044 3422 
Q 5266 3422 5313 3600 
Q 5372 3831 5400 4594 
L 4622 4594 
z
" transform="scale(0.015625)"/>
     </defs>
     <use xlink:href="#IPAexGothic-54"/>
     <use xlink:href="#IPAexGothic-50" x="59.912109"/>
     <use xlink:href="#IPAexGothic-ff08" x="122.021484"/>
     <use xlink:href="#IPAexGothic-6b63" x="222.021484"/>
     <use xlink:href="#IPAexGothic-89e3" x="322.021484"/>
     <use xlink:href="#IPAexGothic-ff09" x="422.021484"/>
    </g>
   </g>
   <g id="text_9">
    <!-- 陽性→陽性と予測 -->
    <g style="fill: #1e8449" transform="translate(65.84 121.250625) scale(0.1 -0.1)">
     <defs>
      <path id="IPAexGothic-2192" d="M 3947 3572 
L 4631 3572 
L 6072 2431 
L 4631 1294 
L 3947 1294 
L 5094 2194 
L 459 2194 
L 459 2669 
L 5094 2669 
L 3947 3572 
z
" transform="scale(0.015625)"/>
      <path id="IPAexGothic-3068" d="M 5222 56 
Q 4200 -72 3450 -72 
Q 2478 -72 1941 113 
Q 1184 372 1184 1038 
Q 1184 1584 1594 2009 
Q 1941 2369 2656 2725 
Q 2231 3734 1972 4878 
L 2491 4978 
Q 2706 3884 3078 2950 
Q 4250 3447 4756 3616 
L 4978 3150 
Q 3181 2575 2409 2078 
Q 1691 1613 1691 1113 
Q 1691 403 3322 403 
Q 4125 403 5134 563 
L 5222 56 
z
" transform="scale(0.015625)"/>
     </defs>
     <use xlink:href="#IPAexGothic-967d"/>
     <use xlink:href="#IPAexGothic-6027" x="100"/>
     <use xlink:href="#IPAexGothic-2192" x="200"/>
     <use xlink:href="#IPAexGothic-967d" x="300"/>
     <use xlink:href="#IPAexGothic-6027" x="400"/>
     <use xlink:href="#IPAexGothic-3068" x="500"/>
     <use xlink:href="#IPAexGothic-4e88" x="600"/>
     <use xlink:href="#IPAexGothic-6e2c" x="700"/>
    </g>
   </g>
   <g id="text_10">
    <!-- ⚠️ -->
    <g style="fill: #922b21" transform="translate(216.84 93.63) scale(0.15 -0.15)">
     <defs>
      <path id="IPAexGothic-26a0" d="M 5759 -641 
L 641 -641 
L 641 5503 
L 5759 5503 
L 5759 -641 
z
M 5216 5172 
L 1191 5172 
L 3206 2694 
L 5216 5172 
z
M 5428 -53 
L 5428 4903 
L 3419 2425 
L 5428 -53 
z
M 2988 2425 
L 972 4916 
L 972 -59 
L 2988 2425 
z
M 5209 -309 
L 3206 2163 
L 1197 -309 
L 5209 -309 
z
" transform="scale(0.015625)"/>
      <path id="IPAexGothic-fe0f" d="M 5759 -641 
L 641 -641 
L 641 5503 
L 5759 5503 
L 5759 -641 
z
M 5216 5172 
L 1191 5172 
L 3206 2694 
L 5216 5172 
z
M 5428 -53 
L 5428 4903 
L 3419 2425 
L 5428 -53 
z
M 2988 2425 
L 972 4916 
L 972 -59 
L 2988 2425 
z
M 5209 -309 
L 3206 2163 
L 1197 -309 
L 5209 -309 
z
" transform="scale(0.015625)"/>
     </defs>
     <use xlink:href="#IPAexGothic-26a0"/>
     <use xlink:href="#IPAexGothic-fe0f" x="100"/>
    </g>
   </g>
   <g id="text_11">
    <!-- FN（見逃し） -->
    <g style="fill: #922b21" transform="translate(193.850625 108.34875) scale(0.12 -0.12)">
     <defs>
      <path id="IPAexGothic-46" d="M 3469 4141 
L 1172 4141 
L 1172 2656 
L 3206 2656 
L 3206 2188 
L 1172 2188 
L 1172 63 
L 609 63 
L 609 4634 
L 3469 4634 
L 3469 4141 
z
" transform="scale(0.015625)"/>
      <path id="IPAexGothic-4e" d="M 4244 63 
L 3731 63 
L 1697 3150 
Q 1466 3500 1141 4097 
L 1116 4097 
L 1128 3797 
Q 1159 2803 1159 2469 
L 1159 63 
L 609 63 
L 609 4634 
L 1366 4634 
L 3113 1978 
Q 3453 1447 3713 966 
L 3738 966 
Q 3694 1897 3694 2469 
L 3694 4634 
L 4244 4634 
L 4244 63 
z
" transform="scale(0.015625)"/>
      <path id="IPAexGothic-898b" d="M 4053 1631 
L 4053 403 
Q 4053 194 4159 144 
Q 4259 100 4594 100 
Q 5206 100 5303 272 
Q 5369 394 5406 1031 
L 5413 1138 
L 5881 966 
Q 5831 75 5656 -128 
Q 5475 -341 4566 -341 
Q 4041 -341 3859 -269 
Q 3584 -166 3584 184 
L 3584 1631 
L 2719 1631 
Q 2663 631 2219 197 
Q 1744 -256 756 -469 
L 513 -38 
Q 1500 134 1888 513 
Q 2216 831 2247 1631 
L 1288 1631 
L 1288 5050 
L 5106 5050 
L 5106 1631 
L 4053 1631 
z
M 1747 4653 
L 1747 4044 
L 4638 4044 
L 4638 4653 
L 1747 4653 
z
M 1747 3653 
L 1747 3047 
L 4638 3047 
L 4638 3653 
L 1747 3653 
z
M 1747 2663 
L 1747 2028 
L 4638 2028 
L 4638 2663 
L 1747 2663 
z
" transform="scale(0.015625)"/>
      <path id="IPAexGothic-9003" d="M 1703 734 
Q 1900 463 2216 319 
Q 2700 94 3928 94 
Q 4900 94 6144 178 
Q 6025 -50 5978 -300 
Q 4931 -341 4384 -341 
Q 2763 -341 2175 -109 
Q 1775 53 1519 397 
Q 1088 -103 647 -447 
L 366 19 
Q 884 344 1263 672 
L 1263 2303 
L 378 2303 
L 378 2731 
L 1703 2731 
L 1703 734 
z
M 3200 3419 
L 2866 3116 
Q 2428 3797 2041 4166 
L 2366 4434 
Q 2809 3994 3200 3431 
L 3200 5172 
L 3628 5172 
L 3628 2853 
Q 3628 1759 3256 1197 
Q 2988 794 2394 428 
L 2066 781 
Q 3200 1319 3200 2522 
L 3200 3419 
z
M 4563 3559 
Q 5013 4056 5369 4653 
L 5778 4384 
Q 5266 3675 4819 3244 
L 4563 3488 
L 4563 2669 
L 4778 2956 
Q 5422 2619 5975 2209 
L 5681 1869 
Q 5163 2284 4563 2631 
L 4563 1203 
Q 4563 1031 4644 1003 
Q 4759 966 5041 966 
Q 5425 966 5484 1113 
Q 5534 1256 5553 1684 
L 5975 1538 
Q 5947 847 5759 678 
Q 5616 544 4984 544 
Q 4425 544 4288 647 
Q 4134 753 4134 1013 
L 4134 5184 
L 4563 5184 
L 4563 3559 
z
M 1528 3775 
Q 1056 4350 563 4728 
L 872 5050 
Q 1488 4575 1869 4134 
L 1528 3775 
z
M 1900 2059 
Q 2538 2403 3028 2853 
L 3181 2516 
Q 2616 1969 2144 1672 
L 1900 2059 
z
" transform="scale(0.015625)"/>
      <path id="IPAexGothic-3057" d="M 1750 4884 
L 2281 4884 
L 2238 1319 
Q 2228 809 2391 569 
Q 2594 281 3128 281 
Q 3772 281 4344 744 
Q 4822 1131 5156 1759 
L 5534 1369 
Q 5094 653 4534 263 
Q 3878 -206 3134 -206 
Q 2341 -206 1994 213 
Q 1697 575 1706 1269 
L 1750 4884 
z
" transform="scale(0.015625)"/>
     </defs>
     <use xlink:href="#IPAexGothic-46"/>
     <use xlink:href="#IPAexGothic-4e" x="57.177734"/>
     <use xlink:href="#IPAexGothic-ff08" x="133.154297"/>
     <use xlink:href="#IPAexGothic-898b" x="233.154297"/>
     <use xlink:href="#IPAexGothic-9003" x="333.154297"/>
     <use xlink:href="#IPAexGothic-3057" x="433.154297"/>
     <use xlink:href="#IPAexGothic-ff09" x="533.154297"/>
    </g>
   </g>
   <g id="text_12">
    <!-- 陽性→陰性と予測 -->
    <g style="fill: #922b21" transform="translate(191.84 121.250625) scale(0.1 -0.1)">
     <use xlink:href="#IPAexGothic-967d"/>
     <use xlink:href="#IPAexGothic-6027" x="100"/>
     <use xlink:href="#IPAexGothic-2192" x="200"/>
     <use xlink:href="#IPAexGothic-9670" x="300"/>
     <use xlink:href="#IPAexGothic-6027" x="400"/>
     <use xlink:href="#IPAexGothic-3068" x="500"/>
     <use xlink:href="#IPAexGothic-4e88" x="600"/>
     <use xlink:href="#IPAexGothic-6e2c" x="700"/>
    </g>
   </g>
   <g id="text_13">
    <!-- ⚠️ -->
    <g style="fill: #9a7d0a" transform="translate(90.84 194.43) scale(0.15 -0.15)">
     <use xlink:href="#IPAexGothic-26a0"/>
     <use xlink:href="#IPAexGothic-fe0f" x="100"/>
    </g>
   </g>
   <g id="text_14">
    <!-- FP（誤検知） -->
    <g style="fill: #9a7d0a" transform="translate(68.683125 209.14875) scale(0.12 -0.12)">
     <defs>
      <path id="IPAexGothic-8aa4" d="M 2291 1684 
L 2291 -128 
L 925 -128 
L 925 -447 
L 516 -447 
L 516 1684 
L 2291 1684 
z
M 925 1313 
L 925 244 
L 1881 244 
L 1881 1313 
L 925 1313 
z
M 5572 5019 
L 5572 3281 
L 3556 3281 
L 3556 5019 
L 5572 5019 
z
M 3966 4647 
L 3966 3647 
L 5169 3647 
L 5169 4647 
L 3966 4647 
z
M 3122 2706 
L 5553 2706 
L 5453 1594 
L 6109 1594 
L 6109 1209 
L 2481 1209 
L 2481 1594 
L 5022 1594 
L 5094 2334 
L 3122 2334 
L 3122 1972 
L 2706 1972 
L 2706 4544 
L 3122 4544 
L 3122 2706 
z
M 600 5044 
L 2206 5044 
L 2206 4659 
L 600 4659 
L 600 5044 
z
M 331 4206 
L 2444 4206 
L 2444 3816 
L 331 3816 
L 331 4206 
z
M 600 3359 
L 2206 3359 
L 2206 2975 
L 600 2975 
L 600 3359 
z
M 600 2522 
L 2206 2522 
L 2206 2138 
L 600 2138 
L 600 2522 
z
M 2419 -153 
Q 3113 319 3609 1025 
L 3978 794 
Q 3434 22 2738 -494 
L 2419 -153 
z
M 5766 -416 
Q 5125 350 4528 794 
L 4856 1069 
Q 5531 591 6128 -78 
L 5766 -416 
z
" transform="scale(0.015625)"/>
      <path id="IPAexGothic-691c" d="M 4125 1119 
Q 3803 -72 2459 -481 
L 2178 -106 
Q 3588 250 3828 1438 
L 2997 1438 
L 2997 1113 
L 2581 1113 
L 2581 2869 
L 3850 2869 
L 3850 3353 
L 3188 3353 
L 3188 3566 
Q 2788 3166 2375 2888 
L 2094 3238 
Q 3263 3956 3753 5241 
L 4225 5241 
Q 4891 4109 6125 3403 
L 5816 3028 
Q 5425 3288 5013 3647 
L 5013 3353 
L 4266 3353 
L 4266 2869 
L 5575 2869 
L 5575 1150 
L 5159 1150 
L 5159 1438 
L 4359 1438 
Q 4781 466 6016 16 
L 5681 -394 
Q 4497 197 4125 1119 
z
M 3856 2516 
L 2997 2516 
L 2997 1784 
L 3856 1784 
L 3856 2516 
z
M 4259 2516 
L 4259 1784 
L 5159 1784 
L 5159 2516 
L 4259 2516 
z
M 3334 3725 
L 4928 3725 
Q 4363 4263 4016 4831 
Q 3759 4225 3334 3725 
z
M 1200 2594 
Q 928 1569 450 794 
L 188 1256 
Q 850 2238 1147 3547 
L 322 3547 
L 322 3956 
L 1200 3956 
L 1200 5306 
L 1622 5306 
L 1622 3956 
L 2325 3956 
L 2325 3547 
L 1622 3547 
L 1622 2900 
Q 2088 2484 2394 2119 
L 2141 1666 
Q 1897 2078 1622 2400 
L 1622 -447 
L 1200 -447 
L 1200 2594 
z
" transform="scale(0.015625)"/>
      <path id="IPAexGothic-77e5" d="M 2219 3988 
L 2219 2778 
L 3372 2778 
L 3372 2375 
L 2213 2375 
Q 2203 2078 2163 1813 
L 2194 1788 
Q 2884 1163 3403 531 
L 3075 116 
Q 2625 738 2066 1319 
Q 1766 159 753 -478 
L 428 -109 
Q 1231 359 1528 1147 
Q 1713 1634 1759 2375 
L 409 2375 
L 409 2778 
L 1766 2778 
L 1766 3988 
L 1344 3988 
Q 1106 3409 806 3003 
L 466 3316 
Q 1016 4103 1234 5281 
L 1688 5216 
Q 1591 4731 1484 4391 
L 3219 4391 
L 3219 3988 
L 2219 3988 
z
M 5791 4469 
L 5791 -194 
L 5338 -194 
L 5338 197 
L 3981 197 
L 3981 -272 
L 3528 -272 
L 3528 4469 
L 5791 4469 
z
M 3981 4053 
L 3981 613 
L 5338 613 
L 5338 4053 
L 3981 4053 
z
" transform="scale(0.015625)"/>
     </defs>
     <use xlink:href="#IPAexGothic-46"/>
     <use xlink:href="#IPAexGothic-50" x="57.177734"/>
     <use xlink:href="#IPAexGothic-ff08" x="119.287109"/>
     <use xlink:href="#IPAexGothic-8aa4" x="219.287109"/>
     <use xlink:href="#IPAexGothic-691c" x="319.287109"/>
     <use xlink:href="#IPAexGothic-77e5" x="419.287109"/>
     <use xlink:href="#IPAexGothic-ff09" x="519.287109"/>
    </g>
   </g>
   <g id="text_15">
    <!-- 陰性→陽性と予測 -->
    <g style="fill: #9a7d0a" transform="translate(65.84 222.050625) scale(0.1 -0.1)">
     <use xlink:href="#IPAexGothic-9670"/>
     <use xlink:href="#IPAexGothic-6027" x="100"/>
     <use xlink:href="#IPAexGothic-2192" x="200"/>
     <use xlink:href="#IPAexGothic-967d" x="300"/>
     <use xlink:href="#IPAexGothic-6027" x="400"/>
     <use xlink:href="#IPAexGothic-3068" x="500"/>
     <use xlink:href="#IPAexGothic-4e88" x="600"/>
     <use xlink:href="#IPAexGothic-6e2c" x="700"/>
    </g>
   </g>
   <g id="text_16">
    <!-- ✅ -->
    <g style="fill: #1e8449" transform="translate(224.34 194.43) scale(0.15 -0.15)">
     <use xlink:href="#IPAexGothic-2705"/>
    </g>
   </g>
   <g id="text_17">
    <!-- TN（正解） -->
    <g style="fill: #1e8449" transform="translate(199.686563 209.14875) scale(0.12 -0.12)">
     <use xlink:href="#IPAexGothic-54"/>
     <use xlink:href="#IPAexGothic-4e" x="59.912109"/>
     <use xlink:href="#IPAexGothic-ff08" x="135.888672"/>
     <use xlink:href="#IPAexGothic-6b63" x="235.888672"/>
     <use xlink:href="#IPAexGothic-89e3" x="335.888672"/>
     <use xlink:href="#IPAexGothic-ff09" x="435.888672"/>
    </g>
   </g>
   <g id="text_18">
    <!-- 陰性→陰性と予測 -->
    <g style="fill: #1e8449" transform="translate(191.84 222.050625) scale(0.1 -0.1)">
     <use xlink:href="#IPAexGothic-9670"/>
     <use xlink:href="#IPAexGothic-6027" x="100"/>
     <use xlink:href="#IPAexGothic-2192" x="200"/>
     <use xlink:href="#IPAexGothic-9670" x="300"/>
     <use xlink:href="#IPAexGothic-6027" x="400"/>
     <use xlink:href="#IPAexGothic-3068" x="500"/>
     <use xlink:href="#IPAexGothic-4e88" x="600"/>
     <use xlink:href="#IPAexGothic-6e2c" x="700"/>
    </g>
   </g>
   <g id="text_19">
    <!-- 指標 -->
    <g style="fill: #ffffff" transform="translate(324 96.814609) scale(0.115 -0.115)">
     <defs>
      <path id="IPAexGothic-6307" d="M 1303 4006 
L 1303 5300 
L 1744 5300 
L 1744 4006 
L 2494 4006 
L 2494 3591 
L 1744 3591 
L 1744 2394 
Q 1997 2456 2538 2625 
L 2575 2247 
Q 1997 2047 1744 1966 
L 1744 -13 
Q 1744 -291 1609 -378 
Q 1500 -447 1219 -447 
Q 959 -447 606 -416 
L 522 56 
Q 859 0 1109 0 
Q 1303 0 1303 191 
L 1303 1831 
Q 941 1725 472 1606 
L 325 2047 
Q 1025 2197 1303 2272 
L 1303 3591 
L 413 3591 
L 413 4006 
L 1303 4006 
z
M 3184 4234 
Q 4325 4397 5309 4784 
L 5675 4422 
Q 4597 4034 3184 3859 
L 3184 3544 
Q 3184 3313 3356 3263 
Q 3513 3225 4344 3225 
Q 5372 3225 5475 3384 
Q 5544 3500 5572 4000 
L 6025 3884 
Q 5978 3200 5841 3028 
Q 5731 2878 5475 2841 
Q 5109 2791 4297 2791 
Q 3203 2791 2994 2888 
Q 2731 3003 2731 3328 
L 2731 5216 
L 3184 5216 
L 3184 4234 
z
M 5619 2394 
L 5619 -447 
L 5178 -447 
L 5178 -159 
L 3263 -159 
L 3263 -447 
L 2822 -447 
L 2822 2394 
L 5619 2394 
z
M 3263 2009 
L 3263 1325 
L 5178 1325 
L 5178 2009 
L 3263 2009 
z
M 3263 953 
L 3263 225 
L 5178 225 
L 5178 953 
L 3263 953 
z
" transform="scale(0.015625)"/>
      <path id="IPAexGothic-6a19" d="M 1113 2534 
Q 813 1522 384 794 
L 153 1250 
Q 763 2228 1063 3547 
L 294 3547 
L 294 3956 
L 1113 3956 
L 1113 5306 
L 1522 5306 
L 1522 3956 
L 2144 3956 
L 2144 3547 
L 1522 3547 
L 1522 3009 
Q 1991 2634 2309 2288 
L 2059 1844 
Q 1813 2222 1522 2550 
L 1522 -447 
L 1113 -447 
L 1113 2534 
z
M 3353 4109 
L 3353 4641 
L 2100 4641 
L 2100 5019 
L 5997 5019 
L 5997 4641 
L 4753 4641 
L 4753 4109 
L 5778 4109 
L 5778 2769 
L 2356 2769 
L 2356 4109 
L 3353 4109 
z
M 3756 4109 
L 4350 4109 
L 4350 4641 
L 3756 4641 
L 3756 4109 
z
M 3359 3756 
L 2772 3756 
L 2772 3122 
L 3359 3122 
L 3359 3756 
z
M 3756 3756 
L 3756 3122 
L 4350 3122 
L 4350 3756 
L 3756 3756 
z
M 4741 3756 
L 4741 3122 
L 5363 3122 
L 5363 3756 
L 4741 3756 
z
M 4300 1191 
L 4300 19 
Q 4300 -409 3809 -409 
Q 3469 -409 3175 -372 
L 3097 78 
Q 3416 0 3675 0 
Q 3866 0 3866 184 
L 3866 1191 
L 2100 1191 
L 2100 1563 
L 6072 1563 
L 6072 1191 
L 4300 1191 
z
M 2481 2350 
L 5669 2350 
L 5669 1984 
L 2481 1984 
L 2481 2350 
z
M 1938 13 
Q 2534 406 2938 1069 
L 3322 891 
Q 2903 150 2272 -306 
L 1938 13 
z
M 5722 -191 
Q 5166 459 4666 838 
L 4978 1088 
Q 5572 681 6094 134 
L 5722 -191 
z
" transform="scale(0.015625)"/>
     </defs>
     <use xlink:href="#IPAexGothic-6307"/>
     <use xlink:href="#IPAexGothic-6a19" x="100"/>
    </g>
   </g>
   <g id="text_20">
    <!-- 計算式 -->
    <g style="fill: #ffffff" transform="translate(410.4 96.814609) scale(0.115 -0.115)">
     <defs>
      <path id="IPAexGothic-8a08" d="M 2853 1684 
L 2853 -416 
L 2413 -416 
L 2413 -128 
L 1088 -128 
L 1088 -447 
L 647 -447 
L 647 1684 
L 2853 1684 
z
M 1088 1300 
L 1088 256 
L 2413 256 
L 2413 1300 
L 1088 1300 
z
M 4322 3225 
L 4322 5178 
L 4781 5178 
L 4781 3225 
L 6063 3225 
L 6063 2797 
L 4781 2797 
L 4781 -447 
L 4322 -447 
L 4322 2797 
L 3063 2797 
L 3063 3225 
L 4322 3225 
z
M 781 5044 
L 2722 5044 
L 2722 4647 
L 781 4647 
L 781 5044 
z
M 384 4206 
L 3150 4206 
L 3150 3803 
L 384 3803 
L 384 4206 
z
M 781 3359 
L 2722 3359 
L 2722 2963 
L 781 2963 
L 781 3359 
z
M 781 2522 
L 2722 2522 
L 2722 2125 
L 781 2125 
L 781 2522 
z
" transform="scale(0.015625)"/>
      <path id="IPAexGothic-7b97" d="M 2466 672 
Q 2322 -228 1031 -525 
L 756 -166 
Q 1419 -22 1731 213 
Q 1944 369 2013 672 
L 328 672 
L 328 1056 
L 2038 1056 
L 2038 1466 
L 1206 1466 
L 1206 3803 
L 3319 3803 
L 3022 4019 
Q 3444 4525 3694 5319 
L 4122 5222 
Q 4081 5094 3963 4794 
L 5991 4794 
L 5991 4422 
L 4691 4422 
Q 4788 4281 4956 3988 
L 4556 3809 
Q 4397 4153 4225 4422 
L 3791 4422 
Q 3609 4075 3375 3803 
L 5213 3803 
L 5213 1466 
L 4422 1466 
L 4422 1056 
L 6088 1056 
L 6088 672 
L 4444 672 
L 4444 -441 
L 3991 -441 
L 3991 672 
L 2466 672 
z
M 2491 1056 
L 3969 1056 
L 3969 1466 
L 2491 1466 
L 2491 1056 
z
M 4769 1797 
L 4769 2172 
L 1647 2172 
L 1647 1797 
L 4769 1797 
z
M 4769 2497 
L 4769 2819 
L 1647 2819 
L 1647 2497 
L 4769 2497 
z
M 4769 3144 
L 4769 3463 
L 1647 3463 
L 1647 3144 
L 4769 3144 
z
M 1472 4794 
L 3206 4794 
L 3206 4422 
L 2272 4422 
L 2478 3994 
L 2088 3806 
Q 1934 4200 1819 4422 
L 1281 4422 
Q 1025 3969 691 3616 
L 384 3878 
Q 941 4494 1241 5313 
L 1659 5203 
Q 1594 5053 1472 4794 
z
" transform="scale(0.015625)"/>
      <path id="IPAexGothic-5f0f" d="M 3975 4006 
L 5922 4006 
L 5922 3591 
L 4013 3591 
Q 4119 2525 4244 2094 
Q 4544 1028 4988 528 
Q 5234 253 5331 253 
Q 5484 253 5628 1209 
L 6056 928 
Q 5834 -350 5403 -350 
Q 5191 -350 4834 -13 
Q 3794 981 3534 3559 
L 481 3559 
L 481 3981 
L 3497 3981 
Q 3444 4603 3425 5306 
L 3900 5306 
Q 3928 4616 3975 4006 
z
M 2309 2222 
L 2309 775 
L 2516 806 
Q 2938 881 3691 1038 
L 3731 666 
Q 2284 291 641 31 
L 494 494 
Q 1434 628 1850 697 
L 1850 2222 
L 775 2222 
L 775 2631 
L 3384 2631 
L 3384 2222 
L 2309 2222 
z
M 5056 4141 
Q 4759 4631 4391 4997 
L 4763 5222 
Q 5150 4834 5434 4403 
L 5056 4141 
z
" transform="scale(0.015625)"/>
     </defs>
     <use xlink:href="#IPAexGothic-8a08"/>
     <use xlink:href="#IPAexGothic-7b97" x="100"/>
     <use xlink:href="#IPAexGothic-5f0f" x="200"/>
    </g>
   </g>
   <g id="text_21">
    <!-- 重視する場面 -->
    <g style="fill: #ffffff" transform="translate(532.8 96.814609) scale(0.115 -0.115)">
     <defs>
      <path id="IPAexGothic-91cd" d="M 2950 3284 
L 2950 3684 
L 481 3684 
L 481 4063 
L 2950 4063 
L 2950 4491 
L 2747 4478 
Q 2100 4431 1241 4400 
L 1038 4791 
Q 3488 4878 4903 5113 
L 5234 4734 
Q 4388 4600 3406 4522 
L 3406 4063 
L 5913 4063 
L 5913 3684 
L 3406 3684 
L 3406 3284 
L 5269 3284 
L 5269 1313 
L 3406 1313 
L 3406 884 
L 5594 884 
L 5594 519 
L 3406 519 
L 3406 84 
L 6009 84 
L 6009 -294 
L 384 -294 
L 384 84 
L 2950 84 
L 2950 519 
L 800 519 
L 800 884 
L 2950 884 
L 2950 1313 
L 1128 1313 
L 1128 3284 
L 2950 3284 
z
M 2963 2931 
L 1569 2931 
L 1569 2472 
L 2963 2472 
L 2963 2931 
z
M 3394 2931 
L 3394 2472 
L 4825 2472 
L 4825 2931 
L 3394 2931 
z
M 2963 2147 
L 1569 2147 
L 1569 1659 
L 2963 1659 
L 2963 2147 
z
M 3394 2147 
L 3394 1659 
L 4825 1659 
L 4825 2147 
L 3394 2147 
z
" transform="scale(0.015625)"/>
      <path id="IPAexGothic-8996" d="M 2953 1631 
L 2953 5050 
L 5622 5050 
L 5622 1631 
L 4916 1631 
L 4916 300 
Q 4916 138 5000 100 
Q 5050 75 5219 75 
Q 5584 75 5641 275 
Q 5678 419 5697 1003 
L 6116 825 
Q 6075 75 5981 -97 
Q 5875 -297 5622 -334 
Q 5478 -353 5159 -353 
Q 4797 -353 4659 -288 
Q 4488 -203 4488 91 
L 4488 1631 
L 4028 1631 
Q 3978 841 3675 378 
Q 3353 -119 2625 -453 
L 2319 -91 
Q 3003 175 3303 634 
Q 3547 1013 3603 1631 
L 2953 1631 
z
M 3375 2016 
L 5206 2016 
L 5206 2669 
L 3375 2669 
L 3375 2016 
z
M 3375 3041 
L 5206 3041 
L 5206 3666 
L 3375 3666 
L 3375 3041 
z
M 3375 4038 
L 5206 4038 
L 5206 4666 
L 3375 4666 
L 3375 4038 
z
M 1766 2547 
Q 2294 2244 2834 1797 
L 2541 1381 
Q 2181 1728 1791 2041 
L 1766 2059 
L 1766 -456 
L 1313 -456 
L 1313 2047 
Q 894 1559 463 1216 
L 206 1619 
Q 1319 2453 1981 3775 
L 391 3775 
L 391 4197 
L 1250 4197 
L 1250 5309 
L 1703 5309 
L 1703 4197 
L 2303 4197 
L 2541 3978 
Q 2234 3259 1766 2622 
L 1766 2547 
z
" transform="scale(0.015625)"/>
      <path id="IPAexGothic-3059" d="M 3322 5075 
L 3816 5075 
L 3816 4063 
Q 4131 4075 5756 4116 
L 5756 3669 
Q 5431 3672 3816 3653 
L 3816 2463 
Q 3956 2125 3956 1741 
Q 3956 922 3519 397 
Q 3128 -72 2309 -409 
L 1941 -31 
Q 3263 453 3488 1363 
Q 3250 1031 2809 1031 
Q 2441 1031 2150 1313 
Q 1875 1588 1875 2050 
Q 1875 2475 2166 2769 
Q 2431 3041 2822 3041 
Q 3088 3041 3322 2881 
L 3322 3641 
Q 3000 3634 609 3547 
L 609 3988 
Q 1197 4000 2106 4022 
Q 3066 4047 3322 4050 
L 3322 5075 
z
M 3372 2044 
Q 3372 2300 3194 2478 
Q 3050 2613 2869 2613 
Q 2622 2613 2463 2406 
Q 2344 2250 2344 2088 
Q 2344 1797 2484 1622 
Q 2625 1453 2859 1453 
Q 3372 1453 3372 2044 
z
" transform="scale(0.015625)"/>
      <path id="IPAexGothic-308b" d="M 4391 4397 
L 2613 2588 
Q 3225 2809 3759 2809 
Q 4263 2809 4659 2625 
Q 5391 2269 5391 1484 
Q 5391 756 4706 275 
Q 4072 -166 3053 -166 
Q 2559 -166 2247 19 
Q 1863 250 1863 666 
Q 1863 934 2069 1141 
Q 2331 1403 2741 1403 
Q 3509 1403 4019 428 
Q 4872 784 4872 1491 
Q 4872 1981 4469 2222 
Q 4166 2406 3681 2406 
Q 2425 2406 1238 1209 
L 891 1581 
Q 2438 2934 3578 4281 
Q 2594 4125 1588 4066 
L 1478 4550 
Q 2594 4581 4109 4763 
L 4391 4397 
z
M 3591 303 
Q 3244 1025 2731 1025 
Q 2553 1025 2434 934 
Q 2316 844 2316 700 
Q 2316 250 3034 250 
Q 3275 250 3591 303 
z
" transform="scale(0.015625)"/>
      <path id="IPAexGothic-5834" d="M 5028 1588 
Q 4619 319 3603 -506 
L 3250 -213 
Q 4253 513 4606 1588 
L 4147 1588 
Q 3678 622 2675 -97 
L 2347 219 
Q 3244 778 3713 1588 
L 3219 1588 
Q 2806 1041 2181 628 
L 1869 953 
Q 2769 1500 3238 2363 
L 2247 2363 
L 2247 2741 
L 6078 2741 
L 6078 2363 
L 3691 2363 
Q 3572 2109 3475 1953 
L 5863 1953 
Q 5813 400 5650 -69 
Q 5516 -453 4997 -453 
Q 4709 -453 4409 -422 
L 4306 38 
Q 4678 -31 4928 -31 
Q 5200 -31 5266 269 
Q 5356 703 5413 1588 
L 5028 1588 
z
M 1138 3859 
L 1138 5209 
L 1584 5209 
L 1584 3859 
L 2372 3859 
L 2372 3431 
L 1584 3431 
L 1584 1672 
Q 1953 1866 2347 2106 
L 2441 1722 
Q 1403 1047 509 628 
L 300 1063 
Q 741 1247 1059 1403 
L 1138 1441 
L 1138 3431 
L 363 3431 
L 363 3859 
L 1138 3859 
z
M 5441 5088 
L 5441 3097 
L 2797 3097 
L 2797 5088 
L 5441 5088 
z
M 3219 4728 
L 3219 4281 
L 5019 4281 
L 5019 4728 
L 3219 4728 
z
M 3219 3928 
L 3219 3456 
L 5019 3456 
L 5019 3928 
L 3219 3928 
z
" transform="scale(0.015625)"/>
      <path id="IPAexGothic-9762" d="M 3063 3616 
L 5628 3616 
L 5628 -450 
L 5175 -450 
L 5175 -97 
L 1222 -97 
L 1222 -450 
L 769 -450 
L 769 3616 
L 2619 3616 
Q 2781 4025 2869 4434 
L 353 4434 
L 353 4856 
L 6044 4856 
L 6044 4434 
L 3381 4434 
L 3369 4397 
Q 3222 3963 3063 3616 
z
M 2178 3219 
L 1222 3219 
L 1222 300 
L 2178 300 
L 2178 3219 
z
M 2600 3219 
L 2600 2509 
L 3772 2509 
L 3772 3219 
L 2600 3219 
z
M 4194 3219 
L 4194 300 
L 5175 300 
L 5175 3219 
L 4194 3219 
z
M 2600 2138 
L 2600 1428 
L 3772 1428 
L 3772 2138 
L 2600 2138 
z
M 2600 1056 
L 2600 300 
L 3772 300 
L 3772 1056 
L 2600 1056 
z
" transform="scale(0.015625)"/>
     </defs>
     <use xlink:href="#IPAexGothic-91cd"/>
     <use xlink:href="#IPAexGothic-8996" x="100"/>
     <use xlink:href="#IPAexGothic-3059" x="200"/>
     <use xlink:href="#IPAexGothic-308b" x="300"/>
     <use xlink:href="#IPAexGothic-5834" x="400"/>
     <use xlink:href="#IPAexGothic-9762" x="500"/>
    </g>
   </g>
   <g id="text_22">
    <!-- Accuracy -->
    <g style="fill: #2c3e50" transform="translate(324 128.494609) scale(0.115 -0.115)">
     <defs>
      <path id="IPAexGothic-41" d="M 4056 63 
L 3444 63 
L 2938 1409 
L 1100 1409 
L 603 63 
L -6 63 
L 1806 4666 
L 2259 4666 
L 4056 63 
z
M 2778 1863 
L 2316 3078 
Q 2125 3588 2028 4000 
L 2009 4000 
Q 1897 3563 1716 3078 
L 1263 1863 
L 2778 1863 
z
" transform="scale(0.015625)"/>
      <path id="IPAexGothic-63" d="M 3269 784 
Q 2834 -31 1900 -31 
Q 1228 -31 788 409 
Q 313 891 313 1663 
Q 313 2428 788 2913 
Q 1222 3347 1881 3347 
Q 2813 3347 3206 2541 
L 2763 2309 
Q 2484 2900 1900 2900 
Q 1516 2900 1234 2619 
Q 881 2266 881 1650 
Q 881 1069 1222 728 
Q 1522 428 1956 428 
Q 2547 428 2847 1016 
L 3269 784 
z
" transform="scale(0.015625)"/>
      <path id="IPAexGothic-79" d="M 3122 3250 
L 1575 -488 
Q 1278 -1203 550 -1203 
L 478 -1203 
L 344 -703 
L 447 -703 
Q 969 -703 1150 -238 
L 1356 275 
L 38 3250 
L 659 3250 
L 1363 1459 
Q 1528 1025 1606 781 
L 1625 781 
Q 1750 1169 1863 1459 
L 2528 3250 
L 3122 3250 
z
" transform="scale(0.015625)"/>
     </defs>
     <use xlink:href="#IPAexGothic-41"/>
     <use xlink:href="#IPAexGothic-63" x="63.720703"/>
     <use xlink:href="#IPAexGothic-63" x="118.115234"/>
     <use xlink:href="#IPAexGothic-75" x="172.509766"/>
     <use xlink:href="#IPAexGothic-72" x="232.910156"/>
     <use xlink:href="#IPAexGothic-61" x="269.921875"/>
     <use xlink:href="#IPAexGothic-63" x="324.902344"/>
     <use xlink:href="#IPAexGothic-79" x="379.296875"/>
    </g>
   </g>
   <g id="text_23">
    <!-- (TP+TN) / 全体 -->
    <g style="fill: #2c3e50" transform="translate(410.4 128.851289) scale(0.115 -0.115)">
     <defs>
      <path id="IPAexGothic-28" d="M 1928 -1016 
L 1653 -1166 
Q 488 69 488 1875 
Q 488 3678 1653 4909 
L 1928 4763 
Q 1006 3522 1006 1881 
Q 1006 203 1928 -1016 
z
" transform="scale(0.015625)"/>
      <path id="IPAexGothic-2b" d="M 2369 1856 
L 2369 219 
L 1984 219 
L 1984 1856 
L 416 1856 
L 416 2216 
L 1984 2216 
L 1984 3725 
L 2369 3725 
L 2369 2216 
L 3922 2216 
L 3922 1856 
L 2369 1856 
z
" transform="scale(0.015625)"/>
      <path id="IPAexGothic-29" d="M 466 4909 
Q 1638 3672 1638 1875 
Q 1638 75 466 -1166 
L 191 -1016 
Q 1119 216 1119 1881 
Q 1119 3509 191 4763 
L 466 4909 
z
" transform="scale(0.015625)"/>
      <path id="IPAexGothic-2f" d="M 2719 4709 
L 600 -884 
L 300 -763 
L 2413 4831 
L 2719 4709 
z
" transform="scale(0.015625)"/>
      <path id="IPAexGothic-5168" d="M 3416 2778 
L 3416 1747 
L 5284 1747 
L 5284 1338 
L 3416 1338 
L 3416 184 
L 5859 184 
L 5859 -231 
L 547 -231 
L 547 184 
L 2941 184 
L 2941 1338 
L 1116 1338 
L 1116 1747 
L 2941 1747 
L 2941 2778 
L 1666 2778 
L 1666 3091 
Q 1188 2744 597 2472 
L 316 2847 
Q 2006 3569 2888 5197 
L 3441 5197 
Q 4491 3763 6116 3041 
L 5816 2619 
Q 4231 3413 3172 4775 
Q 2603 3834 1788 3181 
L 4803 3181 
L 4803 2778 
L 3416 2778 
z
" transform="scale(0.015625)"/>
      <path id="IPAexGothic-4f53" d="M 4253 3481 
Q 4869 2069 6041 1138 
L 5688 703 
Q 4541 1841 4069 3122 
L 4069 1228 
L 4925 1228 
L 4925 831 
L 4081 831 
L 4081 -450 
L 3613 -450 
L 3613 831 
L 2781 831 
L 2781 1228 
L 3628 1228 
L 3628 3097 
Q 3216 1703 2063 556 
L 1706 928 
Q 2844 1875 3441 3481 
L 1969 3481 
L 1969 3897 
L 3613 3897 
L 3613 5209 
L 4081 5209 
L 4081 3897 
L 5872 3897 
L 5872 3481 
L 4253 3481 
z
M 1572 3700 
L 1572 -441 
L 1119 -441 
L 1119 2778 
Q 888 2363 550 1913 
L 300 2303 
Q 1219 3575 1591 5241 
L 2041 5125 
Q 1844 4356 1572 3700 
z
" transform="scale(0.015625)"/>
     </defs>
     <use xlink:href="#IPAexGothic-28"/>
     <use xlink:href="#IPAexGothic-54" x="33.300781"/>
     <use xlink:href="#IPAexGothic-50" x="93.212891"/>
     <use xlink:href="#IPAexGothic-2b" x="155.322266"/>
     <use xlink:href="#IPAexGothic-54" x="223.144531"/>
     <use xlink:href="#IPAexGothic-4e" x="283.056641"/>
     <use xlink:href="#IPAexGothic-29" x="359.033203"/>
     <use xlink:href="#IPAexGothic-20" x="392.333984"/>
     <use xlink:href="#IPAexGothic-2f" x="419.335938"/>
     <use xlink:href="#IPAexGothic-20" x="469.335938"/>
     <use xlink:href="#IPAexGothic-5168" x="496.337891"/>
     <use xlink:href="#IPAexGothic-4f53" x="596.337891"/>
    </g>
   </g>
   <g id="text_24">
    <!-- 全般的な正確さ -->
    <g style="fill: #2c3e50" transform="translate(532.8 128.494609) scale(0.115 -0.115)">
     <defs>
      <path id="IPAexGothic-822c" d="M 1800 2816 
Q 1647 3347 1391 3841 
L 1709 3988 
Q 1956 3566 2150 3016 
L 1800 2816 
z
M 2388 2284 
L 2169 2266 
Q 1475 2200 1288 2194 
Q 1247 2194 1228 2188 
Q 1238 419 728 -513 
L 372 -191 
Q 725 450 794 1369 
Q 809 1566 819 2163 
L 613 2150 
L 325 2138 
L 250 2541 
Q 344 2544 578 2547 
Q 734 2550 819 2553 
L 819 4563 
L 1472 4563 
Q 1566 4906 1606 5284 
L 2075 5209 
Q 1938 4756 1856 4563 
L 2797 4563 
L 2797 2675 
Q 2853 2681 3206 2713 
L 3206 2463 
L 5459 2463 
L 5656 2278 
Q 5322 1375 4800 769 
Q 5400 281 6138 50 
L 5831 -403 
Q 5113 -78 4513 453 
Q 3884 -153 3181 -506 
L 2881 -128 
Q 3616 156 4219 747 
Q 3684 1309 3372 2059 
L 3072 2059 
L 3072 2347 
Q 2984 2338 2881 2328 
Q 2847 2322 2797 2322 
L 2797 63 
Q 2797 -416 2297 -416 
Q 1975 -416 1656 -378 
L 1563 91 
Q 1909 25 2222 25 
Q 2388 25 2388 197 
L 2388 2284 
z
M 2388 2641 
L 2388 4172 
L 1228 4172 
L 1228 2572 
Q 1709 2588 2388 2641 
z
M 4494 1050 
Q 4913 1553 5081 2059 
L 3781 2059 
Q 4006 1538 4494 1050 
z
M 5113 4984 
L 5113 3434 
Q 5113 3263 5350 3263 
Q 5547 3263 5584 3378 
Q 5631 3503 5631 3947 
L 6041 3800 
Q 6031 3147 5881 2988 
Q 5763 2859 5284 2859 
Q 4866 2859 4763 2975 
Q 4691 3056 4691 3244 
L 4691 4575 
L 3916 4575 
L 3916 4391 
Q 3916 3322 3403 2675 
L 3097 2988 
Q 3500 3488 3500 4491 
L 3500 4984 
L 5113 4984 
z
M 1600 2069 
L 1984 2069 
L 1984 588 
L 1600 588 
L 1600 2069 
z
" transform="scale(0.015625)"/>
      <path id="IPAexGothic-7684" d="M 5925 4141 
Q 5859 888 5656 91 
Q 5581 -219 5350 -325 
Q 5178 -397 4856 -397 
Q 4428 -397 4044 -353 
L 3953 134 
Q 4444 56 4838 56 
Q 5128 56 5203 234 
Q 5400 706 5459 3438 
L 5466 3719 
L 3838 3719 
Q 3550 3031 3116 2503 
L 2809 2856 
Q 3469 3659 3788 5172 
L 4250 5050 
Q 4144 4559 4000 4141 
L 5925 4141 
z
M 1316 4244 
L 1394 4475 
Q 1500 4806 1566 5209 
L 2053 5141 
Q 1872 4525 1753 4244 
L 2756 4244 
L 2756 366 
L 1022 366 
L 1022 -91 
L 581 -91 
L 581 4244 
L 1316 4244 
z
M 1022 3847 
L 1022 2553 
L 2316 2553 
L 2316 3847 
L 1022 3847 
z
M 1022 2169 
L 1022 763 
L 2316 763 
L 2316 2169 
L 1022 2169 
z
M 4384 1288 
Q 3975 2069 3531 2578 
L 3859 2834 
Q 4375 2259 4753 1569 
L 4384 1288 
z
" transform="scale(0.015625)"/>
      <path id="IPAexGothic-306a" d="M 3906 3147 
L 4372 3147 
Q 4381 2278 4444 1272 
Q 5244 1003 5838 631 
L 5556 222 
Q 4953 600 4463 813 
Q 4478 263 4234 22 
Q 3984 -225 3419 -225 
Q 2897 -225 2563 0 
Q 2216 231 2216 647 
Q 2216 1081 2656 1319 
Q 2959 1484 3297 1484 
Q 3638 1484 3969 1413 
Q 3916 2219 3906 3147 
z
M 3975 984 
Q 3631 1081 3297 1081 
Q 3031 1081 2856 978 
Q 2663 863 2663 653 
Q 2663 197 3400 197 
Q 3750 197 3875 378 
Q 3997 556 3975 984 
z
M 738 3928 
Q 1453 3884 1997 3938 
Q 2144 4381 2294 5125 
L 2784 5050 
Q 2684 4559 2516 3988 
Q 2969 4031 3559 4172 
L 3578 3713 
Q 2919 3575 2375 3531 
Q 1853 2028 1044 831 
L 603 1113 
Q 1325 2063 1856 3488 
Q 1063 3459 763 3475 
L 738 3928 
z
M 5538 2759 
Q 5000 3353 4263 3853 
L 4591 4191 
Q 5338 3728 5897 3128 
L 5538 2759 
z
" transform="scale(0.015625)"/>
      <path id="IPAexGothic-78ba" d="M 4347 3219 
Q 4516 3538 4647 3956 
L 5075 3853 
Q 4875 3431 4750 3219 
L 5888 3219 
L 5888 2847 
L 4700 2847 
L 4700 2222 
L 5741 2222 
L 5741 1869 
L 4700 1869 
L 4700 1250 
L 5741 1250 
L 5741 897 
L 4700 897 
L 4700 231 
L 6034 231 
L 6034 -141 
L 3463 -141 
L 3463 -447 
L 3047 -447 
L 3047 2444 
Q 2756 2019 2484 1703 
L 2284 2100 
Q 3159 3197 3506 4147 
L 2913 4147 
L 2913 3425 
L 2509 3425 
L 2509 4519 
L 3634 4519 
Q 3750 4903 3847 5319 
L 4269 5241 
Q 4175 4834 4072 4519 
L 5934 4519 
L 5934 3425 
L 5525 3425 
L 5525 4147 
L 3938 4147 
Q 3747 3647 3513 3219 
L 4347 3219 
z
M 4297 2847 
L 3463 2847 
L 3463 2222 
L 4297 2222 
L 4297 2847 
z
M 4297 1869 
L 3463 1869 
L 3463 1250 
L 4297 1250 
L 4297 1869 
z
M 4297 897 
L 3463 897 
L 3463 231 
L 4297 231 
L 4297 897 
z
M 1159 2944 
L 2275 2944 
L 2275 197 
L 1213 197 
L 1213 -328 
L 816 -328 
L 816 2206 
Q 650 1903 394 1522 
L 188 1919 
Q 931 3013 1200 4416 
L 406 4416 
L 406 4819 
L 2409 4819 
L 2409 4416 
L 1616 4416 
L 1597 4353 
Q 1456 3663 1159 2944 
z
M 1213 2553 
L 1213 588 
L 1878 588 
L 1878 2553 
L 1213 2553 
z
" transform="scale(0.015625)"/>
      <path id="IPAexGothic-3055" d="M 1747 1184 
Q 1747 834 2094 609 
Q 2422 391 3706 391 
Q 4088 391 4422 434 
L 4478 -50 
Q 4116 -84 3853 -84 
Q 3000 -84 2544 -13 
Q 2044 69 1759 263 
Q 1272 597 1272 1125 
Q 1272 1638 1728 1953 
Q 2163 2253 2884 2253 
Q 3741 2253 4300 2003 
Q 3797 2556 3322 3438 
Q 2128 3219 1113 3219 
L 966 3694 
Q 1150 3688 1388 3688 
Q 2291 3688 3128 3847 
Q 2919 4253 2597 4953 
L 3059 5081 
Q 3347 4384 3591 3950 
Q 4375 4147 5028 4481 
L 5297 4056 
Q 4653 3763 3775 3547 
Q 4309 2597 5069 1703 
L 4672 1363 
Q 3994 1838 2872 1838 
Q 2278 1838 1984 1628 
Q 1747 1459 1747 1184 
z
" transform="scale(0.015625)"/>
     </defs>
     <use xlink:href="#IPAexGothic-5168"/>
     <use xlink:href="#IPAexGothic-822c" x="100"/>
     <use xlink:href="#IPAexGothic-7684" x="200"/>
     <use xlink:href="#IPAexGothic-306a" x="300"/>
     <use xlink:href="#IPAexGothic-6b63" x="400"/>
     <use xlink:href="#IPAexGothic-78ba" x="500"/>
     <use xlink:href="#IPAexGothic-3055" x="600"/>
    </g>
   </g>
   <g id="text_25">
    <!-- Precision -->
    <g style="fill: #2c3e50" transform="translate(324 160.174609) scale(0.115 -0.115)">
     <defs>
      <path id="IPAexGothic-65" d="M 863 1594 
Q 891 1041 1209 722 
Q 1534 397 1997 397 
Q 2606 397 2963 966 
L 3322 728 
Q 2869 -31 1931 -31 
Q 1222 -31 766 422 
Q 306 884 306 1641 
Q 306 2444 788 2925 
Q 1216 3353 1856 3353 
Q 2459 3353 2866 2956 
Q 3322 2494 3322 1722 
L 3322 1594 
L 863 1594 
z
M 2756 1997 
Q 2709 2431 2450 2681 
Q 2194 2938 1844 2938 
Q 1438 2938 1150 2591 
Q 953 2356 894 1997 
L 2756 1997 
z
" transform="scale(0.015625)"/>
     </defs>
     <use xlink:href="#IPAexGothic-50"/>
     <use xlink:href="#IPAexGothic-72" x="62.109375"/>
     <use xlink:href="#IPAexGothic-65" x="99.121094"/>
     <use xlink:href="#IPAexGothic-63" x="156.005859"/>
     <use xlink:href="#IPAexGothic-69" x="210.400391"/>
     <use xlink:href="#IPAexGothic-73" x="237.402344"/>
     <use xlink:href="#IPAexGothic-69" x="283.59375"/>
     <use xlink:href="#IPAexGothic-6f" x="310.595703"/>
     <use xlink:href="#IPAexGothic-6e" x="370.996094"/>
    </g>
   </g>
   <g id="text_26">
    <!-- TP / (TP+FP) -->
    <g style="fill: #2c3e50" transform="translate(410.4 160.233008) scale(0.115 -0.115)">
     <use xlink:href="#IPAexGothic-54"/>
     <use xlink:href="#IPAexGothic-50" x="59.912109"/>
     <use xlink:href="#IPAexGothic-20" x="122.021484"/>
     <use xlink:href="#IPAexGothic-2f" x="149.023438"/>
     <use xlink:href="#IPAexGothic-20" x="199.023438"/>
     <use xlink:href="#IPAexGothic-28" x="226.025391"/>
     <use xlink:href="#IPAexGothic-54" x="259.326172"/>
     <use xlink:href="#IPAexGothic-50" x="319.238281"/>
     <use xlink:href="#IPAexGothic-2b" x="381.347656"/>
     <use xlink:href="#IPAexGothic-46" x="449.169922"/>
     <use xlink:href="#IPAexGothic-50" x="506.347656"/>
     <use xlink:href="#IPAexGothic-29" x="568.457031"/>
    </g>
   </g>
   <g id="text_27">
    <!-- 誤検知を減らしたい場合 -->
    <g style="fill: #2c3e50" transform="translate(532.8 160.174609) scale(0.115 -0.115)">
     <defs>
      <path id="IPAexGothic-3092" d="M 1094 4263 
Q 1544 4222 2359 4222 
Q 2581 4734 2700 5163 
L 3175 5028 
Q 2997 4538 2859 4256 
Q 3516 4284 4294 4459 
L 4356 4019 
Q 3603 3869 2656 3819 
Q 2391 3284 2059 2797 
Q 2531 3200 2963 3200 
Q 3638 3200 3859 2378 
Q 4556 2681 5338 2950 
L 5575 2528 
Q 4641 2253 3941 1956 
Q 3981 1678 3994 1028 
L 3513 991 
Q 3513 1456 3494 1753 
Q 2388 1194 2388 716 
Q 2388 428 2753 328 
Q 3066 241 3806 241 
Q 4394 241 5178 344 
L 5216 -128 
Q 4434 -213 3653 -213 
Q 2656 -213 2244 41 
Q 1913 244 1913 631 
Q 1913 1094 2344 1497 
Q 2709 1841 3428 2181 
Q 3266 2797 2878 2797 
Q 2238 2797 1209 1419 
L 838 1694 
Q 1625 2716 2163 3800 
Q 1522 3800 1088 3825 
L 1094 4263 
z
" transform="scale(0.015625)"/>
      <path id="IPAexGothic-6e1b" d="M 4531 1175 
Q 4263 2144 4184 3794 
L 2419 3794 
L 2419 2566 
Q 2419 1391 2309 741 
Q 2194 59 1844 -481 
L 1491 -156 
Q 1991 622 1991 2419 
L 1991 4172 
L 4172 4172 
L 4153 4469 
Q 4150 4556 4141 4816 
Q 4131 5156 4128 5306 
L 4563 5306 
Q 4575 4588 4594 4206 
L 5938 4206 
L 5938 3822 
L 4613 3822 
Q 4697 2419 4831 1706 
Q 5131 2281 5381 3250 
L 5791 3078 
Q 5466 1978 4991 1144 
Q 5125 753 5306 459 
Q 5391 325 5441 325 
Q 5556 325 5703 1259 
L 6106 947 
Q 5844 -353 5534 -353 
Q 5397 -353 5203 -150 
Q 4922 163 4697 697 
Q 4181 19 3513 -475 
L 3188 -141 
Q 4000 384 4531 1175 
z
M 4038 2431 
L 4038 903 
L 3066 903 
L 3066 506 
L 2694 506 
L 2694 2431 
L 4038 2431 
z
M 3066 2088 
L 3066 1247 
L 3659 1247 
L 3659 2088 
L 3066 2088 
z
M 1472 3872 
Q 963 4463 556 4769 
L 856 5100 
Q 1372 4728 1784 4250 
L 1472 3872 
z
M 1209 2375 
Q 781 2897 294 3256 
L 581 3603 
Q 1109 3213 1516 2759 
L 1209 2375 
z
M 331 -103 
Q 838 763 1172 1931 
L 1547 1644 
Q 1188 422 722 -441 
L 331 -103 
z
M 2609 3272 
L 4081 3272 
L 4081 2900 
L 2609 2900 
L 2609 3272 
z
M 5413 4281 
Q 5128 4753 4881 5019 
L 5259 5209 
Q 5566 4884 5803 4513 
L 5413 4281 
z
" transform="scale(0.015625)"/>
      <path id="IPAexGothic-3089" d="M 3700 3928 
Q 2897 4478 2156 4750 
L 2381 5166 
Q 3147 4891 3956 4384 
L 3700 3928 
z
M 1344 1281 
Q 1450 2544 1747 4038 
L 2234 3928 
Q 1994 2856 1888 1844 
Q 2897 2688 3963 2688 
Q 4531 2688 4909 2450 
Q 5441 2122 5441 1516 
Q 5441 669 4569 213 
Q 3856 -169 2584 -238 
L 2363 250 
Q 3484 250 4213 588 
Q 4909 922 4909 1509 
Q 4909 1856 4647 2059 
Q 4366 2266 3897 2266 
Q 2853 2266 1766 1141 
L 1344 1281 
z
" transform="scale(0.015625)"/>
      <path id="IPAexGothic-305f" d="M 684 3994 
Q 1138 3953 1556 3953 
Q 1797 3953 2106 3975 
Q 2266 4594 2369 5113 
L 2875 5025 
Q 2806 4731 2619 4013 
Q 3209 4084 3656 4191 
L 3688 3719 
Q 3109 3613 2497 3566 
Q 1822 1294 1153 -44 
L 653 172 
Q 1406 1500 1991 3531 
Q 1634 3513 1256 3513 
Q 1106 3513 697 3525 
L 684 3994 
z
M 5753 78 
Q 5059 -13 4597 -13 
Q 3619 -13 3206 334 
Q 2866 625 2766 1222 
L 3213 1388 
Q 3247 1069 3347 903 
Q 3425 775 3578 672 
Q 3866 481 4556 481 
Q 5009 481 5728 575 
L 5753 78 
z
M 3144 2859 
Q 4216 3147 5409 3072 
L 5381 2597 
L 5356 2597 
Q 4263 2663 3194 2419 
L 3144 2859 
z
" transform="scale(0.015625)"/>
      <path id="IPAexGothic-3044" d="M 3369 1447 
Q 2906 122 2278 122 
Q 1966 122 1647 481 
Q 1209 966 1044 1966 
Q 891 2888 891 4313 
L 1422 4313 
Q 1413 2444 1666 1550 
Q 1913 678 2278 678 
Q 2619 678 2925 1791 
L 3369 1447 
z
M 5378 1294 
Q 4928 2797 4034 3809 
L 4488 4031 
Q 5375 3000 5881 1563 
L 5378 1294 
z
" transform="scale(0.015625)"/>
      <path id="IPAexGothic-5408" d="M 1831 3188 
L 4653 3188 
L 4653 2778 
L 1747 2778 
L 1747 3125 
Q 1275 2778 594 2453 
L 294 2828 
Q 2006 3509 2891 5147 
L 3431 5147 
Q 4331 3806 6125 3003 
L 5831 2588 
Q 4119 3416 3175 4731 
Q 2650 3806 1831 3188 
z
M 5113 2088 
L 5113 -450 
L 4638 -450 
L 4638 -97 
L 1766 -97 
L 1766 -450 
L 1284 -450 
L 1284 2088 
L 5113 2088 
z
M 1766 1691 
L 1766 300 
L 4638 300 
L 4638 1691 
L 1766 1691 
z
" transform="scale(0.015625)"/>
     </defs>
     <use xlink:href="#IPAexGothic-8aa4"/>
     <use xlink:href="#IPAexGothic-691c" x="100"/>
     <use xlink:href="#IPAexGothic-77e5" x="200"/>
     <use xlink:href="#IPAexGothic-3092" x="300"/>
     <use xlink:href="#IPAexGothic-6e1b" x="400"/>
     <use xlink:href="#IPAexGothic-3089" x="500"/>
     <use xlink:href="#IPAexGothic-3057" x="600"/>
     <use xlink:href="#IPAexGothic-305f" x="700"/>
     <use xlink:href="#IPAexGothic-3044" x="800"/>
     <use xlink:href="#IPAexGothic-5834" x="900"/>
     <use xlink:href="#IPAexGothic-5408" x="1000"/>
    </g>
   </g>
   <g id="text_28">
    <!-- Recall -->
    <g style="fill: #2c3e50" transform="translate(324 191.854609) scale(0.115 -0.115)">
     <defs>
      <path id="IPAexGothic-52" d="M 4072 63 
L 3394 63 
Q 3138 641 2828 1197 
Q 2584 1641 2344 1825 
Q 2050 2044 1625 2044 
L 1172 2044 
L 1172 63 
L 609 63 
L 609 4634 
L 2009 4634 
Q 2713 4634 3131 4378 
Q 3688 4044 3688 3381 
Q 3688 2784 3181 2459 
Q 2906 2272 2522 2216 
L 2522 2197 
Q 2941 2050 3247 1581 
Q 3516 1166 4072 63 
z
M 1172 2478 
L 1869 2478 
Q 3106 2478 3106 3369 
Q 3106 4181 1928 4181 
L 1172 4181 
L 1172 2478 
z
" transform="scale(0.015625)"/>
      <path id="IPAexGothic-6c" d="M 1131 63 
L 581 63 
L 581 4794 
L 1131 4794 
L 1131 63 
z
" transform="scale(0.015625)"/>
     </defs>
     <use xlink:href="#IPAexGothic-52"/>
     <use xlink:href="#IPAexGothic-65" x="64.794922"/>
     <use xlink:href="#IPAexGothic-63" x="121.679688"/>
     <use xlink:href="#IPAexGothic-61" x="176.074219"/>
     <use xlink:href="#IPAexGothic-6c" x="231.054688"/>
     <use xlink:href="#IPAexGothic-6c" x="258.056641"/>
    </g>
   </g>
   <g id="text_29">
    <!-- TP / (TP+FN) -->
    <g style="fill: #2c3e50" transform="translate(410.4 191.913008) scale(0.115 -0.115)">
     <use xlink:href="#IPAexGothic-54"/>
     <use xlink:href="#IPAexGothic-50" x="59.912109"/>
     <use xlink:href="#IPAexGothic-20" x="122.021484"/>
     <use xlink:href="#IPAexGothic-2f" x="149.023438"/>
     <use xlink:href="#IPAexGothic-20" x="199.023438"/>
     <use xlink:href="#IPAexGothic-28" x="226.025391"/>
     <use xlink:href="#IPAexGothic-54" x="259.326172"/>
     <use xlink:href="#IPAexGothic-50" x="319.238281"/>
     <use xlink:href="#IPAexGothic-2b" x="381.347656"/>
     <use xlink:href="#IPAexGothic-46" x="449.169922"/>
     <use xlink:href="#IPAexGothic-4e" x="506.347656"/>
     <use xlink:href="#IPAexGothic-29" x="582.324219"/>
    </g>
   </g>
   <g id="text_30">
    <!-- 見逃しを防ぎたい場合 -->
    <g style="fill: #2c3e50" transform="translate(532.8 191.854609) scale(0.115 -0.115)">
     <defs>
      <path id="IPAexGothic-9632" d="M 3891 3803 
L 3891 3688 
Q 3891 3244 3878 2859 
L 5631 2859 
Q 5584 694 5428 116 
Q 5313 -313 4703 -313 
Q 4303 -313 3938 -269 
L 3878 206 
Q 4244 128 4634 128 
Q 4938 128 5003 422 
Q 5144 1081 5172 2456 
L 3859 2456 
Q 3822 1803 3675 1313 
Q 3356 281 2363 -453 
L 2031 -91 
Q 3047 572 3316 1741 
Q 3456 2331 3456 3694 
L 3456 3803 
L 2541 3803 
L 2541 4219 
L 3834 4219 
L 3834 5225 
L 4288 5225 
L 4288 4219 
L 6022 4219 
L 6022 3803 
L 3891 3803 
z
M 1944 3116 
Q 2631 2394 2631 1516 
Q 2631 806 1991 806 
Q 1719 806 1441 844 
L 1344 1297 
Q 1672 1241 1909 1241 
Q 2100 1241 2141 1356 
Q 2172 1453 2172 1588 
Q 2172 2316 1484 3059 
Q 1494 3075 1516 3125 
Q 1541 3175 1556 3206 
Q 1822 3731 2034 4581 
L 1088 4581 
L 1088 -450 
L 647 -450 
L 647 4984 
L 2341 4984 
L 2566 4772 
Q 2284 3822 1944 3116 
z
" transform="scale(0.015625)"/>
      <path id="IPAexGothic-304e" d="M 2881 1600 
Q 2306 1600 1991 1428 
Q 1709 1275 1709 1019 
Q 1709 666 2138 481 
Q 2538 309 3841 309 
Q 4075 309 4334 331 
L 4359 -147 
Q 4141 -166 3906 -166 
Q 2263 -166 1756 141 
Q 1250 444 1250 994 
Q 1250 1447 1728 1738 
Q 2156 1997 2797 1997 
Q 3256 1997 3544 1947 
Q 3831 1894 4153 1759 
Q 3891 2050 3444 2791 
Q 2200 2547 1128 2491 
L 1031 2956 
Q 2200 2966 3219 3175 
Q 2956 3647 2888 3794 
Q 2063 3641 1191 3622 
L 1103 4063 
Q 1950 4063 2688 4184 
Q 2416 4744 2319 4984 
L 2778 5131 
Q 2863 4916 3150 4281 
Q 3825 4438 4397 4709 
L 4609 4313 
Q 4056 4056 3347 3891 
Q 3575 3447 3675 3284 
Q 4466 3503 5050 3794 
L 5269 3366 
Q 4675 3094 3891 2900 
Q 4209 2366 4841 1484 
L 4513 1147 
Q 3825 1600 2881 1600 
z
M 6009 4391 
Q 5650 4931 5256 5259 
L 5556 5491 
Q 5941 5181 6331 4666 
L 6009 4391 
z
M 5441 3903 
Q 5150 4394 4706 4794 
L 5019 5038 
Q 5391 4728 5775 4178 
L 5441 3903 
z
" transform="scale(0.015625)"/>
     </defs>
     <use xlink:href="#IPAexGothic-898b"/>
     <use xlink:href="#IPAexGothic-9003" x="100"/>
     <use xlink:href="#IPAexGothic-3057" x="200"/>
     <use xlink:href="#IPAexGothic-3092" x="300"/>
     <use xlink:href="#IPAexGothic-9632" x="400"/>
     <use xlink:href="#IPAexGothic-304e" x="500"/>
     <use xlink:href="#IPAexGothic-305f" x="600"/>
     <use xlink:href="#IPAexGothic-3044" x="700"/>
     <use xlink:href="#IPAexGothic-5834" x="800"/>
     <use xlink:href="#IPAexGothic-5408" x="900"/>
    </g>
   </g>
   <g id="text_31">
    <!-- 対角成分（TP + TN）= 正解した件数　対角以外 = 誤分類 → どう間違えたかが重要 -->
    <g style="fill: #7d6608" transform="translate(41.04 318.520204) scale(0.125 -0.125)">
     <defs>
      <path id="IPAexGothic-5bfe" d="M 2694 3597 
Q 2694 3566 2688 3534 
Q 2584 2566 2234 1703 
Q 2569 1288 3028 666 
L 2656 331 
Q 2434 672 2016 1234 
Q 1466 184 725 -416 
L 366 -63 
Q 1156 525 1684 1569 
L 1709 1625 
Q 1191 2278 647 2844 
L 975 3113 
Q 1475 2619 1906 2100 
Q 2153 2825 2241 3597 
L 391 3597 
L 391 4013 
L 1666 4013 
L 1666 5209 
L 2106 5209 
L 2106 4013 
L 3272 4013 
L 3272 3706 
L 4822 3706 
L 4822 5209 
L 5275 5209 
L 5275 3706 
L 6041 3706 
L 6041 3278 
L 5300 3278 
L 5300 109 
Q 5300 -397 4694 -397 
Q 4206 -397 3872 -353 
L 3784 141 
Q 4200 63 4616 63 
Q 4847 63 4847 269 
L 4847 3278 
L 3241 3278 
L 3241 3597 
L 2694 3597 
z
M 4000 1147 
Q 3619 1994 3188 2578 
L 3578 2816 
Q 4044 2188 4409 1428 
L 4000 1147 
z
" transform="scale(0.015625)"/>
      <path id="IPAexGothic-89d2" d="M 3706 3803 
L 5363 3803 
L 5363 147 
Q 5363 -156 5241 -269 
Q 5128 -372 4831 -372 
Q 4263 -372 3756 -325 
L 3669 166 
Q 4253 81 4703 81 
Q 4916 81 4916 319 
L 4916 1247 
L 1663 1247 
Q 1575 131 844 -506 
L 513 -166 
Q 1034 269 1159 888 
Q 1222 1209 1222 1778 
L 1222 3341 
Q 1047 3178 728 2919 
L 416 3259 
Q 1659 4150 2131 5319 
L 2631 5225 
Q 2531 5019 2456 4884 
L 4116 4884 
L 4384 4678 
Q 4041 4191 3706 3803 
z
M 3475 3419 
L 3475 2753 
L 4916 2753 
L 4916 3419 
L 3475 3419 
z
M 3475 2381 
L 3475 1631 
L 4916 1631 
L 4916 2381 
L 3475 2381 
z
M 3041 1631 
L 3041 2381 
L 1675 2381 
L 1675 1631 
L 3041 1631 
z
M 3041 2753 
L 3041 3419 
L 1675 3419 
L 1675 2753 
L 3041 2753 
z
M 3181 3803 
Q 3444 4084 3719 4500 
L 2219 4500 
Q 1978 4150 1675 3803 
L 3181 3803 
z
" transform="scale(0.015625)"/>
      <path id="IPAexGothic-6210" d="M 4322 1650 
Q 4809 2375 5153 3309 
L 5563 3116 
Q 5159 2053 4566 1200 
Q 4881 675 5250 384 
Q 5388 275 5441 275 
Q 5544 275 5641 1119 
L 6063 875 
Q 5919 -328 5550 -328 
Q 5397 -328 5141 -150 
Q 4644 203 4250 806 
Q 3659 97 2825 -431 
L 2497 -59 
Q 3341 434 4009 1228 
Q 3491 2244 3272 3738 
L 1347 3738 
L 1347 2847 
L 2947 2847 
Q 2897 1366 2813 953 
Q 2706 453 2191 453 
Q 1900 453 1563 509 
L 1513 978 
Q 1981 888 2153 888 
Q 2350 888 2391 1100 
Q 2453 1416 2491 2463 
L 1347 2463 
L 1347 2303 
Q 1347 606 609 -438 
L 256 -78 
Q 878 772 878 2316 
L 878 4153 
L 3216 4153 
Q 3159 4672 3119 5291 
L 3594 5291 
Q 3619 4716 3681 4184 
L 5959 4184 
L 5959 3769 
L 3741 3769 
L 3759 3641 
Q 3956 2413 4322 1650 
z
M 4934 4225 
Q 4597 4656 4300 4897 
L 4659 5172 
Q 5003 4916 5319 4506 
L 4934 4225 
z
" transform="scale(0.015625)"/>
      <path id="IPAexGothic-5206" d="M 3031 2431 
Q 2916 1378 2528 759 
Q 1991 -81 941 -469 
L 625 -53 
Q 2356 488 2541 2431 
L 1375 2431 
L 1375 2772 
Q 1044 2431 653 2156 
L 313 2534 
Q 1600 3425 2219 5056 
L 2688 4875 
Q 2200 3672 1453 2847 
L 4966 2847 
Q 4878 559 4741 94 
Q 4666 -163 4459 -250 
Q 4288 -322 3941 -322 
Q 3525 -322 2981 -263 
L 2884 256 
Q 3441 138 3844 138 
Q 4213 138 4281 438 
Q 4388 931 4472 2431 
L 3031 2431 
z
M 5747 2303 
Q 4416 3238 3506 4934 
L 3934 5113 
Q 4747 3572 6084 2747 
L 5747 2303 
z
" transform="scale(0.015625)"/>
      <path id="IPAexGothic-3d" d="M 416 2803 
L 3922 2803 
L 3922 2438 
L 416 2438 
L 416 2803 
z
M 416 1625 
L 3922 1625 
L 3922 1259 
L 416 1259 
L 416 1625 
z
" transform="scale(0.015625)"/>
      <path id="IPAexGothic-4ef6" d="M 3903 3425 
L 2906 3425 
Q 2697 2825 2309 2247 
L 1991 2572 
Q 2588 3497 2803 4788 
L 3256 4713 
Q 3175 4313 3041 3834 
L 3903 3834 
L 3903 5250 
L 4356 5250 
L 4356 3834 
L 5731 3834 
L 5731 3425 
L 4356 3425 
L 4356 2009 
L 6041 2009 
L 6041 1594 
L 4356 1594 
L 4356 -447 
L 3903 -447 
L 3903 1594 
L 2078 1594 
L 2078 2009 
L 3903 2009 
L 3903 3425 
z
M 1638 3681 
L 1638 -447 
L 1169 -447 
L 1169 2753 
Q 881 2272 575 1863 
L 313 2253 
Q 1238 3463 1650 5184 
L 2125 5069 
Q 1909 4316 1638 3681 
z
" transform="scale(0.015625)"/>
      <path id="IPAexGothic-6570" d="M 2847 1553 
Q 2741 1006 2425 534 
Q 2625 441 3091 203 
L 2809 -188 
Q 2541 0 2144 209 
Q 1569 -291 703 -500 
L 422 -125 
Q 1263 19 1747 406 
Q 1222 650 734 816 
Q 975 1172 1147 1503 
L 1172 1553 
L 359 1553 
L 359 1925 
L 1344 1925 
Q 1406 2066 1569 2475 
L 1691 2450 
L 1691 3372 
Q 1250 2738 550 2303 
L 275 2663 
Q 1019 3013 1528 3641 
L 378 3641 
L 378 4006 
L 1691 4006 
L 1691 5313 
L 2113 5313 
L 2113 4006 
L 3297 4006 
L 3297 3641 
L 2113 3641 
L 2113 3513 
Q 2659 3291 3175 2963 
L 2956 2584 
Q 2553 2922 2113 3159 
L 2113 2372 
L 1966 2372 
Q 1928 2288 1872 2141 
Q 1806 1975 1784 1925 
L 3378 1925 
L 3378 1553 
L 2847 1553 
z
M 2419 1553 
L 1613 1553 
Q 1478 1269 1313 997 
Q 1559 909 2047 703 
Q 2313 1047 2419 1553 
z
M 4363 1163 
Q 3953 1781 3738 2638 
Q 3575 2281 3428 2016 
L 3103 2406 
Q 3675 3444 3916 5291 
L 4363 5200 
Q 4284 4666 4197 4197 
L 6009 4197 
L 6009 3775 
L 5503 3775 
Q 5397 2275 4869 1191 
Q 5419 503 6144 75 
L 5822 -378 
Q 5188 106 4631 788 
Q 4113 34 3341 -463 
L 3031 -78 
Q 3888 406 4363 1163 
z
M 4588 1594 
Q 4938 2388 5059 3775 
L 4100 3775 
Q 4041 3519 3972 3288 
Q 3981 3250 3991 3194 
Q 4175 2256 4588 1594 
z
M 1003 4116 
Q 878 4544 638 4934 
L 1053 5094 
Q 1247 4788 1438 4269 
L 1003 4116 
z
M 2316 4269 
Q 2550 4688 2688 5131 
L 3128 4997 
Q 2966 4588 2675 4128 
L 2316 4269 
z
" transform="scale(0.015625)"/>
      <path id="IPAexGothic-3000" transform="scale(0.015625)"/>
      <path id="IPAexGothic-4ee5" d="M 4509 1119 
Q 3834 188 2281 -378 
L 1981 38 
Q 3888 672 4359 1819 
Q 4700 2659 4700 4372 
L 4700 4978 
L 5181 4978 
L 5181 4459 
Q 5181 2416 4738 1503 
Q 5478 956 6141 256 
L 5763 -159 
Q 5191 556 4509 1119 
z
M 1581 1106 
Q 2331 1463 3175 2003 
L 3297 1600 
Q 2063 744 591 128 
L 341 581 
Q 863 784 1122 897 
L 1044 4922 
L 1519 4922 
L 1581 1106 
z
M 3344 3009 
Q 2856 3716 2259 4250 
L 2619 4563 
Q 3300 3972 3725 3353 
L 3344 3009 
z
" transform="scale(0.015625)"/>
      <path id="IPAexGothic-5916" d="M 3306 3503 
Q 3647 3125 4075 2747 
L 4075 5088 
L 4563 5088 
L 4563 2369 
Q 4600 2344 4631 2325 
Q 5250 1891 6078 1594 
L 5791 1141 
Q 5144 1409 4563 1806 
L 4563 -397 
L 4075 -397 
L 4075 2178 
Q 3575 2609 3209 3053 
Q 2975 2078 2703 1550 
Q 2100 344 1022 -447 
L 644 -69 
Q 1581 519 2269 1747 
L 2281 1775 
Q 1903 2209 1394 2644 
Q 1109 2184 706 1734 
L 388 2081 
Q 1538 3406 1797 5184 
L 2269 5069 
Q 2197 4725 2141 4506 
L 3141 4506 
L 3422 4281 
Q 3372 3863 3306 3503 
z
M 2494 2234 
L 2513 2291 
Q 2806 3078 2922 4091 
L 2025 4091 
Q 1841 3500 1591 3009 
Q 2072 2653 2494 2234 
z
" transform="scale(0.015625)"/>
      <path id="IPAexGothic-985e" d="M 1575 3238 
Q 1153 2647 513 2213 
L 256 2547 
Q 953 2959 1416 3572 
L 1447 3609 
L 366 3609 
L 366 3981 
L 1575 3981 
L 1575 5313 
L 1978 5313 
L 1978 3981 
L 3109 3981 
L 3109 3609 
L 1978 3609 
L 1978 3425 
Q 2581 3147 3059 2791 
L 2809 2406 
Q 2469 2747 1978 3059 
L 1978 2388 
L 1575 2388 
L 1575 3238 
z
M 4616 4025 
L 5709 4025 
L 5709 794 
L 3400 794 
L 3400 4025 
L 4219 4025 
Q 4284 4284 4353 4659 
L 3094 4659 
L 3094 5056 
L 6022 5056 
L 6022 4659 
L 4800 4659 
Q 4797 4638 4769 4538 
Q 4719 4309 4616 4025 
z
M 5300 3653 
L 3809 3653 
L 3809 3078 
L 5300 3078 
L 5300 3653 
z
M 3809 2713 
L 3809 2138 
L 5300 2138 
L 5300 2713 
L 3809 2713 
z
M 3809 1778 
L 3809 1166 
L 5300 1166 
L 5300 1778 
L 3809 1778 
z
M 1569 1691 
L 1569 2197 
L 1991 2197 
L 1991 1691 
L 3072 1691 
L 3072 1306 
L 1978 1306 
Q 1969 1178 1938 1081 
Q 2447 744 2944 256 
L 2625 -88 
Q 2247 375 1825 719 
Q 1525 -28 678 -497 
L 384 -153 
Q 1416 338 1550 1306 
L 366 1306 
L 366 1691 
L 1569 1691 
z
M 897 4072 
Q 706 4600 500 4916 
L 884 5088 
Q 1091 4756 1300 4238 
L 897 4072 
z
M 2200 4219 
Q 2456 4659 2578 5100 
L 2994 4978 
Q 2819 4509 2541 4072 
L 2200 4219 
z
M 5753 -422 
Q 5344 47 4728 525 
L 5044 756 
Q 5566 413 6138 -116 
L 5753 -422 
z
M 2809 -178 
Q 3488 169 3981 750 
L 4338 506 
Q 3831 -88 3122 -500 
L 2809 -178 
z
" transform="scale(0.015625)"/>
      <path id="IPAexGothic-3069" d="M 5222 56 
Q 4200 -72 3450 -72 
Q 2478 -72 1941 113 
Q 1184 372 1184 1038 
Q 1184 1584 1594 2009 
Q 1941 2369 2656 2725 
Q 2231 3734 1972 4878 
L 2491 4978 
Q 2706 3884 3078 2950 
Q 4250 3447 4756 3616 
L 4978 3150 
Q 3181 2575 2409 2078 
Q 1691 1613 1691 1113 
Q 1691 403 3322 403 
Q 4125 403 5134 563 
L 5222 56 
z
M 5778 4153 
Q 5419 4697 5025 5025 
L 5325 5253 
Q 5709 4944 6100 4428 
L 5778 4153 
z
M 5184 3688 
Q 4894 4175 4447 4575 
L 4763 4819 
Q 5134 4513 5516 3963 
L 5184 3688 
z
" transform="scale(0.015625)"/>
      <path id="IPAexGothic-3046" d="M 3897 4025 
Q 3203 4456 2144 4728 
L 2381 5166 
Q 3353 4928 4166 4481 
L 3897 4025 
z
M 1172 3050 
Q 2872 3628 3566 3628 
Q 4269 3628 4603 3181 
Q 4847 2850 4847 2253 
Q 4847 372 2619 -275 
L 2278 159 
Q 3356 397 3881 994 
Q 4328 1503 4328 2228 
Q 4328 3181 3534 3181 
Q 2909 3181 1397 2553 
L 1172 3050 
z
" transform="scale(0.015625)"/>
      <path id="IPAexGothic-9593" d="M 4450 2566 
L 4450 353 
L 2375 353 
L 2375 -25 
L 1953 -25 
L 1953 2566 
L 4450 2566 
z
M 4028 2200 
L 2375 2200 
L 2375 1653 
L 4028 1653 
L 4028 2200 
z
M 4028 1300 
L 2375 1300 
L 2375 719 
L 4028 719 
L 4028 1300 
z
M 2913 5019 
L 2913 3059 
L 1056 3059 
L 1056 -447 
L 609 -447 
L 609 5019 
L 2913 5019 
z
M 1056 4659 
L 1056 4206 
L 2497 4206 
L 2497 4659 
L 1056 4659 
z
M 1056 3881 
L 1056 3413 
L 2497 3413 
L 2497 3881 
L 1056 3881 
z
M 5788 5019 
L 5788 91 
Q 5788 -225 5641 -331 
Q 5525 -409 5231 -409 
Q 4803 -409 4481 -366 
L 4419 97 
Q 4853 38 5128 38 
Q 5341 38 5341 244 
L 5341 3059 
L 3438 3059 
L 3438 5019 
L 5788 5019 
z
M 3853 4659 
L 3853 4206 
L 5341 4206 
L 5341 4659 
L 3853 4659 
z
M 3853 3881 
L 3853 3413 
L 5341 3413 
L 5341 3881 
L 3853 3881 
z
" transform="scale(0.015625)"/>
      <path id="IPAexGothic-9055" d="M 4494 2319 
L 4494 1947 
L 5728 1947 
L 5728 1606 
L 4494 1606 
L 4494 1184 
L 6009 1184 
L 6009 838 
L 4494 838 
L 4494 222 
L 4078 222 
L 4078 838 
L 1919 838 
L 1919 1184 
L 2719 1184 
L 2719 1606 
L 2206 1606 
L 2206 1947 
L 4078 1947 
L 4078 2319 
L 2534 2319 
L 2534 3359 
L 5331 3359 
L 5331 2319 
L 4494 2319 
z
M 4078 1184 
L 4078 1606 
L 3122 1606 
L 3122 1184 
L 4078 1184 
z
M 2938 3041 
L 2938 2638 
L 4928 2638 
L 4928 3041 
L 2938 3041 
z
M 1709 741 
Q 1938 444 2222 306 
Q 2653 94 3934 94 
Q 4900 94 6144 178 
Q 6025 -50 5978 -300 
Q 4969 -341 4359 -341 
Q 2788 -341 2222 -128 
Q 1781 34 1531 391 
Q 1125 -72 653 -453 
L 372 13 
Q 909 338 1275 666 
L 1275 2303 
L 378 2303 
L 378 2731 
L 1709 2731 
L 1709 741 
z
M 3113 4019 
Q 3141 4078 3259 4384 
L 2528 4384 
L 2528 4703 
L 3369 4703 
L 3388 4759 
Q 3478 5056 3534 5284 
L 3950 5222 
Q 3906 5025 3822 4781 
L 3803 4703 
L 5109 4703 
L 5109 4019 
L 5978 4019 
L 5978 3678 
L 1953 3678 
L 1953 4019 
L 3113 4019 
z
M 3688 4384 
L 3675 4341 
Q 3653 4278 3547 4019 
L 4706 4019 
L 4706 4384 
L 3688 4384 
z
M 1484 3775 
Q 1016 4344 525 4738 
L 838 5056 
Q 1413 4594 1825 4122 
L 1484 3775 
z
" transform="scale(0.015625)"/>
      <path id="IPAexGothic-3048" d="M 3797 4038 
Q 3144 4428 2013 4709 
L 2266 5106 
Q 3388 4838 4078 4469 
L 3797 4038 
z
M 1263 3347 
Q 2566 3428 3956 3641 
L 4291 3263 
Q 3759 2741 2875 1778 
Q 3156 1881 3356 1881 
Q 3909 1881 3919 1253 
L 3931 709 
Q 3941 456 4116 409 
Q 4244 372 4519 372 
Q 4944 372 5538 481 
L 5581 -31 
Q 5097 -103 4675 -103 
Q 4047 -103 3791 25 
Q 3484 178 3463 594 
L 3444 1094 
Q 3434 1491 3150 1491 
Q 2800 1491 2322 1072 
Q 1950 747 1109 -184 
L 738 166 
Q 2053 1434 3597 3181 
Q 2600 2988 1391 2841 
L 1263 3347 
z
" transform="scale(0.015625)"/>
      <path id="IPAexGothic-304b" d="M 659 3384 
Q 1434 3503 2113 3581 
Q 2313 4341 2394 4972 
L 2900 4875 
Q 2759 4147 2619 3628 
L 2719 3634 
Q 2894 3641 3041 3641 
Q 4072 3641 4072 2369 
Q 4072 1128 3700 384 
Q 3478 -56 3003 -56 
Q 2591 -56 2113 231 
L 2138 775 
Q 2631 444 2925 444 
Q 3169 444 3297 706 
Q 3566 1294 3566 2388 
Q 3566 3219 3016 3219 
Q 2825 3219 2497 3194 
Q 2388 2763 2113 2047 
Q 1634 797 1119 -38 
L 678 244 
Q 1356 1238 1863 2750 
Q 1888 2819 1991 3128 
Q 1594 3081 769 2916 
L 659 3384 
z
M 5644 1753 
Q 5072 3025 4238 3916 
L 4641 4184 
Q 5494 3275 6081 2094 
L 5644 1753 
z
" transform="scale(0.015625)"/>
      <path id="IPAexGothic-304c" d="M 659 3384 
Q 1434 3503 2113 3581 
Q 2313 4341 2394 4972 
L 2900 4875 
Q 2759 4147 2619 3628 
L 2719 3634 
Q 2894 3641 3041 3641 
Q 4072 3641 4072 2369 
Q 4072 1128 3700 384 
Q 3478 -56 3003 -56 
Q 2591 -56 2113 231 
L 2138 775 
Q 2631 444 2925 444 
Q 3169 444 3297 706 
Q 3566 1294 3566 2388 
Q 3566 3219 3016 3219 
Q 2825 3219 2497 3194 
Q 2388 2763 2113 2047 
Q 1634 797 1119 -38 
L 678 244 
Q 1356 1238 1863 2750 
Q 1888 2819 1991 3128 
Q 1594 3081 769 2916 
L 659 3384 
z
M 5441 1838 
Q 4913 3038 4091 3916 
L 4475 4184 
Q 5350 3269 5888 2156 
L 5441 1838 
z
M 5913 4275 
Q 5553 4819 5159 5147 
L 5459 5375 
Q 5844 5066 6234 4550 
L 5913 4275 
z
M 5344 3788 
Q 5053 4278 4609 4678 
L 4922 4922 
Q 5294 4613 5678 4063 
L 5344 3788 
z
" transform="scale(0.015625)"/>
      <path id="IPAexGothic-8981" d="M 2278 4025 
L 2278 4581 
L 528 4581 
L 528 4978 
L 5856 4978 
L 5856 4581 
L 4081 4581 
L 4081 4025 
L 5522 4025 
L 5522 2547 
L 863 2547 
L 863 4025 
L 2278 4025 
z
M 2694 4025 
L 3659 4025 
L 3659 4581 
L 2694 4581 
L 2694 4025 
z
M 2278 3666 
L 1316 3666 
L 1316 2906 
L 2278 2906 
L 2278 3666 
z
M 2694 3666 
L 2694 2906 
L 3659 2906 
L 3659 3666 
L 2694 3666 
z
M 4081 3666 
L 4081 2906 
L 5075 2906 
L 5075 3666 
L 4081 3666 
z
M 3066 338 
Q 2547 503 1694 722 
L 1503 775 
Q 1816 1141 2066 1503 
L 447 1503 
L 447 1900 
L 2316 1900 
Q 2497 2225 2641 2516 
L 3084 2366 
Q 2984 2172 2834 1900 
L 5950 1900 
L 5950 1503 
L 4619 1503 
Q 4369 878 3988 484 
Q 4750 263 5797 -91 
L 5413 -488 
Q 4441 -100 3597 172 
Q 2706 -406 869 -531 
L 625 -97 
Q 2122 -28 3066 338 
z
M 3513 619 
Q 3934 1025 4134 1503 
L 2597 1503 
Q 2413 1213 2238 984 
L 2213 953 
Q 2656 853 3513 619 
z
" transform="scale(0.015625)"/>
     </defs>
     <use xlink:href="#IPAexGothic-5bfe"/>
     <use xlink:href="#IPAexGothic-89d2" x="100"/>
     <use xlink:href="#IPAexGothic-6210" x="200"/>
     <use xlink:href="#IPAexGothic-5206" x="300"/>
     <use xlink:href="#IPAexGothic-ff08" x="400"/>
     <use xlink:href="#IPAexGothic-54" x="500"/>
     <use xlink:href="#IPAexGothic-50" x="559.912109"/>
     <use xlink:href="#IPAexGothic-20" x="622.021484"/>
     <use xlink:href="#IPAexGothic-2b" x="649.023438"/>
     <use xlink:href="#IPAexGothic-20" x="716.845703"/>
     <use xlink:href="#IPAexGothic-54" x="743.847656"/>
     <use xlink:href="#IPAexGothic-4e" x="803.759766"/>
     <use xlink:href="#IPAexGothic-ff09" x="879.736328"/>
     <use xlink:href="#IPAexGothic-3d" x="979.736328"/>
     <use xlink:href="#IPAexGothic-20" x="1047.558594"/>
     <use xlink:href="#IPAexGothic-6b63" x="1074.560547"/>
     <use xlink:href="#IPAexGothic-89e3" x="1174.560547"/>
     <use xlink:href="#IPAexGothic-3057" x="1274.560547"/>
     <use xlink:href="#IPAexGothic-305f" x="1374.560547"/>
     <use xlink:href="#IPAexGothic-4ef6" x="1474.560547"/>
     <use xlink:href="#IPAexGothic-6570" x="1574.560547"/>
     <use xlink:href="#IPAexGothic-3000" x="1674.560547"/>
     <use xlink:href="#IPAexGothic-5bfe" x="1774.560547"/>
     <use xlink:href="#IPAexGothic-89d2" x="1874.560547"/>
     <use xlink:href="#IPAexGothic-4ee5" x="1974.560547"/>
     <use xlink:href="#IPAexGothic-5916" x="2074.560547"/>
     <use xlink:href="#IPAexGothic-20" x="2174.560547"/>
     <use xlink:href="#IPAexGothic-3d" x="2201.5625"/>
     <use xlink:href="#IPAexGothic-20" x="2269.384766"/>
     <use xlink:href="#IPAexGothic-8aa4" x="2296.386719"/>
     <use xlink:href="#IPAexGothic-5206" x="2396.386719"/>
     <use xlink:href="#IPAexGothic-985e" x="2496.386719"/>
     <use xlink:href="#IPAexGothic-20" x="2596.386719"/>
     <use xlink:href="#IPAexGothic-2192" x="2623.388672"/>
     <use xlink:href="#IPAexGothic-20" x="2723.388672"/>
     <use xlink:href="#IPAexGothic-3069" x="2750.390625"/>
     <use xlink:href="#IPAexGothic-3046" x="2850.390625"/>
     <use xlink:href="#IPAexGothic-9593" x="2950.390625"/>
     <use xlink:href="#IPAexGothic-9055" x="3050.390625"/>
     <use xlink:href="#IPAexGothic-3048" x="3150.390625"/>
     <use xlink:href="#IPAexGothic-305f" x="3250.390625"/>
     <use xlink:href="#IPAexGothic-304b" x="3350.390625"/>
     <use xlink:href="#IPAexGothic-304c" x="3450.390625"/>
     <use xlink:href="#IPAexGothic-91cd" x="3550.390625"/>
     <use xlink:href="#IPAexGothic-8981" x="3650.390625"/>
    </g>
   </g>
  </g>
 </g>
 <defs>
  <clipPath id="p22dc4f15b5">
   <rect x="0" y="-0" width="691.2" height="388.8"/>
  </clipPath>
 </defs>
</svg>
