<?xml version="1.0" encoding="utf-8" standalone="no"?>
<!DOCTYPE svg PUBLIC "-//W3C//DTD SVG 1.1//EN"
  "http://www.w3.org/Graphics/SVG/1.1/DTD/svg11.dtd">
<svg xmlns:xlink="http://www.w3.org/1999/xlink" width="691.2pt" height="388.8pt" viewBox="0 0 691.2 388.8" xmlns="http://www.w3.org/2000/svg" version="1.1">
 <metadata>
  <rdf:RDF xmlns:dc="http://purl.org/dc/elements/1.1/" xmlns:cc="http://creativecommons.org/ns#" xmlns:rdf="http://www.w3.org/1999/02/22-rdf-syntax-ns#">
   <cc:Work>
    <dc:type rdf:resource="http://purl.org/dc/dcmitype/StillImage"/>
    <dc:date>2026-04-09T02:37:46.292249</dc:date>
    <dc:format>image/svg+xml</dc:format>
    <dc:creator>
     <cc:Agent>
      <dc:title>Matplotlib v3.9.4, https://matplotlib.org/</dc:title>
     </cc:Agent>
    </dc:creator>
   </cc:Work>
  </rdf:RDF>
 </metadata>
 <defs>
  <style type="text/css">*{stroke-linejoin: round; stroke-linecap: butt}</style>
 </defs>
 <g id="figure_1">
  <g id="patch_1">
   <path d="M 0 388.8 
L 691.2 388.8 
L 691.2 0 
L 0 0 
z
" style="fill: #ffffff"/>
  </g>
  <g id="axes_1">
   <g id="patch_2">
    <path d="M 0 -0 
L 691.2 -0 
L 691.2 24.48 
L 0 24.48 
z
" clip-path="url(#pf366e3b78e)" style="fill: #8e44ad"/>
   </g>
   <g id="patch_3">
    <path d="M 31.68 59.04 
L 659.52 59.04 
L 659.52 60.48 
L 31.68 60.48 
z
" clip-path="url(#pf366e3b78e)" style="fill: #ecf0f1"/>
   </g>
   <g id="patch_4">
    <path d="M 31.68 67.68 
L 339.84 67.68 
Q 344.16 67.68 344.16 72 
L 344.16 280.8 
Q 344.16 285.12 339.84 285.12 
L 31.68 285.12 
Q 27.36 285.12 27.36 280.8 
L 27.36 72 
Q 27.36 67.68 31.68 67.68 
z
" clip-path="url(#pf366e3b78e)" style="fill: #ebf5fb; stroke: #4a90d9; stroke-width: 2; stroke-linejoin: miter"/>
   </g>
   <g id="patch_5">
    <path d="M 351.36 67.68 
L 659.52 67.68 
Q 663.84 67.68 663.84 72 
L 663.84 280.8 
Q 663.84 285.12 659.52 285.12 
L 351.36 285.12 
Q 347.04 285.12 347.04 280.8 
L 347.04 72 
Q 347.04 67.68 351.36 67.68 
z
" clip-path="url(#pf366e3b78e)" style="fill: #fef9e7; stroke: #e8a838; stroke-width: 2; stroke-linejoin: miter"/>
   </g>
   <g id="patch_6">
    <path d="M 31.68 296.64 
L 659.52 296.64 
L 659.52 334.08 
L 31.68 334.08 
z
" clip-path="url(#pf366e3b78e)" style="fill: #eafaf1"/>
   </g>
   <g id="patch_7">
    <path d="M 31.68 296.64 
L 33.84 296.64 
L 33.84 334.08 
L 31.68 334.08 
z
" clip-path="url(#pf366e3b78e)" style="fill: #5ba85a"/>
   </g>
   <g id="text_1">
    <!-- まとめ・振り返り -->
    <g style="fill: #ffffff" transform="translate(31.68 15.035312) scale(0.1 -0.1)">
     <defs>
      <path id="IPAexGothic-307e" d="M 3538 5075 
L 3547 4141 
Q 4509 4203 5288 4341 
L 5325 3897 
Q 4744 3809 3553 3719 
L 3566 2925 
Q 4578 3022 5031 3103 
L 5063 2663 
Q 4519 2572 3578 2503 
L 3628 1403 
Q 4531 1128 5459 513 
L 5153 84 
Q 4656 456 3641 909 
Q 3669 331 3391 84 
Q 3116 -153 2559 -153 
Q 1900 -153 1522 72 
Q 1138 297 1138 719 
Q 1138 1163 1634 1413 
Q 1994 1594 2413 1594 
Q 2797 1594 3156 1538 
L 3109 2472 
Q 2641 2450 2413 2450 
Q 1931 2450 1422 2484 
L 1422 2919 
Q 1941 2872 2516 2872 
Q 2706 2872 3097 2894 
L 3072 3688 
Q 2381 3675 2344 3675 
Q 1794 3675 1075 3706 
L 1075 4141 
Q 1744 4097 2431 4097 
Q 2456 4097 3059 4109 
L 3041 5075 
L 3538 5075 
z
M 3163 1088 
Q 2713 1184 2394 1184 
Q 2094 1184 1875 1091 
Q 1606 975 1606 750 
Q 1606 484 1925 363 
Q 2156 275 2503 275 
Q 3163 275 3163 794 
L 3163 1088 
z
" transform="scale(0.015625)"/>
      <path id="IPAexGothic-3068" d="M 5222 56 
Q 4200 -72 3450 -72 
Q 2478 -72 1941 113 
Q 1184 372 1184 1038 
Q 1184 1584 1594 2009 
Q 1941 2369 2656 2725 
Q 2231 3734 1972 4878 
L 2491 4978 
Q 2706 3884 3078 2950 
Q 4250 3447 4756 3616 
L 4978 3150 
Q 3181 2575 2409 2078 
Q 1691 1613 1691 1113 
Q 1691 403 3322 403 
Q 4125 403 5134 563 
L 5222 56 
z
" transform="scale(0.015625)"/>
      <path id="IPAexGothic-3081" d="M 1588 4550 
Q 1709 3969 1881 3431 
Q 2488 3791 3309 3891 
Q 3444 4513 3488 4972 
L 3994 4878 
Q 3922 4456 3800 3897 
Q 4666 3838 5169 3397 
Q 5513 3103 5650 2753 
Q 5784 2413 5784 1900 
Q 5784 1081 5106 550 
Q 4500 75 3397 -128 
L 3103 331 
Q 4238 484 4784 944 
Q 5253 1334 5253 1913 
Q 5253 2428 5100 2725 
Q 4981 2963 4716 3156 
Q 4331 3441 3694 3500 
Q 3363 2388 2766 1428 
Q 2872 1241 3084 966 
L 2725 647 
Q 2597 813 2475 1019 
Q 1834 231 1313 231 
Q 966 231 756 556 
Q 544 884 544 1338 
Q 544 2300 1484 3156 
Q 1250 3903 1153 4353 
L 1588 4550 
z
M 1631 2725 
Q 991 2069 991 1378 
Q 991 738 1344 738 
Q 1709 738 2228 1428 
Q 1894 2025 1631 2725 
z
M 3206 3488 
Q 2519 3381 2009 3028 
Q 2266 2306 2516 1863 
Q 3003 2763 3206 3488 
z
" transform="scale(0.015625)"/>
      <path id="IPAexGothic-30fb" d="M 2772 2859 
L 3628 2859 
L 3628 2003 
L 2772 2003 
L 2772 2859 
z
" transform="scale(0.015625)"/>
      <path id="IPAexGothic-632f" d="M 1178 4013 
L 1178 5300 
L 1606 5300 
L 1606 4013 
L 2206 4013 
L 2206 3597 
L 1606 3597 
L 1606 2375 
Q 1856 2444 2238 2572 
L 2266 2216 
Q 1894 2066 1650 1991 
Q 1631 1984 1606 1972 
L 1606 0 
Q 1606 -272 1484 -363 
Q 1384 -447 1094 -447 
Q 797 -447 519 -409 
L 441 50 
Q 738 -6 972 -6 
Q 1178 -6 1178 172 
L 1178 1838 
Q 1138 1825 1106 1819 
Q 875 1744 403 1619 
L 275 2047 
Q 613 2116 1178 2259 
L 1178 3597 
L 372 3597 
L 372 4013 
L 1178 4013 
z
M 2925 4441 
L 2925 2681 
L 5984 2681 
L 5984 2284 
L 4647 2284 
Q 4703 1834 4872 1422 
Q 5303 1759 5600 2106 
L 5984 1803 
Q 5584 1431 5044 1069 
Q 5413 488 6088 13 
L 5747 -403 
Q 4394 691 4250 2284 
L 3816 2284 
L 3816 225 
Q 4256 328 4672 466 
L 4731 103 
Q 3981 -203 2988 -403 
L 2834 38 
Q 3172 88 3375 128 
L 3375 2284 
L 2925 2284 
Q 2906 1513 2809 1016 
Q 2656 250 2203 -416 
L 1863 -66 
Q 2300 547 2413 1428 
Q 2478 1928 2478 2809 
L 2478 4831 
L 5909 4831 
L 5909 4441 
L 2925 4441 
z
M 3153 3756 
L 5594 3756 
L 5594 3366 
L 3153 3366 
L 3153 3756 
z
" transform="scale(0.015625)"/>
      <path id="IPAexGothic-308a" d="M 2878 2925 
Q 2503 2294 2372 2041 
Q 2222 1750 2163 1459 
L 1716 1503 
Q 1509 2131 1509 3091 
Q 1509 3744 1663 4872 
L 2181 4806 
Q 2003 3541 2003 3016 
Q 2003 2613 2028 2259 
Q 2109 2413 2313 2766 
Q 2484 3063 2578 3238 
L 2878 2925 
z
M 2488 128 
Q 3534 503 3928 1184 
Q 4234 1713 4234 2975 
Q 4234 3872 4122 4928 
L 4666 4928 
Q 4759 3794 4759 2975 
Q 4759 1516 4356 844 
Q 3913 103 2853 -288 
L 2488 128 
z
" transform="scale(0.015625)"/>
      <path id="IPAexGothic-8fd4" d="M 1725 741 
Q 1925 450 2231 313 
Q 2719 88 3934 88 
Q 4734 88 6141 178 
Q 6022 -50 5975 -300 
Q 4919 -341 4388 -341 
Q 2944 -341 2378 -169 
Q 1816 6 1534 403 
Q 1091 -97 594 -469 
L 313 -6 
Q 847 291 1284 678 
L 1284 2303 
L 388 2303 
L 388 2731 
L 1725 2731 
L 1725 741 
z
M 3000 4500 
L 3000 3547 
L 5316 3547 
L 5559 3334 
Q 5263 2266 4734 1563 
Q 5306 1088 6034 813 
L 5741 409 
Q 4963 766 4453 1238 
Q 3950 713 3184 347 
L 2878 719 
Q 3619 978 4159 1538 
L 4141 1563 
Q 3578 2213 3281 3156 
L 3000 3156 
Q 2991 2234 2884 1678 
Q 2750 1016 2309 469 
L 1978 794 
Q 2363 1247 2475 1863 
Q 2559 2278 2559 2972 
L 2559 4903 
L 5822 4903 
L 5822 4500 
L 3000 4500 
z
M 4434 1856 
Q 4834 2400 5034 3156 
L 3697 3156 
Q 3959 2388 4434 1856 
z
M 1547 3775 
Q 1078 4353 588 4738 
L 900 5056 
Q 1525 4550 1894 4128 
L 1547 3775 
z
" transform="scale(0.015625)"/>
     </defs>
     <use xlink:href="#IPAexGothic-307e"/>
     <use xlink:href="#IPAexGothic-3068" x="100"/>
     <use xlink:href="#IPAexGothic-3081" x="200"/>
     <use xlink:href="#IPAexGothic-30fb" x="300"/>
     <use xlink:href="#IPAexGothic-632f" x="400"/>
     <use xlink:href="#IPAexGothic-308a" x="500"/>
     <use xlink:href="#IPAexGothic-8fd4" x="600"/>
     <use xlink:href="#IPAexGothic-308a" x="700"/>
    </g>
   </g>
   <g id="text_2">
    <!-- 生成AI活用の整理 -->
    <g style="fill: #1a1a2e" transform="translate(31.68 55.4175) scale(0.24 -0.24)">
     <defs>
      <path id="IPAexGothic-751f" d="M 1741 3822 
L 3022 3822 
L 3022 5250 
L 3509 5250 
L 3509 3822 
L 5628 3822 
L 5628 3406 
L 3509 3406 
L 3509 2125 
L 5366 2125 
L 5366 1709 
L 3509 1709 
L 3509 250 
L 5978 250 
L 5978 -166 
L 513 -166 
L 513 250 
L 3022 250 
L 3022 1709 
L 1263 1709 
L 1263 2125 
L 3022 2125 
L 3022 3406 
L 1563 3406 
Q 1266 2813 872 2350 
L 513 2688 
Q 1238 3519 1556 4834 
L 2022 4719 
Q 1894 4216 1741 3822 
z
" transform="scale(0.015625)"/>
      <path id="IPAexGothic-6210" d="M 4322 1650 
Q 4809 2375 5153 3309 
L 5563 3116 
Q 5159 2053 4566 1200 
Q 4881 675 5250 384 
Q 5388 275 5441 275 
Q 5544 275 5641 1119 
L 6063 875 
Q 5919 -328 5550 -328 
Q 5397 -328 5141 -150 
Q 4644 203 4250 806 
Q 3659 97 2825 -431 
L 2497 -59 
Q 3341 434 4009 1228 
Q 3491 2244 3272 3738 
L 1347 3738 
L 1347 2847 
L 2947 2847 
Q 2897 1366 2813 953 
Q 2706 453 2191 453 
Q 1900 453 1563 509 
L 1513 978 
Q 1981 888 2153 888 
Q 2350 888 2391 1100 
Q 2453 1416 2491 2463 
L 1347 2463 
L 1347 2303 
Q 1347 606 609 -438 
L 256 -78 
Q 878 772 878 2316 
L 878 4153 
L 3216 4153 
Q 3159 4672 3119 5291 
L 3594 5291 
Q 3619 4716 3681 4184 
L 5959 4184 
L 5959 3769 
L 3741 3769 
L 3759 3641 
Q 3956 2413 4322 1650 
z
M 4934 4225 
Q 4597 4656 4300 4897 
L 4659 5172 
Q 5003 4916 5319 4506 
L 4934 4225 
z
" transform="scale(0.015625)"/>
      <path id="IPAexGothic-41" d="M 4056 63 
L 3444 63 
L 2938 1409 
L 1100 1409 
L 603 63 
L -6 63 
L 1806 4666 
L 2259 4666 
L 4056 63 
z
M 2778 1863 
L 2316 3078 
Q 2125 3588 2028 4000 
L 2009 4000 
Q 1897 3563 1716 3078 
L 1263 1863 
L 2778 1863 
z
" transform="scale(0.015625)"/>
      <path id="IPAexGothic-49" d="M 1203 63 
L 634 63 
L 634 4634 
L 1203 4634 
L 1203 63 
z
" transform="scale(0.015625)"/>
      <path id="IPAexGothic-6d3b" d="M 4213 2028 
L 5550 2028 
L 5550 -450 
L 5097 -450 
L 5097 -97 
L 2913 -97 
L 2913 -450 
L 2459 -450 
L 2459 2028 
L 3759 2028 
L 3759 3034 
L 1959 3034 
L 1959 3438 
L 3759 3438 
L 3759 4359 
Q 3219 4272 2294 4175 
L 2088 4578 
Q 4038 4781 5231 5166 
L 5628 4769 
Q 4984 4581 4213 4438 
L 4213 3438 
L 6016 3438 
L 6016 3034 
L 4213 3034 
L 4213 2028 
z
M 5097 1631 
L 2913 1631 
L 2913 294 
L 5097 294 
L 5097 1631 
z
M 372 6 
Q 966 784 1472 1919 
L 1819 1556 
Q 1306 413 756 -409 
L 372 6 
z
M 1409 2381 
Q 950 2913 469 3238 
L 775 3609 
Q 1350 3200 1753 2759 
L 1409 2381 
z
M 1613 3859 
Q 1094 4425 691 4722 
L 1006 5069 
Q 1488 4731 1941 4250 
L 1613 3859 
z
" transform="scale(0.015625)"/>
      <path id="IPAexGothic-7528" d="M 5553 4891 
L 5553 203 
Q 5553 -53 5456 -169 
Q 5328 -316 4941 -316 
Q 4544 -316 4191 -275 
L 4113 203 
Q 4516 131 4875 131 
Q 5106 131 5106 372 
L 5106 1625 
L 3441 1625 
L 3441 -103 
L 3000 -103 
L 3000 1625 
L 1469 1625 
Q 1441 234 816 -488 
L 459 -134 
Q 1022 466 1022 1831 
L 1022 4891 
L 5553 4891 
z
M 1475 4500 
L 1475 3469 
L 3000 3469 
L 3000 4500 
L 1475 4500 
z
M 1475 3084 
L 1475 2009 
L 3000 2009 
L 3000 3084 
L 1475 3084 
z
M 5106 2009 
L 5106 3084 
L 3441 3084 
L 3441 2009 
L 5106 2009 
z
M 5106 3469 
L 5106 4500 
L 3441 4500 
L 3441 3469 
L 5106 3469 
z
" transform="scale(0.015625)"/>
      <path id="IPAexGothic-306e" d="M 3119 469 
Q 5275 766 5275 2425 
Q 5275 3453 4413 3925 
Q 4041 4116 3547 4159 
Q 3394 2525 2850 1400 
Q 2322 306 1722 306 
Q 1384 306 1084 666 
Q 609 1244 609 2003 
Q 609 3025 1397 3794 
Q 2184 4563 3431 4563 
Q 4306 4563 4928 4122 
Q 5813 3506 5813 2425 
Q 5813 438 3431 6 
L 3119 469 
z
M 3053 4147 
Q 2378 4044 1891 3641 
Q 1097 2981 1097 1991 
Q 1097 1366 1434 978 
Q 1581 813 1719 813 
Q 2022 813 2416 1625 
Q 2909 2638 3053 4147 
z
" transform="scale(0.015625)"/>
      <path id="IPAexGothic-6574" d="M 1694 2891 
Q 1297 2363 644 1997 
L 356 2328 
Q 1028 2625 1469 3097 
L 644 3097 
L 644 4191 
L 1694 4191 
L 1694 4497 
L 413 4497 
L 413 4838 
L 1694 4838 
L 1694 5313 
L 2109 5313 
L 2109 4838 
L 3372 4838 
L 3372 4497 
L 2109 4497 
L 2109 4191 
L 3181 4191 
L 3181 3097 
L 2109 3097 
L 2109 2963 
Q 2619 2838 3188 2559 
L 2913 2206 
Q 2616 2434 2109 2669 
L 2109 1972 
L 1694 1972 
L 1694 2891 
z
M 1706 3884 
L 1041 3884 
L 1041 3397 
L 1706 3397 
L 1706 3884 
z
M 2097 3884 
L 2097 3397 
L 2784 3397 
L 2784 3884 
L 2097 3884 
z
M 4453 3016 
Q 4150 3356 3909 3828 
Q 3791 3631 3591 3397 
L 3316 3719 
Q 3866 4425 4075 5363 
L 4509 5269 
Q 4422 4888 4313 4634 
L 5997 4634 
L 5997 4269 
L 5522 4269 
Q 5366 3559 4984 3034 
Q 5434 2663 6072 2419 
L 5797 2047 
Q 5184 2325 4728 2731 
Q 4266 2259 3525 1953 
L 3256 2297 
Q 3981 2534 4453 3016 
z
M 4691 3309 
Q 4978 3719 5106 4269 
L 4147 4269 
L 4116 4191 
Q 4316 3722 4691 3309 
z
M 3428 91 
L 6078 91 
L 6078 -288 
L 313 -288 
L 313 91 
L 1553 91 
L 1553 1088 
L 1994 1088 
L 1994 91 
L 2988 91 
L 2988 1413 
L 638 1413 
L 638 1784 
L 5759 1784 
L 5759 1413 
L 3428 1413 
L 3428 959 
L 5272 959 
L 5272 588 
L 3428 588 
L 3428 91 
z
" transform="scale(0.015625)"/>
      <path id="IPAexGothic-7406" d="M 1541 4397 
L 1541 3084 
L 2219 3084 
L 2219 2688 
L 1541 2688 
L 1541 1247 
Q 1919 1356 2397 1522 
L 2431 1144 
Q 1353 713 434 472 
L 263 909 
Q 763 1025 1113 1119 
L 1113 2688 
L 441 2688 
L 441 3084 
L 1113 3084 
L 1113 4397 
L 369 4397 
L 369 4800 
L 2347 4800 
L 2347 4397 
L 1541 4397 
z
M 5691 4991 
L 5691 2106 
L 4378 2106 
L 4378 1375 
L 5825 1375 
L 5825 984 
L 4378 984 
L 4378 206 
L 6081 206 
L 6081 -191 
L 2150 -191 
L 2150 206 
L 3944 206 
L 3944 984 
L 2559 984 
L 2559 1375 
L 3944 1375 
L 3944 2106 
L 2675 2106 
L 2675 4991 
L 5691 4991 
z
M 3091 4606 
L 3091 3750 
L 3956 3750 
L 3956 4606 
L 3091 4606 
z
M 3091 3378 
L 3091 2491 
L 3956 2491 
L 3956 3378 
L 3091 3378 
z
M 5275 2491 
L 5275 3378 
L 4366 3378 
L 4366 2491 
L 5275 2491 
z
M 5275 3750 
L 5275 4606 
L 4366 4606 
L 4366 3750 
L 5275 3750 
z
" transform="scale(0.015625)"/>
     </defs>
     <use xlink:href="#IPAexGothic-751f"/>
     <use xlink:href="#IPAexGothic-6210" x="100"/>
     <use xlink:href="#IPAexGothic-41" x="200"/>
     <use xlink:href="#IPAexGothic-49" x="263.720703"/>
     <use xlink:href="#IPAexGothic-6d3b" x="292.626953"/>
     <use xlink:href="#IPAexGothic-7528" x="392.626953"/>
     <use xlink:href="#IPAexGothic-306e" x="492.626953"/>
     <use xlink:href="#IPAexGothic-6574" x="592.626953"/>
     <use xlink:href="#IPAexGothic-7406" x="692.626953"/>
    </g>
   </g>
   <g id="text_3">
    <!-- 🤖 生成AIの役割 -->
    <g style="fill: #4a90d9" transform="translate(43.2 92.09) scale(0.13 -0.13)">
     <defs>
      <path id="IPAexGothic-1f916" d="M 5759 -641 
L 641 -641 
L 641 5503 
L 5759 5503 
L 5759 -641 
z
M 5216 5172 
L 1191 5172 
L 3206 2694 
L 5216 5172 
z
M 5428 -53 
L 5428 4903 
L 3419 2425 
L 5428 -53 
z
M 2988 2425 
L 972 4916 
L 972 -59 
L 2988 2425 
z
M 5209 -309 
L 3206 2163 
L 1197 -309 
L 5209 -309 
z
" transform="scale(0.015625)"/>
      <path id="IPAexGothic-20" transform="scale(0.015625)"/>
      <path id="IPAexGothic-5f79" d="M 1706 2753 
L 1706 -447 
L 1253 -447 
L 1253 2175 
Q 909 1803 594 1528 
L 300 1856 
Q 1225 2619 1878 3872 
L 2269 3675 
Q 1997 3178 1706 2753 
z
M 4800 4984 
L 4800 3463 
Q 4800 3322 4863 3294 
Q 4925 3269 5088 3269 
Q 5359 3269 5409 3384 
Q 5450 3509 5459 3850 
L 5466 3941 
L 5913 3800 
Q 5903 3150 5759 3006 
Q 5613 2859 5088 2859 
Q 4613 2859 4469 2956 
Q 4347 3041 4347 3244 
L 4347 4575 
L 3413 4575 
L 3413 4372 
Q 3413 3644 3163 3213 
Q 2981 2884 2550 2616 
L 2241 2975 
Q 2713 3244 2856 3684 
Q 2959 3984 2959 4466 
L 2959 4984 
L 4800 4984 
z
M 4434 747 
Q 5188 228 6016 50 
L 5703 -403 
Q 4844 -122 4116 447 
Q 3425 -166 2481 -506 
L 2181 -103 
Q 3088 147 3788 722 
Q 3166 1284 2816 2053 
L 2322 2053 
L 2322 2463 
L 5228 2463 
L 5466 2278 
Q 5072 1403 4434 747 
z
M 4109 1022 
Q 4631 1584 4831 2053 
L 3294 2053 
Q 3578 1503 4109 1022 
z
M 356 3684 
Q 1200 4275 1703 5138 
L 2097 4941 
Q 1531 4006 647 3359 
L 356 3684 
z
" transform="scale(0.015625)"/>
      <path id="IPAexGothic-5272" d="M 2325 4209 
L 2325 3713 
L 3272 3713 
L 3272 3381 
L 2325 3381 
L 2325 2950 
L 3494 2950 
L 3494 2619 
L 2325 2619 
L 2325 2175 
L 3956 2175 
L 3956 1809 
L 353 1809 
L 353 2175 
L 1909 2175 
L 1909 2619 
L 753 2619 
L 753 2950 
L 1909 2950 
L 1909 3381 
L 984 3381 
L 984 3713 
L 1909 3713 
L 1909 4209 
L 838 4209 
L 838 3609 
L 409 3609 
L 409 4569 
L 1903 4569 
L 1903 5313 
L 2338 5313 
L 2338 4569 
L 3872 4569 
L 3872 3609 
L 3444 3609 
L 3444 4209 
L 2325 4209 
z
M 3388 1397 
L 3388 -384 
L 2966 -384 
L 2966 -122 
L 1269 -122 
L 1269 -447 
L 847 -447 
L 847 1397 
L 3388 1397 
z
M 1269 1038 
L 1269 238 
L 2966 238 
L 2966 1038 
L 1269 1038 
z
M 4259 4550 
L 4700 4550 
L 4700 953 
L 4259 953 
L 4259 4550 
z
M 5403 5081 
L 5844 5081 
L 5844 159 
Q 5844 -106 5747 -231 
Q 5634 -372 5263 -372 
Q 4763 -372 4391 -325 
L 4303 141 
Q 4803 75 5206 75 
Q 5403 75 5403 300 
L 5403 5081 
z
" transform="scale(0.015625)"/>
     </defs>
     <use xlink:href="#IPAexGothic-1f916"/>
     <use xlink:href="#IPAexGothic-20" x="100"/>
     <use xlink:href="#IPAexGothic-751f" x="127.001953"/>
     <use xlink:href="#IPAexGothic-6210" x="227.001953"/>
     <use xlink:href="#IPAexGothic-41" x="327.001953"/>
     <use xlink:href="#IPAexGothic-49" x="390.722656"/>
     <use xlink:href="#IPAexGothic-306e" x="419.628906"/>
     <use xlink:href="#IPAexGothic-5f79" x="519.628906"/>
     <use xlink:href="#IPAexGothic-5272" x="619.628906"/>
    </g>
   </g>
   <g id="text_4">
    <!-- ・コードの書き方を教える -->
    <g style="fill: #2c3e50" transform="translate(47.52 109.414219) scale(0.115 -0.115)">
     <defs>
      <path id="IPAexGothic-30b3" d="M 1134 4213 
L 5166 4213 
L 5166 153 
L 4653 153 
L 4653 594 
L 1063 594 
L 1063 1088 
L 4653 1088 
L 4653 3725 
L 1134 3725 
L 1134 4213 
z
" transform="scale(0.015625)"/>
      <path id="IPAexGothic-30fc" d="M 588 2688 
L 5809 2688 
L 5809 2175 
L 588 2175 
L 588 2688 
z
" transform="scale(0.015625)"/>
      <path id="IPAexGothic-30c9" d="M 2247 4959 
L 2766 4959 
L 2766 3169 
Q 4050 2581 5178 1850 
L 4841 1331 
Q 3781 2138 2766 2650 
L 2766 -225 
L 2247 -225 
L 2247 4959 
z
M 5263 3847 
Q 4900 4388 4506 4716 
L 4806 4947 
Q 5191 4638 5581 4122 
L 5263 3847 
z
M 4666 3378 
Q 4375 3869 3931 4269 
L 4244 4513 
Q 4616 4206 5000 3653 
L 4666 3378 
z
" transform="scale(0.015625)"/>
      <path id="IPAexGothic-66f8" d="M 2953 4891 
L 2953 5313 
L 3397 5313 
L 3397 4891 
L 5169 4891 
L 5169 4213 
L 6006 4213 
L 6006 3866 
L 5169 3866 
L 5169 3166 
L 3397 3166 
L 3397 2828 
L 5597 2828 
L 5597 2475 
L 3397 2475 
L 3397 2144 
L 6078 2144 
L 6078 1791 
L 319 1791 
L 319 2144 
L 2953 2144 
L 2953 2475 
L 797 2475 
L 797 2828 
L 2953 2828 
L 2953 3166 
L 1125 3166 
L 1125 3506 
L 2953 3506 
L 2953 3866 
L 381 3866 
L 381 4213 
L 2953 4213 
L 2953 4550 
L 1125 4550 
L 1125 4891 
L 2953 4891 
z
M 4728 4550 
L 3397 4550 
L 3397 4213 
L 4728 4213 
L 4728 4550 
z
M 4728 3866 
L 3397 3866 
L 3397 3506 
L 4728 3506 
L 4728 3866 
z
M 5253 1506 
L 5253 -450 
L 4800 -450 
L 4800 -225 
L 1572 -225 
L 1572 -450 
L 1119 -450 
L 1119 1506 
L 5253 1506 
z
M 1572 1166 
L 1572 825 
L 4800 825 
L 4800 1166 
L 1572 1166 
z
M 1572 500 
L 1572 134 
L 4800 134 
L 4800 500 
L 1572 500 
z
" transform="scale(0.015625)"/>
      <path id="IPAexGothic-304d" d="M 2944 1600 
Q 2369 1600 2053 1428 
Q 1772 1275 1772 1019 
Q 1772 666 2200 481 
Q 2600 309 3903 309 
Q 4138 309 4397 331 
L 4422 -147 
Q 4203 -166 3969 -166 
Q 2325 -166 1819 141 
Q 1313 444 1313 994 
Q 1313 1447 1791 1738 
Q 2219 1997 2859 1997 
Q 3319 1997 3606 1947 
Q 3894 1894 4216 1759 
Q 3953 2050 3506 2791 
Q 2263 2547 1191 2491 
L 1094 2956 
Q 2263 2966 3281 3175 
Q 3019 3647 2950 3794 
Q 2125 3641 1253 3622 
L 1166 4063 
Q 2013 4063 2750 4184 
Q 2478 4744 2381 4984 
L 2841 5131 
Q 2925 4916 3213 4281 
Q 3888 4438 4459 4709 
L 4672 4313 
Q 4119 4056 3409 3891 
Q 3638 3447 3738 3284 
Q 4528 3503 5113 3794 
L 5331 3366 
Q 4738 3094 3953 2900 
Q 4272 2366 4903 1484 
L 4575 1147 
Q 3888 1600 2944 1600 
z
" transform="scale(0.015625)"/>
      <path id="IPAexGothic-65b9" d="M 2931 3750 
L 2925 3616 
Q 2916 3203 2872 2778 
L 5244 2778 
Q 5175 781 5000 156 
Q 4913 -144 4691 -247 
Q 4528 -325 4194 -325 
Q 3759 -325 3256 -263 
L 3144 269 
Q 3700 156 4141 156 
Q 4491 156 4556 463 
Q 4725 1197 4744 2350 
L 2822 2350 
Q 2822 2313 2816 2288 
Q 2538 428 916 -484 
L 563 -94 
Q 1859 491 2247 1869 
Q 2422 2488 2450 3750 
L 409 3750 
L 409 4178 
L 2931 4178 
L 2931 5175 
L 3431 5175 
L 3431 4178 
L 5984 4178 
L 5984 3750 
L 2931 3750 
z
" transform="scale(0.015625)"/>
      <path id="IPAexGothic-3092" d="M 1094 4263 
Q 1544 4222 2359 4222 
Q 2581 4734 2700 5163 
L 3175 5028 
Q 2997 4538 2859 4256 
Q 3516 4284 4294 4459 
L 4356 4019 
Q 3603 3869 2656 3819 
Q 2391 3284 2059 2797 
Q 2531 3200 2963 3200 
Q 3638 3200 3859 2378 
Q 4556 2681 5338 2950 
L 5575 2528 
Q 4641 2253 3941 1956 
Q 3981 1678 3994 1028 
L 3513 991 
Q 3513 1456 3494 1753 
Q 2388 1194 2388 716 
Q 2388 428 2753 328 
Q 3066 241 3806 241 
Q 4394 241 5178 344 
L 5216 -128 
Q 4434 -213 3653 -213 
Q 2656 -213 2244 41 
Q 1913 244 1913 631 
Q 1913 1094 2344 1497 
Q 2709 1841 3428 2181 
Q 3266 2797 2878 2797 
Q 2238 2797 1209 1419 
L 838 1694 
Q 1625 2716 2163 3800 
Q 1522 3800 1088 3825 
L 1094 4263 
z
" transform="scale(0.015625)"/>
      <path id="IPAexGothic-6559" d="M 5506 3775 
Q 5400 2269 4872 1203 
Q 5356 556 6138 63 
L 5825 -384 
Q 5178 100 4647 806 
Q 4178 88 3341 -459 
L 3028 -72 
Q 3913 416 4378 1191 
Q 3972 1819 3772 2738 
Q 3606 2363 3388 1988 
L 3088 2328 
L 3053 2297 
Q 2713 1947 2209 1572 
L 2209 1350 
Q 2878 1444 3400 1547 
L 3419 1191 
Q 2709 1038 2209 959 
L 2209 6 
Q 2209 -275 2063 -381 
Q 1938 -459 1647 -459 
Q 1328 -459 1025 -416 
L 972 44 
Q 1300 -31 1575 -31 
Q 1794 -31 1794 172 
L 1794 894 
Q 1350 834 506 747 
L 391 1150 
Q 1106 1209 1738 1284 
L 1794 1291 
L 1794 1688 
Q 2222 1991 2428 2213 
L 1447 2213 
Q 938 1766 475 1478 
L 213 1803 
Q 1041 2263 1788 3084 
L 281 3084 
L 281 3469 
L 1453 3469 
L 1453 4172 
L 591 4172 
L 591 4544 
L 1494 4544 
L 1494 5313 
L 1909 5313 
L 1909 4544 
L 2613 4544 
L 2613 4209 
Q 2803 4534 3009 5044 
L 3406 4856 
Q 3056 4116 2619 3506 
L 3278 3506 
L 3278 3122 
L 2325 3122 
Q 2156 2913 1844 2591 
L 2894 2591 
L 3094 2372 
Q 3488 3056 3688 3878 
Q 3813 4403 3931 5288 
L 4366 5203 
Q 4263 4491 4200 4197 
L 6009 4197 
L 6009 3775 
L 5506 3775 
z
M 5063 3775 
L 4103 3775 
Q 4091 3731 4056 3591 
Q 4031 3494 4016 3438 
Q 4200 2344 4603 1625 
Q 4938 2422 5063 3775 
z
M 2588 4172 
L 1869 4172 
L 1869 3469 
L 2113 3469 
Q 2384 3816 2588 4172 
z
" transform="scale(0.015625)"/>
      <path id="IPAexGothic-3048" d="M 3797 4038 
Q 3144 4428 2013 4709 
L 2266 5106 
Q 3388 4838 4078 4469 
L 3797 4038 
z
M 1263 3347 
Q 2566 3428 3956 3641 
L 4291 3263 
Q 3759 2741 2875 1778 
Q 3156 1881 3356 1881 
Q 3909 1881 3919 1253 
L 3931 709 
Q 3941 456 4116 409 
Q 4244 372 4519 372 
Q 4944 372 5538 481 
L 5581 -31 
Q 5097 -103 4675 -103 
Q 4047 -103 3791 25 
Q 3484 178 3463 594 
L 3444 1094 
Q 3434 1491 3150 1491 
Q 2800 1491 2322 1072 
Q 1950 747 1109 -184 
L 738 166 
Q 2053 1434 3597 3181 
Q 2600 2988 1391 2841 
L 1263 3347 
z
" transform="scale(0.015625)"/>
      <path id="IPAexGothic-308b" d="M 4391 4397 
L 2613 2588 
Q 3225 2809 3759 2809 
Q 4263 2809 4659 2625 
Q 5391 2269 5391 1484 
Q 5391 756 4706 275 
Q 4072 -166 3053 -166 
Q 2559 -166 2247 19 
Q 1863 250 1863 666 
Q 1863 934 2069 1141 
Q 2331 1403 2741 1403 
Q 3509 1403 4019 428 
Q 4872 784 4872 1491 
Q 4872 1981 4469 2222 
Q 4166 2406 3681 2406 
Q 2425 2406 1238 1209 
L 891 1581 
Q 2438 2934 3578 4281 
Q 2594 4125 1588 4066 
L 1478 4550 
Q 2594 4581 4109 4763 
L 4391 4397 
z
M 3591 303 
Q 3244 1025 2731 1025 
Q 2553 1025 2434 934 
Q 2316 844 2316 700 
Q 2316 250 3034 250 
Q 3275 250 3591 303 
z
" transform="scale(0.015625)"/>
     </defs>
     <use xlink:href="#IPAexGothic-30fb"/>
     <use xlink:href="#IPAexGothic-30b3" x="100"/>
     <use xlink:href="#IPAexGothic-30fc" x="200"/>
     <use xlink:href="#IPAexGothic-30c9" x="300"/>
     <use xlink:href="#IPAexGothic-306e" x="400"/>
     <use xlink:href="#IPAexGothic-66f8" x="500"/>
     <use xlink:href="#IPAexGothic-304d" x="600"/>
     <use xlink:href="#IPAexGothic-65b9" x="700"/>
     <use xlink:href="#IPAexGothic-3092" x="800"/>
     <use xlink:href="#IPAexGothic-6559" x="900"/>
     <use xlink:href="#IPAexGothic-3048" x="1000"/>
     <use xlink:href="#IPAexGothic-308b" x="1100"/>
    </g>
   </g>
   <g id="text_5">
    <!-- ・エラーメッセージを修正する -->
    <g style="fill: #2c3e50" transform="translate(47.52 128.134219) scale(0.115 -0.115)">
     <defs>
      <path id="IPAexGothic-30a8" d="M 1109 4063 
L 5294 4063 
L 5294 3594 
L 3444 3594 
L 3444 988 
L 5759 988 
L 5759 513 
L 641 513 
L 641 988 
L 2913 988 
L 2913 3594 
L 1109 3594 
L 1109 4063 
z
" transform="scale(0.015625)"/>
      <path id="IPAexGothic-30e9" d="M 1447 4709 
L 4922 4709 
L 4922 4234 
L 1447 4234 
L 1447 4709 
z
M 897 3303 
L 5172 3303 
L 5478 3013 
Q 5069 1669 4219 875 
Q 3475 181 2306 -181 
L 1972 294 
Q 4150 784 4834 2828 
L 897 2828 
L 897 3303 
z
" transform="scale(0.015625)"/>
      <path id="IPAexGothic-30e1" d="M 2041 3641 
Q 2678 3259 3359 2747 
Q 3906 3678 4281 4819 
L 4784 4609 
Q 4347 3384 3756 2425 
Q 4225 2031 4925 1369 
L 4544 972 
Q 4031 1519 3475 1997 
Q 2522 650 1259 -172 
L 863 206 
Q 2197 1006 3091 2328 
Q 2456 2844 1700 3263 
L 2041 3641 
z
" transform="scale(0.015625)"/>
      <path id="IPAexGothic-30c3" d="M 1775 1984 
Q 1553 2666 1275 3175 
L 1716 3391 
Q 2034 2866 2247 2209 
L 1775 1984 
z
M 3003 2297 
Q 2813 2978 2522 3469 
L 2978 3681 
Q 3291 3166 3484 2522 
L 3003 2297 
z
M 1928 372 
Q 3094 744 3731 1569 
Q 4275 2263 4469 3525 
L 4975 3406 
Q 4734 1975 4016 1119 
Q 3406 391 2266 -44 
L 1928 372 
z
" transform="scale(0.015625)"/>
      <path id="IPAexGothic-30bb" d="M 2059 4878 
L 2584 4878 
L 2584 3397 
L 5291 3731 
L 5606 3444 
Q 4838 2313 4006 1556 
L 3569 1875 
Q 4297 2459 4844 3231 
L 2584 2931 
L 2584 978 
Q 2584 734 2738 669 
Q 2922 584 3616 584 
Q 4419 584 5425 697 
L 5444 172 
Q 4563 103 3844 103 
Q 2678 103 2359 256 
Q 2059 403 2059 863 
L 2059 2859 
L 638 2675 
L 588 3150 
L 2059 3334 
L 2059 4878 
z
" transform="scale(0.015625)"/>
      <path id="IPAexGothic-30b8" d="M 2759 3481 
Q 2150 4006 1544 4309 
L 1844 4731 
Q 2434 4441 3100 3931 
L 2759 3481 
z
M 1094 447 
Q 3875 1041 5269 3475 
L 5619 3078 
Q 4228 650 1416 -50 
L 1094 447 
z
M 2003 2228 
Q 1397 2747 763 3059 
L 1063 3488 
Q 1738 3159 2338 2675 
L 2003 2228 
z
M 5594 4219 
Q 5234 4759 4841 5088 
L 5141 5319 
Q 5525 5009 5916 4494 
L 5594 4219 
z
M 5000 3750 
Q 4709 4241 4263 4641 
L 4578 4884 
Q 4947 4575 5331 4025 
L 5000 3750 
z
" transform="scale(0.015625)"/>
      <path id="IPAexGothic-4fee" d="M 4581 3263 
Q 5253 2856 6113 2622 
L 5813 2206 
Q 4972 2503 4269 2981 
Q 3522 2394 2534 2053 
L 2284 2409 
Q 3244 2684 3944 3231 
Q 3441 3625 3200 4009 
Q 3156 3950 3109 3875 
Q 2872 3525 2559 3231 
L 2303 3575 
Q 3025 4278 3322 5325 
L 3756 5228 
Q 3616 4809 3513 4594 
L 5875 4594 
L 5875 4216 
L 5263 4216 
Q 4988 3666 4581 3263 
z
M 4244 3494 
Q 4603 3834 4781 4216 
L 3500 4216 
Q 3813 3803 4244 3494 
z
M 1394 3809 
L 1394 -447 
L 966 -447 
L 966 2791 
Q 738 2344 484 1972 
L 250 2369 
Q 963 3488 1375 5319 
L 1809 5209 
Q 1625 4463 1394 3809 
z
M 2572 1678 
Q 3691 1934 4456 2591 
L 4769 2328 
Q 3988 1634 2816 1319 
L 2572 1678 
z
M 1806 4191 
L 2241 4191 
L 2241 331 
L 1806 331 
L 1806 4191 
z
M 2706 856 
Q 4109 1156 5031 2028 
L 5381 1772 
Q 4384 834 2950 469 
L 2706 856 
z
M 2675 -19 
Q 4516 306 5613 1453 
L 5997 1191 
Q 4759 -56 2925 -428 
L 2675 -19 
z
" transform="scale(0.015625)"/>
      <path id="IPAexGothic-6b63" d="M 3547 409 
L 5916 409 
L 5916 -31 
L 481 -31 
L 481 409 
L 1441 409 
L 1441 3231 
L 1934 3231 
L 1934 409 
L 3059 409 
L 3059 4288 
L 750 4288 
L 750 4728 
L 5659 4728 
L 5659 4288 
L 3547 4288 
L 3547 2669 
L 5353 2669 
L 5353 2241 
L 3547 2241 
L 3547 409 
z
" transform="scale(0.015625)"/>
      <path id="IPAexGothic-3059" d="M 3322 5075 
L 3816 5075 
L 3816 4063 
Q 4131 4075 5756 4116 
L 5756 3669 
Q 5431 3672 3816 3653 
L 3816 2463 
Q 3956 2125 3956 1741 
Q 3956 922 3519 397 
Q 3128 -72 2309 -409 
L 1941 -31 
Q 3263 453 3488 1363 
Q 3250 1031 2809 1031 
Q 2441 1031 2150 1313 
Q 1875 1588 1875 2050 
Q 1875 2475 2166 2769 
Q 2431 3041 2822 3041 
Q 3088 3041 3322 2881 
L 3322 3641 
Q 3000 3634 609 3547 
L 609 3988 
Q 1197 4000 2106 4022 
Q 3066 4047 3322 4050 
L 3322 5075 
z
M 3372 2044 
Q 3372 2300 3194 2478 
Q 3050 2613 2869 2613 
Q 2622 2613 2463 2406 
Q 2344 2250 2344 2088 
Q 2344 1797 2484 1622 
Q 2625 1453 2859 1453 
Q 3372 1453 3372 2044 
z
" transform="scale(0.015625)"/>
     </defs>
     <use xlink:href="#IPAexGothic-30fb"/>
     <use xlink:href="#IPAexGothic-30a8" x="100"/>
     <use xlink:href="#IPAexGothic-30e9" x="200"/>
     <use xlink:href="#IPAexGothic-30fc" x="300"/>
     <use xlink:href="#IPAexGothic-30e1" x="400"/>
     <use xlink:href="#IPAexGothic-30c3" x="500"/>
     <use xlink:href="#IPAexGothic-30bb" x="600"/>
     <use xlink:href="#IPAexGothic-30fc" x="700"/>
     <use xlink:href="#IPAexGothic-30b8" x="800"/>
     <use xlink:href="#IPAexGothic-3092" x="900"/>
     <use xlink:href="#IPAexGothic-4fee" x="1000"/>
     <use xlink:href="#IPAexGothic-6b63" x="1100"/>
     <use xlink:href="#IPAexGothic-3059" x="1200"/>
     <use xlink:href="#IPAexGothic-308b" x="1300"/>
    </g>
   </g>
   <g id="text_6">
    <!-- ・ライブラリのオプションを調べる -->
    <g style="fill: #2c3e50" transform="translate(47.52 146.994375) scale(0.115 -0.115)">
     <defs>
      <path id="IPAexGothic-30a4" d="M 3131 -231 
L 3131 2875 
Q 2091 2088 1106 1656 
L 781 2059 
Q 3016 3000 4469 4916 
L 4916 4641 
Q 4384 3938 3675 3316 
L 3675 -231 
L 3131 -231 
z
" transform="scale(0.015625)"/>
      <path id="IPAexGothic-30d6" d="M 4806 4250 
L 5106 3975 
Q 4866 2353 4063 1356 
Q 3275 384 1869 -141 
L 1503 306 
Q 4050 1084 4531 3775 
L 947 3713 
L 947 4197 
L 4806 4250 
z
M 6047 4475 
Q 5688 5016 5294 5344 
L 5594 5575 
Q 5978 5266 6369 4750 
L 6047 4475 
z
M 5453 4006 
Q 5163 4497 4716 4897 
L 5031 5141 
Q 5400 4831 5784 4281 
L 5453 4006 
z
" transform="scale(0.015625)"/>
      <path id="IPAexGothic-30ea" d="M 1678 4788 
L 2222 4788 
L 2222 1900 
L 1678 1900 
L 1678 4788 
z
M 4084 4909 
L 4628 4909 
L 4628 2753 
Q 4628 1563 4150 794 
Q 3725 119 2772 -353 
L 2394 78 
Q 3334 494 3706 1094 
Q 4084 1703 4084 2725 
L 4084 4909 
z
" transform="scale(0.015625)"/>
      <path id="IPAexGothic-30aa" d="M 3578 5000 
L 4078 5000 
L 4109 3719 
L 5678 3719 
L 5678 3272 
L 4122 3272 
L 4188 397 
Q 4197 -147 3553 -147 
Q 3125 -147 2663 -69 
L 2553 463 
Q 3088 359 3425 359 
Q 3688 359 3688 616 
L 3663 2288 
L 3681 3106 
Q 3203 2188 2456 1469 
Q 1791 828 994 425 
L 634 834 
Q 2294 1588 3303 3272 
L 878 3272 
L 878 3719 
L 3609 3719 
L 3578 5000 
z
" transform="scale(0.015625)"/>
      <path id="IPAexGothic-30d7" d="M 4825 4275 
L 5125 4000 
Q 4884 2378 4081 1381 
Q 3294 413 1888 -116 
L 1522 331 
Q 4069 1113 4550 3803 
L 966 3738 
L 966 4225 
L 4825 4275 
z
M 5597 5509 
Q 5906 5509 6119 5275 
Q 6303 5075 6303 4806 
Q 6303 4494 6069 4281 
Q 5866 4097 5597 4097 
Q 5284 4097 5072 4331 
Q 4888 4534 4888 4806 
Q 4888 5116 5122 5328 
Q 5328 5509 5597 5509 
z
M 5597 5228 
Q 5409 5228 5278 5088 
Q 5169 4966 5169 4806 
Q 5169 4616 5309 4488 
Q 5434 4378 5597 4378 
Q 5784 4378 5913 4519 
Q 6022 4641 6022 4806 
Q 6022 4991 5881 5119 
Q 5759 5228 5597 5228 
z
" transform="scale(0.015625)"/>
      <path id="IPAexGothic-30b7" d="M 2828 3531 
Q 2219 4056 1613 4359 
L 1913 4781 
Q 2503 4491 3169 3981 
L 2828 3531 
z
M 1163 500 
Q 3944 1094 5338 3525 
L 5688 3128 
Q 4297 700 1484 0 
L 1163 500 
z
M 2072 2278 
Q 1466 2800 831 3109 
L 1131 3541 
Q 1806 3213 2406 2725 
L 2072 2278 
z
" transform="scale(0.015625)"/>
      <path id="IPAexGothic-30e7" d="M 1625 3469 
L 4653 3469 
L 4653 0 
L 4172 0 
L 4172 294 
L 1553 294 
L 1553 753 
L 4172 753 
L 4172 1734 
L 1766 1734 
L 1766 2169 
L 4172 2169 
L 4172 3028 
L 1625 3028 
L 1625 3469 
z
" transform="scale(0.015625)"/>
      <path id="IPAexGothic-30f3" d="M 2444 3084 
Q 1816 3656 1056 4084 
L 1381 4519 
Q 2063 4191 2816 3559 
L 2444 3084 
z
M 1100 609 
Q 3984 1106 5216 3828 
L 5619 3469 
Q 4413 794 1434 103 
L 1100 609 
z
" transform="scale(0.015625)"/>
      <path id="IPAexGothic-8abf" d="M 5081 2247 
L 5081 775 
L 3806 775 
L 3806 428 
L 3422 428 
L 3422 2247 
L 5081 2247 
z
M 3806 1906 
L 3806 1116 
L 4697 1116 
L 4697 1906 
L 3806 1906 
z
M 2175 1684 
L 2175 -72 
L 894 -72 
L 894 -450 
L 484 -450 
L 484 1684 
L 2175 1684 
z
M 894 1313 
L 894 300 
L 1772 300 
L 1772 1313 
L 894 1313 
z
M 5875 4984 
L 5875 128 
Q 5875 -353 5397 -353 
Q 5084 -353 4672 -313 
L 4603 128 
Q 4966 69 5241 69 
Q 5453 69 5453 281 
L 5453 4600 
L 3078 4600 
L 3078 3025 
Q 3078 1475 3000 831 
Q 2913 59 2606 -513 
L 2241 -213 
Q 2528 366 2606 1203 
Q 2663 1778 2663 2803 
L 2663 4984 
L 5875 4984 
z
M 4044 3897 
L 4044 4428 
L 4441 4428 
L 4441 3897 
L 5150 3897 
L 5150 3544 
L 4441 3544 
L 4441 3009 
L 5266 3009 
L 5266 2663 
L 3269 2663 
L 3269 3009 
L 4044 3009 
L 4044 3544 
L 3378 3544 
L 3378 3897 
L 4044 3897 
z
M 569 5044 
L 2097 5044 
L 2097 4659 
L 569 4659 
L 569 5044 
z
M 313 4206 
L 2366 4206 
L 2366 3816 
L 313 3816 
L 313 4206 
z
M 569 3359 
L 2097 3359 
L 2097 2975 
L 569 2975 
L 569 3359 
z
M 569 2522 
L 2097 2522 
L 2097 2138 
L 569 2138 
L 569 2522 
z
" transform="scale(0.015625)"/>
      <path id="IPAexGothic-3079" d="M 416 1894 
Q 1328 2553 2194 3525 
Q 2394 3744 2578 3744 
Q 2766 3744 3022 3488 
Q 4488 2019 5991 1291 
L 5631 819 
Q 4103 1722 2872 2944 
Q 2675 3141 2572 3141 
Q 2478 3141 2297 2928 
Q 1503 2041 734 1431 
L 416 1894 
z
M 5288 3713 
Q 4925 4253 4531 4581 
L 4831 4813 
Q 5216 4503 5606 3988 
L 5288 3713 
z
M 4691 3244 
Q 4400 3734 3956 4134 
L 4269 4375 
Q 4641 4069 5025 3519 
L 4691 3244 
z
" transform="scale(0.015625)"/>
     </defs>
     <use xlink:href="#IPAexGothic-30fb"/>
     <use xlink:href="#IPAexGothic-30e9" x="100"/>
     <use xlink:href="#IPAexGothic-30a4" x="200"/>
     <use xlink:href="#IPAexGothic-30d6" x="300"/>
     <use xlink:href="#IPAexGothic-30e9" x="400"/>
     <use xlink:href="#IPAexGothic-30ea" x="500"/>
     <use xlink:href="#IPAexGothic-306e" x="600"/>
     <use xlink:href="#IPAexGothic-30aa" x="700"/>
     <use xlink:href="#IPAexGothic-30d7" x="800"/>
     <use xlink:href="#IPAexGothic-30b7" x="900"/>
     <use xlink:href="#IPAexGothic-30e7" x="1000"/>
     <use xlink:href="#IPAexGothic-30f3" x="1100"/>
     <use xlink:href="#IPAexGothic-3092" x="1200"/>
     <use xlink:href="#IPAexGothic-8abf" x="1300"/>
     <use xlink:href="#IPAexGothic-3079" x="1400"/>
     <use xlink:href="#IPAexGothic-308b" x="1500"/>
    </g>
   </g>
   <g id="text_7">
    <!-- ・グラフの見た目を整える -->
    <g style="fill: #2c3e50" transform="translate(47.52 165.574219) scale(0.115 -0.115)">
     <defs>
      <path id="IPAexGothic-30b0" d="M 4769 4128 
L 5106 3878 
Q 4728 2272 3866 1238 
Q 3106 328 1863 -288 
L 1491 122 
Q 2709 628 3475 1563 
Q 4238 2491 4525 3669 
L 2738 3669 
Q 2022 2591 1191 1897 
L 813 2247 
Q 2163 3338 2766 4959 
L 3256 4819 
Q 3197 4609 2975 4128 
L 4769 4128 
z
M 6009 4422 
Q 5647 4966 5253 5294 
L 5556 5522 
Q 5941 5213 6328 4697 
L 6009 4422 
z
M 5416 3956 
Q 5125 4447 4678 4844 
L 4991 5088 
Q 5363 4781 5747 4231 
L 5416 3956 
z
" transform="scale(0.015625)"/>
      <path id="IPAexGothic-30d5" d="M 4966 4294 
L 5263 4019 
Q 4819 894 1966 -97 
L 1600 353 
Q 4234 1156 4684 3822 
L 1044 3756 
L 1044 4244 
L 4966 4294 
z
" transform="scale(0.015625)"/>
      <path id="IPAexGothic-898b" d="M 4053 1631 
L 4053 403 
Q 4053 194 4159 144 
Q 4259 100 4594 100 
Q 5206 100 5303 272 
Q 5369 394 5406 1031 
L 5413 1138 
L 5881 966 
Q 5831 75 5656 -128 
Q 5475 -341 4566 -341 
Q 4041 -341 3859 -269 
Q 3584 -166 3584 184 
L 3584 1631 
L 2719 1631 
Q 2663 631 2219 197 
Q 1744 -256 756 -469 
L 513 -38 
Q 1500 134 1888 513 
Q 2216 831 2247 1631 
L 1288 1631 
L 1288 5050 
L 5106 5050 
L 5106 1631 
L 4053 1631 
z
M 1747 4653 
L 1747 4044 
L 4638 4044 
L 4638 4653 
L 1747 4653 
z
M 1747 3653 
L 1747 3047 
L 4638 3047 
L 4638 3653 
L 1747 3653 
z
M 1747 2663 
L 1747 2028 
L 4638 2028 
L 4638 2663 
L 1747 2663 
z
" transform="scale(0.015625)"/>
      <path id="IPAexGothic-305f" d="M 684 3994 
Q 1138 3953 1556 3953 
Q 1797 3953 2106 3975 
Q 2266 4594 2369 5113 
L 2875 5025 
Q 2806 4731 2619 4013 
Q 3209 4084 3656 4191 
L 3688 3719 
Q 3109 3613 2497 3566 
Q 1822 1294 1153 -44 
L 653 172 
Q 1406 1500 1991 3531 
Q 1634 3513 1256 3513 
Q 1106 3513 697 3525 
L 684 3994 
z
M 5753 78 
Q 5059 -13 4597 -13 
Q 3619 -13 3206 334 
Q 2866 625 2766 1222 
L 3213 1388 
Q 3247 1069 3347 903 
Q 3425 775 3578 672 
Q 3866 481 4556 481 
Q 5009 481 5728 575 
L 5753 78 
z
M 3144 2859 
Q 4216 3147 5409 3072 
L 5381 2597 
L 5356 2597 
Q 4263 2663 3194 2419 
L 3144 2859 
z
" transform="scale(0.015625)"/>
      <path id="IPAexGothic-76ee" d="M 5266 4819 
L 5266 -384 
L 4791 -384 
L 4791 38 
L 1600 38 
L 1600 -384 
L 1125 -384 
L 1125 4819 
L 5266 4819 
z
M 1600 4416 
L 1600 3384 
L 4791 3384 
L 4791 4416 
L 1600 4416 
z
M 1600 2988 
L 1600 1966 
L 4791 1966 
L 4791 2988 
L 1600 2988 
z
M 1600 1563 
L 1600 447 
L 4791 447 
L 4791 1563 
L 1600 1563 
z
" transform="scale(0.015625)"/>
     </defs>
     <use xlink:href="#IPAexGothic-30fb"/>
     <use xlink:href="#IPAexGothic-30b0" x="100"/>
     <use xlink:href="#IPAexGothic-30e9" x="200"/>
     <use xlink:href="#IPAexGothic-30d5" x="300"/>
     <use xlink:href="#IPAexGothic-306e" x="400"/>
     <use xlink:href="#IPAexGothic-898b" x="500"/>
     <use xlink:href="#IPAexGothic-305f" x="600"/>
     <use xlink:href="#IPAexGothic-76ee" x="700"/>
     <use xlink:href="#IPAexGothic-3092" x="800"/>
     <use xlink:href="#IPAexGothic-6574" x="900"/>
     <use xlink:href="#IPAexGothic-3048" x="1000"/>
     <use xlink:href="#IPAexGothic-308b" x="1100"/>
    </g>
   </g>
   <g id="text_8">
    <!-- ・ボイラープレートを自動生成する -->
    <g style="fill: #2c3e50" transform="translate(47.52 184.294219) scale(0.115 -0.115)">
     <defs>
      <path id="IPAexGothic-30dc" d="M 2972 4953 
L 3478 4953 
L 3478 3769 
L 5584 3769 
L 5584 3316 
L 3478 3316 
L 3478 372 
Q 3478 -172 2844 -172 
Q 2431 -172 2019 -97 
L 1909 434 
Q 2300 334 2716 334 
Q 2972 334 2972 591 
L 2972 3316 
L 822 3316 
L 822 3769 
L 2972 3769 
L 2972 4953 
z
M 603 897 
Q 988 1269 1222 1666 
Q 1438 2038 1600 2547 
L 2050 2344 
Q 1859 1741 1588 1300 
Q 1372 950 1000 531 
L 603 897 
z
M 5313 684 
Q 4847 1672 4309 2363 
L 4719 2631 
Q 5269 1991 5775 1006 
L 5313 684 
z
M 5728 4391 
Q 5369 4931 4975 5259 
L 5275 5491 
Q 5659 5181 6050 4666 
L 5728 4391 
z
M 5091 3969 
Q 4800 4459 4353 4856 
L 4666 5100 
Q 5038 4794 5422 4244 
L 5091 3969 
z
" transform="scale(0.015625)"/>
      <path id="IPAexGothic-30ec" d="M 1538 4706 
L 2075 4706 
L 2075 622 
Q 4059 1375 5172 2894 
L 5481 2431 
Q 4922 1678 3931 1019 
Q 2919 334 1928 -31 
L 1538 269 
L 1538 4706 
z
" transform="scale(0.015625)"/>
      <path id="IPAexGothic-30c8" d="M 2284 4997 
L 2803 4997 
L 2803 3206 
Q 4088 2619 5216 1888 
L 4878 1369 
Q 3819 2175 2803 2688 
L 2803 -184 
L 2284 -184 
L 2284 4997 
z
" transform="scale(0.015625)"/>
      <path id="IPAexGothic-81ea" d="M 2591 4353 
Q 2719 4766 2816 5294 
L 3359 5191 
Q 3250 4809 3072 4353 
L 5291 4353 
L 5291 -450 
L 4822 -450 
L 4822 -72 
L 1569 -72 
L 1569 -450 
L 1100 -450 
L 1100 4353 
L 2591 4353 
z
M 1569 3956 
L 1569 3028 
L 4822 3028 
L 4822 3956 
L 1569 3956 
z
M 1569 2644 
L 1569 1716 
L 4822 1716 
L 4822 2644 
L 1569 2644 
z
M 1569 1331 
L 1569 325 
L 4822 325 
L 4822 1331 
L 1569 1331 
z
" transform="scale(0.015625)"/>
      <path id="IPAexGothic-52d5" d="M 1803 3425 
L 1803 3794 
L 372 3794 
L 372 4147 
L 1803 4147 
L 1803 4556 
Q 1250 4500 634 4466 
L 506 4819 
Q 1997 4903 3091 5159 
L 3378 4794 
Q 2803 4678 2219 4606 
L 2219 4147 
L 3538 4147 
L 3538 3794 
L 2219 3794 
L 2219 3425 
L 3378 3425 
L 3378 1569 
L 2219 1569 
L 2219 1178 
L 3447 1178 
L 3447 825 
L 2219 825 
L 2219 384 
Q 2934 459 3544 569 
L 3544 231 
Q 2569 22 416 -206 
L 294 197 
Q 791 238 1284 288 
L 1803 338 
L 1803 825 
L 581 825 
L 581 1178 
L 1803 1178 
L 1803 1569 
L 678 1569 
L 678 3425 
L 1803 3425 
z
M 1816 3100 
L 1075 3100 
L 1075 2669 
L 1816 2669 
L 1816 3100 
z
M 2206 3100 
L 2206 2669 
L 2981 2669 
L 2981 3100 
L 2206 3100 
z
M 1816 2350 
L 1075 2350 
L 1075 1894 
L 1816 1894 
L 1816 2350 
z
M 2206 2350 
L 2206 1894 
L 2981 1894 
L 2981 2350 
L 2206 2350 
z
M 4806 3469 
Q 4797 2084 4628 1338 
Q 4375 250 3572 -459 
L 3238 -141 
Q 3975 481 4225 1550 
Q 4378 2213 4378 3413 
L 3559 3413 
L 3559 3828 
L 4384 3828 
L 4384 5209 
L 4813 5209 
L 4813 3878 
L 5931 3878 
Q 5931 941 5766 128 
Q 5669 -347 5144 -347 
Q 4838 -347 4500 -294 
L 4422 197 
Q 4797 100 5069 100 
Q 5294 100 5344 369 
Q 5484 1053 5503 3200 
L 5503 3469 
L 4806 3469 
z
" transform="scale(0.015625)"/>
     </defs>
     <use xlink:href="#IPAexGothic-30fb"/>
     <use xlink:href="#IPAexGothic-30dc" x="100"/>
     <use xlink:href="#IPAexGothic-30a4" x="200"/>
     <use xlink:href="#IPAexGothic-30e9" x="300"/>
     <use xlink:href="#IPAexGothic-30fc" x="400"/>
     <use xlink:href="#IPAexGothic-30d7" x="500"/>
     <use xlink:href="#IPAexGothic-30ec" x="600"/>
     <use xlink:href="#IPAexGothic-30fc" x="700"/>
     <use xlink:href="#IPAexGothic-30c8" x="800"/>
     <use xlink:href="#IPAexGothic-3092" x="900"/>
     <use xlink:href="#IPAexGothic-81ea" x="1000"/>
     <use xlink:href="#IPAexGothic-52d5" x="1100"/>
     <use xlink:href="#IPAexGothic-751f" x="1200"/>
     <use xlink:href="#IPAexGothic-6210" x="1300"/>
     <use xlink:href="#IPAexGothic-3059" x="1400"/>
     <use xlink:href="#IPAexGothic-308b" x="1500"/>
    </g>
   </g>
   <g id="text_9">
    <!-- ⚡ あなた（DS）の役割 -->
    <g style="fill: #e8a838" transform="translate(362.88 92.09) scale(0.13 -0.13)">
     <defs>
      <path id="IPAexGothic-26a1" d="M 5759 -641 
L 641 -641 
L 641 5503 
L 5759 5503 
L 5759 -641 
z
M 5216 5172 
L 1191 5172 
L 3206 2694 
L 5216 5172 
z
M 5428 -53 
L 5428 4903 
L 3419 2425 
L 5428 -53 
z
M 2988 2425 
L 972 4916 
L 972 -59 
L 2988 2425 
z
M 5209 -309 
L 3206 2163 
L 1197 -309 
L 5209 -309 
z
" transform="scale(0.015625)"/>
      <path id="IPAexGothic-3042" d="M 966 4134 
Q 1228 4116 1550 4116 
Q 1934 4116 2284 4141 
Q 2297 4247 2319 4453 
Q 2369 4872 2381 5050 
L 2853 5019 
Q 2794 4547 2759 4178 
Q 3672 4275 4581 4525 
L 4634 4084 
Q 3750 3863 2713 3756 
Q 2675 3378 2663 2931 
Q 3088 3084 3669 3138 
Q 3738 3325 3763 3547 
L 4238 3438 
Q 4188 3219 4153 3128 
Q 4797 3041 5166 2741 
Q 5703 2297 5703 1581 
Q 5703 794 5056 300 
Q 4559 -84 3681 -213 
L 3406 213 
Q 4169 297 4622 594 
Q 5203 969 5203 1588 
Q 5203 2216 4672 2553 
Q 4413 2725 4025 2772 
Q 3550 1556 2747 800 
Q 2766 584 2847 275 
L 2388 103 
Q 2369 191 2316 525 
Q 1756 128 1300 128 
Q 666 128 666 794 
Q 666 1244 950 1691 
Q 1216 2100 1678 2425 
Q 1834 2541 2194 2731 
Q 2206 3159 2253 3719 
Q 1772 3681 1338 3681 
Q 1106 3681 1006 3688 
L 966 4134 
z
M 2188 2291 
Q 1966 2169 1703 1913 
Q 1431 1650 1272 1353 
Q 1144 1109 1134 922 
Q 1119 575 1384 575 
Q 1788 575 2247 997 
Q 2197 1497 2188 2291 
z
M 3553 2772 
Q 3038 2700 2638 2534 
Q 2638 1734 2663 1300 
Q 3231 1931 3553 2772 
z
" transform="scale(0.015625)"/>
      <path id="IPAexGothic-306a" d="M 3906 3147 
L 4372 3147 
Q 4381 2278 4444 1272 
Q 5244 1003 5838 631 
L 5556 222 
Q 4953 600 4463 813 
Q 4478 263 4234 22 
Q 3984 -225 3419 -225 
Q 2897 -225 2563 0 
Q 2216 231 2216 647 
Q 2216 1081 2656 1319 
Q 2959 1484 3297 1484 
Q 3638 1484 3969 1413 
Q 3916 2219 3906 3147 
z
M 3975 984 
Q 3631 1081 3297 1081 
Q 3031 1081 2856 978 
Q 2663 863 2663 653 
Q 2663 197 3400 197 
Q 3750 197 3875 378 
Q 3997 556 3975 984 
z
M 738 3928 
Q 1453 3884 1997 3938 
Q 2144 4381 2294 5125 
L 2784 5050 
Q 2684 4559 2516 3988 
Q 2969 4031 3559 4172 
L 3578 3713 
Q 2919 3575 2375 3531 
Q 1853 2028 1044 831 
L 603 1113 
Q 1325 2063 1856 3488 
Q 1063 3459 763 3475 
L 738 3928 
z
M 5538 2759 
Q 5000 3353 4263 3853 
L 4591 4191 
Q 5338 3728 5897 3128 
L 5538 2759 
z
" transform="scale(0.015625)"/>
      <path id="IPAexGothic-ff08" d="M 5419 -434 
Q 4197 769 4197 2438 
Q 4197 4097 5419 5300 
L 5919 5300 
Q 4678 4078 4678 2425 
Q 4678 788 5919 -434 
L 5419 -434 
z
" transform="scale(0.015625)"/>
      <path id="IPAexGothic-44" d="M 609 4634 
L 1984 4634 
Q 3159 4634 3791 4050 
Q 4456 3444 4456 2356 
Q 4456 1047 3516 441 
Q 2925 63 1941 63 
L 609 63 
L 609 4634 
z
M 1172 556 
L 1894 556 
Q 3853 556 3853 2356 
Q 3853 4147 1928 4147 
L 1172 4147 
L 1172 556 
z
" transform="scale(0.015625)"/>
      <path id="IPAexGothic-53" d="M 2919 3641 
Q 2563 4259 1853 4259 
Q 1453 4259 1213 4009 
Q 1028 3803 1028 3534 
Q 1028 3238 1266 3047 
Q 1444 2913 1984 2688 
L 2200 2597 
Q 2925 2306 3191 1953 
Q 3422 1644 3422 1259 
Q 3422 644 2969 288 
Q 2559 -31 1931 -31 
Q 881 -31 313 766 
L 753 1100 
Q 1203 459 1938 459 
Q 2288 459 2534 625 
Q 2841 847 2841 1216 
Q 2841 1503 2616 1728 
Q 2375 1959 1728 2206 
L 1541 2278 
Q 453 2694 453 3481 
Q 453 4006 806 4347 
Q 1203 4725 1863 4725 
Q 2841 4725 3359 3956 
L 2919 3641 
z
" transform="scale(0.015625)"/>
      <path id="IPAexGothic-ff09" d="M 481 -434 
Q 1722 788 1722 2431 
Q 1722 4066 481 5300 
L 981 5300 
Q 2203 4097 2203 2431 
Q 2203 769 981 -434 
L 481 -434 
z
" transform="scale(0.015625)"/>
     </defs>
     <use xlink:href="#IPAexGothic-26a1"/>
     <use xlink:href="#IPAexGothic-20" x="100"/>
     <use xlink:href="#IPAexGothic-3042" x="127.001953"/>
     <use xlink:href="#IPAexGothic-306a" x="227.001953"/>
     <use xlink:href="#IPAexGothic-305f" x="327.001953"/>
     <use xlink:href="#IPAexGothic-ff08" x="427.001953"/>
     <use xlink:href="#IPAexGothic-44" x="527.001953"/>
     <use xlink:href="#IPAexGothic-53" x="602.685547"/>
     <use xlink:href="#IPAexGothic-ff09" x="661.181641"/>
     <use xlink:href="#IPAexGothic-306e" x="761.181641"/>
     <use xlink:href="#IPAexGothic-5f79" x="861.181641"/>
     <use xlink:href="#IPAexGothic-5272" x="961.181641"/>
    </g>
   </g>
   <g id="text_10">
    <!-- ・何を分析するかを決める -->
    <g style="fill: #2c3e50" transform="translate(367.2 109.414219) scale(0.115 -0.115)">
     <defs>
      <path id="IPAexGothic-4f55" d="M 5531 4250 
L 5531 153 
Q 5531 -150 5350 -263 
Q 5206 -359 4850 -359 
Q 4325 -359 3944 -313 
L 3872 191 
Q 4372 116 4788 116 
Q 5056 116 5056 403 
L 5056 4250 
L 2022 4250 
L 2022 4666 
L 6031 4666 
L 6031 4250 
L 5531 4250 
z
M 1641 3809 
L 1641 -447 
L 1172 -447 
L 1172 2847 
Q 881 2338 525 1863 
L 256 2253 
Q 1197 3481 1594 5184 
L 2069 5069 
Q 1866 4344 1641 3809 
z
M 4300 3378 
L 4300 1125 
L 2853 1125 
L 2853 625 
L 2425 625 
L 2425 3378 
L 4300 3378 
z
M 2853 2988 
L 2853 1516 
L 3872 1516 
L 3872 2988 
L 2853 2988 
z
" transform="scale(0.015625)"/>
      <path id="IPAexGothic-5206" d="M 3031 2431 
Q 2916 1378 2528 759 
Q 1991 -81 941 -469 
L 625 -53 
Q 2356 488 2541 2431 
L 1375 2431 
L 1375 2772 
Q 1044 2431 653 2156 
L 313 2534 
Q 1600 3425 2219 5056 
L 2688 4875 
Q 2200 3672 1453 2847 
L 4966 2847 
Q 4878 559 4741 94 
Q 4666 -163 4459 -250 
Q 4288 -322 3941 -322 
Q 3525 -322 2981 -263 
L 2884 256 
Q 3441 138 3844 138 
Q 4213 138 4281 438 
Q 4388 931 4472 2431 
L 3031 2431 
z
M 5747 2303 
Q 4416 3238 3506 4934 
L 3934 5113 
Q 4747 3572 6084 2747 
L 5747 2303 
z
" transform="scale(0.015625)"/>
      <path id="IPAexGothic-6790" d="M 1363 2669 
L 1350 2625 
Q 1066 1647 550 781 
L 263 1256 
Q 953 2256 1300 3541 
L 397 3541 
L 397 3956 
L 1363 3956 
L 1363 5300 
L 1803 5300 
L 1803 3956 
L 2700 3956 
L 2700 3541 
L 1803 3541 
L 1803 2931 
Q 2375 2453 2788 1991 
L 2519 1531 
Q 2156 2053 1803 2434 
L 1803 -447 
L 1363 -447 
L 1363 2669 
z
M 3016 4634 
L 3156 4647 
Q 4450 4763 5319 5075 
L 5709 4678 
Q 4731 4363 3469 4256 
L 3469 3213 
L 6088 3213 
L 6088 2797 
L 5134 2797 
L 5134 -441 
L 4681 -441 
L 4681 2797 
L 3469 2797 
Q 3469 1600 3347 972 
Q 3184 100 2663 -525 
L 2331 -225 
Q 2850 488 2953 1325 
Q 3016 1772 3016 2584 
L 3016 4634 
z
" transform="scale(0.015625)"/>
      <path id="IPAexGothic-304b" d="M 659 3384 
Q 1434 3503 2113 3581 
Q 2313 4341 2394 4972 
L 2900 4875 
Q 2759 4147 2619 3628 
L 2719 3634 
Q 2894 3641 3041 3641 
Q 4072 3641 4072 2369 
Q 4072 1128 3700 384 
Q 3478 -56 3003 -56 
Q 2591 -56 2113 231 
L 2138 775 
Q 2631 444 2925 444 
Q 3169 444 3297 706 
Q 3566 1294 3566 2388 
Q 3566 3219 3016 3219 
Q 2825 3219 2497 3194 
Q 2388 2763 2113 2047 
Q 1634 797 1119 -38 
L 678 244 
Q 1356 1238 1863 2750 
Q 1888 2819 1991 3128 
Q 1594 3081 769 2916 
L 659 3384 
z
M 5644 1753 
Q 5072 3025 4238 3916 
L 4641 4184 
Q 5494 3275 6081 2094 
L 5644 1753 
z
" transform="scale(0.015625)"/>
      <path id="IPAexGothic-6c7a" d="M 4116 2081 
Q 4659 809 6003 84 
L 5656 -338 
Q 4281 500 3775 1884 
Q 3766 1853 3756 1806 
Q 3497 394 2078 -441 
L 1738 -38 
Q 3138 625 3391 2081 
L 1969 2081 
L 1969 2497 
L 3422 2497 
L 3422 3750 
L 2322 3750 
L 2322 4153 
L 3422 4153 
L 3422 5313 
L 3891 5313 
L 3891 4153 
L 5234 4153 
L 5234 2497 
L 6003 2497 
L 6003 2081 
L 4116 2081 
z
M 4788 3750 
L 3891 3750 
L 3891 2497 
L 4788 2497 
L 4788 3750 
z
M 1691 3769 
Q 1203 4344 703 4709 
L 1025 5044 
Q 1544 4675 2022 4147 
L 1691 3769 
z
M 1453 2278 
Q 1016 2772 441 3206 
L 756 3547 
Q 1278 3188 1778 2656 
L 1453 2278 
z
M 391 19 
Q 1063 800 1613 1966 
L 1966 1656 
Q 1394 428 750 -397 
L 391 19 
z
" transform="scale(0.015625)"/>
     </defs>
     <use xlink:href="#IPAexGothic-30fb"/>
     <use xlink:href="#IPAexGothic-4f55" x="100"/>
     <use xlink:href="#IPAexGothic-3092" x="200"/>
     <use xlink:href="#IPAexGothic-5206" x="300"/>
     <use xlink:href="#IPAexGothic-6790" x="400"/>
     <use xlink:href="#IPAexGothic-3059" x="500"/>
     <use xlink:href="#IPAexGothic-308b" x="600"/>
     <use xlink:href="#IPAexGothic-304b" x="700"/>
     <use xlink:href="#IPAexGothic-3092" x="800"/>
     <use xlink:href="#IPAexGothic-6c7a" x="900"/>
     <use xlink:href="#IPAexGothic-3081" x="1000"/>
     <use xlink:href="#IPAexGothic-308b" x="1100"/>
    </g>
   </g>
   <g id="text_11">
    <!-- ・グラフから仮説を立てる -->
    <g style="fill: #2c3e50" transform="translate(367.2 128.134219) scale(0.115 -0.115)">
     <defs>
      <path id="IPAexGothic-3089" d="M 3700 3928 
Q 2897 4478 2156 4750 
L 2381 5166 
Q 3147 4891 3956 4384 
L 3700 3928 
z
M 1344 1281 
Q 1450 2544 1747 4038 
L 2234 3928 
Q 1994 2856 1888 1844 
Q 2897 2688 3963 2688 
Q 4531 2688 4909 2450 
Q 5441 2122 5441 1516 
Q 5441 669 4569 213 
Q 3856 -169 2584 -238 
L 2363 250 
Q 3484 250 4213 588 
Q 4909 922 4909 1509 
Q 4909 1856 4647 2059 
Q 4366 2266 3897 2266 
Q 2853 2266 1766 1141 
L 1344 1281 
z
" transform="scale(0.015625)"/>
      <path id="IPAexGothic-4eee" d="M 1644 3675 
L 1644 -447 
L 1175 -447 
L 1175 2747 
Q 925 2322 578 1863 
L 313 2253 
Q 1244 3463 1656 5178 
L 2131 5069 
Q 1919 4306 1644 3675 
z
M 2969 4481 
L 2969 3353 
L 5331 3353 
L 5600 3116 
Q 5275 1909 4722 1075 
Q 5275 494 6034 38 
L 5697 -384 
Q 4994 88 4434 684 
Q 3916 34 3091 -481 
L 2766 -72 
Q 3616 353 4141 1044 
Q 3463 1928 3194 2944 
L 2969 2944 
Q 2959 1709 2841 1056 
Q 2694 234 2216 -475 
L 1844 -134 
Q 2316 481 2438 1428 
Q 2516 2013 2516 2919 
L 2516 4897 
L 5869 4897 
L 5869 4481 
L 2969 4481 
z
M 4422 1441 
Q 4828 2069 5050 2944 
L 3647 2944 
Q 3863 2184 4422 1441 
z
" transform="scale(0.015625)"/>
      <path id="IPAexGothic-8aac" d="M 3541 1947 
L 2900 1947 
L 2900 3859 
L 4406 3859 
Q 4741 4516 4969 5241 
L 5438 5063 
Q 5166 4434 4847 3859 
L 5756 3859 
L 5756 1947 
L 4956 1947 
L 4956 281 
Q 4956 94 5213 94 
Q 5553 94 5603 241 
Q 5656 431 5666 1000 
L 6109 838 
Q 6100 9 5947 -181 
Q 5794 -353 5244 -353 
Q 4884 -353 4734 -303 
Q 4516 -225 4516 91 
L 4516 1947 
L 3981 1947 
Q 3981 1219 3816 709 
Q 3594 25 2875 -453 
L 2534 -116 
Q 3200 275 3406 897 
Q 3541 1291 3541 1934 
L 3541 1947 
z
M 5322 2338 
L 5322 3463 
L 3334 3463 
L 3334 2338 
L 5322 2338 
z
M 2394 1684 
L 2394 -128 
L 959 -128 
L 959 -447 
L 538 -447 
L 538 1684 
L 2394 1684 
z
M 959 1313 
L 959 244 
L 1978 244 
L 1978 1313 
L 959 1313 
z
M 634 5044 
L 2306 5044 
L 2306 4659 
L 634 4659 
L 634 5044 
z
M 353 4206 
L 2631 4206 
L 2631 3816 
L 353 3816 
L 353 4206 
z
M 634 3359 
L 2306 3359 
L 2306 2975 
L 634 2975 
L 634 3359 
z
M 634 2522 
L 2306 2522 
L 2306 2138 
L 634 2138 
L 634 2522 
z
M 3578 3988 
Q 3347 4569 3084 4966 
L 3481 5166 
Q 3769 4747 4000 4191 
L 3578 3988 
z
" transform="scale(0.015625)"/>
      <path id="IPAexGothic-7acb" d="M 3425 4050 
L 5747 4050 
L 5747 3622 
L 641 3622 
L 641 4050 
L 2925 4050 
L 2925 5113 
L 3425 5113 
L 3425 4050 
z
M 3572 459 
Q 3578 478 3600 541 
Q 3613 581 3622 606 
Q 4066 1825 4391 3447 
L 4897 3322 
Q 4522 1716 4072 459 
L 6009 459 
L 6009 31 
L 384 31 
L 384 459 
L 3572 459 
z
M 2047 678 
Q 1797 2000 1369 3166 
L 1844 3322 
Q 2253 2178 2547 813 
L 2047 678 
z
" transform="scale(0.015625)"/>
      <path id="IPAexGothic-3066" d="M 581 4034 
Q 2978 4363 5466 4556 
L 5509 4097 
Q 4388 4031 3750 3572 
Q 2797 2878 2797 1913 
Q 2797 1169 3291 819 
Q 3778 484 4869 416 
L 4906 -116 
Q 2278 0 2278 1850 
Q 2278 3125 3691 4000 
Q 2066 3784 684 3553 
L 581 4034 
z
" transform="scale(0.015625)"/>
     </defs>
     <use xlink:href="#IPAexGothic-30fb"/>
     <use xlink:href="#IPAexGothic-30b0" x="100"/>
     <use xlink:href="#IPAexGothic-30e9" x="200"/>
     <use xlink:href="#IPAexGothic-30d5" x="300"/>
     <use xlink:href="#IPAexGothic-304b" x="400"/>
     <use xlink:href="#IPAexGothic-3089" x="500"/>
     <use xlink:href="#IPAexGothic-4eee" x="600"/>
     <use xlink:href="#IPAexGothic-8aac" x="700"/>
     <use xlink:href="#IPAexGothic-3092" x="800"/>
     <use xlink:href="#IPAexGothic-7acb" x="900"/>
     <use xlink:href="#IPAexGothic-3066" x="1000"/>
     <use xlink:href="#IPAexGothic-308b" x="1100"/>
    </g>
   </g>
   <g id="text_12">
    <!-- ・欠損値の処理方針を判断する -->
    <g style="fill: #2c3e50" transform="translate(367.2 146.854219) scale(0.115 -0.115)">
     <defs>
      <path id="IPAexGothic-6b20" d="M 3241 2347 
Q 2847 388 822 -372 
L 481 63 
Q 2931 784 2931 3403 
L 2931 3744 
L 1997 3744 
Q 1613 2813 1013 2125 
L 647 2491 
Q 1578 3516 1953 5241 
L 2441 5125 
Q 2322 4650 2159 4172 
L 5422 4172 
L 5769 3916 
Q 5253 2869 4725 2188 
L 4309 2481 
Q 4781 3025 5128 3744 
L 3419 3744 
L 3419 3384 
Q 3419 2472 4150 1522 
Q 4778 697 5972 209 
L 5600 -256 
Q 3700 741 3241 2347 
z
" transform="scale(0.015625)"/>
      <path id="IPAexGothic-640d" d="M 1178 4013 
L 1178 5300 
L 1606 5300 
L 1606 4013 
L 2316 4013 
L 2316 3597 
L 1606 3597 
L 1606 2381 
Q 1797 2438 2259 2597 
L 2291 2216 
Q 2022 2106 1606 1972 
L 1606 0 
Q 1606 -272 1484 -363 
Q 1384 -447 1094 -447 
Q 797 -447 519 -409 
L 441 50 
Q 719 -6 966 -6 
Q 1178 -6 1178 172 
L 1178 1831 
Q 753 1703 403 1619 
L 275 2047 
Q 741 2144 1153 2253 
L 1178 2259 
L 1178 3597 
L 372 3597 
L 372 4013 
L 1178 4013 
z
M 5428 5038 
L 5428 3731 
L 2816 3731 
L 2816 5038 
L 5428 5038 
z
M 3244 4678 
L 3244 4084 
L 4997 4084 
L 4997 4678 
L 3244 4678 
z
M 5753 3391 
L 5753 659 
L 2509 659 
L 2509 3391 
L 5753 3391 
z
M 2938 3038 
L 2938 2597 
L 5325 2597 
L 5325 3038 
L 2938 3038 
z
M 2938 2256 
L 2938 1813 
L 5325 1813 
L 5325 2256 
L 2938 2256 
z
M 2938 1472 
L 2938 1006 
L 5325 1006 
L 5325 1472 
L 2938 1472 
z
M 2034 -122 
Q 2828 141 3469 609 
L 3781 313 
Q 3153 -172 2347 -513 
L 2034 -122 
z
M 5803 -447 
Q 5113 16 4356 319 
L 4653 634 
Q 5450 325 6150 -78 
L 5803 -447 
z
" transform="scale(0.015625)"/>
      <path id="IPAexGothic-5024" d="M 4172 3675 
L 5453 3675 
L 5453 684 
L 3019 684 
L 3019 3675 
L 3750 3675 
Q 3788 3884 3825 4153 
L 2141 4153 
L 2141 4544 
L 3884 4544 
Q 3922 4844 3966 5325 
L 4434 5272 
L 4388 4953 
Q 4331 4578 4331 4544 
L 5863 4544 
L 5863 4153 
L 4269 4153 
Q 4200 3781 4172 3675 
z
M 5038 3316 
L 3434 3316 
L 3434 2803 
L 5038 2803 
L 5038 3316 
z
M 3434 2450 
L 3434 1941 
L 5038 1941 
L 5038 2450 
L 3434 2450 
z
M 3434 1588 
L 3434 1044 
L 5038 1044 
L 5038 1588 
L 3434 1588 
z
M 1509 3669 
L 1509 -447 
L 1069 -447 
L 1069 2725 
Q 856 2338 531 1875 
L 288 2266 
Q 1163 3531 1541 5325 
L 1975 5222 
Q 1791 4378 1509 3669 
z
M 2488 244 
L 6031 244 
L 6031 -153 
L 2488 -153 
L 2488 -447 
L 2059 -447 
L 2059 3213 
L 2488 3213 
L 2488 244 
z
" transform="scale(0.015625)"/>
      <path id="IPAexGothic-51e6" d="M 2144 1263 
Q 2538 638 3147 425 
Q 3628 253 4741 253 
Q 5266 253 6163 303 
Q 6038 63 6009 -216 
Q 5450 -234 5094 -234 
Q 3675 -234 3097 -38 
Q 2388 206 1919 884 
Q 1366 6 734 -478 
L 397 -106 
Q 1128 384 1675 1306 
Q 1341 1969 1138 2913 
Q 934 2309 606 1775 
L 306 2159 
Q 1069 3425 1319 5219 
L 1759 5116 
Q 1694 4763 1631 4481 
L 2650 4481 
L 2903 4275 
Q 2759 2447 2144 1263 
z
M 1900 1744 
Q 2356 2797 2469 4066 
L 1528 4066 
Q 1463 3822 1388 3625 
Q 1534 2575 1900 1744 
z
M 5056 4756 
L 5056 1466 
Q 5056 1263 5269 1263 
Q 5466 1263 5484 1475 
Q 5506 1600 5516 2081 
L 5525 2222 
L 5953 2069 
Q 5944 1234 5831 1038 
Q 5728 859 5216 859 
Q 4888 859 4750 950 
Q 4622 1038 4622 1294 
L 4622 4353 
L 3872 4353 
L 3872 3759 
Q 3872 2544 3744 1916 
Q 3600 1244 3141 706 
L 2813 1025 
Q 3256 1563 3372 2369 
Q 3428 2809 3428 3566 
L 3428 4756 
L 5056 4756 
z
" transform="scale(0.015625)"/>
      <path id="IPAexGothic-91dd" d="M 1256 3566 
L 2772 3566 
L 2772 3181 
L 2044 3181 
L 2044 2497 
L 3156 2497 
L 3156 2113 
L 2044 2113 
L 2044 434 
Q 2544 556 3272 775 
L 3309 366 
Q 2156 -31 597 -378 
L 425 84 
Q 1050 203 1550 313 
L 1603 328 
L 1603 2113 
L 475 2113 
L 475 2497 
L 1603 2497 
L 1603 3181 
L 950 3181 
Q 813 3016 566 2778 
L 322 3169 
Q 1253 4069 1697 5313 
L 2131 5216 
Q 2044 4994 2009 4922 
Q 2694 4444 3316 3791 
L 3028 3400 
Q 2422 4081 1844 4563 
Q 1572 3988 1256 3566 
z
M 4425 3116 
L 4425 5175 
L 4878 5175 
L 4878 3116 
L 6081 3116 
L 6081 2688 
L 4878 2688 
L 4878 -447 
L 4425 -447 
L 4425 2688 
L 3209 2688 
L 3209 3116 
L 4425 3116 
z
M 909 481 
Q 775 1163 563 1650 
L 994 1791 
Q 1197 1294 1331 634 
L 909 481 
z
M 2303 819 
Q 2509 1294 2656 1913 
L 3097 1784 
Q 2863 1084 2663 697 
L 2303 819 
z
" transform="scale(0.015625)"/>
      <path id="IPAexGothic-5224" d="M 1844 3059 
L 1844 5313 
L 2291 5313 
L 2291 3059 
L 3578 3059 
L 3578 2656 
L 2291 2656 
L 2291 1766 
L 3694 1766 
L 3694 1363 
L 2291 1363 
L 2291 -450 
L 1844 -450 
L 1844 1363 
L 347 1363 
L 347 1766 
L 1844 1766 
L 1844 2656 
L 531 2656 
L 531 3059 
L 1844 3059 
z
M 1000 3313 
Q 800 4119 531 4666 
L 975 4838 
L 1025 4716 
Q 1316 4028 1466 3463 
L 1000 3313 
z
M 2631 3447 
Q 2972 4197 3150 4900 
L 3631 4734 
Q 3422 4041 3047 3300 
L 2631 3447 
z
M 4084 4538 
L 4531 4538 
L 4531 1050 
L 4084 1050 
L 4084 4538 
z
M 5341 4978 
L 5794 4978 
L 5794 147 
Q 5794 -131 5666 -250 
Q 5528 -359 5150 -359 
Q 4684 -359 4322 -319 
L 4234 166 
Q 4728 94 5072 94 
Q 5341 94 5341 347 
L 5341 4978 
z
" transform="scale(0.015625)"/>
      <path id="IPAexGothic-65ad" d="M 1819 2719 
L 928 2719 
L 928 519 
L 3188 519 
L 3188 128 
L 928 128 
L 928 -319 
L 513 -319 
L 513 4813 
L 928 4813 
L 928 3097 
L 1881 3097 
L 1881 5075 
L 2291 5075 
L 2291 3097 
L 3281 3097 
L 3281 2719 
L 2291 2719 
L 2291 2506 
Q 2819 2059 3194 1606 
L 2919 1247 
Q 2581 1759 2291 2066 
L 2291 666 
L 1881 666 
L 1881 2125 
Q 1613 1400 1197 825 
L 947 1184 
Q 1506 1869 1819 2719 
z
M 3584 4647 
Q 3653 4656 3756 4666 
Q 4731 4772 5503 5063 
L 5875 4666 
Q 5050 4422 4013 4294 
L 4013 3219 
L 6125 3219 
L 6125 2803 
L 5344 2803 
L 5344 -447 
L 4903 -447 
L 4903 2803 
L 4013 2803 
L 4013 2663 
Q 4003 1384 3897 769 
Q 3772 63 3388 -531 
L 3041 -225 
Q 3431 413 3528 1350 
Q 3584 1916 3584 2950 
L 3584 4647 
z
M 1363 3256 
Q 1244 3906 1050 4428 
L 1428 4563 
Q 1622 4069 1759 3391 
L 1363 3256 
z
M 2419 3384 
Q 2678 4050 2816 4634 
L 3231 4494 
Q 3084 3925 2778 3263 
L 2419 3384 
z
" transform="scale(0.015625)"/>
     </defs>
     <use xlink:href="#IPAexGothic-30fb"/>
     <use xlink:href="#IPAexGothic-6b20" x="100"/>
     <use xlink:href="#IPAexGothic-640d" x="200"/>
     <use xlink:href="#IPAexGothic-5024" x="300"/>
     <use xlink:href="#IPAexGothic-306e" x="400"/>
     <use xlink:href="#IPAexGothic-51e6" x="500"/>
     <use xlink:href="#IPAexGothic-7406" x="600"/>
     <use xlink:href="#IPAexGothic-65b9" x="700"/>
     <use xlink:href="#IPAexGothic-91dd" x="800"/>
     <use xlink:href="#IPAexGothic-3092" x="900"/>
     <use xlink:href="#IPAexGothic-5224" x="1000"/>
     <use xlink:href="#IPAexGothic-65ad" x="1100"/>
     <use xlink:href="#IPAexGothic-3059" x="1200"/>
     <use xlink:href="#IPAexGothic-308b" x="1300"/>
    </g>
   </g>
   <g id="text_13">
    <!-- ・結果の数値を解釈する -->
    <g style="fill: #2c3e50" transform="translate(367.2 165.574219) scale(0.115 -0.115)">
     <defs>
      <path id="IPAexGothic-7d50" d="M 1241 3084 
Q 794 3713 378 4128 
L 666 4422 
Q 828 4259 916 4153 
Q 1300 4750 1541 5331 
L 1956 5119 
Q 1547 4363 1150 3859 
Q 1228 3759 1466 3425 
Q 1844 4016 2138 4550 
L 2522 4313 
Q 1853 3213 1313 2572 
Q 1647 2581 2253 2631 
Q 2134 2909 2009 3156 
L 2353 3303 
Q 2656 2775 2878 2106 
L 2494 1925 
Q 2469 2022 2425 2156 
Q 2384 2284 2372 2322 
Q 2334 2319 2222 2300 
Q 1966 2259 1778 2234 
L 1778 -447 
L 1363 -447 
L 1363 2181 
L 1291 2175 
Q 1000 2144 428 2106 
L 281 2534 
Q 672 2547 863 2553 
Q 909 2613 972 2700 
Q 1059 2816 1241 3084 
z
M 4134 4325 
L 4134 5309 
L 4563 5309 
L 4563 4325 
L 6113 4325 
L 6113 3934 
L 4563 3934 
L 4563 3034 
L 5906 3034 
L 5906 2650 
L 2859 2650 
L 2859 3034 
L 4134 3034 
L 4134 3934 
L 2719 3934 
L 2719 4325 
L 4134 4325 
z
M 5631 1997 
L 5631 -450 
L 5203 -450 
L 5203 -103 
L 3550 -103 
L 3550 -450 
L 3122 -450 
L 3122 1997 
L 5631 1997 
z
M 3550 1613 
L 3550 281 
L 5203 281 
L 5203 1613 
L 3550 1613 
z
M 353 197 
Q 581 863 647 1759 
L 1056 1709 
Q 988 709 769 -13 
L 353 197 
z
M 2334 313 
Q 2206 1147 1997 1759 
L 2363 1869 
Q 2609 1253 2766 488 
L 2334 313 
z
" transform="scale(0.015625)"/>
      <path id="IPAexGothic-679c" d="M 3809 1666 
Q 4656 800 6088 297 
L 5784 -131 
Q 4256 494 3406 1563 
L 3406 -447 
L 2947 -447 
L 2947 1519 
Q 2203 425 647 -281 
L 334 109 
Q 1769 697 2575 1666 
L 378 1666 
L 378 2075 
L 2947 2075 
L 2947 2625 
L 1109 2625 
L 1109 5013 
L 5288 5013 
L 5288 2625 
L 3406 2625 
L 3406 2075 
L 6016 2075 
L 6016 1666 
L 3809 1666 
z
M 1556 4628 
L 1556 3994 
L 2959 3994 
L 2959 4628 
L 1556 4628 
z
M 1556 3628 
L 1556 3009 
L 2959 3009 
L 2959 3628 
L 1556 3628 
z
M 4834 3009 
L 4834 3628 
L 3394 3628 
L 3394 3009 
L 4834 3009 
z
M 4834 3994 
L 4834 4628 
L 3394 4628 
L 3394 3994 
L 4834 3994 
z
" transform="scale(0.015625)"/>
      <path id="IPAexGothic-6570" d="M 2847 1553 
Q 2741 1006 2425 534 
Q 2625 441 3091 203 
L 2809 -188 
Q 2541 0 2144 209 
Q 1569 -291 703 -500 
L 422 -125 
Q 1263 19 1747 406 
Q 1222 650 734 816 
Q 975 1172 1147 1503 
L 1172 1553 
L 359 1553 
L 359 1925 
L 1344 1925 
Q 1406 2066 1569 2475 
L 1691 2450 
L 1691 3372 
Q 1250 2738 550 2303 
L 275 2663 
Q 1019 3013 1528 3641 
L 378 3641 
L 378 4006 
L 1691 4006 
L 1691 5313 
L 2113 5313 
L 2113 4006 
L 3297 4006 
L 3297 3641 
L 2113 3641 
L 2113 3513 
Q 2659 3291 3175 2963 
L 2956 2584 
Q 2553 2922 2113 3159 
L 2113 2372 
L 1966 2372 
Q 1928 2288 1872 2141 
Q 1806 1975 1784 1925 
L 3378 1925 
L 3378 1553 
L 2847 1553 
z
M 2419 1553 
L 1613 1553 
Q 1478 1269 1313 997 
Q 1559 909 2047 703 
Q 2313 1047 2419 1553 
z
M 4363 1163 
Q 3953 1781 3738 2638 
Q 3575 2281 3428 2016 
L 3103 2406 
Q 3675 3444 3916 5291 
L 4363 5200 
Q 4284 4666 4197 4197 
L 6009 4197 
L 6009 3775 
L 5503 3775 
Q 5397 2275 4869 1191 
Q 5419 503 6144 75 
L 5822 -378 
Q 5188 106 4631 788 
Q 4113 34 3341 -463 
L 3031 -78 
Q 3888 406 4363 1163 
z
M 4588 1594 
Q 4938 2388 5059 3775 
L 4100 3775 
Q 4041 3519 3972 3288 
Q 3981 3250 3991 3194 
Q 4175 2256 4588 1594 
z
M 1003 4116 
Q 878 4544 638 4934 
L 1053 5094 
Q 1247 4788 1438 4269 
L 1003 4116 
z
M 2316 4269 
Q 2550 4688 2688 5131 
L 3128 4997 
Q 2966 4588 2675 4128 
L 2316 4269 
z
" transform="scale(0.015625)"/>
      <path id="IPAexGothic-89e3" d="M 4538 2222 
L 4538 2906 
L 4953 2906 
L 4953 2222 
L 5850 2222 
L 5850 1850 
L 4953 1850 
L 4953 1159 
L 6072 1159 
L 6072 775 
L 4953 775 
L 4953 -447 
L 4538 -447 
L 4538 775 
L 3303 775 
L 3303 1159 
L 4538 1159 
L 4538 1850 
L 3897 1850 
Q 3781 1528 3622 1269 
L 3303 1544 
Q 3600 2072 3706 2734 
L 4103 2663 
Q 4053 2416 4006 2222 
L 4538 2222 
z
M 2394 3803 
L 3141 3803 
L 3141 63 
Q 3141 -213 3006 -306 
Q 2900 -384 2622 -384 
Q 2250 -384 1919 -341 
L 1853 103 
Q 2278 31 2547 31 
Q 2744 31 2744 213 
L 2744 1319 
L 1241 1319 
Q 1191 303 722 -513 
L 394 -178 
Q 863 566 863 1869 
L 863 3181 
Q 738 3000 516 2741 
L 281 3094 
Q 1106 4053 1363 5319 
L 1797 5238 
Q 1747 5044 1719 4959 
L 1700 4891 
L 2653 4891 
L 2853 4684 
Q 2653 4238 2394 3803 
z
M 1809 3450 
L 1259 3450 
L 1259 2747 
L 1809 2747 
L 1809 3450 
z
M 2175 3450 
L 2175 2747 
L 2744 2747 
L 2744 3450 
L 2175 3450 
z
M 1809 2406 
L 1259 2406 
L 1259 1672 
L 1809 1672 
L 1809 2406 
z
M 2175 2406 
L 2175 1672 
L 2744 1672 
L 2744 2406 
L 2175 2406 
z
M 1969 3803 
Q 2172 4141 2322 4531 
L 1572 4531 
Q 1409 4100 1247 3803 
L 1969 3803 
z
M 4622 4594 
Q 4534 3469 3597 2897 
L 3297 3225 
Q 4088 3625 4191 4594 
L 3316 4594 
L 3316 4978 
L 5844 4978 
Q 5813 3791 5734 3422 
Q 5688 3194 5556 3103 
Q 5444 3031 5184 3031 
Q 4863 3031 4556 3078 
L 4500 3475 
Q 4819 3422 5044 3422 
Q 5266 3422 5313 3600 
Q 5372 3831 5400 4594 
L 4622 4594 
z
" transform="scale(0.015625)"/>
      <path id="IPAexGothic-91c8" d="M 1553 1913 
Q 1213 972 594 200 
L 294 641 
Q 1028 1450 1444 2509 
L 375 2509 
L 375 2906 
L 1563 2906 
L 1563 4513 
Q 1284 4466 581 4384 
L 369 4763 
Q 1675 4884 2709 5209 
L 3019 4813 
Q 2531 4688 1978 4584 
L 1978 2906 
L 3081 2906 
L 3081 2509 
L 1981 2509 
L 1981 2191 
Q 2525 1822 3006 1369 
L 2725 959 
Q 2372 1375 1981 1734 
L 1981 -453 
L 1553 -453 
L 1553 1913 
z
M 4894 2516 
Q 5116 894 6156 103 
L 5872 -344 
Q 4650 694 4459 2516 
L 3781 2516 
Q 3772 1566 3641 947 
Q 3475 200 2969 -459 
L 2650 -91 
Q 3141 488 3263 1416 
Q 3341 1963 3341 2863 
L 3341 4863 
L 5822 4863 
L 5822 2516 
L 4894 2516 
z
M 3781 2925 
L 5375 2925 
L 5375 4453 
L 3781 4453 
L 3781 2925 
z
M 875 3059 
Q 772 3672 588 4147 
L 984 4275 
Q 1184 3750 1284 3200 
L 875 3059 
z
M 2169 3231 
Q 2422 3791 2597 4481 
L 3041 4353 
Q 2813 3634 2528 3072 
L 2169 3231 
z
" transform="scale(0.015625)"/>
     </defs>
     <use xlink:href="#IPAexGothic-30fb"/>
     <use xlink:href="#IPAexGothic-7d50" x="100"/>
     <use xlink:href="#IPAexGothic-679c" x="200"/>
     <use xlink:href="#IPAexGothic-306e" x="300"/>
     <use xlink:href="#IPAexGothic-6570" x="400"/>
     <use xlink:href="#IPAexGothic-5024" x="500"/>
     <use xlink:href="#IPAexGothic-3092" x="600"/>
     <use xlink:href="#IPAexGothic-89e3" x="700"/>
     <use xlink:href="#IPAexGothic-91c8" x="800"/>
     <use xlink:href="#IPAexGothic-3059" x="900"/>
     <use xlink:href="#IPAexGothic-308b" x="1000"/>
    </g>
   </g>
   <g id="text_14">
    <!-- ・ビジネス上の示唆を導き出す -->
    <g style="fill: #2c3e50" transform="translate(367.2 184.294219) scale(0.115 -0.115)">
     <defs>
      <path id="IPAexGothic-30d3" d="M 1356 4775 
L 1881 4775 
L 1881 2778 
Q 3553 3153 4747 3891 
L 5131 3475 
Q 3644 2681 1881 2297 
L 1881 1063 
Q 1881 744 2072 669 
Q 2266 584 3163 584 
Q 4169 584 5394 716 
L 5394 206 
Q 4259 97 3263 97 
Q 1938 97 1644 294 
Q 1356 478 1356 966 
L 1356 4775 
z
M 5972 4250 
Q 5609 4791 5216 5119 
L 5516 5350 
Q 5900 5041 6291 4525 
L 5972 4250 
z
M 5375 3781 
Q 5084 4272 4641 4672 
L 4953 4916 
Q 5325 4606 5709 4056 
L 5375 3781 
z
" transform="scale(0.015625)"/>
      <path id="IPAexGothic-30cd" d="M 1288 3834 
L 4803 3834 
L 5066 3559 
Q 4419 2813 3466 2134 
L 3466 -294 
L 2953 -294 
L 2953 1800 
Q 1963 1203 1056 891 
L 731 1328 
Q 1797 1631 2844 2281 
Q 3675 2794 4253 3381 
L 1288 3381 
L 1288 3834 
z
M 3669 4031 
Q 3094 4459 2291 4850 
L 2572 5222 
Q 3334 4884 4000 4428 
L 3669 4031 
z
M 5441 838 
Q 4781 1413 3859 1966 
L 4159 2316 
Q 5078 1819 5825 1247 
L 5441 838 
z
" transform="scale(0.015625)"/>
      <path id="IPAexGothic-30b9" d="M 4359 4481 
L 4716 4147 
Q 4328 3072 3647 2150 
Q 4659 1434 5659 453 
L 5234 19 
Q 4256 1088 3353 1778 
Q 2372 597 1044 -31 
L 653 403 
Q 3128 1453 4097 4000 
L 1241 3963 
L 1228 4453 
L 4359 4481 
z
" transform="scale(0.015625)"/>
      <path id="IPAexGothic-4e0a" d="M 3259 3366 
L 5475 3366 
L 5475 2913 
L 3259 2913 
L 3259 556 
L 5991 556 
L 5991 103 
L 391 103 
L 391 556 
L 2772 556 
L 2772 5050 
L 3259 5050 
L 3259 3366 
z
" transform="scale(0.015625)"/>
      <path id="IPAexGothic-793a" d="M 3488 2822 
L 3488 153 
Q 3488 -144 3334 -247 
Q 3213 -331 2872 -331 
Q 2425 -331 1950 -294 
L 1859 213 
Q 2350 128 2775 128 
Q 3000 128 3000 353 
L 3000 2822 
L 447 2822 
L 447 3250 
L 5950 3250 
L 5950 2822 
L 3488 2822 
z
M 1125 4813 
L 5266 4813 
L 5266 4384 
L 1125 4384 
L 1125 4813 
z
M 5581 244 
Q 4966 1263 4206 2081 
L 4563 2369 
Q 5319 1575 6009 622 
L 5581 244 
z
M 403 616 
Q 1184 1238 1741 2259 
L 2163 2053 
Q 1631 975 763 238 
L 403 616 
z
" transform="scale(0.015625)"/>
      <path id="IPAexGothic-5506" d="M 3234 3541 
L 3016 3525 
Q 2944 3522 2719 3516 
Q 2422 3506 2294 3500 
L 2159 3916 
Q 2484 3916 2625 3922 
L 2881 3928 
Q 3344 4588 3619 5306 
L 4072 5153 
Q 3734 4447 3369 3938 
Q 3438 3938 3472 3938 
Q 3919 3947 4616 3975 
L 5141 4000 
Q 4731 4428 4431 4684 
L 4781 4891 
Q 5444 4334 6038 3647 
L 5672 3378 
Q 5656 3403 5575 3500 
Q 5478 3616 5416 3694 
Q 4941 3644 4738 3628 
L 4738 3003 
Q 4738 2847 4794 2809 
Q 4863 2772 5128 2772 
Q 5456 2772 5563 2828 
Q 5644 2875 5653 3169 
Q 5653 3238 5659 3291 
L 6050 3163 
Q 6022 2597 5844 2491 
Q 5691 2394 4994 2394 
Q 4572 2394 4444 2484 
Q 4322 2566 4322 2803 
L 4322 3597 
Q 4294 3588 3656 3559 
Q 3572 3022 3319 2669 
Q 3025 2269 2403 2028 
L 2116 2375 
Q 3069 2663 3234 3541 
z
M 4531 600 
Q 5125 266 6100 63 
L 5856 -384 
Q 4847 -125 4200 319 
Q 3497 -209 2394 -506 
L 2106 -116 
Q 3075 78 3853 581 
Q 3450 944 3200 1344 
Q 2850 972 2491 741 
L 2197 1063 
Q 3128 1647 3616 2738 
L 4047 2638 
Q 3891 2300 3725 2041 
L 5172 2041 
L 5441 1784 
Q 5050 1078 4531 600 
z
M 4188 831 
Q 4616 1209 4872 1656 
L 3463 1656 
L 3438 1625 
Q 3769 1141 4188 831 
z
M 2069 4659 
L 2069 959 
L 922 959 
L 922 459 
L 500 459 
L 500 4659 
L 2069 4659 
z
M 922 4250 
L 922 1369 
L 1653 1369 
L 1653 4250 
L 922 4250 
z
" transform="scale(0.015625)"/>
      <path id="IPAexGothic-5c0e" d="M 1878 2413 
Q 2172 2081 2666 1963 
Q 3000 1894 3947 1894 
Q 4863 1894 6091 1991 
Q 5984 1825 5919 1581 
Q 5075 1541 4850 1541 
L 4850 1222 
L 6078 1222 
L 6078 831 
L 4869 831 
L 4869 19 
Q 4869 -225 4772 -331 
Q 4669 -447 4366 -447 
Q 3891 -447 3481 -403 
L 3391 50 
Q 3856 -19 4256 -19 
Q 4409 -19 4409 134 
L 4409 831 
L 319 831 
L 319 1222 
L 4391 1222 
L 4391 1528 
L 4288 1528 
L 4116 1528 
Q 2891 1528 2475 1638 
Q 1966 1781 1628 2156 
Q 1238 1716 778 1369 
L 509 1778 
Q 1044 2072 1438 2419 
L 1438 3263 
L 478 3263 
L 478 3647 
L 1878 3647 
L 1878 2413 
z
M 3122 4769 
Q 3013 4997 2866 5178 
L 3256 5319 
Q 3444 5072 3563 4769 
L 4275 4769 
Q 4422 5038 4538 5350 
L 4997 5222 
Q 4850 4953 4722 4769 
L 5934 4769 
L 5934 4438 
L 4088 4438 
Q 4069 4397 4019 4291 
Q 3984 4216 3966 4178 
L 5466 4178 
L 5466 2203 
L 2506 2203 
L 2506 4178 
L 3563 4178 
Q 3569 4197 3584 4250 
Q 3619 4359 3641 4438 
L 2006 4438 
L 2006 4769 
L 3122 4769 
z
M 2928 3884 
L 2928 3609 
L 5050 3609 
L 5050 3884 
L 2928 3884 
z
M 2928 3341 
L 2928 3059 
L 5050 3059 
L 5050 3341 
L 2928 3341 
z
M 2928 2791 
L 2928 2497 
L 5050 2497 
L 5050 2791 
L 2928 2791 
z
M 1578 4141 
Q 1169 4581 728 4863 
L 1016 5159 
Q 1497 4850 1888 4459 
L 1578 4141 
z
M 2534 -288 
Q 2100 147 1491 494 
L 1797 788 
Q 2372 481 2872 56 
L 2534 -288 
z
" transform="scale(0.015625)"/>
      <path id="IPAexGothic-51fa" d="M 3419 2956 
L 4928 2956 
L 4928 4500 
L 5397 4500 
L 5397 2203 
L 4928 2203 
L 4928 2541 
L 3419 2541 
L 3419 384 
L 5194 384 
L 5194 1813 
L 5653 1813 
L 5653 -447 
L 5194 -447 
L 5194 -31 
L 1203 -31 
L 1203 -447 
L 744 -447 
L 744 1813 
L 1203 1813 
L 1203 384 
L 2938 384 
L 2938 2541 
L 1459 2541 
L 1459 2203 
L 1000 2203 
L 1000 4500 
L 1459 4500 
L 1459 2956 
L 2938 2956 
L 2938 5144 
L 3419 5144 
L 3419 2956 
z
" transform="scale(0.015625)"/>
     </defs>
     <use xlink:href="#IPAexGothic-30fb"/>
     <use xlink:href="#IPAexGothic-30d3" x="100"/>
     <use xlink:href="#IPAexGothic-30b8" x="200"/>
     <use xlink:href="#IPAexGothic-30cd" x="300"/>
     <use xlink:href="#IPAexGothic-30b9" x="400"/>
     <use xlink:href="#IPAexGothic-4e0a" x="500"/>
     <use xlink:href="#IPAexGothic-306e" x="600"/>
     <use xlink:href="#IPAexGothic-793a" x="700"/>
     <use xlink:href="#IPAexGothic-5506" x="800"/>
     <use xlink:href="#IPAexGothic-3092" x="900"/>
     <use xlink:href="#IPAexGothic-5c0e" x="1000"/>
     <use xlink:href="#IPAexGothic-304d" x="1100"/>
     <use xlink:href="#IPAexGothic-51fa" x="1200"/>
     <use xlink:href="#IPAexGothic-3059" x="1300"/>
    </g>
   </g>
   <g id="text_15">
    <!-- 🔑 AIは「コーディングの補助ツール」 -->
    <g style="fill: #1e8449" transform="translate(41.04 318.992758) scale(0.13 -0.13)">
     <defs>
      <path id="IPAexGothic-1f511" d="M 5759 -641 
L 641 -641 
L 641 5503 
L 5759 5503 
L 5759 -641 
z
M 5216 5172 
L 1191 5172 
L 3206 2694 
L 5216 5172 
z
M 5428 -53 
L 5428 4903 
L 3419 2425 
L 5428 -53 
z
M 2988 2425 
L 972 4916 
L 972 -59 
L 2988 2425 
z
M 5209 -309 
L 3206 2163 
L 1197 -309 
L 5209 -309 
z
" transform="scale(0.015625)"/>
      <path id="IPAexGothic-306f" d="M 4066 4875 
L 4538 4875 
L 4556 3769 
Q 5003 3816 5581 3941 
L 5619 3469 
Q 5256 3394 4563 3322 
L 4597 1441 
Q 5100 1284 5934 756 
L 5656 313 
Q 5066 772 4609 978 
Q 4609 441 4384 225 
Q 4128 -13 3634 -13 
Q 2991 -13 2669 231 
Q 2388 444 2388 831 
Q 2388 1225 2772 1484 
Q 3050 1669 3534 1669 
Q 3759 1669 4134 1594 
L 4097 3288 
Q 3697 3269 3359 3269 
Q 2925 3269 2484 3300 
L 2466 3763 
Q 2953 3716 3456 3716 
Q 3738 3716 4091 3738 
L 4066 4875 
z
M 4141 1153 
Q 3753 1259 3513 1259 
Q 2841 1259 2841 850 
Q 2841 422 3634 422 
Q 3888 422 4022 569 
Q 4141 700 4141 922 
Q 4141 1088 4141 1153 
z
M 1000 -50 
Q 794 1072 794 1931 
Q 794 3153 1247 4884 
L 1728 4763 
Q 1269 3044 1269 1900 
Q 1269 1569 1306 1106 
Q 1591 1706 1753 1997 
L 2075 1806 
Q 1484 716 1484 141 
Q 1484 72 1491 0 
L 1000 -50 
z
" transform="scale(0.015625)"/>
      <path id="IPAexGothic-300c" d="M 4134 5300 
L 5875 5300 
L 5875 4853 
L 4581 4853 
L 4581 656 
L 4134 656 
L 4134 5300 
z
" transform="scale(0.015625)"/>
      <path id="IPAexGothic-30c7" d="M 563 3072 
L 5741 3072 
L 5741 2613 
L 3578 2613 
Q 3538 1516 3134 872 
Q 2688 156 1663 -256 
L 1313 156 
Q 2338 538 2713 1166 
Q 3003 1644 3034 2613 
L 563 2613 
L 563 3072 
z
M 1406 4588 
L 4588 4588 
L 4588 4128 
L 1406 4128 
L 1406 4588 
z
M 6009 4469 
Q 5647 5009 5253 5338 
L 5553 5569 
Q 5938 5259 6328 4744 
L 6009 4469 
z
M 5413 4000 
Q 5125 4491 4678 4891 
L 4991 5131 
Q 5363 4825 5747 4275 
L 5413 4000 
z
" transform="scale(0.015625)"/>
      <path id="IPAexGothic-30a3" d="M 3034 -231 
L 3034 2188 
Q 2344 1656 1516 1294 
L 1191 1672 
Q 2981 2431 4128 3922 
L 4519 3634 
Q 4138 3122 3534 2597 
L 3534 -231 
L 3034 -231 
z
" transform="scale(0.015625)"/>
      <path id="IPAexGothic-88dc" d="M 1600 2394 
L 1688 2338 
Q 1700 2325 1766 2288 
Q 1938 2509 2188 2925 
L 2506 2709 
Q 2297 2431 1997 2119 
Q 2328 1875 2522 1697 
L 2259 1359 
Q 1956 1672 1600 1997 
L 1600 -447 
L 1172 -447 
L 1172 2159 
Q 906 1816 494 1403 
L 256 1794 
Q 1275 2716 1747 3816 
L 403 3816 
L 403 4231 
L 1153 4231 
L 1153 5306 
L 1581 5306 
L 1581 4231 
L 2047 4231 
L 2297 4034 
Q 2003 3319 1600 2741 
L 1600 2394 
z
M 4384 4019 
L 4384 3419 
L 5778 3419 
L 5778 25 
Q 5778 -391 5303 -391 
Q 4997 -391 4806 -366 
L 4728 56 
Q 5006 19 5209 19 
Q 5363 19 5363 206 
L 5363 1031 
L 4378 1031 
L 4378 -288 
L 3969 -288 
L 3969 1031 
L 3034 1031 
L 3034 -447 
L 2613 -447 
L 2613 3419 
L 3963 3419 
L 3963 4019 
L 2350 4019 
L 2350 4403 
L 3963 4403 
L 3963 5313 
L 4384 5313 
L 4384 4403 
L 5338 4403 
Q 5331 4422 5303 4459 
Q 5113 4750 4813 5050 
L 5144 5247 
Q 5413 4997 5681 4641 
L 5350 4403 
L 6047 4403 
L 6047 4019 
L 4384 4019 
z
M 3969 3047 
L 3034 3047 
L 3034 2413 
L 3969 2413 
L 3969 3047 
z
M 4378 3047 
L 4378 2413 
L 5363 2413 
L 5363 3047 
L 4378 3047 
z
M 3969 2047 
L 3034 2047 
L 3034 1391 
L 3969 1391 
L 3969 2047 
z
M 4378 2047 
L 4378 1391 
L 5363 1391 
L 5363 2047 
L 4378 2047 
z
" transform="scale(0.015625)"/>
      <path id="IPAexGothic-52a9" d="M 4525 3469 
Q 4497 2066 4244 1288 
Q 3891 222 2988 -506 
L 2669 -159 
Q 3566 553 3872 1678 
Q 4053 2341 4084 3413 
L 3097 3413 
L 3097 3828 
L 4084 3828 
L 4084 5203 
L 4525 5203 
L 4525 3884 
L 5894 3884 
Q 5884 1075 5716 169 
Q 5619 -331 5069 -331 
Q 4684 -331 4294 -275 
L 4219 231 
Q 4600 122 4922 122 
Q 5234 122 5291 519 
Q 5416 1391 5447 3469 
L 4525 3469 
z
M 2859 4750 
L 2859 1094 
Q 3028 1134 3256 1209 
L 3269 813 
Q 1997 388 447 103 
L 294 563 
L 794 641 
L 794 4750 
L 2859 4750 
z
M 1209 4359 
L 1209 3463 
L 2444 3463 
L 2444 4359 
L 1209 4359 
z
M 1209 3091 
L 1209 2194 
L 2444 2194 
L 2444 3091 
L 1209 3091 
z
M 1209 1822 
L 1209 709 
Q 1903 841 2444 978 
L 2444 1822 
L 1209 1822 
z
" transform="scale(0.015625)"/>
      <path id="IPAexGothic-30c4" d="M 1453 2591 
Q 1197 3459 838 4116 
L 1356 4331 
Q 1734 3647 2003 2841 
L 1453 2591 
z
M 2956 2963 
Q 2741 3763 2353 4494 
L 2866 4706 
Q 3234 4031 3500 3200 
L 2956 2963 
z
M 1894 294 
Q 3550 928 4244 2272 
Q 4678 3109 4900 4538 
L 5453 4366 
Q 5166 2584 4434 1519 
Q 3722 463 2266 -147 
L 1894 294 
z
" transform="scale(0.015625)"/>
      <path id="IPAexGothic-30eb" d="M 353 331 
Q 1313 994 1544 2022 
Q 1684 2650 1684 4397 
L 2203 4397 
L 2203 4153 
L 2203 4116 
Q 2203 2259 1934 1491 
Q 1619 588 744 -38 
L 353 331 
z
M 3125 4666 
L 3650 4666 
L 3650 769 
Q 4875 1488 5672 2734 
L 6000 2278 
Q 5075 966 3516 63 
L 3125 359 
L 3125 4666 
z
" transform="scale(0.015625)"/>
      <path id="IPAexGothic-300d" d="M 1819 4209 
L 2266 4209 
L 2266 -434 
L 525 -434 
L 525 13 
L 1819 13 
L 1819 4209 
z
" transform="scale(0.015625)"/>
     </defs>
     <use xlink:href="#IPAexGothic-1f511"/>
     <use xlink:href="#IPAexGothic-20" x="100"/>
     <use xlink:href="#IPAexGothic-41" x="127.001953"/>
     <use xlink:href="#IPAexGothic-49" x="190.722656"/>
     <use xlink:href="#IPAexGothic-306f" x="219.628906"/>
     <use xlink:href="#IPAexGothic-300c" x="319.628906"/>
     <use xlink:href="#IPAexGothic-30b3" x="419.628906"/>
     <use xlink:href="#IPAexGothic-30fc" x="519.628906"/>
     <use xlink:href="#IPAexGothic-30c7" x="619.628906"/>
     <use xlink:href="#IPAexGothic-30a3" x="719.628906"/>
     <use xlink:href="#IPAexGothic-30f3" x="819.628906"/>
     <use xlink:href="#IPAexGothic-30b0" x="919.628906"/>
     <use xlink:href="#IPAexGothic-306e" x="1019.628906"/>
     <use xlink:href="#IPAexGothic-88dc" x="1119.628906"/>
     <use xlink:href="#IPAexGothic-52a9" x="1219.628906"/>
     <use xlink:href="#IPAexGothic-30c4" x="1319.628906"/>
     <use xlink:href="#IPAexGothic-30fc" x="1419.628906"/>
     <use xlink:href="#IPAexGothic-30eb" x="1519.628906"/>
     <use xlink:href="#IPAexGothic-300d" x="1619.628906"/>
    </g>
   </g>
   <g id="text_16">
    <!-- 分析の目的・設定と結果の解釈は、データサイエンティスト（あなた）の仕事 -->
    <g style="fill: #1e8449" transform="translate(41.04 335.035394) scale(0.13 -0.13)">
     <defs>
      <path id="IPAexGothic-7684" d="M 5925 4141 
Q 5859 888 5656 91 
Q 5581 -219 5350 -325 
Q 5178 -397 4856 -397 
Q 4428 -397 4044 -353 
L 3953 134 
Q 4444 56 4838 56 
Q 5128 56 5203 234 
Q 5400 706 5459 3438 
L 5466 3719 
L 3838 3719 
Q 3550 3031 3116 2503 
L 2809 2856 
Q 3469 3659 3788 5172 
L 4250 5050 
Q 4144 4559 4000 4141 
L 5925 4141 
z
M 1316 4244 
L 1394 4475 
Q 1500 4806 1566 5209 
L 2053 5141 
Q 1872 4525 1753 4244 
L 2756 4244 
L 2756 366 
L 1022 366 
L 1022 -91 
L 581 -91 
L 581 4244 
L 1316 4244 
z
M 1022 3847 
L 1022 2553 
L 2316 2553 
L 2316 3847 
L 1022 3847 
z
M 1022 2169 
L 1022 763 
L 2316 763 
L 2316 2169 
L 1022 2169 
z
M 4384 1288 
Q 3975 2069 3531 2578 
L 3859 2834 
Q 4375 2259 4753 1569 
L 4384 1288 
z
" transform="scale(0.015625)"/>
      <path id="IPAexGothic-8a2d" d="M 2388 1684 
L 2388 -128 
L 959 -128 
L 959 -447 
L 538 -447 
L 538 1684 
L 2388 1684 
z
M 959 1313 
L 959 244 
L 1966 244 
L 1966 1313 
L 959 1313 
z
M 4969 4984 
L 4969 3441 
Q 4969 3256 5225 3256 
Q 5472 3256 5500 3384 
Q 5538 3509 5556 3941 
L 5981 3800 
Q 5950 3134 5813 2988 
Q 5688 2853 5225 2853 
Q 4753 2853 4625 2963 
Q 4528 3050 4528 3238 
L 4528 4575 
L 3681 4575 
L 3681 4409 
Q 3681 3675 3478 3256 
Q 3303 2916 2900 2628 
L 2606 2950 
Q 3028 3253 3156 3634 
Q 3253 3922 3253 4363 
L 3253 4984 
L 4969 4984 
z
M 4591 766 
Q 5241 306 6081 56 
L 5800 -403 
Q 4984 -97 4284 459 
Q 3581 -166 2766 -500 
L 2484 -122 
Q 3303 159 3963 753 
Q 3416 1300 3053 2053 
L 2722 2053 
L 2722 2463 
L 5344 2463 
L 5563 2278 
Q 5247 1478 4591 766 
z
M 4269 1041 
Q 4719 1519 4981 2053 
L 3503 2053 
Q 3794 1500 4269 1041 
z
M 634 5044 
L 2294 5044 
L 2294 4659 
L 634 4659 
L 634 5044 
z
M 347 4206 
L 2625 4206 
L 2625 3816 
L 347 3816 
L 347 4206 
z
M 634 3359 
L 2294 3359 
L 2294 2975 
L 634 2975 
L 634 3359 
z
M 634 2522 
L 2294 2522 
L 2294 2138 
L 634 2138 
L 634 2522 
z
" transform="scale(0.015625)"/>
      <path id="IPAexGothic-5b9a" d="M 3431 303 
Q 3931 225 4709 225 
Q 5191 225 6053 263 
Q 5963 59 5888 -228 
Q 5234 -250 4844 -250 
Q 3569 -250 3003 -78 
Q 2259 153 1750 903 
Q 1441 163 806 -459 
L 475 -75 
Q 1416 759 1684 2419 
L 2125 2303 
Q 2031 1756 1909 1356 
Q 2338 678 2972 416 
L 2972 2944 
L 1434 2944 
L 1434 3353 
L 4959 3353 
L 4959 2944 
L 3431 2944 
L 3431 1984 
L 5397 1984 
L 5397 1569 
L 3431 1569 
L 3431 303 
z
M 3419 4428 
L 5750 4428 
L 5750 3166 
L 5275 3166 
L 5275 4025 
L 1122 4025 
L 1122 3166 
L 647 3166 
L 647 4428 
L 2938 4428 
L 2938 5313 
L 3419 5313 
L 3419 4428 
z
" transform="scale(0.015625)"/>
      <path id="IPAexGothic-3001" d="M 1325 -409 
Q 859 319 281 856 
L 691 1209 
Q 1225 734 1772 -25 
L 1325 -409 
z
" transform="scale(0.015625)"/>
      <path id="IPAexGothic-30bf" d="M 4978 4263 
L 5313 3988 
Q 4797 2431 4056 1459 
Q 3191 325 1822 -300 
L 1466 109 
Q 2131 381 2613 738 
Q 3053 1066 3531 1600 
Q 2919 2225 2144 2791 
Q 1603 2203 1172 1875 
L 825 2234 
Q 2316 3328 2866 5031 
L 3359 4897 
Q 3325 4775 3109 4263 
L 4978 4263 
z
M 2894 3816 
Q 2709 3522 2438 3169 
Q 3194 2616 3841 2003 
Q 4366 2806 4747 3816 
L 2894 3816 
z
" transform="scale(0.015625)"/>
      <path id="IPAexGothic-30b5" d="M 3994 4919 
L 4506 4919 
L 4506 3531 
L 5888 3531 
L 5888 3072 
L 4506 3072 
Q 4488 1719 4153 1063 
Q 3728 222 2644 -325 
L 2266 38 
Q 3325 525 3713 1319 
Q 3975 1853 3994 3072 
L 2331 3072 
L 2331 1575 
L 1819 1575 
L 1819 3072 
L 513 3072 
L 513 3531 
L 1819 3531 
L 1819 4797 
L 2331 4797 
L 2331 3531 
L 3994 3531 
L 3994 4919 
z
" transform="scale(0.015625)"/>
      <path id="IPAexGothic-30c6" d="M 563 3072 
L 5741 3072 
L 5741 2613 
L 3578 2613 
Q 3538 1516 3134 872 
Q 2688 156 1663 -256 
L 1313 156 
Q 2338 538 2713 1166 
Q 3003 1644 3034 2613 
L 563 2613 
L 563 3072 
z
M 1406 4588 
L 4941 4588 
L 4941 4128 
L 1406 4128 
L 1406 4588 
z
" transform="scale(0.015625)"/>
      <path id="IPAexGothic-4ed5" d="M 1634 3688 
L 1634 -447 
L 1166 -447 
L 1166 2809 
Q 869 2334 519 1894 
L 263 2291 
Q 1225 3463 1691 5178 
L 2153 5050 
Q 1922 4300 1634 3688 
z
M 4159 3366 
L 5991 3366 
L 5991 2938 
L 4159 2938 
L 4159 288 
L 5766 288 
L 5766 -141 
L 2109 -141 
L 2109 288 
L 3678 288 
L 3678 2938 
L 1938 2938 
L 1938 3366 
L 3678 3366 
L 3678 5150 
L 4159 5150 
L 4159 3366 
z
" transform="scale(0.015625)"/>
      <path id="IPAexGothic-4e8b" d="M 2950 3922 
L 2950 4294 
L 478 4294 
L 478 4659 
L 2950 4659 
L 2950 5313 
L 3403 5313 
L 3403 4659 
L 5919 4659 
L 5919 4294 
L 3403 4294 
L 3403 3922 
L 5234 3922 
L 5234 2822 
L 3403 2822 
L 3403 2450 
L 5325 2450 
L 5325 1759 
L 6081 1759 
L 6081 1381 
L 5325 1381 
L 5325 397 
L 4881 397 
L 4881 672 
L 3403 672 
L 3403 6 
Q 3403 -263 3269 -356 
Q 3150 -441 2841 -441 
Q 2497 -441 2116 -403 
L 2041 56 
Q 2450 -25 2731 -25 
Q 2950 -25 2950 159 
L 2950 672 
L 844 672 
L 844 1025 
L 2950 1025 
L 2950 1394 
L 319 1394 
L 319 1747 
L 2950 1747 
L 2950 2097 
L 838 2097 
L 838 2450 
L 2950 2450 
L 2950 2822 
L 1156 2822 
L 1156 3922 
L 2950 3922 
z
M 2950 3591 
L 1584 3591 
L 1584 3163 
L 2950 3163 
L 2950 3591 
z
M 3403 3591 
L 3403 3163 
L 4806 3163 
L 4806 3591 
L 3403 3591 
z
M 3403 1025 
L 4881 1025 
L 4881 1394 
L 3403 1394 
L 3403 1025 
z
M 3403 1747 
L 4881 1747 
L 4881 2097 
L 3403 2097 
L 3403 1747 
z
" transform="scale(0.015625)"/>
     </defs>
     <use xlink:href="#IPAexGothic-5206"/>
     <use xlink:href="#IPAexGothic-6790" x="100"/>
     <use xlink:href="#IPAexGothic-306e" x="200"/>
     <use xlink:href="#IPAexGothic-76ee" x="300"/>
     <use xlink:href="#IPAexGothic-7684" x="400"/>
     <use xlink:href="#IPAexGothic-30fb" x="500"/>
     <use xlink:href="#IPAexGothic-8a2d" x="600"/>
     <use xlink:href="#IPAexGothic-5b9a" x="700"/>
     <use xlink:href="#IPAexGothic-3068" x="800"/>
     <use xlink:href="#IPAexGothic-7d50" x="900"/>
     <use xlink:href="#IPAexGothic-679c" x="1000"/>
     <use xlink:href="#IPAexGothic-306e" x="1100"/>
     <use xlink:href="#IPAexGothic-89e3" x="1200"/>
     <use xlink:href="#IPAexGothic-91c8" x="1300"/>
     <use xlink:href="#IPAexGothic-306f" x="1400"/>
     <use xlink:href="#IPAexGothic-3001" x="1500"/>
     <use xlink:href="#IPAexGothic-30c7" x="1600"/>
     <use xlink:href="#IPAexGothic-30fc" x="1700"/>
     <use xlink:href="#IPAexGothic-30bf" x="1800"/>
     <use xlink:href="#IPAexGothic-30b5" x="1900"/>
     <use xlink:href="#IPAexGothic-30a4" x="2000"/>
     <use xlink:href="#IPAexGothic-30a8" x="2100"/>
     <use xlink:href="#IPAexGothic-30f3" x="2200"/>
     <use xlink:href="#IPAexGothic-30c6" x="2300"/>
     <use xlink:href="#IPAexGothic-30a3" x="2400"/>
     <use xlink:href="#IPAexGothic-30b9" x="2500"/>
     <use xlink:href="#IPAexGothic-30c8" x="2600"/>
     <use xlink:href="#IPAexGothic-ff08" x="2700"/>
     <use xlink:href="#IPAexGothic-3042" x="2800"/>
     <use xlink:href="#IPAexGothic-306a" x="2900"/>
     <use xlink:href="#IPAexGothic-305f" x="3000"/>
     <use xlink:href="#IPAexGothic-ff09" x="3100"/>
     <use xlink:href="#IPAexGothic-306e" x="3200"/>
     <use xlink:href="#IPAexGothic-4ed5" x="3300"/>
     <use xlink:href="#IPAexGothic-4e8b" x="3400"/>
    </g>
   </g>
  </g>
 </g>
 <defs>
  <clipPath id="pf366e3b78e">
   <rect x="0" y="-0" width="691.2" height="388.8"/>
  </clipPath>
 </defs>
</svg>
