<?xml version="1.0" encoding="utf-8" standalone="no"?>
<!DOCTYPE svg PUBLIC "-//W3C//DTD SVG 1.1//EN"
  "http://www.w3.org/Graphics/SVG/1.1/DTD/svg11.dtd">
<svg xmlns:xlink="http://www.w3.org/1999/xlink" width="691.2pt" height="388.8pt" viewBox="0 0 691.2 388.8" xmlns="http://www.w3.org/2000/svg" version="1.1">
 <metadata>
  <rdf:RDF xmlns:dc="http://purl.org/dc/elements/1.1/" xmlns:cc="http://creativecommons.org/ns#" xmlns:rdf="http://www.w3.org/1999/02/22-rdf-syntax-ns#">
   <cc:Work>
    <dc:type rdf:resource="http://purl.org/dc/dcmitype/StillImage"/>
    <dc:date>2026-04-09T02:37:46.273603</dc:date>
    <dc:format>image/svg+xml</dc:format>
    <dc:creator>
     <cc:Agent>
      <dc:title>Matplotlib v3.9.4, https://matplotlib.org/</dc:title>
     </cc:Agent>
    </dc:creator>
   </cc:Work>
  </rdf:RDF>
 </metadata>
 <defs>
  <style type="text/css">*{stroke-linejoin: round; stroke-linecap: butt}</style>
 </defs>
 <g id="figure_1">
  <g id="patch_1">
   <path d="M 0 388.8 
L 691.2 388.8 
L 691.2 0 
L 0 0 
z
" style="fill: #ffffff"/>
  </g>
  <g id="axes_1">
   <g id="patch_2">
    <path d="M 0 -0 
L 691.2 -0 
L 691.2 24.48 
L 0 24.48 
z
" clip-path="url(#p7fa7b57819)" style="fill: #8e44ad"/>
   </g>
   <g id="patch_3">
    <path d="M 31.68 59.04 
L 659.52 59.04 
L 659.52 60.48 
L 31.68 60.48 
z
" clip-path="url(#p7fa7b57819)" style="fill: #ecf0f1"/>
   </g>
   <g id="patch_4">
    <path d="M 31.68 67.68 
L 143.28 67.68 
Q 147.6 67.68 147.6 72 
L 147.6 126.72 
Q 147.6 131.04 143.28 131.04 
L 31.68 131.04 
Q 27.36 131.04 27.36 126.72 
L 27.36 72 
Q 27.36 67.68 31.68 67.68 
z
" clip-path="url(#p7fa7b57819)" style="fill: #4a90d9"/>
   </g>
   <g id="patch_5">
    <path d="M 160.56 67.68 
L 272.16 67.68 
Q 276.48 67.68 276.48 72 
L 276.48 126.72 
Q 276.48 131.04 272.16 131.04 
L 160.56 131.04 
Q 156.24 131.04 156.24 126.72 
L 156.24 72 
Q 156.24 67.68 160.56 67.68 
z
" clip-path="url(#p7fa7b57819)" style="fill: #5ba85a"/>
   </g>
   <g id="patch_6">
    <path d="M 289.44 67.68 
L 401.04 67.68 
Q 405.36 67.68 405.36 72 
L 405.36 126.72 
Q 405.36 131.04 401.04 131.04 
L 289.44 131.04 
Q 285.12 131.04 285.12 126.72 
L 285.12 72 
Q 285.12 67.68 289.44 67.68 
z
" clip-path="url(#p7fa7b57819)" style="fill: #e8a838"/>
   </g>
   <g id="patch_7">
    <path d="M 418.32 67.68 
L 529.92 67.68 
Q 534.24 67.68 534.24 72 
L 534.24 126.72 
Q 534.24 131.04 529.92 131.04 
L 418.32 131.04 
Q 414 131.04 414 126.72 
L 414 72 
Q 414 67.68 418.32 67.68 
z
" clip-path="url(#p7fa7b57819)" style="fill: #c0392b"/>
   </g>
   <g id="patch_8">
    <path d="M 547.2 67.68 
L 658.8 67.68 
Q 663.12 67.68 663.12 72 
L 663.12 126.72 
Q 663.12 131.04 658.8 131.04 
L 547.2 131.04 
Q 542.88 131.04 542.88 126.72 
L 542.88 72 
Q 542.88 67.68 547.2 67.68 
z
" clip-path="url(#p7fa7b57819)" style="fill: #8e44ad"/>
   </g>
   <g id="patch_9">
    <path d="M 31.68 139.68 
L 175.68 139.68 
L 175.68 164.16 
L 31.68 164.16 
z
" clip-path="url(#p7fa7b57819)" style="fill: #8e44ad; stroke: #ffffff; stroke-linejoin: miter"/>
   </g>
   <g id="patch_10">
    <path d="M 175.68 139.68 
L 276.48 139.68 
L 276.48 164.16 
L 175.68 164.16 
z
" clip-path="url(#p7fa7b57819)" style="fill: #8e44ad; stroke: #ffffff; stroke-linejoin: miter"/>
   </g>
   <g id="patch_11">
    <path d="M 276.48 139.68 
L 659.52 139.68 
L 659.52 164.16 
L 276.48 164.16 
z
" clip-path="url(#p7fa7b57819)" style="fill: #8e44ad; stroke: #ffffff; stroke-linejoin: miter"/>
   </g>
   <g id="patch_12">
    <path d="M 31.68 164.16 
L 175.68 164.16 
L 175.68 188.64 
L 31.68 188.64 
z
" clip-path="url(#p7fa7b57819)" style="fill: #ffffff; stroke: #ecf0f1; stroke-width: 0.5; stroke-linejoin: miter"/>
   </g>
   <g id="patch_13">
    <path d="M 175.68 164.16 
L 276.48 164.16 
L 276.48 188.64 
L 175.68 188.64 
z
" clip-path="url(#p7fa7b57819)" style="fill: #ffffff; stroke: #ecf0f1; stroke-width: 0.5; stroke-linejoin: miter"/>
   </g>
   <g id="patch_14">
    <path d="M 276.48 164.16 
L 659.52 164.16 
L 659.52 188.64 
L 276.48 188.64 
z
" clip-path="url(#p7fa7b57819)" style="fill: #ffffff; stroke: #ecf0f1; stroke-width: 0.5; stroke-linejoin: miter"/>
   </g>
   <g id="patch_15">
    <path d="M 31.68 188.64 
L 175.68 188.64 
L 175.68 213.12 
L 31.68 213.12 
z
" clip-path="url(#p7fa7b57819)" style="fill: #f8f9fa; stroke: #ecf0f1; stroke-width: 0.5; stroke-linejoin: miter"/>
   </g>
   <g id="patch_16">
    <path d="M 175.68 188.64 
L 276.48 188.64 
L 276.48 213.12 
L 175.68 213.12 
z
" clip-path="url(#p7fa7b57819)" style="fill: #f8f9fa; stroke: #ecf0f1; stroke-width: 0.5; stroke-linejoin: miter"/>
   </g>
   <g id="patch_17">
    <path d="M 276.48 188.64 
L 659.52 188.64 
L 659.52 213.12 
L 276.48 213.12 
z
" clip-path="url(#p7fa7b57819)" style="fill: #f8f9fa; stroke: #ecf0f1; stroke-width: 0.5; stroke-linejoin: miter"/>
   </g>
   <g id="patch_18">
    <path d="M 31.68 213.12 
L 175.68 213.12 
L 175.68 237.6 
L 31.68 237.6 
z
" clip-path="url(#p7fa7b57819)" style="fill: #ffffff; stroke: #ecf0f1; stroke-width: 0.5; stroke-linejoin: miter"/>
   </g>
   <g id="patch_19">
    <path d="M 175.68 213.12 
L 276.48 213.12 
L 276.48 237.6 
L 175.68 237.6 
z
" clip-path="url(#p7fa7b57819)" style="fill: #ffffff; stroke: #ecf0f1; stroke-width: 0.5; stroke-linejoin: miter"/>
   </g>
   <g id="patch_20">
    <path d="M 276.48 213.12 
L 659.52 213.12 
L 659.52 237.6 
L 276.48 237.6 
z
" clip-path="url(#p7fa7b57819)" style="fill: #ffffff; stroke: #ecf0f1; stroke-width: 0.5; stroke-linejoin: miter"/>
   </g>
   <g id="patch_21">
    <path d="M 31.68 237.6 
L 175.68 237.6 
L 175.68 262.08 
L 31.68 262.08 
z
" clip-path="url(#p7fa7b57819)" style="fill: #f8f9fa; stroke: #ecf0f1; stroke-width: 0.5; stroke-linejoin: miter"/>
   </g>
   <g id="patch_22">
    <path d="M 175.68 237.6 
L 276.48 237.6 
L 276.48 262.08 
L 175.68 262.08 
z
" clip-path="url(#p7fa7b57819)" style="fill: #f8f9fa; stroke: #ecf0f1; stroke-width: 0.5; stroke-linejoin: miter"/>
   </g>
   <g id="patch_23">
    <path d="M 276.48 237.6 
L 659.52 237.6 
L 659.52 262.08 
L 276.48 262.08 
z
" clip-path="url(#p7fa7b57819)" style="fill: #f8f9fa; stroke: #ecf0f1; stroke-width: 0.5; stroke-linejoin: miter"/>
   </g>
   <g id="patch_24">
    <path d="M 31.68 262.08 
L 175.68 262.08 
L 175.68 286.56 
L 31.68 286.56 
z
" clip-path="url(#p7fa7b57819)" style="fill: #ffffff; stroke: #ecf0f1; stroke-width: 0.5; stroke-linejoin: miter"/>
   </g>
   <g id="patch_25">
    <path d="M 175.68 262.08 
L 276.48 262.08 
L 276.48 286.56 
L 175.68 286.56 
z
" clip-path="url(#p7fa7b57819)" style="fill: #ffffff; stroke: #ecf0f1; stroke-width: 0.5; stroke-linejoin: miter"/>
   </g>
   <g id="patch_26">
    <path d="M 276.48 262.08 
L 659.52 262.08 
L 659.52 286.56 
L 276.48 286.56 
z
" clip-path="url(#p7fa7b57819)" style="fill: #ffffff; stroke: #ecf0f1; stroke-width: 0.5; stroke-linejoin: miter"/>
   </g>
   <g id="text_1">
    <!-- まとめ・振り返り -->
    <g style="fill: #ffffff" transform="translate(31.68 15.035312) scale(0.1 -0.1)">
     <defs>
      <path id="IPAexGothic-307e" d="M 3538 5075 
L 3547 4141 
Q 4509 4203 5288 4341 
L 5325 3897 
Q 4744 3809 3553 3719 
L 3566 2925 
Q 4578 3022 5031 3103 
L 5063 2663 
Q 4519 2572 3578 2503 
L 3628 1403 
Q 4531 1128 5459 513 
L 5153 84 
Q 4656 456 3641 909 
Q 3669 331 3391 84 
Q 3116 -153 2559 -153 
Q 1900 -153 1522 72 
Q 1138 297 1138 719 
Q 1138 1163 1634 1413 
Q 1994 1594 2413 1594 
Q 2797 1594 3156 1538 
L 3109 2472 
Q 2641 2450 2413 2450 
Q 1931 2450 1422 2484 
L 1422 2919 
Q 1941 2872 2516 2872 
Q 2706 2872 3097 2894 
L 3072 3688 
Q 2381 3675 2344 3675 
Q 1794 3675 1075 3706 
L 1075 4141 
Q 1744 4097 2431 4097 
Q 2456 4097 3059 4109 
L 3041 5075 
L 3538 5075 
z
M 3163 1088 
Q 2713 1184 2394 1184 
Q 2094 1184 1875 1091 
Q 1606 975 1606 750 
Q 1606 484 1925 363 
Q 2156 275 2503 275 
Q 3163 275 3163 794 
L 3163 1088 
z
" transform="scale(0.015625)"/>
      <path id="IPAexGothic-3068" d="M 5222 56 
Q 4200 -72 3450 -72 
Q 2478 -72 1941 113 
Q 1184 372 1184 1038 
Q 1184 1584 1594 2009 
Q 1941 2369 2656 2725 
Q 2231 3734 1972 4878 
L 2491 4978 
Q 2706 3884 3078 2950 
Q 4250 3447 4756 3616 
L 4978 3150 
Q 3181 2575 2409 2078 
Q 1691 1613 1691 1113 
Q 1691 403 3322 403 
Q 4125 403 5134 563 
L 5222 56 
z
" transform="scale(0.015625)"/>
      <path id="IPAexGothic-3081" d="M 1588 4550 
Q 1709 3969 1881 3431 
Q 2488 3791 3309 3891 
Q 3444 4513 3488 4972 
L 3994 4878 
Q 3922 4456 3800 3897 
Q 4666 3838 5169 3397 
Q 5513 3103 5650 2753 
Q 5784 2413 5784 1900 
Q 5784 1081 5106 550 
Q 4500 75 3397 -128 
L 3103 331 
Q 4238 484 4784 944 
Q 5253 1334 5253 1913 
Q 5253 2428 5100 2725 
Q 4981 2963 4716 3156 
Q 4331 3441 3694 3500 
Q 3363 2388 2766 1428 
Q 2872 1241 3084 966 
L 2725 647 
Q 2597 813 2475 1019 
Q 1834 231 1313 231 
Q 966 231 756 556 
Q 544 884 544 1338 
Q 544 2300 1484 3156 
Q 1250 3903 1153 4353 
L 1588 4550 
z
M 1631 2725 
Q 991 2069 991 1378 
Q 991 738 1344 738 
Q 1709 738 2228 1428 
Q 1894 2025 1631 2725 
z
M 3206 3488 
Q 2519 3381 2009 3028 
Q 2266 2306 2516 1863 
Q 3003 2763 3206 3488 
z
" transform="scale(0.015625)"/>
      <path id="IPAexGothic-30fb" d="M 2772 2859 
L 3628 2859 
L 3628 2003 
L 2772 2003 
L 2772 2859 
z
" transform="scale(0.015625)"/>
      <path id="IPAexGothic-632f" d="M 1178 4013 
L 1178 5300 
L 1606 5300 
L 1606 4013 
L 2206 4013 
L 2206 3597 
L 1606 3597 
L 1606 2375 
Q 1856 2444 2238 2572 
L 2266 2216 
Q 1894 2066 1650 1991 
Q 1631 1984 1606 1972 
L 1606 0 
Q 1606 -272 1484 -363 
Q 1384 -447 1094 -447 
Q 797 -447 519 -409 
L 441 50 
Q 738 -6 972 -6 
Q 1178 -6 1178 172 
L 1178 1838 
Q 1138 1825 1106 1819 
Q 875 1744 403 1619 
L 275 2047 
Q 613 2116 1178 2259 
L 1178 3597 
L 372 3597 
L 372 4013 
L 1178 4013 
z
M 2925 4441 
L 2925 2681 
L 5984 2681 
L 5984 2284 
L 4647 2284 
Q 4703 1834 4872 1422 
Q 5303 1759 5600 2106 
L 5984 1803 
Q 5584 1431 5044 1069 
Q 5413 488 6088 13 
L 5747 -403 
Q 4394 691 4250 2284 
L 3816 2284 
L 3816 225 
Q 4256 328 4672 466 
L 4731 103 
Q 3981 -203 2988 -403 
L 2834 38 
Q 3172 88 3375 128 
L 3375 2284 
L 2925 2284 
Q 2906 1513 2809 1016 
Q 2656 250 2203 -416 
L 1863 -66 
Q 2300 547 2413 1428 
Q 2478 1928 2478 2809 
L 2478 4831 
L 5909 4831 
L 5909 4441 
L 2925 4441 
z
M 3153 3756 
L 5594 3756 
L 5594 3366 
L 3153 3366 
L 3153 3756 
z
" transform="scale(0.015625)"/>
      <path id="IPAexGothic-308a" d="M 2878 2925 
Q 2503 2294 2372 2041 
Q 2222 1750 2163 1459 
L 1716 1503 
Q 1509 2131 1509 3091 
Q 1509 3744 1663 4872 
L 2181 4806 
Q 2003 3541 2003 3016 
Q 2003 2613 2028 2259 
Q 2109 2413 2313 2766 
Q 2484 3063 2578 3238 
L 2878 2925 
z
M 2488 128 
Q 3534 503 3928 1184 
Q 4234 1713 4234 2975 
Q 4234 3872 4122 4928 
L 4666 4928 
Q 4759 3794 4759 2975 
Q 4759 1516 4356 844 
Q 3913 103 2853 -288 
L 2488 128 
z
" transform="scale(0.015625)"/>
      <path id="IPAexGothic-8fd4" d="M 1725 741 
Q 1925 450 2231 313 
Q 2719 88 3934 88 
Q 4734 88 6141 178 
Q 6022 -50 5975 -300 
Q 4919 -341 4388 -341 
Q 2944 -341 2378 -169 
Q 1816 6 1534 403 
Q 1091 -97 594 -469 
L 313 -6 
Q 847 291 1284 678 
L 1284 2303 
L 388 2303 
L 388 2731 
L 1725 2731 
L 1725 741 
z
M 3000 4500 
L 3000 3547 
L 5316 3547 
L 5559 3334 
Q 5263 2266 4734 1563 
Q 5306 1088 6034 813 
L 5741 409 
Q 4963 766 4453 1238 
Q 3950 713 3184 347 
L 2878 719 
Q 3619 978 4159 1538 
L 4141 1563 
Q 3578 2213 3281 3156 
L 3000 3156 
Q 2991 2234 2884 1678 
Q 2750 1016 2309 469 
L 1978 794 
Q 2363 1247 2475 1863 
Q 2559 2278 2559 2972 
L 2559 4903 
L 5822 4903 
L 5822 4500 
L 3000 4500 
z
M 4434 1856 
Q 4834 2400 5034 3156 
L 3697 3156 
Q 3959 2388 4434 1856 
z
M 1547 3775 
Q 1078 4353 588 4738 
L 900 5056 
Q 1525 4550 1894 4128 
L 1547 3775 
z
" transform="scale(0.015625)"/>
     </defs>
     <use xlink:href="#IPAexGothic-307e"/>
     <use xlink:href="#IPAexGothic-3068" x="100"/>
     <use xlink:href="#IPAexGothic-3081" x="200"/>
     <use xlink:href="#IPAexGothic-30fb" x="300"/>
     <use xlink:href="#IPAexGothic-632f" x="400"/>
     <use xlink:href="#IPAexGothic-308a" x="500"/>
     <use xlink:href="#IPAexGothic-8fd4" x="600"/>
     <use xlink:href="#IPAexGothic-308a" x="700"/>
    </g>
   </g>
   <g id="text_2">
    <!-- データサイエンティストの仕事フロー（再確認） -->
    <g style="fill: #1a1a2e" transform="translate(31.68 55.44) scale(0.24 -0.24)">
     <defs>
      <path id="IPAexGothic-30c7" d="M 563 3072 
L 5741 3072 
L 5741 2613 
L 3578 2613 
Q 3538 1516 3134 872 
Q 2688 156 1663 -256 
L 1313 156 
Q 2338 538 2713 1166 
Q 3003 1644 3034 2613 
L 563 2613 
L 563 3072 
z
M 1406 4588 
L 4588 4588 
L 4588 4128 
L 1406 4128 
L 1406 4588 
z
M 6009 4469 
Q 5647 5009 5253 5338 
L 5553 5569 
Q 5938 5259 6328 4744 
L 6009 4469 
z
M 5413 4000 
Q 5125 4491 4678 4891 
L 4991 5131 
Q 5363 4825 5747 4275 
L 5413 4000 
z
" transform="scale(0.015625)"/>
      <path id="IPAexGothic-30fc" d="M 588 2688 
L 5809 2688 
L 5809 2175 
L 588 2175 
L 588 2688 
z
" transform="scale(0.015625)"/>
      <path id="IPAexGothic-30bf" d="M 4978 4263 
L 5313 3988 
Q 4797 2431 4056 1459 
Q 3191 325 1822 -300 
L 1466 109 
Q 2131 381 2613 738 
Q 3053 1066 3531 1600 
Q 2919 2225 2144 2791 
Q 1603 2203 1172 1875 
L 825 2234 
Q 2316 3328 2866 5031 
L 3359 4897 
Q 3325 4775 3109 4263 
L 4978 4263 
z
M 2894 3816 
Q 2709 3522 2438 3169 
Q 3194 2616 3841 2003 
Q 4366 2806 4747 3816 
L 2894 3816 
z
" transform="scale(0.015625)"/>
      <path id="IPAexGothic-30b5" d="M 3994 4919 
L 4506 4919 
L 4506 3531 
L 5888 3531 
L 5888 3072 
L 4506 3072 
Q 4488 1719 4153 1063 
Q 3728 222 2644 -325 
L 2266 38 
Q 3325 525 3713 1319 
Q 3975 1853 3994 3072 
L 2331 3072 
L 2331 1575 
L 1819 1575 
L 1819 3072 
L 513 3072 
L 513 3531 
L 1819 3531 
L 1819 4797 
L 2331 4797 
L 2331 3531 
L 3994 3531 
L 3994 4919 
z
" transform="scale(0.015625)"/>
      <path id="IPAexGothic-30a4" d="M 3131 -231 
L 3131 2875 
Q 2091 2088 1106 1656 
L 781 2059 
Q 3016 3000 4469 4916 
L 4916 4641 
Q 4384 3938 3675 3316 
L 3675 -231 
L 3131 -231 
z
" transform="scale(0.015625)"/>
      <path id="IPAexGothic-30a8" d="M 1109 4063 
L 5294 4063 
L 5294 3594 
L 3444 3594 
L 3444 988 
L 5759 988 
L 5759 513 
L 641 513 
L 641 988 
L 2913 988 
L 2913 3594 
L 1109 3594 
L 1109 4063 
z
" transform="scale(0.015625)"/>
      <path id="IPAexGothic-30f3" d="M 2444 3084 
Q 1816 3656 1056 4084 
L 1381 4519 
Q 2063 4191 2816 3559 
L 2444 3084 
z
M 1100 609 
Q 3984 1106 5216 3828 
L 5619 3469 
Q 4413 794 1434 103 
L 1100 609 
z
" transform="scale(0.015625)"/>
      <path id="IPAexGothic-30c6" d="M 563 3072 
L 5741 3072 
L 5741 2613 
L 3578 2613 
Q 3538 1516 3134 872 
Q 2688 156 1663 -256 
L 1313 156 
Q 2338 538 2713 1166 
Q 3003 1644 3034 2613 
L 563 2613 
L 563 3072 
z
M 1406 4588 
L 4941 4588 
L 4941 4128 
L 1406 4128 
L 1406 4588 
z
" transform="scale(0.015625)"/>
      <path id="IPAexGothic-30a3" d="M 3034 -231 
L 3034 2188 
Q 2344 1656 1516 1294 
L 1191 1672 
Q 2981 2431 4128 3922 
L 4519 3634 
Q 4138 3122 3534 2597 
L 3534 -231 
L 3034 -231 
z
" transform="scale(0.015625)"/>
      <path id="IPAexGothic-30b9" d="M 4359 4481 
L 4716 4147 
Q 4328 3072 3647 2150 
Q 4659 1434 5659 453 
L 5234 19 
Q 4256 1088 3353 1778 
Q 2372 597 1044 -31 
L 653 403 
Q 3128 1453 4097 4000 
L 1241 3963 
L 1228 4453 
L 4359 4481 
z
" transform="scale(0.015625)"/>
      <path id="IPAexGothic-30c8" d="M 2284 4997 
L 2803 4997 
L 2803 3206 
Q 4088 2619 5216 1888 
L 4878 1369 
Q 3819 2175 2803 2688 
L 2803 -184 
L 2284 -184 
L 2284 4997 
z
" transform="scale(0.015625)"/>
      <path id="IPAexGothic-306e" d="M 3119 469 
Q 5275 766 5275 2425 
Q 5275 3453 4413 3925 
Q 4041 4116 3547 4159 
Q 3394 2525 2850 1400 
Q 2322 306 1722 306 
Q 1384 306 1084 666 
Q 609 1244 609 2003 
Q 609 3025 1397 3794 
Q 2184 4563 3431 4563 
Q 4306 4563 4928 4122 
Q 5813 3506 5813 2425 
Q 5813 438 3431 6 
L 3119 469 
z
M 3053 4147 
Q 2378 4044 1891 3641 
Q 1097 2981 1097 1991 
Q 1097 1366 1434 978 
Q 1581 813 1719 813 
Q 2022 813 2416 1625 
Q 2909 2638 3053 4147 
z
" transform="scale(0.015625)"/>
      <path id="IPAexGothic-4ed5" d="M 1634 3688 
L 1634 -447 
L 1166 -447 
L 1166 2809 
Q 869 2334 519 1894 
L 263 2291 
Q 1225 3463 1691 5178 
L 2153 5050 
Q 1922 4300 1634 3688 
z
M 4159 3366 
L 5991 3366 
L 5991 2938 
L 4159 2938 
L 4159 288 
L 5766 288 
L 5766 -141 
L 2109 -141 
L 2109 288 
L 3678 288 
L 3678 2938 
L 1938 2938 
L 1938 3366 
L 3678 3366 
L 3678 5150 
L 4159 5150 
L 4159 3366 
z
" transform="scale(0.015625)"/>
      <path id="IPAexGothic-4e8b" d="M 2950 3922 
L 2950 4294 
L 478 4294 
L 478 4659 
L 2950 4659 
L 2950 5313 
L 3403 5313 
L 3403 4659 
L 5919 4659 
L 5919 4294 
L 3403 4294 
L 3403 3922 
L 5234 3922 
L 5234 2822 
L 3403 2822 
L 3403 2450 
L 5325 2450 
L 5325 1759 
L 6081 1759 
L 6081 1381 
L 5325 1381 
L 5325 397 
L 4881 397 
L 4881 672 
L 3403 672 
L 3403 6 
Q 3403 -263 3269 -356 
Q 3150 -441 2841 -441 
Q 2497 -441 2116 -403 
L 2041 56 
Q 2450 -25 2731 -25 
Q 2950 -25 2950 159 
L 2950 672 
L 844 672 
L 844 1025 
L 2950 1025 
L 2950 1394 
L 319 1394 
L 319 1747 
L 2950 1747 
L 2950 2097 
L 838 2097 
L 838 2450 
L 2950 2450 
L 2950 2822 
L 1156 2822 
L 1156 3922 
L 2950 3922 
z
M 2950 3591 
L 1584 3591 
L 1584 3163 
L 2950 3163 
L 2950 3591 
z
M 3403 3591 
L 3403 3163 
L 4806 3163 
L 4806 3591 
L 3403 3591 
z
M 3403 1025 
L 4881 1025 
L 4881 1394 
L 3403 1394 
L 3403 1025 
z
M 3403 1747 
L 4881 1747 
L 4881 2097 
L 3403 2097 
L 3403 1747 
z
" transform="scale(0.015625)"/>
      <path id="IPAexGothic-30d5" d="M 4966 4294 
L 5263 4019 
Q 4819 894 1966 -97 
L 1600 353 
Q 4234 1156 4684 3822 
L 1044 3756 
L 1044 4244 
L 4966 4294 
z
" transform="scale(0.015625)"/>
      <path id="IPAexGothic-30ed" d="M 1147 4269 
L 5250 4269 
L 5250 172 
L 4725 172 
L 4725 569 
L 1672 569 
L 1672 172 
L 1147 172 
L 1147 4269 
z
M 1672 3781 
L 1672 1063 
L 4725 1063 
L 4725 3781 
L 1672 3781 
z
" transform="scale(0.015625)"/>
      <path id="IPAexGothic-ff08" d="M 5419 -434 
Q 4197 769 4197 2438 
Q 4197 4097 5419 5300 
L 5919 5300 
Q 4678 4078 4678 2425 
Q 4678 788 5919 -434 
L 5419 -434 
z
" transform="scale(0.015625)"/>
      <path id="IPAexGothic-518d" d="M 2959 3750 
L 2959 4447 
L 513 4447 
L 513 4850 
L 5881 4850 
L 5881 4447 
L 3400 4447 
L 3400 3750 
L 5313 3750 
L 5313 1556 
L 6066 1556 
L 6066 1147 
L 5313 1147 
L 5313 103 
Q 5313 -372 4731 -372 
Q 4234 -372 3822 -313 
L 3750 178 
Q 4250 88 4616 88 
Q 4859 88 4859 328 
L 4859 1147 
L 1538 1147 
L 1538 -447 
L 1084 -447 
L 1084 1147 
L 322 1147 
L 322 1556 
L 1084 1556 
L 1084 3750 
L 2959 3750 
z
M 2959 3372 
L 1538 3372 
L 1538 2663 
L 2959 2663 
L 2959 3372 
z
M 3400 3372 
L 3400 2663 
L 4859 2663 
L 4859 3372 
L 3400 3372 
z
M 2959 2291 
L 1538 2291 
L 1538 1556 
L 2959 1556 
L 2959 2291 
z
M 3400 2291 
L 3400 1556 
L 4859 1556 
L 4859 2291 
L 3400 2291 
z
" transform="scale(0.015625)"/>
      <path id="IPAexGothic-78ba" d="M 4347 3219 
Q 4516 3538 4647 3956 
L 5075 3853 
Q 4875 3431 4750 3219 
L 5888 3219 
L 5888 2847 
L 4700 2847 
L 4700 2222 
L 5741 2222 
L 5741 1869 
L 4700 1869 
L 4700 1250 
L 5741 1250 
L 5741 897 
L 4700 897 
L 4700 231 
L 6034 231 
L 6034 -141 
L 3463 -141 
L 3463 -447 
L 3047 -447 
L 3047 2444 
Q 2756 2019 2484 1703 
L 2284 2100 
Q 3159 3197 3506 4147 
L 2913 4147 
L 2913 3425 
L 2509 3425 
L 2509 4519 
L 3634 4519 
Q 3750 4903 3847 5319 
L 4269 5241 
Q 4175 4834 4072 4519 
L 5934 4519 
L 5934 3425 
L 5525 3425 
L 5525 4147 
L 3938 4147 
Q 3747 3647 3513 3219 
L 4347 3219 
z
M 4297 2847 
L 3463 2847 
L 3463 2222 
L 4297 2222 
L 4297 2847 
z
M 4297 1869 
L 3463 1869 
L 3463 1250 
L 4297 1250 
L 4297 1869 
z
M 4297 897 
L 3463 897 
L 3463 231 
L 4297 231 
L 4297 897 
z
M 1159 2944 
L 2275 2944 
L 2275 197 
L 1213 197 
L 1213 -328 
L 816 -328 
L 816 2206 
Q 650 1903 394 1522 
L 188 1919 
Q 931 3013 1200 4416 
L 406 4416 
L 406 4819 
L 2409 4819 
L 2409 4416 
L 1616 4416 
L 1597 4353 
Q 1456 3663 1159 2944 
z
M 1213 2553 
L 1213 588 
L 1878 588 
L 1878 2553 
L 1213 2553 
z
" transform="scale(0.015625)"/>
      <path id="IPAexGothic-8a8d" d="M 4341 4556 
Q 4309 4069 4219 3694 
Q 4622 3497 4956 3309 
L 4731 2963 
Q 4463 3125 4141 3291 
L 4091 3322 
Q 3756 2566 2959 2088 
L 2663 2419 
Q 3456 2844 3713 3500 
Q 3213 3722 2906 3828 
L 3113 4141 
Q 3381 4050 3828 3866 
Q 3916 4231 3925 4556 
L 2816 4556 
L 2816 4947 
L 5775 4947 
Q 5766 3272 5653 2713 
Q 5606 2459 5453 2369 
Q 5334 2284 5025 2284 
Q 4684 2284 4366 2334 
L 4303 2784 
Q 4644 2713 4928 2713 
Q 5181 2713 5228 2906 
Q 5309 3234 5338 4513 
Q 5338 4544 5338 4556 
L 4341 4556 
z
M 2406 1684 
L 2406 -128 
L 959 -128 
L 959 -447 
L 544 -447 
L 544 1684 
L 2406 1684 
z
M 959 1313 
L 959 244 
L 1984 244 
L 1984 1313 
L 959 1313 
z
M 634 5044 
L 2313 5044 
L 2313 4659 
L 634 4659 
L 634 5044 
z
M 353 4206 
L 2638 4206 
L 2638 3816 
L 353 3816 
L 353 4206 
z
M 634 3359 
L 2313 3359 
L 2313 2975 
L 634 2975 
L 634 3359 
z
M 634 2522 
L 2313 2522 
L 2313 2138 
L 634 2138 
L 634 2522 
z
M 2528 31 
Q 2816 625 2919 1447 
L 3322 1375 
Q 3200 381 2900 -225 
L 2528 31 
z
M 3572 1556 
L 4000 1556 
L 4000 294 
Q 4000 128 4084 100 
Q 4144 75 4300 75 
Q 4728 75 4775 275 
Q 4806 394 4825 738 
L 5253 616 
Q 5206 -44 5081 -188 
Q 4941 -347 4359 -347 
Q 3900 -347 3738 -269 
Q 3572 -191 3572 91 
L 3572 1556 
z
M 5775 -25 
Q 5428 800 5006 1375 
L 5366 1588 
Q 5819 994 6166 244 
L 5775 -25 
z
M 4566 1294 
Q 4106 1772 3656 2075 
L 3938 2350 
Q 4331 2113 4872 1613 
L 4566 1294 
z
" transform="scale(0.015625)"/>
      <path id="IPAexGothic-ff09" d="M 481 -434 
Q 1722 788 1722 2431 
Q 1722 4066 481 5300 
L 981 5300 
Q 2203 4097 2203 2431 
Q 2203 769 981 -434 
L 481 -434 
z
" transform="scale(0.015625)"/>
     </defs>
     <use xlink:href="#IPAexGothic-30c7"/>
     <use xlink:href="#IPAexGothic-30fc" x="100"/>
     <use xlink:href="#IPAexGothic-30bf" x="200"/>
     <use xlink:href="#IPAexGothic-30b5" x="300"/>
     <use xlink:href="#IPAexGothic-30a4" x="400"/>
     <use xlink:href="#IPAexGothic-30a8" x="500"/>
     <use xlink:href="#IPAexGothic-30f3" x="600"/>
     <use xlink:href="#IPAexGothic-30c6" x="700"/>
     <use xlink:href="#IPAexGothic-30a3" x="800"/>
     <use xlink:href="#IPAexGothic-30b9" x="900"/>
     <use xlink:href="#IPAexGothic-30c8" x="1000"/>
     <use xlink:href="#IPAexGothic-306e" x="1100"/>
     <use xlink:href="#IPAexGothic-4ed5" x="1200"/>
     <use xlink:href="#IPAexGothic-4e8b" x="1300"/>
     <use xlink:href="#IPAexGothic-30d5" x="1400"/>
     <use xlink:href="#IPAexGothic-30ed" x="1500"/>
     <use xlink:href="#IPAexGothic-30fc" x="1600"/>
     <use xlink:href="#IPAexGothic-ff08" x="1700"/>
     <use xlink:href="#IPAexGothic-518d" x="1800"/>
     <use xlink:href="#IPAexGothic-78ba" x="1900"/>
     <use xlink:href="#IPAexGothic-8a8d" x="2000"/>
     <use xlink:href="#IPAexGothic-ff09" x="2100"/>
    </g>
   </g>
   <g id="text_3">
    <!-- データを -->
    <g style="fill: #ffffff" transform="translate(65.48 93.729389) scale(0.11 -0.11)">
     <defs>
      <path id="IPAexGothic-3092" d="M 1094 4263 
Q 1544 4222 2359 4222 
Q 2581 4734 2700 5163 
L 3175 5028 
Q 2997 4538 2859 4256 
Q 3516 4284 4294 4459 
L 4356 4019 
Q 3603 3869 2656 3819 
Q 2391 3284 2059 2797 
Q 2531 3200 2963 3200 
Q 3638 3200 3859 2378 
Q 4556 2681 5338 2950 
L 5575 2528 
Q 4641 2253 3941 1956 
Q 3981 1678 3994 1028 
L 3513 991 
Q 3513 1456 3494 1753 
Q 2388 1194 2388 716 
Q 2388 428 2753 328 
Q 3066 241 3806 241 
Q 4394 241 5178 344 
L 5216 -128 
Q 4434 -213 3653 -213 
Q 2656 -213 2244 41 
Q 1913 244 1913 631 
Q 1913 1094 2344 1497 
Q 2709 1841 3428 2181 
Q 3266 2797 2878 2797 
Q 2238 2797 1209 1419 
L 838 1694 
Q 1625 2716 2163 3800 
Q 1522 3800 1088 3825 
L 1094 4263 
z
" transform="scale(0.015625)"/>
     </defs>
     <use xlink:href="#IPAexGothic-30c7"/>
     <use xlink:href="#IPAexGothic-30fc" x="100"/>
     <use xlink:href="#IPAexGothic-30bf" x="200"/>
     <use xlink:href="#IPAexGothic-3092" x="300"/>
    </g>
   </g>
   <g id="text_4">
    <!-- 読み込む -->
    <g style="fill: #ffffff" transform="translate(65.48 118.602116) scale(0.11 -0.11)">
     <defs>
      <path id="IPAexGothic-8aad" d="M 2284 1684 
L 2284 -128 
L 919 -128 
L 919 -447 
L 509 -447 
L 509 1684 
L 2284 1684 
z
M 919 1313 
L 919 244 
L 1875 244 
L 1875 1313 
L 919 1313 
z
M 3953 4538 
L 3953 5313 
L 4394 5313 
L 4394 4538 
L 5994 4538 
L 5994 4153 
L 4394 4153 
L 4394 3572 
L 5822 3572 
L 5822 3194 
L 2653 3194 
L 2653 3572 
L 3953 3572 
L 3953 4153 
L 2506 4153 
L 2506 4538 
L 3953 4538 
z
M 5950 2725 
L 5950 1559 
L 5522 1559 
L 5522 2341 
L 2928 2341 
L 2928 1516 
L 2500 1516 
L 2500 2725 
L 5950 2725 
z
M 600 5044 
L 2194 5044 
L 2194 4659 
L 600 4659 
L 600 5044 
z
M 331 4206 
L 2384 4206 
L 2384 3816 
L 331 3816 
L 331 4206 
z
M 600 3359 
L 2194 3359 
L 2194 2975 
L 600 2975 
L 600 3359 
z
M 600 2522 
L 2194 2522 
L 2194 2138 
L 600 2138 
L 600 2522 
z
M 2353 -91 
Q 3025 194 3244 647 
Q 3431 1044 3441 2069 
L 3872 2069 
Q 3859 869 3634 441 
Q 3334 -109 2616 -475 
L 2353 -91 
z
M 4428 2069 
L 4856 2069 
L 4856 275 
Q 4856 128 4934 88 
Q 4994 63 5175 63 
Q 5500 63 5547 263 
Q 5584 425 5606 984 
L 6034 856 
Q 5994 153 5931 -38 
Q 5825 -372 5144 -372 
Q 4688 -372 4544 -275 
Q 4428 -191 4428 44 
L 4428 2069 
z
" transform="scale(0.015625)"/>
      <path id="IPAexGothic-307f" d="M 1291 4416 
Q 2209 4456 3341 4647 
L 3666 4409 
Q 3478 3597 3134 2703 
Q 3959 2575 4581 2300 
Q 4669 2759 4678 3488 
L 5163 3381 
Q 5134 2672 5016 2106 
Q 5519 1856 6016 1519 
L 5722 1081 
Q 5184 1459 4888 1613 
Q 4572 441 3456 -238 
L 3072 109 
Q 4150 678 4472 1831 
Q 3706 2200 2969 2284 
Q 2038 200 1319 200 
Q 1013 200 775 525 
Q 569 819 569 1197 
Q 569 1756 1081 2172 
Q 1681 2647 2663 2716 
Q 2900 3313 3084 4159 
Q 2278 4022 1447 3956 
L 1291 4416 
z
M 2481 2291 
Q 1644 2206 1241 1734 
Q 1038 1494 1038 1178 
Q 1038 1019 1100 897 
Q 1188 706 1338 706 
Q 1513 706 1797 1097 
Q 2131 1534 2481 2291 
z
" transform="scale(0.015625)"/>
      <path id="IPAexGothic-8fbc" d="M 4294 4897 
L 4294 4456 
Q 4294 3291 4763 2394 
Q 5206 1531 5938 1019 
L 5613 572 
Q 4391 1628 4044 3156 
Q 3706 1475 2503 544 
L 2169 934 
Q 3650 1928 3834 4403 
L 3841 4481 
L 2566 4481 
L 2566 4897 
L 4294 4897 
z
M 1831 775 
Q 2106 428 2516 284 
Q 2906 150 4197 150 
Q 5228 150 6119 216 
Q 6003 13 5944 -269 
Q 5022 -303 4453 -303 
Q 2925 -303 2425 -131 
Q 1900 44 1600 478 
Q 1144 -56 666 -450 
L 372 38 
Q 825 309 1378 759 
L 1378 2303 
L 397 2303 
L 397 2731 
L 1831 2731 
L 1831 775 
z
M 1625 3616 
Q 1191 4200 634 4703 
L 972 4997 
Q 1456 4616 1984 3969 
L 1625 3616 
z
" transform="scale(0.015625)"/>
      <path id="IPAexGothic-3080" d="M 1856 4984 
L 2347 4984 
L 2316 4084 
Q 2863 4131 3506 4256 
L 3556 3794 
Q 3119 3722 2297 3647 
L 2259 2509 
Q 2366 2272 2366 2022 
Q 2366 1672 2175 1375 
Q 2009 1100 2009 753 
Q 2009 459 2272 384 
Q 2503 313 3072 313 
Q 3747 313 4178 428 
Q 4594 534 4594 1056 
Q 4594 1506 4375 2034 
L 4888 2138 
Q 5100 1516 5100 991 
Q 5100 219 4491 25 
Q 4022 -128 3000 -128 
Q 2222 -128 1894 13 
Q 1534 169 1534 556 
Q 1534 753 1572 953 
Q 1456 909 1325 909 
Q 1072 909 894 1050 
Q 594 1294 594 1778 
Q 594 2319 959 2675 
Q 1231 2938 1547 2938 
Q 1650 2938 1803 2894 
L 1822 3616 
Q 1372 3597 1063 3597 
Q 928 3597 581 3609 
L 581 4063 
Q 894 4038 1278 4038 
Q 1394 4038 1828 4050 
L 1856 4984 
z
M 1572 2584 
Q 1409 2584 1266 2431 
Q 1041 2181 1041 1813 
Q 1041 1281 1425 1281 
Q 1644 1281 1794 1556 
Q 1878 1703 1878 2016 
Q 1878 2584 1572 2584 
z
M 5644 2516 
Q 5050 3319 4331 3884 
L 4716 4197 
Q 5391 3684 6041 2900 
L 5644 2516 
z
" transform="scale(0.015625)"/>
     </defs>
     <use xlink:href="#IPAexGothic-8aad"/>
     <use xlink:href="#IPAexGothic-307f" x="100"/>
     <use xlink:href="#IPAexGothic-8fbc" x="200"/>
     <use xlink:href="#IPAexGothic-3080" x="300"/>
    </g>
   </g>
   <g id="text_5">
    <!-- → -->
    <g style="fill: #95a5a6" transform="translate(144.72 103.552969) scale(0.15 -0.15)">
     <defs>
      <path id="IPAexGothic-2192" d="M 3947 3572 
L 4631 3572 
L 6072 2431 
L 4631 1294 
L 3947 1294 
L 5094 2194 
L 459 2194 
L 459 2669 
L 5094 2669 
L 3947 3572 
z
" transform="scale(0.015625)"/>
     </defs>
     <use xlink:href="#IPAexGothic-2192"/>
    </g>
   </g>
   <g id="text_6">
    <!-- データを -->
    <g style="fill: #ffffff" transform="translate(194.36 93.729389) scale(0.11 -0.11)">
     <use xlink:href="#IPAexGothic-30c7"/>
     <use xlink:href="#IPAexGothic-30fc" x="100"/>
     <use xlink:href="#IPAexGothic-30bf" x="200"/>
     <use xlink:href="#IPAexGothic-3092" x="300"/>
    </g>
   </g>
   <g id="text_7">
    <!-- 理解する(EDA) -->
    <g style="fill: #ffffff" transform="translate(179.756641 119.01032) scale(0.11 -0.11)">
     <defs>
      <path id="IPAexGothic-7406" d="M 1541 4397 
L 1541 3084 
L 2219 3084 
L 2219 2688 
L 1541 2688 
L 1541 1247 
Q 1919 1356 2397 1522 
L 2431 1144 
Q 1353 713 434 472 
L 263 909 
Q 763 1025 1113 1119 
L 1113 2688 
L 441 2688 
L 441 3084 
L 1113 3084 
L 1113 4397 
L 369 4397 
L 369 4800 
L 2347 4800 
L 2347 4397 
L 1541 4397 
z
M 5691 4991 
L 5691 2106 
L 4378 2106 
L 4378 1375 
L 5825 1375 
L 5825 984 
L 4378 984 
L 4378 206 
L 6081 206 
L 6081 -191 
L 2150 -191 
L 2150 206 
L 3944 206 
L 3944 984 
L 2559 984 
L 2559 1375 
L 3944 1375 
L 3944 2106 
L 2675 2106 
L 2675 4991 
L 5691 4991 
z
M 3091 4606 
L 3091 3750 
L 3956 3750 
L 3956 4606 
L 3091 4606 
z
M 3091 3378 
L 3091 2491 
L 3956 2491 
L 3956 3378 
L 3091 3378 
z
M 5275 2491 
L 5275 3378 
L 4366 3378 
L 4366 2491 
L 5275 2491 
z
M 5275 3750 
L 5275 4606 
L 4366 4606 
L 4366 3750 
L 5275 3750 
z
" transform="scale(0.015625)"/>
      <path id="IPAexGothic-89e3" d="M 4538 2222 
L 4538 2906 
L 4953 2906 
L 4953 2222 
L 5850 2222 
L 5850 1850 
L 4953 1850 
L 4953 1159 
L 6072 1159 
L 6072 775 
L 4953 775 
L 4953 -447 
L 4538 -447 
L 4538 775 
L 3303 775 
L 3303 1159 
L 4538 1159 
L 4538 1850 
L 3897 1850 
Q 3781 1528 3622 1269 
L 3303 1544 
Q 3600 2072 3706 2734 
L 4103 2663 
Q 4053 2416 4006 2222 
L 4538 2222 
z
M 2394 3803 
L 3141 3803 
L 3141 63 
Q 3141 -213 3006 -306 
Q 2900 -384 2622 -384 
Q 2250 -384 1919 -341 
L 1853 103 
Q 2278 31 2547 31 
Q 2744 31 2744 213 
L 2744 1319 
L 1241 1319 
Q 1191 303 722 -513 
L 394 -178 
Q 863 566 863 1869 
L 863 3181 
Q 738 3000 516 2741 
L 281 3094 
Q 1106 4053 1363 5319 
L 1797 5238 
Q 1747 5044 1719 4959 
L 1700 4891 
L 2653 4891 
L 2853 4684 
Q 2653 4238 2394 3803 
z
M 1809 3450 
L 1259 3450 
L 1259 2747 
L 1809 2747 
L 1809 3450 
z
M 2175 3450 
L 2175 2747 
L 2744 2747 
L 2744 3450 
L 2175 3450 
z
M 1809 2406 
L 1259 2406 
L 1259 1672 
L 1809 1672 
L 1809 2406 
z
M 2175 2406 
L 2175 1672 
L 2744 1672 
L 2744 2406 
L 2175 2406 
z
M 1969 3803 
Q 2172 4141 2322 4531 
L 1572 4531 
Q 1409 4100 1247 3803 
L 1969 3803 
z
M 4622 4594 
Q 4534 3469 3597 2897 
L 3297 3225 
Q 4088 3625 4191 4594 
L 3316 4594 
L 3316 4978 
L 5844 4978 
Q 5813 3791 5734 3422 
Q 5688 3194 5556 3103 
Q 5444 3031 5184 3031 
Q 4863 3031 4556 3078 
L 4500 3475 
Q 4819 3422 5044 3422 
Q 5266 3422 5313 3600 
Q 5372 3831 5400 4594 
L 4622 4594 
z
" transform="scale(0.015625)"/>
      <path id="IPAexGothic-3059" d="M 3322 5075 
L 3816 5075 
L 3816 4063 
Q 4131 4075 5756 4116 
L 5756 3669 
Q 5431 3672 3816 3653 
L 3816 2463 
Q 3956 2125 3956 1741 
Q 3956 922 3519 397 
Q 3128 -72 2309 -409 
L 1941 -31 
Q 3263 453 3488 1363 
Q 3250 1031 2809 1031 
Q 2441 1031 2150 1313 
Q 1875 1588 1875 2050 
Q 1875 2475 2166 2769 
Q 2431 3041 2822 3041 
Q 3088 3041 3322 2881 
L 3322 3641 
Q 3000 3634 609 3547 
L 609 3988 
Q 1197 4000 2106 4022 
Q 3066 4047 3322 4050 
L 3322 5075 
z
M 3372 2044 
Q 3372 2300 3194 2478 
Q 3050 2613 2869 2613 
Q 2622 2613 2463 2406 
Q 2344 2250 2344 2088 
Q 2344 1797 2484 1622 
Q 2625 1453 2859 1453 
Q 3372 1453 3372 2044 
z
" transform="scale(0.015625)"/>
      <path id="IPAexGothic-308b" d="M 4391 4397 
L 2613 2588 
Q 3225 2809 3759 2809 
Q 4263 2809 4659 2625 
Q 5391 2269 5391 1484 
Q 5391 756 4706 275 
Q 4072 -166 3053 -166 
Q 2559 -166 2247 19 
Q 1863 250 1863 666 
Q 1863 934 2069 1141 
Q 2331 1403 2741 1403 
Q 3509 1403 4019 428 
Q 4872 784 4872 1491 
Q 4872 1981 4469 2222 
Q 4166 2406 3681 2406 
Q 2425 2406 1238 1209 
L 891 1581 
Q 2438 2934 3578 4281 
Q 2594 4125 1588 4066 
L 1478 4550 
Q 2594 4581 4109 4763 
L 4391 4397 
z
M 3591 303 
Q 3244 1025 2731 1025 
Q 2553 1025 2434 934 
Q 2316 844 2316 700 
Q 2316 250 3034 250 
Q 3275 250 3591 303 
z
" transform="scale(0.015625)"/>
      <path id="IPAexGothic-28" d="M 1928 -1016 
L 1653 -1166 
Q 488 69 488 1875 
Q 488 3678 1653 4909 
L 1928 4763 
Q 1006 3522 1006 1881 
Q 1006 203 1928 -1016 
z
" transform="scale(0.015625)"/>
      <path id="IPAexGothic-45" d="M 3547 63 
L 609 63 
L 609 4634 
L 3469 4634 
L 3469 4147 
L 1166 4147 
L 1166 2650 
L 3206 2650 
L 3206 2191 
L 1166 2191 
L 1166 556 
L 3547 556 
L 3547 63 
z
" transform="scale(0.015625)"/>
      <path id="IPAexGothic-44" d="M 609 4634 
L 1984 4634 
Q 3159 4634 3791 4050 
Q 4456 3444 4456 2356 
Q 4456 1047 3516 441 
Q 2925 63 1941 63 
L 609 63 
L 609 4634 
z
M 1172 556 
L 1894 556 
Q 3853 556 3853 2356 
Q 3853 4147 1928 4147 
L 1172 4147 
L 1172 556 
z
" transform="scale(0.015625)"/>
      <path id="IPAexGothic-41" d="M 4056 63 
L 3444 63 
L 2938 1409 
L 1100 1409 
L 603 63 
L -6 63 
L 1806 4666 
L 2259 4666 
L 4056 63 
z
M 2778 1863 
L 2316 3078 
Q 2125 3588 2028 4000 
L 2009 4000 
Q 1897 3563 1716 3078 
L 1263 1863 
L 2778 1863 
z
" transform="scale(0.015625)"/>
      <path id="IPAexGothic-29" d="M 466 4909 
Q 1638 3672 1638 1875 
Q 1638 75 466 -1166 
L 191 -1016 
Q 1119 216 1119 1881 
Q 1119 3509 191 4763 
L 466 4909 
z
" transform="scale(0.015625)"/>
     </defs>
     <use xlink:href="#IPAexGothic-7406"/>
     <use xlink:href="#IPAexGothic-89e3" x="100"/>
     <use xlink:href="#IPAexGothic-3059" x="200"/>
     <use xlink:href="#IPAexGothic-308b" x="300"/>
     <use xlink:href="#IPAexGothic-28" x="400"/>
     <use xlink:href="#IPAexGothic-45" x="433.300781"/>
     <use xlink:href="#IPAexGothic-44" x="492.822266"/>
     <use xlink:href="#IPAexGothic-41" x="568.505859"/>
     <use xlink:href="#IPAexGothic-29" x="632.226562"/>
    </g>
   </g>
   <g id="text_8">
    <!-- → -->
    <g style="fill: #95a5a6" transform="translate(273.6 103.552969) scale(0.15 -0.15)">
     <use xlink:href="#IPAexGothic-2192"/>
    </g>
   </g>
   <g id="text_9">
    <!-- 仮説を -->
    <g style="fill: #ffffff" transform="translate(328.74 93.729389) scale(0.11 -0.11)">
     <defs>
      <path id="IPAexGothic-4eee" d="M 1644 3675 
L 1644 -447 
L 1175 -447 
L 1175 2747 
Q 925 2322 578 1863 
L 313 2253 
Q 1244 3463 1656 5178 
L 2131 5069 
Q 1919 4306 1644 3675 
z
M 2969 4481 
L 2969 3353 
L 5331 3353 
L 5600 3116 
Q 5275 1909 4722 1075 
Q 5275 494 6034 38 
L 5697 -384 
Q 4994 88 4434 684 
Q 3916 34 3091 -481 
L 2766 -72 
Q 3616 353 4141 1044 
Q 3463 1928 3194 2944 
L 2969 2944 
Q 2959 1709 2841 1056 
Q 2694 234 2216 -475 
L 1844 -134 
Q 2316 481 2438 1428 
Q 2516 2013 2516 2919 
L 2516 4897 
L 5869 4897 
L 5869 4481 
L 2969 4481 
z
M 4422 1441 
Q 4828 2069 5050 2944 
L 3647 2944 
Q 3863 2184 4422 1441 
z
" transform="scale(0.015625)"/>
      <path id="IPAexGothic-8aac" d="M 3541 1947 
L 2900 1947 
L 2900 3859 
L 4406 3859 
Q 4741 4516 4969 5241 
L 5438 5063 
Q 5166 4434 4847 3859 
L 5756 3859 
L 5756 1947 
L 4956 1947 
L 4956 281 
Q 4956 94 5213 94 
Q 5553 94 5603 241 
Q 5656 431 5666 1000 
L 6109 838 
Q 6100 9 5947 -181 
Q 5794 -353 5244 -353 
Q 4884 -353 4734 -303 
Q 4516 -225 4516 91 
L 4516 1947 
L 3981 1947 
Q 3981 1219 3816 709 
Q 3594 25 2875 -453 
L 2534 -116 
Q 3200 275 3406 897 
Q 3541 1291 3541 1934 
L 3541 1947 
z
M 5322 2338 
L 5322 3463 
L 3334 3463 
L 3334 2338 
L 5322 2338 
z
M 2394 1684 
L 2394 -128 
L 959 -128 
L 959 -447 
L 538 -447 
L 538 1684 
L 2394 1684 
z
M 959 1313 
L 959 244 
L 1978 244 
L 1978 1313 
L 959 1313 
z
M 634 5044 
L 2306 5044 
L 2306 4659 
L 634 4659 
L 634 5044 
z
M 353 4206 
L 2631 4206 
L 2631 3816 
L 353 3816 
L 353 4206 
z
M 634 3359 
L 2306 3359 
L 2306 2975 
L 634 2975 
L 634 3359 
z
M 634 2522 
L 2306 2522 
L 2306 2138 
L 634 2138 
L 634 2522 
z
M 3578 3988 
Q 3347 4569 3084 4966 
L 3481 5166 
Q 3769 4747 4000 4191 
L 3578 3988 
z
" transform="scale(0.015625)"/>
     </defs>
     <use xlink:href="#IPAexGothic-4eee"/>
     <use xlink:href="#IPAexGothic-8aac" x="100"/>
     <use xlink:href="#IPAexGothic-3092" x="200"/>
    </g>
   </g>
   <g id="text_10">
    <!-- 立てる -->
    <g style="fill: #ffffff" transform="translate(328.74 118.602116) scale(0.11 -0.11)">
     <defs>
      <path id="IPAexGothic-7acb" d="M 3425 4050 
L 5747 4050 
L 5747 3622 
L 641 3622 
L 641 4050 
L 2925 4050 
L 2925 5113 
L 3425 5113 
L 3425 4050 
z
M 3572 459 
Q 3578 478 3600 541 
Q 3613 581 3622 606 
Q 4066 1825 4391 3447 
L 4897 3322 
Q 4522 1716 4072 459 
L 6009 459 
L 6009 31 
L 384 31 
L 384 459 
L 3572 459 
z
M 2047 678 
Q 1797 2000 1369 3166 
L 1844 3322 
Q 2253 2178 2547 813 
L 2047 678 
z
" transform="scale(0.015625)"/>
      <path id="IPAexGothic-3066" d="M 581 4034 
Q 2978 4363 5466 4556 
L 5509 4097 
Q 4388 4031 3750 3572 
Q 2797 2878 2797 1913 
Q 2797 1169 3291 819 
Q 3778 484 4869 416 
L 4906 -116 
Q 2278 0 2278 1850 
Q 2278 3125 3691 4000 
Q 2066 3784 684 3553 
L 581 4034 
z
" transform="scale(0.015625)"/>
     </defs>
     <use xlink:href="#IPAexGothic-7acb"/>
     <use xlink:href="#IPAexGothic-3066" x="100"/>
     <use xlink:href="#IPAexGothic-308b" x="200"/>
    </g>
   </g>
   <g id="text_11">
    <!-- → -->
    <g style="fill: #95a5a6" transform="translate(402.48 103.552969) scale(0.15 -0.15)">
     <use xlink:href="#IPAexGothic-2192"/>
    </g>
   </g>
   <g id="text_12">
    <!-- モデルを -->
    <g style="fill: #ffffff" transform="translate(452.12 93.729389) scale(0.11 -0.11)">
     <defs>
      <path id="IPAexGothic-30e2" d="M 1216 4409 
L 5147 4409 
L 5147 3950 
L 3053 3950 
L 3053 2797 
L 5644 2797 
L 5644 2328 
L 3053 2328 
L 3053 972 
Q 3053 669 3272 600 
Q 3453 544 4013 544 
Q 4556 544 5269 600 
L 5269 97 
Q 4684 50 4147 50 
Q 3025 50 2753 250 
Q 2541 403 2541 825 
L 2541 2328 
L 744 2328 
L 744 2797 
L 2541 2797 
L 2541 3950 
L 1216 3950 
L 1216 4409 
z
" transform="scale(0.015625)"/>
      <path id="IPAexGothic-30eb" d="M 353 331 
Q 1313 994 1544 2022 
Q 1684 2650 1684 4397 
L 2203 4397 
L 2203 4153 
L 2203 4116 
Q 2203 2259 1934 1491 
Q 1619 588 744 -38 
L 353 331 
z
M 3125 4666 
L 3650 4666 
L 3650 769 
Q 4875 1488 5672 2734 
L 6000 2278 
Q 5075 966 3516 63 
L 3125 359 
L 3125 4666 
z
" transform="scale(0.015625)"/>
     </defs>
     <use xlink:href="#IPAexGothic-30e2"/>
     <use xlink:href="#IPAexGothic-30c7" x="100"/>
     <use xlink:href="#IPAexGothic-30eb" x="200"/>
     <use xlink:href="#IPAexGothic-3092" x="300"/>
    </g>
   </g>
   <g id="text_13">
    <!-- 作る -->
    <g style="fill: #ffffff" transform="translate(463.12 118.602116) scale(0.11 -0.11)">
     <defs>
      <path id="IPAexGothic-4f5c" d="M 3609 3834 
L 3231 3834 
Q 2869 2822 2297 2038 
L 1963 2381 
Q 2797 3513 3153 5275 
L 3616 5184 
Q 3506 4656 3378 4256 
L 5984 4256 
L 5984 3834 
L 4078 3834 
L 4078 2906 
L 5678 2906 
L 5678 2484 
L 4078 2484 
L 4078 1563 
L 5775 1563 
L 5775 1147 
L 4078 1147 
L 4078 -447 
L 3609 -447 
L 3609 3834 
z
M 1734 3725 
L 1734 -447 
L 1275 -447 
L 1275 2797 
L 1250 2747 
Q 984 2284 647 1850 
L 372 2234 
Q 1309 3481 1747 5203 
L 2219 5081 
Q 2028 4406 1734 3725 
z
" transform="scale(0.015625)"/>
     </defs>
     <use xlink:href="#IPAexGothic-4f5c"/>
     <use xlink:href="#IPAexGothic-308b" x="100"/>
    </g>
   </g>
   <g id="text_14">
    <!-- → -->
    <g style="fill: #95a5a6" transform="translate(531.36 103.552969) scale(0.15 -0.15)">
     <use xlink:href="#IPAexGothic-2192"/>
    </g>
   </g>
   <g id="text_15">
    <!-- 結果を -->
    <g style="fill: #ffffff" transform="translate(586.5 93.729389) scale(0.11 -0.11)">
     <defs>
      <path id="IPAexGothic-7d50" d="M 1241 3084 
Q 794 3713 378 4128 
L 666 4422 
Q 828 4259 916 4153 
Q 1300 4750 1541 5331 
L 1956 5119 
Q 1547 4363 1150 3859 
Q 1228 3759 1466 3425 
Q 1844 4016 2138 4550 
L 2522 4313 
Q 1853 3213 1313 2572 
Q 1647 2581 2253 2631 
Q 2134 2909 2009 3156 
L 2353 3303 
Q 2656 2775 2878 2106 
L 2494 1925 
Q 2469 2022 2425 2156 
Q 2384 2284 2372 2322 
Q 2334 2319 2222 2300 
Q 1966 2259 1778 2234 
L 1778 -447 
L 1363 -447 
L 1363 2181 
L 1291 2175 
Q 1000 2144 428 2106 
L 281 2534 
Q 672 2547 863 2553 
Q 909 2613 972 2700 
Q 1059 2816 1241 3084 
z
M 4134 4325 
L 4134 5309 
L 4563 5309 
L 4563 4325 
L 6113 4325 
L 6113 3934 
L 4563 3934 
L 4563 3034 
L 5906 3034 
L 5906 2650 
L 2859 2650 
L 2859 3034 
L 4134 3034 
L 4134 3934 
L 2719 3934 
L 2719 4325 
L 4134 4325 
z
M 5631 1997 
L 5631 -450 
L 5203 -450 
L 5203 -103 
L 3550 -103 
L 3550 -450 
L 3122 -450 
L 3122 1997 
L 5631 1997 
z
M 3550 1613 
L 3550 281 
L 5203 281 
L 5203 1613 
L 3550 1613 
z
M 353 197 
Q 581 863 647 1759 
L 1056 1709 
Q 988 709 769 -13 
L 353 197 
z
M 2334 313 
Q 2206 1147 1997 1759 
L 2363 1869 
Q 2609 1253 2766 488 
L 2334 313 
z
" transform="scale(0.015625)"/>
      <path id="IPAexGothic-679c" d="M 3809 1666 
Q 4656 800 6088 297 
L 5784 -131 
Q 4256 494 3406 1563 
L 3406 -447 
L 2947 -447 
L 2947 1519 
Q 2203 425 647 -281 
L 334 109 
Q 1769 697 2575 1666 
L 378 1666 
L 378 2075 
L 2947 2075 
L 2947 2625 
L 1109 2625 
L 1109 5013 
L 5288 5013 
L 5288 2625 
L 3406 2625 
L 3406 2075 
L 6016 2075 
L 6016 1666 
L 3809 1666 
z
M 1556 4628 
L 1556 3994 
L 2959 3994 
L 2959 4628 
L 1556 4628 
z
M 1556 3628 
L 1556 3009 
L 2959 3009 
L 2959 3628 
L 1556 3628 
z
M 4834 3009 
L 4834 3628 
L 3394 3628 
L 3394 3009 
L 4834 3009 
z
M 4834 3994 
L 4834 4628 
L 3394 4628 
L 3394 3994 
L 4834 3994 
z
" transform="scale(0.015625)"/>
     </defs>
     <use xlink:href="#IPAexGothic-7d50"/>
     <use xlink:href="#IPAexGothic-679c" x="100"/>
     <use xlink:href="#IPAexGothic-3092" x="200"/>
    </g>
   </g>
   <g id="text_16">
    <!-- 解釈する -->
    <g style="fill: #ffffff" transform="translate(581 118.602116) scale(0.11 -0.11)">
     <defs>
      <path id="IPAexGothic-91c8" d="M 1553 1913 
Q 1213 972 594 200 
L 294 641 
Q 1028 1450 1444 2509 
L 375 2509 
L 375 2906 
L 1563 2906 
L 1563 4513 
Q 1284 4466 581 4384 
L 369 4763 
Q 1675 4884 2709 5209 
L 3019 4813 
Q 2531 4688 1978 4584 
L 1978 2906 
L 3081 2906 
L 3081 2509 
L 1981 2509 
L 1981 2191 
Q 2525 1822 3006 1369 
L 2725 959 
Q 2372 1375 1981 1734 
L 1981 -453 
L 1553 -453 
L 1553 1913 
z
M 4894 2516 
Q 5116 894 6156 103 
L 5872 -344 
Q 4650 694 4459 2516 
L 3781 2516 
Q 3772 1566 3641 947 
Q 3475 200 2969 -459 
L 2650 -91 
Q 3141 488 3263 1416 
Q 3341 1963 3341 2863 
L 3341 4863 
L 5822 4863 
L 5822 2516 
L 4894 2516 
z
M 3781 2925 
L 5375 2925 
L 5375 4453 
L 3781 4453 
L 3781 2925 
z
M 875 3059 
Q 772 3672 588 4147 
L 984 4275 
Q 1184 3750 1284 3200 
L 875 3059 
z
M 2169 3231 
Q 2422 3791 2597 4481 
L 3041 4353 
Q 2813 3634 2528 3072 
L 2169 3231 
z
" transform="scale(0.015625)"/>
     </defs>
     <use xlink:href="#IPAexGothic-89e3"/>
     <use xlink:href="#IPAexGothic-91c8" x="100"/>
     <use xlink:href="#IPAexGothic-3059" x="200"/>
     <use xlink:href="#IPAexGothic-308b" x="300"/>
    </g>
   </g>
   <g id="text_17">
    <!-- ステップ -->
    <g style="fill: #ffffff" transform="translate(38.88 155.274375) scale(0.12 -0.12)">
     <defs>
      <path id="IPAexGothic-30c3" d="M 1775 1984 
Q 1553 2666 1275 3175 
L 1716 3391 
Q 2034 2866 2247 2209 
L 1775 1984 
z
M 3003 2297 
Q 2813 2978 2522 3469 
L 2978 3681 
Q 3291 3166 3484 2522 
L 3003 2297 
z
M 1928 372 
Q 3094 744 3731 1569 
Q 4275 2263 4469 3525 
L 4975 3406 
Q 4734 1975 4016 1119 
Q 3406 391 2266 -44 
L 1928 372 
z
" transform="scale(0.015625)"/>
      <path id="IPAexGothic-30d7" d="M 4825 4275 
L 5125 4000 
Q 4884 2378 4081 1381 
Q 3294 413 1888 -116 
L 1522 331 
Q 4069 1113 4550 3803 
L 966 3738 
L 966 4225 
L 4825 4275 
z
M 5597 5509 
Q 5906 5509 6119 5275 
Q 6303 5075 6303 4806 
Q 6303 4494 6069 4281 
Q 5866 4097 5597 4097 
Q 5284 4097 5072 4331 
Q 4888 4534 4888 4806 
Q 4888 5116 5122 5328 
Q 5328 5509 5597 5509 
z
M 5597 5228 
Q 5409 5228 5278 5088 
Q 5169 4966 5169 4806 
Q 5169 4616 5309 4488 
Q 5434 4378 5597 4378 
Q 5784 4378 5913 4519 
Q 6022 4641 6022 4806 
Q 6022 4991 5881 5119 
Q 5759 5228 5597 5228 
z
" transform="scale(0.015625)"/>
     </defs>
     <use xlink:href="#IPAexGothic-30b9"/>
     <use xlink:href="#IPAexGothic-30c6" x="100"/>
     <use xlink:href="#IPAexGothic-30c3" x="200"/>
     <use xlink:href="#IPAexGothic-30d7" x="300"/>
    </g>
   </g>
   <g id="text_18">
    <!-- 今日のChapter -->
    <g style="fill: #ffffff" transform="translate(182.88 155.61375) scale(0.12 -0.12)">
     <defs>
      <path id="IPAexGothic-4eca" d="M 1938 3263 
L 4575 3263 
L 4575 2847 
L 1913 2847 
L 1913 3244 
Q 1328 2763 581 2384 
L 281 2769 
Q 2006 3609 2888 5156 
L 3438 5156 
Q 4353 3778 6131 2944 
L 5825 2534 
Q 4125 3406 3175 4741 
Q 2681 3881 1938 3263 
z
M 1144 2222 
L 5009 2222 
L 5306 1903 
Q 4416 441 3391 -478 
L 2969 -184 
Q 3978 672 4666 1806 
L 1144 1806 
L 1144 2222 
z
" transform="scale(0.015625)"/>
      <path id="IPAexGothic-65e5" d="M 5231 4800 
L 5231 -288 
L 4744 -288 
L 4744 128 
L 1647 128 
L 1647 -288 
L 1159 -288 
L 1159 4800 
L 5231 4800 
z
M 1647 4372 
L 1647 2731 
L 4744 2731 
L 4744 4372 
L 1647 4372 
z
M 1647 2297 
L 1647 556 
L 4744 556 
L 4744 2297 
L 1647 2297 
z
" transform="scale(0.015625)"/>
      <path id="IPAexGothic-43" d="M 4353 1088 
Q 4181 694 3859 428 
Q 3313 -31 2559 -31 
Q 1588 -31 959 653 
Q 378 1294 378 2331 
Q 378 3406 1013 4078 
Q 1619 4725 2534 4725 
Q 3813 4725 4322 3628 
L 3809 3391 
Q 3425 4238 2541 4238 
Q 1891 4238 1453 3744 
Q 994 3216 994 2322 
Q 994 1550 1384 1056 
Q 1841 472 2563 472 
Q 3456 472 3878 1319 
L 4353 1088 
z
" transform="scale(0.015625)"/>
      <path id="IPAexGothic-68" d="M 3347 63 
L 2797 63 
L 2797 2041 
Q 2797 2853 2131 2853 
Q 1447 2853 1131 2041 
L 1131 63 
L 581 63 
L 581 4794 
L 1131 4794 
L 1131 2706 
Q 1566 3316 2247 3316 
Q 3347 3316 3347 2072 
L 3347 63 
z
" transform="scale(0.015625)"/>
      <path id="IPAexGothic-61" d="M 3156 63 
L 2672 63 
Q 2559 303 2531 556 
L 2509 556 
Q 2147 -25 1428 -25 
Q 934 -25 622 288 
Q 347 563 347 959 
Q 347 1947 2050 1997 
L 2478 2009 
L 2478 2175 
Q 2478 2509 2288 2700 
Q 2088 2900 1775 2900 
Q 1238 2900 969 2378 
L 494 2597 
Q 938 3328 1788 3328 
Q 2375 3328 2691 3000 
Q 2984 2706 2984 2169 
L 2984 997 
Q 2984 400 3156 63 
z
M 2491 1625 
L 2141 1619 
Q 903 1591 903 953 
Q 903 728 1050 581 
Q 1231 403 1525 403 
Q 1934 403 2234 703 
Q 2491 969 2491 1344 
L 2491 1625 
z
" transform="scale(0.015625)"/>
      <path id="IPAexGothic-70" d="M 1075 2688 
Q 1525 3341 2206 3341 
Q 2769 3341 3172 2938 
Q 3641 2469 3641 1644 
Q 3641 841 3178 372 
Q 2775 -31 2200 -31 
Q 1569 -31 1106 497 
L 1106 -1216 
L 563 -1216 
L 563 3250 
L 1075 3250 
L 1075 2688 
z
M 1106 1950 
L 1106 1291 
Q 1106 897 1516 600 
Q 1791 403 2106 403 
Q 2469 403 2725 659 
Q 3066 997 3066 1631 
Q 3066 2200 2784 2559 
Q 2503 2900 2100 2900 
Q 1656 2900 1338 2484 
Q 1106 2184 1106 1950 
z
" transform="scale(0.015625)"/>
      <path id="IPAexGothic-74" d="M 2125 241 
Q 1769 -6 1397 -6 
Q 653 -6 653 831 
L 653 2859 
L 219 2859 
L 219 3250 
L 653 3250 
L 653 3966 
L 1178 4228 
L 1178 3250 
L 2063 3250 
L 2063 2859 
L 1178 2859 
L 1178 906 
Q 1178 416 1513 416 
Q 1738 416 1941 588 
L 2125 241 
z
" transform="scale(0.015625)"/>
      <path id="IPAexGothic-65" d="M 863 1594 
Q 891 1041 1209 722 
Q 1534 397 1997 397 
Q 2606 397 2963 966 
L 3322 728 
Q 2869 -31 1931 -31 
Q 1222 -31 766 422 
Q 306 884 306 1641 
Q 306 2444 788 2925 
Q 1216 3353 1856 3353 
Q 2459 3353 2866 2956 
Q 3322 2494 3322 1722 
L 3322 1594 
L 863 1594 
z
M 2756 1997 
Q 2709 2431 2450 2681 
Q 2194 2938 1844 2938 
Q 1438 2938 1150 2591 
Q 953 2356 894 1997 
L 2756 1997 
z
" transform="scale(0.015625)"/>
      <path id="IPAexGothic-72" d="M 2309 3316 
L 2213 2769 
Q 2106 2791 2022 2791 
Q 1653 2791 1413 2444 
Q 1113 2006 1113 1675 
L 1113 63 
L 563 63 
L 563 3250 
L 1081 3250 
L 1056 2303 
L 1069 2303 
Q 1422 3341 2097 3341 
Q 2206 3341 2309 3316 
z
" transform="scale(0.015625)"/>
     </defs>
     <use xlink:href="#IPAexGothic-4eca"/>
     <use xlink:href="#IPAexGothic-65e5" x="100"/>
     <use xlink:href="#IPAexGothic-306e" x="200"/>
     <use xlink:href="#IPAexGothic-43" x="300"/>
     <use xlink:href="#IPAexGothic-68" x="372.509766"/>
     <use xlink:href="#IPAexGothic-61" x="433.203125"/>
     <use xlink:href="#IPAexGothic-70" x="488.183594"/>
     <use xlink:href="#IPAexGothic-74" x="550.292969"/>
     <use xlink:href="#IPAexGothic-65" x="584.912109"/>
     <use xlink:href="#IPAexGothic-72" x="641.796875"/>
    </g>
   </g>
   <g id="text_19">
    <!-- 使ったツール・概念 -->
    <g style="fill: #ffffff" transform="translate(283.68 155.274375) scale(0.12 -0.12)">
     <defs>
      <path id="IPAexGothic-4f7f" d="M 3700 3547 
L 3700 4103 
L 1894 4103 
L 1894 4500 
L 3700 4500 
L 3700 5306 
L 4141 5306 
L 4141 4500 
L 5981 4500 
L 5981 4103 
L 4141 4103 
L 4141 3547 
L 5638 3547 
L 5638 1484 
L 5209 1484 
L 5209 1809 
L 4134 1809 
Q 4106 1163 3922 741 
Q 4784 241 6103 19 
L 5816 -419 
Q 4619 -150 3713 394 
Q 3238 -234 2059 -541 
L 1772 -138 
Q 2941 75 3366 625 
Q 2925 963 2563 1322 
L 2884 1566 
Q 3213 1228 3553 978 
Q 3684 1363 3694 1809 
L 2634 1809 
L 2634 1484 
L 2206 1484 
L 2206 3547 
L 3700 3547 
z
M 3700 3163 
L 2634 3163 
L 2634 2194 
L 3700 2194 
L 3700 3163 
z
M 4141 3163 
L 4141 2194 
L 5209 2194 
L 5209 3163 
L 4141 3163 
z
M 1509 3769 
L 1509 -447 
L 1069 -447 
L 1069 2822 
Q 813 2363 531 1972 
L 288 2363 
Q 1147 3628 1528 5331 
L 1975 5222 
Q 1747 4356 1509 3769 
z
" transform="scale(0.015625)"/>
      <path id="IPAexGothic-3063" d="M 1113 2656 
Q 2778 3103 3709 3103 
Q 4359 3103 4734 2778 
Q 5150 2409 5150 1803 
Q 5150 247 2456 25 
L 2231 494 
Q 3425 541 4028 878 
Q 4663 1231 4663 1806 
Q 4663 2681 3647 2681 
Q 2834 2681 1319 2203 
L 1113 2656 
z
" transform="scale(0.015625)"/>
      <path id="IPAexGothic-305f" d="M 684 3994 
Q 1138 3953 1556 3953 
Q 1797 3953 2106 3975 
Q 2266 4594 2369 5113 
L 2875 5025 
Q 2806 4731 2619 4013 
Q 3209 4084 3656 4191 
L 3688 3719 
Q 3109 3613 2497 3566 
Q 1822 1294 1153 -44 
L 653 172 
Q 1406 1500 1991 3531 
Q 1634 3513 1256 3513 
Q 1106 3513 697 3525 
L 684 3994 
z
M 5753 78 
Q 5059 -13 4597 -13 
Q 3619 -13 3206 334 
Q 2866 625 2766 1222 
L 3213 1388 
Q 3247 1069 3347 903 
Q 3425 775 3578 672 
Q 3866 481 4556 481 
Q 5009 481 5728 575 
L 5753 78 
z
M 3144 2859 
Q 4216 3147 5409 3072 
L 5381 2597 
L 5356 2597 
Q 4263 2663 3194 2419 
L 3144 2859 
z
" transform="scale(0.015625)"/>
      <path id="IPAexGothic-30c4" d="M 1453 2591 
Q 1197 3459 838 4116 
L 1356 4331 
Q 1734 3647 2003 2841 
L 1453 2591 
z
M 2956 2963 
Q 2741 3763 2353 4494 
L 2866 4706 
Q 3234 4031 3500 3200 
L 2956 2963 
z
M 1894 294 
Q 3550 928 4244 2272 
Q 4678 3109 4900 4538 
L 5453 4366 
Q 5166 2584 4434 1519 
Q 3722 463 2266 -147 
L 1894 294 
z
" transform="scale(0.015625)"/>
      <path id="IPAexGothic-6982" d="M 1119 2613 
Q 806 1556 381 850 
L 153 1300 
Q 753 2272 1063 3603 
L 294 3603 
L 294 4013 
L 1119 4013 
L 1119 5306 
L 1522 5306 
L 1522 4013 
L 2078 4013 
L 2078 3603 
L 1522 3603 
L 1522 2956 
Q 1900 2569 2231 2181 
L 1997 1772 
Q 1769 2153 1522 2478 
L 1522 -447 
L 1119 -447 
L 1119 2613 
z
M 5391 4563 
Q 5372 3697 5275 2881 
L 6081 2881 
L 6081 2491 
L 5209 2491 
Q 5209 2484 5103 2066 
L 5294 2066 
L 5294 191 
Q 5294 50 5441 50 
Q 5584 50 5613 197 
Q 5663 397 5672 972 
L 6063 825 
Q 6053 22 5922 -194 
Q 5794 -378 5447 -378 
Q 5069 -378 4975 -281 
Q 4897 -206 4897 19 
L 4897 1497 
Q 4434 369 3253 -506 
L 2963 -172 
Q 4488 872 4813 2491 
L 3706 2491 
L 3706 2206 
L 2631 2206 
L 2631 800 
Q 3088 1053 3425 1259 
Q 3259 1597 3097 1834 
L 3419 2009 
Q 3778 1469 4019 922 
L 3681 653 
Q 3644 747 3566 947 
Q 2859 444 2028 -6 
L 1806 409 
Q 2169 566 2247 606 
L 2247 5050 
L 3706 5050 
L 3706 2881 
L 4159 2881 
L 4159 4563 
L 3878 4563 
L 3878 4953 
L 5881 4953 
L 5881 4563 
L 5391 4563 
z
M 5006 4563 
L 4531 4563 
L 4531 2881 
L 4884 2881 
Q 4984 3706 5006 4563 
z
M 3328 4666 
L 2631 4666 
L 2631 3834 
L 3328 3834 
L 3328 4666 
z
M 3328 3463 
L 2631 3463 
L 2631 2591 
L 3328 2591 
L 3328 3463 
z
" transform="scale(0.015625)"/>
      <path id="IPAexGothic-5ff5" d="M 4513 3741 
L 4513 3406 
L 1953 3406 
L 1953 3700 
L 1909 3675 
Q 1366 3281 659 2959 
L 341 3334 
Q 2025 4009 2869 5275 
L 3425 5275 
Q 4391 4128 6106 3484 
L 5819 3059 
Q 5044 3394 4513 3741 
z
M 4413 3803 
L 4366 3834 
Q 3684 4278 3156 4891 
Q 2747 4309 2088 3803 
L 4413 3803 
z
M 431 91 
Q 891 616 1184 1428 
L 1609 1269 
Q 1303 381 809 -250 
L 431 91 
z
M 2013 1434 
L 2481 1434 
L 2481 325 
Q 2481 169 2584 131 
Q 2706 94 3244 94 
Q 4075 94 4234 166 
Q 4359 222 4388 794 
L 4838 653 
Q 4806 16 4644 -150 
Q 4463 -341 3191 -341 
Q 2456 -341 2238 -250 
Q 2013 -144 2013 178 
L 2013 1434 
z
M 1294 2956 
L 4884 2956 
L 5159 2681 
Q 4719 1953 4200 1394 
L 3816 1669 
Q 4244 2056 4553 2553 
L 1294 2553 
L 1294 2956 
z
M 3425 800 
Q 3066 1338 2550 1784 
L 2900 2053 
Q 3353 1691 3803 1113 
L 3425 800 
z
M 5628 -56 
Q 5166 744 4547 1363 
L 4928 1600 
Q 5600 959 6050 269 
L 5628 -56 
z
" transform="scale(0.015625)"/>
     </defs>
     <use xlink:href="#IPAexGothic-4f7f"/>
     <use xlink:href="#IPAexGothic-3063" x="100"/>
     <use xlink:href="#IPAexGothic-305f" x="200"/>
     <use xlink:href="#IPAexGothic-30c4" x="300"/>
     <use xlink:href="#IPAexGothic-30fc" x="400"/>
     <use xlink:href="#IPAexGothic-30eb" x="500"/>
     <use xlink:href="#IPAexGothic-30fb" x="600"/>
     <use xlink:href="#IPAexGothic-6982" x="700"/>
     <use xlink:href="#IPAexGothic-5ff5" x="800"/>
    </g>
   </g>
   <g id="text_20">
    <!-- データを読み込む -->
    <g style="fill: #2c3e50" transform="translate(38.88 179.78625) scale(0.12 -0.12)">
     <use xlink:href="#IPAexGothic-30c7"/>
     <use xlink:href="#IPAexGothic-30fc" x="100"/>
     <use xlink:href="#IPAexGothic-30bf" x="200"/>
     <use xlink:href="#IPAexGothic-3092" x="300"/>
     <use xlink:href="#IPAexGothic-8aad" x="400"/>
     <use xlink:href="#IPAexGothic-307f" x="500"/>
     <use xlink:href="#IPAexGothic-8fbc" x="600"/>
     <use xlink:href="#IPAexGothic-3080" x="700"/>
    </g>
   </g>
   <g id="text_21">
    <!-- Ch.1 -->
    <g style="fill: #2c3e50" transform="translate(182.88 179.754375) scale(0.12 -0.12)">
     <defs>
      <path id="IPAexGothic-2e" d="M 1184 63 
L 494 63 
L 494 753 
L 1184 753 
L 1184 63 
z
" transform="scale(0.015625)"/>
      <path id="IPAexGothic-31" d="M 2463 63 
L 1900 63 
L 1900 4103 
Q 1372 3922 788 3797 
L 684 4231 
Q 1519 4441 2106 4731 
L 2463 4731 
L 2463 63 
z
" transform="scale(0.015625)"/>
     </defs>
     <use xlink:href="#IPAexGothic-43"/>
     <use xlink:href="#IPAexGothic-68" x="72.509766"/>
     <use xlink:href="#IPAexGothic-2e" x="133.203125"/>
     <use xlink:href="#IPAexGothic-31" x="159.619141"/>
    </g>
   </g>
   <g id="text_22">
    <!-- pandas: load_*() / head / info -->
    <g style="fill: #2c3e50" transform="translate(283.68 179.862187) scale(0.12 -0.12)">
     <defs>
      <path id="IPAexGothic-6e" d="M 3328 63 
L 2778 63 
L 2778 2041 
Q 2778 2853 2106 2853 
Q 1428 2853 1113 2041 
L 1113 63 
L 563 63 
L 563 3250 
L 1075 3250 
L 1075 2675 
Q 1525 3316 2222 3316 
Q 3328 3316 3328 2072 
L 3328 63 
z
" transform="scale(0.015625)"/>
      <path id="IPAexGothic-64" d="M 3391 63 
L 2891 63 
L 2891 619 
Q 2441 -31 1753 -31 
Q 1181 -31 788 372 
Q 313 844 313 1663 
Q 313 2466 772 2938 
Q 1169 3341 1753 3341 
Q 2384 3341 2847 2809 
L 2847 4794 
L 3391 4794 
L 3391 63 
z
M 2847 1303 
L 2847 2097 
Q 2847 2413 2456 2706 
Q 2181 2906 1853 2906 
Q 1484 2906 1228 2650 
Q 888 2309 888 1678 
Q 888 1109 1169 750 
Q 1441 409 1847 409 
Q 2322 409 2656 875 
Q 2847 1134 2847 1303 
z
" transform="scale(0.015625)"/>
      <path id="IPAexGothic-73" d="M 2234 2547 
Q 1938 2931 1484 2931 
Q 891 2931 891 2475 
Q 891 2153 1531 1944 
L 1741 1875 
Q 2650 1578 2650 894 
Q 2650 434 2272 172 
Q 1972 -31 1497 -31 
Q 766 -31 256 503 
L 603 819 
Q 997 397 1516 397 
Q 2131 397 2131 875 
Q 2131 1238 1453 1478 
L 1234 1553 
Q 378 1853 378 2431 
Q 378 2797 628 3047 
Q 928 3347 1453 3347 
Q 2156 3347 2606 2859 
L 2234 2547 
z
" transform="scale(0.015625)"/>
      <path id="IPAexGothic-3a" d="M 1369 2559 
L 672 2559 
L 672 3250 
L 1369 3250 
L 1369 2559 
z
M 1369 63 
L 672 63 
L 672 753 
L 1369 753 
L 1369 63 
z
" transform="scale(0.015625)"/>
      <path id="IPAexGothic-20" transform="scale(0.015625)"/>
      <path id="IPAexGothic-6c" d="M 1131 63 
L 581 63 
L 581 4794 
L 1131 4794 
L 1131 63 
z
" transform="scale(0.015625)"/>
      <path id="IPAexGothic-6f" d="M 1919 3341 
Q 2594 3341 3056 2888 
Q 3531 2413 3531 1638 
Q 3531 888 3066 422 
Q 2609 -31 1919 -31 
Q 1228 -31 781 416 
Q 313 881 313 1656 
Q 313 2413 788 2888 
Q 1241 3341 1919 3341 
z
M 1919 2919 
Q 1519 2919 1241 2631 
Q 888 2278 888 1650 
Q 888 1031 1234 684 
Q 1516 403 1919 403 
Q 2331 403 2609 691 
Q 2956 1038 2956 1672 
Q 2956 2269 2603 2631 
Q 2316 2919 1919 2919 
z
" transform="scale(0.015625)"/>
      <path id="IPAexGothic-5f" d="M 3200 -750 
L 0 -750 
L 0 -431 
L 3200 -431 
L 3200 -750 
z
" transform="scale(0.015625)"/>
      <path id="IPAexGothic-2a" d="M 2113 3341 
L 1900 2997 
L 1325 3419 
L 1397 2688 
L 966 2688 
L 1038 3419 
L 463 2997 
L 250 3341 
L 903 3650 
L 250 3950 
L 463 4303 
L 1038 3878 
L 966 4591 
L 1397 4591 
L 1325 3878 
L 1900 4303 
L 2113 3950 
L 1459 3650 
L 2113 3341 
z
" transform="scale(0.015625)"/>
      <path id="IPAexGothic-2f" d="M 2719 4709 
L 600 -884 
L 300 -763 
L 2413 4831 
L 2719 4709 
z
" transform="scale(0.015625)"/>
      <path id="IPAexGothic-69" d="M 1178 3928 
L 550 3928 
L 550 4569 
L 1178 4569 
L 1178 3928 
z
M 1138 63 
L 588 63 
L 588 3250 
L 1138 3250 
L 1138 63 
z
" transform="scale(0.015625)"/>
      <path id="IPAexGothic-66" d="M 2456 4622 
L 2228 4244 
Q 1991 4422 1741 4422 
Q 1184 4422 1184 3672 
L 1184 3250 
L 2053 3250 
L 2053 2859 
L 1184 2859 
L 1184 63 
L 641 63 
L 641 2859 
L 122 2859 
L 122 3250 
L 641 3250 
L 641 3659 
Q 641 4188 891 4484 
Q 1200 4844 1709 4844 
Q 2116 4844 2456 4622 
z
" transform="scale(0.015625)"/>
     </defs>
     <use xlink:href="#IPAexGothic-70"/>
     <use xlink:href="#IPAexGothic-61" x="62.109375"/>
     <use xlink:href="#IPAexGothic-6e" x="117.089844"/>
     <use xlink:href="#IPAexGothic-64" x="177.490234"/>
     <use xlink:href="#IPAexGothic-61" x="239.892578"/>
     <use xlink:href="#IPAexGothic-73" x="294.873047"/>
     <use xlink:href="#IPAexGothic-3a" x="341.064453"/>
     <use xlink:href="#IPAexGothic-20" x="373.046875"/>
     <use xlink:href="#IPAexGothic-6c" x="400.048828"/>
     <use xlink:href="#IPAexGothic-6f" x="427.050781"/>
     <use xlink:href="#IPAexGothic-61" x="487.451172"/>
     <use xlink:href="#IPAexGothic-64" x="542.431641"/>
     <use xlink:href="#IPAexGothic-5f" x="604.833984"/>
     <use xlink:href="#IPAexGothic-2a" x="654.833984"/>
     <use xlink:href="#IPAexGothic-28" x="691.845703"/>
     <use xlink:href="#IPAexGothic-29" x="725.146484"/>
     <use xlink:href="#IPAexGothic-20" x="758.447266"/>
     <use xlink:href="#IPAexGothic-2f" x="785.449219"/>
     <use xlink:href="#IPAexGothic-20" x="835.449219"/>
     <use xlink:href="#IPAexGothic-68" x="862.451172"/>
     <use xlink:href="#IPAexGothic-65" x="923.144531"/>
     <use xlink:href="#IPAexGothic-61" x="980.029297"/>
     <use xlink:href="#IPAexGothic-64" x="1035.009766"/>
     <use xlink:href="#IPAexGothic-20" x="1097.412109"/>
     <use xlink:href="#IPAexGothic-2f" x="1124.414062"/>
     <use xlink:href="#IPAexGothic-20" x="1174.414062"/>
     <use xlink:href="#IPAexGothic-69" x="1201.416016"/>
     <use xlink:href="#IPAexGothic-6e" x="1228.417969"/>
     <use xlink:href="#IPAexGothic-66" x="1288.818359"/>
     <use xlink:href="#IPAexGothic-6f" x="1319.433594"/>
    </g>
   </g>
   <g id="text_23">
    <!-- データを理解する -->
    <g style="fill: #2c3e50" transform="translate(38.88 204.301875) scale(0.12 -0.12)">
     <use xlink:href="#IPAexGothic-30c7"/>
     <use xlink:href="#IPAexGothic-30fc" x="100"/>
     <use xlink:href="#IPAexGothic-30bf" x="200"/>
     <use xlink:href="#IPAexGothic-3092" x="300"/>
     <use xlink:href="#IPAexGothic-7406" x="400"/>
     <use xlink:href="#IPAexGothic-89e3" x="500"/>
     <use xlink:href="#IPAexGothic-3059" x="600"/>
     <use xlink:href="#IPAexGothic-308b" x="700"/>
    </g>
   </g>
   <g id="text_24">
    <!-- Ch.1・2 -->
    <g style="fill: #2c3e50" transform="translate(182.88 204.234375) scale(0.12 -0.12)">
     <defs>
      <path id="IPAexGothic-32" d="M 3659 63 
L 447 63 
L 447 594 
Q 825 1475 1894 2203 
L 2072 2322 
Q 2619 2697 2791 2906 
Q 2988 3153 2988 3444 
Q 2988 3772 2756 4003 
Q 2500 4259 2084 4259 
Q 1250 4259 991 3328 
L 497 3506 
Q 853 4725 2116 4725 
Q 2806 4725 3216 4316 
Q 3575 3947 3575 3425 
Q 3575 3038 3344 2722 
Q 3131 2416 2366 1938 
L 2231 1856 
Q 1256 1253 978 569 
L 3659 569 
L 3659 63 
z
" transform="scale(0.015625)"/>
     </defs>
     <use xlink:href="#IPAexGothic-43"/>
     <use xlink:href="#IPAexGothic-68" x="72.509766"/>
     <use xlink:href="#IPAexGothic-2e" x="133.203125"/>
     <use xlink:href="#IPAexGothic-31" x="159.619141"/>
     <use xlink:href="#IPAexGothic-30fb" x="222.607422"/>
     <use xlink:href="#IPAexGothic-32" x="322.607422"/>
    </g>
   </g>
   <g id="text_25">
    <!-- describe / isnull / ヒストグラム / 箱ひげ図 -->
    <g style="fill: #2c3e50" transform="translate(283.68 204.605625) scale(0.12 -0.12)">
     <defs>
      <path id="IPAexGothic-63" d="M 3269 784 
Q 2834 -31 1900 -31 
Q 1228 -31 788 409 
Q 313 891 313 1663 
Q 313 2428 788 2913 
Q 1222 3347 1881 3347 
Q 2813 3347 3206 2541 
L 2763 2309 
Q 2484 2900 1900 2900 
Q 1516 2900 1234 2619 
Q 881 2266 881 1650 
Q 881 1069 1222 728 
Q 1522 428 1956 428 
Q 2547 428 2847 1016 
L 3269 784 
z
" transform="scale(0.015625)"/>
      <path id="IPAexGothic-62" d="M 1125 2731 
Q 1550 3341 2219 3341 
Q 2788 3341 3191 2938 
Q 3659 2469 3659 1644 
Q 3659 838 3191 372 
Q 2788 -31 2206 -31 
Q 1559 -31 1088 516 
L 1009 44 
L 581 44 
L 581 4794 
L 1125 4794 
L 1125 2731 
z
M 1125 1997 
L 1125 1253 
Q 1125 888 1528 600 
Q 1803 403 2119 403 
Q 2488 403 2744 659 
Q 3084 1009 3084 1631 
Q 3084 2194 2803 2553 
Q 2525 2900 2125 2900 
Q 1759 2900 1438 2578 
Q 1125 2266 1125 1997 
z
" transform="scale(0.015625)"/>
      <path id="IPAexGothic-75" d="M 3284 63 
L 2772 63 
L 2772 644 
Q 2300 0 1625 0 
Q 1072 0 763 375 
Q 519 678 519 1241 
L 519 3250 
L 1069 3250 
L 1069 1259 
Q 1069 466 1734 466 
Q 2406 466 2734 1291 
L 2734 3250 
L 3284 3250 
L 3284 63 
z
" transform="scale(0.015625)"/>
      <path id="IPAexGothic-30d2" d="M 1375 4806 
L 1900 4806 
L 1900 2809 
Q 3572 3188 4766 3922 
L 5150 3506 
Q 3663 2716 1900 2328 
L 1900 1094 
Q 1900 775 2091 700 
Q 2288 616 3181 616 
Q 4184 616 5413 750 
L 5413 238 
Q 4275 128 3281 128 
Q 1956 128 1663 325 
Q 1375 509 1375 997 
L 1375 4806 
z
" transform="scale(0.015625)"/>
      <path id="IPAexGothic-30b0" d="M 4769 4128 
L 5106 3878 
Q 4728 2272 3866 1238 
Q 3106 328 1863 -288 
L 1491 122 
Q 2709 628 3475 1563 
Q 4238 2491 4525 3669 
L 2738 3669 
Q 2022 2591 1191 1897 
L 813 2247 
Q 2163 3338 2766 4959 
L 3256 4819 
Q 3197 4609 2975 4128 
L 4769 4128 
z
M 6009 4422 
Q 5647 4966 5253 5294 
L 5556 5522 
Q 5941 5213 6328 4697 
L 6009 4422 
z
M 5416 3956 
Q 5125 4447 4678 4844 
L 4991 5088 
Q 5363 4781 5747 4231 
L 5416 3956 
z
" transform="scale(0.015625)"/>
      <path id="IPAexGothic-30e9" d="M 1447 4709 
L 4922 4709 
L 4922 4234 
L 1447 4234 
L 1447 4709 
z
M 897 3303 
L 5172 3303 
L 5478 3013 
Q 5069 1669 4219 875 
Q 3475 181 2306 -181 
L 1972 294 
Q 4150 784 4834 2828 
L 897 2828 
L 897 3303 
z
" transform="scale(0.015625)"/>
      <path id="IPAexGothic-30e0" d="M 609 891 
L 719 897 
L 884 903 
Q 1053 916 1263 925 
Q 1413 931 1447 934 
Q 2291 2888 2856 4706 
L 3394 4525 
Q 2841 2859 2019 981 
Q 3553 1109 4659 1275 
Q 4200 1950 3669 2588 
L 4122 2838 
Q 5075 1700 5788 513 
L 5319 194 
Q 5038 691 4922 866 
Q 2919 509 822 328 
L 609 891 
z
" transform="scale(0.015625)"/>
      <path id="IPAexGothic-7bb1" d="M 1534 1588 
Q 1169 800 594 188 
L 325 563 
Q 1091 1253 1484 2228 
L 403 2228 
L 403 2619 
L 1534 2619 
L 1534 3450 
L 1950 3450 
L 1950 2619 
L 3025 2619 
L 3025 2228 
L 1950 2228 
L 1950 1863 
Q 2566 1463 2981 1075 
L 2725 684 
Q 2391 1059 1950 1441 
L 1950 -441 
L 1534 -441 
L 1534 1588 
z
M 1509 4659 
L 3206 4659 
L 3206 4288 
L 2284 4288 
Q 2459 3925 2584 3578 
L 2156 3409 
Q 2006 3906 1838 4288 
L 1344 4288 
Q 1053 3697 634 3275 
L 294 3572 
Q 925 4228 1278 5306 
L 1703 5203 
Q 1588 4844 1509 4659 
z
M 3963 4659 
L 6078 4659 
L 6078 4288 
L 4697 4288 
Q 4909 3950 5063 3616 
L 4625 3441 
Q 4463 3875 4231 4288 
L 3819 4288 
Q 3616 3791 3309 3347 
L 2931 3584 
Q 3422 4256 3700 5300 
L 4116 5216 
Q 4056 4966 3963 4659 
z
M 5822 3181 
L 5822 -447 
L 5400 -447 
L 5400 -153 
L 3700 -153 
L 3700 -441 
L 3278 -441 
L 3278 3181 
L 5822 3181 
z
M 3700 2803 
L 3700 2203 
L 5400 2203 
L 5400 2803 
L 3700 2803 
z
M 3700 1844 
L 3700 1244 
L 5400 1244 
L 5400 1844 
L 3700 1844 
z
M 3700 884 
L 3700 231 
L 5400 231 
L 5400 884 
L 3700 884 
z
" transform="scale(0.015625)"/>
      <path id="IPAexGothic-3072" d="M 550 3828 
Q 1725 4038 2784 4494 
L 3053 4091 
Q 1594 2788 1594 1575 
Q 1594 1044 1888 694 
Q 2216 309 2759 309 
Q 3472 309 3872 909 
Q 4213 1425 4213 2547 
Q 4213 3550 3988 4238 
L 4428 4409 
Q 4900 3409 5972 2209 
L 5594 1806 
Q 5016 2534 4513 3513 
Q 4653 2678 4653 2197 
Q 4653 1178 4275 578 
Q 3784 -191 2747 -191 
Q 2009 -191 1534 303 
Q 1088 769 1088 1519 
Q 1088 2653 2291 3884 
Q 1663 3597 763 3378 
L 550 3828 
z
" transform="scale(0.015625)"/>
      <path id="IPAexGothic-3052" d="M 5291 4213 
Q 5144 4731 4941 5113 
L 5297 5247 
Q 5528 4856 5669 4372 
L 5291 4213 
z
M 5925 4469 
Q 5778 4925 5541 5325 
L 5900 5478 
Q 6125 5125 6297 4634 
L 5925 4469 
z
M 2463 3481 
Q 2800 3463 3128 3463 
Q 3600 3463 4247 3506 
Q 4213 4434 4159 4897 
L 4672 4897 
Q 4678 4772 4734 3566 
Q 5228 3634 5619 3744 
L 5656 3291 
Q 5266 3159 4747 3109 
Q 4753 2875 4753 2606 
Q 4753 1434 4484 856 
Q 4159 138 3256 -313 
L 2847 56 
Q 3719 441 4003 1006 
Q 4272 1525 4272 2625 
Q 4272 2853 4269 3059 
Q 3631 3009 3084 3009 
Q 2700 3009 2500 3022 
L 2463 3481 
z
M 1834 2088 
L 2163 1881 
Q 1606 872 1588 166 
L 1169 72 
Q 850 1184 850 2272 
Q 850 3181 1253 4872 
L 1728 4750 
Q 1325 3166 1325 2163 
Q 1325 1722 1400 1222 
L 1834 2088 
z
" transform="scale(0.015625)"/>
      <path id="IPAexGothic-56f3" d="M 3375 1428 
Q 2606 747 1625 447 
L 1356 831 
Q 2297 1091 2966 1631 
L 2791 1709 
Q 2138 2022 1338 2328 
L 1575 2669 
Q 2356 2375 3297 1941 
Q 4069 2759 4422 4178 
L 4853 4013 
Q 4456 2588 3694 1747 
Q 4313 1434 5000 1050 
L 4706 666 
Q 4113 1041 3431 1394 
L 3375 1428 
z
M 2131 2681 
Q 1897 3466 1625 3903 
L 2038 4084 
Q 2331 3563 2559 2869 
L 2131 2681 
z
M 3169 2834 
Q 2934 3603 2663 4056 
L 3059 4225 
Q 3366 3728 3597 3022 
L 3169 2834 
z
M 5769 4984 
L 5769 -447 
L 5300 -447 
L 5300 -128 
L 1097 -128 
L 1097 -447 
L 628 -447 
L 628 4984 
L 5769 4984 
z
M 1097 4575 
L 1097 275 
L 5300 275 
L 5300 4575 
L 1097 4575 
z
" transform="scale(0.015625)"/>
     </defs>
     <use xlink:href="#IPAexGothic-64"/>
     <use xlink:href="#IPAexGothic-65" x="62.402344"/>
     <use xlink:href="#IPAexGothic-73" x="119.287109"/>
     <use xlink:href="#IPAexGothic-63" x="165.478516"/>
     <use xlink:href="#IPAexGothic-72" x="219.873047"/>
     <use xlink:href="#IPAexGothic-69" x="256.884766"/>
     <use xlink:href="#IPAexGothic-62" x="283.886719"/>
     <use xlink:href="#IPAexGothic-65" x="346.289062"/>
     <use xlink:href="#IPAexGothic-20" x="403.173828"/>
     <use xlink:href="#IPAexGothic-2f" x="430.175781"/>
     <use xlink:href="#IPAexGothic-20" x="480.175781"/>
     <use xlink:href="#IPAexGothic-69" x="507.177734"/>
     <use xlink:href="#IPAexGothic-73" x="534.179688"/>
     <use xlink:href="#IPAexGothic-6e" x="580.371094"/>
     <use xlink:href="#IPAexGothic-75" x="640.771484"/>
     <use xlink:href="#IPAexGothic-6c" x="701.171875"/>
     <use xlink:href="#IPAexGothic-6c" x="728.173828"/>
     <use xlink:href="#IPAexGothic-20" x="755.175781"/>
     <use xlink:href="#IPAexGothic-2f" x="782.177734"/>
     <use xlink:href="#IPAexGothic-20" x="832.177734"/>
     <use xlink:href="#IPAexGothic-30d2" x="859.179688"/>
     <use xlink:href="#IPAexGothic-30b9" x="959.179688"/>
     <use xlink:href="#IPAexGothic-30c8" x="1059.179688"/>
     <use xlink:href="#IPAexGothic-30b0" x="1159.179688"/>
     <use xlink:href="#IPAexGothic-30e9" x="1259.179688"/>
     <use xlink:href="#IPAexGothic-30e0" x="1359.179688"/>
     <use xlink:href="#IPAexGothic-20" x="1459.179688"/>
     <use xlink:href="#IPAexGothic-2f" x="1486.181641"/>
     <use xlink:href="#IPAexGothic-20" x="1536.181641"/>
     <use xlink:href="#IPAexGothic-7bb1" x="1563.183594"/>
     <use xlink:href="#IPAexGothic-3072" x="1663.183594"/>
     <use xlink:href="#IPAexGothic-3052" x="1763.183594"/>
     <use xlink:href="#IPAexGothic-56f3" x="1863.183594"/>
    </g>
   </g>
   <g id="text_26">
    <!-- 仮説を立てる -->
    <g style="fill: #2c3e50" transform="translate(38.88 228.714375) scale(0.12 -0.12)">
     <use xlink:href="#IPAexGothic-4eee"/>
     <use xlink:href="#IPAexGothic-8aac" x="100"/>
     <use xlink:href="#IPAexGothic-3092" x="200"/>
     <use xlink:href="#IPAexGothic-7acb" x="300"/>
     <use xlink:href="#IPAexGothic-3066" x="400"/>
     <use xlink:href="#IPAexGothic-308b" x="500"/>
    </g>
   </g>
   <g id="text_27">
    <!-- Ch.2 -->
    <g style="fill: #2c3e50" transform="translate(182.88 228.714375) scale(0.12 -0.12)">
     <use xlink:href="#IPAexGothic-43"/>
     <use xlink:href="#IPAexGothic-68" x="72.509766"/>
     <use xlink:href="#IPAexGothic-2e" x="133.203125"/>
     <use xlink:href="#IPAexGothic-32" x="159.619141"/>
    </g>
   </g>
   <g id="text_28">
    <!-- 散布図 / 相関ヒートマップ / 言語化 -->
    <g style="fill: #2c3e50" transform="translate(283.68 229.073437) scale(0.12 -0.12)">
     <defs>
      <path id="IPAexGothic-6563" d="M 4484 1197 
Q 4041 1978 3878 2719 
Q 3700 2313 3525 2016 
L 3256 2400 
Q 3816 3469 4056 5284 
L 4491 5197 
Q 4400 4594 4313 4191 
L 5991 4191 
L 5991 3769 
L 5541 3769 
Q 5534 3750 5534 3697 
Q 5459 2300 4966 1216 
Q 5478 475 6150 56 
L 5844 -391 
Q 5250 78 4741 794 
Q 4309 53 3550 -494 
L 3256 -103 
Q 3984 309 4484 1197 
z
M 4703 1644 
Q 5019 2469 5106 3769 
L 4209 3769 
Q 4194 3688 4109 3403 
Q 4241 2519 4703 1644 
z
M 1150 4513 
L 1150 5313 
L 1572 5313 
L 1572 4513 
L 2253 4513 
L 2253 5313 
L 2669 5313 
L 2669 4513 
L 3334 4513 
L 3334 4141 
L 2669 4141 
L 2669 3450 
L 3463 3450 
L 3463 3078 
L 306 3078 
L 306 3450 
L 1150 3450 
L 1150 4141 
L 484 4141 
L 484 4513 
L 1150 4513 
z
M 2253 4141 
L 1572 4141 
L 1572 3450 
L 2253 3450 
L 2253 4141 
z
M 3019 2669 
L 3019 63 
Q 3019 -194 2909 -281 
Q 2803 -378 2488 -378 
Q 2250 -378 1944 -347 
L 1863 97 
Q 2128 31 2394 31 
Q 2609 31 2609 238 
L 2609 744 
L 1203 744 
L 1203 -447 
L 800 -447 
L 800 2669 
L 3019 2669 
z
M 1203 2303 
L 1203 1881 
L 2609 1881 
L 2609 2303 
L 1203 2303 
z
M 1203 1528 
L 1203 1097 
L 2609 1097 
L 2609 1528 
L 1203 1528 
z
" transform="scale(0.015625)"/>
      <path id="IPAexGothic-5e03" d="M 3228 2741 
L 3228 3584 
L 3688 3584 
L 3688 2741 
L 5500 2741 
L 5500 750 
Q 5500 475 5353 369 
Q 5228 272 4900 272 
Q 4625 272 4269 291 
L 4188 775 
Q 4600 713 4834 713 
Q 5047 713 5047 956 
L 5047 2325 
L 3688 2325 
L 3688 -447 
L 3228 -447 
L 3228 2325 
L 2056 2325 
L 2056 91 
L 1603 91 
L 1603 2228 
Q 1159 1747 622 1313 
L 303 1691 
Q 1544 2625 2144 3847 
L 516 3847 
L 516 4275 
L 2338 4275 
Q 2506 4684 2656 5228 
L 3150 5153 
Q 2988 4581 2856 4275 
L 5984 4275 
L 5984 3847 
L 2669 3847 
Q 2369 3231 2009 2741 
L 3228 2741 
z
" transform="scale(0.015625)"/>
      <path id="IPAexGothic-76f8" d="M 1388 2691 
L 1369 2631 
Q 1075 1622 556 781 
L 275 1250 
Q 1006 2284 1316 3541 
L 409 3541 
L 409 3956 
L 1388 3956 
L 1388 5300 
L 1828 5300 
L 1828 3956 
L 2725 3956 
L 2725 3541 
L 1828 3541 
L 1828 2925 
Q 2456 2400 2819 1978 
L 2550 1519 
Q 2238 1963 1828 2422 
L 1828 -447 
L 1388 -447 
L 1388 2691 
z
M 5803 4884 
L 5803 -331 
L 5369 -331 
L 5369 116 
L 3409 116 
L 3409 -331 
L 2981 -331 
L 2981 4884 
L 5803 4884 
z
M 3409 4488 
L 3409 3450 
L 5369 3450 
L 5369 4488 
L 3409 4488 
z
M 3409 3066 
L 3409 2022 
L 5369 2022 
L 5369 3066 
L 3409 3066 
z
M 3409 1638 
L 3409 506 
L 5369 506 
L 5369 1638 
L 3409 1638 
z
" transform="scale(0.015625)"/>
      <path id="IPAexGothic-95a2" d="M 2919 5063 
L 2919 3288 
L 1016 3288 
L 1016 -450 
L 569 -450 
L 569 5063 
L 2919 5063 
z
M 1016 4709 
L 1016 4331 
L 2509 4331 
L 2509 4709 
L 1016 4709 
z
M 1016 4019 
L 1016 3628 
L 2509 3628 
L 2509 4019 
L 1016 4019 
z
M 5822 5063 
L 5822 44 
Q 5822 -409 5297 -409 
Q 4956 -409 4672 -366 
L 4594 97 
Q 4841 31 5156 31 
Q 5369 31 5369 244 
L 5369 3288 
L 3422 3288 
L 3422 5063 
L 5822 5063 
z
M 3831 4709 
L 3831 4331 
L 5369 4331 
L 5369 4709 
L 3831 4709 
z
M 3831 4019 
L 3831 3628 
L 5369 3628 
L 5369 4019 
L 3831 4019 
z
M 2425 2478 
Q 2328 2713 2150 2975 
L 2559 3122 
Q 2709 2866 2859 2478 
L 3525 2478 
Q 3716 2847 3806 3147 
L 4256 3022 
Q 4084 2669 3953 2478 
L 4766 2478 
L 4766 2113 
L 3391 2113 
L 3391 1672 
L 4928 1672 
L 4928 1300 
L 3366 1300 
Q 3363 1263 3334 1141 
Q 4016 863 4734 409 
L 4428 34 
Q 3888 441 3281 763 
Q 3278 766 3241 788 
Q 3225 797 3219 800 
Q 2881 100 1875 -256 
L 1588 122 
Q 2769 409 2931 1300 
L 1466 1300 
L 1466 1672 
L 2963 1672 
L 2963 2113 
L 1625 2113 
L 1625 2478 
L 2425 2478 
z
" transform="scale(0.015625)"/>
      <path id="IPAexGothic-30de" d="M 5422 4122 
L 5703 3822 
Q 4659 2491 3388 1447 
Q 3816 994 4231 500 
L 3797 122 
Q 2866 1381 1691 2322 
L 2069 2644 
Q 2481 2322 3059 1772 
Q 4163 2703 4891 3641 
L 744 3603 
L 744 4084 
L 5422 4122 
z
" transform="scale(0.015625)"/>
      <path id="IPAexGothic-8a00" d="M 5272 1619 
L 5272 -447 
L 4797 -447 
L 4797 -116 
L 1594 -116 
L 1594 -447 
L 1119 -447 
L 1119 1619 
L 5272 1619 
z
M 1594 1234 
L 1594 269 
L 4797 269 
L 4797 1234 
L 1594 1234 
z
M 1344 4978 
L 5050 4978 
L 5050 4588 
L 1344 4588 
L 1344 4978 
z
M 447 4147 
L 5950 4147 
L 5950 3738 
L 447 3738 
L 447 4147 
z
M 1344 3297 
L 5050 3297 
L 5050 2900 
L 1344 2900 
L 1344 3297 
z
M 1344 2456 
L 5050 2456 
L 5050 2059 
L 1344 2059 
L 1344 2456 
z
" transform="scale(0.015625)"/>
      <path id="IPAexGothic-8a9e" d="M 2388 1684 
L 2388 -128 
L 959 -128 
L 959 -447 
L 538 -447 
L 538 1684 
L 2388 1684 
z
M 959 1313 
L 959 244 
L 1966 244 
L 1966 1313 
L 959 1313 
z
M 4306 4659 
Q 4244 4128 4206 3903 
L 5459 3903 
L 5459 2606 
L 6106 2606 
L 6106 2222 
L 2541 2222 
L 2541 2606 
L 3522 2606 
Q 3528 2641 3688 3416 
L 3706 3531 
L 2881 3531 
L 2881 3903 
L 3769 3903 
Q 3775 3916 3775 3947 
Q 3831 4259 3884 4659 
L 2753 4659 
L 2753 5044 
L 5791 5044 
L 5791 4659 
L 4306 4659 
z
M 5044 3531 
L 4141 3531 
Q 4013 2834 3963 2606 
L 5044 2606 
L 5044 3531 
z
M 5606 1625 
L 5606 -447 
L 5178 -447 
L 5178 -134 
L 3419 -134 
L 3419 -453 
L 2991 -453 
L 2991 1625 
L 5606 1625 
z
M 3419 1253 
L 3419 238 
L 5178 238 
L 5178 1253 
L 3419 1253 
z
M 634 5044 
L 2294 5044 
L 2294 4659 
L 634 4659 
L 634 5044 
z
M 347 4206 
L 2550 4206 
L 2550 3816 
L 347 3816 
L 347 4206 
z
M 634 3359 
L 2294 3359 
L 2294 2975 
L 634 2975 
L 634 3359 
z
M 634 2522 
L 2294 2522 
L 2294 2138 
L 634 2138 
L 634 2522 
z
" transform="scale(0.015625)"/>
      <path id="IPAexGothic-5316" d="M 1831 3700 
L 1831 -341 
L 1356 -341 
L 1356 2772 
Q 1069 2275 678 1772 
L 378 2138 
Q 1319 3278 1856 5166 
L 2319 5013 
Q 2100 4319 1831 3700 
z
M 3425 2906 
Q 4528 3350 5306 3969 
L 5703 3616 
Q 4728 2919 3425 2444 
L 3425 575 
Q 3425 353 3584 306 
Q 3738 263 4334 263 
Q 5072 263 5250 347 
Q 5384 403 5422 594 
Q 5475 872 5506 1497 
L 5978 1331 
Q 5931 319 5775 106 
Q 5641 -75 5331 -141 
Q 5041 -206 4244 -206 
Q 3438 -206 3181 -78 
Q 2931 47 2931 384 
L 2931 5113 
L 3425 5113 
L 3425 2906 
z
" transform="scale(0.015625)"/>
     </defs>
     <use xlink:href="#IPAexGothic-6563"/>
     <use xlink:href="#IPAexGothic-5e03" x="100"/>
     <use xlink:href="#IPAexGothic-56f3" x="200"/>
     <use xlink:href="#IPAexGothic-20" x="300"/>
     <use xlink:href="#IPAexGothic-2f" x="327.001953"/>
     <use xlink:href="#IPAexGothic-20" x="377.001953"/>
     <use xlink:href="#IPAexGothic-76f8" x="404.003906"/>
     <use xlink:href="#IPAexGothic-95a2" x="504.003906"/>
     <use xlink:href="#IPAexGothic-30d2" x="604.003906"/>
     <use xlink:href="#IPAexGothic-30fc" x="704.003906"/>
     <use xlink:href="#IPAexGothic-30c8" x="804.003906"/>
     <use xlink:href="#IPAexGothic-30de" x="904.003906"/>
     <use xlink:href="#IPAexGothic-30c3" x="1004.003906"/>
     <use xlink:href="#IPAexGothic-30d7" x="1104.003906"/>
     <use xlink:href="#IPAexGothic-20" x="1204.003906"/>
     <use xlink:href="#IPAexGothic-2f" x="1231.005859"/>
     <use xlink:href="#IPAexGothic-20" x="1281.005859"/>
     <use xlink:href="#IPAexGothic-8a00" x="1308.007812"/>
     <use xlink:href="#IPAexGothic-8a9e" x="1408.007812"/>
     <use xlink:href="#IPAexGothic-5316" x="1508.007812"/>
    </g>
   </g>
   <g id="text_29">
    <!-- モデルを作る -->
    <g style="fill: #2c3e50" transform="translate(38.88 253.2) scale(0.12 -0.12)">
     <use xlink:href="#IPAexGothic-30e2"/>
     <use xlink:href="#IPAexGothic-30c7" x="100"/>
     <use xlink:href="#IPAexGothic-30eb" x="200"/>
     <use xlink:href="#IPAexGothic-3092" x="300"/>
     <use xlink:href="#IPAexGothic-4f5c" x="400"/>
     <use xlink:href="#IPAexGothic-308b" x="500"/>
    </g>
   </g>
   <g id="text_30">
    <!-- Ch.4 -->
    <g style="fill: #2c3e50" transform="translate(182.88 253.194375) scale(0.12 -0.12)">
     <defs>
      <path id="IPAexGothic-34" d="M 3813 1159 
L 3059 1159 
L 3059 63 
L 2547 63 
L 2547 1159 
L 197 1159 
L 197 1672 
L 2456 4678 
L 3059 4678 
L 3059 1634 
L 3813 1634 
L 3813 1159 
z
M 2578 4109 
L 2559 4109 
Q 2278 3656 2003 3284 
L 759 1634 
L 2547 1634 
L 2547 3144 
Q 2547 3481 2578 4109 
z
" transform="scale(0.015625)"/>
     </defs>
     <use xlink:href="#IPAexGothic-43"/>
     <use xlink:href="#IPAexGothic-68" x="72.509766"/>
     <use xlink:href="#IPAexGothic-2e" x="133.203125"/>
     <use xlink:href="#IPAexGothic-34" x="159.619141"/>
    </g>
   </g>
   <g id="text_31">
    <!-- train_test_split / StandardScaler / RandomForest -->
    <g style="fill: #2c3e50" transform="translate(283.68 253.229062) scale(0.12 -0.12)">
     <defs>
      <path id="IPAexGothic-53" d="M 2919 3641 
Q 2563 4259 1853 4259 
Q 1453 4259 1213 4009 
Q 1028 3803 1028 3534 
Q 1028 3238 1266 3047 
Q 1444 2913 1984 2688 
L 2200 2597 
Q 2925 2306 3191 1953 
Q 3422 1644 3422 1259 
Q 3422 644 2969 288 
Q 2559 -31 1931 -31 
Q 881 -31 313 766 
L 753 1100 
Q 1203 459 1938 459 
Q 2288 459 2534 625 
Q 2841 847 2841 1216 
Q 2841 1503 2616 1728 
Q 2375 1959 1728 2206 
L 1541 2278 
Q 453 2694 453 3481 
Q 453 4006 806 4347 
Q 1203 4725 1863 4725 
Q 2841 4725 3359 3956 
L 2919 3641 
z
" transform="scale(0.015625)"/>
      <path id="IPAexGothic-52" d="M 4072 63 
L 3394 63 
Q 3138 641 2828 1197 
Q 2584 1641 2344 1825 
Q 2050 2044 1625 2044 
L 1172 2044 
L 1172 63 
L 609 63 
L 609 4634 
L 2009 4634 
Q 2713 4634 3131 4378 
Q 3688 4044 3688 3381 
Q 3688 2784 3181 2459 
Q 2906 2272 2522 2216 
L 2522 2197 
Q 2941 2050 3247 1581 
Q 3516 1166 4072 63 
z
M 1172 2478 
L 1869 2478 
Q 3106 2478 3106 3369 
Q 3106 4181 1928 4181 
L 1172 4181 
L 1172 2478 
z
" transform="scale(0.015625)"/>
      <path id="IPAexGothic-6d" d="M 5022 63 
L 4472 63 
L 4472 2059 
Q 4472 2869 3847 2869 
Q 3550 2869 3303 2594 
Q 3128 2397 3059 2103 
L 3059 63 
L 2509 63 
L 2509 2066 
Q 2509 2869 1919 2869 
Q 1606 2869 1369 2594 
Q 1113 2306 1113 2041 
L 1113 63 
L 563 63 
L 563 3250 
L 1075 3250 
L 1075 2700 
Q 1391 3316 2028 3316 
Q 2725 3316 2956 2647 
Q 3303 3316 3953 3316 
Q 4478 3316 4772 2944 
Q 5022 2638 5022 2072 
L 5022 63 
z
" transform="scale(0.015625)"/>
      <path id="IPAexGothic-46" d="M 3469 4141 
L 1172 4141 
L 1172 2656 
L 3206 2656 
L 3206 2188 
L 1172 2188 
L 1172 63 
L 609 63 
L 609 4634 
L 3469 4634 
L 3469 4141 
z
" transform="scale(0.015625)"/>
     </defs>
     <use xlink:href="#IPAexGothic-74"/>
     <use xlink:href="#IPAexGothic-72" x="34.619141"/>
     <use xlink:href="#IPAexGothic-61" x="71.630859"/>
     <use xlink:href="#IPAexGothic-69" x="126.611328"/>
     <use xlink:href="#IPAexGothic-6e" x="153.613281"/>
     <use xlink:href="#IPAexGothic-5f" x="214.013672"/>
     <use xlink:href="#IPAexGothic-74" x="264.013672"/>
     <use xlink:href="#IPAexGothic-65" x="298.632812"/>
     <use xlink:href="#IPAexGothic-73" x="355.517578"/>
     <use xlink:href="#IPAexGothic-74" x="401.708984"/>
     <use xlink:href="#IPAexGothic-5f" x="436.328125"/>
     <use xlink:href="#IPAexGothic-73" x="486.328125"/>
     <use xlink:href="#IPAexGothic-70" x="532.519531"/>
     <use xlink:href="#IPAexGothic-6c" x="594.628906"/>
     <use xlink:href="#IPAexGothic-69" x="621.630859"/>
     <use xlink:href="#IPAexGothic-74" x="648.632812"/>
     <use xlink:href="#IPAexGothic-20" x="683.251953"/>
     <use xlink:href="#IPAexGothic-2f" x="710.253906"/>
     <use xlink:href="#IPAexGothic-20" x="760.253906"/>
     <use xlink:href="#IPAexGothic-53" x="787.255859"/>
     <use xlink:href="#IPAexGothic-74" x="845.751953"/>
     <use xlink:href="#IPAexGothic-61" x="880.371094"/>
     <use xlink:href="#IPAexGothic-6e" x="935.351562"/>
     <use xlink:href="#IPAexGothic-64" x="995.751953"/>
     <use xlink:href="#IPAexGothic-61" x="1058.154297"/>
     <use xlink:href="#IPAexGothic-72" x="1113.134766"/>
     <use xlink:href="#IPAexGothic-64" x="1150.146484"/>
     <use xlink:href="#IPAexGothic-53" x="1212.548828"/>
     <use xlink:href="#IPAexGothic-63" x="1271.044922"/>
     <use xlink:href="#IPAexGothic-61" x="1325.439453"/>
     <use xlink:href="#IPAexGothic-6c" x="1380.419922"/>
     <use xlink:href="#IPAexGothic-65" x="1407.421875"/>
     <use xlink:href="#IPAexGothic-72" x="1464.306641"/>
     <use xlink:href="#IPAexGothic-20" x="1501.318359"/>
     <use xlink:href="#IPAexGothic-2f" x="1528.320312"/>
     <use xlink:href="#IPAexGothic-20" x="1578.320312"/>
     <use xlink:href="#IPAexGothic-52" x="1605.322266"/>
     <use xlink:href="#IPAexGothic-61" x="1670.117188"/>
     <use xlink:href="#IPAexGothic-6e" x="1725.097656"/>
     <use xlink:href="#IPAexGothic-64" x="1785.498047"/>
     <use xlink:href="#IPAexGothic-6f" x="1847.900391"/>
     <use xlink:href="#IPAexGothic-6d" x="1908.300781"/>
     <use xlink:href="#IPAexGothic-46" x="1995.410156"/>
     <use xlink:href="#IPAexGothic-6f" x="2052.587891"/>
     <use xlink:href="#IPAexGothic-72" x="2112.988281"/>
     <use xlink:href="#IPAexGothic-65" x="2150"/>
     <use xlink:href="#IPAexGothic-73" x="2206.884766"/>
     <use xlink:href="#IPAexGothic-74" x="2253.076172"/>
    </g>
   </g>
   <g id="text_32">
    <!-- 結果を解釈する -->
    <g style="fill: #2c3e50" transform="translate(38.88 277.674375) scale(0.12 -0.12)">
     <use xlink:href="#IPAexGothic-7d50"/>
     <use xlink:href="#IPAexGothic-679c" x="100"/>
     <use xlink:href="#IPAexGothic-3092" x="200"/>
     <use xlink:href="#IPAexGothic-89e3" x="300"/>
     <use xlink:href="#IPAexGothic-91c8" x="400"/>
     <use xlink:href="#IPAexGothic-3059" x="500"/>
     <use xlink:href="#IPAexGothic-308b" x="600"/>
    </g>
   </g>
   <g id="text_33">
    <!-- Ch.4・5 -->
    <g style="fill: #2c3e50" transform="translate(182.88 277.674375) scale(0.12 -0.12)">
     <defs>
      <path id="IPAexGothic-35" d="M 1178 2603 
Q 1634 2963 2172 2963 
Q 2816 2963 3241 2528 
Q 3638 2113 3638 1497 
Q 3638 938 3297 513 
Q 2869 -31 2031 -31 
Q 959 -31 469 784 
L 938 1028 
Q 1309 434 2013 434 
Q 2466 434 2769 716 
Q 3081 1013 3081 1503 
Q 3081 1966 2806 2241 
Q 2519 2528 2056 2528 
Q 1406 2528 1072 2028 
L 591 2091 
L 884 4634 
L 3406 4634 
L 3406 4153 
L 1341 4153 
L 1134 2603 
L 1178 2603 
z
" transform="scale(0.015625)"/>
     </defs>
     <use xlink:href="#IPAexGothic-43"/>
     <use xlink:href="#IPAexGothic-68" x="72.509766"/>
     <use xlink:href="#IPAexGothic-2e" x="133.203125"/>
     <use xlink:href="#IPAexGothic-34" x="159.619141"/>
     <use xlink:href="#IPAexGothic-30fb" x="222.607422"/>
     <use xlink:href="#IPAexGothic-35" x="322.607422"/>
    </g>
   </g>
   <g id="text_34">
    <!-- 混同行列 / 特徴量重要度 / ビジネス示唆 -->
    <g style="fill: #2c3e50" transform="translate(283.68 277.884375) scale(0.12 -0.12)">
     <defs>
      <path id="IPAexGothic-6df7" d="M 2272 206 
L 2272 2425 
L 2713 2425 
L 2713 1722 
L 3844 1722 
L 3844 1338 
L 2713 1338 
L 2713 300 
Q 3363 447 3825 581 
L 3844 197 
Q 2866 -144 1803 -353 
L 1638 84 
Q 2041 153 2272 206 
z
M 5441 4984 
L 5441 2663 
L 2209 2663 
L 2209 4984 
L 5441 4984 
z
M 2656 4606 
L 2656 4019 
L 4994 4019 
L 4994 4606 
L 2656 4606 
z
M 2656 3659 
L 2656 3041 
L 4994 3041 
L 4994 3659 
L 2656 3659 
z
M 4506 1600 
Q 5128 1806 5575 2106 
L 5906 1759 
Q 5325 1438 4506 1209 
L 4506 391 
Q 4506 219 4628 172 
Q 4734 134 5013 134 
Q 5463 134 5531 263 
Q 5609 431 5619 1038 
L 6069 884 
Q 6019 63 5900 -97 
Q 5756 -281 4994 -281 
Q 4444 -281 4288 -216 
Q 4072 -131 4072 191 
L 4072 2425 
L 4506 2425 
L 4506 1600 
z
M 1500 3866 
Q 1131 4303 591 4722 
L 897 5063 
Q 1359 4759 1813 4250 
L 1500 3866 
z
M 1403 2394 
Q 966 2906 463 3250 
L 769 3603 
Q 1334 3209 1728 2759 
L 1403 2394 
z
M 341 6 
Q 956 800 1441 1919 
L 1781 1563 
Q 1269 391 725 -391 
L 341 6 
z
" transform="scale(0.015625)"/>
      <path id="IPAexGothic-540c" d="M 4409 2847 
L 4409 1038 
L 2378 1038 
L 2378 578 
L 1938 578 
L 1938 2847 
L 4409 2847 
z
M 3969 2463 
L 2378 2463 
L 2378 1422 
L 3969 1422 
L 3969 2463 
z
M 5675 4922 
L 5675 194 
Q 5675 -81 5547 -209 
Q 5416 -331 5003 -331 
Q 4509 -331 3984 -294 
L 3875 213 
Q 4506 138 4956 138 
Q 5194 138 5194 359 
L 5194 4506 
L 1197 4506 
L 1197 -447 
L 716 -447 
L 716 4922 
L 5675 4922 
z
M 1588 3841 
L 4806 3841 
L 4806 3438 
L 1588 3438 
L 1588 3841 
z
" transform="scale(0.015625)"/>
      <path id="IPAexGothic-884c" d="M 1822 2753 
L 1822 -447 
L 1353 -447 
L 1353 2169 
Q 966 1744 622 1466 
L 316 1791 
Q 1294 2559 1969 3822 
L 2397 3634 
Q 2109 3138 1822 2753 
z
M 4975 2803 
L 4975 103 
Q 4975 -391 4369 -391 
Q 3925 -391 3356 -341 
L 3288 159 
Q 3775 78 4259 78 
Q 4516 78 4516 319 
L 4516 2803 
L 2384 2803 
L 2384 3225 
L 6013 3225 
L 6013 2803 
L 4975 2803 
z
M 384 3691 
Q 1231 4256 1756 5075 
L 2144 4850 
Q 1541 3947 666 3347 
L 384 3691 
z
M 2709 4794 
L 5659 4794 
L 5659 4378 
L 2709 4378 
L 2709 4794 
z
" transform="scale(0.015625)"/>
      <path id="IPAexGothic-5217" d="M 2334 1600 
Q 1944 1966 1306 2378 
Q 1038 1938 709 1541 
L 434 1906 
Q 1325 2934 1663 4550 
L 606 4550 
L 606 4953 
L 3781 4953 
L 3781 4550 
L 2097 4550 
Q 2091 4531 2078 4466 
Q 2000 4100 1900 3781 
L 3141 3781 
L 3409 3575 
Q 3156 2138 2656 1247 
Q 2097 269 1003 -500 
L 684 -128 
Q 1769 563 2334 1600 
z
M 2534 2009 
Q 2794 2656 2919 3384 
L 1766 3384 
Q 1638 3034 1478 2706 
Q 2181 2294 2534 2009 
z
M 3956 4416 
L 4409 4416 
L 4409 966 
L 3956 966 
L 3956 4416 
z
M 5306 5056 
L 5759 5056 
L 5759 197 
Q 5759 -138 5569 -263 
Q 5419 -353 5094 -353 
Q 4547 -353 3963 -294 
L 3878 191 
Q 4600 116 5038 116 
Q 5306 116 5306 359 
L 5306 5056 
z
" transform="scale(0.015625)"/>
      <path id="IPAexGothic-7279" d="M 1025 3950 
L 1434 3950 
L 1434 5313 
L 1875 5313 
L 1875 3950 
L 2534 3950 
L 2534 3547 
L 1875 3547 
L 1875 2216 
Q 2084 2313 2494 2516 
L 2547 2106 
Q 2281 1963 1856 1750 
L 1856 -447 
L 1416 -447 
L 1416 1538 
Q 1028 1359 538 1153 
L 313 1581 
Q 778 1744 1434 2019 
L 1434 3547 
L 947 3547 
Q 828 3013 647 2556 
L 275 2803 
Q 584 3600 691 4744 
L 1131 4688 
Q 1091 4291 1025 3950 
z
M 3872 4372 
L 3872 5313 
L 4313 5313 
L 4313 4372 
L 5738 4372 
L 5738 3981 
L 4313 3981 
L 4313 3200 
L 6072 3200 
L 6072 2803 
L 5106 2803 
L 5106 2047 
L 5956 2047 
L 5956 1650 
L 5125 1650 
L 5125 38 
Q 5125 -447 4594 -447 
Q 4288 -447 3788 -391 
L 3691 78 
Q 4181 0 4491 0 
Q 4684 0 4684 172 
L 4684 1650 
L 2609 1650 
L 2609 2047 
L 4666 2047 
L 4666 2803 
L 2400 2803 
L 2400 3200 
L 3872 3200 
L 3872 3981 
L 2653 3981 
L 2653 4372 
L 3872 4372 
z
M 3550 384 
Q 3216 959 2834 1331 
L 3172 1575 
Q 3641 1116 3916 672 
L 3550 384 
z
" transform="scale(0.015625)"/>
      <path id="IPAexGothic-5fb4" d="M 5656 3775 
L 5656 3697 
Q 5597 2178 5228 1188 
Q 5678 478 6181 31 
L 5900 -419 
Q 5375 125 5016 741 
Q 4591 -3 3941 -500 
L 3616 -138 
Q 4372 331 4788 1163 
Q 4441 1838 4269 2759 
Q 4131 2388 3953 2078 
L 3697 2413 
L 3072 2413 
L 3072 1784 
L 3788 1784 
L 3788 1425 
L 3072 1425 
L 3072 747 
Q 3600 866 4063 1003 
L 4081 625 
Q 3147 297 1784 25 
L 1631 459 
Q 2194 553 2656 650 
L 2656 1425 
L 1856 1425 
L 1856 1784 
L 2656 1784 
L 2656 2413 
L 1663 2413 
L 1663 2784 
L 3838 2784 
Q 4222 3697 4422 5259 
L 4844 5197 
Q 4775 4688 4672 4178 
L 6059 4178 
L 6059 3775 
L 5656 3775 
z
M 5253 3775 
L 4575 3775 
Q 4516 3525 4497 3463 
L 4509 3391 
Q 4638 2475 4966 1700 
Q 5188 2516 5253 3775 
z
M 1372 2950 
L 1372 -447 
L 950 -447 
L 950 2328 
Q 728 2038 419 1716 
L 194 2088 
Q 944 2819 1453 3981 
L 1825 3803 
Q 1631 3384 1372 2950 
z
M 3088 3700 
L 3484 3700 
L 3484 4819 
L 3875 4819 
L 3875 3334 
L 1916 3334 
L 1916 4819 
L 2306 4819 
L 2306 3700 
L 2684 3700 
L 2684 5313 
L 3088 5313 
L 3088 3700 
z
M 256 3884 
Q 916 4419 1350 5203 
L 1716 5013 
Q 1300 4234 513 3547 
L 256 3884 
z
" transform="scale(0.015625)"/>
      <path id="IPAexGothic-91cf" d="M 5081 5159 
L 5081 3497 
L 1275 3497 
L 1275 5159 
L 5081 5159 
z
M 1716 4819 
L 1716 4475 
L 4647 4475 
L 4647 4819 
L 1716 4819 
z
M 1716 4175 
L 1716 3816 
L 4647 3816 
L 4647 4175 
L 1716 4175 
z
M 5238 2625 
L 5238 997 
L 3388 997 
L 3388 694 
L 5428 694 
L 5428 353 
L 3388 353 
L 3388 34 
L 6044 34 
L 6044 -331 
L 353 -331 
L 353 34 
L 2972 34 
L 2972 353 
L 969 353 
L 969 694 
L 2972 694 
L 2972 997 
L 1159 997 
L 1159 2625 
L 5238 2625 
z
M 1588 2325 
L 1588 1972 
L 2972 1972 
L 2972 2325 
L 1588 2325 
z
M 1588 1672 
L 1588 1303 
L 2972 1303 
L 2972 1672 
L 1588 1672 
z
M 4809 1303 
L 4809 1672 
L 3388 1672 
L 3388 1303 
L 4809 1303 
z
M 4809 1972 
L 4809 2325 
L 3388 2325 
L 3388 1972 
L 4809 1972 
z
M 384 3231 
L 6009 3231 
L 6009 2884 
L 384 2884 
L 384 3231 
z
" transform="scale(0.015625)"/>
      <path id="IPAexGothic-91cd" d="M 2950 3284 
L 2950 3684 
L 481 3684 
L 481 4063 
L 2950 4063 
L 2950 4491 
L 2747 4478 
Q 2100 4431 1241 4400 
L 1038 4791 
Q 3488 4878 4903 5113 
L 5234 4734 
Q 4388 4600 3406 4522 
L 3406 4063 
L 5913 4063 
L 5913 3684 
L 3406 3684 
L 3406 3284 
L 5269 3284 
L 5269 1313 
L 3406 1313 
L 3406 884 
L 5594 884 
L 5594 519 
L 3406 519 
L 3406 84 
L 6009 84 
L 6009 -294 
L 384 -294 
L 384 84 
L 2950 84 
L 2950 519 
L 800 519 
L 800 884 
L 2950 884 
L 2950 1313 
L 1128 1313 
L 1128 3284 
L 2950 3284 
z
M 2963 2931 
L 1569 2931 
L 1569 2472 
L 2963 2472 
L 2963 2931 
z
M 3394 2931 
L 3394 2472 
L 4825 2472 
L 4825 2931 
L 3394 2931 
z
M 2963 2147 
L 1569 2147 
L 1569 1659 
L 2963 1659 
L 2963 2147 
z
M 3394 2147 
L 3394 1659 
L 4825 1659 
L 4825 2147 
L 3394 2147 
z
" transform="scale(0.015625)"/>
      <path id="IPAexGothic-8981" d="M 2278 4025 
L 2278 4581 
L 528 4581 
L 528 4978 
L 5856 4978 
L 5856 4581 
L 4081 4581 
L 4081 4025 
L 5522 4025 
L 5522 2547 
L 863 2547 
L 863 4025 
L 2278 4025 
z
M 2694 4025 
L 3659 4025 
L 3659 4581 
L 2694 4581 
L 2694 4025 
z
M 2278 3666 
L 1316 3666 
L 1316 2906 
L 2278 2906 
L 2278 3666 
z
M 2694 3666 
L 2694 2906 
L 3659 2906 
L 3659 3666 
L 2694 3666 
z
M 4081 3666 
L 4081 2906 
L 5075 2906 
L 5075 3666 
L 4081 3666 
z
M 3066 338 
Q 2547 503 1694 722 
L 1503 775 
Q 1816 1141 2066 1503 
L 447 1503 
L 447 1900 
L 2316 1900 
Q 2497 2225 2641 2516 
L 3084 2366 
Q 2984 2172 2834 1900 
L 5950 1900 
L 5950 1503 
L 4619 1503 
Q 4369 878 3988 484 
Q 4750 263 5797 -91 
L 5413 -488 
Q 4441 -100 3597 172 
Q 2706 -406 869 -531 
L 625 -97 
Q 2122 -28 3066 338 
z
M 3513 619 
Q 3934 1025 4134 1503 
L 2597 1503 
Q 2413 1213 2238 984 
L 2213 953 
Q 2656 853 3513 619 
z
" transform="scale(0.015625)"/>
      <path id="IPAexGothic-5ea6" d="M 3516 4622 
L 5794 4622 
L 5794 4231 
L 1278 4231 
L 1278 3547 
L 2328 3547 
L 2328 4041 
L 2759 4041 
L 2759 3547 
L 4097 3547 
L 4097 4041 
L 4525 4041 
L 4525 3547 
L 5825 3547 
L 5825 3163 
L 4525 3163 
L 4525 2266 
L 2328 2266 
L 2328 3163 
L 1278 3163 
L 1278 2747 
Q 1278 1434 1131 775 
Q 1006 203 606 -441 
L 269 -50 
Q 653 541 763 1381 
Q 825 1869 825 2747 
L 825 4622 
L 3034 4622 
L 3034 5313 
L 3516 5313 
L 3516 4622 
z
M 2759 3163 
L 2759 2619 
L 4097 2619 
L 4097 3163 
L 2759 3163 
z
M 3609 263 
Q 2784 -231 1472 -494 
L 1222 -97 
Q 2444 63 3213 491 
Q 2544 909 2119 1522 
L 1575 1522 
L 1575 1900 
L 4897 1900 
L 5125 1700 
Q 4628 994 3994 516 
Q 4769 200 5925 56 
L 5638 -397 
Q 4434 -163 3609 263 
z
M 2606 1522 
Q 2984 1044 3578 716 
Q 4163 1119 4422 1522 
L 2606 1522 
z
" transform="scale(0.015625)"/>
      <path id="IPAexGothic-30d3" d="M 1356 4775 
L 1881 4775 
L 1881 2778 
Q 3553 3153 4747 3891 
L 5131 3475 
Q 3644 2681 1881 2297 
L 1881 1063 
Q 1881 744 2072 669 
Q 2266 584 3163 584 
Q 4169 584 5394 716 
L 5394 206 
Q 4259 97 3263 97 
Q 1938 97 1644 294 
Q 1356 478 1356 966 
L 1356 4775 
z
M 5972 4250 
Q 5609 4791 5216 5119 
L 5516 5350 
Q 5900 5041 6291 4525 
L 5972 4250 
z
M 5375 3781 
Q 5084 4272 4641 4672 
L 4953 4916 
Q 5325 4606 5709 4056 
L 5375 3781 
z
" transform="scale(0.015625)"/>
      <path id="IPAexGothic-30b8" d="M 2759 3481 
Q 2150 4006 1544 4309 
L 1844 4731 
Q 2434 4441 3100 3931 
L 2759 3481 
z
M 1094 447 
Q 3875 1041 5269 3475 
L 5619 3078 
Q 4228 650 1416 -50 
L 1094 447 
z
M 2003 2228 
Q 1397 2747 763 3059 
L 1063 3488 
Q 1738 3159 2338 2675 
L 2003 2228 
z
M 5594 4219 
Q 5234 4759 4841 5088 
L 5141 5319 
Q 5525 5009 5916 4494 
L 5594 4219 
z
M 5000 3750 
Q 4709 4241 4263 4641 
L 4578 4884 
Q 4947 4575 5331 4025 
L 5000 3750 
z
" transform="scale(0.015625)"/>
      <path id="IPAexGothic-30cd" d="M 1288 3834 
L 4803 3834 
L 5066 3559 
Q 4419 2813 3466 2134 
L 3466 -294 
L 2953 -294 
L 2953 1800 
Q 1963 1203 1056 891 
L 731 1328 
Q 1797 1631 2844 2281 
Q 3675 2794 4253 3381 
L 1288 3381 
L 1288 3834 
z
M 3669 4031 
Q 3094 4459 2291 4850 
L 2572 5222 
Q 3334 4884 4000 4428 
L 3669 4031 
z
M 5441 838 
Q 4781 1413 3859 1966 
L 4159 2316 
Q 5078 1819 5825 1247 
L 5441 838 
z
" transform="scale(0.015625)"/>
      <path id="IPAexGothic-793a" d="M 3488 2822 
L 3488 153 
Q 3488 -144 3334 -247 
Q 3213 -331 2872 -331 
Q 2425 -331 1950 -294 
L 1859 213 
Q 2350 128 2775 128 
Q 3000 128 3000 353 
L 3000 2822 
L 447 2822 
L 447 3250 
L 5950 3250 
L 5950 2822 
L 3488 2822 
z
M 1125 4813 
L 5266 4813 
L 5266 4384 
L 1125 4384 
L 1125 4813 
z
M 5581 244 
Q 4966 1263 4206 2081 
L 4563 2369 
Q 5319 1575 6009 622 
L 5581 244 
z
M 403 616 
Q 1184 1238 1741 2259 
L 2163 2053 
Q 1631 975 763 238 
L 403 616 
z
" transform="scale(0.015625)"/>
      <path id="IPAexGothic-5506" d="M 3234 3541 
L 3016 3525 
Q 2944 3522 2719 3516 
Q 2422 3506 2294 3500 
L 2159 3916 
Q 2484 3916 2625 3922 
L 2881 3928 
Q 3344 4588 3619 5306 
L 4072 5153 
Q 3734 4447 3369 3938 
Q 3438 3938 3472 3938 
Q 3919 3947 4616 3975 
L 5141 4000 
Q 4731 4428 4431 4684 
L 4781 4891 
Q 5444 4334 6038 3647 
L 5672 3378 
Q 5656 3403 5575 3500 
Q 5478 3616 5416 3694 
Q 4941 3644 4738 3628 
L 4738 3003 
Q 4738 2847 4794 2809 
Q 4863 2772 5128 2772 
Q 5456 2772 5563 2828 
Q 5644 2875 5653 3169 
Q 5653 3238 5659 3291 
L 6050 3163 
Q 6022 2597 5844 2491 
Q 5691 2394 4994 2394 
Q 4572 2394 4444 2484 
Q 4322 2566 4322 2803 
L 4322 3597 
Q 4294 3588 3656 3559 
Q 3572 3022 3319 2669 
Q 3025 2269 2403 2028 
L 2116 2375 
Q 3069 2663 3234 3541 
z
M 4531 600 
Q 5125 266 6100 63 
L 5856 -384 
Q 4847 -125 4200 319 
Q 3497 -209 2394 -506 
L 2106 -116 
Q 3075 78 3853 581 
Q 3450 944 3200 1344 
Q 2850 972 2491 741 
L 2197 1063 
Q 3128 1647 3616 2738 
L 4047 2638 
Q 3891 2300 3725 2041 
L 5172 2041 
L 5441 1784 
Q 5050 1078 4531 600 
z
M 4188 831 
Q 4616 1209 4872 1656 
L 3463 1656 
L 3438 1625 
Q 3769 1141 4188 831 
z
M 2069 4659 
L 2069 959 
L 922 959 
L 922 459 
L 500 459 
L 500 4659 
L 2069 4659 
z
M 922 4250 
L 922 1369 
L 1653 1369 
L 1653 4250 
L 922 4250 
z
" transform="scale(0.015625)"/>
     </defs>
     <use xlink:href="#IPAexGothic-6df7"/>
     <use xlink:href="#IPAexGothic-540c" x="100"/>
     <use xlink:href="#IPAexGothic-884c" x="200"/>
     <use xlink:href="#IPAexGothic-5217" x="300"/>
     <use xlink:href="#IPAexGothic-20" x="400"/>
     <use xlink:href="#IPAexGothic-2f" x="427.001953"/>
     <use xlink:href="#IPAexGothic-20" x="477.001953"/>
     <use xlink:href="#IPAexGothic-7279" x="504.003906"/>
     <use xlink:href="#IPAexGothic-5fb4" x="604.003906"/>
     <use xlink:href="#IPAexGothic-91cf" x="704.003906"/>
     <use xlink:href="#IPAexGothic-91cd" x="804.003906"/>
     <use xlink:href="#IPAexGothic-8981" x="904.003906"/>
     <use xlink:href="#IPAexGothic-5ea6" x="1004.003906"/>
     <use xlink:href="#IPAexGothic-20" x="1104.003906"/>
     <use xlink:href="#IPAexGothic-2f" x="1131.005859"/>
     <use xlink:href="#IPAexGothic-20" x="1181.005859"/>
     <use xlink:href="#IPAexGothic-30d3" x="1208.007812"/>
     <use xlink:href="#IPAexGothic-30b8" x="1308.007812"/>
     <use xlink:href="#IPAexGothic-30cd" x="1408.007812"/>
     <use xlink:href="#IPAexGothic-30b9" x="1508.007812"/>
     <use xlink:href="#IPAexGothic-793a" x="1608.007812"/>
     <use xlink:href="#IPAexGothic-5506" x="1708.007812"/>
    </g>
   </g>
  </g>
 </g>
 <defs>
  <clipPath id="p7fa7b57819">
   <rect x="0" y="-0" width="691.2" height="388.8"/>
  </clipPath>
 </defs>
</svg>
